<svg xmlns="http://www.w3.org/2000/svg" width="58.533" height="103.603" viewBox="0 0 58.533 103.603">
  <path d="M35.75,96.663c3.957.208,12.677-.6,12.088-4.487-.218-1.437-5.241-4.03-6.409-5.017a39.811,39.811,0,0,1-6.355-6.638c-7.988-10.776-8.5-25.7-4.491-38.5,3.878-12.4,11.453-23.246,19.187-33.7a.628.628,0,0,0-.514-1C37.864,7.733,27.833,15.6,20.637,24.557,14.379,32.347,9.446,41.385,7.542,51.194s-.579,20.432,4.767,28.874A41.152,41.152,0,0,0,26.627,93.349a25.529,25.529,0,0,0,7.766,3.17A10.13,10.13,0,0,0,35.75,96.663Zm-1.44,6.606a36.424,36.424,0,0,1-13.372-5.4,45.9,45.9,0,0,1-13.781-13.2C1.026,75.443-1.031,63.827.47,52.854S6.857,31.537,13.5,22.671C22.577,10.542,36.025.6,51.166.014c2.465-.1,5.321.262,6.673,2.326,1.707,2.6-.059,6.016-1.826,8.579C50.97,18.233,45.655,25.4,41.547,33.281s-7,16.6-6.766,25.483S38.686,76.692,45.737,82.1c2.121,1.626,4.512,2.911,6.434,4.767,8.894,8.586-5.063,16.412-12.907,16.721A24.707,24.707,0,0,1,34.31,103.269Z"/>
</svg>
