<svg xmlns="http://www.w3.org/2000/svg" width="150.772" height="108.881" viewBox="0 0 150.772 108.881">
  <path d="M98.045,101.831a87.122,87.122,0,0,0,10.147-1.493c-.141.036-.281.062-.422.1a80.275,80.275,0,0,0,8.558-2.365,58.471,58.471,0,0,0,6.3-2.614l-.058.027a51.487,51.487,0,0,0,4.963-2.917,51.175,51.175,0,0,0,4.22-3.264c-.047.042-.094.086-.139.131l.207-.189.127-.11-.1.088a43.7,43.7,0,0,0,3.38-3.452,45.426,45.426,0,0,0,3.184-4.318,43.224,43.224,0,0,0,2.373-4.347q1.005-2.27,1.779-4.633c.417-1.4.764-2.8,1.04-4.232a35.621,35.621,0,0,0,.409-3.8,42.1,42.1,0,0,0-.094-4.232c-.137-1.471-.342-2.927-.623-4.383a40.446,40.446,0,0,0-1.159-4.184,48.808,48.808,0,0,0-2.2-5.051c.062.132.132.264.194.395a59.4,59.4,0,0,0-3.151-5.335,62.272,62.272,0,0,0-4.58-5.9,68.2,68.2,0,0,0-6.125-5.946c.114.1.237.194.351.29a71.182,71.182,0,0,0-6.991-5.191,75.081,75.081,0,0,0-8.077-4.4c.14.061.272.123.413.184A110.637,110.637,0,0,0,99.249,15.77a112.911,112.911,0,0,0-12.814-3.041l.068.012a179.1,179.1,0,0,0-22.729-2.662c-4.953-.19-9.89-.16-14.843.134q-4.65.276-9.29.631l-2.468.185c-1.614.6-3.191,1.29-4.738,2.05a54.956,54.956,0,0,0-5.573,3.264,55.191,55.191,0,0,0-4.8,3.776,59.747,59.747,0,0,0-4.689,4.753,60.077,60.077,0,0,0-4.618,6.192,52.067,52.067,0,0,0-2.672,4.8c.02-.042.039-.084.058-.125-.02.043-.039.086-.059.128-.045.092-.09.184-.134.276.034-.064.066-.131.1-.2a52.717,52.717,0,0,0-2.311,5.776c-.271.924-.5,1.849-.694,2.789.018-.095.032-.19.047-.288A27.4,27.4,0,0,0,6.753,47.3c-.026,1.061,0,2.122.071,3.183a36.279,36.279,0,0,0,.565,3.772c.224.934.474,1.862.77,2.778a36.168,36.168,0,0,0,1.5,3.534,52.392,52.392,0,0,0,2.821,4.782,63.55,63.55,0,0,0,4.647,6.015,78.664,78.664,0,0,0,6.993,6.755l-.055-.044.131.109.221.19-.078-.071a94.247,94.247,0,0,0,9.113,6.727l-.386-.255a108.762,108.762,0,0,0,12,6.647l-.4-.184a127.89,127.89,0,0,0,15.325,5.924,119.308,119.308,0,0,0,14.539,3.567c-.141-.026-.281-.052-.431-.078a107.475,107.475,0,0,0,12.874,1.4A96.757,96.757,0,0,0,98.045,101.831Zm-21.534,6.024a121.664,121.664,0,0,1-30.2-8.509A101.232,101.232,0,0,1,20.05,83.488,72.574,72.574,0,0,1,9.619,72.89a49.568,49.568,0,0,1-7.525-12.8A33.739,33.739,0,0,1,.013,47.267,34.545,34.545,0,0,1,3.6,33.842,57.807,57.807,0,0,1,21.06,12.215q1.024-.786,2.094-1.514a3.481,3.481,0,0,1-.812-2.113,3.419,3.419,0,0,1,3.311-3.433q5-.389,10.006-.765a81.42,81.42,0,0,1,11.533-3A74.676,74.676,0,0,1,61.917,0c5.225.009,10.414.387,15.621.738a3.387,3.387,0,0,1,2.977,3.723,3.434,3.434,0,0,1-.088.485q2.172.318,4.338.665a125.523,125.523,0,0,1,15.12,3.311,88.248,88.248,0,0,1,26.58,12.486A63.993,63.993,0,0,1,145.66,43.026a43.178,43.178,0,0,1,4.592,13.426,39.579,39.579,0,0,1-.272,14.269,43.082,43.082,0,0,1-5.453,13.645A44.482,44.482,0,0,1,135.2,95.219c-7.569,6.428-17.044,9.923-26.659,11.925a85.573,85.573,0,0,1-17.5,1.737A107.014,107.014,0,0,1,76.511,107.855Z"/>
</svg>
