<svg xmlns="http://www.w3.org/2000/svg" width="175.193" height="167.662" viewBox="0 0 175.193 167.662">
  <path d="M91.628,167.552a121.481,121.481,0,0,1-31.049-5.8c-5-1.58-9.922-3.389-14.778-5.347a118.766,118.766,0,0,1-13.672-6.48,102.081,102.081,0,0,1-12.152-8.088,53.893,53.893,0,0,1-10.089-9.9A51.493,51.493,0,0,1,2.916,119.5a41.825,41.825,0,0,1-1.985-6.48,43.475,43.475,0,0,1-.895-7.534A69.309,69.309,0,0,1,.211,98.2a77.155,77.155,0,0,1,.922-8.026A118.649,118.649,0,0,1,5.1,75.029a236.473,236.473,0,0,1,9.966-25.815q2.727-6.151,5.787-12.153c2.011-3.925,4-7.876,6.2-11.7a60.1,60.1,0,0,1,7.077-9.773,35.879,35.879,0,0,1,9.694-7.92A57.868,57.868,0,0,1,55.056,3.571c2.186-.641,4.364-1.308,6.577-1.852C63.916,1.157,66.225.673,68.508.1A3.422,3.422,0,0,1,72.67,2.438,3.4,3.4,0,0,1,70.334,6.6c-3.319.816-6.682,1.5-9.974,2.423-1.546.431-3.065.922-4.6,1.37-1.562.453-3.124.929-4.659,1.462l.013,0c-1.227.448-2.43.939-3.609,1.5a27.527,27.527,0,0,0-2.488,1.456c-1,.715-1.958,1.474-2.886,2.282a51.879,51.879,0,0,0-3.7,3.8,55.91,55.91,0,0,0-3.971,5.276c-2.1,3.321-3.9,6.822-5.7,10.314-1.915,3.7-3.813,7.4-5.588,11.17.024-.049.048-.1.074-.151-2.1,4.523-4.065,9.106-5.962,13.707-1.971,4.778-3.8,9.6-5.349,14.525A134.061,134.061,0,0,0,7.763,91.344c.017-.091.03-.185.044-.278a83.5,83.5,0,0,0-1,9.692,60.212,60.212,0,0,0,.093,6.7l-.008-.066.009.081c.008.116.017.233.026.35,0-.1-.011-.195-.02-.289.133,1.3.311,2.583.562,3.866A41.632,41.632,0,0,0,8.724,115.8l-.013-.034.015.041c.042.122.083.242.126.363-.03-.089-.06-.182-.092-.273a53.444,53.444,0,0,0,2.129,4.95,53.949,53.949,0,0,0,3.158,5.343,48.107,48.107,0,0,0,3.164,4.042A53.511,53.511,0,0,0,21.8,134.65a98.026,98.026,0,0,0,9.756,7.046,95.787,95.787,0,0,0,10.339,5.669c-.059-.031-.12-.061-.181-.089A179.815,179.815,0,0,0,63,155.454a124.8,124.8,0,0,0,15.188,3.765c-.1-.019-.208-.033-.313-.05a123.524,123.524,0,0,0,14.978,1.7,82.1,82.1,0,0,0,9.051-.144,87.618,87.618,0,0,0,9.881-1.463,87.618,87.618,0,0,0,9.613-2.7c-.141.052-.272.1-.413.149a82.411,82.411,0,0,0,8.823-3.711,84.1,84.1,0,0,0,8.63-5.056c-.08.054-.159.11-.234.162l.285-.2.075-.05-.058.038a76.942,76.942,0,0,0,7.177-5.582,78.8,78.8,0,0,0,6.8-6.984,75.822,75.822,0,0,0,5.581-7.554c-.088.132-.166.255-.254.387a75.551,75.551,0,0,0,4.425-8c-.061.141-.123.272-.184.413a75.133,75.133,0,0,0,3.455-8.872,74.883,74.883,0,0,0,2.136-8.916,67.584,67.584,0,0,0,.78-7.432,94.682,94.682,0,0,0-.29-10.4l0,.036-.01-.112c-.008-.106-.017-.212-.025-.318l.007.116a159.988,159.988,0,0,0-2.791-18.837c.035.141.062.281.1.422q-1.436-6.651-3.381-13.163c-1.176-3.969-2.344-7.946-3.714-11.862.044.14.1.272.141.412a77.215,77.215,0,0,0-3.207-7.749l0,.005a60.95,60.95,0,0,0-3.973-6.677A67.1,67.1,0,0,0,146.6,21.19q.075.084.156.171c-.054-.06-.109-.119-.163-.178l-.136-.156c.044.052.087.1.132.151a48.5,48.5,0,0,0-3.8-3.749,35.964,35.964,0,0,0-3.2-2.4,38.945,38.945,0,0,0-3.74-2.038c-1.642-.73-3.307-1.368-5-1.928a70.3,70.3,0,0,0-7.862-1.912,64.3,64.3,0,0,0-7.483-.913c.1.006.21.01.311.01l-.337-.011-.093-.006.09.005a71.461,71.461,0,0,0-7.813.185,115.637,115.637,0,0,0-13.385,1.892c-5.247,1.15-10.356,2.791-15.5,4.328q-2.779.843-5.541,1.73Q65.685,18.783,58.147,21.2a3.371,3.371,0,1,1-1.827-6.489q7.39-2.4,14.8-4.742c1.73-.553,3.46-1.115,5.207-1.633C81.5,6.811,86.632,5.134,91.9,3.94a106.854,106.854,0,0,1,15.472-2.248,74.7,74.7,0,0,1,7.674-.211,59.632,59.632,0,0,1,7.613.791A66.514,66.514,0,0,1,136.3,5.854a38.64,38.64,0,0,1,11.546,7.051,55.187,55.187,0,0,1,9.124,10.722,65.808,65.808,0,0,1,3.574,5.83,63.9,63.9,0,0,1,3.09,6.787c1.8,4.54,3.17,9.238,4.558,13.918,1.51,5.066,2.844,10.159,3.933,15.34a154.747,154.747,0,0,1,2.441,15.946,98.361,98.361,0,0,1,.51,15.683,68.349,68.349,0,0,1-2.705,15.146,75.227,75.227,0,0,1-5.575,13.874,76.341,76.341,0,0,1-18.66,22.953,80.379,80.379,0,0,1-26.087,14.357,85.177,85.177,0,0,1-15.06,3.486,76.656,76.656,0,0,1-10.742.715Q93.938,167.662,91.628,167.552Z"/>
</svg>
