<svg xmlns="http://www.w3.org/2000/svg" width="356.677" height="191.331" viewBox="0 0 356.677 191.331">
  <path d="M75.453,190.964A168.364,168.364,0,0,1,43.011,186c-5-1.279-9.891-2.954-14.758-4.672a72.573,72.573,0,0,1-13.1-5.866A38.5,38.5,0,0,1,5.02,166.386C2.389,163.108.154,159.025.01,154.734c-.151-4.673,1.445-9.187,3.177-13.457q1.316-3.246,2.919-6.362a73.728,73.728,0,0,1,4.176-6.987c2.854-4.313,6.06-8.389,9.316-12.407,3.343-4.134,6.88-8.094,10.567-11.926a244.858,244.858,0,0,1,24-21.666c8.511-6.771,17.46-13.011,26.59-18.912,9.381-6.061,19.092-11.588,28.926-16.886q14.9-8.034,30.242-15.146c5.175-2.408,10.387-4.73,15.613-7.031,5.19-2.293,10.395-4.543,15.649-6.685a274.016,274.016,0,0,1,31.277-10.66c5.14-1.4,10.344-2.595,15.592-3.537C223.592,2.08,229.192,1.447,234.8.966c5.319-.46,10.66-.813,16-.935a112.53,112.53,0,0,1,16.605.863,148.98,148.98,0,0,1,16.3,3.062c2.458.59,4.86,1.3,7.246,2.128,2.653.92,5.262,1.962,7.922,2.89a2.773,2.773,0,0,1,1.488,3.608,2.806,2.806,0,0,1-3.609,1.488c-2.854-.992-5.671-2.106-8.532-3.1.115.043.23.079.345.122a103.079,103.079,0,0,0-12.8-3.245c.085.018.17.038.255.054a131.148,131.148,0,0,0-16.049-2.192,136.922,136.922,0,0,0-16.04.128l.352-.021a219.953,219.953,0,0,0-27.252,3.044,214.6,214.6,0,0,0-24.77,6.555l.121-.038c-9.5,3.1-18.776,6.764-27.948,10.71q-13.816,5.938-27.431,12.35c-9.126,4.344-18.105,8.967-26.993,13.787-9.036,4.9-17.943,10.036-26.576,15.614l.3-.194a316.457,316.457,0,0,0-32.88,24.131l.28-.237A234.126,234.126,0,0,0,29.31,112.606c-2.535,2.845-4.951,5.774-7.318,8.752-2.346,2.929-4.608,5.929-6.723,9.027a79.759,79.759,0,0,0-4.856,8.212,77.192,77.192,0,0,0-3.548,8.569c-.379,1.182-.717,2.364-.983,3.573a24.8,24.8,0,0,0-.349,2.544c-.015.452-.015.9-.005,1.343.035.4.08.791.141,1.185.088.4.189.785.3,1.177.192.558.407,1.1.647,1.641.379.768.792,1.512,1.241,2.238a34.572,34.572,0,0,0,2.336,3.14c-.079-.094-.158-.187-.237-.273a44.349,44.349,0,0,0,3.395,3.527,34.937,34.937,0,0,0,3.306,2.613,47.173,47.173,0,0,0,4.793,2.737c-.108-.057-.216-.115-.323-.165a129.187,129.187,0,0,0,14.784,5.695,142.173,142.173,0,0,0,16.8,4.413c-.072-.015-.145-.031-.216-.044a173.938,173.938,0,0,0,21.015,2.813l-.089-.01c5.707.389,11.429.518,17.158.489,5.687-.021,11.381-.177,17.061-.516,11.5-.716,22.931-2.13,34.358-3.567,2.574-.323,5.14-.783,7.7-1.186q15.915-2.512,31.831-5.017c2.405-.379,4.81-.75,7.216-1.135,2.261-.437,4.534-.831,6.8-1.238l15.721-2.868c7.656-1.4,15.311-2.808,22.966-4.184,2.8-.548,5.579-1.2,8.361-1.8,3.278-.7,6.549-1.423,9.82-2.178,6.4-1.477,12.775-3.136,19.043-5.132a209.3,209.3,0,0,0,24.584-9.626l-.324.151a120.42,120.42,0,0,0,13.313-7.4c-.108.065-.209.129-.309.194a120.692,120.692,0,0,0,11.92-8.839,104.134,104.134,0,0,0,9.256-8.948,94.714,94.714,0,0,0,7.578-9.766l-.209.316a101.166,101.166,0,0,0,6.235-10.69A99.408,99.408,0,0,0,348.166,91.3a68.447,68.447,0,0,0,2.122-7.842c-.015.068-.03.135-.043.2a53.023,53.023,0,0,0,.781-6.08,62.408,62.408,0,0,0,.021-6.474,51.963,51.963,0,0,0-.678-5.6c-.265-1.3-.582-2.589-.967-3.861a36.758,36.758,0,0,0-1.391-3.543,44.844,44.844,0,0,0-2.56-4.589c.048.075.1.15.15.225a58.817,58.817,0,0,0-4.2-5.625,68.407,68.407,0,0,0-5.388-5.541,62.989,62.989,0,0,0-5.761-4.5l.068.048a92.872,92.872,0,0,0-10.425-6.032l.095.051a124.822,124.822,0,0,0-14.556-6.1l.052.016a124.372,124.372,0,0,0-14.789-3.97c.05.013.1.024.149.034a126.227,126.227,0,0,0-15.482-2.025l.36.022a156.8,156.8,0,0,0-19.305-.031,165.453,165.453,0,0,0-19.724,2.471c-5.584,1.067-11.111,2.369-16.617,3.8-5.456,1.423-10.883,2.976-16.253,4.709l.245-.078c-7.668,2.5-15.22,5.33-22.7,8.359q-11.5,4.657-22.751,9.956l.323-.151a354.867,354.867,0,0,0-39.4,21.773q-5.788,3.755-11.386,7.814c-3.918,2.854-7.7,5.895-11.394,9.043l.281-.237c-3.192,2.732-6.326,5.528-9.439,8.346-2.645,2.394-5.334,4.751-7.943,7.181Q76.487,106.039,73.31,109q-9.175,8.572-18.337,17.144a2.76,2.76,0,1,1-3.853-3.953q11.462-10.74,22.945-21.458,1.877-1.746,3.782-3.465c4.1-3.7,8.18-7.44,12.335-11.084,4.068-3.58,8.231-7.052,12.551-10.316,4.4-3.321,8.957-6.433,13.579-9.424A369.376,369.376,0,0,1,174.955,36c10.28-4.291,20.71-8.223,31.349-11.509,5.413-1.667,10.89-3.134,16.382-4.507,5.442-1.351,10.92-2.523,16.44-3.472A158.678,158.678,0,0,1,272.394,14.4a124.993,124.993,0,0,1,31.716,5.4A120.13,120.13,0,0,1,318.8,25.45a102.465,102.465,0,0,1,13.277,7.21,63.087,63.087,0,0,1,11.243,9.345,55.217,55.217,0,0,1,8.805,11.968,38.894,38.894,0,0,1,4.148,13.615,55.06,55.06,0,0,1-.215,14.909,67.051,67.051,0,0,1-4.342,15.067,100.074,100.074,0,0,1-6.944,13.982,96.356,96.356,0,0,1-19.869,23.52,118.015,118.015,0,0,1-25.907,16.979c-4.738,2.3-9.6,4.313-14.521,6.175-4.989,1.9-10.035,3.652-15.146,5.19-10.689,3.206-21.652,5.42-32.556,7.771-2.7.582-5.428,1.042-8.145,1.531q-7.818,1.434-15.635,2.854c-7.835,1.423-15.663,2.875-23.506,4.284.115-.021.23-.043.352-.072-2.35.46-4.744.762-7.109,1.136q-7.882,1.241-15.779,2.487l-23.571,3.709c-1.143.187-2.3.295-3.45.439-1.38.173-2.753.338-4.133.51q-4.5.55-8.986,1.057c-5.751.647-11.523,1.193-17.3,1.574-5.628.381-11.257.547-16.892.619q-1.8.021-3.589.022C84.5,191.331,79.974,191.22,75.453,190.964Z"/>
</svg>
