<svg xmlns="http://www.w3.org/2000/svg" width="191.088" height="167.489" viewBox="0 0 191.088 167.489"><path d="M44.368,90.315c0-.028.009-.056.013-.083l.018-.157C44.386,90.157,44.38,90.233,44.368,90.315Z"/><path d="M189.144,147.784c-.249,0-.5-.012-.744-.014a1.542,1.542,0,0,0-.959-.579c-1.691-.272-3.377-.543-5.076-.774-1.447-.2-2.908-.418-4.367-.541l-.255-.021a17.124,17.124,0,0,0-1.73-.471l-.216-.04c.341-1,.682-2,1.018-3.008.183-.531.32-1.076.469-1.619.334-1.206.669-2.412,1-3.618.21-.743.443-1.481.612-2.235.144-.664.293-1.326.437-1.989.475-2.161.945-4.323,1.426-6.483.116-.524.2-1.048.295-1.575.256-1.432.519-2.869.775-4.3.3-1.669.615-3.344.89-5.017q1.134-6.912,2.28-13.822c.636-3.829,1.3-7.653,1.8-11.5.271-2.109.57-4.208.752-6.325.176-2.076.383-4.153.488-6.234.208-4.18.417-8.366.41-12.549,0-2.176.013-4.347-.052-6.52-.056-2.189-.121-4.368-.244-6.549-.236-4.237-.558-8.462-1.017-12.68-.124-1.1-.313-2.192-.472-3.289a24.426,24.426,0,0,0-1.893-6.713,25.908,25.908,0,0,0-4.68-6.874,40.1,40.1,0,0,0-5.75-5.031l.032.023-.023-.017c.029.02.057.042.087.063-.061-.047-.123-.092-.184-.137h0c-.349-.25-.692-.5-1.041-.749-.118-.084-.231-.167-.343-.25s-.22-.158-.327-.235l.011.007c-.082-.06-.164-.121-.247-.18-.1-.075-.209-.151-.31-.226l-.1-.069a.7.7,0,0,0-.067-.048l0,0-.01-.008,0,0-.055-.04.016.011-.019-.014h0c-.663-.472-1.341-.91-2.013-1.358-1.685-1.135-3.407-2.215-5.137-3.286-1.654-1.023-3.313-2.052-5.007-3-.942-.538-1.879-1.111-2.846-1.6-.587-.293-1.172-.591-1.759-.884-.4-.2-.791-.432-1.2-.613-1-.44-1.994-.867-2.993-1.306-.525-.23-1.086-.412-1.628-.608l-1.521-.573c.039.018.079.03.118.048-.62-.227-1.261-.4-1.887-.594-1.023-.319-2.045-.607-3.094-.834A43.568,43.568,0,0,0,134.2.105c-1.48-.025-2.954-.043-4.435-.062C128.555.03,127.346-.013,126.134,0l.006,0c-1.338.015-2.675.017-4.019.1-.523.032-1.059.033-1.581.1l-1.72.218c-1.111.139-2.2.329-3.3.53-1.743.317-3.457.757-5.166,1.213-.032,0-.064,0-.1,0-.895.011-1.8-.015-2.7.044-1.095.07-2.185.146-3.275.217-.849.06-1.691.187-2.534.29-.759.092-1.515.166-2.267.289l-3.507.569c-.769.12-1.536.3-2.3.456-.8.162-1.613.3-2.407.506-1.105.289-2.209.578-3.32.866-.713.182-1.406.427-2.1.654-.841.275-1.7.506-2.524.839q-1.572.635-3.15,1.267c-.662.274-1.3.574-1.953.886-.855.4-1.734.776-2.565,1.22-1.259.67-2.542,1.3-3.765,2.013-1.256.73-2.538,1.432-3.755,2.222-.834.539-1.662,1.085-2.5,1.624-.463.3-.891.643-1.33.975-.755.575-1.51,1.144-2.259,1.714-.486.372-.93.816-1.391,1.222-.649.574-1.335,1.123-1.948,1.738q-1.215,1.226-2.432,2.45c-1.218,1.219-2.343,2.535-3.494,3.818-.625.7-1.2,1.454-1.8,2.178-.476.576-.968,1.144-1.413,1.749-1.1,1.505-2.228,2.981-3.243,4.547-.6.921-1.2,1.847-1.8,2.767-.468.721-.883,1.485-1.318,2.223-.993,1.688-1.946,3.394-2.89,5.114-.863,1.583-1.66,3.206-2.479,4.814-.359.707-.674,1.433-1.01,2.15-.407.861-.824,1.714-1.2,2.585.01-.028.02-.05.03-.078-.869,1.969-1.737,3.933-2.556,5.928-.506,1.238-1.013,2.483-1.525,3.721-.364.9-.691,1.818-1.033,2.725-1.262,3.327-2.451,6.683-3.463,10.09-.528,1.766-1.06,3.524-1.513,5.308-.3,1.146-.585,2.293-.881,3.439-.167.659-.294,1.331-.438,2-.206.987-.423,1.978-.63,2.971-.19.924-.3,1.871-.454,2.8-.122.75-.26,1.5-.347,2.252-.136,1.2-.266,2.39-.408,3.583-.2,1.74-.292,3.494-.412,5.239-.058.843-.081,1.692-.117,2.544-.042.822-.092,1.642-.112,2.467,0,.1-.007.2-.009.3-.089,3.835-.161,7.672-.167,11.508,0,3.509-.025,7.026.085,10.534.117,3.772.3,7.534.442,11.3,0,.036,0,.078,0,.114.014.913.017,1.825.044,2.735.019.853.034,1.707.051,2.562-.5.3-1,.62-1.5.936-.8.515-1.6,1.023-2.388,1.545a20.153,20.153,0,0,0-3.346,1.148c-.089.04-.173.081-.263.121-.745.082-1.49.164-2.242.245l-.061.008c-.9.095-1.775.234-2.663.353-.979.13-1.95.284-2.921.439a1.614,1.614,0,0,0,.547,3.182c.225-.031.445-.063.664-.095-1.172.881-2.314,1.8-3.435,2.737-.65.544-1.3,1.087-1.939,1.644-.4.35-.794.706-1.209,1.042a3.423,3.423,0,0,0-1.443,2.065,1.614,1.614,0,0,0,.643,1.63,1.482,1.482,0,0,0,.656.262,1.586,1.586,0,0,0,1.083-.221c2.178-1.339,4.266-2.829,6.366-4.282.325-.218.646-.442.972-.666a2,2,0,0,0,.088.472,2.069,2.069,0,0,0,.772,1.1,3.468,3.468,0,0,0,.821.394,2.8,2.8,0,0,0,.53.082,2.744,2.744,0,0,0,1.266-.294,8.11,8.11,0,0,0,1.384-.9c.708-.5,1.362-1.072,2.025-1.625,1.183-.992,2.319-2.063,3.425-3.132.559-.539,1.119-1.079,1.673-1.619l.964,0,.07,0a1.768,1.768,0,0,0,1.593.846,1.782,1.782,0,0,0,1.354-.711c.274.016.547.03.821.047,1.187.069,2.365.2,3.548.289.672.05,1.341.075,2.015.107.054,0,.108,0,.162,0a11.39,11.39,0,0,0-.628,1.2,2.1,2.1,0,0,0,.074,2.08,1.712,1.712,0,0,0-.074.17,1.957,1.957,0,0,0-.072,1.205,1.48,1.48,0,0,0,1.18,1.116,1.269,1.269,0,0,0,.333.009,2.055,2.055,0,0,0,1.382-.621,1.352,1.352,0,0,0,.282-1.25c.061-.083.119-.166.18-.249.756-1.027,1.548-2.027,2.338-3.033.958-1.227,1.927-2.44,2.958-3.6.115-.119.232-.233.359-.343.111-.081.222-.156.339-.225s.213-.123.319-.175a.992.992,0,0,1,.114-.048l.007,0c.006,0,.011.008.022.01l.123.054c.071.041.142.082.207.127s.1.088.152.131l.073.071a3.568,3.568,0,0,1,.251.342c.291.51.556,1.033.8,1.559.378.911.731,1.835,1.085,2.747a11.605,11.605,0,0,0,1.246,2.706,5.7,5.7,0,0,0,1.5,1.565,4.926,4.926,0,0,0,1.843.688,6.039,6.039,0,0,0,4.092-1,19.039,19.039,0,0,0,4.819-4.645c.368-.456.735-.906,1.092-1.369.211.3.428.59.651.88.5.643,1.014,1.27,1.566,1.867a13.7,13.7,0,0,0,3.9,3.049,11.252,11.252,0,0,0,5.085,1.14,13.957,13.957,0,0,0,4.838-.972,23.41,23.41,0,0,0,4.457-2.291,5.219,5.219,0,0,0,.873.02,6.468,6.468,0,0,0,2.683-.79,17.39,17.39,0,0,0,2.542-1.689,27.439,27.439,0,0,0,2.232-2.082c.7-.7,1.358-1.448,2-2.2l.039.014c.284.127.561.265.842.409.267.166.532.338.79.521a27.6,27.6,0,0,0,5.471,3.552,10.963,10.963,0,0,0,6.161.619c4.329-.8,8.105-3.43,11.153-6.518.865-.873,1.677-1.789,2.472-2.719a3.408,3.408,0,0,0,.529.793,4.643,4.643,0,0,0,1.873,1.3,3.436,3.436,0,0,0,2.035.021,9.217,9.217,0,0,0,4.188-2.829,25.469,25.469,0,0,0,3.258-4.451c.128-.216.245-.437.37-.655,0,.072,0,.144,0,.216,0,1.156.074,2.311.171,3.464a10.254,10.254,0,0,0,.855,3.7,5.009,5.009,0,0,0,2.862,2.543,5.641,5.641,0,0,0,3.67-.234,11.776,11.776,0,0,0,2.562-1.4,3.849,3.849,0,0,0,1.54.1,9.307,9.307,0,0,0,2.745-.882c1.189-.568,2.314-1.259,3.447-1.925a58.291,58.291,0,0,1,5.831-3.166h0c.113-.047.226-.087.339-.132a26.581,26.581,0,0,0,4.426,4.026,9.89,9.89,0,0,0,5.071,1.7,9.483,9.483,0,0,0,2.769-.384,18.6,18.6,0,0,0,2.121-.77c.742-.321,1.492-.647,2.236-.973a.134.134,0,0,1-.027.007l.079-.032a2.325,2.325,0,0,0,3.363,1.978,2.978,2.978,0,0,0,.942-.815,4.64,4.64,0,0,0,.52-.98c.011-.034.022-.062.032-.091l0,0h0v0c.577.1,1.153.21,1.723.336.571.159,1.125.358,1.685.551.7.238,1.371.539,2.069.759a17.306,17.306,0,0,0,3.922.651,54.75,54.75,0,0,0,5.585.06,2.05,2.05,0,0,0-.062-4.091ZM171.85,20.752c.037.03.08.061.117.09l.1.069a43.1,43.1,0,0,1,3.648,3.051,31.209,31.209,0,0,1,2.522,2.7,27.355,27.355,0,0,1,1.687,2.392,22.236,22.236,0,0,1,1.176,2.236,22.451,22.451,0,0,1,.826,2.338c.244.895.437,1.806.6,2.726.166,1.169.339,2.334.51,3.5-.015-.092-.026-.177-.042-.268.119.816.171,1.64.253,2.463.072.69.152,1.376.206,2.069.142,1.714.306,3.431.406,5.151.1,1.8.251,3.595.3,5.389s.121,3.6.154,5.407l.006,3.2c0,.952.028,1.91,0,2.865-.065,2.093-.055,4.2-.163,6.29q-.093,1.711-.18,3.422c-.053.963-.065,1.932-.154,2.9-.188,2.038-.372,4.089-.538,6.137-.265,2.11-.553,4.216-.829,6.324-.11.829-.273,1.656-.406,2.482q-.345,2.073-.679,4.149c-.059.342-.118.691-.177,1.033.2-1.357.411-2.713.612-4.058.114-.739.251-1.475.328-2.213.2-1.625.387-3.248.589-4.873.16-1.351.326-2.7.487-4.059.06-.509.132-1.017.163-1.524q.247-4,.5-8c.05-.827.124-1.662.138-2.488.063-3.082.037-6.166-.115-9.245q-.226-4.575-.791-9.118c-.368-2.916-.79-5.829-1.377-8.713a66.23,66.23,0,0,0-5.347-16.491,43.627,43.627,0,0,0-4.809-7.543C171.662,20.617,171.753,20.684,171.85,20.752Zm-33.1-14.317a45.93,45.93,0,0,1,4.885.9,48.955,48.955,0,0,1,5.5,1.744,56.5,56.5,0,0,1,5.855,2.7.615.615,0,0,1,.076.04l.132.074c-.023-.009-.039-.018-.056-.026a51.33,51.33,0,0,1,5.172,3.27,49.772,49.772,0,0,1,4.414,3.675,41.675,41.675,0,0,1,3.445,3.74,44.013,44.013,0,0,1,3.015,4.265,44.951,44.951,0,0,1,2.452,4.742,57.84,57.84,0,0,1,2.417,6.633h0a.623.623,0,0,1,.015.062l.048.151a.408.408,0,0,1-.017-.044,95.917,95.917,0,0,1,2.479,11.822l0-.017A130.6,130.6,0,0,1,179.9,66.335c.025,1.966.055,3.949-.071,5.909-.077,1.2-.159,2.394-.236,3.591q-.147,2.24-.3,4.476c-.041.655-.053,1.315-.13,1.97.014-.093.022-.181.035-.269q-.613,4.866-1.216,9.733c-.144,1.169-.359,2.334-.539,3.5q-.427,2.731-.853,5.475c-.589,3.794-1.185,7.593-1.729,11.4-.586,4.121-1.131,8.25-1.718,12.371-.589,4.146-1.231,8.283-1.885,12.418-.34,2.176-.688,4.357-1.028,6.533l-.162,1.054a6.762,6.762,0,0,0-.709.118,10.84,10.84,0,0,0-1.512.53c-.141.056-.28.114-.421.171-.6-.085-1.2-.186-1.789-.323-.54-.143-1.072-.3-1.592-.494-.738-.289-1.47-.606-2.175-.967-.663-.341-1.32-.68-2.008-.97a7.973,7.973,0,0,0-3.726-.758q-.51.039-1.014.12a11.216,11.216,0,0,0-3.065-1.994,8.457,8.457,0,0,0-1.945-.526,6.187,6.187,0,0,0-1.657-.07,8.93,8.93,0,0,0-3.373,1.09,44.541,44.541,0,0,0-6.8,5.447c0-.091-.02-.183-.023-.274-.008-2.039.227-4.07.383-6.095.115-1.442.276-2.883.421-4.326.13-1.309.236-2.621.349-3.938a64.3,64.3,0,0,0,.36-6.993l0,.012a5.151,5.151,0,0,0-.179-1.97,2.771,2.771,0,0,0-.474-.794,2.69,2.69,0,0,0-.538-.416,1.439,1.439,0,0,0-1.868.3,6.425,6.425,0,0,0-.929,1.311c-.142.269-.279.54-.411.818-.219.455-.444.909-.664,1.369q-.255.528-.507,1.058c-.042-.121-.071-.241-.124-.365a2.5,2.5,0,0,0-1.546-1.488,2.415,2.415,0,0,0-2.118.329c-.141.1-.275.2-.416.3a11.954,11.954,0,0,0-2.027,2.185c-.307.363-.612.721-.918,1.086-.711.867-1.427,1.728-2.139,2.6-1.475,1.805-2.928,3.625-4.4,5.43-1.33,1.637-2.6,3.324-3.931,4.955-.207.253-.412.508-.618.763a2.769,2.769,0,0,0-.918-.616,4.2,4.2,0,0,0-2.3-.329,3.946,3.946,0,0,0-2.091,1.239c-.68.7-1.352,1.4-1.964,2.158-1.261,1.576-2.571,3.12-3.953,4.594a21,21,0,0,1-1.68,1.547l.06-.045c-.033.025-.068.056-.1.08-.014.01-.028.025-.041.035.007-.01.02-.014.027-.025-.379.3-.764.591-1.174.856-.162.088-.325.176-.491.252s-.355.136-.531.2c-.2.047-.389.09-.581.138-.1.007-.212.02-.314.023a.811.811,0,0,1-.171-.009l-.058-.008c-.011-.008-.029-.011-.039-.018l-.05-.026a.884.884,0,0,0-.115-.065c-.053-.044-.106-.088-.158-.138a4.056,4.056,0,0,1-.348-.369c-.025-.034-.048-.073-.073-.107a1.492,1.492,0,0,1-.086-.18c-.162-.418-.3-.845-.435-1.276a33.344,33.344,0,0,1-.684-3.34c-.052-.36-.091-.723-.156-1.078s-.112-.745-.2-1.1a1.994,1.994,0,0,0-.991-1.422,1.95,1.95,0,0,0-1.681.046,3.115,3.115,0,0,0-1.079,1.162c-1.023,1.35-2.062,2.68-3.118,4.007-.095.12-.193.239-.288.359a7.6,7.6,0,0,0-3.614.337,12.124,12.124,0,0,0-2.97,1.611c-1.173.886-2.3,1.839-3.451,2.758-.992.8-2.012,1.549-3.053,2.271-.026-.054-.058-.105-.083-.159a14.221,14.221,0,0,1-.607-1.724c-.145-.539-.266-1.085-.415-1.627a8.148,8.148,0,0,0-.6-1.433,1.382,1.382,0,0,0-2.01-.487,3.478,3.478,0,0,0-1.031.967c-.2.333-.367.683-.544,1.025.006,0,.008-.017.015-.022-.927,1.566-1.853,3.142-2.89,4.636a18.184,18.184,0,0,1-1.261,1.545c-.064-.02-.128-.037-.192-.059-.14-.058-.274-.12-.412-.189-.411-.235-.807-.487-1.195-.755-.218-.171-.423-.345-.627-.531-.225-.225-.428-.473-.646-.707-.448-1.645-.888-3.293-1.39-4.924a18.011,18.011,0,0,0-.636-1.748,11.644,11.644,0,0,0-.521-1.189,3.279,3.279,0,0,0-1.633-1.585,2.543,2.543,0,0,0-2.384.164,7.872,7.872,0,0,0-1.68,2.017c-.9,1.423-1.817,2.825-2.72,4.241-.993,1.551-1.976,3.1-3.048,4.6-.307.413-.621.821-.95,1.215-.051-.133-.107-.273-.164-.406a34.847,34.847,0,0,0-3.08-6.05c-.085-.126-.177-.25-.266-.375a1.722,1.722,0,0,0,1.7-2.316c-.1-.236-.2-.478-.3-.713l-.018-.11a3.4,3.4,0,0,1-.03-.505c.008-.791.088-1.583.139-2.374.043-.672.086-1.339.124-2.012.073-1.246.117-2.5.148-3.748a118.321,118.321,0,0,0-.483-12.36c-.148-1.946-.314-3.89-.444-5.835-.144-2.125-.24-4.249-.325-6.371,0-.322-.009-.638-.008-.954.393-3.64.791-7.278,1.148-10.917q.672-3.668,1.342-7.336l.9-4.908c.124-.69.221-1.4.373-2.075.554-2.131,1.08-4.273,1.621-6.4.523-2.082,1.091-4.151,1.577-6.227.555-1.786,1.128-3.574,1.688-5.359s1.083-3.557,1.67-5.319c.65-1.557,1.234-3.147,1.856-4.713.4-1.03.8-2.057,1.206-3.08q.626-1.27,1.26-2.535c.843-1.687,1.742-3.348,2.613-5.019.73-1.264,1.44-2.549,2.165-3.814.581-1.031,1.223-2.028,1.848-3.034.617-.99,1.223-1.987,1.878-2.952.812-1.21,1.585-2.444,2.44-3.623a.092.092,0,0,0-.022.022c.932-1.271,1.858-2.537,2.779-3.816,1.444-1.869,2.884-3.721,4.39-5.533.614-.739,1.218-1.487,1.857-2.2.768-.692,1.555-1.357,2.358-2.008a.02.02,0,0,0-.012,0,70.658,70.658,0,0,1,7.264-5.085c-.066.037-.138.08-.2.117a80.127,80.127,0,0,1,9.095-4.714c-.044.017-.083.035-.127.052a77.57,77.57,0,0,1,8.754-3.229c1.684-.508,3.36-1.025,5.042-1.518,1.477-.337,2.945-.688,4.416-1.026q1.669-.39,3.347-.718c.539.04,1.08.074,1.619.118,1.193.106,2.377.27,3.56.44.849.137,1.686.271,2.533.419A1.737,1.737,0,0,0,130.9,7.088a1.678,1.678,0,0,0-.058-.892c.48-.025.959-.051,1.438-.064A49.407,49.407,0,0,1,138.751,6.435Zm-29.644.348-.45.137c-.95.289-1.913.546-2.85.867-.068.019-.138.044-.2.065.051-.023.1-.044.16-.071.853-.367,1.718-.693,2.592-1C108.608,6.778,108.858,6.782,109.107,6.783ZM27.952,90.1c.208-1.011.427-2.008.677-3.012.318-1.291.646-2.575.964-3.867-.023.074-.047.154-.072.233.153-.53.3-1.055.459-1.585-.688,2.92-1.4,5.843-2.1,8.762q-.144.585-.287,1.171C27.705,91.239,27.835,90.669,27.952,90.1Zm2.155,61.888c-.893.036-1.777.091-2.67.168-.4.034-.794.086-1.189.132-.031,0-.061-.008-.092-.012,0-.081,0-.161,0-.242l.346-.452a1.586,1.586,0,0,0,.213-1.385,1.539,1.539,0,0,0-.588-.807c-.012-.938-.02-1.875-.041-2.813-.064-3.108-.2-6.215-.318-9.325-.015-.33-.023-.665-.038-1,.008-.594.016-1.188.012-1.779.066-1.319.13-2.631.2-3.949.17-3.393.388-6.785.677-10.179.153-1.847.271-3.7.477-5.544.216-1.987.442-3.96.647-5.948.291-1.9.588-3.788.88-5.685.255-1.665.664-3.312,1.012-4.956.67-3.239,1.492-6.449,2.283-9.658.917-3.719,1.776-7.442,2.6-11.182.38-1.74.784-3.472,1.17-5.211.169-.749.385-1.5.577-2.241q.355-1.385.718-2.767l-.005.007c.374-1.27.759-2.544,1.145-3.824.3-1,.645-1.986.994-2.975.37-1.051.712-2.112,1.127-3.145q.774-1.9,1.544-3.8c.455-1.026.941-2.053,1.415-3.083.368-.807.78-1.589,1.188-2.379s.814-1.614,1.262-2.4c.548-.965,1.111-1.92,1.653-2.886.593-.951,1.208-1.887,1.812-2.831.495-.782,1.038-1.526,1.571-2.279s1.052-1.494,1.605-2.219c.67-.874,1.352-1.746,2.018-2.627.458-.537.917-1.08,1.375-1.618.408-.485.8-1,1.23-1.455q1.464-1.552,2.925-3.095a.089.089,0,0,0-.028.026.006.006,0,0,0-.007,0v0q1.544-1.456,3.082-2.918c.488-.462,1.039-.871,1.558-1.3.6-.51,1.2-1.013,1.8-1.516.527-.444,1.118-.835,1.67-1.251.526-.4,1.058-.8,1.589-1.191,1.025-.7,2.068-1.362,3.089-2.069.466-.322.985-.594,1.476-.881.532-.324,1.065-.653,1.608-.969,1.362-.72,2.723-1.434,4.127-2.082,1.5-.687,3.016-1.329,4.547-1.946-.032.013-.069.025-.107.037l.171-.063a.149.149,0,0,0,.038-.014c1.077-.395,2.149-.791,3.237-1.138.582-.185,1.168-.393,1.763-.54.577-.149,1.16-.3,1.742-.441.686-.121,1.374-.3,2.066-.379L95.21,7.66c1.048-.1,2.094-.206,3.141-.3-.45.264-.9.532-1.346.8-.815.5-1.64.982-2.446,1.5-.933.6-1.895,1.168-2.808,1.8-.987.682-1.974,1.37-2.961,2.052a48.791,48.791,0,0,0-5.344,4.338c-1.209,1.125-2.338,2.3-3.454,3.52-.687.746-1.412,1.469-2.055,2.246-.562.67-1.112,1.342-1.669,2.019-.135.14-.275.28-.405.426A77.088,77.088,0,0,0,65.38,40.058c-.759,1.3-1.484,2.6-2.194,3.928-.442.82-.9,1.637-1.3,2.474-.555.975-1.1,1.957-1.628,2.955-1.035,1.962-2.063,3.925-3.053,5.906s-1.972,3.992-2.941,5.994c-.882,1.824-1.709,3.675-2.552,5.517-.377.824-.71,1.672-1.059,2.506-.4.941-.811,1.866-1.177,2.816-.711,1.875-1.48,3.734-2.1,5.641-.367,1.147-.745,2.292-1.112,3.439-.123.374-.2.774-.292,1.159-.171.688-.343,1.383-.521,2.076-.1.408-.233.816-.3,1.229-.074.447-.155.893-.23,1.346-.181,1.059-.4,2.121-.532,3.188q-.267,2.238-.522,4.478c.013-.081.019-.163.031-.239-.18,1.516-.267,3.051-.405,4.573-.127,1.4-.207,2.816-.31,4.224-.1,1.373-.186,2.759-.23,4.129s-.114,2.717-.1,4.071q.007,1.815.02,3.631c0,1.02.062,2.041.1,3.055.034.946.084,1.9.141,2.845-.017.379-.038.751-.055,1.129-.245,4.347-.5,8.694-.677,13.045-.109,2.652-.238,5.307-.294,7.962-.031,1.514-.056,3.035-.009,4.55.006.229.017.458.024.686-.074-.02-.145-.053-.22-.069a4.186,4.186,0,0,0-1.557-.066,3.8,3.8,0,0,0-1.208.421,6.451,6.451,0,0,0-1.9,1.788q-.855,1.086-1.682,2.194c-.109-.029-.218-.059-.322-.084a17.389,17.389,0,0,0-2.558-.452A19.138,19.138,0,0,0,30.107,151.991Zm28.279-1.546c.221-.349.444-.7.68-1.037.125-.159.258-.324.384-.489a.582.582,0,0,1,.049.073c.092.175.179.349.265.523.2.477.408.954.582,1.443A3.046,3.046,0,0,0,58.386,150.445Zm15.163,6.9a19.084,19.084,0,0,1-1.833.648c-.2.047-.406.088-.609.132.4-.553.78-1.124,1.137-1.705s.727-1.163,1.075-1.759l.412-.706a14.4,14.4,0,0,0,.432,1.378c.18.467.374.938.6,1.393C74.363,156.947,73.961,157.158,73.549,157.346Zm19.342-8.022c.077-.1.155-.194.232-.292.623-.792,1.256-1.576,1.862-2.383.093.557.192,1.114.3,1.667a19.2,19.2,0,0,0,.559,2.373c.106.322.211.644.328.961-.815-.625-1.621-1.267-2.471-1.828C93.439,149.652,93.167,149.484,92.891,149.324Zm18.211-1.831a37.513,37.513,0,0,1-2.976,2.771c-.684.533-1.385,1.026-2.118,1.492-.287.165-.585.305-.877.456a18.825,18.825,0,0,0,1.533-1.426c.918-.973,1.808-1.962,2.658-2.993.453-.544.912-1.087,1.354-1.638.353-.435.7-.863,1.078-1.276.417-.425.812-.865,1.264-1.248.041-.035.087-.064.128-.094h.006l-.034.025a.347.347,0,0,1,.064-.032.084.084,0,0,1,.037-.006.478.478,0,0,0,.091-.01,1.4,1.4,0,0,1,.153.012c.064.01.128.02.191.035a1.549,1.549,0,0,1,.16.049l.14.057.032.022a.534.534,0,0,0,.054.039c.028.029.052.063.079.095s.044.061.065.092C113.187,145.137,112.174,146.343,111.1,147.493Zm15.822-6.538a40.819,40.819,0,0,1-2.6,4.206c-.434.576-.887,1.12-1.373,1.647a14.458,14.458,0,0,1-1.125,1.073q-.242.186-.5.351a8.991,8.991,0,0,1-.889.472,3.588,3.588,0,0,1-.347.125c-.052.013-.106.024-.16.035s-.079.006-.114.006a.037.037,0,0,0-.025,0,.782.782,0,0,0-.124-.043c-.033-.017-.072-.034-.111-.052a.934.934,0,0,0-.141-.094c-.111-.088-.217-.176-.322-.269-.036-.036-.071-.077-.107-.112l-.052-.071c-.046-.083-.091-.167-.131-.255-.133-.337-.252-.678-.373-1.018.681-.849,1.357-1.7,2.036-2.553,1.343-1.682,2.655-3.393,3.966-5.1s2.647-3.388,3.979-5.078c.244-.308.489-.622.733-.93-.091,1.094-.218,2.195-.273,3.288l-.028.574c-.633,1.283-1.266,2.568-1.942,3.832C126.907,140.982,126.916,140.966,126.924,140.955Zm7.968,7.461c-.229.09-.449.169-.681.24a.253.253,0,0,1-.08.018c-.05-.139-.094-.277-.144-.421-.07-.279-.134-.563-.18-.844-.137-1.159-.234-2.312-.288-3.47-.021-1.064-.07-2.144-.025-3.209.056-1.338.061-2.683.17-4.013.105-1.288.23-2.571.345-3.855.625-1.32,1.251-2.644,1.875-3.958.308-.649.616-1.293.924-1.943-.1,1.814-.289,3.626-.448,5.43-.137,1.552-.3,3.1-.458,4.648-.17,1.684-.321,3.365-.466,5.046a27.77,27.77,0,0,0-.186,4.154,13.086,13.086,0,0,0,.23,1.828c-.085.057-.166.119-.252.174C135.118,148.3,135,148.361,134.892,148.416Zm10.816-2.386c-.228.131-.457.266-.685.4.29-.254.574-.514.872-.761a17.7,17.7,0,0,1,1.469-1.073c.215-.116.428-.226.653-.328.2-.082.405-.159.612-.222.068-.02.136-.033.2-.046.1-.009.193-.012.294-.015l.192.011q-.464.242-.913.494C147.5,144.994,146.6,145.512,145.708,146.03Zm14.246.228q-.428-.245-.832-.521c-.024-.02-.045-.041-.069-.06.717.348,1.421.724,2.137,1.079-.175-.055-.352-.1-.525-.168C160.425,146.485,160.185,146.377,159.954,146.258Z"/><path d="M137.1,89.29a1.119,1.119,0,0,0,.373.129,1.415,1.415,0,0,0,1.107-.337c1.931-.007,3.859.123,5.787.062.238-.008.475-.024.713-.033a2.267,2.267,0,0,0,1.267.676c.07.011.153.017.229.023a2.357,2.357,0,0,0,1.915-.881c.857-.063,1.717-.137,2.562-.264a2.343,2.343,0,0,0,1.59-.727,1.854,1.854,0,0,0,.284-1.732,2.024,2.024,0,0,0-.473-.758,2.445,2.445,0,0,0-.76-.486,4.453,4.453,0,0,0-.938-.251c-.389-.066-.773-.167-1.155-.238-.122-.023-.245-.038-.367-.06.036-.578.074-1.156.106-1.732.093-1.726.167-3.448.146-5.173-.007-.495-.014-.991-.027-1.488.011-.5.021-.991.032-1.49,0-.149,0-.3,0-.446.572.117,1.133.228,1.713.293a19.8,19.8,0,0,0,3.467.116,21.815,21.815,0,0,0,7.593-1.919,19.054,19.054,0,0,0,6.408-4.519,9.444,9.444,0,0,0,1.967-3.219,7.783,7.783,0,0,0,.37-3.494,10.889,10.889,0,0,0-3.522-6.386A13.766,13.766,0,0,0,160.5,51.7a19.362,19.362,0,0,0-7.078-.075,9.792,9.792,0,0,0-8.686,3.949,9.646,9.646,0,0,0-1.616,3.112,15.138,15.138,0,0,0-.581,3.854c-.014.558-.029,1.116-.044,1.68-.047,1.9-.036,3.8.006,5.7.04,2.222.122,4.439.222,6.659.072,1.775.187,3.55.248,5.322-.012.076-.019.158-.024.235q-.112,1.007-.208,2.017c-.409.036-.817.083-1.222.153a6.655,6.655,0,0,0-1.137.266c-.341.121-.669.279-1,.424a1.494,1.494,0,0,0-.836,1.332,7.435,7.435,0,0,0-1.453.151,1.409,1.409,0,0,0-1.076,1.11,1.43,1.43,0,0,0,.483,1.313A2.643,2.643,0,0,0,137.1,89.29Zm29.262-25.255a9.184,9.184,0,0,0,.2-3.5c-.024-.194-.054-.383-.09-.574a6.2,6.2,0,0,1,.283.557c.092.216.176.444.249.669.055.223.109.452.152.679.02.176.034.357.043.531,0,.107-.014.206-.018.313-.025.163-.049.32-.085.475-.056.206-.122.405-.194.6-.055.128-.11.251-.17.373-.154.262-.312.518-.482.772-.134.17-.267.34-.411.5A8.248,8.248,0,0,0,166.357,64.035Zm-16.734,1.9c.017-.229.03-.466.041-.7,0-.06,0-.125,0-.185.053-.963.125-1.935.225-2.9q.16-1.279.444-2.541c.1-.389.214-.771.349-1.144.094-.223.193-.441.3-.663.112-.185.224-.37.348-.554.058-.068.117-.143.175-.211.148-.145.294-.283.451-.413.094-.069.194-.138.287-.2.24-.129.48-.253.723-.365.3-.114.6-.218.906-.308.345-.078.684-.151,1.027-.211.568.105,1.127.227,1.684.36a28.583,28.583,0,0,1,2.8.883c.246.1.48.211.717.33a10.7,10.7,0,0,1,.929.584c.085.067.17.134.255.206.159.162.319.329.464.506.094.128.187.255.273.394.1.177.2.359.3.546.087.21.162.424.23.637.077.316.143.624.195.942.026.26.045.519.058.783,0,.2-.012.391-.024.586q-.052.34-.122.678c-.066.234-.142.455-.218.682-.052.1-.1.217-.151.322-.088.142-.174.277-.272.411-.127.165-.264.323-.4.481-.24.243-.484.473-.744.689-.208.153-.427.3-.64.444-.556.32-1.119.614-1.7.883a28.414,28.414,0,0,1-2.876,1q-1.633.456-3.292.835c-.937.207-1.877.39-2.818.58C149.551,68.178,149.575,67.055,149.623,65.93Z"/><path d="M128.223,59.766c-.439-.05-.878-.1-1.312-.142h.009l-.056-.008-.023,0c-.188-.017-.38-.047-.568-.064-.094-.011-.189-.027-.283-.038.254-.029.508-.053.761-.091l-.008,0a2.568,2.568,0,0,0,1.5-.571,1.949,1.949,0,0,0,.538-1.443,1.551,1.551,0,0,0-1.064-1.527,11.981,11.981,0,0,0-1.6-.461,14.765,14.765,0,0,0-1.616-.182c-.567-.034-1.134-.062-1.7-.078l-.546-.012c-.474-.21-.953-.391-1.437-.573-.757-.307-1.506-.63-2.253-.96-.664-.292-1.316-.625-1.971-.94-1.233-.7-2.46-1.4-3.623-2.2a1.271,1.271,0,0,0-1.747.4,1.256,1.256,0,0,0,.035,1.391,1.692,1.692,0,0,0-.573.171,2.008,2.008,0,0,0-.8.925,1.459,1.459,0,0,0,.542,1.823,5.61,5.61,0,0,0,1.3.729c.479.176.978.306,1.47.435.207.056.412.108.618.162a1.512,1.512,0,0,0-.035.464c0,.024.013.044.016.068l-.426-.113c-.572-.154-1.148-.326-1.732-.439a3.746,3.746,0,0,0-2.409.052,1.471,1.471,0,0,0-.724,1.533,2.448,2.448,0,0,0,1.1,1.427,1.3,1.3,0,0,0,1.779-.411c1.523.4,3.029.84,4.55,1.253.509.139,1.02.263,1.532.386-.006.017-.02.029-.026.047s-.007,0-.007.01a4.5,4.5,0,0,0-.121,1.406c0,.232,0,.458,0,.691,0,.513,0,1.025.007,1.538,0,.113,0,.227,0,.334-.106,1-.2,1.988-.3,2.981-.1,1.081-.2,2.168-.291,3.25-.038.482-.076.959-.114,1.442-.026.323-.057.64-.082.958a5.36,5.36,0,0,0-.025.973c.033.333.084.657.141.987a1.324,1.324,0,0,0,.432.793c-.074,1.02-.159,2.038-.267,3.051l0,.03c0,.023,0,.053-.006.076,0-.017,0-.036,0-.053a7.183,7.183,0,0,0-.092,1.546,2.906,2.906,0,0,0-.874.242,1.3,1.3,0,0,0-.611.722,1.239,1.239,0,0,0-.053.631l-.681-.079c.069.011.14.016.2.025-.363-.043-.73-.052-1.1-.067a1.654,1.654,0,0,0-.355,3.282,1.138,1.138,0,0,0,.194.017c1.484.032,2.967.23,4.447.368.658.06,1.321.126,1.984.192.453.04.905.086,1.351.13.187.023.37.033.553.044a11.262,11.262,0,0,0,1.158.255,1.585,1.585,0,0,0,1.6-.706,1.526,1.526,0,0,0,.11-.252l1.014.224a.223.223,0,0,0,.063.016,1.2,1.2,0,0,0,.358-2.364l-3.037-.648a1.347,1.347,0,0,0-.256-2.655c-.414-.047-.829-.075-1.244-.1,0-.132,0-.265,0-.4.013-3.377.08-6.756.062-10.131-.006-1.082-.048-2.165-.088-3.248.067-.581.134-1.167.2-1.754l-.006.041c.048-.427.1-.854.109-1.288a4.531,4.531,0,0,0-.222-1.387,1.846,1.846,0,0,0-.11-.276c.943.184,1.889.355,2.84.5q1.694.261,3.391.456a1.454,1.454,0,0,0,1.66-1.151A1.436,1.436,0,0,0,128.223,59.766Z"/><path d="M90.466,73.779l.038.028.107.078C90.563,73.847,90.514,73.816,90.466,73.779Z"/><path d="M110.085,74.629a1.631,1.631,0,0,0-1.853.471c-.45.444-.867.91-1.3,1.368-.6.641-1.177,1.3-1.77,1.939l-.762.827a1.188,1.188,0,0,0-.72.133,4.977,4.977,0,0,0-.653.376c-.114.084-.224.168-.335.252a14.578,14.578,0,0,0-1.306-1.4c-.354-.34-.715-.674-1.075-1.01-.528-.664-1.075-1.312-1.662-1.92-1.054-1.086-2.147-2.112-3.286-3.115-.483-.425-.984-.848-1.5-1.236-.6-.45-1.168-.931-1.783-1.347-.717-.491-1.419-1-2.166-1.447-.269-.161-.543-.31-.815-.462.116-.067.234-.129.35-.2a21.042,21.042,0,0,0,2.55-1.741,11.629,11.629,0,0,0,3.5-2.249,6.039,6.039,0,0,0,1.581-2.57,5.5,5.5,0,0,0,.083-2.829,8.764,8.764,0,0,0-.678-1.693,7.451,7.451,0,0,0-.249-1.733,9.315,9.315,0,0,0-3.078-4.935,10.594,10.594,0,0,0-5.933-2.366,8.77,8.77,0,0,0-2.447.19c-.112-.039-.222-.083-.335-.116a7.548,7.548,0,0,0-2.9-.273,5.488,5.488,0,0,0-2.776,1.122,7.159,7.159,0,0,0-1.851,2.2,18.086,18.086,0,0,0-1.888,6.156c-.207,1.386-.331,2.773-.4,4.168-.035.615-.064,1.23-.1,1.844-.015.29-.043.583-.045.869.009,1.687-.016,3.363.023,5.044s.108,3.37.183,5.05c.055,1.23.158,2.461.214,3.685-.513-.037-1.025-.074-1.537-.117a4.109,4.109,0,0,0-.985.051,2.277,2.277,0,0,0-.894.464,1.561,1.561,0,0,0-.639,1.368,1.522,1.522,0,0,0,.874,1.254,6.932,6.932,0,0,0,1.406.5c.422.083.849.137,1.276.19.276.034.554.063.832.093-.009.169-.019.339-.013.509a1.228,1.228,0,0,0,1.076,1.136,1.18,1.18,0,0,0,.431-.011,1.29,1.29,0,0,0,.791-.555,1.54,1.54,0,0,0,.969.612,1.194,1.194,0,0,0,.363,0q1.12-.139,2.23-.282c.371-.051.746-.082,1.107-.146a5.188,5.188,0,0,0,1.39-.477,1.519,1.519,0,0,0,.817-1.477,1.542,1.542,0,0,0-.878-1.267,3.3,3.3,0,0,0-1.045-.37c-.315-.042-.632-.073-.949-.1-.353-.03-.712-.061-1.063-.1l-1.446-.133a1.492,1.492,0,0,0-.535-.624,1.463,1.463,0,0,0,.224-.335,3.688,3.688,0,0,0,.3-1.133c.089-.577.154-1.156.208-1.738.078-.78.156-1.561.217-2.343.143-1.742.267-3.48.381-5.227.2-3.091.279-6.194.609-9.271l-.008.052c.008-.052.01-.105.018-.158l0-.017v.006c.086-.714.172-1.428.253-2.148V55.9c.049-.4.1-.8.159-1.2.228-.391.455-.782.709-1.155.222-.288.447-.575.686-.85.213.005.425.02.637.035.391.055.774.119,1.154.2.622.16,1.226.358,1.832.58l-.013-.009.061.028a.887.887,0,0,0,.119.042.459.459,0,0,1-.08-.024c.544.22,1.073.462,1.6.734a18.977,18.977,0,0,1,1.714,1.07c.456.346.909.694,1.328,1.077.29.283.572.583.834.891.109.142.207.282.3.428.126.222.247.443.355.674.056.14.107.273.151.411a2.947,2.947,0,0,1,.069.326c.013.145.027.29.029.434l0-.018c0,.134-.011.266-.021.4L92.3,60c-.368.372-.756.73-1.159,1.067a37.041,37.041,0,0,1-3.241,2.17l.007,0c-.638.387-1.273.762-1.9,1.144-.76.443-1.521.9-2.3,1.3a7.056,7.056,0,0,0-.806.364,1.6,1.6,0,0,0-.8,1.119,3.971,3.971,0,0,0-.708.373,1.622,1.622,0,0,0-.247,2.422,4.278,4.278,0,0,0,.581.483,2.025,2.025,0,0,0,1.292.25,1.339,1.339,0,0,0-.114.191,1.41,1.41,0,0,0,.68,1.851c.36.18.717.378,1.075.564.635.366,1.263.736,1.89,1.118.556.336,1.082.709,1.617,1.065q2.492,1.814,4.9,3.726c1.473,1.162,2.954,2.32,4.478,3.42.02.015.041.03.061.043h0l.011.007h0l.012.008.075.054a.245.245,0,0,1,.047.032l-.01,0c.679.485,1.375.945,2.078,1.395-.723.745-1.452,1.483-2.2,2.2a1.445,1.445,0,0,0,.773,2.49,1.379,1.379,0,0,0,1.194-.37c.323-.326.63-.667.948-1a1.34,1.34,0,0,0,.39-.3c.332-.383.661-.771.993-1.156q1.641-1.77,3.248-3.569c.527-.587,1.047-1.183,1.569-1.776.209-.141.41-.291.623-.428.276-.166.556-.319.838-.455a2.1,2.1,0,0,1,.277-.094,1.246,1.246,0,0,0,.75-1.583,1.2,1.2,0,0,0-.082-.134c.268-.3.53-.6.8-.893l0,0c.028-.026.057-.057.085-.083a1.29,1.29,0,0,0,.067-2.378ZM90.138,73.546h0l.005,0Zm.039.025.615.379c.641.4,1.25.854,1.869,1.288.32.24.641.48.961.726.445.377.876.772,1.316,1.155C93.471,76,92,74.885,90.5,73.807Z"/><path d="M21.765,111.314c0-.053,0-.106.006-.16l0-.089C21.773,111.149,21.766,111.231,21.765,111.314Z"/></svg>