<svg xmlns="http://www.w3.org/2000/svg" width="147.858" height="214.945" viewBox="0 0 147.858 214.945"><path d="M129.954,66.056l-.01.044c-.011.054-.019.109-.031.162C129.925,66.2,129.942,66.127,129.954,66.056Z"/><path d="M91.085,182.123c-.07.013-.141.021-.21.034h-.008Z"/><path d="M147.149,106.215a5.091,5.091,0,0,0-1.261-.96,7.37,7.37,0,0,0-1.748-.662c.023-.095.045-.19.064-.286a5.334,5.334,0,0,0,.059-1.466,3.173,3.173,0,0,0-1.737-2.379,4.068,4.068,0,0,0-1.384-.453,9.558,9.558,0,0,0-1.69-.112,30.869,30.869,0,0,0-5.729.895c-1.926.454-3.84.931-5.753,1.419-2.105.537-4.211,1.125-6.339,1.565-.269.041-.536.07-.806.086-.08,0-.16.006-.24,0l-.1-.019c-.023-.006-.046-.014-.069-.021l-.084-.037-.027-.016.086-.252c-.007.018-.013.035-.02.051.015-.038.029-.078.043-.118l.033-.094-.018.056c.138-.374.274-.755.419-1.127.759-1.961,1.519-3.922,2.261-5.895.748-1.99,1.449-4,2.155-6.018,1.241-3.552,2.441-7.122,3.7-10.674l-.02.055c.478-1.335.973-2.666,1.439-4-.024.071-.047.142-.071.206.724-2.012,1.464-4.018,2.188-6.037-.011.03-.023.059-.034.089.351-.969.692-1.933,1.038-2.9.141-.4.277-.8.406-1.207a4.776,4.776,0,0,0,.289-2.8c-.463-1.63-2.09-2.106-3.638-2.093a2.454,2.454,0,0,0-1.055-1.623,4.373,4.373,0,0,0-2.521-.553,15.984,15.984,0,0,0-3.026.477c-.431.1-.86.215-1.286.333a1.989,1.989,0,0,0-2.3-.03c-.761.516-1.514,1.05-2.269,1.578-.681.246-1.361.491-2.039.751q-3.047,1.176-6.106,2.35c-3.756,1.427-7.529,2.819-11.366,4.033-.331.09-.663.159-1,.223-.108.016-.217.027-.328.037-.069,0-.141,0-.213,0l-.018,0c-.041-.481-.076-.961-.111-1.44-.078-1.053-.125-2.106-.16-3.158-.005-.576-.01-1.153,0-1.729.018-1.773.089-3.534.165-5.306s.13-3.574.165-5.364c.035-1.7.018-3.41.006-5.117-.006-1.6-.006-3.2-.048-4.807v.013l0-.131c0-.029,0-.058,0-.086v.012q-.049-1.761-.1-3.51V38c-.083-2.488-.341-4.964-.595-7.434-.106-1.031-.247-2.049-.394-3.074-.177-1.248-.33-2.5-.536-3.745l.005.045q-.438-2.679-.882-5.356c.011.064.023.124.035.188-.012-.068-.023-.138-.036-.208-.1-.621-.217-1.24-.333-1.858-.187-1.683-.379-3.366-.6-5.049-.253-1.967-.554-3.928-.966-5.865a17.036,17.036,0,0,0-.807-2.75,2.195,2.195,0,0,0-1.625-1.537,1.669,1.669,0,0,0-.172-.01A2.959,2.959,0,0,0,88.75.214a1.837,1.837,0,0,0-1.7.2,1.506,1.506,0,0,0-.761-.392A1.566,1.566,0,0,0,84.709.73c-.132.193-.241.4-.356.605a2.108,2.108,0,0,0-1.335-.9c-1.29-.248-2.35.73-3.074,1.683A21.531,21.531,0,0,0,78.165,4.9c-.577,1.083-1.177,2.161-1.719,3.268-1.884,3.827-3.7,7.69-5.535,11.547-.824,1.738-1.661,3.474-2.485,5.218-.4.835-.819,1.66-1.225,2.49s-.794,1.664-1.208,2.482l.019-.032-.082.158-.013.025.006-.012q-1.242,2.394-2.469,4.8l.02-.037-.021.041,0-.005-.005.009c-.029.057-.061.117-.089.173l.046-.092c-.85,1.572-1.7,3.143-2.525,4.727.022-.045.043-.091.068-.137-.7,1.228-1.354,2.478-2.029,3.717-1.8,3.3-3.621,6.6-5.288,9.969-.877,1.772-1.8,3.544-2.567,5.376q-.575,1.368-1.107,2.755c-.373.986-.739,1.982-1.2,2.93-.039.067-.08.131-.122.195l-.047.058-.064-.039q-.4-.293-.775-.617a28.991,28.991,0,0,1-2.025-2.179l.086.106-.112-.137-.024-.028.018.021c-2.756-3.379-5.256-6.947-7.985-10.337-.624-.772-1.278-1.52-1.937-2.255A17.845,17.845,0,0,0,33.8,47.125a10.092,10.092,0,0,0-1.8-1.237,2.414,2.414,0,0,0-2.285-.176,2.149,2.149,0,0,0-.959.995,4.07,4.07,0,0,0-.336,1.343,12.7,12.7,0,0,0,.159,2.908c.008.055.017.111.025.165-1.6,1.4-1.9,3.788-1.633,5.812a26.865,26.865,0,0,0,2.067,6.954c.4.936.783,1.89,1.213,2.815-.029-.059-.053-.112-.082-.171l.065.136.122.263c.11,1.018.209,2.038.332,3.054.176,1.448.406,2.89.583,4.339.106.919.258,1.837.335,2.756q.095,1.193.188,2.387a20.91,20.91,0,0,1-.018,2.375c-.025.227-.054.448-.09.67-.041.166-.09.332-.14.5-.018.05-.038.1-.059.148-1.069-.483-2.128-.992-3.185-1.5-.83-.407-1.66-.807-2.5-1.207-1.483-.707-3.168-1.62-4.858-1.1a3.167,3.167,0,0,0-2.007,2,7.892,7.892,0,0,0-.283,3.257c.012.132.026.262.041.394a4.25,4.25,0,0,0-.194.577,12.662,12.662,0,0,0,.618,7.02,76.9,76.9,0,0,0,3.215,7.749q.687,1.527,1.358,3.061.2.706.4,1.414c.336,1.224.677,2.443,1,3.674.152.579.309,1.159.459,1.742-.692-.17-1.367-.367-2.047-.588-1.208-.437-2.414-.883-3.588-1.424-.463-.332-.922-.669-1.389-.994.018.011.036.022.054.035l-.209-.147.061.041-.114-.08-.051-.037.025.019q-.244-.173-.494-.345l.076.052c-.269-.185-.535-.375-.8-.56.042.028.082.055.125.086-.146-.106-.293-.208-.439-.31l.1.068c-.224-.159-.448-.312-.671-.471l.03.023c-.039-.028-.078-.055-.119-.082.059.041.112.077.165.118-.919-.654-1.873-1.278-2.821-1.89-.483-.312-.973-.608-1.469-.895q-.585-.54-1.169-1.074c-.3-.271-.6-.553-.907-.812a5.434,5.434,0,0,0-1.743-1.125,2.705,2.705,0,0,0-1.7-.053,3.449,3.449,0,0,0-1.221.812,5.961,5.961,0,0,0-2.351.557,1.227,1.227,0,0,0-.6-.166,1.289,1.289,0,0,0-1.237.918v.007a1.173,1.173,0,0,0,.026.766,4.385,4.385,0,0,0-.644,1.342,18.623,18.623,0,0,0-.43,4.434,43.164,43.164,0,0,0,.212,4.928c.09,1.019.255,2.031.439,3.039a82.256,82.256,0,0,0,1.792,10.957,49.809,49.809,0,0,0,1.5,5.2q.7,1.951,1.555,3.848c0,.031,0,.065,0,.095a8.554,8.554,0,0,0,.271,1.5,18.7,18.7,0,0,0,.966,2.673,42.085,42.085,0,0,0,2.84,5.186c.244,1.066.5,2.128.755,3.189.382,1.6.8,3.18,1.307,4.741.271.818.547,1.625.865,2.425.295.766.607,1.514.937,2.267.382.866.748,1.761,1.207,2.592.288.512.559,1.048.877,1.548.289.453.577.919.866,1.378,1.013,1.6,2.1,3.138,3.209,4.67l.03.04c.152.54.3,1.082.453,1.622a1.431,1.431,0,0,0,1.359,1.063,1.449,1.449,0,0,0,.193-.023c.52.658,1.053,1.305,1.616,1.92.712.772,1.431,1.531,2.149,2.291.336.359.7.694,1.054,1.042a19.833,19.833,0,0,0,2.173,1.849,46.789,46.789,0,0,0,5.871,3.533,26.385,26.385,0,0,0,6.524,2.178,61.053,61.053,0,0,0,6.111,1c-.231.613-.458,1.229-.694,1.84q-1.431,3.664-2.956,7.29c-.677,1.619-1.36,3.221-2.085,4.817-.706,1.572-1.46,3.115-2.208,4.669-.713,1.472-1.449,2.926-2.179,4.393-.718,1.448-1.478,2.891-2.167,4.357a1.717,1.717,0,0,0,.884,2.238,1.671,1.671,0,0,0,.665.137,1.732,1.732,0,0,0,1.466-.814c.488-.787.983-1.568,1.477-2.35a1.632,1.632,0,0,0,.19.1,1.5,1.5,0,0,0,1.5-.166,13.793,13.793,0,0,0,3.51-4.875c1.443-2.891,2.838-5.812,4.116-8.786.689-1.6,1.348-3.2,1.984-4.822.575-1.461,1.159-2.922,1.681-4.4l-.008.029c.228-.64.451-1.273.673-1.907.164-.458.314-.921.47-1.382.21,0,.419.011.63.011q1.863-.009,3.727-.012c.848,0,1.708-.088,2.556-.136,1.069-.069,2.145-.122,3.215-.19l-.046,0,.095,0h0c1.361-.077,2.727-.236,4.082-.354,4.01-.347,8.015-.784,12.013-1.219,1.931-.206,3.857-.471,5.788-.707.854-.106,1.7-.253,2.556-.376.931-.143,1.872-.26,2.805-.426,1.775-.312,3.545-.647,5.315-.976l-.046.011c.45-.086.9-.2,1.341-.3,1.225-.272,2.456-.543,3.681-.825a59.216,59.216,0,0,0,6.8-2.02,50.3,50.3,0,0,0,7.737-3.521c1.525-.854,2.992-1.784,4.446-2.762,1.343-.906,2.662-1.825,3.922-2.849a43.059,43.059,0,0,0,3.839-3.634c.689-.718,1.354-1.454,2.014-2.2.335-.389.665-.789.995-1.184.265-.312.518-.635.76-.96a9.01,9.01,0,0,0,.842-1.448,1.283,1.283,0,0,0,.119-.375c1.847-1.636,3.672-3.3,5.451-5.013.7-.683,1.4-1.378,2.067-2.091.371-.388.748-.783,1.089-1.195a7.871,7.871,0,0,0,.942-1.307c.106-.206.218-.418.307-.636a4.843,4.843,0,0,0,.206-.813,2.384,2.384,0,0,0-.407-1.689,2.751,2.751,0,0,0-1.16-.966,11.157,11.157,0,0,0-1.99-.566c-.9-.206-1.817-.373-2.722-.56-.139-.032-.274-.059-.413-.091-.248-.059-.5-.122-.748-.158-.111-.026-.225-.049-.338-.072a46.468,46.468,0,0,1-4.541-1.086c-.14-.051-.282-.1-.419-.162q-.059-.035-.117-.072l-.047-.037,0-.033v0c.006-.049.014-.1.022-.145.032-.127.069-.252.11-.379.085-.22.177-.429.278-.638a61.457,61.457,0,0,1,3.452-5.291c.318-.465.624-.948.93-1.419.354-.542.742-1.066,1.06-1.62.636-1.095,1.337-2.149,1.944-3.256.625-1.139,1.272-2.28,1.87-3.437-.029.057-.056.113-.086.169.05-.092.1-.186.147-.279l-.041.073c.038-.07.076-.143.114-.216l0-.008,0,0,.081-.155c.13-.246.258-.493.385-.743l-.029.053c.013-.022.024-.045.037-.068l.081-.162c-.016.035-.033.07-.051.1.067-.126.133-.255.2-.384l-.018.039c.035-.07.072-.141.108-.211l.009-.019,0,.006c.119-.23.238-.46.357-.688-.018.033-.036.066-.053.1l.068-.128.049-.095-.038.075c.014-.027.029-.054.043-.082l-.022.048c.748-1.437,1.472-2.886,2.19-4.334.878-1.773,1.743-3.557,2.58-5.347.388-.83.777-1.666,1.148-2.508.188-.447.382-.889.571-1.337a6.5,6.5,0,0,0,.436-1.183,4.649,4.649,0,0,0,.129-1.39A2.661,2.661,0,0,0,147.149,106.215ZM129.944,66.1c.134-.622.25-1.25.363-1.877l.1-.008c.179-.007.362-.007.541,0l.071.007c-.176.668-.425,1.318-.654,1.972.024-.071.047-.142.071-.207q-.588,1.623-1.187,3.239Q129.614,67.667,129.944,66.1Zm11.145,37.247h0l0,0v.008l.009.043-.01-.039c0,.021-.006.041-.008.062l.006-.07v-.007Zm-19.644,3.734a13.394,13.394,0,0,0,1.6-.3c.53-.129,1.066-.253,1.6-.394q2.685-.7,5.37-1.384c2.334-.6,4.679-1.2,7.052-1.635.7-.113,1.4-.2,2.1-.252.355-.012.7-.007,1.058.014.19.022.378.048.567.083l.106.03.088.037c.027.015.053.03.078.046l.008,0v.021c0,.038,0,.075,0,.112-.007.066-.013.131-.025.2q-.071.271-.15.541a31.071,31.071,0,0,0-5.189.443c-1.956.3-3.911.6-5.856.952l.044-.01c-.141.024-.283.053-.418.077l.212-.036c-.565.094-1.13.195-1.7.3l.218-.035c-.312.052-.618.105-.93.159l.218-.036q-1.272.213-2.538.458l.017,0q-1.824.327-3.648.664c-.519.082-1.039.15-1.563.2-.07,0-.139.009-.209.006l-.026,0c0-.039,0-.077-.006-.115,0-.088,0-.176,0-.263l.126.04A4.442,4.442,0,0,0,121.445,107.081Zm3.186-44.653c-.521.19-1.037.394-1.537.619-.689.311-1.383.612-2.077.915.37-.272.736-.545,1.107-.815.192-.064.382-.133.574-.2C123.34,62.761,123.983,62.584,124.631,62.428ZM97.159,68.59h0l.05,0-.056,0-.062,0,.061,0-.016,0Zm-40.6,1.117c-.027.057-.061.11-.092.165a1.179,1.179,0,0,0-.029-.186,1.294,1.294,0,0,0,.181-.105C56.6,69.623,56.584,69.666,56.563,69.707ZM35.028,53.094c-.025-.029-.05-.059-.073-.09l.042.05ZM89.058,5.933c.619,2.209,1.083,4.46,1.541,6.705.02.1.037.2.056.3.008.062.016.124.023.185.2,1.649.371,3.3.542,4.953.337,3.3.627,6.6.793,9.906.081,1.717.151,3.433.238,5.15,0-.045-.008-.091-.01-.134.111,3.691.228,7.383.316,11.075.082,3.492.118,6.984.159,10.47.01.879.027,1.759.045,2.638-.1-.717-.2-1.434-.3-2.15-.554-3.916-.96-7.849-1.419-11.777q-.681-5.864-1.373-11.729-.361-3.091-.759-6.183c-.265-2.055-.565-4.1-.866-6.148-.436-3.013-.923-6.02-1.44-9.02C87.375,8.729,88.148,7.3,89.058,5.933Zm-37.2,59.116c.383-.93.736-1.872,1.089-2.82a100.157,100.157,0,0,1,4.882-10.553c-.036.059-.065.125-.1.183,1.048-1.931,2.067-3.88,3.115-5.817.936-1.726,1.919-3.44,2.82-5.182l-.047.095c.851-1.572,1.717-3.146,2.532-4.736l-.012.025q1.27-2.447,2.529-4.906c-.023.044-.046.088-.067.13.088-.171.171-.342.259-.513Q71.532,25.5,74.15,20.014c1.749-3.661,3.493-7.328,5.3-10.962.8-1.479,1.567-2.987,2.506-4.391.063-.088.127-.174.191-.26.084.3.141.611.212.916-.232.478-.463.955-.7,1.431Q80.3,9.531,78.885,12.3c-.818,1.59-1.607,3.185-2.379,4.8-.283.589-.583,1.172-.836,1.773-.418.965-.836,1.937-1.254,2.9-.527,1.224-1.031,2.459-1.536,3.694-1.236,2.465-2.5,4.921-3.74,7.381Q66.649,37.81,64.217,42.8c-1.378,2.827-2.662,5.7-3.886,8.591-1.325,3.133-2.556,6.3-3.769,9.475.013-.042.028-.084.045-.127-.322.808-.623,1.622-.934,2.429.019-.049.039-.1.059-.147-.071.183-.142.371-.218.559l.071-.176c-.049.13-.1.257-.148.384v0c-.047.118-.09.236-.136.354.011-.03.022-.059.03-.088-.076.211-.159.418-.241.629.024-.058.047-.117.07-.176-.042.108-.08.208-.121.31.013-.032.026-.063.039-.092-.188.477-.377.954-.559,1.437.023-.06.047-.118.07-.177-.291.742-.587,1.48-.869,2.224-.2-.09-.393-.187-.587-.288-.7-.386-1.362-.828-2.038-1.253l-.133-.1A5.9,5.9,0,0,0,51.856,65.049ZM34.962,53.011,34.947,53l0,0,0,0-.022-.031Zm-3.069-3.334a38.8,38.8,0,0,1,3.046,3.309q-.383-.409-.766-.82a5.741,5.741,0,0,0-2.479-1.732l-.018,0c-.042-.339-.079-.678-.106-1.017C31.678,49.5,31.785,49.587,31.893,49.677ZM39.042,158.34c-.023-.038-.047-.076-.071-.114l-.023-.033.017.024-.107-.17.243.346c.819,1.166,1.661,2.32,2.544,3.439.913,1.148,1.849,2.29,2.838,3.374.889.977,1.808,1.943,2.78,2.832l-.13-.111q1.776,1.668,3.586,3.3c.308.279.628.546.945.816-.574-.164-1.148-.328-1.719-.5q-1.154-.352-2.308-.71c-1-1.535-2.016-3.064-3.065-4.57-.884-1.266-1.767-2.538-2.65-3.8-.977-1.407-1.976-2.8-2.937-4.214C39.005,158.278,39.024,158.311,39.042,158.34Zm14.651,5.788c-.864-1.877-1.755-3.743-2.636-5.614l.033.079c-.013-.031-.026-.062-.04-.093l-.036-.077c.011.023.022.045.032.067-.162-.378-.324-.755-.492-1.133-.783-1.814-1.566-3.633-2.361-5.441-.206-.483-.371-.984-.554-1.472q-.2-.534-.4-1.069.37.788.738,1.574c.665,1.453,1.4,2.867,2.178,4.259a8.693,8.693,0,0,0,.635.987l0,.01a1.958,1.958,0,0,0,.536.83,3.912,3.912,0,0,0,.843.56c.018.031.037.062.058.094a5.533,5.533,0,0,0,1.866,1.69,15.646,15.646,0,0,0,1.793.846q-.812,2.54-1.652,5.068C54.055,164.9,53.872,164.518,53.693,164.128Zm5.664-20.168a1.618,1.618,0,0,0,.526-.126q-.618,3.581-1.238,7.161c-.058.325-.119.65-.18.974q-.344,1.131-.692,2.258c-.3-.006-.6-.011-.9-.018l-1.187-.027A15.378,15.378,0,0,0,55.6,151.6c-.106-1.154-.189-2.308-.342-3.451-.141-1.083-.312-2.161-.477-3.244-.271-1.8-.6-3.587-.913-5.383-.223-1.3-.447-2.584-.683-3.88l-.047-.257.006.016c.389.972.783,1.937,1.178,2.9.412,1.019.871,2.013,1.366,2.991a5.2,5.2,0,0,0,1.5,1.92A3.218,3.218,0,0,0,59.357,143.96ZM72.5,128.124l.291-1.465a1.515,1.515,0,0,0,1.288.333c.326-.075.652-.144.982-.209.845-.132,1.7-.218,2.557-.315.913-.1,1.825-.217,2.742-.259.214,0,.424.006.638.025l.167.028c-.151.152-.308.294-.466.434-.616.515-1.22,1.038-1.831,1.557-1.995,1.653-4.084,3.2-6.143,4.781-.55.419-1.114.821-1.673,1.23q.358-1.312.718-2.624C72.088,130.491,72.264,129.3,72.5,128.124Zm8.652,13.847c.328,0,.654,0,.979.029.112.014.223.033.334.055.184.05.363.106.542.168l0,0c-.022.038-.048.073-.072.109a2.471,2.471,0,0,1-.2.234c-.117.115-.235.228-.358.336-.621.489-1.286.9-1.928,1.346q-1.146.811-2.327,1.564a50.547,50.547,0,0,1-5.482,2.986q-.447.2-.9.385c-.993.184-1.986.364-2.979.533H68.75c-.754.112-1.526.19-2.267.367-.114.028-.224.061-.335.092.328-.94.643-1.882.958-2.829q.722-2.178,1.448-4.353c.364-.036.727-.076,1.092-.1,1.2-.088,2.4-.165,3.6-.265l3.139-.265c.518-.041,1.036-.083,1.554-.129C79.012,142.139,80.082,142.014,81.152,141.971Zm19.985,21.906c.871-.012,1.743-.012,2.614-.023,1.675-.012,3.367-.085,5.038.068.368.045.736.1,1.1.181.183.053.36.109.538.171.265.1.527.216.788.33-.066.039-.139.072-.209.106-.172.068-.345.129-.521.188-.472.136-.953.248-1.423.387-.554.159-1.113.306-1.678.43-.987.207-1.984.383-2.981.567-.061,0-.121.016-.182.027.045,0,.093-.014.139-.02l-.025.005c-.087.013-.172.024-.261.039.053-.006.112-.018.165-.024-2.255.336-4.511.7-6.766,1.072.059-.012.112-.018.165-.03l-.312.054c.053-.012.106-.018.165-.03-.126.022-.246.039-.367.06.046-.008.093-.015.137-.024-.054.01-.107.018-.161.026-1.682.21-3.375.351-5.056.527-1.629.175-3.264.3-4.888.513-.615.008-1.234.072-1.848.1-1.325.071-2.65.148-3.981.218s-2.679.153-4.016.224c-.636.035-1.278.047-1.913.106h.132l-.1,0-.06,0,.041,0c-3.715.075-7.431.1-11.146.21a1.391,1.391,0,0,1,.159-.006c-1.693,0-3.385-.008-5.078-.009.29-.866.573-1.733.86-2.6q.734-2.192,1.437-4.387c.049-.151.1-.3.146-.455.029-.075.058-.151.086-.227,1.077.123,2.159.2,3.232.251,1.219.058,2.426.106,3.645.082a38.261,38.261,0,0,0,4.921-.459c.379.072.758.142,1.138.206-.053-.012-.112-.024-.171-.041.347.088.707.135,1.054.194.489.088.977.171,1.466.253.877.153,1.761.3,2.638.436,1.82.289,3.639.53,5.471.718q2.79.284,5.594.442c.983.053,1.966.1,2.95.135.445.018.9.05,1.348.037-.039,0-.078.005-.118.005C97.074,163.919,99.105,163.889,101.137,163.877Zm-.13,9.836c-1.905.508-3.829.928-5.769,1.278-1.19.207-2.389.408-3.594.537l-.684.07c.482-.09.967-.18,1.446-.272,1.414-.265,2.833-.5,4.24-.806,1.811-.405,3.626-.792,5.442-1.192C101.731,173.467,101.366,173.582,101.007,173.713Zm-54.193,3.461a49.614,49.614,0,0,1-5.7-2.465l.023.012-.032-.017-.162-.083c.027.013.055.026.082.041-.551-.294-1.088-.608-1.624-.923a26.5,26.5,0,0,0,3.776,1.216c.925.23,1.849.483,2.785.671.591.123,1.185.233,1.779.346l0,0a1.275,1.275,0,0,0,1.088.555,1.394,1.394,0,0,0,.757-.227c.258.039.515.078.773.114-.135.372-.27.743-.4,1.116l.011-.027-.221.612C48.764,177.828,47.784,177.518,46.814,177.174Zm28.655-18.85h.014c-.2.032-.4.065-.6.1l.189-.036q-.876.141-1.75.27l-1.271-.246-.456-.089c.35-.078.7-.168,1.039-.276.533-.166,1.055-.364,1.568-.581.676,0,1.353,0,2.03,0h3.545l.5,0C78.672,157.772,77.072,158.064,75.469,158.324ZM73.612,154.6l.007,0-.006,0Zm.007,0-.007,0c-.347,0-.693-.009-1.04-.015-1.973-.042-3.945-.06-5.918-.124-.681-.026-1.363-.037-2.046-.048.109-.3.22-.595.329-.893a1.769,1.769,0,0,0,.386.04c.048,0,.094,0,.141-.006h-.07l.155,0h.293c.341,0,.683.006,1.03-.017a11.972,11.972,0,0,0,1.508-.236,24.792,24.792,0,0,0,3.126-.895c.361-.129.719-.266,1.073-.408q1.029-.186,2.054-.387,2.111-.415,4.222-.819c1.057-.2,2.109-.436,3.163-.658l-.148.081C79.147,151.716,76.446,153.278,73.619,154.592ZM34.79,83.033c.159.539.319,1.078.484,1.615-.29-.088-.578-.184-.866-.283A7.077,7.077,0,0,0,34.79,83.033Zm-3.248.066c-.011.022-.024.043-.035.064h0C31.519,83.142,31.532,83.121,31.542,83.1Zm-28.6,26.015q.632,2.19,1.251,4.381c.094.684.182,1.37.291,2.047.47,2.86.917,5.717,1.367,8.575-.059-.141-.118-.282-.176-.423-.2-.477-.342-1-.507-1.484-.177-.531-.364-1.058-.538-1.588l.008.021c-.214-.807-.421-1.619-.633-2.427-.3-2.263-.549-4.53-.734-6.807a1.386,1.386,0,0,0-.318-.76c-.016-.546-.038-1.093-.041-1.639Zm12.731,45.722c-.233-.585-.441-1.18-.643-1.777.113.132.226.264.341.394q.269.969.539,1.939C15.833,155.205,15.746,155.024,15.672,154.836Zm26.621,26.1a38.248,38.248,0,0,1-4.265-1.165,17.289,17.289,0,0,1-1.764-.755l.125.066c-.537-.283-1.079-.558-1.615-.831l.212.105c-1.314-.793-2.65-1.559-3.913-2.428a18.218,18.218,0,0,1-1.627-1.295,65.175,65.175,0,0,1-4.615-4.887c-.9-1.143-1.77-2.31-2.629-3.484l-.3-1.471c-.353-1.731-.712-3.457-1.066-5.188-.042-.211-.086-.422-.129-.633.031.03.061.061.092.09.351.541.707,1.079,1.073,1.613.512.742.983,1.52,1.537,2.226.789,1.013,1.572,2.02,2.361,3.027a45.5,45.5,0,0,0,4.369,4.776,41.405,41.405,0,0,0,6.754,5.282,49.179,49.179,0,0,0,11.746,5.176l-.252.689a59.081,59.081,0,0,1-6.312-.966Zm32.4-.454c-1.969.069-3.945.15-5.914.248-2.044.009-4.082-.05-6.115-.212a69.13,69.13,0,0,1-7.052-.972c.166-.4.33-.8.479-1.209.111-.3.224-.606.337-.908,1.811.48,3.63.923,5.464,1.287a73.125,73.125,0,0,0,8.7,1.165q2.253.177,4.522.224l.8.021c.355.021.71.037,1.063.056l.67.035C76.661,180.319,75.676,180.427,74.691,180.486Zm56.246-26.021c.483-.854.943-1.719,1.355-2.6.608-1.319,1.512-2.906.653-4.291q.693.153,1.384.3l-.253-.053.3.066a2.1,2.1,0,0,0,.241.052l.327.068.5.108q1.26.269,2.522.515l-.329.37c-1.867,1.949-3.856,3.759-5.845,5.575q-.945.861-1.906,1.711Q130.428,155.381,130.937,154.465Zm-1.119-5.036c-.275.645-.584,1.277-.9,1.908-.774,1.455-1.595,2.868-2.475,4.258-.8,1.268-1.657,2.479-2.5,3.712.031-.046.061-.093.092-.137-.518.671-1,1.384-1.548,2.032-.048.056-.1.112-.145.169q-.99.8-1.969,1.613c-.642.516-1.28,1.041-1.917,1.567-.721.591-1.467,1.152-2.23,1.69-1.612.617-3.247,1.172-4.9,1.691-1.144.35-2.313.644-3.472.953l-3.345.9c-.412.112-.824.242-1.242.33-2,.424-3.993.877-5.983,1.313-1.237.277-2.473.518-3.716.76-1.177.223-2.355.441-3.527.665-.557.1-1.115.2-1.668.315-1.856.326-3.718.631-5.569.962H82.8l.027,0c-.913.118-1.825.254-2.732.377-.565.076-1.131.159-1.7.23-.206.029-.412.07-.618.088-1.775.128-3.549.26-5.329.383-1.767,0-3.533.018-5.3.018-.271,0-.548-.036-.818-.048l-1.785-.106c-.548-.029-1.093-.059-1.638-.09-1.256-.288-2.521-.547-3.767-.881-.448-.12-.9-.233-1.349-.348.036-.1.072-.2.109-.295-.014.031-.027.064-.039.1.2-.548.393-1.1.592-1.65-.006.016-.013.032-.019.049.024-.066.045-.133.069-.2.571,0,1.142.007,1.712.007.992,0,1.986.023,2.979.023.434,0,.869,0,1.3-.017a.371.371,0,0,1-.047,0c3.7-.074,7.409-.086,11.113-.19-.038,0-.076,0-.113,0,.582,0,1.171-.058,1.754-.088,1.349-.071,2.7-.153,4.051-.223q2.085-.107,4.17-.225c.635-.035,1.277-.04,1.913-.1h-.165c.566,0,1.143-.106,1.7-.158,1.184-.118,2.367-.242,3.545-.359s2.338-.242,3.509-.36c.5-.05,1.02-.074,1.516-.158l.081-.014c.058-.008.116-.018.176-.028-.053.012-.112.017-.165.029,2.385-.359,4.77-.712,7.149-1.1l-.023,0h0c.432-.053.864-.145,1.3-.22.572-.1,1.143-.194,1.708-.312,1.025-.212,2.031-.488,3.044-.747a5.445,5.445,0,0,0,2.379-1.06,2.432,2.432,0,0,0,.63-.854,8.2,8.2,0,0,0,.324-1.119c-.012.053-.023.106-.035.165a3.053,3.053,0,0,1,.112-.4,1.336,1.336,0,0,0-.724-1.6c-.76-.312-1.5-.706-2.274-.971a9.952,9.952,0,0,0-2.414-.465c-.918-.077-1.843-.083-2.762-.071h-.847c-.377,0-.748-.006-1.125.006-1.4.024-2.8.018-4.2.024-1.52.006-3.045.006-4.57.023-.43.006-.86-.023-1.295-.041-.984-.041-1.961-.082-2.945-.141q-2.865-.172-5.719-.461c-1.134-.121-2.264-.269-3.392-.433l3.247-.614c3.256-.612,6.518-1.213,9.751-1.931a1.457,1.457,0,0,0,.277-2.75,4.3,4.3,0,0,0-1.2-.383,12.816,12.816,0,0,0-1.566-.129c-1.055-.017-2.11.058-3.164.095l-.636.015h.02c-.1,0-.2,0-.3.008l.032,0c-2.26.055-4.526.079-6.786.14l.024,0c-.03,0-.06,0-.09,0l-.1,0h0q-.718,0-1.438,0c1.481-.814,2.965-1.62,4.433-2.454,1.654-.942,3.3-1.884,4.875-2.95a1.463,1.463,0,0,0-.8-2.644c-.812-.006-1.631-.077-2.443-.018a23.212,23.212,0,0,0-2.45.33c-.807.151-1.608.323-2.41.5.612-.414,1.218-.837,1.833-1.244a9.381,9.381,0,0,0,2.12-1.732,4.418,4.418,0,0,0,.683-1.083c.162-.4.3-.805.453-1.2.014-.033.028-.068.042-.1a1.5,1.5,0,0,0-.913-2.02l-.14-.05a14.576,14.576,0,0,0-1.8-.657,7.968,7.968,0,0,0-2-.242c-1.231.024-2.45.189-3.675.283s-2.426.207-3.633.307c-.842.076-1.684.135-2.526.2-.677.047-1.355.088-2.038.141l-.032,0c.093-.34.19-.679.279-1.021,1.23-.915,2.518-1.746,3.734-2.68.7-.542,1.407-1.071,2.108-1.607.771-.589,1.549-1.172,2.314-1.761.554-.424,1.107-.854,1.649-1.284.836-.659,1.637-1.354,2.45-2.037l-.007,0a8.075,8.075,0,0,0,1.926-1.889,2.924,2.924,0,0,0,.477-1.131,8.491,8.491,0,0,0,.027-1.286c0-.04,0-.081,0-.122a1.567,1.567,0,0,0-1.283-1.572c-.589-.118-1.166-.271-1.761-.359l-.062-.008c.717-.437,1.429-.88,2.135-1.335,2.2-1.413,4.346-2.908,6.454-4.457a1.448,1.448,0,1,0-1.708-2.338c-1.725,1.249-3.492,2.473-5.288,3.628.059-.036.112-.071.171-.106-.847.525-1.689,1.069-2.53,1.6-.8.463-1.6.94-2.4,1.414-1.242.736-2.512,1.418-3.823,2.031-.35.162-.707.3-1.068.437q.243-1.221.485-2.443c.217-1.084.323-2.179.465-3.28q.416-3.3.83-6.613c.153-1.236.247-2.485.365-3.728.159-1.772.342-3.538.483-5.31-.006.064-.006.129-.012.2.177-2.025.353-4.051.513-6.07-.006.064-.006.129-.012.2q.168-2.085.353-4.157c.053-.613.1-1.225.153-1.838.083-.953.136-1.9.159-2.849a1.586,1.586,0,0,0-1.348-1.59,1.611,1.611,0,0,0-1.755,1.13c-.012.038-.025.075-.038.113.011-.028.022-.056.032-.084q-.1.282-.2.565c-.066-.47-.129-.943-.2-1.413a5.39,5.39,0,0,0-.348-1.43,3.788,3.788,0,0,0-.324-.642,4.222,4.222,0,0,0-.488-.542,1.769,1.769,0,0,0-2.574,2.426c.025.025.051.051.076.078.052.194.1.39.138.589a69.1,69.1,0,0,1,.677,7.48v-.021c.011.666.017,1.325.029,1.991.006.453.029.906.006,1.359-.057,1.3-.1,2.6-.171,3.895-.148,1.316-.28,2.631-.421,3.946q-.441,2.251-.883,4.5c-.028-.01-.055-.023-.084-.032.029-.9.064-1.792.093-2.685.053-1.566.141-3.133.153-4.693.012-1.719.029-3.444.035-5.164.006-1.054.006-2.114.012-3.174,0-.53.012-1.065.018-1.6a9.241,9.241,0,0,0-.053-1.507,6.526,6.526,0,0,0-.342-1.29,1.256,1.256,0,0,0-1.313-.8,1.287,1.287,0,0,0-1.1,1.065c-.018.094-.041.183-.059.271l.035-.159c-.147.683-.318,1.367-.424,2.055s-.2,1.355-.276,2.038c-.124,1.083-.242,2.167-.342,3.25-.088.919-.177,1.837-.265,2.762q-.486,5.131-1.019,10.264c-.188,1.825-.376,3.656-.571,5.482-.129,1.283-.318,2.567-.477,3.845q-.131,1.052-.259,2.1a1.347,1.347,0,0,0-2.161.8,39.22,39.22,0,0,0-.135,4c-.012.837-.041,1.673-.059,2.515-.058,2.23-.1,4.489-.323,6.715a29.439,29.439,0,0,1-.471,2.937c-.052.185-.1.371-.165.556-.059.149-.124.294-.194.438-.115.2-.235.4-.364.6-.059.079-.121.156-.186.23l-.005,0,.005,0h0l-.007,0c-.035-.017-.07-.035-.1-.054l.1.052c-.087-.051-.172-.1-.255-.162a2.753,2.753,0,0,1-.234-.185c-.034-.034-.065-.072-.1-.109-.057-.07-.111-.143-.162-.22a22.626,22.626,0,0,1-1.035-2.021c-.794-1.785-1.5-3.621-2.227-5.439-.365-.9-.719-1.8-1.066-2.7-.33-.848-.66-1.695-1.066-2.514-.342-.689-.736-1.348-1.119-2.02a1.259,1.259,0,0,0-2.367.554,14.715,14.715,0,0,0,.077,2.655c.117.79.276,1.567.429,2.344.118.589.224,1.184.33,1.779.271,1.5.548,3,.819,4.5.412,2.3.8,4.611,1.183,6.919-.006-.059-.017-.112-.023-.171.218,1.472.465,2.945.636,4.422.088.766.141,1.538.212,2.315.063.62.119,1.241.149,1.867.005.332-.005.659-.031.987-.163,0-.327,0-.488,0-.065,0-.13.016-.2.02-.821-1.411-1.541-2.872-2.254-4.337-.712-1.557-1.458-3.1-2.186-4.656v0c-.765-1.749-1.519-3.5-2.278-5.247-.548-1.272-1.043-2.562-1.549-3.857q-.618-1.581-1.237-3.168c-.153-.388-.306-.777-.441-1.178-.593-1.744-1.226-3.482-1.775-5.243a14.241,14.241,0,0,0-.551-1.905,2.737,2.737,0,0,0-.489-.818,2.989,2.989,0,0,0-.489-.383,1.273,1.273,0,0,0-1.419.052,1.306,1.306,0,0,0-.494,1.32c.159.883.323,1.755.53,2.626.158.642.318,1.29.471,1.932.253,1.059.535,2.119.806,3.179.407,1.607.866,3.2,1.314,4.8.158.589.306,1.184.494,1.766.259.795.518,1.6.772,2.391.353,1.107.712,2.209,1.065,3.31.13.4.253.8.4,1.195q1.086,2.933,2.184,5.871c.471,1.266,1.019,2.5,1.555,3.745.636,1.483,1.248,2.991,1.937,4.457q2.1,4.48,4.174,8.978c-.059.172-.121.344-.18.517-.515-.459-1.042-.911-1.553-1.38l.026.023c-.194-.183-.382-.359-.577-.536l.037.037c-.578-.541-1.162-1.086-1.745-1.627-1.4-1.371-2.739-2.781-4.009-4.28l.041.053-.1-.124-.009-.01a90.062,90.062,0,0,1-5.745-7.9c-.658-1.084-1.338-2.153-2.006-3.227-.636-1.029-1.266-2.069-1.916-3.088l-.006-.01-.086-.135c.031.042.058.088.084.131l0-.007c-.942-1.708-1.9-3.4-2.838-5.1-.7-1.249-1.348-2.515-2-3.793q-1.122-2.19-2.249-4.381c-.424-.824-.837-1.66-1.278-2.473-.524-.978-1.066-1.949-1.649-2.891a3.742,3.742,0,0,0-.713-.925,2.022,2.022,0,0,0-.918-.471,1.358,1.358,0,0,0-1.307.307,1.327,1.327,0,0,0-.412,1.089,5.441,5.441,0,0,0,.223,1.154c.065.212.136.424.206.636.106.306.212.624.318.93.177.507.371,1.008.554,1.508.359.977.754,1.943,1.136,2.909.813,2.043,1.643,4.08,2.544,6.089.407.906.813,1.813,1.219,2.714.277.612.6,1.2.9,1.8.718,1.407,1.407,2.826,2.208,4.193.583,1,1.172,2.007,1.761,3.009.265.465.53.93.818,1.378.986,1.515,1.966,3.043,2.968,4.554.357.563.76,1.1,1.137,1.646.612.883,1.23,1.772,1.843,2.656.9,1.295,1.79,2.591,2.691,3.886.249.36.484.731.73,1.094-.74-.349-1.486-.706-2.231-1.05-.742-.406-1.484-.8-2.226-1.211-.249-.133-.5-.263-.756-.393q-1.017-.645-2.006-1.336a45.729,45.729,0,0,1-4.228-3.419,32.163,32.163,0,0,1-2.637-2.764l.087.11-.088-.111-.035-.042.033.04a30.3,30.3,0,0,1-1.84-2.625,44.219,44.219,0,0,1-2.512-4.73c-.62-1.354-1.137-2.754-1.705-4.126-.489-1.183-.907-2.4-1.354-3.6-.887-2.367-1.784-4.747-2.585-7.144-.043-.138-.084-.276-.117-.418a1.415,1.415,0,0,0,.075-.64,1.468,1.468,0,0,0-.871-1.178,1.509,1.509,0,0,0-1.437.153c-1.007.654-.636,2.126-.33,3.033.318.942.66,1.872.99,2.8.447,1.237.889,2.474,1.348,3.71.4,1.1.8,2.212,1.214,3.312-.321-.654-.645-1.306-.955-1.962l-.008-.019-.018-.043.007.019c-.555-1.227-1.12-2.454-1.686-3.675.03.053.053.112.083.17-.131-.288-.246-.582-.374-.872-.053-.255-.105-.512-.158-.767q-2.051-9.778-4.093-19.562-1-4.839-1.943-9.686-.326-1.668-.655-3.342l.078-.053.146-.081-.005,0,.051-.023c.052-.015.1-.033.156-.044s.118-.008.175-.014l.065,0a3.51,3.51,0,0,1,.419.066c.114.03.229.061.342.1.448.185.878.4,1.308.62.53.484,1.07.962,1.617,1.422.719.612,1.419,1.242,2.155,1.825,1.107.872,2.2,1.755,3.357,2.562a19.84,19.84,0,0,0,3.45,1.99,6.893,6.893,0,0,0,3.133.712c.1-.008.2-.04.3-.057a4.008,4.008,0,0,0,.593.212,3.447,3.447,0,0,0,.983.089,2.445,2.445,0,0,0,1.89-.972,3.422,3.422,0,0,0,.672-2.326,10.015,10.015,0,0,0-.207-1.455,11.942,11.942,0,0,0-.318-1.289c-.312-1.007-.653-2-1-2.985-.948-2.7-1.925-5.388-2.8-8.115l.012.043.017.056.03.1-.022-.075,0,.015c-.041-.129-.077-.259-.118-.388.018.065.041.135.059.2q-.45-1.44-.9-2.873l.014.042-.057-.181.008.026-.019-.059-.017-.052.009.025-.044-.143c.008.022.015.044.022.066.011.038.024.077.035.116s.027.088.043.136c-.016-.052-.033-.106-.049-.16l.014.042a110.679,110.679,0,0,1-2.932-11.057c0-.027-.005-.054-.009-.08.253.065.506.133.754.214,2.232.874,4.424,1.851,6.7,2.6a19.829,19.829,0,0,0,2.608.682,10.463,10.463,0,0,0,3.451.183,6.375,6.375,0,0,0,3.186-1.307,4.468,4.468,0,0,0,.942-1.078,3.853,3.853,0,0,0,.435-1.3,5.454,5.454,0,0,0-.076-1.879,9.963,9.963,0,0,0-.289-1.254c-.147-.488-.294-.966-.465-1.448-.312-.889-.665-1.767-1.054-2.627-1.249-2.746-2.564-5.462-3.851-8.189-.447-2.692-.869-5.388-1.366-8.074-.446-2.42-.907-4.839-1.359-7.261.391.422.773.853,1.159,1.278.542.595,1.077,1.19,1.631,1.778,1.154,1.243,2.3,2.509,3.515,3.7,1.384,1.367,2.768,2.715,4.181,4.045.577.548,1.178,1.073,1.778,1.6,1.113.978,2.226,1.955,3.421,2.833a27.257,27.257,0,0,0,3.534,2.285,10.048,10.048,0,0,0,3.1,1.118,4.6,4.6,0,0,0,1.8.042,3.36,3.36,0,0,0,1.395-.577,4.662,4.662,0,0,0,1-1.073,8.876,8.876,0,0,0,.589-1.094c.848-1.832,1.59-3.71,2.326-5.589q2.164-5.511,4.263-11.052a216.493,216.493,0,0,1,9.434-21.57c1.878-3.68,3.762-7.36,5.576-11.076q1.36-2.79,2.691-5.594.163-.343.328-.686.318,2,.608,4c.56,3.881,1.107,7.768,1.567,11.665q.7,5.892,1.395,11.789c.23,1.973.454,3.939.689,5.912s.447,3.981.73,5.959a88.774,88.774,0,0,0,1.643,9.552,23.686,23.686,0,0,0,1.307,3.939,8.115,8.115,0,0,0,1.289,2.058c.007.08.008.161.016.241a3.434,3.434,0,0,0,.813,2.213l0,0c.077.276.143.555.236.825a9.207,9.207,0,0,0,.706,1.578,3.824,3.824,0,0,0,.937,1.166,4.208,4.208,0,0,0,3.156.913,12.388,12.388,0,0,0,3.344-1.013c.984-.418,1.973-.83,2.944-1.277l-.023.01c.093-.041.183-.085.275-.127h0l0,0,.01,0c.672-.305,1.344-.615,2.016-.925-.059.029-.124.058-.183.088l.257-.119c-.025.011-.05.024-.074.037,2.2-1.01,4.372-2.1,6.55-3.152,1.116-.5,2.222-1.033,3.324-1.565l-.023.012c3.068-1.361,6.085-2.861,9.267-3.94l-.075.381c-.222,1.027-.45,2.055-.689,3.076-.919,3.945-2.008,7.837-3.145,11.723-1.042,3.58-2.314,7.1-3.509,10.629q-.556,1.625-1.107,3.25a38.364,38.364,0,0,0-1.084,3.793,19.816,19.816,0,0,0-.583,3.88,9.436,9.436,0,0,0,.082,1.736,14.592,14.592,0,0,0-.653,2.887,5.178,5.178,0,0,0,.206,2.3,3.239,3.239,0,0,0,1.5,1.725,4.007,4.007,0,0,0,2.008.377,29.641,29.641,0,0,0,3.745-.571c.6-.107,1.2-.213,1.8-.329l-.029,0,.048-.009.17-.032-.07.015c.73-.129,1.456-.265,2.181-.4l-.032.007c.909-.163,1.823-.315,2.726-.478,1.069-.183,2.134-.367,3.2-.529,2.023-.305,4.031-.651,6.074-.784-.768,2.019-1.564,4.027-2.371,6.031-.577,1.425-1.213,2.82-1.837,4.222-.259.565-.559,1.118-.836,1.672-.317.618-.629,1.24-.94,1.858-1.016,1.856-2.031,3.7-3.082,5.532q-1.6,2.783-3.227,5.553c-.877,1.5-1.8,2.979-2.673,4.481-.7,1.207-1.419,2.408-2.073,3.645a14.693,14.693,0,0,0-1.466,3.657,4.129,4.129,0,0,0,.194,2.944,3.4,3.4,0,0,0,1.078,1.213,4.139,4.139,0,0,0,1.254.465,15.479,15.479,0,0,0,2.214.2c1.038.062,2.071.129,3.108.2h-.052C129.235,149.36,129.527,149.389,129.818,149.429Zm-5.511-3.608-.112-.04v0l.055.011c-.018,0-.037,0-.055-.009Zm0-.022-.109-.028,0-.022c0-.057,0-.115,0-.172.02-.169.047-.334.076-.5.05-.219.107-.431.176-.643a21.263,21.263,0,0,1,.955-2.162c.278-.524.566-1.043.859-1.559-.019.054-.037.109-.055.163a5.3,5.3,0,0,0-.318,1.561,3.887,3.887,0,0,0,1,2.821,6.384,6.384,0,0,0,1,.8l-.274-.017c-1.007-.063-2.018-.124-3.025-.192C124.492,145.835,124.4,145.817,124.3,145.8Zm18.677-34.673q-.6,1.272-1.224,2.526-1.371,2.76-2.781,5.5c-.02.041-.041.082-.061.122v0c-.022.043-.044.086-.066.127.018-.036.038-.075.059-.114-.043.08-.084.159-.124.239h0c-.038.076-.077.152-.117.229.014-.029.028-.059.043-.088-.052.1-.1.2-.157.3l.014-.029c-.824,1.595-1.637,3.2-2.508,4.769-.566,1.018-1.125,2.037-1.69,3.056-.489.871-1.031,1.713-1.549,2.567-.93,1.543-1.949,3.039-2.979,4.523-.229.332-.461.664-.693,1q1.239-2.081,2.459-4.171c1.931-3.292,3.851-6.595,5.57-10,.424-.848.884-1.683,1.272-2.549l1.413-3.2c.419-.948.778-1.925,1.166-2.885.354-.889.695-1.79,1.043-2.685.312-.807.618-1.614.924-2.426L143,107.9c.266.067.53.141.791.227.123.047.243.1.36.151l.092.051C143.865,109.276,143.42,110.2,142.979,111.126Z"/><path d="M135.525,148.129l-.082-.018c-.057-.012-.114-.022-.172-.035Z"/></svg>