<svg xmlns="http://www.w3.org/2000/svg" width="439.73" height="434.633" viewBox="0 0 439.73 434.633"><polygon points="76.77 207.307 76.771 207.306 76.772 207.304 76.77 207.307"/><path d="M143.67,161.206h0l-.046-.026Z"/><path d="M98.382,179.364l.023-.03.014-.02Z"/><path d="M439.682,162.872c0-.607-.047-1.213-.077-1.82-.053-1.107-.106-2.208-.159-3.315-.029-.565-.023-1.142-.082-1.708-.083-.783-.154-1.56-.23-2.343-.1-1-.159-2.014-.312-3q-.266-1.749-.542-3.486c-.135-.9-.33-1.79-.547-2.668a27.313,27.313,0,0,0-1.1-3.592,18.691,18.691,0,0,0-4.192-6.547,11.705,11.705,0,0,0-3.309-2.32,14.626,14.626,0,0,0-3.545-1.131,29.473,29.473,0,0,0-4.328-.43c-1.266-.03-2.562-.059-3.828.03-1.071.076-2.143.129-3.215.194-.9.053-1.808.07-2.7.164q-.667.072-1.333.149c-1.143,0-2.287.059-3.43.14-1.084.082-2.167.224-3.245.342-.695.071-1.384.147-2.073.224-.263.026-.53.044-.79.086-1.16.151-2.319.344-3.473.52-1.189.177-2.379.336-3.563.53.065-.006.13-.018.195-.024-.536.065-1.066.177-1.6.271-4.387.789-8.774,1.578-13.149,2.438q-6.183,1.228-12.383,2.4c-3.845.724-7.7,1.4-11.553,2.1-1.708.312-3.421.583-5.129.877-2,.342-4.016.648-6.012,1.025l.022,0c-1.789.235-3.573.565-5.357.845-1.863.289-3.731.55-5.582.877l-.058.008-.066.01.017,0h0l.043,0h0l.046,0-.062.007-.026.005.026-.005-.056.007-.064.01.04-.008c-1.127.13-2.253.28-3.38.416a36.456,36.456,0,0,0-3.441-4.526c-.268-.3-.541-.593-.816-.885a23.879,23.879,0,0,0-3.329-3.926,36.339,36.339,0,0,0-7.627-5.387,30.325,30.325,0,0,0-5.075-7.462,42.568,42.568,0,0,0-14.491-10.022,47.732,47.732,0,0,0-17.872-3.557,48.664,48.664,0,0,0-9.021.7,53.274,53.274,0,0,0-5.188,1.221q.069-1.248.135-2.5c.077-1.419.036-2.85.047-4.269.018-2.556.024-5.105.048-7.661.011-1.5-.059-2.985-.112-4.481-.071-2.155-.106-4.316-.206-6.471v.271c0-1.178-.112-2.362-.183-3.534-.059-1.095-.088-2.2-.182-3.291q-.168-2.049-.33-4.1c-.083-1.013-.212-2.02-.324-3.027-.436-3.91-1.06-7.785-1.625-11.677q-.837-5.721-1.663-11.441-.156-3.342-.334-6.683c-.1-1.861-.158-3.733-.311-5.589-.212-2.484-.377-4.981-.684-7.454a35.714,35.714,0,0,0-1.719-7.967,11.387,11.387,0,0,0-.6-1.649,4.417,4.417,0,0,0-.83-1.072,3.174,3.174,0,0,0-2.446-.84c-.091-1.259-.15-2.521-.166-3.784a27.021,27.021,0,0,1,.146-3.036c.051-.365.111-.717.195-1.071.557-1.926,1.185-3.819,1.868-5.7a2.848,2.848,0,0,0,.3-1.708,1.917,1.917,0,0,0-3.6-.477c-.871,1.82-1.7,3.662-2.537,5.494q-4.867,10.608-9.781,21.18c-3.492,7.538-7.013,15.057-10.505,22.588-.324.7-.665,1.385-1.007,2.067q-1.6,3.172-3.192,6.342c-1.919,3.834-3.857,7.65-5.77,11.483-.618,1.237-1.246,2.471-1.869,3.706-.809-1.607-1.62-3.213-2.457-4.8-2.791-5.306-5.459-10.682-8.715-15.728a44.719,44.719,0,0,0-4.716-6.254c-.489-.525-1-1.038-1.54-1.524-.129-.29-.259-.582-.386-.873l.009.025c-.087-.214-.173-.427-.252-.643a1.65,1.65,0,0,0,.267-1.06,1.93,1.93,0,0,0-2.356-1.7,4.974,4.974,0,0,0-1.92.954c-.1.078-.208.155-.312.234a9.109,9.109,0,0,0-3.073-.475,7.338,7.338,0,0,0-3.3.848,10.9,10.9,0,0,0-4.587,5.488c-1.19,2.615-2.2,5.317-3.251,8-.671,1.711-1.376,3.41-2.044,5.126l-.051.125c-.908,2.181-1.821,4.362-2.713,6.548l-.005.012.009-.023c-.549,1.215-1.065,2.446-1.589,3.673-.331.6-.656,1.2-.967,1.8-1.084,2.1-2.151,4.206-3.223,6.307-.191-.246-.378-.493-.568-.738a1.817,1.817,0,0,0-3.192,1.071,1.745,1.745,0,0,0,.067.6q-1-.813-2-1.625a39.759,39.759,0,0,0-5.794-4.027,16.639,16.639,0,0,0-4.517-1.861,10.6,10.6,0,0,0-4.081-.2,10.36,10.36,0,0,0-2.432.73,12.1,12.1,0,0,0-1.9,1.125,14.037,14.037,0,0,0-1.643,1.443c-.513.5-1.007,1.024-1.472,1.566a57.286,57.286,0,0,0-3.545,4.787c-1.284,1.867-2.479,3.8-3.681,5.724-2.785,4.445-5.623,8.844-8.479,13.243-2.169,3.34-4.387,6.651-6.612,9.956l-.248.249c-.618.612-1.23,1.23-1.843,1.848-.391.392-.829.77-1.194,1.193-.408.393-.784.822-1.179,1.227-.989,1.025-1.978,2.062-2.968,3.092q-4.832,5.025-9.662,10.052-7.473,7.764-14.934,15.533-2.658,2.773-5.323,5.541c-.691.725-1.4,1.433-2.08,2.167a1.46,1.46,0,0,0-.114.119l.01-.013c-.713.713-1.378,1.49-2.061,2.232-1.726,1.867-3.451,3.722-5.176,5.588q-6.7,7.244-13.414,14.491-2.862,3.092-5.718,6.183c-.7.748-1.413,1.49-2.09,2.256q-5.5,6.227-11.006,12.448c-2.643,3-5.335,5.97-7.919,9.027q-3.287,3.885-6.578,7.76-.62.727-1.236,1.459l-.954.9c-.719.677-1.408,1.39-2.1,2.09-1.219,1.225-2.426,2.45-3.615,3.7-2.444,2.562-4.811,5.194-7.013,7.967q-1.881,2.36-3.7,4.758c-.919,1.213-1.837,2.426-2.762,3.627-.724.937-1.4,1.908-2.114,2.856l.136-.17a9.2,9.2,0,0,0-1.39,2.113,1.654,1.654,0,0,0,.554,2.068,1.647,1.647,0,0,0,2.125-.272c1.761-1.966,3.457-3.986,5.164-6.006q2.65-3.126,5.288-6.248,4.514-5.334,9.027-10.646,2.325-2.73,4.644-5.465c2.44-2.3,4.853-4.621,7.292-6.912,1.343-1.26,2.732-2.479,4.093-3.722q1.6-1.457,3.2-2.915c.465-.424.98-.826,1.409-1.288l.1-.1c-.03.03-.063.061-.095.091l0,0c.134-.13.264-.26.394-.39l-.063.065q1.079-1.053,2.147-2.107c-.02.017-.038.035-.057.052q.891-.873,1.78-1.748l-.056.052q4.258-4.172,8.5-8.35c-.021.02-.042.04-.064.059q.971-.945,1.943-1.9c-.02.017-.039.035-.058.053.689-.678,1.383-1.355,2.072-2.038-.047.053-.1.1-.148.147.142-.135.283-.276.419-.412l-.095.094-.006.006-.041.042.055-.054c.035-.031.069-.065.1-.1,1.061-1.029,2.069-2.121,3.094-3.179q3.373-3.471,6.748-6.931c3.321-3.41,6.648-6.807,9.957-10.228-.031.031-.065.062-.1.094.652-.629,1.25-1.318,1.876-1.979q3.586-3.8,7.178-7.607c.978-1.037,1.955-2.079,2.933-3.115.324-.336.653-.672.96-1.025q2.756-3.179,5.529-6.342c1.089-1.254,2.184-2.5,3.274-3.757.452-.519.937-1.023,1.357-1.566,2.063-2.549,4.063-5.155,6.086-7.737,1.125-1.437,2.261-2.862,3.327-4.346q2.783-3.86,5.564-7.714c.887-1.236,1.74-2.5,2.59-3.762q2.3-2.293,4.606-4.576l-.165.165c3.309-3.256,6.654-6.477,10.11-9.575,3.187-2.865,6.557-5.529,9.98-8.111a62.074,62.074,0,0,1,6.092-4.05l-.09.049.117-.065.083-.047-.044.026a32.2,32.2,0,0,1,3.073-1.462c.6-.231,1.2-.439,1.818-.616.455-.108.912-.2,1.378-.273.436-.05.868-.082,1.3-.094.385.005.762.024,1.144.066.315.051.63.114.941.189s.588.182.88.287c.339.15.666.314.991.49.293.175.572.36.845.556.289.229.561.472.836.714l-.342.714q-4.344,9.079-8.78,18.111v0c-.327.512-.623,1.044-.941,1.566-.671,1.119-1.336,2.238-2.008,3.351-.647,1.078-1.289,2.155-1.937,3.233-.291.481-.592.957-.869,1.448-1.4,2.333-2.825,4.65-4.248,6.972q-1.519,2.483-2.95,5.023c-.854,1.513-1.69,3.05-2.426,4.622a17.588,17.588,0,0,0-.907,2.273,10.716,10.716,0,0,0-.294,1.885,2.019,2.019,0,0,0,.895,1.819,1.992,1.992,0,0,0,1.119.332,2.539,2.539,0,0,0,.659-.09,2.863,2.863,0,0,0,1.4-.866,8.941,8.941,0,0,0,.588-.813c.271-.377.53-.759.783-1.148.489-.748.954-1.507,1.4-2.279.942-1.608,1.867-3.227,2.762-4.858q1.545-2.826,3.032-5.688c.913-1.755,1.778-3.539,2.668-5.317,1.485-2.977,2.918-5.98,4.373-8.976.123-.2.243-.4.355-.611,1.855-3.456,3.792-6.86,5.665-10.31.247-.459.459-.936.695-1.407.577-1.167,1.148-2.333,1.725-3.492.338-.685.676-1.367,1.012-2.052q2.183,2.319,4.347,4.658c2.185,2.349,4.334,4.734,6.595,7.013l-.036-.04c.388.4.779.791,1.167,1.188l-.054-.058,1.991,2.025-.028-.026c.266.27.533.537.8.809-.012-.013-.026-.026-.039-.038l.316.321-.147-.148c1.573,1.614,3.174,3.2,4.765,4.8.04.043.082.087.125.128.981,1.049,1.99,2.071,2.983,3.11.887.915,1.757,1.853,2.654,2.759q-.03-.031-.057-.063c.035.037.07.073.1.111l.031.031-.023-.023c.334.355.648.735.977,1.1.707.783,1.407,1.578,2.114,2.367.848.942,1.725,1.867,2.538,2.838q2.808,3.348,5.623,6.7,1.5,1.784,3,3.574c.7.836,1.384,1.69,2.1,2.508q1.281,1.449,2.55,2.91c.848.965,1.726,1.919,2.55,2.908.188.228.394.436.595.648-.667.58-1.33,1.165-1.969,1.776a57.26,57.26,0,0,0-6.077,6.736,84.507,84.507,0,0,0-5.068,7.434q-1.136,1.633-2.2,3.32c-.33.468-.651.944-.958,1.43-.671,1.058-1.3,2.148-1.907,3.248-.781-.274-1.555-.567-2.335-.834-1.1-.371-2.2-.73-3.3-1.095-.795-.271-1.607-.507-2.408-.754-1-.307-2-.648-3.015-.924-2.079-.572-4.122-1.279-6.212-1.814l.206.053c-2.214-.7-4.464-1.319-6.689-1.979-1.349-.406-2.7-.795-4.052-1.195-1.011-.3-2.012-.622-3.034-.884-.027-.006-.053-.014-.079-.021l-.03-.008.021,0-.087-.022c-.224-.058-.454-.116-.685-.178-.374-.1-.747-.2-1.121-.29l-.5-.133c-.9-.234-1.8-.471-2.7-.705q-.558-.148-1.114-.29l.136.036c-.146-.037-.291-.077-.436-.114l.135.036-.406-.106.2.054c-1.56-.413-3.168-.678-4.752-.99-1.013-.2-2.025-.406-3.038-.606-.383-.077-.76-.159-1.149-.206.065.006.136.018.2.023l-.407-.056q-.693-.261-1.383-.527-2.987-1.157-5.959-2.325-1.749-.7-3.5-1.385c-2.438-.965-5.047-1.931-7.714-1.784q-.609.035-1.2.12c-.5-.25-1-.483-1.517-.691a16.042,16.042,0,0,0-3.528-1.065,13.326,13.326,0,0,0-3.621-.166,14.106,14.106,0,0,0-3.521.807,19.615,19.615,0,0,0-5.865,3.569,40.358,40.358,0,0,0-4.893,5.14l-.038.047q-.371.27-.734.548c-.907.695-1.8,1.407-2.708,2.114-.672.524-1.308,1.095-1.955,1.654-.748.648-1.531,1.267-2.232,1.961l.141-.141c-1.336,1.313-2.667,2.626-4.01,3.927-.63.607-1.219,1.267-1.814,1.909-.7.765-1.4,1.531-2.078,2.319-1.325,1.543-2.6,3.139-3.81,4.77a90.578,90.578,0,0,0-6.524,10.216c-.7,1.279-1.4,2.55-2.1,3.828-.288.518-.582,1.031-.847,1.561q-2.862,5.616-5.677,11.252-5.529,11.076-11.123,22.123c-3.5,6.96-6.978,13.932-10.293,20.981q-5.9,12.551-11.789,25.114c-.518,1.107-1.018,2.22-1.56,3.309q-1.59,3.171-3.168,6.33c-1.69,3.386-3.368,6.777-5.141,10.122-1.943,3.669-3.9,7.326-5.823,11.006q-1.935,3.709-3.881,7.413c-.341.654-.689,1.307-1.024,1.973-.678,1.325-1.384,2.638-2.02,3.981q-.442.935-.842,1.878a18.168,18.168,0,0,0-.63,1.808,1.566,1.566,0,0,0,2.891,1.189c2.212-4.051,4.366-8.137,6.535-12.21q-.659,1.522-1.306,3.048c-.824,1.927-1.671,3.849-2.449,5.8-.652,1.584-1.283,3.174-1.92,4.758a2.011,2.011,0,0,0,1.26,2.532,1.927,1.927,0,0,0,.616.1,1.984,1.984,0,0,0,1.816-1.117c.235-.542.483-1.083.724-1.625,3.268-7.39,6.324-14.875,9.786-22.182q2.686-5.67,5.43-11.318c1.7-3.515,3.356-7.054,4.993-10.6,1.784-3.887,3.574-7.768,5.494-11.6,1.884-3.763,3.857-7.49,5.788-11.229q1.229-2.369,2.447-4.738,3.151-5.463,6.28-10.943c-.021.038-.043.074-.066.11.041-.069.08-.135.119-.205-.02.035-.041.068-.061.1l.1-.174,0,.007c.3-.5.589-1,.884-1.5q3.992-6.721,7.949-13.449c.5-.848,1.013-1.678,1.531-2.514,1.49-2.4,2.962-4.8,4.446-7.2q1.829-2.949,3.656-5.912c.595-.96,1.231-1.9,1.849-2.838,2.55-3.886,5.076-7.791,7.655-11.659-.041.053-.088.111-.129.165.512-.648.971-1.355,1.454-2.032q1.467-2.067,2.938-4.134,1.538-2.163,3.068-4.321c.462-.646.934-1.281,1.379-1.937,1.338-1.692,2.665-3.4,3.992-5.094,1.3-1.642,2.6-3.279,3.879-4.936,3.047-3.641,6.2-7.171,9.569-10.512a63.8,63.8,0,0,1,5.742-5.056c1.567.089,3.132.232,4.693.365,1.684.142,3.362.271,5.041.43l1.823.176c1.352.817,2.7,1.636,4.077,2.415l-.017-.01.143.08.321.189c-.07-.041-.141-.089-.212-.129l.62.362c-.044-.027-.088-.055-.131-.08.185.11.37.216.555.32-.04-.022-.081-.044-.119-.067.173.1.346.2.519.3l.494.284-.028-.015.417.241c-.045-.027-.087-.054-.13-.079l.553.323c.172.1.34.2.512.3l-.211-.124c.2.115.4.233.605.35,1.665.966,3.4,1.82,5.083,2.747,1.06.583,2.178,1.078,3.28,1.579,1.165.53,2.343,1.024,3.544,1.478a65.6,65.6,0,0,0,7.361,2.319c2.932.731,5.9,1.29,8.868,1.838,1.625.3,3.244.618,4.87.889,2.167.371,4.339.753,6.512,1.1l1,.16c1.7,1.11,3.437,2.16,5.117,3.291.637.427,1.267.859,1.9,1.289-.071.136-.15.269-.218.407a13.175,13.175,0,0,0-1.514,5.423q-.008.225-.012.45-.5,1.124-.936,2.276a46.248,46.248,0,0,0-2.437,8.915,48.066,48.066,0,0,0-.613,8.326c.009.844.05,1.691.11,2.538q-.638.045-1.273.121a46.214,46.214,0,0,0-5.406-.967,47.329,47.329,0,0,0-8.373-.241,38.843,38.843,0,0,0-8.274,1.325,27.1,27.1,0,0,0-7.366,3.314,41.985,41.985,0,0,0-6.607,5.371,43.951,43.951,0,0,0-5.47,6.312,48.127,48.127,0,0,0-4.157,7.567c-.619,1.389-1.208,2.791-1.79,4.193a40.258,40.258,0,0,0-1.508,4,15.685,15.685,0,0,0-.73,4.3,19.274,19.274,0,0,0,.265,3.357,55.868,55.868,0,0,0-.937,7.955,36.086,36.086,0,0,0,.431,8.279,21.753,21.753,0,0,0,2.679,7.178,22.512,22.512,0,0,0,5.04,6.047,13.352,13.352,0,0,0,3.18,2.026,14.519,14.519,0,0,0,3.268.966,22.8,22.8,0,0,0,3.516.266,28.015,28.015,0,0,0,4.2-.331,31.44,31.44,0,0,0,7.537-2.026q1.032-.435,2.029-.943c1.525.228,3.056.392,4.578.513,5.794.465,11.7.1,17.141-2.1a34.479,34.479,0,0,0,7.466-4.192A46.233,46.233,0,0,0,201.347,263a29.248,29.248,0,0,0,4.875-6.718,28.075,28.075,0,0,0,2.88-8.179,15.214,15.214,0,0,0,.212-4.069,17.007,17.007,0,0,0-.554-2.857,22.413,22.413,0,0,0,1.455-6.129,23.694,23.694,0,0,0,.018-3.027c.468-.014.936-.044,1.405-.1.366.2.734.4,1.107.586a35.432,35.432,0,0,0,7.678,2.92,32.639,32.639,0,0,0,7.7.864,57.2,57.2,0,0,0,10.691-1.152c3.216-.619,6.4-1.39,9.575-2.191,2.718-.692,5.424-1.413,8.1-2.236.714.436,1.427.87,2.139,1.311q.606.7,1.187,1.415c.771.954,1.537,1.908,2.308,2.862,1.119,1.384,2.208,2.8,3.3,4.2,2.128,2.725,4.37,5.363,6.491,8.094q.959,2.884,1.744,5.822c.013.041.023.079.032.117l.006.025.024.086-.02-.071q1.011,4.061,2.033,8.121c.159.648.283,1.3.419,1.949.335,1.631.665,3.262,1,4.893.212,1.025.419,2.055.631,3.086.176.848.265,1.719.394,2.579.389,2.572.75,5.156,1.177,7.723q.549,5.173,1.119,10.343c.454,4.193.766,8.4,1.155,12.6.418,4.469.812,8.945,1.225,13.42.871,9.439,1.748,18.878,2.419,28.329.3,4.285.616,8.566.9,12.85-.011.294-.021.588-.032.882-.082,2.29-.118,4.593-.247,6.884-.265,4.574-.412,9.156-.713,13.725-.312,4.77-.6,9.546-.96,14.309q-.255,3.507-.523,7.019-.177,2.332-.36,4.664c-.065.924-.159,1.854-.224,2.785-.058.73-.106,1.466-.1,2.2,0,.754.059,1.508.095,2.261a1.8,1.8,0,0,0,3.291.884,16.451,16.451,0,0,0,.884-1.567,11.649,11.649,0,0,0,.612-1.931c.113-.468.211-.938.3-1.409q.009.642.022,1.284c-.006,3.237-.109,6.469-.235,9.7-.065,1.626-.159,3.251-.247,4.876-.035.654-.088,1.3-.13,1.949-.035.524-.076,1.043-.111,1.561-.042.612,0,1.236.006,1.855a2.406,2.406,0,0,0,2.411,2.236c.047,0,.1,0,.144,0a2.407,2.407,0,0,0,2.232-2.243c.059-1.449.194-2.892.312-4.34.088-1.06.129-2.126.194-3.191.118-2.085.159-4.181.265-6.266.053-1.048.024-2.114.035-3.162.006-1.089.054-2.178.03-3.262-.047-2.2-.053-4.4-.1-6.595v.312c0-.453-.012-.907-.024-1.36-.064-2.35-.112-4.693-.194-7.043-.077-2.438-.13-4.881-.241-7.319-.142-2.862-.259-5.724-.395-8.579-.077-1.616-.175-3.228-.269-4.839q.165-2.4.328-4.8c.1-1.466.171-2.938.23-4.411q.212-4.927.423-9.851c.206-4.716.171-9.445.236-14.167.024-1.6-.012-3.192-.059-4.793-.1-3.133-.188-6.26-.288-9.387-.059-1.878-.289-3.745-.448-5.611-.147-1.684-.294-3.362-.442-5.046-.07-.8-.112-1.6-.218-2.391.012.07.018.141.03.206-.5-3.789-1.039-7.57-1.585-11.353-.007-.05-.015-.1-.022-.152h0c-.051-.338-.117-.675-.176-1.013q-1.37-7.817-2.785-15.622c-.843-4.593-1.62-9.2-2.427-13.8-.152-.878-.323-1.755-.506-2.627-.259-1.236-.465-2.485-.771-3.71-.607-2.425-1.231-4.84-1.92-7.242a44.4,44.4,0,0,0-4.045-10.5q-.256-.433-.525-.857-.352-.956-.735-1.9c-.415-1.006-.847-2.011-1.313-3a57.511,57.511,0,0,0-2.521-6.068,32.959,32.959,0,0,0-3.8-6.23,22.839,22.839,0,0,0-4.586-4.291q6.249-2.353,12.285-5.232a173.842,173.842,0,0,0,17.135-9.4c3.636-2.273,7.182-4.7,10.587-7.313,1.856.173,3.716.324,5.571.525,1.3.141,2.6.288,3.9.429.765.083,1.537.2,2.308.248,1.26.082,2.514.183,3.775.271.8.058,1.613.153,2.414.171,1.213.023,2.426.029,3.639.046.671.006,1.348.018,2.02.024.3.006.612.03.907.006,1.453-.1,2.908-.142,4.363-.19-.549,1.953-1.12,3.9-1.677,5.853-.631,2.2-1.243,4.411-1.885,6.607-1.324,4.493-2.626,8.986-3.968,13.473-.642,2.132-1.213,4.281-1.82,6.424q-.627,2.217-1.254,4.428c-.173.615-.36,1.223-.52,1.836l.008-.034c0,.02-.009.039-.014.058l-.045.175.015-.056c-.006.026-.012.051-.019.074l.011-.04c-.085.317-.169.631-.255.949.018-.065.036-.128.053-.194q-1.385,5.2-2.763,10.421c-.029.109-.057.218-.086.327l.011-.049c-1.184,4.482-2.314,8.98-3.433,13.479q-1.722,6.969-3.439,13.932c-1.1,4.481-2.226,8.956-3.268,13.449s-2.02,9-3.05,13.5c-.465,2.043-.913,4.1-1.26,6.16-.377,2.225-.713,4.451-1.078,6.671q-.574,3.5-1.177,6.984c-.36,2.1-.736,4.216-1,6.33-.276,2.22-.5,4.44-.636,6.672-.07,1.148-.141,2.29-.147,3.432q-.016,1.821.011,3.639c0-.077,0-.153,0-.229,0,.983.018,1.972.029,2.956v-.318c0,2.532.06,5.058.071,7.584v-.312c0,.3.006.6.006.9v.312c-.012,1.472-.035,2.939-.129,4.4s-.248,2.927-.43,4.394l.006-.039-.006.056a2.373,2.373,0,0,0,.323,1.667,2.272,2.272,0,0,0,1.461.977,2.212,2.212,0,0,0,.419.041,2.276,2.276,0,0,0,2.225-1.825,53.687,53.687,0,0,0,.848-6.342c.123-2.008.129-4.022.117-6.03v-1.184c0-.706,0-1.413-.011-2.125v.224c0-.889-.006-1.779-.012-2.668v.312c0-.983-.006-1.967-.012-2.956v-.336c0-.3,0-.6-.006-.9v-.89a92.648,92.648,0,0,1,.8-11.022c.007-.042.012-.082.021-.124.689-4.593,1.46-9.18,2.173-13.767.335-2.161.647-4.328.977-6.489.312-2.014.759-4.022,1.178-6.018q1.457-7.041,3.015-14.062c.983-4.446,2.06-8.874,3.1-13.314q3.017-12.848,6.241-25.648l0-.006,0-.019-.016.061c1.05-3.957,2.05-7.929,3.071-11.891a.082.082,0,0,0,.007-.029l.018-.062v0c1.2-4.225,2.313-8.478,3.526-12.7,1.278-4.469,2.585-8.938,3.886-13.408.618-2.114,1.209-4.235,1.8-6.358-.05.334-.1.666-.148,1-.235,1.6-.471,3.2-.706,4.8-.112.774-.248,1.548-.343,2.326v-.012c-.012.08-.021.164-.029.248l.009-.073,0,.035-.006.05-.011.105c0-.032.006-.064.009-.1-.023.178-.045.354-.068.527l.035-.247c-.424,3.333-.836,6.671-1.26,10l.008-.054c-.023.173-.044.347-.065.519,0-.03.006-.059.01-.088-.1.66-.159,1.325-.241,1.985l0,.039c-.079.365-.157.731-.237,1.1-.117.536-.212,1.083-.347,1.614-.489,1.954-.936,3.927-1.4,5.888-2.214,9.233-4.351,18.484-6.506,27.734-.4,1.725-.742,3.463-1.113,5.194q-.981,4.584-1.967,9.162c-.907,4.246-1.666,8.521-2.479,12.784-.824,4.305-1.59,8.621-2.367,12.937-.819,4.581-1.672,9.156-2.52,13.732q-1.122,6.033-2.35,12.054-.475,2.331-.948,4.659c-.195.9-.383,1.81-.577,2.712-.471,2.191-.936,4.382-1.372,6.578a2.1,2.1,0,0,0,4.128.8c.736-3.592,1.46-7.19,2.291-10.764q.643-2.773,1.3-5.541c.341-1.466.718-2.933,1.03-4.4l-.053.192c.192-.708.347-1.427.524-2.135.359-1.508.725-3.009,1.084-4.511.518-2.155,1.066-4.3,1.554-6.453l-.015.056c.2-.731.343-1.479.516-2.217.377-1.608.748-3.221,1.125-4.829,1.955-8.349,3.868-16.711,5.67-25.1q.981-4.521,1.949-9.05c.353-1.648.736-3.3,1.06-4.958q.759-3.851,1.531-7.7c.289-1.455.577-2.915.866-4.369.129-.66.288-1.314.371-1.979-.012.083-.018.171-.03.253q.477-3.144.96-6.289c.33-2.155.636-4.322,1-6.476.1-.607.147-1.225.224-1.838.165-1.4.336-2.791.5-4.186.248-2.055.525-4.11.748-6.166l0,.04c.021-.169.04-.34.061-.512-.007.06-.012.12-.02.178q.26-2.052.514-4.1.575-2.745,1.158-5.489c.812-3.815,1.484-7.666,2.061-11.529.3-1.985.559-3.979.794-5.975.809-.064,1.619-.126,2.426-.195q4.645-.379,9.292-.795c4.022-.359,8.044-.754,12.06-1.148,1-.1,2.007-.177,3.014-.265.943-.083,1.891-.195,2.833-.253q.621-.035,1.242-.073c.456.155.908.317,1.357.491l-.032-.012a24.036,24.036,0,0,1,2.848,1.392,40.755,40.755,0,0,1,4.242,2.919l0,0,.9.7-.017-.012a18.68,18.68,0,0,1,1.627,1.405,20.862,20.862,0,0,1,1.614,1.876c.478.665.912,1.359,1.32,2.064l-.074-.134.089.16,0,.006a42.166,42.166,0,0,1,2.049,4.272l-.01-.028.023.059.059.141c-.01-.022-.02-.043-.029-.066a59.327,59.327,0,0,1,2.2,6.653q.238.927.45,1.86,0,1.53.007,3.058c0-.041,0-.082-.006-.122.006,2.261.024,4.516.036,6.777v.843c0,1.707.058,3.414.088,5.122.035,1.808.053,3.61.1,5.418v-.23c0,2,.118,4,.177,5.989.058,2.107.088,4.216.188,6.312v-.23c0,2.049.059,4.1.089,6.148.034,2.029.062,4.064.1,6.1,0,.016,0,.032,0,.047q-.1,3.6-.183,7.207c-.041,1.649-.035,3.3-.135,4.952-.283,4.5-.56,9-.895,13.5q-.33,4.453-.688,8.9-.066.613-.135,1.229l-.008.067q-.923,6.993-1.823,13.992l0-.038-.006.049v0c-.742,4.469-1.4,8.956-2.1,13.431-.23,1.455-.5,2.9-.748,4.346q-.7,4.036-1.4,8.061c-.641,3.7-1.319,7.4-1.937,11.094-.377,2.285-.736,4.564-1.107,6.848-.318,1.961-.577,3.934-.854,5.9-.253,1.808-.471,3.628-.642,5.441-.094,1.025-.2,2.05-.276,3.074-.053.654-.106,1.308-.153,1.961-.036.512-.089,1.025-.1,1.543-.024.659,0,1.313.029,1.973a2.047,2.047,0,0,0,1.136,1.7,2.005,2.005,0,0,0,.884.2,2.13,2.13,0,0,0,1.136-.332,4.742,4.742,0,0,0,.766-.56,3.766,3.766,0,0,0,.512-.636,6.193,6.193,0,0,0,.706-1.513c.36-1.136.5-2.309.79-3.457.211-.848.4-1.708.594-2.555.336-1.449.666-2.892,1-4.334.153-.66.33-1.313.46-1.973.412-2.184.812-4.369,1.224-6.553q.345-1.837.689-3.675c.065-.371.136-.73.183-1.1q.495-3.807,1-7.608c.177-1.319.353-2.644.524-3.963.077-.571.177-1.142.224-1.719q.584-6.926,1.2-13.85c.106-1.178.171-2.355.253-3.539q.309-4.416.613-8.826.343-5.07.73-10.134.255-3.318.507-6.634.336-3.469.665-6.933c.135-1.443.259-2.886.412-4.323.118-1.059.153-2.137.224-3.2q.309-4.391.612-8.773c.088-1.243.189-2.485.247-3.734.224-4.74.471-9.486.684-14.227.07-1.589.041-3.191.058-4.781.024-2.779.059-5.564.089-8.349.011-.86.011-1.708-.012-2.568-.089-3.05-.212-6.1-.489-9.139a94.743,94.743,0,0,0-1.6-11.04c.006-2.3.013-4.6-.027-6.9-.012-.877-.024-1.754-.041-2.632-.018-.618-.083-1.237-.124-1.855a65.443,65.443,0,0,0-.848-7.814,12.76,12.76,0,0,0-1.272-3.9,9.045,9.045,0,0,0-2.373-2.8,14.4,14.4,0,0,0-7.755-2.532,73.564,73.564,0,0,0-10.381.112q-.579.03-1.157.066l-.368-.089a32.159,32.159,0,0,0-7.273-.9c-1.3,0-2.6-.017-3.9-.029-.825-.012-1.649.035-2.474.059-1.166.041-2.331.07-3.5.124h.194c-1.366,0-2.732.094-4.1.135-1.419.047-2.843.088-4.263.153h.183c-1,0-2.009.023-3.013.052,0-.076.012-.152.015-.228.089-.5.177-1,.267-1.5.441-2.45.865-4.905,1.3-7.361.182-1.072.347-2.143.512-3.215.153-.942.312-1.9.377-2.85a12.237,12.237,0,0,0-.271-4.034,10.383,10.383,0,0,0-.969-2.337,44.27,44.27,0,0,0,.162-7.178,9.31,9.31,0,0,0-.683-3.433,3.4,3.4,0,0,0-1.943-1.931,5.1,5.1,0,0,0-1.572-.225,9.487,9.487,0,0,0-1.855.331c-.924.229-1.831.506-2.738.783-.537.162-1.074.327-1.61.49.339-1.322.631-2.655.844-4a31.1,31.1,0,0,0,.359-8.65,22.6,22.6,0,0,0-1.86-6.595q1.509-.258,3.017-.517c7.938-1.371,15.887-2.7,23.854-3.921,1.6-.241,3.192-.5,4.788-.748,1.978-.312,3.968-.589,5.941-.942q3.56-.645,7.119-1.295c1.955-.365,3.9-.778,5.847-1.167,3.575-.7,7.149-1.436,10.729-2.108,1.925-.365,3.845-.771,5.777-1.077l3.915-.636c.882-.139,1.763-.262,2.639-.423,1.065-.121,2.131-.238,3.191-.36.759-.088,1.519-.171,2.279-.259.306-.036.618-.088.93-.106q.755-.039,1.509-.084c.516.075,1.026.166,1.535.285a19.818,19.818,0,0,1,1.935.639,14.917,14.917,0,0,1,1.531.746c.373.232.734.477,1.085.742a16.945,16.945,0,0,1,1.394,1.238,19.181,19.181,0,0,1,1.275,1.47,22.527,22.527,0,0,1,1.275,1.957,35.089,35.089,0,0,1,1.751,3.741l-.011-.032a44.528,44.528,0,0,1,1.589,4.893,89.777,89.777,0,0,1,2.032,10.579l-.035-.23c.412,3.138.741,6.289.959,9.445.224,3.191.36,6.389.472,9.586v-.241c0,2.526.041,5.052.064,7.573.024,2.555,0,5.116.065,7.672,0,2.039-.066,4.079-.1,6.124-.053,2.88-.094,5.765-.141,8.65-.059,3.987-.171,7.973-.265,11.965q-.124,5.238-.3,10.464c-.123,3.834-.218,7.667-.406,11.494-.2,4.152-.383,8.3-.6,12.454-.218,4.293-.436,8.586-.63,12.878-.088,1.962-.182,3.922-.253,5.889-.047,1.3-.094,2.608-.147,3.91-.036.936-.094,1.873-.118,2.809-.047,1.4.03,2.773.118,4.168a2.24,2.24,0,0,0,1.519,1.968,2.274,2.274,0,0,0,.716.114,2.1,2.1,0,0,0,1.663-.745c.306-.394.624-.771.913-1.171a6,6,0,0,0,.653-1.384,18.732,18.732,0,0,0,.777-2.773c.407-1.991.8-3.987,1.108-6,.365-2.344.677-4.7.859-7.072q.309-4.1.613-8.208c.094-1.2.182-2.4.229-3.616.177-4.652.4-9.31.53-13.968.118-4.3.307-8.6.465-12.9.118-3.18.236-6.354.389-9.534q.636-13.477,1.237-26.963c.176-3.933.3-7.866.441-11.8.053-1.513.083-3.021.112-4.528q.045-2.147.094-4.287c.012-.644.038-1.288.035-1.926,0-2.638-.023-5.276-.046-7.913ZM100.189,136.5c-.611.71-1.221,1.408-1.837,2.112q-3.4,3.914-6.8,7.831c-.93,1.078-1.872,2.126-2.85,3.163q-3.505,3.719-7.013,7.443c-1.455,1.548-2.951,3.062-4.372,4.646-1.059,1.027-2.06,2.117-3.088,3.174q-3.375,3.46-6.749,6.93c-3.3,3.384-6.6,6.757-9.884,10.153l-.013.014-.017.016,0,0-.013.013-.01.01-.006.006-.025.025c-.023.023-.046.046-.069.071l.037-.04-.337.334.142-.141q-4.559,4.473-9.128,8.943,2.127-2.4,4.246-4.8c2.067-2.343,4.246-4.593,6.365-6.889q7.287-7.88,14.592-15.734,2.915-3.144,5.835-6.289c.56-.606,1.125-1.213,1.685-1.819.16-.173.326-.343.483-.522.417-.4.807-.841,1.207-1.257.995-1.024,1.984-2.061,2.973-3.085q4.841-5.025,9.675-10.046L104,131.629C102.734,133.251,101.43,134.852,100.189,136.5Zm55.157-53.4a29.17,29.17,0,0,0-8.9,4.192c-2.856,1.89-5.553,3.987-8.226,6.124-2.773,2.209-5.441,4.522-8.038,6.931l-.719.67q2.262-3.441,4.5-6.894c1.16-1.8,2.29-3.61,3.456-5.406,1.522-2.343,3.032-4.7,4.725-6.934a29.915,29.915,0,0,1,2.439-2.764c.393-.379.792-.744,1.218-1.083.295-.211.595-.409.905-.6.136-.075.275-.144.417-.209.351-.14.707-.263,1.068-.376.181-.046.362-.085.546-.115.3-.033.6-.052.908-.061.327.012.647.033.973.066.411.062.814.14,1.216.238.439.132.861.285,1.283.45.815.36,1.6.768,2.375,1.2a45,45,0,0,1,4.466,3.113q1,.826,2,1.639A12.145,12.145,0,0,0,155.346,83.1ZM89.915,184.3l.028-.047.037-.061-.013.021L90,184.15l.028-.047-.066.112c-.023.039-.045.079-.069.118.011-.021.023-.041.035-.062-.714,1.19-1.362,2.421-2.043,3.63q-1.14,2.014-2.279,4.034c-1.436,2.551-2.9,5.086-4.344,7.631l.028-.046-.072.124c-.021.037-.042.074-.064.111l.018-.032.021-.036.009-.016-.008.013.034-.061.012-.02,0-.008,0-.008.017-.032-.032.057c-.034.058-.07.116-.1.179v0c-1.4,2.407-2.8,4.814-4.194,7.226.019-.036.038-.071.058-.106l-.221.379.016-.031-.062.111-.014.024.005-.008,0,0,0-.006.021-.036.009-.015.007-.011,0-.006.053-.092-.035.063-.013.022,0,0h0v0c-.027.049-.054.1-.083.149l.03-.056.038-.067-.023.04.011-.021-.042.073-.061.108c.012-.023.025-.047.039-.07q-2.094,3.575-4.175,7.151c-.023.038-.046.077-.068.118l-.012.02.007-.011-.013.023.028-.049.011-.017c-.021.036-.042.071-.062.107l.084-.145c-1.223,2.1-2.457,4.189-3.665,6.3-.081.133-.158.275-.235.41l0,0,.028-.048-.009.016.028-.047,0-.005c-.11.189-.22.378-.33.571l-.088.149c.016-.026.031-.053.047-.078-.182.312-.359.618-.542.93l.048-.079c-.1.18-.208.357-.313.538.031-.053.062-.1.092-.156l-.165.283-.017.031c-.021.035-.04.069-.061.1-.071.123-.144.247-.214.367.047-.076.094-.159.142-.241-.107.188-.218.377-.324.559l.027-.046c-.087.151-.176.3-.262.45.035-.06.07-.118.1-.179-.106.182-.206.359-.312.541l.141-.247c-.176.306-.353.612-.53.913l.039-.064-.286.493c.047-.082.094-.159.141-.241-.038.068-.078.137-.117.206l.023-.041c-.077.132-.151.257-.224.386-.029.049-.057.1-.082.144l.035-.06-.015.025c-.91,1.558-1.791,3.125-2.687,4.686l.031-.051c-.9,1.553-1.734,3.148-2.617,4.715-.918,1.637-1.76,3.327-2.638,4.988-1.592,3.03-3.143,6.091-4.712,9.14,3.015-6.442,6.077-12.857,9.264-19.215,3.739-7.449,7.508-14.88,11.235-22.329,1.973-3.94,3.934-7.879,5.93-11.8.83-1.626,1.625-3.269,2.508-4.87q1.657-3,3.312-5.988a97.348,97.348,0,0,1,6.238-9.3l-.04.056a92.814,92.814,0,0,1,6.551-7.52q1.31-1.27,2.612-2.545-.706,1.089-1.408,2.175c-.382.589-.783,1.166-1.13,1.772.041-.077.088-.153.129-.229-.73,1.171-1.425,2.367-2.137,3.55-.647,1.071-1.311,2.137-1.937,3.224-.669,1.116-1.293,2.264-1.944,3.4C91.4,181.7,90.657,183,89.915,184.3Zm27.881-27.44c-2.084,1.949-4.086,4-6.018,6.1-1.03,1.125-2.043,2.262-3.038,3.422-.459.53-.919,1.065-1.372,1.6-.313.372-.641.739-.94,1.123l.015-.022c-1.366,1.726-2.714,3.468-4.074,5.2-1.3,1.644-2.6,3.288-3.88,4.943l.023-.027-.059.074-.048.062c-.474.614-.907,1.274-1.36,1.908l-2.932,4.134-1.278,1.8q.285-.512.573-1.022c.7-1.163,1.342-2.362,2.006-3.539.691-1.217,1.387-2.423,2.067-3.639.713-1.153,1.387-2.323,2.079-3.486.659-1.107,1.342-2.2,1.978-3.321-.041.076-.088.153-.129.23,2.555-4.034,5.123-8.086,8.043-11.871-.053.07-.111.135-.164.205.854-1.1,1.728-2.171,2.648-3.205.556-.295,1.12-.569,1.7-.817a18.159,18.159,0,0,1,1.873-.606h0q1.041-.258,2.105-.412H117.6c.548-.065,1.1-.111,1.646-.141Q118.51,156.194,117.8,156.858Zm6.519-5.223q-.639.407-1.255.846-.748-.022-1.5-.022a33.889,33.889,0,0,0-4.056.213q.14-.085.279-.168c.472-.258.949-.492,1.442-.7.453-.174.911-.323,1.38-.456.384-.093.768-.169,1.16-.232.364-.044.726-.07,1.09-.083a14.485,14.485,0,0,1,1.613.111c.169.028.338.059.5.091C124.755,151.363,124.533,151.5,124.315,151.635Zm4.392,1.22c.112-.042.222-.084.334-.124l.352.181Zm203.6,81.459c.007-.051.013-.1.018-.158.012-.081.023-.162.035-.248C332.339,234.044,332.322,234.179,332.3,234.314ZM382.336,204.4c.6.082,1.191.189,1.778.329.455.13.9.273,1.344.435.255.108.506.225.752.353.27.161.529.335.784.523.214.178.416.364.614.558.08.087.158.177.233.269.132.184.253.37.37.565.132.257.255.518.374.784a13.249,13.249,0,0,1,.43,1.289c.251,1.09.432,2.191.586,3.3.154,1.244.259,2.483.351,3.733-.309-.668-.636-1.328-.985-1.975a21.44,21.44,0,0,0-4.769-6.289c-1.09-.924-2.244-1.785-3.392-2.626q-1.072-.786-2.189-1.479C379.859,204.186,381.1,204.26,382.336,204.4ZM338.41,181.9q-.125.959-.279,1.913a10.435,10.435,0,0,0-4.355-3.435,26.29,26.29,0,0,0-5.7-1.545c.544-1.045,1.048-2.11,1.52-3.19.6.1,1.189.222,1.78.371a27.027,27.027,0,0,1,2.617.886,21.617,21.617,0,0,1,2.213,1.09c.386.242.763.5,1.131.769.336.269.654.553.962.851.114.124.224.25.333.378C338.564,180.624,338.488,181.261,338.41,181.9Zm-90.278,36.733c-.4-.257-.8-.515-1.2-.766.842-.121,1.684-.252,2.524-.4q2.111-.378,4.2-.849Q250.912,217.679,248.132,218.631Zm-19.7,3.736q-.2.109-.394.218-.418.007-.836.011a64.166,64.166,0,0,1-7.6-.471l.248.035c-.094-.011-.187-.025-.28-.037q1.432-.459,2.847-.963l.109-.04a23.153,23.153,0,0,0,4.33-.664c1.186-.123,2.366-.283,3.534-.5l.17-.032q.849.068,1.7.082-1.893,1.246-3.862,2.376Zm39.591-90.123.079.034.2.078-.121-.046q.868.368,1.715.775-1.371-.16-2.754-.24c-1.395-.082-2.8-.111-4.209-.089a1.372,1.372,0,0,0,.517-1.572c.68.044,1.359.1,2.036.172.871.27,1.729.572,2.581.907Zm12.937,18.561-.155-.047.465-.192q.726-.291,1.455-.571c.09.735.15,1.467.172,2.206a17.575,17.575,0,0,1-.1,1.92q-.06.446-.139.886l-.552.259.257-.363A2.74,2.74,0,0,0,280.962,150.805Zm9.463,13.3q.253-.528.5-1.067c.934-1.039,1.83-2.113,2.678-3.232l.092-.123q-.132.373-.257.747-.821,2.462-1.794,4.87a67.417,67.417,0,0,1-3.123,6.427c-2.933,2.436-5.96,4.763-9,7.054-.183.137-.368.276-.553.413l.169-.168C283.576,174.6,287.693,169.789,290.425,164.107ZM287.1,148.978q.3.069.6.142.72.192,1.434.4c.013.076.026.154.038.231.047.412.076.821.087,1.234,0,.47-.03.936-.071,1.4-.182.059-.365.119-.547.18q-.654.222-1.3.462c.008-.211.013-.422.013-.632A23.428,23.428,0,0,0,287.1,148.978Zm.516,9.533c-.1.268-.207.535-.313.8q-.438,1.06-.923,2.1-.582.609-1.183,1.2l.034-.032q-.284.278-.569.552.432-.96.811-1.94.4-1.029.74-2.084Q286.91,158.8,287.615,158.511Zm2.449-26.937q.4.136.8.28l-.292.008-.226-.13Zm10.858-1.233c1.762.468,3.509.98,5.235,1.556.28.413.545.837.8,1.268.165.3.324.6.476.909a45.574,45.574,0,0,0-5.953-1.433,42.811,42.811,0,0,0-3.659-2.24q-1.472-.8-3.008-1.469C296.86,129.341,298.9,129.819,300.922,130.341Zm.632,37.934c.181-.311.361-.624.537-.94.467-.609.917-1.23,1.344-1.868q-.219.679-.477,1.348c-.227.522-.473,1.033-.753,1.535-.458.741-.956,1.456-1.483,2.152-.825,1.032-1.7,2.008-2.625,2.951A51.355,51.355,0,0,0,301.554,168.275Zm-3.181-5.832c.162-.47.324-.94.49-1.41.457-1.294.993-2.562,1.339-3.893q.457.216.9.45c-.006.062-.013.125-.02.188-.089.607-.205,1.2-.35,1.8-.011.04-.023.081-.034.12Q299.577,161.1,298.373,162.443Zm14.806-15.014-.009-.011,0-.014C313.171,147.412,313.175,147.421,313.179,147.429Zm11.3,27.784c.255,0,.508.018.762.025-.5,1.054-1.025,2.094-1.593,3.116a35.193,35.193,0,0,0-3.774,0q1.155-1.491,2.224-3.043C322.886,175.26,323.68,175.22,324.475,175.213ZM249.2,159.576q1.1,1.13,2.108,2.334l-.056.041c-1.773,1.332-3.522,2.7-5.254,4.1-1.413-.655-2.849-1.276-4.305-1.849q.573-.582,1.154-1.156c1.656-1.609,3.359-3.16,5.1-4.674Q248.58,158.959,249.2,159.576Zm-3.267,19.69q1.686-2.719,3.636-5.256.5-.636,1.009-1.26l.328-.289q.9.585,1.749,1.228l.167.131c-1.933,1.485-3.861,2.979-5.751,4.513Q246.5,178.8,245.93,179.266ZM247.3,142.1c-1.413.7-2.789,1.468-4.139,2.278q-.35-.168-.7-.325l.6-.341a58.638,58.638,0,0,1,6-2.93,39.964,39.964,0,0,1,4.37-1.468c-.067.017-.136.034-.2.048l.31-.077h0l.221-.053q.783.029,1.566.085A30.109,30.109,0,0,0,247.3,142.1Zm1.15-7.727a5.23,5.23,0,0,0,1.213.2,2.077,2.077,0,0,0,2.171-1.954c1.016-.336,2.043-.64,3.079-.924.031.612.065,1.224.1,1.836a38.748,38.748,0,0,0-5.533,1.422,37,37,0,0,0-4.926.67c1.091-.548,2.2-1.05,3.328-1.526A2.423,2.423,0,0,0,248.448,134.368Zm7.145,17.605.22-.031a50.025,50.025,0,0,1,5.692-.406c.181,0,.362,0,.543.007q.037.165.069.333c0,.035.006.07.008.1l0,.027,0,.008c-.017.035-.034.07-.052.1-.069.11-.141.215-.216.32-.2.246-.418.483-.641.715-.766.729-1.583,1.4-2.351,2.125-.64.6-1.249,1.226-1.861,1.852a42.176,42.176,0,0,0-2.96-3.884Q254.813,152.609,255.593,151.973Zm5.433-19.148c.01-.11.021-.219.03-.328a1.222,1.222,0,0,0,.369.311C261.292,132.814,261.159,132.818,261.026,132.825Zm-5.979,35.939.44-.4q.228.489.437.991.318.81.59,1.635-.5.378-.994.759c-.156-.129-.313-.257-.473-.382q-.725-.565-1.476-1.091a1.343,1.343,0,0,0-.016-.169Q254.3,169.437,255.047,168.764Zm9.5,25.762.072-.041-.077.045-.009.006-.2.114q-1.824.963-3.665,1.887.243-.42.475-.846,1.167-.645,2.324-1.312,3.624-2.09,7.139-4.358-1.031.795-2.07,1.579l.1-.078Q266.61,193.046,264.551,194.526Zm11.162-52.089c-.42,0-.84,0-1.26.008q-.514-.458-1.048-.892c2.073-.228,4.153-.37,6.239-.412.1.168.2.336.305.506.167.305.329.612.483.922C278.862,142.474,277.288,142.437,275.713,142.437Zm-2.094,5.468c.085.1.17.2.253.3l-.574.281q-.52-.3-1.062-.554Q272.928,147.914,273.619,147.905Zm-.95,7.212.042.041c.441.46.853.941,1.247,1.441q.178.25.346.507-.4.564-.813,1.116c-.762.963-1.578,1.88-2.425,2.77-3.231,1.886-6.336,3.969-9.37,6.151q-.171-.629-.372-1.246-.375-1.155-.837-2.276c.81-.813,1.611-1.632,2.423-2.441.452-.44.915-.874,1.379-1.308q2.234-1.593,4.565-3.038c.887-.485,1.789-.934,2.718-1.328C271.935,155.368,272.3,155.237,272.669,155.117ZM254.21,117.938q.111,2.19.222,4.381-3.469,1.175-6.846,2.6c-.237-.328-.47-.659-.716-.98l.035.052.024.03-.018-.022.023.032-.046-.062c-.018-.023-.036-.046-.054-.071l.024.031-.044-.057-.007-.009c-.128-.174-.256-.344-.385-.519.02.03.041.059.062.089-.053-.071-.106-.141-.159-.213l.062.089c-.189-.253-.377-.506-.566-.754.028.037.056.072.084.108-.033-.042-.065-.085-.1-.127,1.032-.65,2.075-1.282,3.137-1.886Q251.534,119.2,254.21,117.938Zm-13,7.746c.066-.05.134-.1.2-.146q.546.843,1.1,1.678c-.52.249-1.046.488-1.564.744q-2.315.752-4.561,1.706C237.945,128.285,239.547,126.951,241.208,125.684Zm-2.664,21.658-.1.067q-.453-.183-.912-.35l.021-.014Q238.052,147.186,238.544,147.342Zm.628,19.508q1.158.418,2.3.881.809.335,1.613.681l-.383.313q-.909.155-1.807.352c-1.566.341-3.132.711-4.674,1.159Q237.652,168.505,239.172,166.85Zm-1.439,5.944c-.233.194-.466.386-.7.581-2.267,1.884-4.481,3.828-6.589,5.889q-.288.28-.57.564l-.751.571c1.251-2.063,2.562-4.088,3.957-6.056A45.528,45.528,0,0,1,237.733,172.794Zm-6.51-19.8c-2.4,2.167-4.682,4.469-6.92,6.813q-.375.392-.75.786c-.379.007-.758.018-1.136.036.361-.527.739-1.044,1.123-1.556a40.4,40.4,0,0,1,3.234-3.654,1.427,1.427,0,0,0,1.63-1.122,1.367,1.367,0,0,0,.011-.388c1.177-1.054,2.382-2.074,3.637-3.034q.567-.425,1.142-.839.573.115,1.144.262l.085.025C233.329,151.176,232.26,152.063,231.223,153Zm.724,38.976c-2,2.066-3.875,4.231-5.83,6.333q-.9.139-1.8.262l.1-.018q-.31.042-.622.079c-.075-.735-.117-1.469-.124-2.208.015-1.05.088-2.09.2-3.135.109-.836.243-1.665.4-2.491q.615-.371,1.217-.76a2.861,2.861,0,0,0,2.923-.082c1.6-1,3.238-1.925,4.816-2.956s3.068-2.156,4.54-3.309l.019-.015q-.731,1.578-1.391,3.182-.252.617-.493,1.242C234.557,189.357,233.229,190.643,231.947,191.971Zm5.641,28.07.589-.435c.478-.065.952-.154,1.429-.231a8.763,8.763,0,0,0,1.112,1.067c.121.1.248.2.372.305-2.108.524-4.229.976-6.376,1.3Q236.172,221.076,237.588,220.041Zm15.938-20.154.114-.144q.086-.108.171-.219l.983-.493.8-.406q-.169.249-.34.5Q254.394,199.51,253.526,199.887Zm39.75.889.4.04,4.266.43c-.641-.026-1.282-.047-1.923-.059q-1.67-.03-3.34-.053C292.878,201.016,293.076,200.9,293.276,200.776Zm10.362-1.726c-.589-.042-1.19-.124-1.778-.124a5.254,5.254,0,0,1-.53-.053l-1.378-.142q-1.463-.148-2.923-.291c2.236-1.452,4.436-2.963,6.568-4.579a92.976,92.976,0,0,0,13.617-12.292c.086-.012.17-.031.256-.043a35.243,35.243,0,0,1,4.068-.266c.113,0,.224.011.337.014q-1.5,2.313-3.176,4.51a103.192,103.192,0,0,1-8.648,9.714l.015-.015c-1.319,1.289-2.683,2.528-4.075,3.734C305.207,199.16,304.422,199.1,303.638,199.05Zm18.343-10.76a68,68,0,0,0,4.508-6.628,37.794,37.794,0,0,1,3.761.752c.722.205,1.425.449,2.118.722.353.152.7.314,1.041.494.218.136.425.279.629.43.291.239.567.488.838.747.27.288.527.581.772.89.221.315.43.638.623.973.237.455.448.915.645,1.383q.166.443.314.89c-.3,1.66-.59,3.323-.887,4.977v0c-.538,2.013-1,4.047-1.508,6.069-.022.087-.045.175-.067.263-1.039.023-2.078.039-3.116.073-.973,0-1.946-.048-2.919-.07-2.078-.035-4.163-.089-6.241-.135-2.238-.054-4.476-.048-6.707-.207q-2.046-.141-4.088-.288A96.29,96.29,0,0,0,321.981,188.29Zm7.423-27.1,0-.029a46.882,46.882,0,0,1-1.087,5.556c-.2.734-.431,1.456-.657,2.181-.656.211-1.313.417-1.968.632.719-1.287,1.393-2.6,1.987-3.947a37.851,37.851,0,0,0,1.762-4.761Zm-8.138-1.142a27.513,27.513,0,0,1-.929,2.745,44.521,44.521,0,0,1-2.47,4.975q-1.112,1.9-2.326,3.757a38.868,38.868,0,0,0,2.494-7.155c.028-.121.055-.242.081-.364a19.41,19.41,0,0,0,1.839-2.4,15.085,15.085,0,0,0,1.7-3.4C321.552,158.819,321.421,159.433,321.266,160.044Zm-4.1-8.978a18.227,18.227,0,0,1,.136,1.9q0,.2-.009.393-.322-.7-.7-1.365c.119-.4.225-.8.33-1.207l.187-.035C317.122,150.857,317.145,150.961,317.162,151.066Zm1.308-13.007a38.2,38.2,0,0,1,2.887,2.555c.508.719.977,1.464,1.418,2.227.352.642.673,1.3.981,1.964q-.876.051-1.753.111a25.1,25.1,0,0,0-3.326-4.34q-.536-.55-1.1-1.058-.194-1.242-.5-2.463v0Q317.785,137.537,318.47,138.059Zm-6.082,23.913q.626-1.168,1.207-2.36-.023.711-.1,1.415c-.023.17-.047.34-.073.509-.088.092-.177.183-.267.274q-.518.5-1.052.977C312.206,162.516,312.3,162.245,312.388,161.972Zm-2.969-5.836a2.184,2.184,0,0,0-.24-.126q-.21-.1-.417-.195l-.027-.042q.414-.612.817-1.241Q309.506,155.336,309.419,156.136Zm-.283-17.086.08.035q.065.3.123.6-.339-.423-.694-.832C308.809,138.919,308.972,138.984,309.136,139.05Zm-44.017-25.166a50.215,50.215,0,0,1,5.226-1.03,51.848,51.848,0,0,1,5.678-.364,54.572,54.572,0,0,1,6.269.4,50.542,50.542,0,0,1,5.976,1.168,42.91,42.91,0,0,1,4.553,1.541,41.11,41.11,0,0,1,9.049,5.233,39.037,39.037,0,0,1,3.545,3.1c.722.738,1.409,1.5,2.058,2.309l-.031-.012q-.752-.306-1.508-.6A33.412,33.412,0,0,0,293.97,120.1a54.1,54.1,0,0,0-8.774-1.7,59.527,59.527,0,0,0-9.775-.165,84.292,84.292,0,0,0-9.792,1.207c-1.059.194-2.113.412-3.164.641,0-.032,0-.065,0-.1q-.058-1.691-.127-3.383.036-.7.074-1.4c.009-.173.019-.346.028-.519C263.324,114.391,264.217,114.123,265.119,113.884ZM255.058,54.725q.5,3.438,1.007,6.873c.167,2.8.328,5.591.542,8.384.306,4.015.624,8.026.919,12.041q.484,6.617.953,13.238c.072,1.026.122,2.052.172,3.079-.02,2.454-.056,4.91-.072,7.367-.011,2-.124,4.005-.246,6.007-.159.059-.317.123-.476.184-.048-.827-.091-1.655-.143-2.482v.254c0-1.125-.1-2.25-.159-3.375q-.177-3.444-.359-6.895c-.183-3.457-.307-6.913-.536-10.369v.253c0-.66-.059-1.325-.094-1.985-.094-1.583-.177-3.173-.265-4.763q-.459-8.382-.919-16.759c-.177-3.238-.388-6.477-.536-9.716v.248c0-.524-.064-1.055-.106-1.572l-.411-5.122C254.574,51.318,254.813,53.021,255.058,54.725Zm-3.365-34.471.052.1a35.373,35.373,0,0,1,1.188,3.454c.146.562.277,1.128.4,1.694-.174-.522-.356-1.042-.555-1.555a12.554,12.554,0,0,0-.911-1.957c-.029-.237-.056-.473-.084-.71-.04-.353-.08-.707-.118-1.06Zm-4.253-4.312c.063.987.15,1.97.246,2.945a19.274,19.274,0,0,0-1.985,1.985l-.092.106c-.1.08-.192.161-.284.241-.2.174-.39.351-.577.533Q246.1,18.85,247.44,15.942ZM221.718,74.033c.312-.671.648-1.337.93-2.02-.029.071-.059.141-.088.218.537-1.237,1.082-2.471,1.626-3.707a1.766,1.766,0,0,0,1.059,1.016,1.739,1.739,0,0,0,2.173-1.084c2.018-5.147,4.083-10.283,6.153-15.407.852-2.039,1.66-4.1,2.485-6.146.935-2.17,1.814-4.371,2.821-6.511,1.751-3.712,3.417-7.5,5.447-11.064a39.942,39.942,0,0,1,2.319-3.591,12.428,12.428,0,0,1,.841-.953c.258-.236.523-.466.8-.684.2,1.67.408,3.34.571,5.016v-.248c0,.525.065,1.054.106,1.573q.6,7.455,1.195,14.9.309,3.807.612,7.608c.1,1.119.136,2.256.272,3.369v-.248c0,.66.058,1.319.094,1.979.088,1.584.165,3.174.253,4.764q.459,8.382.9,16.758c.165,3.239.371,6.477.518,9.716v-.247c0,1.077.094,2.161.147,3.238l.336,7.031q.175,3.56.347,7.119c.053,1.084.089,2.167.159,3.251v-.254c0,.83.071,1.661.112,2.491q.041.789.08,1.579-2.127.947-4.2,2.023c-2.2,1.152-4.38,2.37-6.481,3.707l-.537-.711c.031.04.059.08.087.119-.195-.254-.386-.513-.581-.773l.061.084-.213-.282.022.027-.123-.159.027.036-.063-.082.071.093c.021.029.042.059.065.089l-.7-.926q-1.37-2.041-2.737-4.085-2.4-3.567-4.791-7.137-4.293-7.235-8.664-14.42-2.7-4.417-5.5-8.775c-.331-.64-.665-1.282-1-1.923.4-.837.8-1.673,1.194-2.513C220.523,76.6,221.123,75.316,221.718,74.033ZM193.4,47q.711.443,1.374.946c.283.228.555.465.82.708q.558,1.158,1.142,2.3c-.592-.567-1.191-1.127-1.816-1.658a26.213,26.213,0,0,0-2.181-1.669l.008-.009-.009.008,0,0Q193.06,47.31,193.4,47Zm-7.131,1.773c.023-.038.047-.076.071-.113a1.926,1.926,0,0,0,.384.268c-.528.681-1.037,1.376-1.535,2.079C185.517,50.248,185.871,49.5,186.265,48.773ZM173.479,93.527q.769.739,1.535,1.488.581.766,1.163,1.534C175.273,95.545,174.377,94.534,173.479,93.527Zm22.633,17.409c-.759-.677-1.554-1.325-2.29-2.031l-3.045-2.921c-.624-.595-1.248-1.195-1.872-1.79-.248-.236-.483-.5-.742-.718l.019.02c-.876-.9-1.752-1.8-2.628-2.694s-1.707-1.824-2.607-2.678q-1.737-1.762-3.465-3.535-1.353-1.761-2.7-3.521c-1.813-2.38-3.646-4.741-5.472-7.108l.207-.456q.822-1.8,1.643-3.6c.242-.533.494-1.061.723-1.6l-.022.054c.631-1.445,1.252-2.9,1.872-4.35q.308-.714.621-1.426c.923-1.666,1.849-3.33,2.762-5,1.512-2.43,2.9-4.939,4.437-7.362,1.949-3.1,3.887-6.218,6.112-9.121l-.027.034c.142-.181.286-.363.432-.543q.558.37,1.094.775c1.835,1.459,3.483,3.148,5.163,4.783a67.243,67.243,0,0,1,5.049,5.866c1.089,1.466,2.123,2.955,3.134,4.472.721,1.081,1.436,2.171,2.166,3.249q.252.447.5.9c.853,1.545,1.705,3.089,2.569,4.622l0,0,.054.1-.007-.013c.1.18.225.352.336.525.277.424.554.842.831,1.266q.8,1.233,1.607,2.466-.481.952-.961,1.906c-.742,1.484-1.372,3.027-2.026,4.552-.477,1.107-.96,2.208-1.4,3.333-.518,1.319-1.013,2.65-1.413,4.01a12.711,12.711,0,0,0-.418,1.749,8.818,8.818,0,0,0-.018,1.672,1.917,1.917,0,0,0,3.139,1.319,6.216,6.216,0,0,0,.9-.948,9.116,9.116,0,0,0,.583-1.013c.176-.376.353-.753.547-1.124.324-.642.666-1.284.984-1.932.842-1.731,1.725-3.45,2.585-5.176.426-.858.841-1.72,1.261-2.581.393.606.761,1.238,1.191,1.813.564.753,1.095,1.535,1.63,2.31,1.191,2.219,2.413,4.422,3.622,6.634.377.7.813,1.372,1.219,2.055q1.068,1.8,2.143,3.592c.365.607.7,1.254,1.1,1.844.5.723.977,1.465,1.466,2.2,1.018,1.519,2,3.08,3.079,4.557q.647.885,1.289,1.774,2.326,3.864,4.688,7.707c.463.755.937,1.5,1.415,2.245a106.824,106.824,0,0,0-12.1,10.817c-.89.908-1.758,1.836-2.635,2.757-.629-.68-1.263-1.355-1.926-2-.707-.7-1.4-1.425-2.132-2.1-.818-.748-1.613-1.519-2.455-2.237-.954-.813-1.908-1.631-2.862-2.438-1.543-1.313-3.109-2.6-4.681-3.881-1.732-1.425-3.463-2.844-5.182-4.286-1.16-.966-2.314-1.944-3.474-2.915-.736-.619-1.484-1.219-2.2-1.855Q197.823,112.441,196.112,110.936Zm18.207,28.153c-1.566-1.808-3.121-3.61-4.646-5.447q-2.261-2.728-4.522-5.453c-1.584-1.908-3.127-3.857-4.764-5.711l-.123-.14q.54.5,1.089.994c2.055,1.83,4.092,3.674,6.159,5.488,2.014,1.754,4.051,3.48,6.083,5.216,1.8,1.543,3.615,3.08,5.417,4.635.351.3.711.593,1.067.888-1.012.831-2,1.687-2.953,2.584l-.07.067c-.16-.175-.322-.348-.482-.524C215.809,140.832,215.067,139.954,214.319,139.089Zm-.7,44.153c.014-.018.027-.036.041-.053q.859-1.105,1.709-2.212c-.083.1-.159.206-.242.306q.268-.345.539-.688c-.765,1.133-1.5,2.29-2.188,3.476Q213.548,183.656,213.621,183.242Zm-5.593-6.743c.441-.93.923-1.837,1.431-2.734.878-1.519,1.8-3.013,2.747-4.494-.806,2.116-1.5,4.276-2.1,6.459q-.156.569-.3,1.138c-.5.662-1,1.326-1.481,2-.357.5-.712,1.02-1.048,1.547C207.481,179.1,207.739,177.8,208.028,176.5Zm-1.182,20.959a17.608,17.608,0,0,0,1.326,1.579q.041.357.087.712c-.368-.39-.718-.791-1.049-1.211-.165-.228-.324-.46-.474-.7C206.772,197.713,206.809,197.585,206.846,197.458Zm.584,20.507a14.459,14.459,0,0,0,5.279,2.265c-.3.071-.6.14-.907.205q-1.179-.38-2.336-.838a29.672,29.672,0,0,1-3.118-1.514l-.356-.218Q206.709,217.933,207.43,217.965Zm-57.89,42.242c-.408-.731-.794-1.475-1.152-2.232q-.037-.684-.042-1.369a33.867,33.867,0,0,1,.218-3.751c.022-.159.045-.317.069-.475.117-.221.238-.442.361-.662a24.133,24.133,0,0,1,1.427-2.1c.157-.2.325-.38.486-.573a14.944,14.944,0,0,0,1.395,1.3c-.261.172-.524.337-.783.515a2.359,2.359,0,1,0,2.585,3.946c.388-.268.78-.526,1.186-.762.121-.064.247-.118.37-.18a16.472,16.472,0,0,0,2.048,2.538,12.811,12.811,0,0,0,1.647,1.391c-.461.387-.927.766-1.405,1.132a25.657,25.657,0,0,1-2.429,1.609,32.437,32.437,0,0,1-3.059,1.416c-.49.193-.985.378-1.486.545Q150.213,261.381,149.54,260.207Zm29.433-26.64c-.005.144-.012.286-.022.429q-.306.063-.613.117.282-.435.581-.854l.017.026.029.154C178.968,233.482,178.971,233.524,178.973,233.567Zm-12.542-7.007.057.107c.283.536.554,1.077.83,1.619.109.212.216.425.324.638a16.187,16.187,0,0,0,.3,1.639c-.728.558-1.411,1.164-2.077,1.789-.236.048-.471.1-.7.16.018-.912.074-1.82.182-2.73a27.037,27.037,0,0,1,.56-2.82c.023-.084.048-.167.072-.25C166.127,226.655,166.281,226.613,166.431,226.56Zm5.738.14c.112-.381.234-.757.377-1.13,0-.013.012-.024.018-.037.1.008.2.008.3.019.227.037.452.088.677.136a14.793,14.793,0,0,0-1.425,1.244C172.132,226.855,172.15,226.776,172.169,226.7Zm.579,17.8q-.282.07-.565.138c-.122-.044-.244-.089-.366-.136-.3-.133-.592-.275-.878-.433q-.456-.287-.889-.6l-.226-.19c.084-.077.167-.156.25-.234.141.111.286.218.436.318a6.793,6.793,0,0,0,2.455,1.081Zm12.473-5.846-.054.089c-1.251.856-2.54,1.66-3.851,2.412l-.127.067c-.037-.117-.078-.233-.117-.35a11.316,11.316,0,0,0,1.34-1.643c.218-.092.436-.188.652-.285a15.886,15.886,0,0,0,2.07-1.091c.054.229.1.462.142.692C185.257,238.581,185.241,238.618,185.221,238.654Zm-3.808-15.267c-.277-.059-.558-.094-.838-.128a12.794,12.794,0,0,0-2.117-1.05,20.392,20.392,0,0,0-2.1-.661c-.272-.1-.548-.188-.825-.273.076-.07.152-.141.23-.209.161-.027.323-.052.486-.076.4-.04.809-.057,1.215-.069.876.329,1.751.659,2.617,1.011.767.321,1.519.672,2.271,1.021C182.036,223.087,181.721,223.229,181.413,223.387Zm14.027-42.453c.262.212.522.428.782.644-.047.275-.107.548-.148.824a57.141,57.141,0,0,0-.773,8.362c-.033-.071-.065-.145-.1-.217a20.163,20.163,0,0,1-.686-2.071c-.057-.243-.111-.487-.16-.731-.069-.7-.109-1.407-.118-2.113.011-.494.036-.984.091-1.474.017-.107.035-.213.055-.319C194.705,182.859,195.061,181.892,195.44,180.934Zm5.322,29.243a3,3,0,0,0,1.537.589l.346.035q.136.377.283.749c.229.575.478,1.149.755,1.709-.3-.063-.6-.133-.9-.206a10.843,10.843,0,0,0-1.52-1.908c-.2-.2-.4-.386-.61-.574.024-.092.047-.184.071-.276l-.01.048C200.732,210.287,200.747,210.232,200.762,210.177Zm-1.348,9.764c-.128-.054-.255-.109-.382-.165v-.086c0-.2.01-.409.02-.614q.2.446.413.883l-.063-.024Zm-4.627-2.759c-.683-.585-1.4-1.129-2.124-1.654a13.881,13.881,0,0,1-1.085-1.273c-.178-.258-.35-.521-.517-.794-.217-.4-.406-.8-.587-1.208a43.122,43.122,0,0,1,3.928,1.97q1.092.64,2.143,1.34c-.147.794-.265,1.592-.337,2.392C195.742,217.685,195.273,217.42,194.787,217.182Zm2.2-39.156c-.059.219-.1.441-.158.661-.037-.028-.071-.061-.109-.089l-.086-.063C196.751,178.366,196.866,178.194,196.986,178.026Zm-1.5,2.927-.039-.028h0Zm-1.271,18.769c-.136.861-.265,1.725-.419,2.585q-.124-.393-.236-.792a28.608,28.608,0,0,1-.573-2.973q-.07-.6-.121-1.2Q193.483,198.563,194.211,199.722Zm-9.843,10.4c.633.169,1.258.364,1.884.559.09.375.167.754.277,1.124.025.082.054.164.08.246a21.77,21.77,0,0,0-2.165-.788c-.72-.345-1.453-.66-2.2-.934.561-.122,1.129-.214,1.7-.3C184.082,210.059,184.226,210.084,184.368,210.12Zm-30.479,17.02a35.351,35.351,0,0,1,1.59-3.293,28.2,28.2,0,0,1,1.659-2.528,23.319,23.319,0,0,1,1.8-2.037,19.919,19.919,0,0,1,1.53-1.294q.4-.29.82-.556a26.619,26.619,0,0,0-2.544,3.412,24.434,24.434,0,0,0-1.875,2.832c-.557.975-1.063,2-1.53,3.036q-1.122,1.127-2.167,2.33Q153.508,228.084,153.889,227.14Zm50.614.5c-.024-.014-.046-.029-.07-.044a13.376,13.376,0,0,0-.424-1.293c.456.456.926.9,1.416,1.321.231.2.47.387.706.579.019.08.038.16.056.239l-.083-.029C205.555,228.182,205.026,227.924,204.5,227.641ZM173.03,167.758c-3.305-.629-6.611-1.234-9.872-2.076a66,66,0,0,1-7.762-2.632c-2.139-.9-4.222-1.919-6.261-3.03l-3.47-1.89q-.54-.316-1.078-.637l1.2.16c1.443.2,2.885.382,4.328.589.122.016.244.037.366.06q.947.35,1.895.694,2.58.934,5.147,1.884c2.162.8,4.319,1.64,6.487,2.414l.033.015-.008,0c2.65,1.119,5.3,2.25,7.967,3.34-.059-.024-.117-.048-.171-.066,1.035.474,2.05,1.014,3.072,1.53Q173.964,167.937,173.03,167.758Zm10.153,1.791q-.753-.447-1.5-.9c-.748-.453-1.484-.942-2.267-1.33-1.3-.654-2.585-1.314-3.875-1.967-.636-.324-1.272-.642-1.9-.966-.2-.1-.391-.2-.59-.293q.928.28,1.856.558c3.934,1.189,7.879,2.338,11.8,3.575,1,.318,2.014.617,3.009.948,1.136.377,2.261.777,3.392,1.165.7.242,1.4.5,2.1.765l-.158.281c-1.467-.209-2.933-.427-4.394-.64C188.152,170.387,185.667,169.974,183.183,169.549Zm7.54,4.814c.6.088,1.207.169,1.809.254l.556.081c-.187.3-.375.6-.56.9Q191.628,174.976,190.723,174.363Zm-1.535,24.5a23.354,23.354,0,0,0,1.216,5.3c.285.771.609,1.531.956,2.28q-1.1-.161-2.206-.227c-.085-1.026-.143-2.054-.151-3.085Q189,201,189.188,198.868Zm-34.165,15.346a32.8,32.8,0,0,1,3.151-2.082,25.346,25.346,0,0,1,2.634-1.276,30.319,30.319,0,0,1,2.947-.972l0,0a38.356,38.356,0,0,1,4.011-.788,46.493,46.493,0,0,1,5.653-.367c.7,0,1.39.034,2.085.066-.236.1-.474.2-.707.312-.367,0-.735.013-1.1.034a14.71,14.71,0,0,0-3.974.63,11.017,11.017,0,0,0-3.431,1.909c-.158.013-.316.028-.473.046a18.027,18.027,0,0,0-3.571.751,24.482,24.482,0,0,0-2.972.544,22.873,22.873,0,0,0-5.486,2.179Q154.392,214.7,155.023,214.214Zm-15.044,28.119a52.881,52.881,0,0,1,2-5.959,43.793,43.793,0,0,1,2.225-4.563v0a49.03,49.03,0,0,1,3.343-5.022,40.985,40.985,0,0,1,3.384-3.849l-.015.015c.222-.215.453-.417.68-.626a35.366,35.366,0,0,0-3.105,7.728,34.951,34.951,0,0,0-1.121,7.506c-.289.534-.575,1.068-.852,1.609-.636,1.242-1.331,2.461-1.908,3.733a12.516,12.516,0,0,0-1.16,3.775,20.238,20.238,0,0,0-.083,3.78c.019.244.04.489.065.733a23.194,23.194,0,0,0-1.053,2.689q-.3-.478-.576-.964a31.786,31.786,0,0,1-1.562-3.242v0a31.262,31.262,0,0,1-1.062-3.16l.008.032-.015-.06c-.017-.06-.034-.121-.05-.181.011.038.022.075.032.112l-.036-.145Q139.474,244.291,139.979,242.333ZM155,272.979a28.846,28.846,0,0,1-2.994.21,21.2,21.2,0,0,1-2.152-.128,15.592,15.592,0,0,1-1.557-.3c-.348-.1-.689-.212-1.027-.338-.3-.132-.594-.278-.884-.433-.412-.25-.807-.524-1.195-.814-.5-.409-.977-.845-1.442-1.3a24.782,24.782,0,0,1-1.675-1.977q-.754-1.044-1.41-2.156a22.366,22.366,0,0,1-1.063-2.186c-.224-.588-.415-1.178-.58-1.782a26.59,26.59,0,0,1-.5-2.666,37.1,37.1,0,0,1-.226-3.709c0-.266,0-.532.008-.8a39.691,39.691,0,0,0,2.916,4.5,8.5,8.5,0,0,0,.426,3.241,12.529,12.529,0,0,0,1.572,3.15,6.228,6.228,0,0,0,2.827,2.343,7.076,7.076,0,0,0,3.227.366c.221-.026.442-.058.661-.094l.257.089a29.326,29.326,0,0,0,4.416,2.772,30.114,30.114,0,0,0,3.443,1.456Q156.537,272.768,155,272.979Zm13.934-5.9a44.047,44.047,0,0,1-4.038,2.671q-1.287-.053-2.568-.212c.065.012.136.018.2.03-.153-.021-.305-.043-.457-.066l-.207-.051.04.011-.078-.021-.175-.044.061.013q-1.415-.381-2.788-.874a17.906,17.906,0,0,0,3.41-1.347,56.319,56.319,0,0,0,7.231-4.587,45.684,45.684,0,0,0,3.65-2.922,27.545,27.545,0,0,0,4.8-1.127c-.944,1.114-1.921,2.2-2.959,3.23A65.074,65.074,0,0,1,168.936,267.081Zm34.585-14.926a30.942,30.942,0,0,1-1.623,3.337,28.429,28.429,0,0,1-1.662,2.446,37.675,37.675,0,0,1-2.793,3.14,47.075,47.075,0,0,1-4.45,3.845,39.184,39.184,0,0,1-3.71,2.438,33.1,33.1,0,0,1-3.538,1.71c-.9.348-1.815.645-2.749.9a34.492,34.492,0,0,1-3.842.742q-1.032.126-2.066.2a50.752,50.752,0,0,0,7.135-3.5,83.221,83.221,0,0,0,7.461-4.882,51.794,51.794,0,0,0,12.006-11.989q.405-.585.8-1.181C204.212,250.309,203.886,251.238,203.521,252.155Zm-.5-6.9a51.44,51.44,0,0,1-3.468,5.218,47.484,47.484,0,0,1-3.83,4.287,60.536,60.536,0,0,1-5.673,4.873l.106-.076a82.328,82.328,0,0,1-8.5,5.578,50.378,50.378,0,0,1-5.466,2.682q-.916.357-1.845.667,1.793-1.5,3.474-3.12a46.087,46.087,0,0,0,8.108-10.229,46.506,46.506,0,0,0,11.548-7.872,19.2,19.2,0,0,0,2.879-3.327,18.788,18.788,0,0,0,1.743-3.521q.137-.368.263-.741c.211-.389.409-.786.593-1.188a24.559,24.559,0,0,1,1.224,2.491c.157.4.3.8.428,1.211C204.118,243.228,203.587,244.248,203.018,245.251Zm3.646-9.711-.015.1c0,.041-.009.084-.015.126,0-.036.008-.073.013-.109-.026.167-.053.333-.082.5a29.116,29.116,0,0,0-1.97-2.991c.011-.069.028-.137.038-.206.092-.623.153-1.262.183-1.9.067.027.129.066.2.092a12.124,12.124,0,0,0,1.688.532c.047.58.081,1.16.091,1.744-.014.741-.057,1.473-.142,2.208C206.654,235.6,206.659,235.569,206.664,235.54Zm7.2-7.053c-.316-.168-.629-.343-.941-.52a36.979,36.979,0,0,1-3.68-2.464c-.09-.071-.176-.146-.264-.217-.067-.207-.142-.41-.213-.615.879-.095,1.755-.22,2.625-.383q1.738.525,3.52.893a56.4,56.4,0,0,0,5.761.9q-.766.323-1.535.635a46.119,46.119,0,0,1-5.058,1.721Zm20.09,3.283a51.187,51.187,0,0,1-5.972.423,34.7,34.7,0,0,1-3.882-.235,29.436,29.436,0,0,1-3.191-.626q-1.5-.417-2.956-.966c1.065-.375,2.117-.789,3.158-1.222,2.076-.861,4.152-1.743,6.17-2.74a50.98,50.98,0,0,0,5.171-.239,70.674,70.674,0,0,0,12.982-2.648c1.1.579,2.224,1.11,3.363,1.615a9.454,9.454,0,0,0,1.129,1.117c.64.541,1.313,1.033,2,1.509-.528.148-1.052.309-1.582.45.056-.016.114-.029.172-.044A139.775,139.775,0,0,1,233.949,231.77Zm50.945-18.036a169.361,169.361,0,0,1-19.156,9.307c-2.114.851-4.251,1.64-6.4,2.387-.761-.376-1.53-.737-2.314-1.061q-.894-.378-1.792-.747c-1.012-.817-2.054-1.59-3.113-2.34a155.178,155.178,0,0,0,18.068-7.87q5.421-2.831,10.605-6.093c1.222-.553,2.432-1.13,3.636-1.72h.08c.341,0,.683,0,1.024.006,2.108.036,4.216.048,6.324.089,1.785.035,3.575.035,5.359.117l.271.013C293.425,208.669,289.206,211.289,284.894,213.734Zm43.357-10.21c-1.8-.008-3.595-.089-5.393-.117-1.626-.036-3.245-.218-4.858-.353-1.549-.13-3.08-.289-4.623-.472-.676-.079-1.352-.163-2.029-.244l3.048.227c1.142.083,2.273.165,3.415.2,2.738.077,5.471.135,8.2.218,1.872.059,3.745.153,5.618.153.8,0,1.609-.015,2.415-.03-.02.077-.038.154-.058.232-.8.019-1.595.051-2.393.081Zm9.945-33.762-.039.009.114-.029.127-.035-.077.022c.094-.022.189-.04.284-.057l.088-.007,0,.007c.026.083.053.166.083.248.038.161.068.324.093.486a29.21,29.21,0,0,1,.173,3.076c0-.038,0-.075,0-.113q0,.735-.03,1.47c-.224-.152-.454-.3-.688-.433a24.229,24.229,0,0,0-6.607-2.643C333.864,171.057,336.019,170.36,338.2,169.762ZM325.41,149.35a27.442,27.442,0,0,1,.588,2.975,21.692,21.692,0,0,1,.15,2.281c-.013.633-.053,1.265-.123,1.892-.1.727-.239,1.443-.4,2.154a14.312,14.312,0,0,0,.1-3.855,21.455,21.455,0,0,0-1.4-5.363l1.057-.188C325.388,149.281,325.4,149.315,325.41,149.35Zm110.214,23.055c-.117,4.228-.247,8.45-.423,12.678q-.24,5.785-.531,11.57-.438,8.768-.886,17.533l.009-.491q.079-4.477.118-8.968c.035-3.881.141-7.755.088-11.63q-.053-4.037-.112-8.067c-.029-1.9-.029-3.8-.082-5.7,0,.049,0,.1.006.15,0-1-.078-2-.124-3-.059-1.3-.123-2.608-.206-3.9-.159-2.6-.371-5.188-.653-7.773a96.43,96.43,0,0,0-3.068-16.711,38.172,38.172,0,0,0-3.009-7.5,19.377,19.377,0,0,0-4.694-5.888q-.278-.225-.562-.436c.811.04,1.618.106,2.427.2.581.083,1.153.185,1.721.32a13.769,13.769,0,0,1,1.349.451c.394.169.78.358,1.155.562.235.145.467.3.7.462a15.279,15.279,0,0,1,1.2,1.1c.236.254.458.515.675.783A18.417,18.417,0,0,1,431.9,139.9a21.092,21.092,0,0,1,.99,2.034,25.165,25.165,0,0,1,.8,2.457,41.289,41.289,0,0,1,.87,4.387c.13.865.25,1.735.384,2.6q.128,1.466.264,2.929c.071.742.165,1.478.195,2.22.088,2.114.147,4.228.265,6.336v-.212C435.672,165.9,435.713,169.155,435.624,172.405Z"/><path d="M439.729,170.527c0,.021,0,.042,0,.064,0,.065,0,.13,0,.195Z"/><path d="M322.629,259.346l-.022.084v0Z"/></svg>