<svg xmlns="http://www.w3.org/2000/svg" width="62.093" height="172.49" viewBox="0 0 62.093 172.49"><path d="M61.562,24.061a23.435,23.435,0,0,0-1.949-4.21c-.724-1.266-1.525-2.485-2.343-3.686a34.616,34.616,0,0,0-2.762-3.645,33.066,33.066,0,0,0-2.921-2.9,46.605,46.605,0,0,0-4.828-3.633c-1.178-.784-2.332-1.6-3.545-2.315A25.4,25.4,0,0,0,35.53.431,17.349,17.349,0,0,0,31.125.018a17.126,17.126,0,0,0-4.039.7,16.73,16.73,0,0,0-6.571,3.739A49.457,49.457,0,0,0,15.2,7.55a20.416,20.416,0,0,0-3.3,2.608c-.948.943-1.849,1.95-2.7,2.986-1,1.219-1.932,2.491-2.839,3.775-.812,1.148-1.619,2.3-2.331,3.515A28.853,28.853,0,0,0,.605,28.8a24.113,24.113,0,0,0-.594,4.3,17.384,17.384,0,0,0,.371,4.133A19.059,19.059,0,0,0,1.607,41.55a22.747,22.747,0,0,0,1.954,3.391A31.808,31.808,0,0,0,6.517,48.51a26.1,26.1,0,0,0,3.027,2.9,17.938,17.938,0,0,0,3.527,2.2A23.725,23.725,0,0,0,16.9,54.946c1.513.4,3.032.73,4.575.984l.454.076c.125.089.25.178.376.265a39.053,39.053,0,0,0,3.875,2.45A26.937,26.937,0,0,0,30.03,60.4a21.133,21.133,0,0,0,2.734.746c-.075.514-.151,1.027-.219,1.539-.194,1.454-.347,2.915-.488,4.369-.236,2.433-.507,4.859-.76,7.284-.371,3.5-.742,6.99-1.136,10.488-.483,4.228-1.013,8.455-1.449,12.7-.441,4.293-.983,8.586-1.472,12.872q-.538,4.663-1.048,9.321-1.254,11.307-2.467,22.612-.672,6.333-1.325,12.654c-.413,3.916-.825,7.832-1.066,11.765a1.439,1.439,0,0,0,.052.485q-.144,1.5-.282,3a2.024,2.024,0,0,0,1.708,2.238,1.737,1.737,0,0,0,.249.017,2,2,0,0,0,1.989-1.724l.1-1.06a1.932,1.932,0,0,0,2.209-1.408c.459-2.1.93-4.193,1.3-6.312q.5-2.844.989-5.695c1.243-7.118,2.415-14.249,3.575-21.38.553-3.368,1.13-6.736,1.637-10.105q1.1-7.321,2.208-14.632c.459-3.009.859-6.018,1.272-9.027.494-3.586,1.024-7.16,1.454-10.753q.459-3.78.907-7.566c.165-1.372.347-2.75.489-4.128q.38-3.657.765-7.319c.112-1.108.23-2.221.354-3.327.159-1.443.317-2.886.4-4.328.067-1.258.039-2.515.042-3.773a21.523,21.523,0,0,0,3.5-2.039,29.159,29.159,0,0,0,6.059-5.847,32.205,32.205,0,0,0,6.285-13.9,25.112,25.112,0,0,0,2.753-5.888A13.865,13.865,0,0,0,61.562,24.061Zm-43.108-10.3c1-1.486,2.051-2.926,3.183-4.309q.783-.484,1.6-.9c.63-.3,1.269-.571,1.924-.811a21.212,21.212,0,0,0-2.813,2.009A27.164,27.164,0,0,0,19.6,12.479q-.832.96-1.6,1.977Q18.225,14.108,18.454,13.762ZM4.727,37.11q.061.6.153,1.2c-.21-.773-.38-1.558-.532-2.342-.089-.534-.165-1.068-.215-1.606a16.859,16.859,0,0,1,.021-1.712A22.382,22.382,0,0,1,4.5,30.123c.2-.91.439-1.8.725-2.687a28.5,28.5,0,0,1,1.2-2.937q.377-.748.786-1.474A28.763,28.763,0,0,0,4.727,37.11ZM13.94,48.491a23.441,23.441,0,0,1-1.7-1.707A24.86,24.86,0,0,1,10.505,44.5a25.658,25.658,0,0,1-1.48-2.609c-.266-.584-.508-1.179-.719-1.783-.182-.577-.332-1.155-.459-1.747a22.278,22.278,0,0,1-.281-2.221q-.01-.2-.018-.4A16.93,16.93,0,0,0,9.291,39.6q.366.611.764,1.193a21.422,21.422,0,0,0,1.1,2.928,22.857,22.857,0,0,0,2.12,3.757q.464.648.966,1.27Q14.092,48.622,13.94,48.491Zm13.842,3.965-.221-.012c-.843-.061-1.681-.162-2.515-.283q-.687-.489-1.354-1,1.11.41,2.251.719,1.1.3,2.234.515C28.045,52.416,27.914,52.437,27.782,52.456Zm.974-4.518c-.968-.2-1.915-.446-2.857-.741a29.956,29.956,0,0,1-3.143-1.282,33.347,33.347,0,0,1-2.965-1.689,30.09,30.09,0,0,1-2.516-1.915,28.017,28.017,0,0,1-2.353-2.347c-.018-.054-.037-.107-.055-.16a20.24,20.24,0,0,1-.52-1.966c-.076-.47-.136-.933-.178-1.408-.023-.593-.016-1.179.02-1.772a24.22,24.22,0,0,1,.351-2.43,34.414,34.414,0,0,1,.94-3.5,35.7,35.7,0,0,1,1.45-3.489,50.027,50.027,0,0,1,3.011-5.155A47.387,47.387,0,0,1,23.348,15.5c.579-.646,1.183-1.258,1.823-1.844a23.625,23.625,0,0,1,1.908-1.443,26.459,26.459,0,0,1,2.555-1.466,21.818,21.818,0,0,1,2.038-.834c.472-.143.95-.27,1.432-.37.29-.045.582-.085.875-.112.282-.009.561-.009.842,0,.328.03.649.072.973.128.377.081.749.178,1.117.285l-.333.017a19.666,19.666,0,0,0-4.257.665,20.55,20.55,0,0,0-4.252,1.7,27.393,27.393,0,0,0-3.4,2.273,2.3,2.3,0,1,0,2.8,3.663c.4-.3.812-.607,1.23-.892.6-.375,1.206-.721,1.836-1.038.567-.267,1.143-.511,1.733-.728.719-.229,1.446-.419,2.182-.577a22.071,22.071,0,0,1,2.221-.256,21.819,21.819,0,0,1,2.259.006c.391.037.779.09,1.17.155a21.721,21.721,0,0,1,2.112.556,19.491,19.491,0,0,1,1.891.775c.391.205.772.421,1.149.65a19.012,19.012,0,0,1,1.582,1.215q.526.478,1.021.985a27.59,27.59,0,0,1,.724,2.832l-.011-.05a29.91,29.91,0,0,1,.443,3.186c.038.886.036,1.763-.01,2.644a19.412,19.412,0,0,1-.266,1.934c-.191.884-.435,1.747-.71,2.609a39.873,39.873,0,0,1-1.817,4.465,41.958,41.958,0,0,1-2.137,3.706c.02-.175.044-.35.064-.525.135-1.184.265-2.367.394-3.557a34.31,34.31,0,0,0,.342-4.593,1.768,1.768,0,0,0-3.3-.883,4.684,4.684,0,0,0-.548,1.266c-.153.489-.283.977-.389,1.472-.205,1.014-.363,2.039-.553,3.054l.006-.034C39.6,38.912,39,41.249,38.452,43.6c-.242,1.036-.436,2.061-.619,3.109q-.091.525-.185,1.051c-.106.09-.212.18-.32.269-.868.147-1.738.256-2.62.322a27.631,27.631,0,0,1-2.935-.02C30.762,48.246,29.758,48.119,28.756,47.938Zm16.52,4.424A26.719,26.719,0,0,1,42.761,54.3c-.151.094-.31.174-.462.265.032-.245.062-.49.093-.735a33.461,33.461,0,0,0,3.257-1.807C45.526,52.136,45.4,52.249,45.276,52.362Zm8.228-19.3c-.056.621-.144,1.234-.259,1.844-.139.625-.3,1.236-.5,1.846A19.607,19.607,0,0,1,52,38.589q-.3.561-.631,1.105a17.892,17.892,0,0,1-1.118,1.451c-.532.585-1.1,1.138-1.684,1.672a23.9,23.9,0,0,1-2.28,1.743c-.617.385-1.244.745-1.886,1.081a38.133,38.133,0,0,0,2.9-3.926,38.564,38.564,0,0,0,3.9-7.891,26.868,26.868,0,0,0,1.154-4.1,21.22,21.22,0,0,0,.309-3.039c.221.754.41,1.514.567,2.288a22.522,22.522,0,0,1,.279,2.267A17.872,17.872,0,0,1,53.5,33.059Z"/></svg>