<svg xmlns="http://www.w3.org/2000/svg" width="328.598" height="253.934" viewBox="0 0 328.598 253.934"><path d="M201.473,83.6c-.052-.011-.1-.026-.155-.037l-.046-.01C201.337,83.568,201.408,83.58,201.473,83.6Z"/><path d="M245.282,50.364c-.016.023-.034.045-.051.069h0C245.248,50.41,245.265,50.386,245.282,50.364Z"/><path d="M294.869,154.412l-.118.054-.071.034C294.745,154.471,294.81,154.441,294.869,154.412Z"/><path d="M183.713,99.155l-.014-.043c-.015-.047-.033-.092-.047-.139C183.671,99.034,183.692,99.1,183.713,99.155Z"/><polygon points="293.874 161.095 293.877 161.094 293.881 161.093 293.874 161.095"/><path d="M281.632,156.426l.05-.016.138-.043C281.761,156.384,281.7,156.408,281.632,156.426Z"/><path d="M200.84,188.279l-.088.042-.068.033C200.738,188.33,200.791,188.3,200.84,188.279Z"/><path d="M217.064,39.309l-.027-.025.021.02Z"/><path d="M327.579,108.615a3.264,3.264,0,0,0-.836-.312,7.124,7.124,0,0,0-.924-.094c-.324-.012-.648-.017-.972-.029q-.669-.024-1.34-.043a12.916,12.916,0,0,0-1.681-.938,39.314,39.314,0,0,0-4.658-1.72c-2.666-.862-5.4-1.485-8.107-2.225-.165-.226-.338-.445-.493-.681a16.433,16.433,0,0,1-.845-1.567c-.282-.638-.526-1.281-.746-1.938a40.031,40.031,0,0,1-1.1-4.661c.006.027.011.054.016.082-.212-1.226-.39-2.458-.543-3.692.121-.693.239-1.387.344-2.082.553-3.663.954-7.343,1.395-11.017.424-3.575.913-7.137,1.437-10.7.265-1.8.524-3.6.648-5.423a13.774,13.774,0,0,0-.042-2.568,5.242,5.242,0,0,0-.376-1.465,2.773,2.773,0,0,0-.707-.908,2.52,2.52,0,0,0-1.23-.517,6.447,6.447,0,0,0-1.508-.048c-.217.017-.434.04-.651.066q.082-.709.156-1.42A25.847,25.847,0,0,0,305,51.276a3.1,3.1,0,0,0-.246-1.064c.059-.6.152-1.2.152-1.8a3.106,3.106,0,0,0-.183-1.189,1.748,1.748,0,0,0-.93-.972,3.2,3.2,0,0,0-.777-.271,1.855,1.855,0,0,0-.666.035,2.82,2.82,0,0,0-.965.383c-1.633,1-3.1,2.247-4.7,3.3-.585.364-1.169.733-1.75,1.1l-.014.009.068-.044-.914.519c-.249.107-.5.22-.747.314-.83.318-1.643.7-2.473,1.013s-1.661.591-2.5.869c-.968.257-1.927.526-2.911.716-.472.076-.941.129-1.417.163q-.3,0-.589-.018c-.259-.031-.513-.067-.767-.111-.275-.068-.546-.149-.819-.241-.331-.133-.657-.276-.978-.433-.313-.174-.615-.359-.912-.56-.325-.237-.629-.5-.933-.758-.113-.191-.227-.38-.34-.571-.365-.625-.689-1.273-1.036-1.908-.731-1.349-1.425-2.715-2.126-4.081-.081-.156-.16-.311-.24-.467-.045-.14-.092-.279-.137-.42.023.065.041.13.064.2-.736-2.538-1.5-5.059-2.22-7.6-.747-2.662-1.5-5.324-2.225-7.991q-1.494-5.458-3.039-10.906-.821-2.844-1.672-5.682c-.518-1.69-1.054-3.392-1.72-5.028A15.047,15.047,0,0,0,262.983,5.2a3.991,3.991,0,0,0-1.937-1.849,2.216,2.216,0,0,0-1.19-.076,3.391,3.391,0,0,0-.416.146,2.282,2.282,0,0,0-1.726-.322c-.024-.095-.044-.191-.071-.286a6.061,6.061,0,0,0-.336-.954,7.91,7.91,0,0,0-.471-.836A2.355,2.355,0,0,0,255.169.015,2.854,2.854,0,0,0,253.491.4a3.287,3.287,0,0,0-1.207,1.266,16.053,16.053,0,0,0-.871,1.784,80.241,80.241,0,0,0-2.821,9.5q-.636,2.428-1.26,4.87c-.86,3.362-1.7,6.73-2.55,10.1q-1.377,5.45-2.785,10.893c-.43,1.637-.866,3.274-1.3,4.911-.233.885-.47,1.776-.721,2.662-.269-.166-.547-.319-.805-.5l.089.065c-.426-.3-.849-.6-1.274-.89h0l0,0-.207-.144.085.057c-2.231-1.583-4.464-3.151-6.822-4.533-.571-.329-1.13-.683-1.713-.989-.683-.365-1.372-.724-2.055-1.089-1.266-.683-2.6-1.255-3.916-1.843a36.452,36.452,0,0,0-5.223-1.878c-.279-.076-.563-.141-.845-.209-.106-.1-.21-.193-.315-.289l.068.064a7.655,7.655,0,0,0-2.759-1.813,4.088,4.088,0,0,0-1.655-.206,3.766,3.766,0,0,0-1.383.489,4.326,4.326,0,0,0-1.849,2.739,7.366,7.366,0,0,0-.23,1.9c-.009.423,0,.85.028,1.277a3.288,3.288,0,0,0-1.724.768c-1.655,1.436-1.932,3.786-1.79,5.853a25.571,25.571,0,0,0,1.772,7.349c.377.995.825,1.961,1.243,2.944.37.877.83,1.731,1.248,2.591.389.819.83,1.608,1.242,2.408.807,1.572,1.661,3.121,2.462,4.693q1.237,2.451,2.409,4.93c-.006-.012-.012-.025-.019-.037.5,1.1.969,2.2,1.372,3.341.216.726.4,1.453.549,2.2.065.475.123.949.148,1.429,0,.075,0,.151,0,.227s-.02.151-.034.227c-.026.113-.06.223-.1.332-.027.066-.055.134-.086.2-.08.15-.164.3-.258.436-.114.147-.229.288-.35.429-.165.168-.334.326-.508.481-.53.008-1.059.007-1.592,0-.236,0-.477,0-.713,0-.418,0-.83,0-1.242-.006-1.219-.048-2.444-.089-3.657-.171l.143.011c-1.115-.093-2.231-.174-3.346-.261l-.017,0-.242-.019.137.009.05,0,.018,0h-.007l.043,0a51.538,51.538,0,0,1-5.78-.835,23.268,23.268,0,0,1-2.587-.713l.038.015-.084-.029c-.087-.032-.173-.063-.261-.092.074.028.144.052.216.078l-.015,0q-.915-.33-1.839-.659c-2-.816-3.951-1.707-5.872-2.689-.659-.348-1.323-.694-1.97-1.065-.388-.218-.777-.436-1.16-.653a11.379,11.379,0,0,0-1.708-.9,3.451,3.451,0,0,0-2.755.077,4.549,4.549,0,0,0-1.926,1.931,8.726,8.726,0,0,0-.918,2.945,18,18,0,0,0-.2,3.179,45.861,45.861,0,0,0,1.584,10.717c.407,1.555.783,3.121,1.272,4.658-.029-.082-.053-.17-.082-.253.466,1.481.922,2.968,1.4,4.444q.1.315.214.626c1.231,3.539,2.444,7.089,3.881,10.558.736,1.778,1.425,3.586,2.255,5.329q.216.459.433.919a10.008,10.008,0,0,0,.368,2.414c.129.571.241,1.16.394,1.725q.274,1,.548,2c.133.49.246.989.407,1.47a.7.7,0,0,1-.018-.069c.2.661.414,1.321.625,1.982q.1.45.2.9a101.909,101.909,0,0,0,3.115,10.617,38.823,38.823,0,0,0,3.615,7.844,42.629,42.629,0,0,0,3,4.169c.578.718,1.149,1.436,1.773,2.119.942,1.043,1.872,2.085,2.9,3.056a34.7,34.7,0,0,0,5.953,4.588A39.584,39.584,0,0,0,218.3,161.9c.928.4,1.846.847,2.8,1.191.548.213,1.1.415,1.648.622-.272.255-.546.511-.814.765-.583.548-1.143,1.142-1.761,1.655l.014-.011h0l-.045.037,0,0c-.241.2-.481.4-.722.6.02-.016.04-.034.06-.051-.085.069-.171.14-.255.21l.06-.052-2.574,2.131c.059-.053.124-.106.183-.159-.17.143-.344.286-.514.429l-.017.014.048-.042c-.754.553-1.5,1.112-2.255,1.666-.689.507-1.361,1.048-2.073,1.525l-2.485,1.661c-.651.437-1.294.887-1.952,1.312q-2.066,1.256-4.119,2.515c-1.13.683-2.285,1.308-3.433,1.949-1.054.583-2.1,1.172-3.174,1.72-.883.447-1.76.9-2.644,1.354-.391.2-.772.408-1.168.6-1.582.724-3.168,1.427-4.749,2.159l.229-.106c-2.286.93-4.6,1.824-6.953,2.574a59.991,59.991,0,0,1-6.522,1.614,49.027,49.027,0,0,1-5.6.649,42.521,42.521,0,0,1-4.27-.027,32.579,32.579,0,0,1-3.805-.559c-.368-.083-.734-.171-1.1-.267a31.6,31.6,0,0,0,.243-5.356,42.381,42.381,0,0,0-1.637-10.853,22.2,22.2,0,0,0-2.014-4.828,12.265,12.265,0,0,0-2.862-3.439,9.3,9.3,0,0,0-4.1-1.943,8.581,8.581,0,0,0-4.14.229,9.1,9.1,0,0,0-4.269,2.979,6.375,6.375,0,0,0-.793.724,6.915,6.915,0,0,0-1.808,3.633,12.157,12.157,0,0,0,.336,5.147,20.6,20.6,0,0,0,.677,2.061c.394.977.783,1.966,1.266,2.9a21.856,21.856,0,0,0,2.579,4.027l-.165-.2c.453.553.907,1.1,1.36,1.655.383.459.825.871,1.237,1.307a23.676,23.676,0,0,0,5.606,4.392c.6.337,1.189.707,1.813,1l.465.22q-.2.457-.429.908c-.329.6-.683,1.179-1.068,1.743a21.5,21.5,0,0,1-1.462,1.785q-1.008,1.035-2.105,1.97c-1.089.894-2.235,1.715-3.386,2.536-.376.271-.782.506-1.171.754-.417.259-.833.519-1.245.784-1.159.643-2.32,1.288-3.515,1.861l.061-.025-.168.077-.05.024.027-.014a37.35,37.35,0,0,1-3.7,1.441,34.971,34.971,0,0,1-3.424.844,36.6,36.6,0,0,1-3.973.444h.043l-.07,0-.171.01.113-.008q-1.81.058-3.616-.062c-.421-.039-.836-.1-1.252-.151a49.1,49.1,0,0,1-5.449-1.584,62.852,62.852,0,0,1-7.083-3.114c-.817-.434-1.616-.9-2.411-1.369q.066-.321.13-.643c.112-.554.259-1.113.342-1.678.229-1.472.453-2.945.683-4.416.206-1.349.341-2.7.512-4.057.159-1.29.259-2.592.377-3.893.112-1.272.177-2.532.23-3.8a52.97,52.97,0,0,0-.053-7.037,25.942,25.942,0,0,0-2.585-9.9,14.62,14.62,0,0,0-2.88-3.863,11.059,11.059,0,0,0-3.721-2.3c-5.806-2.137-12.56,2.031-14.344,7.69a16.216,16.216,0,0,0-.713,4.982,35.361,35.361,0,0,0,.377,5.046,37.866,37.866,0,0,0,1.26,5.588,35.263,35.263,0,0,0,1.8,4.564,37.271,37.271,0,0,0,5.988,8.986,40.229,40.229,0,0,0,4.462,4.169q-.181.555-.365,1.108c-.548,1.663-1.108,3.331-1.645,5a85.753,85.753,0,0,1-4.121,9.426,72.878,72.878,0,0,1-4.513,7.414l.034-.046-.053.074c-.028.041-.055.081-.083.12l.036-.054a89.828,89.828,0,0,1-7.171,8.883,75.8,75.8,0,0,1-6.848,6.513l-.007,0c-.054.045-.106.09-.16.134.034-.031.068-.059.1-.087-.651.528-1.323,1.028-2,1.527-.474.253-.947.5-1.423.761l-.061.029-.272.124c.07-.03.135-.059.206-.088-1.458.666-2.915,1.328-4.368,2l.022-.009-.04.018-.166.076c.027-.014.053-.026.08-.038-.821.364-1.672.678-2.512.986-.932.337-1.865.654-2.807.955a58.48,58.48,0,0,1-6.436,1.593l.028,0-.039.007-.185.034.086-.018a57.779,57.779,0,0,1-6.84.766c.076,0,.153-.006.23-.006a63.02,63.02,0,0,1-6.968-.019c-1.645-.15-3.3-.289-4.939-.423.077.007.153.013.236.018-.789-.064-1.578-.194-2.356-.318-1.021-.162-2.036-.348-3.052-.563l-.054-.013c-.292-.136-.588-.263-.877-.407a31.85,31.85,0,0,1-3.325-2.018,38.2,38.2,0,0,1-3.477-2.818,47.167,47.167,0,0,1-3.526-3.764c-1.648-2.035-3.15-4.188-4.615-6.355-.991-1.457-1.942-2.931-2.888-4.415-.554-.912-1.091-1.823-1.611-2.758a1.6,1.6,0,0,0-2.809,1.52c1.407,2.615,2.956,5.158,4.611,7.625.818,1.225,1.625,2.467,2.49,3.663a51.8,51.8,0,0,0,4.832,5.86c-.563-.269-1.135-.521-1.69-.81a55.945,55.945,0,0,1-5.84-3.561,58.526,58.526,0,0,1-4.621-3.7c.037.034.072.069.108.1l-.11-.107-.073-.064c.025.02.048.041.071.062-.762-.738-1.561-1.443-2.285-2.211-.424-.454-.883-.89-1.284-1.373-.383-.459-.765-.924-1.148-1.383.053.058.1.123.153.182-.3-.388-.589-.789-.877-1.189a1.839,1.839,0,0,0-2.538-.412,1.845,1.845,0,0,0-.406,2.538c.418.594.83,1.183,1.283,1.748.283.36.554.748.866,1.084.542.583,1.042,1.213,1.613,1.766.666.648,1.337,1.29,2,1.932a32.679,32.679,0,0,0,2.6,2.226q1.308,1.034,2.674,1.99A54.207,54.207,0,0,0,23.958,248.9a54.868,54.868,0,0,0,6.9,1.985c.279.061.56.115.84.172.116.05.226.112.342.159a35.7,35.7,0,0,0,10.617,2.562q1.932.156,3.88.156a47.349,47.349,0,0,0,7.261-.556,51.542,51.542,0,0,0,10.77-2.756A47.746,47.746,0,0,0,75.7,244.408c.873-.473,1.745-.946,2.623-1.419.23-.124.453-.277.671-.418l1.431-.9c.754-.476,1.507-.948,2.261-1.425l-.064.037c.438-.286.858-.607,1.283-.914.783-.559,1.56-1.124,2.344-1.678,1.118-.8,2.167-1.684,3.238-2.538,1.06-.836,2.067-1.713,3.08-2.6a50.517,50.517,0,0,0,5.276-5.182,39.973,39.973,0,0,0,5.612-8.974,47.01,47.01,0,0,0,1.943-4.67q.353-1.061.712-2.12c.242-.724.483-1.442.725-2.167.159-.465.259-.965.382-1.442.147-.546.3-1.091.448-1.636a51.421,51.421,0,0,0,6.63,3.19,37.6,37.6,0,0,0,7.888,2.188c.9.21,1.814.392,2.734.54a46.562,46.562,0,0,0,11.194.442,30.2,30.2,0,0,0,10.2-2.473,21.41,21.41,0,0,0,8.073-6.5A31.241,31.241,0,0,0,159,195.144c1.02.341,2.048.667,3.091.926.724.176,1.448.382,2.184.53s1.484.294,2.226.436a29.668,29.668,0,0,0,4.676.523,27.038,27.038,0,0,0,5.311-.306,33.056,33.056,0,0,0,4.722-1.1c.772-.253,1.537-.506,2.309-.754,1.2-.394,2.384-.86,3.574-1.307,1.136-.43,2.273-.877,3.4-1.337,2.556-1.048,5.129-2.067,7.638-3.226-.077.035-.148.07-.224.105.218-.1.441-.205.659-.305-.076.035-.147.07-.223.106.63-.289,1.254-.583,1.884-.872-.077.035-.147.07-.224.106l.742-.347c1.542-.713,3.048-1.5,4.57-2.25,1.207-.6,2.384-1.272,3.568-1.908,1.13-.6,2.214-1.307,3.321-1.949.6-.353,1.166-.783,1.737-1.171.459-.312.942-.6,1.378-.948,1.048-.837,2.132-1.632,3.127-2.527.659-.588,1.313-1.178,1.972-1.772.43-.389.825-.819,1.231-1.231,1.019-1.025,1.99-2.09,2.962-3.162.383-.418.73-.854,1.089-1.289.389-.466.8-.925,1.172-1.414.709-.917,1.425-1.83,2.108-2.765,1.055.347,2.116.68,3.182.978s2.114.595,3.168.883c.977.266,1.984.442,2.973.66.772.171,1.531.312,2.315.43.942.141,1.9.341,2.849.429,1.9.177,3.8.354,5.707.442,2.668.124,5.343.226,8.014.226q1.529,0,3.056-.049c1.054-.036,2.114-.029,3.168-.112s2.1-.159,3.15-.242c.742-.058,1.478-.129,2.214-.211.989-.112,1.99-.189,2.98-.33,1.872-.277,3.745-.512,5.611-.813,1.967-.306,3.922-.665,5.871-1.042,1.731-.33,3.451-.748,5.158-1.172.819-.2,1.643-.4,2.456-.618.971-.265,1.961-.489,2.92-.8-.064.023-.129.042-.2.065.554-.171,1.1-.348,1.649-.518-.065.018-.135.041-.2.059.33-.1.659-.206.989-.306-.065.017-.135.04-.2.058l.971-.3-.032.009A34.981,34.981,0,0,0,301,161.973a41.185,41.185,0,0,0,4.387-2.308c1.413-.866,2.749-1.826,4.11-2.78.388-.271.759-.583,1.136-.872.477-.37.978-.73,1.437-1.13.883-.771,1.772-1.531,2.62-2.35.648-.623,1.272-1.259,1.89-1.907a23.579,23.579,0,0,0,1.914-2.22c.96-1.29,2.085-2.644,1.949-4.352a4.269,4.269,0,0,0-.141-.77c.129-.16.268-.313.389-.48a8.628,8.628,0,0,0,.654-.978,5.681,5.681,0,0,0,.594-1.3,2.015,2.015,0,0,0-.73-2.291,4.028,4.028,0,0,0-1.142-.583c-.395-.141-.783-.282-1.184-.394-1.678-.471-3.374-.907-5.076-1.272l.037.009c-.7-.158-1.412-.316-2.115-.469.07.018.135.03.206.048-.177-.042-.354-.077-.53-.118.07.018.135.03.206.047l-.636-.141.1.024-.2-.043h0l-.01,0c-.065-.015-.131-.029-.2-.045l.113.028c-.171-.036-.345-.075-.52-.11.071.011.142.029.212.041-.176-.035-.347-.077-.524-.112.071.017.142.029.212.047l-.247-.053c.071.017.141.029.212.047-.271-.059-.542-.118-.819-.176.071.017.142.029.213.046l-.287-.062c-.837-.38-1.674-.761-2.5-1.155,1.2-.673,2.434-1.3,3.6-2.054,1.342-.866,2.661-1.767,3.939-2.732,1.378-1.043,2.733-2.115,4.028-3.251a45.081,45.081,0,0,0,3.574-3.392c-.047.054-.094.107-.147.165l.361-.391-.033.035a23.238,23.238,0,0,0,1.98-2.482c.536-.771,1.007-1.578,1.5-2.373.406-.642.865-1.26,1.248-1.92a3.352,3.352,0,0,0,.6-1.713,2.569,2.569,0,0,0-.236-1.089c-.016-.032-.04-.054-.057-.084l.034-.03a7.405,7.405,0,0,0,1.007-1,2.646,2.646,0,0,0,.442-1.136A1.691,1.691,0,0,0,327.579,108.615Zm-21.746,41.8c-.771.477-1.548.96-2.314,1.449.053-.036.1-.07.153-.1-.441.236-.877.483-1.319.724-.346.19-.681.4-1.036.572-.215.1-.433.2-.648.3l-.416.191.034-.019c-.195.089-.389.183-.584.271h0l-.438.2c.031-.013.062-.029.094-.045-.385.173-.783.308-1.172.458s-.771.306-1.16.447c-.889.318-1.778.648-2.673.96-.93.33-1.855.66-2.791.972-1.007.337-2.019.653-3.02,1-.958.276-1.917.557-2.88.833s-1.922.513-2.892.73c.216-.068.435-.132.651-.2l-.027.008c.017,0,.033-.011.05-.015l.026-.009-.011,0c.866-.263,1.711-.618,2.561-.928.683-.253,1.355-.507,2.026-.789,1.631-.683,3.262-1.36,4.864-2.114l-.123.052c.652-.3,1.308-.6,1.96-.905a61.493,61.493,0,0,0,5.517-2.827,50.45,50.45,0,0,0,8.933-6.407,17.289,17.289,0,0,0,1.779-1.872,5,5,0,0,0,1.435-3.2,26.746,26.746,0,0,1,2.473,1.4c.312.226.61.462.9.711.2.19.385.391.569.6-.151.138-.292.288-.448.422-1.575,1.281-3.236,2.47-4.9,3.635-1.7,1.195-3.42,2.372-5.176,3.492Zm-40.351,9.7c-.555.019-1.11.019-1.665.018-.37-.062-.742-.114-1.109-.19-.632-.142-1.253-.322-1.87-.515q2.438-.042,4.877-.057c1.416-.014,2.836-.027,4.257-.028-.365.076-.73.15-1.1.225C267.745,159.763,266.615,159.954,265.482,160.12Zm-9.106-.518c-.121-.017-.242-.036-.363-.054.123,0,.247,0,.37-.009C256.382,159.56,256.377,159.581,256.376,159.6Zm44.982-66.276c0-.061,0-.121-.008-.182l0-.072,0,.047c-.08-1.954-.049-3.91.03-5.864.013.125.026.249.038.374.071.789.118,1.584.224,2.367l.2,1.437c-.048.273-.094.548-.143.821-.1.548-.2,1.1-.3,1.649q-.026-.336-.045-.67C301.357,93.264,301.358,93.3,301.358,93.326ZM287.167,59.437l-.072,0-.134.009.111-.008c-.507.017-1.006.012-1.511-.016-.127-.013-.25-.04-.375-.057.432-.156.857-.326,1.275-.492q1.209-.477,2.4-1.007c1.661-.754,3.3-1.537,4.911-2.391.159-.084.312-.177.47-.262l.348-.148c2.153-.919,4.251-1.971,6.481-2.7q-.136,1.88-.216,3.761c-.034.256-.066.512-.1.767l-.093.021c-.889.2-1.772.407-2.662.613-1.747.4-3.5.754-5.253,1.122-1.868.314-3.737.657-5.631.786Zm18.4-.191c.119,0,.239-.006.358,0,.025.193.043.387.058.581.014.693-.017,1.38-.064,2.068-.242,2.358-.625,4.693-.985,7.033q-.3,2-.576,4.006c0-.278-.015-.556-.018-.834-.051-4.233-.067-8.467.017-12.7C304.758,59.335,305.161,59.281,305.565,59.246ZM262.514,11.6l0-.008,0,.013c.018.057.037.113.055.169-.009-.023-.018-.045-.025-.069,1.517,5.051,2.9,10.137,4.281,15.227-.311-.976-.623-1.952-.929-2.928l.017.048c-.93-2.962-1.766-5.953-2.585-8.951q-.609-2.242-1.219-4.5c-.076-.283-.151-.567-.225-.85Q262.215,10.667,262.514,11.6Zm-14.523,17.8q1.255-5.018,2.521-10.029.618-2.428,1.254-4.851c.785-2.992,1.554-5.984,2.561-8.9.055-.151.113-.3.172-.449.143.686.274,1.374.412,2.06-.774,2.315-1.313,4.722-1.944,7.082-.477,1.79-.942,3.58-1.455,5.364q-.847,2.977-1.778,5.924c-.525,1.648-1.1,3.273-1.664,4.909-.375,1-.742,2-1.11,3C247.3,32.132,247.65,30.763,247.991,29.393ZM213.2,39.305c-.015-.152-.028-.3-.038-.458s0-.329.013-.5c.017-.145.037-.289.061-.432.021-.075.041-.147.061-.224l.027-.06.013-.023c.056,0,.113,0,.169,0,.7.069,1.384.18,2.071.3l.177.164-.182-.165c.112.106.229.206.341.312-.065-.053-.123-.112-.182-.165l1.094,1.018-.023-.023.1.1.081.075-.023-.021.042.04-.042-.04-.037-.034c.036.036.076.072.114.107l-.027-.026-.021-.02.125.116-.05-.045.107.1c-.012-.013-.025-.025-.038-.037q.639.6,1.279,1.182l-.051-.05.139.131.043.04-.022-.021.034.032.039.037-.014-.013.075.071c-.011-.012-.023-.023-.035-.035.241.225.485.445.73.665s.467.416.7.627l-1.594-.666c-1.7-.7-3.4-1.354-5.117-2.014Zm14.366,3.468c.783.448,1.566.9,2.344,1.367,1.448.859,2.861,1.807,4.239,2.773-.064-.047-.135-.095-.206-.147.074.054.148.105.222.157l.106.076-.053-.038.114.081c-.016-.01-.032-.022-.047-.033.167.12.337.237.506.357l-.1-.071q.366.255.732.516c-.027-.02-.055-.038-.082-.056.107.073.214.15.321.224-.048-.033-.095-.068-.139-.1.565.407,1.143.8,1.72,1.19l.126.087c-.468-.153-.932-.315-1.4-.477-1.6-.608-3.182-1.283-4.758-1.959-1.755-1.379-3.449-2.844-5.132-4.313-.365-.317-.721-.644-1.083-.965.174.084.348.165.521.248C226.2,42.048,226.9,42.389,227.564,42.773Zm-18.2-1.2-.017.013.014-.013Zm-.254.241c.009-.01.02-.018.029-.028l-.036.039Zm7.339,22.427q-1.326-2.527-2.691-5.035c-.848-1.564-1.623-3.149-2.4-4.742-.267-.625-.534-1.251-.807-1.877-.4-.926-.753-1.871-1.067-2.837a26.221,26.221,0,0,1-.706-2.819c.007.041.014.082.018.121-.01-.06-.02-.12-.029-.179v0c-.1-.651-.186-1.3-.23-1.96q-.013-.594.017-1.188c.022-.251.053-.495.1-.745.047-.19.1-.38.157-.571.043-.11.088-.219.137-.325.032-.058.065-.115.1-.171s.08-.1.12-.15a2.194,2.194,0,0,1,.17-.164l.068-.043c.017-.008.034-.014.051-.021l-.032.009.006,0c.046-.013.093-.024.139-.034.175,1.024.388,2.044.635,3.053.165.672.33,1.343.5,2.014.082.354.165.712.277,1.06-.024-.077-.047-.147-.071-.224.206.7.424,1.384.63,2.073.188.618.348,1.254.571,1.861.442,1.218.825,2.461,1.313,3.662.719,1.773,1.431,3.545,2.191,5.3.671,1.548,1.378,3.085,2.061,4.628a103.433,103.433,0,0,1,3.975,10.623,1.629,1.629,0,0,0,.907.977c.064.3.138.594.2.9.052.34.1.68.14,1.025-.065.035-.13.068-.2.1-.183.072-.367.141-.558.2-.418.115-.84.211-1.266.294l-.026,0a6.269,6.269,0,0,0,.26-3.217,13.047,13.047,0,0,0-.27-1.508,18.12,18.12,0,0,0-.825-2.679c-.359-.877-.748-1.737-1.148-2.6C218.1,67.422,217.277,65.827,216.447,64.237Zm1.516,13.652c0,.015-.008.031-.013.046l-.006.01Zm-32.13-.6c-1.76.881-2,3.216-1.929,5.016-.063-.589-.106-1.179-.139-1.771-.033-.85-.033-1.7.018-2.556.046-.478.117-.95.206-1.422.052-.21.11-.415.171-.619.033-.083.066-.165.1-.246.786.446,1.562.909,2.346,1.356A2.76,2.76,0,0,0,185.833,77.285Zm10.028,40.8c-.759-1.6-1.5-3.2-2.269-4.8-.073-.181-.146-.361-.22-.542-.423-2.1-.835-4.2-1.256-6.308-.7-3.5-1.466-6.983-2.338-10.44-.465-1.849-.96-3.7-1.4-5.553-.406-1.753-.779-3.5-1.119-5.268-.132-.925-.269-1.845-.327-2.775-.009-.365-.011-.732,0-1.095.028-.264.063-.525.112-.786.027-.1.058-.2.091-.305l-.014.048c.025-.07.054-.135.084-.2l.089-.008c.182,0,.36.008.539.019.412.051.82.124,1.231.208,2.048.513,4.059,1.141,6.089,1.712s4.091,1.124,6.158,1.571l1.968.431c-.065-.018-.13-.029-.2-.047,1.219.265,2.45.418,3.68.565a20.865,20.865,0,0,0,3.6.1,18.05,18.05,0,0,0,4.263-.706l.344-.109a30.749,30.749,0,0,0,7.476-.61,8.845,8.845,0,0,0,3.256-1.371,3.742,3.742,0,0,0,1.5-2.739,9.445,9.445,0,0,0-.212-2.19c-.077-.424-.159-.842-.265-1.26a75.011,75.011,0,0,0-3.657-10.481c-1.431-3.48-2.909-6.943-4.357-10.412q-1.131-2.711-2.244-5.417c-.881-2.136-1.762-4.293-2.473-6.492,2.213.881,4.4,1.834,6.583,2.777,2.267.977,4.551,1.924,6.834,2.873.081.067.158.137.239.2.612.507,1.242.99,1.878,1.472a34,34,0,0,0,3.739,2.585c1.908,1.084,4.216,2.167,6.419,1.337a3.616,3.616,0,0,0,1.551-1.16c.211-.015.422-.034.633-.069a4.417,4.417,0,0,0,2.355-1.189,9.4,9.4,0,0,0,1-1.22,21.276,21.276,0,0,0,1.983-4.02c.6-1.473,1.066-3.009,1.56-4.523.948-2.885,1.814-5.8,2.65-8.715,1.042-3.621,2-7.266,3.021-10.893.465-1.655.93-3.31,1.448-4.947.295-.948.571-1.907.89-2.85.013-.039.027-.078.04-.118.013.04.023.082.036.122.277.836.524,1.684.825,2.514.371,1.007.736,2.02,1.1,3.027.259.707.553,1.39.836,2.084.31.762.6,1.544.94,2.3l-.015-.033.036.079,0,.009.033.072c-.007-.014-.014-.028-.02-.042l.033.072.019.043-.014-.032c.094.2.192.41.285.618l-.015-.032q.723,1.595,1.456,3.19l0-.007.017.035.083.182-.01-.024c.052.111.1.224.155.334l.01.024,0,.008-.017-.042.038.086.02.044-.007-.016c.016.035.032.069.049.1-.011-.02-.021-.042-.031-.063.475,1.052,1.04,2.075,1.562,3.108.232.461.47.921.7,1.381.056.161.112.321.167.482.388,1.154.83,2.29,1.266,3.432.453,1.178.889,2.368,1.4,3.522.76,1.7,1.484,3.427,2.332,5.094a37.9,37.9,0,0,0,4.045,6.618q.4.5.821.974a19.644,19.644,0,0,0,3.549,5.568,11.9,11.9,0,0,0,2.862,2.249,9.235,9.235,0,0,0,3.138,1.042,19.518,19.518,0,0,0,5.464-.2c.984-.135,1.967-.3,2.945-.471,2.471-.429,4.905-1.026,7.346-1.582-.294,1.983-.589,3.963-.863,5.952q-.768,5.52-1.284,11.076c-.353,3.774-.612,7.561-.706,11.347-.036,1.342-.065,2.673-.012,4.015a24.778,24.778,0,0,0,1.148,7.4,9.918,9.918,0,0,0,1.708,3.079,8.382,8.382,0,0,0,1.8,1.594,6.575,6.575,0,0,0,.666,1.245c1.219,1.713,3.333,2.584,5.252,3.285q2.615.963,5.271,1.784c1.654.513,3.327.96,4.993,1.425.98.278,1.964.536,2.945.8q-.942.849-1.885,1.7c-1.684,1.513-3.344,3.044-5.023,4.557q-4.114,3.7-8.214,7.414c-.589.53-1.16,1.071-1.737,1.613a23.331,23.331,0,0,0-2.933,3.015,3.707,3.707,0,0,0-.936,2.909,3.037,3.037,0,0,0,1.555,2.108,11.878,11.878,0,0,0,3.437,1.073c.366.335.741.662,1.12.978.789.659,1.652,1.238,2.441,1.9-.057.094-.116.187-.175.28-.328.436-.681.848-1.043,1.257-.73.745-1.506,1.436-2.3,2.11a58.867,58.867,0,0,1-5,3.563q-1.779,1.1-3.612,2.108c-1.154.624-2.35,1.178-3.527,1.754.064-.029.123-.058.188-.082-.724.325-1.443.672-2.162,1.008-.021.01-.043.02-.064.028l.038-.014c-1.522.684-3.045,1.361-4.584,2.011-.624.259-1.248.5-1.884.736-.771.288-1.531.618-2.314.865l.025-.006c-.069.021-.139.042-.208.065l.021-.006-.038.012.041-.011c-.248.077-.491.149-.733.225-.055.018-.109.036-.164.052l.019-.007-.087.027-.107.032.04-.011c-.579.179-1.157.363-1.736.541.065-.017.13-.041.194-.059-.1.031-.2.063-.3.095l.024-.007-.05.015h0l-.1.031c.033-.012.067-.022.1-.032a2.453,2.453,0,0,0-.82-.827,5.425,5.425,0,0,0-2.438-.565c-.471-.048-.942-.088-1.407-.13-.93-.088-1.861-.165-2.791-.218q-2.73-.159-5.458-.177c-3.64-.023-7.279.012-10.912.136-1.949.065-3.9.118-5.847.171-.971.029-1.943.064-2.915.076-.79.01-1.58.023-2.37.026-.125-.1-.249-.2-.372-.3-.245-.238-.478-.484-.7-.745-.17-.225-.333-.45-.49-.683-.189-.32-.364-.649-.528-.984a15.537,15.537,0,0,1-.57-1.514c-.161-.565-.293-1.139-.4-1.717a25.738,25.738,0,0,1-.311-3.072c-.019-.821,0-1.639.044-2.455q.82-2.062,1.614-4.131c.477-1.255.913-2.521,1.354-3.781-.024.059-.047.124-.071.189.324-.9.572-1.832.854-2.744.259-.848.46-1.72.683-2.586.412-1.6.778-3.227,1.1-4.851.359-1.879.718-3.751,1.03-5.636.3-1.808.555-3.617.8-5.43q.286-.9.574-1.794c.394-1.23.742-2.484,1.113-3.727.306-1.019.618-2.037.889-3.062q.671-2.49,1.336-4.982c.312-1.177.566-2.373.842-3.556.589-2.5,1.131-5,1.685-7.508.065-.3.131-.593.2-.89a1.064,1.064,0,0,0,.134-.443c.293-1.173.709-2.326,1.03-3.5.182-.665.371-1.331.524-2a12.636,12.636,0,0,0,.424-2.556,1.124,1.124,0,0,0-1.974-.765,11.833,11.833,0,0,0,.3-2.513,4.238,4.238,0,0,0-.242-1.46,3.785,3.785,0,0,0-.794-1.137,1.685,1.685,0,0,0-2.014-.324,1.618,1.618,0,0,0-.833,1.154,1.417,1.417,0,0,0-.174.23,3.11,3.11,0,0,0-.353,1.017c-.008.028-.016.057-.024.084a1.59,1.59,0,0,0,.824,1.844q-.05.267-.106.534c-.139.625-.282,1.249-.383,1.88s-.2,1.265-.323,1.895c-.236,1.26-.495,2.521-.766,3.775l.053-.224c-.2.908-.4,1.818-.6,2.726-.046-.961-.105-1.921-.168-2.882-.083-1.183-.247-2.355-.312-3.539v.035a1.238,1.238,0,1,0-2.468.118c.059,1.107.189,2.209.295,3.309.094,1.007.135,2.026.2,3.039-.006-.053-.006-.106-.012-.159.036,1.266.059,2.532.083,3.8.023,1.113-.03,2.226-.041,3.339-.022,1.345-.086,2.688-.158,4.03-.13.544-.255,1.089-.388,1.632q-1.1,4.523-2.226,9.033c-.989,3.957-1.978,7.908-3,11.853-.4,1.566-.807,3.133-1.189,4.7-.554,2.278-1.149,4.546-1.614,6.836-.07.346-.134.691-.2,1.036-.2.591-.405,1.181-.609,1.772.018-.065.041-.13.065-.2q-.7,1.865-1.384,3.727c-.412,1.107-.877,2.2-1.313,3.292-.831,2.075-1.807,4.088-2.809,6.094-.339.587-.673,1.175-1.013,1.762-.235.411-.453.842-.718,1.236l-.08.119c-.358-.112-.719-.214-1.073-.338A44.94,44.94,0,0,1,225.1,151.4a56.824,56.824,0,0,1-12.03-8.493,57.08,57.08,0,0,1-4.647-4.964c.014.018.027.036.041.053-.815-1-1.636-2.007-2.367-3.062-.359-.524-.713-1.042-1.072-1.56-.76-1.1-1.525-2.2-2.279-3.315.047.082.094.158.142.235-.972-1.584-1.949-3.156-2.921-4.734-.73-1.184-1.384-2.409-2.049-3.628C197.221,120.654,196.485,119.393,195.861,118.08Zm49.859,42.043q-1.028-.136-2.052-.294.682.006,1.365,0Q245.373,159.983,245.72,160.123Zm-9.659-5.079c.011-.02.022-.039.034-.058.73-1.272,1.389-2.585,2.066-3.886l.014-.029a15.105,15.105,0,0,0,1.653,4.369q-.6-.038-1.194-.08l.277.017C237.954,155.3,237.005,155.185,236.061,155.044Zm-32.919-14.176a42.7,42.7,0,0,1-2.754-3.829c-.8-1.285-1.517-2.609-2.181-3.967-.033-.1-.067-.206-.1-.31l.009.034-.028-.093-.037-.114.016.044c-.4-1.329-.8-2.659-1.155-4.005q.919,1.485,1.834,2.972c.978,1.584,2.067,3.1,3.121,4.628a58.928,58.928,0,0,0,7.626,9.092,57.777,57.777,0,0,0,6.047,5.076,63,63,0,0,0,5.477,3.592q-2.013-.851-3.96-1.85a47.807,47.807,0,0,1-5.08-3.1l.051.038a49.041,49.041,0,0,1-4.861-3.941A46.735,46.735,0,0,1,203.142,140.868Zm14.133,16.7a35.886,35.886,0,0,1-3.9-2.359,36.379,36.379,0,0,1-3.119-2.526c-1.31-1.229-2.5-2.558-3.705-3.882-.5-.61-1-1.221-1.494-1.837q-.154-.19-.308-.386a46.944,46.944,0,0,0,3.594,3.16,49.078,49.078,0,0,0,5.712,3.921,54.591,54.591,0,0,0,6.053,3,72.944,72.944,0,0,0,6.865,2.486c-.161.205-.325.409-.485.615.053-.059.112-.112.165-.171-.435.467-.864.942-1.3,1.413-1.016-.4-2.037-.806-3.066-1.178C220.607,159.087,218.913,158.4,217.275,157.567ZM154.6,187.33a33.938,33.938,0,0,1-2.959-1.821,28.513,28.513,0,0,1-2.339-1.878,27.737,27.737,0,0,1-2-2.114,25.292,25.292,0,0,1-1.626-2.263c-.37-.62-.712-1.248-1.03-1.895l.033.075-.035-.079,0-.006a22.3,22.3,0,0,1-.817-2.1c-.117-.423-.219-.848-.31-1.283-.056-.355-.1-.708-.128-1.067-.007-.367,0-.728.016-1.095.038-.313.086-.621.146-.93.047-.19.1-.375.159-.559.11-.3.231-.586.37-.873.08-.138.167-.268.251-.4.139-.081.279-.159.424-.227s.3-.117.447-.167c.175-.05.353-.095.531-.13h.008c.058-.012.115-.023.173-.032-.047.011-.095.019-.144.027.17-.025.339-.042.509-.053.227-.008.452,0,.674.01.153.014.307.034.459.06a9.479,9.479,0,0,1,1.008.282c.234.093.465.195.695.306a11.647,11.647,0,0,1,1,.624c.257.2.509.406.756.621.318.313.624.635.918.971a17.564,17.564,0,0,1,1.087,1.519c.329.564.631,1.134.914,1.721a25.907,25.907,0,0,1,.948,2.463c.315,1.051.574,2.107.783,3.183a30.651,30.651,0,0,1,.4,3.43c.026.888.011,1.771-.048,2.654q-.075.769-.191,1.527C155.317,187.661,154.953,187.512,154.6,187.33ZM98.443,168.169l.2-.019c.144,0,.288.01.432.023.112.019.226.035.341.055s.237.063.353.1c.1.042.2.086.3.131.111.063.22.13.327.2.168.127.329.264.486.409.141.141.279.288.41.439.169.217.33.435.482.662.186.326.358.657.52.992.235.559.448,1.123.64,1.7.2.676.36,1.363.5,2.055-.008-.042-.014-.085-.021-.127.01.054.019.108.028.162l.013.067-.01-.047a36.736,36.736,0,0,1,.466,4.122,54.413,54.413,0,0,1-.109,6.138,72.778,72.778,0,0,1-1.313,8.724c.005-.032.012-.065.018-.1-.24,1.092-.492,2.18-.766,3.264-.149-.133-.3-.266-.445-.4a35.162,35.162,0,0,1-2.55-2.7,29.9,29.9,0,0,1-2.051-2.842c.01.017.019.034.029.05-.566-.934-1.082-1.89-1.554-2.879a33.6,33.6,0,0,1-1.255-3.3q-.472-1.561-.787-3.159a27.888,27.888,0,0,1-.373-3.1v0c0-.064-.008-.126-.011-.19,0,.059.009.118.011.179-.015-.667,0-1.323.029-1.984.06-.629.147-1.246.266-1.862.119-.482.249-.96.4-1.434.175-.457.367-.907.581-1.353a17.091,17.091,0,0,1,.937-1.529c.187-.244.378-.48.577-.711.253-.257.507-.5.775-.741.211-.166.427-.323.653-.476q.183-.1.372-.192c.169-.074.338-.139.509-.2A4.672,4.672,0,0,1,98.443,168.169Zm-8.13,1.985c.108-.451.234-.891.38-1.334.127-.323.263-.64.412-.96.15-.275.311-.542.482-.807a13.332,13.332,0,0,1,.91-1.119c.229-.229.463-.448.7-.661.329-.262.663-.5,1.012-.74.42-.253.842-.481,1.284-.694.314-.128.626-.245.945-.351a7.708,7.708,0,0,1,.769-.191c.321-.052.642-.092.967-.122.353-.007.7,0,1.048.025.2.023.405.056.607.092.319.076.628.163.935.267.223.084.437.177.651.279a12.61,12.61,0,0,1,1.081.653c.264.2.519.412.769.635.339.337.657.679.963,1.043.241.309.468.628.69.952.352.579.665,1.168.957,1.776.269.611.506,1.223.723,1.854l-.03-.108.045.151.013.038-.009-.026a29.784,29.784,0,0,1,.768,3.138,40.781,40.781,0,0,1,.444,4.176c.062,1.568.051,3.126-.025,4.689-.041,1-.087,1.992-.134,2.992-.072.771-.148,1.542-.219,2.314-.065.671-.106,1.354-.194,2.025-.2,1.513-.348,3.045-.595,4.558q-.221,1.431-.454,2.861c-.094.595-.164,1.2-.288,1.79-.063.3-.124.6-.186.9-.129-.087-.263-.165-.39-.253-.2-.142-.4-.284-.59-.428q.093-.351.187-.7c.241-.924.477-1.843.689-2.773.406-1.761.777-3.533,1.066-5.318a56.99,56.99,0,0,0,.818-11.234,26.1,26.1,0,0,0-1.966-10.028,10.76,10.76,0,0,0-1.384-2.285,9.127,9.127,0,0,0-1.5-1.484,6.345,6.345,0,0,0-3.727-1.325,7.348,7.348,0,0,0-4.069,1.119,11.588,11.588,0,0,0-3.2,3.091,14.374,14.374,0,0,0-1.513,2.7C90.2,170.93,90.244,170.54,90.313,170.154Zm13.41,38.364c-.207.742-.507,1.466-.754,2.19-.237.694-.474,1.393-.716,2.087a59.756,59.756,0,0,1-2.628,5.856c-.717,1.347-1.486,2.668-2.334,3.94.01-.014.02-.028.031-.041l-.06.084c-.023.035-.046.07-.07.1l.045-.068a36.33,36.33,0,0,1-2.745,3.375c-1.18,1.248-2.435,2.421-3.73,3.547q-.514.448-1.033.9c.13-.166.267-.327.4-.494a76.544,76.544,0,0,0,6.283-9.363,79.371,79.371,0,0,0,4.7-10.028c.606-1.573,1.136-3.168,1.666-4.77q.348-1.053.7-2.1c.243.167.479.345.726.507.192.126.384.251.578.374Q104.253,206.569,103.723,208.518ZM217.917,173.04q-1.16,1.023-2.313,2.053c-.442.347-.884.69-1.326,1.039-.406.317-.8.671-1.225.959-.911.606-1.811,1.227-2.721,1.834q-1.428.829-2.849,1.67c-.843.488-1.72.925-2.58,1.378-1.6.853-3.227,1.695-4.871,2.474-.134.061-.264.119-.4.182.036-.017.071-.032.1-.046-.6.27-1.2.546-1.794.821.616-.31,1.232-.619,1.829-.951.931-.518,1.855-1.054,2.785-1.572.542-.306,1.09-.618,1.638-.924.214-.118.429-.235.636-.369l-.113.074c1.549-.948,3.086-1.914,4.629-2.862,1.366-.836,2.673-1.79,4-2.69,1.225-.831,2.4-1.726,3.586-2.615.613-.465,1.26-.9,1.849-1.4l.7-.589c-.18.177-.361.355-.539.534C218.6,172.369,218.276,172.728,217.917,173.04Zm94.064-22.462c-.671.648-1.395,1.246-2.1,1.853a65.62,65.62,0,0,1-5.472,3.965,44.45,44.45,0,0,1-4.353,2.381l.054-.025-.058.026-.13.062.118-.056c-1.395.64-2.816,1.2-4.265,1.718l-.282.087.054-.018-.1.033-.1.032.018,0c-.131.042-.262.083-.395.123.071-.024.135-.041.206-.065-.271.083-.542.171-.813.253.065-.018.136-.041.2-.058l-.529.162.046-.016-.168.054-.035.01-.32.1-.381.118.032-.012c-.188.06-.377.124-.565.183l.037-.013.027-.009-.01,0,.027-.01.037-.012c-1.084.329-2.2.618-3.3.889-1.148.282-2.3.595-3.45.842-1.178.247-2.35.542-3.528.765-1.2.231-2.393.446-3.584.671l.146-.029c-2.579.4-5.153.854-7.744,1.131l-2.414.265c-.565.059-1.131.147-1.69.183-1.364.1-2.723.2-4.081.305-1.278.055-2.555.073-3.833.124-.636.03-1.278,0-1.914-.006s-1.272-.006-1.908-.006c-2.587,0-5.169-.2-7.757-.3-.595-.051-1.186-.113-1.782-.166-.659-.058-1.336-.076-1.99-.182-1.319-.216-2.638-.455-3.963-.614-1.223-.288-2.452-.537-3.674-.829-1.243-.294-2.462-.695-3.692-1.036-.511-.137-1.016-.315-1.521-.482.524-.757,1.029-1.528,1.534-2.3.483.116.963.244,1.447.353,2.273.512,4.569.907,6.854,1.33a88.176,88.176,0,0,0,11.847,1.42,68.368,68.368,0,0,0,11.157-.382h.685c1.145,0,2.3-.073,3.44-.189.053,0,.106.008.158.01.657.029,1.313.041,1.968.041,2.14,0,4.273-.134,6.413-.272-.031,0-.061,0-.09,0,.76-.036,1.531-.142,2.285-.236.807-.106,1.608-.224,2.408-.365.76-.13,1.525-.277,2.279-.442.607-.13,1.231-.247,1.831-.424,1.69-.488,3.4-.93,5.076-1.478,1.785-.583,3.575-1.166,5.353-1.778.8-.271,1.6-.536,2.391-.83.73-.265,1.483-.5,2.2-.813.518-.224,1.036-.46,1.56-.689.289-.13.6-.247.878-.394.818-.442,1.678-.842,2.461-1.337l-.153.1c2.785-1.643,5.494-3.416,8.162-5.241.338-.232.664-.482,1-.717l-.026.031C313.469,149.118,312.73,149.851,311.981,150.578Z"/><path d="M217.1,39.338l-.037-.034-.009-.009Z"/></svg>