<svg xmlns="http://www.w3.org/2000/svg" width="273.159" height="233.224" viewBox="0 0 273.159 233.224"><path d="M132.27,226.637c.04,0,.079,0,.118,0l.106,0C132.418,226.631,132.341,226.637,132.27,226.637Z"/><path d="M125.41,226.932h.025l.2-.011C125.564,226.926,125.487,226.926,125.41,226.932Z"/><path d="M17.122,74.684h0l.023-.035C17.14,74.661,17.128,74.673,17.122,74.684Z"/><path d="M14.007,180.529v0c.026.056.056.111.082.167C14.06,180.647,14.036,180.588,14.007,180.529Z"/><path d="M273.015,113.442c-.023-.636,0-1.295-.07-1.925-.053-.542-.112-1.084-.165-1.626-.118-1.083-.23-2.167-.342-3.244-.059-.542-.088-1.09-.182-1.625-.283-1.6-.56-3.21-.842-4.817-.094-.53-.159-1.072-.277-1.6-.141-.618-.283-1.231-.424-1.849-.247-1.072-.5-2.149-.736-3.221-.094-.412-.177-.83-.288-1.236-.477-1.714-.96-3.433-1.437-5.147-.324-1.154-.713-2.273-1.107-3.4-.359-1.042-.719-2.079-1.084-3.121-.129-.383-.247-.778-.4-1.154-.671-1.649-1.343-3.292-2.008-4.941-1.107-2.714-2.332-5.37-3.521-8.049-.566-1.278-1.2-2.538-1.791-3.8-.524-1.1-1.036-2.2-1.589-3.286q-1.167-2.27-2.338-4.546c-.448-.865-.942-1.713-1.443-2.555-.447-.766-.907-1.519-1.389-2.261a46.948,46.948,0,0,0-3.392-4.652,42.452,42.452,0,0,0-9.027-7.991,63.263,63.263,0,0,0-8.126-4.575c-1.331-.619-2.65-1.284-4-1.849q-1.44-.593-2.88-1.2c-.436-.183-.865-.371-1.307-.536l-2.679-.99c-.542-.2-1.078-.429-1.625-.6-.825-.259-1.649-.512-2.468-.772-.583-.182-1.16-.394-1.749-.547-1.484-.383-2.961-.748-4.445-1.131-1.007-.259-2.049-.442-3.08-.624-.971-.171-1.949-.33-2.932-.447-1.461-.171-2.939-.348-4.411-.395q-2.464-.089-4.94-.165c-.654-.018-1.319.012-1.979.018-.912.006-1.825.011-2.744.023-2.914.03-5.823.206-8.732.377-2.944.171-5.877.483-8.809.8-1.456.152-2.91.32-4.363.495-.593.009-1.186.012-1.779.025-1.348.024-2.7.106-4.045.259-.73.083-1.46.165-2.185.306-.671.13-1.36.224-2.019.4-.836.224-1.678.406-2.5.671-.643.206-1.286.416-1.929.622-2.183.5-4.347,1.06-6.48,1.744-.736.241-1.49.453-2.22.724l-2.367.865c-1.189.436-2.361.943-3.521,1.449-2.679,1.183-5.341,2.385-7.973,3.645q-2.086,1-4.164,2c0-.436,0-.872.006-1.308.012-1.308.053-2.615.112-3.922.106-2.5.271-5.011.489-7.508l-.018.177c.135-1.49.283-2.98.424-4.47a38.652,38.652,0,0,0,.23-4.587,10.085,10.085,0,0,0-1.06-4.964,3.187,3.187,0,0,0-1.481-1.334c-.044-.138-.083-.278-.139-.41a4.25,4.25,0,0,0-.547-1.066,2.66,2.66,0,0,0-.954-.836,1.914,1.914,0,0,0-1-.177A2.693,2.693,0,0,0,120.958,8.8c-.282.387-.539.794-.8,1.194a5.059,5.059,0,0,0-.143-1.151,1.642,1.642,0,0,0-2.12-1.119,2.169,2.169,0,0,0-1,.942c-.212.324-.406.677-.606,1.019q.1-.672.211-1.343c.159-1.013.307-2.025.425-3.044.058-.459.094-.919.135-1.378a8.849,8.849,0,0,0,.023-1.855,3.308,3.308,0,0,0-.347-1.289,1.614,1.614,0,0,0-1.878-.69A2.152,2.152,0,0,0,113.851,1a1.265,1.265,0,0,0-.7.414,5.508,5.508,0,0,0-.589.754c-.147.253-.282.506-.406.777-.683,1.519-1.39,3.033-2.032,4.569-.288.683-.594,1.366-.853,2.061-.377.995-.76,2-1.137,3-.212.547-.383,1.106-.559,1.672-.336,1.083-.678,2.167-1.019,3.244-.147.471-.259.948-.377,1.425s-.233.97-.35,1.455c-.073.228-.146.457-.221.684-.271.831-.559,1.649-.8,2.485q-.459,1.581-.919,3.156c-.182.625-.394,1.249-.541,1.879-.212.919-.424,1.831-.636,2.744-.183.789-.407,1.578-.548,2.379-.277,1.513-.571,3.032-.807,4.557q-.315,2.073-.624,4.148c-1.744.083-3.487.189-5.228.3-.8.023-1.6.058-2.4.07h0c-2.833-.389-5.665-.753-8.509-1.03-1.208-.118-2.438-.2-3.651-.212-.772-.012-1.555-.059-2.326-.018-.683.036-1.372.082-2.061.124-.624.035-1.231.094-1.849.17-.683.083-1.372.136-2.055.248-1.39.235-2.779.447-4.163.73-1.5.3-2.986.606-4.469.948s-2.963.718-4.44,1.107-2.927.854-4.387,1.313c-1.437.454-2.827,1.036-4.228,1.59s-2.732,1.225-4.081,1.855c-1.331.618-2.614,1.337-3.91,2.026-1.272.683-2.5,1.448-3.739,2.2-.465.283-.942.548-1.39.854-.747.512-1.5,1.019-2.249,1.531-.483.33-.977.647-1.443,1-.73.548-1.46,1.1-2.184,1.648-.459.348-.931.684-1.366,1.054-.677.578-1.355,1.149-2.032,1.726-.418.353-.842.7-1.237,1.083-.689.66-1.377,1.325-2.06,1.985-1.06,1.024-2.02,2.143-3.009,3.238-.943,1.043-1.79,2.173-2.674,3.274-.394.5-.742,1.031-1.1,1.549-.459.642-.912,1.283-1.366,1.925-.726,1.026-1.38,2.108-2.061,3.163-.583.889-1.125,1.8-1.678,2.708-.318.524-.666,1.043-.96,1.584-.4.719-.8,1.443-1.2,2.161-.324.577-.677,1.155-.966,1.749-.33.695-.659,1.39-1,2.085-.295.624-.636,1.242-.895,1.884L7.5,92.138c-.282.695-.588,1.378-.842,2.084-.235.666-.471,1.337-.712,2s-.5,1.349-.719,2.032c-.247.765-.488,1.537-.73,2.3-.465,1.472-.877,2.95-1.284,4.44-.394,1.425-.712,2.868-1.048,4.3-.324,1.395-.559,2.8-.806,4.2-.1.542-.218,1.089-.283,1.643-.094.883-.194,1.766-.294,2.65-.071.659-.171,1.319-.212,1.984-.047.76-.095,1.525-.142,2.285C.258,124.942.163,127.816.1,130.7c-.065,2.862-.136,5.724-.077,8.58.029,1.454.029,2.9.13,4.351.1,1.472.159,2.956.335,4.422.171,1.449.3,2.909.536,4.352s.418,2.92.724,4.357c.212,1.007.418,2.014.63,3.021.1.436.189.872.307,1.3.276.99.553,1.985.83,2.974.118.43.235.854.383,1.272q.52,1.431,1.042,2.862c.159.429.3.866.489,1.283l.284.637.105.643c.094.607.165,1.225.3,1.826.194.83.383,1.654.571,2.485.33,1.436.76,2.837,1.172,4.251.771,2.655,1.766,5.253,2.708,7.849.43,1.178.9,2.355,1.39,3.5.565,1.319,1.125,2.644,1.737,3.951.666,1.413,1.343,2.808,2.055,4.2.672,1.314,1.39,2.6,2.108,3.892.318.578.678,1.137,1.025,1.7.312.525.612,1.06.96,1.566.812,1.2,1.613,2.409,2.491,3.569.441.589.871,1.2,1.342,1.767.53.635,1.06,1.271,1.59,1.9.389.471.8.907,1.219,1.354s.818.9,1.246,1.317a.322.322,0,0,0-.039-.033c1.025.959,2.02,1.937,3.1,2.832.536.442,1.054.925,1.625,1.331.7.494,1.4,1,2.1,1.5a35.212,35.212,0,0,0,3.174,2c2.508,1.414,5.028,2.844,7.655,4.046a33.76,33.76,0,0,0,3.309,1.36,29.229,29.229,0,0,0,5.1,1.195c1.366.189,2.738.36,4.11.465.4.031.8.052,1.2.076a35.941,35.941,0,0,0,3.644,1.389,21.508,21.508,0,0,0,2.444.653,30.93,30.93,0,0,0,3.115.431q1.306.1,2.62.1c1.172,0,2.344-.059,3.516-.147,1.7-.135,3.415-.318,5.093-.612l-.029,0c3.064-.512,6.116-1.046,9.174-1.57l-.212.036c.106-.023.212-.042.318-.059.147-.024.294-.051.442-.074.166-.028.335-.057.5-.09l.286-.048c.064,0,.128,0,.193,0,2.261-.112,4.516-.371,6.778-.512.17-.012.341-.018.512-.03a.042.042,0,0,1-.017.005c.261-.013.521-.024.784-.036l-.025,0c.312-.012.624-.029.93-.041-.076.006-.159.006-.235.012,2.131-.089,4.269-.054,6.4-.042,1.973.012,3.957.047,5.93.212a1.329,1.329,0,0,1-.153-.018c.713.065,1.419.124,2.132.183l-.23-.018c1.048.094,2.09.224,3.138.283.648.029,1.308.106,1.955.1.542-.006,1.078-.017,1.62-.029,1.949-.03,3.88-.194,5.818-.3.824-.035,1.648-.082,2.473-.118-.071,0-.148.006-.224.006l.5-.017c-.071,0-.148,0-.224,0l.871-.034c-.076.005-.147.005-.224.011.848-.035,1.7-.071,2.55-.112a.057.057,0,0,1-.022,0c.282-.009.567-.022.847-.036l-.048,0,.854-.036h-.041c4.41-.129,8.8.271,13.184.548,3.115.209,6.252.377,9.379.377h.16c1.143,0,2.285-.018,3.422-.071h-.042c1.066-.023,2.12-.064,3.18-.112-.071.006-.147.006-.218.012,3.192-.047,6.383-.023,9.575-.023,1.285,0,2.569-.058,3.85-.142,1.18.134,2.358.262,3.54.352q2.419.194,4.84.365c1.3.094,2.6.206,3.9.259.93.035,1.861.1,2.791.088.824-.012,1.649-.023,2.461-.1.942-.082,1.873-.206,2.8-.353,1.431-.224,2.85-.548,4.257-.878a38.021,38.021,0,0,0,8.35-2.873c1.037-.512,2.055-1.054,3.045-1.661.759-.459,1.542-.912,2.261-1.437.624-.453,1.248-.894,1.872-1.342,1.172-.836,2.285-1.743,3.4-2.65a40.659,40.659,0,0,0,3.957-3.774c.771-.836,1.537-1.684,2.249-2.574.978-1.219,1.979-2.419,2.933-3.656q1.615-2.085,3.226-4.181c1.679-2.173,3.41-4.316,5.153-6.442.877-1.072,1.761-2.138,2.632-3.215.654-.818,1.313-1.631,1.967-2.449.33-.407.677-.807.989-1.225q1.537-2.051,3.08-4.105c.824-1.095,1.578-2.243,2.355-3.374,3.327-4.811,6.46-9.763,9.5-14.762.383-.618.8-1.237,1.142-1.878.3-.542.6-1.09.9-1.632.683-1.248,1.419-2.478,2.037-3.762q1.183-2.464,2.367-4.923c.595-1.242,1.072-2.544,1.6-3.81.477-1.142.948-2.272,1.366-3.439.577-1.619,1.154-3.232,1.737-4.851.2-.56.347-1.143.524-1.708.294-.978.6-1.949.895-2.921.377-1.242.689-2.5,1.007-3.757.583-2.267,1.142-4.528,1.554-6.836a73.682,73.682,0,0,0,1.143-12.2C273.175,117.14,273.074,115.285,273.015,113.442ZM132.326,38.866q-2.56,1.614-5.12,3.228a1.6,1.6,0,0,0-.337.3c-.9.3-1.793.6-2.695.886-1.172.323-2.332.642-3.51.924-.471.106-.942.212-1.413.306.353-.106.707-.206,1.06-.306.677-.188,1.331-.442,1.99-.683.618-.224,1.219-.506,1.826-.771.653-.277,1.3-.589,1.943-.9,1.319-.63,2.632-1.266,3.951-1.9C130.784,39.579,131.559,39.231,132.326,38.866ZM105.577,42.26a1.287,1.287,0,0,0-.323-.98c-.006-.029-.012-.052-.018-.076-.024-.177-.041-.359-.047-.536a21.062,21.062,0,0,1,.082-2.29v.064c.43-4.793,1.313-9.527,2.2-14.244q.425-1.773.847-3.55c.212-.645.422-1.291.637-1.936q.84-2.323,1.661-4.64c-.018.053-.036.105-.053.153.359-.972.76-1.932,1.142-2.9.3-.76.624-1.5.954-2.25.285-.644.592-1.274.889-1.909-.018.371-.026.742-.047,1.113-.047.865-.088,1.725-.135,2.585-.029.5-.057,1-.088,1.506,0,.027-.009.053-.012.079-.071.495-.142.995-.189,1.5-.029.265-.047.536-.065.8a1.974,1.974,0,0,0,.03.642,1.068,1.068,0,0,0,.052.147c0,.062-.008.124-.011.187-.023.506-.053,1.007-.076,1.513-.03.53-.036,1.054-.024,1.584a4.658,4.658,0,0,0,.141,1.242,2.054,2.054,0,0,0,1.473,1.549,1.9,1.9,0,0,0,1.118-.224,3.2,3.2,0,0,0,.895-.724,10.333,10.333,0,0,0,.984-1.378c.3-.483.577-.971.848-1.466.182-.321.359-.643.535-.964a1.307,1.307,0,0,0,.536-.024,3.272,3.272,0,0,0,.913-.424,4.344,4.344,0,0,0,.707-.695c.612-.653,1.148-1.366,1.748-2.025-.041.041-.076.082-.117.123.232-.244.462-.485.7-.72.141,1.19.2,2.393.265,3.593.017.971.058,1.954.053,2.932-.024,3.38-.118,6.748-.224,10.122-.106,3.256-.1,6.519-.336,9.769a1.019,1.019,0,0,0,.005.111c-.126.058-.25.119-.375.177-.507.217-1.013.453-1.525.647-.507.177-1.013.36-1.526.542-.488.141-.989.318-1.484.424s-.983.194-1.466.288c-1,.136-1.972.242-2.973.324-.878.071-1.761.1-2.644.142C109.35,42.205,107.464,42.23,105.577,42.26Zm11.135-27.929c.259-.471.519-.948.772-1.425.035-.065.07-.124.1-.189v.524c0,.338,0,.682-.006,1.025-.157.279-.318.554-.471.835-.542.995-1.078,2-1.672,2.956.01-.667.041-1.332.075-2a3.315,3.315,0,0,0,.737-.888C116.406,14.9,116.559,14.613,116.712,14.331ZM73.557,46.467c.871-.247,1.737-.471,2.62-.683.683-.171,1.384-.277,2.079-.394.594-.065,1.189-.13,1.784-.2.506-.023,1.019-.07,1.525-.047.483.012.966.035,1.448.053.76.077,1.514.165,2.274.271.653.088,1.307.194,1.96.277a35.63,35.63,0,0,0,4.817.388c1.137-.017,2.267-.046,3.4-.094.83.124,1.666.254,2.5.389,1.29.2,2.579.424,3.869.618,1.519.224,3.044.483,4.575.625.725.064,1.443.135,2.161.2.736.064,1.478.076,2.215.112.712.029,1.436-.018,2.155-.024.753-.006,1.519-.106,2.278-.165s1.5-.2,2.25-.3c.642-.094,1.278-.236,1.913-.359q2.042-.407,4.04-.972c1.2-.338,2.38-.716,3.559-1.118a1.93,1.93,0,0,0,2.271.331q5.149-2.977,10.24-6.06c1.8-1.083,3.609-2.131,5.435-3.161,1.631-.913,3.327-1.714,5.011-2.515.742-.324,1.484-.677,2.243-.948.8-.287,1.591-.579,2.393-.865h0l.009,0,.009,0h0q1.079-.333,2.168-.666c.359-.106.736-.182,1.1-.276.388-.1.783-.224,1.178-.295.712-.124,1.43-.253,2.149-.383.765-.076,1.531-.159,2.3-.241.059,0,.124,0,.189-.006h.006c.094,0,.188-.006.276-.012h-.059c.131,0,.261-.009.389-.015l-.159.009c.336-.017.677-.029,1.013-.041.135-.006.277-.018.418-.023h.018c.082,0,.17-.006.253-.012a.246.246,0,0,1-.037,0c.8-.021,1.612-.016,2.41-.01.977.006,1.949.006,2.926.018,2.1.035,4.211.1,6.313.194,2.267.212,4.534.424,6.783.836,2.208.412,4.428.813,6.625,1.284a.24.24,0,0,1-.028,0c.645.139,1.3.282,1.942.427l.312.07.115.025c.234.055.47.106.709.158.118.024.241.047.365.076l.113.026-.007,0,.024.006.259.059-.155-.033c1.19.3,2.405.534,3.588.869,1.236.347,2.5.63,3.715,1.019,1.237.388,2.491.748,3.716,1.165,1.166.4,2.332.813,3.5,1.219,3.562,1.355,7.113,2.756,10.552,4.405,3.5,1.672,6.954,3.409,10.428,5.123.96.506,1.914,1.013,2.874,1.519a50.147,50.147,0,0,1,5.14,3.18,37.249,37.249,0,0,1,3.268,2.679,40.088,40.088,0,0,1,3.234,3.485,44.841,44.841,0,0,1,2.972,4.222c.944,1.572,1.792,3.189,2.592,4.847.83,1.861,1.666,3.734,2.414,5.624q1.307,3.312,2.555,6.642c.813,2.173,1.561,4.363,2.32,6.548.641,1.84,1.174,3.719,1.754,5.578l0-.019c.014.042.026.084.039.126l0,.009v0c.007.027.015.053.024.08s.012.046.018.064l0-.011c.855,2.922,1.71,5.851,2.571,8.767.43,1.466.86,2.939,1.29,4.405.182.63.4,1.26.541,1.9q.247,1.122.5,2.226c.483,3.215.889,6.43,1.054,9.68a77.162,77.162,0,0,1-.147,7.826c-.171,1.884-.342,3.774-.507,5.659-.135,1.018-.259,2.031-.394,3.044-.088.7-.183,1.4-.271,2.1-.041.318-.065.642-.124.954-.359,1.884-.724,3.757-1.077,5.641q-.636,2.456-1.26,4.9c-.171.666-.424,1.325-.636,1.985-.224.718-.46,1.437-.695,2.155q-.5,1.316-1.007,2.644c-.306.806-.671,1.6-1.007,2.4-.659,1.59-1.384,3.163-2.084,4.734-1.549,3.475-3.086,6.937-4.817,10.323-.795,1.484-1.614,2.956-2.5,4.381-.93,1.49-1.925,2.926-2.926,4.364-2.839,3.9-5.677,7.8-8.644,11.6q-1.185,1.519-2.379,3.038c-.689.883-1.355,1.79-2.067,2.65-.836,1.007-1.684,2.008-2.526,3.009-.9,1.072-1.791,2.143-2.739,3.174a58.318,58.318,0,0,1-4.979,4.738l0,0-.01.009h0l-.032.026-.044.036a.291.291,0,0,0,.027-.024c-.3.242-.613.462-.918.7l.57-1.278c.271-.607.5-1.237.748-1.855.577-1.437,1.166-2.862,1.684-4.31.7-1.962,1.4-3.928,2.1-5.883.129-.359.241-.718.353-1.083q.5-1.581,1.007-3.163c2.114-6.636,4.134-13.308,6.165-19.973.984-3.233,1.89-6.489,2.821-9.745.3-1.054.571-2.1.83-3.174q.795-3.3,1.6-6.595c.094-.383.2-.766.265-1.16q.2-1.149.394-2.3.548-3.171,1.089-6.348c.053-.306.089-.612.124-.918.112-.978.218-1.955.33-2.933q.336-2.949.665-5.9c.041-.382.053-.765.077-1.154.059-1.048.117-2.1.176-3.15q.168-2.88.336-5.765c.018-.371.006-.748.006-1.119.006-1.077.012-2.161.018-3.238.011-1.908.017-3.81.029-5.718.006-.819-.041-1.643-.071-2.455-.041-1.149-.088-2.3-.159-3.439-.147-2.45-.376-4.888-.706-7.314a67.368,67.368,0,0,0-3.262-13.767,53.12,53.12,0,0,0-6.272-12.36,48.354,48.354,0,0,0-4.316-5.3,19.707,19.707,0,0,0-2.5-2.373,2.387,2.387,0,0,0-1.7-.625c.035,0,.064.006.1.006a1.242,1.242,0,0,0-1.213,1.049,1.258,1.258,0,0,0,1.048,1.43c.029.006.059.006.094.012.047.029.089.059.136.089a12.118,12.118,0,0,1,.942.806,47.093,47.093,0,0,1,3.63,4,45.187,45.187,0,0,1,3.13,4.429l-.009-.017a.922.922,0,0,0,.05.081,51.8,51.8,0,0,1,2.773,5.253.358.358,0,0,0-.011-.035,58.889,58.889,0,0,1,2.573,6.8,67.165,67.165,0,0,1,1.835,7.665,97.172,97.172,0,0,1,1.25,12.227v-.018c.042,1.048.077,2.09.106,3.133.042,1.772-.011,3.556-.023,5.329s-.024,3.55-.041,5.329c0,.465-.053.93-.083,1.389-.065,1.137-.135,2.267-.2,3.4-.1,1.69-.206,3.374-.306,5.058-.365,3.115-.707,6.236-1.072,9.351-.053.477-.165.954-.247,1.431-.183,1.042-.359,2.084-.542,3.132-.265,1.52-.542,3.027-.8,4.546-.595,2.4-1.172,4.8-1.761,7.2-.158.659-.3,1.331-.488,1.984-.318,1.119-.642,2.232-.96,3.351q-.822,2.844-1.637,5.688c-.4,1.395-.842,2.768-1.26,4.151q-1.519,4.972-3.05,9.94c-1.037,3.362-2.109,6.718-3.174,10.075-.925,2.921-1.979,5.8-3.033,8.686-.553,1.413-1.119,2.808-1.678,4.2-.465,1.16-.983,2.3-1.49,3.439-.425.956-.876,1.9-1.327,2.845q-1.553.94-3.119,1.865c-.848.506-1.725.959-2.591,1.425-.924.5-1.843,1.007-2.791,1.46-1.118.536-2.231,1.089-3.356,1.608-1.242.494-2.485.983-3.733,1.478-.53.212-1.1.347-1.643.518-.571.183-1.142.359-1.72.542l.035-.009a.245.245,0,0,0-.035.015c-.047.011-.094.029-.147.041l.069-.02c-2.518.692-5.047,1.328-7.559,2.016-1.466.4-2.938.777-4.416,1.142-1.178.295-2.373.583-3.574.789.076-.011.147-.023.217-.035-.942.159-1.89.318-2.832.483.071-.018.147-.03.218-.042-.924.124-1.855.289-2.785.36s-1.849.141-2.774.218c-.379.009-.757.013-1.136.022-1.074-.18-2.148-.348-3.222-.542-2.543-.454-5.087-.9-7.643-1.29-2.9-.442-5.818-.836-8.726-1.278-2.968-.441-5.93-.906-8.909-1.254-.778-.088-1.555-.2-2.332-.265-.713-.059-1.431-.106-2.15-.165-.659-.047-1.319-.124-1.978-.147l-2.591-.089c-2.968-.1-5.936-.111-8.9-.146-1.467-.018-2.933.017-4.4.029s-2.932.135-4.4.218c-1.413.076-2.809.271-4.216.442-.636.076-1.283.129-1.919.247-.766.141-1.531.276-2.3.418-1.342.253-2.685.494-4.022.783q-2.119.459-4.251.9-3.389.693-6.79,1.325l-.894.067c-1.031.07-2.061.135-3.092.212.083,0,.165-.006.248-.006-.848.029-1.684.059-2.532.041-.725-.012-1.437-.065-2.156-.118-1.772-.189-3.533-.359-5.311-.465-1.6-.089-3.2-.089-4.8-.029-3.327.111-6.648.435-9.981.588-1.425.035-2.85.077-4.281.077-1.229-.006-2.463-.071-3.693-.148q-.969-.451-1.936-.908c-1.19-.559-2.373-1.125-3.563-1.684s-2.4-1.142-3.6-1.708c-1.136-.53-2.243-1.137-3.356-1.708-.542-.317-1.089-.624-1.631-.93-.554-.324-1.143-.612-1.678-.966-1.09-.706-2.173-1.413-3.263-2.119-.477-.359-.959-.719-1.436-1.072-.389-.289-.778-.577-1.16-.866-.142-.106-.289-.2-.419-.312-.953-.836-1.919-1.666-2.873-2.5-.453-.447-.907-.9-1.354-1.348-.407-.412-.848-.8-1.225-1.23-.795-.919-1.6-1.826-2.385-2.733-.471-.606-.96-1.207-1.437-1.8-.359-.453-.742-.889-1.077-1.36-1.037-1.46-2.1-2.9-3.051-4.41a60.7,60.7,0,0,1-3.215-6c-.594-1.359-1.2-2.717-1.766-4.087-.585-1.4-1.14-2.808-1.764-4.189-.644-1.423-1.288-2.84-1.939-4.263-.664-1.449-1.418-2.868-2.121-4.3-.688-1.4-1.394-2.787-2.088-4.181-.333-.741-.663-1.486-1-2.231-.062-.136-.128-.272-.192-.408-.149-.912-.288-1.826-.4-2.746s-.247-1.85-.324-2.78c-.088-1.125-.176-2.249-.265-3.38-.288-3.621-.459-7.249-.653-10.881v.082c-.147-4.075-.271-8.144-.307-12.225-.017-2.1.018-4.2.047-6.306.03-1.855.171-3.71.266-5.565.076-.765.153-1.53.235-2.3.071-.736.112-1.484.224-2.214.23-1.5.418-3.015.707-4.505.583-3.032,1.219-6.047,1.86-9.068l-.017.089q.5-2.05.995-4.093a71.854,71.854,0,0,1,2.178-7.248c-.023.052-.041.111-.064.164a57,57,0,0,1,2.873-6.571c-.005.015-.011.031-.018.047a59.742,59.742,0,0,1,3.969-6.395c2.185-3.021,4.617-5.847,7.013-8.7.683-.813,1.42-1.59,2.132-2.379.83-.913,1.661-1.831,2.485-2.744,1.1-1.125,2.214-2.232,3.315-3.356q2.578-2.6,5.388-4.923a56,56,0,0,1,5.559-4.075q1.523-.96,3.047-1.925h0c1.354-.748,2.721-1.473,4.081-2.215.6-.329,1.254-.588,1.872-.877l1.961-.919c1.917-.769,3.828-1.555,5.8-2.182l-.014,0,.039-.012.038-.012-.008,0c1.049-.31,2.1-.585,3.176-.8.662-.11,1.324-.191,1.986-.235,1.09-.021,2.176.047,3.261.106a1.314,1.314,0,0,0,1.336-1.272,1.231,1.231,0,0,0-.034-.183C72.753,46.7,73.156,46.581,73.557,46.467ZM3.567,149.126c-.112-.942-.23-1.885-.3-2.827q-.132-1.89-.259-3.768c-.035-1.761-.094-3.521-.076-5.27.023-2,.047-3.987.088-5.983q.079-3.109.188-6.218c.059-1.719.189-3.445.295-5.164.082-.73.165-1.454.247-2.179.059-.553.124-1.113.183-1.672.023-.206.035-.418.07-.624.254-1.473.519-2.951.778-4.422q.477-2.032.942-4.058c.147-.63.342-1.254.512-1.878.195-.7.365-1.419.583-2.114s.436-1.384.654-2.079c.194-.612.371-1.236.583-1.837.465-1.307.936-2.614,1.395-3.922.283-.677.554-1.354.83-2.031.254-.63.483-1.284.772-1.9.624-1.313,1.248-2.614,1.873-3.922q.866-1.554,1.725-3.109c.471-.848,1-1.672,1.5-2.5,1.113-1.825,2.285-3.615,3.457-5.411-.006,0-.006.006-.012.012.736-1.036,1.466-2.073,2.2-3.115l0,.007c.009-.014.019-.027.027-.042.029-.036.053-.071.077-.1-.018.018-.03.042-.048.059.371-.494.784-.959,1.166-1.436.359-.448.7-.919,1.078-1.343q1.325-1.475,2.655-2.944l-.129.147c.524-.506,1.042-1.013,1.566-1.519.465-.442.907-.93,1.4-1.343q1.536-1.3,3.074-2.608l1.855-1.4c.5-.377.995-.783,1.513-1.136,1.2-.825,2.408-1.637,3.609-2.456,1.107-.653,2.2-1.319,3.3-1.978.83-.5,1.69-.937,2.55-1.39s1.719-.936,2.608-1.348q1.688-.787,3.38-1.567c.949-.378,1.9-.742,2.85-1.109l-.058.028c-.831.382-1.667.771-2.5,1.154-.46.212-.9.477-1.343.718-1.2.654-2.426,1.272-3.586,2-1.59,1-3.209,1.967-4.734,3.068-1.613,1.16-3.18,2.373-4.682,3.669-1.095.936-2.2,1.878-3.214,2.9Q32.32,65.082,30.424,67c-.777.783-1.513,1.59-2.255,2.414-1.06,1.178-2.161,2.326-3.192,3.539-2.62,3.092-5.287,6.177-7.6,9.51a54.7,54.7,0,0,0-5.7,10.211,65.87,65.87,0,0,0-3.132,9.462q-.574,2.359-1.148,4.7c-.365,1.49-.654,3-.984,4.5-.306,1.407-.565,2.826-.842,4.24-.271,1.377-.465,2.767-.689,4.151s-.341,2.791-.488,4.192c-.148,1.349-.23,2.692-.307,4.046-.147,2.7-.235,5.4-.223,8.1.011,2.968.011,5.942.111,8.91q.142,4.557.354,9.109c.009.207.024.414.034.622-.142-.872-.285-1.744-.423-2.614C3.779,151.111,3.685,150.115,3.567,149.126Zm28.689,66.182c-.684-.618-1.361-1.248-2.044-1.873-.683-.712-1.407-1.389-2.049-2.131s-1.3-1.519-1.943-2.285c-.548-.706-1.1-1.419-1.649-2.131-.048-.064-.091-.134-.139-.2.03.038.062.075.092.113.453.571.912,1.143,1.354,1.714s.948,1.1,1.419,1.642c.377.436.73.9,1.137,1.308q.874.893,1.754,1.778c.354.359.689.736,1.072,1.066q1,.874,2,1.743c.348.306.677.624,1.048.9.186.139.371.283.556.424-.091-.063-.182-.123-.273-.187C33.822,216.556,33,215.973,32.256,215.308Zm113.128,11.83a123.772,123.772,0,0,0-13-.5l-.759.032c.076-.006.153-.006.229-.012-.624.029-1.242.053-1.86.076.076,0,.153-.006.223-.006-1.593.053-3.187.13-4.786.206s-3.189.191-4.792.27l.016,0c-.831.012-1.673.077-2.5.03-.807-.041-1.613-.094-2.426-.141q-2.462-.255-4.938-.457c.635-.114,1.269-.227,1.9-.358,1.572-.2,3.15-.383,4.723-.571.206-.029.424-.029.636-.041.559-.029,1.118-.065,1.678-.094.7-.047,1.4-.088,2.095-.129l-.011,0c1.62,0,3.233-.065,4.852-.053,1.767.012,3.533.023,5.3.047,1.931.024,3.851.076,5.782.136,1.508.046,3.027.176,4.535.3l1.849.212c2.991.336,5.971.777,8.95,1.213.591.087,1.182.168,1.773.252-.893-.006-1.787-.018-2.68-.062C149.912,227.373,147.645,227.279,145.384,227.138ZM210.21,222.8a41.709,41.709,0,0,1-4.281,2.314,36.8,36.8,0,0,1-3.71,1.414c-1.407.417-2.832.771-4.257,1.107-.907.206-1.826.359-2.739.541a35.037,35.037,0,0,1-3.6.418.277.277,0,0,1,.029,0c-1.176.036-2.349.017-3.521-.03q1.679-.425,3.351-.882,2.022-.546,4.045-1.1c1.237-.342,2.5-.625,3.727-1.007,1.331-.418,2.692-.789,3.993-1.308,1.325-.53,2.667-1.019,3.951-1.631s2.626-1.2,3.892-1.872c.842-.454,1.678-.907,2.52-1.36.349-.187.7-.373,1.045-.561a1.415,1.415,0,0,0,.3.616c-.208.171-.415.346-.629.5C212.959,220.924,211.617,221.9,210.21,222.8Zm59.143-98c.006-.041.012-.082.017-.118-.079.837-.167,1.672-.269,2.5a68.89,68.89,0,0,0,.329-8.415c-.047-1.372-.094-2.744-.236-4.11-.094-.93-.188-1.855-.282-2.785-.136-1.3-.318-2.585-.5-3.875-.112-.818-.336-1.637-.506-2.449-.112-.524-.283-1.037-.424-1.549-.377-1.319-.754-2.632-1.137-3.951q-1.351-4.62-2.691-9.239c-.347-1.195-.724-2.379-1.095-3.574-.383-1.237-.754-2.48-1.172-3.71-.512-1.478-.989-2.974-1.531-4.44-.559-1.531-1.125-3.056-1.684-4.581-.948-2.585-2-5.123-3.091-7.649a57.08,57.08,0,0,0-3.469-6.984,43.458,43.458,0,0,0-7.142-9.068,52.223,52.223,0,0,0-12.431-8.32c-2.461-1.267-4.917-2.544-7.4-3.763-2.62-1.284-5.234-2.556-7.92-3.7q-4.125-1.749-8.349-3.227c-1.384-.483-2.78-.924-4.181-1.36s-2.827-.807-4.252-1.19c-2.7-.73-5.452-1.254-8.184-1.849-.864-.186-1.739-.34-2.612-.5,1.191-.031,2.387-.022,3.583-.027,1.119-.006,2.226.011,3.35.046,1.6.054,3.2.1,4.8.224a66.457,66.457,0,0,1,8.109,1.266c.73.183,1.466.377,2.2.566s1.5.341,2.232.577l4.2,1.325,3.622,1.36c1.089.406,2.155.883,3.226,1.337.984.412,1.949.836,2.915,1.289,1.472.7,2.939,1.372,4.381,2.12a.419.419,0,0,0-.064-.029A63.427,63.427,0,0,1,238.2,40.9V40.9a48.719,48.719,0,0,1,4.047,3.263,42.1,42.1,0,0,1,3.679,3.932,51.24,51.24,0,0,1,3.238,4.629c1.785,2.914,3.3,5.977,4.852,9.021.472.93.89,1.89,1.337,2.838.5,1.048,1,2.108,1.49,3.168.807,1.79,1.6,3.58,2.385,5.376.6,1.348,1.142,2.721,1.7,4.087.606,1.489,1.242,2.968,1.766,4.481.618,1.8,1.237,3.609,1.873,5.405.5,1.767.989,3.533,1.484,5.306.382,1.378.677,2.773,1,4.169.306,1.342.624,2.667.859,4.021.295,1.691.583,3.38.884,5.076.212,2.073.441,4.14.653,6.219,0-.077-.006-.148-.006-.224.053,1.666.118,3.338.171,5.011A67.989,67.989,0,0,1,269.353,124.8Z"/><path d="M15.88,184.639c.023.052.044.1.067.157l.009.02C15.933,184.757,15.9,184.7,15.88,184.639Z"/><path d="M89.285,230.786c-.03,0-.059.011-.088.015l-.118.021Z"/><path d="M55.847,207.1c-1.16-2.414-2.326-4.816-3.427-7.248.018.046.041.088.059.135-1.072-2.373-2.114-4.758-3.021-7.2s-1.715-4.9-2.485-7.387c-.594-1.948-1.083-3.932-1.607-5.9q-.849-3.162-1.69-6.33c-.083-.312-.183-.618-.247-.93-.107-.536-.213-1.066-.318-1.6-.731-3.639-1.42-7.284-2.179-10.917q-.327-2.279-.66-4.552-.485-3.356-.965-6.7c-.065-.418-.148-.842-.183-1.266s-.071-.865-.112-1.3q-.273-3.392-.547-6.778c-.089-1.019-.171-2.037-.254-3.05-.035-.465-.082-.93-.106-1.39v.041a135.794,135.794,0,0,1,.289-17.235c-.006.053-.012.1-.018.153.224-2.508.507-5.011.907-7.5.389-2.391.86-4.758,1.343-7.125l-.006.022c.468-2.107.976-4.2,1.46-6.293.271-1.166.53-2.326.848-3.48q.848-3.109,1.7-6.218c.377-1.384.842-2.744,1.272-4.11.747-2.375,1.488-4.744,2.332-7.085l-.008.021a37.715,37.715,0,0,1,1.821-4.272c-.029.048-.053.095-.082.148a17.435,17.435,0,0,1,1.024-1.749,1.29,1.29,0,0,0,1.249-1.249,1.45,1.45,0,0,0-.8-1.377,1.965,1.965,0,0,0-2.285.936,12.445,12.445,0,0,0-1.036,1.66c-.289.53-.565,1.066-.813,1.608-.559,1.242-1.06,2.508-1.513,3.792-.984,2.78-1.843,5.594-2.726,8.409l-.654,2.1c-.165.512-.289,1.036-.424,1.555q-.813,2.985-1.625,5.976c-.094.348-.171.7-.253,1.054-.242,1.048-.477,2.091-.719,3.133Q38.986,99.3,38.6,101c-.129.547-.271,1.1-.383,1.654-.477,2.367-.954,4.74-1.331,7.125s-.671,4.8-.877,7.214a129,129,0,0,0-.43,14.462c.036,1.33.053,2.667.159,3.992l.2,2.314c.194,2.356.382,4.711.577,7.06.082,1,.129,2.014.27,3.009.289,1.943.566,3.893.848,5.835.289,1.973.578,3.952.866,5.924.136.966.353,1.914.542,2.868q.7,3.48,1.395,6.954c.177.89.354,1.778.536,2.674.053.271.094.547.165.818q1.529,5.654,3.032,11.312c.171.63.348,1.26.542,1.884.725,2.344,1.484,4.675,2.332,6.978.836,2.267,1.773,4.493,2.762,6.695.583,1.3,1.166,2.609,1.778,3.892,2.155,4.493,4.334,8.98,6.5,13.461a1.148,1.148,0,0,0,1.042.619,1.13,1.13,0,0,0,.548-.136,1.188,1.188,0,0,0,.477-1.584Q57.991,211.561,55.847,207.1Z"/><path d="M64.957,100.932a1.1,1.1,0,0,0,.105-.359,1.3,1.3,0,0,0-.53-1.125,1.071,1.071,0,0,1-.076-.094c-.183-.271-.354-.554-.531-.831A6.223,6.223,0,0,0,63,97.405c-.506-.489-1.042-.948-1.59-1.39A18.8,18.8,0,0,0,59.65,94.7c-.045-.029-.09-.055-.135-.083-.262-.289-.517-.586-.786-.872a6.894,6.894,0,0,0-4.21-2.479,3.369,3.369,0,0,0-1.772.206,2.954,2.954,0,0,0-1.36,1.472,13.362,13.362,0,0,0-.666,2.114,47.982,47.982,0,0,0-1,4.823,43.414,43.414,0,0,0-.389,4.7c-.005.071-.005.141-.011.218,0,.061-.005.123-.005.183,0,.031-.006.062-.007.093,0,.071-.006.148-.012.218s0,.113-.005.168c-.044.347-.03.712-.048,1.046-.012.4-.029.8-.047,1.2-.029.689-.047,1.372-.071,2.055-.094,3.02-.117,6.041-.123,9.062-.012,3.368,0,6.737.064,10.105.065,3.244.142,6.489.065,9.733.006-.07.006-.141.012-.212,0,.043,0,.088-.006.132l.006-.073q-.041.805-.076,1.612c-.049.964-.155,1.923-.218,2.887a7.638,7.638,0,0,0,.059,2.715,2.613,2.613,0,0,0,1.754,1.584,13.534,13.534,0,0,0,2.892.694,9.9,9.9,0,0,0,1.14.082c0,.025,0,.049,0,.074a3.394,3.394,0,0,0,.265,1.419,1.853,1.853,0,0,0,1.419,1.142,1.063,1.063,0,0,0,.135.006,2.169,2.169,0,0,0,1.242-.466,1.429,1.429,0,0,0,.429.072c.035,0,.077-.006.118-.006a2.2,2.2,0,0,0,1.166-.43,3.922,3.922,0,0,0,.83-.983c.443-.576.907-1.14,1.383-1.692.153-.128.3-.258.458-.387a1.6,1.6,0,0,0,.728.219c.088.006.17.006.253.006a2.047,2.047,0,0,0,.73-.112,3.361,3.361,0,0,0,.724-.412,5.717,5.717,0,0,0,.654-.6c.253-.247.524-.465.8-.689a.522.522,0,0,0,.07-.059c-.005.012-.017.018-.023.024a46.971,46.971,0,0,1,4.3-3.044c1.095-.66,2.185-1.331,3.286-1.979,1.213-.718,2.438-1.413,3.639-2.143,2.544-1.555,5.088-3.121,7.608-4.717a.074.074,0,0,0,.025-.017c1.278-.768,2.554-1.536,3.82-2.327-.059.042-.118.077-.176.113,1.819-1.037,3.627-2.1,5.452-3.133s3.633-2.038,5.453-3.05a1.716,1.716,0,0,0,.878-1.309l.263.118c.742.336,1.478.672,2.232.954a6.1,6.1,0,0,0,1.213.395,2.773,2.773,0,0,0,1.054-.053,1.348,1.348,0,0,0,.777-2.067,3.564,3.564,0,0,0-1.519-1.083c-.4-.206-.813-.365-1.225-.536-.735-.309-1.481-.578-2.232-.846l.006,0c-.206-.077-.418-.153-.63-.23l.159.053c-.138-.052-.277-.1-.416-.15l0,0c-.118-.042-.236-.088-.353-.136l.013.008c-.1-.035-.194-.066-.29-.1.053.018.1.036.153.053-1.207-.448-2.42-.907-3.621-1.384s-2.4-1.024-3.6-1.554c-1.166-.519-2.3-1.107-3.445-1.661-1.054-.518-2.1-1.054-3.138-1.59-.866-.447-1.738-.895-2.6-1.336l-.392-.207q-1.581-1.1-3.175-2.177c-2.827-1.9-5.718-3.7-8.615-5.483C68.983,103.357,66.95,102.177,64.957,100.932Zm25.929,21.947q-.739-.826-1.436-1.688a14.8,14.8,0,0,0,2.344,1.307c.01,0,.021,0,.032.008Q91.351,122.68,90.886,122.879Zm-11.1,3.172c.017.038.029.077.048.116a1.829,1.829,0,0,0,.657.693q-1.642,1.4-3.216,2.892a1.408,1.408,0,0,0-.279-.1,1.978,1.978,0,0,0-.543-.045c.043-.3.084-.6.125-.9a1.37,1.37,0,0,0,.948-.454,8.265,8.265,0,0,0,1.113-1.384,7.589,7.589,0,0,0,.45-1.031A1.623,1.623,0,0,0,79.787,126.051Zm-22.7,7.091c-.006.023-.006.047-.012.07.017-.3.038-.606.055-.909,0,.192-.007.383-.01.575C57.112,132.966,57.1,133.054,57.089,133.142Zm9.308-26.4c-.347,1.43-.682,2.864-1.015,4.3-.038-.463-.079-.925-.138-1.383-.065-.506-.13-1.012-.189-1.519-.052-.4-.115-.794-.2-1.187l.016-.123c.033-.281.067-.559.1-.838C65.445,106.244,65.92,106.5,66.4,106.743Zm-7.043.622c.215,1.074.432,2.142.649,3.211-.1.583-.2,1.168-.286,1.753-.087-1.113-.175-2.234-.35-3.34-.091-.593-.227-1.177-.374-1.758-.005-.048-.007-.1-.012-.145a1.137,1.137,0,0,0,.192-.539C59.234,106.819,59.3,107.091,59.354,107.365Zm2.3-2.953c-.013-.059-.024-.118-.038-.177l.094.049C61.689,104.327,61.666,104.368,61.65,104.412ZM59,105.744a1.324,1.324,0,0,0-.138-.153c-.006-.1-.018-.192-.023-.288v.083c-.007-.16-.017-.318-.025-.478C58.873,105.186,58.932,105.466,59,105.744Zm.516,39.153c.005-.381.012-.761.019-1.142a1.294,1.294,0,0,0,.213-.018,2.557,2.557,0,0,0,.594-.147,3.942,3.942,0,0,0,.413-.224,4.815,4.815,0,0,0,.707-.51c-.01.168-.011.336-.02.5-.6.63-1.214,1.263-1.767,1.938-.059.07-.118.135-.171.206C59.5,145.3,59.506,145.1,59.512,144.9Zm24.115-26.744c-.1.235-.164.477-.253.712-.076.2-.147.4-.218.6-.159.418-.318.836-.477,1.248-.039.1-.081.206-.121.308a1.218,1.218,0,0,0-.8.155c-.05-.312-.1-.625-.148-.934-.065-.442-.077-.895-.171-1.325a3.6,3.6,0,0,0-.236-.818c-.106-.195-.206-.377-.324-.566a1.476,1.476,0,0,0-1.472-.653,1.379,1.379,0,0,0-.451.166l-.031-.134a1.27,1.27,0,0,0-2.455.106l-.01.052a1.4,1.4,0,0,0-.78-.226,1.425,1.425,0,0,0-1.325,1.113,12.84,12.84,0,0,0-.23,2.32c.006.524.018,1.054.036,1.584.029.671.059,1.349.088,2.026,0,.053.006.1.006.153-.2-2.16-.385-4.325-.569-6.489.017-.213.035-.426.052-.639.058-.695.147-1.395.223-2.09.106-.978.248-1.955.271-2.939a1.4,1.4,0,0,0-.048-.337c2.793,1.822,5.621,3.593,8.443,5.357l1.24.777A3.3,3.3,0,0,0,83.627,118.153ZM72.742,110.6a1.187,1.187,0,0,0-.914.92c-.177,1-.345,2-.515,2.994a1.317,1.317,0,0,0-.522.937c-.071.93-.089,1.861-.153,2.791l-.021.319c-.19,1.095-.378,2.193-.572,3.291-.01-.183-.022-.365-.032-.548-.047-.842-.141-1.684-.212-2.526-.053-.583-.058-1.178-.135-1.761a4.36,4.36,0,0,0-.318-1.2,2.414,2.414,0,0,0-.707-.819,1.491,1.491,0,0,0-.223-.165c.029-.429.059-.865.094-1.3q.052-.752.106-1.5c.029-.43.088-.859.106-1.3a4.387,4.387,0,0,0-.176-1.228q.088-.792.179-1.585l.112.057Q70.779,109.315,72.742,110.6ZM59.17,99.127a1.4,1.4,0,0,0-.371.357c-.044,0-.088,0-.132,0,.016-.3.032-.6.056-.9ZM85.1,126.017a1.542,1.542,0,0,0-1.079-.952c.214-.424.4-.858.585-1.3.236-.554.453-1.113.671-1.672.142-.348.277-.695.407-1.048.117.188.241.376.365.559a21.153,21.153,0,0,0,1.372,1.784c.25.292.508.574.761.861l-.634.346c-.489.265-.966.559-1.449.836C85.767,125.628,85.432,125.822,85.1,126.017Zm-31.693,19c-.418-.142-.824-.288-1.228-.463l.039.02-.044-.021-.139-.061c.04.014.077.031.114.048-.039-.018-.077-.038-.116-.057l0-.058c.03-.482.071-.966.112-1.446.153-1.649.289-3.3.342-4.959.053-1.672.059-3.338.041-5-.047-3.368-.094-6.73-.1-10.092-.011-5.732.04-11.459.252-17.185a.37.37,0,0,0,0-.047l.018-.468v-.031q.03-.744.061-1.489a44.25,44.25,0,0,1,.5-4.849,41.867,41.867,0,0,1,1-4.369l.008-.026c.063.006.125.014.188.022.044.01.088.021.131.033s.1.043.152.065c.081.039.159.088.238.135.188.124.368.257.541.4.349.3.674.616.993.941-.038.138-.078.277-.1.411a30.224,30.224,0,0,0-.348,4.492c-.017.8-.035,1.608-.041,2.415-.035,3.333-.023,6.666-.07,10V113.2c-.03,1.072-.048,2.15-.112,3.221-.077,1.284-.165,2.562-.277,3.845-.189,2.209-.471,4.411-.683,6.619-.153,1.672-.265,3.351-.365,5.023-.094,1.613-.218,3.221-.289,4.834-.076,1.637-.147,3.269-.17,4.911,0,.389-.012.778-.006,1.166a3.241,3.241,0,0,0,.212,1.443,1.469,1.469,0,0,0,.518.571c-.041.147-.083.3-.124.448.018-.054.029-.106.047-.16l-.052.184c-.055-.007-.111-.011-.165-.02A10.939,10.939,0,0,1,53.406,145.013Zm26.039-12.022.059-.034-.1.064-.011.006-.024.011.014-.005-.577.355.668-.451c1-.655,2-1.311,3.016-1.955a1.276,1.276,0,0,0,.2-.2c.262-.161.522-.328.784-.49a1.477,1.477,0,0,0,.3-.028c-.175.11-.353.215-.528.325.02-.013.038-.026.059-.038C82.013,131.348,80.723,132.173,79.445,132.991Zm7.608-4.731v0l0,.006c-.059.035-.113.071-.171.106.035-.023.065-.041.1-.065-.752.459-1.5.921-2.247,1.381a1.314,1.314,0,0,0,.154-.268c.434-.272.869-.539,1.3-.813,1.578-.908,3.155-1.827,4.788-2.64-.379.218-.76.436-1.136.656C88.91,127.161,87.964,127.684,87.053,128.26Zm10.312-6.01q-1.23.712-2.459,1.431a1.405,1.405,0,0,0-.016-.565,1.476,1.476,0,0,0-1.376-1.1,1.423,1.423,0,0,0,.111-1.446l.358.164Q95.669,121.494,97.365,122.25Z"/><path d="M201.7,189.173c0,.045-.01.09-.014.135l0,.059Z"/><path d="M158.505,179.174c-.045-.016-.088-.035-.133-.052l-.055-.018C158.382,179.127,158.446,179.151,158.505,179.174Z"/><path d="M104.058,161.132l.009-.012c-1.555,1.643-3.074,3.327-4.6,4.994-1.407,1.531-2.838,3.056-4.24,4.6.006-.012.012-.018.012-.024-.948,1-1.89,2-2.844,2.991-1.131,1.178-2.243,2.379-3.456,3.474-.625-1.295-1.208-2.608-1.861-3.886-.412-.819-.836-1.625-1.272-2.432-.371-.671-.777-1.325-1.16-1.99-.242-.412-.518-.8-.778-1.2-.164-.258-.329-.523-.506-.783-.759-1.071-1.5-2.143-2.343-3.15a4.061,4.061,0,0,0-2.267-1.666,2.656,2.656,0,0,0-1.991.73c-.7.536-1.378,1.1-2.061,1.66-2.479,2.055-4.834,4.246-7.272,6.342-1.372,1.178-2.762,2.326-4.145,3.486-.331.279-.653.562-.979.844-.424.328-.848.656-1.263,1l.024-.023c-.854.683-1.714,1.366-2.556,2.055h0c-1.2.964-2.359,1.987-3.51,3.009-.583.518-1.166,1.037-1.737,1.566-.342.313-.689.625-1.025.942a4.446,4.446,0,0,0-1.225,1.484,1.281,1.281,0,0,0,1.625,1.714c.084-.03.158-.072.238-.107a1.46,1.46,0,0,0,.726.016c.595-.141,1.184-.282,1.773-.418,1.613-.359,3.22-.718,4.851-1.007,1.661-.3,3.322-.618,4.964-1.018a38.476,38.476,0,0,0,4.476-1.39c1.543-.577,3.085-1.166,4.581-1.861-.059.03-.118.053-.177.083.267-.116.528-.238.8-.359h0l.011,0,0,0,.015-.008c.053-.024.1-.048.153-.071l-.042.018c.058-.026.111-.052.168-.075.241-.107.481-.22.716-.337a.162.162,0,0,0,.013.033c.012.028.028.056.04.078a.8.8,0,0,0,.034.083l0-.012c.2.45.4.9.6,1.344v0c2.02,4.44,4.31,8.745,6.736,12.973.866,1.513,1.737,3.021,2.644,4.511.21.342.422.684.64,1.021.118.257.245.51.362.767l-.012-.03.006.013c0-.012-.01-.024-.016-.038l0-.007,0-.014c.024.047.042.1.065.147l.006.012,0,.009,0,0h0c.24.538.479,1.083.725,1.627,0-.006-.006-.012-.006-.018.024.053.047.1.065.153.006.006.006.012.012.018a11.616,11.616,0,0,0,1.013,1.984,1.7,1.7,0,0,0,.895.642,1.145,1.145,0,0,0,.365.053,2.4,2.4,0,0,0,.748-.147,2.3,2.3,0,0,0,.954-.8c.217-.276.423-.565.636-.842q1.438-1.881,2.95-3.692c4.228-5.058,8.343-10.216,12.819-15.051l-.012.012c.118-.123.235-.249.353-.371-.017.012-.029.029-.047.041.212-.217.418-.441.636-.659,1.608,1.578,3.345,3.038,5.082,4.469,1.79,1.484,3.568,2.956,5.311,4.493.1.1.215.2.32.3s.229.215.345.322l-.075-.072q.69.645,1.383,1.284l-.011-.006.052.047c1.395,1.367,2.779,2.738,4.169,4.1.76.742,1.507,1.5,2.285,2.219a22.554,22.554,0,0,0,1.99,1.7,1.871,1.871,0,0,0,1.525.442,3.129,3.129,0,0,0,1.366-.571,7.351,7.351,0,0,0,1.018-.943c.045-.03.095-.055.135-.086a5.237,5.237,0,0,0,.637-.554,17.172,17.172,0,0,0,1.453-1.847l.017-.018h0l0,0c.493-.525.98-1.053,1.448-1.595.813-.937,1.6-1.879,2.408-2.821.63-.736,1.272-1.466,1.914-2.191,1.225-1.389,2.444-2.767,3.663-4.163.606-.648,1.2-1.313,1.8-1.967.639-.7,1.289-1.392,1.923-2.1l0,0c.771-.824,1.543-1.66,2.314-2.49-.011.011-.021.023-.031.035.07-.072.137-.148.208-.224-.053.053-.1.106-.147.153.918-.977,1.861-1.937,2.791-2.9.4-.417.807-.835,1.219-1.246l.075.04a23.784,23.784,0,0,0,2.682,1.155c.726.263,1.463.5,2.2.729.348.286.692.579,1.04.865.783.648,1.637,1.213,2.426,1.849.43.347.913.636,1.36.948.471.33.948.659,1.419.989.725.506,1.49.954,2.238,1.431.642.406,1.307.789,1.967,1.178,1.325.783,2.667,1.537,4.016,2.285,1.454.812,2.9,1.642,4.345,2.472.725.419,1.443.848,2.173,1.261s1.484.86,2.244,1.248c.063.034.13.072.2.108l-.033-.019c.459.247.924.494,1.383.736.1.052.195.106.295.152h-.006c.53.283,1.083.537,1.625.8s1.078.511,1.619.759c1.013.471,2.026.96,3.021,1.478l-.018-.011c.365.194.73.382,1.1.57l-.012-.006c.012.006.023.018.035.024a.288.288,0,0,0,.031.013h0l.006,0,.006,0h0c.037.02.075.037.112.058-.011,0-.017-.011-.029-.017.259.141.518.276.783.412a.627.627,0,0,1-.082-.041l-.053-.025.152.081c-.015-.01-.031-.018-.046-.027,1.242.654,2.5,1.3,3.792,1.838a11.07,11.07,0,0,0,1.925.682,4.375,4.375,0,0,0,2.209.036,2.62,2.62,0,0,0,1.342-.783,1.975,1.975,0,0,0,.218-1.985c.218.118.436.236.654.348a1.33,1.33,0,0,0,1.572-.377,1.343,1.343,0,0,0,.053-1.619,2.552,2.552,0,0,0-.613-.566c.083-.376.159-.753.236-1.13.177-.89.341-1.778.506-2.668.148-.771.248-1.542.36-2.32.1-.653.206-1.3.27-1.96.112-1.09.224-2.179.336-3.275.153-1.542.259-3.1.383-4.645.135-1.667.271-3.328.4-4.994a1.526,1.526,0,0,1-.012.165,10.654,10.654,0,0,0,.118-1.237,5.083,5.083,0,0,0-.041-.541c.124-.948.259-1.89.4-2.838.518-3.375,1.043-6.749,1.5-10.129.465-3.468.742-6.954.954-10.446a1.255,1.255,0,0,0-2.509-.053c-.089,1.558-.208,3.116-.327,4.674q.077-1.954.152-3.911c.106-2.767.029-5.535.012-8.3a1.682,1.682,0,0,0-.989-1.549,1.644,1.644,0,0,0-1.8.306c-.419.442-.821.9-1.228,1.359a1.4,1.4,0,0,0-.6-.148,1.961,1.961,0,0,0-.889.229,3.528,3.528,0,0,0-.93.737,16.364,16.364,0,0,0-1.431,1.7c-1.669,2.212-3.306,4.453-4.993,6.654-.827.636-1.65,1.278-2.45,1.944l0,0a.287.287,0,0,1-.053.042.609.609,0,0,1-.07.059c.011-.012.029-.024.041-.035-.041.035-.089.07-.13.106.012-.012.03-.024.041-.036-.053.041-.106.082-.153.124l.012-.012c-.188.159-.383.318-.577.477l.018-.018c-.012.012-.024.018-.036.03l-.059.047.006-.006-.026.022-.009.008,0,0-.22.184.071-.053c-.218.171-.43.348-.642.518l-.074.062,0,0-.023.019-.03.022.016-.01-.157.128.027-.018c-.036.031-.073.057-.109.089-.159.129-.312.259-.472.383-.088.076-.182.146-.27.223.035-.035.076-.065.117-.1l-.288.235c.006,0,.006-.006.012-.006-2.332,1.9-4.593,3.887-6.813,5.918q-1.581,1.458-3.121,2.98c-.1.1-.2.2-.3.3q-.635-.271-1.253-.585l.067.036c-.524-.276-1.054-.559-1.584-.836l.176.089c-1.85-1.016-3.717-1.99-5.6-2.937q-.609-.352-1.216-.7c-.765-.447-1.525-.913-2.291-1.366a12.55,12.55,0,0,0-2.172-1.1,8.462,8.462,0,0,0-1.775-.355c-.907-.4-1.815-.8-2.723-1.21-.777-.347-1.59-.624-2.379-.942-.29-.115-.582-.224-.875-.333-1.109-.864-2.206-1.743-3.279-2.659-.571-.489-1.13-1-1.69-1.507a9.111,9.111,0,0,0-1.837-1.373,2.44,2.44,0,0,0-1.99-.247,4.543,4.543,0,0,0-1.849,1.714c-.518.706-1,1.442-1.484,2.172-.219.329-.433.661-.649.992q-.228.177-.444.359a28.884,28.884,0,0,0-2.895,2.745c.041-.047.089-.094.13-.142-.047.048-.089.095-.136.142l.008,0-.031.035-.018.017c-.112.124-.229.248-.341.365l-.23.248c.018-.024.041-.048.059-.071-.112.123-.224.241-.336.365q-1.713,1.924-3.309,3.945c-1.042,1.319-2.037,2.679-3.044,4.022s-2.02,2.714-3.027,4.069c-.939,1.268-1.87,2.556-2.9,3.757-1.048-1.095-2.066-2.215-3.118-3.312-1.066-1.113-2.232-2.131-3.392-3.15-1.142-1.007-2.326-1.967-3.492-2.95-1.354-1.137-2.708-2.273-4.051-3.428-.406-.347-.825-.679-1.241-1.013-.3-.36-.609-.716-.916-1.073a1.213,1.213,0,0,0-.932-.382c-.316-.227-.636-.447-.962-.652a4.941,4.941,0,0,0-2.332-.948,3.089,3.089,0,0,0-2.185,1.33C105.124,159.986,104.591,160.553,104.058,161.132ZM164.064,177.8q-.795-.235-1.589-.477c-.239-.2-.477-.406-.719-.6-.588-.477-1.16-.977-1.725-1.477-.336-.3-.683-.584-1.024-.866a3.994,3.994,0,0,0-1.826-1.077c-.029,0-.056,0-.085,0,0-.107.013-.215.012-.321a9.182,9.182,0,0,0-.176-1.658l.381.253c.359.241.713.488,1.084.718.435.318.889.606,1.33.919,1.007.7,2.02,1.395,3.033,2.095s2.043,1.414,3.062,2.127c.442.311.889.641,1.348.936.284.214.572.42.857.631Q166.05,178.389,164.064,177.8ZM133.91,197.144c-.447.477-.924.931-1.348,1.431-.131.155-.264.309-.394.465-.632-.363-1.239-.76-1.839-1.176.041.029.077.059.118.088-.4-.288-.8-.571-1.195-.859a.576.576,0,0,1-.059-.035l.015.007-.021-.019c-1.158-.865-2.316-1.726-3.439-2.632-.589-.484-1.2-.949-1.778-1.449-.566-.483-1.149-.954-1.7-1.46-.071-.065-.136-.13-.212-.2.053.047.1.094.153.141-.154-.149-.314-.3-.469-.441l.024.021c-.189-.173-.373-.35-.562-.522l.153.135c-.182-.165-.359-.335-.536-.5l.03.03c-.1-.1-.206-.195-.312-.3.053.048.1.095.153.142-.825-.825-1.62-1.667-2.409-2.521-1.06-1.148-2.119-2.29-3.168-3.444-1.03-1.125-2.031-2.279-3.067-3.4-.191-.206-.387-.423-.594-.629a6.266,6.266,0,0,0,.056-.715,5.437,5.437,0,0,0-.229-1.436c-.1-.36-.207-.713-.318-1.066q2.234,2.562,4.475,5.134c.983,1.137,1.973,2.273,2.991,3.386q.963,1.07,1.92,2.138a14.846,14.846,0,0,0,1.289,1.419,2.712,2.712,0,0,0,.948.589,4.37,4.37,0,0,0,1.166.135,1.274,1.274,0,0,0,1.26-1.554c-.029-.142-.053-.283-.076-.418v0c-.057-.348-.115-.7-.2-1.048.223.289.447.572.683.854-.036-.041-.071-.082-.106-.124.759.925,1.478,1.885,2.237,2.809l-.106-.123c.554.688,1.09,1.389,1.649,2.072-.023-.029-.047-.065-.071-.094.336.424.678.848,1.008,1.272.241.306.465.63.724.919a1.986,1.986,0,0,0,1.054.588,1.289,1.289,0,0,0,1.625-1.36c-.018-.194-.047-.382-.077-.565a1.3,1.3,0,0,0,1.019-1.549c-.112-.471-.194-.948-.347-1.4a10.334,10.334,0,0,0-.548-1.343c-.294-.6-.6-1.2-.93-1.784-.389-.689-.784-1.384-1.172-2.079.112.118.224.242.336.365.871.937,1.748,1.873,2.631,2.8.354.371.707.742,1.066,1.1.224.235.454.459.678.695a6.007,6.007,0,0,0,.706.694c.212.154.43.3.654.436a1.34,1.34,0,0,0,1.719-.288,2.531,2.531,0,0,0,.442-.589,2.255,2.255,0,0,0,.2-.707,3.8,3.8,0,0,0-.176-1.425c-.089-.294-.2-.583-.307-.871-.123-.33-.229-.666-.359-1-.171-.459-.359-.906-.553-1.348l.094.018a1.878,1.878,0,0,0,1.548-.625,2.106,2.106,0,0,0,.572-1.683,9.481,9.481,0,0,0-.542-2.344c-.348-.966-.754-1.9-1.19-2.832.047.041.089.082.136.123.612.53,1.225,1.066,1.837,1.6a12.494,12.494,0,0,0,1.984,1.436,3.236,3.236,0,0,0,1.7.4,2.409,2.409,0,0,0,.86-.194,2.365,2.365,0,0,0,.571-.389,2.138,2.138,0,0,0,.524-.771,3.321,3.321,0,0,0,.23-.707,5.352,5.352,0,0,0-.159-2.2,15.168,15.168,0,0,0-.807-2.238,4.157,4.157,0,0,0,1.714,1.084,2.057,2.057,0,0,0,1.472-.154,2.212,2.212,0,0,0,.806-2.461q.5.459,1.007.9c.285.242.567.482.852.72a14.108,14.108,0,0,0-.956,1.284c-.233.331-.466.663-.7.989q-2.025,2.794-4.125,5.535c-2.055,2.656-4.128,5.294-6.2,7.938q-1.984,2.534-3.915,5.1c-.618.719-1.237,1.437-1.879,2.135Zm-67.581-16.6c-1,.254-2.02.483-3,.783a.518.518,0,0,0,.065-.023c-.047.017-.088.029-.135.047l.006-.006a.022.022,0,0,1-.018.006l-.076.025a3.036,3.036,0,0,0-.425.134c-.1.023-.206.059-.306.088.047-.011.095-.029.147-.041-.1.028-.2.061-.294.089l.012-.006c-.1.035-.2.064-.3.094h.008l-.02.007a.689.689,0,0,1-.095.029c.018,0,.036-.012.056-.018-.045.011-.086.026-.132.041-.082.024-.171.048-.253.077-.171.054-.338.125-.508.184l-.1.02c.43-.241.855-.487,1.29-.719.966-.518,1.914-1.084,2.9-1.578a1.218,1.218,0,0,0,1.107-1.019,1.139,1.139,0,0,0-.018-.36,4.182,4.182,0,0,0,.327-.267c.141-.136.277-.277.406-.425a.293.293,0,0,0,.042.018c.365.142.724.277,1.089.413a8.393,8.393,0,0,0,1.6.494,5.452,5.452,0,0,0,2.049.006,2.223,2.223,0,0,0,1.284-.671,2.544,2.544,0,0,0,.506-1.708,5.12,5.12,0,0,0-.059-.73,2.634,2.634,0,0,0,.512-.13,1.826,1.826,0,0,0,.783-.612c.006,0,.012.006.018.006.088.053.177.112.259.17.5.366.978.743,1.461,1.12.347.265.687.552,1.051.8l-.266.1-.11.044a1.692,1.692,0,0,0-.492-.16,3.278,3.278,0,0,0-1.9.536c-.318.159-.636.312-.959.465h.011c-.353.159-.7.318-1.054.483-1.094.489-2.207.95-3.331,1.38Q67.9,180.155,66.329,180.545Zm59.1-3.123a1.277,1.277,0,0,0-.364.991q-.5-.786-1.012-1.572c-.212-.328-.421-.663-.639-.988Q124.407,176.663,125.433,177.422Zm-14.2-12.06c-.047-.041-.088-.082-.135-.123.331.311.672.612,1.005.922q.138.216.275.434c1.066,1.731,2.184,3.433,3.338,5.1-.759-.906-1.531-1.8-2.3-2.7-.589-.695-1.178-1.4-1.772-2.091-.5-.577-.972-1.172-1.461-1.76-.7-.842-1.419-1.661-2.2-2.433a1.329,1.329,0,0,0-.655-.34c.075-.071.145-.146.222-.215A42.992,42.992,0,0,1,111.235,165.362Zm-5.174-1.075.142.229c-.03-.046-.053-.094-.083-.141.077.124.148.241.224.365.565.907,1.237,1.755,1.873,2.614.459.625.93,1.231,1.4,1.85,1.031,1.36,2.079,2.714,3.127,4.062.954,1.225,1.89,2.456,2.832,3.687,1.684,2.2,3.392,4.4,4.858,6.76.077.111.147.229.218.347-.024-.024-.041-.047-.065-.07-2.19-2.433-4.3-4.935-6.471-7.384-1.089-1.237-2.149-2.492-3.227-3.74-1.048-1.218-2.126-2.42-3.15-3.657a16.12,16.12,0,0,0-1.278-1.66,3.345,3.345,0,0,0-.742-.571,1.712,1.712,0,0,0-.772-.2,1.288,1.288,0,0,0-1.159,1.885c.164.282.335.553.506.83l-.088-.141c.553.9,1.083,1.825,1.625,2.738.659,1.119,1.278,2.273,1.825,3.45a21.636,21.636,0,0,1,.875,2.265c.059.2.118.4.167.6-.176-.206-.353-.406-.524-.618.036.047.071.088.106.136-.535-.66-1.071-1.314-1.619-1.967s-1.1-1.29-1.672-1.92a1.329,1.329,0,0,0-2.244.536,2.128,2.128,0,0,0-.123.606,2.942,2.942,0,0,0,.082.56,4.667,4.667,0,0,0,.489,1.095c.418,1.1.848,2.2,1.195,3.321.077.283.153.565.218.854l.018.124c-.767-1.028-1.49-2.09-2.174-3.173-.02-.035-.041-.068-.063-.1l-.013-.019.011.018-.017-.024c-.253-.412-.512-.836-.771-1.254.021.033.042.07.063.105-.1-.169-.2-.336-.3-.5l-.019-.026L100.627,175a1.316,1.316,0,0,0-2.468.76,3.169,3.169,0,0,0,.124.623c-.041-.04-.083-.088-.124-.135a1.3,1.3,0,0,0-2.208,1.184,12.654,12.654,0,0,0,.624,2.126c.183.441.371.877.566,1.3.041.206.082.406.117.612.065.413.118.825.147,1.243-.164-.212-.329-.412-.494-.613l.106.124c-.748-.937-1.455-1.908-2.185-2.862-.336-.443-.662-.9-1-1.342,4.011-4.715,7.889-9.549,12.063-14.129A1.477,1.477,0,0,0,106.061,164.287Zm-15.886,21.5c-.3-.494-.625-.983-.907-1.484-.46-.812-.931-1.613-1.4-2.414l-.049-.108c.048.035.083.079.135.112a2.1,2.1,0,0,0,1.561.141,3.351,3.351,0,0,0,1.416-.871c.065.252.131.5.194.756.351,1.355.695,2.716.941,4.094.125.742.244,1.489.3,2.236v-.077a.811.811,0,0,0,.006.118v.012c.006.3.018.594.018.895l-.159-.177c-.213-.273-.4-.557-.583-.845-.186-.305-.372-.61-.562-.91h0C90.775,186.775,90.481,186.28,90.175,185.791ZM70.166,172.919c.088.383.223.754.318,1.131.114.47.229.94.327,1.415a.26.26,0,0,1,0-.037c0,.023.008.049.012.076l.006.041a.124.124,0,0,1,.008.032.123.123,0,0,1,0-.026c.03.2.059.4.083.6a.132.132,0,0,0-.048.006c-.182,0-.359,0-.541-.012-.112-.011-.218-.03-.324-.047-.312-.083-.618-.189-.925-.295.018.012.041.018.059.03-.247-.094-.5-.189-.754-.283a7.194,7.194,0,0,0-1.348-.429,3.1,3.1,0,0,0-.38-.029c.5-.382,1.008-.769,1.514-1.152.656-.492,1.322-.977,1.983-1.467A1.332,1.332,0,0,0,70.166,172.919ZM77,168.485a25.887,25.887,0,0,0,.96,2.809c.283.665.571,1.331.883,1.984a.7.7,0,0,1,.024.106,1.528,1.528,0,0,0-.053.436,5.258,5.258,0,0,0,.053.8c-.383-.289-.742-.595-1.113-.883a16.127,16.127,0,0,0-1.407-1.06,3.138,3.138,0,0,0-2.262-.642,1.94,1.94,0,0,0-.883.471c-.035.035-.07.071-.106.106a5.08,5.08,0,0,0-.848-.989,1.256,1.256,0,0,0-.6-.257c.176-.128.348-.259.524-.387,1.278-.93,2.567-1.867,3.9-2.715.165-.094.33-.188.506-.271a1.323,1.323,0,0,1,.148-.065.2.2,0,0,1,.059-.023c.056.071.116.141.172.212A1.087,1.087,0,0,0,77,168.485Zm10.382,19.108c.029-.012.064-.029.094-.041l.088.247c.171.5.342,1,.518,1.5-.283-.56-.565-1.113-.848-1.666A1.435,1.435,0,0,0,87.378,187.593Zm5.176,9.245a11.725,11.725,0,0,0-.13-1.808,17.162,17.162,0,0,0-.442-1.89c-.123-.436-.253-.865-.382-1.3a1.76,1.76,0,0,0,1.342.331,2.471,2.471,0,0,0,1.725-1.467,3.15,3.15,0,0,0,.236-1.319c0-.435-.006-.883-.03-1.319a23.338,23.338,0,0,0-.541-3.674c-.153-.713-.318-1.42-.495-2.126-.006-.035-.018-.065-.023-.094.035.047.064.088.1.135.577.772,1.154,1.549,1.766,2.3a3.6,3.6,0,0,0,2.114,1.295,1.675,1.675,0,0,0,1.655-.795,1.867,1.867,0,0,0,1.236.524,1.75,1.75,0,0,0,1.679-1.012,3.33,3.33,0,0,0,.223-1.1,6.409,6.409,0,0,0,.012-.759c.118.159.242.306.365.459a3.788,3.788,0,0,0,.93.83c.129.078.268.151.411.219-.172.2-.336.4-.509.6-.589.625-1.166,1.266-1.755,1.89-.942.99-1.89,1.961-2.844,2.927s-1.89,1.9-2.8,2.885c-.971,1.054-1.937,2.114-2.885,3.186C93.191,196.123,92.87,196.478,92.554,196.838Zm14.685-16.117c.013.016.029.031.043.047l-.032.036C107.245,180.777,107.244,180.749,107.239,180.721Zm-19.7,15.158c-.63-1.249-1.272-2.491-1.9-3.745-.672-1.331-1.308-2.668-1.944-4.011-.512-1.16-1.024-2.319-1.483-3.5-.224-.566-.466-1.131-.66-1.708-.218-.648-.436-1.29-.659-1.937-.154-.513-.307-1.025-.46-1.531a6.72,6.72,0,0,0-.75-1.968,1.227,1.227,0,0,0,.142-.028c.058.146.117.294.17.441.607,1.619,1.3,3.227,2.043,4.793.454.942.9,1.884,1.355,2.832.3.625.583,1.261.9,1.879.748,1.442,1.466,2.9,2.226,4.334.488.913.971,1.825,1.46,2.738.253.483.483.971.724,1.455a10.2,10.2,0,0,0,.736,1.236,5.434,5.434,0,0,0,.872.883l.082.083a1.4,1.4,0,0,0,.709.342c-.157.173-.308.351-.466.525-.247.259-.5.512-.765.759-.365-.494-.713-1.006-1.048-1.53.035.058.064.111.1.17-.124-.206-.248-.418-.377-.624-.167-.275-.323-.557-.488-.833C87.888,196.585,87.716,196.23,87.539,195.879Zm112.367-24.726-.931-.66q-.4-.282-.8-.568c0-.026.013-.051.018-.078a4.889,4.889,0,0,0-.289-2.049c-.224-.83-.565-1.649-.866-2.45-.164-.43-.347-.86-.518-1.289h.018a.022.022,0,0,1-.018-.006.045.045,0,0,0,.024.006c.047,0,.1.006.147.006h-.065c.448.041.889.088,1.331.153a4.177,4.177,0,0,0,1.107.106,2.225,2.225,0,0,0,1.072-.371,2.5,2.5,0,0,0,.343-.322q-.189,2.419-.382,4.838C200.031,169.363,199.971,170.259,199.906,171.153Zm-56.129-4.882c.742,1.566,1.619,3.074,2.414,4.623-.412-.4-.818-.8-1.225-1.208l-1.007-1.007c-.535-.535-1.071-1.042-1.642-1.536a1.33,1.33,0,0,0-2.1.653,1.815,1.815,0,0,0-.059.919,3.157,3.157,0,0,0,.177.506c.077.142.165.289.253.43.43.754.807,1.549,1.2,2.326.477.96.954,1.914,1.4,2.88-.012-.024-.018-.054-.029-.077a18.766,18.766,0,0,1,.783,2.026c.053.2.1.394.135.595.03.182.053.353.065.535-.006,0-.012,0-.012-.006-.269-.152-.533-.328-.791-.5-.988-.744-1.9-1.6-2.83-2.4-.512-.454-1.013-.925-1.525-1.379a14.784,14.784,0,0,0-1.207-.965c-.407-.283-.825-.548-1.237-.819a1.225,1.225,0,0,0-.751-.183c.719-.917,1.428-1.843,2.136-2.768.984-1.025,1.963-2.06,2.877-3.143.56-.653,1.137-1.295,1.667-1.972.553-.707,1.142-1.39,1.654-2.126l-.123.177c.718-1,1.428-2,2.118-3.018.081-.072.157-.15.24-.22.265-.206.53-.4.806-.583.212-.129.424-.247.642-.354l.027-.01a1.349,1.349,0,0,0-.1,1.087,8.606,8.606,0,0,0,.695,1.548c.182.313.377.619.565.925.218.342.43.689.642,1.03-.029-.052-.059-.1-.088-.147.146.234.293.468.435.7.038.059.076.122.112.182a.223.223,0,0,1,.023.039c.169.275.327.557.494.835-.585-.393-1.17-.788-1.754-1.179.047.035.1.07.147.111-.23-.158-.454-.329-.678-.494a1.279,1.279,0,0,0-.842-.489h-.023a1.369,1.369,0,0,0-1.366.631c-.006.011-.012.017-.018.029a1.373,1.373,0,0,0,.295,1.766c1.648,1.195,3.356,2.3,5.052,3.415.353.254.718.483,1.083.719.285.188.567.377.85.565.272.636.531,1.273.753,1.924a10.777,10.777,0,0,1,.265,1.055c.041.27.065.541.083.812,0,.13,0,.259-.006.388-.536-.406-1.066-.818-1.584-1.254-.672-.571-1.319-1.159-1.985-1.742-.612-.59-1.23-1.179-1.8-1.814-.418-.472-.836-.937-1.254-1.408-.312-.347-.595-.712-.9-1.072a13.161,13.161,0,0,0-1.16-1.189,1.318,1.318,0,0,0-1.731.053A1.343,1.343,0,0,0,143.777,166.271Zm14.63-3.612c1.148.672,2.291,1.361,3.457,2.009.793.444,1.592.873,2.394,1.3.148.344.29.692.411,1.047.05.206.1.409.134.625.03.195.057.39.072.589-.94-.595-1.887-1.189-2.827-1.784-.436-.277-.866-.565-1.308-.824.047.036.095.065.136.1-.377-.276-.778-.535-1.166-.795q-1.14-.768-2.279-1.542t-2.281-1.535q-.551-.492-1.092-.993c-.671-.624-1.342-1.255-2.043-1.843-.114-.095-.233-.183-.348-.275,1.143.624,2.281,1.272,3.407,1.927S157.288,162,158.407,162.659Zm-1.983,5.091c-.348-.23-.7-.463-1.043-.695-.417-.836-.848-1.662-1.3-2.473,1.667,1.437,3.328,2.881,5.016,4.293,1.355,1.131,2.762,2.215,4.14,3.321q.9.734,1.82,1.467c-.424-.3-.848-.595-1.272-.89-.913-.635-1.838-1.265-2.75-1.908-.4-.276-.783-.571-1.2-.836-.335-.235-.689-.459-1.03-.683C158.014,168.816,157.219,168.287,156.424,167.75Zm12.949,3.31c-.712-.456-1.431-.9-2.148-1.353a3.322,3.322,0,0,0,.265-2.034c0-.032-.014-.063-.018-.095.254.123.507.25.764.361.042.049.076.1.118.153a3.668,3.668,0,0,0,.836.618c.819.619,1.637,1.261,2.479,1.85.6.452,1.209.915,1.825,1.344l0-.008c.936.665,1.866,1.348,2.8,2.014a.031.031,0,0,1-.024-.012c-.006-.006-.012-.012-.018-.012l-.013-.009c.02.017.043.032.066.051l-.017-.018c.612.436,1.225.878,1.837,1.319l-.012-.012c.735.529,1.475,1.064,2.215,1.587v0a.131.131,0,0,0,.03.024c.035.024.07.053.111.076l-.02-.011.076.055.007.006-.006,0,.011.008h0l.026.02.1.063a.226.226,0,0,1-.052-.03c1.8,1.318,3.58,2.657,5.4,3.941v0l.008.007.074.053-.02-.013.432.324c-.324-.188-.642-.376-.966-.565-2.69-1.572-5.352-3.191-8.049-4.751-1.349-.784-2.667-1.626-4-2.438C172.117,172.727,170.727,171.919,169.373,171.06Zm16.552,6.159c-1.537-1.006-3.038-2.084-4.54-3.15a.284.284,0,0,0,.04.023c-.013-.01-.027-.021-.04-.029-1.036-.742-2.049-1.508-3.074-2.261l-.17-.127c.159.047.316.1.475.147a12.377,12.377,0,0,0,1.72.383,4.445,4.445,0,0,0,2.673-.519c.158-.085.308-.181.46-.274.517.237,1.034.472,1.55.713q1.441.674,2.869,1.357c.6.9,1.21,1.794,1.782,2.707a25.521,25.521,0,0,1,1.3,2.308c-.024-.053-.048-.1-.065-.147a20.757,20.757,0,0,1,.8,1.931c.029.094.047.188.07.289a1.765,1.765,0,0,0,.024.187v.066c-.059-.017-.118-.035-.171-.053s-.124-.053-.177-.076c-.571-.307-1.112-.666-1.666-1.013-.518-.319-1.042-.642-1.566-.96C187.438,178.244,186.69,177.72,185.925,177.219Zm15.246-22.289a1.349,1.349,0,0,0-1.314.614,7.255,7.255,0,0,0-.971,2.049,7.886,7.886,0,0,0-.118,2.415c.006.388.006.771-.018,1.165-.023.165-.053.318-.082.477-.006.018-.012.03-.018.048a25.482,25.482,0,0,0-2.85-.254c-1.16-.023-2.426.877-2.144,2.155a10.241,10.241,0,0,0,.513,1.49c.124.318.241.636.365.954.262.7.525,1.405.765,2.118-.444-.184-.891-.348-1.336-.52l-.053-.037.046.034h0a3.355,3.355,0,0,0-1.189-.663,1.639,1.639,0,0,0-1.225.211,1.3,1.3,0,0,0-.524,1.731c.148.318.311.627.467.941a2.791,2.791,0,0,0,.087.483,10.775,10.775,0,0,0,.678,1.413c.194.418.4.837.6,1.249-.256-.121-.508-.244-.76-.368-.615-.573-1.227-1.151-1.85-1.715.036.041.077.076.118.118-.365-.354-.736-.695-1.1-1.043.041.041.082.077.118.118-.265-.259-.536-.512-.807-.766l.118.118c-.389-.371-.807-.712-1.219-1.06a1.226,1.226,0,0,0-.341-.188q.364-.393.722-.787c2.22-2.444,4.358-4.964,6.436-7.526q3.26-4.017,6.631-7.931c.181-.211.364-.421.545-.632Q201.311,153.136,201.171,154.93ZM134.5,173.3a2.195,2.195,0,0,0,.038.733,4.907,4.907,0,0,0,.371.978c.218.406.436.806.636,1.225.418.865.842,1.725,1.248,2.6.2.442.395.9.571,1.355-.6-.76-1.2-1.52-1.79-2.285-.779-1.016-1.529-2.049-2.285-3.076C133.7,174.322,134.1,173.809,134.5,173.3Zm61.262,18.552c-.512-.294-1.025-.583-1.537-.877-.812-.566-1.631-1.131-2.443-1.7a.067.067,0,0,0,.017.008.706.706,0,0,1-.088-.062c-.024-.017-.053-.034-.077-.052l.012.012a.105.105,0,0,1-.029-.024c-.477-.341-.978-.642-1.473-.96l-2.473-1.608c-1.336-.871-2.714-1.672-4.074-2.5-.381-.231-.765-.455-1.148-.681-1.587-1.15-3.177-2.3-4.778-3.427a.131.131,0,0,0,.021.01l-.008-.006s-.009,0-.014,0l-.042-.029-.03-.022.007,0-.018-.018c.012.012.03.024.041.036s.027.014.039.021c-1.61-1.171-3.192-2.372-4.785-3.555-.818-.606-1.631-1.219-2.443-1.831.288.177.582.347.871.524l4.77,2.9c2.661,1.619,5.352,3.186,8.043,4.758q2.305,1.343,4.628,2.685l1.944,1.113c.371.218.748.424,1.119.642.406.241.8.5,1.218.718a5.985,5.985,0,0,0,1.261.471,1.283,1.283,0,0,0,1.442-.553,1.308,1.308,0,0,0-.047-1.407,11.273,11.273,0,0,0-.836-1.19c-.294-.348-.6-.683-.925-1-.306-.3-.618-.594-.936-.889a1.936,1.936,0,0,0,1.042-1.072,3.935,3.935,0,0,0,.23-2.208,11.983,11.983,0,0,0-1.054-2.785c-.106-.218-.218-.436-.33-.654a4.624,4.624,0,0,0,1.243.5,1.729,1.729,0,0,0,1.289-.23,2.506,2.506,0,0,0,.548-.594,2.289,2.289,0,0,0,.271-.666,2.706,2.706,0,0,0-.024-1.531,15.335,15.335,0,0,0-.771-2.067c-.089-.182-.177-.359-.259-.541a2.49,2.49,0,0,0,.636.194,3.2,3.2,0,0,0,.473.038c.353.245.7.492,1.053.738.518.365,1.036.736,1.561,1.1.266.187.53.382.8.575-.306,4.561-.578,9.124-.951,13.678-.15,1.673-.316,3.341-.533,5.009-.016.124-.037.245-.053.369C197.36,192.756,196.559,192.309,195.762,191.851Zm8-32.3q.361-4.84.742-9.669c0-.042,0-.084.009-.126,0,.222,0,.448-.007.67-.042,1.078-.083,2.149-.124,3.227-.262,6.567-.509,13.134-.89,19.7-.06-.015-.118-.03-.179-.051-.183-.077-.365-.161-.543-.249Q203.249,166.3,203.764,159.554ZM184.4,164.7c.158-.148.311-.3.472-.444Q184.638,164.483,184.4,164.7ZM129.681,178.12a4.67,4.67,0,0,0,1.325-.824c.152-.127.283-.278.427-.414.769,1.329,1.5,2.678,2.233,4.028.8,1.46,1.525,2.956,2.215,4.469q.123.293.247.583c-1-1.019-1.991-2.055-2.956-3.109q-1.361-1.483-2.727-2.95c-.477-.509-.948-1.012-1.4-1.532a2.549,2.549,0,0,0,.266-.146A2.32,2.32,0,0,0,129.681,178.12ZM77.822,165.269v0c.212-.176.424-.347.642-.506a.09.09,0,0,1,.029.024,11.808,11.808,0,0,1,.878.989h0l.005.006.032.038-.008-.008c1.084,1.371,2.037,2.832,2.991,4.3l.165.283c-.319-.362-.642-.723-.964-1.082-.83-.924-1.695-1.825-2.5-2.773a3.893,3.893,0,0,0-1.3-1.251l.008-.006A.163.163,0,0,1,77.822,165.269ZM174.046,185.1c-1.349-.73-2.668-1.525-3.963-2.338-.089-.056-.176-.114-.265-.169,1.752.525,3.5,1.061,5.227,1.654a.167.167,0,0,1-.023-.012c.03.012.053.018.077.03l.106.035a.432.432,0,0,1-.045-.012c.079.03.158.063.237.094.92.721,1.863,1.419,2.791,2.126.965.748,1.919,1.519,2.909,2.226.461.362.928.713,1.39,1.073C179.681,188.225,176.873,186.645,174.046,185.1Zm27.038,9.766c.069-.465.137-.929.195-1.4.165-1.386.3-2.772.41-4.163.28-3.213.433-6.432.632-9.651.079-1.3.179-2.6.266-3.9a4.927,4.927,0,0,0,.749.175c-.2,3.147-.415,6.294-.66,9.441q-.193,2.438-.388,4.887c-.028.356-.052.712-.08,1.067a9.794,9.794,0,0,0-.159,2.333l0,.045c-.006.354.012.707,0,1.054a1.638,1.638,0,0,0,.181.754C201.846,195.3,201.466,195.084,201.084,194.869ZM149.411,153.9c.094-.123.188-.247.283-.365.363.278.705.578,1.045.879a9.854,9.854,0,0,0-1.7.045C149.165,154.275,149.283,154.083,149.411,153.9Z"/><path d="M144.234,155.6l.121-.1.026-.023C144.334,155.523,144.281,155.564,144.234,155.6Z"/><path d="M143.805,111.245a9.191,9.191,0,0,0,.736.689c.607.506,1.237.989,1.9,1.437a19.72,19.72,0,0,0,2.5,1.519,14.407,14.407,0,0,0,2.528.9c1.547.732,3.093,1.467,4.65,2.179,2.991,1.378,6.006,2.714,9.045,3.986,1.454.613,2.9,1.231,4.363,1.82q1.608.652,3.215,1.3c.66.265,1.313.547,1.979.789-.065-.024-.124-.041-.183-.065,1.019.4,2.037.789,3.062,1.184.942.359,1.878.742,2.826,1.083-.058-.017-.123-.041-.182-.064,1.9.765,3.833,1.436,5.723,2.213.731.3,1.455.6,2.185.9.4.164.813.318,1.207.494.972.448,1.932.907,2.909,1.349.512.276,1.031.547,1.543.824.33.177.642.389.971.565a3.863,3.863,0,0,0,.795.371,4.325,4.325,0,0,0,.831.112.406.406,0,0,0,.082.006,1.43,1.43,0,0,0,1.319-1.031,3.716,3.716,0,0,0,.13-1.218c-.012-.142-.03-.289-.047-.436a3.5,3.5,0,0,0,1.477-.053c1.508-.394,1.879-2.179,1.92-3.515.018-.736.012-1.467.012-2.2.006-3.321.029-6.642.012-9.963-.012-1.72-.059-3.433-.106-5.152-.048-1.6-.124-3.186-.218-4.782-.088-1.531-.177-3.056-.312-4.581-.147-1.643-.253-3.3-.454-4.935-.259-2.084-.483-4.18-.812-6.259-.195-1.236-.407-2.467-.683-3.68a28.92,28.92,0,0,0-.819-3.127c-.194-.542-.4-1.078-.636-1.6a5.172,5.172,0,0,0-.642-1.136,5.859,5.859,0,0,0-.883-.913,3.638,3.638,0,0,0-1.089-.571,2.1,2.1,0,0,0-.962-.054,1.736,1.736,0,0,0-.587-.525,2.078,2.078,0,0,0-1.914.094c-1.407.695-2.8,1.437-4.2,2.149-1.466.748-2.915,1.532-4.316,2.4-2.756,1.714-5.482,3.48-8.244,5.2-2.874,1.784-5.753,3.562-8.621,5.358-2.779,1.737-5.594,3.427-8.4,5.117-2.891,1.737-5.788,3.457-8.726,5.111q-1.07.61-2.138,1.237c-.53.312-1.054.624-1.56.971a6.8,6.8,0,0,0-1.125.937,3.855,3.855,0,0,0-.73,1.154,2.123,2.123,0,0,0-.012,1.39A2.637,2.637,0,0,0,143.805,111.245Zm10.011-1.912c.482-.306.965-.612,1.442-.918a1.357,1.357,0,0,0,.351.307c-.372.3-.74.6-1.1.914C154.28,109.534,154.048,109.435,153.816,109.333Zm40.529,15.2a3.9,3.9,0,0,0-.377-.262c.123-.405.242-.81.344-1.219.037.522.083,1.042.123,1.562C194.4,124.592,194.377,124.563,194.345,124.537ZM185.379,93.31l-.007.007c.223-.159.447-.324.665-.483-.041.035-.088.065-.135.1a.733.733,0,0,0,.064-.045.411.411,0,0,1-.035.027c.657-.471,1.321-.925,1.979-1.389-.041.452-.076.9-.1,1.355q-1.516.975-3.017,1.971c-.853.566-1.731,1.107-2.555,1.72-.012.006-.018.012-.03.018l-.291.191c-.027,0-.052-.006-.079,0a1.383,1.383,0,0,0-1.21.854l-.074.049a.4.4,0,0,0,.012-.082,1.287,1.287,0,0,0-.136-.707C182.078,95.705,183.731,94.5,185.379,93.31Zm1.607,17.757c-.048.028-.095.058-.142.086-.81.411-1.628.808-2.442,1.211-.046-.406-.095-.813-.142-1.219.983-.747,1.963-1.5,2.914-2.286-.038.517-.073,1.034-.118,1.55C187.036,110.629,187.008,110.847,186.986,111.067Zm-5.2,5.7.5-.243c.063.378.126.756.184,1.134l-.961.844Q181.657,117.637,181.785,116.767Zm3.109-1.265-.039-.243c.231-.115.463-.227.693-.344C185.333,115.114,185.111,115.306,184.894,115.5Zm-5.254-4.121-1.295,1.013c-.021-.289-.038-.579-.057-.869l1.125-.655.295-.171C179.684,110.926,179.668,111.155,179.64,111.381Zm5.8,7.507c-.012-.06-.02-.121-.031-.181l.359-.313,0,.011c-.089.183-.184.366-.283.544l-.023.011C185.454,118.936,185.447,118.911,185.442,118.888Zm1.761-15.673c-.418.271-.813.577-1.243.825-.748.423-1.5.853-2.243,1.277l-.046.026q-.045-.678-.094-1.357c.291-.2.584-.4.876-.6,1.039-.712,2.1-1.405,3.124-2.144l-.081,1.81C187.4,103.107,187.3,103.154,187.2,103.215Zm-7.19,4c-.007.085-.013.171-.02.256q-.948.547-1.9,1.095c0-.042-.006-.084-.008-.126-.011-.166-.021-.332-.031-.5q1-.749,2.007-1.488C180.045,106.7,180.033,106.958,180.013,107.211Zm-4.435,5.895c.017.217.03.436.048.654.02.253.043.5.063.758-.123.1-.247.2-.369.3-.325.263-.649.528-.977.789.089-.312.171-.626.247-.944.092-.377.179-.756.266-1.134Zm8.794,9.493.5-.239a1.389,1.389,0,0,0,2.068-.445c.113-.211.232-.416.355-.622v0l.013-.022,0,.01.059-.1,1.049-.5-.283.3a5.459,5.459,0,0,0-.571.654,3.786,3.786,0,0,0-.63,1.478,2.3,2.3,0,0,0-.026.691C186.062,123.405,185.218,123,184.372,122.6Zm4.564-5.275c.015-.068.037-.134.051-.2.007.056.013.113.02.169Zm-1.174-20.258c-.006.144-.013.288-.019.433-.191.109-.386.211-.576.322-1.274.746-2.555,1.481-3.822,2.237-.011-.371-.019-.742-.028-1.113l.153-.111q2.157-1.423,4.3-2.85Zm-7.411,4.8-2.556,1.554c-.01-.139-.014-.279-.027-.418l.066-.054c.864-.6,1.7-1.234,2.553-1.862Zm-1.716-2.928c-.527.346-1.058.684-1.587,1.025a1.5,1.5,0,0,0-.17-.325c.085-.067.17-.134.256-.2.218-.094.441-.182.665-.27q.477-.177.972-.318C178.723,98.881,178.682,98.911,178.635,98.94ZM173.9,102l-.366.237c.124-.1.252-.194.377-.293Zm-2.562,13.684c-.007-.032-.011-.063-.018-.095l.063-.036C171.363,115.6,171.351,115.641,171.334,115.685Zm-7.914-3.221c.011.165.017.33.035.494.014.191.019.387.028.583l-.8-.346A2.708,2.708,0,0,0,163.42,112.464Zm28.918-7.3c.082,3.115-.036,6.23-.036,9.345v-.176l-.054,1.39a6.65,6.65,0,0,0-.665.359q-.157-1.381-.317-2.762c-.015-.179-.029-.358-.044-.537a1.364,1.364,0,0,0-.074-1.628l-.066-.075c-.1-1.242-.2-2.486-.305-3.725-.048-.594-.075-1.19-.1-1.786.149-.15.3-.3.447-.45a1.33,1.33,0,0,0-.217-2c-.111-.071-.22-.136-.328-.2-.047-1.126-.1-2.251-.119-3.375l.028-.018a7.435,7.435,0,0,0,1.161-.936,2.808,2.808,0,0,0,.489-.589Q192.246,101.58,192.338,105.162ZM192,93.951c.012.123.018.241.024.365.024.64.04,1.28.061,1.92a1.257,1.257,0,0,0-.214-.211,1.313,1.313,0,0,0-1.371-.06c.024-.7.043-1.407.064-2.111a1.227,1.227,0,0,0,.028-.932c.012-.46.032-.919.042-1.38v.177c0-.094,0-.188.006-.277a1.4,1.4,0,0,0-.866-1.358c.177-.159.361-.31.524-.483a1.3,1.3,0,0,0,.042-1.684,1.273,1.273,0,0,0-.415-.315c.529-.377,1.058-.753,1.6-1.116.041-.023.077-.041.118-.065.059.106.112.212.165.324.07.171.135.347.194.524.194.689.354,1.39.483,2.09.037.225.061.452.094.677C191.454,90.968,191.846,92.7,192,93.951Zm-35.722,19.974c-.229-.066-.457-.142-.686-.207.023.006.047.018.071.024-.993-.288-2.012-.524-3.012-.8-.377-.107-.746-.221-1.113-.345-.425-.206-.853-.407-1.275-.619a.045.045,0,0,0-.024-.012c.1-.094.2-.188.307-.277l.153-.117,1.348.565C153.461,112.724,154.868,113.325,156.274,113.925Zm37.742,16.683c-.041-.023-.088-.047-.136-.071.371.171.737.348,1.107.513.006.029.006.059.012.094C194.67,130.967,194.346,130.79,194.016,130.608Zm3.5-2c-.063-.649-.119-1.3-.179-1.948.128.7.256,1.392.4,2.087a1.339,1.339,0,0,0,.066.173l-.26-.106C197.531,128.753,197.519,128.683,197.514,128.612Zm-3.2-45.6q.159.274.3.565a17.83,17.83,0,0,1,.653,1.72A43.516,43.516,0,0,1,196.4,90.32v-.012c.559,3.379.948,6.783,1.26,10.187.118,1.325.253,2.638.336,3.963.1,1.684.206,3.362.3,5.046-.006-.065-.006-.124-.012-.183.041,1.7.106,3.392.141,5.082.015.548.017,1.095.021,1.643-.161-1.106-.32-2.212-.486-3.317q-.716-4.832-1.431-9.663c-.2-1.4-.387-2.805-.574-4.209-.027-.645-.051-1.292-.079-1.937,0,.053.006.112.006.171a69.449,69.449,0,0,0-.613-7.248,21.473,21.473,0,0,0-.712-3.38,4.835,4.835,0,0,0-1.443-2.409,2.085,2.085,0,0,0-.559-.306c.256-.234.519-.468.781-.7.174-.138.347-.278.532-.405a.1.1,0,0,1,.029-.018.264.264,0,0,1,.041-.011l.071.052c.065.065.13.13.188.195A1.353,1.353,0,0,1,194.316,83.012Zm-41.549,22.91c5.736-3.3,11.394-6.742,17.03-10.216,2.9-1.785,5.823-3.551,8.72-5.353,2.345-1.453,4.654-2.978,7.047-4.356-.2.17-.395.341-.593.513-.759.594-1.531,1.177-2.3,1.766-.689.524-1.443.989-2.161,1.478-1.408.96-2.868,1.831-4.305,2.75.053-.035.107-.071.165-.106-1.295.76-2.573,1.543-3.863,2.308-1.23.742-2.479,1.461-3.721,2.185q-4.337,2.535-8.668,5.093c-1.431.848-2.85,1.708-4.275,2.562-1.36.812-2.685,1.684-4.022,2.532.059-.036.112-.071.165-.1q-.725.45-1.413.954c-.159-.071-.318-.136-.477-.206-.1-.042-.193-.081-.289-.122l.006,0C150.8,107.041,151.784,106.487,152.767,105.922Z"/></svg>