<svg xmlns="http://www.w3.org/2000/svg" width="126.559" height="351.486" viewBox="0 0 126.559 351.486"><path d="M123.159,152.977a91.7,91.7,0,0,0-5.208-14.206,106.8,106.8,0,0,0-7.269-13.065,89.51,89.51,0,0,0-9.206-12.03,60.2,60.2,0,0,0-11.724-9.934,56.172,56.172,0,0,0-6.122-3.4c.1-.22.189-.443.277-.662.232-.565.482-1.116.709-1.683.243-.614.478-1.233.722-1.846-.024.054-.044.113-.072.172.37-.913.734-1.831,1.083-2.758.014-.04.032-.086.049-.131.04-.1.079-.206.121-.3.052-.129.1-.256.153-.381-.024.055-.044.113-.072.173.19-.464.372-.927.553-1.39-.019.059-.044.114-.066.177.069-.182.14-.354.207-.531l0,.01c.021-.054.043-.107.066-.16l0,0a.751.751,0,0,0,.03-.072c.025-.055.044-.114.071-.174-.019.059-.046.119-.066.177,1.118-2.655,2.155-5.338,3.5-7.892.123-.216.246-.432.377-.649.006.09.009.18.012.27,0,.753,0,1.511.012,2.266,0-.067,0-.131-.005-.2,0,1.792-.175,3.577-.338,5.355-.1,1.074-.175,2.152-.288,3.224a66.5,66.5,0,0,0-.522,7.018,1.5,1.5,0,0,0,1.391,1.554,1.541,1.541,0,0,0,.811-.2c.013.124.023.253.036.378a1.585,1.585,0,0,0,1.482,1.445,5.855,5.855,0,0,0,.713.019,2.555,2.555,0,0,0,.555-.135,2.172,2.172,0,0,0,.957-.724l.145-.207a4.845,4.845,0,0,0,.518-.91c.172-.44.335-.887.508-1.327l-.014.019c.867-2.032,1.608-4.11,2.353-6.192q.861-2.439,1.728-4.875c.425-1.2.841-2.4,1.261-3.6q.6-1.715,1.2-3.42c.23-.666.483-1.323.7-1.994.473-1.5.965-3,1.461-4.494.355-1.089.706-2.181,1.061-3.27.14-.456.32-.906.437-1.37l.016-.054-.006.039q1.117-4.105,2.25-8.215c.19-.7.415-1.4.57-2.111.258-1.186.529-2.371.8-3.558.716-3.21,1.447-6.411,2.081-9.636q.618-3.151,1.245-6.295c.336-.98.665-1.95,1-2.926.538-1.594,1.11-3.185,1.62-4.792,1.416-4.461,2.9-8.921,3.986-13.48a56.907,56.907,0,0,0,1.223-6.849,29.467,29.467,0,0,0,.149-6.662,8.45,8.45,0,0,0-1.993-5.2,3.929,3.929,0,0,0-2.22-1.266,5.209,5.209,0,0,0-2.52.359,8.2,8.2,0,0,0-2.543,1.631c-.529.456-1.032.915-1.528,1.4a14.642,14.642,0,0,0-5.98.7,33.741,33.741,0,0,0-6.255,2.743c-.786.484-1.587.957-2.383,1.434-.6.358-1.16.74-1.734,1.135-.7.491-1.453.951-2.113,1.5a.507.507,0,0,1,.062-.058c-.118.1-.234.189-.348.281-.156-.138-.314-.271-.473-.4a3.132,3.132,0,0,0-1.429-.71,4.137,4.137,0,0,0-1.7.11,3.467,3.467,0,0,0-1.457.761,6,6,0,0,0-1.071,1.421c-.654,1.145-1.34,2.275-1.933,3.456l.087-.155c-.673,1.2-1.3,2.43-1.964,3.643.029-.051.053-.106.086-.162-.536.955-1.02,1.932-1.515,2.9-.271.335-.537.673-.789,1.021-.673.916-1.3,1.855-1.936,2.793-.422.632-.84,1.267-1.233,1.918-.242.406-.5.8-.75,1.2-.363.587-.717,1.173-1.113,1.736-.1-.27-.183-.538-.266-.82-.234-.834-.445-1.681-.684-2.518.006.012.008.02.014.031-.475-1.658-.918-3.322-1.412-4.973.014.061.034.125.049.186a.869.869,0,0,1-.029-.092l0,0s-.006-.012-.008-.02c-.011-.036-.022-.08-.038-.12-.587-2.061-1.2-4.119-1.8-6.174.015.061.03.121.05.186-.019-.055-.035-.1-.048-.154l0,.009a.325.325,0,0,1-.018-.056v0l.007.036-.025-.1.006.013-.021-.07v0h0c-.16-.551-.352-1.1-.52-1.647-.2-.637-.407-1.272-.616-1.909-.426-1.256-.894-2.485-1.388-3.718a18.194,18.194,0,0,0-3.637-6.293,4.47,4.47,0,0,0-1.4-.974A3.887,3.887,0,0,0,62.41,1.23a4.41,4.41,0,0,0-2.843.881,6.463,6.463,0,0,0-1.244,1.3c-.193.254-.377.506-.56.766-.086.061-.17.118-.248.178A12.158,12.158,0,0,0,54.065,9.7c-.727,1.821-1.382,3.665-1.951,5.539-1.029,3.408-2.071,6.815-3.041,10.243-.423,1.5-.924,2.993-1.332,4.5-.228.847-.518,1.688-.777,2.527-.081.26-.161.506-.239.761-1.146-1.893-2.256-3.8-3.387-5.707-.968-1.624-1.906-3.269-2.892-4.876-.006-.012-.016-.019-.022-.03a.024.024,0,0,0-.011-.016l.009.007-.051-.08c-.011-.014-.014-.031-.025-.046l.009.021a.61.61,0,0,0-.039-.071.369.369,0,0,1-.041-.064c.011.015.018.027.029.041-.959-1.574-1.915-3.153-2.878-4.722l-.047-.076-.012-.019-.011-.019c-.019-.035-.043-.073-.061-.108a.14.14,0,0,0,.019.043c-.686-1.123-1.438-2.214-2.146-3.316a56.445,56.445,0,0,0-3.421-4.911c-1.254-1.544-2.616-3.149-4.56-3.8a2.278,2.278,0,0,0-2.211.339,3.285,3.285,0,0,0-1.1,1.928,11.579,11.579,0,0,0,.126,2.983c.119,1,.3,1.989.453,2.981.139.9.3,1.792.446,2.682.028.207.064.412.1.612-.357-.381-.719-.758-1.072-1.135-1.182-1.227-2.356-2.456-3.546-3.681-.529-.537-1.054-1.08-1.591-1.616L17.726,9.54c-.295-.286-.571-.61-.894-.867A7.536,7.536,0,0,0,15.606,7.9a1.544,1.544,0,0,0-2.12.907,3.531,3.531,0,0,0-.223,1.268,5.526,5.526,0,0,0,.275,1.309c.163.453.37.887.553,1.332s.345.861.533,1.289c.571,1.308,1.181,2.6,1.8,3.887q1.258,2.6,2.513,5.209c1.214,2.523,2.366,5.082,3.556,7.617.516,1.263,1.071,2.51,1.606,3.757q.555,1.3,1.107,2.592c.157.391.319.786.49,1.165.141.344.256.691.391,1.031.311.809.617,1.621.924,2.435.49,1.287,1,2.568,1.468,3.868.842,2.335,1.525,4.73,2.359,7.075v0c.006.011.008.027.015.039l-.027-.084c0-.008-.008-.02-.01-.028a.281.281,0,0,1-.018-.085c.613,2.188,1.257,4.354,1.894,6.529q.924,3.445,1.785,6.891,1.256,5.125,2.466,10.263c.728,3.121,1.451,6.251,2.339,9.327l.079.277c0-.022-.008-.04-.012-.058.066.237.134.47.2.7V86.4a.107.107,0,0,1,.006.041c.014.032.02.065.034.1,0,0,0,0,0,.008a.283.283,0,0,0,.019.064l0,0a54.665,54.665,0,0,0,1.8,5.2c.3.759.619,1.515.9,2.282l.013.04c-.367.111-.735.218-1.1.339a34.87,34.87,0,0,0-12.481,7.054,33.486,33.486,0,0,0-4.9,5.487A48.348,48.348,0,0,0,20,113.464a65.826,65.826,0,0,0-2.931,7.045c-.1.272-.179.548-.274.821a1.759,1.759,0,0,0-2.5.441c-1.276,1.867-.637,4.346-.289,6.412.084.484.178.974.271,1.457A54.064,54.064,0,0,0,11.685,143.8c0,.046,0,.093-.005.14-.222,1.887-.446,3.775-.657,5.663,0,0,0-.013.005-.018,0,.021-.006.039-.006.06-.007.056-.016.109-.02.16v-.022c-.065.523-.126,1.042-.184,1.563.008-.074.02-.151.032-.23-.021.171-.043.341-.063.51-.067.515-.065,1.034-.086,1.545q-.237,1.874-.372,3.755a136.737,136.737,0,0,0,1.3,28.628,1.724,1.724,0,0,0,.191,1.68l.05.064a166.8,166.8,0,0,0,3.216,16.75,1.3,1.3,0,0,0-.395.234,1.385,1.385,0,0,0-.084,1.921c.483.571.991,1.12,1.507,1.66.793,2.751,1.682,5.475,2.717,8.151a102.483,102.483,0,0,0,6.36,13.5c1.23,2.16,2.539,4.283,3.925,6.344,1.394,2.082,2.858,4.126,4.455,6.062q.307.378.624.741c1.067,1.564,2.191,3.088,3.38,4.55.744.918,1.517,1.822,2.316,2.7a1.7,1.7,0,0,0-.64.81c-.1.254-.2.5-.29.76-.085.193-.17.385-.256.569-.025.026-.052.043-.073.064a14,14,0,0,0-2.7,3.386c-.595.979-1.147,1.98-1.672,2.993-.589,1.155-1.183,2.307-1.768,3.457-.418.829-.808,1.671-1.211,2.51-.315.664-.636,1.324-.955,1.993a8.323,8.323,0,0,0-.436.938,1.48,1.48,0,0,1,.057-.154c-.524,1.135-.993,2.3-1.485,3.454q-.468,1.1-.944,2.2c-.138.316-.285.633-.409.953l.007-.012-.026.068c0-.013.012-.028.014-.041l-.01.025q-1.245,3.108-2.463,6.226v0c-.178.445-.355.89-.53,1.331l.007-.01c-.027.06-.05.123-.073.186-.2.377-.4.758-.6,1.136q-.919,1.707-1.816,3.423c-.655,1.166-1.259,2.354-1.9,3.525-.69,1.279-1.4,2.544-2.062,3.834.036-.061.068-.117.1-.174-.693,1.241-1.314,2.525-1.969,3.784-.663,1.291-1.339,2.579-2,3.87.036-.061.068-.118.1-.174-.249.436-.45.907-.666,1.367-.931,1.98-1.885,3.951-2.816,5.93a94.158,94.158,0,0,0-4.085,10.316,61.658,61.658,0,0,0-1.788,6.668c-.088.412-.168.832-.239,1.25-.332.76-.658,1.531-.968,2.3l.007-.009c-.007.009-.009.022-.016.032-.017.045-.035.09-.052.136h0c-.55,1.331-1.1,2.666-1.607,4.017-.245.635-.48,1.276-.71,1.92-.149.428-.3.852-.448,1.283-.129.378-.241.752-.331,1.135a5.678,5.678,0,0,0-.181,1,3.091,3.091,0,0,0,.685,2.086,2.57,2.57,0,0,0,1.712.9,8.463,8.463,0,0,0,4.739-1.261,39,39,0,0,0,4.8-2.993c.83-.6,1.648-1.217,2.454-1.852.623-.5,1.285-.968,1.881-1.5.421-.331.839-.67,1.254-1,.023-.012.041-.028.065-.041,1.351-.856,2.719-1.687,4.047-2.582,1.37-.915,2.74-1.83,4.1-2.757,1.935-1.317,3.861-2.639,5.853-3.866a36.167,36.167,0,0,1,3.385-1.819,13.3,13.3,0,0,1,1.457-.516c.219-.055.447-.1.676-.143.046,0,.1,0,.146-.013s.124.008.188.01c.031.007.07.013.109.019a.8.8,0,0,0,.16.048l.092.043.044.031c0,.008.011.015.012.023.027.033.051.071.077.1.087.155.165.31.239.47a4.428,4.428,0,0,1,.166.491c.4,1.579.7,3.184,1.019,4.776.3,1.483.571,2.965.859,4.449.328,1.684.638,3.363.952,5.045.317,1.648.67,3.286,1.016,4.933.282,1.35.585,2.7.964,4.025a30.615,30.615,0,0,0,1.074,3.274,10.03,10.03,0,0,0,.681,1.314,3.935,3.935,0,0,0,.84,1.037,2.342,2.342,0,0,0,2.517.351,3.406,3.406,0,0,0,1.361-1.864,14.174,14.174,0,0,0,.8-3.374v.014l.141-1.153a2.184,2.184,0,0,0,.507-.414A6.316,6.316,0,0,0,52.163,342c.291-.9.6-1.8.894-2.7.992-3.018,1.972-6.05,3.148-9-.023.063-.047.118-.067.176.221-.529.442-1.057.66-1.594.072.072.148.139.223.206,1.153,1.092,2.3,2.2,3.455,3.286,1.12,1.039,2.253,2.059,3.389,3.074.8.722,1.6,1.441,2.422,2.135a20.524,20.524,0,0,0,2.615,1.91,6.553,6.553,0,0,0,2.38.968,3.166,3.166,0,0,0,2.611-.633l.141-.139a2.314,2.314,0,0,0,.636-.3,4.827,4.827,0,0,0,1.547-2.763c.319-.956.554-1.936.834-2.905.724-2.485,1.389-5,2.312-7.415a3.854,3.854,0,0,1,.2-.423,1.481,1.481,0,0,1,.09-.139c.093-.122.192-.232.294-.347l-.007.009a2.608,2.608,0,0,1,.273-.254c.168-.127.338-.245.512-.36.135-.078.27-.148.406-.219.039-.015.084-.027.123-.042l.078-.018c.016,0,.029,0,.045,0s.064,0,.1,0c.049.013.1.021.15.033.125.038.254.079.376.121a.231.231,0,0,0,.027.012c1.035.872,2.079,1.742,3.132,2.59.052.059.1.117.162.179.5.562,1.01,1.12,1.484,1.705.616.773,1.229,1.549,1.836,2.336.58.752,1.134,1.531,1.733,2.276a15.706,15.706,0,0,0,3.725,3.547c1.29.807,2.761,1.776,4.351,1.418a2.614,2.614,0,0,0,1.192-.7c.855.565,1.718,1.129,2.574,1.695,1.3.863,2.649,1.647,3.972,2.468a25.392,25.392,0,0,0,2.513,1.371,10.915,10.915,0,0,0,2.959,1.044,6.707,6.707,0,0,0,3.01-.36,9.433,9.433,0,0,0,2.723-1.2,4.783,4.783,0,0,0,1.146-1.138,4.363,4.363,0,0,0,.568-1.126,5.569,5.569,0,0,0,.029-2.621,17.94,17.94,0,0,0-.987-3.437c-.626-1.6-1.275-3.185-1.979-4.753.028.063.051.122.079.185-.345-.789-.691-1.587-1.044-2.375l0,0-.005-.018c-.036-.073-.069-.149-.1-.225.011.016.019.035.03.05-.16-.357-.319-.713-.474-1.067a.577.577,0,0,0,.024.06c-.087-.2-.174-.395-.26-.594a.537.537,0,0,0,.027.076c-.127-.287-.247-.564-.373-.844,0,0,.007.012.012.016-.054-.11-.1-.224-.153-.338.013.023.021.043.033.067-.012-.024-.02-.044-.028-.063-.914-2.1-1.894-4.176-2.872-6.245-.946-2.012-1.885-4.025-2.855-6.024.028.063.056.126.079.185-.759-1.736-1.586-3.447-2.4-5.161.028.062.051.122.079.185-.969-2.2-1.973-4.375-2.985-6.551l0,.007-.012-.023-.006-.011c-.016-.037-.033-.071-.048-.105h0c-.009-.027-.022-.053-.034-.082l0,0c-.767-1.734-1.51-3.494-2.294-5.226,0,0,.007.012.012.015-.357-.855-.724-1.7-1.081-2.559q-3.957-9.465-7.869-18.957c-1.2-2.935-2.373-5.88-3.585-8.805-.658-1.593-1.27-3.21-1.9-4.812-.2-.518-.405-1.041-.606-1.564-.152-.388-.3-.777-.45-1.166a43.968,43.968,0,0,0,6.023-3.454,59.433,59.433,0,0,0,5.657-4.524c1.854-1.655,3.652-3.371,5.346-5.189q2.623-2.808,5-5.833c.965-1.229,1.9-2.474,2.8-3.751a76.374,76.374,0,0,0,5.493-9.051,88.7,88.7,0,0,0,5.749-14.2,116.647,116.647,0,0,0,5.282-29.729A94.335,94.335,0,0,0,123.159,152.977Zm-5.748,55.034c0-.008,0-.018,0-.026-.029.111-.063.221-.092.332a1.9,1.9,0,0,0-.487.014,2.554,2.554,0,0,0-.988.392c-.2.137-.4.289-.607.423l-.319.2q.159-.772.318-1.543c.105-.538.243-1.074.323-1.616q.2-1.424.4-2.847c.225-1.6.5-3.2.641-4.811.181-1.989.363-3.978.518-5.97-.008.073-.013.142-.026.212.076-.559.082-1.13.106-1.7.037-.687.064-1.38.087-2.069.037-1.363.05-2.722.028-4.084q-.018-.93-.052-1.861c.1-.026.209-.046.312-.074a12.831,12.831,0,0,0,1.574-.52c.3-.126.591-.266.885-.408a133.881,133.881,0,0,1-.8,16.07A80.883,80.883,0,0,1,117.411,208.011Zm-8,10.15a2.718,2.718,0,0,0-.588-.092,10.188,10.188,0,0,0-1.535.082c.615-.554,1.213-1.126,1.776-1.737.314-.155.622-.322.934-.48C109.807,216.676,109.608,217.418,109.416,218.161Zm-8.734,5.309a.575.575,0,0,1-.071.03c-.035.019-.066.032-.1.046.014-.011.031-.014.046-.024-1.48.651-2.955,1.305-4.472,1.865-1.613.6-3.253,1.149-4.907,1.638,2.157-.844,4.274-1.786,6.357-2.785,1.711-.815,3.419-1.683,5.055-2.658.94-.107,1.88-.219,2.826-.3-.68.321-1.364.639-2.045.952-.909.412-1.811.835-2.72,1.248ZM51.935,89.3a1.341,1.341,0,0,1,.141.064l.052.016c1.646.687,3.243,1.477,4.825,2.3-.023.278-.049.554-.077.831-.326-.024-.652-.052-.979-.067a39.726,39.726,0,0,0-7.353.308c-.04-.083-.088-.162-.126-.246-.547-1.259-1.026-2.542-1.472-3.837.182-.048.366-.1.552-.129.253-.031.512-.051.775-.067.295,0,.59.011.885.032.229.032.452.073.676.123a20.745,20.745,0,0,1,2.193.721Zm27.2,19.155c.489.5,1,.987,1.471,1.5q1.462,1.622,2.912,3.249,1.468,1.844,2.971,3.658l-.133-.158c.955,1.19,1.854,2.441,2.772,3.662.552.732,1.08,1.48,1.612,2.224-.258.047-.514.1-.772.144-2.4.356-4.784.831-7.182,1.221l-.025,0c-.8.072-1.606.19-2.412.285-1.366.163-2.736.33-4.1.483-3.361.395-6.734.67-10.119.756a107.869,107.869,0,0,1-13.7-.592c-1.319-.145-2.646-.281-3.949-.509-.855-.147-1.7-.3-2.551-.447-1.623-.292-3.263-.53-4.872-.892-1.786-.4-3.57-.79-5.354-1.2-1.9-.434-3.795-.877-5.7-1.272-.062-.013-.124-.022-.186-.035.41-.8.821-1.59,1.255-2.372a35.341,35.341,0,0,1,2.337-3.6c.66-.888,1.362-1.732,2.057-2.589.863-1.049,1.7-2.129,2.624-3.123a25.056,25.056,0,0,1,1.866-1.675,84.773,84.773,0,0,1,7.583-5.116q.8-.273,1.6-.521c.017,0,.032.007.048.008a20.812,20.812,0,0,0,4.8-.355c.409-.058.81-.158,1.214-.241a9.968,9.968,0,0,0,.974-.229,2.58,2.58,0,0,0,.97-.693c.079-.081.145-.173.219-.258a57.6,57.6,0,0,1,6.17-.463,45.679,45.679,0,0,1,5.6.29c.1.013.2.026.3.041.251.2.508.414.762.615.507.414,1.042.812,1.532,1.25q1.473,1.315,2.96,2.62c.995.959,2.006,1.908,3.013,2.86a.238.238,0,0,1-.034-.027C78.168,107.447,78.651,107.961,79.137,108.458Zm26.906,23.106c.043-.031.073-.073.113-.107.352.539.708,1.077,1.052,1.622q.867,1.443,1.692,2.908a2.075,2.075,0,0,0-.322.152,4.189,4.189,0,0,0-.564.5c-.548.058-1.084.15-1.628.238l.065-.009a7.309,7.309,0,0,0-1.188.252c-.245-.1-.494-.191-.741-.287a2.1,2.1,0,0,0,.614-1.281,2.437,2.437,0,0,0-.992-2.224,2.543,2.543,0,0,0-.869-.358,15.553,15.553,0,0,0,1.513-.6A9.224,9.224,0,0,0,106.043,131.564Zm-87.963.621c.056.044.114.086.17.129l-.105.345C18.122,132.5,18.1,132.342,18.08,132.185Zm4.68-14.028c.063-.121.133-.231.2-.352.017-.028.032-.058.049-.089h0l0,0c.016-.031.032-.061.05-.091l-.005.012,0-.008-.008.018.013-.025.042-.073.348-.619c-.1.558-.217,1.112-.329,1.667l-.053-.021a2.079,2.079,0,0,0-.471-.125c.084-.151.169-.3.253-.453C22.822,118.049,22.792,118.1,22.76,118.157Zm6.808,6.571c1.234.529,2.477,1.043,3.724,1.532,1.285.507,2.558,1.042,3.863,1.5,2.079.728,4.156,1.49,6.267,2.153.825.26,1.657.5,2.488.745-.565,0-1.13,0-1.694.023-.209.011-.42.014-.634.022-.4-.032-.8-.067-1.206-.107-.6-.059-1.2-.12-1.8-.177q-2.88-.975-5.758-1.948c-.974-.325-1.926-.72-2.881-1.083-1.162-.442-2.319-.882-3.48-1.317-.373-.154-.742-.316-1.113-.476.169-.359.339-.716.51-1.077.067-.143.139-.283.207-.426Zm20.585,16.633c-.663-.041-1.322-.087-1.987-.123l-1.029-.061c.574.022,1.153.048,1.728.07a.623.623,0,0,1,.089.006ZM26.774,131.337c.811.146,1.613.306,2.422.415-.446.06-.888.117-1.339.174-.811.1-1.621.156-2.424.3-.059-.025-.119-.05-.179-.073l.038.017-.061-.026-.034-.012.02.007-.463-.2c.212-.578.421-1.151.61-1.738.152-.348.295-.7.443-1.053.072.047.141.1.213.145a2.2,2.2,0,0,0-.152.262A1.272,1.272,0,0,0,26.774,131.337ZM20.1,171.4l-.166-.067-.009,0c-.231-.093-.46-.187-.69-.279l-.093-.076c0-.025.006-.05.008-.074.78.363,1.569.712,2.369,1.027q-.791-.282-1.575-.591Zm14.46,7.762,1.435.355c.074.017.147.036.221.054l-.081-.019.016,0c.05.011.1.024.15.037l-.026-.008h-.01l.017,0,.031.008-.017,0,.174.043.016,0h-.005c.457.11.919.195,1.378.29,1.079.226,2.15.454,3.224.676l.654.137q1.1.4,2.2.808c-.785-.112-1.556-.312-2.329-.478-1.038-.22-2.081-.451-3.121-.661-.951-.268-1.9-.544-2.855-.812-.862-.247-1.714-.512-2.559-.8l1.621.4Zm13.005-12.575c-1.5-.376-3-.78-4.481-1.229l2.271.62c1.3.358,2.6.65,3.911.95q1.666.386,3.333.775-2.54-.5-5.055-1.121Zm-3.489,2.357q3.578,1.013,7.229,1.767c-.957-.081-1.914-.173-2.868-.283-.289-.031-.579-.069-.869-.107-1.845-.376-3.683-.79-5.51-1.254l.044.009a76.164,76.164,0,0,1-8.947-2.907c-.046-.018-.095-.039-.138-.061-1.632-.78-3.23-1.609-4.811-2.483l.183.107c-.473-.268-.944-.541-1.414-.814-.157-.106-.309-.217-.463-.326l.073.036c.788.374,1.6.7,2.4,1.045.676.287,1.342.568,2.03.829,1.657.633,3.309,1.283,4.992,1.847C38.682,167.26,41.355,168.168,44.077,168.944Zm55.5-29.732-.1-.021q1.055.266,2.091.587c.079.151.159.3.24.454-.3-.011-.606-.022-.908-.047a26.71,26.71,0,0,1-2.639-.414c-.279-.081-.554-.168-.827-.269-.114-.052-.23-.107-.344-.166q-.2-.12-.4-.251c.328-.04.656-.08.984-.118.166-.021.33-.052.5-.076C98.635,139,99.106,139.1,99.572,139.212Zm-6.826-5.821c-.423.119-.853.21-1.28.318-.5-.085-1.01-.176-1.517-.255.506-.073,1.012-.14,1.518-.211,1.028-.142,2.063-.263,3.089-.422C93.956,133.023,93.354,133.214,92.746,133.391ZM25.428,123.206c-.02.044-.041.087-.062.131l-.011.024c.023-.051.044-.1.068-.154Zm83.2,87.273c.192-.109.389-.216.581-.325.172-.093.335-.2.5-.292h0c-.2.264-.416.523-.621.787C108.94,210.587,108.787,210.528,108.629,210.479Zm-11.14,4.361q-2.3,1.168-4.635,2.271c-1.422.315-2.837.634-4.275.866l-5.7.906q-2.862.352-5.735.539c-.785-.02-1.579-.038-2.369-.061-1.175-.027-2.358-.146-3.529-.242-.305-.028-.613-.05-.918-.077,2.124-.062,4.256-.218,6.365-.463,3.351-.394,6.66-1.026,9.956-1.731,1.866-.4,3.747-.764,5.6-1.213,2.035-.5,4.069-.975,6.11-1.462.332-.08.663-.174,1-.257C98.727,214.223,98.105,214.527,97.489,214.84ZM22.94,208.627c-.073-.29-.134-.582-.2-.873.284.277.567.556.855.83l.051.089q.273.46.587.9c-.426-.3-.854-.6-1.281-.907Zm1.991-4.486c0-.088.01-.176.013-.264a55.478,55.478,0,0,0,5.528,5.475c-.148-.065-.3-.135-.443-.195-.209-.181-.416-.365-.622-.55l-2.848-2.564c-.545-.494-1.071-1.008-1.6-1.523-.011-.115-.019-.23-.027-.345a.8.8,0,0,1,0,.1v-.122l0-.047Zm-2.5-2.03c-.079-.07-.159-.141-.239-.209a10.567,10.567,0,0,0-.885-.659c-.1-.426-.186-.853-.292-1.274-.062-.41-.132-.817-.2-1.224.613.807,1.228,1.611,1.857,2.405A9.574,9.574,0,0,0,22.433,202.111Zm91.62-16.63a.438.438,0,0,0-.006-.083c.025,2.3-.068,4.6-.2,6.9-.131,1.088-.191,2.177-.284,3.262-.1,1.154-.211,2.307-.307,3.456-.144,1.086-.312,2.163-.464,3.251-.083.607-.171,1.217-.259,1.826a1.914,1.914,0,0,0-.591.252c-.425.277-.857.563-1.283.832-.556.329-1.1.661-1.645.989a2.458,2.458,0,0,0-.441-.274,4.577,4.577,0,0,0-1.449-.365,16.741,16.741,0,0,0-3.107.17c-.8.068-1.614.125-2.423.19-2.013.161-4.022.3-6.032.481-1.9.18-3.821.265-5.724.4-1.8.128-3.6.273-5.4.376.093,0,.181,0,.275,0-2.111.012-4.227.094-6.337.136-2.068.044-4.134.095-6.207.136a146.619,146.619,0,0,1-15.2-.918,76.532,76.532,0,0,1-9.394-1.71,55.3,55.3,0,0,1-6.175-1.966,56.828,56.828,0,0,1-5.726-2.688c-2.5-1.386-4.849-2.984-7.21-4.579-1.265-.853-2.521-1.708-3.749-2.614-.908-.674-1.775-1.385-2.624-2.133a.268.268,0,0,1-.048-.055,1.848,1.848,0,0,0-2.094-.451c-.2-.177-.385-.357-.578-.536q-.293-2.181-.586-4.361c-.165-1.26-.342-2.515-.472-3.772-.239-2.343-.491-4.686-.731-7.028-.019-.181-.032-.362-.05-.542l.071.026.071.051c.555.4,1.106.792,1.663,1.177,1.121.781,2.237,1.579,3.4,2.285a49.173,49.173,0,0,0,4.323,2.4A47.556,47.556,0,0,0,33,182.36c.726.237,1.466.433,2.2.639.868.251,1.736.551,2.618.74.966.2,1.923.408,2.888.612.6.133,1.2.26,1.8.388.211.047.428.107.645.137.807.121,1.617.229,2.427.346,1.239.173,2.479.354,3.718.526.494.067.975.139,1.47.184q3.426.272,6.861.541c.48.043.969.106,1.447.111.827.012,1.658.028,2.48.037q2.577.03,5.149.076c2.1.224,4.2.387,6.317.457q2.008.061,4.013.057c.906-.011,1.832.014,2.734-.05l.09-.006c.529.027,1.057.064,1.587.084a111.934,111.934,0,0,0,15.012-.415c3.471-.33,6.915-.868,10.337-1.536,1.7-.33,3.407-.649,5.1-1.023q1.058-.235,2.117-.475C114.022,184.354,114.045,184.917,114.053,185.481Zm-1.8-10.385-.02,0-.072.022.051-.016c-.47.131-.942.254-1.413.378-.378.015-.755.03-1.132.053-1.72.072-3.437.139-5.153.214-.664.022-1.321.057-1.985.08-.24,0-.494,0-.736.022-2.264-.015-4.529-.017-6.8-.02q-2.3-.009-4.6-.017c-.707-.008-1.416-.024-2.124-.011-1.69-.094-3.377-.171-5.069-.253.352-.018.7-.062,1.051-.081l3.128-.241,3.128-.241c.455-.033.917-.046,1.365-.12-.066.011-.123.022-.185.028,1.2-.134,2.4-.292,3.6-.442.778-.093,1.56-.191,2.338-.285.335-.045.677-.071,1-.128l-.011,0c1.576-.22,3.154-.446,4.724-.677h0l.007,0,.034,0h-.006l.03,0,.067-.007h0l.009,0a.542.542,0,0,0,.082-.014.156.156,0,0,1,.03,0l.019-.006c.046-.008.1-.013.14-.017l.055-.009h0l.343-.049a.214.214,0,0,1,.044-.008l0,0,.016,0,.008,0c.219-.033.445-.069.668-.1l-.2.034.634-.1c.109-.022.219-.037.328-.053l-.048.009c.155-.027.312-.046.473-.07a.11.11,0,0,0-.028.009l.663-.1c.1-.017.193-.029.284-.045.053,0,.108-.01.157-.019.03,0,.061-.009.09-.012.9-.137,1.8-.271,2.7-.41.7-.081,1.41-.225,2.106-.334a1.366,1.366,0,0,0,.687-.342q.263,1.44.481,2.887c0-.018-.007-.039-.011-.059.013.09.021.179.034.269-.333.1-.665.2-1,.3Zm-2.366-12.036.043-.014c-1.094.3-2.189.606-3.283.9-1.012.282-2.028.54-3.032.842.068-.025.137-.041.209-.062-.352.076-.7.163-1.051.254-1.734.214-3.478.358-5.214.538-1.765.177-3.542.288-5.31.427-1.46.111-2.911.2-4.365.271-1.955.1-3.917.232-5.871.292-1.477-.009-2.948.01-4.426.019q-1.525.007-3.058.01c-.4,0-.811.027-1.213,0-2.995-.172-5.995-.326-8.99-.519-1.542-.187-3.083-.405-4.62-.6-1.007-.132-2.016-.266-3.018-.4-.424-.053-.856-.083-1.272-.167q-.791-.16-1.583-.311c-.664-.153-1.33-.306-1.992-.46-1.58-.359-3.159-.74-4.742-1.094-2.606-.679-5.194-1.43-7.792-2.14-1.34-.366-2.671-.776-4-1.174-1.739-.517-3.488-1.027-5.225-1.557-1.938-.592-3.871-1.189-5.8-1.778q-.494-.15-.992-.292l-.237-.1c.087-.143.174-.287.269-.43a4.241,4.241,0,0,1,.3-.357,1.221,1.221,0,0,0-1.871-1.568,6.325,6.325,0,0,0-.874,1.256,1.458,1.458,0,0,0-.479-.279,1.589,1.589,0,0,0-1.112.046,1.863,1.863,0,0,0-.383.23c0-.222.009-.444.012-.667.2-1.154.407-2.319.615-3.476.3-1.273.606-2.54.909-3.809.554-2.109,1.054-4.233,1.586-6.342a.345.345,0,0,1-.009.044l0,0c0-.011.007-.022.009-.033.093-.316.186-.632.275-.944.094.009.194.021.289.038.5.062.993.115,1.483.164a22.929,22.929,0,0,0,3.969,1.726,39.852,39.852,0,0,0,7.106,1.8c2.444.415,4.9.777,7.374,1.01,2.523.24,5.05.383,7.58.521,1.728.092,3.458.12,5.193.159q3.706.09,7.415.175c.971.02,1.936.051,2.9.052q3.435,0,6.859,0c1.542,0,3.089.041,4.629,0,1.716.006,3.439-.007,5.157-.015,1.623,0,3.257.036,4.888-.012,1.766,0,3.535.031,5.3.048,1.334.009,2.659.027,3.993.065,1.461.041,2.919.066,4.372.13.855.227,1.714.449,2.569.676.472.127.946.25,1.421.374.42.942.834,1.887,1.257,2.827a.054.054,0,0,1-.01-.016l-.014-.031.007.012-.042-.094-.008-.012c.446,1.254.94,2.491,1.406,3.737.317.849.637,1.693.953,2.534.133.353.293.71.4,1.067.627,2.11,1.291,4.2,1.93,6.3C110.413,162.93,110.15,162.987,109.891,163.06ZM95.3,129.167c-.31.046-.62.089-.929.139.033,0,.066-.008.1-.01l-.159.02-.064.01.048-.008c-1.153.145-2.3.328-3.454.492-1.123.16-2.246.294-3.364.479-2.114.251-4.224.5-6.341.659-2.021.163-4.051.255-6.075.307.075,0,.147,0,.222-.009a96.122,96.122,0,0,1-12.662-.54,98.607,98.607,0,0,1-12.774-2.329l.039.011c-1.224-.315-2.442-.655-3.656-1.012l1.507.274c1.563.286,3.144.454,4.718.632,2.49.276,4.994.481,7.5.578q2.222.085,4.44.079c.212.017.424.031.636.033h0c2.979.042,5.959.043,8.941.06.931.006,1.875.058,2.809.009q1.977-.111,3.962-.23c1.209-.072,2.415-.138,3.619-.213.456-.024.911-.036,1.358-.089,1.894-.237,3.792-.458,5.678-.715.884-.12,1.76-.318,2.634-.5Q94.661,128.233,95.3,129.167ZM63.639,91.637c-.79-.5-1.636-.927-2.444-1.387-.379-.216-.763-.418-1.145-.625.029-.323.055-.648.091-.971a17.164,17.164,0,0,1,.342-1.847c.107-.378.228-.754.374-1.126.271-.651.584-1.281.91-1.908q1.017,1.762,2.017,3.541c1.036,1.873,2.121,3.73,2.995,5.691.118.289.224.583.33.877C65.974,93.1,64.8,92.377,63.639,91.637Zm-15.82,4.95a1.394,1.394,0,0,0,1.675-.13,1.289,1.289,0,0,0,.1-.135c1.26-.153,2.526-.258,3.8-.286.884,0,1.763.03,2.639.081-.042.115-.074.232-.117.346q-1.255.183-2.5.422a1.463,1.463,0,0,0-1.8-.418c-1.008.5-2.026,1-3,1.576-.214.062-.43.119-.643.184-.069-.024-.14-.041-.208-.068s-.106-.053-.161-.077l-.005,0-.136-.074.117.06a2.95,2.95,0,0,1-.272-.177c.014.01.025.025.04.036-.025-.018-.04-.036-.059-.049a.305.305,0,0,1-.055-.046l.048.034A.5.5,0,0,1,47.2,97.8a.918.918,0,0,1,.09.077l.1.068-.183-.15a.985.985,0,0,1-.083-.087,2.945,2.945,0,0,1-.184-.26c-.116-.2-.21-.415-.308-.627C47.023,96.733,47.421,96.659,47.819,96.587ZM19.963,123.5q.355-.723.7-1.45c.182-.329.352-.663.526-.994a1.34,1.34,0,0,0,.511.376l.2.085a2.911,2.911,0,0,0-.632,2.048c.008.059.026.115.035.174-.653,1.594-1.255,3.209-1.822,4.836-.164-.138-.337-.269-.492-.414-.135-.137-.259-.284-.389-.425q.561-1.981,1.2-3.935C19.862,123.7,19.915,123.6,19.963,123.5Zm99.666,48.413c.034.873.076,1.745.118,2.617,0,.079.007.158.011.237-.152.127-.3.254-.456.379-.034.026-.072.047-.106.074a3.934,3.934,0,0,0-.571-.128,9.432,9.432,0,0,0-1.025-.109,1.645,1.645,0,0,0-1.175-.949c-.211-1.439-.446-2.874-.727-4.3-.223-1.131-.474-2.257-.739-3.38.382-.076.768-.156,1.153-.235.264-.059.531-.1.8-.16a4.818,4.818,0,0,0,1.358-.528,1.874,1.874,0,0,0,.6-.559c.174,1.239.336,2.483.462,3.727C119.437,169.7,119.588,170.8,119.629,171.91Zm-1.12-9.317a1.774,1.774,0,0,0-.289-.193,3.409,3.409,0,0,0-1.057-.411,7.309,7.309,0,0,0-.985-.074,14.907,14.907,0,0,0-2.057.224c-.083.012-.165.03-.247.043q-.8-2.565-1.579-5.139c-.161-.538-.3-1.1-.5-1.633-.284-.753-.569-1.515-.857-2.272-.442-1.174-.886-2.344-1.323-3.514-.2-.519-.378-1.056-.6-1.57-.082-.187-.167-.372-.248-.558.015,0,.03,0,.045,0a1.655,1.655,0,0,0,1.374-.675,1.484,1.484,0,0,0,.243-.592,1.568,1.568,0,0,0-.123-.95,1.867,1.867,0,0,0-.005-2.48c.015-.058.019-.121.032-.18a9.891,9.891,0,0,0,1.127-.366c.186-.08.385-.162.577-.255.406.844.806,1.691,1.188,2.547l-.007-.02.045.105.018.04,0-.007a75.676,75.676,0,0,1,3.3,9.116A81.92,81.92,0,0,1,118.509,162.593ZM112.891,135.9h0c-.11-.2-.221-.4-.33-.6-.82-1.484-1.636-2.986-2.565-4.409-.524-.8-1.049-1.609-1.579-2.413-1.06-1.624-2.144-3.236-3.183-4.88l-.022-.033c1.6,2.231,3.139,4.51,4.574,6.847l-.013-.018Q111.411,133.1,112.891,135.9ZM104,128.178a9.717,9.717,0,0,0-1.277,0c-.856.061-1.7.186-2.544.291-.444.054-.887.123-1.328.188l-.055-.089,0,0-.007-.013h0l0,0,0,0-.013-.021.005.006c-.022-.04-.044-.081-.07-.122q-.63-.934-1.265-1.865c.624-.149,1.246-.3,1.87-.452.406-.1.807-.217,1.207-.324a10.93,10.93,0,0,0,1.552-.511c.088.13.185.256.27.388.463.714.933,1.426,1.4,2.144ZM90.562,111.586a86.317,86.317,0,0,1,7.163,7.875l-.024-.028c.463.58.909,1.177,1.363,1.767-.415.027-.83.064-1.244.12-1.036.143-2.066.318-3.1.506-.153.029-.3.061-.457.09-.645-.894-1.3-1.782-1.942-2.676-1.993-2.754-4.117-5.406-6.258-8.042a.178.178,0,0,0,.017.027c-.269-.333-.564-.646-.849-.964q-.789-.889-1.581-1.775c-.615-.691-1.253-1.341-1.9-2-.73-.743-1.446-1.506-2.2-2.224-.683-.646-1.368-1.3-2.053-1.954q1.049.521,2.073,1.076c-.029-.021-.056-.033-.08-.05l.154.087a.249.249,0,0,0,.032.02l-.008,0A55.05,55.05,0,0,1,85,106.875,59.062,59.062,0,0,1,90.562,111.586ZM76.118,97.518q-.532-.149-1.076-.282c-1.221-.511-2.467-.975-3.719-1.412q.237-1.653.443-3.308c.2-1.591.454-3.165.71-4.748.249-1.481.464-2.963.744-4.437.32-1.682.6-3.384.96-5.061q.33-1.528.65-3.064c.261-1.263.481-2.548.8-3.8.069-.24.145-.481.234-.721.01.036.02.064.03.1.095.376.169.752.232,1.134a.067.067,0,0,1,0-.029c0,.029.005.054.006.083s.012.066.022.1a.075.075,0,0,1-.009-.028c.136.973.3,1.951.448,2.926.246,1.748.407,3.506.566,5.266.3,3.337.559,6.677.87,10.013.17,1.818.33,3.636.494,5.451.072.8.16,1.595.244,2.388.008.087.018.176.028.264C77.907,98.054,77.018,97.766,76.118,97.518Zm29.794-32.253q-.47,1.712-.947,3.415c-.149.529-.313,1.048-.44,1.577-.068.219-.148.436-.215.655-.2.627-.415,1.256-.619,1.883-.49,1.506-.988,3.012-1.483,4.514-1.033,3.161-2.162,6.291-3.272,9.426-.464,1.315-.937,2.623-1.4,3.93-.487,1.348-.962,2.7-1.45,4.048.145-1.086.3-2.169.465-3.251.106-.7.226-1.4.362-2.092.161-.8.289-1.618.485-2.409.016-.075.033-.149.055-.221a.123.123,0,0,0-.018.046c.057-.2.106-.408.159-.616l0,.012c.029-.111.06-.225.09-.34-.018.067-.035.134-.053.2.139-.535.278-1.071.412-1.61-.018.066-.033.128-.051.195.073-.282.143-.558.212-.842a.941.941,0,0,0,.023-.095.074.074,0,0,0,.007-.031l.012-.036a.283.283,0,0,1-.011.044c.008-.019.009-.037.015-.055h0l0-.012c.4-1.261.82-2.518,1.221-3.784.516-1.307,1.021-2.629,1.537-3.936,0,.008-.006.017-.008.03.647-1.575,1.353-3.13,2.041-4.683.478-1.089.953-2.174,1.435-3.26.286-.662.587-1.315.853-1.991l-.013.03c.417-1,.817-2,1.224-3Q106.22,64.132,105.912,65.265ZM115.4,3.86c.2-.161.41-.316.626-.459.1-.055.2-.111.3-.158.194-.08.392-.149.589-.213.174-.042.349-.077.525-.112l.193-.008c.034,0,.077,0,.111.006.008,0,.018,0,.026,0a.016.016,0,0,0,.013,0,.259.259,0,0,0,.065.031l.116.082c.033.023.068.055.1.079.115.124.229.247.335.373.12.156.233.314.338.482.073.131.144.267.206.4.068.171.122.338.182.51a12.461,12.461,0,0,1,.252,1.279c.095.765.17,1.53.2,2.3a41.492,41.492,0,0,1-.321,4.828c0-.064.012-.129.018-.189-.1.752-.207,1.5-.335,2.248,0-.064,0-.136.007-.2.019-1.246-.04-2.483-.093-3.729a8.282,8.282,0,0,0-1.762-5.234A7.889,7.889,0,0,0,114.767,4.4C114.976,4.213,115.186,4.037,115.4,3.86ZM94.881,13.2l-.01.014.055-.047c.966-.646,1.887-1.352,2.852-2,.721-.442,1.453-.879,2.184-1.314a33.662,33.662,0,0,1,3.572-1.866l-.024.007c.031-.015.064-.028.1-.041l.042-.017,0,0a28.487,28.487,0,0,1,2.877-1.081,19.25,19.25,0,0,1,2.2-.5c.037,0,.074-.01.109-.013-.092.1-.185.2-.272.3-.738.835-1.474,1.678-2.221,2.513-1.048,1.176-2.048,2.393-3.122,3.536l.006,0a32.311,32.311,0,0,1-2.682,2.484c-.219.169-.447.34-.686.5-.166.092-.34.186-.515.271-.162.066-.325.124-.488.182-.223.06-.448.1-.681.149-.165.02-.332.032-.5.041l-.245-.021-.131-.027c-.013,0-.018-.006-.031-.008l-.014-.01c-.005,0-.01-.007-.013,0a.394.394,0,0,0-.064-.052c-.434-.428-.822-.909-1.213-1.378.027.033.058.062.09.1-.341-.435-.678-.877-1.026-1.308-.087-.1-.172-.212-.259-.315C94.805,13.266,94.841,13.234,94.881,13.2Zm-6.063,1.1c.2-.347.395-.694.618-1.033.034-.048.076-.1.115-.143.022-.02.047-.046.069-.066a.341.341,0,0,0,.057-.04l.1-.056c0,.005-.012.006-.016.011.063-.026.129-.049.2-.072s.118-.029.178-.04.095-.012.141-.016a.1.1,0,0,1,.026,0c.008,0,.013,0,.021,0,.023.008.042.022.065.03.052.03.095.06.143.094.01.007.02.022.035.032-.7.592-1.392,1.2-2.074,1.824C88.6,14.648,88.709,14.473,88.818,14.3ZM62.626,4.066l-.055-.006.05,0Zm-.647,0c.108-.01.208-.019.309-.02a2.26,2.26,0,0,1,.271.015c.042.009.088.021.13.029a.5.5,0,0,0,.062.015l.087.04c.048.033.1.063.153.1a.3.3,0,0,1-.059-.049A.32.32,0,0,0,63,4.247l.009.007c.079.063.154.13.229.2.129.134.255.273.382.42a16.006,16.006,0,0,1,1.1,1.536c.333.578.623,1.177.9,1.786.59,1.373,1.157,2.769,1.651,4.181.534,1.534,1.019,3.077,1.508,4.624.009.027.015.06.024.088.125.426.25.853.372,1.284q-.451-1.127-.9-2.248c-1.229-3-2.6-5.941-4.062-8.831-.193-.38-.41-.748-.615-1.122a5.511,5.511,0,0,0-1.151-1.731c-.162-.128-.327-.252-.5-.366A.1.1,0,0,0,61.979,4.065ZM26.609,8.292c.133.065.268.131.393.2.09.056.175.109.262.17.167.132.321.262.475.4a25.659,25.659,0,0,1,1.837,2.029c1.2,1.521,2.26,3.134,3.311,4.758.681,1.069,1.406,2.126,2.072,3.206.03.049.06.1.089.149q1.45,2.391,2.908,4.772c-.016-.018-.029-.042-.045-.06.044.065.084.134.128.2h0c1.067,1.758,2.093,3.544,3.137,5.315l2.747,4.652a24.391,24.391,0,0,0,1.343,2.175c.1.138.206.281.313.415a.128.128,0,0,0-.017.045c-.073.165-.147.321-.233.484-.034.049-.066.105-.095.157s-.084.1-.132.145c-.085.091-.18.175-.278.264-.042.028-.079.06-.121.089a.46.46,0,0,1-.074.034.031.031,0,0,0-.02.008.432.432,0,0,0-.083.006c-.048-.005-.1,0-.145-.009-.109-.019-.21-.04-.316-.064a2.42,2.42,0,0,1-.349-.116c-.133-.057-.257-.116-.383-.183-.184-.107-.356-.221-.529-.343a19.376,19.376,0,0,1-1.632-1.355A91.993,91.993,0,0,1,34.08,27.61c-.521-.64-1.044-1.288-1.562-1.933-.619-.759-1.215-1.538-1.855-2.276l-1.982-2.3c-.078-.083-.148-.168-.218-.253-.215-1.066-.417-2.129-.6-3.2q-.51-2.992-.967-5.985s0,.008.006.011a.082.082,0,0,1-.008-.041c0-.017-.009-.028-.011-.045,0,0,0,.009.006.012-.146-.98-.261-1.983-.312-2.976,0-.064,0-.127.008-.2.009-.044.016-.083.025-.127-.019.059-.031.116-.05.174C26.575,8.412,26.594,8.354,26.609,8.292ZM31.324,44.5q-.785-2.064-1.574-4.13-.466-1.224-.931-2.454c-.127-.32-.235-.648-.375-.962-.5-1.227-1.038-2.443-1.555-3.663-.592-1.381-1.148-2.78-1.779-4.145-.883-1.908-1.777-3.811-2.663-5.723-1.439-3.084-2.985-6.115-4.4-9.212,1.287,1.314,2.552,2.636,3.827,3.957,1.109,1.154,2.191,2.339,3.283,3.51.3.328.6.665.893,1,.164.842.328,1.684.519,2.517.485,2.147.982,4.3,1.469,6.438.227,1.009.46,2.008.723,3.006q.852,3.256,1.716,6.519.383,1.467.769,2.938c.054.211.1.418.157.628C31.376,44.654,31.349,44.579,31.324,44.5Zm7.9,18.132c-.539-1.905-1.039-3.826-1.609-5.717-.017-.069-.038-.142-.054-.211.005.03.012.061.02.091q-1.706-6.189-3.472-12.35c.019.056.033.116.052.173-.022-.073-.044-.153-.065-.226.018.056.033.117.051.173C33.615,42.37,33,40.191,32.426,38c-.456-1.746-.964-3.492-1.37-5.26-.43-1.886-.858-3.764-1.284-5.646.534.663,1.065,1.331,1.6,1.99q1.517,1.866,3.024,3.725a59.352,59.352,0,0,0,4.24,4.78A18.31,18.31,0,0,0,41.247,39.8a6.744,6.744,0,0,0,2.592,1.074,3.4,3.4,0,0,0,2.591-.532,5.132,5.132,0,0,0,1.706-1.975c.03-.073.068-.147.1-.22a2.568,2.568,0,0,0,1.247-.34,4.543,4.543,0,0,0,1.541-1.925,18.5,18.5,0,0,0,1.2-3.354c.315-1.053.58-2.126.824-3.2s.5-2.17.752-3.25c.262-1.14.537-2.278.79-3.418.149-.672.334-1.334.47-2.009.576-2.1,1.16-4.209,1.7-6.322.473-1.669,1.031-3.326,1.662-4.938.143-.363.284-.732.426-1.094.233-.557.471-1.109.746-1.643.057-.032.12-.059.186-.092.043-.02.091-.037.139-.054s.069-.016.1-.022c.018.006.031.008.048.013.06.028.121.063.181.091.029.016.058.035.084.053s.052.042.084.065c.007.012.017.019.028.034s.006.012.015.018c.708,1.246,1.387,2.5,2.022,3.79.617,1.283,1.212,2.565,1.8,3.858.409.963.837,1.912,1.237,2.877.45,1.1.908,2.2,1.349,3.3.652,1.624,1.3,3.252,1.961,4.87.416,1.005.824,2.011,1.255,3.005a30.463,30.463,0,0,0,1.483,3.052,7.422,7.422,0,0,0,1.807,2.242,2.665,2.665,0,0,0,.675.38,1.424,1.424,0,0,0,1.59.831,10.664,10.664,0,0,0,1.621-.4,3.465,3.465,0,0,0,1.273-1.012A22.786,22.786,0,0,0,80.46,30.1c-.029.052-.053.107-.085.163,1.125-2.03,2.115-4.135,3.184-6.2.669-.839,1.37-1.642,2.105-2.421,1.395-1.38,2.739-2.81,4.2-4.13.5-.451,1-.9,1.5-1.356.317-.288.627-.6.961-.865.073-.064.151-.124.228-.192.141.178.28.348.425.522l-.067-.069c.474.585.93,1.186,1.42,1.769a6.707,6.707,0,0,0,1.461,1.423,3.366,3.366,0,0,0,1.769.452,7.58,7.58,0,0,0,2.043-.284,8.781,8.781,0,0,0,3.436-2.062,37.386,37.386,0,0,0,3.323-3.314c2.028-2.331,4.041-4.681,6.14-6.941.136.041.267.086.4.135h0l0,0,.019.007h0c.19.085.386.174.573.264.24.137.47.287.695.445.164.131.325.268.477.407a2.954,2.954,0,0,1,.219.241c.126.16.247.325.361.491.086.154.171.308.246.468.049.135.1.271.139.407.073.275.138.551.191.833.085.657.121,1.323.158,2,.026.5.056,1,.064,1.508v.048h0a36.678,36.678,0,0,1-.247,4.38c-.148,1.113-.355,2.219-.53,3.331-.107.7-.262,1.385-.39,2.08-.152.8-.283,1.6-.453,2.395-.4,1.823-.736,3.657-1.1,5.483-.56,2.824-1.135,5.637-1.69,8.464-.035.091-.065.185-.095.279-2.247,6.482-4.471,12.973-6.932,19.37-1,2.483-2.021,4.964-3.1,7.413-.534,1.2-1.074,2.4-1.6,3.6q-.585,1.338-1.174,2.673c-.189.422-.389.85-.563,1.282l0-.005c-.184.446-.36.891-.535,1.344l.007-.01a.171.171,0,0,0-.021.05l-.052.136c0-.008,0-.017,0-.026-.164.418-.335.845-.5,1.262.028-.059.051-.122.078-.182-.2.483-.393.969-.583,1.454l.013-.02a.091.091,0,0,0-.015.033c-.021.05-.041.1-.058.154a.335.335,0,0,1,.022-.072c-.009.023-.021.05-.03.073-.248.639-.431,1.309-.637,1.949-.219.66-.48,1.318-.65,1.991a1.607,1.607,0,0,1-.04.159l-.007.029h0c-.064.265-.139.536-.2.8l.006-.039c-.165.654-.338,1.31-.5,1.972.009-.044.018-.087.03-.136l-.041.164,0,0c-.024.084-.043.164-.063.244-.013.048-.026.1-.038.146s-.023.084-.036.132l0,.023h0v.011a.693.693,0,0,0-.026.112.524.524,0,0,1,.014-.091c-.075.322-.15.643-.216.972.055-1.02.089-2.04.07-3.068,0,0,0,.013,0,.021l0-.025c0-.022,0-.043,0-.065l0,.031a7.919,7.919,0,0,0-.4-3.658A2.881,2.881,0,0,0,91.091,78.9a2.275,2.275,0,0,0-1.431.715,8.623,8.623,0,0,0-1.088,1.66c-.453.8-.849,1.628-1.25,2.454-.505,1.035-.944,2.1-1.4,3.156-.424,1-.85,2.008-1.243,3.027v0c-.014.036-.029.069-.042.105l0-.006-.012.029,0,.016v0c-.063.154-.125.308-.184.459,0-.013.009-.023.011-.036l-.492,1.252,0,0c-.028.08-.056.152-.09.228.011-.014.013-.027.023-.042-.053.126-.1.242-.149.363l-.009.016c-.008.03-.023.063-.033.1l-.006.008-.022.051c-.389.922-.736,1.866-1.093,2.8.025-.055.048-.119.072-.173-.271.673-.529,1.356-.8,2.032h0c-.095.233-.195.464-.294.694-.031-.252-.054-.506-.082-.763-.379-3.29-.65-6.59-.93-9.889-.139-1.674-.292-3.351-.44-5.024-.078-.832-.147-1.665-.229-2.5-.125-1.2-.218-2.414-.363-3.61-.125-.984-.291-1.961-.444-2.935v0l0-.006-.006-.035c0,.009,0,.016,0,.023a.446.446,0,0,1-.014-.089.566.566,0,0,1-.01-.079.12.12,0,0,0,0,.019,15.131,15.131,0,0,0-.727-3.582,3.652,3.652,0,0,0-.835-1.3,3.877,3.877,0,0,0-1.408-.752l-.164-.073a1.4,1.4,0,0,0-1.846.66c-.254.577-.535,1.15-.762,1.739a11.594,11.594,0,0,0-.459,1.513c-.2.841-.346,1.7-.519,2.55-.206,1-.422,1.992-.638,2.985-.633,2.989-1.2,6-1.682,9.017-.263,1.622-.576,3.245-.786,4.875-.039.261-.07.519-.1.783-.44-.971-.935-1.916-1.444-2.85-1.538-2.809-3.121-5.585-4.7-8.365a1.436,1.436,0,0,0-2.569.051c-1.009,2.069-2.3,4.01-2.822,6.286-.13.573-.222,1.15-.3,1.729-1.045-.53-2.1-1.046-3.178-1.5a12.9,12.9,0,0,0-6.514-1.413,10.185,10.185,0,0,0-1.648.336q-.184-.584-.367-1.168c-.545-1.743-1.1-3.485-1.643-5.229a.06.06,0,0,0-.012-.044c-.009-.042-.02-.083-.03-.124C42.933,75.677,41.983,72.31,41,68.957l.013.044c-.008-.033-.017-.066-.025-.1l0,0a.073.073,0,0,1-.01-.028c-.008-.027-.016-.047-.025-.075C40.391,66.743,39.805,64.689,39.227,62.635Zm1.161,14.341q-.315-1.257-.619-2.508.767,2.686,1.544,5.369c0-.009-.006-.012-.007-.02.01.036.02.072.031.108a.168.168,0,0,1-.007-.041c.005.025.014.053.017.077l.024.06-.009-.01c.194.68.422,1.354.636,2.035q.636,2.044,1.271,4.089c.07.224.146.447.215.671-.115.079-.231.157-.344.242-.285-.9-.553-1.8-.825-2.7v.01C41.627,81.909,41,79.448,40.388,76.976Zm3.931,13.461c-.024-.064-.044-.129-.067-.193l.276-.255c.379,1.094.772,2.184,1.23,3.244l0,.009-.363.079C45.073,92.347,44.683,91.4,44.319,90.437ZM27.079,108.8l.013-.02A30.7,30.7,0,0,1,32.45,103.2a28.434,28.434,0,0,1,2.679-1.9,42.558,42.558,0,0,1,4.144-2.14,38.953,38.953,0,0,1,4.291-1.574,10.334,10.334,0,0,0,.663,1.317c.1.169.222.33.343.489A36.088,36.088,0,0,0,27.088,112.9c-.24.341-.463.692-.692,1.04a6.748,6.748,0,0,0-.414-1.133c-.017-.027-.027-.055-.039-.078a1.512,1.512,0,0,0-.879-.837c.615-1.028,1.253-2.04,1.957-3.013-.013.02-.035.04-.049.06C27.006,108.891,27.045,108.846,27.079,108.8ZM4.7,337.65c-.261.105-.52.2-.783.285-.2.052-.411.093-.619.133l-.188.02c.033-.17.068-.335.11-.5.384-1.424.9-2.819,1.412-4.2A4.334,4.334,0,0,0,5,334.1a4.881,4.881,0,0,0,1.892,1.711,4.975,4.975,0,0,0,.688.311A25.805,25.805,0,0,1,4.7,337.65Zm42.774,6.292c-.129.952-.247,1.9-.437,2.845-.241-.651-.442-1.318-.639-1.99-.4-1.4-.731-2.809-1.02-4.23-.337-1.64-.7-3.285-1.009-4.934q-.471-2.523-.946-5.042c-.345-1.8-.684-3.6-1.039-5.4-.153-.777-.313-1.552-.474-2.327-.307-1.5-.618-3.206-1.788-4.3a4.174,4.174,0,0,0-2.694-1.052,5.346,5.346,0,0,0-1.319.124c.24-.126.474-.243.715-.361.165-.071.332-.134.5-.194.1-.03.206-.056.308-.078.129-.01.25-.019.376-.024.106,0,.209.01.317.021.13.02.256.044.388.072.078.018.155.047.234.073.062.026.125.048.186.078.085.053.173.1.255.158.161.12.313.242.468.379.209.211.413.43.608.652h0l0,0,.013.014-.005,0q.257.34.481.7c.271.464.511.942.735,1.431l-.006-.01a20.305,20.305,0,0,1,.883,2.541c-.016-.069-.036-.133-.052-.2.874,3.077,1.468,6.236,2.11,9.366.427,2.056.832,4.111,1.3,6.16.178.8.367,1.6.554,2.4a16.79,16.79,0,0,0,.664,2.382,3.884,3.884,0,0,0,.337.669C47.475,343.886,47.476,343.916,47.472,343.942Zm6.805-16.66c.019-.058.047-.118.066-.176-.519,1.24-1.025,2.482-1.508,3.741-.456,1.191-.871,2.4-1.291,3.6-.093.266-.183.526-.273.787.152-2.52.284-5.041.56-7.553a19.786,19.786,0,0,1,.424-2.271,3.352,3.352,0,0,1,.1-.348c.015-.032.026-.068.045-.105.179.121.357.25.535.376.525.42,1,.891,1.494,1.346a.515.515,0,0,0,.06.057C54.416,326.92,54.346,327.1,54.277,327.282Zm15.048,8.759c-1.533-1.178-2.946-2.517-4.376-3.81-.823-.744-1.631-1.5-2.449-2.24a.072.072,0,0,0-.026-.026c-1.318-1.257-2.623-2.514-3.944-3.767l-.287-.266c.023-.034.048-.06.068-.089l.069-.067a.88.88,0,0,1,.1-.072,2.878,2.878,0,0,1,.3-.15l.286-.1.216-.05c.1-.014.211-.025.316-.03l.166.009c.1.017.184.036.277.057a4.473,4.473,0,0,1,.5.167c.21.089.414.19.618.3.332.183.647.39.964.606.222.177.439.364.652.555l.048.046a.173.173,0,0,0,.041.035l-.034-.024c.778.777,1.482,1.618,2.186,2.459,1.2,1.507,2.291,3.1,3.413,4.667.52.725,1.013,1.468,1.508,2.219C69.733,336.329,69.527,336.183,69.325,336.041ZM77.1,324.36a6.417,6.417,0,0,0-.578,1.264c-.151.419-.32.833-.456,1.262-.147.466-.293.939-.435,1.408a.141.141,0,0,0-.012.027c-.035-1-.068-1.991-.124-2.988-.116-2.169-.3-4.34-.37-6.508.792.636,1.548,1.312,2.317,1.968L79.22,322.3A6.5,6.5,0,0,0,77.1,324.36Zm31.771,15.9h0c-2.551-1.419-4.986-3.045-7.419-4.662l.058-.082a1.02,1.02,0,0,1,.09-.109.644.644,0,0,1,.078-.068c.074-.055.154-.107.229-.162.107-.062.217-.114.321-.171.083-.035.166-.063.254-.1a1.962,1.962,0,0,1,.2-.047c.039,0,.08-.009.117-.012.064,0,.127,0,.188.01.078.012.156.023.231.04.248.066.476.141.711.227a11.929,11.929,0,0,1,1.177.568c.193.116.379.233.559.358a31.561,31.561,0,0,1,2.493,2.138c.7.67,1.411,1.35,2.049,2.084.285.351.559.71.855,1.047C110.314,341,109.586,340.647,108.868,340.257ZM90.33,279.1q1.977,4.758,3.966,9.511c1.183,2.839,2.352,5.688,3.594,8.5l0-.008.006.014c.017.044.039.087.058.126a.143.143,0,0,0,.02.043l0,0c.012.023.021.051.034.074a.13.13,0,0,1-.017-.048c.106.248.218.5.324.747-.023-.059-.051-.122-.074-.181.528,1.2,1.064,2.418,1.592,3.623a.1.1,0,0,1-.016-.028c.02.049.042.1.065.142,0,.008,0,.008.006.012l-.009-.007c.065.132.123.274.185.411-.007-.019-.013-.031-.021-.051.034.074.068.149.1.228l.023.059,0-.012.015.036a.194.194,0,0,1,.02.042l.015.036,0-.012a.1.1,0,0,1-.015-.04c.474,1.118,1.006,2.213,1.507,3.313.513,1.124,1.019,2.257,1.535,3.375.339.779.726,1.548,1.09,2.321.417.891.828,1.792,1.249,2.686-.022-.059-.05-.122-.074-.182.5,1.14,1.065,2.253,1.6,3.378.41.85.808,1.7,1.215,2.56.984,2.1,1.936,4.219,2.912,6.323a.076.076,0,0,0,.008.028c.016.032.031.062.045.093a.268.268,0,0,1-.014-.043q.555,1.266,1.121,2.53c-.031-.058-.054-.117-.082-.18l.171.4.005,0a.464.464,0,0,1-.021-.051c.36.829.72,1.658,1.1,2.484-.027-.063-.054-.118-.082-.18.272.629.545,1.266.82,1.892-.008-.02-.016-.04-.022-.057.59,1.444,1.212,2.882,1.667,4.375.123.461.228.924.307,1.4l-.005,0c.034.218.059.437.078.667,0,.093-.006.183-.013.264s-.018.138-.031.208c-.013.028-.021.05-.03.073s-.034.069-.053.107c-.039.066-.083.128-.127.191.018-.016.028-.03.047-.046-.022.02-.039.044-.061.065l-.027.039.024-.034a1.894,1.894,0,0,1-.186.171c-.048.039-.1.073-.15.111s-.119.068-.177.1c-.053-.621-.094-1.239-.2-1.85a17.038,17.038,0,0,0-.519-2.056c-.257-.843-.533-1.678-.81-2.513-.184-.547-.337-1.108-.553-1.641-.218-.549-.448-1.093-.673-1.632-.854-2.083-1.882-4.081-2.869-6.106-1.346-2.775-2.748-5.531-4.11-8.3-1.551-3.149-3.1-6.311-4.609-9.488-.016-.04-.036-.083-.051-.122.009.027.018.055.032.087-.373-.852-.739-1.693-1.115-2.54.028.063.056.125.082.18-.24-.539-.48-1.078-.716-1.621a.128.128,0,0,0,.016.027c-.238-.542-.476-1.083-.718-1.621l-.028-.062c.013.023.02.043.033.066-.538-1.242-1.031-2.5-1.549-3.745-1.264-3.056-2.523-6.107-3.736-9.184-1.186-3-2.177-6.066-3.178-9.138.017.069.041.137.057.206-.192-.668-.388-1.331-.584-1.994C89.925,278.126,90.124,278.611,90.33,279.1Zm-4.418-3.668c.44,1.7.914,3.378,1.432,5.059-.021-.072-.041-.137-.057-.206.409,1.425.923,2.824,1.408,4.222,1.056,3.054,2.234,6.048,3.464,9.029q.906,2.181,1.809,4.367c.667,1.621,1.319,3.253,2.026,4.858l0,0c.017.041.034.08.051.119-.006-.011-.014-.031-.019-.042.043.1.09.208.137.305l-.007-.007c.011.031.026.06.038.086s.026.055.039.078l0,0c.018.043.035.084.055.125.1.225.2.451.3.673l0,0c.054.126.107.246.165.368-.019-.034-.034-.074-.053-.109.049.117.1.236.154.349a.681.681,0,0,0,.046.094c.025.056.05.113.071.167l-.009-.03c.1.244.212.487.318.735l0-.012c.037.088.074.17.112.26,0-.009-.008-.02-.01-.029.059.127.114.256.171.383l0-.014.021.051.015.032,0-.007c.035.084.072.167.108.248s.064.146.1.219h0v0l.02.041-.012-.018a.313.313,0,0,0,.021.046,1.1,1.1,0,0,0,.052.109c-.006-.012-.017-.027-.023-.038.06.129.118.262.178.391-.019-.035-.039-.077-.059-.121.1.232.2.46.305.683.022.057.044.107.069.16v0c.024.067.052.13.08.193l0-.005c0,.005,0,.005,0,.008.026.055.049.114.08.172-.005,0-.006-.011-.011-.015.358.791.754,1.559,1.131,2.343.347.726.694,1.46,1.052,2.18,1.472,2.985,2.928,5.981,4.412,8.96q2.277,4.593,4.5,9.19c.193.452.378.906.567,1.363.174.418.375.84.526,1.27.468,1.423.967,2.832,1.394,4.262-.248-.261-.5-.521-.762-.78-.637-.65-1.291-1.275-1.971-1.875a21.606,21.606,0,0,0-2.018-1.686,11.817,11.817,0,0,0-2.158-1.179,5.808,5.808,0,0,0-2.161-.54,4.953,4.953,0,0,0-3.853,1.855c-.048.059-.089.117-.13.175-1.326-.919-2.64-1.856-3.96-2.785-1.309-.992-2.621-1.972-3.93-2.957-1.079-.809-2.118-1.677-3.174-2.52-.462-.367-.919-.74-1.369-1.113a14.1,14.1,0,0,0-1.6-1.476,9.346,9.346,0,0,0-.951-.633c-.783-.658-1.558-1.318-2.337-1.981q-1.993-1.693-3.985-3.392c-.293-.249-.582-.5-.885-.737-.377-.294-.76-.578-1.164-.833a2.2,2.2,0,0,0-1.136-.309,1.9,1.9,0,0,0-1.311.452,3.119,3.119,0,0,0-1.1,2.246c-.008.462.025.917.038,1.379.031,1.461.154,2.923.248,4.378.056.832.1,1.666.138,2.5.077,1.551.111,3.108.162,4.663,0,.634.01,1.267-.027,1.9-.046.658-.112,1.317-.18,1.975-.018.109-.038.218-.056.327-.019-.035-.041-.064-.06-.1-.213-.322-.428-.64-.641-.962-.268-.4-.528-.8-.807-1.186-.48-.669-.96-1.338-1.432-2.008-.758-1.051-1.5-2.127-2.324-3.124a17.681,17.681,0,0,0-3.671-3.718,11.5,11.5,0,0,0-1.814-1,5.178,5.178,0,0,0-1.869-.464,5.027,5.027,0,0,0-3.564,1.3,1.581,1.581,0,0,0-.165.173,11.479,11.479,0,0,0-2.65-2.015,2.7,2.7,0,0,0-2.509.18,3.4,3.4,0,0,0-1.546,1.871,15.1,15.1,0,0,0-.419,1.62c-.113.518-.191,1.039-.259,1.567-.074.6-.138,1.2-.185,1.8-.134,1.777-.269,3.555-.372,5.339,0,.035,0,.069-.007.1-.022-.1-.046-.212-.064-.319-.316-1.567-.628-3.14-.957-4.71-.193-.913-.372-1.824-.573-2.736-.265-1.2-.5-2.406-.835-3.6a29.554,29.554,0,0,0-.956-3.063,10.826,10.826,0,0,0-3.6-5.1,5.389,5.389,0,0,0-2.8-.958,5.23,5.23,0,0,0-1.369.074,7.054,7.054,0,0,0-1.356.444,17.394,17.394,0,0,0-3.748,2.424c-.629.494-1.258.98-1.878,1.473a.114.114,0,0,1,.023-.013c-.012.007-.027.018-.039.024l-.01.012,0,0,0,0h0l-.01.01a.026.026,0,0,0-.015.012l.007-.01q-.072.062-.144.12c-.466.381-.932.761-1.4,1.134.052-.043.109-.082.16-.125-.315.255-.628.506-.943.76-.02.018-.041.033-.06.053-.1.081-.2.157-.29.228a.435.435,0,0,0,.041-.028c-.078.06-.156.12-.226.179.021-.018.044-.035.066-.052l0,0-.107.09c-1.175.945-2.342,1.909-3.509,2.881-.066.054-.137.105-.2.157-.718.561-1.4,1.149-2.095,1.731-.729.6-1.465,1.194-2.188,1.8a.741.741,0,0,0-.092.08c-.779.618-1.553,1.247-2.327,1.876-.343.212-.682.428-1.025.64-.655.389-1.308.764-1.96,1.148a31.189,31.189,0,0,1-2.795,1.54c-.38.151-.767.282-1.155.4-.187.049-.377.1-.57.133-.053,0-.107.01-.158.01-.034,0-.064,0-.1,0l-.044-.009c-.067-.018-.13-.041-.2-.059-.081-.038-.158-.073-.236-.114.018.01.035.02.052.028a.76.76,0,0,1-.08-.042h0l-.013-.008a.71.71,0,0,1-.088-.048.422.422,0,0,0,.079.041c-.066-.039-.132-.078-.2-.122a2.252,2.252,0,0,1-.25-.211c-.033-.034-.069-.067-.1-.1a.385.385,0,0,1-.046-.068,2.741,2.741,0,0,1-.137-.277c-.03-.074-.06-.148-.086-.225a7.513,7.513,0,0,1-.154-.742,20.248,20.248,0,0,1-.119-2.063c0,.075.008.142.008.214a15.161,15.161,0,0,1,.088-1.579c0,.008,0,.013,0,.016.086-.666.2-1.336.332-2,.475-1.085.95-2.161,1.425-3.245.443-1,.894-2,1.337-3q.552-1.231,1.105-2.462c.172-.4.361-.79.525-1.186-.009.023-.018.045-.023.063q1.631-3.733,3.308-7.449,1.069-2.379,2.116-4.76l1.161-2.6c.161-.362.33-.726.473-1.093-.016.053-.041.108-.061.159.234-.477.432-.985.642-1.478.441-1.015.887-2.04,1.327-3.055l1.3-2.991c.188-.428.381-.852.56-1.293l0,.008c.006-.018.016-.032.022-.05s.008-.023.01-.036a.032.032,0,0,1,0,.008.128.128,0,0,1,.009-.022c.518-1.227,1.011-2.471,1.509-3.712.6-1.1,1.172-2.22,1.757-3.328.627-1.179,1.261-2.367,1.879-3.553.451-.805.841-1.647,1.263-2.473.627-1.229,1.249-2.462,1.879-3.7.92-1.8,1.789-3.629,2.7-5.44q2.14-4.3,4.254-8.62.593-1.214,1.182-2.43c.068.653.138,1.3.229,1.947.2,1.466.38,2.93.634,4.383.283,1.624.558,3.25.849,4.873.052.346.137.686.2,1.029.154.785.316,1.568.469,2.352.185.915.361,1.831.555,2.744l.741,3.523c.247,1.174.557,2.35.75,3.529v-.016c0,.017,0,.033.007.049l.021.123-.005-.018a3.712,3.712,0,0,0,.758,2.08,2.159,2.159,0,0,0,1.817.652,2.293,2.293,0,0,0,1.718-1.053,8.934,8.934,0,0,0,.871-2.281c.247-.783.559-1.544.844-2.307.231-.637.458-1.276.7-1.9l-.018.042c.016-.041.031-.082.046-.124.036-.088.074-.181.113-.274h0c.013-.027.02-.058.032-.086,0,.014-.009.023-.011.036.155-.395.314-.794.472-1.194-.022.064-.047.119-.069.181.079-.195.155-.394.235-.59-.023.063-.047.118-.07.181q.135-.346.272-.694c-.02.058-.047.118-.067.176.047-.118.1-.24.143-.367,0,.013-.008.023-.01.036.035-.091.071-.173.106-.264.047-.118.09-.231.141-.354-.028.06-.047.118-.075.178.018-.046.035-.091.053-.136.3-.708.582-1.433.941-2.117.19-.32.4-.622.605-.921.128-.173.259-.338.4-.5.044-.044.085-.089.132-.133.026-.02.051-.036.075-.051l.019-.012s.005,0,.008,0a.611.611,0,0,0,.086-.019c.045,0,.1,0,.142-.008s.121,0,.181.009l.033.005.069.008c.07.013.137.024.206.041l.174.058a.754.754,0,0,0,.111.049.516.516,0,0,0,.068.042c.057.043.113.089.166.136a2.552,2.552,0,0,1,.219.241,19.608,19.608,0,0,1,1.192,1.745A.114.114,0,0,1,56.63,273c.013.022.025.046.038.069s.016.026.024.04l-.007-.014.01.017a.49.49,0,0,0,.031.048.24.24,0,0,1-.025-.037c.75,1.331,1.349,2.745,1.99,4.133a8.859,8.859,0,0,0,1.428,2.709,2.282,2.282,0,0,0,1.967.908,2.332,2.332,0,0,0,1.833-1.655c.331-.962.576-1.956.933-2.914.017-.024.026-.047.043-.071s.022-.042.035-.061a.915.915,0,0,0,.082-.1c.084.088.161.176.242.268.175.223.341.451.495.69.116.2.22.414.319.621.391.908.708,1.85,1.036,2.786.359,1.012.682,2.039.988,3.072.21.744.357,1.517.615,2.245a7.137,7.137,0,0,0,.513,1.123c.162.272.347.54.517.81a1.462,1.462,0,0,0,2.566-.384,28.214,28.214,0,0,0,.919-3.406c.171-.938.3-1.878.469-2.816s.335-1.888.511-2.837c.338-1.821.652-3.659,1.077-5.462.081-.277.169-.551.272-.824a8.566,8.566,0,0,1,.379-.82,1.9,1.9,0,0,1,.134-.209c.023-.033.052-.064.075-.1.191-.189.388-.367.584-.553a1.459,1.459,0,1,0-1.972-2.15,7.136,7.136,0,0,0-1.072,1.125,8.729,8.729,0,0,0-.805,1.565,16.256,16.256,0,0,0-.791,3.028c-.192.981-.38,1.964-.573,2.945-.187.962-.343,1.932-.526,2.9-.134.733-.245,1.475-.366,2.211-.05-.186-.1-.367-.16-.551-.307-.987-.654-1.958-1-2.933a16.175,16.175,0,0,0-1.028-2.572,9.017,9.017,0,0,0-1.488-1.989,2.923,2.923,0,0,0-1.831-.928,2.648,2.648,0,0,0-1.828.737,4.181,4.181,0,0,0-1.278,1.838c-.14.4-.268.811-.391,1.222-.416-.955-.858-1.892-1.286-2.841a21.136,21.136,0,0,0-1.375-2.63c-.334-.508-.652-1.049-1.031-1.523a5.033,5.033,0,0,0-.937-1.012,3.911,3.911,0,0,0-1.239-.684,5.8,5.8,0,0,0-1.43-.249,3.307,3.307,0,0,0-2.35.8,9.6,9.6,0,0,0-1.749,2.283,17.452,17.452,0,0,0-1.173,2.6c.019-.058.043-.113.066-.176-.023.063-.047.118-.071.173.007-.01.009-.023.015-.032-.147.364-.3.727-.439,1.095.023-.064.047-.119.067-.177-.45,1.131-.917,2.256-1.339,3.4-.292.774-.587,1.553-.874,2.33-.025.054-.041.108-.062.158-.144-.655-.292-1.314-.433-1.974q-.358-1.733-.721-3.459c-.191-.905-.362-1.809-.54-2.712-.231-1.156-.427-2.322-.685-3.469.007.071.019.136.027.207-.127-.967-.323-1.926-.491-2.886s-.324-1.913-.491-2.873c-.207-1.57-.485-3.14-.621-4.719-.092-1.015-.2-2.032-.269-3.047-.058-.746-.028-1.5-.052-2.239.011-.269.022-.542.037-.814a37.048,37.048,0,0,0,6.468,5.1A34.9,34.9,0,0,0,69.083,262.4a35.6,35.6,0,0,0,7.008-1.184q1.535-.433,3.038-.974c1-.269,1.994-.589,2.967-.952.181.537.365,1.072.539,1.611l.016.056.015.05a.279.279,0,0,1-.012-.034c.03.1.057.206.087.306.885,3.164,1.422,6.413,2.117,9.623C85.185,272.418,85.525,273.931,85.912,275.427Zm20.176-47.34c.027-.067.053-.135.075-.2A73.423,73.423,0,0,1,102.357,236a56.682,56.682,0,0,1-3.391,5.354c.017-.024.042-.049.059-.074-.04.058-.082.108-.123.166a46.708,46.708,0,0,1-3.5,4.158,41.694,41.694,0,0,1-3.537,3.252,47.888,47.888,0,0,1-4.964,3.507l.184-.108a62.922,62.922,0,0,1-7.02,3.709c.028-.009.051-.021.079-.03a47.35,47.35,0,0,1-5.335,1.978c-.375.1-.752.2-1.133.291-.874.079-1.746.123-2.626.139a30.312,30.312,0,0,1-3.8-.206,44.987,44.987,0,0,1-5.116-.994c.023.009.049.012.072.021a49.533,49.533,0,0,1-5.959-1.946c-.4-.161-.792-.325-1.184-.5-.111-.057-.219-.118-.33-.175a49.973,49.973,0,0,1-4.784-3.064,44.186,44.186,0,0,1-3.927-3.283c.026.025.055.045.08.07a51.229,51.229,0,0,1-4.065-4.435v0c-1.959-2.434-3.727-5-5.547-7.53-.663-.911-1.246-1.883-1.865-2.815s-1.266-1.876-1.871-2.827c-1.29-2.188-2.575-4.373-3.9-6.535-.736-1.41-1.464-2.822-2.2-4.236-.273-.523-.541-1.043-.814-1.566-.114-.339-.226-.671-.332-1.011-.06-.217-.127-.432-.189-.649.22.154.434.32.656.47A80.907,80.907,0,0,0,37,223.491a69.619,69.619,0,0,0,12.288,4.422,85.654,85.654,0,0,0,9.51,1.839,79.884,79.884,0,0,0,9.179,1.533,68.71,68.71,0,0,0,15.452,0,55.457,55.457,0,0,0,7.441-1.369,64.416,64.416,0,0,0,7.316-2.4c2.439-.97,4.83-2.047,7.216-3.126.229-.091.455-.2.673-.3.5-.222,1-.432,1.494-.67.075-.037.149-.076.223-.114q-.3.928-.6,1.851C106.866,226.151,106.473,227.12,106.088,228.087Zm9.086-13.253c-.75,1.883-1.562,3.752-2.472,5.566-.429.857-.875,1.695-1.329,2.535q.154-.464.308-.928c.219-.681.5-1.368.662-2.068l0,0c.544-2.039,1.089-4.083,1.613-6.131.377-.217.762-.42,1.135-.644l.164-.1c.24-.111.471-.244.707-.364C115.714,213.414,115.452,214.126,115.174,214.834Zm7.97-41.77a90.05,90.05,0,0,0-.991-9.73c-.031-.181-.055-.362-.086-.543.128.709.239,1.421.35,2.132-.012-.073-.02-.144-.036-.213a94.846,94.846,0,0,1,1,12.088c0,.536.006,1.077.006,1.609C123.3,176.624,123.222,174.847,123.144,173.064Z"/><polygon points="109.015 148.05 109.017 148.054 109.017 148.054 109.015 148.05"/><path d="M94.914,13.48c.036.044.069.09.105.135l.009.01Z"/><polygon points="96.229 303.288 96.229 303.288 96.229 303.288 96.229 303.288"/><path d="M96.854,304.707l-.007-.016-.013-.027C96.84,304.676,96.848,304.7,96.854,304.707Z"/><path d="M22.015,140.6v0a.718.718,0,0,1-.022.082C22,140.656,22.011,140.629,22.015,140.6Z"/><path d="M115.134,213.137l-.039.022-.145.086Z"/><polygon points="36.274 179.586 36.276 179.586 36.277 179.587 36.274 179.586"/></svg>