<svg xmlns="http://www.w3.org/2000/svg" width="201.614" height="308.976" viewBox="0 0 201.614 308.976"><path d="M44.194,229.582a13.018,13.018,0,0,0-4.328-4.463,10.289,10.289,0,0,0-5.883-1.425c-.344.025-.685.068-1.026.12a1.363,1.363,0,0,0-.75-.019l-.577.159c.053-.017.106-.029.159-.047-.567.147-1.136.285-1.689.47a6.681,6.681,0,0,0-1-.089,9.547,9.547,0,0,0-5.735,1.879,15.33,15.33,0,0,0-4.322,5.052,27.214,27.214,0,0,0-1.478,3.121c-.33.836-.66,1.69-.919,2.55-.283.942-.56,1.878-.836,2.82-.189.618-.342,1.243-.5,1.873-.218.854-.459,1.707-.647,2.573.011-.059.029-.124.041-.189-.271,1.208-.566,2.415-.819,3.622,0-.012.006-.024.006-.036-.151.687-.294,1.376-.439,2.064-.247.572-.5,1.142-.736,1.716.016-.037.032-.074.049-.11l-.051.115-.006.016c-.239.555-.451,1.129-.676,1.689q-.67,1.7-1.342,3.392c-.548,1.383-1.1,2.767-1.631,4.157-1.361,3.539-2.715,7.09-4.034,10.646a2.077,2.077,0,0,0,1.225,2.638,2.036,2.036,0,0,0,1.762-.18c-.237.757-.474,1.514-.725,2.267-.326.686-.651,1.371-.961,2.065-.712,1.584-1.389,3.179-2,4.805a18.088,18.088,0,0,0-.818,3.409c-.323.869-.643,1.741-.932,2.619a36.865,36.865,0,0,0-1.361,4.929,16.6,16.6,0,0,0-.253,2.343c-.1.318-.194.636-.288.954a21.228,21.228,0,0,0-.542,2.585A11.223,11.223,0,0,0,0,301.209a8.131,8.131,0,0,0,.077,1.366,5.439,5.439,0,0,0,.371,1.284,7.262,7.262,0,0,0,1.661,2.4,8.218,8.218,0,0,0,2.278,1.584A13.007,13.007,0,0,0,9.9,308.976c.306,0,.612-.006.912-.024a17.3,17.3,0,0,0,6.372-1.531,12.7,12.7,0,0,0,3.068-2.008c2.856-2.137,4.693-5.464,5.923-8.774.471-1.265.878-2.543,1.249-3.839.241-.848.53-1.7.712-2.561v.019c.373-1.651.752-3.291,1.055-4.954.121-.643.237-1.289.352-1.936,1.331-3.192,2.568-6.42,3.933-9.6q.644-1.383,1.256-2.777c.841-1.74,1.682-3.474,2.6-5.179.96-1.778,1.949-3.545,2.862-5.347.441-.871.906-1.737,1.325-2.62.174-.367.352-.735.528-1.1.029-.049.06-.1.088-.147.442-.765.907-1.519,1.307-2.308s.813-1.584,1.213-2.379c-.029.059-.064.118-.094.177.253-.477.442-.989.654-1.484.276-.636.541-1.266.783-1.914a22.825,22.825,0,0,0,1.46-6.377,19.816,19.816,0,0,0-.677-6.654A22.747,22.747,0,0,0,44.194,229.582ZM25.108,283.8c-.76,1.594-1.5,3.176-2.393,4.7a25.423,25.423,0,0,1-1.7,2.469c-.337.4-.688.79-1.058,1.158-.372.348-.757.678-1.159.986-.36.251-.721.484-1.1.7-.413.219-.834.418-1.264.6a18.085,18.085,0,0,1-1.929.628,40.115,40.115,0,0,1-4.61.88c-.167.017-.331.026-.5.028s-.356-.025-.534-.046c-.394-.077-.781-.162-1.17-.261-.49-.156-.98-.309-1.465-.485l-.029-.014c-.027-.124-.05-.248-.071-.373a12.118,12.118,0,0,1-.034-1.221c.093-1.428.284-2.837.482-4.249.215-.522.427-1.046.649-1.566.742-1.743,1.495-3.486,2.237-5.229q1.978-4.618,3.9-9.25c.583-1.408,1.113-2.85,1.608-4.293.253-.742.53-1.478.742-2.232.234-.813.509-1.633.7-2.459l0,0c.006-.012.006-.024.012-.036s.011-.047.017-.076c-.006.012-.006.023-.012.029l.018-.053c0-.017.006-.029.006-.047v.024c0-.012,0-.018.006-.024l.006-.031c.012-.052.024-.1.035-.151a.47.47,0,0,1-.018.047c.134-.583.263-1.165.391-1.748l-.008.017a.44.44,0,0,0,.024-.1c.006-.023.012-.053.017-.082a.209.209,0,0,1,0,.024c.014-.057.028-.115.038-.177l-.007.017a1.1,1.1,0,0,0,.029-.123.257.257,0,0,0,.012-.059v.023c.012-.05.022-.1.031-.155.114-.55.181-1.109.269-1.664.065-.442.141-.883.189-1.331.123-1.272.247-2.532.335-3.81.106-1.574.159-3.153.23-4.731q1.276-2.937,2.549-5.876a69.759,69.759,0,0,1,3.787-7.248l-.022.032.057-.09c.03-.051.06-.1.091-.151l-.04.069a42.626,42.626,0,0,1,2.466-3.546,22.716,22.716,0,0,1,1.866-2.058c.359-.333.727-.651,1.112-.955q.414-.3.852-.556c.248-.13.5-.251.759-.365.2-.072.4-.139.607-.2.114-.027.227-.049.343-.067.224-.023.448-.037.676-.042.178.007.355.019.536.035.294.055.582.121.866.2.514.292,1.015.6,1.5.938a20.76,20.76,0,0,1,1.643,1.324,19.72,19.72,0,0,1,1.453,1.524L39.1,233c.035.041.07.089.106.13l.006.006h0c.317.406.618.824.894,1.254a19.091,19.091,0,0,1,.972,1.825.842.842,0,0,0-.041-.1c.023.047.047.094.065.141l.006.013v-.007a24.7,24.7,0,0,1,.883,2.315c.177.624.316,1.256.431,1.895.029.181.049.363.074.544-.039.513-.09,1.025-.161,1.535-.2,1.242-.483,2.462-.743,3.694-.088.4-.218.789-.33,1.177-.116.415-.232.83-.349,1.241-.269.8-.53,1.61-.852,2.387-.34.816-.674,1.643-1.014,2.46-1.031,2.272-2.165,4.486-3.317,6.7-.5.633-1.006,1.262-1.477,1.913-.318.441-.641.883-.959,1.319-.189.258-.4.512-.566.783q-.407.636-.812,1.272c-.177.276-.377.547-.53.83-.424.789-.842,1.578-1.266,2.361-.177.33-.318.683-.471,1.03-.218.489-.436.99-.654,1.478-.318.731-.56,1.49-.824,2.238-.242.672-.46,1.331-.654,2.014-.212.742-.459,1.49-.636,2.249v-.005l-.018.088a.6.6,0,0,1-.017.077h0l0,.017,0,0c-.039.172-.074.343-.114.515.012-.058.023-.118.035-.182-.053.271-.112.547-.176.818v-.011c-.006.029-.012.064-.018.094a.48.48,0,0,1-.024.088l.006,0c-.03.134-.065.275-.094.409v.018a1.548,1.548,0,0,1-.041.159l.008-.018c-.046.224-.1.448-.15.677l.036-.176c-.041.2-.087.408-.128.606-.007.036-.016.069-.025.106a.143.143,0,0,1-.006.03v-.006l0,.017,0,.006h0c-.032.142-.055.287-.084.43C25.746,282.23,25.431,283.014,25.108,283.8ZM7.556,306.008a14.572,14.572,0,0,1-1.419-.406c-.265-.112-.524-.23-.783-.36-.212-.123-.424-.253-.624-.388-.183-.141-.359-.283-.53-.43-.177-.171-.342-.348-.506-.536a6.7,6.7,0,0,1-.419-.583.407.407,0,0,1,.024.047.262.262,0,0,0-.03-.053.93.93,0,0,0-.064-.1.849.849,0,0,1,.059.083c-.053-.089-.1-.177-.148-.271-.076-.183-.141-.359-.206-.548-.022-.08-.04-.16-.057-.24V302.2c0-.009,0-.018-.007-.026-.006-.058-.017-.116-.023-.18a12.75,12.75,0,0,0,3.245,2.815,21.508,21.508,0,0,0,2.526,1.354C8.245,306.12,7.9,306.073,7.556,306.008Zm13.455-6.048a.2.2,0,0,1-.028.052c-.162.3-.329.589-.507.873-.236.3-.492.6-.754.882a13.254,13.254,0,0,1-1,.944c-.318.241-.642.477-.978.683-.271.159-.547.306-.824.441-.248.1-.5.195-.754.283-.306.088-.606.165-.925.224h.018c-.265.035-.524.064-.783.076-.347,0-.7-.012-1.048-.035-.33-.041-.654-.095-.972-.165-.477-.118-.942-.253-1.4-.407A21.711,21.711,0,0,1,8.781,302.8c-.474-.257-.932-.53-1.385-.828a14.206,14.206,0,0,1-1.435-1.151c-.277-.276-.542-.565-.79-.865-.135-.183-.265-.365-.388-.56-.089-.159-.177-.324-.259-.489-.095-.211-.177-.429-.253-.647,0-.018-.008-.037-.012-.054.077.042.153.089.231.126a17.085,17.085,0,0,0,2.568.907,8.866,8.866,0,0,0,2.411.4c.13,0,.261,0,.392-.015a36.555,36.555,0,0,0,4.38-.683,17.4,17.4,0,0,0,5.966-2.172,15.69,15.69,0,0,0,3.015-2.491c-.218.747-.448,1.49-.709,2.224l.01-.025A29.543,29.543,0,0,1,21.011,299.96Z"/><path d="M71.305,199.547a20.036,20.036,0,0,0-2.968-4.181,17.583,17.583,0,0,0-1.7-1.619,20.126,20.126,0,0,0-1.825-1.419c-.736-.5-1.478-.972-2.238-1.425-.341-.206-.694-.389-1.054-.571s-.694-.377-1.054-.53l-1.289-.566c-.412-.182-.848-.306-1.272-.459-.342-.123-.689-.23-1.042-.33s-.73-.223-1.107-.312l-.049-.012c-.088-.017-.176-.035-.269-.059-.4-.082-.784-.17-1.172-.253-.087-.02-.175-.037-.266-.06-1.323-.287-2.681-.435-4.015-.658s-2.679-.336-4.022-.489c-.677-.071-1.366-.117-2.049-.147a19.276,19.276,0,0,0-2.962.023,6.138,6.138,0,0,0-2.114.53,4.4,4.4,0,0,0-.918.613,5.1,5.1,0,0,0-.49.5c-1.1.025-2.2.069-3.3.179-.4.041-.807.1-1.2.182a6.813,6.813,0,0,0-2.119.677,4.2,4.2,0,0,0-1.69,2.315,8.494,8.494,0,0,0-.548,2.991,15.931,15.931,0,0,0,.506,3.62c-.105.235-.218.464-.318.7a1.513,1.513,0,0,0,1.186,2.047,13.538,13.538,0,0,0,.216,1.427,14.783,14.783,0,0,0,2.585,5.847,20.861,20.861,0,0,0,3.415,3.492,14.7,14.7,0,0,0,1.343.995,18.127,18.127,0,0,0,2.149,1.937,13.188,13.188,0,0,0,5.889,2.692,12.854,12.854,0,0,0,1.9.129,20.824,20.824,0,0,0,5.07-.712c.294-.071.588-.154.877-.23.247-.03.489-.065.73-.106a10.6,10.6,0,0,0,4.505-1.743c.082-.036.165-.071.247-.112.058-.027.114-.059.173-.086.224-.079.454-.146.675-.232a24.988,24.988,0,0,0,3.977-1.932c.346-.192.692-.384,1.037-.58.43-.241.836-.535,1.248-.8.5-.325,1-.66,1.478-1.031a12.456,12.456,0,0,0,4.163-4.852,6.075,6.075,0,0,0,.448-2.856A6.753,6.753,0,0,0,71.305,199.547Zm-37.218.03a13.237,13.237,0,0,1,.271-1.319c.056-.188.117-.373.183-.557.064.183.138.361.209.542,0,.148-.005.3,0,.444a26.272,26.272,0,0,0,.441,4.6c.114.544.258,1.085.426,1.619-.377-.524-.742-1.056-1.073-1.608-.166-.3-.317-.61-.453-.924-.058-.169-.113-.338-.163-.509-.01-.06-.021-.117-.031-.177q-.011-.113-.012-.225a.775.775,0,0,1,0,.084c0-.032,0-.063,0-.095s0-.07,0-.1c0,.031,0,.062,0,.091C33.919,200.82,34,200.2,34.087,199.577ZM57.353,211.71c-.548.146-1.1.278-1.658.379-.784.116-1.573.2-2.362.236a26.85,26.85,0,0,1-3.056-.047,22.37,22.37,0,0,1-2.231-.336,19.089,19.089,0,0,1-2.185-.624h0a17.272,17.272,0,0,1-1.734-.778,19.329,19.329,0,0,1-1.784-1.119c-.419-.306-.819-.642-1.207-.983a12.777,12.777,0,0,1-.99-1.049c-.253-.323-.489-.665-.718-1.006-.206-.36-.4-.719-.577-1.09-.149-.333-.264-.681-.385-1.027.159.18.31.366.476.541a19.812,19.812,0,0,0,11.412,6.048,24.227,24.227,0,0,0,6.877-.065c.351-.051.7-.119,1.05-.182-.025.039-.046.079-.072.117a9.033,9.033,0,0,1-.577.707C57.543,211.531,57.449,211.622,57.353,211.71Zm-19.2-17.142a24.133,24.133,0,0,1,2.642-.52,21.741,21.741,0,0,1,2.409-.109l-.018,0a38.42,38.42,0,0,1,4.346.39c-.036,0-.071-.007-.106-.012a46.158,46.158,0,0,1,4.894,1.068c.241.17.48.34.724.511.318.229.63.465.96.665a2.71,2.71,0,0,0,.748.289,1.162,1.162,0,0,0,.724-.083c.065.059.13.112.2.171a20.352,20.352,0,0,1,1.454,1.554c.353.442.689.9,1,1.373a14.035,14.035,0,0,1,.836,1.525.366.366,0,0,0-.024-.059c.018.035.03.065.048.1l.023.054c0-.011-.012-.021-.017-.031.182.418.335.842.477,1.272a12.531,12.531,0,0,1,.3,1.3c.053.365.088.724.112,1.095.005.347,0,.7-.024,1.048-.041.371-.094.736-.165,1.1-.023.1-.06.2-.085.295a29.6,29.6,0,0,1-3.419.673,29.717,29.717,0,0,1-3.256.2l.035,0A21.8,21.8,0,0,1,50.3,208.2a18.752,18.752,0,0,1-2.021-.462c-.511-.167-1.007-.357-1.5-.565a23.468,23.468,0,0,1-2.37-1.222,21.361,21.361,0,0,1-1.88-1.3,20.9,20.9,0,0,1-1.732-1.584,22.066,22.066,0,0,1-1.626-1.914,17.187,17.187,0,0,1-1.041-1.6q-.289-.525-.542-1.065a31.425,31.425,0,0,1,.01-3.263c.017-.166.04-.33.062-.494C37.822,194.681,37.985,194.615,38.157,194.568Zm24.4,6.813c.162.3.314.6.447.913.1.27.193.541.271.815.044.193.078.386.108.579.014.17.021.335.023.5-.01.194-.032.388-.056.582-.02.123-.047.243-.077.363s-.074.21-.118.313c-.024.047-.051.092-.077.139q-.084.132-.177.258a11.371,11.371,0,0,0-.388-3.6,15.193,15.193,0,0,0-.7-1.916c.078.093.162.18.238.277A8.985,8.985,0,0,1,62.561,201.381ZM53.5,190.237c.542.129,1.083.258,1.625.373.534.158,1.062.311,1.59.475.471.171.96.318,1.408.519.494.223.983.435,1.466.659.465.241.93.489,1.395.73-.027-.011-.051-.023-.077-.036.221.12.432.268.649.4s.459.265.671.413c.412.276.818.559,1.219.842.335.247.689.488,1,.765s.606.53.913.795c.27.271.559.53.812.819l.184.209a1.442,1.442,0,0,0-1.317.353c-.013.012-.022.027-.034.04-.234-.249-.472-.494-.723-.726a16.3,16.3,0,0,0-1.62-1.384c-.488-.347-.983-.671-1.483-.983-.66-.407-1.319-.825-2-1.2s-1.371-.777-2.078-1.13c-.748-.371-1.5-.742-2.261-1.09-.748-.341-1.5-.677-2.267-.989a.642.642,0,0,1-.077-.029C52.839,190.12,53.168,190.179,53.5,190.237Zm-21.542,2.312c.07-.171.141-.336.224-.5a1.488,1.488,0,0,1,.082-.136c.023-.029.047-.059.071-.094.006-.006.011-.012.017-.012s.006-.006.012-.012a.121.121,0,0,0,.036-.023.481.481,0,0,0,.082-.03l.271-.07a11.464,11.464,0,0,0-.86,1.077C31.921,192.678,31.944,192.614,31.962,192.549Z"/><polygon points="166.91 199.065 166.91 199.065 166.915 199.06 166.91 199.065"/><path d="M78.994,186.49a9.562,9.562,0,0,0,2.585-1.814c1.178-1,2.259-2.113,3.346-3.209.233-.084.464-.176.689-.282a26.874,26.874,0,0,0,2.956-1.643c.754-.483,1.5-.972,2.226-1.49a26.6,26.6,0,0,0,3.362-3.015c1.926-1.916,3.8-3.881,5.68-5.846q.465-.42.932-.837c.547-.5,1.072-1.019,1.607-1.531.559-.53,1.143-1.048,1.679-1.608.653-.665,1.313-1.325,1.972-1.99.5-.518,1.031-1.013,1.513-1.549q.954-1.068,1.92-2.125c.465-.513.96-1.007,1.395-1.549.607-.748,1.214-1.5,1.82-2.255.456-.565.939-1.118,1.36-1.708l-.011.018c-.006.005-.006.011-.012.017l.008-.01.027-.037a.368.368,0,0,1,.059-.076c.124-.177.253-.354.371-.53l-.028.043c.044-.065.089-.129.134-.194.016-.024.032-.047.049-.07l.01-.015v0l.077-.108a1.305,1.305,0,0,0,.112-.153.019.019,0,0,0,.006-.012c.442-.618.878-1.23,1.319-1.843l.142-.194a1.255,1.255,0,0,1,.088-.1c2.967-3.4,5.747-7.137,7.031-11.524a11.121,11.121,0,0,0,.259-6.407,6.977,6.977,0,0,0-.748-1.636c-.1-.271-.206-.542-.33-.813a6.763,6.763,0,0,0-.63-1.19,4.434,4.434,0,0,0-2.008-1.572,4.736,4.736,0,0,0-2.968-.023,9.757,9.757,0,0,0-2.585,1.26c-.906.594-1.75,1.28-2.61,1.939a28.919,28.919,0,0,0-7.034,4.061,46.182,46.182,0,0,0-5.246,4.758c-.53.565-1.06,1.125-1.59,1.69-.281.3-.576.584-.833.9.023-.028.045-.058.067-.087-.441.529-.877,1.059-1.319,1.59-2.208,2.661-4.28,5.44-6.259,8.279-2.026,2.914-3.892,5.941-5.712,8.991.036-.059.071-.112.106-.171a48.146,48.146,0,0,0-4.163,8.886,27.809,27.809,0,0,0-1.342,4.593c-.02.106-.025.216-.042.323-.4.907-.782,1.823-1.126,2.751-.094.259-.194.524-.282.789-.524,1.007-1.031,2.02-1.513,3.044a1.324,1.324,0,0,0,.453,1.608,7.124,7.124,0,0,0,.006.8,5.3,5.3,0,0,0,.312,1.519,2.171,2.171,0,0,0,.642.936,2.427,2.427,0,0,0,1.436.536A1.882,1.882,0,0,0,78.994,186.49Zm-.3-3.957c.041-.389.106-.765.183-1.142.03-.135.072-.263.105-.4a3.069,3.069,0,0,0,.655.455,2.9,2.9,0,0,0,.354.125Zm4.775-11.253c.525-.948,1.025-1.9,1.538-2.85.465-.865.942-1.725,1.395-2.591q1.615-2.826,3.292-5.611c.388-.66.824-1.3,1.254-1.932.706-.948,1.407-1.9,2.114-2.855.394-.531.824-1.037,1.23-1.549.625-.783,1.243-1.56,1.867-2.344,1.03-1.283,2.108-2.532,3.151-3.8,1.377-1.684,2.814-3.309,4.257-4.928.271-.265.547-.524.818-.789.8-.772,1.631-1.508,2.462-2.256.753-.683,1.548-1.313,2.319-1.972,1.037-.825,2.073-1.655,3.127-2.444l1.169-.868a1.843,1.843,0,0,0,.022.45,1.919,1.919,0,0,0,2.214,1.5c.164-.02.329-.041.5-.065.63-.065,1.253-.1,1.89-.111.1,0,.2.013.3.024.063.013.126.028.188.044s.124.044.186.068.119.062.179.094l-.084-.054-.07-.031.061.025-.119-.076c.048.027.094.056.14.085.026.011.052.021.078.033l-.071-.028c.037.023.073.048.109.074s.073.067.108.1.046.053.069.08c.034.049.07.1.1.147s.062.125.09.189.034.1.049.148l.009.043c0,.053,0,.106.009.16-.024.548-.094,1.095-.166,1.635-.031.169-.065.337-.1.5-.018.049-.038.1-.057.148-.353.773-.748,1.524-1.167,2.263l.031-.048c-.158.263-.318.525-.476.784-1.108,1.745-2.31,3.428-3.571,5.063-.287.354-.573.708-.854,1.067.048-.064.1-.129.148-.188-2.728,3.335-5.5,6.633-8.392,9.836q-3.829,3.378-7.632,6.787c-1.207,1.077-2.361,2.208-3.539,3.321-.465.442-.913.913-1.366,1.372-.554.565-1.125,1.119-1.673,1.7l.024-.024c-.771.813-1.549,1.62-2.32,2.45l-.071.07v0l.019-.02-.013.015.016-.018c.01-.01.02-.02.031-.029-.035.035-.076.077-.112.118l-.008.007a.6.6,0,0,0-.05.052l-.012.012c-.019.019-.038.037-.057.057l0,0-.015.015c-.012.014-.026.029-.038.044l0,0c-.072.08-.144.157-.215.233-.165.171-.342.342-.489.524-.077.077-.147.159-.224.242l.012-.015c-.217.233-.438.465-.654.7.036-.042.077-.083.118-.13-.029.03-.059.065-.094.1l-.006.006-.006.006c-.029.03-.059.059-.088.094-.416.444-.839.879-1.259,1.318-.471.251-.947.5-1.44.7q-.123.045-.249.084c-.254.06-.507.109-.764.147-.1.01-.2.015-.307.017-.234-.013-.467-.038-.7-.065q0-.2-.006-.4c.019-1.039.082-2.068.166-3.107.028-.166.065-.328.1-.492C82.417,173.317,82.939,172.294,83.469,171.28Zm37.045-38.805c.047.162.078.324.116.484a5.749,5.749,0,0,0-2.17-.566,10.55,10.55,0,0,0-1.952.092,7.6,7.6,0,0,1,.885-.327c.215-.063.438-.1.658-.153.035.009.071.017.106.027.058.02.116.043.173.063s.128.063.187.1l.049.03a1.217,1.217,0,0,0,1.525-.15l0,0c.071.053.136.106.2.159.07.077.141.153.212.23A.017.017,0,0,0,120.514,132.475Z"/><path d="M46.071,142.372v.015h0Z"/><path d="M13.88,139.149c.118.883.235,1.761.359,2.644.089.636.141,1.278.271,1.908.171.807.336,1.607.5,2.414.189.919.381,1.835.569,2.753q.081.854.163,1.707c.075.774.123,1.558.223,2.326l0,.027-.008-.074c.012.106.024.218.041.324a1.009,1.009,0,0,1-.017-.108c.157,1.361.32,2.716.488,4.077,0-.053-.011-.112-.017-.165.106.877.265,1.749.406,2.62.109.671.244,1.342.413,2v0c.289,1.137.595,2.273.942,3.392.318,1.03.683,2.043,1.043,3.062a25.633,25.633,0,0,0,1.891,4.025c.342,1.229.683,2.459,1.05,3.68a15.334,15.334,0,0,0,.766,2.191c.271.565.606,1.1.93,1.637a14.778,14.778,0,0,0,1.49,2.02,8.61,8.61,0,0,0,1.79,1.572,4.843,4.843,0,0,0,2.562.918,2.687,2.687,0,0,0,1.118-.235c1.82-.8,2.591-2.838,2.968-4.652a19.2,19.2,0,0,0,.316-2.375c.055-.1.118-.192.164-.3a12.029,12.029,0,0,0,.777-2.938,41.059,41.059,0,0,0,.465-6.954,57.824,57.824,0,0,0-.536-7.214q-.074-.561-.154-1.121-.008-.756-.022-1.511c-.036-1.69-.2-3.368-.319-5.058-.052-.748-.159-1.5-.241-2.243-.082-.766-.153-1.525-.259-2.285-.218-1.631-.412-3.28-.748-4.893-.188-.9-.377-1.8-.6-2.691-.2-.795-.4-1.6-.666-2.379-.159-.442-.312-.89-.465-1.331a11.763,11.763,0,0,0-1.113-2.426A23.317,23.317,0,0,0,28.4,130.7a29.7,29.7,0,0,0-2.061-2.267c-.484-.471-.961-.943-1.443-1.412-.086-.134-.168-.271-.255-.4a17.5,17.5,0,0,0-1.354-1.861,7.45,7.45,0,0,0-1.19-1.172,2.662,2.662,0,0,0-1.17-.484,17.121,17.121,0,0,0-.959-1.492,3.7,3.7,0,0,0-1.184-1.213,1.813,1.813,0,0,0-2.131.394,4.045,4.045,0,0,0-.742,2.026c-.082.412-.118.83-.177,1.249-.011.085-.017.172-.027.257l-.005.005a5.5,5.5,0,0,0-.759,1.1,10.772,10.772,0,0,0-.995,3.156,26.208,26.208,0,0,0-.342,3.386c-.053,1.243-.041,2.485.012,3.727C13.674,136.847,13.727,138.007,13.88,139.149Zm4.861-7.35a1.188,1.188,0,0,0,1.7-1.657,2.473,2.473,0,0,0-.93-.606,5.4,5.4,0,0,0-.671-.259l-.008,0a1.43,1.43,0,0,0,.47-.571c.124-.271.242-.542.365-.807a.488.488,0,0,1,.042.077c.306.724.6,1.442.877,2.178.248.648.454,1.319.689,1.973.188.63.383,1.26.571,1.89.2.648.336,1.325.5,1.985.3,1.2.506,2.437.73,3.656-.006-.053-.018-.111-.024-.164.206,1.36.43,2.726.6,4.086.2,1.637.377,3.268.565,4.9.283,2.456.471,4.917.736,7.367.2,1.9.383,3.8.613,5.7.212,1.79.524,3.58.777,5.364.23,1.637.583,3.256.877,4.881.261,1.411.522,2.816.8,4.221-.047-.017-.095-.032-.143-.05-.744-1.1-1.417-2.241-2.086-3.39a39.193,39.193,0,0,1-1.983-4.14c-.41-1.04-.783-2.1-1.165-3.156-.588-1.637-1.13-3.292-1.566-4.976l.006.026c-.316-1.277-.569-2.574-.8-3.871-.135-.766-.3-1.531-.412-2.309.006.071.018.136.024.207-.147-1.218-.31-2.43-.463-3.642v-.02h0v-.008c-.006-.045-.012-.089-.017-.133l.007.043c0,.025,0,.051.008.076l0-.035,0,.043,0,.014c0-.049-.009-.1-.016-.148-.149-1.517-.312-3.034-.4-4.557-.106-1.7-.212-3.386-.294-5.081-.151-3.086-.267-6.161-.263-9.249C18.548,131.7,18.645,131.748,18.741,131.8ZM30.05,173.655c-.413-2.214-.807-4.428-1.207-6.636-.006-.03-.012-.059-.018-.082a.241.241,0,0,1,.008.025l0,0a.181.181,0,0,1,.01.034c-.244-1.656-.466-3.33-.7-4.992-.189-1.3-.3-2.608-.436-3.916-.324-3.121-.618-6.247-.913-9.368-.153-1.684-.37-3.362-.553-5.041-.165-1.489-.389-2.979-.612-4.463-.123-.788-.272-1.57-.432-2.35.119.24.239.48.357.721.412.836.848,1.667,1.207,2.532.041.1.081.193.121.289.116.446.229.892.342,1.34.218.848.377,1.719.56,2.579.371,1.714.659,3.433.977,5.152-.011-.064-.023-.129-.029-.194.218,1.337.412,2.673.618,4.01.242,1.614.418,3.239.63,4.864.218,1.649.353,3.315.524,4.97s.271,3.291.4,4.94c.051.615.082,1.232.113,1.85-.021.2-.041.4-.063.6-.182,1.064-.383,2.123-.669,3.161-.045.151-.1.3-.151.446C30.105,173.965,30.078,173.81,30.05,173.655Z"/><path d="M14.99,106.312a13.84,13.84,0,0,0,.35,1.833c.013.252.03.5.058.753.058.542.117,1.078.176,1.619a17.169,17.169,0,0,0,.371,2.45,4.618,4.618,0,0,0,1.979,2.785,8.294,8.294,0,0,0,3.162,1.007,2.37,2.37,0,0,0,.363.03,1.638,1.638,0,0,0,.92-.265,1.691,1.691,0,0,0-.553-3.068c-.415-.07-.826-.149-1.233-.254-.052-.018-.1-.038-.153-.056-.013-.057-.025-.115-.037-.172.053,0,.1.014.157.011a3.818,3.818,0,0,0,2.237-1.1,9.861,9.861,0,0,0,.913-.962,16.679,16.679,0,0,0,3.861-4.185,26.061,26.061,0,0,0,2.88-5.8,43.079,43.079,0,0,0,1.678-6.713c.06-.328.1-.66.156-.991l.111-.309c.206-.577.441-1.149.612-1.737.294-1.007.6-2.014.9-3.021a44.153,44.153,0,0,0,1.9-10.493,20.439,20.439,0,0,0-.577-6.737,9.044,9.044,0,0,0-1.4-2.926,7.088,7.088,0,0,0-1.037-1.121,8.51,8.51,0,0,0-.33-.882,4.667,4.667,0,0,0-1.667-2.043,2.131,2.131,0,0,0-2.09-.024,2.254,2.254,0,0,0-.907.836,10.461,10.461,0,0,0-.559,1.084c-.033.072-.062.148-.094.222a6.823,6.823,0,0,0-1.006.479,13.448,13.448,0,0,0-4.434,4.64,30.6,30.6,0,0,0-2.9,6.248,56.392,56.392,0,0,0-1.831,6.783c-.412,1.991-.672,4.016-1,6.024-.1.648-.147,1.308-.212,1.955-.1,1.025-.206,2.043-.3,3.062-.058.677-.07,1.36-.105,2.038-.036.848-.112,1.707-.112,2.561v-.218c0,.128,0,.257-.005.385a30.159,30.159,0,0,0-.338,3.613A17.392,17.392,0,0,0,14.99,106.312ZM29.174,68.7c.1-.01.194-.015.291-.016s.194.022.291.035.223.05.333.081.228.078.34.127c.019.01.037.023.056.033q.12.527.221,1.056c-.006-.035-.012-.071-.018-.112.012.053.018.106.03.159v.006a38.214,38.214,0,0,1,.406,4.328c.03.83.041,1.66.03,2.485-.012.6,0,1.207-.042,1.8-.035.536-.07,1.077-.106,1.613-.076,1.184-.147,2.355-.229,3.533-.089.913-.206,1.826-.312,2.727-.089.771-.148,1.548-.271,2.314-.165,1.065-.32,2.128-.487,3.19-.089.238-.18.477-.266.714-.282.813-.535,1.643-.865,2.438q-1.1,2.651-2.214,5.294c.023-.059.047-.112.07-.171-.636,1.384-1.272,2.774-1.99,4.11-.605,1.12-1.259,2.218-1.915,3.305l.013-.019-.041.066-.053.087.019-.035c-.207.328-.43.643-.657.955-.108.074-.212.157-.323.228a4.738,4.738,0,0,1-.448.241c-.088.041-.176.071-.271.106-.068.021-.139.035-.208.053l-.108-.264.07.159c-.09-.226-.169-.456-.245-.687.017-.232.031-.465.049-.7.285-2.955.751-5.888,1.22-8.821q.591-3.7,1.3-7.389c.42-1.875.788-3.77,1.189-5.648.342-1.561.754-3.1,1.119-4.658.336-1.408.736-2.791,1.107-4.187.688-2.594,1.5-5.148,2.4-7.668l.33-.836C29.052,68.725,29.113,68.71,29.174,68.7ZM20.2,92.051c-.065.359-.124.724-.188,1.077q-.17.944-.337,1.883c.087-.626.178-1.251.263-1.876v0l.022-.163c0,.035-.007.069-.012.1.026-.161.06-.32.089-.48C20.088,92.412,20.139,92.23,20.2,92.051Z"/><path d="M63.969,58.537a39.031,39.031,0,0,0-5.947,12.177c-.566,1.767-1.019,3.569-1.514,5.353-.057.2-.1.405-.153.608-.546,1.178-1.072,2.364-1.572,3.567-.613,1.484-1.143,3.009-1.619,4.54-.118.383-.218.766-.319,1.154-.082.324-.176.642-.241.972-.147.813-.33,1.631-.43,2.455-.106.878-.212,1.755-.271,2.644a16.85,16.85,0,0,0-.064,1.973,14.479,14.479,0,0,0,.208,1.892c-.037.181-.077.359-.114.54-.171.836-.342,1.666-.483,2.508a7.153,7.153,0,0,0-.1,2.179,2.554,2.554,0,0,0,.966,1.819,2.247,2.247,0,0,0,1.213.354,5.659,5.659,0,0,0,3.48-1.9A23.317,23.317,0,0,0,59.4,98.561a11.744,11.744,0,0,0,1.528-1.248,13.407,13.407,0,0,0,2.132-2.385c.447-.706.877-1.437,1.266-2.185q.663-1.3,1.337-2.6c.759-1.49,1.454-3.015,2.155-4.534.385-.838.75-1.686,1.107-2.537.43-.8.86-1.6,1.284-2.4.312-.583.648-1.166.93-1.767.7-1.5,1.437-2.991,2.079-4.522.694-1.655,1.383-3.309,2.025-4.982.689-1.8,1.372-3.6,1.885-5.452a19.119,19.119,0,0,0,.671-3.392,8.839,8.839,0,0,0-.147-2.832,5.8,5.8,0,0,0-1.272-2.556,5.424,5.424,0,0,0-2.149-1.478C70.128,52.207,66.3,55.517,63.969,58.537Zm7.483,4.573c-.559,3.2-1.327,6.371-2.13,9.524l-.054.183c.012-.032.022-.063.032-.095-.051.172-.1.342-.151.514.009-.032.019-.063.031-.095-.059.182-.112.371-.165.553.013-.046.029-.091.043-.136-.082.272-.16.548-.237.825.017-.064.035-.129.053-.194-.083.281-.161.557-.243.833.014-.045.03-.09.042-.132-.034.109-.066.218-.1.329l.021-.076c-.1.341-.2.687-.3,1.028-.2.671-.439,1.332-.654,2-.1.306-.219.6-.326.9-.561,1-1.125,2-1.652,3.025-.65,1.175-1.305,2.345-1.925,3.538l.011-.017c-.012.018-.018.035-.03.053-.023.041-.041.083-.064.124l.053-.106c-.23.406-.448.812-.671,1.224-.392.483-.8.954-1.218,1.419l.028-.029c-.016.019-.033.036-.05.053l-.027.03.016-.019a.651.651,0,0,0-.051.054l-.011.012c.005-.006.005-.006.005-.012a27.7,27.7,0,0,1-2.137,2.032c-.365.294-.742.565-1.131.83l-.029.018-.041.027.023-.016c-.165.1-.336.189-.506.277-.036.012-.065.024-.1.035,0-.222.011-.444.023-.665q.149-1.554.4-3.092c.176-1.05.381-2.094.569-3.138.2-.923.4-1.845.626-2.762.241-.983.524-1.961.789-2.944.183-.689.394-1.366.606-2.049.2-.624.4-1.254.589-1.884.073-.248.141-.5.229-.743.041-.106.078-.21.113-.317,0,.018-.01.039-.017.06.331-.9.663-1.809.988-2.71.189-.506.371-1.019.589-1.514.712-1.6,1.4-3.2,2.191-4.756.146-.166.291-.332.447-.494.13-.12.262-.236.4-.349.194-.141.4-.27.6-.392.113-.062.225-.119.344-.17.021-.008.04-.018.061-.024.172-.014.346-.023.517-.032a1.2,1.2,0,0,0,.279-2.341c.081-.091.163-.182.247-.27.063-.058.128-.113.193-.168.044-.031.085-.066.131-.094l.077-.037a16.935,16.935,0,0,1,1.818-.609l.23-.048c.11-.01.22-.018.331-.023.065.146.131.292.195.438.029.077.056.154.08.231.046.2.082.39.111.588.014.178.024.353.027.528C71.569,62.266,71.513,62.688,71.452,63.11ZM55.1,94.786c.112-.53.218-1.06.33-1.584a1.631,1.631,0,0,0,.323.489,2.521,2.521,0,0,0,2.285.636,4.665,4.665,0,0,0,.9-.271c-.46.748-.944,1.489-1.449,2.209-.094.06-.183.128-.279.185s-.182.091-.274.13l-.117.043c-.029.007-.058.015-.088.021-.07.006-.141.008-.212.009-.055,0-.109-.006-.164-.012-.379-.083-.753-.183-1.123-.289-.044-.015-.087-.03-.131-.047-.013-.027-.027-.055-.04-.083-.058-.152-.106-.3-.152-.457C54.975,95.439,55.037,95.113,55.1,94.786ZM54.165,100c.033-.306.084-.611.133-.916.212.075.426.142.644.2l.027.008c-.2.191-.405.386-.616.568C54.288,99.909,54.229,99.957,54.165,100Zm17.6-43.881a.852.852,0,0,0-.118.024c.106-.018.218-.03.324-.042.195,0,.383,0,.577.012l.23.036a4.713,4.713,0,0,1,.541.164c.1.038.191.078.284.124.07.041.135.082.2.124.089.065.177.129.26.2.117.118.229.236.341.365.036.047.065.094.1.135.077.136.147.265.212.4.071.165.13.329.183.5.035.129.064.265.088.394.041.271.071.536.089.8,0,.365-.012.724-.042,1.089V60.41c-.006.047-.011.1-.017.147a.44.44,0,0,0-.042-.071,1.485,1.485,0,0,0-.543-.542,9,9,0,0,0-.395-1.141,3.445,3.445,0,0,0-.646-1.166,2.234,2.234,0,0,0-1-.607,4.008,4.008,0,0,0-1.355-.152,1.259,1.259,0,0,0-.158-.549.283.283,0,0,1,.059-.022c.231-.063.458-.123.694-.166A1.257,1.257,0,0,1,71.765,56.117Z"/><path d="M111.345,67.385a5.2,5.2,0,0,0-1.337-.348,5.261,5.261,0,0,0-2.761.465,10.1,10.1,0,0,0-2.686,1.785,21.857,21.857,0,0,0-2.143,2.278A37.661,37.661,0,0,0,98.6,77.33c-.4.515-.8,1.032-1.207,1.545-.589.748-1.19,1.484-1.726,2.273-.647.953-1.3,1.9-1.949,2.855-.318.472-.641.931-.942,1.408-.954,1.531-1.919,3.056-2.844,4.61-.818,1.373-1.631,2.762-2.32,4.2-.371.765-.724,1.531-1.072,2.3s-.636,1.561-.912,2.362c-.159.453-.271.924-.407,1.389a17.893,17.893,0,0,0-.53,2.285,5.218,5.218,0,0,0,.23,2.956,5.423,5.423,0,0,0,1.578,2.008,4.305,4.305,0,0,0,1.413.771,4.7,4.7,0,0,0,.476.11,2.156,2.156,0,0,0,1.182,1.508,2.769,2.769,0,0,0,1.007.217c.052,0,.1,0,.152,0a4.907,4.907,0,0,0,.825-.124,3.154,3.154,0,0,0,.33.053,3.384,3.384,0,0,0,1.213-.136,7.763,7.763,0,0,0,1.278-.5,10.457,10.457,0,0,0,1.313-.707,29.983,29.983,0,0,0,5.182-4.386l.017-.02c.915-.717,1.8-1.466,2.694-2.216a17.988,17.988,0,0,0,2.226-2.267c.666-.789,1.331-1.578,1.949-2.409a26.237,26.237,0,0,0,1.867-2.791,32.448,32.448,0,0,0,1.466-2.932,39.287,39.287,0,0,0,2.2-6.424q.345-1.395.574-2.818c.193-.669.373-1.343.524-2.024a21.307,21.307,0,0,0,.607-6.79,8.263,8.263,0,0,0-2.238-5.288A4.786,4.786,0,0,0,111.345,67.385Zm-3.439,22.34a67.117,67.117,0,0,1-4.469,7.237c.041-.047.076-.1.112-.147a52.416,52.416,0,0,1-3.923,4.853c-.375.3-.745.614-1.128.9a26.753,26.753,0,0,1-2.589,1.7c-.668.361-1.346.7-2.047,1-.226.087-.449.16-.68.228-.343.081-.69.132-1.038.183.562-2.392,1.275-4.755,1.965-7.112.248-.83.525-1.649.79-2.473.329-.99.624-2.008.977-2.986.377-.966.73-1.937,1.095-2.909.23-.612.46-1.218.689-1.831.089-.23.165-.465.265-.689.9-2.04,1.773-4.091,2.764-6.089.615-.649,1.234-1.293,1.877-1.915l-.01.009.016-.015.032-.032-.029.029a37.012,37.012,0,0,1,3.248-2.778c.355-.253.717-.5,1.093-.717.32-.17.643-.327.974-.473.182-.066.364-.127.548-.184.071-.015.143-.028.215-.04.1-.008.193-.014.289-.016.074,0,.148.008.222.016.09.014.178.031.265.053l.131.047c.025.013.049.024.074.035.042.028.085.057.126.088.089.077.174.157.256.241.048.053.093.108.138.165.052.073.1.15.145.227.1.2.194.392.279.594.076.223.144.442.2.664.074.343.134.684.18,1.031.036.421.057.837.058,1.253a21.11,21.11,0,0,1-.187,2.15c-.1.665-.232,1.325-.377,1.981a50.431,50.431,0,0,1-2.567,5.749C107.894,89.743,107.9,89.731,107.906,89.725Zm1.16-19.867c.089-.018.171-.024.259-.036.112,0,.218,0,.324.006s.194.024.288.036l.177.052A2.033,2.033,0,0,1,110.3,70a3.137,3.137,0,0,1,.308.2c.086.067.169.134.251.2s.136.142.2.212c.118.153.224.312.33.477s.177.318.259.483a6.9,6.9,0,0,1,.271.724c.088.312.165.63.23.949.016.106.017.213.031.32-.1-.108-.2-.217-.316-.319a3.783,3.783,0,0,0-.793-.54,1.021,1.021,0,0,0-.185-.7,5.756,5.756,0,0,0-1.513-1.578,2.926,2.926,0,0,0-.819-.389c-.012,0-.024,0-.036,0,.12-.047.24-.1.363-.138C108.948,69.887,109.007,69.87,109.066,69.858ZM87.241,104.063h0c0,.019.011.039.015.058Zm.595,1c-.1-.1-.192-.212-.283-.323-.046-.063-.089-.128-.13-.2s-.057-.12-.086-.182-.041-.114-.059-.172-.028-.129-.042-.19c-.008-.082-.019-.163-.02-.248,0,.026,0,.051,0,.076l0-.1c0-.028,0-.056,0-.084v.061c.019-.386.056-.768.11-1.15.132-.727.322-1.438.515-2.148a1.54,1.54,0,0,0,.677.34,1.577,1.577,0,0,0,1.217-.242c-.031.11-.065.219-.1.329-.429,1.55-.894,3.118-1.217,4.7l-.055-.031c-.089-.061-.173-.122-.257-.188C88.016,105.238,87.926,105.153,87.836,105.065Z"/><path d="M80.558,45.129a7.033,7.033,0,0,0,1.884.277,5.384,5.384,0,0,0,.607-.035,15.163,15.163,0,0,0,5.588-1.955,40.52,40.52,0,0,0,4.982-3.292c.942-.724,1.866-1.466,2.767-2.238.854-.736,1.725-1.466,2.52-2.267.542-.541,1.089-1.083,1.631-1.625,1.125-1.124,2.261-2.226,3.321-3.409.772-.872,1.549-1.737,2.32-2.609.336-.377.683-.748,1-1.142q1.015-1.254,2.019-2.52c.43-.536.878-1.054,1.272-1.614-.035.053-.076.112-.112.165.878-1.236,1.755-2.479,2.626-3.716l-.022.037c.007-.008.014-.017.022-.025.442-.624.837-1.283,1.225-1.943.43-.712.837-1.437,1.225-2.167a19.42,19.42,0,0,0,1.831-4.528,7.768,7.768,0,0,0,.17-2.491c.159-.277.329-.559.465-.846a15.494,15.494,0,0,0,.753-1.69,4.357,4.357,0,0,0-.023-2.573A3.635,3.635,0,0,0,117.17.715,5.719,5.719,0,0,0,114.6.043a12.623,12.623,0,0,0-2.77.079A13.315,13.315,0,0,0,105.59,2.2a38.242,38.242,0,0,0-5.359,3.958c-.818.706-1.6,1.442-2.391,2.178-.518.483-1.06.948-1.548,1.461-.725.759-1.443,1.519-2.167,2.284C92.965,13.3,91.9,14.592,90.8,15.864c-.448.53-.86,1.089-1.284,1.631-.476.615-.979,1.207-1.428,1.838h0c-.012.018-.029.035-.041.053-.024.035-.047.065-.071.1-.007.012-.015.024-.023.035-.124.154-.23.319-.342.471.012-.011.018-.023.029-.035-.058.083-.111.165-.17.242.018-.024.035-.053.059-.083a1.973,1.973,0,0,0-.12.168l.005-.008-.014.021h0l-.035.048-.026.04,0-.005c-.092.128-.185.261-.278.389l0,0c-.052.075-.1.149-.154.219v0c-.017.023-.035.053-.053.076l.006-.006c-.006.006-.006.012-.011.018s-.012.012-.012.018-.03.035-.042.053l.018-.018c-.064.082-.124.171-.188.253a.434.434,0,0,0,.047-.059c-.089.118-.171.242-.259.36.017-.018.029-.042.047-.059l-.265.371c0-.006.006-.006.006-.012l-.159.23c.011-.018.023-.042.035-.059-.018.023-.029.047-.047.07l-.017.022c-.044.067-.093.137-.142.2.024-.029.041-.065.065-.1-.03.041-.053.077-.083.118l-.01.018h0l0,0v0l0,0-.008.013,0,0-.017.026-.007.007v0l-.007.008a.08.08,0,0,0,.013-.019l-.041.059-.036.053c-.335.482-.641.989-.965,1.478-.371.565-.742,1.136-1.113,1.707-.354.536-.66,1.1-.989,1.655-.307.524-.642,1.036-.925,1.572.03-.053.059-.112.089-.171-.748,1.384-1.49,2.768-2.173,4.187-.318.666-.63,1.325-.925,2a23.762,23.762,0,0,0-1.413,3.7,5.436,5.436,0,0,0,1.019,4.964A4.65,4.65,0,0,0,80.558,45.129Zm1.555-6.766c.007.03.015.061.022.093l-.006-.019C82.123,38.412,82.119,38.388,82.113,38.363Zm2.724,1.5c-.283.028-.563.048-.849.055-.167-.005-.331-.016-.5-.035L83.3,39.84l-.048-.017-.007,0-.057-.04c-.2-.183-.4-.369-.593-.559-.06-.067-.119-.138-.177-.211s-.079-.127-.116-.191c-.041-.08-.082-.159-.117-.239s-.051-.149-.074-.223c-.012-.053-.025-.107-.034-.16-.01-.1-.016-.2-.016-.3a.509.509,0,0,1,0,.056c0-.02,0-.041,0-.062,0-.04,0-.08,0-.121,0,.035,0,.072,0,.108.011-.19.029-.38.051-.57.053-.264.116-.521.184-.778A16.013,16.013,0,0,1,82.845,35c.478-1.057.993-2.094,1.491-3.142.132-.28.278-.554.422-.828a1.444,1.444,0,0,0,.338.245,1.472,1.472,0,0,0,1.978-.624c.466-.96.948-1.908,1.437-2.856.337-.659.721-1.286,1.084-1.925q1.734-2.724,3.485-5.424c1.043-1.6,2.15-3.162,3.239-4.735-.026.034-.052.065-.078.1q.712-.885,1.42-1.786l0,0,0-.006c.567-.682,1.14-1.368,1.735-2.031q.6-.5,1.221-.97a26.251,26.251,0,0,1,2.347-1.519,25.136,25.136,0,0,1,2.515-1.207,44.022,44.022,0,0,1,4.937-1.62,26.525,26.525,0,0,1,3.051-.588c.088.088.174.174.259.269-.123.259-.247.524-.377.777a72.127,72.127,0,0,1-4.587,7.031c-.918,1.248-1.819,2.526-2.785,3.733-1.024,1.284-2.014,2.585-3.08,3.828s-2.1,2.5-3.185,3.7q-1.837,2.031-3.681,4.063-2.092,2.172-4.151,4.393c-.218.223-.453.429-.677.653-.542.524-1.083,1.054-1.619,1.584-1.066,1.036-2.126,2.049-3.274,3-.258.208-.523.406-.787.606C85.3,39.77,85.069,39.825,84.837,39.862ZM111.482,3.313a10.743,10.743,0,0,1,1.152-.237c.149-.014.3-.013.449-.02a1.475,1.475,0,0,0-.643.528c-.791.131-1.577.29-2.348.487-.829.211-1.656.441-2.476.7.45-.219.911-.415,1.378-.607A24.783,24.783,0,0,1,111.482,3.313ZM81.164,41.69l-.088-.035a.573.573,0,0,1-.082-.047l.023.019c-.047-.035-.092-.068-.135-.107l-.018-.018c0-.006-.006-.012-.006-.018-.012-.023-.017-.047-.029-.07-.011-.044-.017-.087-.027-.129.026.025.046.053.072.077.129.123.26.236.39.351l-.058-.011A.087.087,0,0,1,81.164,41.69Z"/><path d="M12.687,251.406l.022-.052,0-.011C12.7,251.364,12.7,251.385,12.687,251.406Z"/><path d="M15.973,152.966c0-.021,0-.043-.007-.065l0-.015Z"/><path d="M62.224,136.537c.088-.983.194-1.96.247-2.944a54.151,54.151,0,0,0,.006-6.989,35.516,35.516,0,0,0-.987-6.025c-.022-.406-.036-.813-.062-1.219-.047-.8-.141-1.59-.23-2.385-.047-.441-.141-.883-.212-1.325a17.93,17.93,0,0,0-.489-2.214,8.93,8.93,0,0,0-1.325-2.868,9.684,9.684,0,0,0-2.2-2.161,8.524,8.524,0,0,0-5.929-1.772c-4.411.565-6.107,5.435-6.825,9.192-.448,2.326-.724,4.681-1.037,7.025-.094.7-.164,1.407-.247,2.108-.094.83-.206,1.66-.276,2.5,0-.065.005-.124.011-.189-.1.854-.182,1.714-.277,2.567-.076.731-.17,1.472-.235,2.214-.141,1.555-.324,3.109-.471,4.67-.142,1.6-.265,3.209-.395,4.817.006-.065.012-.124.018-.189-.1,1.078-.141,2.161-.206,3.245-.2,3.244-.318,6.495-.489,9.739-.082,1.555-.118,3.109-.147,4.664-.018.813-.047,1.625-.041,2.438.006.9-.024,1.807.017,2.714.03.943.059,1.89.106,2.838.059.966.1,1.944.183,2.915.094.954.188,1.9.312,2.856.006.036.012.077.018.112-.083,1.231-.13,2.461-.118,3.692a9.539,9.539,0,0,0,.406,3.162,1.545,1.545,0,0,0,1.154,1c.024,0,.042.006.065.006a1.622,1.622,0,0,0,1.066.383c.076,0,.153-.006.23-.012a2.855,2.855,0,0,0,1.6-.966,6.358,6.358,0,0,0,.707-.871,28.759,28.759,0,0,0,2.3-4.352c.449-.971.852-1.959,1.236-2.956.14-.051.28-.1.414-.163a8.665,8.665,0,0,0,3.521-3.563,25.148,25.148,0,0,0,1.519-2.774q.627-1.422,1.137-2.9c.388-1.119.8-2.238,1.142-3.369.324-1.065.63-2.131.93-3.2.454-1.59.9-3.186,1.261-4.793q.609-2.676,1.16-5.371c.318-1.524.606-3.067.83-4.616-.012.071-.024.135-.036.206.054-.353.107-.7.16-1.054-.008.047-.014.094-.02.14.034-.222.068-.446.1-.67l0,.018.008-.05c.007-.054.015-.108.021-.162l0,.038c.066-.452.135-.9.2-1.356l-.008.064,0-.022,0,.039C62.141,137.786,62.171,137.156,62.224,136.537Zm-5.2-17.713a50.733,50.733,0,0,1-.176,5.511c0-.041.006-.082.006-.117-.124,1.36-.3,2.709-.466,4.069-.1.836-.206,1.666-.335,2.5-.36,2.3-.725,4.6-1.125,6.9-.577,3.338-1.231,6.665-1.925,9.986q-.5,2.369-1,4.741c-.282.924-.565,1.854-.865,2.779-.354,1.072-.7,2.138-1.054,3.209-.189.566-.354,1.131-.548,1.7v-.006a.019.019,0,0,1-.006.012c-.012.035-.023.071-.035.1a.021.021,0,0,0,.006-.012c0,.006-.006.012-.006.018a.657.657,0,0,0-.024.065c0-.012.006-.018.006-.024-.059.159-.112.312-.171.471h0a.071.071,0,0,0-.008.031l-.048.13,0-.013q-.739,2.026-1.468,4.052v-.007a.535.535,0,0,0-.019.06.673.673,0,0,0-.036.094.267.267,0,0,0-.016.053.1.1,0,0,0-.012.029q-.642,1.624-1.29,3.243c-.256-.215-.506-.437-.744-.672-.263-.283-.511-.577-.748-.883-.174-.252-.346-.5-.5-.77-.122-.231-.231-.467-.337-.707.023-.265.049-.53.071-.794v.024c.13-1.4.265-2.809.4-4.21.118-1.219.254-2.432.348-3.651v.012c.006-.083.018-.171.024-.254v-.023c0-.071.011-.141.017-.206v.053c.012-.142.024-.277.036-.413-.006.048-.012.1-.018.154.024-.236.041-.472.065-.7-.006.047-.012.1-.018.153.035-.347.065-.683.088-1.019v.059c.012-.135.024-.271.035-.412,0,.012-.005.024-.005.035,0-.023.005-.041.005-.064s.006-.059.006-.089v.03l.048-.557v.056c.035-.389.064-.777.094-1.154v.029c.006-.07.012-.135.018-.2v.03c0-.03.005-.059.005-.083s.005-.04.006-.06a.052.052,0,0,1-.006.019c.01-.131.025-.261.036-.392v.027c.012-.124.017-.247.029-.371v.018c.024-.3.053-.607.077-.907v.053c.017-.194.035-.389.047-.583v.006c.005-.094.017-.189.023-.277v.036c.013-.13.019-.26.03-.389v.017c.106-1.113.171-2.225.253-3.332.094-1.214.2-2.428.27-3.642,0-.017,0-.034,0-.051a.272.272,0,0,0,.006-.07v.029c.176-2.061.288-4.122.441-6.183v.012a1.32,1.32,0,0,0,.012-.147,1.124,1.124,0,0,0,.012-.135.464.464,0,0,1-.012.082c.012-.065.012-.13.018-.194v.041c.017-.224.041-.442.059-.659l-.018.158c.03-.332.058-.664.088-1q.437-2.178.908-4.348c.383-1.8.813-3.58,1.254-5.365q.124-.5.246-1a1.613,1.613,0,0,0,.579.363,1.64,1.64,0,0,0,2.1-.972,30.307,30.307,0,0,1,1.142-3.009l-.01.022c.222-.5.441-1.007.662-1.509l0,.009a20.4,20.4,0,0,1,.905-1.88c.211-.328.445-.639.687-.944.117-.135.234-.265.355-.392.03-.027.061-.053.092-.078l.014-.009.1.022c.049.016.1.035.148.053l.017.009.009.007.021.019c.036.041.068.086.1.129.155.231.3.463.448.7.146.272.277.55.4.831C56.931,117.555,56.994,118.187,57.023,118.824Zm-6.5-6.572c.124-.217.253-.423.4-.63a4.7,4.7,0,0,1,.336-.412,4.846,4.846,0,0,1,.365-.335c.092-.071.181-.136.277-.2.08-.046.16-.095.241-.133a2.4,2.4,0,0,1,.271-.1c.106-.024.212-.053.318-.071.064-.006.135-.018.206-.018s.141.006.212.006c.04.005.079.016.118.024a2.8,2.8,0,0,1,.429.124,1.872,1.872,0,0,1,.23.1,4.389,4.389,0,0,1,.383.235c.079.064.152.131.226.2.014.014.025.029.039.042a2.863,2.863,0,0,0-.912.15,7.539,7.539,0,0,0-2.456,1.331,8.69,8.69,0,0,0-1.415,1.575c.064-.2.115-.409.184-.611C50.145,113.1,50.322,112.671,50.528,112.252Zm-6.695,58.42c-.025-.258-.046-.512-.068-.767a16.5,16.5,0,0,0,1.5,1.3c-.342.828-.678,1.659-1.033,2.482C44.086,172.68,43.933,171.679,43.833,170.672Zm13.392-22.74c-.277,1.248-.531,2.5-.854,3.739-.478,1.825-.956,3.644-1.478,5.452.007-.024.015-.047.023-.07-.365,1.248-.783,2.485-1.2,3.716-.357,1.025-.714,2.05-1.13,3.055-.233.531-.495,1.048-.772,1.556.386-1.464.76-2.933,1.083-4.413l-.036.177c.442-1.89.854-3.786,1.26-5.682.124-.389.248-.783.365-1.172.99-3.227,2-6.448,2.915-9.7.426-1.5.852-3.005,1.267-4.509-.042.3-.087.6-.129.9,0-.034.007-.068.011-.1C58.177,143.241,57.746,145.6,57.225,147.932Z"/><polygon points="72.205 163.196 72.205 163.195 72.205 163.195 72.205 163.196"/><path d="M81.344,124.327l.008-.008.013-.017Z"/><path d="M84.291,147.32c1.708-3.421,3.4-6.848,5.106-10.269.494-1.007,1.012-2,1.478-3.021a16,16,0,0,0,1.23-3.362,10.642,10.642,0,0,0,.189-3.315,7.112,7.112,0,0,0-1.107-3.133c-.016-.024-.037-.044-.053-.067a11.346,11.346,0,0,0-.453-3.828,1.206,1.206,0,0,0,.688-1.151,1.219,1.219,0,0,0-1.278-1.143,5.5,5.5,0,0,0-.6.087A4.261,4.261,0,0,0,88.02,117a4.6,4.6,0,0,0-2.579-.312,7.721,7.721,0,0,0-2.862,1.171,11.162,11.162,0,0,0-2.208,1.855,22.988,22.988,0,0,0-2.72,3.7c-.413.677-.86,1.349-1.237,2.055-.289.554-.583,1.1-.877,1.649-.247.389-.483.783-.719,1.184-.359.624-.742,1.236-1.071,1.878.029-.059.059-.112.088-.171-.683,1.26-1.39,2.509-2.044,3.786a.85.85,0,0,0,.048-.082c-.695,1.3-1.361,2.62-2.044,3.928-.282.553-.547,1.119-.818,1.672q-.5,1.006-.983,2.026c-.631,1.307-1.214,2.643-1.82,3.968-.659,1.449-1.254,2.933-1.866,4.4-.289.689-.6,1.372-.86,2.067s-.513,1.36-.766,2.037c-.571,1.52-1.172,3.033-1.7,4.57-.607,1.766-1.231,3.533-1.808,5.311.023-.059.041-.118.065-.177-.083.236-.159.466-.236.707q-.53,1.422-1.066,2.838c-.677,1.784-1.242,3.61-1.743,5.453a45.537,45.537,0,0,0-1.013,4.764c-.094.588-.188,1.177-.271,1.766a1.158,1.158,0,0,0,2.091.842,3.831,3.831,0,0,0,.359.548,2.465,2.465,0,0,0,1.767.913c.059.005.117.011.17.011a3.676,3.676,0,0,0,1.914-.694c.294-.183.595-.365.877-.572A24.485,24.485,0,0,0,65.4,177.35c.341-.359.683-.718,1.03-1.072.265-.282.507-.588.76-.883.554-.645,1.069-1.3,1.583-1.97a23.964,23.964,0,0,0,2.084-2.239,51.747,51.747,0,0,0,4.11-5.776c1.743-2.833,3.292-5.777,4.752-8.762C81.241,153.539,82.749,150.424,84.291,147.32Zm-10.2,12.536c-.28.52-.577,1.03-.867,1.545-.339.6-.664,1.2-1.018,1.788l.029-.046-.033.052h0a54.435,54.435,0,0,1-3.7,5.346,31.5,31.5,0,0,1-2.236,2.467q-.49.461-1.015.88c-.293.21-.59.409-.9.593-.255.137-.513.265-.779.383-.2.081-.405.149-.613.21-.317.074-.635.13-.957.177-.2.021-.387.037-.581.047.539-2.642,1.21-5.248,1.911-7.854l-.008.024c.111-.374.219-.752.326-1.125-.017.064-.035.129-.053.194.077-.266.154-.528.231-.793-.008.023-.016.046-.025.069.148-.477.283-.96.424-1.443-.017.065-.035.124-.053.188.783-2.638,1.649-5.252,2.515-7.86.43-1.29.936-2.562,1.395-3.84.2-.535.448-1.06.672-1.584.25-.58.5-1.155.745-1.735.484-.99.962-1.98,1.445-2.97.389-.795.831-1.566,1.254-2.343.4-.73.8-1.461,1.219-2.179.6-1.01,1.216-2.014,1.815-3.03.425-.677.882-1.336,1.318-2,.383-.582.742-1.189,1.154-1.748.5-.7,1-1.4,1.5-2.091.409-.563.791-1.147,1.215-1.691-.018.023-.037.044-.055.066l.087-.107.013-.016-.008.01c.72-.881,1.432-1.777,2.138-2.675a1.963,1.963,0,0,0,.16.221,1.853,1.853,0,0,0,2.585.212c.238-.193.472-.382.711-.566.267-.189.535-.363.815-.525.09-.05.181-.1.274-.14l.091-.037.055-.011.17-.011c.045,0,.09.006.136.011l.025.008.026.01.068.036.113.077c.066.057.132.114.2.176q.045.051.087.105c.022.031.042.063.063.095q-.146.968-.351,1.924A57.634,57.634,0,0,1,85.813,135c-.337.907-.7,1.8-1.073,2.691-.588,1.437-1.16,2.879-1.807,4.286-.219.479-.435.961-.652,1.442-.846,1.709-1.7,3.416-2.536,5.131-1.483,3.036-2.937,6.1-4.488,9.108C74.869,158.391,74.479,159.124,74.094,159.856ZM88.25,121.81c.022.137.026.274.044.41a5.609,5.609,0,0,0-1.223-.055c-.052,0-.105.007-.158.012q.24-.2.486-.384c.236-.169.482-.319.727-.471C88.171,121.483,88.214,121.646,88.25,121.81Zm-.433,4.226L87.773,126l.011.006Zm-1.728-6.663c.107,0,.214,0,.321.011l.178.022c-.186.117-.362.252-.543.379a1.424,1.424,0,0,0,.032-.406C86.083,119.379,86.089,119.379,86.089,119.373Zm-4.246,4.092c.519-.53,1.048-1.042,1.608-1.525h0c.1-.077.2-.145.3-.221-.21.2-.424.4-.626.616-.6.643-1.219,1.3-1.773,1.983l-.041.05.02-.025-.066.082.007-.008c-.928,1.148-1.865,2.292-2.781,3.445l.024-.027c-.128.155-.245.319-.367.48.247-.372.5-.743.739-1.118A43.235,43.235,0,0,1,81.843,123.465Zm-22.058,54.81c-.118.07-.235.135-.353.2-.059-.136-.106-.277-.153-.418-.018-.077-.03-.147-.047-.224-.041-.312-.065-.624-.083-.93,0-.172.009-.342.01-.513a2.879,2.879,0,0,0,.389.166,5.858,5.858,0,0,0,1.667.171q.388,0,.777-.027C61.27,177.252,60.55,177.784,59.785,178.275Z"/><path d="M145.562,206.712l-.659-.053-.008-.013a4.646,4.646,0,0,0-.86-.893,1.175,1.175,0,0,0-1.552-.83,4.973,4.973,0,0,0-1.092-.244,9.175,9.175,0,0,0-.983-.029c-.33,0-.665.011-.995.023h0q-.6.024-1.195.062a18.443,18.443,0,0,0-6.407-1.146c-.057,0-.115,0-.173,0h.123c-1.725-.024-3.463-.065-5.188.076-1.453.12-2.906.282-4.354.458.036,0,.072-.008.108-.01-.593.071-1.192.138-1.786.214.048-.006.1-.011.144-.014-1.449.171-2.892.341-4.34.489-.545.053-1.09.1-1.635.144q-1.383-.093-2.764-.2c-.93-.071-1.861-.147-2.791-.253s-1.855-.236-2.785-.307c-1.967-.153-3.922-.382-5.883-.635-.889-.118-1.766-.23-2.661-.283-1.072-.065-2.15-.094-3.227-.124-.878-.018-1.761-.047-2.638-.064a31.921,31.921,0,0,0-3.445.011,5.059,5.059,0,0,0-2.885,1.143,3.976,3.976,0,0,0-.753.953c-.617.05-1.236.114-1.846.216a13.9,13.9,0,0,0-2.909.725,4.383,4.383,0,0,0-2.332,1.725A2.116,2.116,0,0,0,77.92,210a14.157,14.157,0,0,0,3.309,3.4c1.219,1,2.473,1.967,3.751,2.885a31.014,31.014,0,0,0,7.343,4.128c1.166.43,2.343.777,3.533,1.125.789.229,1.59.4,2.391.589A65.4,65.4,0,0,0,108.1,223.5c.689.054,1.378.112,2.067.142,1.048.035,2.09.076,3.138.118.218.011.436.011.654.011.542,0,1.084-.017,1.619-.023.183-.006.377-.006.566-.006.518,0,1.036,0,1.554-.029l3.2-.213a43.3,43.3,0,0,0,4.681-.618,51.5,51.5,0,0,0,6.73-1.7q1.561-.512,3.091-1.117a29.874,29.874,0,0,0,3.035-.853,8.043,8.043,0,0,0,3.027-1.761,5.955,5.955,0,0,0,.975-1.3,11.637,11.637,0,0,0,1.39-1.365,9.512,9.512,0,0,0,1.672-2.815,6.2,6.2,0,0,0,.392-2.519,1.413,1.413,0,0,0-.331-2.75ZM88.13,208.836c3.269.413,6.507,1.031,9.757,1.555.825.135,1.655.212,2.48.312.783.094,1.578.106,2.367.147.7.041,1.39.059,2.09.053q.415-.009.831,0c.565,0,1.124,0,1.684-.018a1.484,1.484,0,0,0,.152,0h-.076c.053,0,.112-.006.171-.006,1.113-.041,2.226-.089,3.339-.136H110.9c.659-.023,1.325-.076,1.984-.117s1.325-.065,1.979-.118c1.437-.124,2.879-.224,4.31-.383,2.9-.318,5.806-.665,8.68-1.183-.053.011-.106.017-.159.029.729-.123,1.459-.259,2.188-.383l-.009.006c.462-.08.923-.167,1.385-.252l1.331.018H132.4c.111,0,.222,0,.334,0l.052,0h.013c-.026,0-.052,0-.078,0,.754.011,1.5.017,2.252.029l-.043,0,.723.011q.525.165,1.03.371c.237.116.468.238.7.368.144.095.284.192.424.295.116.1.229.2.339.306.043.048.084.1.125.148l.033.051c.114.219.216.444.312.675.024.066.045.133.065.2.021.1.037.194.052.293q.048.591.06,1.182c-.009.308-.033.614-.065.919-.026.128-.057.256-.09.381-.028.084-.059.166-.092.248s-.09.175-.138.261q-.031.048-.066.093c-.034.039-.068.078-.1.115-.069.061-.14.119-.212.176-.046.032-.093.063-.142.093-.247.129-.5.251-.757.363a32.28,32.28,0,0,1-3.231,1c-.691.146-1.382.328-2.078.426-.724.1-1.447.184-2.171.289-7.53.587-15.091.988-22.645.9l.084,0-.182,0h-.024c-1.115-.031-2.235-.051-3.351-.111-2.038-.11-4.1-.175-6.121-.456-1.049-.181-2.082-.424-3.11-.694-1.2-.377-2.368-.782-3.528-1.263-.423-.217-.835-.439-1.245-.672-.376-.249-.736-.5-1.1-.773-.247-.216-.489-.434-.721-.664-.176-.194-.337-.394-.491-.6-.085-.132-.169-.262-.249-.393s-.138-.282-.2-.424c-.018-.05-.033-.1-.049-.152-.018-.077-.037-.155-.05-.234,0-.055-.005-.108-.006-.162.01-.239.038-.473.068-.708.083-.486.187-.962.31-1.438.009-.03.022-.059.031-.089C87.426,208.754,87.779,208.792,88.13,208.836Zm-1.464,2.248,0-.025v-.011ZM81,209.031c.006-.006.012-.006.018-.012.265-.106.53-.2.8-.289a15.659,15.659,0,0,1,1.684-.382c-.047,0-.088.012-.141.017l.287-.043a10.664,10.664,0,0,0-.4,2.218c-.007.173,0,.343,0,.513-.547-.449-1.087-.907-1.613-1.381C81.412,209.466,81.206,209.255,81,209.031Zm62.276,1.6c-.017.072-.04.147-.062.221a6.077,6.077,0,0,0-.259-1.344c-.023-.068-.048-.136-.072-.2.159.017.318.03.477.046l0,.021c.012.1.014.2.017.3,0,.119,0,.238-.006.357C143.352,210.22,143.317,210.42,143.275,210.627Z"/><path d="M189.2,171.258a6.985,6.985,0,0,0-2.79-1.366,2.661,2.661,0,0,0-.771-.434,2.7,2.7,0,0,0-1.1-.118,2.574,2.574,0,0,0-.807.248c-.112.046-.222.107-.335.16a9.065,9.065,0,0,0-1.138.2,13.647,13.647,0,0,0-3.374,1.325,57.793,57.793,0,0,0-7.7,5.247,1.832,1.832,0,0,0-.615,1.812c-.228.132-.454.269-.675.413a14.442,14.442,0,0,0-2.067,1.567c-.9.836-1.761,1.707-2.609,2.591-2.567,2.685-5.158,5.352-7.7,8.061a36.942,36.942,0,0,0-3.657,4.257,13.083,13.083,0,0,0-1.761,5.241c-.153.877-.288,1.761-.359,2.65a5.876,5.876,0,0,0,.43,3.556,4.676,4.676,0,0,0,2.644,1.908,11.72,11.72,0,0,0,3.4.56l.265,0a15.222,15.222,0,0,0,6.878-1.847,31.273,31.273,0,0,0,3.374-2c.777-.535,1.566-1.071,2.3-1.666q1.317-1.077,2.644-2.143c.6-.483,1.16-1,1.737-1.52.678-.606,1.384-1.195,2.026-1.843q1.219-1.236,2.438-2.467c.553-.565,1.048-1.172,1.566-1.773.571-.659,1.16-1.307,1.684-2.007.4-.53.8-1.066,1.2-1.6.23-.312.483-.618.7-.936q.822-1.211,1.637-2.427c.5-.736.978-1.5,1.414-2.278A30.441,30.441,0,0,0,189.9,181.1a23.453,23.453,0,0,0,1.154-3.675,7,7,0,0,0,.1-3.179A5.478,5.478,0,0,0,189.2,171.258Zm-7.991,5.793c.086-.021.172-.044.258-.058l.058.029c.28.184.54.39.809.6a1.349,1.349,0,1,0,1.549-2.208,7.858,7.858,0,0,0-1.313-.843,2.734,2.734,0,0,0-.626-.207c.4-.148.8-.28,1.2-.4.227-.049.451-.092.678-.128.213-.02.423-.03.635-.036.2.01.4.027.6.05-.006.2,0,.405-.018.608-.059.494-.129.989-.229,1.477a22.95,22.95,0,0,1-.717,2.464l0-.008a.1.1,0,0,1-.012.03c-.005.018-.013.039-.02.06a32.06,32.06,0,0,1-1.458,3.214c0,.006-.006.011-.006.017-.029.047-.053.094-.076.141.012-.029.023-.052.035-.076a43.078,43.078,0,0,1-2.756,4.363,50.083,50.083,0,0,1-3.969,4.834c.012-.011.024-.029.036-.041-.725.772-1.449,1.549-2.232,2.262-.394.365-.789.724-1.183,1.083-.8.742-1.6,1.5-2.42,2.225l0,0-.017.016c-.018.017-.036.029-.053.047l.029-.03c-.012.012-.029.024-.041.036h0l-.008.007c-.012.011-.023.017-.029.023l-.024.019c-.075.06-.147.115-.218.175.012,0,.024-.017.035-.023-.035.029-.076.059-.112.088,0,.012-.017.018-.023.024l.006-.006c-.087.073-.177.147-.27.221-.148.121-.3.239-.447.36l.01-.01c-.225.181-.446.368-.67.555a.27.27,0,0,1,.034-.025c-.19.148-.376.3-.561.454l.02-.013c-.142.112-.277.224-.418.336.017-.012.035-.029.052-.041-.032.027-.06.05-.087.071l.011-.007-.094.077a.142.142,0,0,0-.031.025c-.061.047-.119.094-.181.146a.523.523,0,0,0,.047-.035.776.776,0,0,1-.065.053l-.017.017c-.006,0-.006,0-.012.006a.046.046,0,0,0-.012.012c-.295.224-.6.43-.9.642-.477.347-.96.695-1.437,1.042-.636.46-1.313.86-1.973,1.29a29.29,29.29,0,0,1-2.9,1.648c-.335.148-.683.283-1.036.4-.283.076-.565.147-.86.2-.059.006-.117.018-.171.024a.07.07,0,0,0-.035-.006c-.012-.012-.023-.018-.035-.03l-.071-.088c-.018-.03-.041-.053-.059-.082s-.035-.065-.053-.1c-.076-.177-.147-.348-.206-.53-.053-.207-.1-.419-.141-.631a10.136,10.136,0,0,1-.1-1.024c0-.318.006-.63.029-.942.041-.412.106-.819.183-1.231a13.4,13.4,0,0,1,.43-1.425c.123-.312.253-.624.394-.93a1.274,1.274,0,0,0,.683-.919,1.447,1.447,0,0,0,.006-.359c.247-.412.506-.813.783-1.207a.3.3,0,0,1-.023.03c.022-.03.041-.061.064-.089l.031-.046-.007.016a41.222,41.222,0,0,1,2.867-3.455l.007-.007c.018-.022.037-.042.054-.061.51-.527,1.026-1.055,1.535-1.582.471-.489.931-1,1.419-1.472.56-.548,1.125-1.089,1.685-1.637.465-.453.918-.924,1.4-1.354,1.048-.948,2.079-1.908,3.151-2.821,1.136-.972,2.273-1.92,3.415-2.879-.018.012-.036.029-.053.041.234-.189.471-.373.706-.56C177.513,178.285,179.334,177.606,181.205,177.051Z"/><path d="M156.661,103.053a31.447,31.447,0,0,0,2.92-3.686c1.09-1.661,2.314-3.633,1.9-5.718a6.713,6.713,0,0,0-3.157-4.333,5.365,5.365,0,0,0-1.709-2.987,5.673,5.673,0,0,0-2.491-1.219,10.235,10.235,0,0,0-6.118.918,26.243,26.243,0,0,0-5.7,3.569q-.849.675-1.671,1.387c-.2.093-.4.184-.594.286-.706.377-1.419.742-2.1,1.154a21.76,21.76,0,0,0-2.084,1.384c-.66.518-1.3,1.048-1.932,1.6a23.645,23.645,0,0,0-1.907,1.931c-.571.613-1.09,1.278-1.614,1.938a33.045,33.045,0,0,0-2.667,3.939,29.042,29.042,0,0,0-2.126,4.293,20.507,20.507,0,0,0-.754,2.437,7.054,7.054,0,0,0,.232,4.087,5.661,5.661,0,0,0-.216,3.338,3.573,3.573,0,0,0,1.7,2.066,5.254,5.254,0,0,0,2.467.56h.029a9.484,9.484,0,0,0,3.18-.677c.123-.044.239-.1.361-.151.268.038.537.079.8.1.86.088,1.714.176,2.574.182l.18,0a10.062,10.062,0,0,0,5.72-1.633,35.584,35.584,0,0,0,5.029-4.375c.83-.836,1.66-1.678,2.467-2.538,1.213-1.3,2.443-2.579,3.651-3.88C154.247,105.709,155.459,104.39,156.661,103.053Zm-13.488,3.362a33.886,33.886,0,0,1-2.82,2.667.4.4,0,0,1,.042-.03c-.036.03-.071.059-.113.089l-.012.012h0l0,0-.028.022,0,0a45.371,45.371,0,0,1-4.283,2.958c.059-.03.112-.065.171-.1q-1.2.741-2.42,1.448c-1.173.679-2.345,1.381-3.568,1.973-.158-.08-.318-.155-.472-.247-.164-.112-.322-.227-.478-.35-.03-.027-.057-.055-.086-.081.31-1.1.66-2.177,1.036-3.256-.024.059-.048.124-.071.183.271-.713.542-1.419.807-2.132a42.569,42.569,0,0,1,2.166-4.74l0,.006.01-.015.013-.026,0,.007c.008-.016.016-.032.026-.048a40.109,40.109,0,0,1,2.518-4.06c.6-.83,1.232-1.627,1.887-2.408a1.742,1.742,0,0,0,.644.916,1.72,1.72,0,0,0,2.243-.253c.689-.848,1.408-1.661,2.161-2.456-.053.053-.106.106-.159.153.369-.357.738-.72,1.107-1.077.483-.445,1-.865,1.52-1.262a12.673,12.673,0,0,1,3.109-1.75c.592-.225,1.194-.413,1.8-.582a23.038,23.038,0,0,1,2.362-.467c.455-.052.91-.089,1.369-.1.156,0,.308.016.463.035.352.064.7.139,1.051.228.092.029.182.065.273.1-.073.3-.15.59-.247.885A21.883,21.883,0,0,1,154.156,95c-.177.329-.359.659-.542.983a1.4,1.4,0,0,0-.577-.689,1.455,1.455,0,0,0-1.979.477c-1.16,1.8-2.4,3.557-3.633,5.3-.506.672-1,1.349-1.5,2.026A38.111,38.111,0,0,1,143.173,106.415Zm9.11-18.6c.23-.006.454-.006.689,0,.194.018.389.053.589.083.054.013.108.029.161.043a10.517,10.517,0,0,0-1.407.07q-.4.044-.807.1c-.17-.03-.341-.051-.512-.073.211-.052.421-.111.634-.152S152.065,87.83,152.283,87.813Zm-8.55,24.38a34.976,34.976,0,0,1-3.023,2.636c-.412.3-.83.577-1.267.834-.077.04-.157.072-.236.107-.385.142-.771.27-1.166.381l-.039.007c.967-.677,1.906-1.4,2.816-2.142q1.617-1.334,3.157-2.762c.812-.765,1.625-1.525,2.443-2.29.448-.418.872-.86,1.3-1.3.654-.659,1.325-1.3,1.961-1.978A51.311,51.311,0,0,0,154,100.549c.671-.942,1.3-1.908,1.878-2.914a28.324,28.324,0,0,0,1.472-2.851c.175-.409.343-.835.5-1.27.028.044.059.087.086.132.051.1.1.2.145.3.024.068.046.138.068.207s.036.162.047.243c0,.058.007.115.008.172,0,.092-.013.183-.023.273-.028.124-.058.248-.091.375-.074.226-.157.447-.247.668-.2.419-.427.829-.664,1.23-.541.862-1.134,1.683-1.76,2.492-.749.9-1.5,1.806-2.295,2.666-.831.9-1.631,1.813-2.473,2.7C148.343,107.382,146.114,109.859,143.733,112.193Z"/><path d="M201.44,43.069a5.7,5.7,0,0,0-1.319-2.815,8.516,8.516,0,0,0-1.833-1.493c.051-.14.1-.276.152-.417-.024.053-.041.112-.065.171.077-.218.159-.436.236-.648v0c.107-.307.2-.614.3-.932.026-.081.043-.163.065-.244a1.392,1.392,0,0,0-.751-2.669c-.11.02-.217.063-.326.091a2.281,2.281,0,0,0-.854-.087,5.748,5.748,0,0,0-2.261.76,40.188,40.188,0,0,0-5.224,3.5c-.187.146-.371.3-.557.442-.591.224-1.172.472-1.736.744a30.693,30.693,0,0,0-5.983,3.839,44.37,44.37,0,0,0-9.469,11.053,57.427,57.427,0,0,0-3.959,7.582c-.186.3-.365.61-.542.919-.506.9-1.019,1.784-1.531,2.673-.4.706-.724,1.466-1.084,2.191-.724,1.471-1.377,2.973-1.978,4.5-.3.778-.618,1.555-.866,2.35-.394,1.266-.995,2.708-.5,4.021a2.629,2.629,0,0,0,.165.348c-.059.147-.112.3-.165.453a11.858,11.858,0,0,0-.407,1.408,3.224,3.224,0,0,0-.141,1.207,3.035,3.035,0,0,0,.365,1.066,2.89,2.89,0,0,0,.772.871,2.288,2.288,0,0,0,1.419.448,2.793,2.793,0,0,0,.771-.106,10.567,10.567,0,0,0,2.644-1.107,30.606,30.606,0,0,0,2.6-1.814c1.023-.771,2-1.6,2.958-2.45a16.472,16.472,0,0,0,5.018-2.506,42.754,42.754,0,0,0,5.281-4.393q1.908-1.847,3.8-3.694l-.029.026c.789-.754,1.507-1.578,2.255-2.367.648-.683,1.325-1.349,1.943-2.061,1.366-1.555,2.768-3.092,4.075-4.693,3.021-3.7,6.006-7.891,6.789-12.719A9.42,9.42,0,0,0,201.44,43.069Zm-3.152-4.308h0l.054-.151C198.324,38.662,198.305,38.713,198.288,38.761Zm-9.913,14.774c-.156.423-.318.842-.493,1.256-.164.3-.335.6-.506.9-.094.176-.189.359-.294.53q-1.59,2.535-3.186,5.046c-1.031,1.372-2,2.785-3.015,4.175a73.956,73.956,0,0,1-5.737,6.916c-.308.33-.615.655-.929.98-.524.395-1.066.766-1.625,1.125a26.235,26.235,0,0,1-2.55,1.366c-.14.063-.283.118-.425.178-.094-.008-.189-.013-.285-.024a4.1,4.1,0,0,1-.409-.093c-.091-.029-.18-.064-.269-.1s-.152-.07-.225-.11-.135-.091-.2-.141-.131-.118-.194-.18-.1-.112-.142-.169c-.027-.04-.052-.079-.076-.118s-.033-.065-.05-.1c-.061-.17-.114-.342-.161-.515-.015-.076-.029-.151-.039-.227-.012-.135-.02-.272-.02-.407s.013-.243.023-.363c.47-1.436.972-2.863,1.462-4.293.25-.727.53-1.447.8-2.165.109-.221.229-.436.341-.655.076-.124.153-.247.226-.373.435-.736.859-1.484,1.313-2.214.818-1.319,1.742-2.579,2.56-3.9.521-.708,1.047-1.412,1.567-2.121.374-.511.752-1.025,1.149-1.517q.944-1.132,1.887-2.261c.744-.889,1.538-1.73,2.331-2.579.164-.166.329-.331.5-.486a1.278,1.278,0,0,0,.373-.461c.693-.753,1.384-1.507,2.109-2.227,1.186-1.181,2.373-2.35,3.553-3.53.738-.7,1.515-1.369,2.271-2.053q.328-.3.66-.593c.419-.148.843-.283,1.271-.4.394-.1.789-.175,1.191-.236.369-.036.736-.06,1.109-.068.037,0,.074.007.112.008-.445,1.087-.9,2.168-1.379,3.237-.011.035-.029.071-.041.106a1.481,1.481,0,0,0-1.307-.918,1.458,1.458,0,0,0-1.472,1.4c-.012.336-.029.665-.053,1-.059.495-.1.995-.194,1.478-.106.577-.206,1.154-.324,1.726A36.949,36.949,0,0,1,188.375,53.535ZM167.84,75.121l.043.055c-.013-.015-.027-.03-.039-.046Zm-2.216,5.591c-.271.158-.542.306-.83.441-.377.165-.754.324-1.137.459a.609.609,0,0,1-.141.036l.022-.1c.093-.372.2-.743.3-1.109a7.308,7.308,0,0,0,2.29-.053C165.96,80.494,165.8,80.6,165.624,80.712Zm32.35-34.6q-.142.786-.354,1.561a21.924,21.924,0,0,1-.811,2.16,27.23,27.23,0,0,1-1.344,2.546,45.379,45.379,0,0,1-3.113,4.387c-.762.947-1.557,1.86-2.353,2.778-.448.518-.9,1.036-1.348,1.554-.2.218-.372.448-.578.66-.3.311-.588.626-.882.939.178-.293.353-.588.527-.882.547-.937,1.077-1.89,1.572-2.862A38.668,38.668,0,0,0,191.409,54c.254-.43.5-.872.719-1.325.4-.819.807-1.637,1.207-2.45.312-.63.642-1.254.924-1.9.737-1.649,1.473-3.3,2.173-4.964.164-.393.328-.788.493-1.182.043.031.087.059.13.091.077.066.15.137.222.208.087.091.173.183.253.281.057.079.116.156.168.237.024.049.048.1.07.151.044.119.081.24.116.363q.073.343.135.688c.024.261.038.519.045.78A10.667,10.667,0,0,1,197.974,46.113Z"/><path d="M117.864,43.95c-.055.242-.106.482-.15.723-.122.319-.249.637-.368.956-.554,1.455-1.1,2.921-1.514,4.422a11.475,11.475,0,0,0-.282,1.172,2.668,2.668,0,0,0,.341,1.967A2.369,2.369,0,0,0,116.91,54a2.847,2.847,0,0,0,.724.194,6.838,6.838,0,0,0,4.016,1.6c.265.023.524.035.789.035a12.129,12.129,0,0,0,5.312-1.4,28.719,28.719,0,0,0,5.5-3.768,73.112,73.112,0,0,0,7.408-7.255c.509-.575,1.018-1.145,1.527-1.716.759-.759,1.518-1.512,2.277-2.271,1.142-1.137,2.22-2.326,3.321-3.5.477-.512.913-1.066,1.366-1.6.53-.618,1.066-1.23,1.584-1.854.565-.678,1.089-1.384,1.631-2.073.522-.659,1.044-1.319,1.56-1.983.375-.463.713-.958,1.066-1.432.43-.572.866-1.143,1.284-1.72.383-.53.718-1.1,1.078-1.643.294-.459.618-.907.889-1.383.471-.819.936-1.637,1.407-2.45a18.56,18.56,0,0,0,1.372-2.732,21.784,21.784,0,0,0,.9-3.086,10.5,10.5,0,0,0,.306-3.115,4.993,4.993,0,0,0-1.007-2.479,4.906,4.906,0,0,0-2.214-1.9,11.562,11.562,0,0,0-2.9-.577,22.916,22.916,0,0,0-3.533-.088,13.9,13.9,0,0,0-3.154.611,1.217,1.217,0,0,0-1.892-1.488c-.454.383-.9.771-1.337,1.178A30.3,30.3,0,0,0,143.6,8.868c-.73.877-1.419,1.79-2.12,2.7q-1.669,1.395-3.221,2.914c-1.165,1.137-2.325,2.291-3.386,3.533-.138.163-.276.328-.414.492-1.533,1.45-3.02,2.947-4.426,4.524-1.077,1.207-2.119,2.45-3.109,3.734-.5.653-1.036,1.295-1.5,1.978-.507.754-1.055,1.5-1.526,2.279.03-.053.059-.1.089-.147-.043.065-.083.134-.124.2s-.1.156-.142.235c-.1.159-.2.318-.288.477.024-.047.053-.095.083-.148-.062.11-.127.215-.191.32l.013-.022c-.086.142-.171.281-.257.424l.015-.026c-.122.2-.244.406-.366.605-.066.1-.133.212-.2.319.03-.047.059-.094.095-.148-.048.071-.089.142-.13.213l.088-.142c-.323.518-.594,1.078-.883,1.619-.212.4-.424.778-.618,1.178-.318.648-.63,1.3-.948,1.943-.224.46-.406.936-.607,1.408-.341.795-.653,1.6-.959,2.414A18.52,18.52,0,0,0,117.864,43.95Zm39.671-32.664-.017-.057,0,.006C157.528,11.252,157.53,11.269,157.535,11.286Zm-24.95,18.332c.483-.937.989-1.867,1.5-2.8.389-.713.825-1.4,1.243-2.1-.036.059-.071.118-.106.177.63-.989,1.272-1.973,1.937-2.944.318-.46.612-.931.954-1.372q.552-.726,1.1-1.453c1.147-1.411,2.316-2.809,3.557-4.137.31-.193.624-.382.939-.569l-.045.023.06-.032.075-.044a.492.492,0,0,1-.045.028c1.047-.554,2.084-1.1,3.16-1.6s2.179-.983,3.286-1.442l-.028.01a22.084,22.084,0,0,1,2.543-.953,1.205,1.205,0,0,0,.822-1.23c.322.04.643.084.962.148.288.07.565.147.842.235.323.124.635.265.942.418.147.083.288.171.43.259.076.059.147.124.218.183.117.118.223.235.329.365.048.065.095.135.142.206a1.716,1.716,0,0,0,.082.159c.015.051.036.1.056.153.018.067.038.134.05.2.018.148.035.3.047.454,0,.112,0,.223-.006.335-.041.254-.082.5-.129.754-.118.483-.271.948-.43,1.413-.106.283-.218.56-.336.836-.406.678-.806,1.349-1.213,2.026-.824,1.374-1.77,2.672-2.636,4.022-.537.736-1.1,1.451-1.651,2.179-.447.594-.865,1.219-1.348,1.784-1.242,1.448-2.455,2.909-3.692,4.357-1.443,1.531-2.856,3.092-4.275,4.646-.748.789-1.537,1.543-2.308,2.314-.548.554-1.1,1.1-1.643,1.649-.224.224-.448.471-.683.689-1.793,1.6-3.536,3.257-5.383,4.787a56.572,56.572,0,0,1-5.774,4.19l0,0c-.544.334-1.1.65-1.655.956-.106.006-.212.016-.319.016-.193-.013-.386-.032-.58-.055-.317-.053-.63-.12-.942-.2-.138-.044-.272-.094-.406-.15-.072-.035-.144-.071-.215-.109-.159-.1-.313-.209-.465-.326s-.288-.262-.431-.4c-.076-.083-.149-.168-.223-.252.183-.445.364-.892.561-1.328.3-.665.577-1.342.907-1.99.335-.683.694-1.354,1.024-2.044,1.26-2.314,2.591-4.6,4.022-6.818.724-1.125,1.437-2.255,2.2-3.363q.522-.759,1.044-1.521A1.59,1.59,0,0,0,132.585,29.618ZM119.536,50.993c.072-.237.158-.47.242-.7a6.689,6.689,0,0,0,.614.461c-.044.016-.087.034-.132.049C120.019,50.87,119.778,50.934,119.536,50.993ZM126,52.18c-.435.187-.873.363-1.322.509-.377.106-.754.2-1.143.277-.194.023-.382.047-.577.065.442-.189.878-.389,1.313-.595q.759-.369,1.5-.773c.491-.1.977-.233,1.453-.376.326-.1.641-.219.959-.333-.142.093-.279.2-.423.287C127.19,51.584,126.6,51.9,126,52.18Z"/><path d="M28.634,53.963a6.293,6.293,0,0,0,2.272,1.678,8.081,8.081,0,0,0,2.8.583l.249,0a8.594,8.594,0,0,0,2.919-.438,14.66,14.66,0,0,0,2.59-1.254,23.47,23.47,0,0,0,2.409-1.608,35.718,35.718,0,0,0,3.768-3.291c1.131-1.143,2.256-2.309,3.268-3.557.572-.7,1.131-1.4,1.679-2.12A45.737,45.737,0,0,0,53.6,39.495c1.384-2.332,2.685-4.717,3.98-7.1,3.3-6.094,6.678-12.165,9.822-18.348.347-.677.666-1.366.983-2.055a3.686,3.686,0,0,0,.46-2.579A2.12,2.12,0,0,0,67,8.062a12.7,12.7,0,0,0-2.01-.039,7.45,7.45,0,0,0-.072-1.177c.061-.034.123-.065.183-.1l.112-.058a1.344,1.344,0,0,0,.739.173,1.377,1.377,0,0,0,1.289-1.443A1.618,1.618,0,0,0,66.155,3.9a3.219,3.219,0,0,0-2.63.633,2.969,2.969,0,0,0-.361-.216,2.691,2.691,0,0,0-2.244-.088,10.086,10.086,0,0,0-2.5,1.584q-.522.432-1.025.883c-.454.4-.907.8-1.36,1.2-.224.2-.46.394-.666.612.042-.041.077-.083.118-.124q-1.6,1.572-3.156,3.18c-.683.712-1.331,1.466-1.973,2.214-.284.332-.553.674-.832,1.009-.483.461-.967.923-1.429,1.406-.554.577-1.1,1.149-1.631,1.743-.554.624-1.154,1.231-1.666,1.9q-1.767,2.289-3.528,4.587c-.241.319-.465.654-.694.984q-.956,1.368-1.9,2.75c-.824,1.189-1.666,2.367-2.455,3.58-1.955,3.009-3.939,6.006-5.771,9.092A17.2,17.2,0,0,0,29.4,42.839c-.324.748-.665,1.49-.924,2.262a20.912,20.912,0,0,0-1.09,4.934A6.51,6.51,0,0,0,27.4,51.76,4.639,4.639,0,0,0,28.634,53.963ZM58.379,19.237c0,.008-.009.013-.009.018-.021.043-.043.087-.065.126v0l0,.006,0,0,0,.008v0c-.487.927-.968,1.854-1.514,2.746-.294.471-.583.948-.871,1.419-.7,1.142-1.407,2.284-2.1,3.427-.454.742-.984,1.442-1.472,2.155-.607.883-1.231,1.755-1.82,2.644-.671.907-1.348,1.819-2.02,2.726-2.013,2.7-4.121,5.329-6.247,7.938q-2.986,3.673-6.189,7.142l-.447.448c-.024-.183-.042-.365-.054-.554-.011-.547.006-1.095.042-1.648a18.589,18.589,0,0,1,.312-1.908c-.006.018-.012.041-.018.065a.9.9,0,0,1,.03-.124v-.012l0-.014h0a30.583,30.583,0,0,1,1-3.26h0a54.257,54.257,0,0,1,2.72-5.929,1.884,1.884,0,0,0-.082.17q.732-1.4,1.519-2.756c.383-.665.754-1.336,1.166-1.984l.017-.027a1.482,1.482,0,0,0,.671.717,1.535,1.535,0,0,0,2.061-.648c1.027-2.047,2.165-4.019,3.355-5.972q.657-1.027,1.3-2.065c.424-.677.895-1.325,1.343-1.985.8-1.172,1.711-2.257,2.58-3.375.862-1.051,1.752-2.084,2.692-3.073.415-.39.819-.779,1.246-1.154.4-.344.809-.669,1.219-1,.5-.346,1.011-.672,1.533-.989.419-.208.836-.4,1.264-.581-.108.338-.213.676-.33,1.011a54.659,54.659,0,0,1-2.838,6.294ZM62.325,8.328c-.037.008-.074.012-.111.02l.111-.063ZM54.849,31.251c-1.319,2.435-2.651,4.869-4.077,7.243a52.451,52.451,0,0,1-3.167,4.532c-.708.874-1.431,1.722-2.172,2.569-.706.81-1.479,1.569-2.244,2.327-.556.517-1.1,1.029-1.683,1.518-.549.468-1.114.906-1.689,1.345l.011-.008c-.7.468-1.4.936-2.123,1.361-.3.167-.606.312-.912.46.15-.12.293-.25.432-.385.736-.707,1.413-1.484,2.091-2.25q.856-.972,1.7-1.961c.995-1.165,1.991-2.331,2.956-3.521,2.079-2.561,4.169-5.117,6.136-7.761.989-1.325,2-2.626,2.932-3.986.648-.937,1.3-1.879,1.944-2.815.335-.5.7-.978,1.012-1.49,1.007-1.637,2.026-3.274,3.027-4.917.058-.094.106-.194.162-.289-.372.692-.736,1.39-1.11,2.081Q56.459,28.28,54.849,31.251ZM65.355,11.319c-.916,2.012-1.949,3.971-2.981,5.929-.279.531-.566,1.056-.846,1.586.026-.054.055-.107.081-.162a44.725,44.725,0,0,0,2.632-6.506c.089-.3.177-.594.26-.894.3-.018.6-.036.893-.048ZM30.444,48.633c.122-.65.265-1.285.438-1.924.315-.958.66-1.9,1.046-2.828.234-.488.458-.991.728-1.46.326-.556.652-1.119.973-1.676.09-.143.178-.289.267-.433l-.033.071c-.277.589-.524,1.189-.771,1.79-.2.489-.395.977-.572,1.478-.188.524-.394,1.054-.542,1.6a3.273,3.273,0,0,0-.082,2.326,1.364,1.364,0,0,0,.942.683c-.017.388-.023.777-.012,1.165a6.653,6.653,0,0,0,.554,2.6A2.175,2.175,0,0,0,34.948,53.2c-.071.012-.141.029-.212.039-.224.021-.45.03-.678.035a8.7,8.7,0,0,1-.881-.065c-.265-.044-.527-.1-.785-.172-.138-.042-.275-.089-.41-.142-.1-.048-.208-.1-.309-.157-.13-.087-.257-.174-.382-.268-.1-.09-.2-.18-.3-.273-.2-.211-.385-.429-.565-.661-.035-.05-.068-.1-.1-.154-.019-.036-.036-.07-.056-.106l-.009-.046c-.019-.242-.027-.481-.026-.723C30.284,49.88,30.356,49.257,30.444,48.633Z"/></svg>