<svg xmlns="http://www.w3.org/2000/svg" width="380.483" height="267.189" viewBox="0 0 380.483 267.189"><polygon points="129.361 30.398 129.364 30.403 129.366 30.407 129.361 30.398"/><path d="M137.5,219.752l.09-.026.1-.033C137.631,219.711,137.566,219.735,137.5,219.752Z"/><path d="M211.694,175.217l.009.009,0,0Z"/><path d="M200.56,165.411l.033.024,0,0Z"/><path d="M39.421,264.537l-.008,0-.021.014Z"/><path d="M186.888,78.08l.018.007c.084.03.17.056.253.087C187.071,78.145,186.977,78.109,186.888,78.08Z"/><path d="M380.024,91.451a1.813,1.813,0,0,0-1.484-.525c-.225-.289-.446-.583-.688-.856a26.473,26.473,0,0,0-1.926-1.967,55.092,55.092,0,0,0-7.779-5.612q-4.424-2.755-8.862-5.511c-2.308-1.437-4.575-2.938-6.877-4.387-1.484-.937-2.944-1.926-4.458-2.815-1.849-1.095-3.715-2.167-5.647-3.109-.918-.447-1.843-.883-2.779-1.3-.695-.3-1.378-.619-2.091-.866l.027.008-.487-.177.095.033c-1.389-.5-2.773-1.007-4.157-1.507-.859-.312-1.743-.559-2.614-.824-1-.3-2-.63-3.015-.9-1.29-.342-2.579-.671-3.869-1.019a48.119,48.119,0,0,0-10.782-1.713c-1.183-.042-2.349-.018-3.533.012-.624.017-1.254.017-1.878.064-1,.071-1.99.118-2.985.212a31.943,31.943,0,0,0-3.819.587A50.769,50.769,0,0,0,289.6,41.937c-.948-.983-1.914-1.943-2.927-2.849-.754-.683-1.513-1.361-2.267-2.044-1.119-1-2.332-1.9-3.5-2.838-.518-.418-1.072-.8-1.608-1.184-.63-.459-1.248-.959-1.9-1.383-1.207-.778-2.4-1.608-3.657-2.3-1.425-.783-2.838-1.578-4.3-2.273-.836-.394-1.672-.783-2.508-1.177-.654-.313-1.349-.565-2.02-.848-1.5-.631-3.027-1.19-4.552-1.761-.659-.247-1.331-.453-2-.671-.63-.206-1.249-.43-1.885-.613a63.746,63.746,0,0,0-7.16-1.76,48.54,48.54,0,0,0-6.688-.627,25.884,25.884,0,0,0-1.079-2.868,25.845,25.845,0,0,0-5.518-8.132,22.96,22.96,0,0,0-8.143-5.146,35.91,35.91,0,0,0-7.574-1.776A30.154,30.154,0,0,0,210,.707a35.7,35.7,0,0,0-11.9,3.121A57.724,57.724,0,0,0,192.8,6.569a47.463,47.463,0,0,0-5.33,2.921,35.2,35.2,0,0,0-7.725,6.683c-1.2,1.4-2.309,2.86-3.368,4.359-.644.733-1.283,1.471-1.926,2.2-.93,1.06-1.807,2.167-2.691,3.263s-1.766,2.2-2.632,3.309c-1.884,2.42-3.768,4.846-5.582,7.325-.924,1.266-1.867,2.52-2.762,3.816-.865,1.254-1.76,2.491-2.585,3.774-.836,1.313-1.7,2.6-2.49,3.945-1.219,2.067-2.5,4.117-3.586,6.26-.046.089-.085.18-.13.268a1.911,1.911,0,0,0-1.235.067,6.227,6.227,0,0,0-2.161,2.126c-.436.553-.9,1.084-1.325,1.649-.4.518-.778,1.048-1.16,1.578-.36.5-.717,1-1.068,1.509q-.382-1-.77-2c-.348-.907-.678-1.825-1.054-2.721-.6-1.413-1.2-2.826-1.8-4.239-.365-.866-.766-1.708-1.16-2.556-.683-1.448-1.337-2.915-2.085-4.334-.771-1.472-1.5-2.974-2.314-4.416-1.7-2.98-3.38-5.971-5.2-8.874l.056.086-.028-.046.013.019-.023-.036-.077-.129c.007.014.014.028.022.041l-.158-.253,0,0c-.025-.038-.049-.078-.074-.116l0,0c-.195-.312-.389-.624-.588-.936l.011.018L129.8,31.1l-.079-.124.044.067c-.128-.211-.26-.419-.392-.627l-.008-.013-.033-.052.023.037c-.232-.371-.462-.742-.694-1.113l.011.016-.1-.157v0h0l-.009-.014c-.034-.057-.071-.113-.107-.166-.575-.925-1.171-1.837-1.81-2.717a31.067,31.067,0,0,0-2.485-3.08,22.041,22.041,0,0,0-2.874-2.585,26.291,26.291,0,0,0-3.456-2.149,31.918,31.918,0,0,0-3.8-1.649q-.937-.348-1.9-.646a32.585,32.585,0,0,0-4.064-1.809l.081.026-1.054-.371.046.014c-.317-.115-.635-.231-.953-.344.065.023.124.047.189.071-.183-.065-.365-.136-.548-.2l.183.07c-1.154-.418-2.35-.712-3.527-1.054-.583-.165-1.184-.277-1.773-.412-.512-.118-1.024-.247-1.543-.347-1.219-.23-2.438-.477-3.668-.666-1.272-.194-2.544-.388-3.828-.548-1.411-.181-2.824-.348-4.237-.514-.467-.2-.931-.4-1.405-.575L82.8,8.267c-.594-.224-1.189-.46-1.79-.66l-2.985-.989c-.354-.118-.713-.236-1.072-.348-.53-.17-1.066-.335-1.607-.465a5.775,5.775,0,0,0-.584-.1c-.749-.278-1.493-.575-2.231-.868-.842-.323-1.7-.6-2.55-.9-1.531-.548-3.1-.99-4.663-1.443-1.472-.43-2.95-.836-4.428-1.231C60.1,1.053,59.314.847,58.531.653L57.2.317c-.283-.071-.572-.147-.86-.2A4.308,4.308,0,0,0,55.074.011a2.586,2.586,0,0,0-2.007,1.543,6.455,6.455,0,0,0-.348,2.638,25.076,25.076,0,0,0,.53,3.674c.159.8.336,1.59.513,2.385.364,1.578.747,3.156,1.083,4.746.212.971.418,1.949.624,2.926.153.725.33,1.455.46,2.185l-.036-.194c.018.088.036.182.053.276-.008-.047-.017-.1-.026-.147q.357,2.007.717,4.008c.012.117.023.234.035.35.282,2.821.541,5.647.9,8.462.174,1.345.347,2.689.528,4.034.033.8.06,1.591.1,2.384,0-.052-.008-.1-.01-.151.035,1.671.075,3.331.069,5a1.654,1.654,0,0,0,1.2,1.59c.038.209.075.419.114.629-.3,0-.593,0-.893-.016l-.509-.076c-1.566-.229-3.126-.506-4.681-.818l.165.035c-.051-.008-.106-.02-.159-.032l-.021-.005-.139-.032.036.006-.182-.04c-1.3-.3-2.59-.625-3.881-.97-1.607-.43-3.174-.971-4.758-1.466.077.024.153.053.224.083-1.678-.613-3.362-1.219-5.035-1.849-1.607-.6-3.209-1.225-4.822-1.8.071.023.147.053.223.076q-1.227-.441-2.455-.889c-.937-.346-1.874-.69-2.809-1.041-1.655-.7-3.308-1.395-4.946-2.115-.789-.348-1.578-.689-2.355-1.054-.589-.277-1.166-.571-1.749-.836a8.816,8.816,0,0,0-1.36-.537,2.7,2.7,0,0,0-1.013-.029,2.557,2.557,0,0,0-.913.33,1.577,1.577,0,0,0-.53.436,2.92,2.92,0,0,0-.548,1.354A6.3,6.3,0,0,0,16.542,37c.029.2.083.407.126.61a2.033,2.033,0,0,0-.468.077,1.893,1.893,0,0,0-.942.589,2.678,2.678,0,0,0-.612,1.224,3.237,3.237,0,0,0,.106,1.255,6.85,6.85,0,0,0,.53,1.425,28.149,28.149,0,0,0,1.9,3.256c1.036,1.519,2.073,3.038,3.127,4.546.252.358.5.722.746,1.082.377.99.756,1.979,1.126,2.971,1,2.673,2.091,5.317,3.168,7.955.53,1.3,1.078,2.591,1.625,3.88.422,1.007.825,2.024,1.272,3.02.354.972.706,1.941,1.066,2.91.536,1.455,1.095,2.886,1.684,4.316.477,1.154.995,2.291,1.508,3.433.588,1.307,1.171,2.626,1.86,3.887,1.339,2.466,2.764,4.881,3.972,7.41.061.143.115.288.164.434-.49,1.221-1.07,2.4-1.675,3.566l.024-.045-.047.087-.006.012.006-.011c-.744,1.412-1.518,2.807-2.307,4.193-1.728,1.451-3.43,2.934-5.124,4.426-1.672,1.478-3.286,3.038-4.817,4.658-1.7,1.79-3.344,3.632-5.017,5.452l.019-.02c-.031.035-.063.068-.094.1l.011-.01-.7.754.035-.037c-.151.164-.3.325-.453.49l.159-.177-.377.413c.053-.06.106-.118.159-.177-.086.1-.172.187-.261.282.023-.024.046-.047.07-.07-1.9,2.006-3.842,3.98-5.756,5.977-1.007,1.054-2.02,2.1-3.068,3.109-.964.928-1.962,1.8-2.984,2.667-.783.63-1.563,1.259-2.357,1.873-.813.624-1.649,1.231-2.414,1.907A7.562,7.562,0,0,0,.9,131.3,3.566,3.566,0,0,0,.1,132.711a4.456,4.456,0,0,0,.631,3.139,13.607,13.607,0,0,0,2.326,3.244A24.829,24.829,0,0,0,6.379,141.8c1.972,1.354,4.033,2.6,6.047,3.892.919.595,1.843,1.172,2.762,1.773.894.583,1.766,1.194,2.66,1.783.879.641,1.8,1.235,2.657,1.9,1.1.857,2.181,1.725,3.241,2.625.111.2.223.4.333.6.147.264.318.523.448.8.85,1.809,1.722,3.6,2.573,5.407h0q.411.946.817,1.89c-.044,1.065-.126,2.132-.181,3.188-.071,1.319-.03,2.644,0,3.963.077,2.673.252,5.335.445,8q.027,1.258.062,2.516c.012.571.029,1.142.041,1.714.006.259.03.517.018.777-.071,1.807-.112,3.609-.177,5.417-.059,1.625-.206,3.245-.294,4.864-.071,1.354-.165,2.709-.159,4.069a19.762,19.762,0,0,0,.206,3.3,24.623,24.623,0,0,0,.783,3.257c.353,1.1.789,2.173,1.142,3.28-.017-.06-.035-.118-.053-.183a54.266,54.266,0,0,1,1.606,6.2,60.193,60.193,0,0,1,.773,6.931c0-.059-.006-.123-.006-.188.036.8.065,1.578.083,2.373.088,3.98-.095,7.961-.224,11.935-.124,3.852-.241,7.7-.318,11.548-.041,1.878-.065,3.757-.088,5.635l-.036,2.774c0,.31-.011.632-.016.957-.015.054-.028.109-.042.163q-.619,2.279-1.3,4.54c-.512,1.737-1.077,3.463-1.607,5.194a1.979,1.979,0,0,0,1.354,2.42,1.852,1.852,0,0,0,.523.074,1.989,1.989,0,0,0,.943-.239,2.05,2.05,0,0,0,.954-1.183c.5-1.449.974-2.907,1.435-4.368a12.789,12.789,0,0,0-.1,2.644,2.245,2.245,0,0,0,2.079,1.919h.216a2.489,2.489,0,0,0,.59-.054,6.046,6.046,0,0,0,.966-.341,16.391,16.391,0,0,0,1.819-.992l-.023.014.029-.018.048-.03c2.865-1.777,5.645-3.687,8.492-5.494,3.1-1.761,6.284-3.371,9.491-4.922q7.755-3.744,15.433-7.631,3.782-1.917,7.555-3.827c2.358-1.191,4.749-2.307,7.146-3.418,1.814-.767,3.594-1.6,5.4-2.394q1.894-.835,3.789-1.661c.753-.151,1.505-.306,2.258-.457,1.013-.205,2.031-.412,3.044-.63,1.148-.247,2.314-.459,3.457-.754l2.608-.653c.4-.1.814-.195,1.218-.313l-.034.012c.045-.013.089-.027.134-.042l.054-.016-.03.008c.036-.012.074-.025.11-.039,1.118-.345,2.236-.687,3.349-1.037l-.008,0,.01,0,.179-.056-.132.043.134-.042-.014.005.052-.017.136-.042-.068.02.263-.085c-.065.024-.124.042-.189.065.807-.241,1.6-.559,2.4-.836.624-.218,1.248-.436,1.867-.666,1.566-.583,3.121-1.171,4.687-1.748,1.448-.542,2.885-1.113,4.31-1.7q1.052-.442,2.1-.9c.563-.239,1.116-.5,1.687-.718.354-.106.715-.191,1.078-.263.622-.093,1.254-.12,1.875-.22.725-.118,1.443-.3,2.156-.46.185-.044.37-.095.556-.139.766.787,1.505,1.6,2.213,2.442,1,1.211,1.95,2.474,2.878,3.742.453.619.93,1.231,1.36,1.867q.678,1.008,1.367,2.016c.552.917,1.132,1.819,1.642,2.76.671,1.224,1.319,2.455,1.955,3.7,1.072,2.119,2.055,4.28,3.062,6.429-.03-.07-.065-.141-.094-.217a3.713,3.713,0,0,0,1.307,1.8,2.925,2.925,0,0,0,2.373.123,4.269,4.269,0,0,0,1.784-1.154,19.338,19.338,0,0,0,1.578-1.89c.589-.825,1.16-1.667,1.714-2.514.854-1.325,1.69-2.65,2.508-3.993.33-.541.613-1.1.9-1.655.348-.671.725-1.324,1.037-2.007.323-.719.653-1.431.977-2.144.183-.4.383-.8.542-1.213.989-2.59,2-5.182,2.915-7.8q1.483-4.257,2.956-8.52,1.1-3.209,2.143-6.434c.117-.226.236-.451.353-.677l-.017.029q-.018.037-.039.075l.026-.05-.033.063-.02.036.068-.128.032-.066-.014.029c.3-.576.6-1.156.9-1.731-.036.065-.065.124-.1.189.173-.327.342-.657.515-.985l-.021.042.05-.1.051-.1-.031.056c.049-.1.1-.192.15-.287l.048-.093,0,.006.034-.065-.01.02c.02-.037.039-.074.059-.113.358-.684.71-1.373,1.068-2.061l-.008.017.055-.108.045-.086-.02.035.045-.089-.019.036.042-.082.058-.113-.01.022c.779-1.494,1.517-3.012,2.277-4.508.4-.79.748-1.614,1.119-2.415.335-.724.589-1.5.877-2.249,1.178-3.039,2.126-6.171,3.05-9.3,1.084-3.662,2.138-7.337,2.915-11.082.353-1.719.7-3.451.942-5.188.224-1.6.345-3.215.465-4.824.065,0,.129-.016.195-.021.405-.011.8-.006,1.208.018a11.354,11.354,0,0,1,3.058.688.349.349,0,0,1,.034.015c.207.285.419.567.623.854,2.09,2.956,4.145,5.941,6.318,8.844,3.356,4.493,6.872,8.862,10.352,13.267,1.749,2.214,3.492,4.439,5.276,6.63a14.2,14.2,0,0,0,1.925,2.061,3.847,3.847,0,0,0,3.533.618,6.037,6.037,0,0,0,3.363-3.015,17.3,17.3,0,0,0,1.455-3.828,3.254,3.254,0,0,0,1.41-1.687,16.7,16.7,0,0,0,1.054-3.162,25.763,25.763,0,0,0,.566-3.216,34.763,34.763,0,0,0-.889-11.77c-.142-.583-.283-1.172-.425-1.756-.076-.306-.135-.618-.223-.924-.271-.889-.536-1.778-.807-2.673-.453-1.525-1.013-3.021-1.6-4.5-.046-.114-.1-.226-.144-.339-.436-3.468-.849-6.937-1.138-10.419.811.219,1.622.44,2.437.653,1.908.5,3.821.984,5.729,1.479,3.109.806,6.195,1.684,9.3,2.5.742.194,1.484.394,2.231.577.73.183,1.461.383,2.2.513a3.816,3.816,0,0,0,1.908-.042,2.448,2.448,0,0,0,1.371-1.708,9.238,9.238,0,0,0,.242-3.115c-.02-.263-.062-.527-.093-.791a9.226,9.226,0,0,0,1.073-4.232,18.494,18.494,0,0,0-.76-5.247,51.817,51.817,0,0,0-4.652-10.653c-.583-1.036-1.172-2.072-1.808-3.073q-.689-1.077-1.378-2.161c-.653-1.031-1.283-2.091-1.99-3.086q-1.59-2.226-3.168-4.451c-.642-.907-1.337-1.779-2.014-2.656-.9-1.16-1.766-2.356-2.708-3.48-1.037-1.243-2.085-2.479-3.127-3.716-.7-.824-1.4-1.619-2.126-2.408q-1.66-1.767-3.315-3.545c-.353-.377-.76-.713-1.131-1.072l-2.131-2.008c-.825-.783-1.649-1.542-2.521-2.273-.8-.671-1.589-1.342-2.39-2.007-.4-.336-.783-.69-1.2-1.008a66.539,66.539,0,0,0-16.764-9.963c-.966-.4-1.937-.8-2.9-1.2-.418-.176-.83-.353-1.26-.5.094.03.182.066.277.095-1.855-.675-3.7-1.362-5.559-2.013-1.175-.43-2.375-.8-3.562-1.2-.966-.329-1.926-.647-2.9-.953-1.219-.395-2.433-.819-3.663-1.178-1.36-.4-2.727-.807-4.093-1.207a41.325,41.325,0,0,0-8.373-1.6,33.22,33.22,0,0,0-10.028.772,37.549,37.549,0,0,0-3.982,1.166c.217-.424.439-.845.654-1.27q.9-1.611,1.793-3.223c.447-.8.871-1.625,1.348-2.4,1.154-1.89,2.273-3.8,3.474-5.659,2.513-3.87,5.048-7.717,7.7-11.491.205-.3.415-.588.625-.886a1.6,1.6,0,0,0-.23-2.22,1.625,1.625,0,0,0-1.145-.343c.072-.126.148-.251.22-.378q1.9-3.33,3.786-6.666c1.26-2.243,2.5-4.5,3.81-6.707q.858-1.449,1.721-2.9,1.4-1.749,2.814-3.486c.571-.7,1.189-1.367,1.784-2.043q1.083-1.226,2.166-2.454a80.622,80.622,0,0,1,6.785-6.47,62.333,62.333,0,0,1,6.011-4.361,57.339,57.339,0,0,1,5.59-3.03,43.676,43.676,0,0,1,4.644-1.784c1.184-.35,2.375-.644,3.589-.876a34.76,34.76,0,0,1,3.467-.4,32.756,32.756,0,0,1,3.64.066,34.256,34.256,0,0,1,3.534.541,23.659,23.659,0,0,1,6.084,2.2,29.84,29.84,0,0,1,2.569,1.58c.758.555,1.483,1.136,2.19,1.763a27.433,27.433,0,0,1,1.992,2.085c-.041-.049-.082-.1-.125-.154l.137.168.034.038-.032-.036a30.827,30.827,0,0,1,1.942,2.681,37.2,37.2,0,0,1,1.875,3.443c.136.3.27.61.4.919a37.356,37.356,0,0,0-9.317,2.88,28.43,28.43,0,0,0-9.333,6.677,25.708,25.708,0,0,0-3.527,5.065,18.687,18.687,0,0,0-1.808,4.834,13.505,13.505,0,0,0-.306,3.268,11.485,11.485,0,0,0,.406,2.491,11.707,11.707,0,0,0,2.4,4.381,13.627,13.627,0,0,0,4.281,3.45,11.733,11.733,0,0,0,5.158,1.29,15.317,15.317,0,0,0,5.207-.907,12.348,12.348,0,0,0,4.561-.939,16.129,16.129,0,0,0,7.213-5.664,23.466,23.466,0,0,0,3.628-9.61,40.732,40.732,0,0,0,.377-10.18c1.891,0,3.781.072,5.671.217a73.5,73.5,0,0,1,9.1,1.232,53.377,53.377,0,0,1,6.435,1.795,54.17,54.17,0,0,1,6.277,2.75,58.1,58.1,0,0,1,5.7,3.494,49.227,49.227,0,0,1,4.819,3.879,42.212,42.212,0,0,1,3.161,3.322,50.62,50.62,0,0,1,3.519,4.91c.62,1,1.241,2,1.788,3.037.294.566.589,1.125.889,1.69.365.7.73,1.4,1.1,2.091.138.258.285.511.409.773l-.015-.036.023.052.007.015.042.093-.018-.038.019.04.023.053-.015-.036c.044.093.087.187.129.281-.013-.027-.025-.053-.038-.079l.054.116.046.1c-.01-.023-.02-.047-.031-.071.089.189.176.379.26.566l0-.01q.194.422.384.84l-.02-.041.076.165.024.053-.006-.015c.337.731.671,1.458,1,2.189l-.009-.019c.009.018.018.037.026.056s.023.049.034.074c.067.172.133.345.2.517-.544.285-1.078.59-1.6.91a22.071,22.071,0,0,0-4.4,3.48,22.342,22.342,0,0,0-3.521,4.734,24.083,24.083,0,0,0-1.582,3.441,18.827,18.827,0,0,0-2.47,5.666,19.2,19.2,0,0,0,.371,9.964,13.694,13.694,0,0,0,2.167,4.4,14.384,14.384,0,0,0,1.525,1.69,8.01,8.01,0,0,0,1.679,1.266,9.15,9.15,0,0,0,4.18,1.131h.1a7.281,7.281,0,0,0,1.9-.319,8.271,8.271,0,0,0,1.873-.76,13.7,13.7,0,0,0,5.676-6.583,20.826,20.826,0,0,0,1.308-5.011c.1-.736.153-1.478.223-2.214.053-.577.1-1.149.13-1.72.019-.421.048-.845.07-1.268a23.323,23.323,0,0,0,.584-3.728,35.334,35.334,0,0,0-1-10.7c.328-.072.652-.162.982-.224a34.511,34.511,0,0,1,3.734-.424,38.286,38.286,0,0,1,4.065.041,48.4,48.4,0,0,1,5.766.89,67.493,67.493,0,0,1,7.89,2.326q1.617.591,3.209,1.237c.583.241,1.177.465,1.748.736.63.294,1.266.594,1.9.889,1.478.7,2.968,1.36,4.434,2.078l-.194-.106q4.531,2.368,9,4.859c4.405,2.449,8.8,4.911,13.243,7.3,4.583,2.461,9.137,4.975,13.754,7.367l-.1-.048c1.25.649,2.506,1.323,3.813,1.85a4.645,4.645,0,0,0,2.385.506,3.1,3.1,0,0,0,1.3-.471,8.08,8.08,0,0,0,.648-.536A1.735,1.735,0,0,0,380.024,91.451Zm-86.071-4.013-.086.039q-.063.031-.126.06l.071-.035a6.213,6.213,0,0,1-.67.242l-.348.081c-.179.028-.359.048-.539.061a6.223,6.223,0,0,1-.761-.026l-.319-.046a5.912,5.912,0,0,1-.615-.161c-.195-.07-.387-.153-.574-.242.031.016.062.032.093.05l-.107-.058-.111-.054.1.049q-.236-.13-.458-.282a6.369,6.369,0,0,1-.541-.459,5.547,5.547,0,0,1-.42-.459c-.054-.077-.109-.154-.165-.23-.229-.376-.433-.761-.626-1.158q-.224-.567-.415-1.15c-.2-.684-.365-1.368-.5-2.067-.113-.742-.2-1.485-.245-2.236,0-.486,0-.972.025-1.459.06-.6.144-1.19.261-1.78.107-.421.245-.834.378-1.249.45-.619.931-1.207,1.44-1.778a26.071,26.071,0,0,1,2.186-2.084,31.776,31.776,0,0,1,2.609-1.869,30.889,30.889,0,0,1,3.027-1.623q.378-.169.757-.328c.045.14.089.281.133.421a35.93,35.93,0,0,1,1.568,8.676c0-.028,0-.056,0-.084l.006.152,0,.095,0-.064c.047,1.176.026,2.348-.015,3.52-.133.487-.276.971-.441,1.448a21.318,21.318,0,0,1-.888,2.034c-.264.484-.544.951-.846,1.412-.3.407-.613.8-.943,1.18-.25.259-.5.5-.776.74-.165.129-.333.253-.506.368-.215.135-.434.26-.66.373ZM226.64,49.849q-.262-.067-.521-.155c-.158-.062-.314-.13-.469-.2-.254-.143-.5-.29-.738-.448-.254-.194-.492-.4-.728-.609-.116-.112-.227-.227-.333-.348-.2-.258-.391-.52-.57-.791-.13-.218-.249-.442-.358-.67-.18-.4-.337-.812-.478-1.232-.085-.314-.162-.628-.231-.947-.076-.452-.13-.9-.164-1.361a16.351,16.351,0,0,1,.022-1.7c.057-.486.129-.964.222-1.444a19.08,19.08,0,0,1,.541-1.857c.215-.544.454-1.073.718-1.6.312-.554.64-1.093,1-1.622.366-.49.748-.958,1.151-1.416a21.647,21.647,0,0,1,1.579-1.5,22.02,22.02,0,0,1,1.952-1.389c.627-.372,1.268-.719,1.922-1.035a27.2,27.2,0,0,1,2.8-1.076,30.7,30.7,0,0,1,3.108-.738c.056.529.106,1.06.14,1.595a35.585,35.585,0,0,1-.062,3.96l0-.027a32.673,32.673,0,0,1-.527,3.589,31.679,31.679,0,0,1-.871,3.124,29.976,29.976,0,0,1-1.233,2.862,25.193,25.193,0,0,1-1.378,2.28c-.335.455-.685.9-1.058,1.323-.374.391-.762.764-1.17,1.121-.444.354-.9.685-1.375,1-.484.293-.975.561-1.486.811-.434.188-.876.351-1.322.508C226.7,49.858,226.67,49.856,226.64,49.849Zm-48.465,33.08c.847.209,1.694.417,2.55.6,2.566.632,5.126,1.333,7.629,2.179l.265.095-.007,0c.7.253,1.4.506,2.1.76l-.076-.03.272.1c.4.169.8.329,1.193.494.425.177.866.33,1.284.53.794.386,1.6.743,2.4,1.121.754.4,1.516.788,2.279,1.173L198,89.917l.06.033.134.067a1.46,1.46,0,0,1-.131-.066c.792.43,1.594.849,2.38,1.279.914.5,1.821,1.023,2.745,1.5-.047-.024-.095-.047-.142-.073,1.925,1.125,3.91,2.149,5.812,3.316,1,.612,2.02,1.195,3,1.837,1,.656,2.008,1.317,3,1.991.466.33.923.679,1.38,1.017.359.266.724.531,1.084.8.141.106.294.2.429.317.917.8,1.89,1.548,2.815,2.347.225.217.457.425.683.64q.242.261.485.521c.966,1.025,1.931,2.038,2.838,3.109,1.1,1.294,2.187,2.594,3.288,3.882,1.1,1.433,2.224,2.853,3.343,4.28.58.745,1.135,1.508,1.687,2.274.151.236.3.476.451.708l1.74,3.078c.46.808.872,1.644,1.295,2.48s.848,1.66,1.243,2.5c.462.98.914,1.961,1.376,2.942.464,1.121.963,2.231,1.445,3.347.412.942.777,1.9,1.16,2.844,1,2.5,1.982,5.023,2.8,7.588.226.739.428,1.486.612,2.238-.023.049-.043.1-.068.148-.054.091-.108.18-.162.275-.07.093-.149.178-.227.265-.044.041-.088.083-.133.123l-.2.151-.157.095-.192.083-.2.058-.146.023a3.526,3.526,0,0,1-.436,0c-.21-.023-.421-.053-.631-.092-.8-.2-1.584-.445-2.365-.72.083.029.165.058.242.088-.607-.218-1.213-.436-1.826-.648.061.022.121.041.179.06l-.222-.079c-2.339-.865-4.634-1.825-6.923-2.807-1.307-.553-2.6-1.148-3.928-1.655a14.878,14.878,0,0,0-4.063-1.107,4.407,4.407,0,0,0-3.456.93,3.829,3.829,0,0,0-1.016,2.792c-.3-.044-.593-.075-.888-.116a7.881,7.881,0,0,0-1.343-.095,3.27,3.27,0,0,0-1.095.165,1.755,1.755,0,0,0-1.089,1.79,6.864,6.864,0,0,0,1.066,2.632c.789,1.349,1.625,2.674,2.379,4.04.688,1.251,1.33,2.527,1.956,3.812.1.821.193,1.643.3,2.463.336,2.727.665,5.453.924,8.191.118,1.3.254,2.585.336,3.88.105,1.557.209,3.115.3,4.677a83.608,83.608,0,0,1,0,8.467c-1.142-.915-2.23-1.9-3.316-2.885l.013.012-.026-.024-.109-.1.06.053-.189-.175.058.051-.083-.075-.058-.054.032.031c-.115-.1-.227-.211-.339-.314.047.041.089.083.136.124-1.9-1.773-3.751-3.586-5.659-5.347l.06.053c-.147-.138-.3-.276-.446-.414l.086.084c-.126-.12-.255-.237-.382-.356l.07.062-.113-.1-.014-.012c-.132-.121-.263-.243-.4-.368.048.047.095.088.136.129-.45-.423-.906-.85-1.362-1.273l-.021-.019-.04-.038-.02-.018.008.008c-1.513-1.441-3.023-2.89-4.595-4.265a61.545,61.545,0,0,0-4.818-3.947c-.27-.194-.547-.387-.823-.575.031.019.064.04.1.063-.1-.069-.2-.135-.29-.205l.07.052c-.535-.376-1.086-.739-1.648-1.077-.452-.276-.91-.554-1.376-.811-.386-.533-.765-1.072-1.16-1.6q-.865-1.158-1.743-2.327c-.318-.417-.618-.859-.954-1.265q-1.378-1.678-2.738-3.363c-.836-1.042-1.743-2.037-2.62-3.038-.6-.683-1.2-1.366-1.8-2.044-.477-.535-.972-1.042-1.5-1.53a2.452,2.452,0,0,0-1.454-.589,1.94,1.94,0,0,0-1.885.889,5.263,5.263,0,0,0-.577,2.732q-.042.893-.1,1.785c-.023.276-.045.549-.067.821,0-.038.007-.076.013-.115-.465,5.488-1.242,10.947-1.89,16.411-.318,2.709-.63,5.417-.989,8.126-.153,1.19-.318,2.367-.519,3.551q-.37,2.171-.743,4.334c-.284,1.239-.562,2.483-.846,3.721-.236,1.025-.53,2.032-.819,3.038-1.543,5.453-3.174,10.877-4.94,16.253-.183.557-.378,1.109-.563,1.665l-.215.416c.03-.059.065-.124.094-.188q-.125.243-.251.49l.034-.061-.043.081-.021.04.028-.05-.031.057-.033.066.019-.04-.023.042c-.011.021-.021.043-.032.064l.016-.034c-.03.057-.059.113-.087.169.03-.059.065-.124.1-.189-.874,1.656-1.736,3.312-2.6,4.973l-.017.033,0-.007-.015.03h0l-.015.029,0-.011c-.017.035-.035.07-.053.1q.018-.039.039-.078c-.759,1.426-1.543,2.837-2.311,4.252-.654,1.208-1.355,2.386-2.044,3.569-.73,1.266-1.507,2.5-2.284,3.739-.69,1.1-1.443,2.148-2.179,3.209a22.468,22.468,0,0,1-1.6,1.987,10.2,10.2,0,0,1-.74.731c-.06.045-.12.088-.181.131-.439-.434-.846-.9-1.241-1.368-1.561-1.949-2.915-4.043-4.342-6.091-.919-1.3-1.832-2.615-2.862-3.834a13.611,13.611,0,0,0-1.932-1.967,6.316,6.316,0,0,0-2.12-1.218,5.747,5.747,0,0,0-2.6-.1,13.6,13.6,0,0,0-1.6.407l-.374.117h0l.056-.019-.057.018c-1.811-1.6-4.066-2.958-6.555-2.423a27.987,27.987,0,0,0-3.368,1.071c-.613.218-1.219.46-1.826.689q-1.74.672-3.474,1.367c-2.591,1.042-5.17,2.108-7.731,3.22q-7.818,3.393-15.64,6.79-2.5,1.082-5,2.168c-.376.083-.751.17-1.125.249q-1.715.379-3.439.753c-1.414.3-2.809.666-4.21,1.019-1.425.36-2.868.677-4.281,1.1-2.044.6-4.087,1.213-6.136,1.813-.495.148-.983.312-1.478.483q-1.847.654-3.7,1.3c-.565.194-1.125.394-1.69.588-.206.077-.43.136-.636.224-.759.341-1.537.642-2.308.96-1.2.506-2.408,1-3.61,1.5-.483.206-.96.411-1.431.647-1.925.966-3.856,1.92-5.776,2.9.059-.03.118-.053.176-.082a9.39,9.39,0,0,0-.918.524c-.666.388-1.325.783-1.985,1.178-.959.565-1.907,1.148-2.873,1.7-.371.212-.725.46-1.084.689-.635.412-1.271.819-1.907,1.231-1.278.818-2.55,1.637-3.834,2.444.036-.025.072-.048.11-.073q-1.461.908-2.991,1.691c.032-.177.065-.355.1-.532.454-2.585.907-5.164,1.313-7.755.424-2.655.819-5.323,1.054-8.008.124-1.378.283-2.762.366-4.145.094-1.573.194-3.133.288-4.7.082-1.284.077-2.574.106-3.857.029-1.148.077-2.291.047-3.439-.041-1.849-.088-3.692-.129-5.541-.03-1.143-.124-2.279-.2-3.416-.058-.918-.11-1.837-.169-2.755.031-.687.045-1.376.081-2.063.129-2.473.283-4.946.418-7.419.071-1.3.171-2.609.206-3.91.035-1.207.118-2.42.106-3.622s.018-2.384-.035-3.568c-.065-1.343-.124-2.673-.241-4.01a62.84,62.84,0,0,0-1-7.26c-.53-2.515-1.171-5-1.8-7.491-.165-.647-.394-1.277-.588-1.913-.183-.595-.413-1.178-.625-1.761-.388-1.054-.824-2.1-1.289-3.121-1.732-3.815-3.58-7.6-6.4-10.746-.019-.022-.041-.041-.061-.062a13.221,13.221,0,0,0-.7-2.283c-.483-1.137-1.054-2.238-1.6-3.345a21.151,21.151,0,0,0-4.269-6.118,19.294,19.294,0,0,0-2.732-2.161c-.53-.347-1.06-.695-1.6-1.025-.194-.119-.387-.241-.583-.359-.136-.175-.268-.353-.405-.526-.6-.76-1.212-1.518-1.815-2.281.62-1.068,1.314-2.089,1.991-3.122.548-.831,1.095-1.655,1.649-2.474,1.213-1.808,2.443-3.61,3.674-5.406q1.44-2.1,2.874-4.209c.641-.955,1.277-1.915,1.925-2.868.53-.789,1.025-1.614,1.531-2.421a102.915,102.915,0,0,0,5.412-9.721c.865-1.757,1.7-3.528,2.528-5.3.214-.179.425-.363.64-.542-.059.053-.118.1-.177.153,1.325-1.065,2.656-2.113,4.04-3.1.8-.571,1.584-1.136,2.373-1.719,1.071-.783,2.384-1.773,2.538-3.209a12.99,12.99,0,0,0-1.031-5.47c-.754-2.179-1.655-4.328-2.614-6.425-.271-.589-.513-1.207-.813-1.784-.312-.595-.624-1.19-.93-1.784-.578-1.107-1.213-2.161-1.855-3.227-1.2-2-2.509-3.933-3.8-5.871q-2.244-3.364-4.471-6.739c-.261-.562-.519-1.126-.787-1.684-.666-1.372-1.355-2.745-2.085-4.075-.43-.777-.842-1.573-1.3-2.332-.483-.806-.96-1.614-1.443-2.414s-.988-1.6-1.5-2.382c-.431-1.269-.876-2.534-1.294-3.808,0,.023.012.047.018.07-.155-.493-.31-.986-.46-1.483l.01.036c0-.014-.008-.028-.012-.042.779.243,1.558.487,2.34.717,2.35.694,4.705,1.354,7.09,1.919,2.437.583,4.869,1.2,7.284,1.9,2.237.642,4.457,1.343,6.683,2.02,2.4.719,4.786,1.461,7.146,2.3l-.033-.011.191.068-.008,0,.014.005.121.044c1.244.449,2.489.9,3.745,1.311.518.171,1.031.33,1.561.477.552.153,1.109.326,1.672.449l.147.031-.082-.015.731.155c.143.034.289.064.433.094l-.028-.007.178.038.016,0h0l.641.137-.007,0c.94.2,1.895.335,2.845.479a11.381,11.381,0,0,0,2.526.217,2.278,2.278,0,0,0,2.055-1.419,7.055,7.055,0,0,0,.153-2.9c-.106-1.919-.277-3.833-.477-5.741-.1-.936-.212-1.861-.353-2.791-.077-.5-.159-1.007-.242-1.513a2.32,2.32,0,0,0-.418-1.3,1.128,1.128,0,0,0-1.242-.282,1.162,1.162,0,0,0-.736,1.047v.017c-.035.423-.082.845-.111,1.273a1.056,1.056,0,0,0,.389.867c.174,1.468.3,2.941.395,4.417-.189.026-.377.045-.567.054a26.987,26.987,0,0,1-2.7-.1,7.506,7.506,0,0,0,.173-1.641c.029-2.632-.03-5.27-.036-7.9-.012-2.95,0-5.894.018-8.844.012-2.626.012-5.258-.036-7.885-.023-1.348-.052-2.691-.07-4.039-.027-1.586-.079-3.175-.047-4.76,1.011.382,2.03.744,3.044,1.109-.071-.023-.147-.053-.218-.077.848.307,1.708.613,2.573.866l.4.116c0,1.188.01,2.377.054,3.567.118,3.374.424,6.736.718,10.1.283,3.221.736,6.418.954,9.645v-.007c.03.96.069,1.921.047,2.887-.017,1.014-.056,2.018-.131,3.032-.073.675-.162,1.34-.277,2.01a13.8,13.8,0,0,1-.4,1.463c-.106.249-.212.487-.334.726a1.5,1.5,0,0,0,2.544,1.542,11.032,11.032,0,0,0,1.566-5.352A38.862,38.862,0,0,0,75,38.289c-.059-1.649-.176-3.286-.359-4.923q-.3-2.622-.577-5.246c-.325-3.156-.564-6.323-.785-9.491q-.069-1.9-.1-3.806v-.061c.732.166,1.464.331,2.2.5,1.048.248,2.138.383,3.2.566,1.9.324,3.822.559,5.73.812,1.784.23,3.574.448,5.37.595-.076-.012-.153-.018-.224-.023l.85.068c.563.334,1.127.664,1.687,1,.686.491,1.39.964,2.079,1.447.315.237.617.5.918.752.336.265.678.53,1,.807-.048-.047-.1-.094-.154-.148.683.647,1.406,1.259,2.124,1.866.731.674,1.484,1.33,2.228,1.991.828.748,1.651,1.5,2.485,2.239.525.495,1.054.986,1.578,1.477.43.407.889.8,1.3,1.231.589.612,1.172,1.225,1.755,1.837.381.4.787.79,1.155,1.206.533.666,1.081,1.318,1.613,1.98.47.574.926,1.164,1.414,1.732.838,1.218,1.734,2.4,2.6,3.6.594.818,1.171,1.654,1.754,2.485q3.082,4.407,6.2,8.791c1.458,2.058,2.913,4.117,4.344,6.192.48,1.611.968,3.219,1.451,4.832.218.706.359,1.442.536,2.16.259,1.037.512,2.073.765,3.116.16.641.277,1.3.407,1.948.218,1.078.436,2.156.653,3.227.312,1.555.572,3.121.848,4.681-.012-.082-.029-.164-.041-.247.236,1.372.471,2.745.719,4.116-.012-.082-.03-.165-.042-.247a25.842,25.842,0,0,0,.607,2.738,4.23,4.23,0,0,0,.163.464c-.582,1.327-1.169,2.653-1.744,3.982-1.431,3.292-2.839,6.589-4.258,9.875q-3.676,8.528-7.358,17.054c-.15-.245-.3-.491-.449-.735a1.273,1.273,0,0,0,.62-1.064c.024-1.3.087-2.608.025-3.9,0-.1-.008-.2-.014-.3,0,.025,0,.05,0,.076-.012-.277-.029-.554-.053-.831a7,7,0,0,0-.141-1.213,16.282,16.282,0,0,0-1.343-3.209c-1.148-2.2-2.555-4.246-3.874-6.342.029.041.058.089.088.135-.154-.249-.3-.5-.459-.744-.514-.834-1.072-1.647-1.608-2.465-1.089-1.648-2.167-3.309-3.25-4.964-1.655-2.531-3.28-5.087-4.964-7.595l.017.032-.029-.044.042.068,0,0c-1.095-1.748-2.268-3.451-3.4-5.177-1.191-1.8-2.347-3.644-3.573-5.432-.223-.371-.487-.73-.725-1.093L94.363,68.2c-.836-1.254-1.654-2.521-2.5-3.769.029.048.058.094.088.142-.5-.79-1.037-1.549-1.561-2.314-.6-.884-1.2-1.767-1.8-2.656a1.312,1.312,0,0,0-2.343.577,3.083,3.083,0,0,0-.041,1.183,7.832,7.832,0,0,0,.435,1.3c.057.128.118.254.182.379a1.657,1.657,0,0,0-.665.893,3.16,3.16,0,0,0,.042,1.719,24.566,24.566,0,0,0,1.313,3.4c1.177,2.439,2.52,4.788,3.927,7.1,1.1,1.8,2.226,3.58,3.3,5.394,1.672,2.838,3.409,5.647,5.105,8.474.759,1.264,1.512,2.529,2.277,3.788l.279.527c.765,1.444,1.484,2.909,2.22,4.358,1.213,2.379,2.4,4.764,3.515,7.184-.023-.053-.047-.106-.071-.159q.105.23.208.459.655,1.742,1.306,3.486c.535,1.431,1,2.9,1.489,4.346.4,1.287.837,2.569,1.249,3.851q.231.721.461,1.441.129.733.211,1.473c-.444-.019-.888-.038-1.332-.052-1.688-.071-3.376-.18-5.065-.269q-2.053-.766-4.109-1.539c-.559-.212-1.136-.389-1.707-.577l-3.345-1.113c-1.384-.465-2.785-.86-4.187-1.266s-2.826-.842-4.251-1.2c-1.131-.283-2.261-.572-3.392-.848-.665-.165-1.325-.354-2-.495.059.012.112.024.171.035-.071-.017-.141-.029-.212-.046l.054.01c-.2-.041-.4-.084-.6-.13.043.011.085.023.124.031-.392-.09-.79-.174-1.182-.258l.11.022c-.361-.076-.722-.158-1.083-.235.029.007.058.014.088.023-.389-.088-.777-.17-1.166-.253l.129.027c-.385-.083-.774-.17-1.16-.253l.13.026-.145-.029-.013,0c-.212-.044-.423-.092-.631-.138.053.011.112.029.171.041-2.182-.482-4.387-.851-6.579-1.265l-.676-.143c.059.012.112.024.171.035-.139-.032-.274-.061-.411-.088l-.553-.12.128.026c-.11-.025-.215-.045-.324-.07l-.063-.012c-.9-.2-1.819-.347-2.728-.524a37.39,37.39,0,0,0-4.028-.672,1.348,1.348,0,0,0-.388,2.644c1.319.324,2.673.524,4.01.766q1.74.309,3.48.624l1.019.188.19.041c.233.048.468.1.7.149l.348.072c.273.059.55.122.822.18-.044-.009-.084-.021-.126-.031.162.037.323.07.48.107-.037-.008-.077-.019-.117-.029l.171.038c.116.028.23.052.345.075.1.022.194.041.3.064l-.071-.017.032.007.012,0,.022.005.046.009.136.029-.171-.035c.889.2,1.773.465,2.65.706.925.248,1.849.483,2.774.736.83.23,1.648.525,2.467.777.865.277,1.737.531,2.591.825l-.01,0c.021.007.042.015.063.021l-.011,0,.041.014-.058-.021.094.034.022.007-.015,0,.58.206.018.006.094.033-.019-.006c.339.122.681.243,1.023.365l-.015-.005.015.005c-1.921-.335-3.839-.7-5.756-1.041-3.38-.607-6.76-1.208-10.151-1.72-3.581-.542-7.167-.995-10.758-1.425a1.735,1.735,0,0,0-.5,3.433c1.083.141,2.173.265,3.256.418,3.162.436,6.342.789,9.5,1.319,3.274.553,6.548,1.107,9.816,1.7q2.712.495,5.435.96c1.637.277,3.28.494,4.929.712,3.056.407,6.13.777,9.2,1.072l.7.068q.9.28,1.8.556c1.484.448,2.968.883,4.428,1.384.63.212,1.266.442,1.914.6.383.1.771.183,1.16.26a6.213,6.213,0,0,0,1.276.17,3.089,3.089,0,0,0,.332-.017,2,2,0,0,0,.744-.246c.032.009.064.014.1.022-1.251,2.7-2.6,5.345-3.964,7.983-2.568,4.851-5.155,9.7-7.821,14.5-.883,1.595-1.778,3.179-2.685,4.77-.842,1.483-1.725,2.949-2.6,4.416-1.731,2.891-3.586,5.711-5.388,8.556-1.608,2.538-3.2,5.093-4.681,7.707-.824,1.449-1.69,2.886-2.45,4.37-.846,1.646-1.681,3.292-2.526,4.937.011-.023.023-.046.035-.068-.571,1.107-1.087,2.252-1.625,3.38q-.689,1.432-1.372,2.874-1.633,3.453-3.215,6.93a1.624,1.624,0,0,0,.836,2.121,1.581,1.581,0,0,0,.626.131,1.668,1.668,0,0,0,1.488-.968q3.118-6.492,6.33-12.942l0,.008c.016-.033.032-.065.049-.1.871-1.682,1.748-3.364,2.615-5.052q-.013.025-.027.048l.033-.059.055-.107-.047.093c.609-1.11,1.26-2.2,1.89-3.3.459-.807.9-1.625,1.39-2.42q1.52-2.456,3.038-4.917c.924-1.5,1.884-2.962,2.832-4.446.817-1.285,1.623-2.585,2.429-3.877q-.614,1.452-1.223,2.906-1.784,4.266-3.491,8.574-.468,1.172-.941,2.339c-.274.56-.543,1.124-.8,1.694-.354.766-.7,1.537-1.06,2.308a6.724,6.724,0,0,0-.778,1.95,4.055,4.055,0,0,0-.047.877,2.516,2.516,0,0,0,.195.683,2.049,2.049,0,0,0,1.849,1.29h.032a2.013,2.013,0,0,0,1.728-.972,25.32,25.32,0,0,0,1.331-2.9c.988-2.326,1.957-4.661,2.924-7,.107-.217.214-.435.32-.652,1.241-2.523,2.552-5.005,3.84-7.5-.013.025-.026.051-.038.076q.058-.113.117-.228l-.026.049c.023-.045.046-.09.07-.135l.047-.095-.016.036q1.971-3.793,3.928-7.588l-.013.027c.028-.053.056-.108.084-.163l-.008.015c1.5-2.843,2.968-5.7,4.458-8.556,1.372-2.62,2.779-5.222,4.169-7.831,1.354-2.55,2.755-5.076,4.145-7.608q.363-.665.725-1.331l.039.09c.323.754.641,1.507.965,2.255.142.342.318.678.436,1.019.773,2.279,1.576,4.552,2.349,6.831q.453,1.589.9,3.186c.235.835.494,1.671.7,2.514.3,1.213.566,2.437.884,3.645.123.465.182.953.276,1.424s.171.94.273,1.408c.128.907.283,1.813.375,2.721q.15,1.551.247,3.109c.012.377.02.752.03,1.13a1.649,1.649,0,0,0,1.59,1.643,1.629,1.629,0,0,0,1.643-1.59c-.036-1.6-.142-3.18-.289-4.769-.1-1.054-.253-2.115-.453-3.157-.224-1.171-.436-2.349-.713-3.509-.271-1.119-.506-2.256-.818-3.363-.507-1.778-.99-3.556-1.5-5.328-.177-.619-.412-1.219-.618-1.82q-.583-1.7-1.166-3.392l-.266-.781q.52,1.044,1.011,2.1a74.882,74.882,0,0,1,3.124,8.067c.951,3.059,1.7,6.159,2.343,9.294-.012-.071-.023-.141-.035-.212.059.342.124.683.182,1.025-.012-.071-.023-.141-.035-.212.171.983.348,1.961.524,2.938-.012-.07-.029-.141-.041-.212.071.389.141.783.212,1.172l-.017-.1c.077.443.158.89.235,1.338l-.036-.213.036.2c.156.914.272,1.845.406,2.764.106.736.224,1.465.318,2.2.142,1.1.286,2.2.416,3.294-.006.535-.016,1.071-.021,1.606l-.018,1.113a4.674,4.674,0,0,0,.241,1.973,1.706,1.706,0,0,0,2.886.453,3.343,3.343,0,0,0,.577-2.5c-.042-.518-.1-1.036-.154-1.554-.063-.6-.123-1.195-.195-1.792,0-.86-.016-1.717-.04-2.578a45.878,45.878,0,0,0-.795-6.265c-.265-1.555-.612-3.1-.96-4.628q-.556-2.428-1.154-4.841c-.683-2.767-1.384-5.517-2.255-8.232a65.755,65.755,0,0,0-2.62-6.812c-.548-1.213-1.113-2.415-1.732-3.592-.458-.873-.907-1.771-1.43-2.611l-.009-.016c-.024-.039-.048-.077-.073-.115l-.025-.038q.019.027.036.054l.012.017c-.6-.994-1.217-1.984-1.83-2.974.844-1.162,1.693-2.32,2.562-3.464.526-.694,1.054-1.392,1.582-2.087.8-.021,1.6-.04,2.4-.078,1.537-.071,3.08-.112,4.611-.136,1.8-.023,3.6-.117,5.4-.141,3.38-.053,6.76-.13,10.14-.17q2.242-.036,4.486-.024c1.549.012,3.092-.012,4.635.041,1.678.059,3.356.071,5.023.177,1.731.108,3.462.233,5.187.348,1.708.165,3.422.329,5.13.472l.013,0h0l.123.01c.054,0,.109.009.166.016l-.213-.018h.006l.025,0c1.457.134,2.914.273,4.371.387l.06.007c.853.1,1.723.128,2.582.157q.992.03,1.986.018c.244.031.489.059.734.082a10.634,10.634,0,0,0,1.555.046c.583-.035,1.16-.111,1.737-.153a1.555,1.555,0,0,0,1.257-.923l.032-.019a2.8,2.8,0,0,0,1.337-1.566,2.381,2.381,0,0,0-.224-1.761,3.37,3.37,0,0,0-1.46-1.336,10.842,10.842,0,0,0-1.655-.725c.071.024.136.048.207.071-.53-.194-1.066-.377-1.6-.571l.043.017a33.21,33.21,0,0,0-3.44-.938l-.207-.056c-.737-.2-1.48-.353-2.229-.492.046.009.091.019.139.032-.477-.106-.96-.159-1.437-.235-.251-.044-.5-.083-.745-.115l-.291-.05c-1.319-.23-2.656-.312-3.987-.448-.441-.047-.883-.088-1.325-.135-.212-.018-.436-.059-.642-.059-.494,0-.983-.041-1.478-.065q-.943-.038-1.886-.079c-.239-.014-.478-.028-.716-.044q-1.333-.09-2.656-.159c-3.3-.171-6.589-.389-9.887-.46-2.455-.053-4.911-.071-7.354.083-1.266.076-2.532.188-3.792.329-.654.071-1.319.13-1.973.242q-1.642.27-3.286.53c-1.148.061-2.3.126-3.445.183.077,0,.148-.006.218-.006l-.3.011h-.007c-.389,0-.777.047-1.16.077-.137.008-.273.018-.409.027q.947-1.177,1.927-2.331a2.54,2.54,0,0,0,1-.689,3.177,3.177,0,0,0,.674-1.946c.291-1.1.643-2.192.992-3.265q2.117-6.5,4.274-12.982a1.247,1.247,0,0,0,1.69-1,1.294,1.294,0,0,0-.374-1.095l-.02-.034c-.017-.049-.033-.1-.051-.148-.073-.3-.137-.594-.2-.894.238-.718.471-1.438.71-2.156q.39-1.17.784-2.337c.412-.112.822-.232,1.235-.339.006.083.018.165.022.248a23.982,23.982,0,0,1,0,2.443v0c0,.056-.008.111-.011.166,0-.026,0-.053,0-.08a24.782,24.782,0,0,1-.363,2.636,1.4,1.4,0,0,0,1.178,1.584,1.382,1.382,0,0,0,.211.016,1.422,1.422,0,0,0,1.379-1.193,25.741,25.741,0,0,0,.32-6.47c.436-.093.873-.184,1.311-.278.435-.064.866-.13,1.3-.2.448-.065.9-.165,1.355-.2.977-.08,1.953-.155,2.936-.23.809,0,1.619-.018,2.428-.029.648-.011,1.3.018,1.949.041.672.024,1.343.042,2.008.089.761.061,1.522.116,2.283.176,3.236.341,6.439.876,9.631,1.515C176.409,82.547,177.294,82.741,178.175,82.929Zm66.767,63.992-.063.094-.007.013,0-.012c-.029.042-.059.083-.09.124l.1-.143.01-.018-.007.014Zm-25.76.838c.028.472.053.944.091,1.415-.309-.514-.616-1.029-.909-1.552C218.638,147.661,218.909,147.714,219.182,147.759ZM59.024,9.676c.725.352,1.464.675,2.206.987q-.04.609-.048,1.225c-.041,3.145.065,6.3.118,9.451.041,2.644.012,5.282-.018,7.926q-.025,2.379-.054,4.764c-.29-2.211-.573-4.423-.788-6.642-.506-5.205-1.109-10.409-1.407-15.625v.02l0-.038c0-.06-.007-.119-.01-.179l.007.1C59,11,59,10.338,59.024,9.676Zm78.509,57.251q.5,1.614,1.005,3.227l-.008-.035c.13.421.26.838.39,1.256q-.592,1.1-1.178,2.207c-.307-.9-.628-1.8-.989-2.692q-.508-1.252-1.079-2.479c.03-.313.051-.627.066-.937a26.422,26.422,0,0,0-.653-6.7c-.035-.161-.078-.32-.115-.481.9,2.174,1.71,4.38,2.54,6.578.019.058.037.116.055.174C137.554,67.006,137.544,66.966,137.533,66.927Zm2.244,20.181c-2.656,5.046-5.465,10.022-8.026,15.121q-2.192,4.347-4.317,8.727l-.483,1-.549.051c-.435.041-.869.092-1.3.144-.2.011-.391.023-.587.038-.217.015-.441.026-.665.044q3.5-8.4,7-16.81c1.231-2.957,2.458-5.913,3.712-8.859a1.624,1.624,0,0,0,.407.049,3.565,3.565,0,0,0,1.543-.335c.748-.377,1.46-.854,2.173-1.3.594-.372,1.189-.737,1.79-1.108l1.21-.747-.211.625c-.6,1.19-1.208,2.376-1.8,3.568A1.932,1.932,0,0,1,139.777,87.108Zm2.412,27.736c1.48-.051,2.96-.08,4.44-.161l-.012,0c.845,0,1.691.023,2.536.023.807.073,1.618.13,2.42.178h-.016q.845.081,1.687.169-2.185.012-4.372.043c-3.1.047-6.189.129-9.28.206-2.628.068-5.253.157-7.88.242l.158-.208.479-.121q2.216-.081,4.428-.172c1.879-.071,3.757-.1,5.624-.206C142.33,114.838,142.259,114.844,142.189,114.844Zm-7.869-9.774-.213.254c.112-.223.225-.448.338-.671C134.4,104.791,134.361,104.931,134.32,105.07Zm-21.408.36-.038-.06.006.01-.012-.019c-.033-.053-.066-.107-.1-.16s-.053-.087-.081-.13l.036.053c-.053-.082-.106-.165-.159-.253l.076.126-.029-.044.027.044c-.055-.088-.108-.176-.163-.261-.043-.069-.086-.138-.127-.208-.183-.292-.368-.584-.549-.876.024.041.048.08.072.119-.063-.1-.125-.2-.185-.3-.076-.118-.15-.236-.225-.355-.039-.064-.079-.127-.119-.191l.015.026-.405-.645c-.084-.139-.172-.275-.26-.415-.031-.048-.061-.1-.092-.148l0,0,0-.007c-.043-.074-.089-.146-.136-.22-.018-.03-.036-.058-.054-.086q-1.38-2.25-2.791-4.477-.492-.828-1-1.647c-.768-1.728-1.561-3.445-2.361-5.158-.642-1.378-1.3-2.738-1.961-4.1s-1.307-2.727-2-4.075l-.415-.809q.284.429.568.856c.388.589.759,1.189,1.166,1.772-.03-.046-.059-.094-.089-.141.028.045.056.089.089.139.5.806,1.041,1.589,1.566,2.387q1.626,2.474,3.257,4.964c1.654,2.526,3.285,5.076,4.969,7.585l-.011-.021.023.032-.039-.063c.813,1.3,1.652,2.6,2.47,3.893a37.193,37.193,0,0,1,2.113,3.779c.243.533.461,1.066.657,1.614l.027.1a14.229,14.229,0,0,1,.142,1.486v-.028c0,.092.009.185.013.279v-.034c0,.055,0,.106.006.157.011.582.006,1.165,0,1.747-.366-.606-.735-1.211-1.112-1.81l.016.024-.069-.109,0,.008-.014-.022-.025-.038.035.057c-.079-.126-.161-.254-.238-.385.035.06.07.118.106.177-.148-.241-.3-.483-.448-.724l.106.176c-.1-.166-.2-.33-.31-.5l0,.007-.008-.013-.1-.164.032.047c-.144-.233-.29-.465-.438-.7l.025.04-.143-.23.106.177c-.065-.106-.124-.206-.189-.312.036.058.071.117.107.176-.095-.147-.189-.3-.277-.447l.106.177c-.3-.479-.6-.952-.895-1.431l-.284-.454Zm2.632,10.54c.267.449.528.9.79,1.357a2.579,2.579,0,0,0-.561,1.156,3.153,3.153,0,0,0,.083,1.242,6.956,6.956,0,0,0,.448,1.148c-.063,0-.125,0-.188,0l-.621-1.893a33.881,33.881,0,0,0-.87-3.681q-.279-.966-.593-1.922C114.536,114.244,115.036,115.11,115.544,115.97Zm2.841,9.176q.121.26.244.519c-.418.582-.836,1.163-1.249,1.749C117.725,126.664,118.054,125.9,118.385,125.146Zm4.25-5.022c-.086.12-.173.238-.259.357-.311-.447-.623-.895-.93-1.344.65-.016,1.3-.037,1.953-.054C123.143,119.429,122.887,119.776,122.635,120.124Zm2.465-4.364-.423.014c-.779.025-1.562.054-2.345.08l.18-.426a1.808,1.808,0,0,0,1.146.305c.516-.038,1.026-.1,1.537-.163C125.163,115.633,125.131,115.7,125.1,115.76ZM111.362,31.944c-.241-.306-.471-.636-.742-.919-.388-.424-.777-.848-1.171-1.266-.713-.771-1.408-1.566-2.167-2.3-.831-.8-1.646-1.631-2.5-2.412l0,0-.024-.022c-.041-.038-.082-.077-.124-.114l.013.012c-.076-.069-.151-.139-.227-.211.195.122.389.246.58.375,1.469,1,2.961,1.98,4.438,2.98l-.04-.029.043.031.065.044-.064-.043c1.863,1.357,3.677,2.77,5.408,4.291l.271.321a58.664,58.664,0,0,1,4.346,6.018c.506.823.977,1.664,1.442,2.508q.876,2.818,1.781,5.632c.208.645.432,1.287.647,1.931-1.247-1.786-2.5-3.57-3.728-5.37-.942-1.378-1.867-2.768-2.827-4.134-.6-.86-1.207-1.72-1.808-2.579-.429-.612-.83-1.266-1.313-1.837.042.047.083.094.118.141C113.005,33.969,112.175,32.963,111.362,31.944ZM68.258,9.586c-1.153-.419-2.3-.843-3.445-1.287l.015-.033c.025-.035.051-.07.075-.106l.008-.007L65,8.165l.121.032c.429.161.854.318,1.279.476q1.81.663,3.657,1.219l.2.059c-.018.1-.032.2-.044.295-.592-.2-1.184-.4-1.775-.6Zm.141.052-.016-.005-.1-.039Zm4.815,1.286v-.007l.143.024c.169.036.341.072.511.11,1.474.367,2.938.764,4.408,1.141l-2.162-.373c-.973-.225-1.941-.451-2.906-.7C73.212,11.053,73.211,10.988,73.214,10.924Zm42.613,15.621c.252.56.51,1.12.768,1.681.362.811.68,1.641.981,2.479-.243-.221-.47-.458-.716-.675a66.247,66.247,0,0,0-14.231-12.244c.89.023,1.78.054,2.667.117.612.056,1.214.127,1.816.232.3.07.592.148.89.238.169.063.336.133.5.213.346.189.678.391,1.008.61a31.5,31.5,0,0,1,2.78,2.216,16.677,16.677,0,0,1,1.207,1.273c.318.409.614.822.905,1.255.554.916,1.039,1.866,1.52,2.817C115.891,26.686,115.856,26.615,115.827,26.545Zm23.044,50.481c.029-.058.06-.118.092-.177l.015-.03c.021-.039.042-.078.064-.116-.018.031-.036.064-.052.094.161-.308.322-.621.484-.933l-.014.026.015-.028.016-.032-.009.019c.109-.2.214-.415.319-.619-.023.054-.053.1-.076.154l.195-.374q.335,1.306.668,2.611c.1.389.192.782.278,1.176-.368.233-.733.471-1.1.7a1.156,1.156,0,0,0,.061-.18,1.249,1.249,0,0,0-.684-1.292l-.291-.962c.034-.065.067-.13.1-.194C138.924,76.926,138.894,76.979,138.871,77.026Zm-1.252,3.068a2.586,2.586,0,0,0,.784.281c-.519.333-1.04.664-1.558,1q.319-.694.639-1.389A1.191,1.191,0,0,0,137.619,80.094Zm-6.758-22.079q-.468-1.5-.945-2.995l.007.024-.022-.071c-.013-.039-.025-.078-.037-.117l.011.033c-.131-.423-.282-.837-.424-1.252q-.374-1.1-.751-2.192a62.986,62.986,0,0,1,2.25,5.991c.432,1.394.8,2.8,1.1,4.227-.051-.082-.1-.165-.152-.248q-.5-1.71-1.037-3.409Zm4.312,20.653c-.107-.592-.212-1.184-.321-1.778.018.083.03.166.047.248-.2-1.136-.418-2.261-.624-3.4-.1-.516-.205-1.029-.307-1.543a5.4,5.4,0,0,0,.471-.311q.3.725.577,1.458c.416,1.1.767,2.215,1.121,3.334C135.81,77.339,135.485,78,135.173,78.668Zm8.961-11.2c.321.961.638,1.926.971,2.882.065.209.125.421.188.631-.294.4-.59.806-.883,1.21-.394.536-.783,1.071-1.172,1.619a11.039,11.039,0,0,0-.7,1.08q-.379-1.5-.757-2.992c-.025-.1-.057-.192-.085-.288.386-.706.821-1.394,1.224-2.084S143.73,68.153,144.134,67.467Zm-20.6-30.481q-.35-1.128-.7-2.256c-.389-1.249-.771-2.5-1.213-3.734-.3-.824-.6-1.641-.916-2.453,1.142,1.962,2.133,4,3.123,6.036.116.255.234.514.349.769.935,2.079,1.84,4.171,2.746,6.263A54.482,54.482,0,0,0,123.534,36.986ZM67.706,49.467a28.583,28.583,0,0,1,.006,2.883l0,.031c-1.364-.152-2.72-.442-4.071-.693.013-.021.03-.038.042-.059a2.629,2.629,0,0,0,.335-1.713,4.877,4.877,0,0,0-.095-.5c.177.012.354.031.531.041a21.427,21.427,0,0,0,2.821.053C67.416,49.5,67.561,49.483,67.706,49.467ZM41.362,85.718q-.54-.883-1.084-1.762a1.288,1.288,0,0,0,.383-.916,3.418,3.418,0,0,0-.271-1.166c-.118-.336-.229-.666-.341-1-.093-.276-.191-.55-.288-.824l.149.29c.606,1.364,1.22,2.724,1.764,4.122.169.435.331.873.495,1.31-.072.152-.145.3-.213.456-.039.085-.079.17-.119.256C41.677,86.223,41.512,85.967,41.362,85.718Zm.895,6.871a6.124,6.124,0,0,0,.065-1.178c0-.045-.009-.087-.013-.131l.16-.349q.425-.927.846-1.851c.151.528.292,1.058.4,1.594-.006-.033-.011-.066-.017-.1l.023.131c.006.031.013.062.019.093-.006-.023-.011-.045-.015-.068.036.221.065.438.084.659,0,.149,0,.3-.005.442-.165.16-.332.312-.5.461-.376.3-.769.572-1.155.855A4.624,4.624,0,0,0,42.257,92.589Zm140.426,23.733c-4.068-.89-8.184-1.519-12.289-2.232q-.784-.137-1.574-.255,1.026.044,2.051.09c.686.028,1.383.084,2.069.088,1.545.189,3.106.3,4.65.46.542.053,1.083.171,1.619.259.759.129,1.517.273,2.275.385q1.246.288,2.5.58c.331.082.651.186.977.28.276.206.542.419.8.64-.516.013-1.03.013-1.545,0-.579-.106-1.155-.224-1.731-.347C182.548,116.292,182.619,116.3,182.683,116.322Zm-34.732-54.57c-.035.041-.065.088-.1.135.648-.918,1.295-1.831,2-2.7.121-.149.235-.3.353-.454q-.433,1.083-.843,2.173c-.677,1.79-1.36,3.586-1.978,5.4l-.351,1.029c-.072-.214-.142-.429-.214-.644-.246-.734-.5-1.466-.741-2.2C146.694,63.574,147.314,62.657,147.951,61.752Zm-22-31.274-.009-.015.051.082.049.077-.012-.019c.728,1.17,1.466,2.331,2.2,3.5l.028.044c.229.367.448.735.671,1.107.842,1.39,1.7,2.774,2.5,4.187s1.643,2.8,2.4,4.228q.8,1.511,1.6,3.033c.253.483.524.96.76,1.454.748,1.587,1.523,3.169,2.261,4.767.422.961.826,1.933,1.236,2.9.342.8.719,1.6,1.031,2.408.748,1.944,1.519,3.881,2.255,5.83-.017-.059-.035-.112-.053-.171.059.192.126.381.188.572l-.069.1c-.306.447-.618.894-.895,1.354-.49.81-.975,1.615-1.463,2.421-.086-.281-.174-.563-.259-.844-.159-.506-.289-1.024-.471-1.519-.2-.529-.4-1.059-.595-1.59-.571-1.531-1.154-3.049-1.72-4.58-.164-.448-.371-.89-.559-1.331l-1.131-2.686c-.429-1.03-.865-2.061-1.3-3.085q-1.864-4.336-3.7-8.68c-1-2.373-1.973-4.763-3.015-7.118-1.372-3.1-2.726-6.236-4.4-9.193-.432-.763-.884-1.521-1.361-2.265.208.226.433.436.633.669A44.2,44.2,0,0,1,125.954,30.478ZM55.905,3.3c2.558.647,5.1,1.308,7.642,2.01-.046.025-.094.038-.139.066A4.057,4.057,0,0,0,61.9,7.1c-.775-.338-1.543-.69-2.3-1.064a3.013,3.013,0,0,0-1.368-.407,2.137,2.137,0,0,0-1.454.5,2.843,2.843,0,0,0-.528.607c-.007-.04-.017-.079-.024-.119-.136-.8-.258-1.614-.326-2.423-.009-.281-.011-.558.005-.842ZM14.575,142.7c-2.216-1.391-4.466-2.731-6.625-4.213a23.23,23.23,0,0,1-2.028-1.625c-.283-.28-.547-.561-.8-.856-.27-.342-.527-.691-.768-1.053-.208-.347-.4-.7-.576-1.058-.033-.09-.068-.181-.1-.269l-.006-.019c.182-.173.372-.334.562-.494,1.435-1.159,2.9-2.273,4.339-3.432a50.153,50.153,0,0,0,4.1-3.739q2.235-2.28,4.429-4.587c1.242-1.308,2.514-2.573,3.733-3.893l-.022.025.058-.063-.018.02.081-.088.083-.088-.029.03c.4-.434.8-.868,1.2-1.3l-.159.177c1.186-1.279,2.343-2.587,3.516-3.882-.037.041-.075.082-.112.119l.119-.127.04-.044-.038.042q.6-.64,1.212-1.278c-.431.647-.855,1.3-1.29,1.941-.764,1.051-1.518,2.107-2.322,3.124-.913,1.148-1.831,2.285-2.779,3.409-1.726,2.055-3.516,4.058-5.3,6.066-.96,1.077-1.926,2.149-2.874,3.233-.424.482-.847.965-1.236,1.472a5.406,5.406,0,0,0-.754,1.106,2.922,2.922,0,0,0-.23,1.425,6.056,6.056,0,0,0,.913,2.35,18.825,18.825,0,0,0,1.455,2.073c.547.7,1.107,1.4,1.66,2.1.854,1.071,1.708,2.143,2.538,3.238.673.889,1.352,1.773,1.986,2.69Q16.562,143.954,14.575,142.7Zm16.868,59.932c-.24-.805-.452-1.616-.624-2.437-.1-.554-.16-1.108-.2-1.672a57.268,57.268,0,0,1,.138-6.02q.115-1.892.23-3.781c.118-1.878.147-3.762.206-5.641.024-.683-.006-1.372-.024-2.055-.029-1.131-.052-2.261-.082-3.392-.023-.948-.124-1.9-.194-2.838-.055-.748-.094-1.5-.142-2.251-.045-1.075-.088-2.147-.117-3.219.08.227.167.452.241.68.374,1.166.748,2.337,1.126,3.5.257.991.514,1.977.764,2.968.171.654.372,1.308.5,1.973.386,1.966.762,3.938,1.158,5.9.379,2.474.8,4.948,1.1,7.434.371,2.973.73,5.941,1.054,8.92.219,1.994.411,3.988.6,5.982-.091,1.671-.186,3.341-.254,5.017-.095,2.484-.147,4.976-.218,7.466-.036,1.272-.041,2.556-.106,3.828-.065,1.313-.141,2.632-.2,3.951.006-.094.011-.183.023-.277-.117,1.39-.235,2.773-.341,4.163.006-.094.012-.183.017-.277-.259,2.4-.523,4.794-.871,7.178-.148,1.016-.312,2.024-.474,3.035.017-.8.032-1.608.05-2.412.082-3.574.282-7.143.329-10.717.036-3.192.089-6.378-.159-9.563a49.835,49.835,0,0,0-1.212-8.138c-.336-1.348-.748-2.679-1.161-4.01C32.25,204.822,31.806,203.743,31.443,202.636ZM67.73,245.123c-5.029,2.538-10.128,4.928-15.175,7.431-2.59,1.284-5.169,2.609-7.619,4.146-2.33,1.458-4.613,3-6.936,4.461l-.09.057-.42.257c.106-.777.241-1.552.373-2.326.128-.048.256-.091.383-.144A43.382,43.382,0,0,0,45,255.189l4.709-3.024c1.843-1.057,3.637-2.2,5.481-3.253,1.023-.473,2.026-1.018,3.035-1.525,1.072-.533,2.149-1.061,3.21-1.61,1.04-.467,2.112-.875,3.167-1.311.777-.324,1.561-.647,2.338-.972.353-.147.706-.311,1.066-.441,2.256-.834,4.552-1.546,6.8-2.377q2.1-.624,4.209-1.24C75.235,241.3,71.49,243.221,67.73,245.123Zm62.664-23.9a8.507,8.507,0,0,0-1.46.429c-.347.142-.689.3-1.03.454-1.667.753-3.351,1.448-5.041,2.149-1.637.671-3.3,1.3-4.958,1.919q-1.6.594-3.2,1.177l.287-.125c2.6-1.148,5.234-2.232,7.872-3.3,2.575-1.05,5.173-2.1,7.827-2.952.227-.063.455-.118.69-.163l.259-.041.178,0c.125.011.25.02.373.043.094.022.188.049.282.076.035.012.069.028.1.041C131.852,221.014,131.119,221.065,130.394,221.225Zm29.767,12.256a2.49,2.49,0,0,1,.118-.223c-.508.97-1.015,1.947-1.518,2.923-1.309,2.157-2.652,4.3-4.093,6.375-.4.546-.812,1.075-1.256,1.589-.114-.247-.225-.494-.341-.735-.277-.577-.548-1.149-.824-1.72-.507-1.054-1.025-2.108-1.567-3.144-.653-1.254-1.313-2.5-2-3.74-.565-1.036-1.207-2.031-1.819-3.038-.383-.63-.825-1.219-1.243-1.825-.265-.389-.53-.766-.806-1.143-.831-1.112-1.661-2.219-2.515-3.315-.808-1.04-1.638-2.058-2.51-3.039.03-.006.059-.016.089-.022.125-.015.249-.029.374-.04s.276,0,.412.007l.085.014.174.046c.093.037.183.077.272.12.114.064.226.132.337.2.272.2.53.413.783.638.424.415.827.852,1.215,1.3-.033-.039-.064-.078-.095-.118l.122.151h0c1.533,1.883,2.876,3.912,4.241,5.92a40.466,40.466,0,0,0,3.951,5.164,4.062,4.062,0,0,0,1.678,1.26,3.029,3.029,0,0,0,2.562-.512A11.77,11.77,0,0,0,158.553,234c.4-.512.777-1.03,1.142-1.56.53-.765,1.09-1.513,1.584-2.3.35-.551.694-1.1,1.041-1.658-.146.384-.293.766-.44,1.149C161.374,230.944,160.744,232.2,160.161,233.481Zm24.372-69.267q-.027.348-.056.69c-.023.237-.042.476-.061.717-.006.062-.011.123-.016.185-.3,2.595-.774,5.161-1.316,7.722.012-.07.03-.141.041-.212-1.023,4.613-2.361,9.151-3.79,13.653l.087-.383c.112-.477.182-.966.265-1.443.165-.948.324-1.89.489-2.838.918-5.364,1.4-10.793,2.09-16.187.561-4.4,1.173-8.8,1.534-13.226.35.4.7.805,1.045,1.208l.141.163a1.785,1.785,0,0,0-.059.6c.027.337.054.676.076,1.019.042,1.2-.032,2.394-.1,3.591,0-.039.006-.078.01-.119-.049.6-.093,1.2-.137,1.8-.257.079-.514.157-.771.245-.031.007-.063.016-.1.021l.055-.006-.046.016a1.156,1.156,0,0,0-.91,1.115,1.175,1.175,0,0,0,1.154,1.19,2.084,2.084,0,0,0,.421-.079c-.006.086-.014.174-.02.26S184.538,164.115,184.533,164.214Zm3.635-3.647c.027-.341.053-.682.08-1.024-.006.071-.012.148-.017.218.039-.511.065-1.023.094-1.534.574.7,1.143,1.41,1.684,2.138l.181.241A11.306,11.306,0,0,0,188.168,160.567Zm31.264,31.4.027-.022c-.009.007-.016.016-.025.023Zm.491-.466c-.008.009-.018.015-.026.024l.033-.035Zm.551-.9c-.144.259-.294.508-.456.753l-.19.233c-.1.1-.2.2-.313.3l-.1.065-.008-.008c-.566-.58-1.075-1.214-1.595-1.84l.029.035c-4.334-5.335-8.674-10.67-12.961-16.04-1.239-1.549-2.424-3.139-3.595-4.739.818.7,1.631,1.4,2.422,2.131-.042-.04-.089-.082-.13-.123.538.5,1.07,1,1.607,1.495l-.029-.029.053.05.041.039-.017-.016.026.025q2.766,2.628,5.532,5.255c2.085,1.978,4.128,4,6.242,5.959-.041-.042-.088-.082-.135-.13.136.127.272.254.408.379l-.02-.02.057.054.084.076-.036-.032c.627.584,1.268,1.146,1.915,1.7.684.586,1.389,1.161,2.13,1.678-.107.428-.215.854-.348,1.276C220.905,189.632,220.7,190.122,220.474,190.606Zm2.614-45.014-.162-.043c0-.26-.01-.519,0-.78.115,0,.23.01.345.019.193.021.387.052.578.091.669.181,1.333.382,1.987.616,1.714.661,3.4,1.406,5.084,2.148-1.06-.277-2.121-.551-3.184-.8C226.174,146.476,224.631,146.017,223.088,145.592ZM156.58,76.649a36.525,36.525,0,0,1,4-.432c1.113-.032,2.216-.019,3.325.057a39.009,39.009,0,0,1,4.012.572c3.04.67,6.029,1.6,9,2.541-1.6-.335-3.2-.655-4.818-.934-1.043-.183-2.085-.348-3.133-.489-.995-.13-2-.253-3-.324-.9-.065-1.8-.165-2.709-.2s-1.825-.059-2.738-.089c-.777-.029-1.56.012-2.338.024-.747.017-1.484.047-2.231.118-.807.07-1.626.112-2.426.235-.589.1-1.178.194-1.767.289-.209.034-.425.064-.639.1.461-.172.923-.338,1.391-.49A37.224,37.224,0,0,1,156.58,76.649Zm63.025-27.122c-.3-.169-.592-.345-.879-.534-.353-.268-.691-.54-1.024-.833-.358-.347-.7-.7-1.025-1.082-.239-.307-.465-.62-.678-.946-.217-.375-.418-.748-.6-1.139-.09-.21-.17-.425-.242-.642q-.1-.369-.18-.739c-.048-.28-.079-.564-.1-.847-.009-.366,0-.725.016-1.093.056-.427.128-.85.211-1.277.137-.563.3-1.105.49-1.648.28-.715.589-1.417.934-2.1.432-.79.9-1.554,1.407-2.3a26,26,0,0,1,1.665-2.062c.617-.645,1.259-1.257,1.935-1.843a29.953,29.953,0,0,1,2.876-2.067,34.225,34.225,0,0,1,3.255-1.731c1.215-.531,2.451-1,3.714-1.411a40.848,40.848,0,0,1,4.138-1.027l-.062.01.092-.015.167-.033-.124.025c.286-.046.571-.089.857-.129.017.069.029.139.046.208-.864.151-1.722.33-2.57.565a24.189,24.189,0,0,0-8.744,4.322,18.216,18.216,0,0,0-5.629,7.685,15.182,15.182,0,0,0-1.019,4.7,13.715,13.715,0,0,0,.412,4.434,12.106,12.106,0,0,0,2.007,4.122l-.064-.019C220.445,49.919,220.024,49.734,219.605,49.527Zm76.9,41.335a14.925,14.925,0,0,1-.985,1.229c-.3.3-.6.587-.922.865.021-.017.043-.035.065-.05l-.072.057-.11.1c.033-.03.066-.06.1-.089-.264.207-.532.4-.81.59q-.217.131-.449.242c-.277.121-.553.231-.838.336-.2.059-.4.107-.605.15q-.166.024-.333.036a4.434,4.434,0,0,1-.578-.023c-.177-.018-.35-.047-.522-.082-.187-.042-.373-.09-.557-.148a8.382,8.382,0,0,1-.794-.345c-.156-.091-.309-.187-.457-.286-.278-.214-.54-.434-.8-.668s-.485-.492-.716-.755c-.222-.281-.428-.564-.625-.863-.25-.411-.482-.828-.7-1.257-.218-.485-.409-.971-.586-1.477-.161-.541-.291-1.086-.41-1.635a7.558,7.558,0,0,0,.92,1.56,10.285,10.285,0,0,0,1.555,1.56,7.761,7.761,0,0,0,4.239,1.584,8.314,8.314,0,0,0,4.876-1.231,7.932,7.932,0,0,0,.792-.544l-.014.032Q296.863,90.318,296.507,90.862Zm74.8-2.779q-1.02-.537-2.047-1.056l.033.019-.069-.037-.042-.022L369.2,87c-.164-.088-.329-.173-.5-.258.077.036.148.077.224.112-.194-.1-.382-.2-.571-.3.071.042.147.077.218.119-.206-.106-.406-.213-.612-.319.076.036.147.077.223.113-.265-.136-.53-.271-.8-.413.071.042.147.077.218.118-.2-.105-.4-.209-.6-.313-1.04-.559-2.091-1.113-3.147-1.641.017.009.034.018.051.029-.032-.018-.065-.035-.1-.052l.036.017-.068-.034-.027-.014.088.044c-1.372-.715-2.744-1.437-4.122-2.146l.212.106c-1.572-.883-3.192-1.69-4.782-2.538-1.448-.777-2.885-1.573-4.334-2.349-2.561-1.39-5.1-2.833-7.69-4.169.071.035.136.07.206.106-.332-.177-.664-.348-1-.52l.036.019c-1.519-.789-3.032-1.584-4.545-2.367.024.014.049.027.074.04-.115-.06-.229-.119-.345-.176l.048.022c-.908-.466-1.855-.864-2.78-1.288-1.266-.583-2.533-1.189-3.81-1.754-1.384-.619-2.815-1.16-4.24-1.679-1.6-.577-3.2-1.119-4.823-1.6a50.815,50.815,0,0,0-9.645-1.978,36.132,36.132,0,0,0-10.776.6c-.02-.065-.038-.131-.058-.2q.444-.1.9-.18c1.784-.29,3.579-.413,5.374-.542.87-.034,1.746-.057,2.622-.086,1.385-.039,2.769.016,4.148.113a48.348,48.348,0,0,1,5.258.773c3.179.687,6.323,1.521,9.443,2.429,1.1.319,2.179.637,3.257,1.014,1.339.468,2.673.948,4.017,1.418,2.017.807,4,1.7,5.948,2.683,5.029,2.62,9.7,5.844,14.531,8.8q2.826,1.722,5.646,3.457c2.847,1.752,5.734,3.442,8.471,5.362l-.086-.063c.039.027.076.055.114.083l.013.009c.508.369,1,.751,1.5,1.139-.473-.246-.946-.488-1.423-.73Z"/><path d="M363.854,84.213l-.017-.008.017.009Z"/><path d="M110.6,101.737v0c.02.032.04.063.059.095Z"/><path d="M126.891,127.538l.006.011,0,.008Z"/></svg>