<svg xmlns="http://www.w3.org/2000/svg" width="276.136" height="434.243" viewBox="0 0 276.136 434.243"><path d="M108.931,96.711a34.689,34.689,0,0,0,5.406,4.363,17.4,17.4,0,0,0,3.139,1.69,10.928,10.928,0,0,0,3.014.831c.377.034.754.053,1.137.053a10.61,10.61,0,0,0,2.314-.248,9.9,9.9,0,0,0,2.544-.971,16.084,16.084,0,0,0,4.157-1.508,15.013,15.013,0,0,0,7.313-10.363,20.667,20.667,0,0,0,.23-6.866,27.139,27.139,0,0,0-1.867-6.79,26.621,26.621,0,0,0-2.3-4.387c-.129-.247-.265-.494-.406-.742a20.376,20.376,0,0,0-8.75-8.208c.094.023.194.053.288.077.489.153.966.335,1.443.511a1.266,1.266,0,1,0,.854-2.384,15.454,15.454,0,0,0-3.928-1.013,14.743,14.743,0,0,0-4.54.3,14.327,14.327,0,0,0-2.184.7,13.244,13.244,0,0,0-2.968.383,12.209,12.209,0,0,0-2.7,1.066.092.092,0,0,1,.023-.018c-.076.041-.153.077-.229.118a1.745,1.745,0,0,0-.854,2.278,1.647,1.647,0,0,0,.371.524h-.006a17.147,17.147,0,0,0-5.977,5.871,16.589,16.589,0,0,0-2.314,6.183,18.707,18.707,0,0,0,.183,6.795A23.631,23.631,0,0,0,108.931,96.711Zm23.625-17.919a25.938,25.938,0,0,1,.461,2.6c0-.015,0-.03,0-.045,0,.033.007.067.01.1l0,.018,0-.013c0,.018,0,.036,0,.054s0,.024.006.036v-.012l0,.03,0,.016,0-.007c.068.758.1,1.516.091,2.274a.771.771,0,0,1,.006-.117c0,.047-.006.094-.006.141v.006c-.034.842-.105,1.678-.219,2.514l.007-.035-.012.069-.012.09.007-.059a20.961,20.961,0,0,1-.513,2.315,25.42,25.42,0,0,1-.889,2.443c-.371.818-.772,1.614-1.219,2.385a22.006,22.006,0,0,1-1.72,2.459,21.549,21.549,0,0,1-1.495,1.645l.011-.007c-.328.3-.673.591-1.036.867a13.891,13.891,0,0,1-1.177.741c-.23.124-.454.23-.689.331-.256.014-.511.013-.766.009-.445-.018-.879-.058-1.319-.115-.459-.077-.918-.171-1.366-.289-.477-.153-.948-.324-1.407-.513a19.267,19.267,0,0,1-2.12-1.077,30.2,30.2,0,0,1-2.9-2.055c-.206-.168-.4-.348-.6-.521q.434-.486.868-.981l.064-.036a10.508,10.508,0,0,0,2.6-2.462c.33-.382.66-.759.99-1.136q.938-1.08,1.881-2.151c.189.164.373.333.563.5.842.73,1.7,1.449,2.549,2.167.424.359.854.719,1.278,1.078.66.56,1.343,1.1,1.955,1.708.141.159.277.317.418.471a1.654,1.654,0,0,0,1.248.577,1.541,1.541,0,0,0,1-.366,1.6,1.6,0,0,0,.212-2.243c-.318-.362-.65-.7-1-1.024q-.63-.837-1.294-1.645a1.106,1.106,0,0,0-.123-.287,12.9,12.9,0,0,0-1.354-1.737c-.3-.307-.613-.6-.929-.887q-.747-.913-1.492-1.829c.284-.333.571-.661.854-.993,1.19-1.4,2.367-2.8,3.551-4.2.459-.554.918-1.107,1.378-1.667.388-.459.771-.924,1.154-1.389.412-.5.785-1.039,1.163-1.572.2.432.388.868.558,1.314A23.2,23.2,0,0,1,132.556,78.792Zm-26.121.315a23.484,23.484,0,0,1,.536-2.441,22.006,22.006,0,0,1,.9-2.49A21.556,21.556,0,0,1,108.9,72.2c.318-.512.648-1.012,1-1.507.365-.324.742-.631,1.131-.93.483-.336.977-.648,1.489-.937q.77-.389,1.555-.707c.483-.17.966-.318,1.454-.447h0a16.789,16.789,0,0,1,1.8-.306c.546-.045,1.092-.065,1.642-.059q.858.028,1.7.141a18.192,18.192,0,0,1,2.026.442,20.124,20.124,0,0,1,1.955.706c.541.259,1.077.53,1.6.836a19.506,19.506,0,0,1,1.637,1.143c.144.117.271.251.41.372a1.4,1.4,0,0,0-.942.728,1.322,1.322,0,0,0-.153.606c-.011.03-.023.054-.035.083a4.467,4.467,0,0,1-.212.407,27.7,27.7,0,0,1-1.843,2.6c-.4.377-.8.759-1.172,1.16l-1.778,1.885c-.743.787-1.476,1.589-2.211,2.388-1.2-1.536-2.412-3.062-3.566-4.638l0,.006c-.376-.516-.722-1.056-1.074-1.589-.306-.448-.606-.895-.871-1.367-.018-.041-.041-.077-.059-.117a1.308,1.308,0,0,0,.595-.813,1.277,1.277,0,0,0-.966-1.5,2.428,2.428,0,0,0-.677-.111c-.177.017-.347.035-.518.064a1.272,1.272,0,0,0-1.043,1.131c-.005.041-.011.077-.017.118a1.664,1.664,0,0,0-1.614.465,1.623,1.623,0,0,0,.095,2.261c.235.235.477.471.712.719l.045.047a1.318,1.318,0,0,0-.476,1.365,1.517,1.517,0,0,0,.141,1.3c.395.66.754,1.331,1.195,1.956a20.14,20.14,0,0,0,1.52,1.849c.932,1.01,1.9,1.981,2.9,2.928q-.57.633-1.133,1.27c-.619.712-1.237,1.425-1.826,2.161a25.89,25.89,0,0,0-1.489,2.143,1.574,1.574,0,0,0-.165,1.413c-.19.213-.377.428-.565.643-.468-.533-.923-1.078-1.347-1.648a26.651,26.651,0,0,1-1.668-2.65l.007.018c-.015-.027-.03-.055-.045-.085l0,0h0l-.024-.049-.006-.007h0v0l0-.007c-.286-.568-.556-1.142-.79-1.734-.235-.653-.442-1.324-.612-2a18.335,18.335,0,0,1-.307-1.808c-.035-.388-.053-.777-.058-1.177A16.382,16.382,0,0,1,106.435,79.107Z"/><path d="M171.806,93.907a19.9,19.9,0,0,0,1.219,1.843,19.4,19.4,0,0,0,1.295,2.084,31.955,31.955,0,0,0,5.565,5.895,22.022,22.022,0,0,0,3.238,2.308,12.141,12.141,0,0,0,3.3,1.372,12.889,12.889,0,0,0,4.051.218,13.824,13.824,0,0,0,3.7-.954,17.325,17.325,0,0,0,5.176-3.227,17.759,17.759,0,0,0,9.033-11.259,14.961,14.961,0,0,0-.065-7.478,21.168,21.168,0,0,0-3.451-6.889,25.29,25.29,0,0,0-12.483-9.2,18.522,18.522,0,0,0-7.684-.866c-.254.03-.513.071-.766.112-.689-.3-1.378-.589-2.073-.877.083.035.165.071.242.106-.536-.236-1.095-.418-1.649-.625a2.045,2.045,0,0,0-2.585,1.219,2.019,2.019,0,0,0,.589,2.191c-.189.118-.371.241-.548.371a18.746,18.746,0,0,0-5.082,5.352,20.394,20.394,0,0,0-2.8,7.125,16.825,16.825,0,0,0,.289,7.561A15.723,15.723,0,0,0,171.806,93.907Zm6.607-3.78a20.133,20.133,0,0,1-.1-2.088,21.707,21.707,0,0,1,.187-2.276c.1-.668.241-1.331.41-1.985.094-.327.2-.647.309-.963l.011.013c.336.406.671.813,1.007,1.213.065.083.136.165.206.247v.042a2.576,2.576,0,0,0,.371,1.148,11.384,11.384,0,0,0,1.8,1.967c-.053-.06-.106-.112-.153-.166.71.756,1.457,1.472,2.215,2.179l-.421.341c-.6.484-1.2.984-1.778,1.49-.554.483-1.113.966-1.631,1.49-.454.46-.872.948-1.307,1.419l-.006.009q-.195-.436-.37-.883c-.171-.489-.312-.984-.442-1.484C178.583,91.269,178.489,90.7,178.413,90.127Zm22.776.146c-.188.595-.394,1.178-.636,1.75a18.213,18.213,0,0,1-.889,1.7,20.447,20.447,0,0,1-1.19,1.689c-.465.554-.948,1.089-1.466,1.6a15.981,15.981,0,0,1-1.372,1.149,15.418,15.418,0,0,1-1.6.994l.082-.035c-.035.018-.071.029-.106.047l-.044.028c-.447.22-.9.429-1.363.614-.56.194-1.119.365-1.69.507a14.445,14.445,0,0,1-1.5.258c-.418.036-.83.06-1.248.06-.377-.024-.76-.06-1.131-.112-.482-.086-.963-.2-1.441-.322-.061-.02-.123-.04-.184-.055-.324-.16-.642-.318-.954-.5-.23-.141-.452-.289-.674-.438l.031-.019a6.947,6.947,0,0,0,1.4-1.3c.577-.618,1.195-1.2,1.778-1.813.354-.371.7-.742,1.054-1.107.3-.314.6-.63.907-.944q.371.392.742.782l0,0,0,0,.025.026a.254.254,0,0,0-.02-.023.13.13,0,0,1,.032.034c.059.059.118.124.177.183a17.835,17.835,0,0,0,1.537,1.537c.506.418,1.042.783,1.566,1.16a1.38,1.38,0,0,0,.807.259,1.562,1.562,0,0,0,1.331-.789A2.12,2.12,0,0,0,195.52,96a2.083,2.083,0,0,0-.106-.566,1.751,1.751,0,0,0-.678-1.713c-.282-.22-.564-.441-.842-.664-.37-.305-.736-.609-1.113-.9-.188-.16-.382-.318-.577-.483-.167-.174-.337-.346-.5-.519q.713-.751,1.421-1.5c.919-.972,1.808-1.973,2.768-2.9a9.122,9.122,0,0,0,1.837-2.1,2.945,2.945,0,0,0,.441-1.2,4.234,4.234,0,0,0-.094-1.16l-.008-.046c.416.478.822.965,1.2,1.474.294.418.565.848.818,1.289.2.383.377.766.542,1.167.171.482.318.971.447,1.471.1.46.177.919.242,1.384.012.2.029.395.035.589C201.3,89.838,201.248,90.056,201.189,90.273ZM182.376,77.908c.251-.218.5-.424.777-.621a11.26,11.26,0,0,1,1.054-.651c.392-.2.784-.38,1.186-.543a.15.15,0,0,0,.05-.023c.042-.011.077-.029.118-.04l-.088.035c.318-.112.63-.212.954-.3.276-.052.553-.1.83-.135a18.037,18.037,0,0,1,1.846-.069c.144,0,.283.011.427.022h.006c.029.017.065.041.1.059.009,0,.014.012.021.017h0a58.269,58.269,0,0,1,5.664,3.911c.223.18.433.372.648.56-.168.116-.342.22-.507.337-1.649,1.184-3.18,2.5-4.717,3.822-.9.777-1.819,1.542-2.7,2.349l-.393.359c-.182-.182-.359-.37-.541-.553-.483-.494-.966-.994-1.449-1.489-.753-.784-1.554-1.514-2.367-2.244a1.575,1.575,0,0,0-.93-.418c-.071-.082-.136-.165-.2-.241-.4-.483-.8-.96-1.2-1.437-.134-.166-.271-.328-.407-.49.24-.36.479-.722.748-1.062A15.16,15.16,0,0,1,182.376,77.908ZM174.986,85c.088-.517.2-1.024.335-1.53v0c.153-.494.33-.977.524-1.454.23-.5.483-.984.76-1.461.109-.165.23-.321.343-.483a1.544,1.544,0,0,0,.161.306,12.985,12.985,0,0,0-.563,1.285,19.853,19.853,0,0,0-.96,9.568c-.147-.441-.271-.883-.383-1.336-.121-.557-.214-1.126-.285-1.694-.045-.543-.062-1.079-.062-1.621C174.874,86.057,174.921,85.534,174.986,85Z"/><path d="M136.15,120.092a2.042,2.042,0,0,0-1.178,1.914v.218a1.567,1.567,0,0,0-1.319.336,1.741,1.741,0,0,0-.565.959,1.6,1.6,0,0,0-1.578.631,1.548,1.548,0,0,0,.377,2.119q2.57,2.014,5.146,4.016,1.357,1.049,2.735,2.07c-1.014.707-2.03,1.417-3,2.19s-1.861,1.631-2.785,2.455a1.773,1.773,0,0,0-.619,1.661,2.521,2.521,0,0,0,.978,1.543,2.177,2.177,0,0,0,.612.3,1.53,1.53,0,0,0,.448.165,9.04,9.04,0,0,0,1.76.283c.065,0,.13,0,.195-.006a5.687,5.687,0,0,0,1.884-.524,31.555,31.555,0,0,0,3.8-2.244c.942-.584,1.881-1.165,2.813-1.756.228.137.45.283.679.417.312.3.63.6.954.9,1.307,1.178,2.6,2.379,3.969,3.474-.071-.053-.135-.106-.206-.159.848.677,1.69,1.361,2.555,2.014a1.894,1.894,0,0,0,2.621-.471,1.4,1.4,0,0,0,.159-.277l.129.036a3.07,3.07,0,0,0,.4.046c.253.119.506.236.759.354.813.365,1.655.63,2.5.919a1.605,1.605,0,0,0,.5.076,1.5,1.5,0,0,0,1.425-.983,2.344,2.344,0,0,0,.147-1.472,2.982,2.982,0,0,0-.877-1.3,17.175,17.175,0,0,0-2.856-1.755c-.071-.046-.13-.088-.206-.129-1-.642-1.991-1.29-2.986-1.932q-1.845-1.625-3.68-3.25c-.111-.1-.219-.2-.33-.3.926-.653,1.849-1.307,2.779-1.958,1.107-.778,2.232-1.543,3.327-2.344.025-.015.049-.034.071-.05l.023-.015c0-.006.006-.006.012-.012h0l0,.007a1.423,1.423,0,0,1,.153-.111c-.029.017-.059.04-.094.058l.3-.212c-.029.024-.059.042-.088.065.1-.071.2-.147.3-.218.065-.043.126-.092.186-.136-.013.01-.026.022-.039.03.042-.029.089-.064.13-.094l.023-.018c.047-.033.094-.066.141-.1.139-.1.279-.2.423-.309l-.016.011.035-.025.024-.017-.01.007c.294-.207.587-.419.876-.632-.012.012-.024.018-.036.03l.071-.053c.035-.023.071-.053.106-.077-.024.018-.047.03-.071.048l.177-.124h0a.524.524,0,0,0,.061-.047l.037-.025c.329-.235.658-.477.987-.711l-.047.029c.089-.059.171-.123.259-.183l-.022.013c.034-.027.072-.049.111-.077a.244.244,0,0,1,.053-.041c.062-.043.12-.086.178-.13l0,0,.021-.015-.008,0a.314.314,0,0,0,.035-.024c.034-.028.073-.055.113-.084l.093-.064.242-.181c.023-.014.046-.03.069-.046l-.063.046c.122-.085.239-.174.36-.26h0l.059-.041.006-.006c0-.006.017-.012.023-.018.041-.028.079-.058.118-.087s.084-.062.128-.093l0,0,.021-.015,0,0,.024-.017h0c.563-.4,1.127-.8,1.691-1.2.471-.277.936-.554,1.407-.83a1.476,1.476,0,0,0,.6-.683c.789-.648,1.537-1.332,2.3-2a1.7,1.7,0,0,0-.306-2.785c-.059-.035-.124-.07-.188-.1a2.843,2.843,0,0,0-1.543-.5,6.059,6.059,0,0,0-1.908.395,25.507,25.507,0,0,0-3.462,1.866c-3.092,1.614-6.124,3.34-9.051,5.218q-2.967,1.907-5.942,3.8c-.156.1-.3.211-.46.314l-2.854-2.684c-.56-.536-1.125-1.071-1.684-1.607-.483-.46-.966-.919-1.443-1.379-.624-.594-1.307-1.13-1.966-1.69A2.063,2.063,0,0,0,136.15,120.092Z"/><path d="M160.433,126.278l-.033.022h0Z"/><path d="M82.881,154.382l.022,0,.01,0Z"/><path d="M206.79,165.593l.045.013c.061.018.124.032.185.051C206.943,165.634,206.866,165.611,206.79,165.593Z"/><path d="M14.266,231.422h0l-.04-.011C14.242,231.417,14.254,231.417,14.266,231.422Z"/><path d="M84.133,276.066v-.007c-.006-.053-.012-.1-.017-.157C84.121,275.954,84.127,276.014,84.133,276.066Z"/><polygon points="94.04 402.766 94.038 402.77 94.037 402.772 94.04 402.766"/><polygon points="50.504 430.063 50.504 430.063 50.511 430.066 50.504 430.063"/><path d="M70.718,421.542l-.035.026c-.05.036-.1.074-.148.109C70.594,421.631,70.659,421.589,70.718,421.542Z"/><path d="M81.765,410.5l-.016.018c-.041.053-.084.105-.126.158C81.67,410.619,81.717,410.56,81.765,410.5Z"/><path d="M125.965,245.272a1.227,1.227,0,0,0,.283-2.426c-.954-.165-1.908-.335-2.862-.477h.006c-.53-.088-1.077-.147-1.613-.182a5.972,5.972,0,0,0-1.343.006,1.53,1.53,0,0,0-1.4,1.118,1.232,1.232,0,0,0,.93,1.449,1.265,1.265,0,0,0,.93-.171c.077-.006.153-.006.23-.006.6.035,1.195.095,1.79.177.936.159,1.873.318,2.809.489A1.126,1.126,0,0,0,125.965,245.272Z"/><path d="M184.67,246.744c-.524.048-1.048.088-1.572.148l-.171.017-.282.036-.389.035-.294.035c-.189.018-.377.036-.566.059l.177-.017c-.375.038-.749.088-1.123.134.489-1.949.958-3.908,1.3-5.888.41.03.82.055,1.233.065h.053a1.249,1.249,0,0,0,.948-.388,1.214,1.214,0,0,0-.943-2.032c-.188-.006-.376-.006-.559-.012h.006c-.129,0-.257-.021-.386-.028.034-.268.066-.535.1-.8.041-.359.035-.73.053-1.089.023-.419.064-.848.058-1.267-.011-.471-.017-.948-.023-1.419-.018-.771-.083-1.542-.13-2.313-.035-.483-.118-.967-.176-1.449a14.824,14.824,0,0,0-.436-2.191,8.008,8.008,0,0,0-3.121-4.911,13.854,13.854,0,0,0-5.894-1.837,29.93,29.93,0,0,0-5.671-.035c-.854.071-1.713.123-2.561.212a.138.138,0,0,0,.025,0l-1.627.167c.022-.227.055-.453.075-.681.136-1.572.242-3.15.342-4.722.047-.789.088-1.578.135-2.367.036-.63.118-1.26.177-1.9.071-.412.141-.831.224-1.248a1.239,1.239,0,0,0-2.42-.531c-.094.454-.165.908-.242,1.367-.07.435-.088.889-.135,1.331-.077.83-.118,1.66-.165,2.49-.077,1.39-.153,2.78-.277,4.163-.073.784-.165,1.565-.246,2.347-1.873.173-3.75.308-5.629.356-.208,0-.416,0-.624.007.2-1.628.387-3.261.574-4.894.2-1.735.33-3.488.582-5.224l0,.007a.023.023,0,0,0,.006-.018l.018-.141a.65.65,0,0,1-.012.106c.059-.318.124-.631.2-.942v.011a1.259,1.259,0,1,0-2.426-.66,24,24,0,0,0-.583,4.052c-.07.719-.141,1.437-.223,2.155-.2,1.737-.4,3.474-.613,5.211-.015.123-.03.245-.046.368-1.582.007-3.165,0-4.751-.032h.036c-.118,0-.23,0-.348-.006a.048.048,0,0,0,.023,0l-.576-.017a.041.041,0,0,0,.02.006c-1.2-.029-2.4-.064-3.595-.029a17.512,17.512,0,0,0-2.832.223,6.124,6.124,0,0,0-1.537.448,5.846,5.846,0,0,0-1.172.719,12.216,12.216,0,0,0-1.99,2.095c-2.049,2.7-3.2,5.936-4.322,9.1-.161.455-.308.912-.456,1.37-.27.027-.541.043-.812.072.042,0,.089-.006.124-.006-.877.077-1.76.2-2.626.359a18.141,18.141,0,0,0-2.732.666A6.282,6.282,0,0,0,121.7,238.7a2.8,2.8,0,0,0-.659.825,2.961,2.961,0,0,0-.2.636,1.3,1.3,0,0,0,.984,1.537,1.4,1.4,0,0,0,.265.029,1.3,1.3,0,0,0,1.272-1.012.3.3,0,0,0,.011-.065.462.462,0,0,1,.053-.042c.083-.058.177-.117.266-.17a7.505,7.505,0,0,1,.706-.324,13.389,13.389,0,0,1,1.437-.424c1.069-.23,2.144-.387,3.222-.516-.058.2-.124.409-.176.616-.389,1.513-.795,3.015-1.131,4.54-.394,1.8-.771,3.592-1.13,5.4q-.47,2.429-.919,4.851-.963,5.142-1.884,10.288a1.274,1.274,0,1,0,2.49.541c.33-1.813.666-3.621,1-5.435.6-3.232,1.183-6.471,1.819-9.7.353-1.809.73-3.6,1.131-5.406.329-1.5.736-3,1.118-4.487l.177-.583c-.165,1.319-.318,2.632-.477,3.951-.177,1.472-.4,2.932-.594,4.393v-.012c-.383,2.355-.772,4.711-1.249,7.049-.153.759-.312,1.519-.471,2.278a25.146,25.146,0,0,0-.671,3.91,5.788,5.788,0,0,0,1.172,3.734,9.782,9.782,0,0,0,3.5,2.643,46.482,46.482,0,0,0,8.945,2.8c.609.151,1.223.257,1.841.368-.171.835-.344,1.669-.5,2.506a1.319,1.319,0,0,0,1,1.555,1.035,1.035,0,0,0,.265.029,1.306,1.306,0,0,0,1.289-1.025c.163-.877.339-1.749.514-2.622.986.114,1.971.229,2.951.355.825.1,1.673.124,2.5.183l.207.012c-.324,1.354-.637,2.711-.928,4.074a1.376,1.376,0,0,0,1.042,1.62,1.6,1.6,0,0,0,.283.029,1.38,1.38,0,0,0,1.342-1.071c.317-1.5.662-3,1.018-4.493.58.029,1.161.057,1.741.088,1.56.082,3.121.153,4.681.271q1.3.1,2.609.212c.389.035.777.076,1.166.112.436.041.883.076,1.33.076a5.218,5.218,0,0,0,1.567-.212,7.212,7.212,0,0,0,2.65-1.49,13.729,13.729,0,0,0,2.043-2.278,32.553,32.553,0,0,0,3.28-6c.547-1.254,1.018-2.526,1.46-3.816.289-.841.613-1.683.854-2.537,0,.011-.006.017-.006.029q.956-3.238,1.821-6.51c.649-.083,1.3-.174,1.944-.25.088-.006.171-.012.253-.024l1.4-.141c.035-.006.071-.006.106-.011-.03,0-.059,0-.088.011.482-.047.965-.088,1.448-.13a1.364,1.364,0,0,0-.112-2.726Zm-9.306,9.045v-.012c-.283.831-.565,1.667-.848,2.5-.4,1.174-.839,2.326-1.324,3.466a36.813,36.813,0,0,1-2.078,4.105c-.4.644-.814,1.278-1.279,1.886a14.15,14.15,0,0,1-1.09,1.195c-.176.159-.353.306-.541.453-.159.112-.324.218-.489.324-.183.089-.365.171-.548.253a4.033,4.033,0,0,1-.435.136c-.065.018-.13.023-.189.035-.277.024-.553.036-.83.036-1.013-.071-2.014-.195-3.015-.283-.73-.065-1.46-.118-2.2-.165q-2.519-.159-5.047-.288c-.1,0-.192-.013-.288-.018q.885-3.5,1.875-6.966c.318-1.083.63-2.173.948-3.262a1.386,1.386,0,0,0-.824-1.743,1.361,1.361,0,0,0-1.743.824c-.047.135-.082.283-.124.418-.031.11-.065.222-.1.334l0-.016c-.053.195-.112.389-.165.583a.6.6,0,0,0-.017.065l0,.009,0,0-.008.019v-.009a.5.5,0,0,0-.018.062l.007-.019v0l-.01.029,0,.014v-.006c-.006.024-.012.053-.018.076v-.011c-.182.642-.376,1.29-.553,1.937,0-.012.006-.03.006-.041q-.927,3.18-1.726,6.395c-.1.381-.187.764-.282,1.146-.541-.034-1.081-.057-1.623-.1-.712-.053-1.425-.106-2.137-.194l-2.007-.243c.122-.582.242-1.165.367-1.748.453-2.1.866-4.228,1.425-6.312.012-.035.018-.065.03-.1a1.3,1.3,0,1,0-2.5-.719c-.282,1.007-.506,2.038-.724,3.057-.254,1.177-.507,2.349-.754,3.526q-.2.931-.4,1.864c-.468-.084-.947-.154-1.408-.268-1.337-.324-2.673-.635-4-1.006h.007c-.024-.009-.049-.015-.078-.024l-.07-.018h.017a36.929,36.929,0,0,1-4.075-1.395c-.541-.254-1.071-.519-1.584-.825a6.824,6.824,0,0,1-.671-.471c-.2-.176-.386-.355-.573-.543-.093-.1-.179-.206-.269-.316-.053-.071-.1-.154-.153-.236-.076-.153-.153-.312-.218-.471-.035-.106-.07-.212-.1-.324-.041-.188-.076-.382-.106-.577-.006-.088-.006-.177-.006-.265.022-.455.092-.909.159-1.358.16-.966.412-1.921.607-2.881.118-.572.241-1.137.347-1.708.312-1.673.624-3.339.9-5.011.3-1.8.554-3.592.8-5.394.229-1.637.412-3.286.606-4.935.062-.5.132-1,.2-1.5q.964-.042,1.932-.055a1.3,1.3,0,1,0-.106-2.591c-.5.007-.992.045-1.488.064.018-.135.036-.271.053-.406a38.674,38.674,0,0,1,.766-3.851V231.9c.017-.052.029-.111.047-.164-.006.017-.006.041-.012.058a19.974,19.974,0,0,1,.642-1.908q.186-.414.406-.812c.13-.206.271-.406.412-.595.142-.171.289-.329.442-.482.082-.071.165-.142.253-.207.059-.041.118-.076.177-.111.094-.042.182-.083.277-.124.171-.063.348-.115.52-.166l.027,0c.083-.018.165-.03.242-.041.483-.035.971-.041,1.448-.035-.026,0-.052,0-.081,0,1.044.03,2.088.093,3.132.14.883.041,1.772.094,2.655.094H146c1.6.04,3.192.029,4.79-.009-.2,1.792-.369,3.586-.464,5.385a1.279,1.279,0,0,0,1.149,1.372.617.617,0,0,0,.1.006,1.265,1.265,0,0,0,1.267-1.154c.1-1.907.276-3.8.486-5.7q1.41-.064,2.819-.155c1.151-.076,2.307-.148,3.458-.243-.107.752-.218,1.5-.326,2.257v-.012a.049.049,0,0,1-.006.029l-.012.088v0c-.071.43-.135.866-.206,1.3a1.278,1.278,0,0,0,.96,1.5,1.224,1.224,0,0,0,.247.029,1.251,1.251,0,0,0,1.248-.989q.342-2.2.632-4.414l1.342-.126c.848-.082,1.7-.212,2.55-.323.8-.1,1.595-.242,2.4-.371.613-.1,1.219-.219,1.826-.365a5.664,5.664,0,0,0,2.031-.778,1.089,1.089,0,0,0,.354-.477c.161.017.323.04.479.063l0,0c.541.094,1.082.206,1.611.341l.021.007c.017.006.035.006.047.011l-.009,0c.409.127.818.266,1.216.427.271.13.542.265.806.413.154.1.3.2.448.305.153.13.3.26.43.4.071.076.135.159.2.242.112.17.224.353.336.535.141.3.271.589.394.884a13.745,13.745,0,0,1,.474,1.5l0-.026.014.051c.006.036.018.071.024.106-.006-.029-.012-.052-.018-.076.188.872.294,1.749.406,2.638.036.565.1,1.137.112,1.708.012.641.024,1.289.036,1.931-.018.371-.036.736-.059,1.107-.012.312-.006.636-.047.942q-.046.368-.091.736c-.778-.138-1.555-.278-2.333-.394h.006a.044.044,0,0,0-.023-.006l-.13-.018h.024c-.236-.035-.465-.07-.7-.112l0,0c-.221-.04-.449-.075-.671-.1-.052-.011-.1-.017-.147-.023a1.244,1.244,0,0,0-1.271.557l-.795-.057c-.936-.071-1.878-.135-2.809-.265-.453-.077-.9-.171-1.348-.294.018,0,.029.011.047.017a1.585,1.585,0,0,0-.159-.046,1.2,1.2,0,0,0-1.425.912,1.209,1.209,0,0,0,.913,1.425,21.455,21.455,0,0,0,4.151.607c1.243.094,2.479.194,3.716.288.029,0,.065.006.094.006a1.209,1.209,0,0,0,.889-.408c.54.094,1.081.185,1.623.269-.107.614-.215,1.228-.355,1.835-.235,1.024-.459,2.055-.712,3.074q-.212.845-.424,1.691c-1.262.183-2.525.367-3.795.5-.825.076-1.661.147-2.491.153-.412-.012-.824-.046-1.23-.1l0,0-.008,0-.015,0h-.006l-.136-.017a.635.635,0,0,1,.106.011c-.147-.029-.294-.059-.442-.094-.058-.023-.123-.041-.182-.065-.041-.024-.083-.041-.124-.064a.076.076,0,0,1-.023-.018,1.345,1.345,0,0,0-1.761,2.031,4.076,4.076,0,0,0,2.02.842,9.9,9.9,0,0,0,1.872.16c.324,0,.642-.012.96-.03,1.518-.095,3.016-.3,4.522-.507-.164.617-.321,1.236-.5,1.849.012-.052.03-.106.041-.165C176.088,253.3,175.717,254.541,175.364,255.789Z"/><path d="M276.083,114.452a15.308,15.308,0,0,0-2.385-6.725,20.745,20.745,0,0,0-4.852-5.382,14.749,14.749,0,0,0-6.33-2.909,12.805,12.805,0,0,0-3.7-.023,11.933,11.933,0,0,0-3.274.883,13.847,13.847,0,0,0-3.174,1.943,14.114,14.114,0,0,0-2.344,2.532,23.768,23.768,0,0,0-3.174,6.423l-.058.16a1.986,1.986,0,0,0,.5,2.148,17.926,17.926,0,0,0,1.327,4.575,11.794,11.794,0,0,0,.889,1.7,13.8,13.8,0,0,0,3.186,3.627c.21.159.432.307.651.457-.013.02-.032.032-.044.052a20.215,20.215,0,0,0-1.343,3.056c-.33.83-.665,1.654-1,2.485q-.627,1.563-1.243,3.132c-1.036,2.638-2.09,5.264-3.132,7.9-1.2,3.044-2.509,6.041-3.822,9.038q-1.915,4.347-3.945,8.65c-1.443,3.051-2.9,6.1-4.357,9.145q-1.088,2.269-2.156,4.534c-.38.819-.755,1.639-1.1,2.471-.1-.043-.193-.094-.292-.135-1.767-.742-3.539-1.466-5.306-2.214.036.017.071.029.106.047-.653-.276-1.33-.507-1.99-.759-1-.377-2-.766-3-1.137-1.513-.565-3.044-1.084-4.569-1.614-3.071-1.078-6.189-2.015-9.318-2.907-.591-.177-1.2-.317-1.788-.466-.724-.189-1.449-.389-2.179-.571-1.072-.3-2.167-.536-3.244-.807-.913-.23-1.826-.454-2.733-.677-1.089-.271-2.172-.543-3.256-.8-.506-.123-1.007-.241-1.513-.353-.247-.059-.5-.115-.744-.171-.306-.981-.632-1.955-1-2.913.018.036.03.077.047.118-.023-.071-.053-.142-.076-.206a1.7,1.7,0,0,0-1.437-1.16,1.679,1.679,0,0,0-.417.027,59.627,59.627,0,0,0,6.057-4.911,74.021,74.021,0,0,0,10.876-12.543,79.334,79.334,0,0,0,12.525-30.7,90.955,90.955,0,0,0-.453-34.253c-.583-2.832-1.261-5.647-2.061-8.426-.466-1.632-.925-3.268-1.472-4.87l-2.474-7.314c-.229-.671-.429-1.354-.695-2.007-.294-.742-.576-1.49-.871-2.232-.807-2.061-1.59-4.14-2.42-6.189.035.094.07.188.106.283-.277-.736-.607-1.455-.913-2.179q-.75-1.749-1.5-3.51a72.007,72.007,0,0,0-5.371-10.192,57.285,57.285,0,0,0-9.539-11.694A61.207,61.207,0,0,0,178.2,8.371a81.826,81.826,0,0,0-7.4-3.575,44.729,44.729,0,0,0-7.867-2.614c-1.077-.234-2.167-.428-3.261-.6-.535-.138-1.072-.269-1.6-.406a52.936,52.936,0,0,0-5.665-.954A24.158,24.158,0,0,0,145.994.2a30.422,30.422,0,0,0-7,1.98c-.967.159-1.929.344-2.881.576l.031-.01-.084.022a2.185,2.185,0,0,0-1.367.865,2.085,2.085,0,0,0-.281.612q-1.83.917-3.6,1.937c-1.231.713-2.449,1.444-3.651,2.209-.995.63-2.019,1.254-2.95,1.967-1.03.742-2.037,1.519-3.05,2.273-.236.176-.471.353-.712.529a52.032,52.032,0,0,0-10.476,5.088,69.613,69.613,0,0,0-12.142,9.834,74.465,74.465,0,0,0-9.952,12.354c-.724,1.131-1.424,2.272-2.1,3.433-.265.453-.535.9-.777,1.372-.524,1.007-1.054,2.013-1.578,3.026-.694,1.325-1.4,2.642-2.037,4q-1.739,2.827-3.2,5.82a96.41,96.41,0,0,0-4.31,10.358A120.449,120.449,0,0,0,69.3,84.561a52.12,52.12,0,0,0-.919,7.149c-.012.059-.018.117-.03.182a51.012,51.012,0,0,0,5.506,32.239c.548,1,1.131,1.979,1.731,2.95q1.29,2.924,2.744,5.759a80.234,80.234,0,0,0,8.745,13.768,59.28,59.28,0,0,0,5.622,6.079c-.745.093-1.492.184-2.235.281l-.488.071a18.142,18.142,0,0,0-2.538-2.58,15.776,15.776,0,0,0-6.778-3.262,22.429,22.429,0,0,0-7.678-.212,39.9,39.9,0,0,0-15.063,5.747,76.049,76.049,0,0,0-7.4,5.2c-1.6.789-3.15,1.666-4.658,2.6a72.131,72.131,0,0,0-6.706,4.687c-1.119.883-2.209,1.79-3.292,2.708-.548.46-1.1.907-1.625,1.39-.8.736-1.6,1.467-2.391,2.2-1.39,1.283-2.814,2.526-4.145,3.874a85.093,85.093,0,0,0-6.089,6.536,93.666,93.666,0,0,0-5.847,8.6c-1.137,1.808-2.285,3.6-3.421,5.406Q8.713,201.7,5.113,207.489a1.868,1.868,0,0,0,.459,2.562,1.732,1.732,0,0,0,.536.253c-.041.1-.089.2-.13.3-.336.766-.671,1.537-1.013,2.3-.482,1.089-.889,2.225-1.3,3.344-.465,1.249-.907,2.514-1.295,3.792a57.178,57.178,0,0,0-1.938,8.173,36.27,36.27,0,0,0-.388,4.3c-.041,1.325-.071,2.649,0,3.974.047.878.123,1.75.212,2.627-.047.394-.083.795-.112,1.189a20.24,20.24,0,0,0-.018,3.733,18.293,18.293,0,0,0,2.267,7.2,19.628,19.628,0,0,0,4.782,5.677,14.225,14.225,0,0,0,6.536,2.832,14.812,14.812,0,0,0,2.326.183c.477,0,.959-.024,1.442-.071a20.633,20.633,0,0,0,3.634-.712,33.664,33.664,0,0,0,7.531-3.186c.718-.418,1.436-.842,2.143-1.284q.5-.22,1.007-.459a54.307,54.307,0,0,0,6.978-3.952c2.226-1.5,4.4-3.1,6.477-4.786,1.1-.9,2.191-1.826,3.256-2.769.5-.435.99-.871,1.478-1.313.354-.311.725-.617,1.06-.954.047-.04.089-.082.136-.129l-.019.015c2.192-2.076,4.368-4.181,6.537-6.286a.514.514,0,0,0-.059.053l.065-.062-.006,0c.448-.424.86-.877,1.29-1.319.657-.672,1.321-1.339,1.982-2.011-.271,1.364-.535,2.721-.8,4.085-.118.618-.271,1.243-.353,1.867-.289,2.231-.589,4.464-.883,6.695q-.2,1.467-.389,2.933c-.065.483-.077.971-.118,1.454q-.282,3.9-.571,7.779c-.118,1.6-.1,3.2-.135,4.792-.048,2.468-.13,4.929-.089,7.391.048,2.885.165,5.759.407,8.632a69.206,69.206,0,0,0,1.113,8.327,48.433,48.433,0,0,0,2.172,7.689,45.47,45.47,0,0,0,3.533,7.261c.183.3.366.589.548.878.324.594.66,1.177,1,1.76a43.02,43.02,0,0,0,4.917,6.731c.7.778,1.433,1.524,2.183,2.252a1.211,1.211,0,0,0-1.378.287c-.511.622-1.045,1.233-1.556,1.855h0c-.753.93-1.548,1.849-2.266,2.815l-1.248,1.673c1.1-2.184,2.224-4.35,3.455-6.467a1.379,1.379,0,0,0-.262-1.611,1.625,1.625,0,0,0-1.039-1.451,1.571,1.571,0,0,0-1.908.754c-.429.948-.924,1.861-1.383,2.791-.424.854-.848,1.714-1.249,2.574-.912,1.948-1.819,3.892-2.714,5.847q-2.006,4.389-4.1,8.738c-.777,1.625-1.548,3.251-2.332,4.87-.771,1.6-1.483,3.227-2.225,4.84-.607,1.319-1.142,2.656-1.69,3.993-.436,1.054-.866,2.1-1.3,3.155-.147.36-.294.707-.418,1.078-.489,1.454-.983,2.915-1.478,4.369-.606,1.4-1.213,2.8-1.819,4.193.017-.041.029-.076.047-.118-.065.159-.136.312-.2.459.011-.017.017-.041.029-.058-.024.052-.047.106-.071.158-.035.083-.07.16-.106.242.024-.053.048-.106.071-.159l-.106.247v-.011c-.306.706-.565,1.437-.836,2.155q-1.21,3.1-2.414,6.194c-.436,1.125-.813,2.273-1.207,3.416q-.981,2.808-1.956,5.617c-.624,1.8-1.159,3.639-1.684,5.47q-1,3.482-1.719,7.037a83.612,83.612,0,0,0-1.678,14.527,64.916,64.916,0,0,0,.2,7.26,48.4,48.4,0,0,0,1.019,6.949,38.07,38.07,0,0,0,1.5,4.993,17.13,17.13,0,0,0,2.1,4.2,21.882,21.882,0,0,0,1.971,2.726,20.585,20.585,0,0,0,10.917,6.942,17.823,17.823,0,0,0,3.486.454c.13,0,.265,0,.395,0a19.846,19.846,0,0,0,2.709-.194,25.519,25.519,0,0,0,6.418-1.878,38.351,38.351,0,0,0,6.112-3.315,48.03,48.03,0,0,0,5.394-4.111c6.99-6.213,12.293-13.984,17.048-21.975.274-.467.525-.952.782-1.425.571-1.036,1.143-2.078,1.714-3.115.877-1.6,1.79-3.174,2.632-4.787-.036.053-.065.111-.1.165a8.879,8.879,0,0,0,.441-.884c.3-.63.595-1.254.889-1.884.748-1.578,1.49-3.15,2.238-4.723.312-.659.636-1.319.913-2,.6-1.46,1.207-2.915,1.807-4.375.513-1.237,1.043-2.461,1.5-3.721q1.025-2.827,2.043-5.659c.189-.518.318-1.054.471-1.584.33-1.113.654-2.232.984-3.345.412-1.422.74-2.865,1.075-4.3l.09-.206c-.024.059-.047.112-.071.17.124-.294.253-.588.383-.882-.007.017-.016.034-.025.051.047-.1.089-.2.131-.305v.006c.141-.348.265-.707.4-1.066.336-.883.672-1.772,1-2.661.236-.642.477-1.278.719-1.914.135-.371.235-.76.347-1.143.336-1.118.671-2.243,1.013-3.362.147-.5.306-1,.418-1.5q.372-1.6.742-3.21c.141-.6.306-1.207.418-1.819.177-.948.353-1.9.536-2.844.147-.777.318-1.561.436-2.344.253-1.637.489-3.28.724-4.911l0,0,.016-.1c0-.018,0-.035,0-.053v.012c.142-.972.213-1.955.319-2.933.067-.592.116-1.183.167-1.774.642-.023,1.284-.056,1.925-.105a47.445,47.445,0,0,0,15.84-4.346q1.787-.817,3.543-1.7a93.841,93.841,0,0,0-.592,9.875c-.018.735-.035,1.465-.047,2.2l-.177,1.978c-.141,1.714-.306,3.433-.406,5.153-.1,1.784-.241,3.574-.294,5.364-.054,1.961-.107,3.916-.159,5.877-.024.83,0,1.66,0,2.484.006,1.2.006,2.4.011,3.6,0,1.7.094,3.392.153,5.082.053,1.472.118,2.932.224,4.4.142,1.973.289,3.945.424,5.918.047.688.165,1.384.247,2.067q.231,1.916.46,3.833c.112.907.218,1.808.33,2.714.088.76.229,1.514.359,2.267q.309,1.819.677,3.634a85.14,85.14,0,0,0,4.234,14.5,56.685,56.685,0,0,0,7.13,12.914,33.72,33.72,0,0,0,10.441,9.527,21.878,21.878,0,0,0,10.446,2.844,17.089,17.089,0,0,0,3.45-.341,14.426,14.426,0,0,0,6.13-2.68A14.137,14.137,0,0,0,187.7,420a28.258,28.258,0,0,0,1.667-4.953c.206-.871.418-1.754.63-2.626q.875-1.218,1.625-2.5a40.377,40.377,0,0,0,4.94-13.992,70.448,70.448,0,0,0,.713-15.233c-.082-1.543-.165-3.1-.336-4.64.012-1.036.018-2.079.03-3.115.006-.589.053-1.189.017-1.778-.106-1.943-.206-3.887-.312-5.836-.076-1.383-.117-2.779-.276-4.157q-.388-3.516-.784-7.025c-.07-.647-.135-1.295-.218-1.937-.064-.548-.188-1.1-.282-1.643q-.6-3.505-1.207-7.019c-.23-1.307-.548-2.591-.848-3.886-.283-1.237-.571-2.473-.854-3.71-.147-.653-.271-1.325-.453-1.972q-.822-2.873-1.655-5.73c-.448-1.543-.954-3.056-1.46-4.581-1.113-3.368-2.285-6.713-3.427-10.064q-.893-2.613-1.773-5.228c-.526-1.569-1.047-3.149-1.637-4.694v.006c-.029-.082-.059-.165-.094-.247.029.065.053.135.082.206-.3-.8-.606-1.6-.907-2.391.006.024.018.048.024.071q-.539-1.44-1.166-2.844c-.247-.7-.506-1.4-.777-2.09a1.328,1.328,0,0,0-.542-.648c-.318-.619-.648-1.225-.989-1.838a1.394,1.394,0,0,0-.262-.322q.942-1.342,1.834-2.717c1.06-1.643,2.149-3.263,3.156-4.935l-.011.013c.76-1.264,1.521-2.522,2.276-3.792l-.013.025c.095-.162.2-.329.291-.487l-.011.013c.076-.123.153-.247.224-.37,0,0-.006.011-.012.023.035-.059.07-.118.106-.171,0-.006,0-.008.006-.012.206-.353.394-.724.594-1.077.943-1.72,1.95-3.416,2.821-5.176q.883-1.8,1.778-3.6c.307-.63.63-1.248.907-1.89.5-1.148.983-2.3,1.478-3.445.306-.707.648-1.407.907-2.131q.6-1.67,1.189-3.339c.277-.8.6-1.584.825-2.391-.006.018-.006.036-.012.053.512-1.784,1.019-3.574,1.525-5.358-.006.012-.006.023-.012.035.33-1.131.554-2.3.825-3.45.212-.9.453-1.79.636-2.7q.362-1.767.724-3.545c.159-.789.347-1.578.483-2.379.182-1.1.371-2.208.553-3.309.05-.3.1-.6.157-.9.431.194.867.379,1.315.541a1.422,1.422,0,0,0-.059.312,1.7,1.7,0,0,0,1.531,1.819l1.484.106c1.525.106,3.056.212,4.587.306.695.219,1.4.419,2.1.59a39.646,39.646,0,0,0,6.16.965q1.987.15,3.992.148a62.95,62.95,0,0,0,8.733-.636,40.347,40.347,0,0,0,11.847-3.386,46.129,46.129,0,0,0,11.63-8.02,32.866,32.866,0,0,0,4.634-5.3,30.086,30.086,0,0,0,3.268-6.194,29.477,29.477,0,0,0,1.79-6.866,19.666,19.666,0,0,0,.159-3.763,21.519,21.519,0,0,0-.5-3.363,20.336,20.336,0,0,0-1.207-3.544q-.045-.416-.106-.83a19.654,19.654,0,0,0-2.25-6.667,23.79,23.79,0,0,0-4.169-5.276,35.261,35.261,0,0,0-5.7-4.522,51.4,51.4,0,0,0-6.513-3.509,50.436,50.436,0,0,0-4.828-1.961c-.436-.142-.866-.282-1.3-.424-.246-.125-.491-.243-.737-.363.984-2.618,2.029-5.216,3.065-7.813q1.855-4.656,3.775-9.3c1.178-2.844,2.391-5.682,3.562-8.532,1.337-3.245,2.674-6.495,4.046-9.728,1.262-2.983,2.589-5.948,3.957-8.884.652-1.287,1.249-2.6,2.018-3.826.157-.236.319-.462.5-.689a1.361,1.361,0,0,0,.931-.792,1.376,1.376,0,0,0-.231-1.373,12.838,12.838,0,0,0,1.79.223,14.678,14.678,0,0,0,2.751.482c.46.034.924.051,1.388.051a13.064,13.064,0,0,0,5.72-1.188,11.482,11.482,0,0,0,5.07-4.405A10.786,10.786,0,0,0,276.083,114.452ZM171.936,165.544a69.982,69.982,0,0,1-7.7,3.539c.064-.029.135-.053.2-.082a53.522,53.522,0,0,1-6.383,1.971h0a48.99,48.99,0,0,1-5.114.874h.029a.182.182,0,0,0-.059.006l-.153.018.006,0a36.413,36.413,0,0,1-4.11.184,51.288,51.288,0,0,1-5.782-.53.7.7,0,0,1,.117.012c-2.2-.347-4.375-.824-6.542-1.337-1.642-.384-3.277-.775-4.905-1.22.895.036,1.792.061,2.688.061,1.284,0,2.568-.042,3.845-.124a74.026,74.026,0,0,0,8.368-1.06q2.57-.477,5.105-1.113a93.042,93.042,0,0,0,13.008-.277,55.527,55.527,0,0,0,8.334-1.472C172.571,165.173,172.261,165.369,171.936,165.544Zm-82.211-28c-.613-1.042-1.219-2.085-1.838-3.127.006.012.012.03.018.041-.748-1.419-1.484-2.85-2.226-4.263-.589-1.13-1.095-2.3-1.631-3.451-.518-1.124-1.054-2.237-1.513-3.392-.589-1.46-1.2-2.926-1.767-4.4-.288-.866-.594-1.737-.895-2.608-.306-.9-.653-1.79-.924-2.7-.524-1.79-1.031-3.586-1.555-5.376-.212-.919-.424-1.838-.63-2.756-.141-.625-.282-1.249-.424-1.867-.047-.2-.106-.406-.135-.606-.324-2.067-.707-4.134-.931-6.213l.018.2a71.632,71.632,0,0,1-.394-8.845v.059a77.627,77.627,0,0,1,.818-9.51c.057-.369.125-.735.188-1.1.052-.146.1-.294.156-.439.289-.754.583-1.507.878-2.267.653-1.688,1.267-3.4,1.975-5.068a109.431,109.431,0,0,1,6.434-12.556l-.017.024.087-.142c.006-.012.012-.018.018-.03-.006.006-.006.012-.012.018a87.788,87.788,0,0,1,6.391-9.038,110.252,110.252,0,0,1,9.579-10.37l0-.006c.324-.165.648-.329.972-.489a1.261,1.261,0,0,0,.7-1.059,113.915,113.915,0,0,1,10.018-8.162l-.055.042a96.438,96.438,0,0,1,10.57-6.66c-.071.035-.148.076-.218.111a79.436,79.436,0,0,1,9.18-4.18c-.059.017-.112.041-.171.058a69.52,69.52,0,0,1,7.74-2.367,53.984,53.984,0,0,1,6.587-1.13,49.237,49.237,0,0,1,5.364-.247.481.481,0,0,0-.1-.007,1.5,1.5,0,0,1,.177.007h.017a45.246,45.246,0,0,1,5.047.441,42.879,42.879,0,0,1,4.846,1.042l-.053-.018.129.036a.636.636,0,0,0,.062.019,49.458,49.458,0,0,1,5.306,1.947l.011,0,0,0,.023.01a64.769,64.769,0,0,1,7.234,3.738l-.206-.117a88.367,88.367,0,0,1,9.515,6.636c-.058-.053-.123-.1-.182-.153a93.711,93.711,0,0,1,9,8.244l-.037-.035a85.255,85.255,0,0,1,7.09,8.461c.735,1.026,1.439,2.072,2.127,3.127q.484,1.354.967,2.708c.189.53.324,1.084.489,1.625q.566,1.926,1.142,3.863c.218.731.471,1.467.654,2.209.177.712.353,1.431.53,2.143q.743,2.967,1.478,5.941c.4,2.073.83,4.14,1.248,6.218.159.79.312,1.584.477,2.374.242,1.177.389,2.39.554,3.586.17,1.23.329,2.479.465,3.721v-.041a.941.941,0,0,0,.012.135c.006.029.006.059.011.088l0-.009a105.968,105.968,0,0,1,.523,12.723.076.076,0,0,1,0-.03c0,.077,0,.153,0,.23a104.193,104.193,0,0,1-1.031,12.113q-.368,2.438-.877,4.85-1.044,2.933-2.27,5.8h0a81.47,81.47,0,0,1-4.686,9.193c.012-.024.03-.053.042-.077a68.907,68.907,0,0,1-5.142,7.376,86.739,86.739,0,0,1-7.407,8,105.543,105.543,0,0,1-10.621,8.835.394.394,0,0,1,.04-.026,93.3,93.3,0,0,1-10.465,6.553,84.312,84.312,0,0,1-9.45,4.27l.02-.009c-.99.37-1.98.714-2.982,1.039-.747,0-1.5,0-2.249-.017a137.1,137.1,0,0,1-16.547-1.316l.006,0-.016,0-.013,0h0a.253.253,0,0,0-.046-.006c-.071-.012-.136-.018-.206-.03h.013a63.907,63.907,0,0,1-15.877-4.558c-1.166-.507-2.337-1.013-3.474-1.6-.8-.406-1.6-.819-2.408-1.231l-2.862-1.466c-.459-.235-.936-.447-1.384-.712-2.941-1.72-5.935-3.335-8.859-5.084l.009.008-.036-.024-.017-.012c-.065-.035-.124-.07-.183-.106l.095.054a95.806,95.806,0,0,1-9.911-6.8c-.659-.539-1.29-1.112-1.928-1.676C89.86,137.761,89.789,137.655,89.725,137.545Zm35.769,28.006c.029.006.059.011.082.017a61.052,61.052,0,0,1-7.069-1.539c-1.506-.745-2.988-1.536-4.434-2.4-.457-.277-.893-.585-1.342-.873a1.34,1.34,0,0,0,.061-.161,1.252,1.252,0,0,0-.943-1.472,1.553,1.553,0,0,0-1.275.21c-1-.7-1.988-1.431-2.949-2.19-.918-.748-1.849-1.5-2.72-2.3l-2.232-2.02c-.63-.577-1.266-1.148-1.9-1.719-.256-.233-.5-.481-.75-.722.05-.084.1-.168.15-.252q2.377,1.429,4.784,2.811c1.525.877,3.038,1.791,4.6,2.6,2.1,1.095,4.181,2.2,6.288,3.274.937.471,1.908.9,2.862,1.319,1.231.541,2.468,1.072,3.722,1.549a68.3,68.3,0,0,0,8.026,2.5,77.414,77.414,0,0,0,8.273,1.5l1.231.159a64.535,64.535,0,0,1-7.532.289h.189A60.465,60.465,0,0,1,125.494,165.551ZM97.9,153.526q.13-.171.259-.347c.584.557,1.172,1.111,1.769,1.654.335.3.67.609,1,.913Q99.38,154.686,97.9,153.526Zm87.9.4a49.16,49.16,0,0,1-5.073,3.172,48.254,48.254,0,0,1-4.767,2.192,48.842,48.842,0,0,1-5.311,1.649c-1.749.406-3.515.718-5.293.954a87.448,87.448,0,0,0,11.929-6.642,103.167,103.167,0,0,0,12.99-10.176,86.957,86.957,0,0,0,9.761-10.523l-.006.012c-.365.7-.725,1.408-1.09,2.108-.583,1.125-1.248,2.209-1.9,3.292a97.477,97.477,0,0,1-7.113,10.269c.047-.058.094-.118.147-.176-.411.508-.831,1.01-1.254,1.51C187.843,152.384,186.837,153.174,185.8,153.927Zm25.754-37.863a80.8,80.8,0,0,1-3.39,9.434c-.588,1.337-1.218,2.652-1.877,3.952.583-1.348,1.169-2.694,1.745-4.047a.291.291,0,0,0,.012-.035l-.006.012.013-.032.01-.027,0,.011c.019-.041.039-.081.056-.123-.017.035-.029.07-.047.1.489-1.137.919-2.309,1.337-3.474.442-1.231.866-2.468,1.225-3.722q1.044-3.588,1.758-7.265c.385-1.138.757-2.281,1.1-3.434A83.058,83.058,0,0,1,211.557,116.064ZM144.1,6.433c-.106.029-.218.053-.324.083-2.9.742-5.788,1.507-8.685,2.255,1.759-.914,3.554-1.76,5.391-2.5q.811-.1,1.625-.193l0,0,.022,0c.076-.006.153-.017.229-.023l-.159.017c1.39-.123,2.791-.223,4.181-.288l.48-.024c-.97.235-1.939.461-2.909.706C144,6.456,144.057,6.445,144.1,6.433ZM120.456,18.416c1.107-.783,2.185-1.608,3.28-2.4q1.491-1.095,2.982-2.194l0,0,.007-.005.04-.03c.07-.047.141-.1.212-.141.229-.071.459-.142.7-.207,1.819-.529,3.639-1.095,5.47-1.572,3.792-.995,7.584-1.984,11.376-2.991l-.006.006c1.29-.306,2.58-.63,3.869-.96-.047.012-.1.029-.153.041.618-.147,1.248-.259,1.873-.389.494-.1,1.012-.146,1.5-.294a1.235,1.235,0,0,0,.813-1.537,1.144,1.144,0,0,0-.072-.169c.55-.006,1.1-.009,1.653,0a41.247,41.247,0,0,1,4.79.449c.762.12,1.521.263,2.277.42.248.076.5.148.744.226.754.224,1.5.512,2.237.777.642.224,1.278.453,1.914.7.825.318,1.667.6,2.479.953-.082-.035-.165-.07-.247-.111.124.059.247.111.371.165h0c1.124.488,2.247.96,3.371,1.437.018.006.036.018.059.024,2.055.96,4.069,1.978,6.024,3.139a42.988,42.988,0,0,1,4.281,3.007A50.269,50.269,0,0,1,186.838,21l-.019-.023c.047.048.094.1.141.153l.024.024a72.237,72.237,0,0,1,5.553,6.707,66.3,66.3,0,0,1,4.115,6.537,90.11,90.11,0,0,0-7.068-6.972,93.079,93.079,0,0,0-13.261-9.769A61.906,61.906,0,0,0,169,13.865a44.545,44.545,0,0,0-7.578-2.626,42.809,42.809,0,0,0-8.12-1.184,49.5,49.5,0,0,0-8.2.347,62.092,62.092,0,0,0-15.963,4.305,80.5,80.5,0,0,0-10.482,5.227l1.1-.923C119.991,18.816,120.221,18.6,120.456,18.416Zm-18.9,9.834c0,.006-.006.006-.006.012s.012-.018.024-.024c.027-.027.054-.054.084-.081l-.025.022a73.791,73.791,0,0,1,7.148-5.922l0,0,.123-.088c.006-.006.012-.006.018-.012l-.006,0q1.6-1.137,3.28-2.169c-.46.43-.9.877-1.354,1.313q-1.255,1.211-2.509,2.432a.308.308,0,0,0-.041.035l-.036.036,0,.006-.018.018a1.124,1.124,0,0,0-.118.111.838.838,0,0,1,.071-.065c-.577.548-1.113,1.143-1.667,1.72-.5.512-1,1.018-1.489,1.543q-1.953,2.093-3.863,4.234a1.935,1.935,0,0,0-.388,1.877c-1.7,1.548-3.372,3.138-4.985,4.782a43.522,43.522,0,0,0-3.975,2.55c-.479.347-.932.726-1.392,1.1q2.1-3.238,4.516-6.267A79.4,79.4,0,0,1,101.56,28.25ZM81.1,128.182c.012.012.024.03.035.042a61.848,61.848,0,0,1-4.039-6.365,45.233,45.233,0,0,1-2.379-5.253,55.757,55.757,0,0,1-1.915-6.268,50.3,50.3,0,0,1-.964-5.612,51.68,51.68,0,0,1-.254-6.092.166.166,0,0,0-.006.054.851.851,0,0,1,.006-.124v-.047c.049-1.541.178-3.073.36-4.6,0,.066,0,.133.008.2.077,1.3.148,2.62.336,3.9.136.931.277,1.856.412,2.786.1.66.2,1.319.3,1.979.041.265.059.541.117.806.207.924.413,1.855.619,2.78.147.641.288,1.283.43,1.919.064.3.117.6.2.9.265.895.512,1.8.771,2.7s.477,1.814.766,2.7c.294.907.606,1.8.913,2.7s.618,1.8.912,2.708c.106.324.247.636.371.948.224.565.453,1.131.677,1.7.383.966.76,1.931,1.155,2.9.306.76.682,1.5,1.024,2.238l.241.525c-.012-.018-.024-.036-.038-.054Zm6.137,14.158-.037-.049c-.012-.016-.021-.032-.032-.047l.015.018c-.925-1.3-1.814-2.609-2.656-3.945,1.3,1.3,2.678,2.518,4.084,3.7.407.612.826,1.216,1.254,1.8.718,1,1.455,1.967,2.232,2.909,1.009,1.213,2.067,2.38,3.152,3.521-.148.21-.3.417-.453.625q-1.374-1.265-2.669-2.617a61.759,61.759,0,0,1-4.891-5.922Zm3.033,19.6a24.425,24.425,0,0,1,.43,2.556,28.8,28.8,0,0,1,.13,3.258.093.093,0,0,1,.006-.037.56.56,0,0,0-.006.1v.035c0,.024-.006.047-.006.071a14.871,14.871,0,0,0-1.743-5.029,16.45,16.45,0,0,0-2.392-3.169c.241-.1.479-.2.721-.294.335-.123.666-.246,1-.363a1.485,1.485,0,0,0,.685-.516c.15.324.312.643.444.974A23.028,23.028,0,0,1,90.265,161.936Zm-2.443-5.653c.029.044.053.091.083.135a1.165,1.165,0,0,0-.294.06c-1.092.387-2.173.8-3.245,1.234-.109-.079-.208-.169-.319-.245-.065-.045-.13-.087-.2-.131.14-.08.275-.167.416-.245a1.489,1.489,0,0,0,.534-.232C85.8,156.65,86.812,156.454,87.822,156.283Zm-12.478,3.242,0,0,.009-.006-.008.006h0l-.053.039c-.067.049-.132.1-.2.144s-.135.1-.206.147a1.3,1.3,0,0,1-.112.083c-.165.117-.329.235-.5.359l.153-.106-.371.265.024-.017-.254.182c-.147.112-.3.218-.453.324-.106.082-.212.159-.318.235-.124.089-.242.171-.359.254-.091.067-.182.135-.273.2a.112.112,0,0,1-.016.013c-.033.024-.063.044-.095.065.018-.011.038-.024.054-.036l-.25.184.05-.043c-.141.1-.281.2-.416.3l.007-.007c-.081.06-.157.12-.233.174.024-.017.041-.035.065-.053-.077.059-.153.112-.23.165l-.017.018s0-.006,0-.006,0,.006-.012.006c-.017.017-.041.029-.058.047a.43.43,0,0,0-.048.035c-.011.006-.017.012-.029.018l.007,0c-.352.252-.68.539-1.008.821q-1.14.954-2.279,1.9c-.759.631-1.519,1.273-2.279,1.9-.312.259-.636.513-.936.79.024-.024.047-.048.071-.071-2.284,2.107-4.532,4.25-6.792,6.376-.721-.387-1.441-.775-2.166-1.16Q53.8,172,51.773,170.931c.207-.143.416-.284.624-.427.306-.212.606-.453.93-.636,2.308-1.3,4.569-2.7,6.86-4.04a99.15,99.15,0,0,1,11.141-5.111c1.419-.536,2.85-1.024,4.293-1.484.037.008.072.019.109.026-.1.069-.2.133-.3.205a.1.1,0,0,0-.029.023c0-.006.006-.006.006-.011Zm-8.35-7.1a37.413,37.413,0,0,1,4.275-1.3,29.964,29.964,0,0,1,2.991-.506h-.011a23.808,23.808,0,0,1,2.514-.1,22.576,22.576,0,0,1,2.285.182c.53.088,1.048.2,1.56.336a14.984,14.984,0,0,1,1.684.606c.477.218.936.453,1.4.712a14.793,14.793,0,0,1,1.384.949c.194.165.388.336.571.506h-.006c-.905.187-1.84.322-2.734.567-1.055.248-2.105.511-3.155.77a26.848,26.848,0,0,0-10.24-2c-.182,0-.37,0-.553.006a36.58,36.58,0,0,0-4.487.365Q65.713,152.939,66.994,152.426ZM36.056,177.982l0,.013a126.825,126.825,0,0,1,8.718-9.823c1.643-1.031,3.309-2.014,5.023-2.932-.053.023-.1.047-.147.07a71.652,71.652,0,0,1,7.8-3.633l-.019.007c.032-.012.064-.023.095-.036l.074-.028-.021.01a52.631,52.631,0,0,1,6.13-1.89,42.015,42.015,0,0,1,4.2-.712,96.219,96.219,0,0,0-8.762,4.115c-1.172.624-2.308,1.325-3.457,2-1.266.736-2.532,1.465-3.8,2.207-.512.307-.989.666-1.483,1-.549.37-1.1.745-1.647,1.117a1.476,1.476,0,0,0-1.416.779,1.352,1.352,0,0,0-.095.247l-.27.183c-.6.412-1.225.789-1.8,1.23-.748.577-1.49,1.166-2.232,1.743-1.408,1.1-2.862,2.161-4.2,3.345-1.69,1.489-3.392,2.967-5.059,4.481-.33.294-.642.607-.948.919C33.825,180.914,34.914,179.425,36.056,177.982Zm-27.934,36.4c.936-2.1,1.854-4.2,2.791-6.3a92.138,92.138,0,0,1,5.414-10.345A103.169,103.169,0,0,1,23.973,186.7c-.015.015-.03.033-.045.051q2.541-3.154,5.339-6.063l-.035.053c-.766,1.024-1.525,2.061-2.3,3.085-.253.342-.518.683-.754,1.037-2.155,3.239-4.386,6.424-6.418,9.739-1.131,1.855-2.273,3.692-3.392,5.547-.418.683-.777,1.4-1.16,2.1-.594,1.084-1.189,2.173-1.778,3.256q-1.388,2.147-2.656,4.358c-.871,1.514-1.743,3.039-2.491,4.623-.388.812-.771,1.631-1.154,2.449Q7.609,215.653,8.122,214.385Zm-.86,32.139c-.247-.354-.483-.713-.695-1.09-.112-.229-.218-.454-.312-.689-.018-.065-.041-.123-.059-.188-.029-.136-.053-.277-.071-.419-.176-2.237-.318-4.5-.3-6.735a35.49,35.49,0,0,1,.306-4.035,36.394,36.394,0,0,1,.925-4.015A57.923,57.923,0,0,1,9.1,223.611c-.023.053-.047.107-.071.159.937-2.161,1.861-4.334,2.791-6.5.6-1.283,1.237-2.537,1.85-3.809.435-.9.871-1.79,1.3-2.685.17-.354.324-.713.512-1.054,1.39-2.521,2.738-5.059,4.128-7.573.047-.07.088-.141.13-.212.347-.453.7-.906,1.047-1.36,1.278-1.667,2.55-3.339,3.852-4.988.965-1.113,1.943-2.226,2.914-3.332.9-1.031,1.849-2.038,2.7-3.1-.041.052-.082.106-.129.164,1.819-1.86,3.68-3.686,5.5-5.546.972-.813,1.891-1.7,2.839-2.544.636-.565,1.265-1.131,1.9-1.7.282-.253.559-.536.859-.766,1.944-1.525,3.869-3.073,5.812-4.592l2.044-1.4c2.274,1.192,4.554,2.371,6.82,3.575-.165.172-.33.346-.5.517q-2.172,2.271-4.351,4.523c-.23.235-.436.482-.648.724-.689.789-1.366,1.584-2.055,2.367q-1.157,1.333-2.3,2.662c-.336.382-.689.747-1,1.148-.172.213-.336.434-.5.649-.32-.174-.636-.354-.956-.526-1.043-.559-2.085-1.113-3.139-1.655-.889-.459-1.778-.942-2.691-1.36a1.417,1.417,0,0,0-.206-.094c-.006,0-.012-.006-.018-.006a1.264,1.264,0,0,0-1.148,2.226,19.558,19.558,0,0,0,1.725.936l1.537.831c1.072.571,2.132,1.171,3.192,1.766-.053-.03-.1-.059-.153-.094.064.039.13.075.2.114-.146.191-.3.379-.442.569-.86,1.113-1.731,2.214-2.591,3.333.03-.036.053-.065.083-.1-.265.323-.489.683-.725,1.03-.571.824-1.13,1.649-1.7,2.468s-1.131,1.648-1.7,2.466c-.234.334-.474.662-.685,1.007a.521.521,0,0,0-.034.059l-.016.027-.008.013c-.618,1-1.225,2.018-1.837,3.026-.838-.39-1.676-.778-2.524-1.143a.171.171,0,0,0,.029.017c-.765-.353-1.531-.706-2.308-1.037l.034.012c-.715-.324-1.42-.659-2.13-.983-.731-.342-1.437-.713-2.173-1.024a.955.955,0,0,0-.413-.236c-.023-.006-.041-.012-.058-.018a1.252,1.252,0,0,0-1.419.454,1.228,1.228,0,0,0,.058,1.478,2.828,2.828,0,0,0,.973.611.339.339,0,0,1,.039.018l.031.013-.024-.01a.219.219,0,0,1,.03.016l.029.008-.006,0,.008,0,.016.007c1.393.628,2.734,1.37,4.139,1.98-.053-.018-.1-.042-.153-.065.73.344,1.46.7,2.2,1.028l-.016,0c.757.376,1.527.728,2.293,1.089-.341.565-.685,1.125-1.027,1.691l0-.01-.124.213c.006-.006.006-.012.012-.018-.324.541-.613,1.113-.919,1.667q-.9,1.643-1.8,3.274c-.648,1.177-1.278,2.349-1.89,3.538-.742,1.443-1.519,2.868-2.226,4.322-.754,1.549-1.537,3.092-2.255,4.658-.551,1.2-1.106,2.39-1.641,3.594l-.337-.064c-.553-.107-1.125-.183-1.672-.319-1-.253-2-.5-2.992-.777a.914.914,0,0,0-.128-.039l0,0c-.03-.012-.065-.018-.095-.03-.129-.035-.253-.07-.376-.106l.04.013-.3-.089c.006.006.017.006.029.012-.336-.1-.677-.195-1.013-.295.018.006.036.012.059.018-.135-.036-.265-.071-.394-.112-.052-.015-.1-.031-.156-.043l0,0-.006,0-.018,0h.007l-.037-.012c-.041-.011-.076-.018-.111-.029a.065.065,0,0,1,.02,0,.019.019,0,0,0-.014,0c-.029-.007-.057-.016-.086-.024s-.084-.025-.126-.035l.029.006-.277-.077c.059.012.112.03.165.041l-1.573-.454.013.007-.595-.177a1.3,1.3,0,1,0-.877,2.438c.112.03.218.065.329.094H9.532l.424.124a.823.823,0,0,0-.095-.029.979.979,0,0,1,.112.029l.053.017-.023,0c-.012,0-.018-.006-.03-.006.136.035.271.077.406.112-.052-.012-.105-.03-.158-.041.176.046.353.1.529.147-.052-.012-.106-.029-.159-.041.211.058.426.116.637.18l-.006,0a.077.077,0,0,0,.035.012l.018.006h-.006c.075.021.15.038.221.059l-.008,0,.105.031a.214.214,0,0,0,.035.01l-.006,0c.147.047.295.089.442.129-.053-.011-.106-.029-.159-.04.112.029.218.058.329.094l0,0c.173.051.352.1.525.151h0c.288.082.582.165.877.247-.053-.011-.112-.029-.165-.041.165.041.33.088.489.135h-.006c.012,0,.018.006.03.006a1.291,1.291,0,0,0,.129.042c-.012-.007-.024-.007-.029-.013a.612.612,0,0,0,.069.022c.04.012.081.022.119.032l.005,0c.511.148,1.027.275,1.538.407.553.147,1.107.336,1.666.441l1.495.3c-.458,1.076-.914,2.153-1.343,3.24-.671,1.72-1.319,3.433-1.955,5.165-.547,1.483-1.018,3-1.478,4.51-.247.807-.441,1.631-.618,2.456-.088.423-.165.836-.229,1.265-.042.253-.089.507-.118.766a5.378,5.378,0,0,0,.02,1.236c-.506-.247-1.011-.5-1.5-.778a21.833,21.833,0,0,1-2.084-1.448c-.537-.453-1.049-.924-1.531-1.419C7.827,247.23,7.539,246.883,7.262,246.524Zm8.514,9.969c-.412-.018-.818-.047-1.224-.1-.5-.083-.992-.193-1.485-.324a17.213,17.213,0,0,1-1.63-.576c-.418-.189-.825-.395-1.225-.625-.318-.2-.624-.412-.925-.642-.088-.07-.17-.141-.259-.218.507.26,1.013.513,1.537.737a12.044,12.044,0,0,0,3.027.848,23.3,23.3,0,0,0,2.279.9Zm39.718-27.676c-1.036,1.071-2.1,2.108-3.162,3.144-.931.907-1.849,1.826-2.774,2.732-2.637,2.333-5.376,4.546-8.226,6.613a83.144,83.144,0,0,1-8.862,5.612,65.135,65.135,0,0,1-7.081,3.24,42.288,42.288,0,0,1-4.584,1.447,32.642,32.642,0,0,1-3.405.6c-.02,0-.036.005-.051.005l-.165.018.141-.018c-.421.039-.84.05-1.259.061a2.454,2.454,0,0,0,.755-.772,12.888,12.888,0,0,0,.795-1.643c-.024.065-.053.13-.077.194,1.272-2.762,2.379-5.6,3.521-8.42.73-1.814,1.443-3.639,2.161-5.459q.547-1.379,1.092-2.76c2.664.332,5.334.6,8.007.831.035,0,.076.006.112.006a1.339,1.339,0,0,0,.117-2.673c-1.949-.159-3.9-.336-5.847-.542-.461-.049-.922-.108-1.383-.163,1.7-4.308,3.419-8.615,5.227-12.882.425-.96.884-1.914,1.325-2.868.324-.7.642-1.4.966-2.1.124-.265.23-.548.371-.807.548-1.013,1.089-2.032,1.637-3.044.073-.138.147-.275.22-.412.237.12.475.234.712.355a1.3,1.3,0,0,0,.589.141,1.316,1.316,0,0,0,.612-2.485c-.22-.108-.442-.213-.662-.321.569-.883,1.12-1.78,1.685-2.672.572-.907,1.16-1.8,1.708-2.715-.036.059-.071.119-.106.177,1.248-1.731,2.485-3.474,3.733-5.2.7-.831,1.337-1.719,2.008-2.579l.494-.637c.564.346,1.128.692,1.7,1.031-.053-.029-.106-.065-.159-.095.765.5,1.554.96,2.332,1.443.853.518,1.7,1.049,2.561,1.566-.006-.006-.017-.011-.024-.017.048.029.1.059.148.088l.007.007.007,0h0c.309.187.618.378.921.56a1.593,1.593,0,0,0,.83.253,1.445,1.445,0,0,0,1.26-.778,1.445,1.445,0,0,0-.618-1.925l-1.1-.66c.053.03.106.065.159.095-.465-.283-.942-.56-1.413-.843.053.03.112.065.165.094-.089-.052-.183-.105-.271-.158.053.029.106.064.165.094-.542-.324-1.078-.642-1.614-.966.053.036.106.065.159.1-.047-.029-.094-.052-.147-.082l.035.018c-.589-.365-1.189-.719-1.79-1.072v.006c-.082-.053-.165-.1-.253-.153-.443-.271-.9-.528-1.346-.792,1.055-1.245,2.089-2.52,3.125-3.777.9-1.084,1.855-2.12,2.809-3.168.977-1.078,1.943-2.179,2.98-3.209l2.512-2.477c.249.137.5.27.748.409.636.394,1.272.759,1.919,1.13l-.123-.07c.871.541,1.725,1.089,2.573,1.66a1.4,1.4,0,1,0,1.6-2.3q-2.173-1.467-4.434-2.785c-.043-.026-.089-.048-.131-.074q.624-.555,1.251-1.109c.678-.606,1.343-1.249,2.055-1.825,1.855-1.5,3.7-3.01,5.624-4.423a66.619,66.619,0,0,1,6.795-4.263c1.638-.863,3.294-1.708,4.971-2.509.147.1.3.2.445.306a19.086,19.086,0,0,1,1.613,1.472c.395.43.771.871,1.125,1.342a21.377,21.377,0,0,1,1.248,2c.159.312.312.624.454.942.111.524.194,1.042.259,1.566a23.047,23.047,0,0,1,.088,2.779,43.528,43.528,0,0,1-1.672,10.694c-.519,1.755-1.137,3.457-1.826,5.147-.453,1.106-.907,2.219-1.36,3.327-.73,1.619-1.5,3.226-2.255,4.834-.607,1.3-1.308,2.555-1.973,3.822-.153.282-.3.565-.447.847-.878,1.36-1.785,2.709-2.668,4.064l-1.978,3.02c-.265.406-.507.836-.8,1.213q-1.888,2.483-3.752,4.983a2.7,2.7,0,0,1-.819.142.434.434,0,0,1-.088-.006,12.2,12.2,0,0,1-2.314-.23c-.448,1.531-.925,3.068-1.319,4.616q-.233.919-.466,1.836c-.209.246-.412.5-.622.742-.666.719-1.331,1.443-2.014,2.144Q58.085,226.138,55.494,228.817Zm16.581,74.408a49.045,49.045,0,0,1-2.992-4.823c.012.029.03.059.042.088-.024-.047-.048-.088-.071-.135a1.123,1.123,0,0,0-.059-.106.1.1,0,0,1,.018.025,60.111,60.111,0,0,1-2.833-6.308,57.689,57.689,0,0,1-3.415-14.445v.03c0-.024-.006-.047-.006-.076-.006-.065-.017-.13-.023-.2.006.024.006.047.011.076-.259-2.578-.365-5.157-.388-7.749.047-1.4.082-2.785.117-4.18.03-.884.006-1.778.077-2.656.077-.907.153-1.814.23-2.726.153-1.855.288-3.71.518-5.559.483-3.951.989-7.89,1.572-11.824-.012.083-.024.171-.035.259q.468-3.153.948-6.295V236.6a.065.065,0,0,0,.006-.03v.013c.253-1.508.506-3.01.759-4.523.539-3.206,1.2-6.389,1.9-9.567.29-.364.588-.722.863-1.1,1.1-1.5,2.118-3.037,3.117-4.594,1.437-1.883,2.806-3.814,4.16-5.76l.09-.1,2.337-2.744c1.343-1.584,2.609-3.263,3.8-4.964a57.477,57.477,0,0,0,7.726-14.674,33.229,33.229,0,0,0,1.713-8.073c.042-.607.071-1.219.083-1.832a39.963,39.963,0,0,0,1.637-6.435,31.873,31.873,0,0,0,.3-8.1,24.325,24.325,0,0,0-.848-4.408c.573-.661,1.16-1.309,1.787-1.918a19.334,19.334,0,0,1,1.587-1.314c.065-.046.135-.087.2-.131.582.444,1.171.879,1.77,1.3a66.12,66.12,0,0,0,8.975,5.283c-.358.623-.688,1.262-1,1.912a1.228,1.228,0,0,0-.157.133A7.539,7.539,0,0,0,105.4,167c.006-.005.006-.011.012-.017a.346.346,0,0,0-.029.07c-.012.024-.024.053-.036.077,0-.006.006-.012.006-.018-.235.524-.465,1.048-.695,1.573-.759,1.725-1.442,3.48-2.131,5.228-.636,1.6-1.166,3.233-1.737,4.853l-.018.052c-.6-.21-1.2-.427-1.792-.671l0,0-.023-.012-.012-.006-.038-.018.02.012a20.082,20.082,0,0,1-1.813-.913c-.171-.106-.33-.217-.489-.336a.832.832,0,0,1-.082-.07,1.218,1.218,0,0,0-1.049-.789,1.278,1.278,0,0,0-1.36,1.142,1.74,1.74,0,0,0,.442,1.225,3.154,3.154,0,0,0,.789.7,11.876,11.876,0,0,0,1.042.636,22.607,22.607,0,0,0,2.308,1.078c.408.162.821.318,1.237.464-.173.527-.359,1.05-.528,1.58q-.573,1.775-1.136,3.551c-.171.524-.353,1.048-.506,1.584v-.01c-.358,1.254-.727,2.513-1.09,3.766,0,.006-.006.018-.006.024-.459,1.578-.918,3.162-1.366,4.746.006-.017.012-.029.018-.047a1.366,1.366,0,0,0-.047.159c-.218.736-.4,1.49-.589,2.238-.389,1.5-.783,2.991-1.172,4.487q-.645,2.474-1.242,4.952c-.109.444-.215.888-.323,1.332-1.191-.1-2.382-.208-3.569-.349l-1.154-.159-.123-.018c-.578-.094-1.16-.176-1.732-.3a1.284,1.284,0,0,0-.724,2.455,1.054,1.054,0,0,0,.189.053c.859.176,1.725.312,2.591.441-.054-.012-.106-.017-.16-.029.2.035.389.065.589.094h0l.118.017a.071.071,0,0,0-.016,0l.107.017c.017,0,.041.006.058.006h-.023c1.071.158,2.149.259,3.227.353q-.244,1.014-.49,2.027c-.4,1.63-.73,3.279-1.089,4.91-.307,1.4-.648,2.786-.913,4.193q-.645,3.321-1.278,6.642c-.654,3.38-1.078,6.8-1.584,10.205-.059.418-.088.842-.124,1.266q-.108,1.149-.212,2.3c-1.462-.077-2.926-.172-4.377-.366-.477-.076-.942-.171-1.419-.283-.077-.029-.159-.052-.236-.076a1.306,1.306,0,0,0-.636,2.532,29.737,29.737,0,0,0,6.083.789c.113.008.227.011.34.019-.094.969-.184,1.939-.22,2.914-.046,1.314-.093,2.634-.139,3.952-.052.488-.109.975-.16,1.463-.182,1.778-.353,3.55-.5,5.328-.077.854-.171,1.7-.218,2.556-.053,1-.106,2-.159,2.992-.035.7-.083,1.4-.088,2.1-.012,1.148-.024,2.3-.036,3.45-.012.713.047,1.425.083,2.138.041.824.041,1.654.123,2.467.018.121.024.231.035.34.009.076.017.153.024.225s.018.159.024.236c.006.053.012.106.017.164a.8.8,0,0,1,.012.118c.024.218.047.436.071.654.017.147.034.293.051.445-.545.161-1.091.315-1.641.452.025-.008.05-.016.075-.022-.148.032-.3.059-.446.081a1.134,1.134,0,0,1-.141.012h-.1a1.265,1.265,0,0,0-.689,2.385.893.893,0,0,0,.165.071,1.967,1.967,0,0,0,.7.111,3.676,3.676,0,0,0,.713-.076c.553-.1,1.105-.243,1.652-.393.095.748.227,1.5.344,2.24.118.765.2,1.548.353,2.308.33,1.637.619,3.286.99,4.911.765,3.4,1.56,6.8,2.32,10.2.282,1.257.575,2.509.86,3.765q-.971.165-1.935.354h.035a1.2,1.2,0,0,0-1.012.794,1.25,1.25,0,0,0,.742,1.579,1.471,1.471,0,0,0,.447.065,9.764,9.764,0,0,0,1.419-.253c.284-.045.568-.094.852-.142.343,1.5.679,3.008,1.029,4.509.43,1.819.954,3.615,1.479,5.411q.4,1.359.848,2.7c-.981-.336-1.953-.695-2.908-1.1-.034-.015-.067-.034-.1-.049l.017-.014a1.243,1.243,0,0,0,1.089-.966,1.278,1.278,0,0,0-.96-1.5,1.734,1.734,0,0,0-1.354.271,7.357,7.357,0,0,0-1.155,1.048q-1.127-.6-2.223-1.25a59.6,59.6,0,0,1-6.089-4.252,48.057,48.057,0,0,1-4.033-3.651.165.165,0,0,1,.023.03.329.329,0,0,0-.041-.047l-.159-.159.071.07A46.118,46.118,0,0,1,72.075,303.225Zm-3.3,16.494c.554-.747,1.119-1.483,1.655-2.237l.007-.007c.006-.011.017-.023.023-.034l.005-.006.019-.02v0l0-.006.013-.017,0,0c.01-.015.019-.028.031-.044l.018-.017h0c.05-.067.1-.128.151-.19.088-.106.177-.217.265-.329.04-.045.075-.093.113-.139l-.007.015c.094-.124.188-.241.283-.359l-.012.012c.171-.207.336-.413.5-.625l-.041.059c.224-.276.448-.559.672-.836l-.018.018c.489-.589.971-1.178,1.46-1.761a1.321,1.321,0,0,0,.33-.7,1.34,1.34,0,0,0-.111-.667q1.532,1.434,3.186,2.732a57.1,57.1,0,0,0,8.17,5.371c-.237.336-.479.671-.693,1.02-.442.707-.883,1.413-1.319,2.126-.707,1.142-1.337,2.344-1.99,3.521l-.1.175c-1.347-.5-2.68-1.037-4-1.594-.047-.018-.088-.036-.135-.059.035.017.071.029.112.047a31.753,31.753,0,0,1-3.448-1.8,17.78,17.78,0,0,1-1.7-1.172c-.029-.029-.058-.053-.088-.082a1.244,1.244,0,0,0-1.99-1.308,1.844,1.844,0,0,0-.63.966,2.033,2.033,0,0,0,.382,1.578,6.062,6.062,0,0,0,1.531,1.39,23.41,23.41,0,0,0,2.267,1.425,34.13,34.13,0,0,0,3.3,1.619c.677.289,1.354.583,2.037.872-.053-.024-.106-.047-.153-.07.265.129.554.223.831.329l.1.039c-.588,1.24-1.147,2.49-1.62,3.777-.135.376-.277.753-.412,1.136-.065.136-.136.277-.2.413-.336.682-.619,1.4-.925,2.09-.341.783-.706,1.566-1.036,2.361q-.862,2.079-1.694,4.172c-1.072-.182-2.143-.364-3.212-.562-1.142-.206-2.279-.442-3.415-.689-.477-.107-.942-.236-1.419-.353-.271-.066-.542-.124-.813-.189a2.213,2.213,0,0,0-.983-.082,1.41,1.41,0,0,0-.406,2.644c.006,0,.012,0,.017.011a1.248,1.248,0,0,0,.777.154c.913.188,1.82.429,2.738.635,1.066.236,2.132.442,3.2.654.825.163,1.654.31,2.482.458-.273.719-.557,1.434-.821,2.157q-1.251,3.41-2.443,6.84c-.545-.089-1.089-.182-1.635-.254-.011,0-.022,0-.037-.009h-.007c-2.179-.412-4.375-.683-6.523-1.26l0,.006a29.854,29.854,0,0,1-3.159-1.042l.071.036c-.023-.012-.047-.024-.076-.036a.424.424,0,0,0-.071-.029c.024.006.047.018.065.023-.265-.123-.524-.253-.783-.394-.171-.106-.342-.218-.507-.336a1.219,1.219,0,0,0-.824-1.089,1.344,1.344,0,0,0-1.4.335,1.445,1.445,0,0,0-.341,1.4,2.072,2.072,0,0,0,.4.754,4.723,4.723,0,0,0,.742.671,9.843,9.843,0,0,0,2.043,1.1c.813.324,1.643.578,2.479.825.866.253,1.732.483,2.609.665.936.195,1.872.359,2.809.512.689.118,1.378.26,2.067.354l1.236.195q-1.672,4.882-3.216,9.809c-.922,2.954-1.847,5.918-2.727,8.888-1.125-.115-2.251-.219-3.382-.3-1.077-.077-2.155-.13-3.232-.207s-2.132-.188-3.2-.324a4.632,4.632,0,0,0-1.012-.1,1.26,1.26,0,0,0-1.19,1.137c-.006.065-.006.135-.006.2,0-.053.006-.106.006-.159a1.257,1.257,0,0,0,1.29,1.354.8.8,0,0,0,.235-.035c2.232.347,4.487.447,6.742.624,1,.077,2,.186,3,.3-.273.909-.543,1.82-.8,2.736-.453,1.619-.936,3.232-1.354,4.864-.236.918-.471,1.842-.7,2.761-.2.748-.4,1.49-.571,2.238-.377,1.636-.783,3.262-1.125,4.905-.349,1.667-.7,3.333-1.028,5-1.007-.05-2.014-.126-3.023-.2-.913-.071-1.825-.254-2.738-.354a37.546,37.546,0,0,1-3.949-.847,15.52,15.52,0,0,1-1.5-.524c-.153-.071-.306-.148-.453-.23a1.275,1.275,0,0,0-2.338.753,1.581,1.581,0,0,0,.636,1.155,5.1,5.1,0,0,0,1.06.6,9.623,9.623,0,0,0,1.137.441,29.992,29.992,0,0,0,5.128,1.178c.807.106,1.62.217,2.432.323.6.083,1.207.119,1.814.165.439.036.879.065,1.319.092-.123.668-.259,1.334-.372,2.005-.3,1.767-.571,3.539-.83,5.311-.241,1.654-.4,3.321-.559,4.988-.147,1.5-.212,3.008-.248,4.51-.023.907-.041,1.82-.052,2.726,0,.2.006.41,0,.614-.445.086-.891.161-1.342.217-.5.041-.989.053-1.49.047.018,0,.036.006.053.006-.041,0-.076-.006-.112-.006h-.035a13.485,13.485,0,0,1-1.378-.124c-.247-.047-.489-.094-.73-.165s-.483-.165-.718-.264a10.5,10.5,0,0,1-1-.513c-.324-.2-.631-.412-.931-.636-.276-.236-.547-.477-.807-.736-.275-.3-.527-.619-.776-.952q-.5-.718-.931-1.474a23.291,23.291,0,0,1-.984-2.12A26.665,26.665,0,0,1,42,413.982c.006.029.012.053.018.082l-.036-.159a.228.228,0,0,0-.012-.047c0,.012.007.024.007.035a41.542,41.542,0,0,1-.707-4.263v.006a53.373,53.373,0,0,1-.206-6.654c0,.023-.006.047-.006.076.041-1.86.141-3.715.318-5.558.171-1.737.388-3.475.612-5.2q.813-4.772,1.643-9.54c.161-.911.38-1.82.589-2.73q.172-.657.346-1.315c.466-1.749.9-3.515,1.4-5.253-.018.065-.041.13-.059.189l1.236-4.028c.413-1.343.8-2.691,1.249-4.022Q49.4,362.6,50.4,359.613c.942-2.8,1.967-5.57,2.956-8.355.541-1.531,1.089-3.068,1.643-4.6.594-1.667,1.172-3.345,1.79-5,.324-.854.63-1.714.948-2.567.282-.772.542-1.555.848-2.309.3-.72.571-1.449.85-2.175.068-.129.136-.258.2-.386.253-.483.488-.983.765-1.455.348-.583.7-1.171,1.042-1.755.918-1.537,1.825-3.075,2.743-4.607a.108.108,0,0,0-.01.027c1.089-1.667,2.214-3.31,3.321-4.965C67.9,320.868,68.346,320.3,68.775,319.719Zm42.906,24.73,0-.015,0,.024-.007.052c0-.009,0-.018,0-.028l-.008.046a.392.392,0,0,0-.006.052l.006-.029-.008.047,0,.03v-.011c-.551,3.246-1.177,6.474-1.8,9.7-.435,2.258-.945,4.5-1.467,6.739-.367.814-.729,1.632-1.095,2.447-.53,1.2-1.125,2.356-1.708,3.527-.612,1.231-1.213,2.473-1.867,3.686-.381.71-.77,1.418-1.154,2.127.2-.559.4-1.119.578-1.685q.963-3.065,1.926-6.142c.406-1.313.753-2.638,1.119-3.963.412-1.507.847-3,1.236-4.516.854-3.315,1.72-6.63,2.532-9.963.371-1.532.748-3.057,1.119-4.587.389-1.608.754-3.227,1.16-4.835.012.353.018.707.012,1.06C112.162,340.309,111.959,342.373,111.681,344.449ZM38.456,390.534a92.153,92.153,0,0,1,2.35-10.788c0,.012-.006.018-.006.03.011-.036.017-.071.029-.1s.01-.041.015-.058v0c.123-.422.246-.844.375-1.259.1-.342.2-.684.306-1.025-.239,1.059-.472,2.122-.707,3.184l-.018.066.012-.04-.041.183c-.093.361-.173.724-.254,1.088-.224.942-.441,1.884-.659,2.826-.289,1.231-.619,2.467-.86,3.71q-.42,2.183-.835,4.374c.1-.79.2-1.579.323-2.366C38.473,390.416,38.468,390.475,38.456,390.534Zm62.2-7.113,0,.015,0-.009,0,.012c-.007.018-.015.036-.024.058l0-.018c-.653,1.448-1.368,2.868-2.043,4.293s-1.389,2.862-2.037,4.311c-.276.464-.518.942-.777,1.413-.571,1.042-1.143,2.078-1.714,3.121-.871,1.583-1.778,3.15-2.614,4.745-.253.425-.506.848-.76,1.273.036-.053.071-.113.106-.165a115.915,115.915,0,0,1-8.595,12.5,65.391,65.391,0,0,1-5.758,6.273,50.653,50.653,0,0,1-4.631,3.876l.01-.009a46.587,46.587,0,0,1-4.888,3.092A35.925,35.925,0,0,1,62.975,430c.024-.006.048-.017.071-.023a25.307,25.307,0,0,1-2.767.859c-.69.147-1.39.265-2.091.354a18.759,18.759,0,0,1-2.143.111c-.524-.017-1.048-.065-1.572-.123a19.78,19.78,0,0,1-2.12-.454,19.057,19.057,0,0,1-1.807-.642l.011.007-.026-.013-.027-.011-.018-.006c-.025-.012-.05-.025-.075-.036l.063.024c-.087-.039-.167-.09-.253-.131.213.01.428.037.641.037.571,0,1.142-.029,1.719-.083a35.062,35.062,0,0,0,3.675-.623,20.085,20.085,0,0,0,3.08-.872,19.641,19.641,0,0,0,2.891-1.29c.642-.365,1.3-.712,1.931-1.1,1.443-.9,2.9-1.8,4.281-2.8.006,0,.006-.006.012-.006l.015-.012c.068-.051.141-.1.208-.153-.058.048-.123.088-.182.136.189-.136.383-.277.577-.419l-.053.036c.041-.03.088-.065.13-.094a.25.25,0,0,0,.036-.024c.241-.171.476-.342.723-.518s.519-.372.778-.563c.92-.668,1.831-1.36,2.7-2.092.554-.454,1.131-.9,1.649-1.39.53-.518,1.066-1.037,1.6-1.549.453-.441.859-.942,1.284-1.407.329-.365.647-.724.959-1.1.973-1.16,1.927-2.326,2.87-3.509.216-.272.432-.542.652-.815h0l.014-.016,0,0,.012-.015,0,0c1.058-1.293,2.058-2.65,3.058-3.99q1.352-1.818,2.585-3.721c1.749-2.673,3.451-5.376,5.188-8.055,3.12-4.811,6.217-9.647,9.1-14.608q-.844,2.028-1.676,4.062C100.671,383.386,100.664,383.4,100.655,383.421Zm15.586-50.759-.009.054,0,.023v-.011l-.006.034v.009c-.235,1.424-.447,2.854-.665,4.278-.1.635-.22,1.266-.347,1.9a20.619,20.619,0,0,0-.017-2.385,23.949,23.949,0,0,0-.383-3.38,4.579,4.579,0,0,0-.518-1.348,2.186,2.186,0,0,0-.907-.789,1.914,1.914,0,0,0-2.043.359,2.8,2.8,0,0,0-.777,1.137c-.171.406-.312.83-.454,1.254-.324.959-.595,1.955-.83,2.938-.212.871-.418,1.743-.63,2.615-.353,1.442-.7,2.879-1.054,4.322-.418,1.7-.813,3.409-1.254,5.111q-.733,2.844-1.478,5.688c-.766,2.95-1.59,5.883-2.415,8.809-.559,1.8-1.124,3.6-1.689,5.4-.207.648-.389,1.3-.619,1.943-.791,2.238-1.646,4.452-2.588,6.631s-2,4.3-3.112,6.383c.035-.06.071-.118.106-.171-1.16,1.919-2.3,3.874-3.421,5.818-.147.229-.312.447-.459.671-.389.559-.772,1.125-1.154,1.69-.607.895-1.219,1.79-1.826,2.685-.159.23-.347.447-.518.671-.412.53-.824,1.066-1.237,1.6-.594.766-1.195,1.525-1.778,2.3-.035.046-.077.094-.118.141-.689.813-1.372,1.631-2.061,2.443-.441.525-.865,1.06-1.325,1.573-1.136,1.283-2.237,2.6-3.391,3.869-2.6,2.855-5.07,5.829-7.85,8.52l.013-.008a.255.255,0,0,0-.03.026c-.035.041-.077.076-.112.112l.065-.065a34,34,0,0,1-3,2.52,32.834,32.834,0,0,1-3.292,2.038,41.406,41.406,0,0,1-4.418,2.011q.086-.51.172-1.022c.177-1.066.359-2.132.536-3.2.424-2.526.842-5.052,1.272-7.578q.614-3.575,1.234-7.144c.189-.019.379-.031.568-.052,1.749-.2,3.492-.454,5.229-.748a1.3,1.3,0,1,0-.436-2.555c-1.112.188-2.231.388-3.356.524-.516.064-1.032.123-1.548.184q.1-.559.193-1.12c.236-1.337.483-2.668.725-3.993.282-1.537.541-3.073.859-4.6q.627-3.029,1.254-6.053c.307-1.484.683-2.956,1.031-4.428q.189-.8.377-1.586a1.326,1.326,0,0,0,1.087-1.152,1.261,1.261,0,0,0-.521-1.113c.018-.069.034-.138.052-.206.483-1.808.948-3.621,1.443-5.424-.018.059-.036.118-.053.177.112-.377.229-.76.341-1.142q.513-1.7,1.025-3.4c.188-.63.365-1.26.565-1.884q.892-2.712,1.755-5.429c.158-.492.319-.981.478-1.472.239.034.478.073.718.106.471.07.931.141,1.4.206.412.065.83.117,1.242.177a1.444,1.444,0,0,0,.147,0A1.28,1.28,0,0,0,76.5,355.6c-.371-.053-.742-.1-1.119-.148-.552-.088-1.11-.159-1.667-.233q.84-2.572,1.672-5.149c.408-1.267.8-2.542,1.2-3.812.129.022.258.044.387.068a1.516,1.516,0,0,0,.277.023,1.413,1.413,0,0,0,1.407-1.1,1.427,1.427,0,0,0-1.078-1.684l-.139-.025c.311-1,.631-2,.94-3,.471-1.519.972-3.033,1.478-4.546.177-.53.36-1.054.548-1.578.324-.683.665-1.354.989-2.037.377-.8.783-1.578,1.19-2.361l.006-.012.515.188c1.531.566,3.074,1.083,4.611,1.631a1.265,1.265,0,0,0,.441.077,1.328,1.328,0,0,0,.454-2.58c-1.593-.566-3.192-1.113-4.789-1.666l.034-.065c.529-.965,1.03-1.955,1.6-2.9l-.088.14c.589-.948,1.178-1.9,1.755-2.855.209-.3.419-.6.628-.9a39.593,39.593,0,0,0,4.214,1.681c1.425.465,2.873.9,4.328,1.272a69.407,69.407,0,0,0,8.02,2.568,56.008,56.008,0,0,0,12.4,1.766c-.144,1.445-.3,2.89-.477,4.327ZM183.926,419.8c-.271.43-.565.837-.878,1.243-.247.3-.512.594-.788.877-.348.318-.7.613-1.072.89a13.1,13.1,0,0,1-1.19.735c-.341.171-.689.33-1.042.471-.477.171-.96.319-1.448.448l-.254.053c.4-.188.8-.4,1.184-.624a23.928,23.928,0,0,0,5.37-4.423c.242-.259.483-.529.713-.794C184.338,419.058,184.138,419.434,183.926,419.8Zm-6.972-119.087c.059.188.118.383.177.571.341,1.095.695,2.191,1.042,3.286.636,2,1.284,3.986,1.925,5.982.672,2.085,1.325,4.169,1.961,6.266q.141.573.283,1.148c.459,1.808.919,3.615,1.366,5.423.5,2.4.978,4.8,1.46,7.2.148.73.324,1.466.442,2.2.159,1,.318,1.984.477,2.974.324,1.978.63,3.963.96,5.941.1.595.159,1.189.235,1.784.165,1.272.336,2.544.5,3.822q.642,4.884,1.162,9.786l0-.006c.259,2.539.506,5.077.777,7.608a1.769,1.769,0,0,1-.023-.2c.188,2.414.347,4.829.53,7.243.029.353.017.706.029,1.06.018.777.041,1.554.059,2.338.035,1.183.064,2.367.094,3.55,0-.047.006-.088.006-.135-.024.919-.047,1.831-.065,2.749-.041,1.643-.059,3.281-.171,4.917-.088,1.261-.176,2.515-.265,3.775-.035.553-.064,1.107-.123,1.661-.118,1.113-.236,2.231-.354,3.344-.082.784-.135,1.572-.247,2.344-.247,1.743-.5,3.474-.736,5.211-.271,1.519-.524,3.05-.813,4.575-.612,1.255-1.283,2.48-2,3.68.01-.013.02-.029.03-.045-.022.037-.044.076-.066.111-.007.013-.016.025-.024.037l0,0,0,0a.113.113,0,0,0-.016.026v0a43.941,43.941,0,0,1-2.816,4.018c-.577.7-1.166,1.39-1.79,2.044-.2.12-.407.235-.61.346a20.239,20.239,0,0,1-1.9.884,13.635,13.635,0,0,1-1.337.424c.006-.006.018-.006.03-.012-.513.118-1.025.212-1.543.283a14.851,14.851,0,0,1-1.59.071c-.294-.016-.589-.036-.883-.072-.322-.053-.638-.123-.954-.2-.454-.135-.9-.294-1.331-.471-.471-.211-.93-.447-1.372-.7-.324-.2-.63-.418-.936-.642a17.385,17.385,0,0,1-1.555-1.442l.012.014a29.381,29.381,0,0,1-2.372-2.853,52.084,52.084,0,0,1-3.106-5.087l.013.023a83.41,83.41,0,0,1-4.231-9.424,119.943,119.943,0,0,1-4.389-14.577l.035.171q-.645-2.775-1.189-5.565c-.177-.936-.348-1.866-.513-2.8s-.347-1.867-.459-2.809q-.177-1.44-.353-2.879-.495-4.152-1.007-8.3c-.147-2.279-.312-4.558-.477-6.842-.112-1.649-.242-3.3-.312-4.953-.153-3.727-.33-7.454-.418-11.181-.036-1.255-.065-2.509-.094-3.757-.012-.5-.036-.99-.036-1.484.024-1.867.041-3.739.065-5.606.112-1.354.218-2.714.33-4.069.176-1.125.347-2.255.559-3.38a1.308,1.308,0,1,0-2.556-.553c-.135.718-.247,1.437-.359,2.155-.082.512-.2,1.036-.241,1.554-.1,1.284-.2,2.567-.3,3.858-.071.912-.042,1.836-.048,2.755-.011,1.19-.023,2.385-.035,3.574-.006.654.03,1.307.047,1.961.036,1.278.065,2.562.094,3.845s.077,2.6.13,3.892q.141,3.525.289,7.043c.052,1.242.153,2.473.235,3.71l.477,7c.082,1.19.247,2.374.389,3.557q.441,3.639.871,7.29c.4,3.35,1.031,6.671,1.737,9.969a124.778,124.778,0,0,0,4.116,14.933,80.94,80.94,0,0,0,5.965,13.579,38.362,38.362,0,0,0,4,5.953,16.845,16.845,0,0,0,4.935,4.239,12.806,12.806,0,0,0,4.681,1.419c-.247.054-.494.095-.748.136-.288.024-.577.035-.865.047-.465-.018-.919-.053-1.378-.112-.336-.059-.665-.129-1-.212-.4-.129-.795-.27-1.184-.43a21.362,21.362,0,0,1-2.108-1.095,25.527,25.527,0,0,1-2.168-1.546v0a29.669,29.669,0,0,1-2.6-2.432,37.642,37.642,0,0,1-2.72-3.315,49.8,49.8,0,0,1-3.074-4.928.471.471,0,0,1,.03.059,1.137,1.137,0,0,0-.059-.107.78.78,0,0,0-.035-.071l0,.013-.019-.038-.01-.015.008.011a68.994,68.994,0,0,1-3.494-7.719c.012.029.018.053.029.082-.4-1.06-.806-2.131-1.124-3.221-.171-.577-.336-1.16-.507-1.742-.341-1.179-.671-2.362-1.024-3.54-.359-1.548-.707-3.1-1.06-4.651-.3-1.325-.536-2.668-.789-4-.625-3.286-1.184-6.577-1.655-9.887-.247-1.73-.518-3.45-.724-5.187-.224-1.908-.448-3.81-.678-5.718-.188-2.1-.388-4.2-.588-6.294-.183-1.979-.265-3.975-.4-5.96-.1-1.525-.147-3.056-.2-4.586-.059-1.584-.129-3.169-.141-4.753-.012-1.542-.053-3.079-.053-4.622.012-.147.023-.3.035-.448.136-1.689.318-3.379.477-5.069.153-1.573.318-3.145.483-4.723.094-.866.182-1.731.271-2.6q.088-.838.176-1.678c.036-.4.089-.8.112-1.2.008-.114,0-.228.007-.342,2.062-1.162,4.088-2.389,6.052-3.71.253-.118.506-.235.754-.354a58.467,58.467,0,0,0,7.184-4.063,66.96,66.96,0,0,0,12.465-10.669c1.357-1.5,2.643-3.061,3.874-4.664C175.726,297.87,176.356,299.281,176.954,300.712Zm20.026-80.385c-.047.954-.094,1.9-.141,2.85-.018.336-.012.689-.053,1.025-.342,2.755-.719,5.506-1.042,8.267-.289,1.36-.56,2.733-.843,4.1l-.583,2.851c-.082.394-.141.806-.241,1.195-.754,2.82-1.549,5.635-2.3,8.461-.118.389-.259.766-.383,1.154-.342,1.025-.677,2.055-1.019,3.08-.341,1.042-.683,2.085-1.03,3.121-.153.477-.289.966-.471,1.431-1.131,2.938-2.238,5.877-3.374,8.815-1.166,2.673-2.421,5.3-3.616,7.949-.171.377-.394.742-.595,1.1-.459.848-.912,1.7-1.372,2.538-.677,1.243-1.354,2.479-2.019,3.722q-1.1,1.706-2.2,3.427c-.483.754-.971,1.508-1.454,2.267-.183.283-.354.594-.56.871-1.775,2.347-3.445,4.78-5.273,7.091h0a103.256,103.256,0,0,1-9.139,10.051c.006,0,.012,0,.018-.011-.024.023-.053.047-.076.071a.107.107,0,0,0-.023.021,78.616,78.616,0,0,1-6.5,5.449c-.012.006-.018.006-.023.012a.185.185,0,0,0-.053.029l.005,0a64.514,64.514,0,0,1-7.442,3.368c-3.357,1.259-6.772,2.361-10.187,3.456-1.414.454-2.821.907-4.234,1.354-2.4.748-4.793,1.514-7.243,2.12-1.292.3-2.595.534-3.9.733.006-.077.009-.154.015-.231a1.224,1.224,0,0,0-.936-1.39,1.2,1.2,0,0,0-1.39.772,4.888,4.888,0,0,0-.126,1.142c-1.324.11-2.65.177-3.982.158a54.993,54.993,0,0,1-6.14-.56l.005.006q-3.459-.571-6.888-1.355c-.773-1.545-1.6-3.061-2.389-4.6-.53-1.025-1.019-2.067-1.514-3.109-.188-.4-.335-.813-.494-1.225-.189-.483-.371-.96-.56-1.443-.3-.989-.63-1.967-.889-2.962q-.216-.837-.432-1.672c.369-.046.738-.1,1.108-.141,2.632-.33,5.27-.63,7.908-.937a1.256,1.256,0,0,0,1.019-1.448,1.275,1.275,0,0,0-1.443-1.025c-2.555.307-5.1.6-7.655.93q-.768.1-1.538.2-.7-3.009-1.328-6.038c-.689-3.268-1.337-6.548-1.849-9.851-.247-1.59-.524-3.174-.713-4.77L89,279.221c1.074-.3,2.149-.6,3.221-.9,2.361-.677,4.746-1.284,7.119-1.9a1.331,1.331,0,1,0-.783-2.544c-2.343.612-4.681,1.254-7.019,1.885-.946.259-1.886.54-2.827.808-.156-1.832-.308-3.656-.46-5.49-.123-1.466-.194-2.927-.271-4.392-.082-1.567-.194-3.127-.212-4.694-.017-1.961-.041-3.922-.058-5.882q.043-1.538.1-3.086.03-.843.056-1.69.276-2.407.553-4.815c.1,0,.193.012.289.016,1.425.065,2.85.135,4.275.135.059,0,.118,0,.177,0,1.625-.012,3.244-.041,4.869-.107a1.34,1.34,0,1,0-.111-2.678c-1.367.052-2.727.082-4.087.106-1.025.011-2.049-.012-3.074-.012h.171c-.735-.023-1.467-.063-2.2-.094.493-4.2,1.012-8.4,1.632-12.58l0,.011c.324-1.788.659-3.576.988-5.358.265-1.449.648-2.874.989-4.3.307-1.3.619-2.58.972-3.863.459-1.679.924-3.357,1.372-5.035-.012.053-.029.106-.041.159.038-.131.073-.262.111-.393,1.314.133,2.629.263,3.94.413a1.024,1.024,0,0,0,.135.011,1.333,1.333,0,0,0,.094-2.661c-1.146-.13-2.294-.231-3.441-.341q.648-2.3,1.3-4.6l-.006.006c.807-2.815,1.59-5.641,2.379-8.462-.012.054-.029.1-.041.154.842-2.933,1.655-5.871,2.479-8.81-.012.054-.029.1-.041.154q.91-3.074,1.8-6.156c1.387.37,2.8.66,4.215.91a1.879,1.879,0,0,0,.248.017,1.307,1.307,0,0,0,.312-2.585c-.948-.159-1.9-.324-2.833-.536-.4-.092-.806-.184-1.209-.281.651-2,1.272-4.013,1.92-6.014.312-.972.688-1.926,1.03-2.885.49-1.357.983-2.7,1.543-4.034a1.087,1.087,0,0,0,.175-.41v-.006a24.776,24.776,0,0,1,1.253-2.457q2.333,1.024,4.743,1.857c1.987,1.084,4.017,2.089,6.1,2.975a79.27,79.27,0,0,0,12.442,4.11c2.909.689,5.806,1.425,8.762,1.89a46.1,46.1,0,0,0,7.155.642c.306,0,.618-.006.924-.012a43.483,43.483,0,0,0,8.085-1.018,59.507,59.507,0,0,0,14.668-5.524,57.654,57.654,0,0,0,12.79-9.021c.332-.314.644-.648.97-.968.242-.157.479-.32.718-.48-.015.029-.041.049-.054.079a2.841,2.841,0,0,0-.288.866,4.4,4.4,0,0,0,.059,1.036c.053.365.1.736.153,1.107.041.335.094.668.145,1a1.8,1.8,0,0,0-.145.4,2.469,2.469,0,0,0-.006,1.313,2.321,2.321,0,0,0,.595.942c.051.054.114.087.169.135.085.289.157.581.261.867.518,1.367,1.077,2.715,1.607,4.075.666,1.826,1.319,3.663,1.843,5.547.277.984.577,1.967.819,2.962.271,1.095.535,2.2.806,3.292l-.053-.212c.678,3.215,1.4,6.424,1.908,9.68.265,1.708.583,3.416.778,5.135q.326,2.773.641,5.553c.083,1.2.171,2.414.254,3.627.053.777.111,1.561.164,2.344.018.271.054.548.054.819q.062,3.638.117,7.283C197.109,217.612,197.045,218.967,196.98,220.327Zm40.571-38.936c.76.425,1.513.86,2.255,1.314l-.053-.036a68.951,68.951,0,0,1,6.941,4.832l-.016-.015c.041.035.082.065.124.1.017.018.041.029.059.047-.018-.012-.03-.023-.047-.035q2.172,1.765,4.18,3.709c.151.191.3.388.445.578a.046.046,0,0,0,.02.023,1.032,1.032,0,0,0,.095.13,1,1,0,0,1-.065-.083,31.793,31.793,0,0,1,1.873,2.957v-.006c0,.006,0,.006,0,.011l.089.159c-.012-.018-.024-.035-.03-.047q.761,1.458,1.366,2.979a29.458,29.458,0,0,1,1.054,3.4V201.4a.036.036,0,0,0,.006.024c.009.046.019.088.031.133a.333.333,0,0,1-.013-.045,33.133,33.133,0,0,1,.612,3.594,37.045,37.045,0,0,1,.189,4.132,22.126,22.126,0,0,1-.2,2.249c0-.006,0-.018,0-.023,0,.011,0,.017,0,.029-.006.059-.018.112-.024.171a.563.563,0,0,1,.012-.094,26.33,26.33,0,0,1-.587,2.638c-.268.872-.574,1.723-.921,2.561.018-.035.03-.064.047-.1-.023.059-.053.118-.076.171,0,.006-.006.011-.006.018v-.007a26.377,26.377,0,0,1-1.437,2.786,29.388,29.388,0,0,1-1.765,2.531l.01-.011-.013.015-.016.02,0-.006a.24.24,0,0,1-.022.024l-.038.051a28.063,28.063,0,0,1-2.276,2.475,43.068,43.068,0,0,1-4.114,3.345,56.378,56.378,0,0,1-5.743,3.527.231.231,0,0,1,.041-.017c-.059.029-.112.058-.165.088-.011.006-.017.006-.023.012h0a60.574,60.574,0,0,1-6.29,2.878,39.307,39.307,0,0,1-4.581,1.409l.094-.018a1.425,1.425,0,0,0-.171.042c-.012,0-.023.006-.035.006l.015,0c-.857.193-1.72.363-2.583.51-1.189.065-2.372.094-3.556.094-1.154.006-2.3,0-3.457,0-1.319-.058-2.638-.094-3.962-.147-1.208-.041-2.415-.112-3.622-.165-.088-.006-.177-.006-.265-.011-1.119-.225-2.232-.5-3.333-.808q-1.2-.466-2.379-.977l.036.018c-.889-.395-1.767-.795-2.65-1.2-.336-.152-.671-.294-1-.459-.214-.107-.43-.22-.649-.327.037-.293.076-.585.113-.878.094-.7.183-1.39.271-2.085.035-.283.088-.565.112-.848q.114-1.5.229-3c.065-.9.171-1.8.2-2.7V223c.035-1.62.076-3.239.112-4.852.029-1.267-.018-2.532-.053-3.8-.036-1.249-.042-2.5-.136-3.739-.129-1.708-.265-3.41-.394-5.117-.065-.836-.212-1.679-.324-2.509-.153-1.184-.306-2.361-.459-3.539-.1-.777-.277-1.548-.419-2.314-.223-1.2-.441-2.409-.659-3.61-.13-.7-.306-1.4-.465-2.1-.289-1.283-.577-2.562-.86-3.845-.436-1.931-.936-3.845-1.407-5.765q-1.352-5.5-2.85-10.958c-.3-1.091-.613-2.177-.921-3.265.145.053.285.115.432.166.494.176,1,.342,1.489.512,1.219.412,2.432.836,3.645,1.248,1.1.372,2.214.7,3.321,1.043,1.049.33,2.091.707,3.145,1,1.254.4,2.532.748,3.792,1.125,1.093.317,2.186.664,3.285.97l0,0c2.283.665,4.577,1.277,6.872,1.9l-.007,0c1.135.335,2.287.623,3.428.929,1.178.312,2.355.677,3.539.948,1,.306,2.026.565,3.038.848.99.277,1.985.565,2.98.836h.006l.1.034c-.271.789-.521,1.585-.716,2.4a1.566,1.566,0,0,0,1.1,1.9,1.476,1.476,0,0,0,.374.048,1.555,1.555,0,0,0,1.522-1.149c.135-.607.3-1.2.494-1.8l-.013.036q.079-.237.161-.474l.2.064C236.026,180.532,236.791,180.968,237.551,181.391Zm17.855-55.435c.091-.264.185-.526.274-.79.207.086.421.152.634.225a2.171,2.171,0,0,0-.847.5C255.445,125.91,255.427,125.935,255.406,125.956Zm14.8-10.272c-.027.3-.071.6-.126.894-.052.207-.106.41-.165.614-.1.279-.209.552-.333.819q-.139.252-.288.5c-.194.277-.393.54-.607.8-.314.349-.643.673-.987.99-.345.291-.7.565-1.071.821-.464.3-.933.561-1.418.809l-.109.051c-.29.08-.581.152-.876.217-.545.1-1.09.166-1.639.211-.152,0-.3.009-.455.01-.259-.035-.517-.076-.776-.124l.038.006c-.546-.118-1.082-.268-1.617-.437a19.794,19.794,0,0,1-1.9-.786,19.492,19.492,0,0,1-1.76-1c-.475-.324-.928-.672-1.368-1.04a18.439,18.439,0,0,1-1.362-1.334,12.936,12.936,0,0,1-.842-1.094c-.224-.363-.429-.731-.62-1.108q-.238-.524-.431-1.063c-.089-.291-.167-.58-.231-.874-.036-.22-.066-.435-.086-.655-.008-.278-.008-.554,0-.832.037-.142.077-.283.119-.422.109-.308.231-.608.366-.906.136-.26.279-.511.432-.761v0l0,0c.227-.33.467-.651.729-.964a11.7,11.7,0,0,1,.909-.914q.219-.186.446-.36c.131-.019.263-.033.4-.044.2,0,.393,0,.591.01l.184.021a12.715,12.715,0,0,1,1.254.353c.45.163.9.343,1.345.518a1.3,1.3,0,0,0,.984-2.4c-.206-.08-.411-.161-.618-.24.255-.035.512-.062.771-.083.309-.011.615-.011.925,0,.328.029.649.07.978.125q.63.139,1.248.335c.47.164.935.352,1.392.559a13.506,13.506,0,0,1,1.253.717,17.26,17.26,0,0,1,1.444,1.1,19.666,19.666,0,0,1,1.473,1.443,13.112,13.112,0,0,1,.988,1.263c.226.35.426.707.62,1.076.192.414.366.833.516,1.262q.115.381.2.763c.031.189.058.377.078.571S270.216,115.487,270.209,115.684Z"/></svg>