<svg xmlns="http://www.w3.org/2000/svg" width="147.454" height="311.216" viewBox="0 0 147.454 311.216"><path d="M147.441,57.948c0-.519,0-1.039-.036-1.564a9.1,9.1,0,0,0-.411-2.606,1.033,1.033,0,0,0-.146-.256q.111-1.4.189-2.8l-.015.2c.07-1.093.1-2.2.105-3.3,0-.561-.009-1.124-.029-1.682a5.6,5.6,0,0,0-.344-2.219,1.564,1.564,0,0,0-2.027-.842,2.1,2.1,0,0,0-.968.793,4.724,4.724,0,0,0-.5,1.451c-.063.273-.1.55-.158.825a7.673,7.673,0,0,0-1.423-4.738,15.621,15.621,0,0,0-4.6-4.211,26.811,26.811,0,0,0-6-2.731,47.081,47.081,0,0,0-6.707-1.589c-.9-.151-1.808-.256-2.711-.39-.4-.059-.8-.1-1.2-.141a49.935,49.935,0,0,0-13.546-2.633c-1.255-.067-2.5-.09-3.757-.1-.986,0-1.972.01-2.962,0-.751-.007-1.507.051-2.257.075-.788.035-1.572.047-2.363.1h.012l-.338.025c.06-.008.121-.01.187-.017-.217.016-.435.031-.652.048h.019c-.091.006-.182.014-.267.016h-.006a.338.338,0,0,1-.083.008c-.374.02-.75.051-1.125.076.061-.008.121-.01.188-.016-.242.019-.477.033-.72.053l.022,0-.162.014.008,0c-.08.011-.157.01-.23.016a.205.205,0,0,0,.043,0c-.031,0-.061,0-.091,0l-.073.006h.031l-.022,0a.082.082,0,0,1,.027,0h-.033c-.95.061-1.893.18-2.838.282-.431.041-.863.124-1.3.182-.246.036-.492.077-.737.118l-.012-1.359c-.005-1.5.062-3,.1-4.509.091-1.113.184-2.238.269-3.352.041-.53.153-1.055.229-1.58.078-.5.15-1,.223-1.5.2-.892.377-1.793.575-2.686.092-.408.232-.815.347-1.213.129-.45.264-.9.386-1.345l-.069.2c.282-.825.535-1.66.867-2.464.2-.474.372-.971.593-1.435l.579-1.211c-.016.022-.025.044-.041.065.018-.032.034-.06.051-.092s.029-.062.04-.095l-.032.084c.411-.815.839-1.621,1.321-2.394.063-.091.127-.188.19-.279a2.692,2.692,0,0,0,.756-1.055,1.664,1.664,0,0,0-.12-1.417,1.581,1.581,0,0,0-1.177-.783.108.108,0,0,0-.041,0,.978.978,0,0,0,.06-.288A1.355,1.355,0,0,0,92.005.44a1.322,1.322,0,0,0-.958-.252A1.863,1.863,0,0,0,90.289,0a1.959,1.959,0,0,0-1.082.362,11.924,11.924,0,0,0-1.7,1.482c-.508.5-1.038.99-1.51,1.526.007,0,.015-.015.022-.02-1.1,1.23-2.181,2.464-3.235,3.732-.378.456-.746.922-1.121,1.381-.11.116-.224.228-.328.349.037-.047.074-.089.118-.135-.557.581-1.093,1.178-1.639,1.761-.518.564-1.057,1.106-1.554,1.686.037-.042.075-.09.112-.137-1.349,1.565-2.729,3.1-4.041,4.7-1.049,1.275-2.11,2.548-3.117,3.854-1.044,1.348-2.08,2.685-3.087,4.057-.541.738-1.084,1.483-1.62,2.224-.511.7-.979,1.423-1.469,2.136-.25.365-.488.737-.731,1.106-1.533-.042-3.066.082-4.6.153-.891.042-1.784.172-2.671.262-.765.075-1.53.186-2.293.285-1.488.186-2.974.4-4.458.6-1.791.243-3.574.517-5.361.779-.667.1-1.336.206-2,.322-.3.053-.608.1-.912.147-.42.027-.84.052-1.26.082.054,0,.109-.012.163-.015-.531.037-1.062.067-1.593.1l.162-.008c-.253.017-.5.03-.754.047.054,0,.109-.006.168-.008-.059,0-.115.011-.175.013l.073-.007c-.054,0-.115.011-.169.014-.41.021-.82.077-1.227.123-.578.064-1.156.129-1.731.211-1.154.153-2.3.331-3.442.551a58.5,58.5,0,0,0-6.368,1.549A39.394,39.394,0,0,0,14.54,40.58a30.384,30.384,0,0,0-5.073,4.511,19.6,19.6,0,0,0-2.721,3.8l-.005.006.005-.006-.013.022c-.3.362-.581.747-.864,1.128a25.757,25.757,0,0,0-2.6,4.162,11.192,11.192,0,0,0-1.328,6.178,9.08,9.08,0,0,0,.877,2.923,10.977,10.977,0,0,0,1.639,2.37A14.312,14.312,0,0,0,6.2,67.294c-.359,1.419-.731,2.833-.994,4.275-.287,1.605-.608,3.2-.831,4.816-.238,1.668-.487,3.334-.7,5Q3,86.712,2.313,92.029c-.385,3.04-.81,6.079-1.171,9.124-.2,1.673-.424,3.343-.568,5.027q-.133,1.545-.275,3.1c-.069.765-.08,1.545-.12,2.315-.039.7-.078,1.4-.088,2.093-.006.608-.008,1.223-.014,1.831,0,.327-.022.665-.012.994.041.933.058,1.867.092,2.8.01.339.036.675.055,1.011-.051.481-.1.962-.136,1.445a28.619,28.619,0,0,0,.282,6.686A30.986,30.986,0,0,0,1.7,133.813c.185.532.382,1.067.566,1.606.123.336.225.688.373,1.017.366.808.712,1.63,1.052,2.451.132.315.3.618.454.924q.329.664.655,1.328a20.529,20.529,0,0,0,3.333,4.911c.193.208.415.382.624.571q.024,1.11.057,2.222c.043,1.626.072,3.263.067,4.893,0,.042,0,.084,0,.125,0-.031,0-.061,0-.094v.13l0,.025,0-.022c0,.252,0,.5-.007.76q-.018,1.476-.032,2.952v.122c0,.23-.008.456-.008.683,0,.083-.005.166-.005.249,0,.036,0,.07,0,.106,0-.038,0-.073,0-.112l0,.116v0c-.025.874-.041,1.745-.061,2.615-.016.767-.048,1.537-.056,2.3v-.007C8.557,170,8.176,176.3,7.842,182.6c-.171,3.267-.349,6.533-.467,9.8-.061,1.68-.138,3.356-.181,5.033-.05,1.715-.133,3.43-.151,5.146a.549.549,0,0,0,0,.058v.012c0,.038,0,.074,0,.112-.022,1.539-.054,3.083-.076,4.622v-.006c0,.281-.007.566-.011.848v.083a.147.147,0,0,0,0-.021c0,.033,0,.066,0,.1-.019.946,0,1.887,0,2.832,0,1.054-.006,2.115,0,3.17,0-.022,0-.043,0-.066-.013.685.009,1.375.014,2.057.017,1.178.024,2.35.042,3.523.017,1.5.053,3,.077,4.491.006.314.014.627.021.941,0,.068,0,.136-.007.2L7,228.693l-.06.754c-.148,1.844-.249,3.7-.438,5.533-.182,1.8-.294,3.61-.495,5.41-.2,1.77-.372,3.538-.573,5.307s-.417,3.56-.6,5.344c-.113,1.1-.226,2.2-.333,3.306-.079.757-.176,1.511-.22,2.274l0-.015c-.079,1.07-.147,2.137-.228,3.213-.056.8-.141,1.594-.162,2.391-.033,1.015-.054,2.033-.081,3.049-.023.814-.089,1.633-.064,2.449.065,2.322.08,4.653.307,6.966a36.767,36.767,0,0,0,1.382,7.354,32.533,32.533,0,0,0,2.528,5.938c.048.993.1,1.985.164,2.977,0-.066-.008-.133-.009-.2a16.261,16.261,0,0,0,.661,3.42c-.04.226-.07.453-.112.679a16.588,16.588,0,0,0-.391,2.335,4.773,4.773,0,0,0,.038,1.093,2.815,2.815,0,0,0,.6,1.287,8.469,8.469,0,0,0,2.443,2.058,21.844,21.844,0,0,0,5.742,2.145c.678.161,1.354.328,2.025.495.31.075.623.163.935.228a.281.281,0,0,0-.069-.018.544.544,0,0,1,.092.021l.018,0c.616.134,1.23.249,1.847.376,1.784.355,3.569.675,5.36.988.092.041.183.084.276.12.836.319,1.655.666,2.5.939l-.035-.006c.7.225,1.405.456,2.113.682l.017,0c.062.022.119.038.176.06a.285.285,0,0,0-.039-.019c.539.168,1.088.308,1.625.457s1.057.285,1.591.411c1.4.33,2.8.636,4.211.915.411.074.817.148,1.229.217.906.152,1.821.288,2.729.428.558.088,1.126.123,1.683.181.657.068,1.311.159,1.968.192-.065-.005-.137-.005-.2-.01.671.059,1.352.1,2.025.143.512.038,1.033.1,1.54.108.1.006.192.011.285.019l-.014,0c1,.063,2,.13,3,.186.03,0,.061,0,.092,0-.019,0-.031,0-.049,0,1.036.068,2.068.123,3.106.178l-.007,0c.13,0,.254.012.384.022l-.2-.014c1.324.084,2.648.091,3.967.127,1.141.036,2.285-.023,3.429-.046.528-.013,1.069,0,1.6-.031.46-.03.92-.072,1.374-.11,1.32-.107,2.633-.209,3.953-.323-.012,0-.024,0-.037.007.628-.039,1.249-.149,1.872-.23l.357-.046c.552.017,1.1.035,1.656.046.4.014.808-.014,1.209-.024.318-.007.635-.007.954-.026-.018,0-.03,0-.048,0,.036,0,.066-.006.1-.007l.078,0c-.012,0-.024,0-.036,0,.043,0,.09,0,.138-.006-.011,0-.024,0-.041,0,.048,0,.1-.008.145-.012a.245.245,0,0,0,.03,0H78c.193-.009.386-.019.579-.034-.011,0-.018,0-.03,0,.26-.017.526-.038.78-.055-.007,0-.019,0-.031.007a1.389,1.389,0,0,1,.169-.013h-.006l.139-.008c.591-.038,1.187-.134,1.783-.2.5-.053,1-.137,1.493-.215.258-.041.508-.076.76-.117.777.1,1.555.2,2.332.265q1.322.132,2.65.217c.867.068,1.723.086,2.586.105.767.015,1.52-.056,2.284-.094.794-.034,1.6-.115,2.386-.2,1.726-.182,3.458-.363,5.187-.563s3.43-.446,5.147-.678a27.878,27.878,0,0,0,10.474-3.218,20.816,20.816,0,0,0,2.727-1.877q.693-.568,1.366-1.172a1.183,1.183,0,0,0,.81.766.762.762,0,0,0,.1.023,1.227,1.227,0,0,0,1.381-.9c.2-.851.375-1.706.564-2.56.22-.2.447-.4.665-.605l-.024.025a22.218,22.218,0,0,0,3.974-4.612c.043-.073.077-.15.119-.224a1.525,1.525,0,0,0,.846.468l.053.009a1.481,1.481,0,0,0,1.61-1.1c.065-.309.118-.621.179-.931a1.2,1.2,0,0,0,.546.26.194.194,0,0,0,.054,0,1.26,1.26,0,0,0,1.4-1.091c.229-2.362.341-4.738.474-7.1.138-2.461.235-4.923.337-7.383.1-2.365.119-4.739.17-7.107.027-1.231.036-2.46.051-3.687q.035-3.243.062-6.482c.039-.246.075-.493.115-.738a1.108,1.108,0,0,0-.1-.664q.048-5.484.106-10.97c.022-2.379.039-4.758.091-7.138q.385-17.946.751-35.9.021-.975.039-1.951.195-3.278.38-6.554l0,.012c0-.017,0-.033,0-.053a.062.062,0,0,0,0-.03q.312-4.48.577-8.961l0,.017c.006-.034.007-.076.013-.111v-.011a1.02,1.02,0,0,1,.007-.112c.214-3.267.405-6.548.608-9.822l-.006.035c.006-.035.008-.067.011-.1a.827.827,0,0,0,0-.1.283.283,0,0,0,0-.059l0,.024a.759.759,0,0,0,.006-.107c.013-.224.028-.455.043-.685.011-.207.022-.414.039-.626,0-.095.008-.19.019-.29.038-.62.076-1.235.108-1.857q.072-1.178.145-2.358l0,.033c.012-.2.025-.41.042-.611.025-.509.057-1.018.088-1.526.031-.473.058-.951.084-1.426.009-.053.007-.112.011-.17a.936.936,0,0,0,.01-.13c0-.089.01-.171.012-.248.095-1.423.182-2.836.265-4.255.032-.514.064-1.022.1-1.536l-.009.159c.042-.709.09-1.424.13-2.127.015-.159.022-.313.031-.472,0-.084.011-.172.014-.261.005-.029,0-.059.01-.094.126-1.71.222-3.425.33-5.139.1-1.529.209-3.064.3-4.595,0,.053-.006.106-.009.16.321-4.412.59-8.827.905-13.24q.555-7.743,1.111-15.493c.132-1.787.253-3.576.379-5.364.113-1.671.232-3.34.344-5.005.054-.821.125-1.639.167-2.456,0,.053,0,.1-.008.154.208-3.19.369-6.381.541-9.571h0V98l0-.047,0-.011a.593.593,0,0,0,0-.084c.078-1.068.073-2.143.108-3.212q.073-2.038.135-4.079c.037-1.146,0-2.3,0-3.451,0-.5.014-1.007,0-1.5-.007-.223-.009-.447-.012-.67.054-.588.113-1.175.165-1.764.014-.166.028-.333.043-.5a26,26,0,0,0,2.946-6.922,63.944,63.944,0,0,0,1.708-9.941c.082-.8.188-1.617.227-2.422.047-1.025.1-2.048.162-3.066C147.474,59.536,147.44,58.736,147.441,57.948ZM9.29,137.587c-1.025-1.189-1.953-2.452-2.865-3.732a27.289,27.289,0,0,1-1.686-2.863,15.373,15.373,0,0,1-.686-1.648,20.03,20.03,0,0,1-.517-1.938v0a46.753,46.753,0,0,1-.574-4.734c0-.049-.009-.091-.013-.14q-.086-1.413-.185-2.828V119.7l0,.035,0-.045c.081-.693.169-1.386.271-2.079l-.027.163c.151-1.018.322-2.033.5-3.047.034.472.061.944.1,1.416.039.52.107,1.039.158,1.555.045.443.072.884.136,1.324a35.956,35.956,0,0,0,.869,4.648,19.819,19.819,0,0,0,1.55,3.9c.088.468.183.938.266,1.4A28.827,28.827,0,0,0,7.7,133.381a14.064,14.064,0,0,0,1.431,3,7.034,7.034,0,0,0,1.882,2.024,7.877,7.877,0,0,0,1.412.77,2.911,2.911,0,0,0-.241.58c-.1-.039-.206-.077-.308-.117-.225-.116-.45-.237-.666-.374-.322-.216-.63-.44-.924-.681A13.792,13.792,0,0,1,9.29,137.587Zm52.354-89.2,0-.019-.011-.031.009.023a.191.191,0,0,0-.013-.036,1.128,1.128,0,0,0-.044-.127c.012.032.026.058.034.083-.15-.46-.276-.923-.382-1.4-.09-.493-.157-.982-.2-1.478-.022-.368-.022-.726-.008-1.094.045-.554.119-1.1.217-1.653.125-.6.294-1.2.476-1.8l0,0,.005-.014.008-.025v.006a28.656,28.656,0,0,1,1.126-2.806l0,0c.006-.005.007-.01.015-.021.02-.045.039-.09.059-.14l0,.018c.131-.27.276-.535.414-.8l.184-.017c-.008.018-.018.036-.025.054a18.862,18.862,0,0,0-1.342,4.121,10.57,10.57,0,0,0,0,3.75A9.515,9.515,0,0,0,63.23,47.91c.009.121.018.248.028.369a16.45,16.45,0,0,0,1.667,6.194c-.252-.3-.5-.608-.73-.93a24.044,24.044,0,0,1-1.325-2.282,25.447,25.447,0,0,1-1.229-2.892ZM10.972,165.928c.02-.692.057-1.387.065-2.082.04-1.713.108-3.421.114-5.135,0-.029,0-.057,0-.087v-.036c0-.033,0-.066,0-.1v.021q0-.31.005-.625a.057.057,0,0,1,0,.013q.021-1.617.041-3.235l0,.037c0-.238,0-.472.009-.706v.02c0-.028,0-.056,0-.085l0-.064v-.173c.009-.716-.014-1.433-.022-2.153-.007-.736,0-1.47-.025-2.2-.009-.367-.013-.733-.021-1.1.188.078.373.166.566.23q-.03,1.941-.055,3.879c-.048,3.347-.185,6.692-.286,10.037a.775.775,0,0,1,.006-.08c-.011.2-.022.4-.032.594q-.229,3.777-.443,7.557c0-.054.006-.107.008-.154-.008.082-.009.159-.016.236q-.093,1.226-.188,2.452c.064-1.276.127-2.553.166-3.831C10.9,168.083,10.935,167,10.972,165.928Zm.036-32.064c-.136-.292-.255-.581-.373-.875a7.87,7.87,0,0,0,1.7,1.294,5.159,5.159,0,0,0,2.7.549A7.769,7.769,0,0,0,18.025,134a20.112,20.112,0,0,0,2.2-1.225c1.4-.93,2.761-1.9,4.121-2.892l1.259-.917c-.1.144-.2.29-.306.434-.956,1.314-1.9,2.636-2.89,3.926-.374.3-.755.589-1.15.864h0l-.027.019-.021.015c-.617.4-1.245.77-1.893,1.109-.138.067-.279.125-.419.189a1.423,1.423,0,0,0-.346-.095,1.466,1.466,0,0,0-1.47.824c-.474.148-.949.273-1.433.378-.184.029-.367.052-.555.068-.216,0-.431.006-.649-.007-.176-.018-.357-.043-.537-.073-.092-.021-.179-.042-.264-.067-.106-.042-.212-.084-.318-.132-.16-.08-.306-.17-.458-.262s-.309-.219-.457-.333c-.124-.116-.236-.231-.348-.345-.165-.194-.321-.4-.466-.6-.208-.327-.407-.671-.594-1.019C11,133.856,11.009,133.857,11.008,133.864ZM8.3,118.585c-.01-1.363-.026-2.733-.049-4.092-.012-1.1.047-2.2.082-3.3.074-2.436.206-4.861.31-7.3.054-.749.078-1.5.114-2.25.044-.828.1-1.667.133-2.5.047-.672.065-1.35.1-2.025.039-.805.085-1.616.12-2.427.058-1.412.157-2.822.208-4.235,0,.065-.009.124-.013.183.094-1.411.159-2.833.235-4.248,0,.06-.008.119-.013.183.009-.128.017-.258.026-.387.537-2.246,1.1-4.488,1.729-6.712a38.966,38.966,0,0,1,1.543-4.505,13.972,13.972,0,0,1,.707-1.365,4.2,4.2,0,0,1,.243-.344,2.527,2.527,0,0,1,.172-.2c.04-.035.081-.069.122-.1.029-.019.057-.036.086-.056l.027-.013.222-.088a5.335,5.335,0,0,0,.713-.321,1.05,1.05,0,0,0,.4-.44l1.2.449c.623.236,1.274.417,1.908.619.851.267,1.694.546,2.545.814.215.072.445.122.663.177.519.14,1.04.276,1.555.41.755.2,1.5.424,2.258.6.828.187,1.656.379,2.484.566.673.154,1.341.338,2.019.458.8.182,1.6.333,2.4.492.662.135,1.325.3,1.992.412-.019,0-.039-.009-.059-.016.075.018.145.03.22.043l-.052-.009-.012,0a1,1,0,0,0,.121.026l.033.006.054.009c.142.029.291.054.433.084a.057.057,0,0,1-.021-.01c.173.035.358.072.538.1l-.169-.028c.141.03.283.054.429.084a.071.071,0,0,1-.017-.009c.3.062.595.118.9.175.236.051.479.1.723.139l-.1-.018c.168.034.33.061.5.091l-.168-.029c.174.03.348.065.521.1l-.029,0c.225.044.451.087.672.124l-.169-.028c.242.052.48.092.724.133.488.082.978.152,1.466.234.807.135,1.615.265,2.428.4.772.13,1.562.19,2.341.285.683.091,1.369.2,2.059.25l-.017,0c.784.059,1.568.119,2.347.172.7.051,1.393.132,2.088.153.8.021,1.61.049,2.412.076.581.02,1.16.057,1.739.059,1.386-.007,2.775.041,4.156,0,1.422-.043,2.858-.058,4.273-.167l.988-.084c.673-.007,1.345-.016,2.017-.044,1.719-.069,3.439-.11,5.15-.235,1.94-.14,3.877-.3,5.814-.458,1.67-.132,3.337-.349,5-.523,1.447-.158,2.892-.339,4.339-.526,1.262-.159,2.519-.318,3.78-.5a102.28,102.28,0,0,0,13.749-2.2c.6-.137,1.188-.3,1.781-.451.24-.01.481-.015.721-.033l-.018,0c.118-.008.231-.016.349-.019-.012,0-.025,0-.036,0,.47-.029.948-.062,1.413-.1.12,0,.241-.014.362-.023h-.006c.012,0,.019,0,.031,0l.122-.01h-.007c.063,0,.126-.01.189-.011h-.008c.3-.015.595-.061.894-.1.5-.065,1-.125,1.5-.185.695-.086,1.384-.239,2.073-.363,1.288-.237,2.563-.544,3.829-.862,1.584-.4,3.162-.808,4.738-1.236.588-.158,1.172-.329,1.756-.5.646-.185,1.3-.355,1.941-.576a.252.252,0,0,1-.034.015,43.637,43.637,0,0,0,7.734-3.137,15.28,15.28,0,0,0,4.6-3.636,11.249,11.249,0,0,0,1.047-1.6c-.36,2.445-.737,4.888-1.177,7.322a.052.052,0,0,1,.011-.028c-.051.266-.108.537-.159.809-.028.061-.052.129-.08.19q-.654,1.278-1.285,2.573c-.438.9-.949,1.781-1.421,2.669-.87,1.663-1.855,3.266-2.834,4.868-.4.584-.782,1.177-1.178,1.756-.3.445-.623.868-.946,1.3s-.663.892-1.015,1.316c-.424.5-.848,1-1.267,1.507-.945,1.078-1.914,2.157-2.936,3.162-.552.546-1.095,1.118-1.668,1.649-.595.557-1.2,1.118-1.8,1.668-.217.191-.439.374-.655.559-.076.024-.152.052-.227.076a22.236,22.236,0,0,1-2.206.585l-.068.017.048-.008-.057.01-.069.013q-1.422.256-2.868.379h.014c-.049,0-.091.008-.14.012l-.014,0h0a.533.533,0,0,0-.056,0h0c-.631.026-1.258.03-1.891,0-.437-.031-.881-.052-1.318-.119-.372-.057-.751-.114-1.124-.165-.9-.181-1.791-.4-2.693-.535a10.352,10.352,0,0,0-4.663.245,13.32,13.32,0,0,0-1.517.587,11.444,11.444,0,0,0-2.23.763c-2.3,1.066-4,3-5.628,4.866a68.791,68.791,0,0,1-4.92,5.218c-.762.6-1.539,1.186-2.342,1.731.06-.037.121-.081.181-.119q-.552.37-1.112.732c-.336.153-.67.3-1.021.423l-.006,0c-.652-.152-1.3-.314-1.945-.48-.533-.168-1.072-.325-1.609-.5-.46-.143-.908-.32-1.376-.446-.763-.207-1.54-.39-2.323-.541a20.562,20.562,0,0,0-2.191-.965,13.776,13.776,0,0,0-4.113-.9,8.156,8.156,0,0,0-3.934.779,9.812,9.812,0,0,0-3.254,2.69,13.62,13.62,0,0,0-3.456,2.751,41.3,41.3,0,0,0-3.873,4.975q-1.506,2.2-3,4.41c-.43.639-.9,1.253-1.343,1.883-.749,1.051-1.524,2.073-2.356,3.063-.439.51-.893,1.013-1.362,1.49-.131.068-.263.142-.392.2-1.014.493-2.051.905-3.1,1.3-.44.135-.875.272-1.32.394-.091.014-.189.028-.286.036a.163.163,0,0,0-.054-.033c0-.007-.011-.008-.016-.015-.035-.042-.076-.078-.117-.121s-.064-.082-.1-.124c-.141-.227-.269-.463-.4-.7l.093.194a11.017,11.017,0,0,0-2.321-3.607c-.043-.038-.09-.068-.134-.106-.2-.866-.4-1.732-.606-2.595a18.969,18.969,0,0,0-1.078-3.4,5.276,5.276,0,0,0-.9-1.506,3.387,3.387,0,0,0-1.389-.9,2.973,2.973,0,0,0-3.028,1.105h0a3.89,3.89,0,0,0-3.807,1.967,43.362,43.362,0,0,0-1.876,4.743l-.009.025a4.725,4.725,0,0,0-.461.159,15.871,15.871,0,0,0-2.313,1.4l.027-.02c-1.1.747-2.165,1.554-3.24,2.341-1.158.851-2.325,1.688-3.482,2.539.053-.033.107-.072.16-.1a31.94,31.94,0,0,1-2.958,1.827c-.359.175-.719.338-1.094.479-.265.08-.528.156-.8.219-.117.022-.238.031-.36.047s-.232,0-.351,0a2.971,2.971,0,0,1-.325-.029,1.685,1.685,0,0,1-.292-.073c-.087-.031-.178-.072-.269-.11a.2.2,0,0,0,.04.012c-.116-.055-.225-.115-.339-.182-.134-.094-.261-.187-.393-.293-.8-.726-1.517-1.532-2.261-2.325a21.465,21.465,0,0,1-1.437-1.83c-.029-.04-.057-.087-.085-.133-.069-.334-.133-.667-.172-1-.092-.7-.177-1.4-.263-2.1-.051-.42-.124-.845-.165-1.27v.006C8.491,121.345,8.412,119.965,8.3,118.585Zm127.278-65.86c.012.051.024.1.037.149-.045.048-.088.1-.133.145C135.515,52.92,135.554,52.824,135.581,52.725Zm-2.871,6.617c.836-.7,1.636-1.428,2.422-2.176-.129.259-.265.512-.417.759-.218.326-.456.637-.7.942l.013-.013-.042.05-.01.013.006-.009-.013.014-.017.02a14.723,14.723,0,0,1-1.42,1.428h0a36.263,36.263,0,0,1-3.2,2.468,33.465,33.465,0,0,0,2.262-2.61C131.973,59.939,132.346,59.647,132.71,59.342ZM11.127,70.254c.535.247,1.077.48,1.622.7-.054.037-.115.06-.166.1a5.764,5.764,0,0,0-1.412,1.829c-.15.288-.285.585-.421.881q.091-.81.184-1.619C11,71.519,11.062,70.886,11.127,70.254ZM10.3,52.634a9.428,9.428,0,0,1,.592-.785c.053-.059.114-.109.168-.168A18.019,18.019,0,0,0,10.419,54c-.1.479-.16.96-.213,1.441a1.229,1.229,0,0,0-.874.316c0-.184-.005-.369,0-.552a3.722,3.722,0,0,1,.047-.458c.039-.166.078-.326.131-.5.109-.3.224-.589.363-.882C10.008,53.116,10.15,52.871,10.3,52.634Zm1.308,12.745c.181.125.365.244.55.364.144.292.281.588.441.87a14.793,14.793,0,0,0,1.382,2.052c-.726-.3-1.449-.606-2.164-.941-.14-.067-.275-.144-.413-.213C11.475,66.8,11.544,66.089,11.611,65.379Zm93.92,6.315c-.157,0-.313,0-.47,0,.577-.165,1.154-.333,1.732-.5.552-.158,1.1-.342,1.645-.518,1.034-.328,2.068-.65,3.1-.985,1.56-.509,3.1-1.087,4.649-1.628.635-.227,1.264-.486,1.9-.733.678-.266,1.366-.513,2.035-.792-.776.462-1.563.9-2.371,1.31l.02-.008a44.707,44.707,0,0,1-4.9,2c.013,0,.026-.014.039-.017-1.948.646-3.916,1.17-5.915,1.623-.374.083-.75.164-1.126.246ZM17.583,43.165A23.082,23.082,0,0,0,15.217,45.2c-.521.28-1.038.566-1.54.879A24.712,24.712,0,0,0,11.1,47.926c.453-.46.915-.91,1.393-1.34l.011-.01,0,0,.012-.011,0,.006a28.528,28.528,0,0,1,2.61-2.012c.39-.257.782-.5,1.175-.74.353-.216.709-.455,1.073-.663.267-.134.535-.274.8-.414Q17.87,42.954,17.583,43.165ZM7.35,78.428c-.073.687-.14,1.368-.207,2.055C6.9,83.119,6.727,85.758,6.58,88.4q-.174.751-.35,1.5c-.065.281-.126.563-.19.844q.133-1.675.279-3.354c.168-1.96.353-3.922.61-5.88C7.065,80.482,7.2,79.454,7.35,78.428ZM5.828,102.9c-.017.311-.034.624-.05.934-.073,1.039-.111,2.083-.155,3.127-.012-.247-.019-.487-.032-.734-.033-.668-.038-1.338-.045-2.007C5.639,103.783,5.734,103.344,5.828,102.9ZM109.064,97.95a1.336,1.336,0,0,1-.149-.032c-.269-.055-.541-.114-.812-.172.22.03.44.045.66.083a.356.356,0,0,1-.068-.017c.068.017.138.029.208.041h0c.457.093.916.18,1.38.264-.451-.052-.9-.116-1.35-.2A.915.915,0,0,0,109.064,97.95ZM21.08,140.888c-.189.232-.387.455-.583.682a1.219,1.219,0,0,0-.91-.771l-.092-.013c.009-.121.018-.243.028-.364a23.636,23.636,0,0,0,3.146-3.1c.344-.4.674-.8,1-1.208.314-.231.618-.474.921-.72-.364.7-.732,1.39-1.134,2.067A33.528,33.528,0,0,1,21.08,140.888ZM12.445,289.322c0-.065.008-.13.011-.2.438.783.906,1.548,1.386,2.305-.1-.145-.209-.287-.309-.433l.023.029Q12.989,290.183,12.445,289.322Zm39.265-160.1c-.179.328-.345.663-.535.983a22.843,22.843,0,0,1-1.373,2,15.283,15.283,0,0,1-1.094,1.192c-.23.2-.464.4-.709.582-.213.146-.43.282-.654.412-.067.035-.136.063-.2.095-.1-.035-.189-.076-.287-.114-.126-.069-.251-.138-.375-.218a2.812,2.812,0,0,1-.228-.17c-.209-.184-.409-.378-.6-.584-.151-.174-.284-.354-.417-.542a14.359,14.359,0,0,0,5.669-3.231C51.176,129.5,51.443,129.356,51.71,129.217ZM13.766,162.488c.032-.509.04-1.021.054-1.532.031-1.147.067-2.288.1-3.429.039-1.3.078-2.6.094-3.907.015-1.6.015-3.205.039-4.808.083,0,.165,0,.248-.01.038.681.077,1.363.106,2.043.092,2.195.191,4.384.288,6.58.035.771.042,1.545.041,2.319-.409,2.974-.864,5.942-1.3,8.911.117-2.087.218-4.176.345-6.267C13.771,162.423,13.772,162.452,13.766,162.488ZM16.4,143.341c-.016-.358-.028-.715-.032-1.07.042-.016.084-.035.126-.051Q16.45,142.779,16.4,143.341Zm-2.3,2.115c.01.172.021.345.031.517-.017,0-.035,0-.052,0,0-.244.01-.488.013-.731C14.1,145.315,14.1,145.386,14.1,145.456Zm20.334-24.041c.4-.5.815-.991,1.225-1.483.1.086.191.171.282.263.1.117.2.237.291.36.126.19.248.379.364.576.174.345.33.7.475,1.06l0,.007a9.263,9.263,0,0,0-2.815.827q-.419.2-.822.418c-.044-.025-.086-.056-.135-.083-.083-.047-.176-.078-.262-.119C33.5,122.627,33.964,122.022,34.435,121.415Zm1.888,4.184c.22-.065.446-.129.675-.18.2-.033.392-.06.594-.085.114,0,.225,0,.337,0q.3,1.446.61,2.893c-.667-.621-1.3-1.277-1.93-1.938-.183-.192-.365-.389-.554-.582C36.144,125.67,36.234,125.631,36.323,125.6Zm100.5-40.209a29.122,29.122,0,0,0,2.316-3.934c-.033.431-.066.863-.106,1.3q-1.154,1.647-2.416,3.212c.044-.046.082-.093.125-.139-.374.422-.749.846-1.13,1.266C136.028,86.529,136.436,85.964,136.825,85.39ZM116.317,299.226c-.672.342-1.343.677-2.015,1.018-.789.367-1.586.717-2.379,1.076,1.7-.8,3.394-1.6,5.056-2.476l0,.016C116.758,298.985,116.541,299.112,116.317,299.226ZM130.841,249.5c-.011.357-.023.714-.034,1.071.008-.3.012-.591.02-.886.138-4.67.247-9.345.3-14.017.019-1.768.012-3.535.007-5.3.175-1.888.349-3.776.5-5.667.045-.58.077-1.161.119-1.741q-.136,6.894-.4,13.783C131.174,240.989,130.963,245.241,130.841,249.5ZM25.427,297.234c-.959-.758-1.945-1.5-2.881-2.3a30.154,30.154,0,0,1-2.638-2.6,34.533,34.533,0,0,1-2.562-3.343,36.219,36.219,0,0,1-2.249-3.822c-.253-.522-.48-1.054-.708-1.586a1.461,1.461,0,0,0,.163-.87c-.079-.628-.157-1.26-.236-1.888l0,.04c-.067-.6-.139-1.2-.212-1.8v.021c-.022-.167-.041-.333-.059-.5l.006.069c-.036-.332-.077-.663-.113-1l0,.036c-.027-.233-.056-.465-.083-.7,0,.018,0,.037,0,.053,0-.041-.009-.082-.013-.123l-.006-.053,0,.033c-.089-.905-.2-1.807-.29-2.707-.332-3.257-.544-6.516-.677-9.78q-.1-2.5-.244-4.987c.068-2.828.129-5.653.2-8.478.09-3.418.238-6.832.363-10.25.131-3.524.251-7.051.329-10.579.069-3.475.1-6.95.206-10.419.049-1.754.075-3.511.171-5.262.063-1.189.13-2.378.193-3.568.046-.774.116-1.551.126-2.325.175-1.965.32-3.935.471-5.9.122-1.513.269-3.03.408-4.541.351-3.839.672-7.672,1-11.517.127-1.471.207-2.95.306-4.426.062-.988.127-1.98.193-2.969.026-.225.05-.451.077-.676.183-1.593.309-3.2.462-4.788q.514-5.26,1-10.527c.275-2.963.581-5.927.875-8.893.266-2.694.491-5.394.8-8.087a23.853,23.853,0,0,0,3.9-4.051,38.157,38.157,0,0,0,3.752-6c.686-1.348,1.292-2.721,1.861-4.119.275-.678.557-1.356.807-2.048.422-.416.837-.839,1.275-1.238a25.011,25.011,0,0,1,2.035-1.635c.739.721,1.439,1.495,2.157,2.236a14.211,14.211,0,0,0,4.017,3.089,9.548,9.548,0,0,0,.573,1.28,14.558,14.558,0,0,0,1.745,2.413,5.852,5.852,0,0,0,1.965,1.672,5.584,5.584,0,0,0,4.566-.327,7.553,7.553,0,0,0,3.939-1.63,19.2,19.2,0,0,0,4.236-4.717c.61-.931,1.2-1.883,1.734-2.862.432-.8.873-1.609,1.26-2.428.873-1.791,1.748-3.588,2.6-5.393.124-.148.257-.288.378-.439.543-.673,1.069-1.355,1.591-2.043,1.1-1.447,2.145-2.931,3.315-4.322a22.227,22.227,0,0,1,1.554-1.607l0,0h0l.011-.01-.005.006a15.853,15.853,0,0,1,1.257-.99c.3-.2.611-.369.932-.537.245-.113.5-.221.757-.314.252-.077.5-.143.756-.2.147-.023.3-.045.446-.062l.231.069a32.109,32.109,0,0,1,3.216,1.38c1.966.986,3.968,2.152,6.218,2.23a9.591,9.591,0,0,0,5.47-1.65l.022,0a9.675,9.675,0,0,0,5-1.251c3.743-1.994,6.253-5.532,9.183-8.48a1.646,1.646,0,0,0,.041-2.173c.091-.01.18-.028.272-.036.307-.014.6-.019.9-.011.672.047,1.326.139,1.988.25a1.209,1.209,0,0,1-.133-.028c.051.014.11.024.162.033a23.873,23.873,0,0,0,6.289.875,16.946,16.946,0,0,0,6.042-1.531,24.574,24.574,0,0,0,3.045-1.671,1.659,1.659,0,0,0,.356-.035c1.349-.286,2.694-.616,4.019-1,.878-.253,1.756-.506,2.623-.8a15.744,15.744,0,0,0,4.3-2.194,30.966,30.966,0,0,0,3.014-2.6c-.013.167-.028.334-.04.5-.076,1.02-.106,2.054-.092,3.077.019,1.1.033,2.19.045,3.292q.04,2.8.068,5.611c.015,1.657.036,3.314.009,4.969-.021,1.591-.047,3.177-.068,4.763-.207,2.209-.409,4.415-.633,6.622-.487,4.76-.968,9.515-1.472,14.267q-.788,7.373-1.627,14.731c-.249,2.234-.445,4.469-.67,6.7-.108,1.146-.169,2.294-.26,3.444-.067.932-.152,1.867-.2,2.8-.134,2.4-.275,4.808-.375,7.221q-.157,3.825-.28,7.655c-.148,4.549-.255,9.111-.486,13.657-.228,4.6-.457,9.208-.638,13.817-.183,4.721-.383,9.441-.423,14.169v-.031c0,.131-.005.261-.006.394,0-.012,0-.024,0-.036-.005.47-.013.943-.022,1.411,0-.059,0-.124.007-.184,0,.206-.006.413-.01.623v-.057c0,.268-.007.542-.009.8,0-.059,0-.119.007-.184-.007.174-.009.343-.01.516a.262.262,0,0,0,0-.028c-.038,3.078-.022,6.155-.032,9.233-.174,2.115-.418,4.218-.607,6.331-.189,2.051-.42,4.108-.568,6.167-.17,2.366-.37,4.733-.5,7.1-.134,2.545-.237,5.084-.341,7.628-.1,2.329-.114,4.667-.157,6.994-.039,2.191-.1,4.383-.171,6.575-.026.321-.045.639-.069.96-.259,1.065-.517,2.13-.793,3.191l0-.007c-.307,1.035-.6,2.075-.932,3.1-.416,1.268-.847,2.521-1.29,3.778-.41,1.161-.859,2.31-1.3,3.46-.383.992-.826,1.963-1.245,2.949-.412.805-.813,1.611-1.214,2.424-.162.325-.382.635-.572.949-.115.193-.23.384-.345.575-.08.1-.158.2-.238.3a1.285,1.285,0,0,0-1.523.036q-1.466,1.215-2.982,2.367c-.707.55-1.431,1.091-2.173,1.6-.817.531-1.62,1.083-2.434,1.628.054-.04.1-.073.155-.106-1.019.623-2.039,1.238-3.071,1.832-.483.2-.967.395-1.459.576-.836.254-1.66.539-2.494.812-.77.247-1.555.479-2.323.751-.89.215-1.776.442-2.667.664-.294.07-.586.146-.879.222-1.249.056-2.5.119-3.748.169-2.3.092-4.6.215-6.9.282-3.665.1-7.326.211-10.994.3-1.721.046-3.438,0-5.163-.006-.692,0-1.393-.06-2.086-.093-.841-.045-1.677-.078-2.511-.122a1.025,1.025,0,0,1-.136-.011c-1.318-.113-2.645-.21-3.968-.3-1.186-.079-2.373-.225-3.562-.292,0,0,.005,0,.006,0-1.457-.143-2.919-.251-4.378-.418-1.1-.128-2.2-.269-3.293-.41-.719-.194-1.446-.374-2.17-.553-.779-.2-1.568-.371-2.355-.556a37.306,37.306,0,0,0-4.439-.834c-1.278-.142-2.565-.227-3.845-.322-.36-.024-.724-.062-1.083-.092-.233-.02-.466-.041-.7-.058-.352-.074-.7-.148-1.059-.207-1.857-.432-3.724-.829-5.59-1.228Q26.728,298.258,25.427,297.234ZM142.682,48.34c-.019-.068-.035-.137-.056-.2.057-.149.112-.3.16-.452C142.75,47.9,142.717,48.121,142.682,48.34Zm-3.349,4.815c.1.315.187.628.258.951.077.407.123.8.162,1.209l.009.091a.361.361,0,0,1-.008-.064c.016.377.012.745,0,1.122-.044.51-.109,1.02-.2,1.533-.085.374-.176.74-.282,1.1l0,0,0,.011-.008.029,0-.011a.169.169,0,0,1-.011.027c-.012.034-.017.069-.028.1,0-.023.015-.052.018-.075-.124.36-.262.724-.418,1.068v0c-.18.364-.376.714-.589,1.06-.223.327-.458.628-.7.927-.256.28-.521.546-.792.8a15.057,15.057,0,0,1-1.371,1.048,24.3,24.3,0,0,1-2.553,1.452c-1.187.565-2.4,1.055-3.63,1.5-1.047.332-2.084.714-3.137,1.009l-.266.074a42.518,42.518,0,0,0,6.506-4.006,18.97,18.97,0,0,0,4.657-4.527,10.241,10.241,0,0,0,1.322-2.793,9.437,9.437,0,0,0,.342-2.862c0-.083-.014-.164-.02-.247.225-.239.446-.483.667-.726C139.276,53.021,139.31,53.085,139.333,53.155Zm-1.546-2.638q-.249-.581-.552-1.133c.18.241.371.474.543.722.055.083.1.168.156.251C137.887,50.411,137.835,50.462,137.787,50.517ZM78.81,74.644c-.176.027-.353.058-.53.086l-2.475-.047q1.582-.03,3.164-.062ZM14.36,63.225c-.089-.23-.18-.459-.261-.7a22.982,22.982,0,0,1-.606-2.225,13.139,13.139,0,0,0,.949,2.124,15.29,15.29,0,0,0,1.16,1.711Q14.97,63.7,14.36,63.225ZM77.407,41.4a1.081,1.081,0,0,0,.058-.125l-.01.014c.228-.469.451-.945.674-1.416a.286.286,0,0,1-.033.055c.025-.044.045-.094.07-.138v-.006c.07-.136.135-.272.2-.409l.011-.021.029-.067c-.007.005-.009.017-.015.022.017-.034.035-.072.053-.105.2-.413.387-.832.581-1.248a1.719,1.719,0,0,0,.022.72q.157.608.3,1.214v-.006c.1.492.2.985.3,1.477.1.656.221,1.321.331,1.983.077.468.147.939.218,1.405a.042.042,0,0,0-.01.028c-.135.27-.276.539-.433.8-.189.272-.388.532-.6.789-.233.253-.478.5-.728.744-.121.105-.253.2-.377.3.042-.111.086-.222.126-.335.208-.526.421-1.052.63-1.584a11.741,11.741,0,0,0,.486-1.513,7.857,7.857,0,0,0,.119-1.383A1.371,1.371,0,0,0,77.407,41.4ZM80.7,34.363c0,.191.009.382.013.572.012.533.041,1.075.071,1.612a1.617,1.617,0,0,0-.535.053,1.667,1.667,0,0,0-.839.534c.235-.512.475-1.021.713-1.531Q80.411,34.982,80.7,34.363ZM68.828,53.544a1.236,1.236,0,0,0-.047.719c-.1-.128-.2-.251-.294-.385-.158-.242-.3-.5-.438-.755a1.505,1.505,0,0,0,.4-.2,4.253,4.253,0,0,0,.351-.29c.117.061.232.123.352.179C69.045,53.058,68.934,53.3,68.828,53.544Zm.716-19.713-.029-.014.017,0a1.4,1.4,0,0,0,.257.075l-.019.035A1.3,1.3,0,0,0,69.544,33.831Zm-.021,0h-.012v0ZM68.517,36.52l-.055.119a1.409,1.409,0,0,0,.156,1.346c-.007.01-.01.028-.019.045-.527.8-1.049,1.591-1.522,2.419-.023.04-.043.081-.065.121.011-.061.017-.122.028-.183.236-1.124.514-2.242.859-3.343l0,.007a.21.21,0,0,0,.006-.024c.013-.044.025-.088.041-.128a.185.185,0,0,0-.006.026c.039-.12.09-.236.131-.355Zm5.6-1.924c-.355.765-.7,1.524-1.064,2.288a.084.084,0,0,0,.017-.034l0,.013c.019-.039.036-.078.057-.117-.02.04-.038.079-.057.118a.117.117,0,0,1-.012.025c-.761,1.576-1.5,3.16-2.237,4.745v-.008q-.922,1.923-1.812,3.864a.226.226,0,0,0,.023-.038c-.414.865-.814,1.74-1.218,2.611-.3-.358-.585-.72-.859-1.105-.166-.254-.326-.514-.473-.777,0-.479.018-.957.04-1.435a1.287,1.287,0,0,0,1.386-.307,9.559,9.559,0,0,0,1.174-1.594c.307-.546.585-1.1.88-1.65.2-.384.4-.768.606-1.158l.605-1.152Q72.611,36.716,74.118,34.6ZM71.853,56.52c-.265-.092-.529-.19-.785-.3-.2-.105-.388-.215-.577-.33q-.371-.251-.717-.532c-.025-.022-.046-.047-.071-.069a1.375,1.375,0,0,0,1.3-.333l.06-.049.019-.018.019-.018-.01.011a7.994,7.994,0,0,0,1.153-1.252,8.4,8.4,0,0,0,1.6-.027,10.879,10.879,0,0,0,3.845-1.225c-.139.542-.277,1.085-.409,1.631a1.459,1.459,0,0,0,.019.743c-.233.176-.464.346-.707.515a17.483,17.483,0,0,1-1.6.937c-.452.213-.915.409-1.386.584-.109,0-.219.007-.33,0-.276-.028-.545-.062-.812-.106C72.253,56.629,72.058,56.579,71.853,56.52ZM82.332,19.969q-.6,2.353-1,4.753c-.125.743-.242,1.476-.325,2.22-.05.463-.1.926-.153,1.39a1.327,1.327,0,0,0-.717.592c-1.044,1.808-2.06,3.631-3.086,5.441.31-.67.625-1.34.935-2.016-.026.049-.046.1-.072.149.475-.983.906-1.985,1.354-2.985l.709-1.559c.354-.8.641-1.618.95-2.426A1.3,1.3,0,0,0,79.9,23.773c-.065,0-.131,0-.2-.009.442-.714.88-1.435,1.317-2.156v.006l.29-.453c.405-.622.8-1.248,1.2-1.873C82.452,19.516,82.389,19.742,82.332,19.969ZM70.867,31.836l-.024.047a.924.924,0,0,0-.153-.126l-.008,0c.3-.426.594-.851.9-1.269.022-.03.046-.059.068-.09C71.386,30.873,71.122,31.353,70.867,31.836ZM11.846,142.5c-.037.588-.066,1.177-.075,1.762-.01.4-.013.8-.02,1.206-.018-.01-.039-.019-.057-.03-.215-.139-.415-.292-.617-.444q-.006-.383-.014-.765c0,.03,0,.06,0,.091,0-.047,0-.093,0-.14v0c.008-.457.024-.912.077-1.365l.005-.029a1.228,1.228,0,0,0-.031-.534A7.035,7.035,0,0,0,11.846,142.5ZM28.722,302.972c-.591-.255-1.179-.538-1.775-.806.274.054.547.1.822.152l.035.007.087.02q.713.432,1.452.817c-.079-.013-.158-.025-.236-.039C28.979,303.072,28.848,303.026,28.722,302.972Zm104.8-264.707-.032-.012c.578.281,1.141.589,1.693.913a1.212,1.212,0,0,0-.308.206,1.275,1.275,0,0,0,.024,1.777c.189.194.376.392.564.591a.091.091,0,0,1-.019-.028c.57.657,1.134,1.319,1.67,2.006.581.736,1.141,1.493,1.689,2.248a18.142,18.142,0,0,1,1.015,1.71c-.092.183-.19.361-.29.536-.213-.3-.427-.59-.652-.871a23.773,23.773,0,0,0-2.765-2.918A13.232,13.232,0,0,0,131.6,38.8a26.7,26.7,0,0,0-2.429-2.119c.394.113.793.211,1.184.338A30.9,30.9,0,0,1,133.521,38.265ZM87.483,33.558q2.171-.088,4.351-.13a1.488,1.488,0,0,0,1.6,1.044c.292-.035.585-.07.876-.1.916-.049,1.843.011,2.771.035.748.024,1.492.035,2.244.042,1.561.017,3.128.04,4.689.021.764-.007,1.528-.007,2.292-.012,1.216.257,2.424.551,3.612.913.857.27,1.722.522,2.577.8.662.255,1.319.5,1.983.745.579.217,1.167.411,1.742.65,1.22.521,2.437,1.065,3.646,1.615a73.307,73.307,0,0,1,6.929,3.909v0a41.284,41.284,0,0,1,3.743,2.766,28.76,28.76,0,0,1,2.207,2.124h-.005c.205.23.4.457.589.69,0,.215-.011.422-.022.629-.041.495-.106.986-.194,1.479-.027.124-.066.245-.094.369-.156.3-.312.6-.489.88a13.728,13.728,0,0,1-.863,1.17l.026-.027-.051.059-.008.009,0-.005a19.1,19.1,0,0,1-1.532,1.559c-.71.623-1.455,1.2-2.228,1.757-.711.472-1.428.937-2.145,1.4-.63.408-1.3.767-1.947,1.142-.574.328-1.135.646-1.722.941-.712.365-1.428.722-2.134,1.087q-3.047,1.4-6.162,2.634c-1.1.436-2.2.879-3.3,1.3q-1.041.39-2.071.782c-.491.186-.991.353-1.473.559-.627.212-1.241.455-1.858.686-.656.242-1.311.478-1.967.727-1.29.428-2.568.895-3.849,1.343h0l-.024.009c-.038.011-.082.027-.12.039a.391.391,0,0,1,.049-.018c-1.239.381-2.461.835-3.707,1.184-1.368.392-2.728.815-4.1,1.188-.723,0-1.451,0-2.176.011-1.669.025-3.344.042-5.015.073s-3.314.036-4.967.105-3.3.073-4.95.108c-1.539.028-3.076.039-4.612.051-1.824.016-3.646.021-5.467.056-.682.011-1.361.035-2.039.059-.841.026-1.69.038-2.534.088h0a.005.005,0,0,0-.006,0l-.175.007.079-.005c-1.18.053-2.368.093-3.546.17-2.526.15-5.057.25-7.582.281-.748,0-1.49,0-2.235,0-.474-.049-.947-.1-1.42-.144s-.921-.136-1.382-.2c-1.095-.16-2.186-.313-3.281-.479-1.877-.273-3.752-.521-5.615-.875.012,0,.017.009.028.011-2.55-.494-5.08-1.073-7.571-1.777-.956-.495-1.88-1.038-2.785-1.625a34.844,34.844,0,0,1-3.268-2.443,23.674,23.674,0,0,1-1.92-1.83,16.416,16.416,0,0,1-1.089-1.377,10.448,10.448,0,0,1-1.339-2.661c-.149-.467-.274-.927-.377-1.407a15.946,15.946,0,0,1-.228-1.649c-.021-.461-.019-.924-.006-1.386a.086.086,0,0,0,0-.042l.009-.159a1.163,1.163,0,0,1-.008.153c.043-.506.1-1.016.178-1.522a14.644,14.644,0,0,1,.374-1.484c-.01.022-.014.046-.023.062.01-.022.014-.046.024-.068.013-.045.026-.085.039-.13a.568.568,0,0,1-.03.108c.162-.468.346-.921.553-1.37a14.611,14.611,0,0,1,.828-1.455A19.331,19.331,0,0,1,19.1,47.118,24.924,24.924,0,0,1,20.88,45.31l.086-.041c.759-.363,1.527-.706,2.273-1.094l-.158.081c.437-.183.866-.392,1.294-.59.88-.407,1.759-.809,2.645-1.216.854-.394,1.715-.787,2.574-1.18.388-.174.791-.333,1.165-.534l1.437-.619.151-.041c1.011-.261,2.021-.515,3.046-.719h-.01c.028,0,.056-.012.085-.019.122-.024.248-.048.375-.071a.338.338,0,0,1-.053.005c.086-.015.166-.031.252-.047.161-.032.322-.065.481-.092.1-.02.2-.044.3-.064.13-.026.259-.046.383-.073-.062.013-.123.021-.191.034.154-.028.308-.056.463-.09.031-.006.068-.012.1-.019-.062.014-.13.026-.192.039.738-.126,1.476-.254,2.213-.375.712-.12,1.43-.2,2.147-.309,1.36-.207,2.742-.292,4.11-.439-.06,0-.127.008-.187.01.73-.045,1.467-.094,2.2-.155,1.247-.066,2.488-.1,3.739-.114,1.095-.014,2.188.02,3.288.013,1.713-.013,3.426-.107,5.138-.236-.188.412-.369.826-.535,1.244a20.341,20.341,0,0,0-1.088,3.5,13.681,13.681,0,0,0-.325,2.972,16.627,16.627,0,0,0,1.527,6.346,21.224,21.224,0,0,0,3.372,5.533,10.1,10.1,0,0,0,5.251,3.226c.2.046.4.085.595.118a11.515,11.515,0,0,0,4.3-.109,10.448,10.448,0,0,0,2.26-.113,9.755,9.755,0,0,0,3.095-1.087,9.918,9.918,0,0,0,2.442-1.812,10.743,10.743,0,0,0,2.379-3.991,15.289,15.289,0,0,0,.941-1.432A21.227,21.227,0,0,0,86.6,45.536a34.225,34.225,0,0,0,.779-5.965c.05-1.687.123-3.371.107-5.057l-.009-.955ZM5.111,62.115c-.113-.251-.219-.508-.314-.763s-.155-.533-.217-.806c-.042-.247-.071-.5-.094-.757-.009-.2-.012-.4-.008-.6.028-.34.072-.671.129-1.012a10.41,10.41,0,0,1,.269-1.035c.122-.367.264-.726.412-1.081.025.2.05.409.088.612A11.692,11.692,0,0,0,7.58,61.6c-.133.716-.261,1.432-.39,2.148-.013.075-.024.151-.037.227-.062.185-.132.367-.191.553-.188-.181-.385-.354-.563-.545-.289-.341-.561-.679-.817-1.039C5.412,62.668,5.255,62.4,5.111,62.115Zm2.143,77.946c-.21-.42-.426-.836-.637-1.25-.1-.2-.2-.391-.3-.588.233.29.468.577.711.855a13.235,13.235,0,0,0,2.59,2.361,1.114,1.114,0,0,0-.781.845c-.015.092-.018.185-.029.277A28.445,28.445,0,0,1,7.254,140.061ZM7,272.356c.009.049.013.1.017.146-.038-.878-.058-1.753-.089-2.636-.024-.75-.088-1.507-.07-2.257l.009-.361c.036.579.072,1.16.114,1.734,0,.109.014.22.02.324l0,0c.012.139.018.283.03.423,0,.033,0,.068.007.1l0-.047c.071,1.039.141,2.078.213,3.111-.007-.067-.008-.127-.015-.194.057.977.1,1.957.164,2.935-.006-.067-.007-.132-.015-.193.015.258.024.516.038.774-.17-1.216-.31-2.435-.4-3.663C7.018,272.484,7.011,272.417,7,272.356Zm8.759,27.927a22.352,22.352,0,0,1-2.2-.87q-.469-.24-.934-.515c-.252-.173-.5-.353-.745-.543q-.216-.194-.429-.409c-.062-.072-.126-.144-.183-.219,0-.012-.008-.019-.012-.032,0-.074,0-.154,0-.233.08.048.152.107.232.153a20.152,20.152,0,0,0,3.348,1.54c.679.235,1.371.452,2.067.65q.753.639,1.561,1.213c-.909-.226-1.815-.461-2.71-.739ZM144.227,68.36c-.071.457-.124.922-.208,1.381-.171.879-.352,1.749-.519,2.635q-.182.783-.381,1.56a23.626,23.626,0,0,1,.269-2.363v-.006c.011-.033.023-.067.036-.107,0-.006.008-.016.009-.022a1.21,1.21,0,0,0-.328-1.324q.21-.8.393-1.61c.041-.1.086-.206.126-.31.3-.8.645-1.606.885-2.431l.1-.324c-.046.436-.093.871-.138,1.307C144.413,67.286,144.311,67.824,144.227,68.36Z"/><path d="M34.8,77.086h0l-.015,0Z"/><polygon points="6.949 208.24 6.949 208.236 6.949 208.236 6.949 208.24"/><path d="M14.544,72.749l-.136.054-.011.005C14.448,72.787,14.493,72.771,14.544,72.749Z"/></svg>