<svg xmlns="http://www.w3.org/2000/svg" width="98.93" height="197.538" viewBox="0 0 98.93 197.538"><path d="M98.919,157.3c-.011-2.1-.135-4.2-.241-6.294-.212-4.122-.724-8.232-1.231-12.325q-.345-2.787-.7-5.576c-.035-1.525-.068-3.05-.115-4.575-.13-4.075-.489-8.138-.831-12.2-.17-2.043-.441-4.086-.665-6.123-.23-2.12-.548-4.228-.83-6.336-.542-4.1-1.154-8.185-1.761-12.272-1.16-7.849-2.8-15.628-4.487-23.377-.418-1.908-.83-3.822-1.278-5.729-.477-2.044-.912-4.1-1.454-6.124-.348-1.313-.7-2.626-1.048-3.934-.2-.748-.365-1.507-.6-2.237-.383-1.178-.759-2.35-1.136-3.522-.242-.753-.454-1.519-.736-2.255-.466-1.213-.931-2.432-1.39-3.645-.277-.712-.542-1.425-.854-2.125q-.822-1.846-1.649-3.687c-.306-.7-.671-1.36-1.024-2.037Q76.12,31.462,75.352,30c-.206-.383-.448-.748-.671-1.125-.371-.6-.737-1.2-1.1-1.808-.8-1.313-1.614-2.6-2.5-3.845-.231-.323-.47-.64-.706-.959-.161-.311-.32-.62-.482-.931-.418-.813-.889-1.6-1.354-2.391-.494-.83-.971-1.666-1.519-2.467-.789-1.16-1.549-2.344-2.408-3.457a42.859,42.859,0,0,0-5.871-6.271,30.982,30.982,0,0,0-7.113-4.77A20.2,20.2,0,0,0,43.733.005a18.36,18.36,0,0,0-8.226,1.737,20.6,20.6,0,0,0-6.289,4.752c-.477.512-.924,1.048-1.372,1.578-.336.4-.7.789-1.013,1.207-.347.453-.689.907-1.03,1.36-.306.407-.636.8-.919,1.213-.642.942-1.3,1.884-1.943,2.821-.63.906-1.166,1.878-1.743,2.814-.542.884-1,1.814-1.49,2.733-.459.865-.877,1.743-1.289,2.632-.407.865-.819,1.719-1.184,2.6q-.724,1.757-1.448,3.521c-.407.989-.736,2.014-1.1,3.02-.3.807-.583,1.614-.842,2.438q-.361,1.14-.724,2.273c-.118.389-.259.778-.365,1.172-.318,1.154-.63,2.314-.942,3.468-.253.931-.448,1.867-.66,2.8-.206.907-.412,1.808-.583,2.721q-.335,1.819-.671,3.639c-.2,1.077-.347,2.173-.518,3.262-.13.783-.259,1.572-.365,2.361-.289,2.149-.6,4.293-.836,6.448q-.187,1.633-.371,3.267c-.354,1.412-.688,2.829-1.033,4.241-.394,1.625-.795,3.239-1.136,4.875q-.761,3.693-1.525,7.379c-.118.553-.183,1.112-.265,1.672q-.336,2.138-.672,4.281c-.253,1.625-.535,3.244-.7,4.875q-.406,4.02-.807,8.038c-.165,1.625-.253,3.256-.365,4.888-.141,2.043-.318,4.086-.43,6.135Q.689,115.739.5,119.245c-.082,1.531-.176,3.062-.218,4.6q-.123,4.1-.235,8.2c-.047,1.572-.036,3.15-.03,4.722,0,2.15-.041,4.3.012,6.448q.08,3.587.171,7.172c.088,3.781.224,7.561.365,11.341.065,1.632.124,3.263.194,4.894a1.1,1.1,0,0,0-.606,1.065c.171,1.443.553,2.851.836,4.27.053.936.118,1.866.218,2.8a1.192,1.192,0,0,0,.724,1c.071.347.147.7.224,1.048.224.971.459,1.949.753,2.9.154.5.289,1.019.477,1.513.2.548.407,1.1.613,1.649a25.569,25.569,0,0,0,1.578,3.356,16.157,16.157,0,0,0,2.2,3.2,10.732,10.732,0,0,0,3.145,2.432,9.684,9.684,0,0,0,3.527,1,13.333,13.333,0,0,0,6.265-1.243,13.734,13.734,0,0,0,4.805-3.527,1.458,1.458,0,0,0,.532-.106c.358-.151.717-.3,1.085-.431a17.765,17.765,0,0,1,1.945-.5c.853-.141,1.711-.239,2.574-.311.321-.009.638-.012.964.006.371.037.735.086,1.1.15.235.056.464.119.692.192l.255.1c.121.06.242.121.355.19.3.208.575.43.851.662a9.849,9.849,0,0,1,.846.839l-.009-.01a34.98,34.98,0,0,0,5.35,5.6,13.558,13.558,0,0,0,2.708,1.563,9.361,9.361,0,0,0,5.127,1.523,8.78,8.78,0,0,0,1.867-.2,7.7,7.7,0,0,0,4.386-2.765c.129-.094.267-.174.391-.274a17.908,17.908,0,0,0,3.639-4.051c.831-1.234,1.623-2.491,2.44-3.732a33.93,33.93,0,0,1,2.132-2.8c.41-.447.835-.877,1.284-1.286.293-.242.595-.471.909-.692,1.076.728,2.131,1.484,3.155,2.287-.076-.065-.153-.124-.229-.188.406.329.812.659,1.224.983h0c0,.006,0,.006.011.006l.106.088-.011-.012c.836.672,1.672,1.337,2.526,1.985a17.832,17.832,0,0,0,5.623,3.085,11.731,11.731,0,0,0,4.087.536,10.378,10.378,0,0,0,3.739-.9,11.364,11.364,0,0,0,5.252-5.1,19.169,19.169,0,0,0,1.306-3.389,14.593,14.593,0,0,0,1.794-3.183c.247-.612.465-1.236.683-1.86.33-.919.595-1.867.854-2.809s.518-1.908.718-2.874a48.027,48.027,0,0,0,.966-6.341c.082-1.166.141-2.332.17-3.5C98.943,159.457,98.925,158.374,98.919,157.3ZM15.015,40.37c.242-.877.483-1.743.76-2.609.353-1.111.712-2.218,1.066-3.329a.644.644,0,0,1-.024.061l.03-.081.029-.089c-.008.025-.015.05-.023.075.417-1.117.83-2.239,1.242-3.355.318-.86.659-1.7,1.013-2.55.394-.948.765-1.908,1.2-2.833.484-1.029.963-2.065,1.452-3.095.278-.521.561-1.042.838-1.562s.542-1.078.854-1.59c.609-.982,1.218-1.97,1.827-2.947.879-1.244,1.727-2.516,2.654-3.725.471-.618.925-1.254,1.425-1.843s1.009-1.187,1.508-1.779A30.648,30.648,0,0,1,33.054,6.95a21.784,21.784,0,0,1,1.883-1.426,19.248,19.248,0,0,1,1.755-.989c.589-.267,1.189-.5,1.8-.721a20.306,20.306,0,0,1,2.013-.509c.631-.1,1.263-.172,1.9-.217.552-.02,1.1-.013,1.652.014.679.059,1.353.144,2.023.266a21.848,21.848,0,0,1,2.225.6,22.823,22.823,0,0,1,2.292.948,27.793,27.793,0,0,1,2.614,1.517,37.381,37.381,0,0,1,3.622,2.79q.93.832,1.8,1.716A24.15,24.15,0,0,0,43.225,7.189,22.749,22.749,0,0,0,35.34,9.25,29.255,29.255,0,0,0,23.693,20.508a83.883,83.883,0,0,0-4.146,8.344c-.341.748-.63,1.525-.936,2.285l-1.4,3.445c-.288.712-.524,1.448-.777,2.172q-.679,1.908-1.36,3.822c-.245.69-.465,1.392-.687,2.093C14.585,41.9,14.8,41.133,15.015,40.37ZM3.207,146.762c-.171.848-.353,1.7-.524,2.544-.03-1.466-.053-2.933-.083-4.405-.059-3.874.012-7.743.018-11.618v.171q.159-4.646.324-9.3c.094-2.544.283-5.081.436-7.619.264-4.287.594-8.562.93-12.837.294-3.739.765-7.461,1.172-11.182q.345-2.075.683-4.146l-.045.742c-.259,4.193-.542,8.386-.807,12.578-.247,3.992-.471,7.991-.606,12-.148,4.269-.283,8.544-.3,12.813q-.026,6.862-.017,13.72c0,1.758-.02,3.516-.027,5.273A1.724,1.724,0,0,0,3.207,146.762Zm19.114,38.181c-.224.27-.466.524-.713.771-.277.253-.565.5-.86.724-.276.2-.559.383-.847.554a13.289,13.289,0,0,1-1.231.595c-.465.17-.925.312-1.4.459-.424.106-.853.188-1.295.259-.242.017-.489.035-.736.041-.218-.006-.43-.018-.642-.035-.277-.047-.548-.1-.818-.171-.183-.053-.36-.118-.536-.188-.259-.124-.507-.254-.76-.4-.236-.153-.465-.312-.7-.483-.159-.141-.312-.283-.465-.43-.294-.318-.571-.641-.836-.989-.383-.542-.736-1.095-1.066-1.666A28.576,28.576,0,0,1,8.106,181.3c.035.088.071.176.1.265-.33-.854-.665-1.7-.954-2.574-.23-.705-.43-1.417-.634-2.131-.058-1.61-.106-3.221-.153-4.835-.023-.747.012-1.507.018-2.261.012-1.266.023-2.532.041-3.8.035-3.8.165-7.614.247-11.417.183-8.421.089-16.841.136-25.256.023-4.022.07-8.049.218-12.071.159-4.3.318-8.615.606-12.913C8.3,95.673,8.89,87.046,9.452,78.418v.015l0-.052.007-.119v.025c.153-1.99.27-3.989.454-5.978.092-.991.179-1.982.27-2.973.048-.187.1-.374.146-.56.418-1.637.83-3.268,1.278-4.888.606-2.178,1.219-4.363,1.813-6.542.365-1.225.725-2.444,1.084-3.668.524-1.773,1.03-3.551,1.607-5.312q.672-2.049,1.343-4.1c.229-.718.441-1.449.7-2.155.771-2.073,1.53-4.152,2.3-6.23.318-.866.712-1.708,1.072-2.562.388-.924.777-1.854,1.171-2.779,1.272-2.638,2.479-5.305,3.987-7.82l-.018.035a36.06,36.06,0,0,1,2.149-3.091,33.319,33.319,0,0,1,2.8-3.038c.731-.677,1.5-1.325,2.291-1.926a23.284,23.284,0,0,1,2.049-1.331,20.256,20.256,0,0,1,1.9-.906,19,19,0,0,1,1.973-.642,24.105,24.105,0,0,1,2.826-.536c.925-.1,1.849-.153,2.78-.165a26.33,26.33,0,0,1,2.932.217,23.223,23.223,0,0,1,2.526.519,27.221,27.221,0,0,1,2.626.924c.789.354,1.549.742,2.3,1.167h.006c.006.005.017.011.023.017s-.011-.006-.023-.012c.023.012.047.03.065.041s.011.006.017.006a30.379,30.379,0,0,1,3.068,2.132,48.207,48.207,0,0,1,4.169,3.828c0-.006-.006-.006-.006-.012a49.1,49.1,0,0,1,3.733,4.487c-.017-.03-.041-.059-.058-.088,1.107,1.513,2.137,3.061,3.1,4.663.215.354.426.709.64,1.064.016.04.035.08.051.12q.892,2.358,1.79,4.716l0-.007.026.078-.013-.045.022.067,0-.01c.052.153.1.307.15.458.072.312.208.621.3.92.023.064.041.129.065.2.015.045.03.095.049.145.026.081.051.161.077.241l-.02-.057c.01.031.021.061.031.091l.033.1-.012-.044c.045.135.089.27.136.4-.023-.065-.047-.129-.071-.194.046.129.089.258.131.39l-.013-.037.017.048.048.152c-.01-.037-.023-.077-.036-.116.035.1.069.2.1.3l-.012-.038c.163.494.326.989.485,1.483l-.008-.023.011.033.054.167-.015-.049.023.068-.014-.048c.019.057.037.116.056.174l.009.026-.007-.019c.368,1.15.666,2.329,1,3.487.259.877.5,1.761.73,2.644q1.016,3.841,1.984,7.684,3.154,12.578,6.1,25.209,1.431,6.129,2.8,12.283c.459,2.037.871,4.081,1.307,6.118.394,1.851.777,3.7,1.133,5.559l-.008-.035c.047.235.094.476.135.712l-.035-.206c.047.271.1.536.147.807l-.035-.206c.06.307.116.619.176.932l-.011-.049.07.376c.013.052.023.1.032.151a8.765,8.765,0,0,0,.178.935c.028.285.1.569.155.84-.012-.065-.023-.135-.035-.206.049.254.094.5.141.756l-.012-.049c.007.035.014.07.022.1.517,3,.99,6.011,1.44,9.026.174,2,.389,4,.5,6.008.124,2.043.277,4.086.348,6.13.07,2.131.153,4.263.188,6.4q.113,6.081.1,12.163c-.006.45-.017.9-.022,1.357-.071,4.252-.26,8.491-.513,12.731-.224,3.869-.518,7.725-1.024,11.565a67.1,67.1,0,0,1-1.414,6.813c-.163.506-.335,1.008-.521,1.5-.031.023-.06.048-.092.071-.2.121-.393.234-.6.345-.292.134-.586.254-.889.364-.328.094-.65.177-.986.246-.338.051-.676.089-1.018.115q-.564.02-1.128-.014c-.355-.039-.707-.088-1.059-.148a17.762,17.762,0,0,1-1.98-.536,39.266,39.266,0,0,1-3.653-1.576c-.506-.255-1.017-.5-1.517-.767-.836-.436-1.672-.918-2.543-1.266a8.979,8.979,0,0,0-4.1-.748c-.186.016-.37.053-.555.081-.04-.026-.078-.055-.118-.081-1.743-1.107-3.657-2.4-5.8-2.361a6.362,6.362,0,0,0-4.658,2.255,14.444,14.444,0,0,0-2.573,4.788c-.552,1.648-.983,3.342-1.441,5.02-.331,1.131-.668,2.261-1.109,3.359-.141.318-.294.63-.465.936-.1.147-.2.289-.312.43a1.448,1.448,0,0,1-.13.141c-.135.124-.277.242-.424.354-.07.047-.141.094-.212.135-.123.065-.247.124-.371.177.047-.018.1-.041.148-.059-.048.024-.1.041-.154.065s-.076.029-.117.047l.061-.027c-.086.026-.177.053-.267.086-.189.047-.377.082-.572.112-.129.011-.259.023-.382.029-.23-.006-.454-.024-.678-.047-.206-.041-.412-.082-.618-.135-.218-.071-.43-.148-.642-.23-.259-.124-.512-.253-.765-.395-.353-.229-.689-.477-1.019-.73-.365-.312-.706-.648-1.042-.989a26.193,26.193,0,0,1-1.725-2.055c-.46-.642-.925-1.272-1.361-1.937-.565-.866-1.13-1.738-1.7-2.6a46.04,46.04,0,0,0-3.515-4.87,27.709,27.709,0,0,0-2.1-2.143,7.376,7.376,0,0,0-2.556-1.673,5.345,5.345,0,0,0-1.725-.294,4.786,4.786,0,0,0-1.649.294c-1.931.713-3.032,2.579-3.874,4.34-.366.777-.7,1.572-1.031,2.361s-.7,1.549-1.113,2.291C22.733,184.371,22.533,184.66,22.321,184.943Zm10.359-1.449a16.692,16.692,0,0,0-2.808.188c-.667.089-1.335.213-1.994.366.545-1.2,1.061-2.413,1.709-3.563.147-.23.294-.447.453-.665.065-.071.124-.142.189-.212a2.373,2.373,0,0,1,.188-.159c.006-.006.012-.012.018-.012a.682.682,0,0,1,.076-.035.085.085,0,0,1,.036-.012h.041c.047.018.088.029.13.047s.064.029.094.047c.17.112.335.23.5.353.354.312.695.636,1.031.96.471.5.924,1,1.366,1.519.412.489.789,1.007,1.172,1.526l.008.013A10.343,10.343,0,0,0,32.68,183.494Zm1.849,3.6c.02.008.037.021.056.03l-.006,0Zm.053.029.005,0,.012.006Zm27.393-5.2a33.247,33.247,0,0,0-2.278,3.079l-.013.019c.272-.891.561-1.777.917-2.645.177-.377.365-.742.572-1.107.158-.247.329-.489.506-.718.088-.106.182-.206.277-.3a3.148,3.148,0,0,1,.259-.223c.082-.053.165-.112.253-.165.059-.03.118-.053.177-.083.041-.011.076-.023.117-.035.071-.018.142-.03.212-.041h.059a1.536,1.536,0,0,1,.224.017l.094.018q.257.079.512.177c.025.011.048.024.072.035A16.382,16.382,0,0,0,61.975,181.928Zm21.75,4.092c-.259.024-.512.041-.777.047-.342-.012-.677-.035-1.019-.07-.3-.053-.594-.118-.889-.189a12.682,12.682,0,0,1-1.307-.477c-.5-.234-.979-.493-1.453-.773-.773-.485-1.5-1.02-2.224-1.571,2.8,1.389,5.876,2.691,9.018,2.693-.209.075-.415.146-.625.2C84.208,185.938,83.967,185.985,83.725,186.02Z"/><path d="M26.955,104.518a2.214,2.214,0,0,0,1.089.395c.083.006.165.006.242.006a4.556,4.556,0,0,0,1.972-.495,4.964,4.964,0,0,0,1.9-1.766,21.355,21.355,0,0,0,1.337-2.456,35.6,35.6,0,0,0,2.149-6.33c.607-2.349,1.06-4.734,1.443-7.131.389-2.414.7-4.84.889-7.278a66.4,66.4,0,0,0-.241-14.344,29.876,29.876,0,0,0-.654-3.516,17.143,17.143,0,0,0-.954-2.891,6.712,6.712,0,0,0-1.737-2.349A3.491,3.491,0,0,0,32.2,55.4a4.48,4.48,0,0,0-2.479.884,9.744,9.744,0,0,0-2.007,1.772,19.791,19.791,0,0,0-2.862,5.152c-.136.324-.265.654-.383.984a.815.815,0,0,0-.171,0c-.983.082-1.49,1.048-1.825,1.854a21.981,21.981,0,0,0-1.184,4.24,45.617,45.617,0,0,0-.359,14.009c.112.971.235,1.943.383,2.909q0,2.154.07,4.31c.065,2.332.23,4.658.466,6.978a12.328,12.328,0,0,0,.641,3.032,6.342,6.342,0,0,0,1.149,2.132A3.347,3.347,0,0,0,26.955,104.518ZM30.382,59.46c.253-.23.518-.453.789-.659.159-.112.312-.212.477-.307.088-.047.177-.094.271-.135a1.054,1.054,0,0,1,.147-.047c.029-.006.059-.018.094-.024l.071.036c.041.035.094.07.141.106.118.1.23.2.348.306.159.171.306.347.453.53.065.094.124.188.182.288.106.2.2.4.283.6.142.365.271.736.389,1.107a4.861,4.861,0,0,0-1.3-1.06,5.1,5.1,0,0,0-2.38-.706ZM29.693,63.1c.076-.053.153-.1.23-.153.076-.035.153-.076.229-.112l.106-.035a.076.076,0,0,0,.036-.006h.082l.141.035c.118.042.236.083.36.13.07.035.141.07.211.112.112.07.218.141.319.218.041.035.076.07.111.1s.065.076.1.117c.083.118.154.242.23.365a14.836,14.836,0,0,1,.612,1.379c.142.382.26.759.371,1.142.2.818.354,1.637.483,2.467L33.3,68.84c-.048-.135-.095-.271-.142-.406-.194-.518-.388-1.03-.612-1.531-.194-.43-.353-.883-.565-1.307a4.328,4.328,0,0,0-1.832-1.979,4.947,4.947,0,0,0-.712-.312C29.516,63.235,29.605,63.17,29.693,63.1Zm-1.731,4.24c.159-.241.318-.477.494-.713.042-.047.089-.094.13-.135.018.006.035.018.059.029a1.28,1.28,0,0,1,.141.094c.006.012.018.018.03.03.029.029.053.065.082.1.012.024.029.047.041.071.059.112.118.229.171.347a5.642,5.642,0,0,0-1.449.742C27.756,67.716,27.856,67.527,27.962,67.339Zm.141,5.735a9.558,9.558,0,0,1,.335-.978,5.779,5.779,0,0,1,.26-.523c.065-.1.135-.2.206-.3.053-.065.112-.129.171-.194.112-.1.223-.2.341-.294.136-.094.271-.189.412-.271.071-.036.136-.071.206-.1.024-.012.048-.018.077-.03a.083.083,0,0,0,.024.018c.129.118.247.229.371.353l.011.012c.124.412.248.836.36,1.254a30.755,30.755,0,0,1,.692,3.569,42.25,42.25,0,0,1,.276,5,51.46,51.46,0,0,1-.474,6.3,51.679,51.679,0,0,1-1.235,6.137c-.093.337-.191.674-.29,1.011-.353-.665-.665-1.343-.954-2.043.012.035.024.065.035.094-.017-.041-.029-.077-.047-.118-.006-.018-.011-.029-.017-.047.006.006.006.012.011.018a21.348,21.348,0,0,1-.689-2.132,32.685,32.685,0,0,1-.641-3.479,53.312,53.312,0,0,1-.317-6.443,29.256,29.256,0,0,1,.193-3.268A32.852,32.852,0,0,1,28.1,73.074Z"/><path d="M51.4,81.919c.147,1.631.365,3.25.612,4.864.459,2.95,1.019,5.882,1.631,8.8a32.071,32.071,0,0,0,.93,3.562,7.038,7.038,0,0,0,1.1,2.4,3.709,3.709,0,0,0,2.479,1.3c.123.012.241.018.365.018a2.771,2.771,0,0,0,.9-.135,3.312,3.312,0,0,0,1.083-.642,5.1,5.1,0,0,0,1.007-1.26c.035-.053.065-.113.1-.165a3.588,3.588,0,0,0,2.12.211,3.652,3.652,0,0,0,2.1-1.578,13.171,13.171,0,0,0,2.008-6.153,47.266,47.266,0,0,0,.153-7.525c-.159-2.468-.406-4.941-.789-7.384.047-.813.059-1.62.047-2.432a19.79,19.79,0,0,0-1.071-6.707A6.265,6.265,0,0,0,64.712,66.6a.323.323,0,0,1-.042-.035,1.246,1.246,0,0,0,.171-.418,1.27,1.27,0,0,0-.942-1.479c-.147-.447-.289-.9-.412-1.354a11.515,11.515,0,0,0-.507-1.637,5.073,5.073,0,0,0-.73-1.2,6.037,6.037,0,0,0-2.514-1.39,1.7,1.7,0,0,0-1.013-.088,2.653,2.653,0,0,0-.824-.23,3.448,3.448,0,0,0-1.249.118,5.781,5.781,0,0,0-2.332,1.313c-1.495,1.331-1.954,3.456-2.2,5.352-.147,1.137-.283,2.285-.336,3.422-.011.247-.017.494-.023.748-.106.441-.188.895-.253,1.348-.083.524-.142,1.048-.183,1.578a18.758,18.758,0,0,0-.253,4.057C51.121,78.45,51.251,80.193,51.4,81.919Zm12.654,10.3c.023-.053.053-.112.076-.164-.041.523-.094,1.054-.159,1.572-.076.482-.17.948-.288,1.419-.071.23-.147.459-.23.683A35.144,35.144,0,0,0,64.058,92.223ZM58.211,75.494c.306.907.571,1.826.818,2.75.277,1.09.524,2.179.73,3.28.035,1.436.058,2.878.053,4.32a47.665,47.665,0,0,1-.341,5.549V91.4c-.407-1.066-.777-2.149-1.113-3.239a74.435,74.435,0,0,1-.469-8.248A41.854,41.854,0,0,1,58.211,75.494Z"/></svg>