<svg xmlns="http://www.w3.org/2000/svg" width="129.817" height="139.351" viewBox="0 0 129.817 139.351"><path d="M129.58,76.179q.051-1.981-.072-3.957a61.861,61.861,0,0,0-4.646-19.686q-1.15-2.785-2.513-5.466a106.31,106.31,0,0,0-8.922-17.215,90.136,90.136,0,0,0-5.718-8.168,43.777,43.777,0,0,0-7.113-6.813A84.911,84.911,0,0,0,92.34,9.133c-2.885-1.731-5.859-3.391-8.9-4.852a28.678,28.678,0,0,0-4.8-1.884,36.742,36.742,0,0,0-4.711-.966,39.591,39.591,0,0,0-7.2-.328q-.39-.078-.782-.149A55.454,55.454,0,0,0,55.832,0a44.094,44.094,0,0,0-9.781,1.137,38.87,38.87,0,0,0-9.068,3.185,44.565,44.565,0,0,0-7.914,5.235,50.553,50.553,0,0,0-6.777,6.654,68.383,68.383,0,0,0-5.583,7.855c-1.02,1.662-2.018,3.339-2.951,5.052q-1.476,2.306-2.782,4.7-.227.314-.45.63c-.989,1.419-1.913,2.891-2.785,4.387-.806,1.378-1.6,2.774-2.273,4.228A51.674,51.674,0,0,0,2.33,52.5,63.881,63.881,0,0,0,.71,62.453,66.63,66.63,0,0,0,.831,73.806c.009.909.041,1.82.1,2.728A41.283,41.283,0,0,0,.086,82.95C-.243,89.38.3,96.105,3.013,102.029a26.985,26.985,0,0,0,5.352,7.59,46.089,46.089,0,0,0,3.692,3.339,26.148,26.148,0,0,0,3.153,2.3c1.077,1.672,2.223,3.3,3.46,4.868a40.086,40.086,0,0,0,3.221,3.7,30.55,30.55,0,0,0,3.48,2.92,49.346,49.346,0,0,0,8.279,4.894,67.823,67.823,0,0,0,9.363,3.557,84.751,84.751,0,0,0,9.875,2.408c3.439.595,6.907.966,10.381,1.284,3.139.289,6.281.46,9.434.46q.567,0,1.136-.007a49.6,49.6,0,0,0,10.093-.948,44.559,44.559,0,0,0,9.98-3.445,55.12,55.12,0,0,0,8.568-5.364,79.861,79.861,0,0,0,7.85-6.725,57.654,57.654,0,0,0,6.8-7.531,49.334,49.334,0,0,0,5.028-8.845q.5-1.122.952-2.258a42.089,42.089,0,0,0,6.444-18.092A49.747,49.747,0,0,0,129.58,76.179ZM58.724,7.831q.581-.147,1.164-.28,1.151.073,2.3.207c1.211.159,2.413.376,3.6.639a33.106,33.106,0,0,0-4.659-.454c-.181,0-.361,0-.542,0q-1.252,0-2.506.069C58.3,7.949,58.51,7.889,58.724,7.831ZM8.59,104.4a26.839,26.839,0,0,1-1.734-2.631l.049.092c-.021-.038-.042-.076-.062-.114s-.033-.058-.05-.086a.555.555,0,0,1,.029.048,22.37,22.37,0,0,1-1.083-2.3l.008.023a36.619,36.619,0,0,1-1.3-3.974,39.189,39.189,0,0,1-.78-4.105c-.055-.461-.1-.922-.145-1.384q.313.98.656,1.949.863,2.445,1.87,4.842c.727,1.977,1.508,3.935,2.358,5.858q.786,1.775,1.656,3.51Q9.295,105.288,8.59,104.4ZM14.5,94.932a52.382,52.382,0,0,1-3.028-4.772,41.714,41.714,0,0,1-2.138-4.375c-.3-.8-.568-1.6-.8-2.422a42.94,42.94,0,0,1-.85-4.573,81.882,81.882,0,0,1-.731-9.7q0-.984.047-1.967l.069-.207c.815-2.428,1.714-4.817,2.681-7.189l0,.006a47.942,47.942,0,0,1,2.308-4.916l-.041.069.044-.074.056-.1c-.014.029-.029.058-.046.086a77.96,77.96,0,0,1,5.581-7.783c1.056-1.179,2.065-2.394,3.1-3.591,1.472-1.707,2.989-3.352,4.588-4.942a56.043,56.043,0,0,1,5.179-4.491,70.591,70.591,0,0,1,7.334-4.681,77.367,77.367,0,0,1,7.053-3.52,2.238,2.238,0,0,0-.321.868A6.305,6.305,0,0,0,44.829,29a23.791,23.791,0,0,0,.977,2.855l.044.115c.369,1.569.75,3.135,1.234,4.672.064.2.137.4.2.607-.139.109-.285.21-.422.323a25.2,25.2,0,0,0-5.7,2.9,24.835,24.835,0,0,0-5.541,5.288,30.183,30.183,0,0,0-5.47,23.023,30.073,30.073,0,0,0,2.5,7.632,44.065,44.065,0,0,0,9.436,12.7c-.327.342-.658.682-.982,1.026-1.313,1.383-2.638,2.755-3.881,4.192-1.072,1.243-2.043,2.549-3.044,3.845a2.928,2.928,0,0,0,.189,3.532q-1.819,2.352-3.628,4.712c-1.834-.863-3.64-1.782-5.4-2.794a62.48,62.48,0,0,1-5.97-3.953,37.813,37.813,0,0,1-3.246-2.85A23.264,23.264,0,0,1,14.5,94.932ZM66.645,40.537H66.9c1.01.3,2,.652,2.986,1.041a34.106,34.106,0,0,1,3.547,1.736A49.967,49.967,0,0,1,78.625,46.8c.626.492,1.227,1.016,1.834,1.534-.244.2-.487.4-.721.6-1.219,1.066-2.344,2.232-3.569,3.3-1.419,1.236-2.826,2.491-4.192,3.786-.446.424-.884.854-1.325,1.282-1.5-3.466-3.067-6.9-4.6-10.346q-1.07-2.41-2.2-4.8c-.217-.46-.432-.922-.649-1.383A31.949,31.949,0,0,1,66.645,40.537ZM94.756,56.982a48.607,48.607,0,0,1,3.114,4.8,39.866,39.866,0,0,1,1.864,3.785,38,38,0,0,1,1.4,4.136,29.038,29.038,0,0,1,1.009,7.619,35.736,35.736,0,0,1-.243,3.809,33.271,33.271,0,0,1-.7,3.581,31.572,31.572,0,0,1-1.148,3.425,29.192,29.192,0,0,1-1.374,2.8,32.8,32.8,0,0,1-1.976,2.949,30.3,30.3,0,0,1-2.418,2.732,27.056,27.056,0,0,1-2.317,1.989,28.968,28.968,0,0,1-2.6,1.693q-.151-.594-.326-1.184a17.559,17.559,0,0,0,1.563-1.037,24.088,24.088,0,0,0,8.644-12.725,27.244,27.244,0,0,0,1.007-8.072,31.73,31.73,0,0,0-1.342-8.3,44.422,44.422,0,0,0-5.55-11.667c.258-.16.514-.327.776-.482.118-.066.238-.125.357-.189C94.572,56.76,94.669,56.867,94.756,56.982ZM61.289,96.793a40.06,40.06,0,0,1-4.339-2.154c-1.323-.773-2.593-1.621-3.832-2.519.051-.03.108-.053.157-.084a14.779,14.779,0,0,0,2.379-2.026c-.059.059-.124.118-.183.176.1-.094.183-.182.277-.27.719-.684,1.478-1.319,2.2-1.991.654-.606,1.3-1.225,1.938-1.837q.909-.882,1.837-1.749c.477-.449.954-.893,1.431-1.339.262.628.513,1.26.781,1.885,1.242,2.9,2.485,5.824,3.922,8.639.671,1.307,1.389,2.591,2.049,3.909.285.567.577,1.133.894,1.683-.485-.037-.97-.07-1.453-.128a33.978,33.978,0,0,1-3.823-.765A39.425,39.425,0,0,1,61.289,96.793ZM41.106,77.217a28.694,28.694,0,0,1-1.037-3.14l.006.029a30.317,30.317,0,0,1-.6-3.079,27.222,27.222,0,0,1-.206-3.045,25.461,25.461,0,0,1,.835-6.447,32.262,32.262,0,0,1,1.224-3.584,31.863,31.863,0,0,1,1.588-3.235,35.709,35.709,0,0,1,2.5-3.723,32.487,32.487,0,0,1,2.473-2.8A31.7,31.7,0,0,1,50.429,46c.774,2.01,1.557,4.017,2.385,6.006.068.166.137.33.206.5.636,2.065,1.3,4.119,2.037,6.154q.181.5.365,1c.193.817.39,1.632.6,2.444q.574,2.217,1.236,4.41c.377,1.253.777,2.5,1.18,3.747q-1.758,1.968-3.515,3.934c-1.137,1.266-2.267,2.52-3.351,3.833q-2.91,3.533-5.81,7.08c-.187-.234-.385-.459-.567-.7A36.638,36.638,0,0,1,42.884,80.9,35.389,35.389,0,0,1,41.106,77.217Zm2.077-28.429a40.281,40.281,0,0,1,2.473-3.757,31.808,31.808,0,0,1,2.262-2.526c.29-.283.588-.554.887-.824.181.5.361,1,.547,1.489a28.555,28.555,0,0,0-4.024,3.438,34.551,34.551,0,0,0-2.615,3.036C42.866,49.356,43.023,49.072,43.183,48.788ZM88.17,60.921,88,61.056q1.155-.864,2.332-1.71.868,1.319,1.661,2.69a43.8,43.8,0,0,1,2.223,4.519,41.93,41.93,0,0,1,1.5,4.485,27.234,27.234,0,0,1,.919,7.032,28.79,28.79,0,0,1-.185,2.963,26.094,26.094,0,0,1-.569,2.9l.014-.046-.017.059-.042.164q.016-.069.036-.144c-.245.879-.53,1.737-.859,2.591A23.378,23.378,0,0,1,93.777,89.1a25.589,25.589,0,0,1-1.6,2.4A24.8,24.8,0,0,1,90.3,93.626a21.192,21.192,0,0,1-1.765,1.51c-.191.139-.387.271-.583.4-.217-.7-.433-1.4-.675-2.1-.583-1.661-1.225-3.3-1.9-4.935-1.343-3.251-2.774-6.454-4.346-9.6-1.4-2.805-2.826-5.609-4.326-8.367C80.425,67.205,84.194,63.939,88.17,60.921Zm-2.106,40.531c.025.1.038.2.062.3-.286.1-.575.186-.865.272l-.062-.11a6.322,6.322,0,0,0,.225-.969c.007-.046,0-.095.01-.142.133-.048.261-.108.392-.159C85.905,100.912,85.989,101.181,86.064,101.452ZM83.7,46.274c-.221-.2-.433-.4-.657-.6.255.181.5.372.755.556C83.762,46.249,83.728,46.259,83.7,46.274Zm-47.024,13a2,2,0,0,0,.913.079c-.113.355-.22.711-.318,1.069a28.123,28.123,0,0,0,.164,15.923q.347,1.1.771,2.173-.5-.766-.961-1.56a39.511,39.511,0,0,1-1.888-3.87l.029.077-.039-.1c-.018-.043-.037-.086-.055-.13.013.028.025.056.037.084A30.317,30.317,0,0,1,34.25,69.8c-.223-.911-.4-1.825-.528-2.752l0,.021a31.5,31.5,0,0,1-.231-3.4,29.724,29.724,0,0,1,.233-3.465,32.724,32.724,0,0,1,.677-3.4,32.547,32.547,0,0,1,1.134-3.348,30.593,30.593,0,0,1,1.505-3.076A26.534,26.534,0,0,1,38.635,48c.16-.2.323-.406.489-.6a45.356,45.356,0,0,0-2.252,4.946c-.553,1.437-1.036,2.885-1.49,4.357A2.068,2.068,0,0,0,36.672,59.274Zm9.191,59.478c-1.973-.253-3.945-.518-5.912-.836-1.772-.289-3.533-.624-5.3-.954-1.361-.25-2.723-.5-4.084-.76.284-.377.565-.754.85-1.131l-.241.312c.5-.644.988-1.291,1.483-1.936q2.191.912,4.424,1.731a103.3,103.3,0,0,0,15.536,4.36q-3.5-.39-7-.821Zm-25.852-9.2q-1.816-2.424-3.445-4.981,1.275.956,2.611,1.829A75.885,75.885,0,0,0,27.265,111q-1.37,1.848-2.724,3.707c-.226-.217-.452-.435-.675-.657A52.075,52.075,0,0,1,20.011,109.556Zm30.638,17.369.166.024-.193-.026-.178-.021c.048,0,.1.01.144.016a59.066,59.066,0,0,1-6.491-1.272l.07.019-.091-.025c-.092-.023-.183-.045-.274-.069.075.018.153.037.232.058a54.976,54.976,0,0,1-6.012-1.982c.045.018.089.038.133.057l-.246-.1-.113-.045.07.027a44.649,44.649,0,0,1-4.616-2.242q-.951-.556-1.868-1.159,1.276.241,2.551.483c3.439.66,6.884,1.266,10.358,1.719s6.942.848,10.416,1.243q4.691.529,9.381,1.048,4.275.468,8.55.93c.539.061,1.081.107,1.623.148-1.932.381-3.874.709-5.827.972a87.9,87.9,0,0,1-10.292.628A66.215,66.215,0,0,1,50.649,126.925Zm48.388-2.11a61.737,61.737,0,0,1-5.928,3.939,42.38,42.38,0,0,1-4.221,2.041,45.487,45.487,0,0,1-4.737,1.576,39.921,39.921,0,0,1-4.044.814,64.931,64.931,0,0,1-7.481.418c-3.512-.006-7.019-.211-10.513-.546a85.257,85.257,0,0,0,12.715-1.527c3.374-.671,6.748-1.425,10.046-2.42s6.577-2.126,9.792-3.38q3.476-1.365,6.876-2.905Q100.311,123.845,99.037,124.815Zm10.616-13.048q-.546.516-1.128.977c-.468.337-.955.64-1.452.933a117.84,117.84,0,0,1-12.957,6.086c-1.037.417-2.079.826-3.129,1.218q-1.648.35-3.317.582a60.43,60.43,0,0,1-7.1.474c-3.111-.023-6.211-.254-9.307-.55a76.449,76.449,0,0,0,26.769-4.237,59.486,59.486,0,0,0,9.074-4.086c.96-.543,1.91-1.105,2.843-1.7Zm11.688-23.716-.015.113q-.254.725-.534,1.44a43.419,43.419,0,0,1-2.261,4.6,41.459,41.459,0,0,1-2.556,3.852,40.642,40.642,0,0,1-3.407,3.833,41.1,41.1,0,0,1-3.5,3,50.74,50.74,0,0,1-4.853,3.134,59.693,59.693,0,0,1-5.968,2.871,68.6,68.6,0,0,1-7.7,2.543,75.379,75.379,0,0,1-8.735,1.7,82.206,82.206,0,0,1-9.628.595,99.374,99.374,0,0,1-11.971-.758,107.7,107.7,0,0,1-12.789-2.495,108.212,108.212,0,0,1-11.178-3.693q2.242-2.88,4.481-5.767.6-.771,1.208-1.54c.5-.308.99-.629,1.464-.98,1.007-.748,1.961-1.566,2.891-2.408,1.064-.972,2.1-1.977,3.12-2.99a65.481,65.481,0,0,0,6.116,3.809,82.915,82.915,0,0,0,7.678,3.711q2.023.838,4.081,1.6c1.26.459,2.514.936,3.8,1.331a32.85,32.85,0,0,0,4.181,1c.566.1,1.136.183,1.709.256a15.734,15.734,0,0,0,1.154,2.079c.448.624.948,1.2,1.431,1.8a2.9,2.9,0,0,0,2.247,1.024,2.97,2.97,0,0,0,2.275-4.917c-.047-.06-.095-.119-.142-.178.194-.034.387-.074.58-.113.482.618.978,1.226,1.476,1.84A1.651,1.651,0,0,0,88.7,108a19.872,19.872,0,0,0,1.03-2.149,3.961,3.961,0,0,0,.2-1.144,28.013,28.013,0,0,0,10.033-8.127,29.248,29.248,0,0,0,4.033-6.9,32.251,32.251,0,0,0,2.1-7.849,34.341,34.341,0,0,0-1.843-16.44A42.856,42.856,0,0,0,99.2,55.817a1.65,1.65,0,0,0,1.011-1.256,2.186,2.186,0,0,0-1.549-2.367,4.187,4.187,0,0,0-2.288-.064c-.134-.159-.265-.32-.4-.477.068-.059.143-.111.21-.171a9.358,9.358,0,0,0,1.066-1.03c.218-.265.43-.536.642-.807a2.483,2.483,0,0,0-3.475-3.533q-1.071.816-2.117,1.656a59.691,59.691,0,0,0-9.121-7.243,67.46,67.46,0,0,0-7.308-4.146c-1.307-.624-2.638-1.189-3.986-1.713a40.065,40.065,0,0,0-3.922-1.337,27.932,27.932,0,0,0-8.1-.995c-.142,0-.28.03-.422.038a13.922,13.922,0,0,0-1.419-2.767,7.767,7.767,0,0,0-1.925-2.067c-.613-.412-1.268-.74-1.915-1.093l-.023-.014a3.159,3.159,0,0,0-3.056-.212,2.917,2.917,0,0,0-.461.279c-.05-.052-.1-.105-.151-.155a3.16,3.16,0,0,0-3.447-.867,1.384,1.384,0,0,0-.606-.335c.845-.325,1.7-.628,2.568-.882a19.893,19.893,0,0,1,2.223-.438l-.04,0,.041,0,.136-.019c-.043.009-.086.014-.128.019.774-.083,1.548-.138,2.328-.153A36.154,36.154,0,0,1,57.422,24l-.016,0a46.1,46.1,0,0,1,5.364,1.045c2.759.74,5.489,1.624,8.2,2.543,2.721.931,5.424,1.891,8.109,2.921a1.361,1.361,0,0,0,1.719-.86,1.381,1.381,0,0,0-.86-1.719c-4.116-1.572-8.273-3-12.477-4.322-1.855-.583-3.71-1.155-5.612-1.578a46.258,46.258,0,0,0-5.082-.842,24.557,24.557,0,0,0-4.51-.207,20.125,20.125,0,0,0-4.8.872,42.373,42.373,0,0,0-4.352,1.7,87.2,87.2,0,0,0-8.838,4.6,55.384,55.384,0,0,0-8.073,5.67c-1.3,1.107-2.538,2.273-3.739,3.487-.878.888-1.773,1.778-2.6,2.726q-1.405,1.606-2.809,3.215c-.628.722-1.285,1.432-1.873,2.189l-.229.3c.041-.052.082-.106.123-.152-.114.143-.229.291-.343.438q-.954,1.231-1.908,2.472c.02-.027.041-.055.061-.084-.147.2-.294.383-.442.577.028-.036.056-.074.084-.112-.171.227-.346.453-.521.676q-.72.928-1.374,1.906c1.29-3.757,2.787-7.446,4.29-11.12l-.141.353c.943-2.3,1.943-4.564,3.049-6.78,1.449-1.76,2.966-3.463,4.579-5.075a58.212,58.212,0,0,1,4.511-3.85q1.741-1.262,3.495-2.5c.748-.53,1.478-1.071,2.249-1.566Q34.881,19.5,37.1,18.072c1.332-.845,2.673-1.66,4.043-2.45a2.788,2.788,0,0,0,2.723.63c.372-.114.753-.217,1.131-.318a82.171,82.171,0,0,1,8.949-1.815,55.082,55.082,0,0,1,5.868-.409,33.14,33.14,0,0,1,3.558.236,41.554,41.554,0,0,1,4.449.851A43.745,43.745,0,0,1,73.1,16.584a62.241,62.241,0,0,1,6.353,3.181,76.1,76.1,0,0,1,7.773,5.293,98.5,98.5,0,0,1,9.388,8.408,121.528,121.528,0,0,1,9.811,11.388,117.165,117.165,0,0,1,7.817,11.734,74.4,74.4,0,0,1,3.974,8.331,61.607,61.607,0,0,1,2.156,6.405,45.027,45.027,0,0,1,.991,5.059c-.01-.075-.019-.15-.026-.222.01.082.019.163.029.245l.018.132c-.006-.041-.012-.083-.017-.124a51.665,51.665,0,0,1,.334,5.466,53.845,53.845,0,0,1-.376,6.258Z"/><path d="M14.642,46.118l.081-.1.043-.056C14.725,46.012,14.684,46.066,14.642,46.118Z"/><path d="M15.166,45.441l.006-.007c.04-.051.078-.1.118-.152Z"/></svg>