<svg xmlns="http://www.w3.org/2000/svg" width="307.776" height="403.827" viewBox="0 0 307.776 403.827"><path d="M86.779,68.991c.012-.038.026-.075.038-.113l.014-.045C86.814,68.886,86.8,68.939,86.779,68.991Z"/><path d="M307.562,255.723a46.94,46.94,0,0,0-1.177-7.086,48.148,48.148,0,0,0-2.3-6.9,68.9,68.9,0,0,0-3.344-6.776q-1.766-3.175-3.7-6.245-1.051-1.657-2.11-3.3a87.008,87.008,0,0,0-4.4-7.866,84.585,84.585,0,0,0-5.393-7.686c-.716-.9-1.438-1.8-2.153-2.7-.155-.234-.315-.461-.48-.687q-1.834-2.5-3.669-5.009c-.863-1.174-1.828-2.269-2.757-3.391-.946-1.141-1.875-2.288-2.875-3.38-1.287-1.415-2.584-2.821-3.871-4.236h0c-.388-.418-.8-.815-1.2-1.22-.719-.743-1.446-1.491-2.17-2.232-2.289-2.343-4.7-4.577-7.122-6.783-1.248-1.139-2.539-2.226-3.816-3.333-1.233-1.077-2.532-2.076-3.812-3.1-.591-.472-1.225-.9-1.84-1.344-.549-.4-1.1-.818-1.676-1.2-.391-.258-.791-.5-1.184-.759l-.489-1.42c-.187-.53-.4-1.047-.61-1.572q-.792-1.968-1.581-3.932c-.285-.706-.54-1.438-.858-2.129-.405-.894-.821-1.786-1.232-2.679-.77-1.677-1.5-3.383-2.355-5.02-1.051-2-2.092-4.012-3.143-6.014.024.049.047.091.071.14-.368-.721-.8-1.414-1.2-2.116q-.951-1.656-1.9-3.313c-.55-.961-1.1-1.918-1.645-2.88.3-.522.617-1.036.907-1.565a109.817,109.817,0,0,0,6.925-15.319c1.035-2.861,1.955-5.767,2.74-8.7.611-1.372,1.119-2.791,1.665-4.183.23-.585.485-1.171.682-1.766.325-1.01.637-2.022.962-3.031.192-.619.39-1.239.587-1.858.075-.237.162-.471.222-.717.237-1,.466-2,.707-3.01.269-1.135.533-2.269.8-3.41.149-.644.224-1.318.333-1.976.433-2.669.918-5.326,1.213-8.015.306-2.814.5-5.629.532-8.459.017-1.685.014-3.377-.1-5.061-.093-1.349-.18-2.7-.274-4.046-.047-.753-.061-1.514-.156-2.261-.276-2.128-.547-4.264-.828-6.391-.167-1.256-.438-2.512-.7-3.75-.276-1.3-.576-2.606-.909-3.894a64.65,64.65,0,0,0-2.592-8.014,70.287,70.287,0,0,0-8.145-14.889A58.736,58.736,0,0,0,224.909,17.5c-.686-.539-1.4-1.041-2.106-1.552-.45-.441-.9-.88-1.376-1.288-.795-.681-1.58-1.372-2.379-2.047-.278-.24-.584-.443-.875-.662-.477-.354-.948-.71-1.426-1.07-.725-.548-1.529-1-2.294-1.486s-1.566-.9-2.364-1.328c-.826-.444-1.684-.819-2.535-1.213-.757-.358-1.532-.693-2.317-1s-1.571-.628-2.376-.889l-.332-.106a39.087,39.087,0,0,0-5.557-2.341A48.362,48.362,0,0,0,191.119.643a61.69,61.69,0,0,0-8.066-.636c-1.195-.024-2.386.018-3.581.043-.7.015-1.394.032-2.087.052-.266.006-.527.005-.79.021L176.7.115c-.961.064-1.928.128-2.888.2-.912.064-1.832.1-2.743.192L171.105.5c-.5.045-1,.1-1.5.149a74.252,74.252,0,0,0-8.474.454,80.339,80.339,0,0,0-9.1,1.583l-.13.014c-1.992.163-3.989.284-5.976.493-1.211.132-2.426.271-3.642.41-.744.083-1.493.142-2.235.26-1.227.19-2.448.379-3.673.575-1.443.226-2.866.484-4.291.8A53.757,53.757,0,0,0,116.82,11.1a54.424,54.424,0,0,0-6.712,4.6,55.6,55.6,0,0,0-4.533,3.994q-1.364,1.359-2.739,2.721c-.579.575-1.109,1.2-1.661,1.809-.609.674-1.258,1.334-1.827,2.045q-1.159,1.446-2.308,2.888c-.487.606-.924,1.238-1.379,1.873q-.531.75-1.063,1.5-1.975,2.667-3.744,5.484c-1.353,2.121-2.554,4.338-3.8,6.524-.418.736-.817,1.5-1.263,2.215-.177.286-.318.6-.473.9l-.468.9c-.306.6-.613,1.2-.91,1.8q-.861,1.734-1.654,3.495A85.227,85.227,0,0,0,77,69.576q-.5,2.2-.889,4.421c-.171.972-.368,1.955-.488,2.938s-.238,1.941-.359,2.917c-.165,1.358-.332,2.71-.5,4.068-.061.489-.124.966-.154,1.453-.171,2.433-.34,4.873-.51,7.306-.129,1.773-.125,3.569-.106,5.348.02,2.786.163,5.573.44,8.344,1.108,11.144,4.044,22.271,10.163,31.755a59.052,59.052,0,0,0,6.95,8.8q-.452.875-.9,1.747-1.59,3.083-3.16,6.17-2.144,4.19-4.163,8.453a15.354,15.354,0,0,0-4.114-.522,17.291,17.291,0,0,0-6.592,1.406,33.3,33.3,0,0,0-3.4,1.685c-.8.46-1.6.914-2.36,1.438l0,0c-1,.671-1.989,1.35-2.977,2.024-.753.509-1.468,1.076-2.192,1.627-.746.562-1.515,1.105-2.231,1.715-.987.834-1.965,1.684-2.949,2.531-1.267,1.08-2.442,2.258-3.647,3.414-.494.476-1.016.939-1.492,1.44-.192.2-.384.405-.57.609q-1.662,1.552-3.23,3.184c-.029.032-.059.057-.087.088q-2.242,1.853-4.386,3.806c-.9.826-1.81,1.653-2.682,2.513L35.614,195a95.532,95.532,0,0,0-6.976,7.709c-1.548,1.9-3.042,3.841-4.432,5.862-1.368,1.985-2.648,4.034-3.865,6.115-.545.93-1.078,1.859-1.575,2.813-.509.977-1.011,1.958-1.518,2.94q-.818,1.578-1.635,3.156c-.247.474-.511.947-.729,1.438l.082-.184c-.026.052-.05.1-.073.154a.748.748,0,0,0-.044.095l.027-.058-.028.059-.012.031,0,.007h0a.158.158,0,0,0-.013.026l-.011.021.009-.014.013-.021c-.029.055-.053.1-.076.158l0,.007-.014.032c-.031.061-.061.132-.091.2-.069.15-.137.3-.207.443a.486.486,0,0,0,.028-.051c-.025.054-.05.1-.074.16l.013-.022a.145.145,0,0,0-.02.042.706.706,0,0,0-.035.067l.011-.019-.013.024c-.009.021-.018.042-.026.065.008-.019.015-.04.024-.061-.022.044-.042.086-.061.131a.081.081,0,0,1,.017-.029c-.079.171-.162.35-.24.521l0-.006c-.031.07-.062.14-.1.21l.006-.011c-.016.034-.032.068-.047.1l-.006.011-.026.056,0,.008v0c-.092.2-.184.4-.271.6-.045.09-.083.178-.128.268.02-.041.036-.076.057-.112l-.068.139,0,.012,0-.006-.013.028,0,.006,0,0c-.044.087-.084.174-.122.264l.015-.027-.016.029-.009.02.009-.019c-.01.017-.018.034-.026.048l-.016.035.005-.008-.014.031a.25.25,0,0,0-.016.043l.006-.023c-.067.146-.134.289-.2.436a.423.423,0,0,1,.019-.048c-.05.116-.1.232-.158.343-.057.136-.121.267-.174.4.027-.062.048-.122.076-.183-.085.2-.176.39-.262.581.021-.06.05-.116.077-.177-.066.142-.131.29-.2.432h0l-.116.242c-.07.16-.143.312-.213.471l.019-.034-.048.1-.008.016,0,0a.609.609,0,0,0-.025.057l0-.017c-.028.056-.054.115-.082.175a.045.045,0,0,1,.01-.014c-.064.131-.123.261-.181.391s-.126.274-.185.4c0-.006,0-.013,0-.018-.007.019-.015.034-.022.054a.377.377,0,0,1-.032.068c-.03.075-.066.15-.1.226-.421.918-.779,1.868-1.166,2.8-.593,1.422-1.174,2.841-1.766,4.263-.171.412-.312.842-.467,1.269-.4,1.127-.814,2.26-1.219,3.387-.275.772-.55,1.544-.831,2.318-.2.567-.352,1.168-.528,1.752-.352,1.168-.7,2.34-1.048,3.514-.159.531-.346,1.07-.478,1.612-.449,1.878-.91,3.753-1.364,5.632-.215.89-.352,1.8-.51,2.7-.119.691-.224,1.391-.317,2.088-.463,2.161-.869,4.331-1.2,6.519A47.881,47.881,0,0,0,0,277.476a21.015,21.015,0,0,0,1.057,6.8,16.19,16.19,0,0,0,3.266,5.509,15.479,15.479,0,0,0,5.044,3.658,16.345,16.345,0,0,0,6.172,1.412,23.128,23.128,0,0,0,6.5-.618l.16-.04a45.057,45.057,0,0,0,6.7-2.308,60.168,60.168,0,0,0,6.468-3.292,106.93,106.93,0,0,0,12.2-8.278c1.958-1.519,3.863-3.1,5.734-4.73.8-.7,1.612-1.4,2.386-2.136q1.548-1.481,3.108-2.958c-.07.82-.141,1.64-.184,2.463q-.165,2.991-.326,5.974c-.057,1-.121,2-.163,3-.1,1.007-.205,2.014-.323,3.018q-.513,4.3-1.034,8.589c-.338,2.809-.727,5.606-1.092,8.4-.325,2.52-.618,5.045-.917,7.571q-.9,7.5-1.425,15.034c-.114,1.637-.229,3.268-.343,4.905-.073,1.025-.1,2.05-.144,3.075-.072,1.615-.147,3.235-.218,4.849-.049,1.074-.028,2.155-.033,3.231q-.015,2.279-.032,4.547c0,.375.035.749.049,1.122.043.881.081,1.764.118,2.641.045.911.084,1.824.123,2.736.019.317.018.633.055.952.166,1.518.328,3.043.494,4.562.1.994.179,1.988.346,2.972q.435,2.586.868,5.166c.418,2.5,1.066,4.959,1.634,7.434.111.469.262.929.39,1.395q.366,1.284.729,2.562c.348,1.248.738,2.474,1.114,3.715.161.524.343,1.037.527,1.556.257.737.5,1.477.8,2.2a19.653,19.653,0,0,0,1.059,2.205,6.293,6.293,0,0,0,1.1,1.607,16.917,16.917,0,0,0,3.475,2.326c1.4.731,2.788,1.485,4.175,2.241a35.73,35.73,0,0,0,2.447,3.6,18.976,18.976,0,0,0,8.064,6.28,12.8,12.8,0,0,0,5.15.968,10.509,10.509,0,0,0,2.181-.307c.456-.124.914-.268,1.365-.429.095.032.188.071.285.1a15.611,15.611,0,0,0,2.7.479,16.917,16.917,0,0,0,2.433.146,15.944,15.944,0,0,0,3.877-.832,28.22,28.22,0,0,0,2.677-.9,19.7,19.7,0,0,0,3.956-2.315,20.853,20.853,0,0,0,2.035-1.7c.612-.589,1.234-1.187,1.79-1.829l1.215-1.407c.452-.526.909-1.052,1.365-1.584a35.091,35.091,0,0,0,3-4.055c2.258-3.531,4.126-7.285,6.04-11q3.56-6.94,7.064-13.9c1.234-2.431,2.459-4.866,3.7-7.288,1.143-2.232,2.233-4.506,3.553-6.637.137-.2.283-.4.436-.589.054-.049.1-.1.151-.146s.1-.081.153-.118c.217-.137.437-.264.659-.385l.014-.007.018-.011-.008,0,.014-.007.023-.015-.015.011c.914-.437,1.847-.826,2.787-1.211.533-.175,1.056-.391,1.59-.536.729-.2,1.456-.4,2.19-.581a23.628,23.628,0,0,1,2.539-.409c.769-.058,1.541-.075,2.315-.061a30.078,30.078,0,0,1,3.106.312,27,27,0,0,1,3.426.816,30.352,30.352,0,0,1,3.084,1.2l.021.011.022.011a36.669,36.669,0,0,1,3.624,2.006l-.021-.013a41.149,41.149,0,0,1,3.91,2.91l-.082-.065a73.4,73.4,0,0,1,5.718,5.633c1.22,1.389,2.454,2.762,3.635,4.192,1.266,1.523,2.49,3.075,3.714,4.627,1.026,1.3,2.022,2.623,3.013,3.949.541,1.22,1.084,2.437,1.644,3.647.632,1.366,1.263,2.731,1.939,4.08a75.389,75.389,0,0,0,3.628,6.67c.58.917,1.175,1.819,1.8,2.7.329.47.654.948,1.014,1.392.566.714,1.139,1.428,1.711,2.141.617.774,1.235,1.525,1.9,2.257a30.378,30.378,0,0,0,4.106,3.862,24.617,24.617,0,0,0,4.719,2.841,29.916,29.916,0,0,0,5.3,1.847,26.23,26.23,0,0,0,11.734.45c.253-.057.5-.119.755-.182.726-.181,1.446-.384,2.155-.634a22.035,22.035,0,0,0,2.45-1.053,23.377,23.377,0,0,0,4.378-2.814,42.974,42.974,0,0,0,7.976-8.711,70.082,70.082,0,0,0,6.3-10.844c.851-1.828,1.648-3.68,2.374-5.563l.442-.811c.253-.47.475-.943.7-1.431v.006c0-.006,0-.006,0-.013s0-.011,0-.013h.006a.135.135,0,0,1,.025-.067c.017-.029.029-.055.046-.084a.13.13,0,0,0-.021.035c.084-.172.161-.349.24-.521v.006a.024.024,0,0,1,0-.013c0-.007,0-.013.009-.014h-.006c.012-.026.027-.061.044-.09s.02-.041.033-.062l-.013.021c.051-.115.1-.225.154-.335,0-.007,0-.013.007-.02l.025-.043c-.005,0,0,.007-.01.008.185-.4.371-.8.557-1.2.09-.2.185-.4.276-.6a.213.213,0,0,0-.013.046l.035-.082a.974.974,0,0,1,.048-.1c-.01.009-.013.022-.023.03a54,54,0,0,0,3.741-11.363c.261-1.243.516-2.484.777-3.726.067-.314.1-.644.148-.965.1-.663.2-1.324.294-1.985.118-.818.242-1.638.365-2.457.082-.573.119-1.153.183-1.727.148-1.451.315-2.9.445-4.353q.268-2.971.528-5.947c.083-.569.164-1.138.248-1.706.158-1.071.279-2.145.413-3.216q.332-2.65.661-5.311c.164-1.339.259-2.686.386-4.028.139-1.413.309-2.826.4-4.246.4-5.84.849-11.668,1.09-17.518.083-1.981.165-3.967.242-5.947.047-1.031.093-2.062.114-3.1.047-3,.153-6.009.116-9.01-.032-2.977-.027-5.953-.143-8.928-.015-.361-.028-.723-.042-1.084a43.826,43.826,0,0,0,7.394,7.723,40.352,40.352,0,0,0,6.78,4.416q1.063.835,2.2,1.568a24.4,24.4,0,0,0,2.712,1.533,19.9,19.9,0,0,0,6.256,1.846,17.665,17.665,0,0,0,5.724-.286c.437,0,.871-.01,1.307-.04a13.63,13.63,0,0,0,2.234-.362,12.319,12.319,0,0,0,3.713-1.587,16.826,16.826,0,0,0,4.548-4.5,27.551,27.551,0,0,0,2.976-5.687,38.574,38.574,0,0,0,1.913-6.4A46.705,46.705,0,0,0,307.562,255.723Zm-56.885-59.977q-1.662-4.289-3.431-8.532c-.534-1.292-1.044-2.609-1.619-3.892-.338-.747-.671-1.5-1.011-2.255-.121-.34-.255-.682-.382-1.021-.209-.573-.4-1.157-.634-1.718-.292-.685-.583-1.365-.875-2.051-.363-.852-.749-1.7-1.136-2.538l-.06-.173c-.131-.39-.288-.774-.444-1.158q-.328-1.014-.659-2.028c1.1.655,2.188,1.333,3.284,2l-.176-.12c.384.262.774.514,1.162.769q.462,1.356.923,2.712c.165.493.348.981.49,1.48q.46,1.624.927,3.258c.466,1.65.965,3.286,1.358,4.96.5,2.085.979,4.174,1.48,6.258l-.04-.16C250.117,192.935,250.4,194.339,250.677,195.746ZM206.36,393.589c-.036-.021-.076-.036-.11-.052-.88-.429-1.727-.909-2.562-1.414l.026.013c.663.32,1.363.571,2.039.851.488.206.977.436,1.481.608,1.821.614,3.619,1.277,5.492,1.709l.055.012c-.445-.04-.889-.088-1.337-.148a19.709,19.709,0,0,1-5.127-1.6ZM99.1,389.206a52.915,52.915,0,0,1-3.613,5.033,33.958,33.958,0,0,1-2.593,2.745,22.746,22.746,0,0,1-1.966,1.607,15,15,0,0,1-1.5.914l.011,0c-.182.089-.371.159-.555.242-3.848-1.912-7.642-3.93-11.425-5.959-1.688-.9-3.355-1.822-5.034-2.739q-.469-.255-.937-.512-.8-1.361-1.524-2.76a69.667,69.667,0,0,1-3.13-7.223c-.1-.326-.21-.65-.314-.975a34.522,34.522,0,0,0,3.538,5.835,27.994,27.994,0,0,0,4.035,4.383,22.193,22.193,0,0,0,4.318,3.008,16.646,16.646,0,0,0,5.214,1.76,13.5,13.5,0,0,0,4.863-.138,13.686,13.686,0,0,0,2.7-.861c.451-.209.891-.44,1.33-.676.563-.3,1.11-.635,1.656-.977a34.4,34.4,0,0,0,6.041-5.032c.263-.268.517-.544.778-.815C100.362,387.116,99.745,388.171,99.1,389.206ZM43.948,272.874c.833-.8,1.659-1.6,2.46-2.427.746-.781,1.5-1.563,2.244-2.344.827-.868,1.657-1.729,2.48-2.59.36-.381.743-.743,1.082-1.137,2.121-2.228,4.156-4.531,6.262-6.773,2.32-2.477,4.631-4.965,6.961-7.427.842-.883,1.677-1.771,2.513-2.653.37-.389.754-.77,1.1-1.167,1.323-1.513,2.686-2.981,4.026-4.474.419-.463.877-.91,1.263-1.408.424-.542.867-1.077,1.3-1.616,1.2-1.5,2.447-2.965,3.622-4.483-.028.031-.061.07-.09.1.058-.063.112-.137.167-.206-.055.093-.116.193-.177.288-.517.8-1.041,1.594-1.543,2.405.026-.043.053-.08.085-.124-.036.051-.072.1-.1.152L77.6,237c-1.43,2.161-2.883,4.3-4.394,6.406-.8,1.115-1.607,2.221-2.411,3.332-.4.549-.813,1.094-1.166,1.674-.294.479-.544.985-.837,1.464a23.009,23.009,0,0,1-1.556,2.063c-.56.649-1.133,1.272-1.719,1.891-1.134,1.2-2.337,2.336-3.512,3.49l-.272.269a3.525,3.525,0,0,1-1.049-.094c-.255.148-.508.3-.756.449-.059.531-.114,1.064-.172,1.6q-.668.66-1.336,1.319c-1.217,1.2-2.445,2.388-3.673,3.574-1.18,1.131-2.387,2.233-3.574,3.36-.012.012-.024.021-.032.031-.938.851-1.87,1.7-2.811,2.54-.989.877-2.014,1.709-3.021,2.561-.766.652-1.569,1.253-2.361,1.875-1.357,1.055-2.719,2.091-4.131,3.075-.876.6-1.763,1.179-2.671,1.727A85.284,85.284,0,0,0,43.948,272.874ZM95.9,216.085c.256-.677.473-1.368.709-2.052.273-.8.574-1.593.821-2.4-.011.051-.029.1-.041.149.514-1.59,1.041-3.178,1.5-4.78.278-.955.563-1.906.829-2.859.234-.84.413-1.7.615-2.549.172-.7.308-1.394.447-2.1.15-.789.33-1.574.441-2.372.142-.965.277-1.933.419-2.9.118-.818.144-1.662.218-2.487.03-.39.059-.786.071-1.177a35.107,35.107,0,0,0,1.032-4.456,18.745,18.745,0,0,0-.106-6.783,14.426,14.426,0,0,0-1.186-3.394l.5.523,0,0a24.169,24.169,0,0,1,1.61,2,21.046,21.046,0,0,1,1.1,1.853c.284.579.546,1.169.776,1.773a15.772,15.772,0,0,1,.5,1.756c.176.873.292,1.746.384,2.634a34.768,34.768,0,0,1,.1,3.763,45.108,45.108,0,0,1-.509,5.017,76.341,76.341,0,0,1-2.216,9.473,71.731,71.731,0,0,1-3.281,8.7c.028-.056.051-.11.08-.166a74.868,74.868,0,0,1-4.667,8.572l.008-.008a.1.1,0,0,1-.017.023c-.025.043-.047.079-.073.121.013-.021.025-.048.038-.07-.192.3-.384.606-.582.9-.74,1.124-1.472,2.254-2.265,3.331q-.869,1.191-1.743,2.382c-1.137,1.552-2.289,3.089-3.41,4.655.582-1.025,1.137-2.061,1.7-3.093.3-.541.605-1.08.874-1.632.476-.987.96-1.969,1.436-2.955.761-1.574,1.434-3.185,2.118-4.8C94.779,219.175,95.32,217.62,95.9,216.085Zm1.979-31.3a26.339,26.339,0,0,1,.433,2.787c.07.936.089,1.865.074,2.8q-.045,1.286-.177,2.557c-.048.145-.091.29-.14.435a35.174,35.174,0,0,0,.119-3.519,30.312,30.312,0,0,0-.744-6.271c-.153-.666-.334-1.319-.538-1.966l.2.526A27.036,27.036,0,0,1,97.881,184.788Zm-.5-9.967c.08.077.154.155.235.238.263.3.51.608.748.931a11.672,11.672,0,0,1,.757,1.262c.184.372.352.755.5,1.143.157.458.3.915.406,1.385-.032-.083-.072-.17-.105-.253A32.688,32.688,0,0,0,97.382,174.821Zm-6.465,44.757c-.48,1.145-.979,2.283-1.44,3.429-.583,1.263-1.2,2.507-1.794,3.761-.559,1.165-1.208,2.286-1.822,3.427-.509.953-1.037,1.879-1.587,2.811-.734,1.221-1.473,2.442-2.193,3.672-.656.971-1.282,1.964-1.924,2.943-.585.892-1.137,1.818-1.765,2.685-1.449,2-2.878,4.012-4.349,6-.813.949-1.571,1.951-2.355,2.923-.158.191-.311.381-.464.571.376-.634.7-1.3,1.072-1.93.641-.985,1.336-1.923,2.028-2.872.622-.865,1.238-1.728,1.852-2.6q1.127-1.611,2.231-3.245c.578-.847,1.166-1.7,1.713-2.575,1.057-1.6,2.07-3.24,3.083-4.87,1.735-2.781,3.378-5.636,4.887-8.543,1.189-2.292,2.347-4.607,3.37-6.98C91.286,218.649,91.1,219.113,90.917,219.578ZM65.223,258.52l.985-.962c.19-.188.386-.376.574-.569a.36.36,0,0,0-.037.047c-.515.58-1.03,1.163-1.551,1.74C65.2,258.691,65.213,258.606,65.223,258.52Zm97.125-89.409c-.043,0-.092,0-.135,0a.388.388,0,0,0,.042,0c-.583-.025-1.167-.08-1.747-.117-1.1-.078-2.206-.16-3.306-.239s-2.189-.164-3.282-.238c-.364-.024-.725-.037-1.088-.08-1.845-.22-3.694-.457-5.542-.689l-2.936-.361c-1.109-.142-2.212-.329-3.32-.514l.166.032a107.2,107.2,0,0,1-13.327-3.07,85.556,85.556,0,0,1-10.231-3.944l.006,0a77.136,77.136,0,0,1-8.448-4.606l.021.012a.285.285,0,0,1-.051-.035c-.034-.016-.064-.039-.093-.056l.007,0a72.852,72.852,0,0,1-7.5-5.54c.04.039.085.076.125.115a47.3,47.3,0,0,1-4.264-4.06c-.413-.461-.807-.939-1.2-1.417l.056-.1a1.442,1.442,0,0,0-.573-1.933,1.361,1.361,0,0,0-1.118-.089c-.065-.09-.136-.175-.2-.265a66.664,66.664,0,0,1-4.43-7.21c-.729-1.439-1.376-2.921-1.987-4.418a1.183,1.183,0,0,0,.814.1,1.2,1.2,0,0,0,.3-.12,1.066,1.066,0,0,0,.222-.2c.226.415.447.83.678,1.246.342.619.691,1.242,1.039,1.859.114.214.229.428.358.633.642,1.017,1.288,2.027,1.93,3.045a46.837,46.837,0,0,0,3.288,4.5,60.115,60.115,0,0,0,11.927,11.185,61.081,61.081,0,0,0,14.653,7.643,70.254,70.254,0,0,0,7.8,2.287c1.4.318,2.806.593,4.225.835.944.159,1.892.335,2.846.462,1.1.137,2.2.282,3.3.427l2.025.26c.265.037.539.09.8.109.984.076,1.961.221,2.941.329.923.1,1.846.2,2.766.312,1.2.143,2.395.272,3.594.405a1.212,1.212,0,0,0,.876.876,1.146,1.146,0,0,0,.54,0,1.207,1.207,0,0,0,.763-.629q3.025.323,6.049.621c2.11.209,4.218.363,6.327.523,1.137.088,2.277.155,3.418.194a1.384,1.384,0,0,0-.114.264,4.642,4.642,0,0,0-.166.939c-.013.218-.026.434-.04.651-2.919.139-5.842.153-8.774.064a.021.021,0,0,0-.013,0h.006A.037.037,0,0,0,162.348,169.111Zm-51.64-9.8c0,.006.007,0,.008.01-.565-.369-1.122-.753-1.677-1.154.674.415,1.355.809,2.041,1.2a81.077,81.077,0,0,0,10.081,4.826q-2.873-1.077-5.657-2.341c.006,0,.007,0,.013,0A42.122,42.122,0,0,1,110.708,159.306ZM94.92,146.656c.5.582,1.013,1.155,1.549,1.706-.56-.5-1.1-1.018-1.641-1.535C94.858,146.77,94.889,146.713,94.92,146.656Zm-4.535-92.49c.411-.982.8-1.97,1.235-2.935.53-1.156,1.047-2.314,1.578-3.465.313-.624.629-1.24.943-1.86.277-.542.526-1.1.832-1.627.433-.746.873-1.492,1.3-2.243.3-.505.572-1.022.882-1.519.844-1.28,1.677-2.562,2.51-3.84,1.168-1.612,2.307-3.247,3.52-4.823,1.234-1.616,2.485-3.214,3.8-4.77.764-.842,1.519-1.7,2.29-2.537.351-.388.746-.741,1.128-1.107,1.654-.964,3.327-1.9,5-2.83.936-.482,1.859-.991,2.782-1.5-.852.77-1.693,1.562-2.51,2.373-1.282,1.26-2.56,2.537-3.766,3.881-.874.976-1.74,1.957-2.613,2.933-.611.692-1.25,1.368-1.844,2.074-.568.669-1.095,1.377-1.646,2.066l-2.38,3.015c-.386.5-.736,1.015-1.094,1.528-1.118,1.6-2.28,3.172-3.29,4.844L96.93,45.332c-.315.516-.614,1.021-.893,1.558-.623,1.2-1.241,2.4-1.865,3.6-.309.587-.625,1.169-.893,1.776-.5,1.145-1.008,2.284-1.506,3.428-.314.715-.664,1.427-.943,2.158-.72,1.885-1.478,3.761-2.158,5.659-.355.987-.689,1.986-1.031,2.976-.277.793-.574,1.588-.824,2.395q-.8,2.51-1.568,5.028h.006l-.022.059c-.01.034-.02.067-.029.105v-.006c-.172.577-.3,1.168-.45,1.751-.266,1-.524,2.012-.791,3.012-.339,1.293-.57,2.607-.84,3.911q-.142.707-.288,1.415.007-.135.015-.267c.091-.838.176-1.673.261-2.509.057-.549.117-1.091.174-1.64.03-.244.04-.5.076-.741.268-1.606.517-3.219.783-4.831.175-.816.356-1.628.536-2.446.113-.52.23-1.046.342-1.572.046-.2.078-.42.136-.622.241-.837.47-1.671.707-2.5.194-.689.37-1.384.579-2.066.554-1.582,1.094-3.171,1.6-4.771-.017.053-.03.1-.047.152Q89.115,57.228,90.385,54.166Zm91.042-37.929q.809,2.442,1.618,4.886c.132.41.26.827.388,1.244-.28-.494-.554-.984-.83-1.48-.874-1.585-1.742-3.17-2.626-4.747-.849-1.505-1.818-2.933-2.808-4.349-.918-1.325-1.888-2.612-2.858-3.9-.578-.76-1.156-1.521-1.79-2.236-.021-.024-.045-.045-.066-.069l2.14-.076a1.1,1.1,0,0,0,.021.126,1.238,1.238,0,0,0,.9.849,1.066,1.066,0,0,0,.43.021c.016.014.035.021.051.035.059.041.119.086.178.132.226.2.441.406.648.627.306.35.584.711.853,1.086a25.158,25.158,0,0,1,1.478,2.5A51.38,51.38,0,0,1,181.427,16.237ZM82.833,84.157l0,.024.009-.152C82.836,84.07,82.833,84.112,82.833,84.157Zm115.225,77.368c1.175-.566,2.308-1.183,3.443-1.817,1-.552,1.978-1.118,2.979-1.659.231-.118.45-.288.67-.427.526-.35,1.059-.7,1.592-1.041.579-.38,1.158-.756,1.737-1.136.266-.176.542-.335.8-.527.8-.618,1.607-1.225,2.414-1.833.526-.4,1.046-.8,1.572-1.192.2-.153.4-.3.586-.474-.044.041-.093.09-.143.132,1.351-1.18,2.72-2.358,4.052-3.564.486-.412.92-.909,1.377-1.363.811-.814,1.627-1.63,2.438-2.446.2-.2.385-.423.575-.635.438-.485.875-.97,1.311-1.461.376-.418.756-.834,1.131-1.254.068.263.142.522.23.779q-1.372,1.863-2.854,3.642a1.171,1.171,0,0,0-1.525,1.02c-.006,0-.006,0,0,.007a1.164,1.164,0,0,0,.095.552c-1.4,1.536-2.849,3.019-4.379,4.426a79.721,79.721,0,0,1-7.6,6.049,68.314,68.314,0,0,1-6.813,4.124,64.123,64.123,0,0,1-7.076,3.093,1.569,1.569,0,0,1,.16-.064,76.875,76.875,0,0,1-9.294,2.691l.1-.026a88.517,88.517,0,0,1-9.906,1.6c0-.24-.015-.479-.01-.719.012-.267.031-.533.046-.8a49.013,49.013,0,0,0,6.126-.566A59.015,59.015,0,0,0,198.058,161.525Zm53.88,179.247q-.552,3.151-1.116,6.31c-.281,1.624-.639,3.23-.991,4.841-.369,1.682-.7,3.367-1.15,5.026-.522,1.975-1.023,3.957-1.57,5.926q-.88,2.75-1.776,5.491c-.366,1.131-.767,2.25-1.185,3.363q-.539.986-1.079,1.972l-.487.89c.064-.162.135-.321.2-.484a94.987,94.987,0,0,0,3.328-10.533c.4-1.562.737-3.133,1.072-4.709q.519-2.487,1.051-4.965c.191-.916.305-1.848.445-2.769.269-1.748.536-3.5.81-5.251.125-.838.2-1.677.289-2.517.275-2.624.582-5.237.772-7.863.185-2.668.407-5.333.549-8,.146-2.749.317-5.5.438-8.253.128-2.8.285-5.6.376-8.4,0,.067,0,.134,0,.2.143-3.552.259-7.1.371-10.658a1.5,1.5,0,0,0,.345.2c-.023.676-.055,1.35-.074,2.025-.108,4.069-.145,8.138-.164,12.2a1.331,1.331,0,0,0,1.352,1.284,1.611,1.611,0,0,0,.276-.038,1.29,1.29,0,0,0,.211-.094c0,.051,0,.1-.007.154-.089,1.5-.144,3-.256,4.5q-.192,2.706-.388,5.412c-.205,2.858-.465,5.71-.727,8.557-.088.584-.179,1.167-.265,1.75-.224,1.537-.441,3.078-.678,4.612C251.914,340.893,251.922,340.831,251.938,340.772Zm-50.109,46.961c-1.28-.726-2.574-1.416-3.818-2.192a41.126,41.126,0,0,1-3.946-2.859c.007,0,.015.014.03.023a36.815,36.815,0,0,1-3.258-3.138l.051.059c-.041-.044-.083-.088-.118-.134l-.013-.009h0c-1.083-1.2-2.106-2.46-3.107-3.737l-.386-.525q-1.284-1.94-2.554-3.867c-.809-1.225-1.545-2.5-2.312-3.751-.753-1.22-1.486-2.457-2.231-3.692-.086-.144-.179-.282-.267-.425-.539-1.152-1.068-2.305-1.668-3.427-.474-.878-.948-1.761-1.422-2.637a35.133,35.133,0,0,0-2.479-3.861,34.5,34.5,0,0,0-8.342-8.493,30.8,30.8,0,0,0-4.526-2.533c.82-2.437,1.621-4.882,2.371-7.342,0,.007-.007.02-.012.027.487-1.578.968-3.154,1.4-4.748q.6-2.253,1.156-4.518c.72-2.9,1.384-5.818,2.112-8.718q.657-2.631,1.3-5.27c1.968.14,3.937.277,5.905.426a1.341,1.341,0,0,0,.264-2.669c-1.85-.14-3.7-.253-5.553-.376,1.1-4.682,2.131-9.381,2.963-14.116.631-3.58,1.047-7.2,1.4-10.811.188-1.943.336-3.887.456-5.833.873-.074,1.745-.147,2.616-.233-.053.007-.113.01-.166.017.866-.082,1.727-.157,2.593-.239a.831.831,0,0,0,.177-.024.5.5,0,0,0,.055-.016,1.263,1.263,0,0,0,1-1.276,1.277,1.277,0,0,0-1.314-1.232c-.666.057-1.333.107-2,.164-.947.081-1.893.149-2.839.222.039-.818.092-1.635.12-2.454,0,.013,0,.024,0,.037.022-.514.037-1.025.056-1.537.01-.113.021-.226.03-.338.155-1.72.329-3.432.427-5.156.074-1.311.142-2.62.216-3.931.033-.719.087-1.43.109-2.145,0,.061,0,.115,0,.177q.154-3.8.285-7.6c0-.042,0-.085,0-.128a.065.065,0,0,1,0-.024v.006a.062.062,0,0,0,0-.013v0c0-.093,0-.185.007-.271v.019l0-.063c0-.018,0-.035,0-.048,0,.006,0,.019,0,.03.006-.14.008-.278.013-.417,0,.013,0,.025,0,.037,0-.154.009-.3.014-.451,2.841.095,5.678.137,8.518.21a1.361,1.361,0,0,0,.3-.033,1.411,1.411,0,0,0,1.022-1.377,1.387,1.387,0,0,0-1.4-1.325c-1.2-.03-2.389-.066-3.584-.09q-2.381-.05-4.758-.088c.015-.449.029-.9.045-1.345,0,.012,0,.025,0,.036.014-.5.036-1,.049-1.505,0,.011,0,.025,0,.036a1.092,1.092,0,0,1,.005-.153.058.058,0,0,1,0-.023l-.005.006c.006-.147.012-.294.019-.436,0,.006,0,.019,0,.03a.276.276,0,0,0,0-.06l.009-.111,0,.056c0-.038,0-.079,0-.116,0,.011,0,.024,0,.036,0-.043,0-.086,0-.123a.1.1,0,0,1,0-.043v0a.648.648,0,0,0,0-.088c.006-.122.009-.232.017-.343,0,.055-.007.117-.011.172,0-.072.006-.147.007-.214a.185.185,0,0,0,0,.03s0-.013,0-.019v0c0-.034,0-.068.006-.1a.1.1,0,0,1,0-.025l0,.008c0-.109.006-.217.011-.321.008-.275.016-.548.026-.817,0-.062,0-.116,0-.172,0,.01,0,.022,0,.033,0-.06.007-.118.007-.174l0,.026c0-.184.011-.367.024-.548,0,.056-.008.117-.012.174.01-.2.019-.412.023-.613,0-.14.015-.283.016-.423.013-.337.019-.679.033-1.015v0c.017-.441.028-.886.044-1.334,0-.042,0-.091.007-.141s0-.115.006-.172c.008-.194.011-.388.019-.583v-.04l0,.006c0-.046,0-.093,0-.141l0,.012c0-.012,0-.025,0-.036a.943.943,0,0,0,.009-.129v0c0-.145.006-.288.017-.434,0,.055-.007.117-.011.172l.011-.273,0,.01v-.037a.2.2,0,0,1,0-.049.759.759,0,0,1,0-.086c0,.013,0,.031-.008.044a1.221,1.221,0,0,0,.006-.147c.007-.093.01-.178.012-.27v.073c0-.08,0-.159.007-.239a.2.2,0,0,0,0,.031c0-.031,0-.055,0-.079s0-.067.006-.1c0,.013,0,.018,0,.031,0-.037,0-.08.008-.117a.308.308,0,0,0-.006.074c0-.03,0-.062,0-.091l0-.028v.021c0-.047,0-.09,0-.135h0v-.073c0-.031,0-.067.006-.1a.162.162,0,0,0,0,.03c0-.03,0-.062,0-.1v.007c0-.039,0-.079,0-.117.1-2.743.184-5.5.271-8.242l0,.012c0-.031,0-.056,0-.086a.08.08,0,0,1,0-.037l0,0q.155-4.278.258-8.556c.07-3,.161-5.994.2-9,.417.022.835.041,1.255.052l-.056,0c.043,0,.086,0,.123,0a.13.13,0,0,0,.043,0l-.012,0c.393.017.792.033,1.183.045a1.5,1.5,0,0,0,.42-.044,1.259,1.259,0,0,0,.993-1.273,1.315,1.315,0,0,0-1.324-1.248c-.526-.015-1.045-.031-1.572-.051l.055,0c-.14,0-.287-.007-.434-.013.054,0,.11,0,.164,0-.147-.006-.3-.01-.452-.014.055,0,.11,0,.165.007-.17-.007-.343-.012-.514-.018q.031-2.428.066-4.858c.021-1.717-.026-3.441-.042-5.16-.008-1.546-.011-3.092-.082-4.64-.06-1.314-.126-2.627-.186-3.941-.037-.707-.043-1.415-.1-2.118v0c-.021-.251-.046-.5-.067-.752.08-.012.161-.023.241-.036,1.535-.243,3.079-.452,4.622-.666,1.39-.195,2.773-.388,4.165-.528.358-.023.714-.033,1.064-.04a1.114,1.114,0,0,0,.27-.038,1.293,1.293,0,0,0-.344-2.548,25.015,25.015,0,0,0-2.894.223l-2.259.309-4.908.713-.188.028q-.057-.617-.111-1.233c-.09-1.046-.171-2.1-.3-3.146q-.448-3.581-.885-7.169c.485-.024.968-.054,1.453-.076.708-.031,1.421-.093,2.128-.154,1.883-.166,3.761-.348,5.628-.6a78.493,78.493,0,0,0,8.283-1.561c.965-.24,1.931-.5,2.885-.791a56.848,56.848,0,0,0,7.912-3,54.467,54.467,0,0,0,7.156-4.083,59.646,59.646,0,0,0,11.711-10.468c.244.44.495.876.736,1.316l2.849,5.225c.958,1.757,1.874,3.537,2.79,5.316.014.024.023.049.038.072q.417.81.835,1.619c.036.07.066.141.1.213q1.327,2.81,2.651,5.62c.617,1.309,1.136,2.66,1.686,3.992.543,1.3,1.109,2.6,1.59,3.924q1.044,2.835,2.08,5.666l-.008-.028c.012.032.025.063.036.094q.748,2.21,1.492,4.421.524,2,1.05,3.988c.7,2.648,1.295,5.321,1.934,7.983.6,2.479,1.2,4.963,1.772,7.454q1.149,5.012,2.3,10.029l-.038-.149c.2.939.4,1.884.6,2.825q.668,3.154,1.342,6.31c.192.893.4,1.783.565,2.681q.418,2.287.843,4.574c.064,1,.114,2,.169,3,.074,1.38.131,2.761.179,4.143.009.43.019.859.027,1.288.017.675.052,1.352.043,2.022-.026,1.772-.04,3.542-.06,5.313,0-.067.007-.141.009-.208-.059,1.737-.107,3.467-.16,5.2l0-.018c-.06,1.794-.126,3.589-.186,5.384a.435.435,0,0,1,.006-.065c0,.08-.007.166-.012.245,0-.067,0-.134,0-.2,0,.2-.014.41-.018.611l0-.2c-.019.533-.038,1.065-.055,1.6,0-.043,0-.08.006-.123-.051,1.378-.1,2.749-.144,4.126l0-.2q-.014.423-.026.844c0-.067,0-.134,0-.207-.006.148-.006.293-.012.44,0-.073,0-.14,0-.207-.006.22-.012.44-.024.661,0-.019,0-.031.006-.05-.022.5-.032.992-.054,1.488a.117.117,0,0,0,0-.031c-.011.294-.021.594-.033.888,0-.037,0-.08.007-.117-.013.386-.026.771-.038,1.162,0-.072,0-.14,0-.207-.006.172-.012.343-.012.513,0,.056-.008.112-.013.167,0,.073,0,.14,0,.207-.009.209-.019.412-.022.619,0-.068,0-.135,0-.2-.012.295-.016.593-.028.887,0-.026,0-.051,0-.076,0,.046,0,.092-.006.14,0,.028,0,.056,0,.083s0,.054,0,.079c0,.07,0,.137,0,.2V273.9c0,.052,0,.1,0,.155,0,.007,0,.007,0,.013l0-.006a.1.1,0,0,1,0,.024c-.09,2.414-.157,4.827-.235,7.238,0-.067,0-.135,0-.2-.1,2.463-.15,4.928-.227,7.393,0-.025.006-.05.006-.074-.09,2.419-.14,4.846-.2,7.266,0-.067,0-.134,0-.2-.087,2.5-.137,5-.218,7.506,0-.032,0-.061.008-.093-.107,2.617-.225,5.238-.307,7.856,0-.013,0-.024,0-.037,0,.048-.007.092-.007.141,0,.024,0,.043,0,.067,0-.011,0-.018,0-.03-.148,3.156-.276,6.32-.444,9.469-.148,2.695-.259,5.392-.451,8.08-.129,1.749-.251,3.5-.38,5.247-.073,1.019-.116,2.043-.222,3.053q-.249,2.364-.494,4.717c-.091.878-.188,1.751-.28,2.624-.028.28-.042.563-.088.842-.409,2.644-.834,5.3-1.23,7.946-.389,1.9-.8,3.792-1.206,5.683-.173.814-.338,1.638-.519,2.448-.464,2.057-1.05,4.09-1.653,6.1.011-.027.017-.052.029-.079a79.246,79.246,0,0,1-3.569,9.532,56.6,56.6,0,0,1-3.377,6.219,35.088,35.088,0,0,1-2.668,3.63,27.865,27.865,0,0,1-2.03,2.108l0-.008c-.535.468-1.085.9-1.662,1.323a22.131,22.131,0,0,1-2.017,1.227,20.433,20.433,0,0,1-2,.861c-.637.219-1.287.411-1.945.569-.665.135-1.329.246-2.006.33a21.972,21.972,0,0,1-2.446.069c-.861-.046-1.708-.133-2.559-.26-1.4-.258-2.773-.584-4.145-.976-.556-.183-1.118-.371-1.675-.56-.49-.163-1-.3-1.478-.5q-1.61-.654-3.209-1.312c-.6-.293-1.21-.59-1.818-.888C202.768,388.19,202.28,387.985,201.829,387.733ZM216.4,154.758c-.1.1-.2.19-.3.283a60.133,60.133,0,0,1-5.749,4.594.669.669,0,0,0-.078.056.152.152,0,0,0-.035.027l.008-.015a57.016,57.016,0,0,1-5.527,3.319l.006-.006c-.628.32-1.261.623-1.9.921a60.553,60.553,0,0,0,6.341-3.7,77.71,77.71,0,0,0,6.7-5.021C216.042,155.059,216.217,154.912,216.4,154.758Zm9.245-6.285c.105.248.212.494.323.74a1.437,1.437,0,0,0-.588-.411C225.463,148.691,225.556,148.584,225.642,148.473Zm1.893-11.169.089-.112c.029.069.06.137.09.206l-.1.157c-.06.092-.122.182-.182.274a1.164,1.164,0,0,0-.281-.065ZM174.051,184.28c-.011-.119-.024-.243-.036-.362l.007.029a.394.394,0,0,1-.007-.077.364.364,0,0,1-.007-.068v.015c0-.038-.006-.072-.01-.109v.009l-.008-.1a.144.144,0,0,1-.006-.047l0,.017c-.006-.023-.006-.047-.012-.07l.007.029c-.006-.047-.011-.095-.013-.149V183.4a.367.367,0,0,1-.007-.077l-.006-.023a.054.054,0,0,1,0-.031l0-.01c0-.039-.007-.074-.011-.114,0,.017,0,.036.007.053-.144-2.015-.3-4.028-.386-6.057-.07-1.568-.125-3.141-.136-4.713l.111-.006c.1.878.207,1.755.314,2.635q.154,1.281.31,2.562c.117.93.245,1.857.342,2.786v-.008a.169.169,0,0,0,.006.036c0,.036.006.072.01.113,0-.023,0-.041-.01-.064.1,1.244.213,2.483.319,3.724l-.776.115Zm1,2.514c.016.171.028.341.044.511V187.3c.1,2.043.177,4.088.268,6.129.054,1.232.057,2.46.06,3.692-.122-1.087-.25-2.173-.372-3.26-.227-2.006-.472-4.014-.663-6.024,0,.012,0,.025,0,.038-.009-.06-.014-.12-.02-.185.007.053.014.105.022.159-.015-.106-.023-.214-.036-.313.006.047.013.1.02.153l-.03-.317v-.006l0-.033v.006c-.014-.107-.025-.218-.03-.326,0-.035-.007-.069-.01-.1C174.553,186.871,174.8,186.832,175.053,186.794Zm79.618,39.659c-.2-1.2-.48-2.392-.722-3.582l-1-4.958c-.279-1.362-.622-2.715-.929-4.071-.319-1.4-.626-2.805-.957-4.2-.751-3.189-1.5-6.382-2.262-9.57l-.046-.224c-.14-.7-.279-1.4-.422-2.095-.057-.4-.108-.8-.17-1.2.857,2.147,1.709,4.3,2.513,6.48a1.251,1.251,0,0,0,1.376.725c.069.446.145.89.207,1.337.282,1.987.589,3.974.83,5.965.249,2.044.533,4.085.745,6.132.217,2.112.429,4.231.654,6.348.094,1.207.2,2.419.3,3.629C254.75,226.928,254.71,226.691,254.671,226.453ZM230.844,143.2q1.608,2.839,3.241,5.679c1.157,2.255,2.34,4.5,3.507,6.743.151.314.285.632.425.95q.54,1.185,1.082,2.37c.365.807.728,1.608,1.1,2.414.164.366.352.732.5,1.1.782,1.926,1.539,3.854,2.3,5.784-.093-.059-.186-.116-.279-.172q-1.064-.764-2.136-1.512c-.64-.454-1.287-.9-1.93-1.354-.953-2.712-2-5.395-3.045-8.067-1.042-2.7-2.094-5.384-3.1-8.088-.845-2.262-1.667-4.537-2.562-6.784.065-.1.134-.2.2-.308C230.375,142.373,230.609,142.789,230.844,143.2Zm11.827-56.773c-.045,1.231-.12,2.464-.214,3.695-.091,1.024-.153,2.065-.295,3.077-.1.7-.194,1.39-.3,2.082q-.37,2.6-.735,5.208c-.287,1.285-.526,2.589-.786,3.886-.185.889-.365,1.772-.544,2.66-.074.364-.122.752-.227,1.112-.726,2.493-1.339,5.025-2.06,7.516-.328.95-.664,1.889-1,2.828-.311.557-.624,1.1-.934,1.659-.391.7-.757,1.421-1.181,2.1-.035.057-.075.115-.109.173-.083.129-.16.258-.243.388.018-.023.035-.051.054-.074-.167.254-.333.513-.5.773.04-.058.074-.115.115-.173l-.473.736c.041-.058.075-.116.115-.174-.22.334-.429.665-.642,1v0c-.047.063-.087.131-.129.192.01-.009.014-.015.025-.024-.111.167-.221.334-.324.505l.026-.042c-.149.231-.293.455-.435.69l.108-.178c-.085.124-.166.26-.243.388-.036.051-.076.11-.111.167-.77,1.145-1.578,2.262-2.359,3.391-.63.9-1.305,1.776-1.966,2.657s-1.329,1.775-2.032,2.63c-.855,1.026-1.724,2.044-2.555,3.095-.563.613-1.115,1.248-1.67,1.872-.541.6-1.054,1.246-1.628,1.819-1.213,1.219-2.412,2.446-3.634,3.655a.291.291,0,0,0-.059.057c-1.309,1.137-2.624,2.276-3.907,3.444h0l0,0-.006,0,0,0-.018.012c-.024.025-.054.051-.078.075.014-.016.024-.024.038-.04-.663.554-1.387,1.056-2.07,1.578q-1.087.825-2.178,1.659c-.783.486-1.545,1.01-2.309,1.522-.735.487-1.466,1.009-2.226,1.465-1.565.93-3.2,1.738-4.767,2.668a69.319,69.319,0,0,1-6.946,3.039,58.2,58.2,0,0,1-6.526,1.931,55.945,55.945,0,0,1-6.348,1.043l.011,0a57.678,57.678,0,0,1-6.792.187l.017,0c-3.78-.144-7.552-.476-11.32-.815-1.274-.113-2.544-.25-3.813-.385.062-.213.121-.426.184-.638a13.474,13.474,0,0,1-2.4-.142c-.052.176-.1.353-.152.529-1.522-.157-3.044-.313-4.563-.48-4.6-.5-9.2-.98-13.762-1.727l0,0a73.9,73.9,0,0,1-8.907-2.065c.02.007.047.019.08.029a66.229,66.229,0,0,1-7.687-2.915l.05.03a63.5,63.5,0,0,1-7.12-3.882l.15.09a57.642,57.642,0,0,1-11.622-9.745,62.358,62.358,0,0,1-4.815-6.076v.006c-.4-.622-.8-1.252-1.2-1.875s-.835-1.231-1.195-1.875c-.709-1.261-1.408-2.532-2.117-3.794l.073.147c-.61-1.184-1.215-2.368-1.825-3.551-.46-.893-.86-1.819-1.286-2.726-.407-.876-.817-1.745-1.181-2.643-.463-1.153-.922-2.313-1.378-3.461-.433-1.276-.859-2.548-1.287-3.825-.115-.341-.212-.687-.314-1.033q-.242-1.423-.484-2.851c-.185-1.083-.307-2.182-.446-3.275-.059-.459-.118-.915-.174-1.373.006-.282.007-.565.016-.846,0,.054,0,.1,0,.159.075-2.064.224-4.122.428-6.176q.233-2.279.466-4.558c.1-.984.282-1.963.427-2.94.174-1.2.379-2.4.541-3.6.382-1.977.8-3.95,1.226-5.919.183-.871.454-1.733.683-2.591.235-.932.472-1.859.726-2.785v0c0-.006,0-.013,0-.019l0,.006a.005.005,0,0,1,0-.007.024.024,0,0,1,0-.013l0-.018c.006-.014.012-.027.018-.042.544-1.738,1.048-3.49,1.646-5.2.624-1.782,1.207-3.584,1.885-5.343.452-1.181.912-2.357,1.37-3.539.249-.657.475-1.333.765-1.969.826-1.851,1.639-3.7,2.464-5.554.472-.955.993-1.886,1.5-2.831.324-.621.651-1.236.975-1.857.149-.28.283-.568.441-.838,1.037-1.733,2.126-3.424,3.159-5.15.621-.914,1.281-1.8,1.918-2.7.413-.582.825-1.17,1.244-1.754.133-.2.265-.4.412-.588.719-.913,1.455-1.807,2.182-2.715.657-.82,1.343-1.622,1.978-2.46l-.006,0c.389-.437.791-.871,1.192-1.305q1.2-1.327,2.4-2.649,3-3.321,6.3-6.344a68.1,68.1,0,0,1,6.818-5.516,57.082,57.082,0,0,1,5.942-3.525,70.137,70.137,0,0,1,7.21-3.1c.518-.16,1.038-.313,1.565-.463l3.356-1c.457-.138.915-.295,1.378-.411.069-.017.137-.034.2-.044a.227.227,0,0,0-.059.009h.006c.057-.015.12-.03.178-.039h.006a1.855,1.855,0,0,1,.184-.04l.012,0c.057-.014.114-.028.173-.037a.047.047,0,0,0-.02,0c.188-.041.371-.081.564-.129l-.08.02c.188-.047.367-.085.551-.125l-.028.007c.2-.05.4-.092.6-.136l-.052.013c.092-.023.19-.041.282-.064l.1-.024a.27.27,0,0,1,.07-.012l-.006,0c.109-.027.224-.05.339-.079l-.189.047c.189-.047.379-.089.569-.132l.018,0-.07.018.076-.018c.418-.048.836-.094,1.255-.144,3.226-.371,6.469-.6,9.706-.888,1.593-.11,3.185-.2,4.785-.259,1.284-.041,2.57-.07,3.853-.108.1.078.2.151.29.23a18.381,18.381,0,0,1,1.428,1.378l.027.032.046.048-.036-.032c.986,1.107,1.841,2.32,2.735,3.5.875,1.148,1.714,2.322,2.548,3.5.789,1.169,1.541,2.359,2.248,3.591.732,1.28,1.443,2.577,2.165,3.866.3.549.621,1.092.933,1.638l-.3.111c-.845.308-1.668.679-2.5,1.024a18.994,18.994,0,0,0-1.838.852,6.318,6.318,0,0,0-1.232.756,2.324,2.324,0,0,0-.475.555,1.23,1.23,0,0,0,.028,1.207,1.3,1.3,0,0,0,1.153.635,1.178,1.178,0,0,0,.246-.037,1.237,1.237,0,0,0,.8-.636c.217-.127.446-.257.672-.374,1.221-.6,2.479-1.085,3.73-1.615.315-.11.624-.224.934-.337.712,1.239,1.4,2.483,2.1,3.725-.025-.049-.049-.1-.073-.146q.571,1.123,1.142,2.246c.285.561.556,1.136.81,1.716.07.256.135.519.2.776.037.2.076.392.113.588-.762.24-1.526.483-2.278.757-.272.1-.545.2-.82.3l-.008,0-.035.013.023-.01-.05.018-.061.021.02-.005-.492.184c-.844.289-1.655.685-2.468,1.051a1.3,1.3,0,0,0,.335,2.515,1.4,1.4,0,0,0,.457-.041,8.026,8.026,0,0,0,1.086-.465c.494-.208.982-.415,1.48-.612.15-.056.305-.112.454-.173.3-.106.607-.218.907-.33.206-.076.407-.144.613-.219l-.015,0c.447-.153.9-.286,1.35-.422.035.182.069.364.1.546.163.851.325,1.7.489,2.548.052.284.125.575.16.864q.29,2.112.57,4.233c.155,1.158.332,2.309.458,3.473.252,2.668.513,5.346.776,8.011,0,.054.009.107.016.16,0-.021-.006-.044-.01-.065s0-.055-.008-.082c.038.543.076,1.085.113,1.623q.12,1.761.238,3.524c-1.047.05-2.09.093-3.135.124-.892.028-1.781-.011-2.675.006-.376-.022-.747-.051-1.116-.093a1.228,1.228,0,0,0-.651-.153,1.309,1.309,0,0,0-1.248,1.325,1.43,1.43,0,0,0,.3.794,1.677,1.677,0,0,0,1.2.567,27.208,27.208,0,0,0,2.856.114c1.071.013,2.144-.018,3.211-.072l1.431-.073.033.489c.1,1.528.133,3.068.2,4.605.062,1.465.141,2.926.173,4.392q.071,3.083.132,6.166c-2.57.267-5.135.592-7.67,1.073a1.4,1.4,0,1,0,.44,2.767c1.65-.32,3.308-.606,4.982-.8.76-.089,1.524-.179,2.287-.266,0,.78,0,1.559.01,2.337,0,.079,0,.158,0,.237-.054,1.075-.1,2.155-.136,3.232a.192.192,0,0,0,0-.024c-.1,1.622-.185,3.25-.271,4.879q-.263,4.681-.7,9.356c-.155,1.689-.285,3.384-.472,5.069-.228,2.035-.442,4.073-.662,6.112-.344,3.248-.775,6.486-1.212,9.726-.2,1.514-.4,3.031-.635,4.54-.257,1.623-.528,3.246-.774,4.873-.27-.047-.54-.093-.811-.142-.567-.108-1.129-.2-1.7-.274a38.032,38.032,0,0,0-3.914-.38h0l-.129,0,.006,0c-.006,0-.013,0-.018,0-.049,0-.105,0-.153,0,.011,0,.024,0,.036,0-.239-.008-.472-.016-.716-.022.056,0,.116,0,.171.005-.281-.008-.567-.01-.846-.013a1.32,1.32,0,1,0,.075,2.639c.218,0,.438.007.656.006l1.169.037c1.426.052,2.827.291,4.244.472.484.085.965.187,1.447.281-.272,1.391-.534,2.781-.8,4.167-.168.837-.416,1.67-.623,2.492-.234.938-.473,1.878-.7,2.814-.1.321-.193.644-.292.965-1.532-.2-3.065-.408-4.594-.654-.4-.076-.794-.166-1.191-.274-.171-.054-.344-.114-.506-.183a1.271,1.271,0,0,0-.908,2.374,11.817,11.817,0,0,0,2.715.665c.5.082,1,.171,1.492.242q1.12.15,2.244.308c-.126.422-.259.843-.382,1.264-.194.608-.424,1.205-.638,1.808-.252.719-.493,1.434-.752,2.148-.03.074-.054.147-.084.221-.412.734-.833,1.457-1.266,2.179-.568.936-1.148,1.87-1.693,2.824-.274.482-.548.969-.8,1.461-.162.325-.338.642-.467.978a2.585,2.585,0,0,0-.184.671,1.719,1.719,0,0,0,.1.69,1.335,1.335,0,0,0,1.64.908,1.851,1.851,0,0,0,.18-.057,3.079,3.079,0,0,0,1.4-1.216,15.44,15.44,0,0,0,1.247-2.155c.454-.933.869-1.873,1.248-2.835.117-.309.24-.619.363-.928.03-.051.059-.106.095-.157.419-.73.818-1.466,1.215-2.209a47.081,47.081,0,0,0,2.032-4.487c.083-.2.151-.4.23-.6l4.016.592a1.186,1.186,0,0,0,.437-.024,1.361,1.361,0,0,0,1-1.153,1.331,1.331,0,0,0-1.171-1.437q-1.674-.227-3.35-.46c.122-.335.241-.669.35-1,.013-.046.026-.092.043-.145a.006.006,0,0,1,0-.007h-.006c.013-.045.027-.085.04-.131.024-.08.05-.155.075-.231.1-.328.2-.656.3-.985-.015.058-.037.118-.052.177.17-.558.339-1.123.509-1.681a.608.608,0,0,0-.024.1l.069-.236c.111-.38.189-.776.282-1.157.133-.561.267-1.122.4-1.678.211-.859.35-1.738.522-2.605.035-.175.062-.352.1-.527,1.816.425,3.624.882,5.431,1.337a1.259,1.259,0,0,0,.607,0,1.322,1.322,0,0,0,0-2.573c-1.852-.467-3.707-.91-5.564-1.341.109-.608.233-1.212.333-1.821l.081-.491v0q.309-1.846.618-3.686v.009c.272-1.628.525-3.257.784-4.886s.449-3.262.673-4.9c.078-.59.123-1.189.174-1.785.106-1.136.2-2.278.309-3.414.053-.566.068-1.14.1-1.711.052-1.2.11-2.407.164-3.6.144-3.222.209-6.443.261-9.666.056-3.333.125-6.663.1-10-.013-1.733-.03-3.458-.048-5.189,0-.085,0-.164,0-.25l0-.1c.628-.063,1.256-.143,1.883-.209a1.525,1.525,0,0,0,.151-.026,1.354,1.354,0,0,0-.573-2.642q-.677.065-1.35.135c.041-1,.079-2,.1-3,.046-1.912.11-3.821.113-5.733q0-1.666.007-3.333c0-.667.014-1.333,0-2-.015-.5-.027-1-.041-1.5l.092,0a1.244,1.244,0,0,0,.946.287,6.442,6.442,0,0,0,.735-.189c.245-.067.5-.124.743-.185l-.148.037c.652-.133,1.3-.271,1.964-.374.622-.1,1.242-.174,1.859-.245.022,0,.045,0,.062-.009.035,0,.065,0,.095-.006a.463.463,0,0,0-.051.005c.159-.012.321-.028.481-.033a1.708,1.708,0,0,0,.227-.039,1.257,1.257,0,0,0-.458-2.471c-1.158.135-2.3.341-3.443.577a1.184,1.184,0,0,0-.417-.06c-.914.047-1.83.1-2.745.152-.006-.475-.015-.95-.046-1.425q-.178-2.686-.352-5.38c-.045-.79-.15-1.577-.225-2.365-.092-.93-.185-1.866-.272-2.8l0,.007c-.126-1.284-.313-2.57-.474-3.85-.077-.649-.187-1.289-.293-1.93-.16-.986-.294-1.984-.5-2.958a46.841,46.841,0,0,0-1.254-4.795l1.051-.235a.086.086,0,0,1-.023,0,.888.888,0,0,0,.1-.021l.023,0c1.089-.211,2.181-.4,3.282-.563a1.318,1.318,0,1,0-.417-2.6c-1.651.23-3.281.564-4.907.944h0c.041-.009.081-.021.122-.031l-.122.031c-.2-.489-.389-.978-.6-1.457-.065-.257-.136-.518-.2-.775l-.877-3.447c-.326-1.268-.694-2.523-1.064-3.779.156-.041.308-.091.464-.13.429-.082.85-.193,1.278-.252.627-.09,1.249-.177,1.882-.244a1.238,1.238,0,1,0-.391-2.445,25.208,25.208,0,0,0-3.9.7l-.032.009q-.155-.522-.308-1.042c-.179-.623-.405-1.234-.607-1.852a71.1,71.1,0,0,0-2.96-7.959,28.346,28.346,0,0,0-1.66-3.13,15.55,15.55,0,0,0-1.748-2.355q4.406.345,8.766,1.066c-.063-.008-.119-.018-.182-.027a87.85,87.85,0,0,1,11.086,2.529l.007.005c.013,0,.018,0,.025,0l0,0a70.221,70.221,0,0,1,8.638,3.3c-.056-.028-.118-.056-.173-.084a69.186,69.186,0,0,1,7.654,4.1c.333.214.66.43.982.653.407.414.8.838,1.2,1.266a65.383,65.383,0,0,1,4.263,5.371c.946,1.433,1.923,2.846,2.89,4.268.806,1.189,1.533,2.428,2.282,3.655.7,1.142,1.4,2.279,2.065,3.442.872,1.524,1.763,3.032,2.606,4.564v-.006c1.025,2,2.077,3.979,3.135,5.96.712,1.4,1.356,2.837,1.982,4.277q.975,2.27,1.829,4.587l-.006-.023a83.564,83.564,0,0,1,2.93,9.957l-.049-.194q.8,3.533,1.3,7.123c.109.78.176,1.558.255,2.339.17,1.778.346,3.555.517,5.339-.011-.07-.016-.136-.02-.2C242.68,81.4,242.742,83.912,242.671,86.429ZM238.66,39.737c-.033-.059-.067-.123-.1-.187a70.159,70.159,0,0,1,3.37,7.607,71.356,71.356,0,0,1,2.466,8.58l-.006-.023c.212.948.407,1.9.592,2.863.111.591.236,1.191.318,1.789l.264,2.01c.182,1.411.375,2.819.557,4.23.092,1.659.233,3.322.35,4.987.042.608.092,1.22.13,1.836.055,1.049.051,2.105.052,3.155,0,1.035-.017,2.064-.05,3.1-.08,1.941-.222,3.88-.433,5.8a93.9,93.9,0,0,0-.221-12.652A84.146,84.146,0,0,0,242.8,56.287q-.631-2.136-1.359-4.237c-.228-.648-.44-1.3-.7-1.944-.412-1.021-.816-2.036-1.222-3.058l-1.442-3.591c-.645-1.618-1.4-3.195-2.166-4.752a78.112,78.112,0,0,0-8.33-13.782q2.745,3.024,5.456,6.075a1.127,1.127,0,0,0,.44.307c.229.314.472.615.695.934,0-.012-.01-.016-.011-.022.008.01.011.022.02.032.035.045.065.092.1.144a.314.314,0,0,1-.034-.041A72.611,72.611,0,0,1,238.66,39.737ZM114.6,15.79c0,.007-.01.008-.009.014a52.584,52.584,0,0,1,5.426-3.288c1.5-.769,3.05-1.443,4.616-2.068-.038.017-.077.031-.114.049-.424.2-.847.4-1.271.6s-.874.387-1.292.613c-.378.209-.748.429-1.127.638-.426.24-.869.46-1.276.725-.356.228-.7.461-1.06.689-.746.489-1.486.977-2.211,1.5-.621.448-1.248.9-1.861,1.372a1.2,1.2,0,0,0-.438-.4ZM80.132,86.639c.012-.586.022-1.177.034-1.763.008-.846.018-1.68.033-2.52.1-1.338.2-2.671.3-4.008.071-1.007.192-2.008.3-3.017.124-1.087.222-2.18.389-3.265.191-1.255.376-2.509.574-3.76.181-.76.327-1.538.49-2.294.114-.52.221-1.038.329-1.557.045-.2.073-.412.133-.609.405-1.442.8-2.883,1.216-4.327.262-.727.522-1.459.783-2.191.252-.694.465-1.421.751-2.1.594-1.416,1.166-2.845,1.8-4.247.575-1.151,1.12-2.324,1.681-3.484.459-.958.98-1.889,1.48-2.826Q92,41.72,93.737,38.852a.136.136,0,0,0-.027.037l.038-.065q.841-1.3,1.672-2.619c.006,0,0-.007.01-.008h-.006l.026-.043.006,0h0a.037.037,0,0,0,.013-.015l-.009.007c.106-.175.224-.348.341-.526-.03.05-.066.1-.1.158.157-.245.31-.484.462-.728a.006.006,0,0,0,0-.007.005.005,0,0,0,0-.007c.478-.641.925-1.3,1.39-1.948.3-.435.611-.863.921-1.3.116-.168.229-.348.359-.508q1.34-1.672,2.678-3.35c.277-.3.548-.6.818-.907.725-.734,1.471-1.454,2.234-2.149q1.531-1.386,3.167-2.65a1.453,1.453,0,0,0-.015.288c-.52.529-1.01,1.088-1.506,1.645-.538.595-1.07,1.189-1.577,1.806-.655.807-1.344,1.6-1.969,2.427s-1.239,1.626-1.857,2.435c-1.074,1.414-2.094,2.87-3.11,4.325-.5.708-.953,1.457-1.427,2.188-.43.66-.893,1.309-1.288,1.99-.569,1-1.153,2-1.731,2.992-.373.645-.709,1.293-1.041,1.959-.43.853-.905,1.7-1.294,2.573-.432.97-.877,1.936-1.315,2.907-.754,1.674-1.427,3.384-2.128,5.076-.3.725-.555,1.473-.828,2.2q-.341.9-.679,1.808c-.082.223-.166.437-.24.659l-.029.082,0,.012,0-.012c-.333.952-.638,1.913-.962,2.867-.22.674-.472,1.344-.661,2.021-.324,1.161-.643,2.315-.974,3.471-.494,1.768-.837,3.583-1.228,5.374-.147.679-.237,1.364-.346,2.046-.177,1.094-.34,2.191-.524,3.28-.034.227-.05.456-.072.685q-.09.879-.181,1.757c-.1.9-.232,1.8-.274,2.7,0-.049,0-.1,0-.153,0,.13-.011.261-.019.392-.072,1.269-.141,2.543-.212,3.812-.009.127-.017.254-.022.38q0-.044.009-.087c-.021.308-.02.619-.023.929-.03-.571-.058-1.143-.093-1.714C80.11,87.111,80.13,86.875,80.132,86.639Zm12.009,57.455a.286.286,0,0,1,.04.039,55.557,55.557,0,0,1-8.321-12.012,63.316,63.316,0,0,1-2.937-6.745c.014.033.029.066.045.1a71.578,71.578,0,0,1-2.507-8.649.029.029,0,0,0,0,.015,93.005,93.005,0,0,1-1.742-11.183c0,.006,0,.007,0,.013a103.54,103.54,0,0,1-.32-12.391c.094-1.4.2-2.805.3-4.2.068-.945.135-1.9.2-2.841.025-.364.035-.736.079-1.094q.281-2.273.555-4.543c.134-1.1.26-2.2.413-3.289l0,.011c-.13,1.889-.326,3.783-.35,5.683-.02,1.309-.038,2.625-.057,3.94-.009.718.052,1.425.092,2.144.072,1.165.142,2.325.208,3.491.011.265.051.522.085.78.074.613.152,1.219.232,1.83.083.7.174,1.407.258,2.108.035.264.055.539.1.8.192,1.063.391,2.13.583,3.192.147.783.263,1.568.449,2.34.292,1.22.577,2.436.867,3.65.079.339.163.676.246,1.012.048,1.263.126,2.524.25,3.78a64.02,64.02,0,0,0,1.359,8.327,66.311,66.311,0,0,0,5.72,15.846A70.316,70.316,0,0,0,92.3,143.26c.224.327.459.646.693.966-.089.159-.174.32-.261.479C92.535,144.5,92.331,144.3,92.141,144.094Zm-2.583,12.953c1.026-2.046,2.084-4.082,3.137-6.116q.491-.945.976-1.894.762.718,1.551,1.408c1.039.906,2.1,1.789,3.164,2.664.42.345.835.7,1.275,1.024q1.421,1.065,2.846,2.143c.971.734,1.95,1.468,2.921,2.2a52.885,52.885,0,0,0,4.4,3.11,54.8,54.8,0,0,0,7.2,3.558c2.534,1.063,5.117,2.027,7.744,2.853a103.541,103.541,0,0,0,16.1,3.618c2.814.409,5.645.736,8.488.919,2.787.179,5.582.266,8.379.31.555.012,1.118-.018,1.675-.023,1.238-.024,2.471-.046,3.71-.063s2.5-.041,3.754-.061c.568-.009,1.141,0,1.711-.026l-.161-.009a10.6,10.6,0,0,0,1.143-.042q.756-.04,1.51-.077c0,.115,0,.23,0,.344.007,1.17.024,2.337.072,3.5.039,1.107.073,2.215.149,3.325.086,1.271.142,2.544.264,3.812q.051.566.1,1.13c-.977.14-1.954.284-2.931.408l-.011,0,.1-.007a.082.082,0,0,1,.022,0c-1.412.134-2.834.277-4.251.418l.006,0c-.842.083-1.694.095-2.538.141-.774.036-1.544.064-2.318.1a1.314,1.314,0,1,0,.078,2.627c1.584-.073,3.172-.153,4.75-.249.658-.037,1.31-.126,1.967-.193.835-.08,1.677-.162,2.516-.251.672-.058,1.337-.187,2.006-.281.279-.04.56-.079.84-.117.023.258.048.517.07.775.129,1.467.3,2.922.461,4.382.284,2.7.573,5.385.851,8.082l0-.005c0,.054.009.107.016.16.212,2.36.42,4.722.567,7.087-.274-.01-.548-.023-.823-.024-1.3-.065-2.6-.11-3.9-.18-1.414-.072-2.847-.122-4.249-.295a1.287,1.287,0,0,0-1.6.364,1.327,1.327,0,0,0-.248.662,1.243,1.243,0,0,0,.8,1.3,7.9,7.9,0,0,0,1.856.266c.5.039,1,.072,1.5.112.928.072,1.853.108,2.782.156,1.337.074,2.673.124,4.008.175.019.5.045.994.055,1.492.087,3.856.065,7.715.079,11.57.012,3.6.082,7.2.045,10.8-.036,3.68-.118,7.371-.219,11.056,0-.018,0-.043,0-.061-.047,1.2-.076,2.4-.117,3.6,0-.012,0-.024,0-.037,0,.095-.007.19-.01.285-.644-.006-1.289-.017-1.933-.019-1.744-.009-3.481-.013-5.224-.021-.779-.007-1.551-.015-2.332-.032-.837-.015-1.681-.058-2.518-.026h-.032l0,0a.041.041,0,0,0-.025,0,1.3,1.3,0,0,0-1.252,1.331,1.315,1.315,0,0,0,1.162,1.252c.013,0,.018,0,.031,0a1.382,1.382,0,0,0,.273,0c1.073-.031,2.158.039,3.236.056q2,.038,4,.059c1.508.012,3.018.047,4.528.075-.01.309-.021.619-.03.927,0-.055,0-.11.007-.165-.006.119-.006.236-.013.35l0,0c0,.02,0,.041,0,.062-.015.469-.035.939-.049,1.408,0-.055,0-.11.008-.166-.008.215-.02.436-.027.65,0,.11-.006.22-.007.336,0-.055,0-.11,0-.165-.007.263-.017.514-.025.778,0-.013,0-.025,0-.038-.008.209-.017.417-.019.63,0-.054,0-.11,0-.164,0,.094-.007.193-.01.293,0,.044,0,.09,0,.135,0,.086-.007.166-.01.251,0-.055,0-.1.009-.159-.018.393-.028.79-.044,1.188,0-.006,0-.019,0-.03-.015.5-.028,1.008-.05,1.5,0-.056,0-.1.008-.16-.017.417-.029.833-.046,1.25,0-.05,0-.1.008-.16-.007.165-.015.326-.017.489,0-.053,0-.11,0-.158-.034,1.024-.074,2.049-.108,3.073,0,.024,0,.049-.006.075l0,0v0c0,.134-.01.274-.013.408,0-.055,0-.11,0-.165-.023.664-.045,1.324-.069,1.985-.028.543-.049,1.089-.1,1.628-.095.958-.183,1.921-.272,2.878-.159,1.7-.3,3.4-.523,5.088-.031.234-.059.469-.089.7q-1.977.14-3.953.266c-1.672.108-3.344.19-5.015.3-.836.057-1.666.161-2.5.247a11.909,11.909,0,0,0-2.395.4,1.36,1.36,0,0,0-1,1.171A1.3,1.3,0,0,0,158.723,280a1.178,1.178,0,0,0,.617-.178c1.263-.238,2.546-.35,3.821-.473l-.042,0c1.236-.059,2.465-.166,3.7-.23,1.331-.065,2.667-.131,4.007-.209.366-.022.731-.053,1.1-.077-.1.751-.2,1.5-.314,2.248-.313,1.959-.619,3.923-.943,5.885l.017-.077c-.347,2.04-.709,4.072-1.05,6.111.01-.057.019-.12.027-.183-.41,2.3-.813,4.6-1.281,6.892-.374,1.835-.722,3.675-1.148,5.5-.274,1.166-.542,2.331-.817,3.492-.029.124-.065.245-.095.368l-.109-.007c-3.07-.194-6.142-.369-9.19-.812-.05,0-.094-.013-.144-.018h.007a1.316,1.316,0,0,0-.53,2.577c1.611.278,3.241.394,4.87.546,1.463.146,2.94.22,4.41.315-.881,3.314-1.823,6.617-2.8,9.909l-.06.2a.285.285,0,0,1,.023-.055c-.022.06-.038.118-.059.179-.313,1-.618,2.01-.923,3.016l0-.014c-.019.075-.043.147-.064.221l0,0,0,.015,0,.018,0-.014a.18.18,0,0,0-.008.021.055.055,0,0,0-.006.018l0,0,0,.009v0c-1,3.085-2.014,6.151-3.082,9.212-.743,2.115-1.489,4.232-2.31,6.319-.148-.039-.3-.084-.445-.121a33.6,33.6,0,0,0-5.492-.9,16.021,16.021,0,0,0-2.64-.385,26.694,26.694,0,0,0-5.174.325c-1,.144-2,.291-2.992.46a13.568,13.568,0,0,0-2.473.6,20.355,20.355,0,0,0-2.287,1.025,30.193,30.193,0,0,0-3.805,2.265,14.729,14.729,0,0,0-2.38,2.018c-1.189,1.336-2.255,2.763-3.314,4.208-.309.312-.632.611-.932.933-1.236,1.321-2.373,2.728-3.525,4.119l.043-.047c-.24.278-.451.579-.669.871q-.619.837-1.241,1.668c-1.774,2.378-3.407,4.86-5.049,7.333-1.117,1.683-2.22,3.377-3.325,5.07-1.64,2.221-3.292,4.425-5.025,6.575-.314.376-.619.756-.95,1.111-.394.414-.794.829-1.189,1.242-.893.946-1.782,1.883-2.669,2.832-1.473,1.563-2.934,3.153-4.513,4.608-1.02.869-2.068,1.7-3.155,2.483-.8.544-1.635,1.033-2.487,1.5h.006c-.454.222-.907.426-1.379.605-.5.16-1,.3-1.514.425-.413.073-.823.133-1.242.177-.432.022-.86.032-1.293.024-.418-.023-.837-.071-1.257-.124-.572-.106-1.138-.232-1.706-.394-.55-.184-1.088-.4-1.624-.621-.666-.313-1.3-.659-1.925-1.031a24.776,24.776,0,0,1-2.333-1.708,28.631,28.631,0,0,1-2.214-2.123,32.444,32.444,0,0,1-2.287-2.847,38.493,38.493,0,0,1-2.53-4.237,51,51,0,0,1-2.112-4.965,70.5,70.5,0,0,1-2.162-7.654l0,.006c-.581-2.623-1.038-5.264-1.4-7.922q-.373-2.737-.751-5.475c-.164-1.167-.251-2.347-.374-3.523-.152-1.486-.31-2.97-.461-4.455,0,.023,0,.041.01.064,0-.036-.01-.064-.012-.094a.254.254,0,0,1,0-.066l0,.012c-.11-1.369-.221-2.737-.324-4.1-.1-1.237-.228-2.474-.3-3.717q-.129-2.235-.269-4.467c-.075-1.225-.174-2.451-.224-3.676l-.189-4.923c-.049-1.244-.118-2.5-.139-3.746-.03-1.825-.061-3.656-.1-5.48-.016-1.161-.055-2.316-.053-3.476,0-1.765.011-3.531.014-5.3.035-.445.065-.891.1-1.336.464-5.735.943-11.461,1.526-17.184.348-3.4.654-6.8,1.027-10.2q.538-4.923,1.073-9.844c.079-.726.168-1.449.248-2.175q1.488-1.572,2.976-3.144c.767-.817,1.538-1.621,2.305-2.438.322-.341.682-.674.978-1.045,1.223-1.373,2.4-2.771,3.606-4.157,1.127-1.3,2.269-2.576,3.379-3.891l0,0c.037-.045.075-.085.117-.138l-.036.039c1.043-1.22,2.033-2.491,3.048-3.732,1.036-1.272,2.1-2.525,3.109-3.816-.037.046-.074.092-.113.132.259-.3.5-.621.738-.936l1.668-2.146c1.213-1.564,2.422-3.14,3.649-4.695.248-.317.476-.647.716-.974.666-.906,1.331-1.818,2-2.726,1.091-1.492,2.223-2.963,3.269-4.492,1.355-1.988,2.695-3.991,3.905-6.077q1.8-3.1,3.3-6.356a72.237,72.237,0,0,0,4.655-13.686,45.039,45.039,0,0,0,1.492-14.128,19.93,19.93,0,0,0-1.521-6.57,21,21,0,0,0-4.034-5.889,24.459,24.459,0,0,0-5.327-4.231,28.812,28.812,0,0,0-6.1-2.619c-.786-.234-1.577-.437-2.378-.608-.5-.375-1.015-.73-1.543-1.062.052-.111.1-.222.153-.335.1-.19.185-.4.276-.6.215-.454.422-.912.631-1.365-.009.015-.012.028-.02.042.066-.15.139-.3.2-.446-.012.027-.019.047-.03.075.2-.452.413-.9.622-1.351-.025.049-.047.1-.072.152.068-.145.129-.288.2-.432-.007.02-.018.047-.026.067.039-.088.084-.178.122-.266.406-.855.834-1.695,1.248-2.545a46.062,46.062,0,0,1,2.292-4.218c.186-.277.381-.544.588-.808a1.292,1.292,0,0,0,.718-1.162,1.249,1.249,0,0,0-1.27-1.2,1.706,1.706,0,0,0-1.2.607,7.955,7.955,0,0,0-.925,1.28c-.331.525-.654,1.055-.948,1.6-.784,1.433-1.485,2.907-2.2,4.377-.657,1.346-1.285,2.708-1.909,4.073a1.3,1.3,0,0,0-.168-.186C87.584,160.955,88.583,159.007,89.558,157.047Zm-38.305,27.92c.4-.421.8-.853,1.2-1.276q1.257-.951,2.548-1.854a.02.02,0,0,0,.01-.009l0,.007c.028-.018.055-.04.083-.059l-.012.007c.433-.294.861-.582,1.3-.871-.232.191-.465.377-.69.567-.335.265-.672.519-.991.8-1.76,1.506-3.473,3.061-5.21,4.587C50.062,186.228,50.657,185.6,51.253,184.967ZM20.4,220.623q.631-1.222,1.265-2.445c.42-.8.9-1.583,1.361-2.36.609-1.037,1.237-2.074,1.88-3.1a87.827,87.827,0,0,1,5.57-7.7c-.905,1.336-1.771,2.705-2.659,4.061-.637.978-1.284,1.959-1.926,2.937-.321.493-.667.98-.971,1.487-.607,1-1.179,2.017-1.755,3.04-.192.254-.382.514-.558.782,0-.007.01-.008.015-.016-.009.015-.019.023-.027.038a.58.58,0,0,0-.044.071l-.012.021c-.91,1.417-1.8,2.841-2.7,4.265C20.029,221.347,20.212,220.986,20.4,220.623ZM9.48,264.986c.091-.878.237-1.752.359-2.626.145-1.026.289-2.056.434-3.082.218-1.122.422-2.253.647-3.371q.2-1.052.4-2.1c.042-.246.082-.5.144-.739.545-2.169,1.1-4.339,1.641-6.514.417-1.275.822-2.547,1.233-3.821.371-1.166.766-2.333,1.122-3.508.135-.361.294-.722.44-1.087q.544-1.355,1.079-2.708c.516-1.312,1.026-2.628,1.561-3.939l1.412-2.931c.392-.692.788-1.391,1.193-2.081.886-1.532,1.8-3.057,2.7-4.581,1.6-2.729,3.275-5.416,4.952-8.109.726-1.055,1.422-2.133,2.135-3.2.326-.494.665-.985,1-1.474,1.671-2.013,3.306-4.047,4.986-6.049.3-.343.634-.668.946-1,.729-.776,1.462-1.559,2.191-2.336,1.1-1.171,2.212-2.328,3.288-3.513.31-.339.666-.64,1-.952.774-.739,1.542-1.482,2.311-2.22,1.086-1.048,2.165-2.1,3.266-3.138,1.1-.936,2.182-1.909,3.272-2.867.732-.643,1.469-1.288,2.2-1.932.339-.3.686-.583,1.016-.89,2.343-1.949,4.766-3.815,7.107-5.77a1.381,1.381,0,0,1-.14.095c.422-.28.819-.61,1.229-.913.853-.643,1.708-1.281,2.561-1.924.73-.552,1.473-1.1,2.2-1.648.719-.3,1.449-.581,2.183-.848a55.041,55.041,0,0,1,5.941-1.789,41.055,41.055,0,0,1,4.836-.8,32.755,32.755,0,0,1,3.558-.116l-.057,0c.763.031,1.52.086,2.27.185.238.4.469.787.708,1.183C89.909,173.736,91,175.6,92,177.52a37.16,37.16,0,0,1,1.726,3.94c-.008-.02-.019-.043-.028-.066a28.861,28.861,0,0,1,.881,3,29.248,29.248,0,0,1,.51,3.289,33.558,33.558,0,0,1,.107,3.67c-.061,1.386-.2,2.769-.384,4.155-.193,1.129-.374,2.262-.561,3.39-.17.936-.394,1.861-.588,2.789-.162.787-.375,1.562-.576,2.34s-.381,1.539-.609,2.306c-.273.924-.565,1.847-.825,2.779-.045.132-.09.271-.136.4-.2.377-.389.752-.58,1.128-.382.756-.764,1.513-1.148,2.264-.174.346-.326.712-.523,1.041-1.26,2.055-2.413,4.175-3.667,6.229-.689,1.033-1.363,2.081-2.043,3.125-.672,1.029-1.373,2.041-2.026,3.1-1.49,2.107-3.037,4.179-4.525,6.291.043-.047.079-.093.123-.14-.883,1.015-1.7,2.093-2.544,3.141-.822,1.011-1.664,2.016-2.457,3.045a.985.985,0,0,1,.071-.078c-.028.031-.057.063-.08.092s-.027.037-.041.053l.026-.043c-.524.6-1.071,1.184-1.6,1.776-.946,1.049-1.891,2.1-2.832,3.151-1.255,1.393-2.557,2.743-3.85,4.1-2.45,2.588-4.877,5.2-7.312,7.8-.925.989-1.836,1.98-2.753,2.979q-1.233,1.336-2.467,2.666c-.414.456-.857.894-1.248,1.373.036-.051.079-.1.116-.144q-2.083,2.157-4.151,4.336c-.674.7-1.343,1.4-2.018,2.1-.457.478-.945.934-1.418,1.4-.892.858-1.787,1.707-2.7,2.541a75.249,75.249,0,0,1-7.516,6.026,52.21,52.21,0,0,1-5.121,3.082,29.549,29.549,0,0,1-2.765,1.233,27.113,27.113,0,0,1-3.137.924,18.651,18.651,0,0,1-2.038.319c-.46.03-.917.046-1.372.045-.2-.025-.39-.055-.586-.085l0,0c-.589-.106-1.167-.238-1.742-.4a16.662,16.662,0,0,1-1.711-.645l-.008,0h0a.081.081,0,0,0-.021-.01c-.055-.023-.109-.045-.157-.07.034.016.067.026.1.041a13.406,13.406,0,0,1-1.22-.668,13.268,13.268,0,0,1-1.325-.973,11.5,11.5,0,0,1-.952-.922c-.34-.388-.651-.785-.947-1.2-.1-.139-.193-.286-.29-.431-.07-.232-.134-.465-.194-.705q-.164-.805-.259-1.628l0,.017a14.66,14.66,0,0,1-.03-1.728c0,.062-.008.117-.011.179C8.716,271.809,9.117,268.4,9.48,264.986Zm-2.407-3.5c.078-.444.161-.889.251-1.331-.113.787-.221,1.573-.333,2.365-.1.686-.216,1.371-.293,2.064-.049.461-.1.922-.148,1.377C6.655,264.464,6.837,262.974,7.073,261.489Zm14.068,30.246a22.408,22.408,0,0,1-2.5.4,26.339,26.339,0,0,1-2.876.089,19.58,19.58,0,0,1-2.255-.233,13.977,13.977,0,0,1-1.616-.388c-.485-.165-.96-.345-1.43-.559v0a16.612,16.612,0,0,1-1.574-.859,17.154,17.154,0,0,1-1.581-1.16,13.553,13.553,0,0,1-.984-.951,18,18,0,0,1-1.214-1.536c-.294-.448-.572-.907-.83-1.383a12.839,12.839,0,0,1-.613-1.389,20.131,20.131,0,0,1-.607-2.142,20.641,20.641,0,0,1-.368-2.378c0,.054.01.112.012.167-.017-.214-.034-.429-.044-.639.013.027.018.05.031.078a18.057,18.057,0,0,0,3.388,5.8,18.5,18.5,0,0,0,11.589,5.985,29.793,29.793,0,0,0,6.929-.027c.153-.02.313-.036.466-.055A36.9,36.9,0,0,1,21.141,291.735Zm32.652-21.387c-1.049,1.026-2.143,2.021-3.225,3.012.049-.048.1-.091.148-.14a86.7,86.7,0,0,1-8.545,6.893l0,0a56.5,56.5,0,0,1-6.113,3.676,46.852,46.852,0,0,1-4.939,2.153,37.236,37.236,0,0,1-3.9,1.143,32.688,32.688,0,0,1-3.575.57,34.469,34.469,0,0,1-3.775.122,22.449,22.449,0,0,1-2.592-.252c-.555-.105-1.1-.227-1.636-.376a18.6,18.6,0,0,0,6.012.432,34.961,34.961,0,0,0,7.069-1.367,37.5,37.5,0,0,0,6.613-2.637,53.958,53.958,0,0,0,6.1-3.819c1.766-1.266,3.477-2.608,5.189-3.945.6-.472,1.173-.991,1.76-1.482s1.176-.979,1.748-1.486c0,.007-.01.009-.014.016,1.035-.937,2.079-1.86,3.114-2.8.5-.433.965-.9,1.447-1.355s.973-.892,1.447-1.35c.929-.9,1.874-1.784,2.8-2.689l.371-.362-.056.692c-1.039,1.069-2.128,2.092-3.189,3.135C55.3,268.868,54.543,269.609,53.793,270.348Zm11.344,116.73a13.108,13.108,0,0,1-1.1-.8c-.062-.051-.117-.1-.179-.156s-.111-.129-.164-.195c-.319-.5-.616-1.012-.892-1.537-.3-.635-.588-1.286-.849-1.944-.249-.708-.5-1.409-.752-2.118-.222-.624-.405-1.258-.6-1.89-.428-1.374-.832-2.754-1.227-4.142-.213-.736-.427-1.472-.637-2.215-.131-.453-.217-.923-.325-1.381q-.547-2.34-1.095-4.685l.04.16q-.313-1.842-.633-3.684-.2-1.154-.392-2.305c-.051-.3-.121-.608-.155-.914-.252-2.329-.5-4.652-.766-6.971-.058-1.308-.125-2.62-.189-3.927-.038-.834-.075-1.662-.118-2.5-.01-.258-.034-.525-.032-.787.006-1.361.009-2.715.016-4.076.009-1.131-.02-2.271.019-3.4,0,.056,0,.1-.008.16.061-1.265.109-2.534.164-3.8.058-1.349.091-2.705.175-4.048.085-1.314.185-2.62.271-3.928.1-1.464.2-2.92.3-4.376.079-1.094.207-2.188.309-3.288.232-2.5.457-5.011.752-7.506.175-1.464.344-2.928.517-4.391l0,.726c-.005,1.391-.036,2.776-.011,4.166,0,.09,0,.18,0,.27-.01.147-.023.293-.033.439-.1,1.451-.241,2.907-.3,4.359l-.189,4.871c-.036,1-.078,2-.115,3-.013.337-.039.672-.039,1.011.02,1.689.036,3.383.05,5.073q.017,1.489.032,2.978c0,.29,0,.588.014.882q.128,2.636.258,5.276c.055,1.218.075,2.446.184,3.662q.24,2.754.482,5.512c.094,1.087.166,2.179.308,3.261q.366,2.893.738,5.787c.148,1.177.354,2.345.55,3.522.222,1.353.408,2.708.688,4.053q.535,2.624,1.084,5.251c.1.515.251,1.031.377,1.539.247.988.5,1.976.745,2.964.113.452.219.9.36,1.349.275.859.552,1.725.828,2.591q.361,1.158.734,2.311c.235.724.527,1.434.806,2.141.388.972.788,1.946,1.228,2.9.3.659.621,1.315.941,1.97C66.575,387.911,65.846,387.514,65.137,387.078Zm18.344,13.549c-.548-.105-1.079-.24-1.615-.392-.538-.187-1.062-.391-1.586-.618a19.1,19.1,0,0,1-1.761-.982c-.487-.321-.947-.655-1.405-1.009A24.834,24.834,0,0,1,75.3,395.9c-.131-.147-.249-.3-.376-.452,1.92,1.05,3.851,2.084,5.783,3.117q1.745.939,3.5,1.852l.64.324-.052,0C84.355,400.726,83.921,400.688,83.481,400.627ZM130.489,351.2q-.97,1.88-1.928,3.763c-2.462,4.849-4.89,9.721-7.333,14.577q-1.626,3.227-3.281,6.437c-1.941,3.779-3.843,7.572-6.086,11.183-.468.729-.935,1.459-1.469,2.144-.429.568-.88,1.118-1.325,1.671a62.73,62.73,0,0,1-4.539,4.967,23.752,23.752,0,0,1-2.08,1.616,22.919,22.919,0,0,1-2.092,1.25c-.271.128-.55.252-.831.364-1.286.467-2.6.88-3.927,1.216-.49.1-.986.184-1.48.247a5.894,5.894,0,0,1-.728,0l-.686-.066a17.528,17.528,0,0,0,1.615-1.288,32.2,32.2,0,0,0,3.609-3.83,95.174,95.174,0,0,0,7.686-12.019c.771-1.339,1.508-2.693,2.315-4q1.047-1.707,2.089-3.424c.442-.569.893-1.13,1.322-1.709q2.923-3.942,5.831-7.9,2.523-3.423,5.052-6.854,1.8-2.431,3.589-4.863c.3-.416.609-.819.912-1.235.782-1.053,1.56-2.107,2.356-3.148a40.4,40.4,0,0,1,3.344-2.655c.109-.075.222-.143.331-.216a5.328,5.328,0,0,0-.462.589A32.257,32.257,0,0,0,130.489,351.2Zm19.963-8.069a24.736,24.736,0,0,0-4.679-.242,22.015,22.015,0,0,0-4.455.679c-.635.177-1.292.316-1.914.525q-1.146.4-2.271.838c1-.469,2-.909,3.041-1.291a28.15,28.15,0,0,1,2.787-.8,30.384,30.384,0,0,1,3.073-.474c.353-.017.705-.032,1.06-.032a20.062,20.062,0,0,1,2.1.223c1.389.267,2.761.659,4.123,1.06.433.135.858.289,1.284.439A26.618,26.618,0,0,0,150.452,343.132Zm78.994,52.162-.03.025c-.01.009-.02.018-.035.034,0-.008.01-.009.009-.015a34.453,34.453,0,0,1-2.734,2.18.024.024,0,0,0-.015.01,1.123,1.123,0,0,0-.109.076.625.625,0,0,1,.087-.064,27.163,27.163,0,0,1-2.37,1.4c-.709.347-1.425.665-2.166.952.027-.012.048-.024.07-.035a22.129,22.129,0,0,1-2.227.664q-1.27.27-2.553.417a30.1,30.1,0,0,1-3.122.063c-.961-.058-1.916-.167-2.867-.306a36.882,36.882,0,0,1-3.864-.894,32.524,32.524,0,0,1-3.414-1.28,26.5,26.5,0,0,1-2.633-1.437c-.015-.008-.028-.011-.036-.021l-.046-.028c-.736-.493-1.444-1.013-2.133-1.576A37.586,37.586,0,0,1,196.2,392.5c.008.009.011.021.02.031-.856-.952-1.649-1.944-2.451-2.945-.351-.435-.7-.875-1.056-1.315-.439-.546-.833-1.127-1.237-1.7.009.01.019.025.027.035-1-1.464-1.915-2.983-2.794-4.525,1.018,1.23,2.013,2.481,3.093,3.658a62.97,62.97,0,0,0,4.617,4.626,40.709,40.709,0,0,0,4.541,3.56,25.333,25.333,0,0,0,10.126,4.182,19.857,19.857,0,0,0,5.693.075q1.23-.179,2.429-.478c.949-.237,1.889-.531,2.82-.86a33.976,33.976,0,0,0,5.162-2.373,41.555,41.555,0,0,0,4.845-3.155c1.178-.9,2.3-1.875,3.381-2.885-.74,1.033-1.51,2.044-2.319,3.026A41.779,41.779,0,0,1,229.446,395.294Zm72.021-126.343a28.423,28.423,0,0,1-.338,3.5l.009-.038a25.645,25.645,0,0,1-.575,2.515,19.53,19.53,0,0,1-.782,2.052,18.876,18.876,0,0,1-.971,1.777,17.563,17.563,0,0,1-1.149,1.574,19.585,19.585,0,0,1-1.391,1.432,17.737,17.737,0,0,1-1.472,1.156c-.529.36-1.079.69-1.639,1l-.021.009c-.032.02-.064.034-.1.054.026-.018.059-.033.084-.051a17.429,17.429,0,0,1-1.86.816c-.63.21-1.271.4-1.92.557a.4.4,0,0,1,.072-.012c-.034.008-.076.013-.11.021-.254.051-.5.1-.756.134-.43-.042-.858-.1-1.284-.162h0l-.026,0h.012a52.018,52.018,0,0,1-6.285-1.44,46.09,46.09,0,0,1-4.516-1.661c-.721-.5-1.424-1.024-2.1-1.584a.261.261,0,0,0-.031-.027c-.016-.014-.037-.03-.056-.045l.034.026a49.453,49.453,0,0,1-4.293-4.172c-1.682-1.868-3.257-3.818-4.837-5.775-.98-1.206-1.933-2.425-2.883-3.657q-1.385-1.794-2.754-3.6c-.323-.421-.641-.843-.961-1.264l-.219-3.686,0-.059c.052-.984.056-1.968.078-2.951.032-1.137.057-2.278.09-3.414.022-.862.008-1.72.012-2.583.008-1.015.04-2.031.024-3.046-.033-1.836-.019-3.679-.093-5.511-.084-1.945-.128-3.9-.261-5.846-.137-1.987-.244-3.975-.422-5.957-.177-2.05-.325-4.106-.544-6.151-.228-2.086-.416-4.181-.679-6.258-.267-2.118-.545-4.233-.806-6.353-.109-.853-.247-1.7-.374-2.547-.177-1.2-.349-2.4-.526-3.6-.107-.72-.242-1.433-.366-2.149-.219-1.292-.436-2.579-.659-3.865-.106-.617-.239-1.227-.362-1.84-.276-1.375-.556-2.744-.832-4.119-.373-1.837-.838-3.657-1.281-5.482-.228-.963-.46-1.918-.693-2.88-.177-.733-.417-1.456-.628-2.18-.393-1.358-.782-2.724-1.175-4.083-.155-.525-.295-1.061-.472-1.575l-.082-.24c.419.357.834.715,1.252,1.076.819.706,1.64,1.443,2.48,2.137,2.574,2.393,5.143,4.787,7.658,7.231,1.143,1.1,2.317,2.19,3.426,3.328,1.424,1.454,2.874,2.888,4.308,4.334,2.194,2.2,4.27,4.519,6.42,6.768.943,1.107,1.908,2.2,2.867,3.3.246.285.5.574.747.858.909,1.236,1.819,2.478,2.728,3.714,1.321,2.038,2.735,4.009,4.061,6.045q2.628,4.042,5.254,8.08c1.072,1.65,2.139,3.3,3.218,4.951.118.182.235.359.353.542q1.355,2.913,2.478,5.925c-.01-.015-.015-.033-.023-.043a92.152,92.152,0,0,1,3.213,11.021l-.01-.04c.014.057.023.116.038.179.223,1.037.406,2.089.6,3.133q.306,1.59.6,3.176c.059.307.088.621.134.925.089.676.184,1.35.279,2.024.137.986.309,1.968.408,2.951,0-.019,0-.03,0-.049l.009.1q.246,2.644.5,5.283c0-.028-.007-.055-.01-.082l0,.027,0-.009c.144,2.137.235,4.256.174,6.395Zm3.016-3.274c-.089-2.211-.315-4.406-.53-6.609-.075-.74-.116-1.489-.225-2.22-.111-.785-.227-1.57-.338-2.355-.219-1.511-.413-3.022-.708-4.521-.385-1.986-.726-3.988-1.192-5.954-.128-.563-.267-1.122-.407-1.682.38.879.732,1.766,1.068,2.667a46.342,46.342,0,0,1,1.573,5.328,48.98,48.98,0,0,1,.9,5.82,47.579,47.579,0,0,1,.182,5.648C304.751,263.1,304.649,264.392,304.483,265.677Z"/><path d="M95.869,263.662l-.011,0,.016-.007h0l-.021.008h0l-.007,0Z"/><polygon points="95.856 263.665 95.854 263.666 95.856 263.666 95.856 263.665"/><path d="M128.556,299.17c0,.018-.008.036-.011.055l-.019.116Z"/><polygon points="90.362 276.178 90.361 276.182 90.361 276.185 90.362 276.178"/><path d="M107.766,250.175l.172-.043c-1.453.308-2.9.649-4.324,1.059-.8.224-1.6.455-2.4.695-.335.1-.675.2-1.012.3-.025-.733-.086-1.462-.134-2.19-.046-.819-.113-1.622-.206-2.437-.088-.766-.211-1.525-.323-2.292a1.25,1.25,0,0,0-2.469.391c.167,1.063.3,2.121.43,3.188.09,1.361.19,2.713.227,4.076l0,.14c-.074.03-.152.053-.226.084a12.549,12.549,0,0,0-3.237,1.741,11.1,11.1,0,0,0-2.93,3.855,24.1,24.1,0,0,0-1.609,4.673c-.142.592-.268,1.189-.392,1.786a16.739,16.739,0,0,0-1.393,2.562,22.689,22.689,0,0,0-1.116,3.3c-.229.906-.451,1.817-.609,2.742-.02.09-.033.184-.046.279,0-.006,0-.013,0-.019-.013.095-.026.189-.046.279q-.127.768-.254,1.538a.31.31,0,0,0-.013.045c-.036.221-.073.437-.109.659l.03-.172q-.142.855-.284,1.71l.03-.172c-.023.13-.045.264-.067.4s-.043.238-.061.356c-.01.077-.024.159-.038.236s-.024.141-.035.212l.016-.092c-.2,1.2-.383,2.41-.562,3.618-.57.166-1.139.334-1.713.495-1.831.517-3.647,1.121-5.5,1.583.04-.01.081-.015.116-.023-.84.185-1.669.391-2.507.582-.677.108-1.347.22-2.023.286.019,0,.036,0,.054,0a1.263,1.263,0,0,0-1.152,1.27,1.248,1.248,0,0,0,1.276,1.2c.37-.025.734-.073,1.1-.129.444-.068.907-.11,1.347-.22l-.04.01c.791-.185,1.578-.364,2.371-.543a.1.1,0,0,1-.03,0c.173-.037.338-.078.51-.121.72-.179,1.443-.4,2.157-.6.754-.212,1.508-.424,2.254-.646.449-.132.9-.257,1.35-.385-.34,2.075-.658,4.155-1,6.23.01-.058.015-.113.025-.17q-.163.954-.33,1.909c-1.387.1-2.771.208-4.17.19a1.366,1.366,0,0,0-1.326-.349,1.876,1.876,0,0,0-.984.555,1.314,1.314,0,0,0,.644,2.194,8.112,8.112,0,0,0,2.451.239c.616-.009,1.236-.029,1.857-.069.356-.023.712-.04,1.069-.06-.1.587-.2,1.173-.294,1.76.009-.058.014-.113.024-.17-.172.965-.332,1.933-.5,2.9-.152.876-.322,1.755-.459,2.639.009-.057.02-.114.03-.172-.257,1.479-.524,2.965-.749,4.447a.6.6,0,0,1,.007-.068c-.184,1.138-.366,2.282-.536,3.428.011-.057.02-.114.031-.171-.157.907-.262,1.825-.393,2.738a27.415,27.415,0,0,0-.263,2.741,7.043,7.043,0,0,0,.377,3,5.4,5.4,0,0,0,1.078,1.643c-.058.562-.119,1.123-.152,1.687a12.731,12.731,0,0,0,0,1.736,3.587,3.587,0,0,0,.965,2.313,5.248,5.248,0,0,0,2.586,1.371,12.967,12.967,0,0,0,3.008.307,28.233,28.233,0,0,0,4.036-.372c-.105.547-.214,1.094-.317,1.642a1.268,1.268,0,0,0,.934,1.509,1.19,1.19,0,0,0,.587-.007,1.207,1.207,0,0,0,.922-.928c.163-.907.337-1.812.506-2.718l.025,0c.27-.061.545-.124.814-.191.874-.218,1.734-.468,2.6-.715.67-.185,1.339-.375,2-.595l.13-.042c-.228,1.527-.466,3.053-.69,4.581a1.314,1.314,0,0,0,1.17,1.432,1.289,1.289,0,0,0,.442-.031,1.338,1.338,0,0,0,.99-1.139q.408-2.874.82-5.748c.756-.265,1.512-.523,2.264-.791a.327.327,0,0,1,.033-.014l.042-.014-.014.006c.027-.012.056-.019.083-.032l.017,0,1.771-.651.075-.027a.472.472,0,0,1,.09-.029c.97-.345,1.925-.747,2.867-1.157.98-.426,1.967-.848,2.9-1.366.689-.378,1.389-.734,2.073-1.129a22.8,22.8,0,0,0,2.524-1.673c.592-.167,1.183-.34,1.768-.518a9.31,9.31,0,0,0,3.827-1.985,11.769,11.769,0,0,0,2.625-3.979,34.144,34.144,0,0,0,1.739-5.2c.267-1.025.514-2.051.728-3.094.188-.9.37-1.8.552-2.7.088-.442.186-.88.259-1.323.032-.2.064-.391.1-.586l-.03.171c.206-1.216.406-2.437.611-3.66l-.03.171c.037-.235.079-.472.118-.707l0,.005c.01-.057.019-.12.029-.177l-.03.171c.249-1.506.429-3.026.64-4.541.145-1.049.268-2.1.391-3.157,1.063.013,2.125.027,3.19-.008a22.181,22.181,0,0,0,3.694-.368c.169-.031.329-.071.495-.112a13.422,13.422,0,0,0,3.14-1.231,1.349,1.349,0,0,0-1.239-2.391c-.449.221-.9.419-1.373.6l-.386.133.167-.06c-.414.14-.827.26-1.25.366a20.168,20.168,0,0,1-2.017.3c-1.185.1-2.371.15-3.563.179a1.329,1.329,0,0,0,.008-.436,1.291,1.291,0,0,0-.439-.773c.241-2.242.466-4.487.657-6.731.09-1.064.17-2.13.252-3.195.566-.228,1.134-.451,1.694-.7a1.3,1.3,0,0,0,.726-.913,1.33,1.33,0,0,0-1.086-2.32c-.365.062-.724.14-1.087.207.058-.973.125-1.944.163-2.918.029-.857.049-1.7.059-2.563.012-.682.024-1.365-.018-2.046a12.341,12.341,0,0,0-.483-3.06,8.608,8.608,0,0,0-1.386-2.713,9.134,9.134,0,0,0-2.167-1.973,13.151,13.151,0,0,0-1.841-.986,1.262,1.262,0,0,0,.529-.745,1.24,1.24,0,0,0-.913-1.472c-.3-.115-.591-.229-.9-.33-.405-.141-.829-.236-1.245-.344-.351-.095-.716-.15-1.073-.218-.307-.064-.61-.134-.917-.172l-1.464-.2c-.251-.035-.5-.076-.745-.094-.5-.027-.991-.056-1.49-.084-.338-.019-.682-.06-1.026-.053-.622,0-1.248,0-1.873,0,.061-1.358.123-2.715.176-4.07.032-.8.064-1.594.089-2.395.028-.766.034-1.544.086-2.309a1.182,1.182,0,1,0-2.357-.154v-.031c0,.012,0,.025,0,.038s0,.043,0,.062c-.011.311-.021.628-.032.94v.021h0c0,.024,0,.051,0,.074l0-.006c0,.012,0,.024,0,.03-.009.135-.013.264-.022.4-.091,2.494-.216,4.985-.337,7.477-.124,0-.248.006-.371.016-.773.065-1.557.108-2.325.215-.423.057-.842.131-1.267.2C108.435,250.057,108.1,250.092,107.766,250.175Zm1.015,6.163c.723-.24,1.44-.48,2.163-.7.495-.151,1-.276,1.507-.4l-.078,1.442a1.247,1.247,0,0,0-1.234-.354c-1.1.286-2.2.537-3.291.869-2.473.759-4.967,1.471-7.44,2.237l0-.108.906-.4c.449-.2.917-.363,1.376-.543,1.644-.538,3.319-1.028,4.946-1.633-.055.025-.11.045-.166.065C107.907,256.653,108.348,256.5,108.781,256.338Zm15.531,36.715q-.341,2.033-.665,4.08c-.106.572-.232,1.138-.348,1.719-.133.658-.26,1.32-.4,1.975-.125.571-.3,1.129-.44,1.693-.153.579-.292,1.165-.456,1.752-.242.685-.469,1.379-.7,2.075a32.388,32.388,0,0,1-1.224,3.109,28.282,28.282,0,0,1-1.6,2.977c.01-.009.013-.022.023-.03a.186.186,0,0,1-.027.037c0,.008-.009.014-.014.022a20.354,20.354,0,0,1-1.247,1.712,15.875,15.875,0,0,1-1.193,1.253.614.614,0,0,0,.043-.045c-.068.061-.144.114-.214.173-.517.136-1.035.274-1.553.4l.029-.007c.011,0,.024,0,.036,0l-1.99.441c-1.61.359-3.238.643-4.855.949-1.391.258-2.778.531-4.166.8q.3-1.926.609-3.852c.235-1.466.491-2.926.707-4.394.131-.912.279-1.829.4-2.744a16.872,16.872,0,0,0,.21-2.346,1.269,1.269,0,1,0-2.536.073l0,.017c-.044.776-.131,1.544-.245,2.307-.129.893-.251,1.791-.393,2.683-.473,2.927-.962,5.855-1.426,8.784-.878.183-1.756.367-2.638.531-.848.157-1.7.32-2.543.479.23-1.153.465-2.3.687-3.458.294-1.5.541-3.017.958-4.486a1.236,1.236,0,0,0-.707-1.572,1.221,1.221,0,0,0-1.566.706,20.585,20.585,0,0,0-.581,2.42c-.159.75-.3,1.5-.446,2.253-.255,1.338-.529,2.675-.8,4-.04.193-.078.386-.117.579-.65.1-1.3.187-1.955.254h0a27.428,27.428,0,0,1-2.965.1l.013,0-.017,0a.147.147,0,0,1-.021,0H88l-.022,0a.975.975,0,0,1-.121,0,.783.783,0,0,1,.1,0c-.585-.036-1.157-.088-1.731-.175a13.628,13.628,0,0,1-1.358-.312,9.568,9.568,0,0,1-.976-.387l-.028-.015c.4-2.9.837-5.8,1.183-8.716.392-3.271.825-6.528,1.345-9.777,0,.014-.006.03-.009.047.01-.07.021-.136.031-.2l0,.022c.02-.123.041-.242.057-.36,0,.016,0,.032,0,.048.011-.063.021-.129.032-.195l0,.026.009-.054,0,.024.012-.077h0c.019-.121.04-.239.058-.355-.009.063-.019.119-.028.183.03-.19.06-.385.094-.576h0v0l0-.024v0c.023-.138.05-.281.072-.424.006-.025.01-.057.015-.083,0,.013-.007.02-.01.033a.665.665,0,0,0,.02-.114l0-.007c.024-.121.042-.247.06-.367-.009.062-.018.12-.027.182.011-.075.023-.151.034-.227-.008.063-.018.12-.027.183.158-.925.326-1.859.476-2.789-.008.063-.017.126-.027.183.033-.194.065-.392.1-.587.124-.021.25-.036.375-.056,1.284-.2,2.575-.429,3.843-.746,1.532-.381,3.046-.782,4.56-1.233a1.346,1.346,0,1,0-.759-2.583c-1.514.449-3.04.854-4.577,1.237.057-.014.114-.028.173-.037q-1.055.226-2.108.453c-.343.07-.691.126-1.039.18.149-.868.29-1.74.43-2.611-.008.063-.018.12-.027.183.181-1.125.368-2.252.543-3.376l0,.013c.152-.912.283-1.826.423-2.739.339-.062.675-.133,1.018-.189a1.285,1.285,0,1,0-.408-2.538c-.066.01-.13.026-.2.037.261-1.782.516-3.565.787-5.346,0,.015,0,.031-.008.044l.014-.083v-.006c.184-1.081.34-2.165.5-3.256.194-1.146.374-2.3.561-3.447a1.7,1.7,0,0,1-.034.179c.21-1.23.425-2.466.677-3.693.158-.173.315-.337.482-.5.236-.2.479-.393.723-.581.191-.117.382-.233.574-.34.657-.328,1.328-.615,2.011-.876-.02.007-.04.014-.061.023a1.958,1.958,0,0,1,.183-.07c.067-.023.14-.048.206-.076.234-.082.469-.165.7-.254l.507-.18.328-.119-.155.057c.145-.052.294-.1.44-.147.053,1.483.115,2.965.2,4.448a1.282,1.282,0,0,0,1.3,1.229,1.363,1.363,0,0,0,.257-.04,1.263,1.263,0,0,0,.971-1.267q-.076-1.183-.135-2.37c-.045-.945-.072-1.891-.1-2.837q2.053-.663,4.117-1.283c2.4-.719,4.772-1.522,7.212-2.106a1.029,1.029,0,0,0,.451-.241q-.119,2.172-.235,4.344a1.235,1.235,0,0,0,1.527,1.332,1.23,1.23,0,0,0,.951-1.081q.064-1.491.131-2.982.123-2.656.245-5.314c.519-.09,1.04-.174,1.569-.236a24.7,24.7,0,0,1,2.627-.108h.067a18.82,18.82,0,0,1,2.176.218c.466.079.929.184,1.39.3a1.209,1.209,0,0,0,.393.481c.327.215.641.453.955.691a14.007,14.007,0,0,1,1.059,1.01c.217.261.437.534.641.817.158.246.316.492.459.748s.249.538.362.82c.057.179.11.366.161.548.06.289.108.58.144.869.07.844.055,1.685.053,2.529-.026.577-.041,1.151-.055,1.725,0,.061,0,.116,0,.177,0-.024,0-.048,0-.078-.067,1.8-.176,3.6-.3,5.4-.305.087-.608.182-.911.277-.494.16-.991.308-1.478.5a18.972,18.972,0,0,0-2.158.953l-.06,0H121.9c-.086,0-.179-.011-.263-.008a1.226,1.226,0,0,0-1.173,1.023,2.248,2.248,0,0,0-.914,1.478,1.3,1.3,0,0,0,1.311,1.415,1.416,1.416,0,0,0,.27-.037,1.27,1.27,0,0,0,.882-.8.836.836,0,0,0,.1-.1c.091-.072.182-.142.28-.209.155-.1.32-.195.483-.29a15.963,15.963,0,0,0,1.608-.035l-.011,0c.611-.056,1.227-.114,1.839-.2q-.336,4.311-.77,8.615c-.543.081-1.084.169-1.629.265-.47.087-.946.175-1.411.3a5.513,5.513,0,0,0-1.626.636,1.338,1.338,0,0,0-.448,1.8,1.443,1.443,0,0,0,1.185.737,1.293,1.293,0,0,0,1.177-.512c.2-.058.4-.107.6-.154.571-.118,1.145-.21,1.722-.293a1.174,1.174,0,0,0,.088.3c-.089.747-.18,1.494-.268,2.241-.181,1.514-.425,3.019-.619,4.53C124.309,293.066,124.307,293.06,124.312,293.053Zm-30.6-32.7a17.383,17.383,0,0,1,.855-1.584c.182-.27.373-.524.576-.781.185-.21.378-.41.584-.606.2-.172.4-.337.611-.493.273-.171.547-.336.83-.492.212-.107.429-.205.646-.306.012.489.029.977.04,1.467l-.022.011a1.347,1.347,0,0,0-.686,1.754,1.368,1.368,0,0,0,.775.71c0,.064,0,.128,0,.192-.637.206-1.272.41-1.9.632-.548.192-1.095.382-1.633.584-.431.163-.865.337-1.288.532C93.293,261.427,93.482,260.882,93.711,260.352ZM89.483,325.44a24.4,24.4,0,0,1-2.636.111h0l-.014,0-.128,0,.084,0q-.684-.041-1.362-.134c.013,0,.024,0,.037,0-.229-.041-.454-.094-.681-.152-.193-.068-.38-.137-.564-.218a2.535,2.535,0,0,1-.274-.15c-.052-.036-.1-.072-.156-.113-.024-.024-.05-.054-.076-.085a.549.549,0,0,1-.061-.076c-.021-.036-.041-.068-.062-.105s-.032-.053-.046-.085l-.01-.041a2.144,2.144,0,0,1-.038-.275c-.029-.455-.008-.909,0-1.367,0,.011,0,.019,0,.03.009-.129.029-.257.039-.386.29.108.584.206.884.285a19.6,19.6,0,0,0,6.652.393c.428-.037.853-.094,1.279-.149-.144.717-.289,1.433-.43,2.149C91.117,325.22,90.3,325.35,89.483,325.44Zm9.881-2.334c-.466.152-.929.316-1.4.451-1.131.324-2.266.645-3.407.938q.191-.986.383-1.971c1.157-.21,2.309-.443,3.465-.659.613-.117,1.223-.246,1.834-.374-.072.466-.139.932-.21,1.4C99.808,322.96,99.587,323.034,99.364,323.106Zm6.409-2.235.156-.057-.116.047-.172.062c-.567.2-1.141.415-1.707.625l-.118.042-.132.051c-.306.107-.614.215-.922.321l.153-1.009c1.625-.307,3.249-.634,4.874-.934l.185-.034C107.243,320.291,106.507,320.581,105.773,320.871Zm16.934-10.189a16.1,16.1,0,0,1-.835,1.587q-.246.36-.514.71c-.065.075-.139.141-.207.213a31.476,31.476,0,0,0,2.708-6.026c.2-.589.416-1.179.6-1.774-.166.639-.33,1.28-.524,1.913l.021-.06A30.557,30.557,0,0,1,122.707,310.682Zm-12.242-58.249c.7-.077,1.409-.144,2.108-.233l.04,0c0,.056,0,.111-.007.167-.093.021-.187.038-.278.062-.816.209-1.627.412-2.433.661-.69.2-1.365.438-2.046.679-.405.15-.818.3-1.224.446-1.322.468-2.656.885-3.987,1.338-.784.265-1.552.567-2.312.89q-.013-.52-.028-1.04c0-.1,0-.192-.008-.287,2.084-.647,4.164-1.357,6.289-1.887-.012,0-.025,0-.036,0,.644-.142,1.293-.292,1.933-.451.335-.066.674-.12,1.012-.174S110.14,252.466,110.465,252.433Z"/><path d="M173.7,252.953c0-.046,0-.09.008-.135v-.024C173.7,252.849,173.7,252.9,173.7,252.953Z"/><path d="M139.617,80.425a17.584,17.584,0,0,0-1.88-2.723,27.15,27.15,0,0,0-2.447-2.492,21.436,21.436,0,0,0-2.482-1.949,10.32,10.32,0,0,0-2.914-1.343,8.336,8.336,0,0,0-2.823-.346A8.237,8.237,0,0,0,124,72.4a7.62,7.62,0,0,0-2.387,1.82,11.669,11.669,0,0,0-1.726,2.6,14.676,14.676,0,0,0-1.041,2.735,10.885,10.885,0,0,0-.266,3.27,19.707,19.707,0,0,0,.41,3.205,27.2,27.2,0,0,0,2.334,6.592,31.593,31.593,0,0,0,1.786,3.1c.586.867,1.16,1.756,1.813,2.576,1.206,1.527,2.8,3.083,4.865,3.182a6,6,0,0,0,1.809-.166,5.066,5.066,0,0,0,1.16-.435,11.838,11.838,0,0,0,2.451-1.709,15.1,15.1,0,0,0,1.269-1.287,11.806,11.806,0,0,0,.982-1.2,10.084,10.084,0,0,0,1.3-2.74c.135-.434.261-.878.361-1.327.026-.044.052-.086.077-.129a14.131,14.131,0,0,0,1.806-6.051,12.442,12.442,0,0,0-.259-2.964A10.269,10.269,0,0,0,139.617,80.425ZM123.85,78.2l-.168.042c.023-.007.044-.014.067-.019S123.816,78.207,123.85,78.2ZM122.5,79.446c0-.03,0-.06,0-.084a3.337,3.337,0,0,1,.038-.362,1.152,1.152,0,0,1,.033-.135.539.539,0,0,1,.053-.056c.1-.085.207-.167.314-.248.059-.033.11-.07.164-.1.136-.064.267-.121.406-.174l.168-.048c.108-.026.222-.049.332-.064a.021.021,0,0,1,.019,0A9.47,9.47,0,0,0,122.5,79.446Zm4.1,11.213c-.062-.2-.112-.4-.16-.592.057.059.12.116.183.173C126.611,90.378,126.6,90.519,126.6,90.659Zm2.179-5.185c.028-.129.063-.259.1-.39l0-.007c.088-.016.175-.032.263-.042C129.022,85.176,128.9,85.323,128.781,85.474Zm3.882,8.784c-.052.037-.1.073-.148.116-.194.121-.384.235-.587.347-.179.086-.36.162-.541.238-.079.025-.163.052-.243.072l-.193.03a.162.162,0,0,1-.054,0,10.255,10.255,0,0,0,.793-.835c.057-.014.119-.035.176-.05a7.065,7.065,0,0,0,.978-.358C132.783,93.961,132.723,94.11,132.663,94.258Zm4.3-11.442a17.422,17.422,0,0,0-1.671-2.685,9.653,9.653,0,0,0-2.363-2.2,6.508,6.508,0,0,0-2.588-1.06,8.918,8.918,0,0,0-1.116-.093c-.035-.021-.069-.037-.105-.059a20.821,20.821,0,0,0-3.027-1.212,6,6,0,0,0-1.252-.252c.127-.074.248-.147.376-.221.2-.1.4-.184.6-.271.2-.068.409-.132.619-.191.2-.037.4-.068.6-.093.167-.012.336-.017.506-.017a6.566,6.566,0,0,1,.851.079,7.564,7.564,0,0,1,.791.184c.324.105.645.22.963.356a10.035,10.035,0,0,1,.99.536,19.79,19.79,0,0,1,1.681,1.269c.806.706,1.579,1.45,2.311,2.23a18.686,18.686,0,0,1,1.305,1.687c.263.4.517.806.749,1.227.141.275.266.559.389.856.12.359.226.714.313,1.087,0-.017,0-.03,0-.047,0,.017,0,.041.008.059l.032.125L137.886,84c.074.394.136.785.179,1.181.009.155.017.311.026.467A13.133,13.133,0,0,0,136.961,82.816Z"/><path d="M190.17,132.166c0,.031-.012.062-.017.093l-.013.078Z"/><path d="M218.75,77.607l0-.007.017-.028Z"/><path d="M180.744,23.615l.109-.04.035-.014Z"/><path d="M184.379,35.269l0,0,.15-.055Z"/><path d="M224.693,81.6l-.013.022-.008.014Z"/><path d="M229.914,71.861a1.942,1.942,0,0,0-.032-1.029,1.55,1.55,0,0,0-1.106-.981,2.026,2.026,0,0,0-2.1,1.113.76.76,0,0,0-.11.166c-.036.053-.069.105-.1.157a1.965,1.965,0,0,0-1.677.562c-.247.25-.493.5-.726.764a1.39,1.39,0,0,0-.477-.136,2.221,2.221,0,0,0-1.823.988,15.171,15.171,0,0,0-1.223,1.592c-.538.764-1.117,1.509-1.625,2.3l0,0c-.054.084-.1.166-.159.25l-.034.057v0l-.195.3c.036-.051.071-.109.107-.16-.075.116-.149.232-.224.347.036-.052.07-.108.106-.16-.106.16-.21.325-.314.491l.021-.036c-.037.052-.069.1-.1.159-.107.165-.209.333-.317.5l0,0-.011.017c-.025.043-.051.086-.077.129.013-.021.024-.042.035-.061-.119.182-.237.364-.351.546,0,.007-.01.009-.008.015l-.035.056a.119.119,0,0,0,.02-.041l-.116.193.007-.012c-.014.021-.03.042-.042.063a.116.116,0,0,1,.018-.024c-.023.032-.043.065-.065.1v0l-.267.421c.035-.051.07-.109.106-.16-.124.189-.241.375-.364.564.036-.052.07-.108.106-.16-.084.128-.163.254-.243.381-.465-.639-.934-1.275-1.394-1.916-2.1-2.923-4.242-5.825-6.251-8.82a1.391,1.391,0,1,0-2.306,1.557c.389.613.775,1.234,1.16,1.854a5.805,5.805,0,0,0-1.918-1.167,1.392,1.392,0,0,0-1.115,2.544,1.808,1.808,0,0,0-.272.95,1.29,1.29,0,0,0,0,.224c0,.012,0,.025,0,.037s0,.018,0,.024c0,.024.006.047.007.077,0-.025,0-.042,0-.06a1.179,1.179,0,0,0,.4.836,18.809,18.809,0,0,0,1.993,2.761c.407.464.817.92,1.223,1.377.87.985,1.815,1.9,2.744,2.83a1.581,1.581,0,0,0,.682.4c.054.072.1.144.155.21.5.681,1.023,1.351,1.535,2.024-.52.91-1.037,1.819-1.516,2.756-.724,1.406-1.481,2.8-2.175,4.232q-.666,1.377-1.335,2.748c-.154.311-.295.619-.441.934-.03.051-.066.1-.095.158a2.343,2.343,0,0,0-.356.859c-.209.477-.411.958-.618,1.441a1.528,1.528,0,0,0,.523,1.781,2.348,2.348,0,0,0,1.369.5,1.753,1.753,0,0,0,.34-.049,3.28,3.28,0,0,0,.773-.332,3.36,3.36,0,0,0,.971-.9,1.917,1.917,0,0,0,.281.631,1.454,1.454,0,0,0,1.555.589,1.422,1.422,0,0,0,.59-.311,5.772,5.772,0,0,0,1.051-1.287c.136-.209.266-.418.4-.627.293-.479.6-.95.881-1.433q.792-1.353,1.579-2.723c.469-.828.9-1.682,1.351-2.529l1.029,1.226c.405.482.789.975,1.207,1.435a9.185,9.185,0,0,0,1.063,1.052,11.063,11.063,0,0,0,1.23.822l-.185-.112c.071.044.142.086.215.135a1.739,1.739,0,0,0,1.358.262c.036-.009.071-.033.107-.045.233.3.467.6.7.9l-.012-.019c.057.072.111.145.164.217-.037-.051-.074-.1-.109-.148.306.4.623.8.945,1.19a9.766,9.766,0,0,0,.791.883,1.919,1.919,0,0,0,1.2.546,1.444,1.444,0,0,0,.471-.033,1.54,1.54,0,0,0,1.125-1.548,4.473,4.473,0,0,0-.4-1.509c-.187-.457-.4-.908-.627-1.348a29.989,29.989,0,0,0-1.62-2.728c-.6-.9-1.252-1.758-1.9-2.621-.424-.556-.828-1.129-1.283-1.665-.672-.8-1.343-1.589-2.015-2.387-.136-.16-.284-.312-.422-.471.035-.072.071-.143.107-.215.771-1.275,1.544-2.562,2.3-3.85l-.008.019.352-.605-.013.018c.068-.113.134-.23.2-.342a.615.615,0,0,0-.033.063c.132-.221.258-.447.391-.668a.926.926,0,0,0-.053.08l.129-.214c.061-.108.126-.218.192-.327a.1.1,0,0,0-.016.034c.1-.177.2-.354.31-.532l-.094.157c.08-.142.166-.285.246-.425h0l0-.009,0-.007.06-.1,0,.007c.208-.343.406-.692.614-1.039l-.094.157.665-1.131a.022.022,0,0,0-.01.009c.086-.142.17-.291.262-.435a.115.115,0,0,0-.023.03c.093-.163.191-.327.29-.492l-.094.158c.125-.215.251-.427.376-.641l-.013.028c.31-.532.619-1.07.928-1.609a1.67,1.67,0,0,1,.129-.165c-.039.04-.076.086-.113.131.271-.346.544-.688.839-1.016.006,0,.01-.008.02-.017a.312.312,0,0,1,.074.006,1.4,1.4,0,0,0,1.291-1.469A1.433,1.433,0,0,0,229.914,71.861Z"/><path d="M85.715,59.557c0-.017.013-.034.019-.052l.02-.058C85.74,59.482,85.727,59.519,85.715,59.557Z"/></svg>