<svg xmlns="http://www.w3.org/2000/svg" width="112.497" height="262.655" viewBox="0 0 112.497 262.655"><path d="M111.759,246.028c.012.048.021.1.032.147-.344-1.515-.746-3.007-1.234-4.487-.459-1.4-.912-2.8-1.43-4.181.029.065.052.136.076.2-.531-1.492-1.078-2.981-1.621-4.473q-.2-1.041-.411-2.08c-.329-1.655-.747-3.292-1.148-4.929-.53-2.191-1.089-4.369-1.59-6.56-.123-.524-.323-1.042-.482-1.555-.389-1.265-.783-2.532-1.172-3.8-.76-2.473-1.531-4.941-2.291-7.414-.371-1.207-.8-2.4-1.213-3.592q-1.149-3.351-2.3-6.7-1.029-3.256-2.05-6.513c-.277-.9-.613-1.779-.925-2.668-.33-.948-.636-1.92-1-2.862.03.071.053.142.083.212-.031-.083-.063-.167-.095-.251l.012.027c-.1-.265-.2-.53-.3-.8.023.07.053.141.076.212-.1-.277-.206-.554-.312-.836.03.07.053.141.083.211-.071-.193-.146-.384-.218-.577l.023.071c-.106-.288-.211-.577-.324-.871.03.07.054.141.083.212l-.1-.271q-.3-.915-.594-1.832a41.092,41.092,0,0,0,4.52-5.326,54.649,54.649,0,0,0,7.661-15.922,59.875,59.875,0,0,0,2.556-18.478,46.76,46.76,0,0,0-1.072-9.127,41.6,41.6,0,0,0-2.75-8.379q-.108-.231-.218-.46-.384-1.287-.86-2.549a35.067,35.067,0,0,0-4.027-7.779,41.543,41.543,0,0,0-5.706-6.566,47.178,47.178,0,0,0-7.272-5.543c.053-.821.1-1.644.146-2.469.082-1.389.224-2.784.342-4.174.135-1.667.294-3.315.488-4.97.259-2.291.524-4.575.789-6.866.059-.542.165-1.083.248-1.62q.3-1.986.606-3.974c.291-1.913.556-3.837.872-5.75.541-2.773,1.054-5.545,1.578-8.311.218-1.137.424-2.273.648-3.41.176-.9.406-1.79.606-2.679q.8-3.586,1.614-7.178c.429-1.884.924-3.757,1.383-5.636q.645-2.613,1.26-5.234.363-1.565.736-3.127c.212-.883.36-1.79.542-2.679.766-3.8,1.384-7.637,2.12-11.442.217-1.121.432-2.24.657-3.357l.315-1.3c.288-1.184.583-2.367.865-3.557a44.137,44.137,0,0,0,1.184-5.376A2.419,2.419,0,0,0,96.58,5.708,31.111,31.111,0,0,0,95.561,9.7c-.194.918-.382,1.831-.571,2.75q-.148.739-.294,1.48-.165.68-.329,1.359.144-2.362.158-4.729a18.4,18.4,0,0,0-.289-4.376A3.078,3.078,0,0,0,93.394,4.6a2.55,2.55,0,0,0-1.466-.677,3.636,3.636,0,0,0-.8,0,2.64,2.64,0,0,0-.777.271,3.869,3.869,0,0,0-1.231,1.1,30.455,30.455,0,0,0-2.49,3.981c-.466.8-.925,1.607-1.384,2.414l-.151.266-.167-.131a2.047,2.047,0,0,0-2.691.266,10.649,10.649,0,0,0-1.207,1.524c-.236.377-.454.76-.689,1.137-.28.456-.56.911-.845,1.371l-.133.215.024-.043c-.3.491-.6.977-.907,1.463.018-.03.036-.06.053-.091l-.131.217,0,.007,0-.007c-.083.136-.166.273-.251.407.047-.076.089-.147.136-.224-1.372,2.183-2.75,4.363-4.213,6.485a2.141,2.141,0,0,0-.38.157,6.2,6.2,0,0,0-1.178.789,7.558,7.558,0,0,0-.8.825,20.4,20.4,0,0,0-1.955,3.014c-.384.7-.761,1.4-1.144,2.1q-.69.73-1.412,1.429a14.2,14.2,0,0,1-1.168.984c-.385.258-.771.514-1.174.747l-.012-.045c-.1-.516-.163-1.035-.254-1.55-.094-.536-.189-1.065-.289-1.6-.111-.631-.223-1.26-.341-1.89-.159-.884-.324-1.767-.483-2.656-.2-1.1-.389-2.2-.653-3.28-.207-.831-.472-1.655-.725-2.473a6.38,6.38,0,0,0-1.036-2.22,2.988,2.988,0,0,0-1.932-1.154,4.072,4.072,0,0,0-2.449.512,4,4,0,0,0-1.561,1.849c-.241.542-.435,1.095-.665,1.637-.2.459-.394.919-.595,1.384-.114.264-.228.53-.341.794-.647-.916-1.3-1.83-1.92-2.761l-1.59-2.385-.026-.039c-.044-.286-.088-.572-.133-.856a20.873,20.873,0,0,0-.783-3.463,17.422,17.422,0,0,0-1.413-2.755,1.957,1.957,0,0,0-1.967-.895,2,2,0,0,0-1.531,1.237,13.435,13.435,0,0,0-.977,2.62c-.157.73-.265,1.466-.386,2.206l.009-.057q-.477,2.649-1.019,5.294l-.1.523q-.291-.4-.584-.794A11.47,11.47,0,0,0,39.339,19.7l0,0q-.318-3.036-.637-6.073c-.189-1.825-.418-3.65-.683-5.464-.183-1.248-.389-2.491-.671-3.721-.236-1.049-.513-2.091-.76-3.139A1.815,1.815,0,0,0,34.8,0a2.883,2.883,0,0,0-1.36.358A2.166,2.166,0,0,0,32.6,1.4a6.549,6.549,0,0,0-.224,2.479c-.075,1.226-.224,2.447-.335,3.669-.118,1.365-.247,2.738-.365,4.1Q31.1,18.177,30.524,24.7c-.141,1.607-.346,3.2-.539,4.805q-.679,2.3-1.381,4.606c-.217.645-.414,1.3-.685,1.918-.107.2-.222.4-.337.6a5.42,5.42,0,0,1-.3.452c-.039.045-.079.089-.121.131l-.008,0,.019-.02-.044.036-.043.026c-.043.02-.086.041-.13.06s-.1.032-.152.046l-.142.023c-.094.005-.188.008-.282.012l-.087-.008c-.081-.019-.163-.039-.243-.062-.118-.042-.235-.087-.351-.137-.263-.9-.522-1.8-.793-2.7-.282-.954-.577-1.908-.942-2.838-.353-.895-.754-1.772-1.125-2.656a1.736,1.736,0,0,0-2.655-.612,4.059,4.059,0,0,0-.789.7,3.494,3.494,0,0,0-.418.778,3.172,3.172,0,0,0-.21.906q-.46-.594-.9-1.2c-1.008-1.413-1.923-2.874-2.843-4.345-.542-.872-1.078-1.737-1.6-2.621-.618-1.06-1.237-2.125-1.849-3.185-.336-.589-.677-1.172-1.007-1.755s-.66-1.219-1.048-1.784A17.976,17.976,0,0,0,8.2,14.27a1.834,1.834,0,0,0-2.18-.462q-.59-1.437-1.159-2.882c.024.064.047.135.071.2-.14-.387-.286-.773-.432-1.154A29,29,0,0,0,2.889,5.985,1.52,1.52,0,0,0,.976,5.408,1.568,1.568,0,0,0,.057,6.462,2.528,2.528,0,0,0,.108,7.7L.1,7.658C.316,9.012.634,10.366.934,11.7s.6,2.644.895,3.969q.736,3.238,1.5,6.478L3.319,22.1l.034.152.007.03,0-.009c.672,3.014,1.4,6.018,2.107,9.026.471,2.174,1.017,4.337,1.529,6.5.524,2.226,1.024,4.464,1.566,6.69-.012-.06-.024-.112-.035-.171.047.235.105.471.164.707q2.614,11.119,5.218,22.24,1.915,8.161,3.839,16.317c.424,1.8.842,3.6,1.272,5.405.726,3.1,1.539,6.169,2.279,9.26a30.652,30.652,0,0,0-8.143,9.881,39.838,39.838,0,0,0-3.08,8.1,51.192,51.192,0,0,0-1.4,9.192,66.436,66.436,0,0,0,1.379,18.625q.265,1.218.579,2.423.042.269.086.539a69.8,69.8,0,0,0,2.019,9.115,61.663,61.663,0,0,0,4.92,11.736,66.464,66.464,0,0,0,3.9,7.555,42.771,42.771,0,0,0,5.028,6.978,33.3,33.3,0,0,0,6.342,5.5,25.681,25.681,0,0,0,7.467,3.268,33.446,33.446,0,0,0,5.586.987c.256.065.517.111.775.17-.011.06-.021.119-.032.18-.026.143-.051.289-.077.434l0-.031c0,.029-.009.058-.014.086-.269,1.139-.493,2.3-.816,3.424-.357,1.27-.72,2.541-1.078,3.817-.586,1.819-1.12,3.662-1.754,5.463-.73,2.055-1.443,4.116-2.167,6.171-.7,1.99-1.443,3.969-2.167,5.947-.7,1.914-1.378,3.834-2.061,5.753-1.354,3.763-2.573,7.567-3.786,11.377-1.26,3.951-2.444,7.92-3.61,11.9q-.568,1.927-1.081,3.871c-.145.4-.289.808-.438,1.211a19.994,19.994,0,0,0-1.272,3.957,6.524,6.524,0,0,0-.022,1.782q-.091.423-.172.85a5.7,5.7,0,0,0-.136,1.513,3.246,3.246,0,0,0,.43,1.455,2.067,2.067,0,0,0,.825.86,3.164,3.164,0,0,0,1.171.312c.055,0,.109,0,.162,0a4.548,4.548,0,0,0,1.122-.164,4.13,4.13,0,0,0,1.537-.865c.442-.371.871-.754,1.284-1.154.73-.719,1.389-1.5,2.043-2.285,1.4-1.69,2.814-3.368,4.228-5.04q1.838-2.164,3.674-4.334c.7-.825,1.39-1.649,2.084-2.473.769-.912,1.526-1.842,2.354-2.7q.333-.306.689-.59c.251.415.495.833.744,1.251a10.614,10.614,0,0,0,1.808,2.586,4.434,4.434,0,0,0,1.837,1.106,2.78,2.78,0,0,0,1.5-.052q.2.3.4.606c.465.713.918,1.437,1.419,2.126a5.83,5.83,0,0,0,2.343,2.19,2.712,2.712,0,0,0,1.5.206,3.741,3.741,0,0,0,1.549-.683A4.607,4.607,0,0,0,61.992,251a3.671,3.671,0,0,0,1.882.54,4.125,4.125,0,0,0,2.255-.565,3.907,3.907,0,0,0,.866-.712l.4-.5c.124-.132.251-.258.379-.383q.5-.451,1.022-.863c.146-.1.292-.186.445-.271.077-.037.156-.073.235-.107l.131-.042.022,0h.02a6.618,6.618,0,0,0,4.3,2.432,4.735,4.735,0,0,0,2.862-1.054,10.815,10.815,0,0,0,2.149-2.255l-.124.159a2.817,2.817,0,0,1,.272-.284c.173-.146.347-.286.527-.421l.1-.063.037-.016c.038,0,.076,0,.115.007.085.017.168.038.251.063.165.057.323.119.48.19.181.088.358.179.534.277.217.146.426.3.635.46.721.623,1.405,1.3,2.061,1.98l0,0c1.425,1.531,2.791,3.127,4.174,4.7.872.989,1.8,1.925,2.709,2.873-.041-.047-.088-.094-.135-.147.412.442.865.848,1.3,1.266.636.613,1.254,1.272,1.937,1.831a8.792,8.792,0,0,0,1.979,1.225,2.942,2.942,0,0,0,1.531.159,3.727,3.727,0,0,0,1.566-.642,3.593,3.593,0,0,0,1.131-1.154,6.084,6.084,0,0,0,.736-1.814,17.3,17.3,0,0,0,.424-1.967c.129-.994.2-2,.265-3l.036-.621c.462.147.927.283,1.4.4a5.457,5.457,0,0,0,3.374.03,3.316,3.316,0,0,0,.319-.148,4.849,4.849,0,0,0,.87.767,11.049,11.049,0,0,0,1.543.8l.135.065a1.63,1.63,0,0,0,2.156-.648c.015-.024.03-.048.045-.074a10.532,10.532,0,0,0,.9-1.5,4.32,4.32,0,0,0,.259-1.748A20.347,20.347,0,0,0,111.759,246.028Zm-75.325.058c-.825,1.208-1.631,2.427-2.479,3.616-.365.511-.728,1.023-1.094,1.534.071-.194.144-.387.216-.58.666-1.755,1.372-3.486,2.044-5.229.406-1.066.8-2.137,1.207-3.209s.8-2.122,1.207-3.183c-.032.393-.054.786-.059,1.181,0,.323-.006.642.012.959a6.108,6.108,0,0,0,.065.872,7.963,7.963,0,0,0,.5,1.419,1.741,1.741,0,0,0,.08.162C37.558,244.444,37,245.263,36.434,246.086ZM87.4,200.354c-.016.307-.046.608-.086.914l0,.007q-.084-.137-.165-.279c-.365-.726-.668-1.482-.976-2.235a1.7,1.7,0,0,0,1.216.377C87.408,199.543,87.414,199.947,87.4,200.354Zm-1.861-3.087q-.416-.962-.83-1.927c-.465-1.072-.924-2.143-1.372-3.221q-.963-2.333-1.927-4.66c.573-.3,1.142-.612,1.7-.943.371-.22.731-.458,1.095-.689C84.613,189.644,85.081,193.457,85.543,197.267Zm-10.587-6.879c.065,3.4.212,6.818.082,10.216l0-.039c-.012.208-.027.417-.045.625q-.921-2.553-1.877-5.09l.028.078c-.034-.093-.07-.187-.1-.281.01.027.019.053.029.079-.448-1.2-.854-2.42-1.355-3.6-.131-.313-.292-.608-.441-.911,1.24-.346,2.468-.734,3.676-1.177C74.952,190.319,74.955,190.353,74.956,190.388ZM66.8,194.881c.017,1,.041,2.008.059,3.015.035,1.59.035,3.179.041,4.775.006,1.455.012,2.9-.041,4.358q-.106,2.763-.2,5.523c0-.071.006-.141.006-.206-.053.8-.092,1.595-.146,2.393-.1-.543-.2-1.086-.313-1.628-.218-1.1-.436-2.208-.66-3.309-.423-2.061-.783-4.134-1.177-6.195-.354-1.837-.654-3.68-.978-5.517-.159-.93-.324-1.849-.483-2.78-.126-.721-.229-1.445-.332-2.169,1.246-.135,2.49-.3,3.727-.53.137-.026.273-.058.41-.084,0,.049,0,.1,0,.145C66.736,193.408,66.777,194.145,66.8,194.881ZM25.441,100.615q.592-.418,1.2-.812-.9.771-1.729,1.619c-.143.148-.276.307-.417.457-.029-.15-.059-.3-.088-.448.36-.29.719-.582,1.094-.857ZM40.517,88.28v.009l0,.03,0-.036Zm35.925,7.5c-.011.069-.017.14-.027.21-.367-.146-.736-.284-1.106-.424a1.7,1.7,0,0,0,.214-.122c.342-.236.7-.459,1.025-.718l.063-.055Q76.526,95.226,76.442,95.778Zm-7.423-2.187c-.366-.09-.73-.19-1.1-.271q-.968-.214-1.94-.4c-1.263-.427-2.542-.8-3.827-1.149.644-3.876,1.288-7.748,1.891-11.631.26-1.671.515-3.341.783-5.008q.038,2.423.077,4.843c.012,1.254.036,2.508.053,3.763.012.83.024,1.66.03,2.5.017,1.484.141,2.967.182,4.457a2.2,2.2,0,0,0,2.515,2.1,3.825,3.825,0,0,0,1.436-.411C69.086,92.788,69.053,93.189,69.019,93.591ZM79.93,183.719c-.031-.079-.061-.159-.092-.238-.24-.611-.495-1.211-.763-1.805q.9-.655,1.781-1.351.74-.447,1.457-.934c.419-.283.824-.584,1.23-.882.067.932.15,1.862.231,2.792A41.928,41.928,0,0,1,79.93,183.719ZM58.249,188.4c-.026-.29-.051-.581-.077-.872.273-.007.545-.032.818-.045a1.525,1.525,0,0,0-.407.829C58.472,188.338,58.361,188.369,58.249,188.4ZM61,187.339c.432-.043.863-.084,1.293-.14-.355.122-.715.227-1.072.341A1.561,1.561,0,0,0,61,187.339Zm25.427-10.48a1.75,1.75,0,0,0-.435-.305c.093-.082.18-.171.273-.255ZM77.629,170A29.745,29.745,0,0,1,75.4,172.51a31.252,31.252,0,0,1-2.419,2.059l.041-.029-.049.035-.122.095c.039-.031.074-.059.111-.086-.845.618-1.713,1.2-2.614,1.731q-.591.328-1.2.626-.849.283-1.71.524l-.01,0-.008,0a27.9,27.9,0,0,1-2.872.548c-.7.07-1.392.109-2.093.113-.708-.024-1.409-.09-2.108-.181q-.508-.085-1.009-.19a38.573,38.573,0,0,0,4.747-1.7,35.1,35.1,0,0,0,4.491-2.379,23.108,23.108,0,0,0,6.625-3.275,32.555,32.555,0,0,0,3.216-1.472Q78.033,169.47,77.629,170ZM28.5,122.215c.033-.074.067-.149.1-.223l.046-.106-.041.1c.435-.952.907-1.88,1.421-2.792.124-.138.255-.271.385-.405.266-.25.538-.485.82-.713.119-.089.247-.165.368-.25-.163.824-.3,1.652-.39,2.485-.042.414-.058.83-.085,1.245A44.123,44.123,0,0,0,28.32,138.4a50.4,50.4,0,0,0,.942,8.929c-.257-.9-.5-1.8-.714-2.7a63.221,63.221,0,0,1-1.2-7.7l0,.066-.009-.114-.021-.216q.009.075.015.15a57.491,57.491,0,0,1-.159-6.629,42.679,42.679,0,0,1,.552-5.046c.13-.691.285-1.378.445-2.064.138-.35.268-.7.418-1.05C28.563,122.085,28.534,122.149,28.5,122.215Zm42.179,22.229c-.038.2-.088.386-.129.58-.2.416-.405.825-.633,1.221-.115.178-.234.352-.357.524l-.229-.059c-.188-.065-.371-.135-.556-.205A18.044,18.044,0,0,0,70.682,144.444Zm4.013-26.413c.211.038.417.1.626.141q.96.525,1.894,1.095c.405.456.8.921,1.179,1.406.551.753,1.064,1.526,1.544,2.328l.026.069A51.414,51.414,0,0,0,74.695,118.031Zm-53.121,2.337a41.262,41.262,0,0,1,1.571-4.443,31.461,31.461,0,0,1,1.634-3.192,29.24,29.24,0,0,1,1.832-2.61c.678-.829,1.386-1.619,2.138-2.374q1.166-1.117,2.434-2.112c.705-.516,1.424-1,2.173-1.44.138-.075.279-.141.419-.212a27.723,27.723,0,0,0-2.662,2.413,26.635,26.635,0,0,0-4.728,6.69c-.226.458-.432.926-.639,1.393-.747.989-1.46,2-2.113,3.059a32.024,32.024,0,0,0-2.279,4.252c-.13.3-.255.608-.375.914Q21.248,121.532,21.574,120.368Zm75.261,28.483c.339-.805.651-1.622.929-2.453-.275,1.227-.578,2.445-.937,3.65C96.84,149.649,96.832,149.25,96.835,148.851ZM49.167,89.764c.065-.41.136-.818.182-1.23.045.414.087.829.131,1.243Zm-4.962.043,0-.043.005.043ZM34.113,91.566c.254-1.192.507-2.376.674-3.585.052-.379.1-.759.149-1.139.318,1.149.629,2.3.964,3.442.071.243.141.487.212.73Q35.106,91.265,34.113,91.566Zm14.035,87.361c.2.135.4.255.6.385-.405-.149-.808-.3-1.207-.466C47.742,178.872,47.945,178.905,48.148,178.927Zm5.879,8.473c.331.027.663.045.994.064.008.088.015.175.023.265l0,.019v.014l.018.2c0,.044.007.088.011.133l-.01-.124c0,.041.007.083.01.125.013.151.028.3.04.452l.005.064,0-.023c.01.108.019.214.032.319,0,.046.008.092.012.138-.549.091-1.1.161-1.653.233C53.682,188.651,53.857,188.026,54.027,187.4Zm19.988-.971a52.913,52.913,0,0,1-6.308,1.9q-.763.169-1.53.318c.074-.028.147-.057.22-.087a62.457,62.457,0,0,0,8.268-4.022c.037.528.061,1.059.085,1.588C74.5,186.223,74.263,186.334,74.015,186.429Zm26.416-31.668q-.453,1.862-1.02,3.7a59.174,59.174,0,0,1-2.324,6.157,51.553,51.553,0,0,1-3,5.565,47.821,47.821,0,0,1-3.146,4.425c-.3.366-.625.714-.941,1.068q-.4-1.24-.793-2.481a31.413,31.413,0,0,0,2.041-2.822,56.569,56.569,0,0,0,8.844-14.745Q100.267,155.195,100.431,154.761Zm-9.382-41.122a48.088,48.088,0,0,1,3.565,4.329q.5.692.963,1.4.567,1.23,1.049,2.5.38,1.044.7,2.105a28.239,28.239,0,0,0-12.149-12.679,46.331,46.331,0,0,0-6.145-2.835,44.447,44.447,0,0,0-6-4.031q-.813-.6-1.654-1.154a45.829,45.829,0,0,0-10.611-5.215,1.928,1.928,0,0,0,.17-.46c.015-.068.031-.135.045-.2q1.854.224,3.7.541c1.514.277,3,.644,4.482,1.05a2.084,2.084,0,0,0,2.748,1.009L72,99.952A75.691,75.691,0,0,1,79,103.81a67.126,67.126,0,0,1,6.4,4.605A65.288,65.288,0,0,1,91.049,113.639ZM81.994,40.874c.336-1.543.66-3.1.99-4.64.4-1.879.824-3.745,1.189-5.623.465-2.368.919-4.735,1.378-7.1.318-1.655.627-3.335.8-5.012.046-.082.093-.164.139-.247.884-1.554,1.779-3.1,2.668-4.657q.478-.834.957-1.669c-.009.492-.022.983-.035,1.475-.152,2.813-.363,5.619-.71,8.414-.183,1.484-.336,2.98-.554,4.458-.243,1.624-.5,3.248-.723,4.877-.038.2-.077.4-.113.6-.241,1.331-.489,2.662-.736,4-.118.619-.218,1.236-.353,1.855q-.761,3.453-1.519,6.913c-.425,1.926-.948,3.839-1.425,5.759q-.566,2.288-1.172,4.575-1.7,6.351-3.439,12.684c-1.013,3.656-2.1,7.283-3.156,10.927-.02.063-.04.126-.059.19l.016-.049-.018.06q0-.42.008-.841c.011-1.241,0-2.494.035-3.736l-.006.1c0-.042,0-.083.007-.125s0-.1.005-.152c0,.035,0,.07,0,.1a16.523,16.523,0,0,0-.009-3.578c-.014-.09-.029-.181-.045-.27q.195-1.2.388-2.393l-.007.048c.118-.641.241-1.283.359-1.919q.654-3.489,1.307-6.966c.365-1.943.813-3.875,1.219-5.812C80.228,49.035,81.111,44.955,81.994,40.874ZM56.9,26.235l.6-1.378c.229-.529.453-1.06.688-1.589.078-.18.152-.362.225-.545.232.726.444,1.46.621,2.2l-.027-.132c.011.05.021.1.032.151l.027.114q-.014-.05-.024-.1c.39,1.859.711,3.734,1.054,5.605q.132.717.257,1.438c-.574-.509-1.117-1.043-1.648-1.6l.049.053-.076-.081c-.042-.044-.083-.088-.125-.131.02.019.038.038.057.057-.781-.84-1.548-1.7-2.259-2.595l-.07-.09Q56.6,26.925,56.9,26.235ZM40.157,27.372c.142.217.281.437.42.656-.094.428-.193.855-.3,1.28-.042-.561-.088-1.122-.143-1.683-.012-.114-.023-.228-.034-.342ZM34.975,15.366c.036-.41.073-.821.109-1.23.021.187.042.376.062.564q.213,2.064.425,4.121a4.5,4.5,0,0,0-.952.517Q34.8,17.354,34.975,15.366ZM28.186,40.744c.04-.013.08-.028.12-.043-.1.416-.192.833-.285,1.251-.137.607-.248,1.225-.385,1.834-.3-.911-.55-1.837-.814-2.759A6.257,6.257,0,0,0,28.186,40.744Zm-14.7-11.17c.477.754,1,1.478,1.525,2.2.771,1.071,1.578,2.113,2.443,3.109.238.273.478.544.723.813-.024.135-.046.271-.069.406.012-.071.024-.148.035-.218a25.532,25.532,0,0,1-.64,2.585c-.067.193-.138.379-.217.566l-.032.058-.032.048-.025.028c-.237-.272-.453-.563-.67-.854-.158-.239-.3-.478-.438-.728-.856-1.667-1.567-3.406-2.321-5.119-1.1-2.5-2.136-5.031-3.166-7.563C11.53,26.48,12.511,28.027,13.483,29.574Zm-.87,8.248c.035.077.069.154.1.232a14.55,14.55,0,0,0,1.649,2.838,3.647,3.647,0,0,0,2.361,1.7,3.6,3.6,0,0,0,2.544-.8A5.189,5.189,0,0,0,20.82,39.1c.061-.218.127-.436.192-.653a14.093,14.093,0,0,0,1.871,1.37c.032.112.065.224.1.337.212.724.43,1.436.63,2.161.265.948.5,1.907.824,2.838.289.824.624,1.625.942,2.438A1.762,1.762,0,0,0,27.238,48.6l.223-.034a3.478,3.478,0,0,0,1.585-.384,3.612,3.612,0,0,0,1.207-1.271,12.083,12.083,0,0,0,1.119-3.61c.176-.818.406-1.619.577-2.438.182-.866.347-1.743.5-2.614.2-1.178.412-2.368.554-3.551q.224-1.929.449-3.859c.235-.779.468-1.56.707-2.337.147-.457.285-.917.434-1.376-.009.023-.017.045-.025.067a35.677,35.677,0,0,1,1.39-3.607c.027-.054.054-.107.082-.16q.288,2.93.557,5.858c-.005-.048-.011-.1-.014-.144a27.8,27.8,0,0,0,.359,3.9,6,6,0,0,0,.53,1.544c.253.476.583.9.877,1.359a1.916,1.916,0,0,0,3.274-.1c.4-.731.872-1.425,1.225-2.179q.221-.472.408-.956.2.357.4.712a8.491,8.491,0,0,0,.913,1.539,2.575,2.575,0,0,0,1.666.937,3.135,3.135,0,0,0,1.878-.436,2.782,2.782,0,0,0,1.155-1.561c.032-.108.058-.218.079-.328a2.151,2.151,0,0,0,2.005.2c.055-.021.109-.042.163-.065a7.388,7.388,0,0,0,1.239-.506,4.126,4.126,0,0,0,1.142-.972c.068-.08.133-.162.2-.246q.166.189.334.376a35.471,35.471,0,0,0,2.7,2.767,19.888,19.888,0,0,0,3.244,2.4,12.93,12.93,0,0,0,3.451,1.436,7.581,7.581,0,0,0,2.131.218,6.4,6.4,0,0,0,1.761-.377,6.292,6.292,0,0,0,2.8-2.113A21.9,21.9,0,0,0,72.577,33.2c.537-.6,1.056-1.22,1.568-1.848.676-.832,1.327-1.682,1.961-2.546a4.415,4.415,0,0,0,.978-.08,8.742,8.742,0,0,0,1.8-.535,8.178,8.178,0,0,0,1.873-1.169l-.06.315c-1.419,7.378-3.115,14.7-4.652,22.058q-.8,3.824-1.6,7.654c-.33,1.573-.613,3.151-.907,4.729-.318,1.673-.659,3.341-.947,5.015a2.155,2.155,0,0,0-1.426,1.3c-.289.778-.589,1.549-.825,2.344-.259.836-.441,1.684-.618,2.544-.159.747-.318,1.5-.483,2.249-.032.148-.064.294-.095.441q-.021-1.365-.04-2.731c-.018-1.485,0-2.974-.059-4.452a19.09,19.09,0,0,0-.324-3.339,18.1,18.1,0,0,0-.842-2.72c.035.088.071.182.106.276-.112-.306-.224-.612-.33-.918a2.173,2.173,0,0,0-3.992-.413A14.912,14.912,0,0,0,62.392,63.8a16.74,16.74,0,0,0-.642,2.72q-.609,4.01-1.249,8.014.056-2.868.113-5.729.035-1.485.058-2.968c.024-.942.071-1.884.077-2.827a16.9,16.9,0,0,0-.088-1.966,6.77,6.77,0,0,0-.436-1.737,2.133,2.133,0,0,0-4.063.653c-.212,1.961-.4,3.928-.607,5.895-.429,4.057-.894,8.114-1.354,12.165-.229,1.991-.512,3.969-.765,5.954q-.144,1.111-.285,2.225-.264-2.346-.528-4.7c-.082-.753-.171-1.513-.253-2.273-.124-1.13-.336-2.261-.524-3.38-.212-1.236-.424-2.473-.624-3.71a1.995,1.995,0,0,0-3.91-.164c-.283,1.189-.63,2.367-.884,3.562l0,.015c-.02-.178-.041-.355-.061-.533-.242-2.1-.436-4.216-.719-6.312-.153-1.154-.329-2.3-.571-3.445-.236-1.095-.589-2.167-.889-3.244a1.885,1.885,0,0,0-3.692.582c0,4.847.094,9.693.141,14.539.041,3.691-.04,7.387-.116,11.079,0-.058.006-.116.01-.174,0,.07-.009.141-.011.211v.007c-.005.088-.009.177-.013.265V88.5c0,.041,0,.084-.006.126l-.006.121,0-.056c0,.08-.007.16-.01.239.006-.083.006-.165.012-.248-.006.195-.018.383-.024.577,0-.082.006-.165.006-.247-.016.385-.033.775-.049,1.164-.24.034-.48.061-.719.1-.161-.546-.322-1.091-.48-1.639-.542-1.872-1.019-3.757-1.59-5.617-.289-.96-.595-1.908-.96-2.839-.383-.966-.807-1.914-1.2-2.873a1.837,1.837,0,0,0-3.5.559A110.1,110.1,0,0,1,30.918,89c-.128.678-.29,1.351-.43,2.03-.105.5-.21,1-.35,1.5-.053.154-.109.306-.172.457-.013.026-.026.052-.04.078-.074-.1-.148-.193-.22-.291-.108-.165-.21-.331-.307-.5-.1-.21-.192-.418-.281-.635-.482-1.328-.827-2.713-1.215-4.071q-.529-1.847-1.06-3.692c-.476-1.655-.9-3.321-1.342-4.988q-.6-2.259-1.162-4.521-.95-4-1.929-8A1.86,1.86,0,0,0,20.1,65.117a.247.247,0,0,0-.029.01q-2.116-7.659-4.2-15.326-1.086-4.01-2.178-8.014C13.34,40.464,12.965,39.146,12.613,37.822Zm9.473,53.822q-.468-1.89-.907-3.792-2.986-12.9-6-25.8l.011.038-.008-.034.013.052,0,.009c-.017-.071-.029-.13-.047-.2l.016.072-.009-.033q-.669-2.965-1.348-5.929,2.2,8.055,4.432,16.107,1.653,6,3.31,12.006.741,2.685,1.484,5.377c.359,1.307.718,2.608,1.077,3.915.215.779.449,1.551.683,2.324l-.07.041c-.465.292-.918.6-1.37.919C22.94,95.025,22.507,93.336,22.086,91.644Zm-2.095,14.1a33.873,33.873,0,0,1,2.347-2.521c.039.222.083.443.119.666-.492.414-.994.818-1.466,1.258a33.29,33.29,0,0,0-2.381,2.459C19.042,106.968,19.506,106.351,19.991,105.747Zm-4.929,15.192c.4-1.2.841-2.388,1.35-3.549q-.318,1.285-.581,2.583a29.78,29.78,0,0,0-1.293,2.785C14.7,122.147,14.874,121.541,15.062,120.939Zm4.729,36.8a60.983,60.983,0,0,1-2.987-6.571l.012.028a59.428,59.428,0,0,1-2.218-7.389q-.183-.822-.347-1.646-.106-2.547-.008-5.1a52.425,52.425,0,0,1,.56-5.532q0,1.563.064,3.127a67.792,67.792,0,0,0,.948,9.386,55.172,55.172,0,0,0,2.379,8.944c.035.1.074.191.109.287a31.517,31.517,0,0,0,2.215,5.379c.089.166.19.325.281.489.361.732.737,1.457,1.134,2.172.074.132.149.265.225.4Q20.895,159.776,19.791,157.74Zm25.438,30.243a34.962,34.962,0,0,1-3.843-1.48,41.818,41.818,0,0,1-4.245-2.315,39.9,39.9,0,0,1-3.427-2.458,51.081,51.081,0,0,1-4.544-4.281q-2.016-2.165-3.814-4.5,1.054,1.083,2.165,2.106a53.375,53.375,0,0,0,6.955,5.446,44.078,44.078,0,0,0,7.925,4.2,41.407,41.407,0,0,0,6.575,1.975c-.124.652-.253,1.3-.376,1.954a1.291,1.291,0,0,0-.542.038c-.012,0-.021.012-.033.016C47.087,188.478,46.153,188.256,45.229,187.983Zm14.106,61.5c-.063.1-.126.2-.2.289l-.068.077-.058.056c-.05.034-.1.071-.15.1l-.029.012L58.807,250c-.066-.044-.131-.091-.2-.14-.047-.041-.092-.084-.136-.126-.268-.312-.508-.644-.753-.977-.684-.987-1.331-2.01-1.993-3.021.15-.319.284-.641.414-.945.1-.207.21-.411.323-.611.516.73,1.018,1.478,1.53,2.217.561.807,1.094,1.649,1.72,2.41C59.594,249.036,59.465,249.259,59.335,249.483Zm6.1-4.25c-.388.318-.759.648-1.124,1-.1.1-.2.2-.3.307l-.011-.012c.179-.461.363-.918.559-1.371.128-.245.262-.486.4-.726.047-.072.1-.144.15-.213l.012-.014.034-.01c.034-.006.068-.014.1-.021s.084-.006.126-.007l.086.013.06.018c.052.025.1.053.155.082.175.122.346.25.515.38C65.942,244.837,65.686,245.032,65.44,245.233Zm-.194-1.064-.077.007.006,0Zm-.08.007-.016,0,0,0h.021Zm12.764-.127a5.838,5.838,0,0,0-1.3,1.125c.045-.591.1-1.181.183-1.767-.018.095-.036.189-.053.283.036-.192.07-.386.105-.579.391.285.772.585,1.155.882Zm24.666.065a3.1,3.1,0,0,0-1.336-.848,2.2,2.2,0,0,0-1.414.112,2.413,2.413,0,0,0-1.325,2.279c.021.827,0,1.657-.031,2.486a3.276,3.276,0,0,0-.269.2,5.353,5.353,0,0,0-1.548,1.967,11.4,11.4,0,0,0-.689,2.361c-.106.518-.2,1.039-.281,1.561q-.189-.242-.385-.478-1.218-1.465-2.526-2.862a56.3,56.3,0,0,0-4.664-4.434c-1.578-1.325-3.144-2.644-4.751-3.921-.707-.559-1.408-1.113-2.12-1.661-.477-.365-.954-.73-1.419-1.1a11.579,11.579,0,0,0-1.5-1.007,5,5,0,0,0-1.231-.547,3.984,3.984,0,0,0-.924-.123,2.316,2.316,0,0,0-.689.1,4.188,4.188,0,0,0-1.443.8,4.551,4.551,0,0,0-1.478,2.709c-.144.776-.27,1.557-.364,2.342A5.055,5.055,0,0,0,71,243.625a5.606,5.606,0,0,0-1.466-.171l-.07,0-.219-.211a11.1,11.1,0,0,0-1.955-1.56,3.518,3.518,0,0,0-2.025-.565,3.615,3.615,0,0,0-1.9.594,5.026,5.026,0,0,0-1.482,2c-.19-.273-.381-.547-.573-.819a13.976,13.976,0,0,0-2.574-3.121,3.573,3.573,0,0,0-2.32-.854,4.763,4.763,0,0,0-2.167.659,5.266,5.266,0,0,0-1.694,1.978c-.175-.175-.354-.343-.54-.5-.359-.6-.725-1.193-1.125-1.766l.044.058c-.048-.068-.1-.134-.145-.2l-.037-.052.016.024a5.592,5.592,0,0,0-1.612-1.591,5.121,5.121,0,0,0-2.55-.812,4.976,4.976,0,0,0-2.514.689,10.671,10.671,0,0,0-1.51,1q.247-1.083.473-2.172c.313-1.519.625-3.033.937-4.552.536-2.584,1.089-5.17,1.6-7.76.9-4.564,1.849-9.122,2.768-13.679q.557-2.757,1.113-5.5c.43-2.1.971-4.169,1.425-6.265.012-.056.024-.111.035-.167l.324-1.106q.581-1.995,1.15-3.994c1.065.1,2.131.161,3.2.2.079.69.16,1.379.233,2.069q1.6,14.767,3.209,29.53a1.579,1.579,0,0,0,3.139-.277q.018-5.37-.018-10.734c-.014-1.967-.025-3.934-.044-5.9q.311,1.633.627,3.265c.248,1.266.5,2.531.748,3.8.189.983.33,1.972.53,2.955a10.5,10.5,0,0,0,.483,1.7c.23.565.5,1.108.754,1.661a1.562,1.562,0,0,0,2.879-.088c.241-.565.536-1.119.736-1.7a11.29,11.29,0,0,0,.448-1.755,28.707,28.707,0,0,0,.371-3.55c.07-1.131.129-2.261.17-3.392.048-1.337.095-2.68.148-4.016.017-.583.052-1.166.052-1.743-.011-1.961.012-3.922-.035-5.882q-.032-1.468-.063-2.946.917,2.438,1.838,4.874c.287.8.524,1.623.863,2.4a15.845,15.845,0,0,0,1.49,2.485,1.543,1.543,0,0,0,1.531.695,1.524,1.524,0,0,0,1.184-.96,15.424,15.424,0,0,0,.918-2.626,19.067,19.067,0,0,0,.3-2.72q.072-1.969.024-3.951c-.035-1.767-.065-3.54-.1-5.306-.014-.73-.045-1.457-.08-2.185.251-.107.5-.215.751-.325.1.227.187.455.283.684.659,1.608,1.331,3.221,1.99,4.835.583,1.419,1.207,2.82,1.808,4.234.353.818.7,1.643,1.025,2.467a11.647,11.647,0,0,0,1.224,2.4,8.04,8.04,0,0,0,1.641,1.6c-.034-.028-.068-.058-.1-.09.153.123.306.253.454.382a1.567,1.567,0,0,0,1.507.354,1.61,1.61,0,0,0,1.072-1.125c.029-.105.064-.217.1-.324-.024.065-.041.13-.065.189a22.546,22.546,0,0,0,.766-2.462c.041-.184.073-.373.1-.563.5,1.716,1.012,3.433,1.574,5.133a1.668,1.668,0,0,0,3.034.38c1.909,6.785,3.736,13.6,5.339,20.465-.018-.083-.035-.165-.053-.247.819,3.638,1.614,7.278,2.208,10.964.277,1.761.519,3.533.754,5.305q.113.835.226,1.672Q103.09,244.563,102.6,244.114Zm6.68,6.606q-.05-.035-.1-.072c.016.014.032.028.047.043l-.056-.051c-.033-.025-.066-.051-.1-.078.028.022.056.043.083.066-.115-.1-.226-.213-.331-.324l.06.067c-.211-.226-.424-.449-.639-.673a12.744,12.744,0,0,0-.157-2.228c-.147-1.188-.328-2.374-.518-3.559a1.657,1.657,0,0,0,.312-.113c.238.786.457,1.578.651,2.377.177.778.369,1.555.55,2.338l-.053-.212a14.19,14.19,0,0,1,.257,1.509c.014.232.017.461.011.7Q109.291,250.615,109.276,250.72Z"/><path d="M55.053,187.838l-.006-.076v-.006Z"/></svg>