<svg xmlns="http://www.w3.org/2000/svg" width="206.155" height="341.568" viewBox="0 0 206.155 341.568"><path d="M88.209,334.248l-.182-.018H87.95Z"/><polygon points="10.474 236.641 10.474 236.64 10.474 236.639 10.474 236.641"/><path d="M18.888,285.737c-.024-.038-.047-.078-.071-.116l-.035-.054C18.818,285.625,18.853,285.678,18.888,285.737Z"/><path d="M10.48,236.7c0-.023-.006-.04-.006-.063l.006.1Z"/><path d="M205.922,238.931c0,.027-.006.053-.008.08h0A.694.694,0,0,1,205.922,238.931Z"/><path d="M205.945,238.648c.141-1.9.171-3.81.206-5.712.018-.912-.029-1.831-.047-2.744-.018-.971-.106-1.949-.171-2.914v.031c-.08-1.369-.246-2.731-.425-4.089-.088-.671-.159-1.342-.276-2-.159-.871-.312-1.742-.472-2.614-.264-1.431-.63-2.844-1-4.252s-.747-2.826-1.207-4.21c.024.071.047.142.071.212-.453-1.407-.9-2.814-1.384-4.21-.062-.179-.131-.354-.194-.532-.13-.975-.333-1.95-.5-2.925-.147-.883-.288-1.767-.471-2.644-.271-1.3-.547-2.585-.812-3.88-.23-1.1-.524-2.2-.836-3.274-.395-1.355-.825-2.709-1.325-4.034a47.577,47.577,0,0,0-3.922-7.979c-.677-1.107-1.437-2.167-2.167-3.25-.536-.8-1.136-1.543-1.725-2.3s-1.16-1.489-1.784-2.2q-.787-.9-1.573-1.8c-.217-.253-.43-.518-.659-.76q-1.324-1.368-2.638-2.738c-.654-.683-1.349-1.319-2.026-1.972s-1.325-1.3-2.019-1.908q-1.555-1.352-3.1-2.7c-.654-.571-1.366-1.077-2.055-1.608-.606-.465-1.213-.93-1.814-1.395-.253-.194-.494-.4-.759-.571-1-.66-2.008-1.313-3.009-1.967-.683-.447-1.349-.925-2.061-1.319-1.908-1.042-3.781-2.161-5.741-3.1-1.3-.618-2.6-1.243-3.892-1.861-.737-.353-1.5-.654-2.244-.972-.568-.237-1.131-.482-1.695-.724-.23-.161-.461-.317-.7-.456-1.237-.73-2.479-1.466-3.786-2.073-.824-.382-1.659-.718-2.5-1.03-.224-.921-.437-1.845-.618-2.777-.2-1.078-.36-2.161-.505-3.245-.011-.469.007-.943.012-1.411.006-.907.041-1.82.076-2.727.077-2.037.242-4.068.389-6.106v.018a.218.218,0,0,1,.006-.065c0-.033,0-.063,0-.092a.076.076,0,0,0,0,.033v-.024h0v0a.165.165,0,0,1,.006-.032c0-.035.006-.076.006-.111v.046c.147-1.713.282-3.42.424-5.134a1.251,1.251,0,0,0,.971-.907,20.512,20.512,0,0,0,.477-2.391c.047-.376.095-.759.142-1.136.076-.683.153-1.36.241-2.037.141-1.084.247-2.173.365-3.257.165-1.59.33-3.174.507-4.763.176-1.614.329-3.233.541-4.847.236-1.819.43-3.65.7-5.464.277-1.861.589-3.716.883-5.577.483-3.026,1.066-6.041,1.614-9.056q.4-2.208.818-4.416c.342-1.826.66-3.669,1.042-5.488-.011.058-.023.112-.035.171.247-1.149.471-2.309.707-3.457.224-1.119.471-2.232.683-3.351.459-2.09,1.03-4.145,1.472-6.235.506-1.72.966-3.451,1.46-5.165.171-.612.4-1.219.6-1.819q.407-1.219.818-2.42c.351-.877.688-1.758,1.031-2.636a23.043,23.043,0,0,0,3.349-3.457,11.635,11.635,0,0,0,1.875-1.767,10.441,10.441,0,0,0,2.45-5.977,11.491,11.491,0,0,0-.331-3.426,14.97,14.97,0,0,0-.507-3.744c-.015-.054-.037-.107-.052-.162a13.491,13.491,0,0,0-1.071-4.227,20.356,20.356,0,0,0-3.621-5.547,32.617,32.617,0,0,0-5.111-4.54,49.672,49.672,0,0,0-6-3.686c-2.179-1.131-4.4-2.144-6.677-3.062-1.985-.789-4.016-1.449-6.03-2.155-.548-.2-1.1-.419-1.66-.577-.813-.236-1.626-.466-2.438-.7l-3.4-.972c-.418-.118-.825-.235-1.248-.33-1.967-.459-3.946-.9-5.912-1.366-.589-.135-1.19-.223-1.784-.323-1.184-.213-2.368-.419-3.551-.625-1.59-.282-3.186-.471-4.788-.677-.659-.088-1.324-.2-1.984-.265q-1.449-.132-2.9-.277a65.5,65.5,0,0,0-9.84-.365,29.831,29.831,0,0,0-7.136,1.1c-.357.109-.707.24-1.06.364-1.06.177-2.115.385-3.152.651a28.408,28.408,0,0,0-6.271,2.344A24.711,24.711,0,0,0,75.758,8.4a28.1,28.1,0,0,0-4.287,5.188A30.292,30.292,0,0,0,68.48,19.62a22.846,22.846,0,0,0-.918,3.374,17.27,17.27,0,0,0-.36,3.257,19.434,19.434,0,0,0,1.078,6.483,21.628,21.628,0,0,0,2.3,4.652c-.042.636-.054,1.272-.06,1.9,0,.536.006,1.071.042,1.607.035.66.118,1.308.2,1.961a1.427,1.427,0,0,0,.458.875c.006.737.01,1.474.025,2.211.035,1.914.082,3.821.123,5.729q.16,7.2.319,14.4.061,2.906.123,5.8c.018.824.053,1.648.053,2.473,0,3.074.047,6.147.071,9.221q.043,6.147.094,12.289c0,.131,0,.262,0,.393q-.073,1.054-.148,2.107a.1.1,0,0,0,0,.03v-.029a.351.351,0,0,1-.006.082c0,.032,0,.062,0,.093a.049.049,0,0,0,0-.019.087.087,0,0,1-.006.032v-.007l0,.054v.024a.524.524,0,0,1,0-.053v.047c-.011.082-.017.165-.023.241v.018c0,.024-.006.041-.006.059v.035c-.006.071-.012.136-.017.206v-.041c-.005.068-.007.135-.013.2,0-.015,0-.031,0-.046-.011.151-.022.3-.032.447l0-.011c-.029.342-.053.677-.082,1.013v-.041c-.024.294-.041.594-.065.889v-.036c-.012.165-.024.33-.035.5v-.009c-.116,1.454-.232,2.919-.342,4.372v-.041c-.082,1.054-.159,2.1-.247,3.15.006-.064.012-.123.017-.182-.017.23-.035.453-.052.683v-.041c-.018.247-.036.494-.059.736l.017-.177c-.029.383-.058.76-.088,1.136V111.6a1.715,1.715,0,0,1-.012.176v.012c-.006.053-.006.106-.012.153,0-.006.006-.017.006-.023a1.212,1.212,0,0,0-.011.147v-.082c0,.052-.006.1-.006.147a.284.284,0,0,1-.006.029l0-.012a.241.241,0,0,0,0,.053v.006c-.006.047-.006.1-.012.147,0-.035.006-.076.006-.112l-.009.126,0-.031c-.006.112-.017.224-.029.341v-.011c0,.041-.006.076-.006.112,0,.011-.006.023-.006.035l0-.012a.187.187,0,0,0,0,.047,1.118,1.118,0,0,1-.012.141c0-.03.009-.06.011-.091-.08,1.024-.155,2.041-.229,3.065-.047.33-.088.666-.135.995-.454,3.4-.96,6.807-1.36,10.223-.254,2.178-.5,4.363-.754,6.547-.071.625-.153,1.249-.206,1.879-.09,1.087-.18,2.176-.232,3.267-.158.048-.317.095-.474.145-1.066.342-2.12.683-3.174,1.037.006-.006.012-.006.024-.012a.267.267,0,0,0-.059.023l-.015,0,0,0c-.789.254-1.578.525-2.35.8-.871.312-1.754.607-2.608.954-.948.383-1.9.76-2.838,1.148s-1.843.837-2.768,1.255c-.777.347-1.531.736-2.3,1.118-.713.354-1.431.7-2.132,1.078-1.03.559-2.055,1.119-3.086,1.678-.735.4-1.436.854-2.155,1.284-.794.477-1.589.942-2.349,1.472-1.019.706-2.037,1.407-3.05,2.114-.336.23-.636.512-.948.759-.571.46-1.137.919-1.708,1.378-.324.26-.671.507-.977.795-.33.307-.654.613-.984.925l-1.713,1.607c-.265.248-.536.489-.777.754-.449.493-.895.982-1.341,1.473-.531.459-1.073.905-1.59,1.379a66.176,66.176,0,0,0-5.894,6.224,80.744,80.744,0,0,0-5.052,6.677c-1.485,2.2-2.838,4.48-4.113,6.806-.534.73-1.062,1.464-1.561,2.217a47.151,47.151,0,0,0-4.275,8.014c-.583,1.419-1.119,2.862-1.584,4.322-.23.73-.454,1.472-.66,2.208-.17.625-.365,1.243-.5,1.873L4.013,204c-.176.8-.353,1.6-.494,2.409q-.363,2.083-.719,4.175c-.114.637-.2,1.285-.279,1.933-.019.093-.038.188-.059.279-.023.118-.053.242-.082.359-.058.3-.126.593-.185.886l0,0c-.053.27-.088.547-.129.824-.124.807-.242,1.619-.365,2.432-.23,1.572-.46,3.15-.707,4.728-.147.948-.189,1.926-.277,2.886C.56,226.613.4,228.315.242,230.023c-.194,2.1-.229,4.228-.241,6.342q-.018,4.734.377,9.462c.263,3.1.641,6.2,1.158,9.27.026.265.05.53.075.795.07.742.135,1.484.206,2.226.029.294.041.6.082.883.153,1.084.324,2.167.483,3.257.112.747.224,1.5.336,2.249.047.335.088.677.159,1.012.224,1.067.442,2.132.659,3.2.148.712.3,1.431.448,2.149.047.236.088.477.147.707.312,1.177.63,2.349.942,3.527.183.689.371,1.378.554,2.067.053.212.106.424.176.636a.535.535,0,0,1-.023-.059c.035.106.071.218.106.33-.009-.034-.02-.069-.031-.1.038.119.077.241.119.358l-.006-.006c.636,1.955,1.284,3.9,1.926,5.859.009.028.018.06.028.089v0l.006.021c0-.012-.008-.028-.012-.043v0l-.012-.042.006.019v0c.205.64.455,1.276.7,1.911.271.689.542,1.378.819,2.067q.857,2.067,1.8,4.092a84.026,84.026,0,0,0,9.4,15.416,62.021,62.021,0,0,0,6.024,6.76,61.451,61.451,0,0,0,6.884,5.664,77.57,77.57,0,0,0,7.531,4.7c1.072.589,2.179,1.108,3.274,1.649,1.048.513,2.09,1.031,3.133,1.537.2.1.411.177.618.261a92,92,0,0,0,10.4,5.45,85.531,85.531,0,0,0,17.477,5.618q4.717.963,9.5,1.49c3.074.335,6.153.589,9.245.671,1.136.03,2.267.047,3.4.047a107.145,107.145,0,0,0,15.84-1.142c2.109-.318,4.24-.642,6.319-1.131q2.013-.468,4.027-.948c1.19-.277,2.373-.559,3.563-.836.665-.153,1.313-.371,1.967-.559,1.477-.43,2.95-.854,4.428-1.284.7-.206,1.407-.394,2.1-.624-.041.017-.089.029-.13.047.089-.03.177-.059.259-.088l.177-.059.036-.012-.006,0,.133-.042-.01,0c.336-.112.671-.218,1.013-.33.5-.165,1-.33,1.5-.489-.012,0-.018.006-.03.006.159-.047.318-.1.477-.153l.471-.159c-.029.012-.065.024-.094.035l.648-.211c-.065.017-.13.041-.195.058.53-.17,1.054-.341,1.585-.512-.065.018-.13.041-.195.059l.322-.1h0l.057-.022c.047-.012.088-.029.129-.041l-.058.018c.182-.057.365-.115.548-.177h0l.007,0h0l.051-.015c.033-.014.069-.024.106-.036l.259-.081c-.065.017-.129.041-.194.058.117-.041.241-.076.359-.112s.218-.07.324-.106c-.065.018-.129.042-.194.06,1.171-.383,2.326-.842,3.48-1.267,1.348-.5,2.7-.989,4.039-1.5,1.313-.489,2.609-1.049,3.892-1.614q1.987-.875,3.922-1.854a52.189,52.189,0,0,0,17.869-14.5,66.522,66.522,0,0,0,16.026-16.531,71.249,71.249,0,0,0,6.366-11.023,53.226,53.226,0,0,0,3.839-11.418,54.7,54.7,0,0,0,.937-6.489c.094-1.2.194-2.4.217-3.6q.036-1.608.071-3.209c.012-.483.035-.966.024-1.449-.024-.977-.042-1.961-.059-2.938-.012-.595,0-1.195-.036-1.784-.044-.809-.092-1.615-.138-2.422.08-.309.172-.614.245-.926a46.841,46.841,0,0,0,1.007-5.771c.088-.871.206-1.749.277-2.626,0-.053,0-.112.011-.171,0-.035.006-.065.006-.1.011-.1.017-.2.026-.3.025-.325.05-.648.074-.975v.047c.03-.365.054-.736.083-1.1v.035c0-.035.006-.064.006-.1,0-.014,0-.028,0-.043s0-.044,0-.068C205.927,238.842,205.933,238.748,205.945,238.648Zm-3.433-10.988c.047.872.106,1.743.159,2.615.065,1.366.053,2.738.03,4.1q-.033,1.577-.11,3.145c-.087-.53-.178-1.059-.268-1.588q.012-.667.025-1.334c.036-1.92.065-3.845.048-5.759,0-.778,0-1.558,0-2.338.038.4.078.789.113,1.185ZM172.9,162.767c-.157-.087-.31-.182-.468-.269.018-.019.033-.04.05-.06C172.62,162.548,172.758,162.658,172.9,162.767Zm19.186,30.01c1.195,2.532,2.373,5.076,3.409,7.679.75,1.871,1.452,3.76,2.124,5.659.154,1.056.265,2.121.4,3.179.142,1.154.271,2.29.348,3.444.094,1.431.194,2.868.294,4.3l.035,1.343,0,.159-.013-.081c-.053-.324-.094-.648-.159-.966q-.4-1.828-.777-3.657c-.177-.824-.365-1.631-.577-2.443-.206-.789-.412-1.578-.613-2.368-.1-.388-.188-.777-.3-1.159-.353-1.172-.7-2.344-1.054-3.516-.265-.889-.559-1.76-.859-2.638-.525-1.543-1.043-3.085-1.661-4.6a45.148,45.148,0,0,0-3.94-7.649c-.067-.1-.142-.2-.21-.3-.314-.732-.636-1.461-.959-2.192-.595-1.361-1.32-2.674-2.008-3.993-.377-.736-.836-1.442-1.278-2.137-.483-.766-.989-1.519-1.531-2.243-.14-.186-.285-.369-.427-.553.484.532.969,1.065,1.434,1.615a56.46,56.46,0,0,1,4.187,5.682c.819,1.3,1.566,2.632,2.326,3.951.33.577.613,1.19.919,1.779.324.63.659,1.26.977,1.9ZM60.5,326.128c.059.017.118.041.177.059a72.5,72.5,0,0,1-8.442-3.682l.01,0-.071-.036c-.023-.014-.045-.024-.069-.036h0a93.539,93.539,0,0,1-10.075-6.127,79.321,79.321,0,0,1-7.961-6.41l0,0a91.824,91.824,0,0,1-7.7-8.139c-.812-.971-1.612-1.953-2.383-2.954-.341-.435-.7-.871-1.013-1.325-.494-.712-.989-1.419-1.484-2.131-.989-1.413-1.99-2.827-2.967-4.24-1.361-2.267-2.686-4.563-4.046-6.836.024.053.047.1.071.153-.548-1.172-1.154-2.32-1.731-3.48-.6-1.195-1.2-2.409-1.8-3.61q-.57-1.219-1.1-2.46a95.529,95.529,0,0,1-2.7-10.646,89.737,89.737,0,0,1-1.321-10.565q.243,1.349.482,2.695c.154.871.354,1.737.554,2.6.33,1.425.683,2.839,1.1,4.24a66.682,66.682,0,0,0,3.162,8.656c.783,1.72,1.607,3.433,2.538,5.082l2.155,3.816c.377.677.777,1.342,1.178,2.008.582.95,1.145,1.916,1.742,2.857.854,1.365,1.708,2.725,2.58,4.079-.018-.035-.036-.065-.053-.094.229.353.465.706.7,1.06a1.541,1.541,0,0,0,2.149.33,1.616,1.616,0,0,0,.6-.949,83.6,83.6,0,0,0,6.306,9.722,71.527,71.527,0,0,0,6.595,7.708l3.127,3.092a58.355,58.355,0,0,0,4.428,3.927,67.722,67.722,0,0,0,7.449,5.276,77.694,77.694,0,0,0,7.832,4.146c2.378,1.089,4.816,2.025,7.237,3.021.942.394,1.931.694,2.891,1.042,1.042.371,2.078.754,3.12,1.119-.035-.018-.076-.03-.112-.048.878.324,1.779.572,2.668.848l.557.174c-2.247-.343-4.485-.744-6.708-1.22l.183.035A79.369,79.369,0,0,1,60.5,326.128ZM14.961,264.751q.22.9.459,1.8c.288,1.077.583,2.155.9,3.226.666,2.215,1.39,4.417,2.2,6.578,1.13,3.026,2.384,6.012,3.786,8.915q-1.36-2.235-2.7-4.493c-.636-1.066-1.225-2.161-1.826-3.244q-.7-1.254-1.389-2.509c-.5-.9-.948-1.831-1.4-2.756.018.03.03.059.047.089a65.358,65.358,0,0,1-3.044-7.6,84.2,84.2,0,0,1-2.244-8.656c.006.035.012.07.018.1a.772.772,0,0,1-.023-.124l-.007-.032c-.206-1.183-.406-2.36-.612-3.548-.176-1.007-.406-2.02-.518-3.039-.33-2.938-.73-5.876-.907-8.826.006.076.012.147.018.223a70.61,70.61,0,0,1,.059-9.073,81.032,81.032,0,0,1,1.5-9.977c.171-.783.353-1.566.547-2.342,0,.447,0,.889.012,1.336.023,1.52.047,3.045.071,4.564.011.812-.01,1.635.039,2.448l0,.014V227.8q.236,4.419.518,8.845c0,.017.006.029.006.041v-.03c.012.23.029.448.059.677q.441,4.02.877,8.044c.206,1.9.565,3.792.86,5.688.282,1.814.547,3.622.924,5.418.5,2.4,1,4.787,1.49,7.183l0,0C14.762,264.025,14.867,264.388,14.961,264.751ZM163.52,309.974c.506-.43.977-.907,1.466-1.366.76-.718,1.519-1.431,2.279-2.15,1.1-1.042,2.138-2.154,3.2-3.238,1.566-1.608,3.038-3.3,4.534-4.976,1.383-1.548,2.638-3.221,3.951-4.834.547-.671,1.042-1.4,1.56-2.09q.84-1.139,1.679-2.271c-.752,1.465-1.5,2.933-2.254,4.392-.842,1.337-1.625,2.715-2.437,4.069q-.593,1-1.2,2c-.705,1.175-1.5,2.3-2.285,3.426h0l0,0,0,0h0c-.019.028-.035.053-.054.078a.764.764,0,0,1-.047.064l.011-.012a77.861,77.861,0,0,1-6.129,7.691l.123-.141a58.016,58.016,0,0,1-4.951,4.767l.011-.01-.106.089-.015.014,0,0,0,0-.012.01a57.361,57.361,0,0,1-4.974,3.647l-.356.158c-.147.065-.294.142-.448.2-.812.3-1.619.606-2.431.912-.571.218-1.143.46-1.726.648l.165-.053c-1.454.477-2.915.942-4.369,1.419l.171-.053c-1.278.405-2.556.8-3.825,1.232l.046-.029c1.048-.642,2.1-1.283,3.15-1.919.783-.477,1.525-1.037,2.279-1.555,1.084-.748,2.167-1.49,3.251-2.237.677-.466,1.313-1,1.96-1.5,1.025-.783,2.05-1.578,3.08-2.361.736-.566,1.419-1.208,2.12-1.814.9-.766,1.8-1.519,2.685-2.3ZM140.366,156.017c-.322-.515-.612-1.041-.89-1.589l.012.025a.359.359,0,0,1-.042-.083,20.815,20.815,0,0,1-.812-2.037c-.187-.593-.341-1.192-.479-1.8h0a12.993,12.993,0,0,0,.5,1.351,15.653,15.653,0,0,0,3.845,5.029c.33.3.674.592,1.02.878l-.013-.005a1.612,1.612,0,0,0-1.16-.017,1.562,1.562,0,0,0-.441.286c-.055-.062-.117-.116-.172-.178h0l-.018-.018c-.035-.041-.07-.076-.1-.117a.272.272,0,0,1,.032.035C141.2,157.212,140.767,156.627,140.366,156.017Zm-60.943-50.26c-.4-.638-.775-1.291-1.128-1.956.02-.27.04-.54.06-.808v.023c.011-.106.017-.218.023-.323v.023c.006-.047.006-.094.012-.147v-.018a.1.1,0,0,1,.006-.041v-.047a1.118,1.118,0,0,0,.012-.142v-.035c.025-.3.036-.6.054-.905q1.3,1.008,2.587,2.039l.054.044a10.3,10.3,0,0,0-.81,3.206c-.138-.079-.277-.155-.416-.235-.159-.23-.312-.466-.466-.707C79.411,105.74,79.417,105.746,79.423,105.757Zm20.415-102c-1.449.077-2.909.194-4.358.371a1,1,0,0,1-.13-.006c1.081-.163,2.155-.286,3.241-.357.522-.03,1.044-.035,1.566-.045-.045.008-.089.019-.134.027Zm28.205,48.12c1.484-.058,2.962-.188,4.446-.271.989-.058,1.972-.123,2.956-.182-1.214.261-2.427.517-3.641.789l.078-.012c-.031.007-.062.011-.093.016l-.036.008.027-.007-.074.013-.02.006h.014l-.028,0h0c-1.952.369-3.9.726-5.867.984-1.346.177-2.7.313-4.053.426-.583-.037-1.164-.078-1.748-.117q-1.722-.115-3.445-.224c-.324-.035-.642-.088-.96-.13-.812-.094-1.625-.2-2.437-.3q-1.272-.168-2.544-.318c-.33-.041-.671-.071-1-.129-1.207-.209-2.414-.445-3.62-.666a78.208,78.208,0,0,0,10.346.522c1.207-.018,2.414-.042,3.621-.059.63-.012,1.26-.006,1.89-.042-.011,0-.017.007-.029.007C123.9,52.092,125.97,52,128.043,51.88Zm11.278,5.883a.066.066,0,0,1,.021,0,55.456,55.456,0,0,1-6.366,1.6,72.07,72.07,0,0,1-8.479,1.045h.023a.356.356,0,0,0-.082.006c-.036,0-.069.005-.1.006a.1.1,0,0,0,.027-.006,61.005,61.005,0,0,1-7.849-.053h.057a56.851,56.851,0,0,1-6.929-1,52.851,52.851,0,0,1-6.322-1.807,52.819,52.819,0,0,1-6.155-2.707c-.6-.317-1.181-.664-1.767-1a65.574,65.574,0,0,0,8.711,2.169,71.014,71.014,0,0,0,12.678,1.207c.665,0,1.33-.011,1.99-.029,1.288-.043,2.577-.125,3.863-.237.184.012.368.028.551.039l-.217-.017c.365.029.736.017,1.1.023.765.006,1.525.012,2.291.012l2.284.017c.353,0,.706.016,1.059-.005.067,0,.135-.006.2-.012,1.855-.1,3.716-.2,5.577-.324h-.065c.806-.047,1.613-.188,2.414-.288.954-.118,1.914-.224,2.862-.348,1.207-.165,2.414-.4,3.6-.654l.567-.126c0,.084-.01.169-.016.253-.149.074-.3.152-.446.224h0A44.365,44.365,0,0,1,139.321,57.763Zm-65.2,4.6Q74.01,57.4,73.9,52.443c.047,1.16.1,2.32.147,3.474.065,1.5.065,2.991.076,4.493q.018,1.625.018,3.238C74.133,63.219,74.127,62.789,74.116,62.359Zm77.154,95.11c-.183-.194-.365-.4-.542-.612-.057-.068-.108-.14-.163-.208q2.784,1.362,5.558,2.74,2.418,1.818,4.779,3.709c-.073-.039-.15-.078-.222-.117q-2.315-1.236-4.629-2.485c-.677-.365-1.331-.765-2-1.148-.9-.519-1.769-1.064-2.63-1.63A1.217,1.217,0,0,0,151.27,157.469Zm-8.6-10.125v0l.025.009Zm-.976-4.351c-.167-1.143-.3-2.29-.368-3.442v.012c-.035-.678-.053-1.356-.063-2.033.054-.355.1-.711.157-1.065l.007.055c0,.151-.014.3-.017.454a31.266,31.266,0,0,0,.106,4.2c.073.625.181,1.243.308,1.858Zm44.113,47.468.036.075c.02.042.044.082.063.124-.035-.064-.064-.134-.1-.2.112.163.227.325.336.49.188.444.38.885.56,1.334.042.107.082.216.124.323-.329-.692-.655-1.383-.984-2.073-.015-.031-.033-.061-.048-.093ZM78.144,44.927c-.006.1-.013.2-.02.3a1.36,1.36,0,0,0-.34-.052,1.485,1.485,0,0,0-.836.27q-.108-.792-.264-1.578Q77.4,44.417,78.144,44.927Zm6.87,56.77c.088-.094.183-.194.277-.288.412-.088.83-.183,1.242-.271,1.308-.236,2.6-.459,3.91-.689a74.236,74.236,0,0,1,8.51-.939,52.546,52.546,0,0,1,6.288.032h-.036c.03,0,.065.006.095.006a.2.2,0,0,1,.059.006h-.018c1.278.1,2.55.253,3.815.448a64.377,64.377,0,0,0-9.233.058,27.323,27.323,0,0,0-6.188,1.16,18.633,18.633,0,0,0-2.526,1,22.425,22.425,0,0,0-2.3,1.343H88.9l-.057.037a8.194,8.194,0,0,0-1.792,1.223c-.04.044-.07.095-.106.141q-1.365-1.116-2.729-2.234c.026-.039.047-.082.074-.121,0,.006-.006.012-.012.024A11.315,11.315,0,0,1,85.014,101.7Zm42.409,4.075c.576.212,1.142.43,1.7.671.118.165.23.336.342.513-.03-.041-.059-.089-.089-.13a19.8,19.8,0,0,1,.974,1.729c.2.416.376.844.534,1.28.094.312.177.624.241.942.036.183.053.365.077.548.006.177.006.353,0,.53-.017.114-.035.222-.057.336-.04.172-.087.341-.137.506-.095.23-.183.453-.289.671a11.086,11.086,0,0,1-.707,1.168l-.012.015c-.308.063-.613.128-.92.186-.642.089-1.278.194-1.914.3-.548.082-1.1.2-1.655.253-1.3.123-2.585.265-3.887.365-1.5.041-3,.1-4.492.188-.754.018-1.513.012-2.261.018-.878.006-1.755.024-2.632.024-.207,0-.414,0-.621-.006-.633-.084-1.267-.161-1.9-.257-2.052-.31-4.1-.651-6.132-1.077-1.283-.283-2.554-.613-3.82-.96-.714-.194-1.426-.4-2.136-.624q-1.409-.882-2.777-1.834v0c-1.435-1.006-2.811-2.1-4.2-3.164-.658-.5-1.3-1.022-1.941-1.548a.234.234,0,0,0,.012-.063c0-.006,0-.006,0-.012l.06-.059c.082-.058.164-.117.247-.17.483-.3.971-.577,1.443-.878l-.01.009a18.854,18.854,0,0,1,1.788-1.022,21.264,21.264,0,0,1,2.139-.841,24.915,24.915,0,0,1,2.755-.7,37.736,37.736,0,0,1,4.192-.45c-.047.006-.095.006-.148.012a69.136,69.136,0,0,1,8.909.106,84.225,84.225,0,0,1,10.544,1.531h-.013A55.653,55.653,0,0,1,127.423,105.772Zm6.159,5.129a10.07,10.07,0,0,0-.672-2.52.745.745,0,0,1,.118.076c.377.242.742.489,1.107.742.053.124.1.253.147.383.077.253.142.512.195.771a8.173,8.173,0,0,1,.094.825c.006.182,0,.359-.006.541-.023.171-.047.336-.082.5-.019.074-.046.146-.071.218a2.62,2.62,0,0,1-.134.289c-.047.086-.1.17-.153.253-.128.169-.257.331-.4.494-.13.134-.263.259-.4.385-.051.011-.1.019-.153.03l-.073.016A5.919,5.919,0,0,0,133.582,110.9Zm-50.838-2.944c-.025-.157-.05-.313-.068-.471-.006-.248-.006-.5.012-.748.029-.306.077-.6.135-.9.063-.267.141-.529.224-.791.567.464,1.139.922,1.7,1.389.652.539,1.31,1.069,1.967,1.6a5.87,5.87,0,0,0,1.31,2.281,16.25,16.25,0,0,0,4.34,2.962c.727.38,1.472.712,2.227,1.017-.629-.2-1.258-.411-1.888-.6-2.65-1.472-5.294-2.95-7.92-4.469-.668-.386-1.341-.764-2.011-1.145C82.767,108.04,82.753,108,82.744,107.957Zm54.118,2.461a1.183,1.183,0,0,0,.989-1.448,4.149,4.149,0,0,0-.159-.531,1.6,1.6,0,0,0-.3-.447,4.015,4.015,0,0,0-.771-.683,16.548,16.548,0,0,0-1.507-.983c-.059-.071-.118-.148-.177-.218a15.244,15.244,0,0,0-2.208-2.155,20.927,20.927,0,0,0-2.379-1.7A30.974,30.974,0,0,0,125.6,100c-.318-.213-.642-.425-.972-.619a27.646,27.646,0,0,0-2.714-1.419c-1.06-.483-2.126-.96-3.209-1.384-1.013-.394-2.044-.748-3.068-1.095-1.767-.595-3.522-1.243-5.294-1.8-.854-.271-1.7-.565-2.561-.812-1.149-.336-2.291-.654-3.451-.937a1.17,1.17,0,0,0-.642,2.25c1.166.288,2.326.594,3.469.954.906.288,1.807.582,2.714.871.524.165,1.042.348,1.56.53-.1-.018-.194-.029-.294-.041q-3.551-.486-7.143-.66c-2.4-.112-4.822-.147-7.225-.047-1.195.047-2.391.124-3.574.289-1.013.147-2.02.335-3.021.553a13.558,13.558,0,0,0-5.464,2.144c-.194.147-.377.3-.565.465-.66.141-1.325.288-1.991.424a1.1,1.1,0,0,0-.8.766c-.068-.053-.135-.109-.2-.163-.7-.541-1.408-1.089-2.12-1.619l-.386-.294q.079-1.332.159-2.665c.135-2.279.295-4.563.412-6.848-.006.059-.011.118-.017.177.112-1.337.153-2.68.229-4.022q.168-3.092.342-6.189c.153-2.8.3-5.606.453-8.409.006-.129.018-.259.024-.388.306-3.481.489-6.972.6-10.47A1.353,1.353,0,0,0,79.8,58.228v0c.095-1.826.206-3.651.277-5.477.083-1.048.135-2.1.2-3.156s.143-2.125.2-3.19c.359.21.717.421,1.082.622,1.06,1.025,2.173,2.008,3.3,2.956a64.745,64.745,0,0,0,5.488,4.157,54.774,54.774,0,0,0,12.26,6.307A54.365,54.365,0,0,0,116.583,63.4c1.484.117,2.979.171,4.475.171a67.215,67.215,0,0,0,9.916-.76,51.973,51.973,0,0,0,13.455-3.7c.066-.029.132-.062.2-.091-.04.631-.085,1.262-.123,1.894-.074,1.1-.154,2.2-.218,3.292v.01l0,.05a.127.127,0,0,0,0,.028v.017q-.336,4.391-.63,8.792v.012c-.183,1.736-.306,3.491-.459,5.234-.146,1.656-.326,3.313-.437,4.969-.126.982-.219,1.969-.329,2.951q-.3,2.712-.613,5.424c-.217,1.984-.47,3.957-.741,5.935-.424,3.174-.825,6.342-1.3,9.51-.225,1.515-.442,3.031-.661,4.547-.023.012-.047.021-.071.034-.382.218-.747.483-1.106.736-.454.324-.913.642-1.367.966-.022.015-.041.029-.062.042a5.693,5.693,0,0,0,.4-2.335C136.9,110.9,136.891,110.654,136.862,110.418Zm37.3,67.461c.158.231.315.462.473.692.186.272.361.551.542.827-.267-.276-.536-.55-.8-.827q-1.1-1.17-2.207-2.336Q173.18,177.04,174.161,177.879Zm-58.467,157.2q2.254-.11,4.5-.323c.607-.059,1.214-.128,1.82-.2l-.062.011c-.342.059-.7.077-1.043.118-.765.083-1.525.165-2.284.253-.813.094-1.62.183-2.426.271-.283.035-.577.077-.86.1-.719.035-1.439.074-2.159.113C114.019,335.317,114.858,335.208,115.694,335.083Zm56.761-23.5c-.9.539-1.8,1.065-2.7,1.589-.155.091-.317.173-.474.261.051-.053.1-.1.154-.157a71.1,71.1,0,0,0,5.771-6.977q1.395-1.9,2.7-3.857c.353-.53.707-1.06,1.03-1.608q1.088-1.8,2.167-3.615c.5-.825,1.036-1.631,1.473-2.485q1.615-3.119,3.209-6.248c.123-.241.217-.5.329-.742l.813-1.855c.518-1.178,1.031-2.355,1.549-3.533.341-.777.612-1.59.912-2.379.065-.171.131-.342.2-.514-.284.93-.553,1.859-.849,2.788-.628,1.724-1.24,3.459-1.856,5.188l.007-.023c-.053.141-.1.276-.153.418l.018-.041-.03.088a.171.171,0,0,0-.013.023V287.9c-.147.383-.329.76-.489,1.143q-.582,1.386-1.171,2.773c-.283.677-.571,1.354-.854,2.032-.241.582-.53,1.142-.807,1.707-.394.813-.789,1.614-1.2,2.421v-.006a.006.006,0,0,1-.006.006c-.029.064-.059.123-.094.188a.371.371,0,0,0,.029-.065,77.611,77.611,0,0,1-4.983,8.22l0-.006c-.668.947-1.372,1.869-2.087,2.782Q173.778,310.365,172.455,311.58ZM121.948,7.959a98.084,98.084,0,0,1,10.288,1.613l-.23-.053c1.849.4,3.692.824,5.512,1.331,1.742.482,3.456,1.038,5.159,1.637a49.009,49.009,0,0,1,5.934,2.538c.308.16.6.34.907.506a38.919,38.919,0,0,1,3.255,2.623c-.006,0-.012-.006-.018-.012l.024.024a.839.839,0,0,0,.063.056c.51.481,1,.981,1.48,1.492A68.011,68.011,0,0,0,143.8,14.872c-1.09-.4-2.179-.795-3.286-1.149s-2.214-.7-3.327-1.054c-1.331-.424-2.656-.853-4-1.23-1.867-.524-3.728-1.09-5.6-1.578l-5.412-1.414c-1.13-.3-2.267-.565-3.4-.824ZM102.633,8.98a1.223,1.223,0,0,0,1.451-.674q1.683.229,3.361.489c1.2.182,2.391.359,3.575.589,1.46.277,2.92.547,4.369.842,1.849.436,3.721.824,5.565,1.307q2.844.734,5.688,1.472c1.725.453,3.439.96,5.158,1.443,1.319.371,2.626.771,3.933,1.183,2.02.63,4.04,1.243,6.024,1.949l-.088-.035a77.466,77.466,0,0,1,9.374,4.028,49.752,49.752,0,0,1,5.176,3.14,38.639,38.639,0,0,1,3.387,2.706A28.437,28.437,0,0,1,160.7,30.1l0-.018c0,.014.009.028.014.046.011.036.029.077.041.118-.012-.023-.018-.053-.03-.077a21.928,21.928,0,0,1,.63,2.468,20.583,20.583,0,0,1,.283,2.414c.016.5,0,.984-.025,1.475-.118.189-.222.388-.35.572-.295.4-.607.783-.936,1.154a17.045,17.045,0,0,1-1.367,1.319,17.186,17.186,0,0,1-3.727,2.343,33.353,33.353,0,0,1-3.375,1.339l.066-.02-.132.042-.015.006.014,0c-1.387.441-2.78.817-4.183,1.17-1.066.271-2.132.583-3.21.819-1.96.436-3.921.865-5.888,1.3-1.578.259-3.15.548-4.728.831-.572.1-1.143.223-1.72.3-2.143.283-4.293.506-6.454.642h.065c-2.974.164-5.959.159-8.933.029-1.7-.082-3.4-.165-5.1-.23-.571-.07-1.148-.112-1.731-.164-1.131-.112-2.267-.224-3.4-.33a79.112,79.112,0,0,1-8.7-1.323,56.053,56.053,0,0,1-6.423-1.739,36.949,36.949,0,0,1-4.334-1.861,29.585,29.585,0,0,1-2.895-1.757l.027.026a1.306,1.306,0,0,0-.124-.094c-.017-.012-.041-.024-.058-.036.017.012.035.018.053.03A25.01,25.01,0,0,1,81.7,39a26.109,26.109,0,0,1-1.9-1.978,20.221,20.221,0,0,1-1.36-1.814,19.7,19.7,0,0,1-1.06-1.89c-.271-.594-.518-1.2-.73-1.819-.141-.477-.271-.96-.371-1.455-.006-.023-.012-.047-.018-.064.006.017.012.041.018.058-.035-.2-.045-.4-.072-.6.036-.23.057-.464.1-.691a16.28,16.28,0,0,1,.59-2A35.258,35.258,0,0,1,78.6,22.849a50.752,50.752,0,0,1,3.236-5.292c.257-.15.512-.3.777-.435.346-.159.7-.307,1.057-.437.412-.123.83-.218,1.254-.3,1.313-.235,2.656-.341,3.963-.618.972-.206,1.937-.43,2.891-.689a1.24,1.24,0,0,0-.612-2.4c-.96.26-1.926.483-2.9.695-.889.147-1.767.265-2.656.4-.327.046-.655.1-.983.163.275-.326.537-.663.823-.979.559-.607,1.136-1.2,1.742-1.755.626-.353,1.264-.683,1.912-1A44.812,44.812,0,0,1,93.83,8.32c.908-.289,1.823-.54,2.739-.781.473.022.948.047,1.42.084.127.01.255.025.383.036C99.817,8.014,101.219,8.5,102.633,8.98ZM71.375,146.149v-.007h.015a1.4,1.4,0,0,0,1.342-1.172c.454-2.178.889-4.357,1.319-6.536.336-1.672.636-3.35.99-5.023.106-.506.159-1.036.241-1.554.177-1.154.353-2.314.536-3.474.159-1.054.324-2.108.483-3.163.053-.335.111-.665.147-1,.2-1.961.418-3.916.624-5.877.147-1.437.347-2.879.453-4.322v.029c.006-.041.006-.088.012-.129v-.03c0-.032,0-.065.006-.092,0,.011,0,.022-.006.033l.036-.459v.024c.006-.089.011-.177.023-.265l0,.011c.017-.238.039-.475.05-.718v.035c.051-.649.1-1.3.145-1.946a20.683,20.683,0,0,0,1.842,1.343c.889.583,1.808,1.124,2.721,1.678.159.171.324.342.489.512a33.456,33.456,0,0,0,5.011,4.246,38.877,38.877,0,0,0,12.536,5.676,43.088,43.088,0,0,0,10.517,1.284c1.095,0,2.185-.041,3.28-.118a41.63,41.63,0,0,0,6.977-1.054A32.624,32.624,0,0,0,127.3,121.9a39.551,39.551,0,0,0,4.9-.753,24.913,24.913,0,0,0,5.763-1.944c-.485,3.044-.972,6.088-1.492,9.127-.265,1.537-.542,3.074-.807,4.617-.194,1.119-.394,2.237-.589,3.362-.1.583-.2,1.166-.312,1.743a.657.657,0,0,1,.024-.088.605.605,0,0,0-.024.1l-.018.088c.006-.029.006-.053.012-.082a28.087,28.087,0,0,0-.854,3.645v.016a1.786,1.786,0,0,0-.607.917,1.863,1.863,0,0,0,1.266,2.285c.131.035.26.075.391.111q-.009.319-.007.641a1.26,1.26,0,0,0,.026,1.125,25.721,25.721,0,0,0,.516,4.313A19.26,19.26,0,0,0,140.6,160.8a20.967,20.967,0,0,0,4.752,3.669,30.029,30.029,0,0,0,4.858,2.12c3.038,1.024,6.159,1.831,9.262,2.626.732.187,1.462.366,2.193.55,1.149.993,2.3,1.988,3.454,2.966.824.771,1.63,1.562,2.444,2.342.554.524,1.1,1.055,1.655,1.584.247.236.518.465.748.713.807.865,1.613,1.719,2.42,2.579.7.739,1.419,1.454,2.093,2.21-.009-.01-.017-.022-.026-.031a.731.731,0,0,1,.065.076.216.216,0,0,0,.035.042l-.018-.018c1.308,1.578,2.644,3.127,3.969,4.687,1.142,1.5,2.3,2.991,3.409,4.51.16.212.3.442.442.66.359.542.725,1.09,1.084,1.631l.151.227c.519,1.079,1.041,2.158,1.554,3.241q1.108,2.728,2.212,5.463c0-.021-.011-.042-.016-.063l.026.082-.006-.009,0,.009.01.033,0-.017.019.06-.008-.017q.919,2.835,1.844,5.665c0-.012-.006-.018-.006-.024.006.012.006.024.012.035,0-.005-.006-.011-.006-.023v0l.01.028-.006-.016a.2.2,0,0,0,.008.026l.009.029c.329,1.192.634,2.395.951,3.593.265.989.571,1.972.789,2.973.518,2.35,1.054,4.7,1.578,7.055.4,2.379.842,4.746,1.231,7.119.053.335.071.677.112,1.007.082.818.171,1.631.259,2.449q.195,1.785.389,3.563c.029,1.142.082,2.284.123,3.427.03.777.059,1.549.089,2.326.011.347.047.7.035,1.048-.053,2.261-.165,4.516-.224,6.777-.17,2-.335,4.011-.518,6.012,0,.031-.007.062-.01.092-.118.493-.239.984-.379,1.468-.559,1.926-1.066,3.874-1.666,5.794-.371,1.195-.748,2.4-1.125,3.592-.241.766-.465,1.537-.724,2.3-.241.712-.478,1.426-.716,2.14-.828,1.3-1.666,2.593-2.5,3.888-.594.913-1.218,1.808-1.825,2.715-.677,1-1.343,2.008-2.026,3,.047-.071.1-.147.148-.218-.077.112-.154.224-.23.33a.006.006,0,0,0-.006.006q-.042.063-.087.123c-.068.1-.136.2-.2.292-.054.074-.1.15-.159.223l.013-.014c-.035.047-.07.094-.1.141a.608.608,0,0,1-.053.077l.012-.018c-.154.216-.3.432-.453.648v0a.154.154,0,0,0-.018.026l-.124.176,0-.01-.121.171c.018-.026.035-.051.052-.078-.124.176-.242.353-.366.53.047-.071.1-.148.147-.218-.182.265-.365.524-.547.783-.038.055-.077.109-.12.164a.058.058,0,0,0,.014-.017.41.41,0,0,1-.035.047c-.042.059-.083.118-.118.171l.014-.019c-.059.087-.119.173-.182.257l.009-.014c-.047.064-.089.129-.136.188a.163.163,0,0,1-.015.027l0-.009c-.093.131-.186.262-.274.393l0,0-.091.131c.015-.022.03-.044.044-.067-.089.13-.183.259-.271.389.035-.053.076-.106.118-.159-.106.147-.213.3-.319.448l-.088.123-.006.006-.011.018c-.036.047-.071.1-.106.147-.936,1.26-1.89,2.514-2.833,3.774-.73.972-1.5,1.908-2.273,2.856-.842,1.019-1.654,2.073-2.549,3.051-1.06,1.16-2.126,2.308-3.168,3.474q-.99,1-1.967,1.978c-.618.63-1.219,1.284-1.867,1.885-1.356,1.256-2.706,2.512-4.067,3.763l-.008,0,.006-.006-.017.018c-.13.112-.259.218-.389.329.03-.029.065-.052.094-.082q-2.111,1.776-4.216,3.557l.034-.035c-.8.647-1.644,1.24-2.46,1.854-.594.453-1.189.907-1.784,1.355-.218.165-.424.341-.654.494-1.766,1.2-3.55,2.391-5.311,3.61-1.342.807-2.679,1.619-4.016,2.42-2.061,1.248-4.169,2.4-6.342,3.457a65.223,65.223,0,0,1-7.225,2.909,63.949,63.949,0,0,1-7.26,1.807c-2.509.454-5.035.736-7.561.972l-3.374.176c-1.207.059-2.414.159-3.621.189-1.231.029-2.468-.018-3.7-.03-.789,0-1.578-.011-2.362-.011-.1-.006-.2-.006-.3-.006-.165,0-.33,0-.495-.006l.009,0q-3.126-.237-6.256-.462c-2.62-.3-5.229-.695-7.8-1.243.094.024.188.041.288.065-1.625-.354-3.268-.707-4.858-1.19-.6-.176-1.2-.359-1.8-.541-1.4-.43-2.8-.907-4.216-1.284.089.029.183.065.271.1-1.979-.724-3.975-1.4-5.965-2.084-1.431-.536-2.844-1.137-4.269-1.708-2.249-.889-4.457-1.9-6.607-3a.159.159,0,0,0,.024,0,69.013,69.013,0,0,1-7.608-4.587,76.92,76.92,0,0,1-6.713-5.393q-1.59-1.538-3.162-3.086c-1.572-1.531-3.056-3.133-4.475-4.805a83.58,83.58,0,0,1-6.017-8.149,92.74,92.74,0,0,1-5.372-9.671,104.163,104.163,0,0,1-4.881-12.27c.018.047.03.095.047.136q-.67-2.085-1.248-4.193c-.33-1.189-.7-2.39-.948-3.6-.153-.754-.318-1.5-.477-2.256-.448-2.078-.919-4.163-1.337-6.248.018.077.029.148.047.224-.029-.159-.053-.324-.082-.488-.424-2.621-.854-5.247-1.272-7.867-.089-.56-.147-1.113-.212-1.679-.171-1.477-.336-2.956-.506-4.434-.13-1.13-.265-2.255-.383-3.386-.071-.635-.088-1.277-.13-1.913-.153-2.338-.294-4.676-.447-7.019-.006-1.325-.053-2.644-.077-3.963-.029-1.514-.053-3.021-.088-4.534-.024-1.231.053-2.473.082-3.7.036-1.4.053-2.815.095-4.228.088-1.125.176-2.238.27-3.362.277-.689.548-1.384.825-2.079.106-.259.194-.524.312-.777q.927-1.944,1.849-3.9c.453-.972.9-1.961,1.378-2.921q1.068-1.935,2.137-3.874c.465-.837.93-1.679,1.4-2.515.165-.294.312-.606.494-.889q1.229-1.933,2.456-3.869.777-1.236,1.566-2.473c.165-.271.33-.547.513-.818,1.7-2.338,3.385-4.693,5.028-7.072-.041.064-.088.129-.129.194,1.636-2.114,3.315-4.2,4.958-6.312.765-.99,1.619-1.926,2.432-2.88.8-.95,1.58-1.924,2.407-2.858,1.6-1.739,3.176-3.494,4.759-5.238l0,0,.038-.04a.228.228,0,0,1-.022.028c1.879-1.943,3.811-3.823,5.87-5.569h0c.22-.182.447-.355.669-.535l.061-.015c1.866-.441,3.739-.877,5.588-1.4,3.768-1.066,7.266-2.886,10.946-4.21a1.1,1.1,0,0,0,.444-.31c.1,0,.2-.012.29-.015A1.449,1.449,0,0,0,71.375,146.149ZM39.771,159a125.6,125.6,0,0,0-20.845,28.223c-.96,1.754-1.88,3.529-2.786,5.311.542-2.1,1.163-4.181,1.895-6.227a63.771,63.771,0,0,1,3.138-7.195c.771-1.484,1.6-2.927,2.479-4.346.571-.925,1.143-1.849,1.708-2.768.023-.035.047-.064.07-.1l-.014.016c.122-.171.239-.347.362-.522.194-.271.388-.548.583-.819-.041.059-.083.112-.124.171.43-.607.86-1.219,1.284-1.831l-.008.015c.08-.119.164-.232.243-.351l.024-.033.146-.164c-.039.039-.077.083-.116.122h0c1.075-1.14,2.133-2.309,3.255-3.407.547-.536,1.077-1.1,1.649-1.6q.971-.848,1.942-1.7c.366-.283.737-.571,1.108-.854s.73-.606,1.124-.871c.719-.483,1.437-.954,2.155-1.443.654-.383,1.308-.759,1.962-1.142.261-.15.534-.285.808-.417C41.117,157.691,40.433,158.334,39.771,159ZM15.113,184.271c.128-.173.253-.347.38-.519-.174.445-.362.884-.526,1.334-.778,2.12-1.443,4.287-2.008,6.478-.277,1.071-.536,2.149-.772,3.226-.2.913-.418,1.838-.559,2.762q-.4,2.624-.807,5.235c-.111.717-.194,1.435-.266,2.154q-1.053,3.013-1.912,6.092c-.584,1.621-1.083,3.282-1.543,4.938a86.637,86.637,0,0,0-1.949,8.815q-.525,3.159-.788,6.354-.281,1.814-.529,3.633c.036-1.7.085-3.407.085-5.114-.006.071-.012.135-.018.2.1-1.154.148-2.308.212-3.462.076-1.211.158-2.417.223-3.622.123-1.492.3-2.983.455-4.469.123-1.2.264-2.379.424-3.568.176-1.319.323-2.644.547-3.957.271-1.578.554-3.145.807-4.723.215-.978.43-1.962.645-2.944.623-2.21,1.3-4.4,2.073-6.573l-.053.159a94.53,94.53,0,0,1,4.259-9.938Q14.273,185.5,15.113,184.271ZM44.388,322.378a88.4,88.4,0,0,1-8.36-6.719l0,.006a.6.6,0,0,0-.071-.064c-.016-.017-.032-.033-.049-.048l.014.012c-1.814-1.677-3.55-3.432-5.225-5.243,1.424,1.4,2.881,2.763,4.413,4.046a85.961,85.961,0,0,0,15.05,10.111,72.291,72.291,0,0,0,8.362,3.833,73.19,73.19,0,0,0,8.833,2.727,112.813,112.813,0,0,0,13.6,2.4c1.531.177,3.062.348,4.587.524.824.095,1.654.212,2.479.271.336.03.671.053,1.007.077h-.071c.118.011.237.017.355.028a.235.235,0,0,0-.037,0c.277.018.559.042.836.065l-.182-.017,1.095.088-.189-.018c.325.024.642.047.96.077l-.188-.018c.406.035.813.065,1.219.1-.012,0-.03-.006-.041-.006.371.024.747.053,1.124.083-.064-.006-.123-.006-.188-.012.188.018.377.029.565.047-.012,0-.029-.006-.041-.006l.919.071c-.03,0-.06-.006-.089-.006.236.017.46.035.689.053-.041-.006-.082-.006-.124-.012l.552.043.03,0-.029,0h0l-.014,0,.009,0-.056-.008.236.018h-.054c.5.035,1,.041,1.49.059q1.74.071,3.48.136c1.3.053,2.6.141,3.91.141q1.912-.006,3.828-.007a1.361,1.361,0,0,0,.463.42c-.108,0-.217.012-.325.012-1.16.006-2.314.024-3.468.03-.972.011-1.944.041-2.915.023-1.137-.018-2.273-.047-3.4-.076-.7-.018-1.4-.03-2.09-.047-.312-.006-.624,0-.937-.024-2.043-.141-4.092-.23-6.135-.365-1.549-.142-3.085-.312-4.628-.465-1.143-.112-2.268-.277-3.4-.448-1.242-.182-2.5-.329-3.733-.571-1.478-.288-2.95-.595-4.434-.86l-4.163-.936c-1.149-.259-2.291-.565-3.433-.86-1.072-.276-2.138-.559-3.2-.871-.895-.271-1.79-.542-2.685-.807-.329-.1-.671-.188-1-.3q-2.578-.928-5.182-1.843c-.965-.418-1.943-.807-2.92-1.219l-1.908-.8c-.224-.094-.459-.177-.677-.283-.854-.424-1.711-.838-2.566-1.258C45.651,323.238,45.015,322.816,44.388,322.378ZM188.116,178.927c.725,1.053,1.4,2.14,2.1,3.211l-.011-.019.028.046.031.048-.013-.017c.79,1.318,1.522,2.664,2.186,4.05-.006,0-.006-.006-.012-.012.186.4.348.8.523,1.2-.22-.382-.454-.761-.677-1.138l-1.254-2.1c-.341-.577-.73-1.131-1.113-1.684-.541-.783-1.089-1.555-1.672-2.308-1-1.292-2.059-2.542-3.159-3.75a1.434,1.434,0,0,0,.564-.426,1.35,1.35,0,0,0,.118-.23c.388.506.763,1.013,1.147,1.514C187.309,177.849,187.733,178.374,188.116,178.927Zm-35.879-119.4c-.347,1.289-.642,2.591-.948,3.892-.017.067-.033.133-.05.2.021-.273.046-.546.066-.819-.006.065-.012.124-.018.189.012-.135.024-.277.036-.412-.006.065-.012.123-.018.188.053-.653.1-1.3.147-1.955v.047l.036-.477c-.006.065-.012.124-.018.189.012-.13.023-.259.029-.389v.059c.006-.071.012-.141.018-.206a.334.334,0,0,1,.006-.077q.15-1.97.271-3.939c.023-.328.039-.656.058-.985.677-.452,1.338-.925,1.991-1.409C153.313,55.588,152.772,57.559,152.237,59.523ZM70.294,25.632a21.086,21.086,0,0,1,.335-2.355q.148-.687.336-1.362a21.775,21.775,0,0,0-.5,6.787c-.067-.479-.136-.959-.17-1.444C70.27,26.716,70.264,26.174,70.294,25.632Zm1.577,72.862V98.47l0-.014c0,.02,0,.039,0,.056Zm-6.458,46.139c.589-.348,1.166-.713,1.76-1.042.333-.181.663-.365.994-.548a1.4,1.4,0,0,0,2.179.015c-.106.506-.211,1.018-.317,1.525a1,1,0,0,0-.011.122c-.023,0-.045-.006-.068,0a26.712,26.712,0,0,0-4.175.453q-1.046.219-2.072.5C64.268,145.305,64.845,144.974,65.413,144.633Zm-18.554,6.783c.724-.441,1.471-.836,2.219-1.242.807-.436,1.608-.9,2.432-1.3.99-.5,1.985-1,2.986-1.485l1.207-.547-.318.23c-.883.63-1.761,1.271-2.644,1.9-1.116.8-2.185,1.673-3.235,2.565-1.144.287-2.277.606-3.414.93-.714.206-1.417.451-2.113.715.017-.025.045-.043.06-.069C44.98,152.554,45.917,151.986,46.859,151.416ZM201.575,261.734c-.029,1.29-.082,2.573-.17,3.857v-.024a57.507,57.507,0,0,1-.948,6.895l.011-.046c-.007.035-.016.07-.023.105l-.006.03v-.01a53.216,53.216,0,0,1-1.752,6.151,64.53,64.53,0,0,1-3.219,7.3c.007-.018.015-.034.022-.05a76.1,76.1,0,0,1-4.8,7.9l0-.008c-.835,1.185-1.707,2.343-2.6,3.481.284-.478.588-.945.858-1.431a76.657,76.657,0,0,0,3.975-8.238c.341-.842.7-1.684.989-2.538.171-.512.348-1.018.518-1.525q.7-2.04,1.39-4.086c.23-.666.4-1.355.577-2.038.371-1.389.73-2.779,1.1-4.169.195-.73.312-1.472.454-2.22.253-1.354.512-2.7.765-4.057.116-.618.175-1.245.234-1.871.118-.261.242-.519.355-.781.412-.96.83-1.926,1.242-2.886.283-.653.519-1.33.778-2,.1-.271.207-.543.312-.815C201.619,259.688,201.6,260.714,201.575,261.734Z"/><path d="M95.837,20.533a4.923,4.923,0,0,0-1.1,2.586,5.153,5.153,0,0,0-.017,1.313,5.647,5.647,0,0,0,.347,1.23A7.59,7.59,0,0,0,96.838,28.1a10.746,10.746,0,0,0,2.249,1.7c.542.3,1.1.577,1.666.836a.146.146,0,0,1,.024.041,11.167,11.167,0,0,0,2.067,2.426,14.753,14.753,0,0,0,2.42,1.69,27.627,27.627,0,0,0,2.944,1.49,29.955,29.955,0,0,0,3.074,1.084,39.972,39.972,0,0,0,11.029,1.678c.907,0,1.814-.042,2.721-.118a24.944,24.944,0,0,0,6.618-1.443,18.64,18.64,0,0,0,5.582-3.221,9.981,9.981,0,0,0,2.109-2.52,6.52,6.52,0,0,0,.965-2.8,7.521,7.521,0,0,0-1.778-5.217,14.605,14.605,0,0,0-4.723-3.315,29.77,29.77,0,0,0-6.3-2.232c-2.261-.554-4.534-1.072-6.842-1.425-2.355-.359-4.734-.6-7.119-.748a33.7,33.7,0,0,0-6.925.259,14.607,14.607,0,0,0-3.1.725,9.27,9.27,0,0,0-2.173,1.154c-.106.011-.206.017-.312.035A9.2,9.2,0,0,0,98,18.973,6.492,6.492,0,0,0,95.837,20.533Zm36.991,10.452a4.865,4.865,0,0,0,.989-.883,3.133,3.133,0,0,0,.571-1.071l.018-.089a.442.442,0,0,0,.047-.065c.029.053.059.106.089.165.064.136.117.277.17.424.024.083.041.159.059.242a.7.7,0,0,1,.012.112v.064l-.018.036a1.46,1.46,0,0,1-.082.123c-.077.1-.153.194-.242.289s-.206.2-.318.294c-.053.047-.112.088-.17.13s-.148.082-.218.123c-.23.1-.46.189-.689.271-.295.1-.583.183-.872.265C132.4,31.28,132.616,31.139,132.828,30.985Zm-8.951,4.57a35.725,35.725,0,0,1-4.033-.053c-.548-.047-1.095-.106-1.643-.171a28.462,28.462,0,0,0,3.816-.4c1.619.16,3.244.271,4.869.277A28.5,28.5,0,0,1,123.877,35.555ZM105.706,26.71a1.435,1.435,0,0,1,.035-.223c.024-.1.053-.2.088-.307a.227.227,0,0,1-.011.048,3.442,3.442,0,0,1,.167-.374c.1-.178.209-.348.321-.519a3.085,3.085,0,0,1,.23-.278c.084-.086.173-.173.265-.254.277-.23.571-.442.866-.642.253-.148.506-.283.771-.413.265-.111.536-.223.812-.312.365-.111.725-.2,1.1-.276a11.571,11.571,0,0,1,1.3-.153,16.981,16.981,0,0,1,1.8,0,22.827,22.827,0,0,1,2.754.42c.413.09.825.18,1.238.28a1.229,1.229,0,0,0,1.5-.83c.006-.029.011-.053.018-.077.444.088.887.181,1.332.274a50.7,50.7,0,0,1,6.558,1.793,29.944,29.944,0,0,1,2.848,1.194,8.144,8.144,0,0,1,.714.426q.3.23.583.477c.095.094.183.188.271.288-.159.118-.324.236-.488.347-.637.389-1.29.76-1.95,1.09a19.293,19.293,0,0,1-1.893.743,45.052,45.052,0,0,1-5.043,1.3,32.671,32.671,0,0,1-3.7.448h.065a1.5,1.5,0,0,0-.153,0,.284.284,0,0,0-.071.006l.02,0-.421.017-.476-.053c-2.638-.312-5.276-.671-7.873-1.224.018,0,.029.005.041.005-.812-.176-1.637-.359-2.45-.565-.164-.159-.323-.33-.477-.506a4.6,4.6,0,0,1-.276-.383c-.053-.082-.094-.171-.141-.253s-.065-.165-.1-.248c-.052-.17-.09-.339-.127-.51-.025-.142-.038-.284-.049-.426A3.027,3.027,0,0,1,105.706,26.71Zm-2.868-.188c.021-.164.046-.324.072-.487.058-.241.121-.481.2-.714.082-.212.171-.412.271-.618.082-.142.171-.289.265-.43l.159-.2c.165-.165.329-.324.5-.477.23-.182.46-.347.7-.512a5.7,5.7,0,0,0-1.378,1.884,4.889,4.889,0,0,0-.459,2.138l-.077-.065c-.088-.083-.171-.166-.253-.253C102.832,26.7,102.838,26.61,102.838,26.522Zm-4.982-2.809c.018-.159.042-.318.071-.477.018-.076.041-.153.065-.229s.065-.159.1-.236c.018-.029.029-.059.047-.083-.012.083-.024.171-.029.26a7.3,7.3,0,0,0,.07,1.825c-.076-.129-.147-.265-.217-.4-.018-.047-.036-.089-.054-.136s-.029-.124-.041-.182l-.018-.124C97.85,23.86,97.85,23.79,97.856,23.713Z"/><path d="M129.743,57.024h-.036c-.058,0-.115.009-.176.011C129.6,57.029,129.673,57.029,129.743,57.024Z"/><path d="M64.828,236.386a18.208,18.208,0,0,0-2.944,5.377,18.589,18.589,0,0,0,.271,12.6,17.006,17.006,0,0,0,3.109,5.176,13.752,13.752,0,0,0,4.993,3.539c.412.164.831.318,1.26.441a11.081,11.081,0,0,0,1.1.648,15.652,15.652,0,0,0,5.853,1.672c.377.03.759.047,1.136.047a14.916,14.916,0,0,0,1.537-.082,10.156,10.156,0,0,0,1.843-.124,15.444,15.444,0,0,0,5.742-2.008,21.186,21.186,0,0,0,9.121-12.654,12,12,0,0,0,.371-2.968,13.447,13.447,0,0,0-1.425-5.682,10.491,10.491,0,0,0-1.655-2.444c-.118-.123-.241-.247-.359-.365a10.543,10.543,0,0,0-.483-1.254,10,10,0,0,0-1.561-2.332,12.965,12.965,0,0,0-4.975-3.492,13.926,13.926,0,0,0-5.418-.971c-.211-.065-.429-.136-.642-.194a17.163,17.163,0,0,0-6.353-.66,14.3,14.3,0,0,0-5.835,1.761A16.136,16.136,0,0,0,64.828,236.386Zm29.766,11.147c.136-.424.26-.848.365-1.278.03.124.053.242.077.365a11.306,11.306,0,0,1,.147,1.19c.006.3.006.606-.018.912a.924.924,0,0,1-.011.118,12.114,12.114,0,0,0-.583-1.242A.281.281,0,0,1,94.594,247.533Zm-22.77,12.336a15.352,15.352,0,0,1-1.172-1.236c-.306-.389-.595-.783-.866-1.2-.223-.37-.43-.742-.618-1.13a.289.289,0,0,0,.011.035.209.209,0,0,1-.017-.041l-.007-.016c-.124-.276-.241-.563-.346-.844a15.981,15.981,0,0,0,1.731,1.672,17.494,17.494,0,0,0,1.449,2.909C71.936,259.97,71.877,259.922,71.824,259.869Zm6.8.778a15.911,15.911,0,0,1-1.714.418h-.017c-.218-.171-.43-.348-.636-.536-.259-.236-.5-.483-.742-.742.059.018.112.029.171.047a15.753,15.753,0,0,0,3.008.5c.242.012.483.023.725.023C79.155,260.458,78.89,260.558,78.619,260.647Zm-.041-2.75a1.041,1.041,0,0,0-.136-.012c.025,0,.051,0,.077,0-.561-.06-1.122-.15-1.678-.258a11.631,11.631,0,0,1-1.455-.427c-.383-.153-.748-.312-1.113-.5-.318-.177-.63-.359-.936-.553-.218-.536-.418-1.078-.6-1.631a24.254,24.254,0,0,1-.688-2.656,22.59,22.59,0,0,1-.336-2.668v.042a.284.284,0,0,1-.006-.071.5.5,0,0,0,0-.056l0,.015a19.659,19.659,0,0,1,.016-2.238,24.224,24.224,0,0,1,.378-2.738c.065-.277.13-.548.2-.818.123-.118.247-.236.371-.348.259-.206.524-.4.8-.589a8.578,8.578,0,0,1,.765-.423c.253-.107.5-.207.76-.295a10.06,10.06,0,0,1,1.013-.252,11.845,11.845,0,0,1,1.46-.172,15.14,15.14,0,0,1,1.637.018c.435.047.86.106,1.289.182a17.822,17.822,0,0,1,2.248.653,27.673,27.673,0,0,1,2.792,1.25,26.565,26.565,0,0,1,2.6,1.548,15.253,15.253,0,0,1,1.4,1.131q.441.423.848.883a17.091,17.091,0,0,1,1.036,1.389v.006c-.165.383-.335.76-.524,1.137l0-.006-.009.017c-.011.018-.017.042-.029.065.006-.017.018-.041.023-.059a25.37,25.37,0,0,1-1.508,2.475l.013-.013a32.925,32.925,0,0,1-2.543,3.166c-.489.524-1,1.031-1.532,1.509-.165.094-.336.177-.507.259-.365.165-.73.306-1.1.436a16.775,16.775,0,0,1-1.625.424c-.51.087-1.015.144-1.525.186A18.214,18.214,0,0,1,78.578,257.9Zm14.049-5.329c-.041.359-.094.712-.164,1.071-.094.395-.207.784-.336,1.172-.135.353-.283.7-.448,1.042-.153.283-.323.56-.5.825a13.131,13.131,0,0,1-1.036,1.26c-.46.477-.937.924-1.437,1.354a18.21,18.21,0,0,1-1.666,1.225,17.584,17.584,0,0,1-1.632.918,16.262,16.262,0,0,1-1.619.636,18.2,18.2,0,0,1-2.014.507c-.359.059-.724.112-1.089.147a15.322,15.322,0,0,0,1.648-.783,24.845,24.845,0,0,0,5.2-3.768c.112-.112.23-.224.342-.336a13.624,13.624,0,0,0,2.172-1.9,16.434,16.434,0,0,0,2.6-3.834Zm-14.9-14.957a21.87,21.87,0,0,1,2.232-.277,19.066,19.066,0,0,1,2.39.036,18.81,18.81,0,0,1,4.67,1.018,23.092,23.092,0,0,1,2.39,1.054l-.016-.009.046.021c.031.018.063.033.1.049l-.066-.031c.177.094.354.194.524.294.065.088.124.177.189.271.211.349.41.7.594,1.074.185.406.356.82.507,1.24a13.821,13.821,0,0,1,.365,1.366c.006.03.006.059.012.089l-.089-.089A17.386,17.386,0,0,0,89.2,241.9a27.384,27.384,0,0,0-5.883-2.874,16.132,16.132,0,0,0-5.217-.912c-.371,0-.748.017-1.119.047a13.317,13.317,0,0,0-2.456.418l.024-.024c.341-.141.7-.277,1.054-.4A19.139,19.139,0,0,1,77.73,237.611Zm-6.159-3.4a12.6,12.6,0,0,1,1.213-.482,13.527,13.527,0,0,1,1.419-.36,18.35,18.35,0,0,1,1.966-.229h-.023c.047,0,.1-.006.147-.006-.053.035-.106.065-.159.1a15.642,15.642,0,0,0-3.121,2.615,1.176,1.176,0,0,0-.671.241c-.348.265-.7.524-1.048.789a14.209,14.209,0,0,0-1.172.889,15.694,15.694,0,0,0-3.81,4.734,14.4,14.4,0,0,0-1.466,5.806,20.655,20.655,0,0,0,.536,6.366c.076.318.171.636.265.948-.212-.371-.418-.748-.607-1.131a17.183,17.183,0,0,1-.818-2.09c.006.029.018.059.023.088-.194-.654-.365-1.307-.494-1.978v0a17.413,17.413,0,0,1-.234-1.888,19.539,19.539,0,0,1,.016-2.11,18.825,18.825,0,0,1,.324-2.249,19.238,19.238,0,0,1,.53-1.891.19.19,0,0,1,.023-.058l.015-.046,0,.016a20.016,20.016,0,0,1,.836-1.89,18.272,18.272,0,0,1,1.054-1.719l0,0a17.118,17.118,0,0,1,1.13-1.409,13.531,13.531,0,0,1,2.749-2.3C70.634,234.7,71.094,234.449,71.571,234.213Z"/><path d="M117.122,231.806a18.8,18.8,0,0,0-1.413,6.029,19.956,19.956,0,0,0,.542,6.418,22.036,22.036,0,0,0,2.437,5.989c.059.094.118.194.177.289.071.288.147.571.23.854a22.252,22.252,0,0,0,2.473,5.729,14.116,14.116,0,0,0,1.913,2.467,13.409,13.409,0,0,0,2.2,1.755,14.86,14.86,0,0,0,5.676,2.226,10.824,10.824,0,0,0,1.62.117,15.188,15.188,0,0,0,4.546-.771,23.459,23.459,0,0,0,5.865-2.738,28.553,28.553,0,0,0,5.158-4.446,27.009,27.009,0,0,0,4.021-5.352,19.908,19.908,0,0,0,2.215-6.183,11.713,11.713,0,0,0,.147-3.327,11.944,11.944,0,0,0-.683-2.815,14.212,14.212,0,0,0-2.1-3.8,10.034,10.034,0,0,0-.36-2.508,12.363,12.363,0,0,0-3.15-5.271,11.391,11.391,0,0,0-2.467-1.913,15.971,15.971,0,0,0-2.715-1.19,16.967,16.967,0,0,0-6.141-.824c-.642.035-1.29.1-1.932.2-.525-.065-1.053-.1-1.582-.129a1.178,1.178,0,0,0,.016-.133,1.336,1.336,0,0,0-1.307-1.331,3.68,3.68,0,0,0-2.067.742,9.219,9.219,0,0,0-1.289,1.014,19.558,19.558,0,0,0-2.986.768,15.566,15.566,0,0,0-5.306,3.156A14.747,14.747,0,0,0,117.122,231.806Zm6.595,19.967c-.371-.353-.718-.724-1.054-1.107-.165-.212-.33-.418-.489-.63-.117-.459-.218-.913-.312-1.378v.006a24.4,24.4,0,0,1-.329-2.626,16.921,16.921,0,0,0,1.666,3.392c.159.794.341,1.589.559,2.372A.1.1,0,0,1,123.717,251.773ZM141.9,242.89c.057.346.1.7.136,1.054.012.418.006.83-.018,1.248-.055.534-.137,1.067-.24,1.591l0-.018c0,.026-.012.055-.018.083l-.006.029c0,.014-.007.028-.01.044-.112.468-.241.932-.38,1.394-.178.214-.353.43-.54.638l.012-.009-.012.015c-.03.029-.059.064-.088.094.029-.036.058-.065.082-.094-.383.406-.783.794-1.2,1.159-.477.383-.972.736-1.478,1.072-.452.278-.912.531-1.384.768a12.728,12.728,0,0,1-1.284.522c-.312.094-.618.176-.93.241-.262.044-.525.07-.792.093a11.867,11.867,0,0,1-1.251-.016c-.383-.036-.754-.089-1.125-.159a11.66,11.66,0,0,1-1.249-.354l.036.018a.47.47,0,0,0-.047-.018l-.027-.01.015,0c-.271-.1-.53-.223-.789-.353-.079-.044-.152-.1-.229-.143-.177-.337-.351-.676-.519-1.02l.011.019a27.564,27.564,0,0,1-1.141-2.881c-.333-1.039-.6-2.1-.83-3.167.053-.56.126-1.115.235-1.67a13.306,13.306,0,0,1,.371-1.278,19.262,19.262,0,0,1,.971-2.231c.277-.513.578-1.013.9-1.5a14.837,14.837,0,0,1,1.037-1.319c.341-.356.7-.687,1.072-1.015.116-.03.231-.066.347-.089.365-.065.73-.106,1.095-.136.383-.012.76-.012,1.142.006.371.035.736.088,1.107.159q.715.168,1.414.406c.365.136.718.3,1.066.465.276.154.541.313.812.5.341.247.66.507.978.783.311.3.606.6.889.925q.336.423.635.865c.148.242.283.489.413.737.176.388.329.783.465,1.183A12.32,12.32,0,0,1,141.9,242.89Zm-18.571-2.832c.026.466.069.931.116,1.4-.089.315-.17.634-.234.957l-.053.294c-.047-.218-.094-.436-.136-.654v.036a.343.343,0,0,0-.012-.077c-.005-.029-.011-.053-.017-.082l.006.02c-.108-.642-.184-1.285-.236-1.928-.029-.607-.029-1.207,0-1.814.029-.371.077-.736.13-1.1.161-.419.336-.83.519-1.237A27.683,27.683,0,0,0,123.329,240.058Zm1.99,16.567c-.077-.088-.147-.182-.212-.271.129.065.259.124.394.189.095.206.195.412.306.618C125.637,256.984,125.472,256.808,125.319,256.625Zm24.248-12.118a24.336,24.336,0,0,0,1.655-3.816l.035.159c.042.247.071.5.094.742q.018.556-.017,1.113a14.639,14.639,0,0,1-.23,1.5,19.345,19.345,0,0,1-.636,2.2,17.269,17.269,0,0,1-.907,2.061,24.677,24.677,0,0,1-1.325,2.131,31.228,31.228,0,0,1-2.165,2.644,32.067,32.067,0,0,1-2.709,2.621,26.65,26.65,0,0,1-2.162,1.607,20.927,20.927,0,0,1-2.085,1.131,24.8,24.8,0,0,1-2.641,1.055c-.581.182-1.169.334-1.769.458-.436.077-.878.136-1.319.171-.3.012-.595.012-.889,0a11.356,11.356,0,0,1-1.331-.206c-.371-.094-.736-.206-1.1-.324-.271-.1-.53-.206-.789-.318a1.46,1.46,0,0,0,.123-.082,1.7,1.7,0,0,0,.678-1.6c.2.012.4.007.6.011a6.459,6.459,0,0,0,2.93,1.181c.177.017.359.023.536.023a7.5,7.5,0,0,0,2.284-.4,7.93,7.93,0,0,0,2.421-1.242,11.82,11.82,0,0,0,2.119-2.173c.343-.455.672-.922.988-1.4a24.528,24.528,0,0,0,3.858-3.617A31.635,31.635,0,0,0,149.567,244.507Zm-5.511-11.394a15.871,15.871,0,0,1,1.872.806c-.07-.041-.141-.076-.218-.117.207.106.413.217.613.329.023.1.047.2.071.3.064.359.111.718.141,1.083.011.407.006.813-.018,1.213-.064.617-.151,1.228-.272,1.833a24.477,24.477,0,0,1-.817,2.895c-.177.46-.368.91-.57,1.356a13.153,13.153,0,0,0-.573-2.5,11.49,11.49,0,0,0-3.38-4.976,11.238,11.238,0,0,0-2.608-1.731,14.337,14.337,0,0,0-2.073-.734c.35-.095.7-.195,1.06-.264.536-.082,1.083-.147,1.625-.188.613-.024,1.219-.012,1.832.017q.909.079,1.8.248C143.055,232.807,143.561,232.948,144.056,233.113Zm-8.662-7.025q.733-.143,1.484-.212a18.5,18.5,0,0,1,1.914.559,17.351,17.351,0,0,1,1.978.878,19.193,19.193,0,0,1,1.643,1c.324.241.642.488.948.748a16.378,16.378,0,0,0-4.087-.377,15.929,15.929,0,0,0-6.2,1.366,17.782,17.782,0,0,0-5.23,3.7,12.494,12.494,0,0,0-1.495.928c-.059.041-.117.088-.182.135.082-.546.182-1.091.294-1.632a22.176,22.176,0,0,1,.713-2.5c.036-.095.084-.184.121-.278.312-.3.61-.61.939-.89l0,0c.045-.037.087-.073.134-.109.006,0,.012-.006.023-.006a11.6,11.6,0,0,1,1.19-.306,6.283,6.283,0,0,1,.813-.106c.318-.006.63.011.948.029.271.024.536.047.8.065h-.048c.235.023.466.05.7.084a1.253,1.253,0,1,0,.354-2.48l.1-.035A19.938,19.938,0,0,1,135.394,226.088Zm-13.6,3.892c.017-.018.035-.041.052-.059-.011.018-.029.035-.046.059a17.462,17.462,0,0,1,1.38-1.325,17.081,17.081,0,0,1,1.41-1.056c.423-.262.855-.5,1.3-.722.074-.033.149-.062.223-.094-.078.141-.162.278-.237.421-.061.053-.126.1-.186.156a20.54,20.54,0,0,0-4.11,4.881,24.283,24.283,0,0,0-2.527,6.018c-.164.63-.312,1.266-.435,1.908-.03-.713-.012-1.425.029-2.137v.023a22.75,22.75,0,0,1,.319-2.371l-.007.016a.285.285,0,0,0,.011-.039l.007-.038v.009l.006-.032c.006-.036.012-.065.018-.1a.29.29,0,0,1-.008.057,17.814,17.814,0,0,1,.579-2.018c.153-.388.318-.765.5-1.136.212-.389.436-.76.683-1.125a14.37,14.37,0,0,1,1.031-1.289.8.8,0,0,1-.065.065C121.745,230.033,121.768,230,121.792,229.98Z"/><path d="M106.852,173.13a6.593,6.593,0,0,0,1.266,2.686,4.523,4.523,0,0,0,2.22,1.448,4.372,4.372,0,0,0,1.248.165,6.934,6.934,0,0,0,1.867-.277,19.772,19.772,0,0,0,2.927-1.095,20.259,20.259,0,0,0,5.2-3.374,13.45,13.45,0,0,0,2.032-2.332,8.746,8.746,0,0,0,1.283-2.6,4.632,4.632,0,0,0,.218-1.525,2.92,2.92,0,0,0-.394-1.207,5.508,5.508,0,0,0-.854-1.095,10.088,10.088,0,0,0-1.078-.978l-.618-.494a7.084,7.084,0,0,0-.618-2.7,7.473,7.473,0,0,0-1.625-2.414c-.254-.23-.513-.46-.79-.666a1.2,1.2,0,0,0,.33-1,1.269,1.269,0,0,0-1.4-1.1,7.569,7.569,0,0,0-2.126.742,6.047,6.047,0,0,0-1.354-.035,8.107,8.107,0,0,0-2.626.683,7.517,7.517,0,0,0-2.344,1.778,10.79,10.79,0,0,0-1.643,2.326,11.964,11.964,0,0,0-1.03,3.033,18.6,18.6,0,0,0-.448,3.061c-.059,1.249-.106,2.521-.047,3.769A15.361,15.361,0,0,0,106.852,173.13Zm6.59-11.588c.247-.453.506-.883.794-1.307.3-.406.607-.8.942-1.178.271-.271.548-.541.843-.789.047-.035.088-.07.129-.1l.171.053c.188.083.371.165.553.253.165.095.33.2.489.3.212.153.407.306.6.477a3.4,3.4,0,0,1,.288.3c.148.182.289.377.418.571.012.018.024.041.036.059a3.753,3.753,0,0,0-1.107-.383,2.881,2.881,0,0,0-1.478.159,5.011,5.011,0,0,0-1.178.654,10.319,10.319,0,0,0-1.042.918,11.737,11.737,0,0,0-.9,1C113.135,162.2,113.282,161.866,113.442,161.542Zm2.8,3.092a4.717,4.717,0,0,1-.247.406c-.094.124-.194.247-.294.365-.2.2-.395.394-.6.577-.012.012-.029.024-.041.035a.159.159,0,0,1-.024,0,.017.017,0,0,0-.011-.006.021.021,0,0,1-.012-.006.074.074,0,0,1-.019-.016l.013.01c-.012-.012-.024-.03-.036-.041s-.017-.03-.023-.042a.331.331,0,0,0-.018-.041c-.006-.012-.006-.023-.011-.035a.434.434,0,0,0-.012-.088v-.13c.006-.036.013-.075.019-.115.018-.061.034-.123.051-.185l.159-.354.212-.335c.153-.206.312-.4.483-.589.248-.247.5-.483.76-.713a1.638,1.638,0,0,0-.195.695v.112l-.017.124c-.03.1-.059.2-.095.294a.025.025,0,0,1,0,.018c.011-.035.023-.077.035-.112C116.291,164.516,116.274,164.575,116.244,164.634Zm-3.88,3.085a3.3,3.3,0,0,0,2.084,1.366,3.645,3.645,0,0,0,1.16.03,2.6,2.6,0,0,0,1.1-.465,5.236,5.236,0,0,0,.741-.607c-.158.206-.324.4-.494.6-.183.182-.365.359-.554.524-.212.165-.424.318-.641.465a7.034,7.034,0,0,1-.76.424,2.458,2.458,0,0,1-.347.129l.025,0-.031.009c-.012,0-.024.006-.036.006a.26.26,0,0,0,.03-.006c-.074.014-.152.024-.23.031h-.135a.959.959,0,0,1-.13-.024,2.859,2.859,0,0,1-.324-.088c-.088-.035-.177-.071-.259-.112-.135-.082-.271-.159-.4-.247l-.1-.083c-.042-.041-.083-.088-.118-.129s-.077-.106-.112-.159a1.559,1.559,0,0,1-.094-.171c-.1-.218-.183-.43-.265-.66-.077-.259-.148-.518-.2-.783-.018-.082-.03-.159-.042-.241C112.276,167.589,112.323,167.654,112.364,167.719Zm-3.021-1.943a18.792,18.792,0,0,1,.324-2.038c.124-.529.259-1.048.436-1.566-.018.041-.036.083-.053.124a1.207,1.207,0,0,1,.059-.141v-.008c.112-.294.236-.576.37-.858.148-.259.307-.518.472-.777.212-.289.429-.566.659-.831-.112.183-.218.365-.318.548a13.678,13.678,0,0,0-1.537,4.67,10.874,10.874,0,0,0-.1,2.5,9.732,9.732,0,0,0,.412,2.014,5.628,5.628,0,0,0,.9,1.773,4.32,4.32,0,0,0,1.355,1.083,4.109,4.109,0,0,0,3.721.188,9.174,9.174,0,0,0,3.445-2.708,13.722,13.722,0,0,0,2.114-3.687c.106.112.212.23.312.348.029.035.053.071.082.112-.011.07-.023.141-.035.212-.041.17-.088.33-.141.494-.089.2-.177.4-.265.595-.2.359-.407.7-.63,1.037-.236.317-.489.63-.748.93a15.05,15.05,0,0,1-1.143,1.089,19.253,19.253,0,0,1-1.737,1.272,24.482,24.482,0,0,1-2.32,1.26c.018-.006.036-.017.053-.023-.029.017-.064.029-.1.047l-.025.012h0l0,0-.032.014.006,0-.012.006-.01,0,.006,0a16.994,16.994,0,0,1-1.726.673c-.282.089-.565.171-.854.236-.212.029-.418.059-.624.07-.123,0-.241,0-.359-.005-.065-.012-.129-.018-.188-.03s-.124-.035-.183-.053a1.265,1.265,0,0,1-.141-.065h0c.025.01.046.021.066.031-.064-.035-.123-.082-.188-.118s-.106-.088-.159-.135-.118-.118-.176-.177c-.071-.094-.136-.188-.2-.283-.047-.07-.088-.147-.129-.223a5.028,5.028,0,0,1-.2-.495c-.1-.324-.182-.636-.253-.966a18.174,18.174,0,0,1-.229-1.857c-.032-.726-.035-1.449-.03-2.176C109.29,167.186,109.3,166.481,109.343,165.776Z"/><path d="M95.157,200.532c.359-.329.724-.653,1.095-.965l-.03.02c.038-.033.076-.065.118-.1,0,0,0,0,.006-.007h0c.33-.271.666-.542,1.013-.8.012.065.018.136.03.207-.03.041-.065.088-.095.135a11.937,11.937,0,0,0-1.725,3.168,4.391,4.391,0,0,0,.018,2.968,3.045,3.045,0,0,0,.689,1.071,3.448,3.448,0,0,0,1.089.689,3.294,3.294,0,0,0,1.343.277,3.786,3.786,0,0,0,1.372-.265,8.614,8.614,0,0,0,2.75-1.719,10.424,10.424,0,0,0,2.037-2.656,6.788,6.788,0,0,0,.3-.662,6.309,6.309,0,0,0,1.231-1.083,6.556,6.556,0,0,0,1.407-2.62,4.118,4.118,0,0,0,.071-1.613,5.2,5.2,0,0,0,.218-.8,4.265,4.265,0,0,0-.171-2.485,4.845,4.845,0,0,0-1.337-1.849,4.334,4.334,0,0,0-2.285-.865,4.111,4.111,0,0,0-2.19.365,7.634,7.634,0,0,0-1.737,1.095c.082-.2.177-.4.271-.6.228-.415.473-.824.742-1.222l0,0a9.736,9.736,0,0,1,.661-.8c.142-.147.271-.282.424-.418a1.291,1.291,0,0,0-1.784-1.866,11.438,11.438,0,0,0-3.026,4.828,10.909,10.909,0,0,0-.589,3.009c-.005.119,0,.24-.006.36a16.985,16.985,0,0,0-1.568,1.055c-.83.63-1.607,1.313-2.378,2.02a1.472,1.472,0,1,0,2.037,2.125Zm6.505-2.717c.016.053.031.106.043.162s.012.1.017.15a.117.117,0,0,1,0,.038c-.006.035-.012.065-.018.1a1.587,1.587,0,0,1-.047.154c-.028.061-.056.127-.084.189s-.067.116-.1.173c-.046-.014-.092-.025-.137-.04l-.094-.035c.029-.083.064-.16.094-.242.1-.241.2-.474.308-.709C101.645,197.776,101.653,197.8,101.662,197.815Zm-.946,5.809c-.153.117-.307.235-.466.341-.253.159-.512.3-.777.436l-.031.013c.154-.617.308-1.233.48-1.846a3.459,3.459,0,0,0,1.4.476l-.007.009C101.116,203.253,100.922,203.441,100.716,203.624Z"/><path d="M115.665,290.7a9.877,9.877,0,0,0-4.016-4.357,11.832,11.832,0,0,0-5.971-1.725c-.235.006-.477.018-.712.029.147-.165.3-.329.447-.5a1.4,1.4,0,0,0-.206-1.955,1.416,1.416,0,0,0-1.961.212c-1,1.112-2.014,2.232-2.938,3.409-.006.012-.018.024-.024.036-.164.082-.323.164-.477.253a14.259,14.259,0,0,0-1.766,1.2.341.341,0,0,1-.041.017,1.765,1.765,0,0,0-.831.736,15.029,15.029,0,0,0-4.522,8.156,10.7,10.7,0,0,0,.548,6.206,7.514,7.514,0,0,0,1.613,2.5,8.725,8.725,0,0,0,2.22,1.549,7.621,7.621,0,0,0,2.844.783c.177.012.348.017.524.017a9.5,9.5,0,0,0,2.444-.323,11.6,11.6,0,0,0,2.991-1.184,15.319,15.319,0,0,0,1.584-1.077,11.366,11.366,0,0,0,5.165-2.868,12.155,12.155,0,0,0,3.4-5.265,8.045,8.045,0,0,0,.371-3.055A8.527,8.527,0,0,0,115.665,290.7Zm-15.345,1.85c.018-.16.041-.318.065-.477.041-.154.082-.307.135-.46s.141-.33.218-.5c.112-.2.236-.4.359-.583.106-.136.206-.271.324-.4s.23-.229.353-.335c.089-.071.177-.142.271-.206.371-.065.748-.124,1.125-.165a15.265,15.265,0,0,1,1.572-.006c.165.018.324.041.489.07.141.042.277.083.418.13.206.082.406.171.606.271.1.053.2.118.3.177.047.041.1.076.147.117a1.462,1.462,0,0,0,.1.112.112.112,0,0,1,.03.041,1.481,1.481,0,0,1,.123.2c.047.1.088.2.124.3l.035.141.018.124v.024c-.006.029-.006.052-.012.076a1.647,1.647,0,0,1-.041.171c.012-.047.023-.1.035-.153a.285.285,0,0,1,.012-.071c-.012.047-.03.094-.041.141s-.053.118-.077.177c-.088.141-.176.289-.265.43-.053.071-.106.135-.165.2s-.106.106-.159.153c-.671.548-1.378,1.072-2.1,1.549-.194.124-.395.23-.595.336-.276.111-.553.217-.836.317q-.37.107-.742.195c-.094.011-.188.023-.283.029H101.7c.03.006.059.006.083.012.047,0,.088.006.136.006a1.221,1.221,0,0,1-.148-.006l-.135-.018-.124-.035c-.07-.029-.147-.059-.218-.094q-.07-.046-.141-.084a.566.566,0,0,1,.053.037c-.018-.014-.04-.028-.06-.042h0l-.016-.011c-.012-.01-.026-.019-.039-.028l.028.022-.033-.025c-.017-.011-.034-.022-.05-.034.013.007.024.015.035.022-.118-.089-.233-.183-.347-.281-.047-.047-.094-.1-.141-.153a.72.72,0,0,0-.094-.124.274.274,0,0,0-.03-.059c-.018-.047-.041-.1-.059-.147s-.023-.088-.035-.13c-.023-.159-.041-.317-.053-.477A4.2,4.2,0,0,1,100.32,292.547Zm.283,11.611c-.213,0-.419,0-.625-.006-.159-.017-.318-.041-.471-.07a5.777,5.777,0,0,1-.63-.177c-.235-.094-.465-.194-.689-.306-.241-.135-.477-.277-.706-.436-.136-.1-.265-.2-.395-.312s-.224-.229-.336-.347-.2-.259-.294-.4c-.112-.2-.224-.394-.324-.595-.123-.259-.224-.523-.324-.794-.106-.342-.194-.684-.265-1.031-.047-.306-.082-.618-.1-.936s.006-.613.024-.919c.041-.459.112-.919.194-1.372a12.412,12.412,0,0,1,.459-1.59c.106-.276.224-.547.348-.818a10.031,10.031,0,0,0,.017,3.221,10.2,10.2,0,0,0,1.325,3.568,9.24,9.24,0,0,0,2.415,2.55,7.857,7.857,0,0,0,1.13.677C101.109,304.106,100.856,304.135,100.6,304.158Zm9.721-9.492c-.023.195-.053.395-.088.583-.089.353-.188.689-.306,1.031-.212.541-.448,1.072-.713,1.59-.235.435-.5.854-.777,1.266-.342.465-.707.918-1.1,1.36-.472.5-.966.96-1.483,1.408l-.019.017-.032.024.009-.006-.011.008-.049.04c-.086.07-.172.138-.258.2-.248,0-.483,0-.73-.012-.271-.029-.536-.071-.8-.118a7.948,7.948,0,0,1-.8-.225h.009a7.9,7.9,0,0,1-.772-.324,6.4,6.4,0,0,1-.588-.353c-.213-.159-.419-.324-.619-.5-.194-.195-.382-.389-.559-.589-.177-.218-.348-.442-.507-.677-.117-.195-.235-.395-.341-.607-.124-.277-.236-.559-.336-.854-.076-.265-.147-.536-.206-.806a.636.636,0,0,0,.077.047,4.539,4.539,0,0,0,2.8.783,6.934,6.934,0,0,0,1.466-.277,10.527,10.527,0,0,0,1.4-.489,16.965,16.965,0,0,0,2.662-1.695,7.384,7.384,0,0,0,1.984-1.908,7.248,7.248,0,0,0,.466-.837c.064.23.117.46.164.689.03.218.053.43.071.648C110.342,294.283,110.336,294.472,110.324,294.666Z"/></svg>