<svg xmlns="http://www.w3.org/2000/svg" width="314.953" height="408.003" viewBox="0 0 314.953 408.003"><path d="M152.392.468c.075.01.147.021.221.033.024,0,.049,0,.073.008C152.586.5,152.492.48,152.392.468Z"/><path d="M76.578,54.435c.018-.041.036-.082.053-.123s.026-.071.041-.106C76.643,54.282,76.608,54.359,76.578,54.435Z"/><path d="M78.276,85.234a2.064,2.064,0,0,0,.572-.029,5.518,5.518,0,0,0,.583,1.171,6.343,6.343,0,0,0,1,1.173,6.878,6.878,0,0,0,3.8,3.874,8.673,8.673,0,0,0,2.814.483,7.665,7.665,0,0,0,4.211-1.26,13.253,13.253,0,0,0,5.17-5.524,14.014,14.014,0,0,0,1.236-3.933,12.678,12.678,0,0,0-.018-3.781,17.747,17.747,0,0,0-.747-3.079,16.479,16.479,0,0,0,.518-3.6c.029-.735-.018-1.472-.035-2.213a5.832,5.832,0,0,0-.183-1.6,4.375,4.375,0,0,0-1.82-2.327,3.486,3.486,0,0,0-1.607-.618,3.9,3.9,0,0,0-1.378.153,3.515,3.515,0,0,0-.9.407,6.39,6.39,0,0,0-1.313-.589,6.232,6.232,0,0,0-3.521.041,9.647,9.647,0,0,0-3.051,1.372,10.812,10.812,0,0,0-2.632,2.7,21.772,21.772,0,0,0-1.808,3.1,30.724,30.724,0,0,0-1.389,3.928c-.277.912-.548,1.831-.754,2.762l-.406,1.842a19.74,19.74,0,0,0-.342,3.169A2.232,2.232,0,0,0,78.276,85.234Z"/><path d="M166.458,71.779a18.717,18.717,0,0,0-.235,2.627,13.191,13.191,0,0,0,.318,2.355c.382,1.731.936,3.4,1.483,5.082.33,1.012.689,2.017,1.065,3.016l-.556.426c-.765.59-1.525,1.178-2.29,1.767-1.072.819-2.144,1.649-3.168,2.526-.913.783-1.773,1.619-2.662,2.426a2.348,2.348,0,0,0-.83,1.855,2.324,2.324,0,0,0,.065.442,4.474,4.474,0,0,0-.766.859,3.074,3.074,0,0,0-.006,3.463,2.932,2.932,0,0,0,2.385,1.29,2.616,2.616,0,0,0,1.413-.413c.595-.383,1.19-.765,1.779-1.16a1.7,1.7,0,0,0,.436.436,1.752,1.752,0,0,0,2.1-.088c.753-.636,1.513-1.267,2.22-1.961s1.407-1.437,2.114-2.161c.441-.448.889-.9,1.336-1.349l.156-.156c.614,1.143,1.247,2.271,1.9,3.4.341.577.683,1.16,1.03,1.743.454.777.878,1.578,1.4,2.308a8.339,8.339,0,0,0,1.454,1.572,5.546,5.546,0,0,0,1.5.977,3.782,3.782,0,0,0,2.944-.117c.182.4.371.789.589,1.166.347.583.753,1.118,1.136,1.672a2.015,2.015,0,0,0,1.584.854,1.534,1.534,0,0,0,.889-.283,3.67,3.67,0,0,0,1.355-1.295,3.043,3.043,0,0,0,.235-1.666,5.06,5.06,0,0,0-.19-.95c.016-.009.033-.012.049-.022a2.284,2.284,0,0,0,1.06-2.013c-.012-.583.018-1.16-.041-1.743a5.585,5.585,0,0,0-.312-1.319.833.833,0,0,0,.076-.053,1.7,1.7,0,0,0,.354-2.185c-.554-.895-1.078-1.814-1.69-2.673-.636-.877-1.284-1.749-1.949-2.6-.713-.918-1.42-1.837-2.156-2.732-.3-.362-.592-.725-.889-1.087q-.442-.974-.925-1.929l-.084-.167c.848-.821,1.7-1.638,2.537-2.466.253-.254.506-.507.765-.754,1.231-1.125,2.5-2.221,3.828-3.221a14.171,14.171,0,0,1,1.313-.825,1.6,1.6,0,0,0,2.72-.783,2.088,2.088,0,0,0-.3-1.548,2.255,2.255,0,0,0-1.755-1.031,2.545,2.545,0,0,0-1.1.135,1.976,1.976,0,0,0-1.219-.818,5.682,5.682,0,0,0-1.213-.194,3.716,3.716,0,0,0-1.16.176,9.185,9.185,0,0,0-1.978.895c-1.317.808-2.478,1.819-3.719,2.732-.1.068-.2.14-.295.207l-.044.029c-.023.019-.045.036-.068.053l.045-.035c-.112.076-.218.153-.33.235l.23-.159c-.13.089-.253.183-.383.271l.23-.159-1.435,1.032-.346-.627a1.355,1.355,0,0,0,.312-.479,1.45,1.45,0,0,0-.866-1.831,3.649,3.649,0,0,0-.859-.243c-.077-.14-.154-.28-.23-.423.047.088.094.176.141.27a22.559,22.559,0,0,0-1.984-3.385c-.141-.183-.289-.359-.448-.53a1.6,1.6,0,0,0-.359-.954,7.337,7.337,0,0,0-.695-.725,1.585,1.585,0,0,0-1.719-.276,2.368,2.368,0,0,0-1.849.265,2.24,2.24,0,0,0-.889,1.042,2.076,2.076,0,0,0-1,.065A2.235,2.235,0,0,0,166.458,71.779Z"/><path d="M22.433,211.606l.019-.031c.03-.05.057-.1.087-.152C22.5,211.482,22.468,211.547,22.433,211.606Z"/><path d="M314.939,244.535c-.047-1-.088-1.99-.129-2.985-.033-.742-.13-1.484-.2-2.226.035-.7.065-1.407.08-2.113.035-1.366.071-2.732.1-4.1.024-.819.041-1.631.065-2.449.029-1.39-.006-2.8-.083-4.187-.07-1.254-.147-2.514-.312-3.763a22.353,22.353,0,0,0-2.532-7.142c-1.177-2.309-2.52-4.535-3.78-6.8-3.88-6.954-8.167-13.661-12.4-20.4-.724-1.154-1.449-2.315-2.179-3.463-.353-.571-.736-1.13-1.072-1.713-.394-.683-.871-1.337-1.307-2-.718-1.1-1.437-2.209-2.161-3.3a107.02,107.02,0,0,0-6.442-8.88c-.606-.747-1.242-1.465-1.884-2.184a45.02,45.02,0,0,0-5.582-4.994c-.8-.647-1.626-1.271-2.438-1.907-.707-.548-1.4-1.108-2.12-1.643-3.08-2.314-6.136-4.652-9.2-6.978a110.547,110.547,0,0,0-9.4-6.6l.008.007q-3.051-1.845-6.161-3.587c-1.077-.606-2.155-1.195-3.25-1.766-.877-.454-1.781-.849-2.687-1.236-.73-.617-1.485-1.2-2.243-1.784l0,0c-.673-.531-1.387-1.011-2.083-1.509-.654-.471-1.331-.919-2-1.378-.22-.15-.444-.293-.664-.441,1.119-1.731,2.168-3.509,3.119-5.338.972-1.867,1.849-3.787,2.656-5.736a66.2,66.2,0,0,0,4.252-6.866c5.758-10.681,9.415-22.77,9.427-34.959a55.9,55.9,0,0,0-2.927-18.031,71.983,71.983,0,0,0-7.873-16.223,63.723,63.723,0,0,0-11.553-13.39A83.187,83.187,0,0,0,214.7,22.132c-1.431-.766-2.885-1.5-4.346-2.209-.877-.429-1.749-.871-2.644-1.254-.948-.407-1.89-.807-2.838-1.213-2.343-1.007-4.681-2.049-7.042-3.021l.153.071c-.725-.318-1.49-.571-2.238-.848-2.5-.936-5.011-1.861-7.513-2.809-.507-.188-1.025-.353-1.537-.518-1.425-.471-2.845-.948-4.27-1.419-2.785-.925-5.576-1.825-8.408-2.609-1.06-.406-2.132-.789-3.2-1.166-.96-.329-1.92-.682-2.892-.995-1.13-.363-2.26-.772-3.408-1.089a1.141,1.141,0,0,0,.07-1.062,1.194,1.194,0,0,0-1.572-.589A7.911,7.911,0,0,0,162,2.061c-.1.068-.2.138-.294.207l-.943-.263c.094.029.188.053.288.082-.824-.236-1.666-.388-2.5-.565-.671-.147-1.343-.318-2.026-.43-.147-.018-.288-.041-.441-.065.1.012.194.03.294.042-.188-.03-.371-.054-.553-.083.094.018.188.029.288.047q-.663-.1-1.325-.2c.059.006.112.018.171.024-.136-.024-.265-.042-.4-.06-.224-.033-.452-.071-.686-.105h.014c-.3-.041-.594-.089-.9-.136.095.018.2.03.289.047-.13-.016-.256-.037-.385-.059h.014c-.1-.013-.2-.028-.3-.043-.808-.121-1.635-.165-2.447-.234-.73-.058-1.466-.146-2.2-.176h.107c-.525-.006-1.055-.024-1.584-.03h-.095c-.047,0-.094-.006-.141-.006h.071c-.119,0-.237,0-.358-.008l-.319-.009a1.063,1.063,0,0,0,.135.006c-.065,0-.13,0-.194-.006h-.018c-.077,0-.153,0-.23-.006H145.2c-.02,0-.041,0-.065-.006l.012.006c-.141-.006-.289-.006-.43-.011h-.059c-.07,0-.141,0-.212-.006h.065c-.076,0-.159,0-.236-.006h.059c-.082,0-.17,0-.253-.006h-.147c-1.142-.018-2.279.052-3.421.088-.913.024-1.808.088-2.721.165-1.648.136-3.291.259-4.928.506a45.744,45.744,0,0,0-6.4,1.426q-3.021.607-5.977,1.495a73.29,73.29,0,0,0-16.517,7.3q-2.985,1.794-5.818,3.822-1.157.6-2.29,1.26a50.512,50.512,0,0,0-5.647,3.9A61.643,61.643,0,0,0,78.339,32.507q-.8,1.131-1.572,2.291c-.419.459-.837.912-1.261,1.365-.547.6-1.065,1.237-1.59,1.861-.924,1.1-1.837,2.215-2.726,3.345-1.872,2.4-3.645,4.887-5.27,7.461a90.218,90.218,0,0,0-8.061,16.193A58.511,58.511,0,0,0,53.89,82.67a45.627,45.627,0,0,0,2.55,17.572A72.854,72.854,0,0,0,62,112.159c.524,2.368,1.143,4.717,1.849,7.032a87.656,87.656,0,0,0,5.371,13.625,83.532,83.532,0,0,0,4.911,10.293q1.533,2.706,3.281,5.3c-.691.423-1.379.852-2.046,1.314a6.267,6.267,0,0,0-.824.37,25.558,25.558,0,0,0-2.579,1.6c-1.307.907-2.591,1.867-3.828,2.874-1.572,1.284-3.132,2.591-4.7,3.88-1.018.836-2,1.708-2.991,2.567l-2.561,2.226c-.395.342-.807.671-1.178,1.031l.088-.089c-1.077.966-2.131,1.95-3.2,2.921-.942.866-1.914,1.708-2.832,2.6-2.05,1.967-4.111,3.933-6.13,5.93-.318.294-.607.618-.9.93-.66.683-1.325,1.366-1.985,2.049-1.007,1.042-2.025,2.073-3.026,3.121-.306.324-.6.671-.895,1-.648.725-1.3,1.443-1.938,2.167-.624.689-1.236,1.384-1.86,2.073-.271.3-.554.594-.8.907.035-.048.076-.094.112-.142-.966,1.178-1.926,2.367-2.892,3.545-.559.689-1.118,1.372-1.678,2.061-.206.253-.424.5-.612.76q-1.387,1.916-2.762,3.827c-.536.742-1.072,1.478-1.6,2.22-.229.318-.477.624-.671.96l.018-.034c-1.582,2.516-3.152,5.043-4.735,7.559-.17.271-.317.548-.471.831-.394.724-.794,1.454-1.189,2.179-.866,1.595-1.743,3.185-2.609,4.775-.636,1.178-1.183,2.4-1.76,3.61-.5,1.048-1.007,2.1-1.508,3.144-.212.442-.441.883-.63,1.336q-1.165,2.775-2.326,5.547c-.565,1.361-1.089,2.738-1.619,4.117-.306.8-.612,1.6-.924,2.4-.389,1-.784,2-1.143,3.009-.371,1.054-.695,2.12-1,3.185A75.344,75.344,0,0,0,.988,253.52c-.277,2.066-.607,4.133-.778,6.218-.377,4.605-.371,9.409,1.072,13.849a22.243,22.243,0,0,0,2.832,5.824,28.738,28.738,0,0,0,3.292,3.922,34.606,34.606,0,0,0,2.932,2.726,12.564,12.564,0,0,0,2.8,1.749,9.566,9.566,0,0,0,2.886.73c.241.024.477.036.718.036a5.65,5.65,0,0,0,1.042-.1,15.941,15.941,0,0,0,1.555-.364,31.843,31.843,0,0,0,3.15-1.1c1.172-.471,2.332-.965,3.474-1.5.778-.36,1.561-.719,2.314-1.137,1.561-.859,3.139-1.684,4.688-2.567-.053.029-.112.058-.165.088.383-.206.736-.459,1.1-.695.718-.465,1.437-.924,2.155-1.39.506-.329,1.019-.665,1.531-.988.294-.189.565-.413.842-.619,1.207-.889,2.4-1.79,3.6-2.679.247-.177.471-.377.7-.571.6-.5,1.2-1.007,1.807-1.508.542-.459,1.125-.889,1.631-1.39q1.008-.988,2.026-1.978c.412-.406.824-.813,1.243-1.213.164-.159.341-.312.494-.489.518-.583,1.048-1.16,1.572-1.742.66-.731,1.325-1.461,1.979-2.2.43-.483.836-.989,1.248-1.484,1.054-1.268,2.089-2.535,3.107-3.826q-.395,2.431-.79,4.857c-.088.537-.2,1.078-.259,1.62l-.282,2.774q-.106,1.014-.211,2.028c-.181.97-.345,1.942-.513,2.916-.2,1.165-.407,2.331-.56,3.5q-.194,1.52-.389,3.044c-.064.471-.147.948-.188,1.425-.134,1.6-.262,3.207-.4,4.807-.117.957-.232,1.915-.351,2.873-.118.99-.171,2-.259,3q-.248,2.861-.495,5.735c-.064.754-.129,1.5-.147,2.25-.053,1.83-.1,3.656-.153,5.482q-.036,1.281-.065,2.561c-.012.318-.035.636-.029.948.047,1.372.088,2.738.135,4.1.053,1.631.1,3.262.153,4.894.036.994.136,1.989.206,2.983-.027.505-.054,1.005-.059,1.51a15.288,15.288,0,0,0,.082,1.56c.012.083.018.166.029.242a1.728,1.728,0,0,0,.241.689c.292,4.042.6,8.083.991,12.117q.266,2.782.536,5.565c.1,1,.165,2.008.3,3,.218,1.59.436,3.174.648,4.764.129.936.259,1.873.383,2.809.053.365.088.742.153,1.112a92.084,92.084,0,0,0,2.608,11.313,78.934,78.934,0,0,0,4.016,10.41,87.8,87.8,0,0,0,5.5,10.01,52.915,52.915,0,0,0,6.683,8.539,45.434,45.434,0,0,0,8.863,7.012,50.947,50.947,0,0,0,10.039,4.865A26.973,26.973,0,0,0,102.838,408a18.952,18.952,0,0,0,2.008-.106,21.481,21.481,0,0,0,9.621-3.338,26.883,26.883,0,0,0,5.277-4.66,42.1,42.1,0,0,0,5.976-4.9,59.291,59.291,0,0,0,7.554-8.951c.925-1.348,1.761-2.761,2.632-4.145.742-1.171,1.4-2.4,2.1-3.6.677-1.184,1.336-2.379,2-3.575,1.284-2.308,2.562-4.611,3.863-6.9.424-.719.854-1.425,1.283-2.138-.005.012-.017.03-.023.042l.147-.243c-.014.024-.028.048-.041.072a31.892,31.892,0,0,1,1.99-2.874,19.5,19.5,0,0,1,1.413-1.542c.371-.336.754-.648,1.154-.948.3-.195.6-.383.907-.56.348-.171.695-.336,1.054-.488.33-.119.66-.219.99-.307.365-.076.724-.135,1.089-.183.247-.023.483-.029.724-.029.4.024.789.059,1.19.112q.556.107,1.113.248c.553.17,1.095.365,1.631.582a23.949,23.949,0,0,1,2.279,1.178,33.379,33.379,0,0,1,3.138,2.208,42.773,42.773,0,0,1,3.707,3.425c.758.805,1.482,1.639,2.182,2.492.251.431.509.858.749,1.295.482.889.96,1.778,1.442,2.668,2.155,4.274,4.216,8.673,7.214,12.43a33.142,33.142,0,0,0,3.739,4.028,29.542,29.542,0,0,0,4.086,3.161,22.975,22.975,0,0,0,4.97,2.4c.316.1.634.193.952.283a25.565,25.565,0,0,0,4,1.573,26.03,26.03,0,0,0,10.27.736,39.818,39.818,0,0,0,10.764-2.8c6.712-2.786,13-7.066,17.364-12.943a68.359,68.359,0,0,0,8.545-16.264q.927-2.4,1.855-4.8c.141-.365.253-.748.376-1.119q.451-1.351.9-2.7c.365-1.089.754-2.178,1.054-3.292.454-1.689.9-3.379,1.361-5.069.088-.336.152-.672.217-1.007.171-.878.348-1.755.519-2.632.229-1.149.488-2.3.653-3.451.412-2.779.842-5.553,1.178-8.344q1.077-8.884,1.984-17.794c.112-1.113.194-2.226.277-3.345.106-1.354.253-2.721.312-4.081.112-2.774.259-5.547.283-8.32.012-1.566.059-3.139.035-4.7-.023-1.537-.047-3.068-.071-4.605-.014-.9-.041-1.8-.069-2.7.039-.842.084-1.684.106-2.527.035-1.36.106-2.726.106-4.086-.006-1.678-.012-3.351-.012-5.029-.006-1.142-.059-2.285-.1-3.421-.041-1.195-.047-2.4-.147-3.592q-.2-2.57-.418-5.141c-.089-1.036-.243-2.068-.388-3.1,1.072,2.151,2.22,4.263,3.495,6.3a49.618,49.618,0,0,0,4.775,6.5,30.172,30.172,0,0,0,5.736,5.147,21.478,21.478,0,0,0,6.294,2.9,22.415,22.415,0,0,0,11.465,3.144c.589,0,1.172-.023,1.755-.071a24.079,24.079,0,0,0,7.331-1.672,20.657,20.657,0,0,0,6.342-4.175,31.182,31.182,0,0,0,4.8-6.012c.182-.3.355-.6.532-.9a13.994,13.994,0,0,0,2.485-2.191,16.236,16.236,0,0,0,3.2-5.547,41.794,41.794,0,0,0,1.207-4.605c.159-.759.33-1.519.459-2.284.165-.954.336-1.914.5-2.874.147-.866.23-1.749.341-2.62.095-.73.148-1.455.195-2.185.059-.8.118-1.595.118-2.4C314.933,246.213,314.975,245.371,314.939,244.535Zm-12.271,25.738a28.926,28.926,0,0,1-2.9,1.314c.011,0,.017-.006.023-.006-.125.046-.252.084-.378.129a32.314,32.314,0,0,0,3.974-10.12c.312-1.419.6-2.85.819-4.293.176-1.154.376-2.326.471-3.492q.123-1.547.247-3.091c.088-1.084.2-2.167.236-3.251a80.992,80.992,0,0,0-.136-8.273,78.467,78.467,0,0,0-1.737-11.871c-.306-1.325-.606-2.656-.907-3.981-.129-.565-.241-1.13-.4-1.69-.642-2.255-1.272-4.51-1.908-6.766-.141-.483-.312-.959-.477-1.436-.436-1.272-.877-2.55-1.313-3.822-.306-.889-.607-1.772-.913-2.656-.359-1.042-.8-2.067-1.213-3.085-.512-1.266-1.048-2.526-1.613-3.769a93.027,93.027,0,0,0-6.791-12.291l.7.919c.642.842,1.266,1.69,1.914,2.521q1.4,2.022,2.791,4.057c.748,1.083,1.449,2.2,2.155,3.309s1.413,2.2,2.085,3.315c.836,1.4,1.7,2.791,2.508,4.211-.011-.019-.02-.038-.029-.056.041.075.08.154.121.23l.014.025h0a.225.225,0,0,0,.024.036c0,.006.006.018.006.024.1.188.206.377.306.565-.03-.059-.059-.112-.089-.171.04.073.08.147.119.226a.063.063,0,0,0-.013-.02c.071.129.142.259.212.389-.029-.053-.058-.112-.088-.171.359.677.724,1.354,1.089,2.032l-.035-.054c.112.2.218.4.33.607l0-.006c.1.19.206.383.311.577-.029-.053-.059-.112-.088-.171.126.241.252.482.379.718l-.009-.019c.033.064.07.127.107.191l-.006,0,.006.01c.009.014.015.028.023.042l-.006-.013c.023.045.046.087.068.131.4.753.728,1.55,1.086,2.319.448.948.89,1.895,1.337,2.837.354.743.63,1.526.942,2.279.36.872.719,1.75,1.078,2.626.536,1.449,1,2.927,1.537,4.376.076.2.123.424.182.636.153.512.3,1.03.448,1.549.194.694.406,1.389.6,2.09.3,1.39.6,2.773.9,4.163.135.636.188,1.3.288,1.943.042.3.087.594.129.89v.06a104.885,104.885,0,0,1-1.083,12.747,75.821,75.821,0,0,1-1.818,8.834,50.845,50.845,0,0,1-2.11,5.845,52.239,52.239,0,0,1-2.733,5.367Q303.056,270.061,302.668,270.273Zm7.576-49.832c-.023-.071-.053-.141-.076-.218.235.631.459,1.272.63,1.92.061.29.1.578.137.867-.323-.893-.642-1.785-.966-2.676-.229-.654-.523-1.29-.794-1.926-.333-.8-.671-1.612-1.008-2.42l.029.053-.019-.034A39.328,39.328,0,0,1,310.244,220.441Zm-46.407-62.134c3.3,2.425,6.584,4.875,9.781,7.431a47.27,47.27,0,0,1,4.134,3.686c.43.465.883.918,1.284,1.4q.724.875,1.46,1.737c.789.931,1.513,1.926,2.255,2.9.86,1.213,1.72,2.426,2.6,3.638.783,1.09,1.5,2.238,2.249,3.357.91,1.364,1.8,2.741,2.689,4.118-.109-.138-.218-.276-.325-.416-.419-.536-.819-1.1-1.255-1.625-.489-.583-1.007-1.148-1.507-1.725-1.06-1.208-2.079-2.456-3.2-3.61-1.4-1.442-2.8-2.891-4.221-4.316-2.15-2.144-4.358-4.228-6.525-6.354-2.626-2.579-5.223-5.181-7.826-7.784-.954-.954-1.913-1.9-2.879-2.838-.778-.762-1.55-1.531-2.329-2.289C261.426,156.514,262.629,157.416,263.837,158.307ZM238.486,67.025a83.359,83.359,0,0,0-8.438-15.757c-1.472-2.144-3.026-4.228-4.675-6.23,1.125,1.036,2.208,2.107,3.262,3.215A70.661,70.661,0,0,1,234,54.635l-.038-.047a50.5,50.5,0,0,1,3.415,5.341,45.882,45.882,0,0,1,2.262,4.952,50.365,50.365,0,0,1,1.666,5.5,57.65,57.65,0,0,1,1.1,6.526l0-.007c.006.029.006.053.012.076,0,.044.007.085.011.126l-.005-.031c.153,1.554.235,3.109.265,4.669A70.6,70.6,0,0,0,238.486,67.025ZM195.124,17.22c.493.188,1,.353,1.49.558,1.6.7,3.209,1.362,4.811,2.045,1.654.707,3.3,1.431,4.958,2.114,1.825.807,3.621,1.714,5.382,2.626,1.974,1.022,3.907,2.114,5.817,3.252l-.011-.007.016.01,0,0h0a79.465,79.465,0,0,1,8.226,5.706,64.018,64.018,0,0,1,5.966,5.465c-.053-.059-.106-.118-.16-.176a64.418,64.418,0,0,1,5.229,6.33,72.152,72.152,0,0,1,4.693,7.5,76.322,76.322,0,0,1,3.879,8.5,54.063,54.063,0,0,1,3.232,13.539l0-.007,0,.011,0,.024v.006a.261.261,0,0,1,.006.065.1.1,0,0,0-.006-.041,56.1,56.1,0,0,1,.265,6.595,68.992,68.992,0,0,1-.678,7.86v-.046a74.55,74.55,0,0,1-1.989,9.037q-.862,2.951-1.962,5.825c.124-.524.248-1.042.371-1.567.348-1.436.642-2.879.9-4.339a82.648,82.648,0,0,0,1.378-18.425,53.023,53.023,0,0,0-3.81-17.83,45.575,45.575,0,0,0-4.21-7.861,66.751,66.751,0,0,0-5.517-7.1c-1.025-1.16-2.091-2.291-3.186-3.392-.636-.641-1.272-1.3-1.949-1.907-1.019-.907-2.037-1.826-3.062-2.733-.63-.559-1.242-1.13-1.908-1.654q-1.7-1.317-3.38-2.638c-1.613-1.261-3.321-2.391-5-3.563-1.578-1.1-3.2-2.137-4.793-3.221-1.914-1.3-3.822-2.6-5.712-3.933q-2.73-1.935-5.453-3.881-2.049-1.483-4.181-2.873Zm-23.619-4.7c1.532.678,3.057,1.384,4.6,2.032q2.668,1.324,5.341,2.638c1.5.748,3.039,1.449,4.517,2.244,2.113,1.13,4.222,2.284,6.33,3.426q1.527.822,3.05,1.65c1.221.664,2.409,1.385,3.6,2.1l-.027-.019a115.737,115.737,0,0,1,12.405,8.594l-.021-.02a85.239,85.239,0,0,1,8.09,7.454,86.254,86.254,0,0,1,7.007,8.439,83.993,83.993,0,0,1,5.824,9.25,86.156,86.156,0,0,1,4.363,9.522,72.943,72.943,0,0,1,2.627,8.6,68.84,68.84,0,0,1,1.4,8.121,57.17,57.17,0,0,1-.353,13.867v-.03a52.673,52.673,0,0,1-1.349,6.336,67.126,67.126,0,0,1-2.891,7.985c.006-.017.012-.035.018-.058a77.282,77.282,0,0,1-4.458,8.673c.024-.047.053-.094.083-.147-1.514,2.514-3.163,4.946-4.911,7.3a111.394,111.394,0,0,1-10.788,8.821,88.747,88.747,0,0,1-9.36,5.9l0,0c-.041.023-.088.047-.135.076-.018.006-.035.018-.053.024a.275.275,0,0,0,.041-.018,66.947,66.947,0,0,1-7.172,3.233c.047-.023.094-.041.136-.059a59.993,59.993,0,0,1-6.92,2.138h0l-.021,0h0c-.036.011-.075.02-.109.03a.263.263,0,0,0-.048.006h0a94,94,0,0,1-11.306,1.879l.2-.018c-2.014.212-4.045.425-6.065.531-2.4.129-4.793.217-7.189.323l-4.052.177c-.424.017-.842.047-1.26.047-4.569-.03-9.139-.1-13.714-.1-3.945-.153-7.9-.347-11.836-.707-3.845-.341-7.684-.806-11.512-1.366h.012a.072.072,0,0,1-.035-.006,1.319,1.319,0,0,1-.133-.018h0l-.02,0-.015,0h0c-1.157-.177-2.309-.376-3.459-.585-.054-.728-.116-1.456-.164-2.185-.218-3.445-.265-6.907-.265-10.352.041-1.554.094-3.109.171-4.658.043-.844.094-1.688.143-2.532,1.877.216,3.756.4,5.637.544a.711.711,0,0,0,.1,0,1.324,1.324,0,0,0,.13-2.643c-1.913-.143-3.819-.341-5.72-.566.137-2.61.258-5.224.4-7.833.194-3.48.406-6.954.8-10.417.394-3.568.8-7.125,1.272-10.682,0-.046.011-.088.017-.135s.018-.123.03-.183l0,0,.015-.1c.015-.108.031-.214.046-.319.029-.171.052-.342.082-.519-.006.059-.018.112-.024.171.02-.134.04-.272.06-.408.008-.062.018-.121.027-.183.817-.13,1.635-.258,2.452-.393,3.056-.512,6.13-.948,9.2-1.331a1.389,1.389,0,1,0-.471-2.738c-1.625.194-3.251.424-4.87.659-1.177.165-2.349.383-3.527.536-.648.088-1.289.218-1.931.33l-.373.063c.057-.315.107-.631.165-.945.7-3.7,1.49-7.39,2.326-11.07.772-3.392,1.673-6.754,2.615-10.1.561-1.966,1.137-3.922,1.7-5.881.112-.323.217-.648.332-.971.36-1.016.712-2.036,1.071-3.054.438-.017.875-.038,1.313-.049,3.3-.076,6.6-.136,9.893-.071h-.053c.059,0,.112.006.165.006h.006c.07,0,.141.006.211.006-.023,0-.053-.006-.082-.006.194.006.389.012.583.012h-.171l.757.017-.044-.005,1.036.035a1.339,1.339,0,0,0,.23-2.668c-.454-.017-.9-.034-1.349-.046h.041c-.253,0-.5-.006-.753-.012h.171c-.224-.006-.442-.006-.666-.012h.177c-.807-.018-1.608-.024-2.414-.024q-4.031-.014-8.057.137,1.022-2.642,2.051-5.277c1.189-3.067,2.508-6.082,3.792-9.109-.018.053-.041.1-.065.153.76-1.684,1.531-3.368,2.3-5.046.547-1.2,1.091-2.389,1.658-3.574q3.068.293,6.124.676a1.307,1.307,0,0,0,.23-2.6c-1.706-.226-3.417-.435-5.131-.611l.237-.49c1.254.09,2.507.156,3.767.186a.191.191,0,0,0,.053,0,1.316,1.316,0,0,0,.176-2.626c-.92-.036-1.841-.073-2.761-.121.107-.223.216-.446.323-.669.7-1.449,1.478-2.862,2.22-4.293,1.255-2.417,2.523-4.816,3.924-7.162a52.187,52.187,0,0,1,3.595-5.241,23.829,23.829,0,0,1,1.99-2.186c.364-.333.736-.654,1.125-.945.142-.1.289-.188.436-.277.077-.034.153-.07.23-.105.006,0,.017-.006.023-.006h.006a1.2,1.2,0,0,0,.728-2.251c.316.035.632.069.948.1,1.5.544,2.988,1.118,4.47,1.71.053.023.1.047.147.064l0,0Q169.236,11.507,171.505,12.515Zm53.944,123.663a63.547,63.547,0,0,1-4.316,4.77C222.623,139.411,224.066,137.815,225.449,136.178Zm-147.731,61.4c.724-1.637,1.413-3.3,2.114-4.94.745-1.742,1.5-3.478,2.234-5.22.135-.284.278-.558.422-.845l1.218-2.491c.766-1.549,1.525-3.1,2.291-4.658.477-.971,1.042-1.908,1.566-2.85q1.033-1.845,2.073-3.7c.595-.924,1.184-1.855,1.778-2.785.813-1.266,1.649-2.5,2.579-3.692.319-.388.651-.765.992-1.134.55.33,1.109.647,1.671.958q-.585,1-1.174,2l.089-.141c-2.8,4.546-5.765,9-8.4,13.655-.783,1.389-1.566,2.773-2.35,4.163-.247.43-.459.877-.683,1.319-.441.86-.889,1.714-1.33,2.573-.483.942-.972,1.879-1.414,2.838q-1.183,2.526-2.355,5.065c-.436.936-.818,1.9-1.207,2.855q-1,2.4-1.985,4.811c-.429,1.036-.8,2.1-1.2,3.145q-.892,2.358-1.784,4.722c-.721,1.91-1.4,3.841-2.072,5.772-.512,1.154-1,2.312-1.485,3.487-.058.144-.118.289-.177.433q.436-1.515.873-3.03c.177-.613.371-1.219.571-1.826.577-1.766,1.16-3.533,1.737-5.3.489-1.5.972-2.991,1.461-4.48.235-.719.518-1.425.777-2.138,1.083-2.9,2.137-5.824,3.239-8.721C77.765,197.474,77.741,197.521,77.718,197.574ZM110.342,165.3c2.95.712,5.936,1.342,8.939,1.819l.2.03c.034.176.066.352.1.528a55.961,55.961,0,0,1-5.65-.47,40.283,40.283,0,0,1-4.487-.954c-1.178-.342-2.338-.742-3.488-1.171.114-.155.218-.313.334-.468.09-.109.182-.214.272-.322C107.816,164.659,109.075,165,110.342,165.3Zm33.64-134.615c.894-2,1.811-3.983,2.769-5.951s1.967-3.892,3.05-5.794c.613-1,1.225-1.984,1.879-2.956s1.354-1.931,2.066-2.879c.689-.825,1.378-1.649,2.1-2.444.26-.285.527-.56.792-.838.375.052.749.109,1.124.157a17.96,17.96,0,0,0-2.027,1.979,46.788,46.788,0,0,0-4.793,6.8c-1.59,2.673-3.015,5.423-4.458,8.179-.647,1.254-1.307,2.5-1.925,3.762l-.422.869c-.173-.017-.347-.033-.519-.051.122-.282.246-.564.368-.844ZM159.88,8.6a1.157,1.157,0,0,0-.063-.164l.172.027c.1.016.2.025.307.039A2.825,2.825,0,0,0,159.88,8.6ZM143.553,6.285h.015l0,0Zm-.63,27.789c-.081.168-.163.335-.244.5l-.348-.024c.072-.176.142-.351.215-.526C142.671,34.044,142.8,34.059,142.923,34.074Zm-1.481,3.061c-.214.447-.423.9-.63,1.349.165-.455.339-.906.509-1.359ZM207.431,149.58c.041-.035.088-.064.129-.1a76.3,76.3,0,0,1-8.408,5.294.076.076,0,0,0,.023-.018,86.891,86.891,0,0,1-9.891,4.51,87.981,87.981,0,0,1-10.459,3.146,135.461,135.461,0,0,1-16.942,2.871,181.482,181.482,0,0,1-22.8,1.027h.147c-5.312-.12-10.638-.4-15.923-1.041-.149-1.009-.3-2.019-.417-3.031s-.194-2.055-.277-3.091c-.137-1.712-.283-3.423-.423-5.135.293.05.583.114.876.161a187.755,187.755,0,0,0,18.79,2.091c1.673.1,3.351.182,5.023.259.754.029,1.508.083,2.261.083.889,0,1.779.011,2.668.017,3,.012,6.006.042,9.009.065.724.006,1.449.012,2.167.012.612,0,1.225-.053,1.831-.077l8.827-.388a111.343,111.343,0,0,0,12.036-1.143,85.465,85.465,0,0,0,9.009-1.79,61.2,61.2,0,0,0,8.627-2.991,71.482,71.482,0,0,0,9.722-5.153C211.229,146.7,209.362,148.185,207.431,149.58Zm-60.1,205.429a20.854,20.854,0,0,1,1.89-1.191c.471-.236.948-.448,1.443-.642.359-.124.718-.23,1.083-.336.389-.082.772-.147,1.166-.2q.574-.034,1.148-.035c.412.018.813.052,1.219.1a10.978,10.978,0,0,1,1.125.235c.341.112.683.23,1.019.366q.627.291,1.236.636a18.25,18.25,0,0,1,1.584,1.124c.074.063.138.134.212.2a15.61,15.61,0,0,0-2.867-.73,16.831,16.831,0,0,0-9.657,1.7,24.355,24.355,0,0,0-6.555,4.657c1.128-1.29,2.242-2.579,3.469-3.777-.012.012-.029.024-.041.036a.43.43,0,0,1,.058-.053c.03-.029.06-.065.095-.095l-.077.077A30.016,30.016,0,0,1,147.331,355.009Zm95.286-57.125c-.011-2.968-.041-5.93-.07-8.9-.03-2.638-.148-5.282-.254-7.92-.111-2.614-.247-5.229-.323-7.843q-.124-4.046-.106-8.085c.035-5.535.07-11.064.029-16.6-.018-2.732-.112-5.465-.218-8.2-.047-1.237-.106-2.479-.2-3.71-.1-1.254-.159-2.508-.294-3.756-.283-2.733-.566-5.453-1.013-8.162-.439-2.632-.941-5.25-1.462-7.866.085.27.168.541.254.81.812,2.544,1.625,5.082,2.361,7.643.347,1.2.713,2.4,1.007,3.61.359,1.449.707,2.891,1.054,4.34.336,1.625.666,3.262.989,4.887.471,2.338.866,4.693,1.3,7.042q.777,4.293,1.584,8.592.838,4.486,1.654,8.986c.471,2.608.86,5.234,1.249,7.855,0-.026,0-.055,0-.085V270.5c0,.017,0,.036,0,.055l.013.1c0,.024.006.053.006.076v-.017q.237,2.287.476,4.581c.112,1.06.183,2.114.248,3.174.088,1.343.206,2.691.253,4.033l0,.057c-.01.449-.019.9-.03,1.349-.024.919-.012,1.838-.065,2.756-.106,1.772-.165,3.557-.312,5.329q-.433,5.415-.936,10.823c-.524,5.759-1,11.512-1.39,17.277-.194,2.868-.424,5.729-.654,8.591-.082,1.024-.206,2.032-.341,3.045-.195,1.442-.377,2.885-.577,4.321-.23,1.207-.471,2.409-.707,3.61-.153.76-.3,1.519-.447,2.279-.048.235-.083.471-.142.695-.606,2.349-1.224,4.7-1.825,7.054q-.847,2.578-1.7,5.153c-.23.712-.465,1.419-.7,2.131-.341,1.048-.765,2.079-1.171,3.1q-.573,1.443-1.184,2.865A72.4,72.4,0,0,1,234.8,371.1c-.88,1.438-1.827,2.827-2.809,4.192.381-.8.756-1.613,1.095-2.44s.665-1.625,1-2.444c.436-1.065.866-2.119,1.242-3.2.336-.96.672-1.914,1-2.873.153-.436.329-.872.459-1.313.147-.519.3-1.037.447-1.555a.44.44,0,0,0,.024-.1q.425-1.447.842-2.914c.33-1.143.571-2.3.824-3.462.259-1.207.566-2.409.742-3.634.248-1.713.5-3.421.742-5.134.165-1.148.236-2.309.336-3.468.112-1.19.235-2.385.318-3.581q.3-4.309.589-8.626c.359-5.471.7-10.947.842-16.435C242.641,308.7,242.641,303.3,242.617,297.884ZM147.709,170.077q-4.782.478-9.6.637a1.743,1.743,0,0,0,.212-.906,1.7,1.7,0,0,0-.5-1.155c3.126.083,6.259.089,9.386,0q8.011-.211,15.993-1.107A140.213,140.213,0,0,1,147.709,170.077Zm-24.624-2.289h-.035c-.039,0-.075,0-.112,0l-.029-.157c.547.067,1.094.137,1.642.2-.182-.006-.359-.006-.542-.012h-.141a.239.239,0,0,0-.065-.006h.018ZM99.81,169.352c-.029.041-.053.088-.082.129l.158-.282c.017-.021.034-.04.051-.06l-.13.216ZM58.315,287.22c-.112.624-.218,1.249-.324,1.867.029-.477.053-.954.082-1.431.212-3.869.436-7.738.7-11.606.092-1.424.2-2.832.338-4.25.162-.926.327-1.851.508-2.775q-.151,2.157-.3,4.313c-.071,1-.082,2-.118,3q-.12,3.453-.193,6.9Q58.658,285.226,58.315,287.22Zm5.283-29c.247-1.26.489-2.508.73-3.763.171-.883.347-1.766.518-2.65.077-.4.13-.812.23-1.206.234-.889.471-1.781.706-2.67.328-.5.659-1.007.985-1.515.273-.417.543-.835.814-1.253l-.016.059c-.406,1.5-.836,3-1.213,4.517-.5,2.037-1.007,4.068-1.513,6.106-.342,1.378-.707,2.744-1.019,4.128q-.472,2.1-.938,4.2Q63.235,261.2,63.6,258.222ZM69.2,239.157a1.492,1.492,0,0,0-.987-.005c.451-1.539.906-3.077,1.382-4.608.513-1.648,1.025-3.3,1.537-4.951.359-1.155.695-2.326,1.083-3.474q1.36-4.073,2.739-8.15c.135-.4.3-.789.453-1.189.33-.855.654-1.714.984-2.568.341-.889.677-1.784,1.018-2.673.112-.295.218-.595.342-.878-.024.047-.047.1-.071.153q1.209-2.766,2.4-5.536c1.541-3,3.043-6.013,4.661-8.969,1.019-1.861,2.031-3.728,3.056-5.588.913-1.672,1.867-3.327,2.809-4.988q2.2-3.9,4.416-7.8c-2.073,3.975-4.016,8.02-5.9,12.089-1.5,3.233-2.956,6.477-4.428,9.716-1.4,3.085-2.827,6.165-4.246,9.245-.842,1.831-1.649,3.68-2.52,5.5-.312.647-.559,1.336-.842,2q-.743,1.776-1.478,3.539c-.241.571-.512,1.136-.725,1.719-.241.689-.488,1.378-.735,2.067q-1.1,3.074-2.2,6.153c-.141.383-.241.777-.359,1.166q-.5,1.7-1.007,3.386C70.125,236.06,69.639,237.6,69.2,239.157Zm34.478-75.664a1.994,1.994,0,0,0-.3-.021,2.647,2.647,0,0,0-.848.2,59.962,59.962,0,0,1-5.827-3c-.312-.194-.618-.388-.931-.588a59.036,59.036,0,0,0,6.112,2.679c.616.226,1.236.44,1.858.649C103.723,163.44,103.7,163.466,103.681,163.493ZM58.056,308.848c.159-1.271.312-2.543.471-3.815.07-.589.129-1.184.217-1.767.079-.534.149-1.07.227-1.605,0,.2.007.393.01.589.047,2.779.189,5.559.3,8.332.106,2.75.3,5.494.459,8.238.043.755.1,1.509.151,2.263-.454-2.836-.957-5.655-1.5-8.474-.17-.9-.317-1.8-.469-2.7C57.973,309.554,58.011,309.2,58.056,308.848Zm23.39,78.773a54.382,54.382,0,0,1-2.9-4.617c-.548-.966-1.1-1.926-1.632-2.9-.441-.866-.871-1.737-1.3-2.615-.353-.712-.748-1.413-1.066-2.143q-1.157-2.667-2.332-5.335c.024.065.048.129.071.195-.618-1.667-1.236-3.327-1.855-4.994-.483-1.3-.847-2.644-1.26-3.975-.383-1.266-.771-2.514-1.083-3.792q-.61-2.481-1.225-4.97c-.347-1.761-.689-3.515-1.03-5.282-.265-1.336-.454-2.685-.654-4.033-.218-1.437-.448-2.868-.612-4.311-.195-1.719-.389-3.444-.589-5.164,0,.006.006.018.006.024-.271-2.991-.56-5.983-.784-8.98q-.4-5.229-.706-10.452c-.171-2.785-.289-5.571-.406-8.356s-.171-5.576-.23-8.361c-.1-4.873-.041-9.746.025-14.62q.1-.593.2-1.187c.253-1.513.589-3.02.889-4.528.407-2.067.807-4.134,1.213-6.206.283-1.42.625-2.833.943-4.252q.689-3.126,1.389-6.254c.312-1.419.689-2.82,1.037-4.233q.741-3,1.477-5.989c.383-1.555.825-3.091,1.237-4.64q.7-2.6,1.384-5.2a.26.26,0,0,1-.006.03.169.169,0,0,0,.012-.053c.011-.041.023-.077.035-.118-.006.024-.012.041-.018.065q.716-2.394,1.426-4.787c.341-1.142.683-2.291,1.024-3.433.118-.412.224-.837.371-1.237q1.077-3.029,2.167-6.059c.259-.724.518-1.455.777-2.178.2-.548.454-1.078.677-1.608.742-1.79,1.5-3.574,2.244-5.353,1.183-2.467,2.285-4.976,3.445-7.454,1.507-3.251,3.02-6.5,4.5-9.77s2.95-6.518,4.493-9.745c.8-1.66,1.59-3.321,2.414-4.969.878-1.756,1.773-3.5,2.674-5.241,1.543-2.98,3.233-5.877,4.946-8.763-.035.054-.065.106-.1.16.129-.209.258-.42.386-.63A64.866,64.866,0,0,0,116,173.146a90.718,90.718,0,0,0,9.169,1.231c2.991.247,6,.33,9,.33h.306q4.918-.015,9.831-.371c-.33.731-.652,1.465-.941,2.213-.695,1.785-1.366,3.581-1.961,5.4q-.8,2.431-1.57,4.877c-.095.215-.189.431-.284.646-.371.84-.692,1.709-1.032,2.567-.989-.152-1.978-.309-2.971-.441-1.177-.159-2.367-.294-3.551-.394-.718-.059-1.436-.136-2.161-.183a16.994,16.994,0,0,0-2.573-.053,2.866,2.866,0,0,0-1.66.471,1.256,1.256,0,0,0,.223,2.061c.053.023.106.047.165.071a1.277,1.277,0,0,0,.978-.071c.065-.012.123-.018.182-.029.3-.024.589-.036.883-.036,1.573.036,3.151.212,4.7.394.678.077,1.355.148,2.026.242.724.106,1.449.218,2.167.318.213.038.427.072.64.109-.344.932-.709,1.861-1.03,2.805-.359,1.055-.724,2.1-1.089,3.157-1.243,3.58-2.344,7.207-3.357,10.858-1.036,3.739-1.878,7.525-2.7,11.317l-.018.083q-1.581-.153-3.162-.3c-.536-.047-1.078-.082-1.614-.111-.63-.042-1.254-.095-1.878-.106h.159c-.813-.024-1.631-.048-2.444-.065.012,0,.029.006.041.006-.583-.012-1.16.029-1.743.07a1.752,1.752,0,0,0-1.254.524,1.249,1.249,0,0,0,.342,1.932c.053.023.105.047.164.07a1.072,1.072,0,0,0,1.007-.082c.513-.036,1.019-.053,1.537-.053-.053,0-.106-.006-.159-.006.065,0,.13.006.189.006q1.086.043,2.172.071a.055.055,0,0,0-.022-.006c.036,0,.068.006.1.006h.03c.653.029,1.307.1,1.954.141.489.03.972.07,1.455.118.868.081,1.735.178,2.6.269-.6,2.831-1.181,5.665-1.7,8.513-.689,3.762-1.272,7.548-1.631,11.358-.088.93-.194,1.867-.259,2.8q-.123,1.829-.253,3.657c-.053.807-.083,1.613-.118,2.414-.041.883-.1,1.767-.124,2.65q-.021.9-.045,1.792h0c-1.024.085-2.048.155-3.079.218-.494.03-.989.065-1.483.1a5.165,5.165,0,0,0-2.338.447,1.278,1.278,0,0,0-.595,1.137,1.3,1.3,0,0,0,.7,1.107,1.172,1.172,0,0,0,.571.141,1.293,1.293,0,0,0,.671-.188c.055-.009.109-.012.163-.018,1.774-.169,3.562-.173,5.342-.33-.007.49-.02.979-.02,1.469,0,1.155-.005,2.315-.005,3.469,0,.954.047,1.908.064,2.856.048,2.026.159,4.039.265,6.065.042.789.118,1.578.177,2.367.071.913.13,1.831.218,2.744l.018.141a1.007,1.007,0,0,0,.017.189v.012a1.77,1.77,0,0,0,.024.176c.006.071.017.148.023.218-.006-.024-.006-.047-.012-.07.024.211.048.423.071.63-.006-.059-.017-.118-.023-.171.047.418.094.848.141,1.266-.006-.029-.012-.065-.018-.1.047.419.089.837.136,1.249a.373.373,0,0,0,.006.082v.042c.011.111.023.223.035.341.012.2.047.407.071.607.106.965.247,1.931.377,2.9.1.771.2,1.537.317,2.3.143.964.295,1.924.442,2.887-.819.141-1.642.275-2.461.407s-1.643.359-2.455.536c-.848.183-1.673.447-2.5.689a16.149,16.149,0,0,0-1.719.594c-.613.248-1.272.5-1.525,1.167a1.32,1.32,0,0,0,.954,1.725,1.4,1.4,0,0,0,.265.029,1.378,1.378,0,0,0,.871-.318c.248-.111.495-.212.748-.312.972-.353,1.978-.624,2.974-.912.8-.148,1.578-.348,2.367-.519.583-.129,1.183-.206,1.772-.306.361-.056.721-.1,1.081-.153.292,3.462.625,6.919,1.12,10.362.583,4.068,1.242,8.12,2.072,12.147.345,1.665.7,3.329,1.1,4.981-.79.321-1.578.645-2.369.962-.884.347-1.767.7-2.638,1.066-.507.212-1.013.412-1.5.648-.712.353-1.554.748-1.813,1.56a1.344,1.344,0,0,0,.488,1.525,1.4,1.4,0,0,0,.489.218,1.192,1.192,0,0,0,.283.035,1.337,1.337,0,0,0,1.124-.641c.065-.036.136-.077.2-.118.712-.359,1.466-.642,2.208-.949.512-.211,1.036-.4,1.554-.606.879-.344,1.76-.68,2.637-1.026.088.352.171.705.265,1.055.283,1.03.565,2.054.842,3.085.259.966.559,1.932.836,2.9.265.919.548,1.849.854,2.762.636,1.866,1.243,3.745,1.943,5.588-.017-.059-.041-.112-.059-.165.036.089.065.177.1.271l.024.059c-.006-.012-.006-.024-.012-.036.018.042.029.083.047.124s.042.112.059.165c.1.253.194.512.295.765-.024-.052-.042-.106-.065-.164.082.224.165.441.253.659-.024-.053-.041-.106-.065-.159l.23.6-.006-.006c.018.035.029.065.041.094.036.094.065.194.106.288-.017-.052-.041-.106-.059-.164.554,1.472,1.172,2.909,1.79,4.352.289.671.595,1.336.925,1.984s.63,1.289.977,1.914c-.029-.047-.059-.1-.088-.154.067.123.129.242.194.36.153.282.305.57.458.852l0,0c.088.16.176.325.265.483.49.912,1.014,1.8,1.545,2.69-.18.155-.364.3-.539.464a33.318,33.318,0,0,0-2.7,2.7l-1.731,1.961c-.371.424-.7.9-1.042,1.348-.366.489-.766.96-1.1,1.467-.459.694-.912,1.389-1.372,2.09-.765,1.16-1.431,2.384-2.137,3.58-.277.483-.524.977-.783,1.472-.371.7-.748,1.4-1.113,2.1-.642,1.219-1.231,2.473-1.843,3.71-1.225,2.467-2.344,4.993-3.486,7.5a117.355,117.355,0,0,1-5.665,11.317.835.835,0,0,0,.053-.082l-.106.177q-.535.861-1.114,1.69c-.238.239-.466.487-.711.721a.37.37,0,0,1,.029-.024c-.036.032-.069.063-.1.094a.431.431,0,0,1-.047.048l.023-.024a37.055,37.055,0,0,1-3.127,2.556l.01-.014c-.318.224-.643.435-.969.647-.564.271-1.133.53-1.716.766l.007,0-.031.012-.028.012.01-.006a.267.267,0,0,0-.034.011c-.035.018-.077.029-.118.047l.083-.035c-.636.23-1.278.43-1.932.595-.63.135-1.266.247-1.907.33-.43.035-.866.058-1.308.064a21.207,21.207,0,0,1-2.119-.2,26.34,26.34,0,0,1-3.1-.677,42.05,42.05,0,0,1-4.045-1.454l.194.088c-.918-.418-1.837-.824-2.755-1.237-.636-.289-1.249-.618-1.867-.936-.7-.359-1.4-.7-2.067-1.1q-1.14-.672-2.273-1.337c-.518-.341-1.025-.695-1.543-1.042-.394-.271-.812-.519-1.195-.812-.936-.725-1.878-1.443-2.821-2.167-.571-.475-1.122-.972-1.671-1.47C81.953,388.274,81.69,387.955,81.446,387.621ZM215.212,151.56c.165.248.318.5.465.76.043.085.076.177.117.264a1.89,1.89,0,0,0-.964,2.243c.09.246.176.492.263.739a1.5,1.5,0,0,0-.033,1.655c.27.4.524.806.771,1.225-.03-.059-.065-.118-.094-.183.135.259.276.518.412.772,1.337,2.7,2.426,5.5,3.521,8.3s2.255,5.582,3.333,8.391c-.024-.071-.053-.141-.077-.212.46,1.243.931,2.479,1.39,3.727q1.4,3.816,2.656,7.673c.836,2.579,1.637,5.164,2.426,7.755,1.548,5.064,2.832,10.193,4.086,15.34.725,3.15,1.42,6.312,2.026,9.492.336,1.784.671,3.574.972,5.37.27,1.619.488,3.238.706,4.864-.006-.077-.017-.153-.023-.236.276,2.644.553,5.276.7,7.926.165,2.88.3,5.759.365,8.645.13,5.476.1,10.952.089,16.434-.006,2.7.012,5.4.047,8.1.035,2.768.206,5.536.341,8.291.254,5.135.425,10.269.46,15.4.017,2.938.041,5.876.053,8.814.011,2.673-.018,5.338-.035,8.009a.7.7,0,0,1,0-.089c-.064,2.574-.123,5.147-.235,7.72-.242,5.388-.583,10.77-.942,16.152-.095,1.425-.159,2.856-.289,4.281-.135,1.56-.277,3.121-.412,4.681-.047.548-.071,1.1-.147,1.643l-.212,1.478c-.212,1.5-.424,3-.636,4.5.006-.071.017-.142.029-.212-.218,1-.43,2-.648,3-.135.642-.276,1.278-.412,1.914-.041.206-.076.418-.135.618v-.006a.673.673,0,0,1-.021.083l0-.006c-.017.059-.035.117-.053.177l.006-.015-.012.049,0,.007c-.058.2-.122.414-.18.618.006-.023.017-.047.023-.071-.029.112-.064.218-.094.33l.018-.071-.036.124c0,.023-.017.053-.023.082.006-.011.006-.017.012-.029-.03.094-.059.194-.089.289l0,.017,0-.006,0,.009,0,.012,0,0c-.011.033-.02.066-.031.1v0l-.007.026,0,.015v0l-.007.026c-.017.064-.035.135-.053.206-.076.253-.153.512-.229.777-.1.342-.23.689-.295,1.036-.035.112-.064.225-.094.336a.417.417,0,0,0-.023.089.019.019,0,0,0-.006.012c-.03.106-.059.211-.089.323v.006c-.02.057-.036.112-.052.169l0-.01c-.039.136-.079.271-.118.4v0l0,.013v.007c-.307.878-.607,1.749-.913,2.626-.218.636-.436,1.266-.66,1.9-.082.241-.153.5-.253.736-.7,1.684-1.366,3.374-2.061,5.07a62.635,62.635,0,0,1-3.268,6.354,51.483,51.483,0,0,1-3.554,5.114,39.792,39.792,0,0,1-3.1,3.4h0c-.526.491-1.07.959-1.624,1.413-.3.178-.6.363-.905.531-.853.443-1.716.851-2.609,1.21a37.024,37.024,0,0,1-3.723,1.152,46.312,46.312,0,0,1-5.053.831,52.248,52.248,0,0,1-5.276.232c-.444-.1-.885-.21-1.327-.333a33.976,33.976,0,0,1-3.7-1.339,44.668,44.668,0,0,1-4.546-2.355c.031.018.059.039.085.056-.042-.025-.082-.05-.126-.079-.012-.006-.018-.012-.03-.018l0,0a39.785,39.785,0,0,1-3.768-2.637,40.679,40.679,0,0,1-3.477-3.2h.006a.006.006,0,0,1-.006-.006c-.047-.048-.095-.094-.142-.148l.059.059c-.637-.691-1.24-1.406-1.833-2.13-1.293-1.919-2.515-3.886-3.8-5.809-.818-1.225-1.6-2.479-2.473-3.656-.591-.8-1.171-1.607-1.765-2.4-.916-1.452-1.83-2.906-2.756-4.351-.713-1.113-1.426-2.22-2.161-3.321a48.266,48.266,0,0,0-3.952-5.435c-2.131-2.373-4.722-4.67-7.89-5.482a12.542,12.542,0,0,0-5.1-.3,14.166,14.166,0,0,0-4.31,1.484c-.508.275-1,.58-1.48.9-.278-.469-.55-.943-.82-1.418a1.4,1.4,0,0,0,.353-1.59c-.889-2.079-1.761-4.169-2.632-6.248-.677-1.614-1.307-3.239-1.932-4.864h0c-1.217-3.456-2.287-6.961-3.339-10.47-.507-1.691-1.013-3.386-1.461-5.1-.032-.121-.06-.243-.092-.365.771-.286,1.542-.566,2.319-.847a1.419,1.419,0,0,0,.924-1.743,1.4,1.4,0,0,0-1.743-.924c-.624.23-1.242.459-1.867.695.059-.024.112-.041.171-.065-.1.034-.193.073-.289.108a.113.113,0,0,0,.024-.008l-.088.036a.739.739,0,0,0-.077.029l.036-.018-.091.035c-.2-.8-.408-1.6-.6-2.4v.007l-.006-.02c-.9-3.933-1.838-7.866-2.674-11.818-.194-.924-.406-1.843-.583-2.767-.212-1.178-.43-2.349-.647-3.521-.307-1.655-.566-3.321-.831-4.988-.042-.266-.081-.534-.123-.8l.33-.04q3.71-.344,7.425-.518a1.356,1.356,0,0,0-.112-2.709c-1.843.089-3.686.2-5.523.389-.82.082-1.639.141-2.459.246-.142-1.9-.256-3.808-.363-5.712-.212-3.886-.371-7.779-.43-11.677-.035-2.22-.047-4.445-.053-6.672,0-1.86.041-3.715.071-5.576v.024c.018-.7.032-1.405.049-2.108l2.31-.233a1.37,1.37,0,0,0,1.284-1.4,1.345,1.345,0,0,0-1.4-1.277l-1.16.123.171-.017c-.373.038-.743.083-1.115.122.039-.859.083-1.722.128-2.581.035-.7.047-1.4.105-2.1.071-.96.148-1.92.224-2.874.053-.682.083-1.371.159-2.049.189-1.648.377-3.3.565-4.952.265-1.743.513-3.486.772-5.235-.012.053-.018.112-.03.165.254-1.654.566-3.3.842-4.946.242-1.425.519-2.844.784-4.263.2-1.117.428-2.23.639-3.345,1.724.213,3.449.419,5.167.651a1.245,1.245,0,0,0,1.419-1.195,1.322,1.322,0,0,0-1.189-1.414c-1.636-.213-3.273-.407-4.909-.593.129-.662.248-1.328.38-1.989.406-2.032.813-4.063,1.242-6.089q.663-3.161,1.384-6.3c.477-2.061,1-4.11,1.519-6.165.454-1.779.966-3.545,1.449-5.318-.012.054-.029.106-.041.154.249-.826.493-1.654.739-2.481q1.661.291,3.326.579a1.876,1.876,0,0,0,.247.017,1.318,1.318,0,0,0,1.325-1.03,1.333,1.333,0,0,0-1.013-1.579q-1.561-.262-3.127-.518c.22-.732.452-1.462.679-2.193.024-.056.05-.113.074-.168a.216.216,0,0,1-.017.034c.045-.1.09-.2.135-.311-.006.024-.018.041-.024.065.012-.036.03-.071.042-.106l.011-.018.069-.167c.011-.022.021-.048.032-.069a.717.717,0,0,1,.029-.076c0,.006-.006.018-.006.023.083-.2.171-.394.259-.594.029-.075.064-.145.093-.219h0c0-.01.009-.021.014-.035a1.059,1.059,0,0,0,.042-.1l-.006.018c.076-.164.147-.33.218-.5l0,0c.007-.015.015-.03.02-.044.012-.03.029-.066.041-.095-.006.006-.006.018-.012.024.035-.079.07-.162.108-.246-.016.035-.032.068-.048.105.063-.149.127-.294.191-.442.044-.1.09-.195.128-.291h0l0-.009,0,.008s.005-.01.009-.014c.713-1.5,1.425-3,2.179-4.488s1.555-2.943,2.4-4.374c-.023.029-.041.064-.064.1.371-.613.724-1.261,1.13-1.861a1.21,1.21,0,0,0,.516-.582c1.243-.138,2.486-.28,3.725-.454,3.156-.447,6.294-.977,9.409-1.642,3.068-.654,6.107-1.414,9.133-2.232,2.538-.689,5.035-1.5,7.543-2.291,1.414-.447,2.833-.9,4.246-1.343.571-.176,1.154-.329,1.714-.541l-.029.013c1.709-.617,3.413-1.263,5.122-1.891,1.608-.583,3.227-1.149,4.829-1.773.659-.224,1.3-.53,1.943-.8q1.042-.433,2.078-.883c1.5-.648,2.986-1.319,4.446-2.037a87.946,87.946,0,0,0,11.377-6.623C215.1,151.428,215.159,151.492,215.212,151.56ZM60.226,101.066c-.057-.142-.11-.284-.165-.427l.006.02-.026-.07-.021-.053.009.021a49.435,49.435,0,0,1-1.758-5.7,48.666,48.666,0,0,1-.936-5.522,44.429,44.429,0,0,1-.212-4.92.273.273,0,0,1-.006.049,1.156,1.156,0,0,0,.006-.147V84.3a56.164,56.164,0,0,1,.571-6.212.5.5,0,0,1,0,.068,58.315,58.315,0,0,1,1.367-6.128h0c.006-.006.006-.018.012-.023.018-.066.035-.124.047-.189l-.018.089a80.541,80.541,0,0,1,3.433-9.446v.006a92.394,92.394,0,0,1,4.717-9.327,115.315,115.315,0,0,0-3.892,11.612,96.609,96.609,0,0,0-3.315,18.26A101.481,101.481,0,0,0,60.226,101.066Zm2.143-11.353c-.088,1.867-.129,3.727-.123,5.594Q62.1,92,62.163,88.683v.153a95.059,95.059,0,0,1,1.019-11.854,104.5,104.5,0,0,1,2.762-12.436c-.018.053-.03.106-.048.153A114.572,114.572,0,0,1,70.8,50.949a.067.067,0,0,1-.017.024c.017-.035.035-.076.053-.112a.085.085,0,0,0,.012-.036v.012A102.081,102.081,0,0,1,75.7,41.2c.871-1.048,1.755-2.09,2.673-3.1,1.036-1.13,2.079-2.266,3.121-3.4q1.5-1.625,3-3.256c1.5-1.64,3.122-3.19,4.733-4.727a105.875,105.875,0,0,1,10.61-8.875q2.537-1.806,5.19-3.433c.224-.089.442-.177.666-.265-.371.317-.736.636-1.1.954-.253.223-.5.453-.753.676-.089.066-.177.124-.271.189-1.885,1.372-3.781,2.738-5.659,4.122.006-.006.018-.012.024-.023-.978.689-1.891,1.489-2.8,2.255-1.043.871-2.073,1.76-3.068,2.691-1.826,1.7-3.6,3.456-5.276,5.311a87.5,87.5,0,0,0-9.174,12.1,102.282,102.282,0,0,0-12.36,28.624A91.4,91.4,0,0,0,62.369,89.713Zm7.909-15.639c-.224,1.03-.454,2.06-.678,3.1-.117.523-.265,1.048-.347,1.584-.094.618-.194,1.236-.289,1.86l-.636,4.116c-.117.742-.176,1.5-.247,2.25-.2,2.114-.436,4.222-.536,6.347-.1,2.15-.259,4.311-.271,6.466q-.016,2.19-.029,4.381c-.006.689-.018,1.372.012,2.055.082,2.144.141,4.281.271,6.412q-.584-3.355-.948-6.747l0,.009a108.482,108.482,0,0,1-.544-13.011v-.048a96.532,96.532,0,0,1,.93-11.282,93.988,93.988,0,0,1,2.5-11.535c0,.023-.009.044-.015.066a107.964,107.964,0,0,1,4.631-12.879c-.011.029-.023.059-.035.088a99.6,99.6,0,0,1,5.668-11.029q1.584-2.6,3.33-5.1c-.383.641-.766,1.289-1.143,1.931-.171.3-.318.607-.471.907-.347.689-.7,1.378-1.048,2.067-.483.954-1.019,1.9-1.437,2.879.03-.077.065-.153.1-.229q-1.211,2.79-2.409,5.582c-.2.491-.39.989-.577,1.49-.412,1.089-.818,2.178-1.231,3.268-.5,1.342-.948,2.69-1.395,4.051-.471,1.413-.96,2.82-1.36,4.257-.5,1.761-.984,3.515-1.478,5.276.011-.023.017-.053.029-.082C70.484,73.066,70.4,73.579,70.278,74.074Zm1.86,47.354c-.312-1.666-.553-3.35-.742-5.035v.059c-.006-.059-.011-.118-.017-.182a.117.117,0,0,0-.006-.042l0,.009c-.206-1.993-.335-3.987-.412-5.985q-.078-2.269-.159-4.54c-.041-1.042.012-2.085.018-3.127.012-1.237.03-2.473.035-3.71v.23c.054-1.166.118-2.326.177-3.492.059-1.095.065-2.208.171-3.3.212-2.225.436-4.451.654-6.677.329-2.037.635-4.069.971-6.106.047-.318.141-.642.212-.954.153-.7.312-1.395.471-2.091q.336-1.491.671-2.985l0-.016,0,.01c0-.011.006-.024.006-.035.212-.722.417-1.449.622-2.171l0,0q.53-1.827,1.047-3.665l0,0a.021.021,0,0,0,.006-.017.678.678,0,0,0,.029-.107v.012c.281-.93.626-1.848.936-2.773.348-1.019.695-2.032,1.031-3.05.33-.984.742-1.943,1.113-2.909s.736-1.932,1.107-2.9c-.03.077-.065.153-.1.223l1.254-2.844q.433-.979.86-1.961c.129-.294.247-.6.394-.888.944-1.806,1.871-3.636,2.808-5.447a.436.436,0,0,0,.024-.041v0l.036-.061v0l-.029.048.029-.047a.083.083,0,0,1-.011.024c.036-.058.068-.114.1-.172s.075-.124.112-.187l-.013.025c.1-.153.187-.3.272-.455-.047.071-.088.147-.135.218.206-.335.406-.671.612-1.007.16-.274.325-.542.484-.809l-.007.008c.047-.071.088-.141.135-.212l-.035.053a.541.541,0,0,0,.035-.064V42.3c.13-.218.26-.435.389-.653-.041.07-.088.147-.129.223.194-.317.382-.63.571-.947-.012.017-.024.029-.035.046a1.438,1.438,0,0,0,.094-.152c0,.006-.006.011-.006.017A.275.275,0,0,0,87.8,40.8c.095-.154.189-.313.283-.465-.012.011-.018.023-.029.035a.793.793,0,0,0,.076-.118.345.345,0,0,1,.024-.041c-.006.012-.012.018-.012.024.054-.087.1-.173.156-.263l-.015.015c.024-.032.043-.065.062-.095h0l.018-.028h0l0,0c.161-.259.352-.509.528-.763.406-.577.806-1.149,1.207-1.726l1.2-1.73c.183-.26.354-.537.548-.784,1.219-1.543,2.443-3.085,3.657-4.634.741-.8,1.431-1.631,2.149-2.444.465-.524.93-1.054,1.395-1.584.206-.235.407-.488.625-.712,1.46-1.46,2.914-2.915,4.375-4.381,1-.907,2.043-1.784,3.056-2.68.441-.382.877-.765,1.313-1.148,2.155-1.4,4.375-2.708,6.63-3.933a63.825,63.825,0,0,1,7.025-3.233c.418-.153.836-.306,1.254-.453,1.867-.3,3.74-.56,5.618-.766a72.408,72.408,0,0,1,8.426-.412q1.675.036,3.351.141c.93.059,1.866.118,2.791.236l1.189.194a1.314,1.314,0,0,0,1.526-.977c0-.019,0-.039.006-.058.292.036.583.077.875.117,1.172.2,2.338.436,3.5.671,1.023.208,2.05.421,3.08.59-.159.177-.322.35-.474.532-.589.689-1.19,1.366-1.738,2.09-.565.754-1.13,1.5-1.66,2.285s-1.042,1.554-1.543,2.349-.96,1.59-1.419,2.4c-1.8,3.144-3.327,6.436-4.829,9.728q-.547,1.2-1.074,2.4l-.054-.008.029.006-.689-.106c.053.006.106.018.165.024l-.341-.054c.053.012.106.018.164.03-1.66-.277-3.321-.553-4.975-.848-1.7-.3-3.4-.63-5.07-1.095-.177-.059-.353-.118-.524-.183a1.215,1.215,0,0,0-.471-.306,1.23,1.23,0,0,0-1.608.889,1.364,1.364,0,0,0,.153.948,2.069,2.069,0,0,0,1.1.771,23.246,23.246,0,0,0,3.109.86c.8.177,1.608.347,2.415.507,1.6.3,3.191.6,4.787.889.256.045.513.083.77.127-.1.244-.195.49-.294.735q-2.219-.138-4.436-.282c-.636-.041-1.266-.094-1.9-.159-1-.1-1.985-.188-2.98-.323a22.908,22.908,0,0,1-2.338-.454,1.342,1.342,0,0,0-.865-.224.34.34,0,0,0,.07-.011,1.719,1.719,0,0,0-.247.023,1.3,1.3,0,0,0-.371,2.432,7.57,7.57,0,0,0,1.655.489c1.319.265,2.649.429,3.986.565.73.071,1.461.159,2.191.212,1.416.1,2.83.192,4.243.286-.2.529-.4,1.058-.591,1.59-1.26,3.51-2.391,7.049-3.5,10.605-.506,1.608-.983,3.227-1.466,4.841-.522,1.743-1.056,3.481-1.556,5.23h0c-.115.386-.229.777-.345,1.165l-4.129.227c-.636.041-1.272.065-1.908.082-.872.03-1.749.083-2.621.083a1.517,1.517,0,0,1,.165.006c-1.016-.029-2.039-.041-3.067-.053a.218.218,0,0,1,.052.006.554.554,0,0,0-.1-.006h-.035c-.654-.036-1.307-.082-1.955-.171-.094-.012-.183-.029-.277-.047l.071.018a1.309,1.309,0,1,0-.654,2.532,8.556,8.556,0,0,0,1.59.206c.418.035.848.07,1.272.07h-.165c1.06.03,2.126.042,3.186.048h-.171c.141,0,.277.005.412.005.848,0,1.7-.059,2.538-.082,1.672-.048,3.341-.145,5.011-.238-.256.866-.513,1.731-.761,2.6.006-.006.006-.017.012-.023-.076.262-.151.526-.227.788-.487,1.35-.933,2.712-1.385,4.073-.518,1.566-1.066,3.127-1.554,4.7q-.972,3.153-1.938,6.312c-.5,1.6-.895,3.239-1.331,4.858-.235.854-.465,1.713-.694,2.567-.159.607-.271,1.231-.407,1.844-.271,1.219-.541,2.431-.807,3.644-.085.394-.171.783-.25,1.175-.617.087-1.233.175-1.852.24a31.023,31.023,0,0,1-3.545.154,14.949,14.949,0,0,1-1.525-.124,1.414,1.414,0,0,1-.218-.047,1.371,1.371,0,0,0-.583,2.679,11.963,11.963,0,0,0,2.709.236h.171c.977,0,1.961-.047,2.932-.141.47-.045.936-.1,1.4-.159-.192,1.1-.382,2.2-.578,3.3-.141.783-.23,1.572-.341,2.355-.165,1.108-.324,2.214-.484,3.315-.506,3.5-.889,7.014-1.277,10.523-.2,1.708-.318,3.421-.471,5.129-.145,1.565-.254,3.13-.358,4.7-.915-.154-1.831-.31-2.749-.438h.035l-2.738-.565c-.754-.159-1.5-.359-2.249-.566a1.529,1.529,0,0,0-.177-.058,1.369,1.369,0,0,0-1.719.812,1.35,1.35,0,0,0,.812,1.72c.878.253,1.773.5,2.668.683.618.123,1.23.253,1.849.377.383.082.771.176,1.16.229-.053-.006-.112-.018-.165-.024,1.03.177,2.064.339,3.1.494-.057.865-.121,1.73-.168,2.593-.1,1.961-.189,3.91-.253,5.871a104.958,104.958,0,0,0,.265,10.552c.006.1.019.194.026.292-2.18-.493-4.348-1.033-6.5-1.647.047.018.094.03.141.048a83.722,83.722,0,0,1-9.657-3.44,77.386,77.386,0,0,1-8.644-4.469,63.3,63.3,0,0,1-12.49-10.016c.053.053.1.1.153.153-1.742-1.837-3.4-3.757-5.016-5.706C73.834,123.583,72.974,122.512,72.138,121.428Zm3.4,9.086a64.036,64.036,0,0,0,6.312,6.189,66.491,66.491,0,0,0,7.025,5.246,74.661,74.661,0,0,0,16.2,7.808c2.891.978,5.83,1.808,8.8,2.532,1.056.258,2.118.486,3.18.718.059.468.114.936.178,1.4q.354,2.544.807,5.07c.311,1.73.652,3.458.977,5.187a105.878,105.878,0,0,1-10.949-2.412,1.415,1.415,0,0,0-.426-1.129,1.352,1.352,0,0,0-1.767-.046c-.142.128-.275.268-.413.4-1.84-.588-3.655-1.251-5.43-2.014.047.024.094.042.141.065a66.8,66.8,0,0,1-7.292-3.751l.014.012c-.035-.023-.077-.047-.112-.071,0,0-.01,0-.019-.008v0a59.1,59.1,0,0,1-6.045-4.2l.016.016-.042-.036-.041-.035a.25.25,0,0,1-.026-.018h0q-.636-.52-1.255-1.059c-.2-.254-.394-.519-.583-.778-.565-.783-1.077-1.584-1.607-2.4-.406-.624-.848-1.236-1.225-1.884-.695-1.213-1.372-2.438-2.073-3.651-.742-1.466-1.542-2.921-2.225-4.422-1.059-2.346-2.14-4.674-3.064-7.085-.146-.4-.293-.8-.434-1.212C74.617,129.478,75.082,130,75.542,130.514ZM2.9,264.331c0-.359,0-.725.006-1.083v.182c.018-.96.065-1.914.142-2.868.047-.6.076-1.2.153-1.8.082-.613.165-1.225.241-1.838.177-1.3.342-2.608.512-3.909v.023a85.974,85.974,0,0,1,2.038-9.522c0,.012-.006.024-.006.036.259-.913.53-1.832.842-2.733.324-.918.677-1.819,1.019-2.726.212-.559.424-1.113.636-1.666.536-1.413,1.071-2.833,1.619-4.24.418-1.084.889-2.144,1.331-3.209.488-1.172.971-2.338,1.46-3.51.636-1.343,1.284-2.679,1.926-4.021q.618-1.29,1.224-2.568c.13-.271.248-.547.395-.813.8-1.46,1.584-2.92,2.379-4.38.636-1.178,1.248-2.374,1.919-3.534-.035.054-.064.106-.1.154.842-1.337,1.673-2.68,2.509-4.022.547-.877,1.095-1.761,1.643-2.644.235-.377.483-.76.712-1.142.836-1.219,1.731-2.409,2.591-3.616q.857-1.192,1.714-2.391c.2-.283.394-.571.606-.848,1.69-2.073,3.38-4.145,5.047-6.241-.036.052-.077.1-.112.147.959-1.037,1.878-2.12,2.82-3.174.619-.689,1.231-1.384,1.849-2.078.23-.254.448-.519.683-.766,1.932-2.014,3.875-4.016,5.806-6.03.324-.295.624-.612.942-.918.683-.672,1.372-1.337,2.055-2.009,1.03-1,2.06-1.981,3.075-2.992h0a.523.523,0,0,1,.059-.053c.106-.094.206-.188.312-.283q-1.6,1.688-3.174,3.41c-1.013,1.107-2.031,2.2-3.015,3.339l-2.314,2.667c-.39.442-.786.879-1.16,1.332h0l-.019.024.005-.007-.015.018.006-.007c-1.346,1.651-2.7,3.291-4.016,4.959-.289.336-.542.7-.807,1.048-1.095,1.437-2.214,2.868-3.292,4.322-1.16,1.555-2.261,3.163-3.391,4.747-.777,1.089-1.514,2.2-2.256,3.315q-.97,1.458-1.937,2.915c-.288.423-.583.848-.848,1.289.036-.058.071-.118.106-.183-1.454,2.381-2.925,4.75-4.362,7.136-.545.9-1.03,1.842-1.538,2.763q-1.236,2.217-2.467,4.446c-.383.7-.719,1.407-1.06,2.125-.783,1.638-1.578,3.269-2.367,4.905-.242.507-.513,1.014-.73,1.531s-.413,1.049-.619,1.567q-1.263,3.18-2.514,6.36c-1.137,2.873-2.138,5.8-3.091,8.732q-1.131,3.436-2.085,6.925c-.648,2.35-1.3,4.7-1.861,7.066C3.62,260.086,3.19,262.2,2.9,264.331Zm20.792,19.014q-1.517.666-3.061,1.264a25.667,25.667,0,0,1-2.88.9c-.224.047-.442.088-.671.123.041-.006.082-.006.129-.012l-.153.018c-.011,0-.023.006-.035.006.012,0,.018-.006.029-.006a2.064,2.064,0,0,1-.276.018c-.312-.012-.625-.041-.937-.082l-.653-.142c-.309-.092-.607-.194-.9-.313l.021.007c-.3-.136-.594-.288-.883-.453a15.289,15.289,0,0,1-1.325-.95c-.215-.176-.423-.355-.63-.54a21.44,21.44,0,0,0,2.191.394c.883.118,1.76.194,2.644.3a18.736,18.736,0,0,0,3.35.112,9.806,9.806,0,0,0,1.472-.2c.395-.095.783-.207,1.172-.325,1.136-.341,2.279-.682,3.415-1.042Q24.7,282.9,23.687,283.345Zm31.221-27.753c-1.213,1.6-2.414,3.2-3.663,4.77q-1.642,2.014-3.279,4.052l.123-.16c-.718.766-1.4,1.567-2.1,2.35-.336.376-.671.753-1.013,1.13-.553.613-1.154,1.184-1.749,1.755.006,0,.006,0,.012,0a.2.2,0,0,0-.023.017c-.042.041-.077.077-.118.118a.447.447,0,0,0,.047-.053,45.908,45.908,0,0,1-4.381,3.663c.023-.024.053-.042.076-.065a34.789,34.789,0,0,1-3.515,2.243h.006a41.791,41.791,0,0,1-4.911,2.217c-1.679.635-3.38,1.214-5.082,1.758-1.631.524-3.256,1.036-4.911,1.46q-.282.054-.565.088c-.465.036-.93.048-1.4.042a44.929,44.929,0,0,1-4.757-.483c-.583-.118-1.166-.218-1.743-.365a7.08,7.08,0,0,1-.748-.265c-.277-.124-.536-.265-.795-.406-.407-.259-.8-.513-1.184-.79-.377-.317-.736-.636-1.083-.983-.13-.147-.248-.294-.371-.453A13.861,13.861,0,0,1,7,276.015c-.2-.394-.382-.786-.546-1.2-.177-.506-.347-1.012-.483-1.537-.076-.341-.129-.688-.171-1.036a26.814,26.814,0,0,1-.129-3.362,41.589,41.589,0,0,1,.406-4.523v.024c0-.018.006-.041.006-.059,0-.043.015-.085.021-.127v0a116.032,116.032,0,0,1,3.3-13.811h0l.005-.016v0h0c.994-3.468,2.14-6.894,3.339-10.291.494-1.4,1.007-2.786,1.554-4.164q.945-2.367,1.885-4.746c.347-.889.712-1.772,1.054-2.667.63-1.278,1.242-2.574,1.866-3.857q.654-1.361,1.313-2.721c.2-.406.371-.836.595-1.236,1.4-2.5,2.774-5.023,4.175-7.525a.186.186,0,0,0,.029-.06c1.443-2.349,2.9-4.692,4.322-7.054-.035.059-.07.118-.105.183.094-.153.194-.295.294-.442q1.767-2.658,3.539-5.311c.8-1.178,1.631-2.326,2.455-3.481.848-1.189,1.684-2.39,2.568-3.55,1.113-1.461,2.231-2.915,3.339-4.375a.379.379,0,0,1,.047-.065c1.319-1.619,2.655-3.239,3.957-4.875h0q1.19-1.385,2.386-2.756c.647-.748,1.277-1.508,1.943-2.238,1.572-1.725,3.138-3.463,4.746-5.158,2.367-2.5,4.752-4.976,7.113-7.472,1.2-1.273,2.414-2.538,3.61-3.811,1.107-1.183,2.273-2.325,3.4-3.5q1.483-1.386,2.949-2.784l.025-.025c-.006.006-.012.018-.018.024.825-.742,1.714-1.413,2.562-2.126.724-.612,1.537-1.125,2.29-1.7q1.262-.866,2.547-1.692a56.063,56.063,0,0,0,5.556,6.43,54.758,54.758,0,0,0,8.053,6.538c-.366.408-.721.827-1.06,1.267-.43.559-.854,1.137-1.26,1.72-.918,1.324-1.749,2.714-2.62,4.074-.583.907-1.09,1.849-1.614,2.786q-1.156,2.075-2.32,4.151c-.153.277-.282.571-.424.86-.359.736-.724,1.466-1.083,2.2q-1.2,2.438-2.4,4.875c-.329.671-.618,1.354-.912,2.038-1.225,2.867-2.473,5.717-3.681,8.6-.329.754-.583,1.542-.865,2.32q-.919,2.446-1.826,4.9c-.624,1.684-1.254,3.362-1.813,5.064q-1.485,4.5-2.956,9c-.595,1.807-1.084,3.651-1.614,5.47q-.8,2.765-1.607,5.529c-.2.7-.424,1.39-.595,2.1q-1.2,4.954-2.4,9.91c-.182.748-.388,1.5-.541,2.249-.277,1.4-.554,2.8-.836,4.192q-.173.858-.343,1.717-.742.961-1.479,1.925c-.68.85-1.322,1.739-1.987,2.611Q55.742,254.507,54.908,255.592Zm37.6,146.694a54.719,54.719,0,0,1-6.218-3.227l.006.006a49.857,49.857,0,0,1-5.182-3.628l.03.029A45.835,45.835,0,0,1,77.353,392a53.152,53.152,0,0,1-4.169-5.029,80.94,80.94,0,0,1-5.111-8.274,86.527,86.527,0,0,1-4.487-9.81,1.413,1.413,0,0,1,.058.142,79.811,79.811,0,0,1-2.8-9.133c-.324-1.4-.625-2.8-.89-4.217-.129-.677-.27-1.354-.37-2.037q-.2-1.413-.4-2.827-.407-2.931-.819-5.853l.018.195c-.1-1.042-.206-2.085-.312-3.127-.542-5.329-1.078-10.658-1.478-16-.061-.788-.119-1.573-.179-2.359.092-.529.177-1.057.231-1.591.02-.2.036-.4.054-.6.262,1.715.534,3.429.771,5.148.394,2.873.777,5.74,1.112,8.62.324,2.773.619,5.547.955,8.314q.5,4.09,1.248,8.139.768,4.142,1.837,8.214c.188.724.347,1.46.571,2.173.194.624.383,1.254.577,1.878.218.7.407,1.425.654,2.114.224.63.453,1.26.677,1.89.247.689.459,1.4.748,2.073.265.63.524,1.26.789,1.89.241.571.453,1.172.736,1.725.359.724.724,1.449,1.089,2.173.254.5.483,1.013.772,1.49q.671,1.122,1.342,2.237a47.017,47.017,0,0,0,5.023,6.854,58.632,58.632,0,0,0,4.247,4.374c.6.783,1.217,1.552,1.884,2.279a44.59,44.59,0,0,0,8.415,7.113q2.306,1.5,4.74,2.78.872.449,1.751.847l-.009,0A43.431,43.431,0,0,1,92.509,402.286Zm45.082-30c-.488.885-1,1.758-1.489,2.64,1.026-1.98,2.071-3.955,3.2-5.874.135-.221.285-.433.425-.652C139.012,369.689,138.3,370.989,137.591,372.282Zm139.531-94.075a22.042,22.042,0,0,1-2.2-.477c-.142-.047-.283-.1-.43-.141-.583-.4-1.148-.825-1.708-1.267a35.613,35.613,0,0,1-3.106-2.9,54.171,54.171,0,0,1-4.266-5.214l0,.007c-.953-1.323-1.923-2.67-2.746-4.076-.348-.6-.695-1.195-1.037-1.79-.736-1.272-1.478-2.544-2.214-3.809-.912-1.861-1.86-3.716-2.791-5.565-.706-1.4-1.325-2.85-1.967-4.281-.671-1.49-1.36-2.968-1.972-4.481-.754-1.855-1.5-3.71-2.255-5.559-.625-1.79-1.3-3.574-1.9-5.37-.136-.648-.265-1.295-.389-1.949-.147-.771-.294-1.537-.43-2.309-.088-.494-.171-.989-.259-1.483-.082-.436-.112-.884-.212-1.313a9.7,9.7,0,0,0-.4-1.313,1.851,1.851,0,0,0-.848-.978q-.462-1.746-.922-3.491c-1.436-5.453-2.844-10.917-4.439-16.329-1.537-5.2-3.316-10.328-5.159-15.428-.494-1.365-1-2.72-1.525-4.069s-1.095-2.678-1.678-4.015c-1.037-2.379-2.231-4.7-3.461-6.983.015.029.029.058.046.087-.04-.07-.077-.14-.115-.21.008.013.017.028.026.04-.1-.183-.2-.371-.3-.56.041.083.082.159.124.236-.189-.348-.377-.7-.566-1.054-.029-.059-.064-.118-.094-.177-.19-.359-.384-.713-.575-1.07.019.035.038.072.057.11-1.372-2.569-2.792-5.113-4.2-7.663-.418-1.317-.836-2.633-1.222-3.959-.482-1.666-.948-3.333-1.466-4.987a17.543,17.543,0,0,0-2.008-4.611,7.86,7.86,0,0,0-.5-.629c.392-.3.786-.607,1.171-.921a65.571,65.571,0,0,0,11.782-12.419c.016.035.031.071.049.105a1.414,1.414,0,0,0,.984.842,1.318,1.318,0,0,0,.954-.147c.145.077.287.158.429.24.792.514,1.545,1.073,2.291,1.656a1.41,1.41,0,0,0-.088.2,2.107,2.107,0,0,0,.07,1.56,2.175,2.175,0,0,0,1.19,1.095c.168.07.336.141.5.216l.018.008h0l.027.012h0c1.466.648,2.886,1.393,4.294,2.168,1.649,1.513,3.286,3.038,4.935,4.546q4.637,4.256,9.251,8.544c2.914,2.7,5.77,5.458,8.632,8.214,2.538,2.444,4.929,5.046,7.419,7.549,1.4,1.607,2.827,3.2,4.24,4.8.577.659,1.154,1.319,1.737,1.967.8.894,1.525,1.872,2.261,2.82q1.206,1.548,2.352,3.126a93.54,93.54,0,0,1,6.3,10l-.017-.035a104.114,104.114,0,0,1,5.423,12.06v-.006c.489,1.307.907,2.644,1.354,3.963q.688,2.066,1.384,4.127c.112.33.188.672.283,1.007.235.854.465,1.7.7,2.556.348,1.26.7,2.514,1.037,3.768q.548,2.457,1.077,4.917a78.014,78.014,0,0,1,1.372,8.34l0,.027v-.013l0,.043,0-.026a79.695,79.695,0,0,1,.386,9.612v-.011c-.024.889-.047,1.772-.124,2.655q-.107,1.21-.212,2.42c-.141,1.622-.3,3.232-.53,4.847a58.57,58.57,0,0,1-1.49,7.1,35.569,35.569,0,0,1-1.372,3.859c.008-.018.016-.035.024-.055a.44.44,0,0,1-.025.058l-.01.024.009-.021c-.012.025-.023.049-.033.075l-.017.037,0-.02a29.44,29.44,0,0,1-1.436,2.786c-.448.706-.925,1.389-1.437,2.048a21.6,21.6,0,0,1-1.649,1.808c-.083.077-.179.142-.263.217-.158.042-.319.079-.477.123-.924.2-1.849.419-2.773.63-.842.189-1.7.342-2.55.513-1.831.365-3.686.642-5.529.895a1.556,1.556,0,0,0-1.266,1.784,1.483,1.483,0,0,0,.532.908c-.477.026-.955.043-1.435.036C278.877,278.389,278,278.325,277.122,278.207Zm19.773-.63a22.642,22.642,0,0,1-1.99,1.265,18.734,18.734,0,0,1-2.132.978c-.759.265-1.531.489-2.32.689q-1.284.286-2.6.454a.356.356,0,0,0-.058.006c-.036,0-.071,0-.106.011.029-.006.053-.006.082-.011l-.165.017a19.816,19.816,0,0,0,2.632-1.048,22.306,22.306,0,0,0,5.484-3.71c.62-.156,1.24-.314,1.855-.5.678-.2,1.355-.414,2.029-.64-.325.356-.655.708-1,1.048A21.17,21.17,0,0,1,296.9,277.577Z"/><path d="M160.047,8.47l-.058-.01c-.037-.005-.075-.008-.113-.014C159.929,8.452,159.988,8.464,160.047,8.47Z"/></svg>