<svg xmlns="http://www.w3.org/2000/svg" width="213.142" height="194.772" viewBox="0 0 213.142 194.772"><path d="M51.342,161.773c-.027-.051-.05-.1-.077-.156l-.011-.02C51.283,161.656,51.313,161.715,51.342,161.773Z"/><path d="M213.068,103.269c-.024-.919-.041-1.837-.065-2.762-.018-.73-.118-1.472-.176-2.2-.142-1.743-.277-3.48-.483-5.212s-.395-3.45-.654-5.17-.5-3.432-.813-5.14c-.317-1.737-.588-3.5-.977-5.223-.4-1.766-.742-3.551-1.207-5.294-.477-1.766-.931-3.539-1.49-5.276-.288-.918-.548-1.849-.877-2.75s-.677-1.8-1.013-2.7a35.679,35.679,0,0,0-5.606-10.234A30.563,30.563,0,0,0,190.956,44c-.116-.1-.227-.214-.346-.314a19.471,19.471,0,0,0-1.7-1.342c-.518-.348-1.037-.7-1.549-1.048-.489-.33-1.024-.6-1.531-.9a29.834,29.834,0,0,0-2.985-1.473,32.861,32.861,0,0,0-6.513-2.013,27.915,27.915,0,0,0-6.678-.554,33.241,33.241,0,0,0-3.656.359c-.518.077-1.031.218-1.537.336a16.009,16.009,0,0,0-1.678.471c-2.061.713-4.075,1.519-6.065,2.4-1.92.848-3.822,1.731-5.777,2.479-.306.117-.612.235-.912.347-.725.247-1.449.471-2.185.666-.383.082-.76.153-1.143.2-.253.017-.5.023-.753.023-.365-.023-.724-.058-1.09-.106-.424-.076-.842-.165-1.26-.277a34.851,34.851,0,0,1-3.656-1.407c-1.59-.7-3.18-1.39-4.788-2.049a33.539,33.539,0,0,0-3.7-1.244.962.962,0,0,0-.27-.21,1.755,1.755,0,0,1-.23-.123c-.053-.036-.106-.071-.159-.112-.482-.424-.9-.925-1.384-1.349a9.09,9.09,0,0,0-1.742-1.23,11.644,11.644,0,0,0-4.081-1.2,23.614,23.614,0,0,0-9.422.836q-1.615.468-3.191,1.1c-.718.288-1.443.577-2.132.93-.494.259-.995.512-1.495.772-.33.17-.683.317-1,.518-.753.477-1.53.93-2.3,1.4-.689.424-1.342.919-2.014,1.378-.888.612-1.757,1.252-2.621,1.9-.414.125-.829.247-1.251.351.38-.5.755-1.012,1.135-1.515.218-.289.406-.6.607-.9.388-.577.777-1.16,1.165-1.737.513-.759.96-1.566,1.425-2.355.365-.624.766-1.237,1.09-1.878q.715-1.422,1.436-2.845a34.1,34.1,0,0,0,3.6-11.547,26.155,26.155,0,0,0-.86-10.311c.006-.577-.011-1.16-.058-1.736a11.312,11.312,0,0,0-1.92-5.883A6.13,6.13,0,0,0,103.569.82a6.872,6.872,0,0,0-2.685-.672,6.372,6.372,0,0,0-.895.024A5.263,5.263,0,0,0,97.68.1a6.746,6.746,0,0,0-2.867,1.343A8.884,8.884,0,0,0,92.864,3.61a17.424,17.424,0,0,0-2.3,6.089,40.7,40.7,0,0,0-.689,6.483c-.029.984-.053,1.967-.076,2.956-.036,1.473-.018,2.944-.012,4.417.012,1.719.006,3.432-.012,5.152-.058,1.272-.118,2.538-.229,3.81-.118,1.242-.283,2.473-.448,3.7q-.517,3.078-1.126,6.137c-2.2-.432-4.416-.837-6.643-1.156-2.184-.318-4.387-.5-6.595-.624-1.848-.111-3.7-.126-5.553-.087a1.63,1.63,0,0,0-1.506-.907c-.706.017-1.389.065-2.09.135-.507.053-1,.147-1.5.224-.482.071-.965.194-1.448.294-.524.106-1.037.265-1.555.395-.553.145-1.1.321-1.64.509l-.351.038c.082-.012.159-.018.241-.03l-.459.053c.082-.012.165-.017.241-.029-2.968.312-5.93.789-8.874,1.313-.276.049-.552.107-.829.16a17.076,17.076,0,0,0-6.473-.6c-4.445.424-8.555,2.514-12.147,5.07-.984.7-1.944,1.436-2.868,2.22-.589.5-1.184,1-1.737,1.537l-.078.076q-1.529.9-2.984,1.912c-1.831,1.272-3.645,2.591-5.352,4.028A54.8,54.8,0,0,0,8.251,66.6a39.7,39.7,0,0,0-3.468,5.635c-.489,1.007-.99,2.014-1.414,3.05-.4.99-.818,1.985-1.124,3.015.006-.017.006-.029.011-.047-.182.642-.412,1.284-.553,1.937s-.283,1.3-.424,1.944c-.124.547-.177,1.113-.265,1.666C.837,84.93.749,86.066.637,87.2.584,87.726.59,88.269.566,88.8c-.017.512-.058,1.037-.053,1.549.006,1.078-.005,2.161.036,3.238.039,1.056.093,2.112.14,3.168-.032.083-.066.166-.1.249a1.3,1.3,0,0,0,.164,1.214c.024.494.04.988.066,1.482-.224,1.6-.4,3.2-.53,4.81-.177,2.267-.324,4.558-.283,6.837.029,1.513.059,3.027.082,4.54.018.825,0,1.655.053,2.479q.143,2.1.277,4.2c.059.866.094,1.738.177,2.6.218,2.232.383,4.475.677,6.7.194,1.466.383,2.933.577,4.4.118.924.306,1.837.471,2.756.177,1.024.312,2.067.566,3.073.341,1.355.677,2.709,1.018,4.063.247.984.607,1.938.925,2.9s.63,1.9,1.006,2.833c.425,1.048.807,2.132,1.29,3.156l.972,2.067c.166.357.328.725.511,1.077a.314.314,0,0,0-.028-.046c.276.511.553,1.024.824,1.531s.536,1.065.848,1.566c.565.912,1.083,1.86,1.69,2.75s1.207,1.79,1.819,2.69c.625.919,1.308,1.814,1.973,2.709a63.614,63.614,0,0,0,4.069,5c.836.925,1.69,1.826,2.567,2.715.7.707,1.419,1.414,2.173,2.061.913.777,1.82,1.543,2.768,2.279.406.312.806.612,1.23.907s.825.6,1.261.865c.571.342,1.142.689,1.707,1.043.477.294.978.541,1.472.806.866.465,1.755.913,2.662,1.307l-.013,0a70.609,70.609,0,0,0,8.869,3.389l-.194-.052c.518.146,1.036.294,1.56.429l1.025.548a43.493,43.493,0,0,0,5.517,2.579,26.972,26.972,0,0,0,6.36,1.372,19.178,19.178,0,0,0,2.025.135,7,7,0,0,0,2.067-.27,13.85,13.85,0,0,0,4.116-2.138c.33-.242.66-.483.989-.719.483-.347.931-.736,1.384-1.112a1.506,1.506,0,0,0,.2-2.1,1.455,1.455,0,0,0-.859-.506,4.579,4.579,0,0,0,1.648-.972,2.271,2.271,0,0,0,.366-2.5c0-.006-.006-.012-.006-.018.2.095.4.2.606.283a25.2,25.2,0,0,0,4.163,1.413c1,.236,2.014.412,3.039.548a29.274,29.274,0,0,0,3.444.276,27.788,27.788,0,0,0,3.292-.164,18.488,18.488,0,0,0,3.451-.654c.585-.174,1.156-.37,1.718-.589.381.034.761.075,1.143.085a13.807,13.807,0,0,0,6.583-1.372,17.679,17.679,0,0,0,1.872-1.108c.058.055.107.116.166.17a11.9,11.9,0,0,0,3.492,2.249,13.79,13.79,0,0,0,3.875.966,21.556,21.556,0,0,0,4.189-.04,11.66,11.66,0,0,0,5.874,1.632h.288a15.443,15.443,0,0,0,6.637-1.79,31.689,31.689,0,0,0,5.976-4.069c1.073-.913,2.1-1.883,3.1-2.879.219.045.435.085.64.12.737.13,1.473.225,2.215.319,1.095.129,2.19.176,3.291.241.448.024.9,0,1.349,0,.624-.006,1.242-.018,1.866-.018.46,0,.925-.064,1.378-.094.63-.047,1.266-.088,1.9-.129.872-.059,1.744-.181,2.613-.3a19.546,19.546,0,0,0,4.754,1.194,33.949,33.949,0,0,0,5.894.218,60.456,60.456,0,0,0,9.045-.913,25.806,25.806,0,0,0,3.762-1.024,29.091,29.091,0,0,0,3.274-1.414,41.181,41.181,0,0,0,6.142-3.933c1.207-.924,2.379-1.878,3.5-2.909.883-.812,1.772-1.625,2.655-2.443.46-.419.889-.854,1.313-1.308.813-.859,1.632-1.713,2.444-2.573a47.545,47.545,0,0,0,3.315-4q1.174-1.572,2.244-3.215c.536-.831,1.089-1.661,1.6-2.521q1.377-2.34,2.767-4.687c-.012.024-.023.042-.035.065.512-.848.948-1.749,1.413-2.626.353-.666.736-1.319,1.054-2,.8-1.7,1.649-3.375,2.344-5.117.641-1.62,1.336-3.227,1.884-4.882.383-1.166.771-2.326,1.154-3.491.183-.554.371-1.1.512-1.673q.415-1.661.831-3.327c.135-.541.276-1.09.412-1.631.041-.171.094-.341.123-.512l.99-5.812c.112-.63.153-1.278.218-1.92.123-1.219.247-2.437.371-3.662.17-1.7.182-3.41.247-5.111.023-.672.082-1.349.065-2.02C213.115,105.283,213.092,104.276,213.068,103.269ZM165.278,40.7c.406-.1.806-.218,1.218-.277s.819-.124,1.231-.189c.63-.058,1.254-.111,1.89-.141.607-.026,1.213-.021,1.82-.016.893.048,1.774.117,2.667.211.556.089,1.115.186,1.672.292-1.262-.011-2.522,0-3.786.064-1.76.082-3.521.176-5.276.335-1.2.111-2.4.251-3.6.41C163.832,41.152,164.548,40.913,165.278,40.7ZM112.9,38.259a31.475,31.475,0,0,1,3.7-1.148,25.429,25.429,0,0,1,2.662-.442h-.035a20.6,20.6,0,0,1,2.573-.088,18.163,18.163,0,0,1,2.043.176c.476.076.941.174,1.405.3a.318.318,0,0,1,.038.011c.035.012.064.018.1.03l-.071-.018c.277.088.548.183.813.289.131.061.254.135.382.2-.551-.064-1.1-.122-1.656-.162a32.229,32.229,0,0,0-5.058.012h-.012c-.076.012-.147.018-.223.023.029,0,.059-.005.088-.005l-.494.053c.082-.012.164-.018.247-.03-.318.035-.66.047-.983.106l-.348.035h.012c-.034.005-.067.006-.1.009h0l-.036,0h.013a20.81,20.81,0,0,0-2.109.331c-.695.147-1.4.271-2.09.448-1.026.256-2.05.526-3.067.821C111.414,38.868,112.15,38.547,112.9,38.259ZM92.143,47.091c.451.083.906.137,1.359.2a1.585,1.585,0,0,0,.266.063c-.341.229-.685.453-1.046.654a6.342,6.342,0,0,1-.648.3l-.283.089c-.076.017-.153.029-.235.041a2.963,2.963,0,0,1-.33.017,1.628,1.628,0,0,1-.241-.017c-.112-.019-.222-.044-.328-.07-.131-.04-.26-.091-.385-.142-.165-.082-.318-.165-.471-.253-.862-.546-1.668-1.181-2.479-1.809C88.927,46.481,90.533,46.8,92.143,47.091Zm.5-9.039c.182-1.207.318-2.42.483-3.627.123-.948.206-1.9.3-2.85.094-.972.206-1.938.271-2.909.247-3.545.459-7.1.677-10.641q.15-2.358.33-4.71c.129-1.785.23-3.586.477-5.359.053-.294.118-.577.188-.865a5.509,5.509,0,0,1,.195-.53c.07-.147.153-.295.235-.442s.2-.3.306-.453c.165-.2.336-.377.513-.56.253-.229.512-.447.783-.659.3-.2.595-.383.907-.56.223-.106.441-.206.671-.294.076-.024.159-.053.236-.083a1.041,1.041,0,0,0,.111.03c.053.018.106.041.159.059.136.059.265.123.395.194.135.088.265.183.394.283.189.159.36.324.53.494.312.359.607.73.89,1.107A25.978,25.978,0,0,1,103.1,7.9a24.1,24.1,0,0,1,1.083,2.379c.154.4.289.813.413,1.219-.065,1.137-.2,2.267-.365,3.392a61.14,61.14,0,0,1-1.647,7.578c-.488,1.7-1.052,3.361-1.681,5.011-.4,1.043-.794,2.079-1.195,3.127-.548,1.231-1.095,2.473-1.649,3.71-.5,1.13-1.089,2.226-1.637,3.339-.518,1.048-1.065,2.084-1.607,3.12-.294.56-.583,1.125-.889,1.678-.17.307-.345.612-.519.918-.494-.085-.988-.168-1.481-.259.047-.574.121-1.143.2-1.713C92.293,40.284,92.469,39.171,92.646,38.052ZM52.48,49.718a21.27,21.27,0,0,1,1.555-1.7c.366-.339.75-.655,1.142-.961.21.076.418.157.626.235-.06.048-.124.089-.184.137a39.544,39.544,0,0,0-4.3,3.945C51.685,50.807,52.068,50.253,52.48,49.718ZM57.823,45.8a1.22,1.22,0,0,0-.346-.248c.067-.039.129-.085.2-.122.2-.1.4-.2.606-.3.253-.031.5-.069.757-.1C58.632,45.285,58.218,45.525,57.823,45.8ZM4.1,85.154c.13-.76.254-1.514.383-2.273.112-.666.3-1.325.454-1.973.223-.76.447-1.507.718-2.255.265-.725.559-1.437.866-2.156.329-.706.659-1.4,1.007-2.09s.73-1.378,1.107-2.061c.429-.7.865-1.4,1.325-2.078.435-.642.906-1.267,1.366-1.9.694-.86,1.383-1.744,2.149-2.544.265-.277.53-.554.8-.825-.112.177-.23.354-.342.53-1.065,1.667-2.108,3.362-3.015,5.129L8.793,74.778c-.336.642-.648,1.284-.937,1.949q-.9,2.119-1.8,4.24c-.753,1.766-1.448,3.562-2.066,5.388.053-.471.1-.936.147-1.407C4.123,85.018,4.111,85.088,4.1,85.154Zm29,96.529c-.065-.042-.13-.077-.194-.119.023.018.047.03.07.048-.518-.313-1.036-.625-1.56-.936-.56-.395-1.166-.742-1.708-1.167s-1.083-.818-1.619-1.236c-.86-.712-1.7-1.437-2.514-2.191-.842-.771-1.643-1.584-2.444-2.39-1.2-1.307-2.4-2.62-3.5-4.022-.577-.742-1.172-1.472-1.731-2.226-.577-.795-1.154-1.6-1.737-2.385-.524-.771-1.042-1.53-1.567-2.3-.406-.607-.777-1.237-1.159-1.855-.36-.583-.719-1.166-1.049-1.767-.394-.736-.795-1.471-1.2-2.207-.294-.637-.6-1.267-.895-1.908-.224-.466-.471-.931-.665-1.414-.495-1.207-.972-2.414-1.473-3.621-.259-.783-.518-1.572-.783-2.356-.206-.624-.465-1.254-.624-1.89-.377-1.5-.759-3.009-1.136-4.51-.159-.9-.318-1.79-.483-2.691-.142-.789-.318-1.572-.418-2.368-.248-1.819-.477-3.644-.725-5.464.006.059.012.118.018.183-.182-1.885-.371-3.769-.553-5.653-.065-.636-.112-1.278-.154-1.92.472,3.486,1,6.966,1.714,10.405.471,2.3.889,4.616,1.525,6.878.159.577.289,1.183.489,1.748.165.471.33.937.5,1.408.37,1.042.729,2.073,1.159,3.092.436,1.054.866,2.095,1.355,3.12s.983,2.044,1.519,3.038c1.072,1.985,2.161,3.963,3.4,5.842,1.26,1.908,2.532,3.8,3.9,5.635,1.419,1.885,2.838,3.769,4.286,5.63,1.313,1.69,2.68,3.344,4.081,4.963,1.478,1.708,3.009,3.368,4.581,5l-.006,0c.016.02.032.036.047.052l.018.017v-.006c.353.371.736.713,1.1,1.073.333.315.66.642,1.01.946C33.691,182,33.4,181.845,33.1,181.683Zm33.446,7.26c-.016.013-.034.024-.052.036l-.03.023.015-.014-.027.019-.015.011.009,0-.02.014-.045.034.028-.022c-.83.563-1.654,1.124-2.519,1.618.006-.006.012-.006.018-.012a16.248,16.248,0,0,1-1.531.7c-.147.048-.294.094-.447.13.012,0,.023-.006.035-.006a4.157,4.157,0,0,1-.489.082c-.306.024-.612.042-.918.048-.8-.048-1.578-.136-2.367-.23.07.011.135.024.2.035-.5-.082-1-.159-1.5-.247a20.2,20.2,0,0,0,2.291-.288c1.124-.207,2.255-.413,3.362-.719,1.007-.289,2-.606,2.986-.966.459-.171.918-.341,1.378-.524-.13.1-.259.2-.389.3Zm14.816-5.2c-.489-.029-.984-.035-1.473-.1-.535-.076-1.071-.141-1.6-.206-1.031-.165-2.044-.377-3.05-.642a23.069,23.069,0,0,1-2.523-.9,33.289,33.289,0,0,1-3.277-1.777c-.678-.448-1.325-.913-1.956-1.413-1.265-1.06-2.426-2.238-3.58-3.409-.276-.307-.565-.613-.842-.919-.3-.324-.624-.642-.9-.983-.288-.36-.583-.719-.871-1.078-.442-.636-.871-1.284-1.313-1.926-.454-.671-.954-1.319-1.372-2.014-.489-.812-.984-1.63-1.478-2.443-.577-1.107-1.149-2.214-1.684-3.339-.634-1.327-1.21-2.671-1.8-4.021q-.429-1.146-.859-2.3c-.235-.625-.424-1.272-.624-1.914-.194-.613-.4-1.225-.554-1.849-.206-.8-.406-1.6-.612-2.4-.4-1.878-.795-3.756-1.089-5.659q-.213-1.341-.418-2.684c-.089-.583-.177-1.16-.271-1.744a8.345,8.345,0,0,0-.206-1.136,5.111,5.111,0,0,0-.472-1.077,1.465,1.465,0,0,0-2.013-.466,1.9,1.9,0,0,0-.8.878,4.47,4.47,0,0,0-.307,1.413c-.041.524-.064,1.048-.07,1.578a19.324,19.324,0,0,0,.165,2.8,43.681,43.681,0,0,0,1.154,5.965c.136.5.247,1.025.412,1.513.206.6.406,1.2.612,1.8.33.978.707,1.92,1.1,2.88.365.883.724,1.748,1.136,2.614.441.937.855,1.9,1.342,2.817.568,1.066,1.141,2.125,1.714,3.189l-.017-.035c.029.053.053.106.082.153.006.012.006.018.012.024v-.006l.318.6c.012.024.029.048.041.071l-.006-.006.018.035h0a.133.133,0,0,0,.017.03c.017.035.041.076.058.112v-.006c.419.777.925,1.525,1.378,2.285.342.559.666,1.142,1.019,1.7.171.3.341.607.53.889.624.931,1.219,1.9,1.92,2.774.1.123.2.253.294.377.242.335.483.665.73.989.73.954,1.449,1.908,2.179,2.862.524.677,1.077,1.337,1.619,2,1.378,1.69,2.815,3.351,4.128,5.1.065.094.129.183.189.277-.667.282-1.345.537-2.023.8-1.277.466-2.56.874-3.872,1.24.012,0,.024,0,.041,0a.1.1,0,0,0-.031,0l-.051.012c-.032.009-.061.015-.091.022-.189.04-.378.088-.563.131l.053-.01c-.056.012-.111.027-.166.04-.022,0-.044.007-.063.012s-.054.014-.081.021c-1.083.233-2.176.4-3.27.55-1.148.088-2.279.141-3.427.141-.241-.006-.489-.012-.73-.012h.206c-.159-.006-.324-.006-.483-.006h.035a.565.565,0,0,1-.1-.006h-.059a31.866,31.866,0,0,1-3.191-.306c-.742-.123-1.484-.241-2.208-.412-.124-.03-.253-.059-.383-.094q-1.281-.7-2.544-1.425c-.771-.471-1.549-.943-2.331-1.4-1.49-.918-2.886-1.955-4.287-3-.313-.265-.625-.536-.937-.8-.335-.288-.689-.559-1.006-.866-.625-.6-1.255-1.2-1.879-1.8-.559-.589-1.125-1.178-1.684-1.767-2.02-2.131-3.916-4.4-5.753-6.689-1.9-2.367-3.7-4.8-5.535-7.207-.613-.86-1.26-1.7-1.843-2.58-.654-.983-1.349-1.943-1.961-2.949-.306-.5-.607-1.008-.913-1.514s-.63-1-.912-1.513c-.542-1-1.078-2.008-1.626-3,.035.059.065.117.1.176-.264-.536-.518-1.072-.777-1.607-.23-.471-.483-.936-.689-1.425-.436-1.031-.86-2.061-1.295-3.092q-.566-1.6-1.137-3.2c-.159-.465-.265-.948-.4-1.419-.136-.495-.271-.99-.412-1.478-.23-1.084-.46-2.156-.683-3.239-.466-2.232-.919-4.463-1.278-6.719q-.54-3.419-1.013-6.842-.911-6.667-1.631-13.355c-.265-3.009-.483-6.012-.63-9.027-.018-.453-.041-.906-.059-1.354.239-1.4.522-2.783.838-4.161,1.251-3.112,2.511-6.219,3.808-9.31.689-1.543,1.325-3.115,1.978-4.67s1.334-3.126,1.992-4.7v0c1.289-2.8,2.573-5.617,4.139-8.285.836-1.39,1.79-2.7,2.732-4.016,1-1.407,2.008-2.809,3.08-4.157.331-.41.675-.808,1.015-1.21.371-.395.731-.8,1.117-1.182.765-.518,1.531-1.025,2.308-1.514.954-.594,1.925-1.142,2.909-1.684,2.031-1.03,4.1-1.972,6.224-2.814C37.6,49.8,39.142,49.2,40.72,48.722q2.41-.734,4.852-1.36l-.242.052c1.078-.241,2.161-.488,3.245-.718a.022.022,0,0,1,.018.006c.37.118.735.247,1.1.4.182.083.356.18.533.271a27.149,27.149,0,0,0-3.164,4.858A44.549,44.549,0,0,0,44.4,58.639c-1.1,3.344-1.978,6.754-2.944,10.14l0,0a.113.113,0,0,0-.01.043c-.014.041-.027.083-.038.124l0-.006-.008.026,0,.015v0c-.06.194-.115.393-.171.587-.141.4-.276.806-.394,1.219,0,0-.006.011-.006.023-.018.071-.041.142-.059.212A1.682,1.682,0,0,0,44,71.941c.183-.513.341-1.037.5-1.561.453-1.272,1.007-2.514,1.525-3.757-.03.071-.059.136-.089.2a69.193,69.193,0,0,1,3.81-7.831,36.853,36.853,0,0,1,2.544-3.68A38.606,38.606,0,0,1,55.3,52.044c-.006.011-.018.017-.024.029a40.979,40.979,0,0,1,4.014-3.311,32.578,32.578,0,0,1,3.047-1.932,1.062,1.062,0,0,1,.094-.051l.035-.017c-.006,0-.012.005-.018.005a20.913,20.913,0,0,1,2.191-1,23.144,23.144,0,0,1,2.249-.672,41.4,41.4,0,0,1,4.5-.789h.031c1.837.048,3.663.118,5.5.277.582.05,1.16.121,1.74.187.569.183,1.127.386,1.676.615a25.034,25.034,0,0,1,2.274,1.2c.913.56,1.813,1.166,2.673,1.814.824.612,1.631,1.3,2.5,1.843a7.454,7.454,0,0,0,2.585,1.1,4.947,4.947,0,0,0,2.432-.188,13.1,13.1,0,0,0,3.186-1.855c.862-.616,1.693-1.273,2.523-1.931.1-.017.209-.03.314-.049a25.505,25.505,0,0,0,4.575-1.46c.813-.306,1.619-.624,2.438-.936,1.449-.548,2.891-1.084,4.363-1.549,1.543-.489,3.1-.912,4.67-1.307.536-.118,1.083-.253,1.625-.341.612-.1,1.225-.195,1.831-.295.076-.01.151-.016.223-.025l-.005,0c.094-.012.2-.024.283-.03a1.689,1.689,0,0,0,.241-.029c.135-.012.271-.03.406-.042-.029,0-.064.006-.094.006l.206-.017c.012,0,.03-.006.042-.006h-.018l.353-.036h-.018l.33-.035c-.076.012-.159.018-.241.03.324-.036.653-.036.977-.048s.636-.053.954-.047l1.867.018h-.242c.619.041,1.249.047,1.867.124.577.076,1.154.147,1.725.218.595.111,1.208.188,1.791.341s1.142.288,1.713.442c1.06.335,2.12.683,3.156,1.095,1.072.43,2.138.883,3.2,1.343-.077-.03-.154-.065-.23-.095.942.412,1.884.825,2.832,1.225a18.513,18.513,0,0,0,4.045,1.307,11.683,11.683,0,0,0,3.475.183,16.516,16.516,0,0,0,2.255-.471c.462-.12.916-.269,1.367-.431-.276.242-.555.478-.819.734a39.464,39.464,0,0,0-5.577,7.107c-.889,1.39-1.8,2.773-2.6,4.222a1.845,1.845,0,0,0-1.078,1.784,3.048,3.048,0,0,0,.212,1,1.911,1.911,0,0,0,2.3,1.037,2.7,2.7,0,0,0,.689-.277,3.307,3.307,0,0,0,1.142-1.384c-.023.041-.052.082-.076.124.03-.053.065-.112.1-.165.01-.014.019-.033.029-.049l-.01.015c.027-.044.055-.088.087-.137.053-.088.106-.182.159-.271.041-.066.077-.127.117-.188.044-.077.092-.153.136-.224.053-.088.106-.171.154-.259,1.554-2.4,3.061-4.823,4.84-7.066a31.023,31.023,0,0,1,2.178-2.391,22.76,22.76,0,0,1,1.967-1.643,18.385,18.385,0,0,1,1.649-1.03c.512-.265,1.031-.507,1.56-.719A21.914,21.914,0,0,1,160.119,46a53.093,53.093,0,0,1,5.365-.842c1.643-.142,3.291-.306,4.934-.383q2.737-.141,5.476-.188c.672.017,1.349.041,2.026.064a31.6,31.6,0,0,1,3.627.324c1.031.177,2.049.4,3.056.672a25.067,25.067,0,0,1,2.709.96,26.994,26.994,0,0,1,2.482,1.273,26.843,26.843,0,0,1,1.958,2.4c.347.512.718,1.019,1.024,1.555.319.553.642,1.107.96,1.666,1.084,2.1,2.12,4.2,3.08,6.36,1.03,2.3,2,4.622,2.932,6.96.377,1,.778,1.99,1.119,3,.371,1.078.783,2.143,1.107,3.239.206.677.407,1.354.613,2.037.135.453.294.907.406,1.366q.416,1.74.842,3.48l-.053-.212q.3,1.608.6,3.227c.164.889.27,1.79.4,2.685.259,1.843.471,3.7.677,5.553q.177,1.926.342,3.862c.053.583.07,1.166.106,1.75.035.647.094,1.3.112,1.942.035,1.273.111,2.544.106,3.817-.012,1.171-.024,2.337-.03,3.509,0-.041.006-.083.006-.124,0,.047-.006.1-.006.135v.006c-.094,2.362-.194,4.717-.388,7.072-.195,2.45-.454,4.9-.754,7.343-.183,1.125-.371,2.238-.6,3.357-.206.989-.483,1.967-.754,2.944-.677,2.2-1.436,4.369-2.219,6.542-.79,2.2-1.6,4.387-2.5,6.548-.595,1.319-1.207,2.632-1.843,3.928-.583,1.171-1.231,2.3-1.873,3.438-1.06,1.738-2.149,3.439-3.3,5.124-1.007,1.477-2.114,2.9-3.233,4.309-.306.366-.624.731-.936,1.1-.295.342-.577.7-.883,1.031-.7.736-1.4,1.46-2.109,2.184-.423.377-.841.759-1.26,1.142-.353.319-.7.683-1.077.978-.9.689-1.8,1.372-2.673,2.085-.754.506-1.49,1.024-2.244,1.536-1.278.872-2.6,1.667-3.963,2.415a54.138,54.138,0,0,1-6.108,2.761c-1.847.682-3.731,1.259-5.616,1.843-1.384.424-2.809.736-4.2,1.119q-1.608.345-3.215.7c-.795.171-1.584.306-2.391.442-.55.09-1.1.186-1.652.275-.269-.1-.543-.184-.809-.3-.479-.221-.945-.466-1.406-.734l0,0a18.762,18.762,0,0,1-1.59-1.112c-.306-.266-.606-.543-.895-.831-.206-.224-.406-.459-.6-.706-.135-.2-.259-.4-.382-.613-.089-.177-.177-.359-.254-.542-.058-.17-.111-.347-.159-.524-.041-.206-.07-.412-.1-.624-.011-.218-.023-.43-.023-.648.018-.377.059-.748.112-1.124.06-.341.134-.675.214-1.009l.015-.019a30.513,30.513,0,0,0,2.379-3.627,94.65,94.65,0,0,0,5.989-11.882c.877-2.15,1.737-4.323,2.414-6.549.66-2.161,1.278-4.322,1.82-6.512a3.044,3.044,0,0,0,.176-1.131,1.6,1.6,0,0,0-.233-.695,1.709,1.709,0,0,0-.709-1.245,1.749,1.749,0,0,0-2.1.082,2.86,2.86,0,0,0-.836,1.525c-.36,1.149-.83,2.273-1.249,3.4-.194.518-.394,1.036-.594,1.554-.124.3-.254.595-.377.9-.542,1.189-1.09,2.384-1.608,3.586.03-.071.059-.142.089-.207-.666,1.437-1.384,2.856-2.1,4.27-.818,1.642-1.619,3.285-2.4,4.945-.3.625-.566,1.255-.837,1.891-.341.8-.724,1.6-1.03,2.414-.165.436-.324.866-.489,1.3-.512.877-1.024,1.754-1.531,2.638-.494.759-1.018,1.5-1.519,2.255-.353.53-.707,1.054-1.06,1.578-.165.235-.306.5-.483.712-.584.736-1.157,1.473-1.732,2.212-.635.7-1.281,1.4-1.959,2.067q-.946.661-1.885,1.342c.053-.041.106-.076.159-.117a4.748,4.748,0,0,0-1.713,1.743c-.271.2-.542.406-.819.612a39.985,39.985,0,0,1-3.938,2.46,43.707,43.707,0,0,1-4.319,1.983,39.083,39.083,0,0,1-3.826,1.233c-.754.207-1.519.406-2.279.607-.9.2-1.8.361-2.712.506-.248-.164-.492-.332-.733-.516-.335-.276-.647-.571-.954-.877-.282-.306-.547-.63-.8-.965a12.033,12.033,0,0,1-.712-1.149c-.171-.353-.33-.706-.471-1.072s-.242-.73-.342-1.1c-.106-.488-.182-.983-.247-1.477a20.538,20.538,0,0,1-.086-2.087c.019-.869.082-1.726.174-2.577.572-1.26,1.09-2.544,1.543-3.851a59.467,59.467,0,0,0,1.814-6.495c.2-.883.377-1.767.553-2.65.147-.748.289-1.5.389-2.255a8.125,8.125,0,0,0,.165-1.6,3.452,3.452,0,0,0-.318-1.278,1.682,1.682,0,0,0-3-.076,14.629,14.629,0,0,0-.754,1.843c-.118.371-.23.742-.336,1.118v0a.792.792,0,0,0-.029.106c-.006.018-.012.029-.018.047v-.006c-.235.842-.477,1.678-.718,2.508l.006-.006c-.183.613-.33,1.237-.489,1.855-.147.548-.306,1.1-.43,1.649-.271,1.166-.589,2.332-.812,3.516-.277,1.484-.56,2.967-.766,4.463-.553,1.172-1.154,2.32-1.813,3.439a31.471,31.471,0,0,1-2.056,2.973,23.4,23.4,0,0,1-1.616,1.775c-.071-.15-.144-.3-.209-.452a12.854,12.854,0,0,1-.411-1.329c-.069-.338-.126-.677-.178-1.015-.006-.076-.011-.159-.023-.241.806-1.755,1.519-3.545,2.167-5.364.4-1.131.736-2.279,1.083-3.427.324-1.084.554-2.191.807-3.286.241-1.013.359-2.055.53-3.08.106-.636.147-1.284.218-1.925.047-.419.088-.831.117-1.249.083-1.119.177-2.237.206-3.356.018-.742.053-1.49.03-2.226a7.89,7.89,0,0,0-.171-1.661,2.518,2.518,0,0,0-.241-.653,6.051,6.051,0,0,0-.347-.507,1.461,1.461,0,0,0-2.3.094,3.812,3.812,0,0,0-.642,1.443c-.076.371-.153.736-.224,1.107-.112.542-.223,1.078-.329,1.619q-.707,3.551-1.467,7.085c-.459,2.137-.942,4.269-1.378,6.412-.206,1.042-.406,2.085-.571,3.133-.064.406-.123.812-.176,1.224a1.214,1.214,0,0,0-.042.295,23.233,23.233,0,0,0-.229,3.256c-.065.13-.124.259-.189.389-.418.854-.859,1.684-1.325,2.508-.371.589-.759,1.166-1.159,1.737a14.8,14.8,0,0,1-1.19,1.325c-.271.241-.553.465-.842.683-.406.271-.813.53-1.231.777-.169.085-.342.157-.513.238-.157-.019-.317-.022-.475-.046a28.46,28.46,0,0,1-2.8-.6l.017,0-.083-.023-.041-.011a.386.386,0,0,0-.064-.02.249.249,0,0,1,.035.008c-1.467-.436-2.868-1.031-4.287-1.567-.018,0-.036-.017-.053-.023l.035.018c-.023-.012-.047-.018-.065-.03-.041-.018-.088-.036-.129-.053l.02.006c-.547-.241-1.093-.477-1.645-.718.017,0,.029.011.047.017-1.084-.471-2.138-1.013-3.192-1.549s-2.072-1.083-3.091-1.654c-.041-.024-.083-.048-.118-.071-.143-.084-.29-.168-.435-.255l.011.008c-.262-.164-.523-.322-.785-.481l.014.01-.723-.431-.006,0-.013-.008,0,0c-.079-.048-.155-.1-.235-.144.035.017.065.041.1.059a34.579,34.579,0,0,1-2.956-2.1c.018.018.041.036.059.054-.041-.03-.076-.065-.112-.095a.227.227,0,0,1-.041-.029.146.146,0,0,0,.029.018,33.852,33.852,0,0,1-3.111-2.871,41.419,41.419,0,0,1-3.141-3.821,49.666,49.666,0,0,1-3.229-5.152A52.217,52.217,0,0,1,56.96,154.9c-.418-1.13-.8-2.267-1.143-3.421-.282-.954-.565-1.907-.842-2.861-.171-.584-.294-1.178-.435-1.767-.189-.754-.365-1.5-.548-2.25-.288-1.378-.6-2.755-.854-4.145a1.261,1.261,0,0,0-.006-.336,16.608,16.608,0,0,0-.37-1.931,1.149,1.149,0,0,0-2.244.388c.041.407.077.819.147,1.225.3,1.755.589,3.522.983,5.259.371,1.613.707,3.244,1.155,4.84.306,1.09.606,2.179.912,3.268.236.837.536,1.661.831,2.479.4,1.084.818,2.161,1.289,3.215a51.206,51.206,0,0,0,3.421,6.477,42.6,42.6,0,0,0,4.222,5.718,35,35,0,0,0,5.276,4.864c1.1.8,2.226,1.519,3.374,2.243,1.484.931,3.033,1.761,4.576,2.586.742.394,1.5.759,2.249,1.13s1.531.736,2.308,1.054c.639.261,1.275.525,1.915.783-.095,0-.189.016-.283.021C82.38,183.773,81.868,183.755,81.362,183.743ZM97.154,181c-.387.2-.779.376-1.181.541a18.248,18.248,0,0,0,1.5-2.1c.149.357.317.706.5,1.046C97.7,180.653,97.434,180.837,97.154,181Zm10.286,2.617c-.522-.083-1.032-.189-1.541-.317-.418-.13-.825-.277-1.231-.436-.353-.165-.7-.347-1.048-.536-.354-.223-.689-.465-1.025-.724-.1-.082-.183-.173-.276-.257q.639-.591,1.23-1.242a26.7,26.7,0,0,0,2.126-2.679,13.246,13.246,0,0,0,1.366,4.157A12.967,12.967,0,0,0,108.5,183.7C108.145,183.673,107.792,183.656,107.44,183.613Zm35.438-6.547c-.5.035-1.007.012-1.5.012l-1.308.018c-.8-.042-1.6-.089-2.4-.136-.528-.028-1.058-.106-1.587-.179.783-.878,1.545-1.768,2.27-2.692l.614-.781q.96-.824,1.856-1.714a8.06,8.06,0,0,0,1.016,2.554,11.668,11.668,0,0,0,2.549,2.812Zm66.533-67.691c-.023.677-.047,1.348-.07,2.02-.012.306-.006.612-.036.912-.2,1.991-.406,3.987-.6,5.972-.171.959-.33,1.919-.5,2.879-.112.671-.23,1.336-.342,2-.047.3-.082.607-.153.9-.465,1.89-.948,3.774-1.413,5.67-.577,1.784-1.177,3.557-1.76,5.335-.248.76-.595,1.5-.89,2.244-.329.824-.653,1.654-.989,2.485-.577,1.26-1.183,2.52-1.772,3.786-.507,1.078-1.107,2.12-1.667,3.174-.488.919-.983,1.813-1.513,2.709-.7,1.166-1.4,2.319-2.073,3.5a72.669,72.669,0,0,1-4.487,6.5c.03-.03.059-.065.089-.1-.66.812-1.319,1.637-2.032,2.4-.359.389-.73.772-1.095,1.161-.725.765-1.437,1.56-2.179,2.307l-2.7,2.485a52.9,52.9,0,0,1-4.44,3.669,42.718,42.718,0,0,1-4.18,2.692l.017-.007-.03.014-.017.01.01-.007-.039.018c-.042.024-.088.054-.13.077l.053-.035a30.8,30.8,0,0,1-3.125,1.417c-.826.3-1.658.554-2.51.768a41.582,41.582,0,0,1-4.3.73h.039a1.02,1.02,0,0,0-.124.011.506.506,0,0,0-.069.006h.016l-.031,0-.016,0,.008,0c-1.141.109-2.288.174-3.435.243-.351.019-.7.031-1.05.047q1.266-.337,2.534-.673c1.083-.289,2.149-.665,3.215-1a53.142,53.142,0,0,0,6.153-2.338,46.035,46.035,0,0,0,6.772-3.71l1.943-1.324c.359-.248.73-.483,1.078-.748.512-.389,1.013-.79,1.519-1.184.4-.312.83-.6,1.213-.942.459-.412.919-.824,1.378-1.243.406-.365.836-.712,1.219-1.107a60.108,60.108,0,0,0,4.434-4.9c.748-.948,1.484-1.89,2.2-2.861.683-.931,1.331-1.879,1.985-2.827.612-.889,1.177-1.808,1.742-2.727s1.143-1.843,1.649-2.8c1.054-1.966,2.067-3.951,2.95-5.994l-.007.015.062-.141,0,0,.022-.048.02-.046,0,0c.069-.157.137-.31.2-.464-.012.018-.018.041-.03.059.66-1.514,1.249-3.068,1.814-4.617.724-1.967,1.46-3.921,2.114-5.912a52.612,52.612,0,0,0,2.6-12.872c.229-2.308.4-4.616.547-6.931.211-3.244.242-6.5.15-9.752.01.114.024.227.027.339q.079,2.916.147,5.83C209.482,107.438,209.447,108.41,209.411,109.375Z"/><polygon points="72.228 174.72 72.23 174.721 72.23 174.721 72.228 174.72"/><path d="M54.274,115.737c2.838-.99,5.653-2.073,8.42-3.239q5.054-2.129,9.987-4.5c1.566-.754,3.127-1.52,4.7-2.268,1.872-.888,3.939-1.807,5.258-3.468a5.884,5.884,0,0,0,1.155-2.414,3.483,3.483,0,0,0,.041-1.331,2.306,2.306,0,0,0-.566-1.136,3.332,3.332,0,0,0-1.342-.825c-.277-.106-.548-.206-.824-.294-.5-.153-.99-.306-1.484-.465-.913-.289-1.849-.507-2.768-.754-.836-.229-1.678-.424-2.514-.636-3.651-.931-7.314-1.808-10.935-2.838a1.707,1.707,0,0,0-1.784.471c-.99-.23-1.979-.46-2.968-.683-1.56-.354-3.121-.731-4.669-1.136-3.522-.931-7.049-1.814-10.559-2.8a7.053,7.053,0,0,0-2.119-.394,3.642,3.642,0,0,0-1.92.465,4.63,4.63,0,0,0-1.69,3.692c-.047.825,0,1.673.035,2.5.042.972.136,1.937.2,2.914.041.642.076,1.29.111,1.932.136,2.491.26,4.976.319,7.466.047,1.861.094,3.722.129,5.583.012.936.03,1.866.047,2.8a11.626,11.626,0,0,0,.148,2.268,3.2,3.2,0,0,0,.471,1.183,2.618,2.618,0,0,0,1.077.866,3.813,3.813,0,0,0,1.666.342,9.449,9.449,0,0,0,1.478-.142,24.468,24.468,0,0,0,3.374-.771c.948-.3,1.9-.571,2.851-.854.677-.2,1.342-.418,2.013-.642C52.49,116.326,53.4,116.066,54.274,115.737ZM43.755,95.079c.111.156.239.291.361.433-.03.085-.067.165-.094.251a14.2,14.2,0,0,0-.359,1.478c-.112.547-.229,1.083-.347,1.625-.1.471-.206.942-.312,1.413.114-2,.232-4,.278-6.01A5.931,5.931,0,0,0,43.755,95.079Zm2.255-1.961.129-.035c.06-.012.118-.018.177-.029.077,0,.153-.006.236-.006.194.012.382.029.577.052.761.132,1.505.333,2.253.515a1.784,1.784,0,0,0-.236.8,2.27,2.27,0,0,0,.182.942c.02.052.044.1.064.151-.621-.281-1.237-.574-1.828-.915-.115-.075-.227-.156-.34-.233a1.366,1.366,0,0,0-1.011-1.015c-.02,0-.042,0-.062,0C46.105,93.269,46.053,93.2,46.01,93.118Zm2.4,5.167a10.462,10.462,0,0,0-.52,1.379c-.027.091-.045.183-.07.274a1.616,1.616,0,0,0-.543.83c-.124.477-.248.948-.383,1.419l.005-.024c-.005.017-.011.033-.017.048a.6.6,0,0,1-.015.064l.009-.029c-.188.642-.382,1.289-.571,1.931.088-.612.177-1.219.265-1.825.13-.9.265-1.8.395-2.7.089-.641.17-1.286.23-1.931C47.592,97.916,48,98.1,48.406,98.285Zm8.753,4.449c-.055.105-.108.214-.165.319.019-.127.036-.257.054-.385C57.086,102.689,57.121,102.714,57.159,102.734ZM50.465,100.8c.06-.216.145-.425.218-.638l-.048.181c-.062.191-.131.379-.194.569C50.45,100.876,50.455,100.838,50.465,100.8Zm8.579,4.966c0,.179.005.353.005.531-.13.06-.262.116-.393.175C58.784,106.237,58.92,106,59.044,105.767Zm-2.27-8.215c.489.13.983.248,1.472.371l1.214.3c-.126.254-.255.506-.384.758-.17-.043-.341-.08-.512-.127-.522-.157-1.042-.325-1.562-.495a1.458,1.458,0,0,0-.414-.328A1.551,1.551,0,0,0,55.6,97.9l-.666-.221c-.065-.018-.13-.042-.2-.065l0,0a4.263,4.263,0,0,0,.006-.53,2.639,2.639,0,0,0,.688.126C55.881,97.324,56.327,97.436,56.774,97.552Zm9.895,6.89a2.715,2.715,0,0,0,.3-.1,1.927,1.927,0,0,0,.244-.154c.364,0,.727-.033,1.093-.038.512,0,1.018-.006,1.531,0,.306,0,.612,0,.913.006-.907.188-1.82.377-2.733.571-.543.115-1.081.251-1.623.377A1.423,1.423,0,0,0,66.669,104.442Zm-12.6,7.626c.772-.319,1.543-.637,2.322-.939.052-.021.1-.037.156-.057.021-.009.042-.015.067-.026s.044-.016.065-.024a.083.083,0,0,1-.029.006l.235-.088c-.047.018-.1.036-.153.059l2.008-.759h-.006c.4-.135.784-.284,1.176-.427-1.013.412-2.025.828-3.043,1.225C55.931,111.361,55,111.717,54.073,112.068Zm26.41-12.589a2.164,2.164,0,0,1-.141.259c-.065.1-.13.194-.2.283-.112.129-.224.247-.336.365-.171.153-.347.288-.524.418-.318.206-.636.406-.966.6-.379.2-.765.376-1.149.563l-.022-.019a2.332,2.332,0,0,0-.924-.354,8.136,8.136,0,0,0-1.125-.1c-.459-.041-.918-.065-1.378-.076-.477-.012-.959-.018-1.436-.024.207-.1.419-.187.631-.279a2.289,2.289,0,0,0,.31.1,5.817,5.817,0,0,0,2.785-.165l-.014,0a2.908,2.908,0,0,1,.3-.052l.506-.036a1.574,1.574,0,0,0,1.49-1.619,1.415,1.415,0,0,0-.031-.207c.054-.019.109-.032.161-.055a1.561,1.561,0,0,0,.263-.179C79.289,99.091,79.9,99.261,80.483,99.479ZM42.32,91.494c.133.013.264.034.4.049a1.439,1.439,0,0,0-.165.4,1.294,1.294,0,0,0-1.514.829c-.013-.4-.022-.8-.019-1.2A1.608,1.608,0,0,0,42.32,91.494Zm-.459,21.411c-.007-.285-.015-.566-.022-.85a1.251,1.251,0,0,0,.588-.411c-.048.312-.095.624-.148.936-.082.554-.235,1.1-.294,1.643a4.041,4.041,0,0,0,.006,1.131,1.644,1.644,0,0,0,.06.2c-.03,0-.061,0-.09,0C41.9,114.671,41.89,113.782,41.861,112.905Z"/><path d="M112.5,96.217a4.128,4.128,0,0,0,1.266,1.36,9.367,9.367,0,0,0,.907.689,35.448,35.448,0,0,0,4.923,2.6c1.03.471,2.084.907,3.133,1.337l-.036-.018c.972.418,1.967.806,2.95,1.225l-.229-.106c1.095.483,2.2.936,3.309,1.389,1.089.442,2.161.925,3.25,1.373l-.153-.072c1.125.5,2.261.96,3.392,1.449-.035-.011-.071-.029-.1-.041,1,.442,2.014.865,3.021,1.29,1.207.524,2.437,1.013,3.668,1.49.918.347,1.82.706,2.756,1a28.9,28.9,0,0,0,4.033.955h-.006c.371.059.748.112,1.119.171l-.006,0c.1.016.208.028.313.045.017,0,.041,0,.058.011,0-.006-.017-.006-.023-.006h.012a20.553,20.553,0,0,0,2.632.212h.418a7.448,7.448,0,0,0,2.4-.312,5.807,5.807,0,0,0,2.026-1.19,9.2,9.2,0,0,0,2.4-4.5,27.421,27.421,0,0,0,.83-4.523c.277-2.8.524-5.6.736-8.408.306-3.975.648-7.938,1.083-11.9.095-.872.207-1.744.312-2.615.065-.483.124-.972.183-1.454a8.2,8.2,0,0,0,.083-2.3,3.6,3.6,0,0,0-.424-1.307c.011-.118.029-.236.047-.347a1.883,1.883,0,0,0-1.7-2.032,1.964,1.964,0,0,0-1.69.754,11.079,11.079,0,0,0-1.119.1,19.786,19.786,0,0,0-3.35.813,1.33,1.33,0,0,0-.5-.213,4.381,4.381,0,0,0-2.573.819c-.619.3-1.243.583-1.867.865-1.36.619-2.738,1.184-4.116,1.755-2.52,1.043-5.058,2.038-7.584,3.062-1.831.748-3.657,1.526-5.482,2.291-1.643.689-3.268,1.431-4.905,2.131-1.779.766-3.522,1.614-5.277,2.432-1.606.758-3.228,1.5-4.792,2.34l-.5.263c.064-.035.129-.065.194-.1-.253.135-.506.271-.754.406l.2-.106c-.159.077-.307.159-.46.242a14.723,14.723,0,0,0-1.307.771,11.781,11.781,0,0,0-2.238,1.714,3.778,3.778,0,0,0-.953,1.642,3.7,3.7,0,0,0,.106,1.738A2.677,2.677,0,0,0,112.5,96.217Zm34.695,9.6c-1.661-.742-3.327-1.454-4.988-2.173.077.036.159.071.236.106-1.8-.789-3.674-1.449-5.535-2.084-1.07-.364-2.147-.707-3.225-1.046a1.629,1.629,0,0,0,1.325-.307c1.065-.831,2.155-1.637,3.185-2.515q1.113-.953,2.238-1.9c.182-.158.365-.312.547-.471-.459.56-.924,1.113-1.366,1.684-.594.76-1.107,1.567-1.631,2.367a1.588,1.588,0,0,0,.224,2.05,1.572,1.572,0,0,0,1.89.177c.766-.507,1.549-.99,2.273-1.561.13-.1.259-.206.389-.312-.148.23-.3.459-.442.689a1.69,1.69,0,0,0-.218,1.413,1.608,1.608,0,0,0,.813.972,2.656,2.656,0,0,0,1.625.383,3.618,3.618,0,0,0,1.348-.531c.63-.429,1.2-.942,1.8-1.407.518-.4,1.043-.8,1.566-1.195.283-.218.56-.442.837-.666-.195,1.5-.359,3-.571,4.493-.128.814-.278,1.631-.337,2.46-.156-.037-.316-.058-.472-.1C148.2,106.2,147.7,106.015,147.2,105.821Zm-7.413-22.39c.367-.158.733-.32,1.1-.476l-.77.45c-.083.047-.159.089-.236.136-.006-.006-.006-.018-.012-.024C139.843,83.484,139.809,83.462,139.783,83.431Zm10.959,11.592a3.365,3.365,0,0,0-.406.218c-.288.182-.559.383-.83.583-.006.006-.012.012-.018.012.465-.624.942-1.249,1.413-1.873Zm1.871-16.789c1.714-.642,3.439-1.284,5.212-1.755.253-.059.512-.106.765-.153-.424,2.9-.828,5.792-1.194,8.692l-.035-.011a1.629,1.629,0,0,0-1.767.83.03.03,0,0,0-.011.018,1.515,1.515,0,0,0-2.532-.053,8.471,8.471,0,0,0-.554.925c-.671.635-1.342,1.277-2,1.919l.153-.153c-.029.03-.065.059-.094.088-.065.065-.136.124-.206.189l.095-.118-.03.035c.185-.227.371-.459.552-.686l-.123.156c.039-.048.082-.1.122-.154l0,.007a.912.912,0,0,0,.059-.082c.016-.016.032-.035.048-.054h0l0,0,.019-.024,0,0c.03-.038.064-.077.1-.115h0c.034-.045.068-.091.108-.136l.006-.006c.028-.038.057-.076.088-.114.722-.91,1.374-1.879,2.061-2.818a1.566,1.566,0,0,0-1.937-2.321c-.159.083-.324.165-.483.254a1.7,1.7,0,0,0-.183-.289,1.558,1.558,0,0,0-2.172-.206c-.86.683-1.726,1.354-2.609,2.008-.57.42-1.14.83-1.705,1.25l0,0-.026.019-.015.011,0,0a.367.367,0,0,0-.038.027.322.322,0,0,1,.029-.024l.065-.048-.092.066-.026.017-.01.01-.025.019,0,0-.019.014c-.235.171-.477.336-.712.507.9-.8,1.8-1.579,2.709-2.373l1.177-1.037c.194-.135.389-.276.583-.418-.013.009-.025.02-.038.03.065-.048.126-.092.191-.142-.047.042-.1.077-.153.118.076-.053.159-.118.236-.171,1.183-.83,2.661-1.578,3.327-2.926a1.476,1.476,0,0,0,.126-.439c.325-.126.649-.254.973-.381ZM120.2,93.046a1.282,1.282,0,0,0,1.2,1.754,8.226,8.226,0,0,0,1.466-.177,11.028,11.028,0,0,0,1.426-.5c.559-.241,1.112-.483,1.678-.712.441-.177.889-.354,1.331-.531-.319.225-.637.448-.949.678a14.208,14.208,0,0,0-1.289,1c-.306.288-.607.589-.913.883a1.422,1.422,0,0,0,1.8,2.167c1.243-.842,2.473-1.684,3.686-2.573.236-.177.471-.348.713-.524a1.5,1.5,0,0,0,.076,1.443,1.531,1.531,0,0,0,1.525.688c.077-.011.159-.023.236-.029l-.195.018a7.458,7.458,0,0,0,1.3-.212,6.735,6.735,0,0,0,1.089-.489c.083-.041.159-.088.242-.136-.365.354-.719.713-1.049,1.1a7.316,7.316,0,0,0-.953,1.5,1.487,1.487,0,0,0,.827,2.154l-1.877-.589c-1.955-.612-3.9-1.254-5.853-1.879-.86-.27-1.708-.582-2.556-.877-1.489-.518-2.974-1.036-4.422-1.649l.241.107c-.641-.277-1.277-.554-1.9-.878C118.109,94.178,119.155,93.613,120.2,93.046Z"/><path d="M117.7,88.892c.04-.022.083-.041.124-.063l.07-.037C117.83,88.827,117.765,88.856,117.7,88.892Z"/></svg>