<svg xmlns="http://www.w3.org/2000/svg" width="284.736" height="310.448" viewBox="0 0 284.736 310.448"><path d="M43.721,161.263a10.245,10.245,0,0,0,3.363,1.066,9.567,9.567,0,0,0,1.119.065,17.675,17.675,0,0,0,7.183-1.967,30.3,30.3,0,0,0,7.638-5.159c.746-.666,1.483-1.348,2.179-2.063.317.078.631.164.942.263.235.09.466.188.7.292.2.1.4.2.592.318.193.139.376.282.558.434.189.181.372.366.547.558.14.178.276.356.408.538.184.295.355.6.518.9.219.474.418.953.591,1.447a26.807,26.807,0,0,1,.69,2.907c.481,2.752.622,5.55.831,8.326.113,2.428.209,4.856.255,7.291.053,2.886.083,5.777.365,8.65a2.126,2.126,0,0,0,2.111,1.859,1.934,1.934,0,0,0,.251-.016,2.148,2.148,0,0,0,1.843-2.361c-.33-3.933-.489-7.878-.813-11.818-.147-1.813-.283-3.633-.471-5.447-.106-1.019-.188-2.043-.324-3.056-.182-1.39-.359-2.791-.659-4.163a22.443,22.443,0,0,0-1.025-3.6,12.1,12.1,0,0,0-1.878-3.25,7.966,7.966,0,0,0-3.94-2.609c.088-.132.179-.262.263-.4.907-.133,1.813-.263,2.715-.408,1.163-.188,2.355-.253,3.524-.394.967-.054,1.933-.141,2.9-.218l-.212.017a39.461,39.461,0,0,1,4.294-.066c.342.029.679.06,1.018.109.273.058.541.128.808.211.069.027.134.056.2.082s.105.06.156.091c.077.056.153.114.227.175.179.169.349.343.515.524.142.179.274.362.4.55.324.535.623,1.079.9,1.634a62.087,62.087,0,0,1,2.424,6.439c.382,1.274.747,2.538,1.1,3.818.418,1.525.689,3.1,1.03,4.64a2.364,2.364,0,0,0,2.312,1.766,2.236,2.236,0,0,0,.562-.07,2.387,2.387,0,0,0,1.7-2.873c-.336-1.549-.725-3.062-1.166-4.581-.371-1.267-.854-2.5-1.308-3.734-.777-2.079-1.613-4.157-2.567-6.165-1.066-2.249-2.444-4.622-4.828-5.647a6.442,6.442,0,0,0-1.914-.436,17.571,17.571,0,0,0-1.849-.059c-.8.024-1.6.077-2.391.147-2.067.183-4.128.4-6.177.69-.974.138-1.95.281-2.923.435a11.252,11.252,0,0,0,.523-2.732,7.717,7.717,0,0,0-.364-2.778,8.765,8.765,0,0,0,.258-1.544c.02-.266.026-.534.034-.8.791-.41,1.587-.811,2.38-1.216,1.034-.493,2.067-.987,3.1-1.492l-.212.106q.316-.155.641-.309l.13-.062-.123.061c1.264-.581,2.516-1.178,3.762-1.781l-.163.074c.943-.454,1.891-.908,2.833-1.362l.076-.037c.92-.44,1.834-.9,2.748-1.348l-.055.025c.768-.364,1.53-.747,2.293-1.126l-.224.106A43.238,43.238,0,0,1,91,128.783c.1-.028.2-.052.3-.074.213-.037.424-.064.638-.086.093,0,.188,0,.283,0,.124.013.247.029.37.05.106.025.213.054.319.087l.166.069a5.015,5.015,0,0,1,.445.265c.242.18.48.364.709.56.406.386.784.8,1.156,1.215,1.365,1.572,2.552,3.278,3.765,4.961.725,1,1.419,2.02,2.12,3.038,1.531,2.221,3.074,4.434,4.575,6.678a2.143,2.143,0,0,0,3.569-2.355c-1.042-1.625-2.138-3.192-3.28-4.74s-2.255-3.109-3.4-4.647q-.989-1.316-1.978-2.632c-.642-.859-1.319-1.7-2.032-2.5a15.886,15.886,0,0,0-2.673-2.556,7.866,7.866,0,0,0-1.749-.953,6.37,6.37,0,0,0-1.625-.348,7.464,7.464,0,0,0-3.38.542c-1.443.565-2.821,1.3-4.21,1.99-1.575.785-3.129,1.629-4.713,2.4l.014-.007c-.583.283-1.16.577-1.743.866-.486.237-.988.464-1.465.722-1.142.532-2.273,1.1-3.405,1.663l.133-.062.022-.011.045-.021-.036.017.054-.023-.075.033-.024.011-.08.038c-1.032.489-2.048,1-3.067,1.512.169-.268.338-.536.512-.8,2.445-3.664,5.315-7.009,8.048-10.447,1.036-1.3,2.131-2.561,3.2-3.839.851-1.022,1.724-2.021,2.6-3.024.64-.7,1.28-1.407,1.906-2.123.89-.948,1.786-1.9,2.762-2.762q.448-.378.928-.721c.061-.038.122-.075.185-.109s.149-.07.224-.1c.032-.01.065-.019.1-.027s.053,0,.079.005l.107.02c.093.026.184.056.275.085.227.087.454.184.677.286a18.855,18.855,0,0,1,1.742,1.017c.526.361,1.047.734,1.537,1.142l-.051-.046.068.06.132.111-.113-.094c.459.4.919.8,1.373,1.207.336.294.642.624.954.942.737.743,1.422,1.511,2.109,2.3.49.59.976,1.183,1.486,1.758l.011.012.079.092-.005-.006.007.008.182.21c-.024-.03-.049-.06-.074-.089l.183.209-.109-.12c.241.271.477.542.718.813-.065-.071-.13-.147-.194-.218l.191.218-.02-.024.024.029.129.144-.03-.037a34.926,34.926,0,0,0,2.538,2.567,2.084,2.084,0,1,0,2.938-2.956c-.745-.75-1.484-1.518-2.2-2.308l0,.006-.023-.026-.041-.045c.022.024.044.048.065.073s.028.034.041.051l-.177-.2-.011-.013,0,.006c-.051-.06-.1-.118-.153-.177-.031-.037-.064-.073-.1-.11s-.062-.071-.092-.108l.047.057-.444-.506.061.072c-.022-.027-.046-.054-.069-.081l-.119-.136.036.04-.042-.049.024.026-.165-.19-.024-.027.007.009-.125-.145c.011.013.021.027.032.039l-.079-.086c.028.029.055.059.082.089s.048.058.072.086l.035.043q-.693-.806-1.4-1.595l.036.04-.12-.136.055.063-.093-.106c-.963-1.078-2-2.071-3.062-3.054-.542-.5-1.137-.948-1.714-1.407a20.524,20.524,0,0,0-3.492-2.261c-1.425-.718-3.109-1.348-4.7-.825a8.726,8.726,0,0,0-3.333,2.456c-.942.984-1.854,1.99-2.732,3.033q-1.942,2.3-3.839,4.657c-1.107,1.372-2.22,2.75-3.3,4.146-1.278,1.649-2.567,3.291-3.851,4.934-.859,1.1-1.7,2.226-2.5,3.356-.778,1.084-1.537,2.185-2.226,3.328l-.034.057a12.215,12.215,0,0,0-.949-1.931,13.993,13.993,0,0,0-6.483-5.895,16.435,16.435,0,0,0-4.975-1.125q.043-2.623.089-5.254c.059-3.279.077-6.565-.024-9.851-.053-1.86-.123-3.721-.259-5.582-.07-.942-.159-1.884-.288-2.815a12.448,12.448,0,0,0-.336-1.737,3.69,3.69,0,0,0-.647-1.219,3.511,3.511,0,0,0-2.385-1.265,9.768,9.768,0,0,0-3.481.3,24.676,24.676,0,0,0-2.685.771c-.9.324-1.8.642-2.7.972-.865.312-1.7.724-2.555,1.036-.43.159-.848.371-1.266.553-.316.136-.631.271-.943.417l.066-.034c-1.054.507-2.1,1.013-3.127,1.561a1.922,1.922,0,0,0,1.9,3.344c.411-.217.822-.438,1.238-.65-.052.026-.1.05-.155.073l.083-.04-.024.011.165-.079.005,0c.443-.214.882-.427,1.322-.644l.3-.145-.14.064c-.054.028-.107.054-.161.078.047-.022.094-.046.141-.069l-.069.033c.031-.016.063-.031.095-.045l.016-.009-.007,0a75.128,75.128,0,0,1,7.953-3.282,24.129,24.129,0,0,1,2.462-.674c.263-.042.529-.076.794-.1.082,0,.166,0,.246,0l-.1-.008.022,0c.125.009.251.023.376.044l.045.011.01.009.015.02.02.041.011.039-.006-.018c.085.323.164.648.233.971a74.048,74.048,0,0,1,.9,8.856l0-.029c.023.577.047,1.148.065,1.72.123,3.409.129,6.812.111,10.222,0,.832,0,1.664,0,2.5-.326.045-.65.1-.97.172a14.3,14.3,0,0,0-1.762.518,15.233,15.233,0,0,0-4.409.86c-.5.179-1,.385-1.486.613-.832-1.621-1.665-3.239-2.465-4.871-1.063-2.173-2.115-4.351-3.212-6.5-.341-.72-.693-1.438-1.039-2.155-.707-1.46-1.414-2.908-2.168-4.346-.141-.276-.294-.547-.441-.818a4.984,4.984,0,0,0-1.219-1.707,2.823,2.823,0,0,0-2.4-.46,3.18,3.18,0,0,0-1.714,1.256c-1.148,1.191-2.4,2.285-3.632,3.384s-2.431,2.176-3.642,3.266l-.1.086-.077.067-.029.026.013-.011q-2.195,1.913-4.381,3.845l.051-.048q-2.817,2.4-5.7,4.735-1.474,1.191-2.95,2.384c-.577.459-1.148.919-1.719,1.39a18.055,18.055,0,0,0-1.773,1.6c-.53.571-.977,1.189-1.454,1.8a2.658,2.658,0,1,0,4.234,3.216c.192-.244.384-.487.582-.728.211-.221.429-.431.654-.641,1.39-1.207,2.858-2.326,4.287-3.489,1.29-1.048,2.579-2.091,3.845-3.163,1.307-1.1,2.626-2.19,3.916-3.314q2.048-1.8,4.085-3.615l-.063.052.141-.122c.045-.04.09-.08.136-.119l-.06.055c1.3-1.123,2.557-2.3,3.834-3.459.515-.47,1.031-.946,1.546-1.423,1.03,2.155,2.033,4.319,3.068,6.472l-.027-.056.037.076c.041.084.081.169.122.254-.032-.067-.064-.135-.1-.2.193.392.382.787.575,1.18l-.1-.2.1.2c.639,1.324,1.29,2.636,1.94,3.949-.053-.106-.106-.218-.159-.33q1.34,2.769,2.736,5.508c-.669.554-1.308,1.137-1.911,1.741a26.758,26.758,0,0,0-2.853,3.406,19.185,19.185,0,0,0-6.568,2.948,81.119,81.119,0,0,0-7.779,5.87c-1.43,1.184-2.891,2.338-4.286,3.563.065-.059.135-.118.2-.177q-2.481,2.149-4.944,4.311l.053-.048C8.07,154.612,4.292,158.232.6,161.917a2.126,2.126,0,0,0,.012,2.974,2.1,2.1,0,0,0,1.483.6,2.069,2.069,0,0,0,1.485-.613c1.884-1.926,3.786-3.834,5.724-5.7.8-.766,1.583-1.525,2.384-2.279.361-.338.728-.672,1.093-1.007-.634.883-1.275,1.763-1.9,2.659s-1.248,1.778-1.855,2.679c-.759,1.137-1.525,2.273-2.19,3.463a31.808,31.808,0,0,0-1.555,3.261,2.022,2.022,0,0,0,1.09,2.615,1.964,1.964,0,0,0,.745.145,2.032,2.032,0,0,0,1.875-1.24c.259-.639.519-1.266.822-1.888a53.892,53.892,0,0,1,2.75-4.661q1.322-1.968,2.627-3.956c-.031.047-.06.092-.093.141.907-1.366,1.873-2.7,2.815-4.045,1.746-2.5,3.578-4.933,5.567-7.25l-.044.048.071-.08.082-.1a.478.478,0,0,1-.034.042,32.132,32.132,0,0,1,2.792-2.817c.481-.408.973-.791,1.487-1.146.426-.267.857-.515,1.307-.742.294-.13.588-.25.888-.355.232-.071.469-.132.71-.188s.482-.066.723-.1a13.813,13.813,0,0,0-.751,6.171c.383,2.709,1.413,5.676,3.58,7.484a10.122,10.122,0,0,0,5.884,2.025c.082.084.168.164.257.241a5.077,5.077,0,0,0,.413.654A7.927,7.927,0,0,0,43.721,161.263Zm49.3-32.469c.009,0,.017.012.026.016l-.037-.019Zm-39.86,9.969c.427-.019.848-.022,1.275,0,.084.012.169.025.251.035.151.037.3.08.449.128.266.093.536.181.806.269-.059-.018-.124-.041-.183-.058.154.052.312.105.46.164a1.566,1.566,0,0,0,.634.1c-.059.1-.119.2-.181.3-.264.383-.54.754-.826,1.117a3.636,3.636,0,0,0-1.235.108,7.364,7.364,0,0,0-1.7.69c-.061-.095-.122-.189-.182-.284q-.687-1.071-1.331-2.171c.081-.033.162-.065.245-.1.277-.085.551-.156.835-.215C52.7,138.808,52.93,138.78,53.159,138.763Zm-1.573-4.012-.041.028.039-.027Zm-.15.106c.061-.04.123-.079.184-.117l.019-.007c.386-.122.772-.223,1.166-.309.363-.058.725-.1,1.093-.136.1,0,.194-.008.291-.01a20.646,20.646,0,0,0-3.559,1.146C50.9,135.23,51.165,135.042,51.436,134.857Zm-2.759,10.584a13.052,13.052,0,0,0-.757,1.26l0,0c-.255.1-.512.2-.773.294-.247.071-.5.135-.747.19-.133.022-.268.04-.4.053-.308.01-.61.01-.917,0-.323-.032-.641-.074-.96-.13l-.192-.048-.019-.068c.031-.065.062-.13.092-.2q.325-.661.693-1.3c.121.05.243.1.364.152a1.357,1.357,0,0,0,1.422-2.269,1.541,1.541,0,0,0,.676-.368c.462.774.961,1.53,1.437,2.292Zm-12.124,2.223c-.009-.081-.017-.162-.025-.244,0-.233,0-.463.007-.693.04-.37.092-.733.157-1.1q.039.21.084.417A13.107,13.107,0,0,0,36.553,147.664Z"/><path d="M73.888,132.938l0,0,.014-.006Z"/><path d="M101.622,119.369l-.044-.052-.048-.055C101.561,119.3,101.591,119.332,101.622,119.369Z"/><path d="M103.253,114.787l.03.033,0,.006Z"/><path d="M52.532,238.026l-.023.01,0,0Z"/><path d="M147.968,246.949c-.388-1.848-.854-3.68-1.295-5.511a43.212,43.212,0,0,0-1.531-5.059,22.792,22.792,0,0,0-3.28-6.33,8.511,8.511,0,0,0-2.414-2.237,7.154,7.154,0,0,0-2.838-.931,6.513,6.513,0,0,0-3.174.63,16.287,16.287,0,0,0-2.856,1.808c-1.249.913-2.426,1.908-3.61,2.9-.748.631-1.519,1.237-2.243,1.89.019-.014.036-.029.054-.044-.088.078-.176.156-.266.233l.06-.048c-.273.236-.542.472-.81.712l.02-.016-.066.056-.082.073.022-.021c-.123.108-.246.216-.369.322.053-.042.1-.088.153-.13-.418.365-.83.73-1.248,1.09l.062-.051c-.129.113-.256.225-.382.338l-.887.778c-2.939,2.579-5.765,5.282-8.621,7.944-.785.73-1.557,1.47-2.326,2.212a19.833,19.833,0,0,0-4.672-4,15.011,15.011,0,0,0-9.351-2.5c-.171.017-.342.045-.513.067q-.178-.912-.355-1.824c-.325-1.791-.664-3.577-.943-5.374-.282-1.843-.553-3.686-.824-5.535-.142-.966-.289-1.931-.448-2.9a14.04,14.04,0,0,0-.406-1.82,3.444,3.444,0,0,0-.595-1.237,2.328,2.328,0,0,0-1.16-.742,6.037,6.037,0,0,0-3.085.083,23.333,23.333,0,0,0-3.286.99c-2.244.893-4.355,2.063-6.516,3.124l.039-.021c-.318.158-.644.3-.964.457l-.07.034c-3.691,1.757-7.394,3.5-11.073,5.279l.04-.018c-.03.014-.06.028-.088.043-1.154.528-2.293,1.1-3.438,1.648-1.425.677-2.85,1.354-4.269,2.043.082-.041.159-.077.236-.118-.094.045-.188.09-.282.137l-.048.023.035-.018-.045.022-.111.054-.171.083-.05.023.037-.016-.056.026.037-.016c-.105.052-.21.1-.315.153l.1-.05,0,0,.025-.013c-.117.059-.234.115-.351.17l.021-.01-.041.019-.2.092c.035-.014.068-.029.1-.044-.157.078-.317.155-.477.232.083-.04.159-.076.236-.117l-1.095.53c.082-.036.159-.077.235-.112l-.689.336c.077-.041.153-.077.236-.118-.289.141-.571.277-.854.412.077-.035.159-.077.236-.112-.265.13-.529.254-.794.382-.236.113-.474.228-.708.343l.235-.113-.471.23c.077-.041.154-.076.236-.117l-.548.264c.077-.035.159-.076.236-.112l-.467.226.055-.025-.057.027-.079.038.029-.015.022-.011.191-.092c-.073.032-.143.067-.212.1-1.281.6-2.54,1.259-3.81,1.883-1.4.683-2.768,1.431-4.122,2.214a1.974,1.974,0,1,0,1.949,3.433c.467-.261.933-.522,1.4-.773.978-.471,1.931-1.007,2.9-1.494,1.134-.567,2.274-1.117,3.4-1.7,1.8-.848,3.592-1.751,5.375-2.646l.033-.015c-.038.018-.076.038-.113.058.079-.04.17-.075.25-.125.047-.022.095-.045.144-.07l-.1.049-.04.02.006,0-.03.014h0l-.009,0-.028.013-.006,0h0l-.032.015h0l.011,0h0l.007,0,.063-.032-.03.016.174-.085-.049.022.088-.041.147-.071-.049.026c.1-.048.2-.1.3-.146,1.378-.666,2.751-1.34,4.124-2.01l-.035.016.12-.059-.03.015.14-.068-.01,0,1.832-.894-.15.071c.363-.174.725-.352,1.088-.527l0,0,.015-.007.083-.039-.03.014.022-.01-.048.025c.112-.053.218-.106.329-.159l-.229.106.171-.081h0l.135-.066-.033.017-.02.009-.053.026.07-.034h0l.065-.032.079-.038q.078-.036.156-.075l0,0c.228-.109.452-.219.678-.328l-.03.016.042-.021.187-.091c-.046.022-.093.043-.139.066l.126-.062.13-.062.1-.048-.059.027.581-.28-.033.017.1-.049c.044-.02.087-.042.131-.063l-.055.025c.285-.14.572-.277.855-.419l-.044.025.367-.179-.008,0c.266-.129.531-.256.8-.386l-.07.036c.121-.06.243-.12.366-.179l-.006,0,.015-.008.215-.1-.044.023.662-.317-.23.106c.277-.131.553-.266.829-.4l-.051.028c.244-.118.485-.239.729-.358l.019-.009,0,0c.033-.015.066-.032.1-.048l-.031.015c.259-.126.521-.252.778-.374l-.229.106c.176-.082.347-.164.518-.247-.077.035-.147.071-.224.106l1.054-.512-.079.041c.276-.134.552-.265.833-.4l-.23.1c.126-.059.251-.117.377-.178l-.035.019.138-.069.065-.032c.141-.07.284-.137.427-.205l-.23.106c.266-.124.527-.254.793-.38l-.045.021.057-.028-.041.019c.07-.032.139-.066.208-.1l-.086.045.154-.075-.045.024.024-.012c1.865-.882,3.671-1.882,5.529-2.782a28.447,28.447,0,0,1,2.769-1.146l-.078.025.083-.027.147-.05c-.041.016-.082.029-.122.042q1.1-.348,2.239-.59l.2-.03c.372,1.272.584,2.594.832,3.9l-.015-.071,1.03,5.468c-.012-.071-.024-.135-.035-.2.465,2.476.97,4.945,1.478,7.415a16.267,16.267,0,0,0-5.456,2.7,22.9,22.9,0,0,0-5.682,6.714c-.611-.68-1.225-1.357-1.829-2.046-.678-.808-1.4-1.592-2.1-2.38.041.052.088.1.13.152Q76,245.022,74.361,243.2c.032.036.065.076.1.114a11.71,11.71,0,0,0-1.3-1.374,7.611,7.611,0,0,0-1.949-1.19,5.57,5.57,0,0,0-2.22-.329,7.79,7.79,0,0,0-2.055.306,16.724,16.724,0,0,0-4.487,2.114,40.517,40.517,0,0,0-3.951,2.921c-1.243,1.042-2.468,2.113-3.628,3.244-.842.819-1.69,1.637-2.532,2.455-1.242,1.2-2.455,2.433-3.662,3.669-2.585,2.638-5.141,5.305-7.6,8.062a1.956,1.956,0,0,0-.548,1.324,1.877,1.877,0,0,0,.56,1.349,1.936,1.936,0,0,0,1.362.544,1.757,1.757,0,0,0,1.311-.55c2.449-2.7,4.952-5.359,7.472-7.991,2.964-3.092,5.939-6.2,9.155-9.038a42.144,42.144,0,0,1,3.883-3.018l-.1.062c.053-.035.106-.068.16-.1l.04-.028-.027.02a24.333,24.333,0,0,1,2.173-1.237c.365-.166.731-.322,1.108-.458.266-.081.529-.149.8-.206.233-.039.463-.069.7-.09.189-.006.377-.006.566,0,.086.009.17.021.255.035.059.017.119.035.181.051s.131.052.2.081c.188.1.37.209.553.321.15.1.292.209.43.323.793.756,1.563,1.556,2.317,2.355.589.625,1.184,1.243,1.778,1.867,1.575,1.649,3.134,3.31,4.7,4.968a26.818,26.818,0,0,0-1.955,6.391c-.349-.062-.7-.142-1.046-.194a20.826,20.826,0,0,0-7.018-.018,15.631,15.631,0,0,0-6.236,2.656,24.065,24.065,0,0,0-6.978,8.88c-.789,1.56-1.6,3.109-2.332,4.7-1.484,3.2-2.956,6.407-4.375,9.639-1.537,3.5-3.127,6.99-4.452,10.582a1.894,1.894,0,0,0,1.019,2.438,1.831,1.831,0,0,0,.689.133,1.862,1.862,0,0,0,1.743-1.152c.306-.789.612-1.573.936-2.356,1.29-3.132,2.662-6.224,3.963-9.35,1.335-3.211,2.787-6.374,4.175-9.561.7-1.395,1.353-2.813,2.025-4.222l-.017.039a34.941,34.941,0,0,1,2.015-3.514c.42-.616.866-1.215,1.346-1.79a13.263,13.263,0,0,1,2.95-2.616c.462-.29.934-.548,1.418-.79a14.493,14.493,0,0,1,1.363-.552q.816-.255,1.654-.431a16.745,16.745,0,0,1,1.75-.224,22.9,22.9,0,0,1,2.58.024c.845.069,1.685.19,2.522.328a24.109,24.109,0,0,0,.943,8.837,16.435,16.435,0,0,0,3.029,5.515c-.015.008-.031.014-.046.021a18.355,18.355,0,0,0-5.347,3.892,25.988,25.988,0,0,0-3.828,5.312,49.8,49.8,0,0,0-2.908,6.466c-.371,1.012-.7,2.037-1.043,3.062-.224.671-.459,1.336-.653,2.019-.242.854-.524,1.7-.731,2.568-.194.842-.435,1.684-.588,2.538-.083.477-.171.954-.254,1.436-.117.642-.188,1.29-.265,1.937a1.661,1.661,0,0,0,1.408,1.844,1.644,1.644,0,0,0,1.843-1.408c.076-.694.153-1.384.265-2.078.072-.405.139-.815.2-1.225.166-.74.322-1.48.484-2.22.188-.83.435-1.649.653-2.473.375-1.412.844-2.8,1.272-4.19a55.842,55.842,0,0,1,2.368-5.865,30.834,30.834,0,0,1,1.817-3.207,24.688,24.688,0,0,1,1.673-2.233,20.232,20.232,0,0,1,1.563-1.564,15.2,15.2,0,0,1,3.643-2.39c.167-.078.341-.134.509-.207.137.113.268.233.408.341a11.981,11.981,0,0,0,4.292,2.2,16.9,16.9,0,0,0,4.179.541c.136,0,.272,0,.408,0a18.879,18.879,0,0,0,5.094-.784,23.309,23.309,0,0,0,4.711-2.131,24.733,24.733,0,0,0,7.515-6.218c.416.088.829.179,1.233.3.254.094.5.2.748.314.222.113.433.226.639.353.14.1.274.2.406.31.036.036.072.072.107.111.105.126.2.255.3.386.112.184.216.367.317.559.107.235.2.473.292.716.087.276.159.557.223.844.066.415.115.831.144,1.256.036.909.037,1.817-.015,2.721v-.021a45.06,45.06,0,0,1-.676,4.788l0-.018-.008.042-.033.17.014-.079c-.525,2.54-1.161,5.063-1.8,7.575q-.371,1.458-.742,2.915l-.441,1.713c-.142.548-.3,1.089-.407,1.637-.135.665-.218,1.337-.3,2.008a1.923,1.923,0,0,0,1.631,2.138,1.819,1.819,0,0,0,.232.015,1.915,1.915,0,0,0,1.9-1.646c.065-.635.125-1.266.24-1.891.579-2.676,1.214-5.337,1.8-8.008a70.964,70.964,0,0,0,1.82-10.817,23.345,23.345,0,0,0-.071-3.786,9.758,9.758,0,0,0-.765-3.08,6.993,6.993,0,0,0-1.82-2.573,8.151,8.151,0,0,0-2.614-1.366c-.217-.07-.438-.113-.657-.168A15.754,15.754,0,0,0,113.3,268a11.612,11.612,0,0,0,.431-1.678l.283.026c.73.064,1.466.135,2.2.206.171.018.348.035.518.047a10.223,10.223,0,0,0,1.037.017c.187,0,.38,0,.573,0,.023,0,.046,0,.07.008.026.02.051.041.076.062.076.072.152.145.224.224.116.143.228.291.334.442.148.24.286.484.414.734a18.972,18.972,0,0,1,.7,1.782,34.284,34.284,0,0,1,1.1,4.074,59.731,59.731,0,0,1,.636,6.4c.082,1.283.194,2.561.323,3.845l.619,5.959c.123,1.184.247,2.361.347,3.545.136,1.619.312,3.244.406,4.875v-.015l.006.115c0-.019,0-.037,0-.057.015.244.03.486.043.729v-.006l0,.025c0,.068.007.136.01.2v-.032c.037.664.075,1.328.118,1.992l-.018-.23c.027.42.054.839.076,1.258.023.516.019,1.036.03,1.551.015.706.025,1.4.006,2.106l-.006,0a1.862,1.862,0,0,0-.806,2.313,3.089,3.089,0,0,0,1.5,1.785,1.87,1.87,0,0,0,.708.139,2.462,2.462,0,0,0,1.371-.469,3.13,3.13,0,0,0,.96-2.485,21.25,21.25,0,0,0,.016-2.3v.051c-.082-1.608-.17-3.21-.306-4.817q-.186-2.235-.418-4.469c-.43-4.063-.919-8.12-1.4-12.178-.206-1.7-.33-3.4-.46-5.1a35,35,0,0,0-1.189-7.578,19.476,19.476,0,0,0-2.226-5.518,4.827,4.827,0,0,0-1.978-1.819,4.388,4.388,0,0,0-1.873-.206c-.271.006-.542.017-.807.006l.194.017c-.842-.076-1.688-.139-2.535-.2a14.054,14.054,0,0,0,.3-3.144,21.015,21.015,0,0,0-.746-5.151c.565-.194,1.13-.394,1.695-.589.653-.223,1.317-.431,1.966-.678.634-.152,1.257-.354,1.879-.535.689-.194,1.39-.383,2.079-.589.6-.183,1.237-.283,1.849-.418.751-.174,1.5-.34,2.246-.485a29.227,29.227,0,0,1,3.192-.431c.3-.014.6-.017.9-.006.335.028.667.068,1,.122.12.027.24.057.361.089.181.064.358.134.533.213s.349.191.519.293c.193.135.378.274.563.422.2.184.388.375.574.577.2.245.388.5.569.756.225.352.436.708.627,1.082a17.274,17.274,0,0,1,.773,1.936,23.823,23.823,0,0,1,.6,2.456,42.89,42.89,0,0,1,.556,4.929v-.021c.094,1.79.09,3.579.118,5.368.024,1.419-.023,2.838-.035,4.257-.03,3.269-.1,6.531-.03,9.8a1.981,1.981,0,0,0,1.944,1.962h.01a1.964,1.964,0,0,0,1.95-1.944c-.035-2.179-.035-4.363-.047-6.542q-.009-2.958-.035-5.924c-.018-1.895-.088-3.786-.153-5.682a39.206,39.206,0,0,0-.536-5.57,21.363,21.363,0,0,0-2.2-6.937,9.57,9.57,0,0,0-4.888-4.457,8.9,8.9,0,0,0-3.539-.419,23.548,23.548,0,0,0-3.444.5c-1.932.407-3.863.884-5.753,1.466-1,.3-1.991.613-2.986.913-.966.3-1.908.695-2.856,1.042-.326.121-.649.248-.974.371a17.027,17.027,0,0,0-.859-1.673c-.187-.316-.384-.624-.585-.929l.759-.723c1.066-1.019,2.144-2.02,3.221-3.021q3.418-3.165,6.889-6.278c1.361-1.178,2.753-2.331,4.093-3.536.827-.71,1.688-1.381,2.526-2.08q2.081-1.719,4.313-3.245c.272-.174.544-.336.826-.484.2-.082.392-.156.591-.228.24-.073.48-.141.729-.2.114-.017.229-.032.344-.043.081,0,.162,0,.243,0,.1.011.187.028.28.043.131.028.26.061.388.1.194.074.385.152.579.241.151.08.293.168.436.258.117.082.229.166.338.255.21.2.408.4.6.608.326.392.627.8.914,1.227a15.882,15.882,0,0,1,.925,1.643,36.712,36.712,0,0,1,1.5,3.775c.544,1.708.993,3.432,1.383,5.178.258,1.186.51,2.378.786,3.557q.669,3.564,1.281,7.142c.435,2.556.8,5.124,1.195,7.691a1.962,1.962,0,0,0,1.912,1.693,2.006,2.006,0,0,0,.243-.015,1.948,1.948,0,0,0,1.684-2.155C149.929,256.441,148.963,251.69,147.968,246.949Zm-49.476,8.659c-.007-.026-.014-.052-.022-.078l.073.038C98.525,255.581,98.51,255.6,98.492,255.608Zm-6.069,7.609c-.058-.006-.115-.016-.173-.023a1.255,1.255,0,0,0-.731-1.28l0,0c-.556-.506-1.048-1.1-1.556-1.653-.194-.209-.391-.413-.587-.619.014-.045.025-.089.039-.134q.319-.588.681-1.154c.354-.5.723-.983,1.117-1.453.076-.084.153-.166.23-.248a6.835,6.835,0,0,0-.256,2.934,4.953,4.953,0,0,0,1.726,3.027Q92.661,262.908,92.423,263.217Zm2.255-3.626c-.04-.075-.082-.151-.126-.226q-.033-.074-.063-.147c-.019-.065-.036-.13-.053-.195l-.03-.223c-.007-.142-.01-.285-.005-.428.018-.189.047-.376.083-.562.027-.1.055-.2.082-.3.056-.153.118-.3.188-.452.059-.1.116-.2.171-.3a5.005,5.005,0,0,1,.335-.47c.071-.08.148-.153.224-.228.091.335.184.668.29,1,.093.281.2.59.325.892a13.278,13.278,0,0,0-1.229,1.893C94.8,259.761,94.739,259.678,94.678,259.591Z"/><path d="M175.767,58.8l-.036-.009.049.012c.053.009.1.019.158.03l-.125-.023c.376.087.748.188,1.12.3.317.114.624.237.926.373.29.151.567.312.842.489.336.239.66.49.976.756a16.1,16.1,0,0,1,1.151,1.157c.295.357.572.723.836,1.1a30.043,30.043,0,0,1,1.636,2.962,46.023,46.023,0,0,1,2.024,5.364c.755,2.337,1.361,4.724,1.99,7.1.353,1.325.7,2.644,1.042,3.969.713,2.72,1.378,5.446,2.191,8.137a2.237,2.237,0,0,0,2.11,1.629,2.154,2.154,0,0,0,.534-.068,2.2,2.2,0,0,0,1.566-2.65c-.983-3.368-1.955-6.742-2.974-10.1-.948-3.121-1.808-6.283-2.915-9.35a41.355,41.355,0,0,0-3.438-7.7,15.043,15.043,0,0,0-5.194-5.37,13.149,13.149,0,0,0-7.29-1.548,40.116,40.116,0,0,0-7.758,1.365,14.75,14.75,0,0,0,.568-6.287c2.392-1,4.765-2.038,7.222-2.863a40.316,40.316,0,0,1,4.6-1.2c.759-.139,1.524-.255,2.293-.318.616-.03,1.237-.021,1.853.01.44.037.875.1,1.31.173.341.074.674.164,1.009.266.426.154.842.327,1.258.516.5.255.986.534,1.462.835.446.311.871.641,1.29.992l-.086-.076.089.078,0,0a34.437,34.437,0,0,1,2.992,2.988c-.029-.033-.059-.067-.086-.1l.137.159.01.012-.008-.01c2.242,2.6,4.29,5.355,6.338,8.113,1.791,2.408,3.481,4.9,5.188,7.36a1.838,1.838,0,0,0,1.526.755,1.926,1.926,0,0,0,1.942-1.674,2.025,2.025,0,0,0-.382-1.436c-2.6-3.822-5.459-7.479-8.4-11.047a55.575,55.575,0,0,0-6.954-7.5,15.076,15.076,0,0,0-6.26-3.244,16.8,16.8,0,0,0-7.225.212,42.956,42.956,0,0,0-7.172,2.249c-1.237.506-2.461,1.036-3.686,1.572-.324.142-.65.28-.974.422a20.468,20.468,0,0,0-.79-1.911q.954-.927,1.917-1.84c1.707-1.627,3.492-3.163,5.225-4.764.35-.264.689-.555,1.028-.83.677-.536,1.348-1.077,2.02-1.613,1.481-1.191,2.99-2.326,4.561-3.387a43.131,43.131,0,0,1,4.608-2.658,29.453,29.453,0,0,1,3.312-1.359,16.6,16.6,0,0,1,1.746-.474l-.042.011c.334-.058.663-.093,1-.12.4-.013.8-.013,1.192.006.33.029.655.075.984.135.286.068.566.145.845.237.4.144.794.307,1.183.489a14.087,14.087,0,0,1,1.285.723,25,25,0,0,1,2.076,1.63,32.311,32.311,0,0,1,2.64,2.672c.739.891,1.48,1.8,2.248,2.669q3.261,4.221,6.515,8.459a1.85,1.85,0,1,0,2.938-2.249c-1.054-1.349-2.131-2.686-3.2-4.028-1.119-1.413-2.3-2.774-3.451-4.157-.565-.683-1.172-1.325-1.761-1.985a41.188,41.188,0,0,0-3.221-3.28,22.917,22.917,0,0,0-2.873-2.238,14.719,14.719,0,0,0-3-1.484,10.955,10.955,0,0,0-6.507-.264,28.949,28.949,0,0,0-6.607,2.8,56.71,56.71,0,0,0-6.277,4.182c-1.619,1.23-3.18,2.543-4.752,3.833-.553.453-1.077.954-1.607,1.437-.854.765-1.7,1.537-2.556,2.308-.972.873-1.91,1.783-2.851,2.69a17.625,17.625,0,0,0-1.5-1.962q-.14-.229-.283-.455a23.755,23.755,0,0,0-6.737-6.99,20.464,20.464,0,0,0-4.469-2.379,22.1,22.1,0,0,0-4.428-1.113,25.641,25.641,0,0,0-2.575-.219c-.05-.174-.1-.347-.153-.521-.342-1.213-.689-2.426-1.031-3.639-.165-.589-.359-1.172-.5-1.766-.483-1.985-.966-3.963-1.449-5.948-.406-1.666-.73-3.362-1.083-5.041q-.474-2.232-.9-4.483c.006.029.013.056.02.085-.323-1.69-.636-3.386-.953-5.082a10.4,10.4,0,0,0-.507-2.108A2.647,2.647,0,0,0,134.688.065a2.786,2.786,0,0,0-2.167.506,16.159,16.159,0,0,0-2.13,1.639l.016-.013-.05.043-.127.11.052-.047c-.16.138-.323.278-.481.418l.176-.159c-.724.607-1.442,1.224-2.161,1.837-.624.53-1.266,1.048-1.872,1.6l.176-.159c-.942.771-1.86,1.578-2.791,2.367-.834.705-1.684,1.39-2.5,2.119h0l.063-.053-.092.079-.019.017-.038.035.024-.022-.022.019-.041.037.024-.022-.106.093c.024-.023.048-.045.071-.065q-2.731,2.343-5.442,4.71c.059-.053.124-.111.189-.165l-.072.061.048-.043-.06.053c-.039.033-.079.068-.119.1-1.529,1.334-3.042,2.694-4.543,4.059.059-.053.123-.111.188-.165-1.307,1.142-2.579,2.338-3.845,3.534-.789.742-1.584,1.471-2.367,2.219a25.486,25.486,0,0,0-2.22,2.309,14.892,14.892,0,0,0-.936,1.26,14.525,14.525,0,0,0-.748,1.324,1.947,1.947,0,0,0,.416,2.4c-1.86,1.118-3.7,2.266-5.542,3.419-1.326.834-2.668,1.662-3.975,2.536-1.988,1.312-3.965,2.623-5.923,3.977a1.872,1.872,0,0,0-.348,2.608A1.891,1.891,0,0,0,88,44.992c1.083-.747,2.178-1.483,3.268-2.219-.071.046-.142.094-.212.141.094-.065.188-.13.282-.189l.636-.423c-.07.046-.141.094-.212.135.523-.34,1.04-.683,1.557-1.029.1-.065.2-.132.294-.2l.02-.013-.005,0,.019-.012.141-.09-.09.055c1.079-.709,2.162-1.412,3.234-2.128-.064.048-.135.094-.206.142a125.313,125.313,0,0,1,12.938-7.721,39.363,39.363,0,0,1,4.409-1.762,23.682,23.682,0,0,1,2.373-.64l-.07.012.073-.012.139-.029c-.041.01-.082.019-.123.026.49-.086.981-.147,1.479-.191a15.956,15.956,0,0,1,1.694-.011c.413.034.823.079,1.227.151q.4.087.788.2c.207.079.406.161.6.253.28.144.553.31.821.479.319.219.627.444.925.69.169.16.334.325.494.5a24.711,24.711,0,0,1,1.6,2.109c.511.779.985,1.574,1.457,2.376l.386.647c-.062.058-.126.112-.187.17a25.666,25.666,0,0,0-7.713,15.342c-.3-.132-.6-.277-.907-.394a19.793,19.793,0,0,0-3.557-1.072,14.924,14.924,0,0,0-3.8-.212c-4.823.395-9.121,3.139-12.56,6.4a58.944,58.944,0,0,0-9.31,11.977c-1.466,2.385-2.844,4.817-4.233,7.243-.33.583-.642,1.172-.96,1.76-.442.825-.913,1.643-1.319,2.485.035-.076.07-.147.106-.224-.177.372-.36.743-.542,1.114.035-.071.071-.148.106-.224-.2.406-.395.818-.595,1.225.036-.077.071-.153.106-.224-.156.318-.313.637-.464.956s-.286.651-.431.975c-.171.407-.371.8-.524,1.213-.389,1.054-.765,2.1-1.089,3.18a1.917,1.917,0,0,0,1.348,2.332,1.887,1.887,0,0,0,.487.065,1.967,1.967,0,0,0,1.845-1.414c.093-.3.186-.6.279-.9.459-1.341,1.046-2.623,1.6-3.922.453-.9.875-1.819,1.312-2.729-.036.076-.071.146-.106.223.83-1.672,1.713-3.321,2.614-4.958,1.8-3.275,3.624-6.534,5.68-9.663l-.033.047.1-.149.03-.045-.015.023a58.948,58.948,0,0,1,4.445-5.9,40.125,40.125,0,0,1,3.208-3.234,27.059,27.059,0,0,1,2.634-2.032,22.656,22.656,0,0,1,2.3-1.321c.552-.254,1.114-.477,1.69-.676.536-.173,1.078-.312,1.629-.432a14.711,14.711,0,0,1,1.481-.182c.476-.015.948-.011,1.424.012.465.039.925.094,1.385.171a21.37,21.37,0,0,1,2.4.675c.7.249,1.382.543,2.059.849a20.147,20.147,0,0,0,1.585,7.8,15.437,15.437,0,0,0,2.517,4.1,12.4,12.4,0,0,0,.605,1.47,16.465,16.465,0,0,0-4.138.355,22.756,22.756,0,0,0-5.8,2.161,33.236,33.236,0,0,0-5.105,3.374,61.788,61.788,0,0,0-9.127,9.363,29,29,0,0,0-3.463,5.176,12.153,12.153,0,0,0-.977,2.626,9.352,9.352,0,0,0-.253,1.519c-.036.43-.036.86-.047,1.3a1.645,1.645,0,0,0,1.631,1.649h.01a1.659,1.659,0,0,0,1.644-1.631c.011-.415.007-.829.029-1.244.025-.2.059-.393.094-.59.082-.364.176-.721.286-1.077.147-.41.312-.809.493-1.2a23.908,23.908,0,0,1,1.39-2.4,57.621,57.621,0,0,1,4.376-5.565,55.1,55.1,0,0,1,4.664-4.682,35.035,35.035,0,0,1,3.54-2.721,29.656,29.656,0,0,1,3.1-1.784l-.019.008.04-.018.131-.064-.076.039a23.2,23.2,0,0,1,2.405-.958,21.178,21.178,0,0,1,2.16-.555c.489-.083.978-.147,1.476-.183a19.17,19.17,0,0,1,2.034.02h-.014a13.888,13.888,0,0,1,1.527.2c.068.014.135.033.2.049a14.242,14.242,0,0,0,2.3,2.02,12.126,12.126,0,0,0,7.062,1.969c.559,0,1.119-.026,1.676-.073a21.422,21.422,0,0,0,4.84-.883,30.189,30.189,0,0,0,4.4-1.844c.169-.031.337-.063.506-.1a19.5,19.5,0,0,0,4.469-1.466A24.737,24.737,0,0,0,155.1,69.17c.03.025.061.046.09.071.273.249.529.5.779.782q.335.4.629.837c.275.431.517.876.748,1.33l-.008-.019.009.02.085.168a1.33,1.33,0,0,1-.068-.13A21.3,21.3,0,0,1,158.2,74.3a29.425,29.425,0,0,1,.739,3.024,47.667,47.667,0,0,1,.631,5.673q.121,4.155.14,8.3c.017,2.938.194,5.883.488,8.809a1.959,1.959,0,0,0,1.943,1.71,1.944,1.944,0,0,0,1.926-2.187c-.2-1.842-.347-3.678-.477-5.525-.046-.974-.109-1.952-.147-2.925-.046-1.231-.076-2.467-.143-3.7l0,.073c-.045-.812-.091-1.623-.137-2.428s-.065-1.608-.141-2.4c-.383-4.157-.96-8.455-2.98-12.177a12.654,12.654,0,0,0-2.427-3.2,24.324,24.324,0,0,0,2.568-2.267,19.549,19.549,0,0,0,2.88-3.808c.188-.289.341-.592.511-.887,1.918-.53,3.845-1.021,5.808-1.394a31.627,31.627,0,0,1,3.209-.38c.584-.031,1.165-.04,1.753-.013C174.822,58.637,175.293,58.706,175.767,58.8ZM141.34,36.086a15.556,15.556,0,0,0-5.985,2.659,21.443,21.443,0,0,0-2.055,1.773c-.118-.283-.235-.567-.355-.851.485-.39.979-.769,1.493-1.126a23.491,23.491,0,0,1,2.174-1.257c.522-.241,1.049-.458,1.587-.65.425-.124.845-.235,1.273-.332.585-.1,1.17-.166,1.761-.212C141.269,36.088,141.3,36.086,141.34,36.086Zm-4.369,9.377a26.476,26.476,0,0,1,2.132-1.612c.793-.506,1.6-.975,2.437-1.4q.8-.375,1.63-.691c.16-.025.32-.038.481-.058.291.921.579,1.843.881,2.759a20.652,20.652,0,0,0-3.724,3.128,13.261,13.261,0,0,0-2.249,1.789l-.017.017a9.069,9.069,0,0,0-1.15.986,1.449,1.449,0,0,0-.256-.315c-.028-.051-.055-.1-.082-.157-.492-1.059-.9-2.161-1.3-3.259C136.145,46.244,136.549,45.846,136.971,45.463ZM147.9,42.6c-.139.058-.276.118-.414.182-.235.109-.458.242-.69.359q-.2-.651-.4-1.3c.222.086.442.176.659.275C147.34,42.268,147.621,42.431,147.9,42.6ZM130.133,34.14c-.512-.918-1.018-1.843-1.589-2.721a17.3,17.3,0,0,0-2.138-2.861,10.4,10.4,0,0,0-2.591-1.932,9.546,9.546,0,0,0-3.3-1.012,15.854,15.854,0,0,0-3.345-.054,19.258,19.258,0,0,0-3.822.784c-1.142.359-2.29.736-3.4,1.189-1.2.489-2.367,1.048-3.521,1.643-.386.2-.771.4-1.156.6.129-.164.248-.335.384-.495,1.262-1.421,2.691-2.712,4.066-4.024.936-.895,1.884-1.779,2.826-2.673q2.616-2.466,5.312-4.859l-.01.009.051-.045.1-.087-.036.031c.153-.136.305-.269.46-.4-.045.037-.09.074-.133.111.27-.237.544-.474.815-.715l-.046.039c1.157-1.013,2.308-2.031,3.464-3.044-.035.031-.068.063-.1.094l.543-.483.006,0,.087-.078-.068.062.018-.016-.019.017-.036.033.064-.057.071-.062-.012.011.018-.016c.938-.768,1.847-1.588,2.761-2.38.843-.729,1.7-1.436,2.524-2.174-.031.028-.064.056-.1.084.062-.053.122-.106.181-.158l0,0,0,0c.094-.083.185-.164.279-.243l-.177.159c1.57-1.366,3.15-2.721,4.7-4.115.1-.086.206-.171.311-.253.291,1.2.534,2.421.8,3.626.294,1.361.6,2.715.907,4.075q.407,1.8.83,3.6c.271,1.177.53,2.367.836,3.538q.777,3.014,1.561,6.024c.135.525.312,1.049.465,1.567q.53,1.8,1.072,3.6c.021.072.043.142.064.214a16.651,16.651,0,0,0-4.137.91,22.861,22.861,0,0,0-5.724,3.13C130.207,34.268,130.169,34.2,130.133,34.14ZM126.62,48.849a26.332,26.332,0,0,1,1.051-2.536,26.585,26.585,0,0,1,1.411-2.447,23.492,23.492,0,0,1,1.456-1.912c.063-.071.136-.131.2-.2.157.354.311.71.468,1.066-.08.1-.166.2-.245.3a30.764,30.764,0,0,0-3.243,4.237c-.465.732-.91,1.486-1.325,2.259Q126.5,49.228,126.62,48.849Zm6.621,12.442c-.179-.126-.352-.257-.524-.392a1.229,1.229,0,0,0,.183-.271,1.336,1.336,0,0,0-.724-1.742c-.057-.022-.114-.046-.17-.07-.152-.082-.293-.173-.438-.26-.023-.2-.052-.4-.066-.6-.015-.524-.008-1.04.019-1.561.054-.63.127-1.256.241-1.877.114-.5.244-1,.394-1.49.267-.759.572-1.5.913-2.229.239-.475.5-.939.766-1.4.139.362.273.726.426,1.081a3.327,3.327,0,0,0,1.231,1.814,1.567,1.567,0,0,0,.4.131c-.041.08-.08.161-.117.242a12.474,12.474,0,0,0-2.083,4.932,7.946,7.946,0,0,0,.216,4.066C133.68,61.55,133.459,61.424,133.241,61.291Z"/><path d="M210.586,89.573c.035.039.07.079.1.119l.026.029C210.675,89.673,210.628,89.621,210.586,89.573Z"/><path d="M190.683,125.474c-.03.059-.059.124-.095.189l-.02.045C190.607,125.63,190.646,125.551,190.683,125.474Z"/><path d="M284.485,100.793c-.713-1.472-1.467-2.915-2.244-4.357-.83-1.543-1.713-3.063-2.6-4.57a55.9,55.9,0,0,0-6.919-9.769,14.762,14.762,0,0,0-2.655-2.379,5.92,5.92,0,0,0-1.319-.742,6.173,6.173,0,0,0-1.455-.323,4.894,4.894,0,0,0-3.091.759,13.627,13.627,0,0,0-2.485,2.049c-1.325,1.4-2.62,2.833-3.933,4.246-1.208,1.3-2.4,2.614-3.634,3.892-1.266,1.319-2.5,2.679-3.809,3.945l-2.633,2.527c-.483.465-.954.948-1.454,1.395l-.073.066a16.653,16.653,0,0,0-9.524-2.8A11.842,11.842,0,0,0,233.7,94.2c-.139-.008-.278-.013-.417-.016a15.907,15.907,0,0,0-4.418-.532,13.99,13.99,0,0,0-8.526,3.693c-.468.405-.922.826-1.365,1.258-.851-.911-1.7-1.829-2.559-2.738-1.772-1.867-3.556-3.728-5.264-5.659l.026.032-.03-.034c-.048-.054-.1-.109-.145-.165-.1-.118-.205-.234-.307-.35s-.206-.234-.31-.348c.047.046.089.1.136.147a14.464,14.464,0,0,1-.936-1.149,2.667,2.667,0,0,0-2.014-1.165,8.376,8.376,0,0,0-5.388,1.177,22.352,22.352,0,0,0-4.54,3.675c-.695.689-1.372,1.4-2.061,2.084-.719.724-1.472,1.407-2.208,2.114-2.733,2.6-5.318,5.365-7.944,8.079q-2.261,2.331-4.528,4.669c-1.054,1.078-2.085,2.185-3.121,3.287-1.242,1.324-2.479,2.655-3.68,4.021a1.7,1.7,0,0,0-.471,1.366,1.654,1.654,0,0,0,1.642,1.449,1.506,1.506,0,0,0,.2-.012,1.744,1.744,0,0,0,1.113-.642l.377-.43c-.012.011-.023.023-.033.034.675-.769,1.356-1.542,2.052-2.3q1.74-1.89,3.492-3.78c1.3-1.407,2.644-2.773,3.969-4.163,1.967-2.061,3.922-4.128,5.9-6.177.854-.889,1.72-1.773,2.6-2.638.759-.742,1.549-1.455,2.3-2.2,1.391-1.386,2.714-2.834,4.175-4.144a17.621,17.621,0,0,1,1.734-1.342c.358-.224.723-.432,1.1-.626.258-.116.519-.223.787-.319.239-.067.478-.126.72-.179.2-.029.4-.054.593-.07.16,0,.321-.009.482-.006.109.011.216.026.323.042l.055.013c.54.708,1.149,1.361,1.747,2.014.483.53.972,1.048,1.461,1.566,1.083,1.137,2.184,2.261,3.291,3.38q1.73,1.751,3.441,3.528c-.069.092-.145.178-.212.272q-.71.992-1.319,2.044l-.621-.257c-.83-.329-1.655-.682-2.5-.965a16.78,16.78,0,0,0-3.079-.771,10.285,10.285,0,0,0-5.877.989,13.792,13.792,0,0,0-2.779,1.866,21.967,21.967,0,0,0-2.262,2.179,44.4,44.4,0,0,0-3.974,5.429c-1.655,2.585-3.086,5.306-4.487,8.038-.9,1.765-1.816,3.524-2.686,5.309l.012-.027c-.571,1.16-1.189,2.314-1.648,3.527-.218.577-.407,1.166-.589,1.761a11.6,11.6,0,0,0-.448,1.778,4.132,4.132,0,0,0,.654,3.162,4.03,4.03,0,0,0,1.195,1.06,4.666,4.666,0,0,0,1.2.371,1.852,1.852,0,0,0,.447.054,1.809,1.809,0,0,0,.49-3.557c-.177-.038-.352-.069-.528-.1l-.026-.037c0-.045-.009-.089-.013-.131s0-.1,0-.153c.021-.18.045-.355.075-.533.167-.741.37-1.481.609-2.207.5-1.389,1.172-2.713,1.79-4.059l-.015.028-.009.019.008-.017-.01.018.014-.026.023-.051c.05-.094.095-.191.143-.287-.017.035-.033.069-.048.1q1.422-2.9,2.832-5.8c-.03.065-.059.124-.088.188.05-.1.1-.2.15-.306l.168-.347-.089.188c.66-1.354,1.4-2.691,2.132-4,.752-1.355,1.567-2.666,2.415-3.96-.015.023-.031.046-.048.068a37.312,37.312,0,0,1,2.589-3.522,25.638,25.638,0,0,1,1.806-1.821,17.358,17.358,0,0,1,1.528-1.192,11.624,11.624,0,0,1,1.02-.578c.265-.12.533-.225.808-.318.34-.1.683-.2,1.032-.273.351-.061.7-.111,1.059-.143l.092-.008-.092.008c.216-.008.432-.012.653-.008.358.032.713.082,1.068.144l-.022,0a22,22,0,0,1,2.292.589c.821.284,1.633.6,2.445.912a24.257,24.257,0,0,0-2.107,8.316,10.766,10.766,0,0,0-.253,4.625,15.578,15.578,0,0,0,.152,3.314c0,.022.011.045.015.067-.059.1-.122.191-.18.288-1.007,1.666-1.92,3.392-2.939,5.052-2.5,4.093-4.522,8.45-6.618,12.76.014-.035.03-.07.047-.106-.435.885-.885,1.759-1.314,2.645q-1.282,2.567-2.561,5.122c-.835,1.664-1.687,3.322-2.494,5,.017-.035.034-.071.051-.1-.01.016-.018.033-.027.049l.009-.019-.011.022c-.015.029-.029.059-.043.09v0c-.042.081-.08.165-.122.244.009-.015.018-.03.026-.045l-.039.078.025-.045c-.036.073-.075.148-.111.223.013-.029.027-.058.04-.088q-.362.742-.724,1.484l.019-.035-.057.116.015-.027c-.183.365-.36.736-.536,1.1.029-.064.059-.129.088-.188-.142.285-.28.573-.421.863l.027-.05c-.084.167-.168.334-.248.5l.047-.092c-.1.2-.194.4-.288.595.029-.065.059-.13.088-.194-.153.323-.306.641-.465.959l.012-.025c-.257.529-.514,1.054-.771,1.579l.006-.013-.023.047,0-.009q-.033.069-.069.138l.016-.032-.019.039c-.026.051-.051.1-.076.155l.022-.042-.034.067-.051.108c-.61,1.235-1.282,2.447-1.833,3.718a13.511,13.511,0,0,0-.753,2.008c-.159.588-.277,1.189-.424,1.79a1.78,1.78,0,0,0,1.03,2.079,1.73,1.73,0,0,0,.653.129,1.851,1.851,0,0,0,1.543-.883c.036-.055.071-.11.106-.165.128-.185.261-.361.4-.535.052-.054.1-.108.157-.159s.116-.092.177-.137l.029-.017.083-.033.151-.037a4.747,4.747,0,0,0,.8-.16,1.786,1.786,0,0,0,1.272-2.149,1.833,1.833,0,0,0-1.67-1.342c.461-1.009.965-2,1.435-3.009.347-.748.695-1.5,1.048-2.238.75-1.614,1.479-3.239,2.254-4.843.039-.069.068-.142.107-.216l-.03.058q2.472-5.077,4.906-10.167c.669-1.3,1.277-2.627,1.9-3.946.663-1.4,1.327-2.8,2.006-4.2l0,.01c1.236-2.532,2.555-5.011,4-7.431.582-.981,1.129-1.984,1.686-2.981.04.053.069.114.111.165a11.388,11.388,0,0,0,4.294,3.2,9.95,9.95,0,0,0,2.672,2.824c.21.14.428.259.644.383-.444,1.107-.874,2.22-1.245,3.351-.565,1.72-1.042,3.457-1.507,5.2-.183.677-.366,1.348-.525,2.031-.441,1.879-.889,3.751-1.33,5.629-.171.736-.265,1.5-.395,2.238q-.257,1.431-.5,2.862c-.136.777-.2,1.572-.3,2.355-.088.719-.176,1.431-.223,2.149-.053.831-.154,1.673-.148,2.5.006.565.012,1.124.012,1.69.006.718.088,1.431.147,2.143a1.616,1.616,0,0,0,1.608,1.408,1.679,1.679,0,0,0,.188-.012,1.625,1.625,0,0,0,1.4-1.79c-.049-.507-.108-1.02-.149-1.528-.02-.74-.074-1.49-.04-2.229.041-.881.081-1.755.121-2.636.078-.724.155-1.444.233-2.169.053-.542.094-1.09.176-1.625.244-1.567.493-3.128.731-4.693a132.78,132.78,0,0,1,3.328-13.195c.3-.9.643-1.786.99-2.67a8.094,8.094,0,0,0,1,.16c.557.048,1.115.074,1.674.074a16.078,16.078,0,0,0,2.672-.215,16.617,16.617,0,0,0,4.822-1.566,31.006,31.006,0,0,0,4.157-2.55,18.917,18.917,0,0,0,6.513-7.614c.1-.237.2-.481.286-.726.122.032.245.063.365.1.186.072.366.145.545.226.257.13.506.271.754.423.222.156.437.319.644.492.211.2.41.4.6.613a11.849,11.849,0,0,1,.767,1.009,16.17,16.17,0,0,1,.866,1.51,18.26,18.26,0,0,1,.768,1.892,28.886,28.886,0,0,1,.81,3.294,32.048,32.048,0,0,1,.422,3.675c.094,1.713.141,3.432.088,5.152-.053,1.76-.182,3.515-.289,5.276,0-.048,0-.092.007-.135-.186,2.145-.35,4.29-.542,6.435-.124,1.395-.254,2.791-.377,4.192-.118,1.273-.224,2.556-.224,3.834a18.979,18.979,0,0,0,.094,2.385,17.759,17.759,0,0,0,.43,1.973,1.681,1.681,0,0,0,1.628,1.245,1.643,1.643,0,0,0,.4-.05,1.682,1.682,0,0,0,1.2-2.032c-.1-.382-.2-.764-.291-1.146-.058-.357-.1-.715-.123-1.075,0,.026,0,.052,0,.078,0-.04,0-.081,0-.121s-.005-.06-.007-.091l.006.071a44.6,44.6,0,0,1,.118-4.753c-.006.071-.012.136-.018.207.114-1.569.233-3.137.343-4.711l0,.047.008-.124,0,.018,0-.061v-.016l0-.032v.018l0-.029v-.033l0-.047v.018l.007-.124v.038c.007-.086.013-.172.019-.258v.037c.008-.147.02-.3.03-.442v.024l0-.069c0-.044.006-.087.008-.131v.015c0-.083.012-.167.019-.25-.006.07-.012.135-.018.2.018-.236.035-.483.053-.719-.006.065-.012.136-.018.2.025-.3.046-.6.066-.891v.037c.028-.392.051-.786.079-1.179,0,.046,0,.092-.008.137.011-.158.023-.323.035-.483l-.018.195c.024-.295.042-.589.065-.883-.006.065-.012.129-.017.2.011-.153.023-.3.035-.454l0,.046c.006-.075.011-.149.016-.224v.031c0-.033,0-.067,0-.1l.006-.1v.007l0-.041,0,.022,0-.043c0-.05.006-.1.008-.151,0,.021,0,.043,0,.065.009-.112.017-.225.026-.336l-.018.194c.009-.122.019-.245.028-.368.006-.059.01-.119.013-.179l0,.035c0,.035,0,.071-.008.106l0-.055-.009.108.017-.247v.041c.142-1.97.237-3.955.237-5.924a54.8,54.8,0,0,0-.312-6.442,28.642,28.642,0,0,0-1.284-5.912,15.563,15.563,0,0,0-2.691-5.017,9.822,9.822,0,0,0-2.037-1.884,9.113,9.113,0,0,0-1.753-.913c.314-.32.645-.622.948-.956a17.115,17.115,0,0,0,2.867-3.968,13.828,13.828,0,0,0,.559-1.348,34.711,34.711,0,0,1,3.761-.026c.359.04.723.07,1.077.119l.061.016.024.013q.09.063.177.135c.1.093.2.189.294.287.17.2.325.4.474.616a20.3,20.3,0,0,1,1.064,1.921c.252.553.474,1.113.674,1.683.272.837.5,1.686.726,2.542.236.888.489,1.772.713,2.667.376,1.531.712,3.068,1.042,4.61.276,1.324.547,2.654.834,3.979.173,1.08.367,2.154.556,3.235.17.989.3,1.99.453,2.991.129.86.247,1.732.389,2.591.1.618.2,1.231.3,1.843a14.81,14.81,0,0,0,.353,1.614c.165.594.383,1.16.589,1.737a1.621,1.621,0,0,0,1.529,1.019,1.583,1.583,0,0,0,.591-.112,1.655,1.655,0,0,0,.907-2.121c-.138-.365-.284-.723-.408-1.091-.156-.522-.289-1.055-.405-1.587.012.064.024.135.035.2q-.38-2.041-.73-4.093c-.2-1.141-.376-2.293-.588-3.435s-.426-2.276-.642-3.419l.035.2c-.212-1.125-.5-2.232-.748-3.345-.436-1.943-.854-3.887-1.372-5.812-.377-1.4-.742-2.809-1.172-4.187a20.182,20.182,0,0,0-1.413-3.5,11.256,11.256,0,0,0-2.061-2.963,3.426,3.426,0,0,0-1.307-.835,5.371,5.371,0,0,0-1.234-.2h-.006l-.048,0h.023a28.479,28.479,0,0,0-3.886.02c.009-.074.027-.147.035-.22a10.516,10.516,0,0,0-.4-4.723,12.367,12.367,0,0,0-2.279-3.851c-.214-.254-.453-.477-.682-.712l.025-.023c1.425-1.284,2.774-2.65,4.164-3.969.453-.424.871-.884,1.3-1.325.871-.889,1.737-1.784,2.6-2.674,1.225-1.265,2.421-2.549,3.628-3.827.524-.553,1.048-1.107,1.578-1.661.907-.952,1.8-1.934,2.765-2.828.313-.264.64-.508.981-.747.2-.126.4-.241.6-.354.088-.039.175-.081.266-.114l.166-.047c.07-.012.14-.021.211-.028a3.327,3.327,0,0,1,.36.006l.23.029c.086.019.17.04.254.066l.127.049c.147.076.289.159.43.247.358.261.7.542,1.028.83.4.359.773.74,1.134,1.135l-.028-.034.053.061.095.105c-.019-.019-.036-.037-.053-.056a47.431,47.431,0,0,1,3.447,4.553l-.026-.034a71.73,71.73,0,0,1,3.827,6.654c.747,1.447,1.465,2.905,2.2,4.358.255.542.517,1.084.78,1.626-.02-.042-.039-.084-.058-.126l.092.2.02.04-.014-.027c.174.367.347.734.52,1.105a2.029,2.029,0,0,0,1.307,1.154,1.954,1.954,0,0,0,1.467-.189,1.978,1.978,0,0,0,.924-1.195A2.057,2.057,0,0,0,284.485,100.793ZM255.82,111.6l.013.006-.032-.012Zm-23.05-9.964c.448-.135.9-.256,1.351-.364.107.084.214.17.32.257.324.3.632.609.932.929a14.356,14.356,0,0,0-2.75,0c-.188.017-.374.04-.559.066-.15-.149-.3-.3-.45-.44Q232.184,101.842,232.77,101.637ZM228.686,114.3c.307-.448.63-.88.981-1.3.3-.331.614-.645.943-.949.245-.2.5-.392.755-.576.352-.218.712-.425,1.081-.617.072-.034.145-.066.218-.1.041.148.076.3.108.447.014.092.025.183.033.276s0,.217,0,.331-.03.258-.053.388c-.058.251-.122.5-.2.741-.107.284-.222.564-.343.844-.174.342-.356.674-.559,1l-.043.06-.15.138a5.337,5.337,0,0,0-.791.96q-.262.263-.535.514c-.232.2-.474.383-.713.57-.623-.153-1.251-.291-1.883-.42.127-.325.25-.651.4-.968C228.163,115.182,228.415,114.737,228.686,114.3Zm38.325-32.584-.051,0H267l-.026,0,.029,0,.083.007-.069,0c.033.006.066.011.1.018Z"/><path d="M255.509,108.792h0Z"/><path d="M265.415,132.776l.012.075.023.12Z"/></svg>