<svg xmlns="http://www.w3.org/2000/svg" width="151.701" height="309.583" viewBox="0 0 151.701 309.583"><path d="M151.7,216.562c-.006-1.431-.041-2.856-.065-4.281-.053-2.774-.117-5.547-.265-8.315-.082-1.542-.2-3.074-.329-4.611-.047-.624-.13-1.242-.2-1.86-.076-.672-.129-1.355-.235-2.026-.218-1.4-.395-2.815-.683-4.2-.295-1.449-.577-2.9-.942-4.334-.195-.766-.36-1.554-.589-2.308l-.636-2.12c-.43-1.443-.913-2.868-1.4-4.3-.859-2.555-1.813-5.075-2.7-7.619-.488-1.408-.983-2.815-1.466-4.222-.459-1.325-.9-2.668-1.419-3.963-.571-1.431-1.154-2.844-1.772-4.252-.524-1.195-1.078-2.373-1.649-3.545q-.714-1.454-1.439-2.905c-.125-.407-.249-.813-.375-1.221.012.048.024.089.036.13-.036-.124-.071-.241-.107-.359l.036.124c-.224-.742-.5-1.479-.748-2.208-.33-.978-.665-1.95-1-2.927-.283-.824-.63-1.631-.948-2.438-.289-.754-.559-1.513-.877-2.255-1.125-2.644-2.25-5.288-3.451-7.9-.613-1.32-1.213-2.644-1.849-3.958-.324-.671-.63-1.366-.983-2.025-.377-.719-.76-1.431-1.137-2.144-1.337-2.508-2.844-4.934-4.281-7.39-.137-.233-.27-.47-.406-.7-.378-1.437-.753-2.875-1.113-4.314q-.68-2.694-1.354-5.4c-.413-1.667-.742-3.362-1.072-5.047-.23-1.448-.43-2.891-.606-4.345-.148-1.278-.224-2.567-.3-3.857-.071-1.319-.118-2.656-.241-3.975-.065-.683-.1-1.372-.2-2.055-.112-.783-.218-1.56-.324-2.343s-.3-1.59-.447-2.379c-.106-.577-.253-1.143-.389-1.714s-.259-1.154-.424-1.719c-.253-.842-.5-1.678-.753-2.515-.165-.541-.365-1.071-.56-1.6-.235-.636-.436-1.308-.712-1.932-.53-1.189-1.007-2.426-1.614-3.58-.447-.842-.889-1.69-1.336-2.538-.254-.489-.548-.954-.831-1.425-.777-1.307-1.578-2.591-2.4-3.874-.766-1.2-1.567-2.379-2.362-3.563-.4-.595-.842-1.166-1.266-1.743-.553-.759-1.112-1.5-1.713-2.226A33.43,33.43,0,0,0,95.7,50.09c-.371-.312-.749-.611-1.13-.908A28.182,28.182,0,0,0,91.9,46.847q-3.427-2.614-6.937-5.134c-.618-.448-1.271-.848-1.907-1.273-.919-.6-1.855-1.154-2.827-1.66a36.271,36.271,0,0,0-5.6-2.314,40.916,40.916,0,0,0-5.27-1.431,22.277,22.277,0,0,0-5.382-.365,30.122,30.122,0,0,0-3.151.39c.7-1.875,1.447-3.733,2.185-5.6.03-.065.059-.129.095-.194.753-1.52,1.531-3.027,2.314-4.534,1.495-2.868,2.932-5.765,4.34-8.674.688-1.431,1.407-2.856,1.972-4.34.342-.9.689-1.807.948-2.738a7.963,7.963,0,0,0,.389-2.92,4.962,4.962,0,0,0-.742-2.25,3.828,3.828,0,0,0-.777-.848A4.2,4.2,0,0,0,70.276.988,4.43,4.43,0,0,0,68.038.022a4.274,4.274,0,0,0-3.1,1.113,17.229,17.229,0,0,0-1.714,1.619A21.156,21.156,0,0,0,61.655,4.58c-.5.659-.989,1.324-1.437,2.014S59.37,7.983,58.976,8.7a31.735,31.735,0,0,0-1.925,4.511.682.682,0,0,0-.036.105c0-.006.006-.018.006-.023L57,13.347a51.136,51.136,0,0,0-1.5,5.282c-.412,1.678-.807,3.363-1.154,5.059-.336,1.636-.607,3.291-.866,4.946-.247,1.625-.453,3.262-.648,4.9-.149,1.23-.253,2.464-.446,3.686-.241.079-.482.158-.72.248-.512.194-1.03.394-1.542.589-.259.094-.524.182-.772.294-.689.306-1.378.613-2.061.925-1.378.612-2.72,1.307-4.057,2a1.381,1.381,0,0,0-.719,1.339,21.865,21.865,0,0,0-3.22,1.668,37.164,37.164,0,0,0-7.779,6.748c-.591.662-1.157,1.344-1.712,2.034-.974.9-1.9,1.857-2.838,2.8a41.359,41.359,0,0,0-3.3,3.81,44.731,44.731,0,0,0-3.21,4.646c-1.042,1.749-1.955,3.551-2.885,5.353-.253.494-.465,1.006-.689,1.513-.365.83-.736,1.66-1.1,2.491A46.825,46.825,0,0,0,14,78.423c-.465,1.454-.931,2.932-1.254,4.422-.354,1.637-.707,3.268-1.06,4.905-.112.506-.177,1.025-.265,1.531-.159.977-.324,1.955-.483,2.932-.23,1.372-.365,2.756-.53,4.14-.094.783-.206,1.572-.265,2.361-.135,1.89-.212,3.792-.177,5.688a73.68,73.68,0,0,0,1.7,13.944c.648,3.068,1.36,6.118,2.091,9.169.341,1.4.641,2.814.954,4.221.294,1.306.488,2.641.734,3.958.132.984.264,1.972.4,2.956.066.509.113,1.018.155,1.528l-.06.79q-.239,1.686-.472,3.364c-.147,1.013-.4,2.02-.612,3.021-.272,1.3-.586,2.592-.909,3.88-.4,1.223-.8,2.44-1.189,3.665-.471,1.513-.978,3.015-1.419,4.534q-1.254,4.311-2.426,8.644c-.324,1.207-.642,2.415-.936,3.628-.339,1.372-.7,2.746-1.006,4.129q-.642,2.9-1.274,5.8c.012-.07.03-.135.042-.2-.477,2.155-.907,4.328-1.325,6.495-.454,2.391-.936,4.776-1.325,7.172l-.813,5.035c-.088.518-.129,1.048-.194,1.572-.129,1.007-.253,2.02-.377,3.027-.365,2.92-.618,5.847-.895,8.779C.533,216.249.4,219,.209,221.738c-.029.453-.023.906-.035,1.359-.023.966-.053,1.938-.077,2.909s-.052,1.956-.076,2.933c-.006.3-.029.6-.018.9.148,3.727.2,7.467.566,11.176a77.961,77.961,0,0,0,3.047,15.13q.421,2.454,1.035,4.865a64.838,64.838,0,0,0,3.992,11.388,53.242,53.242,0,0,0,4.611,8.085c.936,1.331,1.861,2.662,2.809,3.987.4.559.842,1.1,1.266,1.637.583.754,1.171,1.507,1.754,2.267.878,1.13,1.832,2.208,2.756,3.3a48.6,48.6,0,0,0,6.448,6.43,34.409,34.409,0,0,0,9.687,5.659A58.926,58.926,0,0,0,49,306.435a37.3,37.3,0,0,0,4.286.417c.772.036,1.543.006,2.315-.006.647-.017,1.307-.046,1.949-.117a23.969,23.969,0,0,0,4.852-.877c.125-.042.25-.089.375-.136l.207,0a9.877,9.877,0,0,0,2.148.591,9.989,9.989,0,0,0,1.384.1,10.1,10.1,0,0,0,4.336-.985c.257-.017.513-.027.769-.048l.391-.031c.149.005.3.017.447.017.765,0,1.53-.006,2.294-.011a31.974,31.974,0,0,0,3.942,2.714,10.582,10.582,0,0,0,5.231,1.523c.135,0,.27,0,.4-.01a13.174,13.174,0,0,0,7.308-2.738,46.969,46.969,0,0,0,5.7-5.57c.784-.252,1.564-.515,2.347-.766.613-.194,1.208-.447,1.8-.683.7-.265,1.425-.507,2.1-.819.736-.336,1.473-.665,2.2-1,.483-.212.971-.412,1.431-.659,1.289-.689,2.614-1.325,3.862-2.085,1.272-.771,2.574-1.49,3.793-2.338,1.236-.859,2.508-1.672,3.674-2.62q1.2-.979,2.414-1.961c.318-.264.636-.518.936-.8.742-.7,1.484-1.395,2.232-2.1.377-.353.777-.7,1.137-1.078.612-.659,1.224-1.319,1.843-1.978.447-.477.936-.942,1.354-1.449.942-1.159,1.89-2.308,2.838-3.462.424-.524.783-1.107,1.172-1.654l1.572-2.261c.283-.4.518-.831.766-1.255q.768-1.308,1.537-2.608c.259-.436.53-.866.747-1.319.09-.184.182-.368.272-.552.466-.693.935-1.385,1.405-2.082.394-.6.742-1.231,1.113-1.844.336-.553.689-1.1.995-1.672.459-.86.919-1.719,1.378-2.585.695-1.3,1.26-2.667,1.872-4.01.3-.636.507-1.325.754-1.984.218-.56.459-1.125.648-1.7.265-.83.53-1.66.795-2.5.141-.46.3-.913.418-1.379.247-.965.489-1.925.736-2.885.106-.424.218-.842.294-1.272.129-.691.255-1.383.383-2.074.3-1.083.588-2.168.848-3.263.365-1.5.689-3,1.007-4.5.3-1.419.53-2.85.777-4.275.118-.672.183-1.36.271-2.037.083-.6.171-1.184.224-1.779.082-.936.165-1.866.247-2.8.053-.648.071-1.3.094-1.949.024-.7.077-1.4.077-2.1C151.7,218.269,151.7,217.415,151.7,216.562Zm-119.539,75.8a52.818,52.818,0,0,1-4.972-4.1,76.724,76.724,0,0,1-6.395-6.878h0a78.158,78.158,0,0,1-5.637-7.89.587.587,0,0,1,.031.056c-.029-.052-.061-.1-.09-.151l-.006,0a81.206,81.206,0,0,1-4.31-8.12v0a92.005,92.005,0,0,1-3.917-10.362c-.049-.166-.093-.334-.142-.5-.077-.467-.157-.933-.225-1.4-.009-.058-.017-.116-.026-.173.009.053.018.106.024.159-.1-.948-.19-1.891-.288-2.839-.032-.3-.065-.611-.1-.916A64.1,64.1,0,0,0,9.1,256.166c.084.213.161.428.246.641.559,1.395,1.142,2.773,1.743,4.151.612,1.4,1.266,2.767,1.931,4.14,1.284,2.673,2.733,5.252,4.169,7.837.683,1.225,1.4,2.438,2.138,3.628.712,1.165,1.407,2.337,2.167,3.474a63.261,63.261,0,0,0,4.44,6.094,50.08,50.08,0,0,0,8.2,7.532c-.673-.423-1.341-.854-1.994-1.312ZM10.274,180.092c.5-2.126,1.031-4.239,1.567-6.353-.024.082-.047.17-.071.259.471-1.761.919-3.527,1.407-5.288q.231-.836.462-1.669-.321,1.3-.65,2.6-1.446,5.642-2.9,11.276Zm61.3-135.11c.754.147,1.513.283,2.261.466.925.224,1.85.453,2.776.673A46,46,0,0,1,81.339,47.7a34.052,34.052,0,0,1,3.279,1.634,34.956,34.956,0,0,1,3.109,2.119,39.822,39.822,0,0,1,3.142,2.8,44.876,44.876,0,0,1,3.347,3.849c-.043-.057-.085-.113-.126-.169l.136.182.064.083-.051-.066a42.361,42.361,0,0,1,2.5,3.764c.748,1.334,1.416,2.7,2.034,4.09.385.972.765,1.945,1.151,2.917.294.754.535,1.525.789,2.3s.524,1.53.742,2.308q.39,1.389.776,2.773c.4,1.753.809,3.494,1.149,5.259.316,1.676.581,3.353.851,5.041.4,3,.784,6.007,1.192,9.008A74.148,74.148,0,0,0,107,104.079c.217.848.435,1.7.653,2.538a39.777,39.777,0,0,0,1.767,5.152c.518,1.26,1.054,2.52,1.672,3.733q.654,1.281,1.3,2.556c1.3,2.549,2.667,5.058,3.992,7.59s2.544,5.14,3.8,7.714c1.249,2.551,2.345,5.181,3.478,7.791l.12.3c1.1,2.685,2.208,5.376,3.274,8.078s2.161,5.43,3.132,8.179c.989,2.821,2.008,5.641,2.915,8.491.453,1.443.96,2.88,1.372,4.334.418,1.478.842,2.951,1.26,4.428-.029-.094-.053-.188-.082-.282.424,1.7.877,3.4,1.248,5.1.436,1.99.866,3.969,1.26,5.965.389,1.949.748,3.9,1.107,5.853.276,1.514.551,3.033.775,4.557l-.009-.07c.015.1.03.2.044.3l0-.024c.007.048.013.095.02.143l.021.14-.007-.042c.182,1.274.4,2.554.537,3.84.141,1.366.289,2.738.436,4.1.218,2,.353,4.016.477,6.024.159,2.573.306,5.146.418,7.719.1,2.259.111,4.517.146,6.774,0-.067,0-.133,0-.2-.041,1.478-.088,2.961-.129,4.445-.042,1.261-.165,2.526-.254,3.787-.178,2.5-.491,4.985-.753,7.482q-.354,2.259-.7,4.524-.586,3.749-1.516,7.427-.8,2.978-1.85,5.859c-.413.812-.828,1.622-1.229,2.439-.394.712-.783,1.437-1.171,2.155-.371.683-.713,1.4-1.125,2.067-.842,1.36-1.684,2.72-2.544,4.075-.742,1.018-1.484,2.037-2.238,3.049-.612.837-1.283,1.626-1.943,2.427-1.578,1.925-3.2,3.833-4.893,5.653l.059-.06c-.047.054-.094.1-.141.154a.236.236,0,0,0-.059.059l.035-.036a55.994,55.994,0,0,1-4.834,4.546c-.17.137-.349.259-.52.394-1.118.681-2.243,1.316-3.408,1.9-.818.417-1.637.83-2.455,1.248-1.741.755-3.5,1.5-5.264,2.207q1.086-1.713,2.15-3.442c.163-.265.312-.535.472-.8a42.773,42.773,0,0,0,3.554-5.423c.589-1.06,1.149-2.143,1.655-3.244.43-.925.871-1.861,1.219-2.821-.018.053-.035.106-.053.154q.565-1.485,1.136-2.969c.6-1.578,1.149-3.179,1.72-4.775q.8-2.233,1.6-4.469c.254-.719.5-1.443.754-2.167.265-.76.565-1.519.8-2.291.259-.847.512-1.7.766-2.555.235-.784.518-1.567.688-2.367v.019l.01-.043.008-.041,0,.014c.057-.266.115-.53.173-.8-.012.052-.024.1-.035.152.029-.135.058-.264.088-.4-.006.041-.012.077-.018.118.059-.289.124-.571.183-.86a.133.133,0,0,1,0,.028c.05-.232.1-.46.15-.693v.006c.035-.148.065-.294.094-.442a.4.4,0,0,1-.012.077c.083-.377.165-.754.248-1.119l-.017.07c.052-.23.1-.451.152-.676.012-.071.03-.142.041-.212-.011.052-.023.106-.035.152.059-.247.094-.506.135-.765.077-.518.159-1.031.242-1.548.141-.913.288-1.82.43-2.727.112-.73.182-1.466.271-2.2.117-.912.223-1.825.341-2.738.218-1.684.365-3.373.554-5.057.182-1.714.306-3.434.459-5.147.108-1.187.169-2.378.231-3.57.222-1.654.435-3.31.624-4.967.354-3.045.7-6.077,1-9.127q.269-2.778.51-5.555c.262-1.729.492-3.463.721-5.2.353-2.7.583-5.423.789-8.144.106-1.448.218-2.9.3-4.357.047-.8.094-1.608.129-2.414a9.251,9.251,0,0,0-.047-2.644,2.072,2.072,0,0,0-2.155-1.62,2.047,2.047,0,0,0-1.855,1.655c-.177,1.325-.289,2.656-.412,3.993-.2,2.261-.371,4.529-.54,6.8-.071-.708-.141-1.415-.216-2.123-.059-.612-.106-1.236-.188-1.849q-.361-2.826-.724-5.653c-.206-1.631-.477-3.256-.725-4.881q-.334-2.261-.73-4.511c.006.059.018.112.024.165-.136-.871-.259-1.749-.448-2.608a1.308,1.308,0,0,0-2.573.441c.041.954.171,1.9.277,2.85.076.671.159,1.337.235,2.008.183,1.572.36,3.151.554,4.723.424,3.462.913,6.919,1.407,10.375.236,1.625.4,3.256.6,4.888.094.712.1,1.448.147,2.167.053.812.118,1.631.159,2.449v3.61c0,.9-.035,1.79-.076,2.685-.063,1.623-.141,3.244-.225,4.864-.122.6-.24,1.207-.363,1.808-.606,2.962-1.254,5.912-1.914,8.868-.55,2.456-1.191,4.9-1.806,7.344q-.863,3.09-1.727,6.176c-.512,1.813-1.1,3.6-1.66,5.394-1.755,5.664-3.663,11.288-5.547,16.911-.919,2.744-1.926,5.459-2.874,8.2-.418,1.2-.924,2.379-1.383,3.569-.533,1.382-1.059,2.764-1.6,4.142-.55,1.238-1.085,2.481-1.631,3.718-.471,1.084-.913,2.2-1.431,3.263-1.669,3.424-3.285,6.872-5.171,10.188.027-.046.055-.091.083-.137q-.664,1.141-1.368,2.26c-1.326.352-2.659.67-4.015.912-1.042.177-2.085.306-3.139.43-.636.076-1.272.153-1.9.224-.253.029-.512.076-.765.094-.9.057-1.8.131-2.694.2.181-.345.368-.688.534-1.042.577-1.231,1.107-2.479,1.614-3.739.642-1.584,1.219-3.192,1.749-4.811.329-1.025.683-2.043.971-3.08q.531-1.9,1.054-3.8c.56-2,1.172-4,1.637-6.03q.663-2.887,1.331-5.771c.253-1.107.554-2.219.766-3.338.606-3.3,1.23-6.589,1.837-9.887.182-.959.288-1.937.43-2.9q.432-3.056.865-6.112c.412-2.867.689-5.747,1.013-8.626.33-2.933.595-5.866.877-8.8.259-2.691.507-5.387.713-8.079.218-2.844.459-5.682.642-8.526.094-1.566.188-3.127.265-4.693.035-.66.059-1.325.064-1.99.006-.471.012-.942.03-1.408a3.456,3.456,0,0,0-.371-1.684,1.941,1.941,0,0,0-1.873-1.065,1.916,1.916,0,0,0-1.684,1.307A19.664,19.664,0,0,0,93,204.535c-.1.691-.189,1.383-.275,2.074l0-.048c-.029.259-.065.524-.094.783l0-.049c-.347,2.789-.693,5.579-1.022,8.373.005-.051.01-.1.017-.151-.126.974-.247,1.948-.369,2.921q-.05-1.314-.1-2.627c-.059-1.6-.2-3.2-.312-4.793-.082-1.161-.165-2.32-.3-3.474-.071-.572-.153-1.131-.189-1.708a3.224,3.224,0,0,0-.212-1.031,1.41,1.41,0,0,0-1.348-.936,1.238,1.238,0,0,0-1.26,1.2c-.012.418-.018.83.006,1.249.17,3.321.506,6.636.889,9.945.194,1.626.359,3.257.524,4.887.041,1.261.041,2.527.041,3.792q.009,1.715.018,3.44c0,.411.012.83-.006,1.242q-.09,2.631-.189,5.256-.43,2.3-.852,4.59c-.559,3.015-1.207,6-1.855,9-1.177,5.507-2.579,10.959-3.9,16.435l.071-.259q-.872,3.3-1.688,6.6l.01-.037-.01.037c-.019.074-.037.148-.055.222.013-.064.029-.125.046-.188-.024.087-.046.175-.069.262.006-.025.012-.05.017-.074l-.384,1.47.021-.087c-.057.22-.115.441-.173.666-.023.082-.047.171-.07.253s-.042.171-.065.26c.017-.064.03-.124.046-.185-.06.234-.123.469-.182.7l.012-.05c-.049.183-.1.363-.145.55s-.1.36-.143.54c.008-.033.016-.066.023-.1-.106.42-.218.845-.33,1.265.016-.062.03-.126.047-.187-.094.347-.182.695-.276,1.037-.8,3.026-1.6,6.053-2.285,9.109a42.194,42.194,0,0,0-1.108,7.9c-.163.591-.3,1.188-.407,1.787-.033.192-.066.391-.1.592-.353.015-.7.027-1.058.043l.045,0c-.132.007-.262.011-.392.016-.023,0-.048,0-.072,0a.1.1,0,0,0,.024,0c-.315.007-.632.006-.948.009-.3-.355-.588-.709-.887-1.062a7.18,7.18,0,0,0-2.579-2.132,2.957,2.957,0,0,0-2.5.018,6.605,6.605,0,0,0-1.69,1.207,2.109,2.109,0,0,0-.634,1.886c-.27-.011-.539-.034-.809-.047-.822-.954-1.606-1.939-2.379-2.94-.663-.95-1.394-1.87-2.013-2.85-.679-1.065-1.352-2.129-2.03-3.193-.59-1.037-1.171-2.07-1.762-3.107-.524-.925-.972-1.9-1.443-2.845-.967-1.921-1.812-3.894-2.679-5.862-.659-1.652-1.307-3.309-1.961-4.961-.565-1.436-1.013-2.92-1.519-4.374-.418-1.208-.807-2.409-1.166-3.634-.479-1.637-.942-3.279-1.437-4.917-.549-2.31-1.07-4.632-1.619-6.942-.071-.306-.112-.63-.165-.936q-.2-1.185-.407-2.368c-.2-1.167-.4-2.334-.609-3.5q-.767-5.994-1.481-11.984c-.224-1.931-.483-3.857-.724-5.782-.224-1.726-.454-3.463-.819-5.164a27.163,27.163,0,0,0-.853-3.422,7.347,7.347,0,0,0-1.414-2.155,1.62,1.62,0,0,0-1.925-.388c-.11.051-.205.105-.306.157.005-.378.015-.757.01-1.136a1.228,1.228,0,0,0-1.025-1.218,1.211,1.211,0,0,0-1.289.706,8.412,8.412,0,0,0-.359,2.52c-.018.289-.03.571-.042.854-.041.813-.118,1.625-.124,2.432-.023,1.478-.052,2.956-.07,4.434-.012.636.035,1.284.053,1.926.029,1.006.059,2.019.088,3.032.024.85.086,1.7.152,2.545.011,1.145.047,2.289.074,3.433.029,1.312.123,2.614.2,3.921.141,2.255.288,4.493.589,6.737.267,1.993.621,3.97,1.049,5.93.1.706.2,1.412.309,2.118.224,1.561.56,3.1.866,4.646.218,1.449.536,2.886.818,4.323.189.965.371,1.925.566,2.891.082.441.206.883.312,1.319.288,1.148.577,2.3.859,3.438.161.636.3,1.282.487,1.908.257.871.523,1.731.791,2.6.3.971.589,1.937.883,2.909.495,1.631,1.1,3.238,1.744,4.817a47.65,47.65,0,0,0,3.044,6.271,39.163,39.163,0,0,0,2.47,3.67c-.74-.386-1.479-.771-2.223-1.157-.506-.277-.995-.571-1.49-.854-.589-.341-1.213-.654-1.79-1.025s-1.177-.747-1.766-1.118c-.525-.33-1.066-.642-1.567-.984-1.065-.759-2.131-1.518-3.2-2.261-1.048-.854-2.09-1.713-3.133-2.567-.842-.807-1.684-1.607-2.526-2.409-.677-.647-1.29-1.359-1.925-2.048-.6-.654-1.2-1.3-1.773-1.985l-2.184-2.622c-.012-.015-.024-.029-.036-.046a.361.361,0,0,1-.025-.03c-.759-.964-1.489-1.945-2.242-2.913-.577-.748-1.107-1.526-1.654-2.3-.584-.818-1.178-1.631-1.72-2.479q-.431-.665-.865-1.329c-.049-.1-.1-.195-.152-.3-.583-1.207-1.219-2.408-1.761-3.638s-1.068-2.443-1.6-3.667c-.994-2.5-2.028-5-2.9-7.551-.454-1.331-.966-2.662-1.372-4.01-.4-1.365-.821-2.729-1.232-4.094-.293-1.163-.6-2.328-.894-3.5-.218-.866-.389-1.743-.571-2.614-.12-.565-.242-1.128-.356-1.693,0-.247,0-.494.007-.741.023-.819.041-1.649.059-2.468.094-1.125.194-2.243.288-3.368.071-.789.2-1.578.306-2.367.136-.918.242-1.855.424-2.768q.345-1.774.689-3.55c.359-1.837.789-3.657,1.184-5.477.406-1.86.8-3.715,1.154-5.582.548-2.867,1.089-5.729,1.543-8.614.418-2.656.73-5.324,1.042-8,.318-2.726.636-5.453,1-8.173q.556-4.168,1.289-8.3c.07-.391.143-.782.214-1.173.755-2.915,1.5-5.833,2.191-8.764.324-1.378.612-2.751.877-4.14q.211-1.122.43-2.244c.13-.677.165-1.378.247-2.06.083-.707.218-1.42.254-2.126.035-.836.076-1.673.111-2.5.071-1.5.053-3,.059-4.5,0-.624-.035-1.248-.053-1.872-.026-.66-.024-1.328-.065-1.986l.022-.168c.575-2.381,1.143-4.767,1.52-7.189.453-2.92.883-5.841,1.107-8.791.058-.742.153-1.5.17-2.244q.027-1.183.053-2.367c.036-1.478-.017-2.95-.058-4.428-.036-1.437-.165-2.868-.26-4.3-.088-1.371-.259-2.743-.388-4.116-.071-.694-.183-1.383-.271-2.066s-.159-1.372-.271-2.049c-.212-1.355-.418-2.709-.648-4.058a90.231,90.231,0,0,1-1.49-10.923c0-.135,0-.269,0-.4.173-.685.355-1.367.537-2.049.248-.942.489-1.885.778-2.809.383-1.207.759-2.414,1.142-3.622-.018.048-.041.1-.059.148.448-1.213.895-2.432,1.343-3.645.329-.877.706-1.731,1.077-2.6s.724-1.743,1.137-2.591q.786-1.633,1.584-3.274c.648-1.2,1.319-2.39,1.972-3.586.295-.542.66-1.054.984-1.578.377-.589.748-1.183,1.119-1.772l-.095.129c.554-.777,1.119-1.548,1.673-2.32.418-.583.859-1.13,1.307-1.684.477-.6.948-1.207,1.454-1.778.642-.73,1.284-1.461,1.932-2.185l-.006.006c.371-.371.742-.748,1.113-1.125.341-.347.671-.724,1.042-1.048.754-.671,1.513-1.337,2.267-2.008.349-.27.7-.542,1.055-.813.48-.24.96-.479,1.437-.722.536-.271,1.108-.483,1.661-.724.461-.2.927-.405,1.393-.607.6-.226,1.209-.451,1.81-.671.53-.194,1.054-.43,1.6-.589,1.143-.35,2.291-.691,3.435-1.041a52.137,52.137,0,0,1,5.323-1.089,31.337,31.337,0,0,1,3.465-.247,33.679,33.679,0,0,1,3.645.255C67.979,44.318,69.782,44.633,71.579,44.982Zm-1.053,256.13c-.6-.027-1.209-.023-1.808-.073-.216-.07-.429-.145-.642-.228-.271-.126-.538-.261-.8-.4-.09-.058-.175-.123-.264-.183.58.017,1.161.031,1.744.031h.323l.749-.006C70.06,300.539,70.287,300.83,70.526,301.112ZM44.631,283.753v0l-.008-.019,0-.01h0l-.007-.019c.041.077.088.148.13.224.588.989,1.183,1.985,1.772,2.979.271.448.53.9.819,1.337,1.124,1.678,2.2,3.386,3.385,5.017-.359-.395-.712-.807-1.059-1.219,0,0,0,.006.011.006a36.913,36.913,0,0,1-2.626-3.692c.029.041.053.082.082.124A43.665,43.665,0,0,1,44.631,283.753Zm-2.559-17.769a94.071,94.071,0,0,1-3.833-11.073c.017.07.035.135.052.206a74.836,74.836,0,0,1-1.892-8.939l0,.018-.007-.052c-.007-.052-.015-.1-.022-.155l.01.064c-.227-1.695-.414-3.4-.517-5.1-.088-1.431-.182-2.862-.27-4.287-.116-1.824-.107-3.661-.146-5.492.029-1.878.053-3.752.14-5.631.068-1.49.185-2.972.337-4.456.382,1.745.662,3.51.926,5.277.25,1.945.518,3.883.739,5.821.335,2.945.671,5.889,1.042,8.827.177,1.4.306,2.82.542,4.21l.918,5.406c.471,2.785,1.19,5.529,1.82,8.285.1.436.247.872.371,1.307q.407,1.413.812,2.826c.33,1.154.636,2.315,1.025,3.451.589,1.743,1.184,3.486,1.772,5.235.454,1.331,1.013,2.638,1.52,3.951q.6,1.554,1.249,3.1-.676-1.1-1.323-2.213A100.785,100.785,0,0,1,42.072,265.984Zm3.7,14.441c1.425,2.314,2.921,4.581,4.563,6.742q1.669,2.2,3.339,4.393l-.02-.028c.713.925,1.495,1.805,2.246,2.7.6.724,1.218,1.439,1.828,2.157-.428-.066-.854-.141-1.28-.221-.532-.594-1.06-1.19-1.565-1.8-.919-1.123-1.82-2.269-2.636-3.466-.282-.412-.559-.83-.836-1.249-.706-1.054-1.407-2.113-2.12-3.167-.747-1.261-1.507-2.515-2.261-3.769-.538-.9-1.037-1.823-1.531-2.749C45.59,280.118,45.676,280.274,45.77,280.425Zm14.387,19.436c.138.013.276.031.415.043.041.057.084.112.126.169-.119-.016-.236-.04-.354-.058Zm20.055.078c1.22-.08,2.44-.178,3.66-.254l.107-.011c-.291.051-.583.1-.872.156-.9.17-1.8.33-2.695.5C80.344,300.2,80.274,300.072,80.212,299.939Zm38.256-56.452c-.241,1.454-.541,2.9-.818,4.352-.511,2.729-1.139,5.43-1.743,8.142-.386,1.428-.781,2.855-1.166,4.288-.3,1.107-.665,2.2-1.019,3.292-.371,1.136-.718,2.273-1.142,3.392l-.027.071q-.583,1.242-1.17,2.483c-.353.742-.683,1.5-1.054,2.232.018-.029.029-.059.047-.083l-.053.106-.006.013h0c-.842,1.59-1.678,3.192-2.5,4.793v-.006c0,.006-.006.012-.006.018-.024.042-.047.083-.071.13l.018-.033-.124.23c.011-.021.023-.041.035-.062-.029.059-.064.124-.094.183-.963,1.713-1.964,3.4-3.03,5.039q.117-.27.235-.54c.642-1.46,1.277-2.921,1.925-4.381.218-.488.395-1,.589-1.5l1.06-2.721c.489-1.254,1.019-2.5,1.46-3.763,1.914-5.452,3.834-10.893,5.636-16.381.93-2.844,1.878-5.676,2.767-8.532.09-.288.181-.576.271-.864Zm-99.7-135.056c.032.253.062.507.1.761.176,1.384.265,2.785.394,4.181.09.967.143,1.939.2,2.912C19.226,113.67,18.974,111.051,18.768,108.431ZM32.7,287.165c.271.23.541.471.836.678-.059-.041-.112-.083-.171-.118q1.538,1.095,3.074,2.2c.777.548,1.6,1.042,2.4,1.555.748.483,1.5.948,2.267,1.4.855.492,1.7,1.014,2.575,1.478.156.082.313.166.464.247-.059-.03-.118-.065-.183-.094.937.488,1.873.983,2.8,1.472-.058-.03-.123-.065-.182-.094.092.053.185.1.28.146a34.017,34.017,0,0,0,4.005,1.766c-1.338-.423-2.666-.877-3.97-1.4a49.541,49.541,0,0,1-5.576-2.761,61.1,61.1,0,0,1-5.927-4.021,52.166,52.166,0,0,1-4.261-3.74C31.653,286.3,32.178,286.731,32.7,287.165Zm113.782-56.088c-.156.892-.333,1.779-.517,2.664.1-1.279.226-2.563.271-3.845q.079-2.383.153-4.769c.024-.659-.012-1.325-.012-1.984-.011-.919-.017-1.832-.023-2.751-.018-1.5-.106-2.985-.165-4.474-.053-1.325-.13-2.65-.206-3.975-.031-.543-.069-1.086-.1-1.629.027.193.058.386.084.579.135,1.048.27,2.1.412,3.15.053.4.118.8.147,1.207.118,1.526.224,3.044.342,4.569.005,1.314.017,2.627.029,3.934.006,1.125-.076,2.25-.13,3.368-.054,1.2-.135,2.4-.224,3.6C146.521,230.841,146.5,230.959,146.484,231.077ZM110.523,81.269c.153.671.33,1.337.454,2.014.123.724.259,1.437.388,2.161.153,1.172.3,2.344.4,3.521.088,1.084.141,2.173.2,3.257a.112.112,0,0,1,0-.022c.047,1.175.094,2.35.164,3.519.007.107.015.214.022.321-.126-.7-.26-1.4-.352-2.109-.118-.925-.241-1.855-.359-2.779-.23-1.714-.406-3.439-.624-5.159-.206-1.648-.454-3.3-.76-4.94-.176-.924-.312-1.867-.53-2.785-.151-.654-.306-1.307-.46-1.961.14.39.281.78.419,1.17C109.846,78.737,110.229,79.991,110.523,81.269ZM64.134,37.526a24.166,24.166,0,0,1,2.836.056q1.213.133,2.411.38c.279.064.553.148.83.219a74.079,74.079,0,0,0-8.491.3c-.107.008-.213.023-.319.032a3.781,3.781,0,0,0-.41-.3,3.206,3.206,0,0,0-.38-.2c.274-.054.545-.123.82-.172C62.332,37.7,63.227,37.591,64.134,37.526ZM68.586,5.4c.1-.083.214-.16.327-.234s.212-.13.315-.184h.006v.041c0,.2-.006.4-.012.607-.05.456-.12.913-.215,1.369a24.856,24.856,0,0,1-.733,2.435c-1.025,2.8-2.332,5.493-3.463,8.255-1.248,3.027-2.349,6.112-3.574,9.151-.171.418-.341.842-.512,1.266-.595,1.219-1.166,2.449-1.69,3.709-.542,1.305-1.1,2.607-1.579,3.94l-.109.028a1.417,1.417,0,0,0,.151-.382c.047-.194.088-.388.13-.583l-.036.16c.2-.872.383-1.749.595-2.615.76-3.1,1.531-6.189,2.42-9.256q.768-2.641,1.6-5.271c.459-1.478,1.018-2.92,1.537-4.381-.018.053-.036.1-.053.153.516-1.277,1.081-2.537,1.717-3.769A27.2,27.2,0,0,1,67.1,7.075a12.091,12.091,0,0,1,.895-1.106C68.186,5.769,68.38,5.587,68.586,5.4ZM55.608,31.054c.194-1.313.383-2.626.624-3.927.13-.7.236-1.4.389-2.091s.294-1.354.435-2.026c.36-1.46.7-2.92,1.1-4.375q.334-1.236.694-2.473c.2-.677.43-1.342.654-2.008q.425-1.122.883-2.238c.271-.665.607-1.295.937-1.931A28.171,28.171,0,0,1,62.833,7.53c-.035.047-.071.1-.106.147.159-.224.318-.442.477-.665-.035.047-.071.1-.106.147.059-.089.118-.171.182-.259.607-.784,1.231-1.537,1.9-2.261.4-.414.815-.821,1.244-1.207l.046-.036.012-.012h0a.234.234,0,0,1,.035-.029l-.012.011c.188-.146.386-.282.589-.417.124-.065.248-.13.371-.189l.047-.018c.03,0,.053-.011.077-.017H67.6a.065.065,0,0,0-.03.006.2.2,0,0,1,.059-.006h.147c.07.01.14.024.206.039l-.053-.01a1,1,0,0,1,.112.03,1.938,1.938,0,0,0-.188.094,5.827,5.827,0,0,0-1.272.971A9.845,9.845,0,0,0,65.6,4.915a21.662,21.662,0,0,0-1.714,2.538,34.739,34.739,0,0,0-2.538,5.382q-.511,1.44-1.031,2.88c-.506,1.425-.953,2.879-1.383,4.328q-.725,2.438-1.4,4.887c-.854,3.1-1.648,6.224-2.361,9.369Q55.381,32.673,55.608,31.054Zm-.03,5.193-.3.078c-.12.031-.237.07-.356.1.039-.3.08-.6.115-.894A1.305,1.305,0,0,0,55.578,36.247ZM14.132,112.375a70.315,70.315,0,0,1-.613-8.025c-.005-1.983.094-3.954.27-5.925.169-1.348.347-2.7.525-4.045.141-1.136.359-2.267.559-3.391.2-1.107.383-2.2.63-3.3q.473-2.078.943-4.155.28-1.04.6-2.063a38.573,38.573,0,0,0-.668,4.631c-.223.952-.432,1.907-.606,2.871a49.273,49.273,0,0,0-.753,6.171c-.048.83-.053,1.66-.065,2.5,0,.155,0,.31,0,.466a58.438,58.438,0,0,0-.348,9.6q.1,2.385.212,4.77c0-.054-.006-.106-.006-.154.077,1.848.189,3.7.291,5.543C14.746,116.044,14.437,114.212,14.132,112.375ZM34.645,298.423c-1-.6-1.945-1.248-2.875-1.933a42.772,42.772,0,0,0,4.918,2.81q2.029.978,4.13,1.81c-.844-.268-1.683-.553-2.511-.879A34.1,34.1,0,0,1,34.645,298.423Z"/><path d="M6.934,175.937c.008-.034.017-.069.025-.1l.022-.1C6.963,175.8,6.952,175.867,6.934,175.937Z"/><path d="M43.784,294.408c-.036-.018-.07-.039-.1-.058l-.078-.042C43.66,294.343,43.719,294.373,43.784,294.408Z"/><path d="M50.75,115.235a19.436,19.436,0,0,0-2.85-5.494c-.883-1.089-1.955-2.414-3.392-2.709a6.261,6.261,0,0,0-.536-.848,5.669,5.669,0,0,0-1.666-1.484c-.618-.365-1.272-.665-1.908-1-.159-.088-.318-.176-.471-.27a1.39,1.39,0,0,0-1.778.3c-.089.1-.177.194-.271.294a21.861,21.861,0,0,0-3.5,3.881,16.988,16.988,0,0,0-1.8,4.94c-.43,1.943-.653,3.916-.889,5.888-.247,2.067-.43,4.134-.489,6.213-.065,2.267-.041,4.528,0,6.789.042,2.114.083,4.228.212,6.342.077,1.172.165,2.338.3,3.5.106.93.241,1.86.323,2.8a11.024,11.024,0,0,0,1.037,4.575,4.807,4.807,0,0,0,1.76,1.743,5.276,5.276,0,0,0,2.185.807c.083,0,.165,0,.247,0a4.782,4.782,0,0,0,3.51-2.219c.565-.76,1.071-1.561,1.56-2.373s.99-1.637,1.4-2.5c.206-.436.406-.871.589-1.313a3.991,3.991,0,0,0,1.89-.624,7.074,7.074,0,0,0,1.778-1.82,20.464,20.464,0,0,0,2.774-5.441,30.472,30.472,0,0,0,1.595-13.413A27.828,27.828,0,0,0,50.75,115.235Zm-7.912-3.281c.047-.062.094-.121.145-.182a.82.82,0,0,1,.071-.064c0-.006,0-.006.006-.006a.017.017,0,0,1,.011.006c.042.17.077.341.112.512a1.459,1.459,0,0,0-.271-.029,1.613,1.613,0,0,0-.235.023C42.729,112.128,42.786,112.041,42.838,111.954Zm-3.082-2.5a12.245,12.245,0,0,0-2.2,5.041c-.306,1.319-.6,2.644-.842,3.986-.024.094-.053.2-.077.3-.076.324-.141.647-.212.977a11.371,11.371,0,0,0-.636,2.02c-.2.918-.359,1.849-.536,2.774-.194,1.053-.359,2.1-.453,3.173-.206,2.326-.206,4.676-.212,7.008,0,1.236.024,2.478.088,3.715.057,1.055.177,2.1.228,3.159a8.667,8.667,0,0,0,.591,3.472,3.29,3.29,0,0,0,1.019,1.271,8.236,8.236,0,0,0,1.242.7l-.034-.02.052.026a.313.313,0,0,0,.036.019c.079.044.155.092.235.146a1.654,1.654,0,0,0,.612.212c-.177.235-.365.465-.559.689-.118.117-.236.23-.365.341a1.922,1.922,0,0,1-.218.159c-.042.024-.083.048-.13.071a.394.394,0,0,1-.076.029c-.012.006-.024.006-.036.012-.047-.006-.094-.018-.141-.023l-.2-.053c-.128-.055-.248-.106-.37-.163a5.364,5.364,0,0,1-.5-.3c-.118-.088-.224-.176-.33-.27a1.708,1.708,0,0,1-.141-.142c-.041-.053-.077-.106-.112-.159-.047-.082-.094-.165-.135-.247-.059-.141-.118-.289-.165-.436-.074-.261-.142-.528-.194-.795v0l0-.025,0,.007a.3.3,0,0,1,0-.031.65.65,0,0,1-.024-.106c.006.024.012.047.018.077-.112-.73-.165-1.472-.242-2.2-.07-.766-.188-1.52-.277-2.279-.2-1.744-.323-3.494-.4-5.249-.1-2.491-.148-4.992-.16-7.482-.012-2.462.035-4.917.241-7.367,0,.059,0,.118-.011.177.129-1.437.306-2.873.488-4.3.164-1.253.346-2.5.6-3.735a.4.4,0,0,1-.018.066,23.35,23.35,0,0,1,.756-2.677l-.009.016a15.158,15.158,0,0,1,.63-1.437c.1-.183.212-.359.324-.536.242-.33.5-.636.766-.936.589-.618,1.213-1.2,1.813-1.808.389.194.783.389,1.166.589-.053-.024-.106-.053-.165-.083.248.136.5.277.725.43.106.083.206.159.3.248.047.047.094.1.141.147.006.006.012.012.012.018a4.962,4.962,0,0,0-1.242,1.089A8.283,8.283,0,0,0,39.756,109.458Zm1.69,27.511a45.4,45.4,0,0,1-.977-4.687c0,.012.006.023.006.041q-.2-1.184-.354-2.367a9.656,9.656,0,0,0,.318,1.2,8.465,8.465,0,0,0,1,2.114,2.542,2.542,0,0,0,.524.542C41.841,134.873,41.664,135.927,41.446,136.969Zm1.449-19.65a3.492,3.492,0,0,0-.854-1.142.173.173,0,0,0-.035-.029c.264-.189.53-.365.794-.542.118.106.236.212.348.318a9.287,9.287,0,0,1,.671.689,1.132,1.132,0,0,1,.083.106c.064.648.111,1.289.147,1.937A4.081,4.081,0,0,0,42.9,117.319Zm3.727-1.825c-.041-.065-.077-.13-.118-.194-.035-.271-.07-.542-.112-.813Q46.517,114.991,46.622,115.494Zm3.2,11.965c0-.028,0-.057,0-.086a31.829,31.829,0,0,1-.544,3.465,36.6,36.6,0,0,1-1.16,4.017,20.615,20.615,0,0,1-.881,2.049.391.391,0,0,0-.02.041.6.6,0,0,0-.059.113c.017-.042.035-.077.053-.113a25.362,25.362,0,0,1-1.332,2.187l.013-.013c-.071.1-.147.194-.218.288.13-.412.259-.824.383-1.237a53.419,53.419,0,0,0,1.849-8.108,25.914,25.914,0,0,0,1.3-5.005,32.7,32.7,0,0,0,.383-4.146,27.766,27.766,0,0,1,.312,3.133v-.006A28.942,28.942,0,0,1,49.82,127.459Z"/><path d="M77.012,137.236c.177,1.236.371,2.473.654,3.692a32.915,32.915,0,0,0,.93,3.185,14.95,14.95,0,0,0,1.225,2.939c.141.229.288.447.447.659a17.169,17.169,0,0,0,1.09,1.967,6.334,6.334,0,0,0,1.813,1.978,3.989,3.989,0,0,0,2.144.625c.147,0,.288-.012.435-.024a7.856,7.856,0,0,0,2.65-.766,7.4,7.4,0,0,0,2.3-1.731,11.643,11.643,0,0,0,.954-1.26,8.141,8.141,0,0,0,2.367-2.479,17.764,17.764,0,0,0,2.491-5.806,32,32,0,0,0,.854-6.889A41.182,41.182,0,0,0,94.819,118.9c-.389-1.072-.789-2.149-1.249-3.2-.064-.318-.129-.636-.2-.954-.247-1.119-.459-2.256-.742-3.369a12.779,12.779,0,0,0-1.183-3.25c-.536-.913-1.2-1.737-1.79-2.62a1.593,1.593,0,0,0-2.044-.477,14.2,14.2,0,0,0-2.92,1.755,6.376,6.376,0,0,0-.925,1.177,8.885,8.885,0,0,0-.93.4,7.106,7.106,0,0,0-2.232,1.672,9.322,9.322,0,0,0-1.419,2.243,26.705,26.705,0,0,0-1.666,5.671c-.012.053-.024.106-.036.165a16.406,16.406,0,0,0-1.007,4.611,48,48,0,0,0-.259,6.889C76.341,132.166,76.647,134.709,77.012,137.236Zm10.646,5.67a7.538,7.538,0,0,1-.535.689l-.053.053c-.112-.253-.218-.512-.318-.771-.118-.789-.148-1.578-.195-2.373-.011-.207-.023-.413-.041-.619a3.965,3.965,0,0,0,.159.366,7.378,7.378,0,0,0,1.148,1.483,1.677,1.677,0,0,0,.365.307Q87.94,142.482,87.658,142.906Zm1.478-17.2a.808.808,0,0,1-.082.035c-.041.018-.082.042-.13.059.018-.012.042-.017.059-.029a3.906,3.906,0,0,0-1.472.948,4.164,4.164,0,0,0-.812,1.56c.035-.388.076-.777.123-1.172.165-.435.324-.871.483-1.307-.023.071-.047.142-.071.206.171-.459.348-.912.554-1.354.088-.159.177-.318.277-.471.076-.106.165-.206.253-.306.029-.035.065-.065.094-.095.265.631.507,1.273.73,1.92-.023.012-.053.024-.076.036C89.089,125.724,89.113,125.718,89.136,125.706Zm.489-7.166c.13-.018.259-.03.389-.036a1.572,1.572,0,0,1,.171.006.454.454,0,0,1,.088.012.608.608,0,0,1,.047.059,4.542,4.542,0,0,1,.212.418c.154.368.275.743.4,1.121.09.294.178.585.269.875-.3-.335-.606-.659-.9-1.007a1.572,1.572,0,0,0-.818-.488c-.13-.248-.271-.5-.412-.742a.545.545,0,0,0,.082-.077h.006a.156.156,0,0,1,.041-.023c.041-.018.077-.03.118-.048Zm-4.133-6.03c0,.012-.006.024-.006.036q.175-.788.423-1.555a.117.117,0,0,1,.042-.006,1.254,1.254,0,0,1,.153.006c.017,0,.041.006.059.006s.041.012.064.018.054.023.083.035.082.053.118.076c.129.095.253.2.377.306.253.254.482.513.706.784a27.286,27.286,0,0,1,1.625,2.273c.089.153.177.3.259.447a5.56,5.56,0,0,0-1.319.294,4.324,4.324,0,0,0-1.177.648l-.265-.265a13.38,13.38,0,0,0-1.484-1.283C85.256,113.723,85.362,113.111,85.492,112.51Zm-1.025,6.681c.052-.529.114-1.058.182-1.581.195.188.383.382.572.582-.03.065-.059.13-.083.2a19.559,19.559,0,0,0-.789,2.632c.036-.66.083-1.319.136-1.979C84.48,119.088,84.473,119.139,84.467,119.191Zm-3.392-1.417c.018-.082.035-.159.053-.235a.159.159,0,0,0,.03-.036c.088-.088.176-.176.265-.259-.071.583-.136,1.16-.183,1.743a1.569,1.569,0,0,0-.43.118c.094-.518.206-1.03.318-1.549C81.11,117.627,81.093,117.7,81.075,117.774Z"/><path d="M38.343,272.569c-.005-.017-.009-.036-.014-.053s-.019-.059-.027-.088C38.313,272.475,38.331,272.522,38.343,272.569Z"/><path d="M69.01,177.879a3.327,3.327,0,0,0,1.867.525,4.071,4.071,0,0,0,1.542-.325c.189.23.377.454.571.666a3.76,3.76,0,0,0,.9.748,2.591,2.591,0,0,0,1.171.424h.03a1.906,1.906,0,0,0,1.095-.312,3.577,3.577,0,0,0,1.331-2.067A5.411,5.411,0,0,0,77.648,176a13.1,13.1,0,0,0-.124-1.737,25.791,25.791,0,0,0-.794-3.457c-.165-.553-.371-1.089-.56-1.637a15.439,15.439,0,0,0-1.466-2.944,2.944,2.944,0,0,0-1.837-1.372,3.07,3.07,0,0,0-2.232.719,3.631,3.631,0,0,0-1.248,2.025c-.036.142-.065.283-.089.424a3.89,3.89,0,0,0-.406.406,7.8,7.8,0,0,0-1.719,3.852,6.635,6.635,0,0,0,.447,4.08A4.1,4.1,0,0,0,69.01,177.879Z"/></svg>