<svg xmlns="http://www.w3.org/2000/svg" width="64.995" height="183.135" viewBox="0 0 64.995 183.135"><path d="M17.863,8.035l-.008,0-.007.005Z"/><path d="M64.671,29.819a27.161,27.161,0,0,0-2.9-8.038,28.185,28.185,0,0,0-5.011-6.672,26.141,26.141,0,0,0-6.83-4.928,27.321,27.321,0,0,0-3.616-1.432,32.165,32.165,0,0,0-2.838-2.5A31.44,31.44,0,0,0,36.33,1.89,23.855,23.855,0,0,0,28.44.017,20.371,20.371,0,0,0,20.7,1.277a23.588,23.588,0,0,0-6.919,3.916,36.283,36.283,0,0,0-5.665,5.783,38.613,38.613,0,0,0-7.266,15.1,31.575,31.575,0,0,0,.547,16.582,21.8,21.8,0,0,0,3.539,6.96,24.5,24.5,0,0,0,6.042,5.328,27.5,27.5,0,0,0,7.49,3.292,29.986,29.986,0,0,0,7.832,1.11l.37,0c.184,0,.368-.012.552-.017a2.538,2.538,0,0,0-.046.35,78.738,78.738,0,0,0,.477,9.628c.124,1.6.242,3.208.389,4.816q.144,1.538.294,3.074-.015.318-.029.636c-.03.653-.071,1.307-.077,1.96-.006.884-.017,1.767-.023,2.65q-.08,7.693-.147,15.387c-.006.766-.006,1.519.023,2.285.088,2.214.177,4.422.265,6.636q.274,6.924.548,13.838c.041,1.042.147,2.084.223,3.12q.311,4.055.613,8.109c.247,3.321.453,6.642.807,9.951q.432,4.055.865,8.1c.153,1.436.277,2.874.465,4.3.524,3.94,1.019,7.885,1.6,11.818.283,1.926.56,3.857.854,5.777.188,1.225.377,2.456.559,3.68.142.931.242,1.873.413,2.8a13.323,13.323,0,0,0,.412,1.82c.182.577.382,1.142.577,1.713a2.16,2.16,0,0,0,2.006,1.356,2.2,2.2,0,0,0,1.727-.855,6.48,6.48,0,0,0,1.036-1.543,8.215,8.215,0,0,0,.483-1.955,19.128,19.128,0,0,0,.134-2.138,1.64,1.64,0,0,0,.273.024,1.755,1.755,0,0,0,1.607-1.072c.212-.553.459-1.095.666-1.648a7.958,7.958,0,0,0,.376-1.649,28.27,28.27,0,0,0,.242-3.869c-.006-1.39-.012-2.779-.059-4.169-.071-2.314-.147-4.622-.224-6.937-.059-1.878-.124-3.762-.182-5.641-.012-.382-.053-.765-.089-1.148-.07-.906-.147-1.819-.218-2.726q-.343-4.213-.677-8.414c-.129-1.614-.241-3.233-.394-4.853-.13-1.4-.306-2.8-.46-4.192q-.459-4.2-.924-8.409Q40.355,110.52,39.1,99.1c-.165-1.5-.276-3.015-.412-4.529l-.706-7.76c-.118-1.361-.207-2.721-.3-4.081-.145-2.091-.3-4.176-.424-6.26-.151-3.258-.3-6.516-.394-9.774-.031-1.079-.05-2.16-.067-3.242a1.264,1.264,0,0,0,.326-1.439c-.072-.148-.146-.3-.219-.45l.007.014c-.022-.046-.043-.091-.065-.134l-.012-.025.006.012c-.026-.051-.052-.1-.078-.149-.017-.932-.038-1.864-.069-2.8.149-.024.3-.042.448-.068a23.368,23.368,0,0,0,6.2-2.055,29.548,29.548,0,0,0,3.62-.943,32.211,32.211,0,0,0,8.108-3.974,23.641,23.641,0,0,0,6.018-5.788,19.653,19.653,0,0,0,3.41-7.42A22.252,22.252,0,0,0,64.671,29.819ZM37.092,161.929q.044,1.109.082,2.216c-.089-.563-.175-1.128-.255-1.691l-.051-.359A2.447,2.447,0,0,0,37.092,161.929ZM47.358,14.541q.218.286.429.577c-.589-.406-1.194-.791-1.814-1.145C46.44,14.151,46.9,14.339,47.358,14.541ZM26.411,55.753q-1.12-.156-2.233-.374a46.932,46.932,0,0,1-5.079-1.4,36.493,36.493,0,0,1-3.8-1.537q-1.087-.543-2.123-1.186a24.816,24.816,0,0,1-2.45-1.864l.01.009-.017-.015-.118-.1c.028.025.056.048.084.071a26.7,26.7,0,0,1-2.015-2.022c-.514-.6-1-1.225-1.455-1.878l.023.037-.031-.049c-.023-.033-.046-.065-.069-.1.018.023.035.048.051.072a18.75,18.75,0,0,1-1.077-1.883c-.33-.716-.619-1.441-.882-2.184A26.035,26.035,0,0,1,4.4,38.1l0,.011c-.162-.915-.28-1.832-.353-2.762a30.643,30.643,0,0,1,.013-3.4,35.937,35.937,0,0,1,.518-3.937,34.419,34.419,0,0,1,1.011-3.83,37.5,37.5,0,0,1,1.634-3.994,31.509,31.509,0,0,1,1.937-3.41,35.121,35.121,0,0,1,2.313-3.023,37.848,37.848,0,0,1,3.283-3.335A32.962,32.962,0,0,1,17.811,8.07a.646.646,0,0,1-.071.044l.115-.074.009-.006a33.761,33.761,0,0,1,3.086-1.78l-.077.035L21,6.23l.034-.018-.02.011A24.85,24.85,0,0,1,23.77,5.107c.6-.186,1.208-.344,1.828-.475.544-.1,1.088-.164,1.637-.211h-.044l.064,0,.107-.01-.085.008a15.015,15.015,0,0,1,1.559.013l-.031,0,.045,0c.042,0,.084,0,.126.008a.6.6,0,0,1-.074,0c.175.017.349.041.523.071.262.061.515.131.774.206.622.215,1.238.447,1.844.722A1.346,1.346,0,0,0,33.792,4.7a1.311,1.311,0,0,0,.095-.388h0a23.034,23.034,0,0,1,2.375.975,31.412,31.412,0,0,1,2.884,1.667q.42.279.836.568a29.117,29.117,0,0,0-6.661.24,32.61,32.61,0,0,0-9.764,3.02q-.465.149-.923.325a23.708,23.708,0,0,0-7.007,4.133,24.9,24.9,0,0,0-5.188,6.054A23.209,23.209,0,0,0,7.565,28.83a21.962,21.962,0,0,0,3.051,15.657,24.408,24.408,0,0,0,5.358,6.065,25.381,25.381,0,0,0,7.2,4.093,28.075,28.075,0,0,0,4.026,1.1Q26.806,55.751,26.411,55.753Zm6.745,15.96q-.265-2.068-.522-4.135.132-1.379.28-2.755c.1-.914.192-1.83.3-2.744q.027,1.239.052,2.479c.035,1.773.065,3.545.147,5.312q.124,2.862.254,5.724Q33.406,73.653,33.156,71.713Zm20.15-36.721a22.049,22.049,0,0,1-.62,2.3c.006-.018.013-.035.02-.052-.012.036-.025.07-.038.1s-.025.079-.039.119l.026-.082a23.086,23.086,0,0,1-.885,2.151c-.383.744-.8,1.459-1.254,2.163a37.432,37.432,0,0,1-2.845,3.664.5.5,0,0,0,.039-.041q-.627.7-1.284,1.379-.575.325-1.169.621c.045-.022.09-.043.136-.063l-.159.074-.124.062.118-.059c-.821.381-1.66.714-2.516,1.012a32.077,32.077,0,0,1-3.725.964,31.874,31.874,0,0,1-3.414.416,27.891,27.891,0,0,1-3.154-.029,33.487,33.487,0,0,1-3.336-.45l.081.018-.093-.02-.2-.039.19.036a24.928,24.928,0,0,1-2.451-.655c-.67-.239-1.322-.515-1.969-.818A24.907,24.907,0,0,1,22.3,46.441q-.652-.446-1.271-.935c-.242-.246-.477-.5-.708-.757-.47-.566-.907-1.149-1.318-1.757-.42-.669-.8-1.351-1.153-2.052-.294-.637-.555-1.281-.785-1.943a16.732,16.732,0,0,1-.449-1.763c-.082-.537-.14-1.07-.179-1.606-.027-.677-.016-1.353.022-2.033q.091-1.081.28-2.148.036-.169.075-.339a2.43,2.43,0,0,0,.462-1.4l0-.3,0-.012c.242-.664.513-1.31.816-1.948a24.984,24.984,0,0,1,1.356-2.361,26.8,26.8,0,0,1,1.68-2.2,26.75,26.75,0,0,1,2.012-2,27.289,27.289,0,0,1,2.229-1.714,25.854,25.854,0,0,1,2.27-1.3q.761-.207,1.535-.365c.75-.127,1.5-.22,2.266-.274.822-.029,1.639-.022,2.46.022a23.9,23.9,0,0,1,2.424.316,20.833,20.833,0,0,1,2.237.591c.744.265,1.466.57,2.184.906a30.417,30.417,0,0,1,2.919,1.67,31.416,31.416,0,0,1,2.735,2.076,29.681,29.681,0,0,1,2.307,2.277,25.69,25.69,0,0,1,1.7,2.2,28.631,28.631,0,0,1,1.733,3.034c.294.644.56,1.3.79,1.971q.228.752.387,1.517.047.294.082.588C53.376,34.6,53.343,34.794,53.306,34.992Zm6.681-.19a22.32,22.32,0,0,1-.315,2.309c-.124.544-.264,1.076-.431,1.6-.174.49-.37.967-.586,1.441a22.755,22.755,0,0,1-1.143,2q-.288.417-.589.82a16.105,16.105,0,0,0,1.689-3.886,18.442,18.442,0,0,0,.377-8.232,22.122,22.122,0,0,0-3.3-7.8q-.355-.555-.742-1.089-.5-1.245-1.084-2.456c-.064-.134-.129-.268-.194-.4q.446.456.873.933a27.516,27.516,0,0,1,1.8,2.373,29.79,29.79,0,0,1,1.494,2.628,31.393,31.393,0,0,1,1.315,3.233c.23.738.427,1.48.59,2.233a20.067,20.067,0,0,1,.273,2.13Q60.048,33.73,59.987,34.8Z"/></svg>