<svg xmlns="http://www.w3.org/2000/svg" width="217.947" height="250.643" viewBox="0 0 217.947 250.643"><polygon points="134.922 35.631 134.925 35.629 134.926 35.628 134.922 35.631"/><path d="M200.53,95.985h0Z"/><path d="M134.932,35.624l-.006,0,.02-.012Z"/><path d="M114.15,188.78l.186.016.026,0Z"/><path d="M153.944,15.2l.118-.076c.022-.013.043-.028.064-.042C154.062,15.118,154,15.154,153.944,15.2Z"/><path d="M184.811,134.059l.006-.006.01-.011Z"/><path d="M64.388,50.3l-.012-.021-.007-.011Z"/><path d="M50.514,61.855l0-.022,0-.015Z"/><path d="M112.725,191.953l-.181-.015-.031,0Z"/><path d="M156.209,43.409l-.007-.04c-.009-.056-.019-.111-.029-.166C156.185,43.267,156.2,43.338,156.209,43.409Z"/><path d="M110.979,136.634l-.019.054,0,.017Z"/><path d="M217.937,91.434a3.417,3.417,0,0,0-.4-1.484,3.02,3.02,0,0,0-.406-.6,5.015,5.015,0,0,0-.577-.542,6.085,6.085,0,0,0-1.784-.912,9.092,9.092,0,0,0-1.814-.454,35.554,35.554,0,0,0-4.475-.377c-1.484-.035-2.968.012-4.452.036-.954.011-1.9.046-2.856.088-1.205.051-2.416.075-3.622.152l-.1,0,.053,0q-.6.03-1.193.056c-.125,0-.249-.01-.374-.013-2.132-.065-4.263-.124-6.389-.206-2.225-.082-4.438-.2-6.657-.343-2.395-.217-4.807-.416-7.178-.852-.17-.3-.34-.6-.5-.915-.058-.287-.116-.574-.169-.862a3.672,3.672,0,0,0,.7-1.416,14.733,14.733,0,0,0,.483-3.474c.041-1.142.018-2.279-.047-3.415a65.8,65.8,0,0,0-.83-7.19c-.424-2.555-.937-5.088-1.508-7.608q-.689-3.029-1.372-6.059c-.3-1.348-.653-2.691-.977-4.034-.43-1.76-.836-3.527-1.29-5.276-.771-2.95-1.448-5.918-2.22-8.862q-1.377-5.273-2.791-10.54c-.842-3.138-1.7-6.277-2.514-9.422q-.61-2.331-1.2-4.681c-.195-.777-.389-1.56-.577-2.343-.124-.495-.248-1-.371-1.49-.077-.33-.16-.654-.248-.977a7.055,7.055,0,0,0-.459-1.119,1.517,1.517,0,0,0-2.4-.326q-.26-.767-.517-1.535a20.657,20.657,0,0,0-.836-2.1,8.548,8.548,0,0,0-.648-1.272,2.949,2.949,0,0,0-.86-.831,1.705,1.705,0,0,0-2.066.283,11.689,11.689,0,0,0-.966,1.066c-1,1.2-1.914,2.467-2.862,3.71-1.042,1.372-2.072,2.749-3.121,4.116-.7.913-1.417,1.817-2.13,2.722-.513.592-1.028,1.183-1.553,1.764l-.155.169.05-.052-.135.145-.03.032.016-.017-.279.3.016-.017-.051.055-.114.121.027-.026-1.343,1.45c.038-.041.078-.081.115-.122-.189.206-.377.406-.56.607.053-.059.106-.119.159-.177-.146.159-.293.322-.442.483h0l-.021.022-.144.154.016-.016-.165.176-.066.07.032-.035c-.288.306-.6.594-.9.889L136,19.977c-.607.595-1.207,1.19-1.831,1.767-3.41,3.162-6.831,6.318-10.3,9.41-1.849,1.642-3.674,3.309-5.541,4.928-1.848,1.612-3.713,3.213-5.562,4.83-.862.713-1.713,1.448-2.564,2.171-.919.778-1.849,1.543-2.762,2.332l.177-.141q-2.584,2.121-5.134,4.282-2.12,1.092-4.241,2.185c-2.686,1.383-5.373,2.781-8.108,4.071a42.518,42.518,0,0,1-4.392,1.747,22.371,22.371,0,0,1-2.3.551c-.428.062-.849.111-1.28.14-.2.007-.4,0-.6,0-.266-.029-.528-.064-.79-.111-.218-.056-.431-.12-.643-.188-.265-.259-.536-.513-.8-.779-.539-.562-1.047-1.14-1.558-1.723a66.361,66.361,0,0,1-4.213-5.751c-.435-.72-.851-1.454-1.277-2.184s-.9-1.46-1.3-2.219c-.8-1.526-1.508-3.1-2.262-4.647-.371-.753-.777-1.5-1.2-2.225a32.534,32.534,0,0,0-1.755-2.756,6.174,6.174,0,0,0-2.043-2.014,3.059,3.059,0,0,0-2.137-.265c-.089.02-.163.066-.247.093-.062-.1-.123-.2-.185-.291l.012.016c-1.013-1.631-2.067-3.238-3.092-4.863-1.283-2.014-2.549-4.039-3.833-6.053q-1.033-1.635-2.073-3.251c-.306-.483-.618-.96-.924-1.436-.336-.513-.654-1.055-1.019-1.544a4.482,4.482,0,0,0-1.183-1.218,2.315,2.315,0,0,0-1.367-.307,2.624,2.624,0,0,0-1.336.483,4.255,4.255,0,0,0-1.019,1.195,15.568,15.568,0,0,0-1.684,4.14c-.271.96-.53,1.926-.736,2.9-.3,1.414-.583,2.821-.878,4.234-.182.889-.4,1.773-.547,2.667q-.645,3.922-1.284,7.838c-.153.924-.253,1.855-.382,2.785l-.654,4.77c-.306,2.249-.554,4.5-.819,6.765-.259,2.132-.488,4.264-.706,6.395-.471,4.5-.872,9-1.313,13.491-.242,2.408-.442,4.823-.719,7.225-.271,2.332-.506,4.676-.824,7-.677,4.935-1.39,9.869-2.214,14.786-.389,2.32-.772,4.634-1.172,6.948-.095.555-.194,1.109-.291,1.664a47.567,47.567,0,0,1-2.179,5.155,23.378,23.378,0,0,1-1.337,2.261l0-.007-.006.009-.112.162c.021-.034.043-.067.066-.1-.24.325-.492.634-.757.942-.061.065-.129.122-.191.186-.52.048-1.041.084-1.567.111-1.721.05-3.447.1-5.167.183.065-.006.124-.006.189-.012-.566.023-1.125.059-1.69.088.064-.006.123-.006.188-.012-.31.015-.619.033-.928.049-.714-.313-1.428-.627-2.128-.963-.771-.365-1.548-.718-2.3-1.107-.716-.363-1.421-.731-2.136-1.09-1.035-.56-2.081-1.1-3.116-1.654-.472-.247-.948-.494-1.42-.748-.382-.2-.771-.411-1.171-.577a6.394,6.394,0,0,0-1.749-.547,4.267,4.267,0,0,0-1.5.076,2.779,2.779,0,0,0-1.254.813,3.461,3.461,0,0,0-.813,2.856,10.078,10.078,0,0,0,1.29,3.756,28.394,28.394,0,0,0,2.561,3.8c1.72,2.161,3.551,4.233,5.388,6.294,1.22,1.373,2.5,2.69,3.791,3.988l.333.569c.32.543.618,1.107.968,1.64.461.734.935,1.456,1.4,2.188.359.553.695,1.13,1.077,1.666.566.777,1.131,1.548,1.7,2.326.454.624.895,1.272,1.39,1.866l-.041-.049q1.507,1.821,3.021,3.641c-.059-.07-.118-.141-.177-.206.081.094.159.189.239.285-.028-.034-.055-.068-.08-.1.707.859,1.49,1.655,2.237,2.473.578.63,1.143,1.272,1.744,1.884,1.454,1.484,2.9,2.986,4.386,4.446Q35.985,161,40.7,165.65c3.31,3.256,6.719,6.4,10.158,9.521.162.147.33.288.493.434.119.143.24.283.359.426,1.032,1.308,2.078,2.6,3.091,3.929,1.043,1.366,2.091,2.732,3.039,4.163,1.894,2.86,3.727,5.753,5.778,8.5l-.245-.161c-.637-.451-1.274-.906-1.91-1.352l.045.031c-1.743-1.242-3.433-2.579-5.064-3.951-.842-.713-1.69-1.407-2.514-2.138-.9-.794-1.784-1.607-2.7-2.39l.034.033c-1.229-1.16-2.489-2.294-3.74-3.432h0c-1.584-1.495-3.191-2.974-4.734-4.51-1.643-1.643-3.339-3.251-4.923-4.953s-3.18-3.362-4.7-5.1c-1.572-1.813-3.162-3.609-4.716-5.435-1.743-2.049-3.469-4.1-5.212-6.148.021.026.043.052.064.079-1.5-1.82-2.981-3.658-4.474-5.484s-2.885-3.68-4.322-5.529c-1.4-1.808-2.756-3.651-4.116-5.494-1.437-1.949-2.844-3.922-4.252-5.9-1.224-1.713-2.39-3.474-3.651-5.164a1.3,1.3,0,0,0-2.1,1.52c1.372,1.79,2.615,3.686,3.934,5.517,1.566,2.185,3.138,4.37,4.734,6.53,2.674,3.616,5.394,7.19,8.238,10.676,1.466,1.8,2.909,3.627,4.41,5.4,1.738,2.049,3.463,4.11,5.2,6.153l-.018-.023.03.035c1.654,1.9,3.291,3.827,4.952,5.717.665.754,1.36,1.479,2.043,2.221.854.924,1.7,1.854,2.562,2.773.783.83,1.613,1.613,2.42,2.426.759.765,1.507,1.549,2.29,2.3,1.634,1.564,3.245,3.151,4.905,4.682l-.047-.041c.228.207.456.418.684.63l-.054-.053c.289.271.583.542.878.812-.015-.012-.031-.027-.047-.041q.983.916,1.975,1.827l-.073-.072c.306.294.63.571.942.854,1.766,1.578,3.533,3.173,5.382,4.657,1,.807,2,1.608,3.026,2.391.949.724,1.914,1.413,2.88,2.108.53.383,1.078.736,1.619,1.095a18.8,18.8,0,0,0,2.891,1.678,15.227,15.227,0,0,0,4.352,1.173c.2.024.4.04.595.063-1.215,2.408-2.429,4.817-3.661,7.219l0,.007-.021.042,0,0-.065.127.018-.039.036-.068-.019.035,0,.01c-.034.063-.066.125-.1.189l-.147.283.016-.033c-.051.1-.1.195-.151.294-.076.149-.154.3-.231.442-.088.175-.18.349-.267.523.029-.064.065-.129.1-.2-.05.1-.1.2-.155.3l.02-.045-.223.439,0-.01-.026.05-.074.144.007-.015c-.051.1-.1.2-.154.3.035-.07.07-.135.1-.2q-2.412,4.55-5.064,8.956c-3.415,5.654-6.636,11.431-10.284,16.933-.553.767-1.108,1.529-1.7,2.269a1.656,1.656,0,0,0,.235,2.3,1.586,1.586,0,0,0,.7.3c-.277.4-.561.786-.832,1.185.035-.052.071-.106.112-.165-.512.7-.966,1.443-1.448,2.161-.4.607-.8,1.219-1.172,1.844-.407.665-.813,1.325-1.213,2-.095.162-.188.326-.281.491A17.091,17.091,0,0,0,44,248.678a1.421,1.421,0,0,0,.73,1.849,1.385,1.385,0,0,0,.551.116,1.49,1.49,0,0,0,1.216-.676c.529-.771.971-1.607,1.46-2.414.165-.271.336-.539.5-.81a1.564,1.564,0,0,0,.593.465,1.453,1.453,0,0,0,.58.12,1.647,1.647,0,0,0,.909-.286,9.46,9.46,0,0,0,2.309-2.337c.524-.7,1.018-1.414,1.507-2.132.878-1.278,1.655-2.615,2.461-3.934.348-.57.684-1.147,1.019-1.724s.707-1.143,1.019-1.732c.43-.789.865-1.578,1.3-2.367.33-.6.689-1.195.99-1.808-.012.019-.023.039-.033.058,1.508-2.912,2.92-5.874,4.361-8.82.368-.757.747-1.508,1.118-2.264.319-.536.641-1.07.96-1.606.471-.789.895-1.619,1.342-2.426q.538-.981,1.072-1.961,1.2-2.215,2.385-4.435,3.266-5.321,6.576-10.61c.984.014,1.968.028,2.954.03q7.1.026,14.22.035c1.013,0,2.02-.047,3.033-.07,1.324-.03,2.655-.054,3.986-.095,1.125-.029,2.249-.118,3.374-.176.66-.034,1.317-.07,1.976-.105,1.377-.029,2.757-.1,4.132-.1,2.261,0,4.528-.094,6.79-.17,1.077-.036,2.161-.048,3.238-.118,1.466-.095,2.933-.195,4.4-.289.871-.059,1.743-.159,2.614-.259,1.266-.136,2.544-.253,3.81-.4,1.119-.135,2.232-.323,3.345-.482,1.062-.149,2.129-.268,3.187-.457l-.049.009c.61-.107,1.216-.224,1.824-.335l2.726-.193c1.255-.089,2.5-.23,3.745-.348.99-.094,1.967-.206,2.951-.341,1.124-.148,2.261-.259,3.379-.477,1.279-.242,2.556-.473,3.829-.72.742-.137,1.469-.367,2.2-.553.689-.17,1.4-.317,2.085-.535q1.845-.6,3.7-1.19c.529-.176,1.053-.4,1.578-.6.624-.236,1.242-.472,1.866-.713.5-.188.978-.418,1.461-.624.535-.229,1.077-.454,1.607-.689.589-.259,1.166-.554,1.749-.83.4-.189.8-.371,1.189-.577,1.154-.612,2.291-1.231,3.428-1.879.948-.542,1.878-1.119,2.8-1.7a51.887,51.887,0,0,0,5.53-3.84c-.053.048-.106.088-.154.13.5-.407,1-.813,1.455-1.266a3.444,3.444,0,0,0,1.366-2.214,2.315,2.315,0,0,0-.108-.719,23.519,23.519,0,0,0,2.183-2.073A4.671,4.671,0,0,0,193.7,171.7a3.064,3.064,0,0,0-.635-2.314,5.508,5.508,0,0,0-2.915-1.643c-.819-.235-1.649-.423-2.479-.6.088.017.17.035.259.053q-.267-.054-.528-.11c-2.78-.6-5.59-1.069-8.381-1.6q-1.914-.36-3.83-.725c-1.515-.591-3.031-1.178-4.54-1.787-1.031-.412-2.061-.824-3.086-1.254-1.4-.583-2.811-1.164-4.184-1.821q.985-.906,1.99-1.791c1.749-1.549,3.516-3.068,5.288-4.581,1.708-1.46,3.427-2.909,5.129-4.375,1.49-1.278,2.968-2.579,4.381-3.94,1.03-1,2.073-2,3.1-3,.724-.7,1.413-1.437,2.114-2.161.736-.76,1.5-1.5,2.208-2.285l2.915-3.25c.589-.654,1.154-1.325,1.719-2,.807-.966,1.643-1.914,2.432-2.9,1.307-1.637,2.638-3.268,3.9-4.941,2.886-3.792,5.747-7.6,8.521-11.476,1.437-2.008,2.85-4.04,4.251-6.071a58.321,58.321,0,0,0,3.681-5.983A15.019,15.019,0,0,0,216,98.893a6.986,6.986,0,0,0,.365-1.937,3.313,3.313,0,0,0-.3-1.468c.177-.244.362-.483.54-.728A5.273,5.273,0,0,0,217.937,91.434Zm-3.67-.063c.071.039.14.081.208.125l.046.038.009.021.006.029,0,.017-.03.085c-.058.137-.121.266-.185.395-.117.189-.237.374-.361.557-.268.367-.541.731-.811,1.1l-.16-.024c-.2-.03-.416-.064-.626-.095a6.654,6.654,0,0,0,.218-1.339,5.761,5.761,0,0,0-.116-1.451c.178.03.356.055.533.09a5.247,5.247,0,0,1,.583.16C213.813,91.165,214.038,91.264,214.267,91.371ZM51.336,30.984c.06-.276.146-.564.187-.852.03-.122.053-.245.077-.368.076-.347.153-.7.238-1.047.259.322.508.655.759.985a14.271,14.271,0,0,0-.358,1.58c-.159.783-.318,1.572-.471,2.355q-.513,2.615-1.037,5.223-1.022,5.132-2.1,10.25L48.2,51.121c.877-6.677,1.8-13.346,3.1-19.956.028-.127.053-.253.083-.375C51.365,30.855,51.353,30.919,51.336,30.984ZM81.775,63.51a7.416,7.416,0,0,0,3.187,1.012l-.018.008c-.076.022-.153.042-.231.059-.179.031-.357.053-.535.069-.25.01-.5.009-.752,0-.346-.04-.689-.091-1.032-.156-.307-.072-.6-.155-.9-.248a21.635,21.635,0,0,1-2.185-1c-.191-.325-.378-.653-.573-.979l-1.122-1.9a3.783,3.783,0,0,0,.368.226c.142.075.289.128.433.2A19.456,19.456,0,0,0,81.775,63.51Zm76.35-44.427c.07.306.144.612.215.918a4.736,4.736,0,0,0-.9-.236c0-.345.007-.689.026-1.036.029-.287.07-.57.12-.854.029-.131.061-.263.1-.394.013-.034.027-.068.041-.1C157.855,17.948,158,18.514,158.125,19.083Zm27.734,107.243c-.088.1-.178.192-.266.289l-.113.119.062-.064-.062.066.028-.029-1.246,1.346.008-.008q-.992,1.073-1.981,2.14l.038-.035c-.217.233-.434.47-.651.707.048-.054.095-.106.142-.16l-.41.446.021-.021-.046.048-.095.1.05-.056-.091.1.035-.036-.093.1-.048.053.036-.041-.043.047.036-.041c-.05.054-.1.109-.15.162-.029.031-.058.061-.085.091l.032-.033.038-.041-.036.04.054-.059-.067.074q-2.079,2.233-4.161,4.471l.141-.159c-.409.441-.818.878-1.223,1.318-1.922,2.022-3.874,4.02-5.772,6.072l.141-.159c-.871.895-1.737,1.8-2.6,2.7-.825.853-1.661,1.7-2.462,2.561.028-.031.055-.062.083-.092l-.4.415c-.33.2-.656.4-.985.595-2.181,1.292-4.374,2.595-6.666,3.694-.507.219-1.015.421-1.533.6-.47.138-.94.268-1.4.411l.009,0-.041.014-.147.046.064-.02a6.5,6.5,0,0,0-2.549,1.451,5.63,5.63,0,0,0-.983,1.189,2.977,2.977,0,0,0-.419.995,2.274,2.274,0,0,0,.171,1.042,3.493,3.493,0,0,0,.907,1.225,11.3,11.3,0,0,0,1.372,1.172c.542.406,1.084.812,1.631,1.213a14.3,14.3,0,0,0,2.7,1.631q.477.213.968.405a4.266,4.266,0,0,0,1.193.661c.63.229,1.272.442,1.92.618,1.306.346,2.629.671,3.952.947.376.083.756.161,1.134.242.75.294,1.5.583,2.249.873,1.943.76,3.9,1.472,5.836,2.25.971.394,1.96.765,2.92,1.206.7.319,1.4.636,2.1.961.259.116.518.231.776.349q-.7.882-1.46,1.72c-.1.092-.2.175-.3.26-.346.26-.7.5-1.055.736a43.275,43.275,0,0,1-3.954,2.081c-1.091.459-2.177.957-3.263,1.426-.83.365-1.672.7-2.514,1.043-.883.353-1.761.718-2.662,1.024-1.093.364-2.187.729-3.275,1.109-1.356.379-2.7.792-4.044,1.194-.6.182-1.207.335-1.813.5-.5.136-1,.288-1.5.407-2.426.577-4.858,1.124-7.3,1.625q-6.544,1.341-13.078,2.75-2.993.639-5.986,1.269c-.655-.069-1.31-.139-1.967-.177-3.509-.2-7.024-.356-10.528-.632-.28-.026-.56-.048-.839-.07-.173-.012-.342-.029-.51-.04l.212.018-.442-.036-.182-.015-.018,0,.017,0-.187-.016.017,0c-.165-.012-.33-.029-.5-.041l.212.018c-1.866-.153-3.733-.289-5.594-.519-1.966-.247-3.927-.506-5.888-.818.071.012.141.03.212.047-.518-.112-1.054-.194-1.555-.348-.394-.117-.794-.229-1.189-.341q-2.226-.645-4.464-1.295c-2.028-.6-4.03-1.291-6.036-1.949.549-.909,1.107-1.813,1.652-2.724.736-1.231,1.478-2.456,2.208-3.693q.865-1.466,1.737-2.938c.307-.518.63-1.03.919-1.56q1.378-2.58,2.756-5.164c.6-1.131,1.236-2.244,1.79-3.4q1.368-2.853,2.738-5.706c.477-.989.948-1.978,1.425-2.967.194-.4.406-.8.583-1.213.689-1.6,1.336-3.215,2-4.823q.645-1.572,1.3-3.145c.179-.425.38-.854.539-1.293l-.009.028c.992-2.711,1.933-5.45,2.879-8.179.133-.372.238-.748.354-1.125.271-.877.536-1.755.807-2.633q.716-2.322,1.425-4.651c.765-2.55,1.46-5.123,2.22-7.673.53-1.8.995-3.627,1.495-5.435.406-1.455.8-2.914,1.143-4.381.406-1.678.806-3.356,1.183-5.04.183-.8.342-1.614.512-2.42.089-.431.159-.854.236-1.284.059-.312.118-.618.159-.931a3.5,3.5,0,0,0-.124-1.354,1.521,1.521,0,0,0-.1-.24c.39-1.384.775-2.771,1.124-4.166a43.692,43.692,0,0,0,1.125-5.429c.025-.218.046-.437.061-.656a1.236,1.236,0,0,0,1.635.438,1.257,1.257,0,0,0,.5-1.684,9.212,9.212,0,0,0-.659-1.266,1.644,1.644,0,0,0-1.5-.689l-.07.009a10.546,10.546,0,0,0-.23-1.3,2.544,2.544,0,0,0-1.3-1.95,1.926,1.926,0,0,0-1.19-.123,2.241,2.241,0,0,0-1.042.571,4.05,4.05,0,0,0-.9,1.442c-.194.489-.365.984-.524,1.485-.312.959-.583,1.937-.825,2.92-.4,1.619-.83,3.239-1.218,4.864q-1.406,5.89-2.792,11.783c-.718,3.05-1.395,6.118-2.125,9.168l-.078.325-.216.507q-.287.676-.577,1.352a1.414,1.414,0,0,0-.483-.245,1.475,1.475,0,0,0-1.808,1.006q-2.306,7.568-4.621,15.125l-.066.15c-1.248,2.833-2.467,5.671-3.751,8.486q-2.41,5.282-4.805,10.558c-1.407,3.085-2.891,6.135-4.316,9.209-2.784,5.974-5.762,11.854-8.711,17.75-.27.52-.528,1.045-.79,1.57-1.41-.468-2.821-.934-4.228-1.414-.961-.348-1.931-.676-2.9-1,.064.024.135.047.206.076-.344-.127-.692-.242-1.036-.363l.052.022c-.522-.189-1.034-.394-1.535-.629l-.181-.1c-.152-.114-.3-.234-.442-.362q-.178-.177-.34-.366a7.087,7.087,0,0,0-1.264-1.345,6.1,6.1,0,0,0-1.4-.836q-.636-.247-1.29-.46c-.972-.306-1.95-.592-2.918-.913-.271-.1-.536-.211-.8-.336-.22-.123-.43-.251-.639-.39-.3-.23-.59-.471-.873-.724-.638-.625-1.234-1.291-1.808-1.974l.068.086-.11-.136-.025-.029.015.018c-1.729-2.115-3.388-4.289-5.1-6.419-1.366-1.7-2.82-3.338-4.322-4.916-.753-.795-1.495-1.6-2.278-2.368-.515-.5-1.02-1.011-1.533-1.513a1.358,1.358,0,0,0,.773-1.013,1.3,1.3,0,0,0-.757-1.369,13.465,13.465,0,0,0-2.04-2.211c-.8-.748-1.566-1.536-2.367-2.284-1.755-1.637-3.545-3.209-5.371-4.758-3.291-2.791-6.736-5.394-10.092-8.1-3.605-2.9-7.2-5.81-10.649-8.887-.346-.327-.7-.652-1.04-.982,1.043,0,2.091.076,3.133.112.742.024,1.49.041,2.232.047a40.6,40.6,0,0,0,6.307-.337,6.521,6.521,0,0,0,2.032-.421,16.758,16.758,0,0,0,1.642-.5,17.479,17.479,0,0,0,6.812-4.54,27.065,27.065,0,0,0,4.723-7.537,95.023,95.023,0,0,0,4.6-13.809c.594-2.249,1.23-4.486,1.778-6.747.347-1.449.7-2.9,1.048-4.346.242-.99.5-1.973.713-2.968-.005.027-.011.056-.016.083.563-2.454,1.141-4.909,1.666-7.375l-.008.037.022-.1-.008.033.028-.128v.006c.088-.414.179-.829.266-1.242.036-.169.075-.336.105-.5.062-.2.09-.419.136-.623.13-.6.259-1.2.383-1.8l-.01.056c.132-.613.261-1.225.394-1.838.019-.094.038-.186.058-.279l-.008.041c.038-.174.077-.346.114-.518-.018.065-.03.13-.048.2.536-2.456,1.066-4.905,1.59-7.367-.012.071-.029.135-.041.2.43-1.807.854-3.621,1.278-5.429.336-1.431.73-2.838,1.113-4.252.194-.706.359-1.425.577-2.119.259-.836.524-1.672.783-2.509.44-1.412.925-2.807,1.406-4.208.258-.687.515-1.374.779-2.059.637,1.116,1.274,2.231,1.931,3.335.987,1.648,1.946,3.323,2.963,4.957.8,1.275,1.6,2.555,2.407,3.828-.035-.058-.07-.111-.106-.171.094.148.183.3.277.442-.035-.053-.071-.111-.106-.165.065.1.124.2.189.3-.036-.053-.071-.112-.107-.165,1.1,1.748,2.238,3.474,3.386,5.194.471.7.919,1.419,1.443,2.078a10.864,10.864,0,0,0,2.432,2.267c.779.528,1.6.987,2.422,1.434.543.91,1.074,1.84,1.557,2.778.512,1.012,1.036,2.219,2.137,2.7a2.554,2.554,0,0,0,2.462-.412,52.247,52.247,0,0,0,5.2-4c1.777-1.2,3.395-2.6,5.12-3.872l.335-.246.436-.219c1.349-.678,2.656-1.425,3.951-2.2,1.213-.73,2.409-1.495,3.6-2.261,2.061-1.307,4.081-2.655,6.106-4.015,3.81-2.556,7.59-5.165,11.406-7.714,1.867-1.243,3.757-2.462,5.635-3.686,1.786-1.164,3.606-2.276,5.393-3.438-.04.025-.079.047-.117.069.1-.059.195-.124.295-.182-.036.021-.072.045-.107.068l.695-.437-.076.045.17-.1.013-.008h0l.432-.272c-.059.041-.118.076-.183.118.23-.144.452-.283.675-.426.169-.1.333-.208.5-.31l-.084.049.3-.191-.052.03.157-.1.025-.016-.006,0q.177-.109.354-.222c-.059.042-.118.077-.183.118l.848-.53-.132.08.687-.433-.019.011.074-.046.1-.065-.018.012.519-.324c-.059.041-.118.076-.177.112.112-.066.224-.136.336-.207l-.042.024-.022.013-.005,0-.019.011.023-.015-.046.028-.042.024.12-.072-.016.01.031-.02.016-.009-.035.023c.027-.017.054-.035.082-.051l.067-.04-.045.026c.143-.088.286-.18.429-.27.122-.068.246-.133.367-.2,1.031-.583,2.085-1.131,3.1-1.743,1.042-.636,2.066-1.3,3.091-1.955l-.069.04c.364-.231.712-.5,1.064-.747.483-.347.972-.689,1.449-1.03.234-.167.46-.348.691-.521,1.477-.956,2.953-1.914,4.44-2.856-.059.041-.118.076-.183.118q.99-.612,1.992-1.192c.019.1.036.191.056.286.483,2.32,1.113,4.605,1.737,6.89.583,2.119,1.254,4.215,1.908,6.318q.287.918.574,1.838c.136.773.27,1.546.409,2.318a1.7,1.7,0,0,0,.035.2l0,.011.042.234.013.086c1.147,6.722,2.378,13.426,3.587,20.137q.689,3.868,1.431,7.737c.406,2.091.907,4.164,1.419,6.236.135.56.312,1.113.471,1.672a22.748,22.748,0,0,0,.936,2.768,12.727,12.727,0,0,0,1.174,2.172,15.56,15.56,0,0,0,.595,1.918,12.153,12.153,0,0,0,1.443,2.791,9.312,9.312,0,0,0,2.484,2.391,13.152,13.152,0,0,0,3.3,1.5,31.584,31.584,0,0,0,6.533,1.09c-.04,0-.08-.007-.121-.013l.235.022h0c1.205.116,2.415.23,3.625.319l-.247-.018c1.268.121,2.536.254,3.8.354q1.119.108,2.239.222c3.79.542,7.59,1,11.41,1.314h.009c1.943.247,3.89.488,5.837.747l.872.117c-.308.549-.613,1.1-.938,1.64-.36.595-.69,1.213-1.078,1.79-.752,1.114-1.519,2.228-2.268,3.352-.659.936-1.366,1.836-2.048,2.754-.489.666-.99,1.325-1.5,1.979q-2.174,2.773-4.34,5.553c-2.536,3.25-5.043,6.534-7.414,9.9C187.054,124.65,186.457,125.489,185.859,126.326ZM150.587,189.2c-.4.119-.792.24-1.191.365-1.371.414-2.742.825-4.15,1.1-.715.1-1.423.167-2.143.212-1.476.046-2.962.051-4.443,0,3.659-.771,7.321-1.532,10.977-2.311,2.12-.448,4.24-.913,6.33-1.484,1.042-.283,2.079-.571,3.109-.872.4-.118.793-.23,1.19-.343q-4.89,1.83-9.879,3.391C150.452,189.239,150.523,189.215,150.587,189.2Zm-19.632,4.228.37.053-.322.035c-1.39.147-2.78.33-4.175.418-1.462.1-2.924.183-4.386.284.356-.065.713-.127,1.068-.193,1.614-.3,3.224-.621,4.831-.955C129.214,193.174,130.082,193.3,130.955,193.426ZM42.071,155.8c.857.817,1.7,1.645,2.554,2.467.654.63,1.272,1.307,1.9,1.961.6.624,1.2,1.248,1.772,1.9.7.8,1.387,1.589,2.087,2.379L48.23,162.54q-2.337-2.223-4.7-4.419c.047.042.088.083.135.124-1.39-1.39-2.832-2.72-4.234-4.093-1.331-1.3-2.679-2.59-4.021-3.88l-.9-.865c.779.618,1.557,1.238,2.319,1.875.889.742,1.813,1.455,2.673,2.226S41.22,155.03,42.071,155.8ZM66.783,178.11a9.566,9.566,0,0,0,1.808,1.843,7.453,7.453,0,0,0,1.69.848c.595.224,1.195.436,1.8.648-.044-.015-.086-.032-.129-.048.95.35,1.91.675,2.871,1,1.256.457,2.531.873,3.806,1.288-.419.819-.84,1.635-1.246,2.463l.013-.023c-.211.412-.416.827-.624,1.239-1.3-.864-2.6-1.724-3.888-2.61-.561-.438-1.134-.865-1.706-1.3-.354-.276-.725-.535-1.066-.836-1.064-.924-2.105-1.871-3.179-2.784-1.126-1.053-2.232-2.126-3.357-3.177.655.2,1.309.4,1.953.623.18.072.354.147.528.23.09.055.179.112.264.17s.151.12.223.184c.125.132.246.264.367.406Zm47.056,13.93c.15.014.3.025.451.038l-1.008.155c-1.172.183-2.344.335-3.521.489-.959.126-1.932.15-2.9.2q-1.9,0-3.793-.071c-1.281-.052-2.55-.149-3.824-.214-1.2-.112-2.405-.209-3.608-.328-.926-.095-1.853-.195-2.779-.261-.23-.021-.459-.039-.689-.056s-.457-.04-.685-.055c-1.254-.105-2.513-.178-3.772-.257-1.143-.071-2.285-.165-3.427-.23.076.005.147.011.217.018l-.307-.024c-.163-.066-.324-.137-.487-.2,1-1.629,2-3.265,2.991-4.9,2.112.7,4.217,1.4,6.338,2.062.971.306,1.955.571,2.932.854.8.229,1.59.465,2.391.695.3.088.607.194.913.265.589.123,1.177.288,1.772.382.565.089,1.125.177,1.7.26,1.142.164,2.291.312,3.433.459,2.119.269,4.249.453,6.373.62.207.017.409.034.611.045-.032,0-.063,0-.095,0C113.321,192,113.582,192.021,113.839,192.04ZM154.8,157.147l.229-.071-.023.006.067-.02c.041-.013.081-.025.121-.039l-.04.014c.659-.2,1.331-.356,1.977-.6.513-.2,1.016-.415,1.512-.646-.191.313-.373.632-.548.954a6.15,6.15,0,0,0-.63,1.648,5.953,5.953,0,0,0-.065,1.773c.008.088.038.183.053.274-.071.092-.153.175-.218.273q-.483-.288-.947-.607c-.915-.671-1.862-1.315-2.712-2.065l-.087-.089c.079-.077.159-.151.242-.226.074-.056.149-.111.225-.166.131-.077.263-.151.4-.223q.312-.137.639-.246C154.933,157.106,154.868,157.13,154.8,157.147ZM44.019,78.745c.121-.4.244-.79.365-1.186.647-2.132,1.248-4.281,1.872-6.424,1.266-4.357,2.4-8.75,3.474-13.155,1.942-8.009,3.518-16.1,5.145-24.176.3.588.617,1.165.944,1.747q.84,1.482,1.678,2.965c-.576,1.307-1.063,2.659-1.56,3.989-.807,2.167-1.49,4.375-2.173,6.578-.283.912-.53,1.831-.783,2.755-.3,1.108-.642,2.215-.9,3.333-.522,2.219-1.094,4.432-1.561,6.662-.018.09-.037.178-.057.267l.01-.039c-.029.135-.059.27-.088.406.012-.065.029-.13.041-.2q-.777,3.594-1.549,7.189c.018-.064.03-.135.048-.2q-.472,2.2-.942,4.4c-.011.042-.02.084-.027.125q-.184.87-.369,1.739l.007-.039c-.036.165-.068.329-.1.494l.008-.041c-.56,2.432-1.125,4.864-1.643,7.3l.015-.078c-.365,1.616-.784,3.226-1.169,4.837-.265,1.1-.524,2.207-.819,3.3-1.288,4.857-2.494,9.743-4.174,14.489-.689,1.9-1.415,3.787-2.29,5.613.28-.8.541-1.612.774-2.422.3-1.06.612-2.126.836-3.2.1-.477.206-.959.306-1.442.448-2.126.925-4.252,1.307-6.389.872-4.865,1.714-9.734,2.58-14.6C43.493,81.813,43.751,80.277,44.019,78.745ZM209.142,91.773c0-.026,0-.053,0-.078l0,.028C209.143,91.739,209.141,91.756,209.142,91.773Zm-.618-.345c.122.012.244.029.365.05.072.018.142.037.212.059h0c.007.029.014.059.02.087l.02.169c0,.1,0,.2,0,.3-.014.14-.036.28-.063.418-.047.2-.112.4-.168.605-.551-.078-1.1-.157-1.653-.229-2.25-.307-4.505-.565-6.76-.854-2.114-.271-4.24-.518-6.366-.736-.834-.087-1.669-.179-2.5-.269.33-.009.66-.012.989-.031h-.041l.12-.006.1-.006-.048,0,.207-.009h-.011c.111-.006.222-.009.335-.013-.071,0-.148.006-.218.006.157,0,.315-.011.472-.019h-.019c.122-.007.242-.012.362-.017h-.009l.031,0,.1,0h.011l.081,0-.042,0,.25-.01-.043,0c.536-.027,1.068-.052,1.6-.077C200.084,90.963,204.312,91.1,208.524,91.428Zm-45.635-52.36c.083.341.165.68.248,1.02.291,1.546.588,3.091.875,4.638l0-.022.01.061v-.011l.016.086c.011.067.022.135.033.206-.011-.066-.023-.13-.035-.189.418,2.414.824,4.834,1.26,7.243l-.035-.188c.477,2.838.9,5.681,1.313,8.526.212,1.425.418,2.844.63,4.269.241,1.6.442,3.215.73,4.805l-.035-.194c.277,1.589.518,3.185.83,4.763.177.9.33,1.814.53,2.715.183.824.377,1.643.565,2.467.171.713.371,1.431.589,2.132.2.66.42,1.315.639,1.971-.18-.247-.367-.489-.533-.749A24.211,24.211,0,0,1,169.35,80.4a35.9,35.9,0,0,1-1.329-3.631c.024.077.047.153.065.224-.118-.383-.235-.766-.347-1.154-.7-2.432-1.216-4.911-1.7-7.4-.248-1.445-.495-2.887-.751-4.329.009.049.019.1.026.141-.637-3.607-1.268-7.221-1.933-10.824l.008.036c-.66-3.809-1.466-7.595-2.226-11.382-.677-3.362-1.423-6.713-2.055-10.08-.281-1.555-.562-3.115-.842-4.67.006.036.013.071.021.106l-.026-.138.006.025-.014-.075c.008.035.014.07.021.105l0,.018c-.2-1.278-.4-2.558-.555-3.842l.086.076c.211.218.411.444.613.675.292.392.559.788.828,1.2.239.435.458.878.684,1.318Q161.389,32.939,162.889,39.068ZM36.157,104.11c.157-.474.3-.952.453-1.428-.182.862-.36,1.724-.544,2.584v-.005c-.44,1.759-.913,3.511-1.516,5.221l.009-.027c-.059.161-.124.319-.184.479q.225-1.35.445-2.7C35.271,106.86,35.707,105.481,36.157,104.11ZM183.615,176.2c-.868.566-1.742,1.127-2.606,1.7l-.149.085c.44-.338.877-.674,1.319-1.012a14.612,14.612,0,0,0,1.189-1.006,12.184,12.184,0,0,0,.982-1.022c.183.111.367.223.548.337C184.479,175.6,184.056,175.911,183.615,176.2ZM153.542,3.17l.036.077a54.89,54.89,0,0,1,1.854,5.244c.463,1.654.959,3.3,1.362,4.969.04.165.077.33.117.495a3.643,3.643,0,0,0-2.378.869c.024-.018.049-.033.074-.05l-.545.345c-.184.116-.362.243-.545.361-.173-1.059-.34-2.12-.488-3.187-.1-.718-.182-1.443-.265-2.161l-.123-1.184a3.409,3.409,0,0,0-.742-2.084,2.317,2.317,0,0,0-.859-.56c.051-.066.1-.132.154-.2C151.962,5.115,152.722,4.118,153.542,3.17ZM131.825,28.733c.637-.571,1.263-1.157,1.894-1.736a1.213,1.213,0,0,0,1.294-.394c.746-.964,1.5-1.921,2.258-2.88.547-.515,1.083-1.04,1.62-1.567.854-.836,1.743-1.643,2.55-2.52l-.159.176c1.313-1.395,2.65-2.779,3.916-4.216s2.551-2.859,3.838-4.282l.036.343c.22,2.078.551,4.15.924,6.206q-.384.269-.769.535-2.738,1.908-5.464,3.822-4.355,3.056-8.692,6.147c-3.651,2.615-7.325,5.194-10.97,7.808-1.061.763-2.126,1.52-3.188,2.281C124.575,35.248,128.2,31.988,131.825,28.733ZM86.666,60.756a40.223,40.223,0,0,0,5.174-2.067q-.933.8-1.864,1.6c-.363.146-.73.284-1.1.409-.577.177-1.159.329-1.75.457-.343.059-.685.1-1.032.133-.256.008-.506.006-.759,0-.142-.015-.282-.044-.422-.065C85.5,61.086,86.094,60.932,86.666,60.756ZM38.859,79.633c.27-2.456.482-4.923.718-7.39.23-2.4.442-4.8.665-7.2q.611-6.544,1.4-13.072c.265-2.185.512-4.375.813-6.554.229-1.642.453-3.286.683-4.928.1-.748.194-1.5.317-2.244.43-2.591.837-5.187,1.29-7.779.194-1.118.465-2.225.7-3.332l.711-3.387c.322-1.294.652-2.582,1.088-3.844.18-.481.371-.954.589-1.419.354.529.689,1.072,1.033,1.6.483.754.96,1.507,1.443,2.261.5.782.988,1.567,1.48,2.35-.029-.006-.056-.018-.085-.022a1.778,1.778,0,0,0-1.207.135,2.32,2.32,0,0,0-.854.784,8.2,8.2,0,0,0-.789,2.313c-.106.471-.218.943-.318,1.414-.015.07-.029.14-.044.21l0,.018c-.2.973-.4,1.95-.576,2.928-.383,2.161-.754,4.322-1.084,6.489-.712,4.669-1.331,9.345-1.937,14.026-.289,2.256-.589,4.505-.878,6.76-.294,2.238-.647,4.47-.971,6.707-.312,2.155-.7,4.3-1.06,6.454-.287,1.734-.595,3.464-.9,5.193q-.951,3.09-1.893,6.18-.712,2.336-1.448,4.665Q38.347,84.3,38.859,79.633Zm-7.76,30.2v.006l-.016.05C31.087,109.868,31.093,109.849,31.1,109.83ZM3.408,115.987c-.025-.144-.042-.291-.054-.438l.076.026c.443.171.864.36,1.289.57,2.009,1.056,4.008,2.133,6.028,3.169l-1.172.1-.039,0-.122-.2-.019-.035a1.877,1.877,0,0,0-2.527-.748,1.8,1.8,0,0,0-.893,1.133,3.486,3.486,0,0,0-.676.142c-.184-.267-.382-.52-.556-.794-.292-.483-.562-.976-.809-1.486-.167-.383-.324-.767-.456-1.166C3.456,116.171,3.433,116.08,3.408,115.987Zm65.974,79.541c-.378-.089-.75-.193-1.125-.312a13.99,13.99,0,0,1-1.576-.687c-.195-.1-.387-.214-.578-.325a1.64,1.64,0,0,0,.555-.259,1.668,1.668,0,0,0,.371-2.314c-1.284-1.731-2.456-3.533-3.622-5.347q-.354-.549-.71-1.095c1.375,1.063,2.746,2.131,4.133,3.178,1.867,1.408,3.781,2.739,5.718,4.052.415.282.843.55,1.273.816l-1.357,2.7-.112-.007a27.489,27.489,0,0,1-2.986-.4Zm117.06-24.567-.259-.052.966.211-.26-.052c.756.169,1.511.342,2.253.569-.558.561-1.143,1.088-1.738,1.6-.539-.372-1.089-.722-1.654-1.055a4.386,4.386,0,0,0,.074-.889,3.219,3.219,0,0,0-.045-.476Zm3.983-43.441-.019.045c-.125.2-.251.392-.384.587-1.561,2.051-3.39,3.9-5.117,5.813.047-.054.094-.106.147-.165-.067.072-.131.144-.2.213.036-.037.07-.075.1-.114l-.13.142-.011.012c-.3.322-.593.646-.893.966s-.594.6-.888.909c.265-.362.531-.721.795-1.084,1.331-1.819,2.685-3.633,3.981-5.482l-.069.106c.513-.7,1.017-1.409,1.526-2.113q.265-.289.534-.579l-.142.158.758-.82.039-.042.051-.056-.035.039.481-.52c-.064.2-.131.39-.185.586C190.638,126.587,190.55,127.059,190.425,127.52Zm15.247-18.9c-.509.581-1.024,1.155-1.541,1.728l.016-.017q-1.4,1.46-2.82,2.884c1.413-1.777,2.9-3.5,4.368-5.233.635-.746,1.283-1.479,1.931-2.213C206.975,106.717,206.314,107.66,205.672,108.618Z"/></svg>