<svg xmlns="http://www.w3.org/2000/svg" width="258.442" height="319.588" viewBox="0 0 258.442 319.588"><path d="M168.926,118.714a58.012,58.012,0,0,0-2.862-8.215,76.647,76.647,0,0,0-3.869-7.755,47.492,47.492,0,0,0-4.828-7.025,28.456,28.456,0,0,0-5.041-5.288,7.189,7.189,0,0,0-3.032-1.3,10.076,10.076,0,0,0-3.062-.018,8.941,8.941,0,0,0-5.742,2.768,12.387,12.387,0,0,0-2.119,3.974,7.754,7.754,0,0,0-2.574,1.991,15.971,15.971,0,0,0-2.9,6.024,33.8,33.8,0,0,0-1.242,7.225,42.223,42.223,0,0,0,.595,8.744c.459,2.873.965,5.759,1.7,8.574a60.831,60.831,0,0,0,2.774,8.273c.706,1.672,1.436,3.362,2.3,4.964a24.692,24.692,0,0,0,1.26,4,18.922,18.922,0,0,0,1.779,3.256,16.453,16.453,0,0,0,2.2,2.7,7.7,7.7,0,0,0,2.685,1.79c.124.047.253.083.377.118a4.89,4.89,0,0,0,1.095.995,7.15,7.15,0,0,0,3.174,1.06,5.785,5.785,0,0,0,2.5-.229,12.626,12.626,0,0,0,1.648.612,12.178,12.178,0,0,0,3.363.548,6.219,6.219,0,0,0,2.938-.672,12.5,12.5,0,0,0,4.593-4.77,25.778,25.778,0,0,0,2.974-6.783,40.15,40.15,0,0,0,1.166-8.143,52.46,52.46,0,0,0-.207-8.656A61.781,61.781,0,0,0,168.926,118.714Zm-32.875,3.368c.053.194.106.389.159.577.123.459.259.912.388,1.366.006.3.012.594.018.889C136.416,123.972,136.227,123.03,136.051,122.082Zm5.435-22.476c.128-.117.257-.235.391-.351.187-.141.38-.277.574-.409.094-.053.195-.106.3-.153a11.566,11.566,0,0,0-1.278,1Zm1.372,15.351a4.534,4.534,0,0,0-.613,1.119q-.141.38-.247.759c-.035-.565-.071-1.13-.094-1.7-.024-.612-.018-1.218.011-1.825.036-.33.077-.654.136-.983.053-.2.106-.389.171-.583.035-.089.07-.171.112-.259.041-.066.076-.13.117-.2.183.265.365.53.542.789A22.25,22.25,0,0,0,142.858,114.957Zm5.476-10.058c-.1.065-.195.136-.283.206a2.444,2.444,0,0,0-.924.036,4.169,4.169,0,0,0-1.443.606,4.076,4.076,0,0,0-.942.99c-.2-.113-.406-.213-.618-.307a3.846,3.846,0,0,0-1.355-.3q.372-.627.795-1.219a15.134,15.134,0,0,1,1.095-1.354c.242-.248.489-.477.754-.707q.3-.229.618-.441c.159-.089.324-.171.483-.248.065-.023.124-.047.183-.071a3.058,3.058,0,0,1,.324-.076c.135-.024.276-.036.412-.047.218,0,.436.006.659.011.377.042.748.1,1.125.177.236.059.477.118.713.189.517.534,1,1.095,1.466,1.663l.141.174A4.9,4.9,0,0,0,148.334,104.9Zm5.918-5.016c-1.06-.937-2.15-1.844-3.286-2.68a14.906,14.906,0,0,0-3.168-1.866,9.592,9.592,0,0,0-3.368-.736h-.277c-.259,0-.524.006-.783.017.076-.094.159-.188.241-.282.1-.1.2-.2.306-.3.089-.065.183-.13.277-.194.153-.083.307-.165.465-.242.271-.117.542-.211.819-.306.324-.088.659-.165.989-.23.383-.052.766-.094,1.154-.112.212,0,.43.006.648.018.177.018.353.048.53.077.13.029.253.07.383.111.106.042.206.089.306.136.212.118.418.241.624.383a11.744,11.744,0,0,1,.978.819c.665.653,1.283,1.354,1.884,2.066.659.784,1.325,1.56,1.973,2.356a.432.432,0,0,1-.034-.039,45.736,45.736,0,0,1,3.042,4.349q.681,1.122,1.325,2.273A33.275,33.275,0,0,0,154.252,99.883Zm3.486,28.3c.023.966-.006,1.926-.077,2.892-.012.135-.029.265-.041.4-.059-.23-.112-.46-.177-.683C157.579,129.925,157.673,129.053,157.738,128.182Zm9.08,9.893v-.012a37.721,37.721,0,0,1-.63,4.2,20.151,20.151,0,0,1-2.126,5.683,23.969,23.969,0,0,1-1.366,2.237c-.295.4-.607.783-.937,1.155-.223.229-.453.453-.694.659-.159.123-.318.236-.477.347-.136.077-.271.147-.413.218-.07.029-.141.053-.212.077s-.129.035-.194.047c-.177.024-.347.041-.518.059-.2,0-.4-.006-.595-.018q-.591-.061-1.166-.176a17.23,17.23,0,0,0,1.284-2.121,40.343,40.343,0,0,0,2.985-6.959q.311-1,.566-2.015a36.907,36.907,0,0,0,3.209-20.326c-.006-.059-.018-.124-.029-.189.316,1.3.586,2.621.821,3.94l0-.006a50.7,50.7,0,0,1,.688,6.242A57.866,57.866,0,0,1,166.818,138.075Z"/><path d="M84.232,98.08a38.652,38.652,0,0,0-3.857-5.441c-.023-.029-.053-.058-.076-.088a45.507,45.507,0,0,0-2.061-4.21,18.982,18.982,0,0,0-3.533-4.888,15.624,15.624,0,0,0-2.414-1.89,7.04,7.04,0,0,0-2.379-1.007,6.386,6.386,0,0,0-4.776,1.5,8.125,8.125,0,0,0-2.428,2.753,5.006,5.006,0,0,0-.858.253,9.524,9.524,0,0,0-2.278,1.3,10.337,10.337,0,0,0-3.345,4.175,19.444,19.444,0,0,0-1.254,5.6,47.717,47.717,0,0,0-.6,5.017c.005-.048.006-.093.008-.14-.016.225-.033.451-.049.671-.224.518-.43,1.042-.624,1.566a36.078,36.078,0,0,0-1.643,6.524,46.9,46.9,0,0,0-.671,6.972,56.089,56.089,0,0,0,.4,7.178,23.725,23.725,0,0,0,1.443,6.454,13.105,13.105,0,0,0,2.732,4.61,6.148,6.148,0,0,0,4.675,1.432,8.551,8.551,0,0,0,1.213-.159c.171.388.342.776.524,1.165-.01-.023-.017-.044-.026-.064a16.335,16.335,0,0,0,1.463,3.026,4.369,4.369,0,0,0,2.267,1.708,6.023,6.023,0,0,0,2.426.294,1.815,1.815,0,0,0,1.331.577,1.7,1.7,0,0,0,1.665-1.284c.16-.028.322-.049.478-.086a8.059,8.059,0,0,0,4.481-2.467,12.9,12.9,0,0,0,1.4-1.761c.036.006.065.018.1.024a8.6,8.6,0,0,0,2.444.324,4.348,4.348,0,0,0,2.184-.63,6.15,6.15,0,0,0,1.643-1.508,20.765,20.765,0,0,0,2.527-4.7,26.433,26.433,0,0,0,1.725-6.17,44.731,44.731,0,0,0,.141-13.868A36.622,36.622,0,0,0,84.232,98.08ZM75.45,91.537a.114.114,0,0,0,.02.019c.042.035.077.071.118.106-.029-.024-.059-.053-.088-.077A39.508,39.508,0,0,1,78.4,94.7q.52,1.342.948,2.715a47.471,47.471,0,0,1,1.348,5.712c-.006-.054-.017-.106-.023-.16a58.947,58.947,0,0,1,.765,7.344,63.77,63.77,0,0,1-.153,7.289c0-.018,0-.038,0-.058-.045.488-.091.977-.148,1.465-.018-1.9-.094-3.792-.171-5.687a59.663,59.663,0,0,0-1.171-10.482,1.431,1.431,0,0,0-1.714-1.054,1.367,1.367,0,0,0-.458.209c-.01-.043-.015-.086-.025-.129A15.06,15.06,0,0,0,73.71,94.5c-.354-.778-.719-1.543-1.131-2.285a15.536,15.536,0,0,0-3.132-4.238c.141.042.282.078.423.124a18.378,18.378,0,0,1,1.951.9l0,0c.681.37,1.355.757,2,1.2C74.388,90.61,74.925,91.065,75.45,91.537Zm-4.261,16.646,0,.067c0,.021,0,.042,0,.063a35.249,35.249,0,0,1-.107,4.124,36.855,36.855,0,0,1-.716,4.678c-.1.466-.218.925-.336,1.384-.011-.124-.017-.247-.035-.371-.095-.921-.161-1.846-.208-2.767-.043-1.117-.033-2.234-.033-3.357,0-1.048-.006-2.1.064-3.145a11.658,11.658,0,0,1,.2-1.348c.047-.2.1-.394.165-.6.07-.17.147-.335.229-.506.083-.147.165-.288.253-.436.047.112.089.23.13.348.153.559.265,1.13.377,1.7,0,.069.008.135.012.2Zm-10.711.93c-.029.171-.064.347-.094.518a29.238,29.238,0,0,0-.353,3.351,42.77,42.77,0,0,0,.053,4.681c-.4-1.586-.738-3.186-1.056-4.791-.043-.535-.079-1.071-.1-1.608.006.054.006.106.012.159a47.568,47.568,0,0,1,.117-5.714,35.435,35.435,0,0,1,.554-3.785v.007c.018-.094.041-.194.065-.288.041.73.088,1.466.176,2.2.136,1.1.307,2.2.525,3.291.023.117.051.233.075.349C60.455,108.024,60.448,108.569,60.478,109.113Zm7.187-11.991.021.032,0,0,.008.01c.023.04.047.076.07.117-.023-.035-.041-.071-.064-.106.176.294.347.595.512.895-.059.042-.124.077-.183.118-.153.088-.306.177-.453.271a6.5,6.5,0,0,0-.913.183,5.856,5.856,0,0,0-2.155,1.012c-.053.042-.106.088-.159.136a14.538,14.538,0,0,1,.418-1.484q.159-.425.354-.831c.1-.182.211-.359.329-.536.071-.094.147-.182.23-.276.041-.042.082-.082.129-.124a2,2,0,0,1,.183-.129,1.4,1.4,0,0,1,.141-.077,5.49,5.49,0,0,1,.519-.206l.288-.071c.252.349.492.7.727,1.069l0,0Zm.634,26.817v0c-.015-.039-.028-.078-.043-.117.024.019.043.043.067.062ZM63.291,94.422c.17-.087.333-.185.509-.266a5.025,5.025,0,0,0-.519.533C63.282,94.6,63.289,94.511,63.291,94.422Zm5.543,8.178c-.5.884-1.136,1.708-1.554,2.638a.656.656,0,0,1-.042.095c.053-.371.112-.736.183-1.1.071-.3.153-.595.247-.884a8.1,8.1,0,0,1,.354-.812,1.292,1.292,0,0,1,.082-.136c.041-.047.082-.1.124-.147s.106-.1.159-.148c.017,0,.041-.005.058-.005.124,0,.242,0,.366.005.1.012.211.024.312.042a.47.47,0,0,1,.047.018.047.047,0,0,1,.023,0,.006.006,0,0,1,.006.006A1.526,1.526,0,0,0,68.834,102.6ZM66.92,89.669h0c.22.2.428.411.636.62a14.9,14.9,0,0,0-1.407-.86c-.235-.125-.473-.245-.712-.359l.064-.057c.11-.087.231-.163.344-.245C66.211,89.058,66.575,89.351,66.92,89.669Zm-.559-5.209c.259-.212.536-.412.824-.606a8.729,8.729,0,0,1,.8-.43c.183-.076.354-.142.542-.206.118-.03.247-.059.371-.083a1.863,1.863,0,0,1,.194-.023c.059,0,.118.005.183.005l.218.036c.135.035.265.077.4.118.171.071.336.147.507.223.37.208.729.435,1.084.68.532.4,1.046.819,1.542,1.269.3.3.589.607.86.931.235.294.459.594.671.907-.454-.283-.919-.548-1.4-.807a15.492,15.492,0,0,0-2.6-1.154,7.679,7.679,0,0,0-2.331-.436c-.136,0-.277.006-.412.018a6,6,0,0,0-1.744.431c-.129-.068-.262-.129-.395-.19.042-.051.081-.1.125-.153C65.984,84.807,66.167,84.631,66.361,84.46Zm-6.742,9.013c.083-.114.182-.223.27-.336-.025.123-.041.247-.062.37-.186.157-.374.311-.55.478C59.389,93.815,59.5,93.644,59.619,93.473Zm.754,40.171c-.224.006-.448,0-.672-.012a5.9,5.9,0,0,1-.718-.1c-.136-.035-.271-.071-.4-.112-.1-.041-.2-.088-.3-.135a1.768,1.768,0,0,1-.177-.112c-.064-.047-.129-.094-.188-.147-.153-.153-.3-.307-.436-.471-.147-.2-.288-.4-.424-.607a16.952,16.952,0,0,1-.877-1.672c-.3-.677-.577-1.366-.813-2.073a21.7,21.7,0,0,1-.565-2.45,54.912,54.912,0,0,1-.665-6.441c0,.011.006.029.006.041a44.813,44.813,0,0,1,.1-5.473c.109-1.067.239-2.127.4-3.189.159,1.389.347,2.779.548,4.163a89.545,89.545,0,0,0,3.1,13.361,28.829,28.829,0,0,0,1.225,3.333c.318.7.659,1.4,1.007,2.084C60.473,133.638,60.425,133.638,60.373,133.644Zm14.779,2.281c-.023.018-.053.029-.076.047-.053.024-.106.042-.153.059-.124.035-.253.065-.377.089-.108.017-.216.025-.324.034.051-.1.109-.208.159-.314.119-.122.217-.262.33-.389.15.16.29.328.453.474Zm1.361-2.467c-.042-.047-.077-.094-.118-.142s-.056-.084-.087-.124c.25-.478.475-.965.684-1.458-.017.066-.033.133-.049.2C76.807,132.445,76.672,132.951,76.513,133.458Zm9.595-12.276a41.848,41.848,0,0,1-.7,4.892c.006-.03.018-.053.024-.083a24.639,24.639,0,0,1-.762,2.7.217.217,0,0,1,.008-.03,33.811,33.811,0,0,1-1.561,3.574,13.87,13.87,0,0,1-.783,1.319,8.278,8.278,0,0,1-.53.666,5.406,5.406,0,0,1-.465.429.7.7,0,0,1-.081.063l.019-.01c-.018.012-.036.024-.056.035l-.029.019-.271.147a1.639,1.639,0,0,1-.23.07l.165-.053c-.064.023-.135.036-.2.053-.112.012-.224.024-.341.029-.171.006-.342,0-.513-.011h.024c-.194-.018-.383-.041-.571-.077.076-.153.153-.312.229-.471a37.551,37.551,0,0,0,2.326-5.818,54.186,54.186,0,0,0,1.449-6.553,57.33,57.33,0,0,0,.712-6.954,59.841,59.841,0,0,0-.877-13.091l.116.247a40.1,40.1,0,0,1,1.48,3.94,41.661,41.661,0,0,1,1.083,4.546v-.006a40.623,40.623,0,0,1,.495,4.693v-.035A47.964,47.964,0,0,1,86.108,121.182Z"/><path d="M258.3,229.45c-.017-.659-.076-1.319-.123-1.972q-.115-1.766-.23-3.521c-.106-1.549-.277-3.08-.436-4.617s-.318-3.044-.512-4.563c-.878-6.778-1.873-13.538-3.086-20.263q-1.015-5.661-2.125-11.305c-.259-1.319-.53-2.632-.807-3.951-.365-1.767-.707-3.545-1.1-5.306-.725-3.174-1.4-6.353-2.173-9.516-.883-3.621-1.772-7.242-2.7-10.852-.877-3.451-1.784-6.9-2.679-10.34-.377-1.437-.789-2.867-1.184-4.3-.377-1.379-.736-2.757-1.148-4.122-1-3.339-1.973-6.684-3.068-9.987-.606-1.825-1.2-3.651-1.814-5.476-.559-1.661-1.183-3.3-1.772-4.959-1.189-3.344-2.461-6.653-3.716-9.975-.477-1.242-.977-2.472-1.472-3.709-.653-1.643-1.277-3.309-1.972-4.94q-1.122-2.633-2.238-5.259c-.512-1.2-1.007-2.408-1.566-3.586-1.472-3.085-2.88-6.2-4.5-9.209q-1.608-2.968-3.209-5.936c-.612-1.136-1.295-2.238-1.955-3.345-1.019-1.713-2.032-3.432-3.05-5.14-.831-1.4-1.761-2.738-2.644-4.1-.842-1.307-1.649-2.644-2.532-3.921q-1.74-2.517-3.492-5.029a112.761,112.761,0,0,0-12.162-15.019q-1.451-1.806-2.9-3.609c-1.083-1.343-2.255-2.621-3.444-3.881-1.478-1.566-3-3.1-4.6-4.563a54.5,54.5,0,0,0-11.088-8.032,51.658,51.658,0,0,0-8.238-3.516c-.754-.377-1.513-.742-2.285-1.1a79.7,79.7,0,0,0-13.749-4.852,60.843,60.843,0,0,0-7.255-1.431q-2.966-.372-5.947-.5c-.7-.2-1.394-.4-2.088-.6-1.554-.459-3.138-.818-4.71-1.219A57.089,57.089,0,0,0,113.171.2,42.438,42.438,0,0,0,99.563,1a36.031,36.031,0,0,0-6.43,2.238q-1.5.7-2.941,1.474c-.679.113-1.356.233-2.026.383a63.4,63.4,0,0,0-8.191,2.427c-1.49.547-2.985,1.089-4.457,1.678-2.267.906-4.558,1.766-6.766,2.808A43.335,43.335,0,0,0,62.6,15.5a58.034,58.034,0,0,0-5.07,3.963c-1.713,1.508-3.332,3.115-4.975,4.7-1.166,1.124-2.256,2.326-3.369,3.5-.559.595-1.118,1.183-1.672,1.778-.459.489-.883,1.013-1.319,1.525-1.578,1.855-3.18,3.686-4.64,5.641a64.137,64.137,0,0,0-7.025,11.648c-.524,1.148-1.024,2.308-1.49,3.486-.194.3-.377.606-.565.918-.595.983-1.189,1.973-1.784,2.956-.459.765-.931,1.525-1.354,2.308-1.072,1.985-2.1,3.993-2.974,6.071-.507,1.2-.989,2.415-1.431,3.639-.171.454-.347.913-.5,1.378-.276.866-.553,1.737-.824,2.6-.465,1.466-.972,2.932-1.384,4.416q-.891,3.251-1.79,6.507c-.889,3.215-1.666,6.466-2.479,9.7-.389,1.56-.736,3.133-1.1,4.7-.336,1.454-.7,2.915-1.013,4.375-.436,2.055-.889,4.116-1.319,6.171-.065.217-.131.432-.2.648-.053.178-.109.355-.162.534q-.453,1.5-.908,3-.318,1.065-.62,2.128c-.6,1.987-1.182,3.977-1.7,5.984q-.893,3.444-1.784,6.883c-.247.972-.495,1.944-.713,2.921q-.75,3.4-1.5,6.8c-.253,1.149-.536,2.291-.754,3.445q-1.052,5.627-2.114,11.258c-.259,1.378-.447,2.774-.671,4.158q-.529,3.321-1.06,6.642c-.165,1.031-.288,2.073-.418,3.109q-.441,3.569-.889,7.125c-.418,3.35-.554,6.73-.789,10.093-.053.777-.106,1.548-.159,2.32-.042.642-.042,1.283-.053,1.926Q-.008,188.277,0,190.1a110.146,110.146,0,0,0,.972,14.4,85.114,85.114,0,0,0,2.043,10.37q.715,2.626,1.426,5.247.145,3.2.291,6.4.035.75.07,1.5c.018.4.089.807.136,1.208.259,2.343.518,4.693.777,7.036.253,2.291.536,4.564.848,6.842a1.264,1.264,0,1,0,2.515-.265c-.224-1.654-.46-3.309-.642-4.963q-.247-2.128-.483-4.246-.115-1.047-.235-2.091.574,1.953,1.145,3.908c.278.97.595,1.932.918,2.892.078.385.152.763.256,1.15q.451,1.731.913,3.463c.212.8.412,1.589.66,2.373.64,2.042,1.36,4.072,2.189,6.055.347,1.145.7,2.288,1.1,3.41.565,1.573,1.078,3.169,1.731,4.7.889,2.109,1.743,4.228,2.744,6.284a46.99,46.99,0,0,0,7.5,11.411c6,6.478,14.315,11.106,23.271,11.412a30.383,30.383,0,0,0,13.414-2.479,30.807,30.807,0,0,0,5.668-3.317c.1-.027.209-.043.312-.072a19,19,0,0,0,5.252-2.291,24.6,24.6,0,0,0,4.422-3.733,33.508,33.508,0,0,0,3.121-3.769q.8-1.139,1.6-2.267c-.006.012-.012.018-.018.029.018-.023.03-.04.042-.058s.043-.065.065-.093l-.012.022c.376-.553.718-1.148,1.071-1.713.318-.513.642-1.025.942-1.543,1.337-2.308,2.644-4.629,4.164-6.807a25.33,25.33,0,0,1,1.7-2.061c.342-.342.689-.665,1.049-.983.365-.289.736-.548,1.124-.807.243-.146.5-.278.75-.4a7.576,7.576,0,0,1,.774-.3c.247-.072.5-.138.75-.187s.485-.077.729-.1a7.731,7.731,0,0,1,.9.006c.271.029.542.064.807.117l-.013,0c.032.006.063.014.095.022h.012a7.416,7.416,0,0,1,.736.212c.489.188.948.394,1.408.624.618.353,1.213.742,1.8,1.142a38.406,38.406,0,0,1,3.244,2.7c.431.407.857.822,1.267,1.244.524,1.013,1.031,2.031,1.543,3.05.4.789.754,1.607,1.13,2.408s.742,1.59,1.113,2.391q1.2,2.553,2.4,5.105c.713,1.513,1.5,2.991,2.255,4.481a72.769,72.769,0,0,0,4.617,8,42.637,42.637,0,0,0,8.52,9.6,33.153,33.153,0,0,0,8.268,4.879,32.762,32.762,0,0,0,3.265,2.991,19.413,19.413,0,0,0,5.812,3.3,12.841,12.841,0,0,0,6.006.654,13.4,13.4,0,0,0,3.35-.842,24.056,24.056,0,0,0,2.756-1.384,22.349,22.349,0,0,0,4.629-3.851c1.636-1.719,3.026-3.668,4.5-5.529l.25-.314c.5-.42.991-.842,1.49-1.256.636-.5,1.3-.977,1.967-1.431.43-.259.854-.494,1.307-.718.251-.11.507-.207.763-.3a8.008,8.008,0,0,1,.889-.235c.3-.05.591-.094.886-.114H175a7.485,7.485,0,0,1,.749-.006,12.349,12.349,0,0,1,1.224.194,7.135,7.135,0,0,1,.772.235q.643.257,1.254.565c.436.254.854.525,1.266.808.63.477,1.225.988,1.8,1.519,1.325,1.283,2.573,2.644,3.816,4,1.089,1.195,2.2,2.373,3.3,3.55.595.631,1.225,1.231,1.855,1.82.824.771,1.672,1.519,2.549,2.226a40.761,40.761,0,0,0,4.67,3.274c.471.271.942.536,1.419.789a37.576,37.576,0,0,0,4.046,3.05,32.48,32.48,0,0,0,4.722,2.608,31.038,31.038,0,0,0,5.182,1.75,21.191,21.191,0,0,0,4.828.583h.065a20.325,20.325,0,0,0,4.3-.413,19.3,19.3,0,0,0,4.5-1.507,23.659,23.659,0,0,0,2.285-1.3,9.592,9.592,0,0,0,4.334-.325,8.9,8.9,0,0,0,2.708-1.359,11.729,11.729,0,0,0,1.873-1.7,21.146,21.146,0,0,0,1.725-2.291c.56-.884,1.078-1.79,1.572-2.709a44.05,44.05,0,0,0,2.7-6.083q.326-.908.625-1.833c.1-.185.2-.367.3-.554.854-1.672,1.631-3.386,2.337-5.123,1.284-3.133,2.438-6.312,3.416-9.557s1.937-6.512,2.638-9.827c.336-1.59.689-3.175.971-4.776q.486-2.7.925-5.417c.518-3.192,1.024-6.395,1.39-9.61.182-1.6.382-3.2.53-4.811.153-1.7.341-3.386.441-5.082.094-1.643.23-3.291.259-4.94.024-1.172.041-2.35.065-3.527.006-.525.029-1.048.018-1.573C258.4,233.331,258.344,231.388,258.3,229.45ZM206.539,300.2c-1.336-1.636-2.583-3.336-3.8-5.057q2.465,2.547,4.876,5.144c1.213,1.307,2.426,2.6,3.662,3.88.554.572,1.09,1.173,1.673,1.714l1.27,1.2c-.482-.292-.959-.594-1.429-.912a32.851,32.851,0,0,1-2.621-2.117A45.243,45.243,0,0,1,206.539,300.2ZM168.73,286.992l-.034.02a43.8,43.8,0,0,0-5.7,4.882c-1.407,1.342-2.809,2.691-4.316,3.928a34.972,34.972,0,0,1-2.873,2.035c-.8.461-1.6.882-2.433,1.28a20.817,20.817,0,0,1-1.955.724c-.488.135-.977.259-1.472.371-.064-.012-.135-.024-.2-.041-.53-.135-1.042-.277-1.56-.448a20.98,20.98,0,0,1-2.173-.954,28.937,28.937,0,0,1-2.532-1.55v0a35.272,35.272,0,0,1-3.027-2.509,43.69,43.69,0,0,1-3.1-3.344,59.255,59.255,0,0,1-4.057-5.753c.006.018.017.029.023.047-.553-.907-1.095-1.814-1.6-2.75s-1.007-1.855-1.508-2.78c-.589-1.077-1.142-2.161-1.69-3.256q-.945-1.89-1.9-3.774c-.465-.925-.936-1.843-1.4-2.762-.224-.435-.43-.889-.672-1.313-.806-1.449-1.625-2.891-2.437-4.334-.342-.612-.731-1.207-1.107-1.8-.542-.842-1.09-1.684-1.684-2.491a38.111,38.111,0,0,0-3.275-4.01,25.941,25.941,0,0,0-9.021-6.312,20.954,20.954,0,0,0-5.264-1.419c-.224-.03-.453-.053-.689-.077a15.291,15.291,0,0,0-5.064-2.791,10.319,10.319,0,0,0-5.229-.33,11.172,11.172,0,0,0-4.716,2.326,19.188,19.188,0,0,0-2.114,2.038c-.754.871-1.449,1.79-2.126,2.726-.86,1.172-1.631,2.408-2.444,3.615-.488.725-.983,1.449-1.478,2.179-.43.571-.871,1.148-1.313,1.726-.394.523-.765,1.089-1.2,1.583q-1.571,1.791-3.133,3.58a65.927,65.927,0,0,1-5.623,5.347l.012-.011a38.93,38.93,0,0,1-3.426,2.482l.013-.009a29.86,29.86,0,0,1-3.141,1.672c-.024.012-.047.023-.077.035l.071-.035c-.805.339-1.614.633-2.446.9l.014,0-.024.007-.053.017.017-.008q-1.285.36-2.6.608c-.9.136-1.79.236-2.7.283-.806.017-1.607-.006-2.414-.053-.076-.041-.147-.076-.218-.112-1.407-.76-2.785-1.56-4.122-2.426q-1.511-.988-3.014-1.978c-1.373-.907-2.692-1.885-4.04-2.833a62.139,62.139,0,0,1-5.488-4.446,51.428,51.428,0,0,1-4.187-4.5.554.554,0,0,1,.053.076c-.029-.041-.059-.082-.094-.123-.006-.006-.012-.018-.023-.024.006,0,.011.006.017.012a56.489,56.489,0,0,1-3.58-5.064,1.342,1.342,0,0,0-.1-.153.71.71,0,0,1,.047.064c-.512-.842-1.036-1.69-1.49-2.567-.229-.448-.459-.9-.689-1.348q-.688-1.351-1.378-2.7c-.353-.8-.706-1.607-1.065-2.4-.295-.665-.613-1.331-.889-2.008-.636-1.595-1.308-3.179-1.914-4.787-.395-1.06-.795-2.125-1.2-3.185-.224-.607-.466-1.213-.678-1.826-.618-1.813-1.231-3.627-1.855-5.435q-.521-1.8-1.042-3.6c-.224-.759-.441-1.519-.659-2.279-.054-.177-.1-.355-.151-.532-.668-4.5-1.317-9-1.548-13.549h0c-.059-1.314-.1-2.633-.118-3.952-.012-1.019-.047-2.044-.012-3.063.036-.818.065-1.636.094-2.449q.107-3.047.224-6.088c-.006.082-.011.17-.023.252.188-2.066.383-4.133.571-6.206.147-1.666.377-3.321.583-4.988.471-3.874.942-7.755,1.466-11.629a1.815,1.815,0,0,0-3.592-.524c-.495,3.345-.983,6.695-1.437,10.051-.055.4-.108.8-.163,1.193,0-.03,0-.059,0-.089.065-1.713.124-3.409.183-5.117q.813-6.51,1.625-13.025c.153-1.219.295-2.444.489-3.657q.654-4.1,1.319-8.2c.471-2.938.9-5.876,1.425-8.8q1.165-6.544,2.344-13.09c1.13-6.312,2.5-12.577,3.739-18.872.912-3.668,1.837-7.349,2.749-11.017.383-1.519.766-3.044,1.143-4.564.153-.612.353-1.219.536-1.825.347-1.172.7-2.344,1.071-3.51q1.113-3.5,2.368-6.954c-.018.053-.036.106-.053.153q.767-2.073,1.6-4.121c.288-.627.568-1.258.877-1.876q1.942-3.9,3.892-7.779l-.088.177c1.578-2.75,3.15-5.511,4.728-8.261.236-.413.524-.807.783-1.2.571-.872,1.137-1.744,1.708-2.609q1.238-1.889,2.47-3.776c.886-1.155,1.747-2.325,2.623-3.485q.91-1.218,1.82-2.426c.241-.317.465-.659.724-.96q2.8-3.294,5.606-6.583c-.047.048-.094.1-.141.148q2.831-3.039,5.635-6.1l.018-.018.111-.122-.061.068c1.077-1.147,2.2-2.252,3.3-3.377.558-.573,1.125-1.133,1.69-1.7q2.038-1.446,4.16-2.77,2.005-1.229,4.051-2.361c.719-.4,1.431-.825,2.161-1.2.925-.459,1.838-.918,2.756-1.383,1.331-.672,2.668-1.343,4-2.015.588-.293,1.171-.606,1.763-.887,3.02-1.355,6.058-2.675,9.06-4.059-.047.024-.1.047-.147.071q2.765-1.077,5.535-2.132c.948-.37,1.9-.736,2.85-1.1,1.378-.536,2.8-.971,4.2-1.407a82.716,82.716,0,0,1,10.122-2.426c-.053.006-.106.018-.159.024.724-.124,1.443-.23,2.167-.325,1.35.116,2.711.226,4.062.337h-.052l.265.018c1.154.129,2.308.271,3.456.412.4.07.8.141,1.2.23,1.372.282,2.743.571,4.116.836l4.428,1.1c1.077.265,2.143.583,3.215.889s2.149.6,3.215.948c1.305.422,2.614.839,3.915,1.266.517.2,1.03.415,1.546.622,1.16.465,2.32.925,3.48,1.39,1.455.583,2.874,1.23,4.305,1.872.6.271,1.21.54,1.813.813,1.906,1.043,3.76,2.166,5.556,3.388.719.536,1.443,1.06,2.161,1.59.571.424,1.184.819,1.726,1.272,1.348,1.131,2.708,2.249,4.057,3.374-.042-.041-.089-.083-.13-.124,1.278,1.208,2.556,2.409,3.834,3.616,1.089,1.03,2.084,2.166,3.115,3.25.353.371.706.748,1.059,1.119.148.153.307.306.442.465.371.447.754.889,1.131,1.331,1.036,1.213,2.084,2.432,3.115,3.663.918,1.189,1.825,2.385,2.732,3.58.636.836,1.278,1.66,1.884,2.514,1.661,2.355,3.333,4.7,4.958,7.078q2.544,3.719,5.052,7.467c1.42,2.1,2.774,4.251,4.146,6.394.571.989,1.142,1.985,1.708,2.98.365.636.736,1.278,1.1,1.914.165.282.347.565.494.859,1.019,2.037,2.05,4.063,3.068,6.1l-.07-.159q1.129,2.517,2.255,5.052c1.236,2.75,2.373,5.553,3.521,8.344q2.208,5.361,4.393,10.735,1.81,4.424,3.462,8.915c.53,1.442,1.084,2.879,1.555,4.34.559,1.725,1.113,3.456,1.678,5.181.212.889.424,1.772.63,2.662.4,1.625.724,3.262,1.089,4.893,1.42,6.424,2.68,12.9,3.828,19.379q.981,5.52,1.967,11.047c.612,3.426,1.266,6.848,1.9,10.269.583,3.133,1.224,6.253,1.837,9.38.677,3.415,1.3,6.849,1.937,10.275.294,1.832.595,3.663.889,5.5.224,1.4.412,2.79.607,4.186.206,1.461.424,2.909.6,4.369q.363,2.987.725,5.977c.194,1.578.329,3.162.488,4.746.148,1.413.271,2.821.383,4.234.118,1.537.265,3.08.342,4.622.082,1.7.159,3.41.241,5.118.03,1.666.065,3.338.088,5,.024,1.289.006,2.573,0,3.863s0,2.6-.029,3.9c-.047,1.826-.094,3.657-.136,5.482-.041,1.667-.141,3.334-.212,5-.07,1.537-.147,3.068-.229,4.6-.171,3.257-.348,6.513-.5,9.77-.147,3.462-.265,6.93-.465,10.387-.1,1.778-.182,3.562-.312,5.335s-.261,3.567-.395,5.351v-.046c-.229,2.25-.412,4.5-.677,6.754-.3.989-.612,1.973-.959,2.945a47.133,47.133,0,0,1-2.2,5.046l-.021.035-.035.071.007-.011a33.68,33.68,0,0,1-1.968,3.19c-.3.4-.613.789-.933,1.172-.3.208-.594.42-.9.618-.813.487-1.64.931-2.494,1.343-.563.247-1.131.469-1.71.668-.726.222-1.453.408-2.2.559-.47.07-.937.121-1.412.16-.666.023-1.325.019-1.992-.014h-.007c-1.311-.952-2.559-1.963-3.776-3.021.021.018.042.034.062.052-.518-.489-1.047-.977-1.57-1.471-.483-.453-.989-.889-1.448-1.366-.984-1.018-2-2.026-2.968-3.062-1.949-2.09-3.875-4.2-5.853-6.259q-1.953-2.033-3.934-4.022c-1.089-1.09-2.19-2.179-3.333-3.221-.736-.665-1.448-1.354-2.2-2-.695-.6-1.384-1.189-2.078-1.784-.66-.565-1.378-1.078-2.061-1.614-.607-.465-1.261-.883-1.891-1.313a23.241,23.241,0,0,0-4.063-2.308,14.067,14.067,0,0,0-2.549-.848,12.328,12.328,0,0,0-3.009-.259,7.906,7.906,0,0,0-2.526.518,9.759,9.759,0,0,0-2.185,1.1,14.769,14.769,0,0,0-2.314,1.92,24.673,24.673,0,0,0-1.967,2.314c-.546.728-1.042,1.494-1.525,2.267C169.89,285.808,169.3,286.392,168.73,286.992ZM84.86,254.93c-4.574,4.527-7.32,10.407-10.936,15.646a46.037,46.037,0,0,1-3.377,4.244,39.5,39.5,0,0,1-3.217,3.039,34.422,34.422,0,0,1-2.9,2.1h0c-.293.179-.591.347-.888.517q-.681-.014-1.362-.056a30.558,30.558,0,0,1-3.16-.47c-1.042-.235-2.061-.518-3.074-.842a.87.87,0,0,1,.118-.023,25.309,25.309,0,0,0,5.853-1.931,38.9,38.9,0,0,0,10.411-7.744c1-1,1.973-2.014,2.9-3.079.736-.837,1.466-1.679,2.2-2.515.448-.518.848-1.071,1.26-1.619.513-.677,1.037-1.355,1.549-2.038.583-.783,1.1-1.625,1.649-2.432.771-1.13,1.513-2.273,2.29-3.386a32.953,32.953,0,0,1,2.374-2.967c.481-.482.976-.934,1.491-1.371.229-.177.461-.345.7-.5.353-.221.713-.42,1.087-.609.255-.115.515-.223.784-.316a8.115,8.115,0,0,1,.861-.223.65.65,0,0,0-.106.012,7.712,7.712,0,0,1,.937-.117c.314-.013.632-.013.95,0a7.677,7.677,0,0,1,.887.112c.518.123,1.018.271,1.531.442.147.064.3.129.447.194a1.72,1.72,0,0,0-.513,1,12.5,12.5,0,0,0-2.958.338,15.519,15.519,0,0,0-2.785,1A18.5,18.5,0,0,0,84.86,254.93Zm33.527,16.635c.854,1.381,1.66,2.79,2.451,4.209q-1.715-2.85-3.44-5.685C117.73,270.579,118.067,271.065,118.387,271.565Zm-81.592.7a.11.11,0,0,0-.035-.024c-.047-.023-.094-.046-.147-.07.029.012.053.024.076.035a48.323,48.323,0,0,1-4.681-2.9l.011.01-.029-.022c-.02-.012-.041-.027-.063-.041-1.075-.792-2.122-1.618-3.128-2.5-.583-.512-1.172-1.024-1.755-1.53a51.867,51.867,0,0,1-4.3-4.582c-.549-.69-1.074-1.395-1.582-2.11l-.288-.666c-.483-1.107-.872-2.255-1.29-3.385s-.836-2.232-1.189-3.369c-.491-1.548-.977-3.1-1.462-4.651-.32-1.08-.562-2.188-.84-3.28-.041-.16-.087-.32-.131-.479.024.058.045.117.069.175.294.742.565,1.5.889,2.226L18,247.554c.313.707.589,1.437.943,2.126q.643,1.254,1.277,2.509c.56,1.106,1.125,2.2,1.755,3.261a54.231,54.231,0,0,0,3.751,5.6,46.524,46.524,0,0,0,4.84,5.411,56.475,56.475,0,0,0,4.811,4.057c1.419,1.054,2.862,2.067,4.311,3.086-.042-.018-.089-.036-.136-.054-.936-.411-1.855-.836-2.773-1.307ZM6.905,219.71q-.043-.914-.088-1.828c.047.489.095.978.148,1.466.037.33.074.661.112.99Q6.99,220.025,6.905,219.71ZM17.737,106.8c-.119.472-.236.945-.356,1.419-.07.288-.141.582-.218.871.111-.541.229-1.079.344-1.619C17.584,107.246,17.66,107.021,17.737,106.8ZM76,18.333c1.284-.972,2.533-2,3.846-2.915.853-.595,1.7-1.195,2.549-1.79.513-.365,1.019-.748,1.549-1.083q2.108-1.354,4.22-2.7c1.779-1.065,3.59-2.067,5.457-2.977l.089-.019c1-.106,2-.176,3.009-.224,3.109-.117,6.218-.094,9.333-.082-1.619.459-3.233.966-4.828,1.507-1.855.63-3.675,1.367-5.506,2.073-1.113.424-2.22.854-3.333,1.284-.353.135-.724.265-1.078.418-2.944,1.319-5.888,2.656-8.844,3.957-.966.43-1.9.948-2.85,1.425-1.761.883-3.515,1.772-5.276,2.662-.214.107-.424.221-.636.331C74.454,19.561,75.213,18.926,76,18.333ZM198.062,53.625q.945,1.748,1.884,3.486c.93,1.713,1.878,3.415,2.738,5.164,1.089,2.22,2.167,4.446,3.268,6.666-.023-.053-.041-.1-.065-.153.607,1.359,1.219,2.726,1.826,4.08.524,1.178,1.089,2.338,1.578,3.527q.856,2.094,1.719,4.175c.46,1.125.966,2.238,1.39,3.38q.808,2.172,1.622,4.34c-.083-.2-.167-.392-.25-.583-.589-1.407-1.166-2.815-1.79-4.2q-1.174-2.631-2.361-5.264c-.3-.677-.66-1.331-1-1.99-.53-1.054-1.06-2.1-1.59-3.156-.224-.448-.442-.907-.695-1.349q-.733-1.263-1.466-2.538c-.754-1.3-1.484-2.614-2.3-3.886-1.007-1.566-1.99-3.162-3.033-4.711q-3.046-4.522-6.118-9.015c-.824-1.213-1.666-2.414-2.514-3.61-.93-1.319-1.837-2.667-2.82-3.957-1.272-1.666-2.538-3.332-3.816-5-.318-.412-.671-.8-1.007-1.2-.748-.883-1.5-1.76-2.244-2.644-.441-.518-.859-1.06-1.324-1.554-.566-.595-1.125-1.2-1.69-1.79-1.119-1.178-2.209-2.367-3.386-3.48l-.17-.161c.247.17.492.341.74.509q3.663,2.751,7.046,5.824a97.8,97.8,0,0,1,8.676,9.184c2.231,2.73,4.285,5.582,6.292,8.467C197.5,52.664,197.8,53.136,198.062,53.625Zm46.394,233.963c-.959,2.525-1.943,5.036-3.076,7.486l.021-.065c.229-.76.5-1.519.683-2.29q.37-1.59.742-3.169c.388-1.66.635-3.35.93-5.028s.512-3.38.76-5.07c.258-1.731.441-3.474.665-5.217.076-.619.124-1.249.182-1.873.1-1.083.2-2.172.3-3.256.159-1.673.212-3.356.306-5.04.088-1.62.112-3.245.153-4.87q.053-2.279.053-4.546c.006-1.573.03-3.145-.006-4.717-.053-2.114-.106-4.222-.153-6.336-.035-1.608-.153-3.209-.236-4.817-.07-1.425-.135-2.85-.241-4.268-.159-2.044-.306-4.093-.465-6.136-.141-1.79-.353-3.58-.536-5.37-.3-3.033-.654-6.06-.989-9.087q-.611-5.607-1.219-11.217-.23-2.12-.471-4.246c-.189-1.7-.353-3.409-.577-5.1-.271-2.073-.548-4.145-.819-6.224-.206-1.56-.471-3.121-.718-4.675-.183-1.178-.371-2.356-.565-3.527-.006-.036-.006-.071-.012-.1a.989.989,0,0,0-.053-.266c-.065-.4-.136-.8-.2-1.2a1.849,1.849,0,0,0-.042-.241c-.041-.218-.076-.442-.111-.659,0-.006,0-.012-.007-.012a1.458,1.458,0,0,0-.029-.183c-.112-.648-.224-1.29-.335-1.937a1.447,1.447,0,0,0-.03-.171c-.047-.271-.094-.536-.135-.8h-.006a.83.83,0,0,0-.03-.176c-.012-.089-.029-.177-.041-.266a.84.84,0,0,0-.023-.106c-.024-.141-.048-.282-.071-.43v.042c-.224-1.313-.5-2.615-.742-3.916-.224-1.189-.448-2.379-.683-3.562-.506-2.58-1.007-5.159-1.525-7.738q-1.122-5.591-2.3-11.176c-.7-3.3-1.466-6.589-2.2-9.887-.4-1.772-.872-3.527-1.307-5.287-.324-1.325-.66-2.632-1.025-3.946-.524-1.866-1.042-3.733-1.572-5.594-.206-.712-.459-1.419-.689-2.119-.071-.236-.147-.472-.224-.707-.206-.872-.418-1.749-.647-2.62q-.779-2.942-1.543-5.877c-.318-1.207-.63-2.408-.984-3.6q-.962-3.251-1.925-6.512c-.353-1.2-.76-2.391-1.16-3.586-.612-1.838-1.231-3.675-1.837-5.518-.189-.571-.424-1.131-.63-1.69-.424-1.119-.842-2.243-1.26-3.362-.472-1.255-.937-2.509-1.443-3.751q-1.272-3.075-2.538-6.153c-.109-.264-.229-.523-.342-.784q.6,1.11,1.187,2.224c.966,1.813,1.961,3.609,2.838,5.47,1.062,2.244,2.1,4.494,3.172,6.733.064.149.125.3.19.45,1.343,3.2,2.709,6.4,3.981,9.622,1.354,3.451,2.691,6.908,3.986,10.376,1.255,3.362,2.438,6.742,3.622,10.128.631,1.8,1.221,3.612,1.805,5.426q.669,2.266,1.336,4.534c.566,1.9,1.119,3.792,1.626,5.705q1.3,4.929,2.608,9.864c.153.594.283,1.2.424,1.8q.6,2.623,1.2,5.246.618,2.712,1.237,5.411c.288,1.261.524,2.538.789,3.8.671,3.263,1.36,6.519,2.014,9.781.706,3.568,1.466,7.131,2.131,10.7.672,3.6,1.319,7.195,2.008,10.787.424,2.632.825,5.276,1.231,7.914.118.772.271,1.537.353,2.309.136,1.224.265,2.449.4,3.668.241,2.2.547,4.4.659,6.607.142,2.6.271,5.193.412,7.784,0-.053,0-.112-.011-.17.011,1.707.017,3.409.029,5.116.006,1.208.035,2.415.006,3.622-.076,3.079-.124,6.159-.253,9.239q-.115,2.755-.236,5.517c-.064,1.5-.176,3.009-.265,4.517-.17,2.885-.406,5.77-.624,8.662q-.238,2.295-.465,4.61c-.118,1.172-.265,2.338-.412,3.51-.171,1.336-.324,2.685-.524,4.022-.259,1.736-.524,3.474-.783,5.2-.383,2.591-.842,5.176-1.3,7.755-.04.234-.085.468-.125.7C245.321,284.987,244.9,286.29,244.456,287.588ZM158.315,14.351c-.3-.138-.593-.277-.894-.409.078.025.157.046.234.071Q157.993,14.183,158.315,14.351ZM52.258,28.263c.56-.594,1.1-1.207,1.69-1.772,1.031-1,2.061-2,3.1-2.992,1.26-1.219,2.574-2.375,3.928-3.5l.017-.013a.09.09,0,0,1,.019-.016l-.007,0A53.06,53.06,0,0,1,65.5,16.74a46.2,46.2,0,0,1,4.94-2.632c-.024.011-.047.017-.077.029,1.284-.571,2.585-1.119,3.887-1.643l-1.57.992.027-.014c-.041.023-.088.052-.135.082-.006.006-.012.006-.018.012l.006-.006c-.377.235-.742.489-1.113.736-.9.6-1.8,1.2-2.7,1.79-1.025.683-2.043,1.372-3.05,2.079l-2.679,1.866c-.377.265-.766.519-1.131.8q-2.094,1.6-4.187,3.186a86.322,86.322,0,0,0-7.107,6.024C51.145,29.447,51.705,28.852,52.258,28.263ZM30.972,66c1.071-3.3,2.143-6.595,3.268-9.874.277-.754.547-1.5.83-2.25.118-.206.241-.412.365-.6,1.29-1.925,2.62-3.821,3.91-5.741,1.125-1.5,2.255-3,3.38-4.487a88.534,88.534,0,0,1,5.983-7.113l-.042.041c1.478-1.572,3-3.109,4.593-4.564,1.425-1.307,2.892-2.555,4.387-3.78l-.076.059c1.619-1.319,3.3-2.561,4.964-3.827,1.16-.883,2.349-1.708,3.545-2.538,1.213-.842,2.408-1.7,3.638-2.514q1.353-.891,2.7-1.789c-.711.6-1.417,1.207-2.126,1.8.053-.042.106-.089.165-.13-.978.8-1.879,1.7-2.815,2.544-.642.589-1.272,1.178-1.9,1.79C64,24.733,62.254,26.435,60.558,28.19q-.635.655-1.266,1.311c-.356.288-.719.569-1.069.864a77.805,77.805,0,0,0-8.243,8.056A107.5,107.5,0,0,0,42.8,47.6a148.712,148.712,0,0,0-7.944,12.642q-1.683,3.011-3.237,6.092-.15.263-.3.525c-.194.341-.394.671-.571,1.018-.387.783-.775,1.562-1.162,2.343Q30.282,68.106,30.972,66ZM2.7,195.439c0,.053.006.112.006.165-.082-1.819-.135-3.633-.135-5.453s-.03-3.668.1-5.482c.065-.9.129-1.8.194-2.691q.291-4.019.577-8.038a1.638,1.638,0,0,1-.012.171c.419-3.227.825-6.454,1.243-9.681.043-.341.1-.68.15-1.021-.047.969-.092,1.939-.1,2.908q-.036,3.3-.071,6.607c-.017,1.461.012,2.921.018,4.387.012,1.514,0,3.033.047,4.552q.1,3.267.2,6.53a.987.987,0,0,1,.006.136c-.023.341-.047.688-.076,1.036-.142,1.979-.289,3.963-.43,5.942-.053.706-.071,1.4-.077,2.113q-.078,5.492-.152,10.977c-.054-.294-.109-.589-.162-.883l0,.026A102.668,102.668,0,0,1,2.7,195.439Zm49.833,88.215c-1.1.033-2.182.018-3.277-.048-1.046-.1-2.078-.247-3.1-.442a32.494,32.494,0,0,1-3.555-1,37.661,37.661,0,0,1-3.694-1.629,36.7,36.7,0,0,1-3.528-2.161,40.1,40.1,0,0,1-3.22-2.6l.105.1c-.036-.035-.073-.068-.109-.1l-.068-.061.06.053a40.065,40.065,0,0,1-3.223-3.42,44.862,44.862,0,0,1-2.768-3.87c.375.326.748.653,1.124.981a38.207,38.207,0,0,0,3.515,2.7c1.107.76,2.238,1.49,3.415,2.143.889.489,1.784,1.008,2.715,1.408.818.353,1.631.707,2.449,1.06a35.518,35.518,0,0,0,4.387,1.578,29.754,29.754,0,0,0,5.347,1.084c.607.312,1.225.612,1.843.9a34.492,34.492,0,0,0,6.277,2.25c.281.067.565.125.848.187-.633.169-1.264.342-1.907.475A33.1,33.1,0,0,1,52.537,283.654Zm31.4-18.529c-.76,1.308-1.566,2.579-2.361,3.863.041-.053.076-.106.117-.159-.641.9-1.278,1.8-1.919,2.7-.568.782-1.2,1.524-1.843,2.249.1-.141.208-.278.309-.421.9-1.259,1.731-2.573,2.555-3.886,1.308-2.092,2.6-4.191,3.994-6.226.37-.517.753-1.024,1.141-1.526C85.251,262.847,84.6,263.989,83.938,265.125Zm41.72,24.288a60.866,60.866,0,0,1-4.011-5.675v0c-.035-.047-.064-.1-.1-.147.018.023.036.046.053.07-1.118-1.837-2.167-3.721-3.138-5.635-.477-.948-.966-1.9-1.449-2.844.884,1.489,1.749,2.991,2.662,4.463.006.006.006.012.012.024l0,0,.008.014c.029.054.064.1.094.154a2.278,2.278,0,0,1,.129.2l-.017-.018c.017.024.029.047.047.071s.035.059.053.094l0-.016c.115.19.235.38.35.576v-.006c.147.241.3.477.442.712l.035.053c.177.377.454.73.666,1.089.111.166.212.33.317.5h0a.013.013,0,0,1,.011.012c.03.053.059.1.089.153,0-.012-.006-.018-.006-.024.141.23.282.46.418.689-.006-.012-.012-.029-.018-.041.113.183.226.365.338.548a.494.494,0,0,0-.043-.059c.842,1.36,1.79,2.655,2.691,3.98q1.174,1.724,2.449,3.374C127.011,290.97,126.324,290.2,125.658,289.413Zm53.413.556a10.41,10.41,0,0,0-2.926-.678,7.772,7.772,0,0,0-.824-.041,9.237,9.237,0,0,0-1.185.079c.418-.393.837-.786,1.28-1.155.186-.146.385-.272.574-.414.206.03.41.071.614.119.123.035.244.07.36.1.382.153.753.318,1.13.513.338.192.654.4.975.618h0c.669.51,1.314,1.056,1.937,1.631H181c.153.141.3.289.447.435A14.4,14.4,0,0,0,179.071,289.969Zm26.48,20.707v0a35.827,35.827,0,0,1-3.751-1.643c-.683-.365-1.349-.742-2-1.142-.566-.542-1.125-1.095-1.667-1.661-.524-.553-1.065-1.1-1.56-1.684-.353-.412-.7-.83-1.054-1.242-.823-.981-1.651-1.956-2.479-2.938l-.018-.024-.036-.039.007.009-.011-.013-.048-.051a.227.227,0,0,1,.028.026c-1.445-1.8-2.889-3.6-4.368-5.373-.754-.9-1.484-1.813-2.273-2.679a48.278,48.278,0,0,0-3.8-3.969,16.082,16.082,0,0,0-3.227-2.367c-.066-.034-.133-.061-.2-.094.054-.027.106-.059.161-.086.433-.186.868-.356,1.315-.517.4-.118.8-.222,1.21-.312.415-.067.826-.119,1.247-.159.355-.011.706-.014,1.064,0,.436.046.857.109,1.288.194.283.071.563.149.843.239.392.152.771.315,1.151.5.408.233.8.478,1.2.736.422.309.827.63,1.223.972a29.679,29.679,0,0,1,2.251,2.36c2.214,2.721,4.154,5.66,6.151,8.537.742,1.072,1.5,2.131,2.291,3.174a54.518,54.518,0,0,0,3.815,4.587,33.767,33.767,0,0,0,7.538,6.132c-.972-.128-1.94-.278-2.9-.482C207.793,311.386,206.672,311.057,205.551,310.676Zm20.086,4.7a20.21,20.21,0,0,1-1.955.707c-.659.183-1.331.335-2.008.459-.653.1-1.307.177-1.972.224a26.927,26.927,0,0,1-2.756-.071c-.9-.1-1.784-.241-2.673-.424-.907-.218-1.8-.482-2.686-.789h.014c-.1-.036-.193-.069-.285-.107a36.136,36.136,0,0,0,3.646.306,39.5,39.5,0,0,0,5.847-.194c.581-.07,1.164-.156,1.745-.253.135,0,.269.014.4.014a18.47,18.47,0,0,0,2.417-.173c.155.068.307.141.463.206C225.773,315.318,225.7,315.348,225.637,315.377Zm11.907-5.812a20.131,20.131,0,0,1-1.508,1.879c.012-.012.018-.024.024-.03-.233.234-.479.453-.732.662s-.506.385-.77.557c-.212.13-.424.242-.642.348-.165.076-.335.141-.512.2.347-.37.683-.747,1-1.13.163-.2.311-.412.47-.614a27.532,27.532,0,0,0,2.56-1.873c.083-.069.163-.142.245-.211C237.629,309.426,237.589,309.5,237.544,309.565Z"/></svg>