<svg xmlns="http://www.w3.org/2000/svg" width="221.619" height="260.384" viewBox="0 0 221.619 260.384"><path d="M102.366,218.33l-.009.008,0,0Z"/><path d="M149.66,95.635a46.7,46.7,0,0,0,4.552,2.184c1.647.7,3.289,1.41,4.925,2.106l-.026-.009c1.213.588,2.438,1.136,3.627,1.766,1.154.612,2.3,1.231,3.415,1.9.636.377,1.266.76,1.9,1.143,1.678,1.03,3.351,2.084,5.041,3.1-.065-.036-.124-.077-.189-.112a7.568,7.568,0,0,0,1.564.8c-.009.072-.024.143-.031.215a7.011,7.011,0,0,0,.006,1.484,1.547,1.547,0,0,0,1.384,1.449c.041,0,.088.006.13.006a1.547,1.547,0,0,0,1.431-1c.323-.853.694-1.695.948-2.573-.012.042-.024.089-.036.13.212-.726.42-1.45.63-2.174a9.791,9.791,0,0,0,.552-1.255,40.309,40.309,0,0,0,1.7-7.631l0-.018c.079-.353.162-.7.223-1.058q.495-2.941,1-5.883c.235-1.378.412-2.767.6-4.157.336-2.037.624-4.086.942-6.13q.372-2.428.766-4.852l.424-2.673c.065-.418.129-.842.194-1.26.035-.236.071-.465.1-.7a4.808,4.808,0,0,0-.006-1.366A1.48,1.48,0,0,0,184.607,68a3.5,3.5,0,0,0-.076-1.114,1.23,1.23,0,0,0-.287-.515,1.2,1.2,0,0,0-.079-.388,1.473,1.473,0,0,0-1.133-1.262,1.518,1.518,0,0,0-1.643.778,6.255,6.255,0,0,0-.287.581l-.343.213c-.553.342-1.107.671-1.649,1.025q-1.05.68-2.108,1.36c-.518.336-1.018.707-1.531,1.066-2.437,1.692-4.823,3.459-7.178,5.266q-2.546,1.778-5.1,3.547c-.059.042-.122.08-.181.122-.864.469-1.728.941-2.585,1.411h0l0,0-.007,0,0,0c-.026.012-.051.027-.072.037a.511.511,0,0,0-.059.035l.006-.006c-1.19.642-2.361,1.319-3.539,1.979-.613.341-1.219.683-1.831,1.025s-1.225.653-1.814,1.012a1.235,1.235,0,0,0-.567,1.149c-.5.3-1.011.605-1.514.911-.777.471-1.543.948-2.314,1.431a11.063,11.063,0,0,0-1.861,1.366,3.056,3.056,0,0,0-.978,2.261C145.98,93.368,148.029,94.71,149.66,95.635Zm15.451,3.63c.168-.238.338-.475.5-.72a17.849,17.849,0,0,0,1.531-3.056c.288-.712.583-1.425.842-2.149q.45-1.245.889-2.485-.186.706-.371,1.413c-.4,1.5-.734,3.013-1.154,4.51a8.874,8.874,0,0,0-.565,2.509,3.326,3.326,0,0,0,.132.975Q166.02,99.749,165.111,99.265Zm-2.065-16.082c-.347.8-.689,1.6-1.036,2.408.035-.147.071-.295.106-.436a11.047,11.047,0,0,0,.324-1.572,5.011,5.011,0,0,0,.017-.69c.364-.3.731-.591,1.1-.887-.178.411-.357.821-.536,1.235C163.029,83.218,163.035,83.2,163.046,83.183Zm3.934,4.41q.423-1.935.86-3.869c.147-.665.276-1.325.435-1.984a17.658,17.658,0,0,0,.571-2.579,5.687,5.687,0,0,0,.03-.859c.576-.327,1.157-.647,1.733-.974q-.386,1.078-.773,2.156c-.53,1.49-1.043,2.98-1.555,4.476-.459,1.319-.907,2.644-1.378,3.963C166.933,87.811,166.956,87.7,166.98,87.593Zm8.5-11.453c.091-.532.153-1.066.2-1.6.213-.11.423-.223.635-.334-.424,1.323-.831,2.651-1.245,3.977-.042.136-.089.277-.13.412C175.147,77.783,175.336,76.964,175.477,76.14ZM156,86.506c.648-.4,1.3-.8,1.942-1.209-.076.149-.151.3-.229.447-.282.536-.565,1.072-.853,1.614a1.372,1.372,0,0,0-.86-.813C156,86.532,156,86.519,156,86.506Zm13.753,15.429-.493-.3a1.338,1.338,0,0,0,.619-.6c.689-1.36,1.4-2.7,1.984-4.1-.059.253-.111.506-.153.76a8.108,8.108,0,0,0-.159,1.454,12.123,12.123,0,0,0,.159,1.455,1.472,1.472,0,0,0,2.756.423c.442-.865.936-1.7,1.307-2.6.23-.56.442-1.125.648-1.7-.059.336-.112.671-.165,1.007q-.406,2.517-.818,5.034c-.127.8-.257,1.6-.386,2.4-1.787-1.087-3.557-2.215-5.358-3.281A.419.419,0,0,1,169.751,101.935ZM149.048,91.1c.179-.167.364-.329.561-.48.905-.646,1.833-1.261,2.773-1.859-.147.426-.3.85-.447,1.276-.112.324-.23.641-.33.971a4.326,4.326,0,0,0-.153,1.231,1.326,1.326,0,0,0,.877,1.195,1.352,1.352,0,0,0,1.425-.353c.124-.141.248-.277.372-.418a1.248,1.248,0,0,0,1.077.483,3.315,3.315,0,0,0,1.072-.224,2.077,2.077,0,0,0,.736-.571,11.788,11.788,0,0,0,.942-1.384c-.006.041-.018.076-.024.118-.1.43-.194.865-.3,1.289a4.3,4.3,0,0,0-.182,1.284,4.064,4.064,0,0,0,.229,1.031,1.409,1.409,0,0,0,2.361.535,12.776,12.776,0,0,0,1.308-1.672c.365-.583.665-1.2.971-1.814.253-.512.483-1.036.724-1.554.354-.766.707-1.531,1.049-2.3-.053.235-.106.465-.159.7-.283,1.272-.56,2.538-.836,3.81-.171.783-.342,1.566-.513,2.343-.159.713-.371,1.408-.477,2.126a6.408,6.408,0,0,0-.056.873c-.548-.262-1.1-.526-1.659-.763-.713-.3-1.431-.6-2.144-.906-1.172-.5-2.355-.978-3.527-1.473a38.18,38.18,0,0,1-4.027-1.987l.041.027-.067-.042-.039-.023.019.01c-.388-.243-.765-.5-1.132-.782-.065-.059-.13-.111-.195-.176-.112-.124-.218-.248-.324-.377l-.035-.053Z"/><path d="M83.624,109.529a1.222,1.222,0,0,0,.294.029A1.464,1.464,0,0,0,85.3,108.6c.062-.171.125-.341.187-.511a3.769,3.769,0,0,0,.71.179,4.251,4.251,0,0,0,.535.035,8.058,8.058,0,0,0,1.072-.089,12.064,12.064,0,0,0,1.472-.282c.53-.136,1.048-.3,1.572-.459,1.455-.454,2.886-.966,4.322-1.461.878-.3,1.755-.6,2.632-.9a1.31,1.31,0,0,0,1.424-.311c.084-.09.172-.176.258-.263.27-.091.54-.186.809-.277,2.945-.989,5.936-1.819,8.9-2.708.889-.265,1.778-.513,2.661-.8a33.146,33.146,0,0,0,3.392-1.225,7.9,7.9,0,0,0,2.455-1.56,3.274,3.274,0,0,0,.86-1.267,3.454,3.454,0,0,0,.224-1.289,5.329,5.329,0,0,0-.895-2.479c-.536-.854-1.131-1.672-1.719-2.491-.413-.578-.847-1.137-1.268-1.708a1.076,1.076,0,0,0-.182-.5,14.847,14.847,0,0,0-.919-1.19c-.284-.326-.579-.645-.875-.964-.98-1.274-2.035-2.5-3.087-3.708-2.172-2.514-4.51-4.893-6.854-7.255q-1.872-1.881-3.768-3.751c-.7-.69-1.385-1.391-2.076-2.091q-.565-.639-1.135-1.274c-.777-.866-1.5-1.778-2.349-2.573a2.35,2.35,0,0,0-.265-.182,1.314,1.314,0,0,0-1.13-.91c-.064-.006-.129-.006-.2-.006a.434.434,0,0,0-.088.006c-.03-.071-.053-.142-.083-.206a1.38,1.38,0,0,0-.747-.718c-.057-.124-.118-.245-.184-.363a1.386,1.386,0,0,0-1.431-.642A1.426,1.426,0,0,0,88.4,63.493a26.19,26.19,0,0,0-.535,3.009l-.2,1.555c-.135,1.066-.265,2.126-.4,3.186-.13.371-.247.741-.359,1.112a69.973,69.973,0,0,0-1.69,6.808c-.242,1.242-.471,2.49-.654,3.739-.165,1.124-.324,2.249-.489,3.374q-.175,1.227-.353,2.461c-.094.618-.141,1.249-.206,1.867-.177,1.631-.371,3.262-.512,4.893-.153,1.784-.312,3.563-.448,5.347-.053.759-.112,1.513-.165,2.273-.094,1.266-.206,2.532-.229,3.792a3.274,3.274,0,0,0,.182,1.719A1.716,1.716,0,0,0,83.624,109.529Zm24.118-20.391c-.152.507-.294,1.019-.47,1.514-.2.553-.407,1.107-.607,1.654-.405,1.112-.857,2.207-1.319,3.29-.029.065-.058.131-.088.2.023-.306.047-.612.07-.919.041-.529.071-1.059.118-1.583.165-1.808.318-3.616.559-5.406.018-.059.03-.112.048-.165.026-.1.055-.2.084-.3.157.164.313.329.469.493a8.885,8.885,0,0,0,1.1,1.107c.019.015.041.023.061.037-.009.03-.016.06-.025.09ZM89.43,91.169c-.159.624-.306,1.254-.453,1.878-.054.212-.1.425-.148.636-.029.053-.053.112-.076.165.006-.023.006-.041.012-.064.129-.789.264-1.579.394-2.373C89.253,91.334,89.342,91.252,89.43,91.169Zm10.116-.129c.038.476.051.952.049,1.424-.013.39-.044.775-.094,1.16-.041.227-.092.444-.149.66-.038.129-.092.25-.135.375.063-1.5.133-3,.2-4.505C99.467,90.448,99.512,90.743,99.546,91.04Zm-.44,7.5a3.172,3.172,0,0,0,.79-.309c-.254.814-.523,1.625-.845,2.408C99.076,99.943,99.087,99.245,99.106,98.545Zm1.744-13.286c-.284-.7-.59-1.381-.911-2.06.008-.083.017-.166.025-.25.193.152.387.305.583.453s.392.3.588.455Q100.991,84.558,100.85,85.259Zm-6.109-6.014a.275.275,0,0,0,.018.041,1.67,1.67,0,0,0-.077.171l-.618,1.59c.041-.383.077-.766.118-1.148.047-.46.088-.925.135-1.384C94.459,78.756,94.606,79,94.741,79.245Zm7.708,19.574c.017-.065.035-.124.053-.183.041.36.1.713.153,1.066a1.226,1.226,0,0,0,.269.6c-.363.109-.723.225-1.085.335C102.054,100.038,102.254,99.43,102.449,98.819Zm7.949-8.827h0c.041-.246.082-.491.123-.731a1.494,1.494,0,0,0-.158-.934A1.492,1.492,0,0,0,110.2,87.2c-.058-.106-.123-.212-.182-.324.181.187.36.368.54.55.55.713,1.089,1.435,1.628,2.157l-.006-.006q.561.78,1.115,1.564a4.19,4.19,0,0,0-.5-.26,1.854,1.854,0,0,0-1.143-.053,3.116,3.116,0,0,0-.641.283,2.336,2.336,0,0,0-.43.377,3.78,3.78,0,0,0-.507.683C110.174,91.441,110.286,90.716,110.4,89.992ZM92.828,69.246l-.036-.141c.079.373.124.748.185,1.122a1.007,1.007,0,0,0-.185.333c-.082.271-.147.548-.212.825-.006.017-.006.041-.012.065a.89.89,0,0,0-.024.123c-.076.371-.147.748-.217,1.125-.015.071-.024.14-.038.21a9.192,9.192,0,0,0-.374,1.391c-.206,1.217-.33,2.446-.447,3.669-.141.894-.246,1.8-.366,2.7q-.275,2.049-.548,4.1c-.117.871-.219,1.745-.326,2.619a2.3,2.3,0,0,0-.486.054c.112-1.037.224-2.079.33-3.115q.5-2.676.989-5.359.459-2.526.919-5.052.22-1.236.441-2.479c.036-.177.059-.359.094-.542a7.275,7.275,0,0,0,.248-1.236,1.823,1.823,0,0,0-.248-1.025h0c0-.144.008-.29.008-.431.053.055.105.113.158.169A4.927,4.927,0,0,0,92.828,69.246Zm-5.905,35.929c-.018-.083-.03-.171-.042-.253-.017-.212-.023-.418-.023-.63,0-.1.015-.2.022-.293.056-.082.124-.156.177-.24.371-.595.712-1.2,1.03-1.826.163-.319.319-.643.479-.963q-.187,1.5-.373,2.99c-.062.357-.143.7-.2,1.057C87.64,105.081,87.283,105.134,86.923,105.175Zm6.618-1.837c-.7.236-1.4.475-2.106.707.146-.517.291-1.033.421-1.552.088-.371.182-.742.27-1.119a1.273,1.273,0,0,0,2.214-.094c.042-.076.089-.153.136-.229-.03.047-.059.094-.088.141.259-.43.547-.854.765-1.307a14.062,14.062,0,0,0,.612-1.449c.135-.38.26-.765.382-1.15a3.8,3.8,0,0,0,.446.545l-.027,1.194c-.017.754-.094,1.507-.1,2.261a9.58,9.58,0,0,0,.061,1.046Zm22.282-8.309c.03.095.065.2.094.3a.515.515,0,0,0,.012.094.045.045,0,0,1,.006.024.25.25,0,0,0-.006.064c-.006.036-.018.065-.023.095s-.012.046-.018.064a.344.344,0,0,0-.024.042c-.011.023-.029.041-.041.064a1.7,1.7,0,0,1-.118.124l-.017.018a2.53,2.53,0,0,1-.236.194q-.255.185-.53.353a15.708,15.708,0,0,1-1.849.807c-1.778.642-3.609,1.136-5.429,1.655-.358.1-.716.211-1.074.314.049-.09.1-.181.148-.27.206-.424.43-.842.636-1.266.247-.524.477-1.048.7-1.578a1.3,1.3,0,0,0,1.295.289,5.037,5.037,0,0,0,1.037-.436,3.384,3.384,0,0,0,.806-.76c.277-.324.577-.642.825-1,.082-.124.165-.247.247-.365a1.393,1.393,0,0,0,1.519-.147,1.372,1.372,0,0,0,.457-1.228c.527.763,1.046,1.533,1.494,2.343C115.764,94.888,115.794,94.959,115.823,95.029Z"/><path d="M118.217,131.758a12.96,12.96,0,0,0-4,.924,1.4,1.4,0,0,0-1.493.13,20.006,20.006,0,0,0-1.549,1.272l-.181.165a25.942,25.942,0,0,0-3.021,2.09,41.5,41.5,0,0,0-4.917,4.634,40.317,40.317,0,0,0-3.427,4.257c-.995,1.455-2,2.9-2.939,4.381-1.118,1.77-2.23,3.547-3.274,5.357l.03-.045a4.578,4.578,0,0,0-.589,1.331,2.408,2.408,0,0,0,.118,1.171,1.371,1.371,0,0,0,1.331.966,1.48,1.48,0,0,0,.388-.053,6.365,6.365,0,0,0,1.372-.536q.566-.327,1.1-.706c.058-.045.113-.084.17-.124L97.3,157l-.027.017c.671-.483,1.342-.96,2.008-1.449-.053.036-.1.071-.154.106.111-.08.22-.162.331-.242a1.752,1.752,0,0,0,.2-.016,2.2,2.2,0,0,0,.872-.4,8.534,8.534,0,0,0,.9-.7c.406-.376.818-.753,1.189-1.165.032-.034.061-.07.093-.1.473-.344.943-.693,1.427-1.021.978-.66,1.949-1.343,2.974-1.932.242-.129.483-.247.736-.353.253-.088.506-.171.766-.241a6.025,6.025,0,0,1,.736-.118c.312-.03.612-.048.93-.048.153.006.3.024.453.042l.148.035a5.582,5.582,0,0,0,1.855.389,5.758,5.758,0,0,0,2.037-.418c1.372-.548,2.614-1.355,3.975-1.914.3-.106.6-.194.906-.283.189-.035.377-.07.571-.1a6.5,6.5,0,0,1,.668-.035c.735.023,1.477.059,2.218.012a10.242,10.242,0,0,0,2.137-.412,28.864,28.864,0,0,0,3.816-1.59c.536-.254,1.066-.531,1.614-.754s1.089-.442,1.625-.66c.659-.218,1.313-.459,1.972-.647l2.038-.566c.742-.159,1.484-.359,2.232-.477.712-.111,1.436-.2,2.149-.306,1.678-.147,3.362-.271,5.04-.406a21.569,21.569,0,0,0,2.309-.3,24.085,24.085,0,0,0,2.508-.565,7.634,7.634,0,0,0,3.468-1.76,2.76,2.76,0,0,0,.264-.357,1.947,1.947,0,0,0,.619-.438,1.78,1.78,0,0,0,.241-2.138,3.343,3.343,0,0,0-.823-.86,4.69,4.69,0,0,0-.666-1.012,13.708,13.708,0,0,0-5.064-3.345c-1.16-.494-2.349-.871-3.551-1.266-.789-.253-1.607-.441-2.414-.66-.353-.094-.718-.158-1.077-.235-.389-.083-.784-.188-1.178-.253-.448-.071-.9-.136-1.343-.206-.365-.059-.742-.136-1.113-.171-.765-.077-1.531-.189-2.3-.218-1.236-.047-2.467-.118-3.7-.059a25.431,25.431,0,0,0-6.542,1.148,31.319,31.319,0,0,0-4.411,1.767c-.736.365-1.495.7-2.2,1.119C118.588,131.54,118.4,131.646,118.217,131.758Zm16.133,6.948c.077-.076.147-.159.224-.235.536-.165,1.072-.324,1.6-.489q-.106.247-.212.5c-.224.035-.442.065-.666.094C134.98,138.618,134.668,138.659,134.35,138.706Zm8.562-2.037c.027.471.031.948.027,1.425,0,.074,0,.147-.01.218a1.53,1.53,0,0,0-1.212-.577h-.048c.324-.354.654-.707.99-1.054C142.741,136.675,142.824,136.675,142.912,136.669Zm4.9.966c-.565.159-1.125.335-1.7.482-.171.036-.335.065-.506.095.012-.572,0-1.137-.042-1.7l.572-.035c.27-.012.535-.03.806-.048a1.385,1.385,0,0,0,.748,1.149A1.3,1.3,0,0,0,147.811,137.635Zm-34.129,4.551a1.214,1.214,0,0,0-.071.542c-.347.082-.689.165-1.036.248.429-.413.853-.825,1.277-1.237C113.788,141.886,113.735,142.033,113.682,142.186Zm11.536,1.507-.03.01,0,0h0l-.027.007c-.035.018-.076.03-.112.047l.048-.022q-.537.182-1.09.328l.094-.017c-.035.006-.07.017-.112.023-.017.006-.041.012-.064.018l.053-.018c-.354.077-.707.142-1.066.189-.184.01-.368.01-.553.012.628-.249,1.258-.493,1.883-.754.117-.047.235-.1.353-.147.8-.16,1.6-.31,2.408-.461-.591.275-1.184.544-1.791.785Zm7.37-13.115c-.812.089-1.624.2-2.431.338-.029-.024-.064-.047-.094-.071s-.032-.03-.048-.044c.236-.035.471-.075.709-.1C131.345,130.635,131.967,130.6,132.588,130.578Z"/><path d="M127.1,218.888c.038.049.073.1.111.147l.048.065Z"/><path d="M48.7,74.509l.025-.041.075-.129C48.768,74.4,48.739,74.451,48.7,74.509Z"/><path d="M220.281,57.2a52.739,52.739,0,0,0-4.287-10.876,65.816,65.816,0,0,0-6.012-9.751,76.317,76.317,0,0,0-7.708-8.439c-1.2-1.154-2.45-2.249-3.675-3.368-.853-.771-1.719-1.519-2.6-2.261-1.1-.913-2.161-1.872-3.3-2.726q-1.979-1.492-3.951-2.98c-1.142-.86-2.355-1.631-3.527-2.444-2.155-1.484-4.375-2.867-6.625-4.2-1.913-1.131-3.815-2.261-5.812-3.25a62.779,62.779,0,0,0-10.8-4.246A67.727,67.727,0,0,0,150.52.4,59.329,59.329,0,0,0,138.208.256a46.564,46.564,0,0,0-5.977,1,41.642,41.642,0,0,0-5.194,1.53,49.629,49.629,0,0,0-5.7,2.61c-.661.091-1.316.25-1.966.374-.541.1-1.089.183-1.619.306-.077.018-.147.03-.218.048a1.3,1.3,0,0,0-1.048-.5,34.985,34.985,0,0,0-3.6.165,20.786,20.786,0,0,0-3.833.765,31.064,31.064,0,0,0-6.578,2.956,66.382,66.382,0,0,0-6.447,4.305c-.954.559-1.9,1.148-2.85,1.713-1.031.613-2.014,1.284-3.015,1.943-1.019.666-2.044,1.32-3.039,2.02-1.307.913-2.614,1.837-3.927,2.744-.466.318-.907.672-1.361,1.007q-1.095.822-2.19,1.637c-1.019.766-1.99,1.578-2.98,2.379-.971.789-1.925,1.584-2.861,2.408-.984.86-1.973,1.708-2.927,2.6L68.728,34.29c-.33.312-.677.612-.995.936q-1.7,1.731-3.41,3.462c-1.8,1.82-3.533,3.7-5.258,5.589-.883.971-1.755,1.943-2.6,2.95s-1.7,2.008-2.5,3.062c-.807,1.071-1.655,2.12-2.4,3.227L49.991,55.83c-.283.418-.589.83-.848,1.26q-1.184,1.951-2.379,3.9c-.73,1.2-1.372,2.461-2.055,3.7-1.172,2.131-2.273,4.316-3.321,6.512q-1.024,2.165-2.055,4.328c-.6,1.255-1.149,2.538-1.726,3.8-1.183,2.621-2.319,5.265-3.45,7.908-1.107,2.58-2.114,5.206-3.151,7.814-.347.878-.659,1.767-.977,2.656q-.874,2.474-1.761,4.946c-.341.954-.647,1.932-.959,2.9q-.777,2.358-1.555,4.716c-.842,2.561-1.6,5.158-2.391,7.737-1.59,5.135-3.067,10.311-4.581,15.469-.753,2.585-1.513,5.17-2.255,7.755-.772,2.7-1.578,5.383-2.32,8.091q-.584,2.129-1.166,4.258c-.306,1.13-.642,2.261-.925,3.4q-.582,2.358-1.166,4.723c-.247,1.007-.518,2.007-.735,3.026-.572,2.667-1.184,5.329-1.69,8.014-.524,2.768-1.054,5.535-1.549,8.309-.512,2.874-1.013,5.741-1.478,8.621s-.883,5.747-1.3,8.632c-.27,1.878-.5,3.764-.7,5.653-.8,3.879-1.5,7.783-1.991,11.708.012-.065.018-.136.029-.206-.035.265-.065.53-.1.795.006-.071.018-.136.024-.206-.047.377-.089.748-.136,1.124.006-.07.018-.135.024-.206-.038.3-.1.6-.114.909-.026.168-.042.34-.063.51-.006.071-.017.136-.023.207-.014.093-.025.185-.036.277-.017.124-.029.247-.047.376.011-.063.017-.126.026-.188L1.093,219l-.006.058,0-.019c-.289,2.308-.5,4.623-.724,6.931-.06.589-.095,1.177-.142,1.772-.041.5-.106,1.007-.124,1.514-.041,1.354-.123,2.714-.094,4.068a49.742,49.742,0,0,0,1.578,11.247,37.818,37.818,0,0,0,1.926,5.965A17.251,17.251,0,0,0,5.435,254a16.461,16.461,0,0,0,2.591,2.75,16.933,16.933,0,0,0,4.611,2.661,13.792,13.792,0,0,0,4.97.978,18.585,18.585,0,0,0,8.832-2.638c1.255-.7,2.515-1.384,3.728-2.155.559-.348,1.119-.684,1.649-1.078.612-.459,1.23-.919,1.842-1.378,1.055-.789,2.067-1.643,3.08-2.479q1.776-1.475,3.533-2.968c1.078-.918,2.155-1.831,3.239-2.75.941-.8,1.938-1.544,2.909-2.307,1.173-.854,2.373-1.665,3.629-2.405-.026.015-.052.03-.078.043l.1-.055.107-.063-.1.057c.9-.5,1.811-.961,2.755-1.378.621-.249,1.252-.465,1.9-.653.442-.107.878-.2,1.325-.266.356-.042.71-.072,1.07-.092.507,0,1,.024,1.508.073.376.061.749.138,1.121.228.391.118.773.253,1.155.4.451.2.891.413,1.321.649a21.748,21.748,0,0,1,1.991,1.336q.181.145.362.292c.947,1.107,1.893,2.2,2.922,3.238a22.936,22.936,0,0,0,4.2,3.444,16.1,16.1,0,0,0,4.581,2c.273.066.547.122.819.169a22.057,22.057,0,0,0,5.552,1.468,16.817,16.817,0,0,0,9.74-1.525,16.633,16.633,0,0,0,3.963-2.785,23.548,23.548,0,0,0,3.085-3.663,59.234,59.234,0,0,0,3.645-6.406c1.183-2.332,2.373-4.652,3.633-6.942a29.263,29.263,0,0,1,1.6-2.454,14.233,14.233,0,0,1,1.063-1.2c.268-.245.541-.482.827-.71.26-.188.523-.366.8-.541.391-.218.784-.421,1.187-.611a19.942,19.942,0,0,1,2.111-.731c.778-.194,1.554-.357,2.345-.48.531-.066,1.057-.116,1.591-.137.37,0,.738.025,1.107.053a45.153,45.153,0,0,0,4.5,4.272,9.8,9.8,0,0,0,6.76,1.808,10,10,0,0,0,6.562,2.186,12.492,12.492,0,0,0,4.381-1.019,21.363,21.363,0,0,0,4.258-2.514,34.251,34.251,0,0,0,6.394-6.548c-.018.026-.037.051-.056.076q1.179-1.512,2.352-3.031c.742-.937,1.5-1.849,2.3-2.729l.018.006a20.173,20.173,0,0,1,1.85.98c.832.524,1.626,1.1,2.407,1.7,1.072.889,2.155,1.778,3.221,2.685,1.154.971,2.332,1.908,3.515,2.85a25.493,25.493,0,0,0,2.273,1.584,24.8,24.8,0,0,0,2.485,1.419,19.062,19.062,0,0,0,5.017,1.619c.389.065.789.118,1.19.153a11.516,11.516,0,0,0,3.727.672,10.184,10.184,0,0,0,4.2-.807c.424-.2.832-.417,1.23-.652a11.545,11.545,0,0,0,1.275-.612,19.685,19.685,0,0,0,4.157-3.074,31.322,31.322,0,0,0,6.354-8.88,56.857,56.857,0,0,0,2.308-5.464c.56-1.543,1.113-3.1,1.555-4.687.089-.318.18-.636.27-.953.482-1.342.938-2.693,1.347-4.06.553-1.849,1.048-3.71,1.5-5.588.242-1,.495-2,.7-3.009.083-.419.165-.831.253-1.243.242-.748.483-1.5.678-2.261q.546-2.2,1.095-4.393c.377-1.531.759-3.056,1.136-4.587.236-.936.377-1.9.56-2.844.359-1.867.724-3.733,1.083-5.6.147-.759.289-1.507.395-2.273q.389-2.712.777-5.411c.165-1.166.377-2.326.5-3.5q.486-4.548.978-9.1c.294-2.726.5-5.464.748-8.2q.6-6.717,1.167-13.433c.182-1.085.358-2.172.507-3.259.23-1.625.454-3.256.677-4.882.212-1.513.342-3.038.513-4.557.294-2.7.53-5.418.777-8.126.536-5.771.924-11.559,1.348-17.336.2-2.744.383-5.488.572-8.232.1-1.419.147-2.838.218-4.257.058-1.149.111-2.291.135-3.439.041-1.89.1-3.774.088-5.659A47.317,47.317,0,0,0,220.281,57.2ZM20.551,159.862q2.076-7,4.157-14.02c1.49-5.064,3.015-10.134,4.782-15.116.5-1.413.971-2.844,1.513-4.239.595-1.537,1.189-3.068,1.79-4.6.954-2.452,1.983-4.881,2.979-7.315.938-2.208,1.846-4.427,2.8-6.629,1.09-2.491,2.15-5,3.269-7.484q.945-2.085,1.9-4.169c.565-1.248,1.1-2.514,1.7-3.745q1.908-3.93,3.816-7.855c.554-1.154,1.213-2.267,1.82-3.392.664-1.248,1.334-2.49,2-3.731l.163-.279c1.436-2.438,2.832-4.905,4.363-7.3q1.467-2.287,2.932-4.581c.642-1.007,1.343-1.972,2.014-2.956.707-1.024,1.39-2.073,2.12-3.079q1.572-2.165,3.151-4.323c1.564-2.145,3.223-4.217,4.83-6.331,1.179-1.44,2.37-2.875,3.555-4.309.877-1.066,1.8-2.084,2.726-3.109.989-1.095,1.949-2.22,2.985-3.262,1.284-1.3,2.562-2.6,3.851-3.887-.064.071-.129.136-.194.2.96-.877,1.932-1.748,2.9-2.62.442-.394.878-.789,1.313-1.183.827-.75,1.731-1.428,2.616-2.105a69.5,69.5,0,0,1,5.871-3.932A120.383,120.383,0,0,0,90.6,35.458q-3.684,5.7-7.343,11.429a1.929,1.929,0,0,0,3.2,2.161q3.428-5.273,6.89-10.523c.865-1.331,1.737-2.655,2.608-3.986,1.315-1.993,2.734-3.927,4.189-5.827a58.776,58.776,0,0,1,4.489-5.093l-.039.038.079-.078.109-.11c-.029.029-.058.058-.086.088,1.676-1.648,3.42-3.223,5.191-4.775.291-.256.584-.512.877-.765q1.181-.572,2.362-1.143c-.087.035-.18.075-.273.11,17.4-6.549,36.216-9.167,52.574,1.368,1.248.8,2.538,1.572,3.757,2.42.789.542,1.572,1.083,2.355,1.631.5.336,1.007.659,1.484,1.024,1.212.936,2.419,1.871,3.64,2.8.634.558,1.273,1.11,1.907,1.663.577.5,1.2.977,1.743,1.513,1.077,1.077,2.164,2.144,3.247,3.215.343.373.686.752,1.029,1.129.454.738.9,1.472,1.321,2.226q.882,1.568,1.755,3.144c.754,1.472,1.514,2.939,2.267,4.411.613,1.189,1.16,2.408,1.732,3.615.53,1.113,1.048,2.22,1.525,3.357q.909,2.154,1.831,4.322c.659,1.843,1.337,3.686,2,5.535.554,1.537.978,3.121,1.449,4.681.253.836.506,1.673.765,2.509.165.547.283,1.112.418,1.666.465,1.831.925,3.68,1.4,5.518.053.265.111.535.17.812.371,1.808.748,3.616,1.119,5.418.177.847.342,1.684.477,2.537.3,1.849.595,3.7.9,5.553.136.848.271,1.69.377,2.538.347,2.768.736,5.529,1.042,8.3.318,2.885.63,5.77.954,8.656q.275,2.764.536,5.529c.147,1.543.318,3.08.448,4.622q.389,4.824.783,9.64c.2,2.444.335,4.9.489,7.349.1,1.595.206,3.191.306,4.787.047.754.047,1.513.058,2.267.025,1.042.044,2.086.067,3.128-.322,2.32-.621,4.643-.918,6.967-.353,2.814-.618,5.641-.913,8.461q-.09.871-.179,1.743l-.174,1.072c-.218,1.366-.5,2.72-.754,4.081-.2,1.083-.388,2.172-.612,3.25-.613,2.932-1.225,5.859-1.873,8.785-1.216,5.466-2.536,10.9-3.908,16.332q-.455,1.56-.914,3.13c-.212.736-.43,1.478-.648,2.22-.094.329-.177.677-.294,1.006-.837,2.32-1.608,4.676-2.544,6.961.019-.051.038-.1.058-.151a52.976,52.976,0,0,1-2.882,5.911,39.4,39.4,0,0,1-2.2,3.271c-.4.507-.815,1-1.263,1.465-.482.467-.976.911-1.5,1.329-.275.2-.555.377-.846.553-.227.124-.457.235-.688.341-.311.124-.624.233-.945.334-.18.045-.363.077-.547.106-.112.01-.223.019-.335.025-.256,0-.509-.02-.766-.045-.325-.053-.64-.118-.96-.193q-.234-.072-.459-.158a17.239,17.239,0,0,1-1.641-.852c-.623-.386-1.217-.809-1.805-1.252-2.2-1.734-4.236-3.674-6.3-5.573a41.15,41.15,0,0,0-3.775-3.168,15.678,15.678,0,0,0-5.393-2.791,8.285,8.285,0,0,0-1.858-.25c-.184-.1-.372-.193-.563-.28a8.753,8.753,0,0,0-10.11,1.389,21.333,21.333,0,0,0-2.854,3.183,19.673,19.673,0,0,0-5.009,3.375c-2.018,1.866-3.807,3.966-5.778,5.878-.743.685-1.5,1.352-2.3,1.966-.233-.04-.467-.074-.7-.123a22.709,22.709,0,0,1-2.258-.765c-.406-.174-.81-.356-1.21-.542q-.591-.7-1.151-1.427c-.6-.8-1.19-1.6-1.8-2.4a15.044,15.044,0,0,0-2.289-2.614,21.5,21.5,0,0,0-2.438-1.932,9.609,9.609,0,0,0-2.868-1.307,10.606,10.606,0,0,0-3.25-.241,6.449,6.449,0,0,0-1.7.47,10.753,10.753,0,0,0-2.057-1.137,9.215,9.215,0,0,0-3.162-.654,8.181,8.181,0,0,0-3.073.536,11.435,11.435,0,0,0-2.9,1.525,25.674,25.674,0,0,0-2.745,2.225,46.581,46.581,0,0,0-5.093,5.712c-.872,1.16-1.708,2.338-2.532,3.533-.66.96-1.313,1.92-1.979,2.88-.588.854-1.148,1.725-1.737,2.579-.718,1.036-1.478,2.049-2.261,3.039a24.863,24.863,0,0,1-1.878,2.043c-.5.459-1,.895-1.531,1.3a.842.842,0,0,1,.076-.047c-.029.018-.059.041-.088.059a.514.514,0,0,0-.065.053.134.134,0,0,1,.032-.031,17.936,17.936,0,0,1-1.692,1.044c-.377.182-.754.353-1.137.506-.347.124-.689.235-1.048.33-.47.1-.941.169-1.415.227-.688.055-1.365.073-2.047.067-.618-.027-1.231-.074-1.843-.158-.38-.07-.75-.156-1.119-.254-.365-.118-.719-.247-1.072-.389a17.2,17.2,0,0,1-1.637-.842c-.3-.194-.589-.4-.871-.612q-.972-1.254-2.055-2.408a18.433,18.433,0,0,0-3.492-2.945c-.607-.647-1.225-1.283-1.879-1.884a12.992,12.992,0,0,0-3.109-2.255,11.3,11.3,0,0,0-3.486-1.072,11.67,11.67,0,0,0-3.892.124,14.16,14.16,0,0,0-6.619,3.639,43.538,43.538,0,0,0-3.333,3.562c-3.261,3.763-6.182,7.814-9.291,11.706a55.489,55.489,0,0,1-4,4.487,28.538,28.538,0,0,1-2.384,2c-.413.282-.825.541-1.261.783-.294.135-.588.265-.883.383-.127.045-.257.077-.409.123-.2.023-.4.038-.6.047-.3,0-.6-.023-.908-.056-.21-.032-.417-.072-.624-.12-.3-.082-.584-.176-.87-.285-.1-.048-.2-.1-.3-.155.057.036.114.068.169.1-.928-.548-1.862-1.108-2.778-1.674-.823-.508-1.613-1.059-2.387-1.631-.041-.056-.089-.1-.129-.161a27.01,27.01,0,0,1-1.471-2.384.212.212,0,0,1-.019-.036c-.008-.017-.018-.035-.012-.03a33.082,33.082,0,0,1-1.419-3.154,48.475,48.475,0,0,1-1.7-5.59c.012.053.024.106.036.165A108.611,108.611,0,0,1,8.66,226.153q-.212-2.3-.412-4.588L8,218.84c.056-.552.113-1.1.166-1.654.116-1.285.294-2.57.445-3.85q.5-3.544,1.044-7.085c.86-5.535,1.926-11.04,3.051-16.529.6-2.92,1.277-5.823,1.955-8.732.583-2.514,1.289-5,1.937-7.5l-.053.224Q18.5,166.775,20.551,159.862Zm163.622,63.2H184.1l-.088.012.064-.012h0c.027,0,.054-.008.081-.011l-.057.011Zm-68.6-5.025a6.35,6.35,0,0,0-.914.034c.043-.034.082-.071.125-.1.138-.095.278-.186.417-.28C115.326,217.807,115.457,217.917,115.576,218.038Zm-38.965,27.2-.075-.062-.024-.018a17.924,17.924,0,0,1-1.413-1.278.261.261,0,0,1,.036.042c-.648-.695-1.261-1.431-1.838-2.185a15.936,15.936,0,0,0,2.944.342,17.178,17.178,0,0,0,3.345-.189,13.787,13.787,0,0,0,5.894-2.608,21.565,21.565,0,0,0,2.721-2.456c.818-.9,1.566-1.843,2.29-2.809,1.149-1.519,2.173-3.115,3.251-4.681,1.649-2.408,3.268-4.822,5.076-7.107a44.8,44.8,0,0,1,3.453-3.808c.018-.021.04-.039.062-.061l.02-.02,0,0,.034-.031a27.481,27.481,0,0,1,2.314-1.944,16.007,16.007,0,0,1,1.524-.988l-.015.014c.34-.174.686-.326,1.041-.469l-.029.009.06-.022.064-.025-.043.018.067-.024c.011-.006.017-.012.029-.012-.012,0-.018.006-.029.006.213-.069.428-.136.646-.192a5.155,5.155,0,0,1,.679-.132c.194-.011.388-.023.577-.023a.334.334,0,0,0-.077-.006.588.588,0,0,1,.1.006h.006c.3.012.6.041.9.076a6.019,6.019,0,0,1,.624.13c-.012,0-.024-.006-.035-.006.235.071.471.153.7.247.125.057.242.13.364.191-.615.521-1.2,1.067-1.779,1.64-.649.659-1.244,1.375-1.84,2.081s-1.195,1.449-1.76,2.19c-1.207,1.585-2.415,3.163-3.61,4.753-1.166,1.548-2.285,3.132-3.421,4.7-1.026,1.419-2.087,2.809-3.125,4.21a57.73,57.73,0,0,1-4.089,4.669,36.1,36.1,0,0,1-3.041,2.674l.1-.076-.147.111-.047.036.031-.025a31.227,31.227,0,0,1-2.893,1.938c-.7.377-1.416.719-2.146,1.033-.619.246-1.24.463-1.877.647-.388.092-.772.171-1.16.24-.561.068-1.115.109-1.676.127-.4-.008-.794-.029-1.189-.062q-.158-.022-.315-.048c-.158-.069-.312-.146-.469-.217-.283-.191-.569-.378-.839-.585Zm42.144-28.06c.118.037.235.076.35.12.206.093.407.191.6.3.353.211.691.436,1.024.683.315.255.63.51.94.77a15.1,15.1,0,0,0-1.542-.277Q119.455,217.966,118.755,217.18Zm92.2-91.643c-.206-2.579-.383-5.164-.624-7.743q-.441-4.672-.883-9.357c-.271-2.915-.625-5.83-.937-8.744-.294-2.733-.659-5.453-1-8.174-.335-2.7-.8-5.376-1.225-8.061s-1.018-5.323-1.56-7.984c-.548-2.692-1.272-5.347-1.943-8.015-.236-.936-.512-1.854-.795-2.773q-.715-2.376-1.431-4.758c-.106-.353-.247-.7-.371-1.054-.312-.86-.618-1.72-.924-2.579-.389-1.072-.742-2.161-1.184-3.215-.683-1.625-1.372-3.257-2.055-4.882-.019-.044-.04-.087-.059-.13q1.6,2.5,3.206,5.01l1.377,2.506c.324.589.648,1.184.972,1.772.124.224.265.448.371.678.821,1.74,1.636,3.487,2.457,5.227q.915,2.25,1.83,4.495c.471,1.165.883,2.355,1.313,3.538.453,1.249.918,2.491,1.313,3.757.489,1.553.972,3.107,1.461,4.659.213.872.422,1.743.635,2.613.165.678.33,1.349.5,2.026.065.259.147.518.188.783q.44,2.63.874,5.264.155,1.507.31,3.015c.088.866.224,1.743.265,2.609.1,1.965.2,3.936.3,5.9.01,1.832.016,3.659.022,5.492.006,1.454-.088,2.915-.147,4.369-.059,1.4-.1,2.8-.236,4.2q-.264,2.731-.533,5.451c-.284,2.1-.536,4.211-.862,6.308q-.162,1.008-.321,2.017C211.152,128.352,211.059,126.945,210.951,125.537ZM173.685,12.481c1.366.82,2.765,1.6,4.111,2.449.736.466,1.46.943,2.19,1.414.66.424,1.337.83,1.984,1.278.754.523,1.508,1.048,2.262,1.566.624.436,1.272.842,1.872,1.3,1.331,1,2.652,2.008,3.982,3.012.9.749,1.8,1.51,2.7,2.264.625.518,1.255,1.025,1.855,1.567,2.215,2.02,4.446,4.013,6.562,6.138a69.39,69.39,0,0,1,5.227,5.934,59.293,59.293,0,0,1,3.873,5.877,74.164,74.164,0,0,1,3.7,7.32,47.431,47.431,0,0,1,1.813,5.154,41,41,0,0,1,.929,4.468,60.427,60.427,0,0,1,.46,7.015c.017,2.8-.072,5.6-.216,8.393q-.192,3.694-.44,7.375c-.045-.312-.093-.626-.167-.928-.159-.671-.324-1.342-.483-2.019-.329-1.349-.594-2.733-1.006-4.058q-.8-2.526-1.579-5.058c-.365-1.178-.824-2.332-1.242-3.5-.4-1.1-.783-2.215-1.231-3.3-.63-1.56-1.266-3.115-1.9-4.675-.02-.05-.045-.1-.066-.147-.052-.148-.1-.3-.154-.444-.106-.312-.206-.63-.336-.942q-.98-2.314-1.949-4.628c-.182-.436-.341-.9-.553-1.313-.247-.483-.5-.972-.736-1.455q-1.061-2.085-2.12-4.163c-.235-.46-.518-.9-.783-1.337-.477-.807-.96-1.613-1.437-2.42-.33-.554-.659-1.1-.989-1.654-.23-.389-.512-.76-.772-1.137q-.865-1.272-1.731-2.556c-.3-.441-.589-.9-.912-1.33-.943-1.219-1.873-2.444-2.815-3.669-.719-.948-1.508-1.831-2.285-2.732-.818-.948-1.625-1.9-2.508-2.785-.707-.719-1.414-1.431-2.12-2.15-.271-.271-.536-.553-.83-.812-.695-.618-1.4-1.237-2.091-1.855-.388-.347-.771-.7-1.172-1.03l.013.007a.7.7,0,0,0-.089-.072l.012.011c-1.007-.806-2.008-1.619-3.009-2.426-.86-1.048-1.743-2.072-2.632-3.1a33.764,33.764,0,0,0-6.077-5.723,34.289,34.289,0,0,0-6.516-3.477q1.105.4,2.2.841A73.712,73.712,0,0,1,173.685,12.481Zm-25.3-7.842c-1.366-.063-2.733-.088-4.1-.021-.565.029-1.136.059-1.7.1-.282-.029-.571-.065-.853-.094-.405-.042-.81-.089-1.217-.121q1.371-.075,2.746-.095C144.974,4.409,146.684,4.493,148.387,4.639ZM35.988,90.253c.389-.965.819-1.919,1.231-2.879.583-1.352,1.171-2.7,1.754-4.062l0,.017c0-.013.009-.025.014-.037l0,0,.011-.025v0l.024-.055a.21.21,0,0,0,.015-.03l0,.006q1.316-2.871,2.626-5.729c.783-1.714,1.619-3.4,2.438-5.094S45.8,69,46.67,67.312c.8-1.543,1.684-3.038,2.532-4.557.7-1.119,1.384-2.232,2.079-3.351.512-.825,1.071-1.613,1.619-2.414.6-.866,1.183-1.749,1.825-2.585q1.107-1.441,2.215-2.9v0c.56-.659,1.119-1.319,1.684-1.972.436-.506.854-1.037,1.307-1.525,1.049-1.119,2.079-2.262,3.145-3.363,1.154-1.2,2.3-2.408,3.468-3.58,1.19-1.189,2.385-2.379,3.569-3.568.294-.265.583-.536.871-.807-.33.377-.653.771-.977,1.148l-3.9,4.47c-.507.583-1.013,1.16-1.52,1.743-.182.206-.365.406-.535.624Q61.14,48.436,58.252,52.2c-.518.671-1.083,1.324-1.56,2.031-.742,1.113-1.49,2.22-2.232,3.333Q52.818,60,51.18,62.442c-.477.713-.995,1.413-1.425,2.155q-2.428,4.17-4.846,8.339l-1.148,1.978c-.135.23-.289.465-.412.707-.436.877-.889,1.749-1.337,2.626q-2.367,4.663-4.746,9.321c-.253.5-.471,1.007-.7,1.519-.347.76-.689,1.526-1.036,2.291C35.682,91,35.835,90.63,35.988,90.253ZM14.8,157.523c.294-1.207.653-2.4.983-3.592.353-1.307.706-2.6,1.066-3.9q.688-2.428,1.395-4.852c.077-.277.153-.548.236-.825q1.82-5.847,3.645-11.706c.165-.524.347-1.036.524-1.554q.838-2.43,1.678-4.846,1.519-4.408,3.039-8.81c.223-.636.494-1.254.742-1.878q1.006-2.544,2.013-5.094c1.013-2.579,2.038-5.158,3.056-7.743q1.89-4.23,3.787-8.444c.877-1.955,1.7-3.945,2.667-5.853q2.428-4.788,4.864-9.569c.359-.712.689-1.454,1.095-2.143q.927-1.608,1.861-3.209c1.484-2.568,2.991-5.123,4.463-7.7,2.256-3.433,4.6-6.813,6.86-10.246.342-.512.766-.995,1.149-1.484q1.245-1.626,2.5-3.256c1.2-1.555,2.414-3.1,3.6-4.67q1.89-2.164,3.774-4.328,1.272-1.449,2.532-2.9c.377-.436.737-.9,1.143-1.313,2.638-2.656,5.223-5.37,7.861-8.026q3.957-3.6,7.932-7.19c.176-.165.365-.318.553-.465.736-.489,1.478-.96,2.226-1.437,1-.648,2-1.313,3.027-1.913,1.389-.819,2.761-1.667,4.18-2.432a56.442,56.442,0,0,1,6.071-2.786c2.265-.825,4.587-1.464,6.92-2.061-.818.633-1.628,1.276-2.422,1.94-1.228.6-2.454,1.2-3.689,1.784-.506.241-.995.547-1.484.818l-1.188.651q-.617.321-1.232.645c-.5.259-1.013.5-1.5.783q-2.04,1.157-4.069,2.314a58.976,58.976,0,0,0-7.4,5.023c-.942.748-1.879,1.5-2.762,2.314l-.378.348-.711.6-2.4,2.014c-.312.265-.636.518-.936.795-1.242,1.154-2.485,2.314-3.727,3.468-.86.807-1.684,1.649-2.52,2.485-.9.907-1.826,1.8-2.68,2.75-.683.765-1.366,1.525-2.049,2.291-.341.382-.712.747-1.024,1.148l-3,3.78c-.777.978-1.489,2-2.22,3.015s-1.442,2-2.137,3.015Q60.095,57.132,57.483,61q-2.306,3.41-4.569,6.837c-.666,1-1.307,2-1.944,3.015-.745,1.2-1.529,2.387-2.241,3.615-.914,1.567-1.818,3.139-2.727,4.7-.433.758-.842,1.53-1.261,2.3-.613,1.124-1.231,2.237-1.814,3.368-.7,1.342-1.425,2.667-2.085,4.028q-1.969,4-3.862,8.031c-2.238,4.8-4.417,9.646-6.33,14.58-4.081,10.511-7.785,21.157-11.218,31.892q-3.192,9.966-6.085,20.02c.111-.444.224-.888.336-1.332C14.054,160.55,14.431,159.036,14.8,157.523Zm2.8,99.291c-.373,0-.738-.021-1.11-.049-.485-.07-.963-.164-1.441-.28-.4-.118-.793-.247-1.181-.389a20.891,20.891,0,0,1-2.2-1.075c-.476-.3-.939-.615-1.391-.952-.323-.265-.636-.541-.943-.832-.364-.382-.71-.777-1.037-1.192-.292-.413-.564-.831-.826-1.264-.372-.669-.707-1.351-1.013-2.054-.448-1.095-.828-2.2-1.172-3.329.018.065.036.135.053.206-.276-1.043-.6-2.085-.818-3.139-.294-1.452-.6-2.9-.828-4.368a48.612,48.612,0,0,1-.425-5.377c.028-1.36.029-2.721.122-4.075.081-1.1.17-2.2.258-3.291.019.15.032.3.052.451.141,1,.277,2.008.412,3.009.008.055.014.111.022.167,0,.49-.008.979-.008,1.472a32.83,32.83,0,0,0,.353,4.787,30.99,30.99,0,0,0,1.09,4.946,29.283,29.283,0,0,0,2.273,5.388,22.1,22.1,0,0,0,2.915,4.193c.321.351.655.686,1,1.011a22.635,22.635,0,0,0,1.632,1.949,14.821,14.821,0,0,0,1.838,1.643,10.928,10.928,0,0,0,1.9,1.236,12.948,12.948,0,0,0,2.643.923c-.293.063-.585.135-.881.183C18.449,256.762,18.03,256.8,17.6,256.814Zm36.119-22.18a27.341,27.341,0,0,0-7.974,3.954c.867-1.054,1.756-2.089,2.718-3.064.492-.48,1-.941,1.528-1.376.044-.033.092-.06.137-.092.59-.3,1.184-.578,1.8-.834l.015,0c.006,0,.015-.006.022-.01a20.825,20.825,0,0,1,1.992-.621c.091-.02.186-.027.278-.047.094,0,.189,0,.283.013.335.053.664.116.991.193.235.067.47.143.7.228.312.137.618.282.92.441.391.238.77.489,1.144.752A13.97,13.97,0,0,0,53.72,234.634Z"/></svg>