<svg xmlns="http://www.w3.org/2000/svg" width="127.093" height="142.48" viewBox="0 0 127.093 142.48"><path d="M126.9,72.88a112.428,112.428,0,0,0-3.05-20.039,96.969,96.969,0,0,0-2.809-9.58c-.565-1.584-1.184-3.144-1.837-4.687-.6-1.431-1.231-2.85-1.961-4.21a36.773,36.773,0,0,0-12.077-13.8l-.339-.217a64.005,64.005,0,0,0-5.567-7.39,45.429,45.429,0,0,0-6.949-6.519,32.412,32.412,0,0,0-8.491-4.687A30.723,30.723,0,0,0,74.379.005a38.09,38.09,0,0,0-9.987,1.166A54.291,54.291,0,0,0,49.557,7.564a59.309,59.309,0,0,0-7.488,3.552,76.078,76.078,0,0,0-8.214,5.329,89.429,89.429,0,0,0-7.49,6.26,92.48,92.48,0,0,0-12.825,14.6C5.991,48.166.992,60.968.144,74.228a59.593,59.593,0,0,0,1.813,19.6,44.623,44.623,0,0,0,7,14.527q.609,1.255,1.289,2.473A48.292,48.292,0,0,0,22.39,125.146a71.719,71.719,0,0,0,16.7,9.663,102.021,102.021,0,0,0,19.184,6.118A72.584,72.584,0,0,0,72.6,142.48a52.386,52.386,0,0,0,5.794-.311,54.094,54.094,0,0,0,6.25-1.027c.9.016,1.792,0,2.683-.056a32.118,32.118,0,0,0,4.493-.636,31.473,31.473,0,0,0,8.691-3.133,34.917,34.917,0,0,0,7.378-5.588,45.09,45.09,0,0,0,6.042-7.249,63.841,63.841,0,0,0,8.22-17.576q.18-.624.349-1.249A67,67,0,0,0,125.926,93.3,88.481,88.481,0,0,0,126.9,72.88ZM96.083,21.446q.569.243,1.13.5c.771.913,1.515,1.85,2.24,2.8q.924,1.235,1.793,2.506a51.584,51.584,0,0,0-8.823-7.015A35.277,35.277,0,0,1,96.083,21.446Zm-41.749-9.98q1.566-.871,3.183-1.635a53.712,53.712,0,0,1,5.508-1.054,50.885,50.885,0,0,1,5.813-.4,45.483,45.483,0,0,1,4.828.3,41.857,41.857,0,0,1,4.928.938,38.328,38.328,0,0,1,4.145,1.4A39.876,39.876,0,0,1,86.957,13.1q1.013.6,1.979,1.26-.7-.132-1.408-.241a96.092,96.092,0,0,0-11.1-.889q-.95-.03-1.9-.04c-.976-.172-1.958-.308-2.942-.4a42.569,42.569,0,0,0-17.547,2.322c-.383-.071-.767-.134-1.155-.179a29.81,29.81,0,0,0-3.431-.22l-.25,0Q51.692,12.977,54.334,11.466Zm-9.425,6.547c.781-.179,1.567-.328,2.363-.439l-.027,0,.046-.006.131-.018a.471.471,0,0,1-.052.009c.235-.027.469-.051.7-.07a69.673,69.673,0,0,0-6.4,3.356Q43.253,19.386,44.909,18.013ZM6.885,62.381a69.29,69.29,0,0,1,2.737-8.16,72.752,72.752,0,0,1,9.751-17,96.711,96.711,0,0,1,7.621-8.685l.343-.314A76.039,76.039,0,0,0,20.761,38.5,77.825,77.825,0,0,0,10.637,54.072,71.119,71.119,0,0,0,6.177,65.4Q6.5,63.883,6.885,62.381Zm8.242,43.654a53.256,53.256,0,0,1-3.474-5.279,58.251,58.251,0,0,1-3.029-6.251q-.39-1.881-.656-3.788a61.335,61.335,0,0,1-.481-7.367c0,.082,0,.171,0,.259a61.3,61.3,0,0,1,.486-7.679,67.936,67.936,0,0,1,1.441-7.523c-.008.029-.016.058-.025.086.014-.05.027-.1.041-.151l.024-.1-.01.044A73.461,73.461,0,0,1,12.2,60.059q.6-1.461,1.269-2.892c-.031.12-.062.241-.092.362a92.883,92.883,0,0,0-2.774,20.327,72.023,72.023,0,0,0,2.309,20.25,55.078,55.078,0,0,0,3.56,9.632Q15.786,106.9,15.127,106.035Zm19.808,15.193q-1.142-.472-2.256-1-1.521-1.326-2.953-2.757a51.474,51.474,0,0,1-3.662-4.257,50.058,50.058,0,0,1-3.273-4.945l.035.064-.048-.086-.123-.214.1.178a53.583,53.583,0,0,1-2.673-5.587,55.7,55.7,0,0,1-1.9-5.751,68.96,68.96,0,0,1-1.545-7.845,71.5,71.5,0,0,1-.566-8.638,89.478,89.478,0,0,1,.718-10.949,95.3,95.3,0,0,1,2.139-11.077c-.017.065-.035.129-.054.2l.078-.292.016-.062-.013.052a77.814,77.814,0,0,1,2.993-8.919,89.339,89.339,0,0,1,4.9-10.152q1.447-2.476,3.085-4.825a86.592,86.592,0,0,1,6.643-5.6,80.87,80.87,0,0,1,8.39-5.524c-.07.041-.135.082-.206.123a68.917,68.917,0,0,1,7.325-3.574q1.95-.783,3.946-1.421c.778.19,1.555.389,2.332.573a1.391,1.391,0,0,0,1.619-1.095,1.344,1.344,0,0,0-.005-.562q1.766-.4,3.563-.653l.145-.019a2.244,2.244,0,0,0,2.274,1.481c1.2-.136,2.387-.217,3.588-.259.979,0,1.963-.033,2.942.006,1.207.041,2.414.1,3.615.136,1.137.029,2.273.153,3.4.229l.178.013c1.146.365,2.279.774,3.4,1.219a52.41,52.41,0,0,1,5.915,2.915,53.451,53.451,0,0,1,5.632,3.777A50.835,50.835,0,0,1,99.14,30.13a52.338,52.338,0,0,1,4.081,4.752h0a59.823,59.823,0,0,1,3.968,6.105,74.834,74.834,0,0,1,3.94,8.243,88.117,88.117,0,0,1,3.31,9.872l-.012-.036a80.709,80.709,0,0,1,1.89,9.456c0-.07-.017-.14-.023-.212a69.779,69.779,0,0,1,.565,8.453,59.322,59.322,0,0,1-.447,7.128A60.516,60.516,0,0,1,115,91.134l.02-.071-.031.114-.007.028,0-.02a60.1,60.1,0,0,1-2.339,6.9,61.22,61.22,0,0,1-3.417,6.9,45.626,45.626,0,0,1-3.059,4.581,43.067,43.067,0,0,1-3.3,3.716,37.946,37.946,0,0,1-3.326,2.884,31.038,31.038,0,0,1-3.181,2.051c.023-.01.044-.021.066-.032a43.562,43.562,0,0,1-10.438,4.111,99.9,99.9,0,0,1-11.842,2.335,104.173,104.173,0,0,1-12.973.976,93.846,93.846,0,0,1-11.055-.553,71.151,71.151,0,0,1-8.8-1.719A55.517,55.517,0,0,1,34.935,121.228Zm83.047-26.723a60.682,60.682,0,0,1-1.409,7.215,60.533,60.533,0,0,1-2.136,6.3,59.536,59.536,0,0,1-3.3,6.765,61.7,61.7,0,0,1-4.291,6.393,50.314,50.314,0,0,1-4.051,4.57,51.874,51.874,0,0,1-4.632,4.017c-.033.019-.066.039-.1.057l.09-.05,0,0-.085.048-.091.052.09-.052a44.407,44.407,0,0,1-4.2,2.019,38.642,38.642,0,0,1-3.957,1.292,62.265,62.265,0,0,1-6.691,1.3,74.275,74.275,0,0,1-8.053.537c-1.991-.323-3.973-.709-5.946-1.112q-4.161-.852-8.262-1.931-6.678-1.776-13.175-4.087c1.994.318,4,.552,6.021.683a99.483,99.483,0,0,0,10.01.176c3.41-.117,6.813-.423,10.2-.854a97.012,97.012,0,0,0,9.981-1.742,59.269,59.269,0,0,0,9.092-2.727,39.294,39.294,0,0,0,8.308-4.492,41.589,41.589,0,0,0,11.754-14.074,60.479,60.479,0,0,0,5.115-12.825Q118.141,93.245,117.982,94.505Z"/><path d="M48.215,107.461a44.283,44.283,0,0,0,4.3,2.867,34.478,34.478,0,0,0,8.373,3.609,32.543,32.543,0,0,0,5.035,1,29.952,29.952,0,0,0,3.041.163c.431,0,.863-.011,1.293-.034a27.779,27.779,0,0,0,8.82-1.9q.936-.372,1.845-.816a31.354,31.354,0,0,0,6.067-.572,3.641,3.641,0,0,0,1.276.774,3.789,3.789,0,0,0,1.194.2,3.251,3.251,0,0,0,1.009-.157,3.4,3.4,0,0,0,1.743-1.472,4.578,4.578,0,0,0,.538-1.345,27.6,27.6,0,0,0,9.664-8.693,36.14,36.14,0,0,0,6.389-16.7A41.337,41.337,0,0,0,106.655,66.1a47.268,47.268,0,0,0-6.936-13.082,2.837,2.837,0,0,0-.086-.788,2.709,2.709,0,0,0-3.7-3.876c-.319-.387-.643-.771-.986-1.138A31.072,31.072,0,0,0,88.077,41.6a32.514,32.514,0,0,0-5.229-2.517q-.8-.5-1.614-.969a46.963,46.963,0,0,0-8.343-3.886,34.331,34.331,0,0,0-4.482-1.207,35.546,35.546,0,0,0-4.333-.5,2.466,2.466,0,0,0-1.452,4.558q-1.181.292-2.329.7a6.249,6.249,0,0,0-.84-1.646,3.417,3.417,0,0,0-1.525-1.2,3.852,3.852,0,0,0-1.384-.224c-.088-.005-.176-.005-.259-.011a2.625,2.625,0,0,0-.407.017,6.562,6.562,0,0,0-1.106-.942,18.237,18.237,0,0,0-2.314-1.113,2.482,2.482,0,0,0-2.944.577c-.459.58-.987,1.1-1.453,1.684-.369-.572-.744-1.141-1.109-1.713a2.913,2.913,0,0,0-5.2,2.52c.4,1.089.759,2.2,1.2,3.274.453,1.119.972,2.208,1.513,3.286.779,1.543,1.606,3.055,2.44,4.562-.489.558-.968,1.124-1.423,1.7a57.07,57.07,0,0,0-4.28,6.319c-.052.082-.1.164-.154.247a45.956,45.956,0,0,0-6.572,17.206,39.134,39.134,0,0,0,1.308,18.012,34.241,34.241,0,0,0,3.786,7.991c.2.311.428.61.642.915l-1.505,1.515a2.767,2.767,0,0,0,.415,4.045c-.093.457-.149.923-.233,1.39a2.56,2.56,0,0,0,2.65,3.009,13.98,13.98,0,0,0,4.045-.536A21.054,21.054,0,0,0,48.215,107.461Zm7.352-5.058c.039-.031.077-.064.116-.094.351.226.7.455,1.056.673C56.344,102.8,55.957,102.6,55.567,102.4Zm20.847,2.141c-.972-.009-1.936-.073-2.9-.178a30.925,30.925,0,0,1-3.369-.631,40.865,40.865,0,0,1-4.52-1.493A50.466,50.466,0,0,1,60.057,99.5c-.2-.117-.4-.246-.595-.366.65-.577,1.306-1.148,1.942-1.739,1.944-1.807,3.875-3.632,5.736-5.522q2.067-2.1,4.066-4.262c.417.97.841,1.938,1.3,2.89,1.26,2.614,2.508,5.228,3.769,7.843q.883,1.836,1.749,3.686c.366.786.751,1.56,1.173,2.313l-.1.017A25.254,25.254,0,0,1,76.414,104.544Zm13.143-35.2a1.381,1.381,0,0,0,1.725-.866c.212-.6.43-1.213.642-1.813.147-.43.289-.86.442-1.284a3.627,3.627,0,0,0,.347-1.177,2.929,2.929,0,0,0-.1-.9q.621-.727,1.241-1.457c.192-.223.385-.446.576-.669.354.982.684,1.971.958,2.976a39.252,39.252,0,0,1,.8,4.009,42.819,42.819,0,0,1,.333,4.969,40.922,40.922,0,0,1-.3,4.583,53.034,53.034,0,0,1-1.105,5.843,53.244,53.244,0,0,1-2.095,6.294,55.444,55.444,0,0,1-2.792,5.8c.03-.053.06-.105.092-.158l-.106.182,0,.006c-.342.584-.713,1.149-1.081,1.716-.085-.153-.157-.313-.244-.464l.082.14c-.073-.131-.148-.262-.222-.391l.034.057q-1.095-1.944-2.2-3.886l.044.075-.1-.173.023.039-.041-.072c-.044-.079-.087-.156-.13-.235.012.025.024.048.037.071-.051-.09-.1-.181-.154-.271.028.05.056.1.082.148-.477-.854-1.042-1.661-1.567-2.48-.271-.42-.541-.843-.813-1.265a8.028,8.028,0,0,0-.191-1.639,18.033,18.033,0,0,0-1.913-4.545c-.765-1.416-1.482-2.848-2.27-4.247l.965-1.093c2.715-3.07,5.379-6.183,8.075-9.265A1.4,1.4,0,0,0,89.557,69.348Zm14.965,5.321q.06.369.112.738a40.894,40.894,0,0,1,.318,4.657,41.04,41.04,0,0,1-.281,4.386,38.913,38.913,0,0,1-.779,4.012,37.205,37.205,0,0,1-1.332,4.044,35.9,35.9,0,0,1-1.941,3.971,36.65,36.65,0,0,1-2.337,3.477,33.251,33.251,0,0,1-2.317,2.66,26.834,26.834,0,0,1-2.288,1.968q-.6.438-1.214.838c-.143-.554-.3-1.1-.486-1.644a33.873,33.873,0,0,0,9.5-13.463A41.963,41.963,0,0,0,104.522,74.669ZM64.371,43.09a35.746,35.746,0,0,1,3.726-.745,32.212,32.212,0,0,1,3.631-.245q.834.006,1.668.054.676.346,1.337.723a31.754,31.754,0,0,1,3,1.995c.483.387.951.794,1.414,1.207A1.261,1.261,0,1,0,80.822,44.2l-.146-.128q1.313.888,2.574,1.858A41.189,41.189,0,0,1,86.978,49.2q.74.773,1.427,1.589a25.14,25.14,0,0,0-2.446,2.146c-1.708,1.719-3.268,3.58-4.905,5.364q-.481.528-.96,1.059c-.145.044-.293.085-.439.126-.818.214-1.64.412-2.477.545-.622.063-1.24.1-1.864.119-.336,0-.666-.02-1-.051-.267-.041-.528-.092-.79-.151-.385-.111-.76-.236-1.135-.376a15.723,15.723,0,0,1-1.535-.744c-.426-.252-.835-.522-1.232-.813-.471-.38-.916-.782-1.349-1.2-.108-.111-.216-.224-.323-.336-.2-.382-.395-.765-.591-1.148q-.972-1.874-1.932-3.739c-.9-1.749-1.884-3.451-2.85-5.165l.033.061c-.355-.629-.709-1.255-1.063-1.886a3.171,3.171,0,0,0-.2-.315c0-.065.006-.131.009-.2C62.348,43.708,63.351,43.373,64.371,43.09Zm-21.219,24.3a41.507,41.507,0,0,1,.821-4.346,36.092,36.092,0,0,1,1.291-3.938l-.043.1.047-.112c.021-.055.043-.111.065-.165-.019.048-.037.1-.056.144a39.153,39.153,0,0,1,1.972-4.027c.155-.211.313-.419.472-.628.62-.784,1.274-1.539,1.946-2.278a27.131,27.131,0,0,0,1.715,2.847c.433.621.876,1.242,1.346,1.841q1,1.689,2,3.382c.247.418.524.83.789,1.237q1.227,1.881,2.456,3.762a10.181,10.181,0,0,0,.385,1.194,32.339,32.339,0,0,0,2.231,4.169c.855,1.528,1.712,3.048,2.608,4.546q-2.265,2.232-4.477,4.518c-1.2,1.237-2.4,2.468-3.545,3.745q-3.081,3.4-6.156,6.8c-.1-.126-.206-.246-.3-.374A36.286,36.286,0,0,1,46.5,86.44l.031.057-.033-.061q-.057-.1-.114-.2c.038.064.073.125.107.187A30.689,30.689,0,0,1,45,83.3q-.61-1.581-1.06-3.215v0c-.023-.082-.045-.164-.067-.247.021.07.04.141.058.211a37.316,37.316,0,0,1-.78-4,38.757,38.757,0,0,1-.272-4.253A41.924,41.924,0,0,1,43.152,67.393ZM39.375,82.847q-.191-1.6-.247-3.2a31.869,31.869,0,0,0,1.359,4.712,32.283,32.283,0,0,0,4.18,7.743c.383.521.781,1.027,1.186,1.527l-.159.173c-.333.357-.663.72-.991,1.085a32.282,32.282,0,0,1-2.379-2.779q-.425-.585-.817-1.185c-.049-.114-.1-.229-.144-.343q-.635-1.62-1.112-3.3A38.276,38.276,0,0,1,39.375,82.847Z"/></svg>