<svg xmlns="http://www.w3.org/2000/svg" width="118.208" height="210.842" viewBox="0 0 118.208 210.842"><path d="M118.029,173.846q-.15-2.56-.412-5.111c-.077-.754-.142-1.507-.248-2.249q-.582-4.072-1.16-8.138c-.094-.648-.223-1.29-.341-1.931q-.442-2.394-.878-4.776c-.353-1.919-.73-3.827-1.113-5.735q-1.465-7.26-2.932-14.521c-.83-4.11-1.678-8.214-2.62-12.3-.365-1.566-.725-3.133-1.09-4.7-.135-.583-.265-1.166-.418-1.743-.718-2.709-1.448-5.417-2.167-8.132-.577-2.155-1.248-4.287-1.872-6.43-.554-1.884-1.107-3.769-1.673-5.647-1.3-4.369-2.555-8.756-3.886-13.12-.424-1.389-.848-2.785-1.272-4.174-.265-.872-.512-1.749-.8-2.615q-.653-1.952-1.3-3.9c-.289-.871-.548-1.749-.872-2.609-.488-1.318-.983-2.643-1.472-3.968-.294-.783-.571-1.578-.9-2.355-.865-2.091-1.7-4.2-2.626-6.266-.989-2.2-1.978-4.393-3.015-6.565q-1.606-3.366-3.256-6.7c-.877-1.785-1.772-3.569-2.7-5.33-.559-1.053-1.083-2.131-1.678-3.162q-.99-1.713-1.967-3.433c-.571-.989-1.213-1.943-1.819-2.909-.572-.906-1.184-1.784-1.785-2.667-1.224-1.8-2.508-3.551-3.827-5.282-.184-.241-.371-.48-.555-.721a30.735,30.735,0,0,0-2.537-3.373c-.22-.251-.454-.489-.681-.733-.171-.212-.336-.426-.508-.637-.8-.984-1.625-1.932-2.467-2.88a27.287,27.287,0,0,0-6.053-5.052A43.492,43.492,0,0,0,50.96,1.71c-.672-.318-1.349-.624-2.05-.878A14.192,14.192,0,0,0,46.955.32,12.218,12.218,0,0,0,42.745.1a15.306,15.306,0,0,0-3.91,1.113A13.714,13.714,0,0,0,36.751,2.3c-.565.371-1.119.754-1.655,1.166-.21.162-.415.332-.625.5-.247.035-.495.053-.742.091a42.518,42.518,0,0,0-6.065,1.189,13.288,13.288,0,0,0-2.791,1.137,12.285,12.285,0,0,0-2.591,1.937,1.071,1.071,0,0,0-.589-.183A2.788,2.788,0,0,0,19.4,9.893a23.013,23.013,0,0,0-1.861,5.029q-.548,1.96-1.048,3.933c-.483,1.36-.907,2.744-1.3,4.134-.012.035-.023.07-.035.112a.284.284,0,0,0-.006.029v-.011c-.012.041-.018.082-.029.123a1.84,1.84,0,0,0-.012,1.113c-.448,1.778-.86,3.557-1.284,5.341-.447,1.855-.918,3.7-1.319,5.57q-.918,4.223-1.825,8.45c-.254,1.164-.51,2.327-.743,3.495q-.1.294-.193.588c-.306.942-.565,1.9-.836,2.855s-.547,1.891-.783,2.845c-.288,1.2-.624,2.379-.866,3.586.012-.059.024-.124.036-.183q-.389,1.97-.783,3.928c.011-.059.023-.118.041-.183-.283,1.407-.448,2.838-.665,4.252-.207,1.354-.295,2.732-.436,4.092-.142,1.337-.2,2.673-.295,4.01-.079,1.166-.132,2.336-.189,3.507-.046.291-.09.582-.135.872-.207,1.331-.371,2.674-.548,4.016q-.618,4.735-1.243,9.469c-.182,1.366-.376,2.732-.518,4.1q-.459,4.355-.912,8.715c-.177,1.69-.395,3.38-.524,5.076q-.311,4.2-.625,8.408C.4,118.252.312,119.341.23,120.431.2,120.96.2,121.5.189,122.038q-.1,4.337-.183,8.668c-.012.536-.006,1.06.012,1.6.053,1.49.1,2.979.147,4.475q.061,1.863.124,3.733c.023.7.117,1.4.182,2.09.289,3.074.518,6.154,1,9.2a91.723,91.723,0,0,0,1.919,9.268,90.846,90.846,0,0,0,2.944,9.08c.436,1.149.948,2.279,1.419,3.41.354.842.7,1.678,1.09,2.5.618,1.314,1.207,2.638,1.9,3.91.377.7.76,1.378,1.183,2.044a11.481,11.481,0,0,0,1.031,1.46,6.469,6.469,0,0,0,2.608,2.014,5.811,5.811,0,0,0,3.563.141,13.064,13.064,0,0,0,3.586-1.719c1.49-.972,2.927-2.043,4.469-2.95.424-.236.848-.454,1.284-.648.247-.094.5-.177.748-.253l.253-.053c.159-.018.324-.024.483-.03a2.617,2.617,0,0,1,.306.018,2.93,2.93,0,0,1,.365.083l.248.082c.235.112.465.229.7.359.13.088.259.177.383.265.212.182.418.371.618.571.353.377.683.766,1.007,1.172A28.116,28.116,0,0,1,35.113,185c1.331,2.444,2.42,5.023,3.651,7.514a48.423,48.423,0,0,0,2.514,4.734,16.927,16.927,0,0,0,2.426,3.162,6.3,6.3,0,0,0,3.2,1.779,5.262,5.262,0,0,0,1.985.035,7.716,7.716,0,0,0,1.684-.536,8.671,8.671,0,0,0,1.525-.95,5.831,5.831,0,0,0,2.374-.185,9.349,9.349,0,0,0,3.209-1.754,18.1,18.1,0,0,0,2.856-3.139c.642-.854,1.243-1.737,1.814-2.638.62-.973,1.245-1.946,1.854-2.925.242-.354.487-.7.76-1.03.193-.212.391-.415.6-.613.088-.072.18-.141.276-.209.182-.114.368-.219.562-.32l.126-.054a3.548,3.548,0,0,1,.4-.12c.142-.025.284-.041.426-.052a4.915,4.915,0,0,1,.515,0c.083.013.17.024.258.036.251.056.5.12.745.2q.38.145.748.312c.105.056.2.118.307.176a30.135,30.135,0,0,1,1.973,2.382c2.514,3.474,4.605,7.243,6.86,10.888q.892,1.44,1.772,2.868c.477.777.954,1.554,1.5,2.284a9.088,9.088,0,0,0,1.978,2.208,5.587,5.587,0,0,0,2.951,1.09H87.1a5.987,5.987,0,0,0,1.366-.2,7.218,7.218,0,0,0,1.419-.489,16,16,0,0,0,1.747-1c.174.046.345.1.521.143a16.04,16.04,0,0,0,3.939,1.738,14.234,14.234,0,0,0,3.736.5c.123,0,.246,0,.369-.005a14.27,14.27,0,0,0,7.749-2.761,20.847,20.847,0,0,0,5.994-6.648,25.944,25.944,0,0,0,1.949-4.287,34.63,34.63,0,0,0,1.154-4.275,60.2,60.2,0,0,0,1.072-9.257A91.641,91.641,0,0,0,118.029,173.846Zm-21.8,27.921a17.19,17.19,0,0,0-2.273,1.1c-.665.385-1.3.822-1.932,1.268-.535-.411-1.062-.832-1.576-1.271a35.114,35.114,0,0,1-3.007-3.007l.062.073-.075-.088-.084-.094c.024.027.049.053.073.081a47.988,47.988,0,0,1-3.441-4.612c-.934-1.524-1.88-3.037-2.779-4.585a61.346,61.346,0,0,0-5.365-8.373,12.821,12.821,0,0,0-2.62-2.561,9.314,9.314,0,0,0-2.944-1.414,6.483,6.483,0,0,0-3.251.153,6.925,6.925,0,0,0-2.7,1.632,16.875,16.875,0,0,0-3.009,4.139,11.684,11.684,0,0,0-.967.8,30.3,30.3,0,0,0-3.674,4.41c-1.094,1.515-2.14,3.068-3.231,4.586l-.053.031c-.226.1-.456.2-.692.285-.153.045-.311.087-.467.121-.263.038-.518.07-.78.092-.143,0-.287,0-.431-.006a3.979,3.979,0,0,1-.4-.051,8.235,8.235,0,0,1-.826-.229c-.14-.053-.277-.111-.414-.175-.224-.116-.441-.237-.656-.367-.288-.2-.568-.415-.838-.642-.207-.2-.407-.4-.6-.612a17.75,17.75,0,0,1-1.122-1.487c-.372-.6-.715-1.212-1.034-1.844-.4-.866-.743-1.746-1.052-2.645-.025-.074-.051-.148-.076-.223.022.053.04.109.058.166-.58-1.86-1.064-3.748-1.554-5.63-.265-1.013-.524-2.026-.813-3.027-.288-1.019-.6-2.025-.977-3.015a15.791,15.791,0,0,0-1.2-2.62,9.906,9.906,0,0,0-1.643-2.179,8.344,8.344,0,0,0-2.332-1.531,5.384,5.384,0,0,0-2.691-.336,6.8,6.8,0,0,0-1.2.248,8.891,8.891,0,0,0-1.107.447,23.487,23.487,0,0,0-3.027,1.814c-.774.507-1.532,1.052-2.3,1.572a20.6,20.6,0,0,1-1.924,1.1c-.237.1-.472.187-.712.269q-.279.081-.563.146c-.114.02-.227.035-.341.044-.164,0-.327,0-.488-.013-.089-.014-.176-.027-.266-.037s-.189-.045-.283-.073l-.261-.11c-.1-.058-.207-.124-.309-.189-.076-.055-.152-.112-.225-.166-.117-.112-.23-.227-.341-.346a27.419,27.419,0,0,1-1.932-2.5c-.395-.613-.749-1.236-1.083-1.883-.5-1.049-.893-2.131-1.285-3.224l.071.223c-.9-2.744-1.737-5.5-2.414-8.308-.713-2.968-1.349-5.942-1.949-8.939.017.077.029.147.047.224-.142-.783-.271-1.561-.407-2.338-.795-4.564-1.277-9.174-1.772-13.773-.416-3.828-.688-7.666-.942-11.5-.027-.426-.052-.851-.078-1.276v.02c-.164-3.716-.329-7.437-.329-11.159-.006-3.91.035-7.82.076-11.724q.024-2.641.048-5.285.129-3.087.276-6.174c.1-2.119.271-4.233.412-6.347,0,.071-.006.141-.012.212.159-1.52.318-3.033.477-4.552.124-1.184.307-2.35.477-3.527s.33-2.344.542-3.51L10.5,63.11c-.005.021-.009.042-.015.063l.022-.105.02-.107-.014.08c.356-1.7.706-3.409,1.062-5.114.147-.713.335-1.419.506-2.126q.354-1.493.707-2.985c.165-.683.383-1.361.577-2.044.271-.965.548-1.931.818-2.9.207-.73.483-1.442.725-2.167q.394-1.193.8-2.387c.479-1.263.952-2.526,1.431-3.789.365-.972.771-1.92,1.171-2.88.89-2.139,1.808-4.273,2.8-6.367.564-1.14,1.123-2.28,1.687-3.42.43-.871.907-1.713,1.378-2.561s.913-1.7,1.431-2.5c.64-1,1.286-1.984,1.922-2.979.993-1.4,2.038-2.754,3.155-4.059l-.007.007.02-.022c.043-.049.085-.1.127-.148-.015.02-.031.039-.047.059a40.1,40.1,0,0,1,3.284-3.312A28.52,28.52,0,0,1,36.552,9.43,21.711,21.711,0,0,1,38.91,8.088c.477-.213.958-.4,1.449-.578.088-.028.177-.045.266-.071.606.032,1.213.064,1.819.122.553.053,1.113.13,1.672.2,1.107.165,2.214.336,3.316.566.358.073.713.165,1.07.244.116.07.237.132.351.205a19.075,19.075,0,0,1,1.671,1.26l-.044-.041c.064.056.128.112.194.168l-.05-.044.076.067.1.086-.058-.048c.068.06.136.12.2.179l-.041-.037.081.071.095.082-.037-.031.22.19-.059-.053.067.06.11.093c-.028-.022-.055-.045-.082-.069q.165.147.333.292c-.027-.023-.054-.045-.081-.07.035.032.07.063.106.093.734.717,1.468,1.428,2.179,2.162.617.639,1.209,1.3,1.8,1.959,1.128,1.345,2.25,2.685,3.284,4.107,1.115,1.536,2.208,3.09,3.294,4.655q.822,1.266,1.652,2.534c.559.854,1.048,1.761,1.566,2.633.913,1.536,1.755,3.12,2.579,4.7q2.779,5.348,5.453,10.747c.1.207.2.415.3.622a1.726,1.726,0,0,0,.088.184l1.7,3.523c.46.976.894,1.97,1.347,2.955.324.706.642,1.419.96,2.137.918,2.1,1.831,4.211,2.72,6.324.365.878.754,1.749,1.1,2.638q.716,1.855,1.449,3.71c.692,1.777,1.289,3.594,1.922,5.4-.013-.041-.026-.083-.038-.126l.051.162.026.074-.02-.053c.3.97.6,1.939.909,2.909.265.853.559,1.707.807,2.579.553,1.978,1.136,3.957,1.666,5.947,2.326,8.738,4.681,17.477,6.719,26.292.069.3.139.6.208.9.451,2.784.885,5.572,1.281,8.364.636,4.476,1.248,8.957,1.919,13.426q1.069,7.11,2.138,14.227c.647,4.345,1.248,8.7,1.86,13.048.6,4.246,1.255,8.48,1.855,12.725.159,1.549.342,3.086.518,4.634a71.245,71.245,0,0,1,.483,7.449,40.472,40.472,0,0,1-.288,4.552,30.526,30.526,0,0,1-.777,3.827,27.41,27.41,0,0,1-.954,2.768,14.726,14.726,0,0,1-.772,1.525,14.249,14.249,0,0,1-.936,1.355c-.194.229-.395.453-.607.677-.253.229-.506.447-.783.654-.294.211-.606.406-.924.594-.124.065-.253.13-.383.189C98.1,201.079,97.159,201.4,96.229,201.767ZM70.661,184.52a9.024,9.024,0,0,0-3.309-1.631c-.216-.05-.438-.094-.661-.133.011-.011.021-.023.033-.033.238-.193.481-.378.732-.555a4.4,4.4,0,0,1,.39-.207c.072-.03.145-.058.217-.085.092-.026.186-.048.28-.069a4.989,4.989,0,0,1,.5-.064h.269c.11.01.22.02.329.037l.16.04a4.584,4.584,0,0,1,.511.191c.262.136.513.277.767.433.3.207.584.422.863.653.309.29.6.591.886.905a29.783,29.783,0,0,1,2.046,2.695c.756,1.175,1.461,2.375,2.162,3.578a19.6,19.6,0,0,0-4.166-4.08c-.17-.115-.345-.226-.521-.335A11.123,11.123,0,0,0,70.661,184.52Zm-1.753-2.8.105.007h0l.043,0-.053,0-.133.009c.043,0,.087-.006.131-.009Zm-48.765-3.919a3.817,3.817,0,0,1-.48-.259c-.224-.156-.437-.316-.649-.489q-.224-.207-.437-.424a6.314,6.314,0,0,0,2.517.7,7.769,7.769,0,0,0,3.656-.748,29.969,29.969,0,0,0,4.745-2.938,26.78,26.78,0,0,1,2.455-1.495c.266-.116.528-.228.8-.335q.115-.034.234-.06c.095-.011.191-.024.29-.034s.222-.01.333-.007l.283.027a2.888,2.888,0,0,1,.3.093c.078.033.156.067.231.1.143.076.281.158.417.248q.177.126.342.264c.094.087.185.177.272.272.223.265.428.538.624.823.208.326.4.658.581,1,.374.8.692,1.616.985,2.443l-.02-.061.024.073c.018.05.035.1.053.151-.016-.043-.031-.083-.044-.124.5,1.545.924,3.116,1.335,4.69l-.107-.18a31.26,31.26,0,0,0-2.25-3.4,11.528,11.528,0,0,0-1.914-1.979,6.295,6.295,0,0,0-4.127-1.516,6.169,6.169,0,0,0-.913.068,7.776,7.776,0,0,0-2.409.871c-.99.526-1.927,1.121-2.922,1.629-.414.19-.83.367-1.26.525-.281.088-.564.168-.848.236-.183.037-.366.07-.551.089-.119,0-.24,0-.36,0a4.446,4.446,0,0,1-.511-.052,4.308,4.308,0,0,1-.433-.114Zm-.223-4.585.024.015-.022-.013Zm1.158.49.038,0H21.09Zm12.043-1.976.018,0c.032,0,.064,0,.1,0ZM61.094,15.061a31.248,31.248,0,0,1,2.13,2.54,39.589,39.589,0,0,1,2.485,3.9q.611,1.1,1.231,2.191c.678,1.356,1.352,2.713,2.01,4.078-.08-.137-.155-.278-.237-.414-1.183-1.967-2.367-3.939-3.692-5.824-1.342-1.9-2.679-3.8-4.116-5.635-.955-1.214-1.963-2.39-3-3.539.32.222.652.427.962.664A26.055,26.055,0,0,1,61.094,15.061ZM43.733,3.48c.288-.007.572,0,.856,0,.525.044,1.042.11,1.562.2-.03-.005-.061-.012-.091-.019l.095.02.123.021-.12-.02c.521.109,1.029.23,1.536.385.319.117.628.256.939.39-.415-.086-.831-.168-1.248-.243a12.625,12.625,0,0,0-4.463-.645C43.19,3.533,43.46,3.5,43.733,3.48ZM17.448,25.374a1.612,1.612,0,0,0,.906-.984c.383-1.26.807-2.5,1.255-3.733.33-.93.718-1.831,1.089-2.75a40.061,40.061,0,0,1,2.279-4.452c.353-.559.73-1.1,1.125-1.613.265-.324.535-.63.824-.925.247-.223.5-.429.76-.635.329-.236.665-.442,1.012-.648.283-.141.572-.277.86-.406.418-.147.842-.271,1.266-.395.131-.031.263-.055.394-.084-.284.29-.572.576-.852.869a1.68,1.68,0,0,0-.076,2.255c-.529.614-1.047,1.245-1.526,1.9Q25.59,15.377,24.4,17c-.212.3-.406.607-.607.913-.424.642-.842,1.284-1.266,1.926a94.8,94.8,0,0,0-6.371,11.541c-.1.216-.208.432-.313.648.132-.54.265-1.081.394-1.622Q16.841,27.885,17.448,25.374Zm1.531,156.767c-.295.112-.589.218-.895.312a3.138,3.138,0,0,1-.342.071c-.077.006-.153.012-.23.024-.114-.006-.229-.016-.343-.026s-.23-.035-.34-.063c-.094-.029-.188-.059-.282-.094-.065-.035-.13-.071-.2-.1-.07-.047-.141-.1-.212-.153-.212-.183-.412-.365-.606-.56-.165-.182-.324-.364-.477-.559a26.137,26.137,0,0,1-1.578-2.491c-.495-.9-.942-1.831-1.4-2.755-.3-.6-.624-1.2-.889-1.814q-1.043-2.421-2.078-4.829a90.018,90.018,0,0,1-3.133-9.515A98.564,98.564,0,0,1,3.828,148.6c-.142-1.484-.3-2.968-.448-4.446L3.1,141.376c-.03-.306-.077-.613-.089-.919q-.184-4.566-.365-9.127c.041-2.355.077-4.717.118-7.072.018-1.107.035-2.208.053-3.315.006-.5.059-1,.094-1.5.306-4.281.536-8.573.972-12.837l.027-.263c.034,2.339.075,4.674.15,7.014.148,4.534.454,9.068.789,13.6.336,4.605.86,9.2,1.4,13.785.518,4.351,1.289,8.679,2.214,12.966.448,2.053.934,4.091,1.446,6.127.684,3.614,1.4,7.222,2.428,10.755.33,1.148.7,2.273,1.119,3.386a16.589,16.589,0,0,0,.9,1.943,11.824,11.824,0,0,0,2.367,3.127,7.87,7.87,0,0,0,1.738,1.289,7.535,7.535,0,0,0,1.76.63,5.554,5.554,0,0,0,.591.078c-.454.3-.906.608-1.381.88C19.279,182,19.132,182.071,18.979,182.141Zm11.663-2.054c.034.009.068.013.1.023l.006.006A1.029,1.029,0,0,0,30.642,180.087ZM46.8,198.429c-.083-.053-.165-.112-.242-.171a3.963,3.963,0,0,1-.4-.365,14.332,14.332,0,0,1-.951-1.1.038.038,0,0,0,.009.013.322.322,0,0,1-.024-.029c-.016-.023-.034-.045-.052-.068l.008.008.038.048-.019-.029a17.208,17.208,0,0,0,2.093,1.868c.036.027.074.052.109.079-.1-.035-.2-.071-.294-.111S46.887,198.477,46.8,198.429ZM87.267,206.8l-.23.018c-.041,0-.082-.006-.129-.006a1.166,1.166,0,0,1-.13-.024c-.094-.029-.188-.064-.283-.1-.123-.059-.241-.123-.359-.188l.036.018a3.623,3.623,0,0,1-.4-.293l-.081-.078c-.326-.361-.617-.752-.9-1.138a24.071,24.071,0,0,0,2.692,1.749C87.407,206.774,87.339,206.789,87.267,206.8Zm12.917-2.733c-.332.216-.673.416-1.025.606a11.016,11.016,0,0,1-1.133.469c-.3.085-.59.158-.889.223-.273.044-.549.068-.825.1.382-.19.759-.39,1.155-.556.683-.263,1.373-.514,2.054-.768a13.131,13.131,0,0,0,1.251-.529C100.578,203.766,100.388,203.924,100.184,204.069ZM114.5,185.146c0-.036,0-.073,0-.109a55.3,55.3,0,0,1-.746,6.164,39.886,39.886,0,0,1-1.2,4.667c-.271.767-.576,1.518-.919,2.259a27.516,27.516,0,0,1-1.362,2.406,22.436,22.436,0,0,1-1.378,1.826c-.493.553-1,1.084-1.551,1.588a19.034,19.034,0,0,1-1.813,1.4c-.427.272-.863.522-1.312.754a17.4,17.4,0,0,1-1.624.665q-.136.04-.273.078a12.02,12.02,0,0,0,2.231-1.992,16.546,16.546,0,0,0,2.473-3.627,42.186,42.186,0,0,0,1.761-4.022,34.337,34.337,0,0,0,1.419-4.611,27.292,27.292,0,0,0,.559-4.145,77.229,77.229,0,0,0-.583-11.494c-.406-4.417-1.012-8.81-1.607-13.2q-.892-6.483-1.808-12.961c-.312-2.2-.606-4.41-.954-6.606-.247-1.532-.488-3.069-.73-4.6-.154-.951-.282-1.907-.46-2.853l-.029-.151c.012.077.03.154.042.23-.071-.377-.142-.754-.212-1.124.017.076.029.152.047.229q-.612-3.233-1.224-6.47l.011.069c-.042-.235-.087-.467-.13-.7l.006.037c-.024-.124-.047-.242-.071-.359.018.076.03.153.047.23-.182-.972-.406-1.938-.612-2.9q-1.656-7.743-3.445-15.466c-.026-.177-.051-.353-.077-.529-.324-2.208-.73-4.4-1.1-6.6s-.8-4.369-1.213-6.554c-.813-4.334-1.755-8.65-2.7-12.96-.471-2.144-.989-4.282-1.5-6.419-.212-.871-.4-1.761-.642-2.626q-.556-1.96-1.1-3.934c-.212-.771-.418-1.554-.677-2.314l-1.431-4.169c-.277-.8-.6-1.584-.918-2.367-.5-1.213-.99-2.432-1.484-3.645-.412-1.024-.889-2.026-1.331-3.033-.365-.824-.73-1.642-1.089-2.473-.931-2.143-1.861-4.28-2.756-6.441-.056-.135-.11-.27-.165-.405q.7,1.453,1.4,2.915c1.007,2.1,1.944,4.222,2.9,6.336.348.771.66,1.554.984,2.337q.777,1.865,1.554,3.734c.383.924.7,1.884,1.054,2.82.413,1.113.866,2.214,1.243,3.339.695,2.113,1.4,4.226,2.1,6.34l-.011-.039.016.053.049.147c-.013-.036-.026-.073-.038-.111,1.169,3.9,2.355,7.8,3.506,11.711,1.054,3.562,2.12,7.119,3.162,10.682q1.122,3.85,2.238,7.708c.571,1.954,1.072,3.927,1.6,5.894.506,1.92,1.024,3.833,1.472,5.771q.548,2.392,1.095,4.775c.2.883.424,1.767.607,2.656.924,4.54,1.86,9.074,2.767,13.62q1.317,6.6,2.629,13.213l-.009-.053.022.117.02.1-.009-.037q.46,2.55.915,5.095c.236,1.284.5,2.562.683,3.851q.451,3.241.9,6.495c.392,2.821.656,5.655.827,8.5A94.429,94.429,0,0,1,114.5,185.146Z"/><path d="M104.609,136.632c.006.032.01.065.017.1l.024.132C104.639,136.784,104.621,136.708,104.609,136.632Z"/><path d="M40.053,73.877a32.208,32.208,0,0,0,.572-3.6c.047-.553.094-1.113.117-1.672a9.48,9.48,0,0,0-.012-1.59,8.346,8.346,0,0,0-.818-2.756,3.028,3.028,0,0,0-1.637-1.613,3.129,3.129,0,0,0-1.343-.118,4.514,4.514,0,0,0-1.177.33,4.585,4.585,0,0,0-.613.312,5.436,5.436,0,0,0-.63-1.154,4.429,4.429,0,0,0-1.713-1.6,2.767,2.767,0,0,0-2.361.123,6.271,6.271,0,0,0-2,1.508.124.124,0,0,1-.023.03,1.39,1.39,0,0,0-.677-.142c-.972.059-1.461.983-1.749,1.8A37.478,37.478,0,0,0,24.773,68.4q-.213,1.007-.424,2.013c-.047.23-.1.466-.136.695-.176,1.231-.359,2.456-.535,3.681-.1.653-.236,1.313-.283,1.972-.065.854-.124,1.714-.183,2.568-.076,1.077-.153,2.149-.229,3.226-.036.489-.03.978-.03,1.467.012,2.355-.047,4.728.112,7.083.041.619.124,1.231.183,1.843a12.612,12.612,0,0,0,.159,1.343,5.851,5.851,0,0,0,.365,1.172,3.647,3.647,0,0,0,.683.959,3.952,3.952,0,0,0,1.089.837,2.033,2.033,0,0,0,.895.235.9.9,0,0,0,.13-.006,3.274,3.274,0,0,0,1.925-.924,11.45,11.45,0,0,0,1.814-2.2,16.38,16.38,0,0,0,1.266-2.6c.43-1.084.854-2.173,1.207-3.286.065-.212.136-.424.194-.636a4.371,4.371,0,0,0,2.214-1.725c.389-.53.737-1.095,1.084-1.649a15.821,15.821,0,0,0,.966-1.778A41.541,41.541,0,0,0,40.053,73.877Zm-11.3,17.529,0,.012-.036.071c0,.009-.008.02-.012.03-.211.472-.438.928-.694,1.377.023-.035.041-.07.064-.1-.023.035-.041.071-.064.106-.206.318-.43.624-.666.931.012-.012.024-.03.035-.042-.011.018-.029.036-.041.053l-.07.089c.017-.024.041-.053.059-.077-.218.259-.442.512-.683.748-.048.041-.095.082-.142.118-.065-.053-.123-.112-.182-.165-.006-.006-.012-.018-.018-.024a.226.226,0,0,1-.041-.041c.006.012.017.024.023.035-.011-.011-.023-.029-.035-.041s-.012-.018-.018-.023c-.041-.059-.082-.124-.123-.189v-.006c.011.018.023.042.035.059-.024-.047-.041-.094-.065-.141-.023-.071-.047-.135-.065-.206-.053-.212-.082-.424-.117-.648.006.059.011.112.017.171-.064-.524-.117-1.048-.188-1.566.006.041.012.082.018.117-.1-.842-.154-1.684-.183-2.526.224.194.459.377.689.56l-.159-.124c.053.047.106.088.159.135a1.563,1.563,0,0,0,2.191-.094c.506-.606,1.053-1.166,1.513-1.8-.359,1.084-.76,2.155-1.2,3.2Zm3.642-24.472c-.148.365-.289.736-.424,1.107h-.006c-.077.024-.159.053-.236.077a3.584,3.584,0,0,0-1.56.706,3.641,3.641,0,0,0-.907,1.367,12.508,12.508,0,0,0-.7,3.332c0-.017.006-.041.006-.058a.631.631,0,0,0-.012.1.387.387,0,0,1-.012.082v.012c0,.006-.006.018-.006.023-.1.719-.223,1.437-.276,2.167-.071.872-.106,1.749-.118,2.627a29.606,29.606,0,0,0,.212,4.8c.035.241.071.488.1.736-.129.383-.271.759-.424,1.136.018-.041.035-.082.053-.118-.018.048-.041.089-.059.136a.122.122,0,0,1-.018.041c-.147.336-.306.659-.482.978l-.071.106c-.012-.419-.012-.837-.035-1.255-.04-.722-.05-1.438-.046-2.16.019-1.669.065-3.343.163-5.012s.285-3.331.512-4.991a36.016,36.016,0,0,1,.807-4.124c.142-.507.289-1.013.424-1.525-.017.065-.035.135-.053.2a19.016,19.016,0,0,1,.731-2.191c.1-.217.212-.435.323-.647.1-.142.189-.283.3-.418a4.373,4.373,0,0,1,.318-.348c.112-.094.229-.194.347-.288.136-.095.271-.183.412-.265.018-.012.036-.018.053-.03a.159.159,0,0,1,.03.036c.07.076.141.159.212.247.135.194.259.388.383.6.041.076.082.159.117.241.048.135.095.271.13.412.059.271.112.548.147.825.018.147.036.288.053.435C32.64,66.328,32.516,66.628,32.393,66.934Zm3.78,9.18c-.371,1.29-.8,2.574-1.29,3.822.112-.577.212-1.154.3-1.737a53.554,53.554,0,0,0,.742-6.984,33.837,33.837,0,0,0-.053-3.533c-.012-.159-.024-.318-.042-.483.071-.129.136-.265.212-.394s.171-.265.259-.4c.077-.088.148-.17.224-.247.024-.018.047-.041.071-.059.082-.053.165-.106.247-.153.059-.03.118-.059.183-.088a.1.1,0,0,0,.029-.012l.124.282c.07.2.135.4.2.6.035.159.065.318.088.477.024.23.03.454.036.677a27.774,27.774,0,0,1-.236,3.133A44.623,44.623,0,0,1,36.173,76.114Z"/><path d="M66.6,69.731c-.165-1.142-.388-2.278-.583-3.415A15.883,15.883,0,0,0,65.4,63.2a4.1,4.1,0,0,0-.689-1.213c-.306-.348-.636-.665-.965-.984-.012-.017-.03-.035-.042-.052a1.891,1.891,0,0,0-1.743-.619,1.917,1.917,0,0,0-1.283.96l-.071.124c-.035.059-.077.117-.112.177a3.085,3.085,0,0,0-1.549-.124,4.006,4.006,0,0,0-2.42,1.855,18.7,18.7,0,0,0-1.425,3,27.084,27.084,0,0,0-1.584,8.061c-.047.671-.076,1.349-.088,2.026a52.016,52.016,0,0,0-.371,5.976,56.634,56.634,0,0,0,.4,7.131,33.315,33.315,0,0,0,.6,3.486,9,9,0,0,0,1,2.573,4.036,4.036,0,0,0,1.855,1.85,2.57,2.57,0,0,0,.954.176,3.7,3.7,0,0,0,1.36-.288,4.735,4.735,0,0,0,2.144-1.661,7.974,7.974,0,0,0,.506-.818A4.646,4.646,0,0,0,63.2,93.756a10.652,10.652,0,0,0,1.513-2.479A15.817,15.817,0,0,0,65.8,88.291,40.7,40.7,0,0,0,66.987,81,50.247,50.247,0,0,0,67,73.529C66.9,72.257,66.781,70.991,66.6,69.731Zm-8.832,8.085c-.212,1.237-.383,2.485-.53,3.733-.024.159-.041.324-.059.483a50.345,50.345,0,0,1-.276-5.556c.028-1.328.134-2.655.294-3.971.17-.536.359-1.072.577-1.59a7.554,7.554,0,0,1,.341-.7.322.322,0,0,1,.024-.029c-.018.271-.024.547-.024.818-.012,1.137-.006,2.279.059,3.416.018.329.035.659.059.989C58.06,76.209,57.9,77.009,57.766,77.816Zm2.7,12.112c-.171.578-.36,1.137-.572,1.7-.029-.011-.059-.023-.094-.035-.012-.006-.023-.018-.035-.023a.159.159,0,0,1-.036-.03c-.029-.029-.053-.065-.082-.1-.082-.118-.159-.247-.235-.377A.509.509,0,0,1,59.379,91a1.329,1.329,0,0,0,.342-.4c.265-.465.553-.919.8-1.4a6.124,6.124,0,0,0,.335-.865C60.734,88.874,60.61,89.405,60.469,89.928Z"/><path d="M50.806,120.189a9.907,9.907,0,0,0-1.7-2.361,8.465,8.465,0,0,0-2.5-1.8,4.141,4.141,0,0,0-1.578-.33,5.443,5.443,0,0,0-1.089-1.96,4.255,4.255,0,0,0-2.138-1.049l-.218-.07a1.726,1.726,0,0,0-2.072.818c-.042.065-.077.136-.112.2a18.927,18.927,0,0,0-1.313,2.232,8.063,8.063,0,0,0-.6,2.409c-.029.229-.047.465-.059.694-.035.148-.059.3-.082.436a17.23,17.23,0,0,0-.3,2.8,26.387,26.387,0,0,0,.3,3.669c.159,1.154.329,2.3.588,3.427.054.241.106.477.16.712.041.689.1,1.372.188,2.061a23.51,23.51,0,0,0,1.684,6.607,18.532,18.532,0,0,0,3.362,5.382c0-.006-.006-.006-.006-.012s.006.012.012.018c.03.029.059.058.088.088a.87.87,0,0,1,.071.076,1.866,1.866,0,0,0,1.219.625.7.7,0,0,0,.112.006,1.765,1.765,0,0,0,1.36-2.9c-.335-.347-.648-.7-.948-1.077q-.452-.657-.855-1.347l.007.01c-.035-.059-.065-.118-.1-.182.065-.03.13-.065.194-.1a.513.513,0,0,0,.095.041,2.615,2.615,0,0,0,1.854.071,3.931,3.931,0,0,0,1.673-.489,7.146,7.146,0,0,0,2.031-1.572,9.2,9.2,0,0,0,1.361-2.079,14.8,14.8,0,0,0,1.342-5.035,18.158,18.158,0,0,0-.718-6.86A16.754,16.754,0,0,0,50.806,120.189Zm-8.78,9.463c-.124-.513-.247-1.025-.359-1.543q-.009-.486,0-.971c0,.047-.006.094-.006.141a22.848,22.848,0,0,1,.171-2.691c.07-.43.159-.848.259-1.266-.047.547-.083,1.095-.094,1.643a46.028,46.028,0,0,0,.259,5.494C42.173,130.194,42.1,129.923,42.026,129.652Z"/></svg>