<svg xmlns="http://www.w3.org/2000/svg" width="174.814" height="263.208" viewBox="0 0 174.814 263.208"><path d="M173.787,219.93c-1.072-.459-2.144-.9-3.245-1.284a13.776,13.776,0,0,0-5.517-.836,12.4,12.4,0,0,0-3.094.657,10.019,10.019,0,0,0-1.158-1.48,4.334,4.334,0,0,0-2.42-1.543,3.7,3.7,0,0,0-1.619.106,4.167,4.167,0,0,0-1.313.724,17.569,17.569,0,0,0-1.531,1.508c-.795.842-1.6,1.69-2.468,2.455.006,0,.012-.006.024-.012-.283.224-.565.442-.86.642-.056.034-.115.063-.172.095a7.063,7.063,0,0,0-2.672-.066,5.372,5.372,0,0,0-2.208.96,10.441,10.441,0,0,0-1.572,1.489c-.025.028-.047.057-.072.085q.171-3.254.3-6.51c.077-1.749.159-3.5.265-5.247.089-1.478.212-2.95.336-4.428v.053q.354-3.5.765-7,.479-4.037.96-8.073.5-4.275.936-8.556c.118-1.148.195-2.291.283-3.439s.189-2.3.253-3.445c.154-2.849.312-5.7.442-8.55.124-2.779.218-5.558.318-8.338.082-2.278.13-4.563.141-6.842.03-5.459.024-10.917-.106-16.376-.053-2.526-.106-5.046-.2-7.566-.059-1.59-.112-3.174-.176-4.764-.065-1.5-.177-3-.265-4.5-.307-5.152-.866-10.287-1.266-15.433s-.607-10.317-.9-15.481c-.006-.153-.018-.3-.024-.453-.012-.848-.029-1.7-.041-2.544-.012-1.013-.006-2.026-.047-3.033v.006q-.195-5.343-.389-10.693v.023c-.065-1.6-.206-3.209-.318-4.811-.1-1.46-.194-2.914-.294-4.369-.018-.312-.065-.624-.1-.93-.095-.83-.189-1.661-.277-2.491q-.248-2.146-.483-4.287c-.047-.418-.13-.824-.194-1.236-.142-.877-.283-1.761-.424-2.638-.189-1.2-.336-2.414-.572-3.6-.306-1.537-.6-3.074-.9-4.611-.2-1-.4-1.984-.636-2.973-.23-.948-.454-1.9-.683-2.839-.136-.559-.26-1.118-.419-1.672a50.653,50.653,0,0,0-3.768-9.657q-.84-1.6-1.79-3.144c-.1-.307-.195-.619-.295-.925-.235-.753-.53-1.5-.818-2.237q-.5-1.3-1.078-2.579a37.323,37.323,0,0,0-2.22-4.264,27.838,27.838,0,0,0-6.259-7.413,17.146,17.146,0,0,0-4.187-2.532,19.8,19.8,0,0,0-2.208-.8c-.877-.253-1.761-.459-2.65-.66A56.35,56.35,0,0,0,105.858.3c-.931-.054-1.867-.112-2.8-.166-.418-.023-.842-.058-1.26-.064-.848-.018-1.7-.03-2.55-.042-.565-.005-1.137-.041-1.7-.017-1.366.059-2.732.112-4.1.171-.878.035-1.773.147-2.644.259-.8.112-1.6.229-2.385.383A30.348,30.348,0,0,0,83.435,2.21c-.394.149-.779.323-1.168.487l-.334.061c-.93.171-1.849.365-2.767.607-.76.194-1.514.412-2.262.665-.777.259-1.572.506-2.326.842-.571.253-1.142.5-1.719.754-.524.229-1.066.441-1.578.695-.677.341-1.354.677-2.038,1.013-1.113.553-2.214,1.124-3.315,1.7-2.075,1.085-4.178,2.141-6.22,3.3-.258.141-.511.288-.763.429.006-.006.011-.006.017-.012-.294.165-.589.336-.877.5.035-.024.071-.042.1-.059-.129.07-.253.141-.377.211.006,0,.012,0,.018-.011-.024.011-.041.023-.065.035s-.047.03-.069.043c-.092.055-.187.106-.278.156l.006,0c-.03.017-.065.035-.1.058a.161.161,0,0,0-.041.024h-.006a.006.006,0,0,1-.006.006s0,.006,0,.006c-.642.359-1.261.777-1.891,1.166-.4.247-.8.488-1.183.753a52.96,52.96,0,0,0-4.846,3.627A40.5,40.5,0,0,0,42.663,26.9c-.141.209-.277.421-.416.632-.447.454-.888.913-1.333,1.364-.859.86-1.637,1.8-2.449,2.709-.4.435-.754.918-1.125,1.378-.4.494-.836.977-1.207,1.495-.406.571-.819,1.137-1.231,1.708-.288.4-.606.789-.865,1.213-.424.677-.843,1.36-1.261,2.043-.253.4-.524.8-.742,1.219-.382.736-.765,1.466-1.148,2.2-.206.389-.424.772-.606,1.178-1.1,2.438-2.191,4.876-3.151,7.372Q25.664,55.2,24.25,59.005c-.436,1.177-.818,2.373-1.225,3.556-.383,1.119-.718,2.249-1.048,3.386-1.407,4.811-2.508,9.7-3.592,14.591q-1.7,7.659-3.162,15.369c-.465,2.473-.948,4.952-1.36,7.437-.247,1.461-.483,2.927-.73,4.387-.2,1.213-.359,2.432-.536,3.645-.7,4.876-1.125,9.793-1.5,14.7-.206,2.708-.424,5.417-.63,8.126-.206,2.626-.5,5.246-.789,7.866-.283,2.574-.606,5.147-.895,7.72-.135,1.225-.212,2.456-.306,3.687-.088,1.136-.135,2.267-.171,3.4-.041,1.166-.112,2.338-.088,3.5q.053,2.279.094,4.569c.012.459.059.93.088,1.395.053.872.106,1.744.159,2.621.071,1.154.148,2.314.224,3.474.342,5.146.518,10.305.724,15.463.195,5.046.56,10.081.8,15.121.053,1.225.13,2.45.165,3.675.036,1.572.077,3.139.118,4.711.065,2.367.076,4.734.141,7.1.071,2.667.177,5.335.289,8.008.059,1.343.123,2.691.182,4.04.059,1.136.036,2.285.053,3.427-.035,1.2-.064,2.408-.129,3.615-.032.584-.076,1.17-.107,1.758-.193.2-.387.4-.558.615a23.435,23.435,0,0,0-1.685,2.4c-.453.748-.942,1.483-1.366,2.255-.441.795-.895,1.578-1.348,2.367-.389.683-.73,1.4-1.09,2.1-.353.683-.671,1.366-.989,2.061-.053.118-.106.23-.159.342-.306.494-.606.989-.907,1.478-.936,1.537-1.937,3.044-2.755,4.646a1.506,1.506,0,0,0,.683,2.008,1.723,1.723,0,0,0,1.572-.018,3.363,3.363,0,0,0,1.113-1.2c1.189-1.508,2.355-3.05,3.509-4.588a1.356,1.356,0,0,0,.189-1.195c.359-.653.706-1.307,1.071-1.955a.161.161,0,0,1,.024-.041c-.3.878-.6,1.755-.9,2.632-.147.418-.289.836-.418,1.255-.218.706-.442,1.407-.613,2.125a13.323,13.323,0,0,0-.312,2.038,1.494,1.494,0,0,0,.837,1.436,1.366,1.366,0,0,0,.635.153,1.6,1.6,0,0,0,1-.365,2.99,2.99,0,0,0,.789-.906c.135-.248.259-.5.394-.754q.266-.513.53-1.025c.377-.712.748-1.419,1.131-2.131.653-1.213,1.319-2.42,1.972-3.639.813-1.5,1.631-3,2.326-4.564a23.867,23.867,0,0,0,1.873-5.747c.118.059.229.124.341.183.23.141.454.294.672.453a22.01,22.01,0,0,1,1.919,1.707q1.3,2.063,2.557,4.136c.134.241.265.486.4.729-.4.782-.792,1.567-1.188,2.35l.008-.01-.02.039-.014.027,0-.009c-.223.424-.441.854-.665,1.284-.236.465-.465.93-.73,1.378a1.37,1.37,0,0,0-.542.889,1.87,1.87,0,0,0,.018.606,1.317,1.317,0,0,0,1.272.995,1.32,1.32,0,0,0,1-.488,5.316,5.316,0,0,0,.581-.87c0,.037,0,.073,0,.109-.28.556-.575,1.107-.85,1.666-.512,1.036-.965,2.1-1.419,3.156-.282.572-.547,1.149-.771,1.743a1.424,1.424,0,0,0,1.3,1.99,1.412,1.412,0,0,0,1.231-.694,11.7,11.7,0,0,0,.6-1.3c.17-.4.341-.8.512-1.189.253-.6.542-1.19.812-1.784.03-.065.059-.136.089-.2a.471.471,0,0,1,.041-.076c.226-.473.461-.94.691-1.41.036,0,.073,0,.11-.007a1.711,1.711,0,0,0,1.3-.577,1.37,1.37,0,0,0-.187-1.858c.153-.288.308-.577.462-.866a1.172,1.172,0,0,0,.782-1.449c.432-.8.869-1.588,1.334-2.366.6-1,1.178-2,1.8-2.973.5-.8,1.029-1.575,1.557-2.356a1.469,1.469,0,0,0,.292.042,1.418,1.418,0,0,0,.159-.012,2.327,2.327,0,0,0,1.6-.889,7.012,7.012,0,0,0,.642-1.136c.227-.51.425-1.042.615-1.575.235-.175.463-.361.71-.522.382-.235.783-.454,1.189-.654a11.1,11.1,0,0,1,1.066-.406,7.655,7.655,0,0,1,.753-.182c.183-.024.36-.042.542-.054s.365,0,.548.012c.049.007.1.017.147.024.342.468.671.945.985,1.436a80.811,80.811,0,0,1,3.838,7.252q1.086,2.252,2.143,4.534a14.409,14.409,0,0,0,1.119,2.161,2.784,2.784,0,0,0,1.543,1.178,3.452,3.452,0,0,0,3.621-1.266,14.56,14.56,0,0,0,1.03-1.519,2.957,2.957,0,0,0,1.484-.674,9.816,9.816,0,0,0,1.938-2.7c.771-1.308,1.478-2.656,2.184-3.993a1.413,1.413,0,0,0-.483-1.913,1.349,1.349,0,0,0-.762-.17c.092-.2.19-.391.28-.588a69.142,69.142,0,0,0,2.643-6.672c.589-1.755,1.161-3.515,1.744-5.27.506-1.549.971-3.1,1.46-4.652.606-1.908,1.16-3.839,1.825-5.724.017-.048.035-.1.052-.145l.095.058c.212.159.413.324.607.5.055.052.1.109.158.162.018.056.042.11.06.166-.006-.017-.012-.029-.018-.047.169.543.338,1.085.507,1.632a.023.023,0,0,1,0,.017c0,.017.012.034.018.049,1.01,3.362,1.751,6.794,2.679,10.167.524,1.914,1.019,3.846,1.661,5.724a17.492,17.492,0,0,0,2.126,4.628,4.924,4.924,0,0,0,1.654,1.484,3.806,3.806,0,0,0,2.043.489,5.514,5.514,0,0,0,.839-.131,6.7,6.7,0,0,0,.58,1.015,3.587,3.587,0,0,0,1.025,1,2.605,2.605,0,0,0,2.732-.2,4.519,4.519,0,0,0,1.155-1.278c.312-.482.618-.959.883-1.46a17.942,17.942,0,0,0,1.254-3.056,82.515,82.515,0,0,0,1.878-8.2c.476-2.375.886-4.761,1.283-7.149q.309-1.122.6-2.25c.4-1.6.813-3.2,1.195-4.805.789-3.3,1.555-6.607,2.356-9.9.417-1.719.831-3.44,1.259-5.158.01.02.02.039.03.06a.6.6,0,0,1-.024-.059c.024.059.048.112.071.165a.227.227,0,0,1,.019.034v0l.007.016,0,.008,0,0c2.5,5.506,4.427,11.258,6.474,16.933.63,1.749,1.26,3.492,1.89,5.241.078.215.165.427.245.641.186.609.375,1.217.556,1.825.242.812.536,1.613.8,2.42.224.659.442,1.325.689,1.978.306.819.589,1.661.936,2.468s.66,1.625,1.048,2.414.784,1.59,1.213,2.367a19.348,19.348,0,0,0,1.1,1.8,5.214,5.214,0,0,0,2.056,1.9c.026.011.053.015.079.026l.015.011a2.716,2.716,0,0,0,2.021.229,6.266,6.266,0,0,0,3.184-1.609,21.53,21.53,0,0,0,4.057-5.287c1.031-1.773,1.985-3.616,3.133-5.311.124-.171.247-.336.383-.5a4.955,4.955,0,0,1,.371-.353c.07-.059.141-.112.217-.165.053-.03.1-.059.148-.089a.322.322,0,0,1-.039.015l0,0c.053-.023.112-.041.165-.065a1.74,1.74,0,0,0,.189-.047c.094-.012.182-.023.276-.029a3.224,3.224,0,0,1,.342.006c.065.006.129.017.194.029.124.029.242.065.365.1.283.106.554.212.825.342.612.324,1.2.695,1.784,1.071a19.1,19.1,0,0,0,1.908,1.16,7.481,7.481,0,0,0,1.672.613,5.937,5.937,0,0,0,1.737.112,7.19,7.19,0,0,0,2.241-.595,3.7,3.7,0,0,0,.833.431,3.635,3.635,0,0,0,2.4-.065,3.763,3.763,0,0,0,1.219-.765,9.816,9.816,0,0,0,.907-.872,17.361,17.361,0,0,0,1.619-2.161c.471-.736.937-1.49,1.378-2.244.436-.735.842-1.5,1.3-2.219l.135-.171c.053-.047.1-.094.147-.136a.249.249,0,0,1,.059-.041c.038-.022.081-.045.124-.068a1.484,1.484,0,0,1,.159-.055,9.684,9.684,0,0,0,2.161-.354c.079-.026.153-.064.231-.093a9.409,9.409,0,0,0,2.648.428,10.874,10.874,0,0,0,3.616-.683,30.9,30.9,0,0,0,3.187-1.49c.4.615.789,1.234,1.194,1.844a1.694,1.694,0,0,0,2.355.365,1.712,1.712,0,0,0,.365-2.361c-.129-.2-.259-.406-.394-.613-.109-.173-.214-.351-.321-.525.212-.05.424-.109.639-.147.328-.043.656-.074.981-.094.411-.006.816.006,1.215.03.371.035.73.094,1.095.164.654.159,1.3.354,1.938.578-.012-.006-.03-.012-.041-.018.047.018.088.029.135.047a.44.44,0,0,0,.048.018h0l0,0,.01,0c.867.322,1.734.644,2.589,1.007a1.718,1.718,0,1,0,1.372-3.15ZM144.8,177.22c.053-.954.094-1.908.135-2.862.006-.153.018-.306.024-.459q.3-5.343.6-10.682c.095-1.584.136-3.162.183-4.746q.168-5.627.33-11.258c.047-1.6.106-3.192.112-4.787.011-1.614.023-3.222.029-4.835.065,4.475.118,8.95.088,13.432q-.053,7.613-.412,15.227c-.135,2.891-.277,5.788-.442,8.68-.141,2.5-.347,5-.535,7.507v-.017c-.212,2.161-.454,4.322-.7,6.483C144.386,185.005,144.609,181.112,144.8,177.22ZM114.2,4.118a34.074,34.074,0,0,1,3.327.866,24.27,24.27,0,0,1,2.243.942,17.477,17.477,0,0,1,1.591.954l-.013-.006c.654.465,1.266.966,1.879,1.5a27.494,27.494,0,0,1,2.208,2.319,32.72,32.72,0,0,1,2.048,2.812c.41.639.792,1.29,1.155,1.946-.63-.612-1.289-1.207-1.961-1.778a39.817,39.817,0,0,0-3.48-2.715c-.453-.306-.912-.612-1.366-.918-.43-.353-.877-.683-1.313-1.013a19.39,19.39,0,0,0-2.7-1.814c-.848-.441-1.708-.824-2.585-1.2-.23-.1-.477-.176-.712-.259a.214.214,0,0,0-.042-.017c-.453-.236-.912-.466-1.383-.678-.813-.376-1.626-.753-2.432-1.13-.5-.236-1.019-.448-1.537-.654Q111.679,3.579,114.2,4.118ZM103.137,6.791c.471-.041.937-.076,1.4-.117.447-.006.912-.042,1.354-.012.483.029.966.053,1.449.082.441.047.883.083,1.319.159.477.077.954.165,1.43.248.648.141,1.29.294,1.932.471.161.075.327.15.494.23-.037-.018-.074-.039-.111-.06.971.5,1.937,1.007,2.909,1.508.724.383,1.424.818,2.137,1.236.654.377,1.29.748,1.914,1.166.754.507,1.513,1.007,2.261,1.514.065.053.124.106.182.159.689.647,1.372,1.3,2.026,1.978.63.66,1.237,1.349,1.837,2.037.4.519.831,1.019,1.2,1.561.388.554.777,1.107,1.16,1.672.335.53.665,1.06,1,1.59.318.507.589,1.042.883,1.566.671,1.2,1.272,2.456,1.855,3.71a46.035,46.035,0,0,1,1.843,5.164c-.012-.035-.018-.076-.029-.112.482,1.579.936,3.163,1.324,4.764q.549,2.262,1.1,4.523.945,3.894,1.9,7.79c.153.648.235,1.325.353,1.984q.45,2.456.889,4.911c.43,2.409.883,4.823,1.3,7.243.26,2.532.595,5.064.89,7.6q.282,2.438.571,4.887c.07.619.176,1.237.212,1.855q.256,4.064.518,8.126.159,2.456.312,4.911c.047.648.1,1.3.124,1.949.076,2.739.176,5.471.259,8.209.076,2.32.135,4.64.218,6.972,0,1.719-.012,3.444-.012,5.164,0,2.108,0,4.21-.018,6.312-.088,10.741-.182,21.481-.424,32.222q-.107,5.043-.218,10.093c-.053,2.243-.182,4.487-.276,6.724-.106,2.461-.183,4.929-.312,7.39q-.238,4.673-.477,9.357c-.059.9-.118,1.8-.177,2.708-.147,2.226-.318,4.452-.43,6.684q-.256,4.929-.506,9.851c-.13,2.532-.153,5.07-.224,7.6-.035,1.184-.041,2.367-.059,3.551-.012.695-.018,1.395-.03,2.1-.023.848-.064,1.7-.035,2.55.024.742.094,1.478.165,2.214a1.3,1.3,0,0,0,.577.936c-.053.948-.117,1.9-.182,2.85a1.213,1.213,0,0,0,.059.447c-.28.344-.562.687-.854,1.02-.392.424-.806.831-1.232,1.221q-.556-.49-1.112-.984c-.96-.836-1.89-1.7-2.868-2.52a22.12,22.12,0,0,0-2.431-1.879,9.62,9.62,0,0,0-2.674-1.271,5.146,5.146,0,0,0-5.076,1.148,10.026,10.026,0,0,0-.959,1.16c-.265.394-.489.8-.713,1.213-.483.895-.93,1.8-1.366,2.714q-.593,1.246-1.184,2.485c-.618,1.313-1.289,2.6-1.937,3.892-.548,1.007-1.095,2.014-1.725,2.968-.424.6-.842,1.213-1.325,1.773a3.25,3.25,0,0,1-.247.235l-.159.124-.318.177c-.059-.065-.118-.124-.171-.189-.1-.124-.189-.247-.277-.377-.43-.765-.783-1.59-1.172-2.385-.3-.612-.6-1.236-.9-1.855-.512-1.136-1.018-2.284-1.531-3.427-.388-.871-.712-1.766-1.06-2.655-.594-1.519-1.2-3.033-1.743-4.576-.665-1.86-1.319-3.721-2-5.576-.1-.283-.2-.569-.3-.853-.071-.274-.148-.546-.216-.82-.436-1.778-.877-3.563-1.307-5.347-.418-1.708-.842-3.421-1.26-5.129-.383-1.566-.842-3.115-1.272-4.663-.241-.884-.542-1.773-.866-2.627-.188-.5-.4-.989-.612-1.478a8.937,8.937,0,0,0-.607-1.272,4.311,4.311,0,0,0-1.89-1.795,1.837,1.837,0,0,0-2.008.429,3.062,3.062,0,0,0-.574.791,2.877,2.877,0,0,0-2.2.459,2.681,2.681,0,0,0-.978,1.2,11.908,11.908,0,0,0-.418,1.4c-.159.7-.282,1.407-.418,2.113-.165.854-.335,1.7-.494,2.556-.707,3.763-1.349,7.537-1.985,11.318-.536,3.185-1.048,6.377-1.607,9.556-.307,1.761-.571,3.534-.931,5.282-.09.434-.179.865-.268,1.3-.1.281-.19.564-.291.845a41.514,41.514,0,0,1-1.831,4.245,29.131,29.131,0,0,1-1.514,2.621c-.089.127-.193.241-.286.364-.116-.263-.235-.523-.35-.787-1.395-3.186-2.679-6.419-4.063-9.61a69.9,69.9,0,0,0-4.3-8.768,12.743,12.743,0,0,0-2.114-2.768A12.473,12.473,0,0,0,69.9,217.1c-.01-.012-.017-.026-.027-.038-.318-.365-.689-.678-1.031-1.013a1.545,1.545,0,0,0-1.984-.171c-.03.017-.053.035-.082.053a5.309,5.309,0,0,0-.894.63,3.275,3.275,0,0,0-.355.166,4.139,4.139,0,0,0-1.136.913,5.749,5.749,0,0,0-.719,1.207c-.241.559-.489,1.107-.689,1.684-.159.465-.312.924-.471,1.389-.135.4-.271.8-.412,1.2-.253.742-.506,1.484-.76,2.232q-.856,2.535-1.707,5.069c-1.166,3.5-2.385,6.984-3.551,10.482-.548,1.519-1.078,3.032-1.678,4.522-.181.455-.37.909-.557,1.364-.23.318-.481.617-.725.924-.074-.085-.158-.161-.231-.247a35.05,35.05,0,0,1-2.468-3.474c-.2-.306-.394-.607-.595-.913a1.146,1.146,0,0,0-.111-.188c-.012-.012-.024-.03-.036-.042-.153-.241-.312-.477-.465-.718a21.587,21.587,0,0,0-2.544-3.38,10.6,10.6,0,0,0-3.413-2.368c-.237-.4-.471-.809-.72-1.2a12.481,12.481,0,0,0-4.187-4.546,3.733,3.733,0,0,0-2.486-.4q-.187-2.905-.382-5.815-.529-7.666-.912-15.334c.005.059.005.124.011.189-.164-4.7-.288-9.41-.494-14.115-.206-4.528-.477-9.044-.66-13.567-.029-1.266-.082-2.526-.088-3.792q0-1.96-.006-3.922c-.006-2.755.094-5.5.177-8.261.07-2.3.194-4.593.335-6.889.342-5.63.736-11.253,1.143-16.877.382-5.352.789-10.705,1.171-16.063.189-2.585.354-5.17.53-7.755.083-1.178.165-2.35.248-3.528.088-1.307.159-2.62.271-3.927-.006.059-.006.118-.012.176q.318-3.453.624-6.907c.135-1.1.283-2.2.412-3.3.13-1.042.23-2.09.389-3.127.347-2.214.683-4.434,1.03-6.648.165-1.048.383-2.09.571-3.133.2-1.113.413-2.225.607-3.338.188-1.048.459-2.085.683-3.127q.336-1.529.671-3.056c.4-1.572.8-3.139,1.2-4.711.117-.453.211-.924.353-1.378.235-.759.471-1.525.7-2.29.117-.365.229-.736.341-1.1.406-1.006.824-2.013,1.237-3.014,1.663-4.022,3.568-7.943,5.514-11.836,1.534-2.946,3.069-5.891,4.72-8.774.83-1.448,1.666-2.885,2.549-4.3.43-.689.848-1.39,1.3-2.067q.777-1.14,1.537-2.291c1.06-1.484,2.119-2.956,3.209-4.41,1.018-1.354,2.114-2.638,3.227-3.928.918-.983,1.819-1.99,2.809-2.9.488-.459.971-.93,1.472-1.366s1-.865,1.5-1.3c1.649-1.343,3.327-2.639,5.058-3.869C80.773,17.261,82.681,16,84.6,14.752c1.442-.894,2.873-1.813,4.357-2.632.824-.459,1.655-.912,2.491-1.348.724-.383,1.46-.718,2.19-1.066.866-.371,1.726-.742,2.6-1.083s1.731-.636,2.609-.937c.483-.129.96-.288,1.442-.388s.954-.2,1.431-.3C102.189,6.927,102.666,6.827,103.137,6.791Zm-68.682,103.7c-.059.689-.112,1.377-.159,2.072q-.354,5.07-.7,10.14-.425,6.183-.889,12.354c.065-1.9.123-3.792.235-5.682q.15-2.651.3-5.3c.053-.907.088-1.813.17-2.714.254-2.868.525-5.736.76-8.609a1.418,1.418,0,0,1-.012.159C34.26,112.106,34.355,111.3,34.455,110.493ZM32.971,231.476l.024.431c-.047.046-.094.091-.14.139-.121-2.081-.214-4.162-.326-6.234q-.194-3.684-.394-7.361.176,2.756.359,5.512Q32.742,227.716,32.971,231.476ZM30.462,129.842c-.076,1.284-.1,2.573-.147,3.857-.047,1.219-.094,2.432-.141,3.651-.094,2.532-.177,5.069-.295,7.6-.241,5.418-.506,10.829-.659,16.247q-.309,10.987-.3,21.987c-.047-2.826-.076-5.647-.052-8.473.023-2.715.041-5.423.088-8.138.047-2.832.124-5.659.2-8.491q.22-7.905.548-15.8c.2-4.711.5-9.41.859-14.109C30.527,128.729,30.5,129.282,30.462,129.842ZM49.9,248.54c.091.122.174.25.267.371q.355.459.731.9c-.054.03-.106.061-.16.09l-.094.036c-.012,0-.024.005-.035.005H50.6Q50.244,249.243,49.9,248.54Zm.856-207.755Q51.9,38.6,53.033,36.422c.583-1.119,1.242-2.2,1.878-3.292C55.529,32.076,56.13,31.022,56.8,30c.86-1.307,1.714-2.62,2.568-3.927Q60.97,23.9,62.572,21.73c.112-.147.235-.282.353-.424.359-.418.719-.842,1.078-1.266l1.607-1.908c.925-.954,1.849-1.913,2.791-2.855.359-.364.76-.692,1.151-1.024.529-.161,1.058-.321,1.588-.489.341-.11.681-.227,1.023-.338a57.717,57.717,0,0,0-9.5,10.695,73.274,73.274,0,0,0-4.652,7.72q-1.166,2.242-2.326,4.481c-1.089,2.1-2.125,4.222-3.162,6.342-.565,1.16-1.154,2.314-1.7,3.486q-.971,2.093-1.943,4.186c-.577,1.254-1.1,2.538-1.649,3.8-.441,1.019-.853,2.043-1.266,3.068-.459,1.148-.948,2.279-1.36,3.445q-.83,2.315-1.649,4.634c-.377,1.066-.694,2.149-1.024,3.233s-.707,2.184-.989,3.3c-.018.083-.042.171-.065.254-.383,1.018-.766,2.031-1.137,3.05.1-.566.2-1.131.3-1.7.188-1.089.465-2.173.7-3.262.306-1.4.612-2.809.912-4.21.077-.3.171-.6.248-.9.229-.818.459-1.642.682-2.467.36-1.29.713-2.585,1.072-3.875.083-.3.2-.594.3-.894q.406-1.21.812-2.421c.395-1.172.783-2.332,1.178-3.5.789-1.949,1.566-3.9,2.355-5.847.106-.265.242-.525.365-.778.3-.648.6-1.289.9-1.937.424-.9.836-1.8,1.266-2.7C50.807,40.691,50.777,40.738,50.754,40.785ZM93.58,5.32l-.153-.036c.589.165,1.178.33,1.743.542.053.029.106.053.159.077a.03.03,0,0,0,.018.011,1.29,1.29,0,0,0,.305.243c-1.327.511-2.632,1.082-3.915,1.688a77.109,77.109,0,0,0-6.895,3.84c-1.089.659-2.149,1.36-3.215,2.055s-2.1,1.383-3.121,2.108c-1.048.742-2.084,1.495-3.121,2.261s-2.014,1.578-3.009,2.385a55.044,55.044,0,0,0-5.506,5.241,75.183,75.183,0,0,0-5.052,6.212c-.724.965-1.407,1.967-2.108,2.95-.277.394-.542.8-.807,1.2.418-.807.843-1.619,1.261-2.432a78.594,78.594,0,0,1,4.781-7.985v0a60.739,60.739,0,0,1,4.6-5.815,57.791,57.791,0,0,1,5.36-5.151,59.206,59.206,0,0,1,5.341-3.929c2.7-.865,5.415-1.7,8.142-2.473a1.507,1.507,0,0,0,.942-1.9,1.315,1.315,0,0,0-.136-.237c.962-.389,1.934-.755,2.923-1.072h0c.089-.027.18-.049.269-.075C92.782,5.125,93.181,5.22,93.58,5.32ZM85.322,4.8l.042,0a55.853,55.853,0,0,0-5.275,2.784l-.411.121c-.852.263-1.7.541-2.547.818.206-.136.409-.278.616-.412A43.376,43.376,0,0,1,82.464,5.51c.31-.137.623-.259.935-.386C84.038,5.005,84.679,4.888,85.322,4.8Zm12.469-.838a1.715,1.715,0,0,1,.176-.006,25.171,25.171,0,0,1,2.75.065c-.041,0-.082-.006-.129-.006.688.071,1.366.171,2.043.3-.648.094-1.3.194-1.937.329s-1.249.277-1.867.454c-.5.138-.991.3-1.482.46a1.27,1.27,0,0,0-.1-1.072,1.4,1.4,0,0,0-.39-.413c.348-.037.692-.087,1.044-.106Zm-26.7,5.6c-.646.493-1.287.994-1.9,1.526-.821.251-1.64.506-2.455.773.653-.353,1.3-.713,1.958-1.061C69.489,10.371,70.294,9.967,71.1,9.558ZM11.172,167.51c-.065-1.142-.147-2.284-.165-3.433-.024-1.4-.041-2.8-.071-4.2.047-1.225.089-2.455.136-3.674.029-.931.1-1.849.176-2.774.083-1.048.148-2.1.271-3.15q.213-1.881.436-3.763c-.006.036-.012.077-.018.118.171-1.321.335-2.643.5-3.964l0,.014c.629-4.925,1.024-9.88,1.424-14.828.188-2.355.371-4.7.6-7.054.117-1.2.217-2.409.365-3.6.159-1.3.318-2.591.477-3.887q1.034-7.242,2.408-14.426c.96-4.994,1.908-9.987,3.027-14.945.559-2.479,1.112-4.958,1.7-7.425.3-1.278.583-2.556.913-3.828s.66-2.561.989-3.839c.212-.718.418-1.431.63-2.143.2-.66.365-1.343.589-2,.489-1.413.972-2.832,1.461-4.251.477-1.39,1.03-2.756,1.542-4.134.5-1.36,1.031-2.72,1.578-4.063-.029.065-.053.13-.082.188.106-.252.206-.5.312-.753l0,.01c.01-.023.02-.046.028-.069l.006-.013v.007c.051-.14.109-.279.166-.416.064-.157.134-.315.2-.473-.03.065-.053.124-.083.188.171-.412.342-.83.512-1.242l-.014.037c.038-.093.077-.187.114-.279-.005.024-.017.042-.023.065.1-.259.212-.518.318-.777l.456-1.006c-1.737,4.263-3.26,8.608-4.666,12.995-.736,2.279-1.467,4.563-2.1,6.878-.389,1.419-.778,2.832-1.172,4.251-.377,1.354-.7,2.726-1.037,4.086-1.248,4.929-2.331,9.905-3.368,14.881-1.018,4.9-1.89,9.845-2.491,14.815-.159,1.284-.341,2.567-.465,3.851-.153,1.566-.312,3.138-.471,4.7-.224,2.279-.418,4.563-.636,6.842-.483,5.147-1.012,10.287-1.442,15.44-.206,2.543-.419,5.081-.6,7.631-.194,2.668-.4,5.341-.512,8.014-.059,1.366-.089,2.72-.1,4.081,0,1.342.018,2.679.042,4.016.047,2.426.088,4.852.106,7.284-.053,4.31-.2,8.62-.418,12.931-.155,3-.365,6-.53,9-.09-2.063-.145-4.127-.212-6.195q-.15-4.231-.354-8.456C11.5,172.351,11.313,169.931,11.172,167.51Zm2.519,66.863c.025.4.056.8.086,1.2-.042.069-.081.139-.123.209Q13.678,235.075,13.691,234.373Zm8.092,4.122a13.509,13.509,0,0,0-1.649-1.631,5.2,5.2,0,0,0-1.39-.854A3.335,3.335,0,0,0,17.6,235a1.439,1.439,0,0,0-.636-1.248c-.025-.018-.055-.022-.081-.038-.075-1.422-.16-2.842-.225-4.266-.106-2.4-.118-4.793-.248-7.19-.135-2.485-.323-4.964-.477-7.449q-.476-7.517-.6-15.045c.006-1.984.029-3.963.082-5.941.065-2.014.171-4.022.283-6.03.141-2.461.318-4.917.448-7.378.123-2.444.229-4.882.3-7.325.076-2.768.1-5.523.082-8.291-.011-2.438-.094-4.882-.135-7.319.006-1.019.012-2.032.023-3.045.006-.918.071-1.843.106-2.761.077-1.749.206-3.5.33-5.241.277-3.816.565-7.632.9-11.441.442-5.011.954-10.016,1.413-15.028q.372-4.134.783-8.267c.248-2.52.554-5.029.86-7.543-.006.076-.017.147-.023.218.041-.283.082-.565.129-.848.23-1.519.465-3.038.695-4.558.206-1.337.489-2.661.73-3.992.424-2.32.883-4.64,1.4-6.943,1.125-5.071,2.274-10.13,3.548-15.166.519-1.919,1.027-3.848,1.592-5.755.636-2.155,1.29-4.293,1.967-6.436.66-2.079,1.378-4.146,2.09-6.213.613-1.778,1.314-3.527,1.979-5.282-.024.065-.053.13-.082.2q.521-1.245,1.042-2.491c.312-.759.612-1.531.948-2.279.707-1.578,1.448-3.138,2.155-4.71.33-.736.73-1.449,1.1-2.167.4-.784.789-1.567,1.19-2.35.353-.683.765-1.343,1.142-2.014.395-.689.783-1.378,1.178-2.067.362-.591.742-1.169,1.12-1.749l.693-.7c.407-.377.825-.748,1.237-1.125s.818-.783,1.254-1.136c.848-.7,1.708-1.378,2.556-2.067.748-.554,1.495-1.1,2.249-1.649.636-.465,1.307-.895,1.967-1.337.6-.406,1.2-.806,1.814-1.183.724-.454,1.436-.93,2.172-1.355l-.007,0c.031-.018.066-.034.1-.054l.053-.03-.006.006.253-.147,0,0,.032-.02c.026-.015.053-.029.08-.043.15-.078.3-.157.445-.245.226-.111.435-.25.65-.372h0l.008,0,0,0,.007,0h.007a.083.083,0,0,1,.02-.016l-.008,0c.308-.175.617-.344.926-.524l-.01.006.085-.048.049-.027.026-.015a.592.592,0,0,0-.052.031.316.316,0,0,0-.041.023c.789-.388,1.578-.771,2.367-1.16.056-.027.116-.049.173-.074-.09.1-.187.19-.273.292-.977,1.16-1.949,2.332-2.927,3.486-.329.388-.606.824-.906,1.231-.536.736-1.078,1.466-1.62,2.2-.288.4-.6.783-.865,1.2-.3.459-.595.919-.895,1.378-.53.818-1.066,1.637-1.6,2.456-.224.347-.471.689-.677,1.048q-1.158,1.988-2.3,3.98c-.535.925-1.024,1.861-1.513,2.809-.43.83-.866,1.661-1.3,2.491-.148.294-.307.577-.442.877q-1.024,2.19-2.037,4.381c-.418.907-.789,1.826-1.16,2.75-.554,1.39-1.107,2.785-1.673,4.175-.153.383-.265.789-.394,1.178l-.831,2.49c-.282.86-.571,1.714-.859,2.574-.083.265-.183.524-.253.789-.413,1.5-.831,3.009-1.243,4.51-.277,1.025-.606,2.044-.824,3.08-.348,1.6-.7,3.209-1.037,4.811-.206.959-.435,1.913-.6,2.879-.454,2.632-.925,5.264-1.337,7.9s-.824,5.306-1.236,7.956c-.336,1.124-.678,2.243-1.013,3.362-.324,1.078-.589,2.179-.866,3.268-.3,1.154-.6,2.3-.848,3.463-.271,1.26-.553,2.514-.8,3.78-.494,2.591-1,5.193-1.372,7.808-.383,2.632-.777,5.264-1.054,7.908q-.416,4.037-.771,8.079v-.03c-.13,1.5-.242,3-.336,4.493-.1,1.561-.218,3.121-.3,4.688-.165,3.268-.33,6.536-.471,9.81-.218,5.164-.348,10.34-.489,15.51q-.22,7.684-.218,15.369c0,2.885.024,5.759.071,8.638.041,2.32.1,4.646.153,6.966.118,5.382.2,10.77.43,16.152.224,5.211.488,10.416.936,15.616.253,2.956.536,5.912.824,8.868.112,1.095.26,2.191.4,3.28.038.3.08.6.118.9q-.5.894-1.007,1.784c-.838,1.484-1.639,2.99-2.424,4.5-.376-.53-.769-1.049-1.186-1.549-.665-.789-1.343-1.578-2.043-2.344C22.413,239.19,22.1,238.837,21.783,238.5Zm56.287,3.211c-.035-.036-.064-.071-.1-.107-.112-.147-.224-.294-.329-.453-.218-.359-.424-.724-.619-1.107a35.669,35.669,0,0,1-1.45-3.991c-.334-1.1-.646-2.219-.945-3.336,1.305,3.107,2.588,6.222,3.955,9.3-.055-.023-.11-.05-.17-.077a1.437,1.437,0,0,1-.206-.123C78.159,241.776,78.112,241.741,78.07,241.706Zm.342.247a.687.687,0,0,0,.076.023c.032.011.063.025.094.037h0c-.028-.009-.055-.016-.083-.026Zm56.711-11.224a3.018,3.018,0,0,1-.332-.1c-.269-.1-.534-.219-.792-.346a29.331,29.331,0,0,0-4.511-2.5,5.335,5.335,0,0,0-3.365-.157c.151-.273.306-.545.474-.807.129-.171.271-.342.412-.512.106-.112.212-.219.324-.325a.327.327,0,0,0,.064-.041.231.231,0,0,0,.042-.023.93.93,0,0,0,.1-.037c.073-.019.146-.037.223-.051.106-.012.212-.024.318-.03a3.41,3.41,0,0,1,.353.006,3.369,3.369,0,0,1,.342.053c.094.023.188.053.282.082.265.106.524.218.778.342-.024-.018-.053-.03-.077-.047l.088.053c.042.018.077.029.112.047l-.088-.035a11.261,11.261,0,0,1,1.06.624c1.484,1.077,2.832,2.326,4.21,3.533l.361.32c-.036,0-.071,0-.108,0C135.3,230.759,135.212,230.747,135.123,230.729Zm21.911-9.975c-.465.206-.936.389-1.419.548-.072.021-.145.033-.217.052.238-.243.477-.485.706-.734.483-.512.942-1.066,1.472-1.543l.2-.147.148.124c.16.155.315.31.464.477.1.128.2.263.295.394C158.136,220.207,157.589,220.488,157.034,220.754Z"/><path d="M83.546,111.191a12.246,12.246,0,0,0-1.2-.854L81,109.507c-.395-.241-.819-.442-1.225-.666-.353-.188-.7-.382-1.06-.559q-2.428-1.2-4.858-2.379c-1.649-.8-3.292-1.59-4.952-2.361-.4-.241-.784-.494-1.168-.752a11.616,11.616,0,0,1-1.112-.88c-.121-.108-.235-.224-.346-.341.429-.271.859-.542,1.3-.806a23.682,23.682,0,0,0,5.812-4.9,17.341,17.341,0,0,0,2.2-3.209,8.847,8.847,0,0,0,1-3.121,10.354,10.354,0,0,0-.218-3.221c.053-.382.095-.771.118-1.165a9.686,9.686,0,0,0-1.861-6.607,6.76,6.76,0,0,0-2.7-1.932,9.4,9.4,0,0,0-3.274-.624,13.526,13.526,0,0,0-3.8.4c-.376.1-.741.212-1.1.347-.377,0-.753.024-1.124.059a7.812,7.812,0,0,0-3.427,1.048,8.961,8.961,0,0,0-2.426,2.12,9.943,9.943,0,0,0-1.614,3.1,15.566,15.566,0,0,0-.606,3.374,36.746,36.746,0,0,0,.182,6.489q.186,1.688.371,3.374c.1.96.259,1.914.4,2.868.247,1.814.541,3.627.824,5.441q.257,1.669.524,3.339c.135,2.072.259,4.151.442,6.224a1.338,1.338,0,0,0,.677,1.048,3.456,3.456,0,0,0,.224.477,5.489,5.489,0,0,0,.865,1.183,9.468,9.468,0,0,0,1.1.907,1.821,1.821,0,0,0,1.09.365,1.7,1.7,0,0,0,1.348-.647,1.767,1.767,0,0,0,.03-2.114,8.89,8.89,0,0,0-.047-1.578c-.053-1.443-.1-2.892-.206-4.334-.124-1.478-.248-2.957-.371-4.428l-.036-.371a12.817,12.817,0,0,0,1.4.677c.4.188.8.371,1.189.559.589.277,1.178.56,1.761.842.359.23.724.454,1.1.677q2.367,1.44,4.764,2.833c1.625.936,3.262,1.872,4.905,2.779.8.436,1.59.872,2.4,1.289.442.23.89.46,1.349.666a4.827,4.827,0,0,0,1.925.553,2.125,2.125,0,0,0,1.861-1.018,2.171,2.171,0,0,0,.041-2.079A3.561,3.561,0,0,0,83.546,111.191ZM58.426,85.329c-.017-.065-.041-.124-.064-.188a.394.394,0,0,0,.011-.083c.059-.241.118-.477.183-.712C58.509,84.676,58.468,85.005,58.426,85.329Zm6.3,11.759a15.732,15.732,0,0,0-1.513,1.425,6.859,6.859,0,0,0-.677.966c-.03.024-.065.047-.095.071a6.689,6.689,0,0,0-.83.683q-.114-2.36-.235-4.735,0-2.1-.006-4.2c0-.565.064-1.136.094-1.7.041-.647.076-1.293.116-1.94a37.082,37.082,0,0,1,.579-4.037c.07-.265.147-.524.229-.789.118-.294.236-.583.371-.871.095-.183.2-.36.312-.536.053-.071.106-.141.165-.206.147-.159.295-.3.454-.442.147-.118.294-.229.447-.335.006-.006.018-.006.024-.012.118.006.235.012.353.023.395.041.783.106,1.172.183.253.059.5.135.742.218.224.088.447.182.659.282a16.039,16.039,0,0,1,1.46.893c.582.416,1.144.852,1.684,1.316.392.367.778.75,1.137,1.154.236.3.46.6.677.912.148.253.283.513.413.772.047.118.094.229.135.347-.088.336-.194.671-.306,1a17.847,17.847,0,0,1-.742,1.69c-.274.52-.566,1.022-.887,1.507l-.014.018c-.03.047-.065.1-.094.148a1.654,1.654,0,0,1,.088-.142,30.569,30.569,0,0,1-1.92,2.426c-.959,1.037-1.972,2.008-2.991,2.98C65.4,96.482,65.063,96.782,64.727,97.088Z"/><path d="M96.018,108.6q-.653-5.512-1.313-11.023c-.436-3.7-1-7.4-1.343-11.106A1.887,1.887,0,0,0,92.155,84.9a1.771,1.771,0,0,0-1.813-.63,1.835,1.835,0,0,0-1.308,1.195,1.358,1.358,0,0,0-1.248.165,2.553,2.553,0,0,0-.86,2.2,18.935,18.935,0,0,0,.1,2.379c.106,1.078.212,2.161.317,3.239.16,1.59.371,3.174.56,4.758.206,1.766.406,3.533.612,5.3.1.872.2,1.749.3,2.621a34.675,34.675,0,0,0,.612,4.333,1.379,1.379,0,0,0,1.29,1.054.781.781,0,0,0,.111-.005c.018.17.036.341.059.512a8.406,8.406,0,0,0,.371,1.454,1.668,1.668,0,0,0,1.425,1.072c.036.23.071.465.106.7a1.956,1.956,0,0,0,1.9,1.713c.065,0,.13,0,.2-.006a1.938,1.938,0,0,0,1.7-2.1c-.088-1.3-.147-2.6-.294-3.892C96.2,110.168,96.106,109.385,96.018,108.6Z"/><path d="M102.743,95.115c.041.907.059,1.813.135,2.715.094,1.107.189,2.207.283,3.309.147,1.8.359,3.6.565,5.393.112.937.218,1.873.33,2.809.059.471.124.942.182,1.408a8.177,8.177,0,0,0,.153,1.065,3.5,3.5,0,0,0,.271.8c.106.2.23.389.354.583a1.928,1.928,0,0,0,1.66.854,2.105,2.105,0,0,0,2.091-1.519,12.138,12.138,0,0,0,.329-1.584c.071-.648.112-1.3.148-1.943.023-.442.047-.878.064-1.319.047-1.043.089-2.085.136-3.133.065-1.543.1-3.091.141-4.64.024-.819.041-1.643.065-2.461a2.34,2.34,0,0,0,1.024.683,3.369,3.369,0,0,0,2.267-.036,10.9,10.9,0,0,0,1.573-.683c.259-.135.512-.265.765-.4a24.413,24.413,0,0,0,7.06-2.456,12.808,12.808,0,0,0,4.982-5.011,9.4,9.4,0,0,0,.559-7.29,11.273,11.273,0,0,0-4.5-5.823,10.748,10.748,0,0,0-5.889-1.614c-.141-.047-.282-.088-.424-.123a8.25,8.25,0,0,0-6.53,1.366,13.829,13.829,0,0,0-3.05,2.785A14.226,14.226,0,0,0,104.58,82.7C102.637,86.506,102.543,90.94,102.743,95.115Zm7.278-5.718a28.484,28.484,0,0,1,.453-3.079c.124-.56.283-1.113.46-1.667a13.354,13.354,0,0,1,.529-1.23c.053-.1.107-.183.165-.277l.318-.407c.118-.117.242-.235.365-.347.053-.041.106-.077.165-.118a2.416,2.416,0,0,1,.248-.135c.182-.083.371-.153.559-.218.112-.029.218-.053.33-.077.253-.035.494-.058.748-.076.247,0,.494.006.742.023s.5.071.753.112c.324.077.642.171.96.277.424.159.842.341,1.254.542.448.241.878.494,1.3.777.253.177.488.359.724.554.029.229.053.459.071.694a9.909,9.909,0,0,1-.03,1.019c-.035.312-.076.618-.135.919-.077.306-.159.606-.254.906-.111.283-.229.554-.365.825-.164.294-.341.589-.53.871-.053.071-.1.142-.159.212-.147.106-.3.212-.453.313a32.269,32.269,0,0,1-3.162,1.678c-.895.388-1.8.748-2.72,1.054a19.852,19.852,0,0,1-1.932.471c-.212.029-.43.064-.642.1C109.838,91.87,109.915,90.628,110.021,89.4Z"/><path d="M95.741,40.535c-.5.115-1.007.218-1.51.33.033-1.28.065-2.559.1-3.841.018-.73.041-1.46.077-2.2.023-.518.047-1.036.076-1.554.018-.289.065-.589.106-.878.018-.112.041-.218.053-.324a1.31,1.31,0,0,0-1.019-1.513,1.409,1.409,0,0,0-.541.017,1.43,1.43,0,0,0-2.12,1.161c-.053,2.844-.206,5.688-.324,8.532-.02.463-.031.927-.049,1.39-.064.014-.128.029-.192.042a64.685,64.685,0,0,0-6.695,1.478,1.392,1.392,0,0,0-.507.289c-.447.141-.889.294-1.331.471-.936.371-2.29.966-2.361,2.143a1.5,1.5,0,0,0,1.178,1.578,1.366,1.366,0,0,0,1.584-.912c.2-.1.394-.189.6-.277.324-.13.66-.247,1-.359.011.006.023.006.035.012a12.174,12.174,0,0,0,2.738-.024c.6-.041,1.207-.082,1.808-.135.636-.054,1.278-.1,1.914-.177l.1-.01c-.009.415-.01.83-.016,1.245v.038c-.015.961-.039,1.922-.039,2.883,0,.14,0,.281.006.422-.047,1.154-.1,2.308-.135,3.463-.059,1.595-.088,3.191-.077,4.793.006.777.006,1.554.053,2.337.03.424.059.848.1,1.278a4.46,4.46,0,0,0,.26,1.331,1.141,1.141,0,0,0,.27.377c.036.288.077.577.136.865.147.7.347,1.661,1.083,1.967a1.556,1.556,0,0,0,.595.124,1.272,1.272,0,0,0,.966-.43,3.2,3.2,0,0,0,.618-1.372,14.707,14.707,0,0,0,.336-1.737c.082-.565.123-1.136.177-1.7.047-.465.058-.93.076-1.395.035-.737.053-1.473.029-2.209-.016-.481-.064-.958-.111-1.436q.048-1.981-.048-3.962c-.122-2.487-.3-4.971-.455-7.454l.438-.082c.547-.1,1.089-.241,1.631-.382,1.289-.324,2.573-.654,3.851-1v0l.013,0,.056-.014,0,0c.017-.006.041-.012.064-.018a.2.2,0,0,0-.058.012c.052-.018.106-.029.153-.041a.284.284,0,0,0,.029-.006h-.012c.165-.041.324-.082.489-.118a8,8,0,0,0,1.466-.283,1.482,1.482,0,0,0,.984-1.26,1.336,1.336,0,0,0,.624-.076c.483-.177.971-.336,1.442-.536a1.555,1.555,0,0,0,.006-2.779c-.011-.006-.029-.012-.041-.018a1.946,1.946,0,0,0-1.242-.082c-.189.035-.377.076-.566.123-.377.083-.748.171-1.118.265-.8.194-1.6.389-2.409.583C98.639,39.846,97.2,40.2,95.741,40.535Z"/><path d="M59.645,12.362c.021-.012.043-.022.063-.034h0Z"/></svg>