<svg xmlns="http://www.w3.org/2000/svg" width="360.204" height="288.079" viewBox="0 0 360.204 288.079"><path d="M69.31,257.476c.019.016.036.035.056.051l.144.12C69.445,257.588,69.374,257.536,69.31,257.476Z"/><path d="M147.231,216.193l.122.022c.03,0,.061.007.09.013Z"/><path d="M60.33,216.287l.057,0,.149.007C60.471,216.293,60.4,216.293,60.33,216.287Z"/><path d="M131.615,217.223h.006l.021,0Z"/><path d="M190.237,240.475a2.09,2.09,0,0,0-.11-.3,14.28,14.28,0,0,0-.57-1.374,22.742,22.742,0,0,0-1.978-3.31q-.659-.9-1.393-1.743a5.115,5.115,0,0,0-.792-1.018,5.752,5.752,0,0,0-.656-.522q-.573-.568-1.173-1.108-.212-.249-.438-.484a4.12,4.12,0,0,0-1.188-.9,61.792,61.792,0,0,0-10.724-6.83,62.221,62.221,0,0,0-9.834-4.428,26.192,26.192,0,0,0-8.5-1.208c-.119,0-.239.012-.358.017-.865-.2-1.73-.432-2.61-.584l.218.036c-.925-.169-1.85-.343-2.775-.5s-1.871-.243-2.8-.346a27.191,27.191,0,0,0-6.636.118c-2.068.281-4.1.734-6.131,1.2.016,0,.032-.007.048-.009l-.158.034-.054.012c-1.07.232-2.124.546-3.168.867-1.3.394-2.579.813-3.857,1.248q-.684.233-1.373.463-1.608.231-3.213.474c-2.158.319-4.326.628-6.461,1.092a16.18,16.18,0,0,0-2.457.749c-.031,0-.061,0-.092-.01a6.825,6.825,0,0,1-.673-.148c-.142-.048-.285-.1-.422-.158-.049-.023-.1-.049-.144-.074.317-1.417.645-2.831.874-4.266a29.97,29.97,0,0,0,.342-3.48,14.7,14.7,0,0,0-.211-3.39,4.076,4.076,0,0,0-.125-.467,3.935,3.935,0,0,0-1.8-2.332,2.959,2.959,0,0,0-3.191.348,13.056,13.056,0,0,0-2.226,2.867c-1.219,1.784-2.373,3.61-3.569,5.406q-1.322,1.986-2.668,3.942c-.493.542-1,1.075-1.524,1.588-.382.343-.767.684-1.18.992l-.057.035-.087-.066c-.092-.085-.183-.173-.271-.263-.132-.155-.254-.312-.375-.474-.216-.332-.413-.671-.6-1.02-.274-.575-.519-1.16-.749-1.755-.256-.752-.473-1.514-.671-2.285q-.038-1.441-.072-2.885c-.012-.794-.024-1.59-.041-2.384-.006-.354-.012-.713-.018-1.066-.006-.324-.006-.63-.035-.948a5.45,5.45,0,0,0-.259-1.184,2.565,2.565,0,0,0-2.809-1.813,3.932,3.932,0,0,0-2.155,1.048,8.776,8.776,0,0,0-.8.993c-.129.132-.254.264-.373.4a35.719,35.719,0,0,0-3.25,4.316c-1.119,1.669-2.162,3.4-3.418,4.967q-.57.672-1.2,1.281c-.207.186-.421.363-.645.53-.136.089-.272.171-.413.251-.067.03-.138.062-.209.091l.121-.041-.011.006c-.077.027-.155.051-.234.074l-.088.012-.033,0-.08-.007-.1-.022c-.083-.03-.163-.061-.243-.1-1.2-.578-2.362-1.227-3.6-1.731q-.989-.4-1.984-.778a18.662,18.662,0,0,0-1.832-.6,34.565,34.565,0,0,0-3.7-.795,35.739,35.739,0,0,0-3.806-.431l-1.853-.082c.064.006.135.006.2.012-.147-.006-.289-.018-.436-.023.065,0,.136,0,.2.011-.712-.047-1.436.024-2.155.048-.618.017-1.236.094-1.855.164a48.64,48.64,0,0,0-5.582.942c-.317.073-.634.147-.949.222l-.67-.045c-1.39-.094-2.791-.1-4.187-.071a75,75,0,0,0-8.968.666c-.924.136-1.843.259-2.756.43-.965.188-1.937.347-2.891.577-1.007.241-2.026.453-3.021.73-1.066.294-2.137.595-3.209.883-1.778.477-3.527,1.06-5.27,1.643q-2.823.952-5.606,1.994l.053-.021c-.759.259-1.5.589-2.255.883-.548.218-1.1.424-1.649.659-1.148.5-2.308.978-3.427,1.543-.6.3-1.178.613-1.743.96a6.89,6.89,0,0,0-1.242.9A3.316,3.316,0,0,0,.2,230.554a3.537,3.537,0,0,0-.194.707,3.034,3.034,0,0,0,.029.654,3.307,3.307,0,0,0,1.937,2.273c.46.241.919.488,1.372.736.872.477,1.743.96,2.6,1.448,3.245,1.842,6.466,3.72,9.633,5.68.339.23.672.465,1.007.7a8.7,8.7,0,0,0-.482.966,13.257,13.257,0,0,0-.612,2.343,1.821,1.821,0,0,0,2.013,2.208,11.929,11.929,0,0,0,2.591-.429,8.43,8.43,0,0,0,1.556-.8,2.819,2.819,0,0,0,.835.508,4.521,4.521,0,0,0,2.469.083c1.1-.239,2.188-.508,3.284-.751.773-.156,1.552-.3,2.332-.428.639-.1,1.29-.175,1.935-.261.576-.039,1.159-.11,1.733-.11H36.12c1.094.061,2.184.146,3.269.309.717.133,1.43.291,2.138.493.446.146.879.306,1.308.488.107.052.209.114.315.168.289.457.56.922.813,1.4a69.093,69.093,0,0,1,2.93,7.09c.253.688.506,1.378.771,2.061a3,3,0,0,0,1.684,1.642,3.234,3.234,0,0,0,2.044.059,5.448,5.448,0,0,0,1.89-1.142c.318-.248.63-.495.948-.748.485-.392,1.006-.755,1.509-1.123.322-.217.65-.42.977-.626q.278-.007.555-.012c.572.036,1.137.09,1.711.168q.7.138,1.392.326c.454.151.895.32,1.333.512.694.332,1.347.724,2.007,1.121.573.384,1.14.77,1.7,1.177.49.357.959.748,1.428,1.137.412.37.814.745,1.194,1.148.335.379.653.771.952,1.184a25.435,25.435,0,0,1,1.428,2.366,18.526,18.526,0,0,1,.816,1.9c.193.58.356,1.166.494,1.759a35.489,35.489,0,0,1,.494,3.767l0-.036q.167,2.687.206,5.371c.029,1.9-.024,3.816.111,5.712.042.582.089,1.165.177,1.742a4.211,4.211,0,0,0,.454,1.461,2.251,2.251,0,0,0,1.914,1.125,2.309,2.309,0,0,0,1.6-.66,2.841,2.841,0,0,0,.43-.559c.106-.2.188-.418.277-.625.206-.5.377-1.018.577-1.525q.945-2.4,2.025-4.74c-.035.077-.07.154-.112.23.3-.625.595-1.253.9-1.876.752-1.091,1.325-2.305,1.964-3.464.259-.471.53-.93.8-1.4s.522-.9.782-1.354c.2-.3.394-.588.608-.868q.672-.888,1.357-1.776c.348-.4.7-.8,1.039-1.2.537-.616,1.107-1.193,1.7-1.75a26.038,26.038,0,0,1,2.275-1.832c.6-.4,1.216-.775,1.853-1.121.464-.229.936-.435,1.42-.624.431-.148.863-.275,1.306-.382.322-.059.642-.105.964-.14.242-.013.484-.019.729-.014.264.021.525.052.786.094.207.047.409.1.615.155.222.077.438.16.653.253.2.1.391.207.581.32.192.132.378.267.561.408a12.5,12.5,0,0,1,1.007.944c.394.471.716.99,1.1,1.463A2.723,2.723,0,0,0,105,267.2c1.208-.023,2.05-1.13,2.8-1.954,1.129-1.222,2.3-2.381,3.511-3.527a44.711,44.711,0,0,1,3.673-3.027l-.028.018c.687-.467,1.4-.894,2.124-1.3a6.336,6.336,0,0,0,1.261-.282c.23-.083.459-.148.695-.213.9-.253,1.8-.494,2.7-.753,1.828-.528,3.637-1.092,5.445-1.67.342-.049.684-.1,1.025-.15,1.307-.185,2.62-.325,3.933-.458,1.717-.129,3.435-.188,5.163-.19.777.053,1.561.086,2.338.116.708.055,1.421.178,2.124.269.67.119,1.34.243,2.006.386.535.118,1.065.242,1.6.342a8.072,8.072,0,0,0,2.809.218,4.007,4.007,0,0,0,2.4-1.29,9.619,9.619,0,0,0,1.189-1.86c.347-.611.706-1.212,1.07-1.805a37.1,37.1,0,0,1,2.318-3.247c.413-.476.841-.933,1.3-1.367.4-.351.811-.68,1.241-.991.342-.228.692-.438,1.047-.641.751-.092,1.5-.18,2.257-.254.643-.05,1.293-.1,1.944-.09a15.524,15.524,0,0,0,4.989-.514,10.632,10.632,0,0,0,2.868-1,4.9,4.9,0,0,0,1.087-.908l.219-.024c.178.06.354.127.533.184l-.009,0c1.377.482,2.763.934,4.145,1.4a3.265,3.265,0,0,0,1.6,1.8,2.024,2.024,0,0,0,2.252-.616c.158.041.314.093.474.132a8.641,8.641,0,0,0,2.085.285,4.779,4.779,0,0,0,2.041-.417c.173.021.347.034.52.048a3.118,3.118,0,0,0,.484.629,2.7,2.7,0,0,0,1.684.794,2.458,2.458,0,0,0,2.172-1.006,3.018,3.018,0,0,0,.542-1.915,6.336,6.336,0,0,0-.388-1.866Zm-165.99-.429c-.75.684-1.49,1.38-2.234,2.074-.208-.182-.408-.373-.62-.549.376-.677.74-1.358,1.139-2.023.339-.57.674-1.144,1.01-1.717.747.238,1.492.481,2.238.72-.519.509-1.03,1.027-1.564,1.521Zm-13.995-5.593c.462.185.928.356,1.4.508.279.088.558.172.839.254-.083.134-.154.268-.223.405Q11.264,235.034,10.252,234.453Zm162.181,1.71a2.038,2.038,0,0,0-.011.646c-.049,0-.1.007-.147.01a5.468,5.468,0,0,0-.842-1.33,11.749,11.749,0,0,0-1.578-1.436,17.647,17.647,0,0,0-1.607-1.142q-.555-.348-1.128-.659c-.018-.081-.044-.16-.067-.239l.308.052-.1-.019.143.027.122.02-.062-.009c.187.035.372.078.558.115q1.084.406,2.165.816c.093.073.193.137.284.212.058.049.116.1.171.151a4.1,4.1,0,0,0,.639.631,1.838,1.838,0,0,0,.291.167l-.032-.015c.059.03.111.054.17.083a1.107,1.107,0,0,0,.517.094c.212.344.425.686.63,1.034A1.51,1.51,0,0,0,172.433,236.163ZM131.9,244.829c-1.858.639-3.669,1.409-5.5,2.114-.892.347-1.78.693-2.663,1.059q-.993.39-1.983.783l-.363.145q1.775-1.572,3.555-3.14l.4-.351a3.011,3.011,0,0,0,2.058.1,7.454,7.454,0,0,0,2.179-1.083c.795-.571,1.5-1.249,2.273-1.843s1.572-1.2,2.332-1.837c.348-.291.692-.585,1.037-.879l.279-.075c-.4.588-.8,1.172-1.193,1.766a8.113,8.113,0,0,0-1.007,2.038,3.469,3.469,0,0,0-.142.735C132.738,244.517,132.316,244.668,131.9,244.829ZM30.632,232.1l-.039.046c-.668.085-1.339.155-2.01.224l-.132-.039-.118-.037.029.01-.224-.069c.089.03.177.053.265.082l-.689-.212.042.012-.078-.024q1.119-.219,2.241-.436l1.191-.134c-.169.2-.337.405-.5.607Zm4.668-5.825c.334-.219.667-.445,1-.669-.3.293-.592.589-.882.89-.159.017-.318.039-.477.057C35.061,226.465,35.178,226.369,35.3,226.279Zm69.434-7.95c.021.156.034.311.059.467s.052.3.077.448c-.187.832-.374,1.664-.535,2.5-.129.652-.245,1.3-.337,1.961-.124.03-.247.061-.37.094a18.587,18.587,0,0,0-3.526,1.353q1.389-1.9,2.684-3.862C103.442,220.308,104.086,219.317,104.734,218.329Zm21.8,5.266c.977-.178,1.957-.335,2.938-.477a1.659,1.659,0,0,0,1.478,1.513c.913.047,1.831.135,2.744.124.823-.011,1.641-.045,2.462-.095-.8.374-1.6.773-2.376,1.19l-.062.024c-1.446.574-2.905,1.129-4.338,1.74-.788.08-1.574.171-2.363.263a2.391,2.391,0,0,0-1.942-3.784,2.189,2.189,0,0,0-.643.1q-3.215.986-6.413,2.016a3.906,3.906,0,0,0-.536-.86q.215-.048.429-.093Q122.212,224.379,126.534,223.6Zm32.586-.837c.716.312,1.448.583,2.162.894a27.439,27.439,0,0,1,2.75,1.442c.6.39,1.174.81,1.726,1.255.545.465,1.062.966,1.562,1.481l-.651-.106c.083.011.171.029.259.041a11.784,11.784,0,0,0-3.244-.224,2.335,2.335,0,0,0-.559.143c-1.131-.39-2.267-.767-3.392-1.157-.331-.114-.663-.225-1-.336a3.06,3.06,0,0,0,.212-.6,3.358,3.358,0,0,0-.768-3.105c.153.034.307.064.46.1C158.805,222.64,158.967,222.694,159.12,222.758Zm1.558,14.991c.966-.223,1.93-.457,2.865-.764.408-.131.821-.252,1.217-.4q.39.215.773.443c.13.085.247.183.374.271l-.322.026C163.948,237.462,162.313,237.607,160.678,237.749Zm-59.438-8.211.012-.01c.259-.166.525-.317.8-.466a16.68,16.68,0,0,1,1.622-.734l.03-.01a8.618,8.618,0,0,0,.323.953,2.217,2.217,0,0,0,.132.283,3.324,3.324,0,0,0-1.411-.309A4.345,4.345,0,0,0,101.24,229.538Zm53.745,4.469c0-.057,0-.114-.01-.171a2.155,2.155,0,0,0-.088-.345q.8.064,1.6.171l-.107.126C155.914,233.869,155.451,233.945,154.985,234.007Zm-36.127,11.171,2.01-2.02c.352-.062.707-.112,1.059-.178-1.471,1.3-2.943,2.612-4.409,3.91l-.786.7C117.449,246.8,118.153,245.987,118.858,245.178Zm-8.852-16.389c.53-.43,1.058-.863,1.6-1.273.18.023.359.049.539.077.326.061.65.125.973.2Q111.563,228.295,110.006,228.789Zm-32.23,16.7c.078-.015.157-.033.235-.049-.033.066-.067.132-.1.2C77.866,245.589,77.822,245.538,77.776,245.489Zm9.076-18.667c.018.336.041.673.063,1.01-1.114,1.132-2.147,2.34-3.22,3.5-.294.317-.586.635-.88.951.864-1.927,1.7-3.867,2.554-5.8.069-.1.135-.2.2-.294q.585-.752,1.176-1.5C86.782,225.4,86.815,226.112,86.852,226.822Zm-.667-8.151a2.18,2.18,0,0,0-.411-.211,2.1,2.1,0,0,0-.628-.135q.666-1.028,1.332-2.048l.009.605c.008.5.021,1.007.033,1.511A1.738,1.738,0,0,0,86.185,218.671ZM69.323,231.945c-.844.808-1.625,1.679-2.456,2.5l-.011-.021c.735-.871,1.461-1.75,2.191-2.627Zm-4.742-1.56.023-.025c-.259.323-.5.659-.747.991l-1.448,1.927-.259.3-1.176,1.341c-.518-.252-1.039-.5-1.55-.759-.032-.016-.064-.027-.095-.043.449-.712.9-1.427,1.372-2.117.739-1.068,1.485-2.13,2.227-3.194l2.128,1Zm-11.565-4.279q.363.079.726.156l-.3.274c.025-.025.051-.049.077-.072l-.08.073.1-.1c-.052.047-.106.1-.16.149l-.317.293c.015-.016.031-.031.047-.046q-.467.432-.94.864l.021-.017c-.371.339-.737.674-1.1,1.013l.055-.053c-.407.376-.819.744-1.224,1.123l-.147.128c.508-.579,1.01-1.164,1.506-1.746l1.425-1.69Zm3.771,2.947q.431-.558.873-1.107l.228-.215Q57.336,228.391,56.787,229.053ZM41.7,226.587c-.036-.025-.074-.048-.112-.07.233-.4.454-.8.687-1.2a1.664,1.664,0,0,0,.216-1l2.13-.152Q43.159,225.373,41.7,226.587Zm52.429,6.064c.784-.849,1.528-1.727,2.26-2.617.082-.1.163-.2.244-.3a6.416,6.416,0,0,0,.034,1.16,3.045,3.045,0,0,0,.58,1.434c-.489.426-.979.852-1.454,1.293l-.151.059c-.984.386-1.966.77-2.944,1.163a2.07,2.07,0,0,0-.27-.73A7.135,7.135,0,0,0,94.13,232.651Zm-75.572,6.672-.052.092-.063-.04C18.48,239.355,18.521,239.343,18.558,239.323Zm10.008-6.953.015,0h0Zm18.427,12.306a13.621,13.621,0,0,0-2.224-2.422q1.281.418,2.56.844c.559.188,1.121.371,1.682.558-.028.078-.062.153-.087.232a7.279,7.279,0,0,0-.347,1.66c-.032.366-.03.736-.032,1.1-.251-.276-.511-.543-.786-.793C47.516,245.457,47.268,245.059,46.993,244.676Zm5.034,8.267c-.116.036-.231.074-.347.111a21.988,21.988,0,0,0-.807-2.661,12.368,12.368,0,0,0-.519-1.123,2.231,2.231,0,0,0,1.267-.259c.075-.041.154-.081.231-.121.66-.333,1.333-.651,1.98-1.009a2.531,2.531,0,0,0,1.6,2.023q.528.191,1.055.376a30.148,30.148,0,0,0-4.238,2.6C52.175,252.9,52.1,252.919,52.027,252.943Zm40.695,4.718q.732-1.242,1.479-2.474l.052-.029a7.805,7.805,0,0,0,.984-.642q.3-.234.6-.482-1.251,1.878-2.489,3.768a2,2,0,0,0-.282,1.528,15.942,15.942,0,0,0-1.758.761Zm.246-31.621c-.22.279-.438.56-.659.84l-.229.272c-.038-.6-.063-1.2-.095-1.8A4.43,4.43,0,0,0,92.968,226.04ZM75.51,224.2c.044,0,.087,0,.13,0-.268.428-.542.853-.808,1.283l.043-.065c-.03.048-.061.094-.091.142s-.053.086-.08.129l.028-.047q-.847,1.323-1.7,2.651c-.247-.141-.5-.274-.746-.412.072-.088.145-.176.217-.265.548-.654,1.031-1.366,1.537-2.055a2.025,2.025,0,0,0,.319-1.642A4.751,4.751,0,0,0,75.51,224.2Zm-14.438-4.622c.963.1,1.921.248,2.879.4,1.012.215,2,.436,2.994.715,1.164.4,2.306.822,3.438,1.31.37.172.737.355,1.106.533a2.006,2.006,0,0,0-.583.426c-.291.3-.584.608-.875.914-.012-.083-.02-.166-.038-.25a3,3,0,0,0-.824-1.6,4.315,4.315,0,0,0-1.413-.888,22.54,22.54,0,0,0-3.616-.925c-1.537-.263-3.084-.422-4.636-.546-.317-.088-.629-.19-.948-.273C59.4,219.437,60.233,219.477,61.072,219.573ZM19.58,225.285c1.655-.54,3.328-1.026,5-1.5.546-.153,1.095-.3,1.643-.447-.6.291-1.2.591-1.79.918-.865.486-1.707,1.011-2.528,1.564-.977.25-1.947.531-2.9.871q-1.8.006-3.591.038l.772-.293C17.321,226.06,18.454,225.684,19.58,225.285ZM4.616,231.336c.24-.142.485-.276.73-.411a1.7,1.7,0,0,0,.3.22c.085.047.17.095.254.144a1.924,1.924,0,0,0,.571.733c.13.106.264.213.393.32q.349.3.7.582c-.434-.242-.867-.486-1.3-.726C5.72,231.9,5.167,231.622,4.616,231.336Zm29.516,10.795c-.553.042-1.107.071-1.66.112a26.43,26.43,0,0,0-2.8.365c-1.242.215-2.464.492-3.685.779,1.124-1.027,2.237-2.057,3.3-3.144l.418-.422c2.116.7,4.232,1.41,6.271,2.314-.1,0-.2-.01-.294-.01C35.168,242.125,34.644,242.09,34.132,242.131Zm35.234,15.4c-.141-.117-.281-.232-.422-.351.065.059.136.112.2.171-.153-.13-.312-.259-.466-.388l.034.026-.177-.147c.427.174.854.346,1.281.521.482.2.971.412,1.46.6.614.229,1.234.441,1.849.666a5.434,5.434,0,0,0-.348,1.218l0,.026a2.459,2.459,0,0,0-.829.431A16,16,0,0,0,69.366,257.527Zm6.957,20.754c-.03-1.808-.089-3.61-.195-5.418-.054-.938-.141-1.888-.264-2.832.054,0,.108,0,.159.006l-.071,0c.17.01.34.018.509.018a3.784,3.784,0,0,0,1.028-.125c.1-.029.2-.076.3-.111-.159.357-.32.714-.479,1.072-.371.842-.689,1.684-1,2.555a2.059,2.059,0,0,0,.846,2.449q-.233.7-.463,1.4a2.205,2.205,0,0,0-.112.662c-.086.184-.177.366-.262.551Zm31.35-18.42c-.9.857-1.74,1.771-2.591,2.672a12.7,12.7,0,0,0-1.9-1.912,9.38,9.38,0,0,0-5.191-2.1c.975-.9,1.945-1.8,2.847-2.768q.425-.454.848-.908a2.631,2.631,0,0,0-.194.831,2.249,2.249,0,0,0,.336,1.372,3.623,3.623,0,0,0,.989.954,1.988,1.988,0,0,0,2.426-.065l.317-.274a2.055,2.055,0,0,0,2.763,1.591C108.109,259.457,107.889,259.656,107.673,259.861ZM148,251.015c-.049.073-.1.145-.154.215l-.068.068-.02.017-.11.017q-.069,0-.138,0c-.276-.023-.552-.053-.823-.089-.8-.151-1.574-.349-2.368-.512-.7-.141-1.407-.312-2.114-.406-.724-.089-1.448-.189-2.172-.277-.625-.079-1.27-.084-1.9-.109.457-.235.921-.454,1.374-.7a27.087,27.087,0,0,0,2.957-1.82c-.018.309.013.629.022.932a2.174,2.174,0,0,0,2.738,2.031,10.254,10.254,0,0,0,1.814-.689,14.664,14.664,0,0,0,1.861-1.307c.465-.377.919-.754,1.378-1.131l0,0c-.277.419-.55.84-.809,1.267C148.967,249.348,148.5,250.191,148,251.015Zm29.726-14.234c-.016-.03-.032-.061-.049-.091-.205-.372-.416-.743-.623-1.116.1.033.191.071.288.1,1.06.359,2.1.718,3.174,1,.48.126.961.237,1.442.345l.043.051A39.836,39.836,0,0,0,177.729,236.781Z"/><path d="M172.4,236.306l.01-.057c0,.016-.009.03-.01.046Z"/><path d="M172.414,236.249c0-.029.013-.057.019-.086s0-.038.006-.057C172.431,236.153,172.422,236.2,172.414,236.249Z"/><path d="M113.45,221.386c.033-.007.066-.012.1-.02.07-.015.138-.035.207-.05Z"/><path d="M96.4,230.019l-.013.015-.025.032Z"/><path d="M356.552,29.26l.075.149c.021.041.045.08.066.121C356.646,29.442,356.6,29.348,356.552,29.26Z"/><path d="M360.014,37.344c-.165-.571-.365-1.136-.577-1.7a58.664,58.664,0,0,0-2.81-6.234c-.725-1.4-1.513-2.767-2.36-4.1-.471-.742-1-1.448-1.5-2.161-.188-.265-.394-.506-.594-.754-.236-.294-.46-.612-.719-.889a49.651,49.651,0,0,0-4.175-4.222c-.83-.73-1.666-1.442-2.532-2.132-.842-.671-1.713-1.295-2.6-1.925-.843-.595-1.72-1.154-2.609-1.684-.777-.459-1.555-.948-2.355-1.372a40.436,40.436,0,0,0-4.417-2.108c-1.548-.589-3.138-1.013-4.728-1.466-.418-.118-.848-.207-1.278-.307s-.877-.229-1.319-.311c-1-.183-1.99-.425-2.991-.566s-2.02-.3-3.045-.376c-.6-.048-1.213-.118-1.819-.124-.565-.006-1.137-.006-1.7-.012a50.512,50.512,0,0,0-6.189.5c-.959.117-1.919.3-2.873.453-.459.076-.919.188-1.378.282-.518.107-1.06.183-1.572.325-.9.247-1.832.435-2.721.724-1,.323-2.025.6-3,.989a49.913,49.913,0,0,0-5.682,2.473c-.936.513-1.884,1.007-2.8,1.572-.936.577-1.855,1.178-2.774,1.785-1.639,1.085-3.194,2.289-4.8,3.429-.346.228-.693.448-1.055.653-.215.1-.431.2-.654.288-.114.037-.23.068-.348.095-.093.017-.185.03-.278.04-.053,0-.105.005-.158.005-.084-.008-.166-.014-.247-.023l.105.02h-.022c-.1-.019-.2-.042-.3-.068-.071-.026-.142-.054-.212-.083s-.114-.059-.171-.092-.094-.066-.14-.1l-.018-.016c-.076-.427-.151-.854-.228-1.28-.188-1.072-.383-2.137-.571-3.209-.235-1.325-.43-2.668-.795-3.963a2.032,2.032,0,0,0-.5-.876,4.653,4.653,0,0,0-.1-1.009,2.189,2.189,0,0,0-1.331-1.66,2.136,2.136,0,0,0-.553-.124,2.78,2.78,0,0,0-1-.471,2.911,2.911,0,0,0-2.226.483,5.378,5.378,0,0,0-1.349,1.408c-.382.529-.759,1.06-1.107,1.613-.755,1.188-1.489,2.392-2.231,3.586-.464.715-.944,1.405-1.457,2.074.2-1.839.4-3.678.508-5.528a20.837,20.837,0,0,0-.095-5.683,3.684,3.684,0,0,0-1.3-2.155A2.671,2.671,0,0,0,262.2.925a1.953,1.953,0,0,0-.958-.8,1.916,1.916,0,0,0-2.232.666,4.206,4.206,0,0,0-.552,1.571,1.915,1.915,0,0,0-1.137-.04A1.869,1.869,0,0,0,256.1,3.433a5.123,5.123,0,0,0-.335,1.461c-.811.807-1.6,1.638-2.392,2.462-.825.854-1.649,1.708-2.491,2.544l-.169.168c-.043-.024-.082-.052-.125-.076a26.4,26.4,0,0,0-6.365-2.567,31.914,31.914,0,0,0-7.014-.895c-.024,0-.049,0-.073,0l-.126-.053a54.942,54.942,0,0,0-5.93-1.867A57.471,57.471,0,0,0,225.3,3.374c-1.991-.324-4.01-.612-6.018-.736-1.4-.089-2.809-.207-4.211-.171a25.329,25.329,0,0,0-8.208,1.484A34.624,34.624,0,0,0,202.051,6.3c-.9.513-1.784,1.1-2.632,1.69L199.41,8a16.014,16.014,0,0,0-3.86,1.383,25.269,25.269,0,0,0-5.576,4.116c-.8.76-1.584,1.525-2.355,2.314-.737.748-1.426,1.531-2.12,2.32-.324.371-.619.771-.925,1.16-.253.324-.518.642-.748.984-.353.523-.7,1.042-1.054,1.566a18.571,18.571,0,0,0-1.09,1.875c-.594.551-1.195,1.1-1.778,1.658-1.09,1.059-2.162,2.133-3.251,3.191-.475.277-.938.573-1.383.895a6.908,6.908,0,0,0-1.248,1.007,4.327,4.327,0,0,0-.772,1.272,2.142,2.142,0,0,0,2.291,2.862,4.021,4.021,0,0,0,.83-.23,3.485,3.485,0,0,0,.925-.642c.235-.218.471-.435.7-.659.3-.283.587-.574.876-.863q.393-.23.8-.445l.009,0,.155-.084c-.042.025-.084.047-.127.069.13-.066.264-.119.4-.183a3.208,3.208,0,0,0,.322.527,3.546,3.546,0,0,0,3.4,1.054c.394-.057.787-.1,1.184-.146.478-.02.957-.035,1.435-.036.549.035,1.092.087,1.643.148.565.11,1.117.24,1.671.387.639.23,1.262.466,1.892.721.706.336,1.414.656,2.1,1.034.7.4,1.391.8,2.073,1.223,1.132.768,2.215,1.57,3.288,2.419.877.749,1.747,1.5,2.547,2.336.01.011.017.022.026.033a2.221,2.221,0,0,0-.119.74,4.523,4.523,0,0,0,.17,1.019,1.541,1.541,0,0,0,1.853,1.06c.22.476.424.956.621,1.444.2.61.386,1.217.535,1.844a8.372,8.372,0,0,0,1.095,3.186,2.6,2.6,0,0,0,2.044,1.083,4.654,4.654,0,0,0,1.348-.288c.554-.189,1.108-.36,1.672-.516l.361-.076c.27-.048.545-.078.818-.106.294-.014.585-.014.879-.009.131.009.26.026.389.044s.252.045.376.079c.47.162.921.353,1.375.552.775.376,1.53.782,2.28,1.214.127.08.255.158.382.237l-.229-.141c.17.1.341.217.512.323l-.05-.032.1.064c.554.358,1.071.768,1.6,1.171.821.721,1.6,1.468,2.358,2.256.451.541.9,1.074,1.31,1.646.339.517.654,1.044.941,1.593.281.58.53,1.166.756,1.77.209.621.386,1.255.537,1.893.148.8.284,1.594.389,2.4.052.418.088.836.129,1.26.024.241.047.488.071.73a6.965,6.965,0,0,0,.212,1.4c.031.1.078.187.117.282,0,.029-.012.058-.015.088a2.261,2.261,0,0,0,1.454,2.243,2.486,2.486,0,0,0,.73.236,4.53,4.53,0,0,0,.795-.042,4.981,4.981,0,0,0,.913-.241c.359-.106.713-.224,1.066-.348,1.2-.415,2.424-.787,3.655-1.119a1.952,1.952,0,0,0,.874.5,2,2,0,0,0,.475.058,2.122,2.122,0,0,0,1.8-1.071l.1-.155c.267-.035.534-.072.8-.1.875-.06,1.749-.08,2.628-.054.2.012.4.047.6.065.165.127.333.248.5.376.552.493,1.094.981,1.608,1.511a27.135,27.135,0,0,1,1.826,2.315,23.653,23.653,0,0,1,1.409,2.328,14.488,14.488,0,0,1,.629,1.434q.242.683.484,1.363c-.029-.082-.058-.164-.088-.241.912,2.95,1.646,5.953,2.3,8.973-.01-.042-.02-.084-.032-.129.66,3.186,1.207,6.395,1.784,9.593.283,1.56.63,3.1,1.013,4.628a14.347,14.347,0,0,0,.754,2.2,23.212,23.212,0,0,0-.34,3,1.884,1.884,0,0,0,1.673,1.831,1.709,1.709,0,0,0,.189.01,1.884,1.884,0,0,0,1.772-1.206q.309-.948.626-1.9a4.545,4.545,0,0,0,1.168-1.255,12.848,12.848,0,0,0,.989-2.561c.282-.889.577-1.772.883-2.655.612-1.778,1.219-3.557,1.872-5.324,1.357-3.667,2.789-7.307,4.38-10.883.721-1.55,1.42-3.114,2.21-4.625a5.626,5.626,0,0,0,1.609-.715,11.759,11.759,0,0,0,1.732-1.448c.922-.939,1.731-1.975,2.562-2.994.819-.979,1.678-1.919,2.525-2.871q1.7-1.917,3.4-3.834c.589-.664,1.165-1.338,1.747-2.008.276-.079.549-.163.832-.231.439-.084.876-.151,1.319-.2.428-.023.85-.033,1.28-.023.415.03.823.074,1.233.14.406.084.805.179,1.2.289.779.258,1.524.6,2.275.926a5.155,5.155,0,0,0,1.437.454,2.889,2.889,0,0,0,.709-.018c.575.52,1.138,1.052,1.678,1.616a5.411,5.411,0,0,0,2.6,2.105,3.011,3.011,0,0,0,1.548.035,3.269,3.269,0,0,0,1.131-.554,5.192,5.192,0,0,0,1.513-1.89c1.039-2.258,1.812-4.626,2.828-6.9a39.307,39.307,0,0,1,2-3.722,45.161,45.161,0,0,1,3.244-4.5c-.05.061-.1.12-.15.178l.171-.2.041-.051-.037.046c.1-.115.2-.221.3-.335,1.587-.526,3.2-.927,4.826-1.3,1.021-.2,2.043-.357,3.082-.457.608-.037,1.216-.049,1.828-.029.325.026.646.06.968.106.335.065.663.139.991.232s.649.232.966.366c.352.174.69.358,1.026.556.631.409,1.251.846,1.84,1.31.071.057.145.113.219.169.429.657.851,1.318,1.318,1.944a4.1,4.1,0,0,0,1.713,1.5,2.828,2.828,0,0,0,1,.183,2.894,2.894,0,0,0,2.1-.914,7.866,7.866,0,0,0,1.413-2.755l.6-1.625c.449-1.21.883-2.414,1.4-3.59.414-.852.865-1.684,1.363-2.495a31.982,31.982,0,0,1,1.982-2.715A26.853,26.853,0,0,1,341.34,39.9c.248-.215.5-.421.76-.618.256-.171.52-.329.788-.483.708-.136,1.414-.262,2.139-.339a21.5,21.5,0,0,1,2.2-.041c1.8.1,3.584.3,5.365.53.348.072.691.151,1.033.241.354.127.7.264,1.045.415l-.055-.027.1.047c.053.023.106.046.159.071l-.064-.027c.422.2.839.421,1.247.65a5,5,0,0,0,1.166.519,2.444,2.444,0,0,0,1.8-.265,2.368,2.368,0,0,0,1.166-1.761A3.9,3.9,0,0,0,360.014,37.344ZM341.183,34.1c-.308.152-.612.316-.912.488,0-.04.014-.079.019-.12a3.928,3.928,0,0,0-.6-2.4,4.047,4.047,0,0,0-.334-.446c.418.112.839.213,1.255.338l-.022-.007.031.01.275.084c-.057-.015-.112-.031-.166-.049q1.666.547,3.277,1.231A11.93,11.93,0,0,0,341.183,34.1Zm-41.214,14.7c-.457.342-.912.685-1.363,1.033-.913.7-1.82,1.413-2.721,2.125a13.464,13.464,0,0,0-2.02,1.87q-.74.072-1.479.151,1.278-1.577,2.534-3.175c.241-.306.475-.617.714-.925a30.915,30.915,0,0,0,4.21-1.316A2.425,2.425,0,0,0,299.969,48.794ZM257.1,84.968c-.07.222-.143.443-.217.662-.286-1.215-.558-2.434-.843-3.647-.033-.141-.067-.282-.1-.422.461.878.918,1.759,1.387,2.632-.08.275-.161.549-.245.823Zm-2.879-17.2c-.524-.918-1.1-1.814-1.655-2.721-.289-.477-.575-.953-.863-1.428a4.916,4.916,0,0,0,.527.139,6.446,6.446,0,0,0,3.245-.177l.2-.072a39.6,39.6,0,0,0,.7,6.079,15.275,15.275,0,0,0,1.113,3.638,7.845,7.845,0,0,0,.83,1.431c.261.318.545.62.827.92-.04.192-.078.384-.117.577-.406-.767-.807-1.536-1.246-2.286C256.6,71.832,255.391,69.818,254.225,67.769Zm-10.536-5.954c-.305-.128-.608-.257-.912-.386.105-.229.21-.457.313-.686C243.287,61.1,243.482,61.461,243.689,61.815ZM225.2,44.841q-.258-.265-.511-.535c-.732-.807-1.414-1.659-2.065-2.532.663-.76,1.331-1.516,1.982-2.283.178-.209.358-.416.537-.624q0,1.719,0,3.438C225.137,43.149,225.163,44,225.2,44.841Zm-5.392,1.092c-.2-.109-.4-.226-.6-.336.388-.4.777-.8,1.143-1.215a42.6,42.6,0,0,0,2.929,3.38q-.648-.329-1.294-.664c-.189-.207-.384-.408-.578-.612A1.923,1.923,0,0,0,219.806,45.933Zm-2.217-33.371c-.187.219-.371.44-.54.673-.341.459-.665.936-.989,1.407l-.143.209.043-.072q.756-1.1,1.508-2.2Zm-4.851,14.011c.523-.836,1.013-1.693,1.511-2.545.02.043.04.087.062.13-.5.785-.981,1.574-1.448,2.373-.878,1.5-1.714,3.026-2.527,4.569q-.254.484-.494.979l-.179.238C210.669,30.394,211.73,28.5,212.738,26.573Zm30.5-6c.042.053.091.1.138.146l-.69-.189c-.158-.1-.318-.2-.476-.3.021-.475.043-.949.063-1.424.151.1.308.2.459.307A2.377,2.377,0,0,0,243.24,20.57Zm-6.268-4.955c-.054.178-.1.355-.152.528-.059.217-.1.436-.153.654l-.285-.176c.131-.216.269-.429.393-.648.067-.119.119-.245.181-.366ZM229.258,27.6c-.056.006-.112.008-.168.015l.178-.263Zm4.75,23.117c.055-.662.1-1.325.121-1.986.07-2.4.165-4.795.249-7.189l.272.088q-.041,1.553-.086,3.108c-.048,1.8-.085,3.612-.121,5.42A4.785,4.785,0,0,0,234.008,50.716Zm.733-12.354-.274-.089c.037-2.085.043-4.17.049-6.254a13.705,13.705,0,0,0,.4,2.448C234.849,35.764,234.786,37.063,234.741,38.362Zm-6.876-18.7c.521.212,1.05.41,1.581.6-.36.5-.718,1-1.079,1.5-1.763,2.436-3.52,4.879-5.339,7.267.339-.665.686-1.326,1.022-1.994.394-.783.759-1.572,1.136-2.361a28.359,28.359,0,0,0,1.317-3.173c.279-.465.561-.927.839-1.393q.16-.268.323-.537Zm-3.9-1.868c-.171.249-.338.5-.51.748a3.467,3.467,0,0,0-.4.176c.228-.351.451-.7.677-1.057C223.809,17.7,223.884,17.75,223.961,17.793Zm.47,16.766c.265-.406.534-.809.8-1.213-.007.1-.016.192-.022.288C224.95,33.942,224.692,34.252,224.431,34.559Zm10.923-7.231q-.122.183-.23.38a5.673,5.673,0,0,0-.6,2.214c.006-1.97-.006-3.936-.006-5.9,0-.647-.006-1.294-.011-1.941l1.329.441C235.655,24.122,235.481,25.723,235.354,27.328Zm6.64-2.236c.275.176.551.351.826.528-.125.495-.245.991-.349,1.49a6.716,6.716,0,0,0-.549-.569C241.949,26.058,241.971,25.575,241.994,25.092Zm9.051,1.127a3.2,3.2,0,0,0,.551-.1,2.509,2.509,0,0,0,1.6-1.384q.57.378,1.144.752l-.045.5c-.093.934-.175,1.872-.266,2.807-.346-.311-.7-.616-1.047-.923-.324-.288-.66-.565-.99-.848C251.677,26.758,251.367,26.477,251.045,26.219ZM255.09,53.46c-.017-1.244,0-2.493.056-3.738q.071-1.318.2-2.63c.484-.847.959-1.7,1.408-2.565a73.607,73.607,0,0,0-.924,8.15c-.021.374-.041.749-.061,1.123-.066.251-.134.5-.207.749-.141.43-.295.851-.468,1.268C255.072,55.031,255.1,54.246,255.09,53.46Zm13.82-27.505a6.925,6.925,0,0,0-.881-.127c.141-.489.272-.98.421-1.466l0,.006,0-.007.029-.1-.013.045c.313-1,.663-2,.877-3.022.077-.4.151-.781.188-1.177.459-.787.914-1.579,1.4-2.356-.029.047-.059.1-.094.141.08-.124.154-.252.232-.377q-.138,1.092-.273,2.183c-.241,2.02-.453,4.051-.7,6.071-.025.215-.048.431-.075.647A3.646,3.646,0,0,0,268.91,25.955Zm67.759-2.385-.395.148a10.885,10.885,0,0,0-1.25-.164,20.082,20.082,0,0,0-2.573.018c-.015-.03-.026-.06-.042-.089a11.292,11.292,0,0,0-1.151-1.757c1.033.327,2.062.676,3.1,1.005.75.237,1.49.506,2.233.767C336.614,23.522,336.642,23.545,336.669,23.57Zm-39.4,12,.2-.118c-.605.442-1.186.918-1.776,1.38l-.064-.033,1.381-1.071C297.1,35.674,297.182,35.62,297.269,35.568ZM231.632,13.552a1.978,1.978,0,0,0-.265.121l-.242-.141c.017-.037.036-.073.054-.11.156.041.311.086.466.128ZM224.1,8.6c-.572-.027-1.145-.046-1.719-.052q-.981-.575-1.954-1.163c.122.014.245.03.368.047.344.067.687.145,1.026.236.641.214,1.265.472,1.878.744Zm-3.317,4.109a2.821,2.821,0,0,0-.056.613,3.959,3.959,0,0,0,.262,1.28c-.949,1.277-1.9,2.554-2.835,3.852q-.689.965-1.365,1.943l-.042-.114c-.032-.1-.059-.208-.09-.311,1.3-2.032,2.6-4.055,3.864-6.111a1.439,1.439,0,0,0,.086-1.252Zm-6.406-4.483a8.824,8.824,0,0,0,1,1,10.344,10.344,0,0,0-2.021.72c-.081.04-.152.095-.231.14Zm-2.807,5.555c.041.183.088.371.13.56l.039.173-.109.131c.036-.042.072-.088.109-.131h0c-.529.639-1.064,1.279-1.6,1.919l.029-.035c-.109.139-.224.276-.339.409l-.039.047.025-.032c-.04.051-.083.1-.125.151l.013-.015-.07.085c-.018.022-.036.044-.053.068l.048-.062c-.028.034-.056.069-.085.1s-.048.055-.071.084c-1.15,1.366-2.305,2.72-3.461,4.079-.111.132-.223.26-.334.391l-.191.017c-.2.019-.391.042-.588.061q1.2-1.587,2.373-3.189c.99-1.349,1.92-2.732,2.868-4.111.435-.631.862-1.267,1.292-1.9A4.075,4.075,0,0,0,211.572,13.784Zm-19.5,8.629c.241-.246.482-.493.724-.738-.185.286-.372.572-.557.858Zm.414,6.561,0,0c.157-.034.315-.067.471-.1l-.265.053c.56-.114,1.114-.243,1.674-.363-.066.015-.131.032-.2.044l.35-.075-.02,0,.23-.049q.615.387,1.231.771l-.29-.151a1.556,1.556,0,0,0-1.924.393q-.474-.122-.944-.256c-.148-.046-.291-.1-.436-.148C192.407,29.05,192.446,29.013,192.483,28.974Zm11.087.886c-.261-.151-.516-.31-.774-.465Q203.93,28.222,205,27l.474-.547.2-.034c-.062.117-.125.234-.188.351-.4.73-.8,1.46-1.189,2.2q-.274.5-.553,1ZM231.5,63.672a1.543,1.543,0,0,0,.211.051c.238.044.485.1.733.146l0,0c-.425.252-.846.507-1.261.769C231.281,64.317,231.387,63.994,231.5,63.672Zm7.861-6.309c-.328.216-.671.4-1.009.6.013-1.751.019-3.5.049-5.251.243-.895.433-1.8.619-2.71.247-1.2.536-2.39.766-3.592.092-.486.18-.974.265-1.461.05.062.1.125.151.187q-.039.741-.07,1.48a23.737,23.737,0,0,0-.193,5.518,5.434,5.434,0,0,0,.412,1.3,3.207,3.207,0,0,0,.695,1.025l.027.024c.018.048.038.1.058.143-.237.64-.493,1.273-.747,1.907C240.042,56.813,239.713,57.1,239.357,57.363Zm8.8-1.008c.053.652.136,1.3.247,1.946q-.373-.6-.743-1.2l-.2-.32A7.2,7.2,0,0,0,248.155,56.355Zm1.258-13.107c-.187-.352-.392-.694-.6-1.035q.147-.831.277-1.662c.019-.123.036-.245.054-.368q.5-.706,1.045-1.381.294-.351.6-.691A49.239,49.239,0,0,0,249.413,43.248Zm.624-10.2c.036-.332.073-.664.108-.995q.037-.33.071-.66a1.146,1.146,0,0,0,.346-.145c.388.344.769.7,1.146,1.053A6.606,6.606,0,0,0,250.037,33.043Zm13.8,19q.209-.543.405-1.093.279-.775.542-1.558-.245,1.8-.485,3.6c-.348,1.923-.706,3.845-1.058,5.769-.028.151-.055.3-.082.455C263.345,56.82,263.586,54.428,263.842,52.039Zm60.9-12.07c.235-.116.469-.237.7-.368a11.188,11.188,0,0,0,1.3-.529c.1-.046.188-.1.282-.145a2.547,2.547,0,0,0-.376,1.423c-.362.682-.688,1.385-1.014,2.082-.219.462-.4.933-.575,1.411a29.413,29.413,0,0,0-2.876-1.435c-.327-.146-.664-.271-1-.4C322.34,41.286,323.53,40.6,324.739,39.969Zm7.281,1.25q.209-.594.4-1.194l.012-.013a3.381,3.381,0,0,0,.761.037,27.694,27.694,0,0,0-1.651,2.412C331.707,42.05,331.874,41.638,332.02,41.219Zm12.741-13.1.079.062c-.034-.013-.067-.028-.1-.042Zm-24.649-7.972c.758-.368,1.523-.706,2.31-1.007.365-.129.738-.22,1.107-.327a1.326,1.326,0,0,0,.328.622,5.2,5.2,0,0,0-1.093.372,11.13,11.13,0,0,0-2.212,1.442,2.064,2.064,0,0,0-1.416-.553h0C319.453,20.507,319.78,20.323,320.112,20.148ZM261.454,8.807c-.034.687-.074,1.378-.125,2.065-.018.247-.043.493-.063.74q-.115-.745-.223-1.495c.044-.471.088-.943.157-1.409.109-.732.218-1.464.332-2.191C261.527,7.28,261.488,8.044,261.454,8.807Zm-51.53.641c-.691.944-1.367,1.9-2.044,2.852l-.07-.055a1.423,1.423,0,0,0-.48-.22l.333-.392c1.231-1.461,2.485-2.909,3.657-4.416a1.4,1.4,0,0,0,.257-1.089c.276-.042.554-.071.832-.1C211.6,7.177,210.756,8.308,209.924,9.448Zm-6.5,1.937c-.671.848-1.33,1.7-2,2.544-.272.34-.551.679-.821,1.023a5.466,5.466,0,0,0,.338-.994c.089-.382.124-.783.189-1.165a1.327,1.327,0,0,0-.306-1.046c.121-.028.24-.061.361-.088.778-.154,1.565-.294,2.354-.416C203.5,11.291,203.461,11.337,203.423,11.385Zm-.518,25.293c.291.168.583.334.873.5l-.1.2C203.423,37.145,203.168,36.907,202.905,36.678ZM294.117,58.33a9.77,9.77,0,0,0,1.3-.106c.027,0,.049-.017.075-.023-.162.206-.326.412-.486.62C294.712,58.656,294.417,58.487,294.117,58.33Zm34.831-11.354c.064-.055.12-.12.18-.18-.04.082-.079.164-.119.247C328.988,47.021,328.969,47,328.948,46.976Zm.1-35.815c1.124.366,2.227.774,3.31,1.248l.011.006.169.074-.16-.07c1.74.821,3.38,1.813,5.027,2.8q.724.47,1.438.951c-.189-.068-.371-.153-.562-.215a15.085,15.085,0,0,0-3.211-.714c-.094-.053-.185-.11-.281-.161l-.2-.105-.294-.218a33.3,33.3,0,0,0-6.5-3.881c-.119-.052-.241-.1-.361-.147C327.972,10.873,328.513,11,329.049,11.161Zm-29.339.662c.86-.278,1.713-.6,2.586-.841s1.769-.457,2.654-.7c1.28-.265,2.555-.511,3.846-.711,1.312-.205,2.63-.346,3.948-.509.358-.023.717-.044,1.075-.068.436-.023.878-.082,1.313-.082.811,0,1.627.026,2.438.029.347.025.7.042,1.049.063a29.525,29.525,0,0,0-8.276,1.328,2.472,2.472,0,0,0-2.021-.591,12.589,12.589,0,0,0-2.644.584,13.486,13.486,0,0,0-2.049,1.071c-.666.418-1.325.836-2,1.236l-.952.568a2.279,2.279,0,0,0-1.326-.373c-.764.026-1.523.009-2.281.031Q298.395,12.348,299.71,11.823ZM209.753,46.854c-.273.073-.543.153-.814.235q-.1-.4-.2-.812c.086.037.17.082.258.112a3.7,3.7,0,0,0,1.162.215,2.1,2.1,0,0,0,1.211-.363,2.413,2.413,0,0,0,.467-.427c.216.232.431.469.655.693A11.377,11.377,0,0,0,209.753,46.854Zm106.579-1.123c.222-.208.448-.414.67-.621-.06.057-.121.114-.177.171l.388-.364c.4.193.808.382,1.21.576-.065,0-.129.006-.193.012C317.6,45.56,316.962,45.635,316.332,45.731Z"/><path d="M118.818,88.163l.013,0c.055-.022.112-.044.164-.06C118.936,88.122,118.877,88.139,118.818,88.163Z"/><path d="M81.473,140.3l-.031.037-.008.01C81.447,140.333,81.46,140.318,81.473,140.3Z"/><path d="M3.292,109.558a2.159,2.159,0,0,0,.253-.015A3.719,3.719,0,0,0,5.429,108.5c.259-.212.506-.436.754-.66a16.009,16.009,0,0,0,1.784-1.8,3.254,3.254,0,0,0,.5-.833c.243-.091.486-.186.729-.274l-.066.021c.683-.239,1.377-.451,2.072-.657a2.332,2.332,0,0,0,.2.22,1.859,1.859,0,0,0,1.148.465,3.932,3.932,0,0,0,1.855-.495c.269-.1.533-.2.8-.3a28.473,28.473,0,0,1,2.743-.8c.745-.147,1.49-.263,2.246-.347q.856-.058,1.713-.06c.421.03.838.059,1.26.112.047.005.093.014.139.02.427.644.826,1.3,1.193,1.979.276.569.6,1.132.818,1.718.212.551.428,1.1.641,1.643.423,1.306.783,2.612,1.084,3.947.164.938.306,1.87.405,2.818.03.386.058.776.078,1.166a2.771,2.771,0,0,0,.76,2.038,2.69,2.69,0,0,0,1.8.742,3.381,3.381,0,0,0,1.9-.77c1.343-.9,2.6-1.929,3.909-2.868.067-.043.131-.09.2-.136a2.6,2.6,0,0,0,.18.221,1.95,1.95,0,0,0,1.16.471,2.87,2.87,0,0,0,1.867-.689c.584-.384,1.169-.756,1.776-1.091.322-.159.649-.307.983-.441.137-.045.273-.084.41-.12l.163-.026-.089.007.017,0,.085,0,.074.008c.112.021.223.046.334.077.164.054.325.111.486.172.176.085.345.173.516.265.447.293.865.62,1.284.956a28.007,28.007,0,0,1,2.039,1.935l.313.34-.012-.013c.634.741,1.225,1.494,1.8,2.281.267.4.521.8.754,1.216-.01-.019-.019-.039-.028-.058.014.027.028.055.041.083s.04.07.059.106c-.015-.025-.03-.051-.044-.078a13.847,13.847,0,0,1,.635,1.482c.19.569.33,1.143.473,1.728.236,1.28.414,2.574.627,3.86-.024.187-.041.376-.065.564a4.712,4.712,0,0,0,.018,1.814,2.165,2.165,0,0,0,1.831,1.531,2.233,2.233,0,0,0,.455,0l0,0a4.726,4.726,0,0,0,2.962-.227c.087.022.175.042.26.067.2.071.4.146.6.232.154.075.3.157.451.245.306.2.6.41.888.638.314.272.611.56.9.861a21.491,21.491,0,0,1,1.415,1.772,65.873,65.873,0,0,1,3.9,6.778c-.029-.055-.058-.108-.087-.164.122.24.247.483.371.724.043.081.085.164.127.247a10.322,10.322,0,0,0,1.143,2,2.432,2.432,0,0,0,1.019.73,1.536,1.536,0,0,0,.32.077c.019.151.039.3.058.453-.013.089-.023.179-.036.268a5.475,5.475,0,0,0-.173,1.835,2.618,2.618,0,0,0,.247.848,4.74,4.74,0,0,0,.4.606c.012.017.029.028.042.044.081.581.161,1.162.247,1.744.059.389.124.778.189,1.16q.043.309.106.618c.041.219.076.442.135.66a2.883,2.883,0,0,0,.189.63,2.492,2.492,0,0,0,.471.73,2.175,2.175,0,0,0,.465.312,1.752,1.752,0,0,0,.808.2,1.606,1.606,0,0,0,.44-.061,2.964,2.964,0,0,0,1.537-1.3,13.6,13.6,0,0,0,1.066-2.4q.878-2.183,1.841-4.333c.123-.271.245-.541.373-.813-.03.065-.065.13-.094.2.053-.118.112-.23.165-.348-.03.065-.065.129-.095.194.331-.715.684-1.421,1.034-2.128a33.761,33.761,0,0,1,2.2-3.15c-.036.041-.071.088-.112.129.077-.09.15-.177.223-.266.133-.161.267-.322.4-.488-.035.048-.071.089-.106.136.106-.13.209-.256.314-.381l-.025.028.286-.341-.01.011.03-.036.082-.1-.019.025.212-.256c-.011.012-.022.025-.034.036l.059-.065.022-.027c.035-.041.068-.082.1-.125-.036.046-.071.088-.106.135.6-.681,1.206-1.335,1.859-1.959a18.526,18.526,0,0,1,1.866-1.508c.5-.333,1.012-.638,1.538-.916a13.622,13.622,0,0,1,1.425-.6c.437-.146.875-.267,1.32-.37.535-.107,1.065-.188,1.606-.245q1.021-.074,2.044-.044h-.005c.742.042,1.49.118,2.226.207l-.183-.035c.523.095,1.051.169,1.574.253,1.68.346,3.334.736,4.977,1.223.2.062.393.123.59.182l-.028-.01.07.022.125.037-.06-.017c.785.249,1.572.529,2.374.724a9.252,9.252,0,0,0,1.6.288,3.353,3.353,0,0,0,2.644-.753c1.025-1.09,1.155-2.7,1.355-4.128.118-.88.253-1.76.383-2.636.279-1.492.581-2.981.948-4.454.159-.207.3-.427.468-.629.135-.162.269-.325.4-.486l.034-.043.013-.015-.04.049.056-.066c.6-.674,1.2-1.33,1.833-1.964.466-.476.96-.93,1.45-1.386.131-.017.259-.043.391-.056.352-.017.706-.013,1.062,0,.122.007.241.027.362.037,1.192.663,2.368,1.351,3.535,2.053l.833.52c-.071-.041-.141-.089-.212-.129,1.5.959,2.938,2.013,4.393,3.038.736.512,1.472,1.007,2.226,1.484.685.434,1.4.832,2.095,1.253a4.242,4.242,0,0,0,.79.455,2.27,2.27,0,0,0,.8.139,2.227,2.227,0,0,0,.868-.169,2.958,2.958,0,0,0,1.484-2.68c.049-.7.073-1.407.09-2.112a2.016,2.016,0,0,0,1.05-1.134,7.471,7.471,0,0,0,.283-2.108c.029-.43.065-.854.106-1.284.078-.867.193-1.733.333-2.595a19.846,19.846,0,0,1,.535-2.25c.174-.519.374-1.026.6-1.528.117-.239.254-.466.38-.7.6.083,1.2.169,1.8.268,1.13.241,2.255.479,3.362.809.814.262,1.612.563,2.4.891.614.286,1.232.562,1.85.839.633.3,1.249.653,1.865.993.588.317,1.156.677,1.727,1.019.541.354,1.072.722,1.607,1.083.048.041.091.088.14.128a4.485,4.485,0,0,0,.747.469c.175.121.356.234.531.357.912.648,1.966,1.46,3.138.954,1.089-.471,1.242-1.773,1.231-2.815a29.118,29.118,0,0,0-.3-3.574c-.159-1.195-.347-2.391-.6-3.569,0,.035.011.067.017.1q-.085-.387-.167-.775l.008.041c-.294-1.367-.683-2.7-1.107-4.034-.206-.648-.429-1.313-.694-1.938-.236-.571-.46-1.153-.731-1.707-.382-.789-.759-1.578-1.2-2.344-.206-.359-.4-.742-.63-1.089-.253-.382-.512-.765-.771-1.142a26.424,26.424,0,0,0-6.024-6.389,29.1,29.1,0,0,0-5.612-3.286,26.371,26.371,0,0,0-6.324-1.972,31.371,31.371,0,0,0-3.86-.366h.068c-.454-.029-.919,0-1.378,0-.22,0-.443.006-.665.013a5.569,5.569,0,0,0-1.462-.617,23.369,23.369,0,0,0-3.491-.666,12.272,12.272,0,0,0-1.39-.1c-.571-.023-1.142-.041-1.708-.023a21.567,21.567,0,0,0-3.15.306,27.272,27.272,0,0,0-12.018,5.512,30.531,30.531,0,0,0-3.58,3.356c-.595.659-1.219,1.307-1.785,2l.142-.176c-.065.082-.136.164-.206.252l.141-.176c-.288.349-.58.7-.869,1.048l.021-.024c-.025.03-.049.06-.074.089h0l-.041.051-.024.028c.022-.027.043-.054.066-.081.07-.422.136-.844.2-1.269a40.416,40.416,0,0,0,.371-4.9A20.2,20.2,0,0,0,99.156,86a13.136,13.136,0,0,0-.7-2.1A3.008,3.008,0,0,0,97.3,82.276a2.107,2.107,0,0,0-2.391.265,8.827,8.827,0,0,0-1.416,1.568,3.236,3.236,0,0,0-.856.6,23.088,23.088,0,0,0-2.927,3.615c-.93,1.313-1.8,2.673-2.69,4.01-.57.853-1.136,1.716-1.717,2.568a1.512,1.512,0,0,0-.241-.113q.672-3.279,1.344-6.557a1.619,1.619,0,0,0-1.177-1.926,1.583,1.583,0,0,0-1.38.324q-.025-.591-.04-1.184c-.011-.6,0-1.2-.041-1.8a4.3,4.3,0,0,0-.726-2.448A1.8,1.8,0,0,0,82,79.819a1.429,1.429,0,0,0-.249-.065c-.02-.085-.038-.17-.058-.255l.007.033A2.1,2.1,0,0,0,80.03,77.9a1.933,1.933,0,0,0-2.132.954c-.289.571-.612,1.125-.86,1.713a20.036,20.036,0,0,0-.677,1.914c-.3,1-.571,2-.854,3q-.279.966-.557,1.936a1.907,1.907,0,0,0-.785.5,2.821,2.821,0,0,0-.646,1.964c-.009.167-.005.334-.012.5-.266.42-.538.836-.8,1.258.029-.047.058-.1.088-.147-.318.507-.63,1.019-.948,1.525.029-.047.059-.1.088-.147-.062.1-.127.2-.19.3.01-.015.02-.031.031-.045-.2.312-.388.619-.589.931l.011-.015c-.023.036-.045.072-.067.109l-.073.112c-.262.358-.514.727-.756,1.1-.042.007-.083.013-.126.017-.024,0-.048,0-.071,0-.053-.006-.105-.014-.158-.021-.267-.053-.536-.106-.8-.179l-.026-.01-.031-.017c-.1-.066-.191-.136-.282-.208-.307-.257-.619-.5-.906-.785-.092-.108-.178-.219-.263-.331-.56-.836-1.056-1.716-1.633-2.542a28.955,28.955,0,0,0-1.961-2.432,41.982,41.982,0,0,0-5.075-4.737l.064.056c-.772-.642-1.578-1.243-2.373-1.849-.848-.648-1.69-1.29-2.532-1.937-.778-.595-1.555-1.184-2.332-1.785-.907-.7-1.843-1.39-2.809-2.007-.491-.314-1-.616-1.519-.9a14.543,14.543,0,0,0-2.793-2.072,10.438,10.438,0,0,0-3.156-1.142,10.583,10.583,0,0,0-3.168-.047,11.707,11.707,0,0,0-3.521,1.042,23.729,23.729,0,0,0-2.956,1.672,43.018,43.018,0,0,0-4.8,3.761,1.78,1.78,0,0,0-1.135-.074,4.2,4.2,0,0,0-1.377.471,6.692,6.692,0,0,0-1.113.889c-.681.693-1.249,1.487-1.865,2.239l-.164.193.043-.053-.042.049c-1.376,1.636-2.78,3.255-4.143,4.909l.07-.087.009-.011.014-.018-.062.075-.078.094c.023-.029.048-.059.073-.088-.043.051-.086.1-.127.153q.039-.048.081-.1c-1.232,1.475-2.452,2.961-3.678,4.441.053-.058.1-.117.153-.176-.336.4-.671.807-1.007,1.213.053-.059.1-.124.153-.183-.61.738-1.225,1.471-1.831,2.213L11,95.121c-.3.332-.561.7-.838,1.049l-.93,1.161q-1.024,1.279-2.008,2.584c-.066.089-.132.177-.2.266q-1.053,1.177-2.1,2.361c-.548.618-1.078,1.242-1.614,1.872-.277.318-.542.648-.806.977a5.662,5.662,0,0,0-1.025,1.59,1.935,1.935,0,0,0,.294,1.873A1.9,1.9,0,0,0,3.292,109.558Zm148.785,5.479a24.9,24.9,0,0,0-3.687-3,14.533,14.533,0,0,0-5.711-2.132,16.733,16.733,0,0,0-1.742-.174c.029-.022.056-.048.086-.07.379-.258.766-.492,1.166-.711.248-.125.508-.225.763-.336a4.763,4.763,0,0,0,1.946,1.1,3.383,3.383,0,0,0,2.385-.418,1.881,1.881,0,0,0,.5-.426c.511.269,1.023.538,1.535.8.287.148.571.3.855.45.292.7.582,1.406.881,2.1.4.925.8,1.843,1.219,2.762.038.084.083.165.126.247ZM37.961,108.87c-.028-.106-.042-.217-.074-.321a7.525,7.525,0,0,0-.574-1.389c.1-.149.2-.3.287-.446s.167-.282.249-.425l.135.144c.44.509.859,1.029,1.248,1.575l.051.077C38.841,108.342,38.4,108.605,37.961,108.87ZM24.074,96.694c-.058-.068-.108-.144-.169-.209.139-.2.273-.412.414-.615l.572-.832C24.622,95.591,24.345,96.141,24.074,96.694ZM18.4,98.464l-.119.224q-.189.328-.356.667l-.3.092.625-.944C18.3,98.492,18.345,98.479,18.4,98.464Zm16.165,5.71q.051-.347.107-.691c.155.108.308.217.46.329-.1.19-.215.375-.322.563C34.724,104.307,34.645,104.239,34.561,104.174Zm6.753-10.285q.038-.538.059-1.079.042.323.071.65c.011.18.019.359.024.539Zm3.566-5.372q-.651-.544-1.277-1.114c-.033-.075-.065-.149-.1-.223l1.309.914c.461.324.925.646,1.386.971.021.173.042.347.066.519Q45.558,89.07,44.88,88.517Zm-.986,14.108c.221.683.432,1.368.653,2.05a1.941,1.941,0,0,0-.994.749l-.122.183-.008-.024c-.206-.683-.418-1.36-.624-2.038l-.174-.559c.052-.06.1-.121.152-.183a5.28,5.28,0,0,0,.593-.052A2.763,2.763,0,0,0,43.894,102.625Zm87.889,13.035c-.109-.259-.212-.52-.328-.776-.247-.539-.511-1.071-.764-1.607.334-.054.671-.1,1.008-.139a2.719,2.719,0,0,0,.763.521c.026.011.052.016.077.026A15.819,15.819,0,0,0,131.783,115.66ZM73.567,146.4c-.032.072-.064.143-.1.214.014-.028.027-.055.042-.083-.436.942-.848,1.889-1.245,2.844q-.072-.508-.145-1.018c.242-.831.479-1.663.665-2.513.2-.908.374-1.82.545-2.735a1.685,1.685,0,0,0,.28-.457c.341-.818.718-1.625,1.036-2.449.031-.078.061-.156.091-.234a1.637,1.637,0,0,0,2.417-.508c.913-1.578,1.908-3.121,2.727-4.752q.71-1.428,1.357-2.88a1.75,1.75,0,0,0,.251.5,6.251,6.251,0,0,0-.535,1.926,2.386,2.386,0,0,0,.015.561,24.735,24.735,0,0,0-2.589,2.953c-.636.847-1.2,1.742-1.755,2.643a50.521,50.521,0,0,0-2.814,5.465c.029-.065.059-.13.088-.2C73.791,145.918,73.678,146.161,73.567,146.4Zm-17.5-20.491q.026-.372.066-.743c.368.875.7,1.76,1.059,2.641l.007.025h0l0,.011a7.508,7.508,0,0,0-.819-.046c-.1,0-.193,0-.289.006l-.09,0a6.7,6.7,0,0,0,.066-1.276C56.072,126.326,56.067,126.121,56.07,125.913Zm-3.814-17.474c.061-.043.12-.086.178-.131q.41,1.159.861,2.308-.743-.941-1.444-1.913C51.988,108.619,52.124,108.531,52.256,108.439Zm31.042-2.45q.181-1.138.36-2.279a2.907,2.907,0,0,0,.729-.182,3,3,0,0,0,1.231-1.066c.1-.135.2-.271.3-.406.106-.156.21-.318.314-.477.024.052.05.1.074.155.047.1.091.208.138.312-.769,1.583-1.515,3.177-2.222,4.791-.6,1.364-1.207,2.729-1.8,4.1C82.73,109.288,83.034,107.647,83.3,105.989Zm36.52-7.407.013.026c.685,1.366,1.361,2.737,2.04,4.106l-.161-.006c-.356-.627-.714-1.253-1.084-1.874q-.261-.444-.523-.887c-.122-.453-.238-.907-.355-1.36Zm9.326,11.484q-.508-1.035-1.019-2.071c.277-.194.545-.4.8-.614l.009.025c.159.459.324.912.5,1.371.144.391.3.775.462,1.156C129.643,109.974,129.393,110.016,129.144,110.066Zm-11.874-8.095q-.087-.3-.176-.608l.139.237c.029.105.059.208.09.311q.08.272.161.541l-.066,0C117.37,102.289,117.316,102.131,117.27,101.971Zm10.165,1.162-.013-.038.013.039a1.325,1.325,0,0,0,.019.408c.009.392,0,.79-.006,1.187-.007.163-.015.326-.019.488-.035.04-.072.077-.11.114-.118.1-.244.187-.366.279-.027-.053-.053-.106-.079-.159q-.618-1.236-1.228-2.479c-.188-.7-.373-1.4-.562-2.1-.332-1.209-.6-2.44-.861-3.667a1.583,1.583,0,0,0,.071-.486,1.651,1.651,0,0,0-.34-.957l-.011-.061c.4.028.8.084,1.2.138.176.346.351.691.525,1.038.235.99.474,1.977.758,2.959.314,1.1.632,2.2,1.012,3.283Zm-19.926.673.1-.039c-.023.023-.045.048-.068.071C107.528,103.828,107.519,103.816,107.509,103.806ZM102.9,123.628c-.193-.23-.389-.459-.571-.7.146-.15.288-.305.425-.462.039.089.079.177.119.266C102.88,123.032,102.888,123.33,102.9,123.628Zm-1.786,4.387.43.031a2.57,2.57,0,0,0,.145.94c-.24-.013-.479-.027-.719-.039a1.759,1.759,0,0,0,.144-.932Zm-4.337-4.537a2.767,2.767,0,0,0,.818.712c.166.073.324.139.489.2-.848-.063-1.7-.128-2.547-.187.294-.411.6-.816.891-1.228A2.6,2.6,0,0,0,96.777,123.478Zm-19.794,8.933a3.852,3.852,0,0,0,.474-.66c.03-.054.061-.108.09-.162a2.133,2.133,0,0,0,.169.132c-.257.549-.521,1.094-.8,1.634Q76.949,132.884,76.983,132.411ZM62.689,117.768q.095.256.186.514c-.02-.056-.041-.111-.061-.168.057.16.114.321.17.481l-.022.009q-.141.047-.282.081c-.052.009-.1.017-.155.023l-.17,0c-.053,0-.1-.009-.158-.016l-.127-.127c-.118-.136-.235-.272-.348-.41A2.59,2.59,0,0,0,62.689,117.768Zm9.2,15.508q.057-.588.111-1.178c.084-.9.171-1.812.267-2.719q.186-.477.34-.967c.131-.4.257-.8.368-1.207-.032.614-.053,1.227-.054,1.839q-.274,1.2-.526,2.413-.19.924-.382,1.848C71.97,133.293,71.929,133.284,71.887,133.276Zm48.2-15.567.029.06-.1-.014Zm10.779-19.984c.313,1.113.689,2.214,1.1,3.292q.636,1.651,1.266,3.3c.329.883.712,1.761,1.095,2.626.253.583.512,1.16.765,1.749.093.213.181.432.273.649-.073.087-.152.17-.225.258-.291-.841-.656-1.659-1.007-2.479-.619-1.461-1.32-2.88-2.008-4.3-.737-1.52-1.467-3.039-2.2-4.552-.2-.41-.407-.817-.611-1.225.519.207,1.032.426,1.545.65ZM127.994,92.4c0-.039-.015-.077-.02-.116l.09.136Zm-8-1.588c.03.39.073.779.124,1.167-.174-.337-.35-.672-.525-1.008l.293-.122Zm-19.112,9.876c-.464.494-.915,1-1.362,1.519-.141.059-.285.114-.426.174.357-.48.726-.951,1.092-1.424C100.42,100.869,100.653,100.781,100.882,100.684Zm-13.062-1.4-.039-.089c.058-.09.116-.18.175-.27l.315-.486Q88.043,98.859,87.82,99.282ZM47.552,95.716l.036-.174q.1.35.21.7t.215.683a2.5,2.5,0,0,0-.671-.117C47.417,96.444,47.486,96.081,47.552,95.716Zm14.029,32.068c.3.27.618.529.928.793a9.351,9.351,0,0,0-1.056-.261c-.03,0-.06-.006-.09-.011A2.316,2.316,0,0,0,61.581,127.784Zm72.1-36.11c.041.042.081.083.121.126.6.671,1.172,1.369,1.755,2.051l.171.2.006.191a6.181,6.181,0,0,0-1.313-1.585,3.306,3.306,0,0,0-.537-.338C133.815,92.1,133.746,91.89,133.683,91.674Zm-14.852-3.515c-.026.01-.051.016-.078.028l-.532.218c-.01-.016-.017-.033-.026-.049l-.212-.36c.643-.12,1.288-.216,1.935-.279.075-.006.151-.007.226-.012C119.706,87.855,119.269,88,118.831,88.159ZM114.9,93.118l.072-.035c.027.1.055.206.082.308a1.768,1.768,0,0,0-.856.113c.245-.134.492-.265.737-.4Zm-1.7,1.515c-.084.444-.2.889-.276,1.339a1.789,1.789,0,0,0-.2-.039,3.046,3.046,0,0,0-.563-.418,3.807,3.807,0,0,0-.959-.381q1.313-.71,2.621-1.423A1.475,1.475,0,0,0,113.2,94.633Zm-18.762-4.32a1.532,1.532,0,0,0-.171.113c-.581.517-1.223.991-1.788,1.536q.594-.919,1.188-1.842l.615-.96C94.335,89.543,94.384,89.928,94.433,90.313ZM43.61,77.124A16.627,16.627,0,0,1,45,78.145c.546.458,1.077.934,1.607,1.411-.479-.293-.964-.576-1.469-.83a27.367,27.367,0,0,0-3.168-1.419c-.4-.145-.813-.285-1.228-.414.15-.024.3-.056.449-.074.275-.018.551-.024.83-.018.243.017.485.05.727.087s.507.113.758.179C43.539,77.087,43.576,77.1,43.61,77.124ZM29.968,107.191c-.008.059-.016.119-.025.178q-.2-.529-.428-1.05-.117-.269-.239-.532a4.437,4.437,0,0,0-.21-1.039q.546.263,1.083.547c.006.15.008.3.019.449Q30.068,106.467,29.968,107.191Zm3.721,3.492c.031-.3.065-.594.1-.89a4.248,4.248,0,0,0,.91-.285c.037.139.076.278.11.42.01.056.017.112.027.167-.249.117-.507.217-.747.352Q33.887,110.563,33.689,110.683Zm32.057,23.859c-.082-.123-.167-.245-.251-.368.076.072.154.142.229.216.21.236.4.479.592.737.16.248.308.5.451.755.093.21.183.418.268.632.028.085.045.173.071.258C66.671,136.016,66.227,135.264,65.746,134.542Zm40.906-.271-.16,0c-.087-.006-.171-.016-.255-.026.056-.084.117-.161.168-.249.164-.284.316-.574.469-.863l-.048.34C106.777,133.745,106.721,134.009,106.652,134.271Zm14.61-11.164.033.019c.053.032.106.063.157.1C121.389,123.186,121.325,123.144,121.262,123.107Zm9.388,1.6-.1-.063.019.012-.047-.029-.149-.094c.04.024.08.048.118.074-.078-.051-.154-.1-.232-.154.011-.112.021-.224.028-.336l.427.137c0,.161-.011.321-.015.482l-.086-.053C130.625,124.691,130.638,124.7,130.65,124.707Zm9.49-32.952c.294.148.612.271.889.442.539.326,1.088.637,1.622.962.783.512,1.536,1.066,2.264,1.653a26.067,26.067,0,0,1,1.911,1.79,1.4,1.4,0,0,0-.609,1.364c.058.359.1.718.156,1.076A18.8,18.8,0,0,0,143.4,96.07a4.329,4.329,0,0,0-1-.575,6.355,6.355,0,0,0-.745-.808c-.118-.1-.238-.2-.36-.3-.177-.243-.359-.482-.553-.709a7.311,7.311,0,0,0-1.042-1.054c-.418-.319-.866-.589-1.3-.89a1.8,1.8,0,0,0-.489-.239c-.3-.358-.6-.715-.908-1.07.782.277,1.553.574,2.311.914C139.6,91.478,139.867,91.619,140.14,91.755ZM130.468,89.2a2.791,2.791,0,0,0-.22.663l-.458-.684h.336Zm-24.334,4.93a31.323,31.323,0,0,1,2.782-2.24,28.518,28.518,0,0,1,2.871-1.711c.735-.366,1.487-.694,2.248-1q.06.342.132.681c.026.123.061.243.089.366-.081.04-.163.077-.243.118-1.419.718-2.809,1.5-4.2,2.261-1.425.778-2.85,1.543-4.258,2.349l-.619.355Q105.517,94.7,106.134,94.127Zm-37.35.8h0l-.016-.013ZM14.276,97.8c-.062.107-.122.216-.184.323-.176.2-.354.395-.53.595-.612.689-1.248,1.378-1.8,2.114-.128.171-.255.349-.375.533l-.17.053q.287-.326.575-.649a4.217,4.217,0,0,0,.733-1.026C13.112,99.1,13.689,98.446,14.276,97.8Z"/><path d="M21.481,82.557l-.019.023c.02-.024.039-.048.06-.071Z"/></svg>