<svg xmlns="http://www.w3.org/2000/svg" width="52.322" height="153.324" viewBox="0 0 52.322 153.324"><path d="M51.924,20.037a19.953,19.953,0,0,0-3.527-7.3,32.251,32.251,0,0,0-5.647-6,32.892,32.892,0,0,0-7.019-4.376A24.1,24.1,0,0,0,27.67.075a21.314,21.314,0,0,0-7.92.812,18.568,18.568,0,0,0-3.763,1.584,21.97,21.97,0,0,0-3.25,2.291A19.922,19.922,0,0,0,9.872,7.756c-.133.086-.266.174-.4.262A17.453,17.453,0,0,0,6.4,10.574a24.3,24.3,0,0,0-2.35,2.968C1.166,17.846-.6,23.164.188,28.374A13.146,13.146,0,0,0,1.2,32.049a10.959,10.959,0,0,0,1.826,2.709A15.639,15.639,0,0,0,5.941,37.2,15.286,15.286,0,0,0,9.08,38.838c.487.176.98.327,1.478.458q.189.135.383.267a18.36,18.36,0,0,0,5.423,2.544,21.992,21.992,0,0,0,4.565.722c.011.143.021.286.032.429q.192,2.476.382,4.954c-.034.207-.065.415-.093.622-.2,1.454-.354,2.932-.418,4.4-.042.83-.077,1.666-.118,2.5q-.159,3.587-.324,7.172c-.053,1.137-.053,2.279-.077,3.416-.07,3.78-.153,7.566-.206,11.347q-.1,6.7-.194,13.4c-.047,3.328-.147,6.649-.23,9.975l0,.14q-.546,5.839-1.092,11.679c-.088.906-.147,1.814-.206,2.726q-.239,3.728-.477,7.461-.2,2.9-.377,5.794c-.088,1.407-.123,2.82-.182,4.233q-.159,3.543-.307,7.084-.087,2.05-.159,4.111c-.047,1.4-.088,2.8-.035,4.2.047,1.189.212,2.361.347,3.545a1.492,1.492,0,0,0,1.467,1.3h.012a1.492,1.492,0,0,0,1.43-1.1l.014-.052A1.92,1.92,0,0,0,21.55,151a22.413,22.413,0,0,0,.977-2.933c.206-.918.377-1.842.507-2.773.141-.965.282-1.931.377-2.909.341-3.568.736-7.137.977-10.717.253-3.774.53-7.543.766-11.312l0-.053c.038-.443.074-.888.114-1.33q.372-3.939.736-7.879c.118-1.254.265-2.508.348-3.762.106-1.72.218-3.44.324-5.159q.248-3.974.5-7.949c.083-1.266.177-2.538.242-3.8q.291-6.254.588-12.513c.322-6.936.714-13.871,1.128-20.807l0,.032,0-.067.007-.109V57A146.393,146.393,0,0,1,31,41.062c.34-.144.681-.278,1.016-.438l.015,0a34.108,34.108,0,0,0,8.344-2.249,22.615,22.615,0,0,0,6.943-4.11,14.714,14.714,0,0,0,4.451-6.5A15.952,15.952,0,0,0,51.924,20.037ZM12.238,36.2a16.591,16.591,0,0,1-1.683-.442l-.03-.011q-.56-.519-1.071-1.086A19.739,19.739,0,0,1,8.18,32.951c-.366-.588-.7-1.186-1.009-1.8a22.438,22.438,0,0,1-.9-2.2A19.143,19.143,0,0,1,5.762,27a21.287,21.287,0,0,1-.3-2.437,20.15,20.15,0,0,1,.014-2.157c.055-.6.14-1.2.251-1.794q.069-.3.146-.6a15.024,15.024,0,0,0,1.614,6.422A17.86,17.86,0,0,0,8.733,28.5a17.858,17.858,0,0,0,2.084,4.156,17.363,17.363,0,0,0,3.658,3.827h0C13.725,36.422,12.979,36.329,12.238,36.2Zm8.15-.9.006.084c-.111-.049-.226-.088-.336-.139C20.168,35.265,20.278,35.278,20.388,35.3Zm.017,4.4c.1.034.2.058.3.09l.019.257h-.01c-.545-.046-1.086-.1-1.626-.184Q19.748,39.793,20.405,39.694Zm6.374,12.52c-.076.869-.152,1.737-.222,2.607-.009-.929-.019-1.86-.037-2.789-.024-1.143-.047-2.279-.071-3.416a15.423,15.423,0,0,0-.065-2.508,3.708,3.708,0,0,0-.412-1.343,4.451,4.451,0,0,0-.889-.989c.059.047.112.1.171.147-.053-.053-.112-.1-.165-.153a1.935,1.935,0,0,0-.338-.251c-.021-.268-.04-.535-.061-.8a22.323,22.323,0,0,0,3.325-.617C27.455,45.45,27.068,48.831,26.779,52.214Zm8.662-17.571a15.779,15.779,0,0,1-1.251,1.27c-.1.087-.206.172-.31.255q-.569.132-1.142.244c-.179.031-.359.044-.538.072.09-.228.168-.459.27-.682l.008-.015c.2-.106.4-.206.6-.317.7-.4,1.413-.819,2.106-1.27q.439-.162.873-.343Q35.76,34.258,35.441,34.643Zm1.593-6.955c-.081.117-.163.233-.247.346-.118.089-.239.175-.361.259-.479.3-.977.57-1.489.823-.652.3-1.313.568-1.989.809a22.455,22.455,0,0,1-2.3.592l.1-.016-.109.019-.2.039c.05-.012.1-.022.15-.031a33.712,33.712,0,0,1-3.458.405c-1.112.056-2.222.059-3.336.015-.011-.153-.024-.3-.035-.457A1.845,1.845,0,0,0,21.709,28.9a1.885,1.885,0,0,0-1.589,1.5c-.636-.164-1.268-.34-1.893-.547-.6-.217-1.183-.451-1.759-.718a14.862,14.862,0,0,1-1.331-.749c-.289-.2-.568-.413-.839-.638a15.2,15.2,0,0,1-1.1-1.112c-.345-.418-.668-.849-.971-1.3-.156-.251-.3-.5-.446-.76-.082-.512-.146-1.024-.186-1.54-.027-.65-.024-1.3.013-1.953.025-.312.056-.622.093-.932a2.24,2.24,0,0,0,.3-.414q.774-1.38,1.649-2.7c.667-.977,1.37-1.93,2.126-2.837a27.8,27.8,0,0,1,2.232-2.2c.3-.248.608-.487.929-.709q.309-.192.63-.363a13.865,13.865,0,0,1,1.308-.53c.475-.147.95-.27,1.434-.374.454-.075.9-.137,1.358-.175.319-.012.635-.014.952-.007.554.282,1.089.6,1.615.93a34.468,34.468,0,0,1,3.359,2.608,38.687,38.687,0,0,1,3.385,3.33,28.959,28.959,0,0,1,1.8,2.344A26.484,26.484,0,0,1,36.192,21.5a22.283,22.283,0,0,1,.971,2.365l-.013-.045.02.067.039.116c-.009-.023-.017-.046-.025-.069.146.488.273.972.38,1.471q.095.535.166,1.075C37.512,26.9,37.281,27.3,37.034,27.688Zm-.761-11.662c-.576-.745-1.186-1.459-1.823-2.146.091.074.182.149.272.225a26.4,26.4,0,0,1,1.939,1.934c.384.448.751.911,1.095,1.39.112.281.217.565.317.853q.153.488.284.98A23.075,23.075,0,0,0,36.273,16.026Zm11.632,9.936c-.063.289-.136.574-.221.856-.1.288-.218.568-.347.844-.179.341-.367.664-.572.986-.337.484-.7.943-1.078,1.391-.459.5-.936.977-1.436,1.435a17.218,17.218,0,0,1-1.427,1.089,24.112,24.112,0,0,1-2.216,1.247q-.764.36-1.545.684a10.906,10.906,0,0,0,1.373-3.232,12.221,12.221,0,0,0,2.243-2.652,10.637,10.637,0,0,0,1.573-3.768,11.572,11.572,0,0,0,.053-3.792,15.785,15.785,0,0,0-1.143-4,15.586,15.586,0,0,0-2.079-3.35,25.893,25.893,0,0,0-3.409-3.518c-.226-.279-.458-.552-.7-.822A27.321,27.321,0,0,0,34.017,6.4q.3.135.6.276a33.39,33.39,0,0,1,3.229,1.835A31.876,31.876,0,0,1,40.9,10.835a30.667,30.667,0,0,1,2.509,2.513l-.09-.106.108.126.081.091c-.023-.025-.046-.05-.068-.076a34.079,34.079,0,0,1,2.242,2.937,23.673,23.673,0,0,1,1.2,2.088c.24.515.458,1.036.646,1.569.135.44.244.879.339,1.329.1.549.17,1.095.214,1.653.024.55.031,1.1.005,1.647C48.04,25.059,47.983,25.509,47.905,25.962Z"/></svg>