<svg xmlns="http://www.w3.org/2000/svg" width="169.211" height="203.044" viewBox="0 0 169.211 203.044"><polygon points="24.274 28.379 24.272 28.382 24.265 28.389 24.274 28.379"/><path d="M169.182,63.233a33.7,33.7,0,0,0-1.042-7.555,42.562,42.562,0,0,0-2.656-7.225c-.588-1.254-1.2-2.5-1.866-3.721-.513-.937-1.019-1.9-1.59-2.8v0c-.817-1.31-1.652-2.609-2.474-3.913a58.264,58.264,0,0,0-4.375-6.177,47.339,47.339,0,0,0-3.869-4.2,54.651,54.651,0,0,0-4.452-3.786,69.265,69.265,0,0,0-6.777-4.581c-1.626-.96-3.227-1.955-4.87-2.885-1.708-.972-3.4-1.973-5.135-2.909q-2.481-1.351-4.958-2.715c-.736-.406-1.5-.765-2.255-1.148-.872-.442-1.743-.889-2.615-1.325.065.029.13.065.2.094-.713-.371-1.455-.7-2.191-1.024-.859-.389-1.719-.766-2.6-1.114-.847-.329-1.7-.647-2.567-.948-.8-.27-1.59-.565-2.4-.788-1.449-.407-2.892-.825-4.34-1.237-.707-.2-1.419-.371-2.132-.554-.842-.212-1.684-.441-2.532-.635-1.1-.254-2.2-.507-3.3-.766-.819-.188-1.649-.33-2.479-.483C95.118.692,94.346.545,93.551.456,92.9.386,92.244.315,91.585.238c-.3-.029-.607-.082-.913-.094C89.6.1,88.528.056,87.457.015c-.86-.03-1.72-.006-2.579-.006-1.69.006-3.38.029-5.064.106-.931.047-1.867.053-2.791.141-.583.053-1.172.112-1.761.165-.4.035-.807.053-1.2.112-.978.147-1.949.3-2.921.447-.948.148-1.9.354-2.838.536-1.684.324-3.363.666-5.053.96-1.112.171-2.219.348-3.332.5-1.2.159-2.385.318-3.575.524.077-.018.148-.03.218-.042-.294.048-.606.077-.9.154-.176.023-.347.059-.524.088l.212-.035a61.821,61.821,0,0,0-8.62,2.055c-1.443.453-2.892.906-4.317,1.431-.939.346-1.885.687-2.791,1.113a8.969,8.969,0,0,0-1.366.433,17.621,17.621,0,0,0-2.744,1.33c-.883.536-1.79,1.043-2.638,1.643-.83.6-1.7,1.155-2.5,1.808-.913.754-1.831,1.5-2.75,2.255-.27.218-.518.472-.771.713-.442.406-.877.818-1.313,1.23-.5.466-1.013.919-1.484,1.42-1.219,1.295-2.479,2.561-3.621,3.933s-2.279,2.7-3.327,4.122S14.97,30,13.993,31.492s-1.967,2.979-2.874,4.528c-.565.971-1.13,1.937-1.7,2.909-.371.636-.689,1.3-1.03,1.949-.424.8-.872,1.59-1.26,2.4-.442.919-.878,1.843-1.314,2.762-.73,1.549-1.354,3.139-2.007,4.722-.309.755-.564,1.538-.8,2.322-.318.689-.641,1.374-.921,2.08A31.209,31.209,0,0,0,.5,59.971a19.607,19.607,0,0,0-.3,7.172,18.916,18.916,0,0,0,2.291,6.642A23.751,23.751,0,0,0,6.815,79.4a29.1,29.1,0,0,0,5.971,4.269c.789.418,1.584.83,2.373,1.248.649.351,1.32.661,1.988.977.368.28.734.563,1.091.864.748.712,1.455,1.454,2.138,2.231.506.654.995,1.307,1.454,2a14.27,14.27,0,0,1,.878,1.578c.288.689.518,1.4.742,2.12v-.006c.188.73.359,1.461.5,2.2.047.354.118.713.141,1.072.024.413.053.825.083,1.231.023,1.419,0,2.826-.112,4.24-.106,1.377-.247,2.761-.3,4.139-.036.942-.065,1.873-.059,2.815a23.016,23.016,0,0,0,.7,5.606,16.975,16.975,0,0,0,1.16,3.232,17.162,17.162,0,0,0,1.136,1.908,20.661,20.661,0,0,0,1.59,2.114,13.758,13.758,0,0,0,1.837,1.831,3.811,3.811,0,0,0,1.349.7,3.053,3.053,0,0,0,1.123.043,7.732,7.732,0,0,0,1.126.584,4.83,4.83,0,0,0,2.826.23c3.151-.742,5.123-3.492,7.443-5.524.189-.141.377-.282.577-.418.148-.088.3-.17.448-.247a3.023,3.023,0,0,1,.312-.124c.071-.011.136-.029.2-.041a.828.828,0,0,1,.171-.018c.077,0,.159.006.235.006-.041-.006-.082-.006-.123-.012h.023l.1.012c.034,0,.068.006.1.012.053.018.112.036.17.053l.077.034c.316.678.627,1.356.96,2.019a13.452,13.452,0,0,0,3.132,4.045,9.6,9.6,0,0,0,1.068.806,8.073,8.073,0,0,0,1.1,1.145,4.463,4.463,0,0,0,1.944.878,5.726,5.726,0,0,0,2.343-.035c3.015-.66,5.294-2.968,7.1-5.347,1.018-1.343,1.967-2.75,3.074-4.022.27-.282.541-.553.83-.807a10.357,10.357,0,0,1,.883-.653c.293-.172.587-.33.89-.475.243-.106.492-.2.741-.287.171.094.342.194.507.3.194.141.376.288.559.441a10.7,10.7,0,0,1,.789.837,23.182,23.182,0,0,1,1.448,2.049c.672,1.172,1.3,2.373,1.95,3.562a12.707,12.707,0,0,0,1.489,2.356,5.88,5.88,0,0,0,1.967,1.46,7.211,7.211,0,0,0,2.085.663,5.844,5.844,0,0,0,2.484,1.412,7.135,7.135,0,0,0,4.794-.494,11.8,11.8,0,0,0,3.757-2.9c.818-.913,1.584-1.867,2.331-2.838.583-.749,1.154-1.514,1.785-2.232.287-.305.582-.6.9-.875.276-.222.553-.435.846-.633.248-.141.5-.277.754-.4.051-.022.1-.038.152-.058.062.051.128.1.19.15.253.241.5.494.73.753.233.29.448.581.653.887.164.264.323.53.472.8.424.8.824,1.614,1.236,2.42a18.037,18.037,0,0,0,2.414,3.628,10.828,10.828,0,0,0,5.547,3.762,7.111,7.111,0,0,0,1.5.165,6.485,6.485,0,0,0,1.483-.192,8.777,8.777,0,0,0,3.587,1.055c.141.005.283.011.424.011a7.8,7.8,0,0,0,4.934-1.766c2.7-2.232,4.028-5.488,5.235-8.68.795-2.1,1.484-4.228,2.479-6.241-.017.029-.029.058-.047.088.018-.035.035-.071.059-.112l.021-.044a.114.114,0,0,0-.009.026,18.243,18.243,0,0,1,1.095-1.825,21.816,21.816,0,0,1,1.531-1.919,45.991,45.991,0,0,1,4.181-3.9c.324-.247.659-.489.989-.73.312-.236.612-.489.942-.707l2.067-1.36c.8-.483,1.6-.966,2.391-1.46.942-.595,1.9-1.16,2.814-1.785.783-.541,1.6-1.054,2.362-1.625l.3-.225a30.814,30.814,0,0,0,8.951-7.061,30.439,30.439,0,0,0,2.471-3.585c.078-.1.162-.192.232-.293.583-.824,1.166-1.655,1.749-2.479.565-.807,1.054-1.678,1.572-2.52.465-.76.866-1.567,1.29-2.35A35.282,35.282,0,0,0,168.835,70.9,47.579,47.579,0,0,0,169.182,63.233ZM64.18,5.75c2.455-.453,4.9-.954,7.36-1.419.842-.124,1.673-.253,2.509-.383.683-.106,1.366-.153,2.055-.218.648-.058,1.3-.123,1.955-.153.83-.047,1.66-.082,2.491-.124,1.678-.029,3.356-.064,5.034-.07.748,0,1.49-.006,2.232.024l2.726.1,1.578.177c.566.059,1.155.083,1.714.189l2.084.383c-.747-.006-1.5-.029-2.243-.027-3.5.006-7,.141-10.5.289.076,0,.153-.006.224-.006-2.656.094-5.312.341-7.956.583s-5.276.536-7.92.642h.018c-.553.017-1.113.035-1.666.058.07,0,.141,0,.212,0-.554.023-1.1.041-1.655.064h.065c-.5.017-1,.052-1.5.089C63.392,5.884,63.787,5.822,64.18,5.75ZM39.225,12.369A19.323,19.323,0,0,1,41.133,11.3a62.657,62.657,0,0,1,6.78-2.4l-.013,0,.1-.031c.036-.012.065-.018.1-.029a.314.314,0,0,0-.047.017c1.325-.4,2.662-.795,4.022-1.089q1.267-.273,2.541-.521A46.918,46.918,0,0,0,48.075,9.39c-.246.045-.491.092-.73.146-.365.083-.742.153-1.1.265.047-.017.1-.029.147-.047-.807.242-1.619.471-2.414.771-.513.189-1.031.383-1.549.578-.383.147-.754.347-1.131.524-.453.212-.936.394-1.372.642-.37.206-.741.418-1.112.624-.619.347-1.225.695-1.82,1.077C37.717,13.411,38.453,12.869,39.225,12.369ZM19.934,27.917c.178-.242.373-.476.567-.71a1.517,1.517,0,0,0,.3.07c-.179.2-.361.395-.539.593v0c-.605.672-1.172,1.376-1.756,2.064-.123.142-.241.283-.365.43C18.733,29.542,19.334,28.73,19.934,27.917Zm6.583,66.651c-.156-.589-.326-1.179-.52-1.76.11.273.219.546.315.829l.017.051c.012.035.024.076.035.112l-.035-.106a17.808,17.808,0,0,1,.417,1.772c0,.025.006.05.01.075C26.684,95.215,26.6,94.89,26.517,94.568Zm15.469,23.975c-.536.436-1.018.93-1.513,1.419-.754.748-1.5,1.507-2.3,2.208-.312.253-.63.5-.96.724-.2.12-.4.234-.618.341l-.018.008c.526-.569,1.025-1.166,1.519-1.753.536-.647,1.083-1.283,1.631-1.919a13.575,13.575,0,0,1,1.154-1.107c.459-.371.942-.707,1.431-1.031.371-.215.746-.425,1.135-.613.134-.058.268-.114.408-.164l-.028.007c.039-.011.077-.022.116-.03a.154.154,0,0,0,.047.005.085.085,0,0,0,.036.012l.035.018.088.053c.06.046.114.094.167.143s.085.091.128.134.084.113.127.17A7.248,7.248,0,0,0,41.986,118.543Zm2.357-1.654.016.014c.006.006.012.006.012.012Zm32.55,3.9a27.041,27.041,0,0,0-1.416-2.32c.114.116.231.231.338.35.177.223.342.453.5.694a14.931,14.931,0,0,1,.83,1.508c.157.349.3.706.443,1.06C77.358,121.65,77.128,121.217,76.893,120.79Zm16.547-.363c-1.314,1.561-2.486,3.227-3.852,4.746-.359.377-.73.724-1.118,1.06-.254.2-.5.389-.76.56-.206.123-.412.235-.624.347-.212.088-.43.177-.648.253a5.524,5.524,0,0,1-.606.141h-.006a18.137,18.137,0,0,0,2.749-3.042c.843-1.1,1.643-2.243,2.574-3.279a14.247,14.247,0,0,1,1.06-1.025c.206-.153.418-.306.63-.447.194-.118.388-.218.589-.319.27-.111.541-.217.818-.306.207-.053.414-.1.621-.143A13.064,13.064,0,0,0,93.44,120.427Zm14.7,7.517a16.4,16.4,0,0,1-1.307-1.343c-.395-.488-.76-.989-1.1-1.507-.759-1.283-1.413-2.608-2.119-3.916-.108-.2-.236-.385-.356-.578.063.039.129.075.191.116.188.147.377.294.553.453.277.259.536.53.789.813a18.9,18.9,0,0,1,1.148,1.613c.619,1.025,1.178,2.1,1.738,3.168.274.518.576,1.024.895,1.521C108.43,128.17,108.281,128.062,108.143,127.944Zm19.95-14.53a25.3,25.3,0,0,0-2.756,5.606c-.306.842-.612,1.684-.924,2.514-.55,1.445-1.083,2.884-1.772,4.265a18.9,18.9,0,0,1-1.019,1.753c-.283.395-.589.766-.907,1.131-.165.165-.342.329-.518.489-.232.185-.47.365-.719.533a7.241,7.241,0,0,1-.683.356c-.082.035-.171.065-.253.094-.212.059-.424.112-.642.159-.183.023-.359.047-.536.059-.11,0-.223,0-.334,0a21.271,21.271,0,0,0,4.4-7.641c.642-1.66,1.207-3.368,1.99-4.964,0,.006-.006.012-.006.018l.018-.036c.02-.044.04-.084.063-.127-.011.021-.019.042-.028.063a14.586,14.586,0,0,1,.866-1.449c.311-.428.634-.839.986-1.238a15.31,15.31,0,0,1,1.275-1.223c.518-.412,1.054-.8,1.6-1.16.292-.185.594-.35.891-.527C128.736,112.515,128.4,112.955,128.093,113.414Zm32.948-37.92a44.331,44.331,0,0,1-.721,4.76,34.724,34.724,0,0,1-1.113,3.921,30.475,30.475,0,0,1-1.513,3.491c-.433.814-.9,1.6-1.391,2.378-.177.219-.355.437-.529.658-.435.46-.871.925-1.3,1.39-.371.395-.771.76-1.166,1.131-.836.783-1.7,1.519-2.555,2.273-.619.494-1.237,1-1.861,1.5-.554.448-1.137.866-1.714,1.29-.133.1-.272.193-.406.292-.608.353-1.212.714-1.831,1.053-1.143.631-2.291,1.243-3.439,1.873-2.285,1.242-4.558,2.5-6.837,3.745-1.419.772-2.838,1.531-4.251,2.32a32.881,32.881,0,0,0-6.4,4.134,15.326,15.326,0,0,0-3.727,5.081c-.342.784-.666,1.561-.966,2.356-.718,1.9-1.419,3.81-2.314,5.629a20.583,20.583,0,0,1-1.125,1.908,14.9,14.9,0,0,1-.93,1.166c-.206.218-.418.424-.642.624a7.505,7.505,0,0,1-.666.507l-.037.02c-.187-.143-.374-.284-.555-.44-.265-.247-.517-.506-.762-.773a14.658,14.658,0,0,1-.924-1.243c-1.119-1.807-1.967-3.762-3.174-5.511a11.107,11.107,0,0,0-3.139-3.215,7.677,7.677,0,0,0-4.139-1.266,9.286,9.286,0,0,0-1.709.2,6.993,6.993,0,0,0-3.22-.947H95.83a8.689,8.689,0,0,0-5.294,1.768,18.32,18.32,0,0,0-2.679,2.72c-.465.554-.883,1.16-1.313,1.737-.548.748-1.113,1.478-1.731,2.173-.318.336-.636.666-.989.972-.2.153-.407.306-.619.453-.146.091-.3.172-.455.254-.094-.178-.2-.35-.285-.532-.7-1.562-1.222-3.2-1.9-4.771a13.74,13.74,0,0,0-2.968-4.676A7.457,7.457,0,0,0,73,113.921a9.732,9.732,0,0,0-3.2.365,5.427,5.427,0,0,0-2.067.056,8.135,8.135,0,0,0-4.6,3.174c-.572.771-1.072,1.584-1.567,2.408-.365.618-.748,1.219-1.142,1.814-.442.594-.883,1.189-1.378,1.749-.259.27-.524.53-.807.783-.206.165-.418.324-.642.477-.17.1-.341.194-.524.282a5.69,5.69,0,0,1-.63.242c-.129.035-.271.07-.406.1a3.451,3.451,0,0,1-.347.041c-.218.006-.43,0-.648-.012l-.359-.053c-.212-.053-.424-.117-.636-.188-.041-.017-.08-.036-.12-.053-.711-.928-1.36-1.9-2-2.882l.006.011a25.69,25.69,0,0,0-2.02-2.991,7.676,7.676,0,0,0-1.491-1.4l-.116-.252a8.009,8.009,0,0,0-2.715-3.551,3.151,3.151,0,0,0-2.2-.394,6.219,6.219,0,0,0-1.808.689,14.861,14.861,0,0,0-4.3,3.362c-.959,1.09-1.872,2.214-2.844,3.292a.605.605,0,0,1,.053-.065c-.347.371-.7.724-1.071,1.066-.108.09-.228.167-.34.253a11.021,11.021,0,0,1-.767-.792c-.248-.312-.477-.624-.7-.96a16.541,16.541,0,0,1-.919-1.678c.018.047.041.094.059.141-.029-.065-.053-.124-.082-.188-.242-.56-.459-1.131-.654-1.72a17.826,17.826,0,0,1-.453-1.932c-.1-.635-.153-1.271-.189-1.912-.045-1.189-.011-2.385.053-3.575.1-1.8.236-3.6.365-5.4a38.048,38.048,0,0,0-.035-8.815,13.531,13.531,0,0,0-2.438-6.259,11.938,11.938,0,0,0-2.573-2.479,22.33,22.33,0,0,0-2.756-1.649c-.941-.487-1.907-.939-2.871-1.384-.558-.433-1.141-.839-1.716-1.245-.736-.518-1.513-.977-2.29-1.425-1.4-.806-2.78-1.6-4.122-2.485-.636-.477-1.278-.948-1.879-1.478A16.292,16.292,0,0,1,7.857,75.7a15.182,15.182,0,0,1-.978-1.354,18.23,18.23,0,0,1-1.013-1.9,22.486,22.486,0,0,1-.839-2.224,25.6,25.6,0,0,1-.691-2.892c.006.03.006.065.011.1a26.1,26.1,0,0,1-.294-2.874,27.911,27.911,0,0,1,.1-3.221,35.47,35.47,0,0,1,.585-3.7A44.624,44.624,0,0,1,6.154,52.7c.118-.235.231-.474.349-.711a.151.151,0,0,1,.011-.022l0-.009.007-.015c.01-.021.021-.039.031-.059l-.025.053c.683-1.213,1.331-2.45,2.085-3.621.382-.595.747-1.207,1.142-1.8.383-.572.777-1.137,1.166-1.708-.036.053-.065.1-.1.147,2.09-2.85,4.369-5.553,6.613-8.285,2.161-2.638,4.274-5.323,6.494-7.914-.035.041-.076.083-.117.124.152-.164.3-.334.457-.5l.4-.444c0,.005,0,.005,0,.011a.559.559,0,0,1,.058-.064.588.588,0,0,1,.059-.065h0l.808-.895-.112.129c.995-1.095,2.073-2.12,3.156-3.126.625-.581,1.259-1.149,1.894-1.715.082-.054.162-.112.244-.166,1.236-.76,2.473-1.508,3.727-2.244,1.225-.718,2.444-1.431,3.663-2.155,2.355-1.4,4.746-2.726,7.213-3.916q.744-.334,1.489-.674c1.679-.759,3.413-1.4,5.153-1.987-.059.017-.124.035-.182.053.783-.23,1.554-.471,2.349-.672s1.6-.371,2.408-.535c-.064.011-.129.023-.194.029.253-.041.512-.083.766-.13l-.2.036,1.054-.177-.135.018a61.62,61.62,0,0,1,6.457-.607c1.3-.012,2.6-.029,3.9-.082-.071.006-.142.006-.212.011.217-.011.435-.017.653-.023h-.047c.047,0,.1-.006.153-.006H68.79c2.591-.1,5.176-.33,7.755-.536,2.3-.188,4.605-.306,6.913-.424,3.2-.106,6.4-.206,9.61-.2,1.814.006,3.622.029,5.435.083,1.549.047,3.08.206,4.617.329l-.23-.017c.672.1,1.349.2,2.026.306.571.082,1.154.135,1.719.259,1.278.283,2.562.559,3.84.824,1.97.5,3.906,1.071,5.821,1.75a46.574,46.574,0,0,1,5.092,2.223c2.59,1.348,5.06,2.909,7.506,4.495,1.095.771,2.208,1.519,3.315,2.267a1.1,1.1,0,0,1-.094-.071l.123.089c.024.017.047.029.071.047l-.03-.018c1.03.733,2.037,1.494,3.057,2.244.512.376.989.812,1.478,1.218s.954.8,1.436,1.19c.483.447.954.912,1.437,1.366.453.424.936.836,1.36,1.29.948,1.006,1.9,2.019,2.827,3.056,1.56,1.949,3.15,3.868,4.616,5.894.371.512.748,1.025,1.119,1.537s.766,1.013,1.119,1.537c.671,1.018,1.342,2.031,2.025,3.05a47.129,47.129,0,0,1,2.4,4.463c1.364,3.01,2.53,6.118,3.592,9.245l0-.006c.258.881.517,1.769.781,2.65a42.045,42.045,0,0,1,1.107,4.811.742.742,0,0,1-.023-.112,50.667,50.667,0,0,1,.583,5.6A49.929,49.929,0,0,1,161.041,75.494Zm4.6-6.283a34.28,34.28,0,0,1-.586,3.809c-.114.493-.245.978-.376,1.464a47.912,47.912,0,0,0-.112-8.044c-.136-1.319-.313-2.638-.554-3.946-.206-1.13-.424-2.278-.742-3.386-.283-.995-.577-1.99-.866-2.985-.206-.718-.441-1.413-.689-2.114-.294-.848-.565-1.708-.894-2.544a77.569,77.569,0,0,0-3.2-7.508,45.094,45.094,0,0,0-2.379-4.063c-.518-.783-1.007-1.595-1.554-2.355-1.031-1.407-2.05-2.826-3.1-4.216-.506-.671-1-1.354-1.525-2.008q-1.025-1.272-2.049-2.538c-.45-.56-.94-1.086-1.431-1.611.819.65,1.628,1.314,2.409,2.008a48.491,48.491,0,0,1,4.285,4.478,54.425,54.425,0,0,1,3.693,5.038q1.519,2.456,3.086,4.9c1.284,2.179,2.479,4.4,3.539,6.689a43.408,43.408,0,0,1,1.873,4.858,34.623,34.623,0,0,1,.9,3.71,38.631,38.631,0,0,1,.442,4.516v-.035A50.287,50.287,0,0,1,165.646,69.211Z"/><path d="M68.166,40.888a10.353,10.353,0,0,0-4.092-4.51A9.809,9.809,0,0,0,58,35.347a17.431,17.431,0,0,0-6.195,2.226A18.962,18.962,0,0,0,46.9,41.831a31.261,31.261,0,0,0-6.2,12.006c-1.149,4.434-1.4,9.245.259,13.591a17.257,17.257,0,0,0,3.45,5.6c.118.13.242.26.365.383.106.212.224.43.348.636A5.11,5.11,0,0,0,46.968,76a6.716,6.716,0,0,0,3.2.754,8.936,8.936,0,0,0,2.344-.318c.135-.035.265-.071.394-.118A9.617,9.617,0,0,0,55.3,75.73a17.287,17.287,0,0,0,5.447-3.438,28.8,28.8,0,0,0,4.328-5.041,29.439,29.439,0,0,0,4.9-12.872,28.932,28.932,0,0,0,.059-6.99A19.542,19.542,0,0,0,68.166,40.888ZM59,49.845c.012.43.018.854.012,1.284a7.367,7.367,0,0,0-1.266.989,14.548,14.548,0,0,0-2.079,2.343c-.006.012-.018.024-.024.036.313-.725.654-1.437,1.007-2.138l-.005.006A18.976,18.976,0,0,1,57.62,50.7c.177-.235.359-.471.554-.694q.38-.4.794-.76C58.98,49.45,59,49.644,59,49.845Zm-1.137,7.873c-.017.059-.041.117-.059.176-.053.153-.111.3-.17.454a.933.933,0,0,0-.112-.059C57.638,58.1,57.75,57.906,57.867,57.718Zm-6.3-16.094a16.265,16.265,0,0,1,1.46-1.065c.548-.33,1.107-.63,1.684-.907a21.467,21.467,0,0,1,2.144-.813c.459-.135.918-.241,1.383-.33l.124-.017A14.441,14.441,0,0,0,56.5,39.917a18.151,18.151,0,0,0-1.678,1.743,5.4,5.4,0,0,0-4.369,1.018C50.813,42.313,51.178,41.96,51.567,41.624ZM46.273,57.57a39.1,39.1,0,0,0-2.22,6.737c-.088.494-.159.983-.218,1.478-.041-.136-.088-.271-.135-.407.006.006.006.018.011.024-.152-.53-.288-1.06-.4-1.6,0-.312.012-.618.035-.924.042-.359.1-.707.177-1.06.33-1.437.642-2.879,1.007-4.31.335-1.3.732-2.581,1.171-3.853a25.142,25.142,0,0,1,1.124-2.642,25.514,25.514,0,0,1,1.5-2.532,21.641,21.641,0,0,1,1.549-1.973c.341-.359.7-.707,1.071-1.042l.018-.014-.012.008.03-.024.029-.029L51,45.426c.286-.235.585-.46.9-.671a8.276,8.276,0,0,1,.773-.428c.059-.023.123-.053.182-.076-.141.212-.282.418-.424.624a44.783,44.783,0,0,0-3.362,6.094c-.53,1.113-1.06,2.232-1.531,3.374C47.1,55.409,46.679,56.487,46.273,57.57Zm4.781,8.963c-.064.023-.123.047-.188.07s-.135.03-.206.047c-.047-.047-.094-.094-.136-.141-.047-.065-.094-.123-.135-.188a4.022,4.022,0,0,1-.212-.389c-.012-.029-.023-.065-.041-.1-.012-.059-.024-.124-.041-.183s-.018-.135-.024-.2q-.009-.379.018-.759c.065-.654.135-1.3.223-1.955a1.676,1.676,0,0,0,.63.424,4.452,4.452,0,0,0,.36.9A6.88,6.88,0,0,0,51.054,66.533Zm10.011-2.7a28.664,28.664,0,0,1-1.513,2.5,28.447,28.447,0,0,1-2.072,2.6,22.149,22.149,0,0,1-1.711,1.646,25.275,25.275,0,0,1-2.124,1.555c-.241.147-.488.294-.742.429-.07.03-.147.053-.223.077-.289.082-.572.153-.86.212-.23.041-.453.064-.683.082-.165.006-.33.006-.5,0-.153-.018-.312-.047-.465-.076-.182-.048-.359-.1-.536-.159-.277-.112-.547-.236-.818-.365-.218-.118-.43-.248-.642-.377q-.257-.177-.495-.371c-.088-.206-.17-.412-.247-.63s-.124-.46-.171-.689c-.071-.492-.107-.986-.131-1.488-.005-.2-.01-.4-.01-.6a4.7,4.7,0,0,0,1.925,1.761,3.534,3.534,0,0,0,2.385.165A9.045,9.045,0,0,0,52.78,69.6a1.7,1.7,0,0,0,1.86.124,10.466,10.466,0,0,0,2.426-1.531,9.456,9.456,0,0,0,1.561-2.143,10.457,10.457,0,0,0,.553-1.195,13.242,13.242,0,0,0,1.349-1.225c.436-.454.877-.919,1.272-1.413C61.577,62.764,61.33,63.306,61.065,63.836Zm.241-18.525c-.023-.047-.053-.1-.082-.147a5.009,5.009,0,0,0-1.26-1.478c.076.005.159.023.235.035.106.029.206.059.306.088.171.071.336.142.507.224.129.07.253.147.377.229l.223.171c.024.03.053.053.077.083.094.117.177.229.259.353.088.153.165.306.242.459.111.254.217.513.312.778A4.03,4.03,0,0,0,61.306,45.311ZM64.515,42.6A6.393,6.393,0,0,0,61.8,40.653c.147-.041.294-.077.447-.112l.236-.018c.076,0,.147.006.218.006.141.018.271.042.406.065a4.933,4.933,0,0,1,.507.153c.064.03.129.059.2.089-.022-.011-.042-.023-.061-.034.026.015.054.027.078.04l.025.013c.056.033.115.066.176.1l.088.071c.071.065.135.135.2.206.094.124.188.247.277.383.171.277.324.565.471.865.065.153.123.306.182.471a13.3,13.3,0,0,1,.313,1.355c.017.129.035.253.053.383A7.441,7.441,0,0,0,64.515,42.6Z"/><path d="M122.487,50.523a7.144,7.144,0,0,0-2.915-1.048,8.564,8.564,0,0,0-1.342-2.821,5.548,5.548,0,0,0-2.621-2.067,5.3,5.3,0,0,0-3.415.33,12.745,12.745,0,0,0-3.015,1.8,16.878,16.878,0,0,0-1.69,1.614,14.447,14.447,0,0,0-3.3,2.084,29.637,29.637,0,0,0-5.3,6.036A43.109,43.109,0,0,0,96.6,60.221c-.636,1.172-1.266,2.361-1.791,3.586a33.73,33.73,0,0,0-1.383,4.022,10.72,10.72,0,0,0-.536,3.363,5.912,5.912,0,0,0,.5,2.066,7.3,7.3,0,0,0,.094,1.019,7.688,7.688,0,0,0,1.06,2.762,13.256,13.256,0,0,0-.153,1.943A17.308,17.308,0,0,0,94.6,82.2a5.429,5.429,0,0,0,1.378,2.927,7.227,7.227,0,0,0,2.6,1.584c.212.076.43.147.654.206a5.115,5.115,0,0,0,2.644.877c.211.012.429.023.641.023a12.666,12.666,0,0,0,2.939-.382,15.75,15.75,0,0,0,3.2-1.113,30.623,30.623,0,0,0,6.336-4.64,40.085,40.085,0,0,0,5.694-6.165,31.711,31.711,0,0,0,4.264-7.143,21.63,21.63,0,0,0,1.689-7.991,13.863,13.863,0,0,0-1.807-7.219A7.824,7.824,0,0,0,122.487,50.523Zm-14.338,29.16a21.406,21.406,0,0,1-1.979,1.442c-.789.471-1.595.913-2.426,1.307-.377.171-.759.324-1.148.466-.306.088-.607.159-.913.217-.1.012-.206.024-.312.03h-.141c-.071-.136-.147-.271-.218-.412-.165-.383-.306-.766-.436-1.16-.123-.418-.229-.842-.312-1.272.094.006.189.012.289.012a4.232,4.232,0,0,0,.388.212,4.29,4.29,0,0,0,1.455.341,6.873,6.873,0,0,0,1.6-.018,7.976,7.976,0,0,0,3.268-1.23c.17-.071.341-.141.512-.218.259-.012.518-.035.777-.065C108.419,79.453,108.284,79.565,108.149,79.683Zm4.316-21.37a6.565,6.565,0,0,0-1.148-.188c.082-.1.165-.2.247-.29.014-.014.027-.029.041-.045s.03-.036.047-.054l-.01.014c.165-.175.329-.35.493-.52.324.241.636.5.942.766.248.235.477.482.707.73.047.058.094.112.141.17A5.781,5.781,0,0,0,112.465,58.313Zm10,3.363a18.327,18.327,0,0,1-.3,1.9q-.291,1.22-.695,2.4c-.123.33-.247.654-.382.972a14.741,14.741,0,0,0-.165-2.032,31.08,31.08,0,0,0,.017-10.234c.071.1.142.2.212.307.183.312.354.624.513.954.165.365.312.742.441,1.124.1.36.189.719.259,1.078.071.518.124,1.03.153,1.549A18.632,18.632,0,0,1,122.469,61.676Z"/><path d="M62.755,96.623A1.507,1.507,0,0,0,61.13,95.3a1.534,1.534,0,0,0-1.308,1.154,1.325,1.325,0,0,0-.771-.989,1.347,1.347,0,0,0-1.761.694c-.321.847-.647,1.687-.945,2.527l0-.006c-.053.135-.1.271-.147.406v0c-.072.2-.145.4-.212.605.018-.053.035-.107.053-.165a13.142,13.142,0,0,0-.512,1.707,2.93,2.93,0,0,0,.047,1.608,1.811,1.811,0,0,0,1.749,1.154,2.185,2.185,0,0,0,.553-.071,3.379,3.379,0,0,0,1.355-.842,9.136,9.136,0,0,0,.936-1.012,1.353,1.353,0,0,0,.936-.154,2.8,2.8,0,0,0,1.048-.859,4.08,4.08,0,0,0,.542-1.337,7.334,7.334,0,0,0,.165-1.078c.023-.135.035-.276.059-.412a1.54,1.54,0,0,0-.059-.653C62.843,97.254,62.8,96.936,62.755,96.623Z"/><path d="M80.337,98.59a1.379,1.379,0,0,0-1.507-1.224,3.585,3.585,0,0,0-1.99,1.154,16.69,16.69,0,0,0-1.973,2.384c-.294.436-.583.872-.836,1.331a5.068,5.068,0,0,0-.553,1.254,2.311,2.311,0,0,0,.312,1.914,1.5,1.5,0,0,0,.412.383,1.839,1.839,0,0,0,.559.3,3.277,3.277,0,0,0,.913.153,1.986,1.986,0,0,0,.983-.254,8.353,8.353,0,0,0,1.779-1.36,7.609,7.609,0,0,0,1.378-1.766,2.932,2.932,0,0,0,.323-1.084,5.76,5.76,0,0,0-.023-.966,1.473,1.473,0,0,0-.4-.918A1.406,1.406,0,0,0,80.337,98.59Z"/><path d="M125.3,150.461a11.91,11.91,0,0,0-5.665-4.134,12.819,12.819,0,0,0-7.455-.265,15.92,15.92,0,0,0-6.665,3.839,38.656,38.656,0,0,0-3.645,4.093c-1.5,1.9-2.827,3.945-4.44,5.765a18.049,18.049,0,0,1-1.561,1.507c-.359.283-.724.56-1.107.813-.123.07-.253.135-.376.206-.265.112-.531.218-.8.318a2.674,2.674,0,0,1-.3.07c-.082.012-.159.018-.235.03s-.159-.007-.24-.013-.15-.023-.225-.034a1.914,1.914,0,0,1-.283-.077c-.047-.023-.1-.041-.147-.065l-.078-.044a3.146,3.146,0,0,1-.281-.209.006.006,0,0,0-.006-.006c-.089-.171-.171-.341-.254-.518-.371-.877-.677-1.784-1.012-2.673-.313-.819-.648-1.626-.99-2.432a17.525,17.525,0,0,0-2.084-3.739,26.075,26.075,0,0,0-2.5-5.582,9.317,9.317,0,0,0-4.475-4.04,5.088,5.088,0,0,0-3.062-.153,4.714,4.714,0,0,0-2.279,1.472A12.065,12.065,0,0,0,73,148.706c-.6,1.609-1.137,3.234-1.712,4.854a33.434,33.434,0,0,1-1.344,3.207c-.242.454-.495.9-.784,1.337-.247.336-.5.659-.771.971-.241.242-.483.472-.73.7-.212.171-.43.33-.648.483-.259.159-.518.3-.783.43a4.369,4.369,0,0,1-.442.171c-.212.059-.424.112-.641.159-.159.017-.312.035-.477.047a2.47,2.47,0,0,1-.365-.012c-.13-.012-.26-.035-.389-.059-.206-.047-.406-.106-.6-.17-.147-.059-.288-.124-.43-.189-.312-.171-.612-.347-.906-.542q-.874-.636-1.679-1.354c-1.972-1.819-3.827-4.045-6.394-5.017a8.538,8.538,0,0,0-5.1-.4,8.438,8.438,0,0,0-4.351,2.62,14.538,14.538,0,0,0-3,7.119c-.005.041-.017.083-.023.118a37.557,37.557,0,0,0-1.066,4.145c-.212,1.119-.577,3.009.477,3.8.024.548.053,1.09.083,1.637a25.036,25.036,0,0,0,.424,3.316,29.873,29.873,0,0,0,.953,3.868,26.408,26.408,0,0,0,3.622,7.32,20.428,20.428,0,0,0,5.576,5.393,30.493,30.493,0,0,0,6.227,2.929l0,0,.021.008.009,0h0c.044.017.088.032.137.047a.617.617,0,0,0,.112.041c-.012,0-.018-.006-.024-.006.249.093.5.185.757.272l.007,0,.008,0h0l.026.007c.071.029.142.053.218.076-.041-.011-.076-.023-.112-.035.207.076.419.147.624.224s.425.165.642.229c-.005-.006-.017-.006-.023-.011a.249.249,0,0,1,.029.011c.012.006.024.006.036.012.07.024.141.053.217.077-.032-.011-.059-.017-.086-.027h0l.109.037.023.011-.017,0,.026.009a.133.133,0,0,0,.03.011c3.7,1.317,7.471,2.471,11.244,3.566,1.914.56,3.833,1.1,5.776,1.549,1.137.265,2.291.442,3.439.66.883.165,1.773.241,2.668.335.971.112,1.931.2,2.909.248.865.041,1.742.111,2.608.111.094,0,.183-.006.277-.006,1.189-.017,2.373-.046,3.562-.058a33.23,33.23,0,0,0,3.657-.283c1.313-.159,2.638-.353,3.934-.636a29.371,29.371,0,0,0,7.672-2.72,31.693,31.693,0,0,0,6.8-4.929,35.333,35.333,0,0,0,4.005-4.493,17.677,17.677,0,0,0,3.456-4.628,36.689,36.689,0,0,0,2.35-6.112c.335-1.137.671-2.279,1.018-3.416.3-.989.507-2.014.76-3.014.212-.848.371-1.7.536-2.556.294-1.531.583-3.05.759-4.6a29.922,29.922,0,0,0-.07-8.267A15.517,15.517,0,0,0,125.3,150.461Zm-32.5,12.229c-.032,0-.063,0-.1,0-.006,0-.011-.006-.017-.006A.864.864,0,0,0,92.805,162.69Zm-14.57-16.534.044-.011-.055.017C78.23,146.156,78.23,146.156,78.235,146.156Zm-1.807,2.756c.177-.436.347-.871.553-1.3.124-.242.253-.477.4-.707a3.652,3.652,0,0,1,.271-.336c.07-.076.147-.147.223-.218.044-.032.094-.061.14-.093s.086-.04.131-.065l.162-.061a1.744,1.744,0,0,1,.215-.057l.159-.018h.183c.082.012.165.024.247.041.118.024.235.059.353.095.141.052.283.112.418.17.112.065.218.124.324.195a9.681,9.681,0,0,1,.777.612c.242.236.471.483.689.736.265.342.518.689.76,1.048.065.106.13.212.188.324a6.414,6.414,0,0,0-1.607-.324,5.891,5.891,0,0,0-3.015.53,7.586,7.586,0,0,0-2.191,1.637c-.07.077-.135.147-.2.224C75.88,150.537,76.151,149.725,76.428,148.912Zm45.894,20.038c-.088.913-.165,1.832-.247,2.75-.189,1.225-.365,2.456-.618,3.669a34.729,34.729,0,0,1-1.022,3.619,30.386,30.386,0,0,1-1.261,2.947l.008-.012a.281.281,0,0,0-.022.047l-.088.176c.007-.018.014-.036.023-.054a38.16,38.16,0,0,1-2.373,3.929,37.169,37.169,0,0,1-2.593,3.265c-.588.637-1.2,1.253-1.829,1.84-1.831,1.072-3.733,2-5.629,2.968-.9.365-1.79.783-2.685,1.172a46.773,46.773,0,0,1-4.4,1.658l.015,0c-.059.018-.112.036-.165.054a.159.159,0,0,0-.028.005l.01-.005a34.019,34.019,0,0,1-4.169,1h.012a24.561,24.561,0,0,1-2.461.248,28.645,28.645,0,0,1-2.96-.1,36.545,36.545,0,0,1-3.7-.6c-3-.682-5.919-1.664-8.847-2.59-2.387-.747-4.762-1.523-7.12-2.346.011,0,.023,0,.037.009a48.1,48.1,0,0,1-4.552-1.985,37.888,37.888,0,0,1-3.939-2.349,24.683,24.683,0,0,1-2.409-1.9,18.115,18.115,0,0,1-1.39-1.449,16.839,16.839,0,0,1-1.006-1.395,21.207,21.207,0,0,1-1.066-1.973,36.292,36.292,0,0,1-1.508-4.017h0c-.43-1.4-.783-2.815-1.1-4.24-.294-1.307-.536-2.614-.777-3.921-.141-.942-.3-1.879-.371-2.827q-.132-1.519-.2-3.044c-.012-.754-.024-1.5-.018-2.25a1.564,1.564,0,0,0-3.127-.076c-.011,1.072-.017,2.137.012,3.2.024.937.088,1.867.153,2.8.029.43.094.848.147,1.272.071.512.124,1.031.212,1.543.165.913.3,1.837.5,2.738a59.338,59.338,0,0,0,1.961,7.319,22.753,22.753,0,0,0,3.633,6.872,23.1,23.1,0,0,0,5.965,4.923c.212.129.43.259.648.388-.03-.011-.053-.017-.083-.029a.358.358,0,0,0-.041-.012.045.045,0,0,0-.029-.011.081.081,0,0,1,.027,0l-.081-.029h-.007a.038.038,0,0,1-.017-.007l-.023-.01c-.065-.023-.129-.047-.2-.07-.088-.03-.177-.065-.271-.095.036.012.077.03.112.042-.041-.012-.076-.03-.118-.042s-.072-.027-.108-.04l.1.035c-.148-.059-.3-.112-.448-.165-.313-.114-.632-.228-.946-.337l.024.009c-.156-.055-.312-.113-.468-.167H59.4a.02.02,0,0,1-.017-.006c-.041-.016-.086-.03-.131-.045l.007,0-.045-.017-.02-.007H59.2a38.37,38.37,0,0,1-3.744-1.6,22.821,22.821,0,0,1-1.967-1.178c-.5-.359-.977-.742-1.442-1.148a20.36,20.36,0,0,1-1.49-1.537,24,24,0,0,1-1.525-2.085,25.9,25.9,0,0,1-1.5-2.755,27.152,27.152,0,0,1-1.072-2.831,34.206,34.206,0,0,1-.833-3.513c-.15-.937-.264-1.87-.327-2.813-.035-.524-.064-1.042-.1-1.566,0-.371,0-.748.006-1.125,0-.347-.023-.707,0-1.054.053-.677.094-1.366.142-2.049.135-1.137.265-2.273.482-3.4a18.858,18.858,0,0,1,.507-1.843c.135-.359.283-.718.453-1.065.159-.307.336-.595.524-.884.124-.159.248-.312.383-.465.13-.135.265-.265.4-.389.165-.129.33-.253.507-.371.171-.1.341-.182.512-.271a4.016,4.016,0,0,1,.436-.164l.265-.071c.235.006.465.012.7.029.194.024.377.054.565.095s.383.094.577.153c.353.135.707.288,1.048.453.383.206.748.424,1.113.666.648.471,1.266.977,1.867,1.507,1.331,1.237,2.561,2.567,3.851,3.845.63.63,1.266,1.237,1.914,1.837a6.318,6.318,0,0,0,4.581,2.061A7.5,7.5,0,0,0,71,164.781a29.4,29.4,0,0,0,3.175-4.669c.985-1.72,1.936-3.48,3.05-5.124l-.006.007a.413.413,0,0,1,.029-.041c.017-.027.036-.054.055-.082l-.014.023c.271-.371.554-.736.854-1.1.218-.229.442-.453.677-.665.124-.1.248-.188.383-.277a4.681,4.681,0,0,1,.412-.229c.059-.024.118-.041.177-.065l.235-.053c.118-.018.242-.03.366-.041s.265,0,.4.011c.106.012.206.03.312.048.141.035.289.076.43.123a6.33,6.33,0,0,1,.648.265c.241.13.471.265.694.406.254.189.5.377.731.578.271.265.536.535.783.812.234.3.451.6.654.911.235.387.462.78.665,1.18.159.447.318.889.483,1.33.259.695.541,1.384.859,2.055.1.224.212.442.318.666a24.753,24.753,0,0,0,1.349,3.356,7.69,7.69,0,0,0,2.2,2.756,5.917,5.917,0,0,0,2.98,1.148c2.432.2,4.6-1.077,6.4-2.573a42.4,42.4,0,0,0,6.113-6.9c1.13-1.461,2.3-2.88,3.521-4.257.512-.531,1.042-1.049,1.6-1.538a13.916,13.916,0,0,1,1.308-.97c.3-.183.6-.363.923-.519.277-.112.548-.218.825-.312.111-.03.229-.059.353-.083s.265-.035.4-.047a4.043,4.043,0,0,1,.516.014c.095.011.189.023.285.04.129.03.256.075.383.117s.277.111.418.177q.221.123.442.264c.194.148.382.3.571.454.224.218.441.442.648.677.294.359.559.736.824,1.113q.533.865.976,1.779a19.57,19.57,0,0,1,.861,2.231,26.954,26.954,0,0,1,.695,2.98c-.012-.042-.018-.083-.029-.13.182,1.119.3,2.244.376,3.374.03.842.095,1.69.071,2.526-.024.889-.053,1.778-.082,2.662C122.305,169.115,122.31,169.033,122.322,168.95Zm.265-16.976c-.253-.4-.524-.8-.818-1.183a1.507,1.507,0,0,1,.147.129c.259.253.506.512.742.783.23.289.453.583.659.9.189.312.359.63.519.96a15.923,15.923,0,0,1,.571,1.549,23.572,23.572,0,0,1,.553,2.337A20.864,20.864,0,0,0,122.587,151.974Z"/></svg>