<svg xmlns="http://www.w3.org/2000/svg" width="170.029" height="339.808" viewBox="0 0 170.029 339.808"><polygon points="137.97 56.567 137.97 56.567 137.97 56.567 137.97 56.567"/><path d="M106.625,99.729c.03.007.059.017.089.024l.023,0C106.7,99.747,106.667,99.741,106.625,99.729Z"/><path d="M169.972,64.2a2,2,0,0,0-.359-.907,1.227,1.227,0,0,0-.163-.186c.058-.2.116-.4.175-.6a5.806,5.806,0,0,0,.271-.93,1.423,1.423,0,0,0-1.067-1.534c-.194-.133-.381-.276-.581-.4a7.053,7.053,0,0,0-2.321-1.6c-1.313-.647-2.662-1.207-4-1.79-1.425-.624-2.862-1.236-4.293-1.849-3.091-1.307-6.171-2.643-9.274-3.921-1.443-.589-2.9-1.16-4.316-1.8q-2.217-1-4.417-2.014c-3.036-1.408-6.078-2.8-9.058-4.336-1.2-.682-2.387-1.347-3.567-2.047q-1.863-1.113-3.733-2.208c-1.272-.736-2.555-1.449-3.839-2.167-.541-.3-1.074-.614-1.612-.919-1.11-.806-2.225-1.6-3.335-2.408-1.26-.912-2.549-1.8-3.78-2.755-.73-.566-1.448-1.143-2.167-1.726-.559-.453-1.113-.93-1.684-1.366-1.4-1.071-2.832-2.09-4.293-3.079-1.3-.872-2.608-1.72-3.9-2.614-.858-.634-1.7-1.265-2.535-1.938-.837-.689-1.652-1.395-2.462-2.118q.03.027.06.057l-.09-.084-.052-.046.041.036c-.714-.664-1.42-1.335-2.084-2.044-.709-.753-1.391-1.528-2.057-2.325l.008.011-.017-.02c-.033-.041-.067-.081-.1-.121l.055.063c-.85-1.051-1.7-2.1-2.528-3.166-.807-1.031-1.59-2.067-2.426-3.074s-1.666-2-2.573-2.933A27.133,27.133,0,0,0,79.225.95c-.688-.536-1.589-1.2-2.5-.854a4.975,4.975,0,0,0-2.014,1.949c-.241.348-.465.707-.7,1.06-.424.654-.8,1.349-1.178,2.031-.245.442-.479.887-.717,1.332a1.288,1.288,0,0,0-.553.08,2.289,2.289,0,0,0-1.007.719,15.776,15.776,0,0,0-1.908,3.639c-.3.718-.536,1.472-.8,2.2-.389,1.072-.713,2.173-1.066,3.256s-.7,2.155-1.042,3.233q-1.113,3.462-2.2,6.931a1.3,1.3,0,0,0,.251,1.205c-.1.21-.207.418-.309.628-.365.73-.748,1.461-1.09,2.2-.753,1.631-1.531,3.244-2.29,4.869-1.366,2.9-2.656,5.848-3.939,8.786-1.3,2.985-2.6,5.971-3.828,8.985-2.455,6.03-4.905,12.066-7.4,18.078-1.278,3.092-2.55,6.183-3.916,9.233-.736,1.637-1.472,3.268-2.237,4.888q-1.034,2.172-2.126,4.322a.392.392,0,0,1,.029-.071c-1.113,2.149-2.267,4.275-3.421,6.4-.606,1.119-1.213,2.231-1.819,3.35-.147.265-.289.53-.436.8a6.234,6.234,0,0,0-.736,1.731,2.875,2.875,0,0,0-.03.925,2.557,2.557,0,0,0,.271.753,2.612,2.612,0,0,0,1.308,1.131,1.42,1.42,0,0,0,.541.583,1.521,1.521,0,0,0,1.72-.141q.45.009.883,0c.391-.014.781-.037,1.172-.066a2.283,2.283,0,0,0,.323.688,1.266,1.266,0,0,0,1.891.159,1.2,1.2,0,0,0,.371-.943c.047-.029.088-.058.129-.088.089-.053.18-.1.269-.151.317-.039.634-.075.95-.118,1.79-.241,3.575-.512,5.359-.783,1.525-.235,3.044-.536,4.563-.812,1.625-.3,3.239-.589,4.858-.866h-.021c.043-.008.082-.014.121-.019a.09.09,0,0,1,.036,0H54.99l.292-.05,0,0c.75-.13,1.5-.249,2.249-.378.076-.015.152-.028.224-.041l0,.006a1.063,1.063,0,0,1,.123-.023c.024,0,.047-.006.065-.006h-.012c1.884-.3,3.769-.583,5.659-.836,1.772-.242,3.568-.36,5.352-.448l.244-.007a1.458,1.458,0,0,0,.84.459,1.41,1.41,0,0,0,1.31-.522,59.693,59.693,0,0,1,6.374.117c.667.067,1.329.133,2,.195h-.022c.795.064,1.584.165,2.373.235.73.071,1.472.136,2.2.2h-.088c.754.077,1.513.148,2.267.212.7.095,1.39.183,2.091.265.653.071,1.307.207,1.96.313,1.29.2,2.568.512,3.845.765a.391.391,0,0,1-.076-.024l.159.036c-.018,0-.035-.006-.059-.006.548.117,1.089.235,1.637.353-.035-.012-.077-.017-.112-.029.136.029.271.059.4.094,0-.006-.017-.006-.029-.012q1.428.32,2.842.688c-.05.132-.107.26-.157.393-.224.6-.424,1.213-.636,1.82-.388,1.113-.736,2.243-1.089,3.362-.695,2.19-1.284,4.416-1.89,6.63-.554,2.032-1.1,4.063-1.649,6.095-.359,1.3-.719,2.585-1.078,3.88-.271.995-.583,1.973-.883,2.956-.289.93-.565,1.855-.877,2.78-.395,1.165-.8,2.331-1.184,3.5-.537,1.488-1.085,2.982-1.616,4.476L88,139.7l0,.017,0,0c-.076.194-.147.388-.223.583q-2.448,6.474-4.988,12.919c-1.531,3.882-3.093,7.755-4.749,11.585-.718,1.477-1.432,2.957-2.164,4.425-4.257,8.509-8.527,17.012-12.648,25.586-2.12,4.4-4.216,8.82-6.348,13.219-1.119,2.3-2.208,4.628-3.357,6.919q-1.677,3.348-3.344,6.7c.018-.036.035-.071.053-.112-.035.071-.071.142-.106.218.023-.053.047-.1.071-.147q-1.662,3.206-3.31,6.424l.071-.141c-2.032,3.88-4.169,7.7-6.3,11.535-.034.063-.071.124-.106.187-1.07,1.672-2.142,3.344-3.2,5.025-2.491,3.974-4.952,7.967-7.437,11.948q-3.6,5.749-7.172,11.511c-1.19,1.914-2.379,3.828-3.592,5.73-1.131,1.778-2.32,3.515-3.463,5.288-1.207,1.866-2.408,3.727-3.533,5.641-1.142,1.948-2.3,3.9-3.321,5.918.03-.059.053-.113.083-.171-.124.241-.254.489-.377.736l0-.008c-.079.148-.153.3-.233.449.024-.035.041-.076.065-.111-.106.2-.206.4-.312.6.017-.03.029-.059.047-.088-.03.058-.059.112-.088.17a.888.888,0,0,1,.047-.082c-.678,1.29-1.29,2.62-1.9,3.945-.619,1.361-1.237,2.727-1.82,4.111a26.679,26.679,0,0,0-1.319,3.609c-.27.395-.545.788-.813,1.183a27.889,27.889,0,0,0-1.966,3.233A3.419,3.419,0,0,0,.021,310a2.946,2.946,0,0,0,.542,1.431,10.78,10.78,0,0,0,2.12,1.96c.889.69,1.813,1.343,2.744,1.973-.018-.006-.03-.017-.047-.023.11.073.216.147.321.221l0,0c.223.16.447.313.671.466v-.006a.006.006,0,0,0,.006.006c.047.035.094.065.141.094-.018-.012-.041-.023-.059-.035.806.569,1.635,1.109,2.469,1.644a29.4,29.4,0,0,0,5.51,6.67,52.533,52.533,0,0,0,8.721,6.313c1.3.765,2.644,1.466,3.974,2.184,1.119.612,2.285,1.154,3.428,1.725s2.3,1.09,3.444,1.625c1.284.6,2.591,1.173,3.916,1.667a17.924,17.924,0,0,0,4.617,1.207c.488.047.977.083,1.466.083a8.946,8.946,0,0,0,1.617-.145,1.631,1.631,0,0,0,1.338.756,1.405,1.405,0,0,0,.432-.067,45.8,45.8,0,0,0,6.259-2.538,31.558,31.558,0,0,0,5.506-3.374c.86-.677,1.7-1.372,2.526-2.09.854-.742,1.637-1.573,2.414-2.391,1.461-1.542,2.882-3.13,4.235-4.764l-.06.077c.407-.489.813-.984,1.219-1.472-.016.018-.032.035-.047.053,1.508-1.812,2.971-3.662,4.428-5.512,1.372-1.731,2.721-3.486,4-5.282a90.275,90.275,0,0,0,7.19-11.606c.554-1.107,1.084-2.22,1.6-3.345s.983-2.308,1.46-3.468a66,66,0,0,0,2.273-6.483c.677-2.338,1.272-4.7,1.884-7.054.595-2.3,1.243-4.582,1.867-6.866q.945-3.454,1.772-6.937c.548-2.279,1.1-4.563,1.579-6.86q.786-3.789,1.425-7.6c.376-2.254.7-4.514,1.035-6.769.165-.945.324-1.891.484-2.841l-.006.029.015-.084v-.011c.665-3.795,1.593-7.555,2.516-11.3q.892-3.612,1.867-7.2c.606-2.226,1.26-4.44,1.884-6.666,1.289-4.64,2.6-9.28,3.98-13.9a1.349,1.349,0,0,1-.047.165c.642-1.978,1.278-3.957,1.949-5.923.625-1.831,1.284-3.651,1.926-5.477q1.881-5.352,3.445-10.8,2.031-7.049,3.915-14.15c1.207-4.516,2.532-9,3.645-13.549,1.137-4.64,2.25-9.28,3.445-13.908.595-2.321,1.195-4.646,1.831-6.955.644-2.336,1.265-4.683,1.975-7l-.014.037c.347-1.1.7-2.208,1.037-3.311l-.012.031.016-.045.031-.1c0,.021-.01.04-.016.06q.528-1.5,1.062-3.006c1.2.647,2.383,1.31,3.54,2.026.359.224.718.453,1.077.677.189.118.371.241.566.353a3.186,3.186,0,0,0,.977.365,1.488,1.488,0,0,0,.324.035,2.828,2.828,0,0,0,1.99-1.083,7.93,7.93,0,0,0,.507-.658,1.715,1.715,0,0,0,.794-.165,5.809,5.809,0,0,0,.883-.636c.347-.3.677-.607,1.007-.919.506-.471,1-.954,1.478-1.437,1.107-1.1,2.161-2.278,3.162-3.468q1.661-2,3.292-4.022c.983-1.225,1.978-2.437,2.95-3.668a23.477,23.477,0,0,0,2.424-3.615,7.748,7.748,0,0,0,.608-1.473c.171-.606.324-1.207.471-1.814.265-1.071.524-2.149.8-3.22.633-2.53,1.231-5.064,1.814-7.6q.345-1.055.689-2.108,1.538-4.656,2.985-9.339c.507-1.614.972-3.239,1.42-4.87.2-.754.376-1.514.559-2.273.177-.725.33-1.467.453-2.208.071-.43.165-.866.212-1.3.041-.394.083-.789.124-1.189A7.472,7.472,0,0,0,169.972,64.2Zm-52.16-29.208-.006,0-.053-.036Zm42.071,33.791c-.016-.22-.04-.442-.078-.661.1-.06.209-.122.315-.182A1.457,1.457,0,0,0,159.883,68.786Zm-6.562,14.035q-.513,1.422-1.025,2.844l.071-.194c-.084.229-.165.459-.247.689.482-1.769.972-3.537,1.483-5.3.436-1.479.872-2.951,1.308-4.428.447-1.549.924-3.1,1.277-4.67.143-.64.3-1.287.407-1.938-.008.277-.011.554-.03.835-.1.912-.259,1.813-.442,2.72a85.589,85.589,0,0,1-2.873,9.634Zm-30.014,56.108c-1.354,4.535-2.7,9.07-4.075,13.6a.023.023,0,0,0,0,.015c-1.472,4.575-3.021,9.127-4.434,13.726-1.461,4.764-2.8,9.563-4.087,14.374-.583,2.161-1.207,4.316-1.76,6.489-.578,2.285-1.125,4.569-1.632,6.871q-.82,3.746-1.743,7.449c-.553,2.215-1.177,4.411-1.737,6.625-.577,2.284-1.124,4.581-1.713,6.866-.612,2.385-1.213,4.781-1.92,7.142q-1.1,3.675-2.2,7.355c-.63,2.1-1.248,4.2-1.778,6.33-.589,2.379-1.166,4.752-1.643,7.155s-.937,4.822-1.461,7.219c-.259,1.178-.5,2.361-.777,3.539s-.53,2.361-.83,3.527-.589,2.367-.919,3.539c-.34,1.194-.675,2.383-1.015,3.576-.79,2.539-1.588,5.078-2.506,7.576q-1.51,4.1-3.044,8.185c-1.667,4.452-3.333,8.9-5.053,13.344q-1.324,3.418-2.7,6.83c-.862,2.12-1.776,4.216-2.7,6.313q-.551,1.146-1.108,2.29c-.353.73-.766,1.437-1.143,2.155s-.806,1.39-1.213,2.079c-.369.633-.767,1.248-1.16,1.875q-1.837,2.858-3.786,5.638-1.892,2.692-3.876,5.325l-1.211,1.441a26.145,26.145,0,0,1-2.154,2.239,28,28,0,0,1-2.5,2.016,17.931,17.931,0,0,1-1.606.98c-.077.038-.157.065-.234.1.082-.234.167-.468.249-.7a57.074,57.074,0,0,0,4.334-8.465c1.42-3.38,2.638-6.831,3.9-10.275.8-2.189,1.523-4.411,2.262-6.619.522-1.273,1.048-2.544,1.565-3.821.406-1.013.8-2.032,1.2-3.05.313-.8.631-1.6.943-2.4.1-.267.22-.534.319-.811l-.013.028c.012-.035.029-.077.041-.118a.254.254,0,0,0,.012-.031l0,.007c.77-2.116,1.517-4.237,2.269-6.347l-.008.025.042-.113c-.008.02-.016.039-.022.059.218-.607.418-1.225.624-1.844.4-1.189.8-2.384,1.195-3.574.459-1.366.913-2.738,1.372-4.11,3.027-9.169,6.1-18.319,8.986-27.535q2.686-8.568,5.358-17.144,1.443-4.188,2.874-8.382c1.578-4.611,3.127-9.239,4.746-13.838q2.712-7.719,5.453-15.439c-.024.053-.042.112-.065.165,1-2.756,2.008-5.506,2.985-8.268.524-1.471,1.048-2.95,1.572-4.422.424-1.2.76-2.437,1.137-3.65.171-.536.371-1.066.506-1.614.118-.477.242-.96.365-1.443.318-1.271.684-2.543.96-3.833,1.034-4.828,2.036-9.671,3.091-14.5.586-1.89,1.176-3.779,1.785-5.661,1.537-4.764,3.15-9.5,4.717-14.25q2.208-6.678,4.457-13.349,1.131-3.366,2.191-6.76c.353-1.136.712-2.273,1.042-3.421.173-.606.363-1.22.526-1.839,1.391.715,2.795,1.4,4.2,2.092-.333.894-.662,1.783-.991,2.677q-1.095,2.95-2.167,5.906C126.045,130.3,124.6,134.589,123.307,138.929ZM40.54,332.348c-2.656-1.4-5.277-2.862-7.962-4.215l.036.017c-.177-.094-.36-.183-.536-.277h.006c-.006,0-.012,0-.012-.006a1.023,1.023,0,0,1-.147-.077c.011.006.023.018.035.024-.277-.141-.553-.283-.83-.423l.035.017c-.783-.4-1.56-.807-2.338-1.207q-2.835-1.5-5.611-3.1c-1.843-1.06-3.692-2.107-5.512-3.209-1.79-1.083-3.58-2.161-5.352-3.268-.361-.225-.714-.458-1.072-.686-.289-.509-.566-1.024-.819-1.551a20.894,20.894,0,0,1-.818-2.149c-.13-.454-.236-.908-.324-1.373-.065-.465-.112-.924-.135-1.4.005-.318.017-.63.041-.943.059-.511.135-1.006.229-1.507.206-.877.448-1.737.731-2.6v.011c.747-2.055,1.607-4.063,2.49-6.059.96-2.149,1.932-4.293,2.939-6.424,1.979-4.206,4.052-8.37,6.149-12.516l-.008.009a1.348,1.348,0,0,0,.065-.124l.018-.035v.011q3.294-6.324,6.883-12.483c1.26-2.167,2.515-4.34,3.851-6.46q2.05-3.241,4.134-6.459c.707-1.089,1.431-2.173,2.114-3.28.718-1.16,1.466-2.308,2.161-3.486q2.04-3.453,4.01-6.948c1.107-1.961,2.2-3.922,3.256-5.912.672-1.266,1.384-2.521,2.02-3.81.642-1.307,1.3-2.609,1.949-3.91.248-.5.487-1,.731-1.5q2.489-4.242,4.734-8.621l-.053.088c.053-.1.106-.194.159-.294-.018.03-.036.059-.053.094.094-.182.182-.353.271-.53a.235.235,0,0,1-.018.041c.153-.294.3-.588.453-.888-.011.023-.023.046-.035.076.112-.218.224-.442.336-.666a.507.507,0,0,1-.03.065c.053-.106.106-.211.159-.318a.077.077,0,0,1-.012.035c1.337-2.6,2.568-5.246,3.769-7.908,1.89-4.18,3.757-8.379,5.741-12.518,1.885-3.934,3.592-7.955,5.37-11.936.158-.351.318-.7.476-1.051,1.5-2.883,3-5.772,4.423-8.695,1.125-2.308,2.244-4.61,3.328-6.942q1.536-3.3,3.044-6.595,1.563-3.446,3.115-6.9c1.018-2.29,2.055-4.569,3.026-6.877.978-2.326,2.008-4.641,2.921-7q.945-2.456,1.9-4.911c.354-.918.736-1.831,1.072-2.761-.006.006-.006.012-.012.017s.006-.017.012-.023c.016-.044.028-.083.044-.127h0l0,.015,0-.015,0,0,0-.011c.016-.043.031-.086.048-.13.006-.012.006-.018.012-.03a.987.987,0,0,0,.053-.159c.059-.153.112-.312.171-.465-.006.006-.006.018-.012.024.059-.159.112-.318.171-.471a.139.139,0,0,0-.012.041c.022-.074.051-.147.074-.221l0,0a.47.47,0,0,0,.018-.047.788.788,0,0,0,.041-.118.169.169,0,0,1-.011.041c.182-.5.365-1,.541-1.5l-.017.035c.082-.224.164-.447.247-.671a.824.824,0,0,0,.041-.13c.189-.506.365-1.019.548-1.531-.018.059-.035.112-.053.165.106-.306.218-.618.33-.924.053-.148.105-.289.153-.43,0,.011-.006.023-.006.035.023-.082.053-.159.082-.241.006-.012.012-.03.018-.041l0-.012h0c.047-.112.088-.23.129-.348a5.733,5.733,0,0,0,.206-.583l.054-.141c.037-.1.074-.2.107-.305l0,.017c0-.012.006-.018.006-.028s.017-.045.024-.067.012-.035.018-.059a.089.089,0,0,1-.006.03c.15-.43.284-.86.418-1.29q.5-1.563,1.013-3.121c.377-1.165.771-2.326,1.107-3.5q.309-1.087.623-2.175l.567-1.584c.023-.058.041-.116.064-.173.006-.018.012-.042.018-.059l.066-.183,0,.012c.075-.2.144-.4.219-.606l0,0c.376-1.033.728-2.067,1.1-3.095-.017.047-.041.1-.059.147.048-.123.1-.245.144-.368.507.167,1.011.345,1.516.516a4.041,4.041,0,0,0-.193.547,3.622,3.622,0,0,0-.112,1.043,1.544,1.544,0,0,0,.424.965,2.352,2.352,0,0,0,.771.489,1.4,1.4,0,0,0,1.743-.56c.141-.253.277-.5.412-.753l.3-.53c1.661.625,3.313,1.269,4.95,1.962.739.312,1.476.628,2.213.942,1.932,1.048,3.831,2.157,5.744,3.236-.617,1.882-1.27,3.755-1.9,5.629q-1.872,5.618-3.692,11.247c-.777,2.4-1.519,4.823-2.261,7.243-.677,2.2-1.354,4.41-1.984,6.63-.419,1.467-.837,2.927-1.249,4.393-.359,1.26-.671,2.532-1.007,3.8-.271,1.007-.524,2.02-.771,3.039-.211.879-.428,1.754-.637,2.632q-.915,2.52-1.856,5.029-1.343,3.541-2.691,7.084c-.73,1.907-1.466,3.8-2.173,5.717q-.725,1.978-1.448,3.945c-.413,1.113-.778,2.244-1.166,3.363-.318.93-.624,1.855-.925,2.791-.335,1.042-.689,2.079-1,3.132-1.381,4.594-2.733,9.193-4.1,13.792.007-.02.014-.04.022-.06l-.039.119-.008.028,0-.014c-.939,2.876-1.851,5.758-2.819,8.623-1.019,3.039-1.949,6.107-2.9,9.168l.011-.031c-.51,1.647-.988,3.3-1.472,4.954-.494,1.69-1.012,3.374-1.531,5.053l.009-.023c-.5,1.628-1.018,3.252-1.522,4.88.008-.024.015-.047.024-.07-.471,1.478-.937,2.967-1.4,4.452.018-.048.029-.1.047-.148-.43,1.378-.854,2.762-1.278,4.14.018-.047.03-.1.047-.147-.883,2.809-1.7,5.64-2.553,8.461-.053.162-.1.328-.155.489-.383,1.2-.736,2.4-1.143,3.586-.423,1.231-.848,2.462-1.266,3.686-.736,2.15-1.484,4.293-2.2,6.448-1.484,4.41-2.885,8.844-4.452,13.226-1.589,4.434-3.221,8.85-4.816,13.284-1.555,4.328-3.021,8.685-4.446,13.054-1.431,4.387-2.974,8.733-4.481,13.09-.03.087-.063.174-.093.261-.61,1.29-1.231,2.576-1.842,3.867.023-.041.041-.077.064-.118l-.07.141c-.006.006-.012.012-.012.018s.006-.012.006-.018a52.558,52.558,0,0,1-3.174,5.394.322.322,0,0,1,.024-.029,27.018,27.018,0,0,1-1.773,2.214c-.33.353-.665.683-1.024,1-.336.271-.678.524-1.037.759-.282.165-.559.313-.848.448a4.784,4.784,0,0,1-.5.188c-.277.077-.554.142-.842.195a4.255,4.255,0,0,1-.477.041,4.542,4.542,0,0,1-.495-.006h-.038c-.041,0-.081-.006-.121-.011l.035,0a5.3,5.3,0,0,1-.559-.09,4.512,4.512,0,0,1-.5-.147c-.676-.262-1.32-.589-1.967-.913a1.3,1.3,0,0,1-.129-.065c-.012-.006-.017-.012-.029-.018C40.534,332.342,40.54,332.342,40.54,332.348ZM75.229,94.831a1.376,1.376,0,0,0,.4-1.039,14.315,14.315,0,0,0-.359-2.544l-.009-.036c.122-.254.246-.508.369-.762.307.711.612,1.423.953,2.117a1.334,1.334,0,0,0,1.631.636,1.361,1.361,0,0,0,.877-1.366,17,17,0,0,0-1.054-4.493l-.192-.634.86,1.958.011.026.168.384c.046.1.089.2.132.3.287.657.583,1.311.878,1.965-.155.455-.312.908-.466,1.363-.236.683-.471,1.366-.7,2.055-.047.138-.1.276-.145.414-.18-.029-.36-.061-.538-.079h.041c-.029,0-.053-.006-.076-.006s-.024-.006-.036-.006H77.96c-.017,0-.029-.006-.041-.006a.115.115,0,0,1,.02,0c-.038,0-.076,0-.114-.011h.023L77.065,95l.165.018c-.141-.012-.288-.029-.43-.041h.012a1.418,1.418,0,0,1-.159-.012h.036c-.224-.012-.448-.035-.672-.053H76.1ZM69.078,76.712c.045.249.092.5.145.745q-.667,1.259-1.32,2.526c.251-.678.5-1.355.736-2.042-.018.059-.041.118-.059.176C68.749,77.65,68.911,77.18,69.078,76.712Zm1.952-5.519c.023-.065.047-.124.07-.189.9-2.626,1.832-5.235,2.7-7.873.3-.6.595-1.207.889-1.813.73-1.534,1.491-3.057,2.189-4.6.24.648.492,1.292.738,1.939l-.065.17c-.415,1.1-.837,2.2-1.253,3.3a1.146,1.146,0,0,0-.926.337c-.147.159-.3.318-.448.483a2.054,2.054,0,0,0-.282.477,2.3,2.3,0,0,0-.159,1,4.931,4.931,0,0,0,.284,1.547c-.387.914-.777,1.827-1.161,2.74-.147.354-.3.707-.448,1.06-.17.342-.341.683-.512,1.019l0-.01c-.019.032-.035.068-.056.1l-.024.05,0-.005c-.009.02-.02.039-.031.061l-.012.022v0L72.537,71l-.008.016,0,.01c-.014.028-.027.059-.041.086a.141.141,0,0,0-.023.041h0c-.038.08-.081.155-.118.231-.071.141-.147.282-.224.423.03-.047.053-.1.083-.147-.047.089-.089.177-.136.265a.2.2,0,0,1,.01-.026c-.01.021-.02.043-.028.062s-.017.028-.025.043l0-.008-.007.016,0,.007,0,0c-.012.026-.024.051-.039.078v0l0,.009-.008.015,0,0-.015.027v-.006c0,.006-.006.012-.006.024-.112.213-.224.437-.336.656l.007-.008c-.027.048-.054.1-.081.151l0-.01a.288.288,0,0,0-.029.065c-.018.029-.03.059-.048.088l.006-.012c-.047.09-.094.183-.141.271.024-.053.053-.1.077-.153-.118.23-.23.454-.348.683.024-.053.053-.106.077-.153-.092.173-.179.351-.27.53l0,0,0,0,0,0A1.352,1.352,0,0,0,70,74.109c.363-1.03.732-2.057,1.093-3.087C71.071,71.081,71.053,71.14,71.03,71.193ZM73.4,13.764q.487-.907,1.042-1.774.489.559.984,1.114a4.944,4.944,0,0,0-2.067.736Zm80.147,53.255a1.287,1.287,0,0,1,.065.171,3.511,3.511,0,0,1,.083.347c.017.118.029.236.035.353,0,.277-.006.548-.029.819-.1.818-.265,1.619-.436,2.42-.336,1.343-.689,2.673-1.06,4,.065-.342.129-.683.188-1.019a14.3,14.3,0,0,0,.271-2.349,5.476,5.476,0,0,0-.221-1.828,5.775,5.775,0,0,0,.067-.824,6.974,6.974,0,0,0-.477-2.607c.5.167,1,.329,1.507.5Zm-13.455,50.734c-.117.224-.235.442-.365.66-.3-.247-.595-.506-.895-.76l-.158-.138a1.518,1.518,0,0,0,.045-.167,2.41,2.41,0,0,0,1.8-1.173,8.68,8.68,0,0,0,.66-1.666c.247-.8.483-1.6.724-2.4.459-1.554.9-3.109,1.366-4.657q.69-2.287,1.378-4.564c-.23.866-.465,1.732-.695,2.6q-.653,2.447-1.307,4.893c-.165.613-.33,1.225-.518,1.838-.275.93-.539,1.872-.86,2.791h0A23.835,23.835,0,0,1,140.089,117.753ZM79.7,84.437l-.177-.393c-.025-.058-.049-.117-.074-.176s-.041-.092-.06-.138l-.011-.024,0,.007-.008-.019c-.037-.081-.07-.162-.106-.242.024.053.041.106.065.159-.034-.079-.069-.157-.1-.236.109-.207.215-.415.323-.622q.469,1.579.943,3.16c.07.275.142.55.214.826-.055-.122-.109-.244-.163-.367.023.053.047.107.071.159-.051-.118-.1-.233-.153-.35l.011.027c-.058-.137-.117-.27-.179-.405-.1-.24-.209-.48-.315-.72l.07.159C79.935,84.974,79.815,84.705,79.7,84.437ZM74.951,72.028c.333-.648.654-1.3.972-1.954.119.453.246.9.369,1.355-.372,1.023-.756,2.042-1.122,3.066-.065-.11-.124-.224-.2-.329-.187-.278-.388-.546-.587-.816.139-.315.27-.632.406-.951ZM98.44,90.758c-.134-.469-.267-.939-.413-1.406q-.348-1.11-.7-2.217.77-2,1.524-4,.638,1.284,1.276,2.57c-.1.289-.193.577-.29.866-.277.842-.56,1.678-.836,2.514C98.821,89.645,98.628,90.2,98.44,90.758ZM92.377,92.1q-.31-1.149-.65-2.29c-.274-.944-.577-1.876-.881-2.81.08-.183.162-.366.243-.55.344.721.688,1.442,1.044,2.159l.825,1.666C92.752,90.874,92.564,91.485,92.377,92.1Zm-10.272-10L81.3,79.361c.129-.25.259-.5.387-.75.473,1.124.951,2.246,1.422,3.371q-.276.8-.55,1.6C82.407,83.083,82.254,82.588,82.105,82.092ZM77.22,78.8c-.036-.08-.071-.161-.106-.241.016.038.032.076.045.114-.079-.184-.16-.367-.239-.552.044-.11.089-.22.134-.331q.306-.77.612-1.54c.077.265.153.53.23.794Q77.559,77.92,77.22,78.8Zm71.772-1.334a1.574,1.574,0,0,0-.841-.336c.071-.357.136-.714.2-1.072.06.034.121.066.184.095a3.943,3.943,0,0,0,.688.236C149.144,76.745,149.069,77.1,148.992,77.463Zm-48.65-9.61c-.092.29-.187.579-.28.869-.113-.23-.222-.463-.336-.693-.054-.126-.109-.251-.163-.377.255-.544.51-1.088.779-1.624l.47-.942q.123.257.248.511C100.821,66.349,100.58,67.1,100.342,67.853Zm-4.62,14.174c-.37-1.17-.75-2.337-1.127-3.506q.468-1.047.933-2.093c.408.82.813,1.642,1.222,2.463Q96.236,80.46,95.722,82.027Zm-3.293,1.386q.306-.694.613-1.388c.374,1.19.739,2.382,1.111,3.57.062.2.124.4.187.595-.079.234-.157.469-.235.7Q93.252,85.161,92.429,83.413Zm-3.054-6.485c.376-.9.749-1.8,1.147-2.692.233.72.469,1.44.7,2.16-.2.567-.413,1.13-.615,1.7V78.1a.924.924,0,0,0-.048.121v-.009c-.086.231-.174.461-.26.691C89.991,78.245,89.684,77.586,89.375,76.928Zm3.012-6.835c.216.437.434.873.648,1.31-.133.365-.264.731-.4,1.1q-.281-.856-.564-1.712C92.178,70.555,92.283,70.324,92.387,70.093Zm2.455-26.618c.124.212.246.424.368.637l-.179.408c-.249-.506-.5-1.011-.748-1.516-.3-.622-.6-1.246-.905-1.866L93.42,41Q94.124,42.24,94.842,43.475Zm38.917,62.517a1.4,1.4,0,0,0,.264-.624,1.788,1.788,0,0,0-.161-1.08c.1-.115.187-.247.279-.373.109.565.228,1.127.363,1.687q-.16.564-.3,1.133-.2.8-.4,1.6a10.836,10.836,0,0,0,.021-1.236C133.809,106.731,133.787,106.362,133.759,105.992ZM120.282,93.675l-.028-.051.237-.751.078.21C120.472,93.28,120.38,93.478,120.282,93.675Zm-3.136.76c-.188-.12-.374-.243-.564-.361l-.016-.006q.192-.447.383-.895l.377.687C117.267,94.052,117.206,94.243,117.146,94.435ZM105.99,56.79c0-.038,0-.075,0-.112q.2.252.4.5l-.072.146Zm15.651,10.13c.281.461.562.922.847,1.381-.035-.053-.065-.106-.1-.159.065.106.129.218.194.324-.029-.053-.065-.106-.094-.159.059.1.124.2.188.306-.035-.053-.064-.106-.1-.159.271.442.542.889.813,1.331-.029-.053-.065-.106-.094-.159l.322.528q-.135.332-.271.662c-.645-.916-1.326-1.8-2.027-2.676.025-.09.055-.179.08-.269C121.486,67.555,121.561,67.237,121.641,66.92Zm7.956,6.94-.714-1.1q-.323-.493-.648-.986c.274.235.545.476.819.71l.842.715C129.8,73.418,129.7,73.638,129.6,73.86Zm-13,13.149q-.4-.732-.8-1.47c.187-.59.377-1.178.566-1.767.291.588.582,1.176.867,1.766Q116.922,86.276,116.6,87.009Zm.975-7,.112-.348,1.242,1.833-.27.646Zm8.751,7.549c.147.173.292.348.446.518l.084.093-.048.153-.5-.718Zm.4-12.321c-.04.014-.081.026-.121.038a1.248,1.248,0,0,0-.548.362l.317-.977Q126.542,74.953,126.719,75.241Zm-2.572,8.627c-.107.044-.212.092-.314.146q-.168-.252-.338-.5l0,0c.048-.148.094-.3.142-.444Zm-4.226-6.652.479.754-.249.6c-.3-.438-.594-.875-.89-1.315-.18-.266-.365-.531-.548-.8.082-.254.163-.507.244-.761C119.273,76.205,119.6,76.71,119.921,77.216Zm-4.74-6.507-.1.261c-.3-.456-.59-.914-.885-1.37l.352-1.072.914,1.486C115.368,70.246,115.272,70.477,115.181,70.709Zm-4.8-7.018c.11-.346.22-.692.326-1.04.1.122.195.247.294.369h0l.1.123-.028-.032.024.029-.032-.039c-.018-.02-.035-.041-.053-.062l.066.08-.018-.024.032.04.011.013.042.053.2.253-.465,1.017Q110.633,64.081,110.38,63.691Zm1.87,11.949.564,1.1-.683,1.743c-.162-.31-.322-.62-.483-.93C111.845,76.915,112.051,76.278,112.25,75.64Zm5.255-15.424c-.051-.1-.106-.2-.157-.3.011-.037.021-.074.031-.111.115.194.229.389.345.582Zm-9.28-.682.432.551c-.058.22-.117.441-.179.661-.158-.243-.313-.488-.471-.731C108.079,59.855,108.151,59.694,108.225,59.534Zm.468,9.292.165.308q-.352.824-.7,1.647l-.078-.155Q108.384,69.726,108.693,68.826Zm1.068,5.089q.363-.867.726-1.737l.027.053-.014.045c-.207.633-.4,1.271-.6,1.906Zm-.551,11.769c.139-.489.287-.975.427-1.462l.1.234q-.306.774-.616,1.546Zm4.563-4.03c.227-.569.449-1.14.674-1.709l.211.416q-.3.925-.595,1.852Zm.817,7.858c.041-.137.084-.273.125-.41l.536.976c-.084.191-.167.383-.251.573Q114.795,90.083,114.59,89.512Zm3.708.56.51-1.167c.016.038.034.074.051.112l-.42,1.312Zm3.485-1.245c.222-.7.447-1.391.67-2.086.015.021.029.044.044.065a10.185,10.185,0,0,0,.337,1.606c-.213.446-.433.889-.647,1.334C122.056,89.438,121.917,89.134,121.783,88.827Zm2.26,3.482q.183.477.377.953c.164.4.352.786.523,1.181-.175.592-.348,1.184-.523,1.781l-.011.036c-.107-.476-.212-.952-.343-1.42-.149-.525-.322-1.041-.5-1.556Zm8.779-13.474-.072-.112c.163-.508.328-1.015.49-1.524l.155.248c-.187.483-.359.97-.526,1.459C132.854,78.882,132.838,78.859,132.822,78.835Zm6.88-1.121a2.229,2.229,0,0,0,.364-.547l.1.179c.057.1.11.2.167.306l-.192.609C139.994,78.079,139.847,77.9,139.7,77.714Zm5.266-1.942a5.529,5.529,0,0,0-.054-.75c.063,0,.126.016.189.017C145.064,75.284,145.012,75.528,144.968,75.772ZM133.1,63.663a4.043,4.043,0,0,0,.052,1.034,2.12,2.12,0,0,0,.071.3c-.023.033-.044.066-.063.1-1.064-.937-2.165-1.83-3.273-2.716.432.179.865.358,1.3.532C131.823,63.168,132.463,63.412,133.1,63.663ZM97.9,75.376q-.5-1-1-2.01c.042-.092.085-.184.127-.275q.445,1.111.894,2.222Zm-1.212-14.4c.018-.038.036-.075.055-.113-.016.044-.031.089-.047.133Zm2.538.839.1.2c-.189.376-.381.75-.569,1.128C98.917,62.707,99.071,62.261,99.228,61.816Zm-.346-10.833c-.111.21-.22.419-.33.627q-.736-1.476-1.468-2.953.135-.435.271-.87c.54,1.009,1.087,2.015,1.629,3.023C98.952,50.868,98.913,50.924,98.882,50.983ZM95.434,53.89q.456.954.91,1.909-.517.993-1.027,1.99c-.216-.505-.436-1.009-.652-1.514C94.926,55.48,95.179,54.685,95.434,53.89ZM94.592,67c-.118.334-.231.67-.348,1l-.468-.946q.224-.483.454-.965Q94.411,66.545,94.592,67Zm6.421-10.454q.2-.612.4-1.223l.716,1.327c-.108.154-.213.31-.306.47s-.182.338-.274.506Q101.282,57.085,101.013,56.545Zm4.806,8.641q.2-.482.395-.964l.749,1.39c-.185.571-.367,1.144-.562,1.714l-.8-1.606C105.671,65.542,105.746,65.364,105.819,65.186Zm1.707,14.122q.233.537.464,1.076c-.087.291-.176.581-.264.871-.2.659-.39,1.32-.585,1.98q-.345-.663-.689-1.325Q106.994,80.611,107.526,79.308Zm3.262,10.969-.274-.53c.222-.541.437-1.085.657-1.628q.288.8.574,1.6-.227.75-.453,1.5C111.125,90.905,110.952,90.593,110.788,90.277Zm2.477,3.688.129.359-.162.369c-.009.022-.02.043-.029.065-.038-.068-.075-.137-.112-.2C113.148,94.357,113.207,94.161,113.265,93.965Zm-.121,7.535.324-.695c.2.362.4.723.6,1.084q-.481-.15-.966-.3Zm8.72-42.015a1.538,1.538,0,0,0-.741.048l-.047.018-.049.013q-.752-.807-1.5-1.613l-.423-.691.006.01c-.173-.285-.343-.569-.515-.853.268.172.532.349.8.521.423.277.842.553,1.277.812l1.652.972A1.8,1.8,0,0,0,121.864,59.485ZM100.9,43.705q.325.729.664,1.456c-.136-.1-.275-.2-.417-.3l.036.021c-.048-.036-.1-.073-.147-.109a1.409,1.409,0,0,0-1.826.059,1.38,1.38,0,0,0-.224.27l-.106-.194c-.137-.252-.272-.506-.409-.759.285-.942.572-1.882.87-2.818.228.207.454.416.683.623.087.079.177.155.264.233C100.487,42.7,100.675,43.207,100.9,43.705ZM96.8,40.36c-.053.133-.113.263-.167.4-.636-1.186-1.293-2.358-1.938-3.538.02-.052.042-.1.062-.154.013-.034.01-.069.02-.1l.5.528c.448.471.925.907,1.384,1.355.283.275.574.542.861.813A1.3,1.3,0,0,0,96.8,40.36Zm-3.72,8.56q-.364.819-.731,1.635c-.364-.893-.728-1.789-1.091-2.681.186-.577.368-1.155.554-1.733Q92.441,47.533,93.077,48.92Zm-4.015-5.8.028-.078c.2-.521.405-1.042.6-1.564.038.087.071.175.11.262q-.341.75-.685,1.5C89.1,43.2,89.081,43.164,89.062,43.124ZM92.5,62.844c.07-.2.132-.393.195-.59l.182.455q-.315.637-.624,1.275l-.081-.165q.174-.513.35-1.03Zm-5.837-.3q-.608,1.231-1.213,2.463c-.142.3-.289.583-.43.872q.732-1.965,1.443-3.934Zm.288,5.679c.323-.646.638-1.3.956-1.944q.15.453.3.906c-.455,1.327-.917,2.654-1.358,3.982-.027.073-.051.149-.077.223-.228-.492-.453-.983-.68-1.475C86.379,69.352,86.668,68.79,86.952,68.225Zm-2.2,8.985q-.2.57-.395,1.141c-.365-.869-.736-1.738-1.1-2.607l-.051-.122c.185-.364.369-.73.554-1.094Q84.26,75.869,84.755,77.21Zm-3.442-9.08c-.2.54-.4,1.079-.6,1.62q-.111-.258-.221-.517c.21-.517.428-1.031.641-1.547Q81.224,67.908,81.313,68.13Zm3.714,24.738c-.035-.143-.066-.287-.1-.43-.171-.69-.342-1.373-.524-2.061-.072-.271-.144-.541-.215-.812l.763-1.891c.092-.228.189-.455.281-.682q.535,1.248,1.081,2.494c-.189.5-.381.992-.567,1.491C85.507,91.608,85.266,92.238,85.027,92.868ZM86.6,83.659q.113-.278.227-.553.158.485.317.97c.188.576.374,1.152.563,1.728-.029.076-.057.152-.086.227l-.009.025C87.274,85.257,86.94,84.458,86.6,83.659Zm15.844-9.973q.563-1.472,1.125-2.943.486,1,.978,1.989l-.044.127-1.02,2.982Q102.965,74.763,102.446,73.686Zm2.68,11.407.945,1.828c-.085.3-.168.594-.252.892-.293-.768-.578-1.539-.865-2.309Zm1.976,12.88.027-.063a1.346,1.346,0,0,0,1.563-1.775c-.119-.375-.233-.751-.348-1.128q.435-1.048.869-2.1c.16.3.313.6.474.9.18.334.36.67.541,1-.127.429-.257.856-.382,1.285q-.606,2.087-1.214,4.183l-.752-.206c-.383-.11-.772-.226-1.166-.318l-.368-.08C106.6,99.108,106.863,98.545,107.1,97.973Zm4.905,5.976.017-.035c1.045.313,2.084.643,3.121.982a1.087,1.087,0,0,0,.846.392c.2.352.4.707.609,1.058a1.52,1.52,0,0,0,.18.219c-.282-.145-.562-.294-.845-.438-.006,0-.012,0-.018-.011-1.323-.682-2.685-1.294-4.046-1.9C111.914,104.125,111.965,104.04,112.007,103.949Zm31.464-39.808c-.381-.3-.779-.579-1.192-.845l-.114-.073c.69.244,1.379.488,2.072.726A1.5,1.5,0,0,0,143.471,64.141ZM128.015,58.18c-.439-.212-.877-.425-1.316-.631-.675-.356-1.356-.728-2.031-1.088-.6-.324-1.166-.683-1.749-1.031-.605-.365-1.192-.762-1.788-1.145q1.816.9,3.635,1.79C125.848,56.779,126.928,57.485,128.015,58.18ZM99.084,36.656c-1.286-1.236-2.544-2.5-3.735-3.831Q93.171,30.4,91.04,27.938a1.366,1.366,0,0,0-.006-.293C93.217,30,95.3,32.458,97.481,34.824c.543.6,1.095,1.184,1.642,1.776C99.111,36.619,99.1,36.636,99.084,36.656ZM89.8,26.5c-.229-.266-.461-.531-.689-.8.284.27.557.552.835.829A1.266,1.266,0,0,0,89.8,26.5Zm-.37,5.568c.086-.242.182-.482.279-.721.3.348.6.7.906,1.046-.018.009-.037.013-.055.022a1.374,1.374,0,0,0-.571,1.819c.041.1.082.2.129.3v0c.431,1,.876,2,1.384,2.976.035.066.073.131.108.2-.013.031-.028.062-.041.093-.048-.078-.088-.161-.137-.238-.33-.518-.707-1-1.072-1.489a1.343,1.343,0,0,0-2.361,1.23c.084.21.165.421.248.632-.092.223-.185.446-.277.67-.483,1.06-.942,2.137-1.425,3.2-.371.824-.748,1.649-1.125,2.473.259-.777.518-1.554.766-2.337.547-1.708,1.071-3.433,1.648-5.135C88.359,35.22,88.9,33.648,89.425,32.064Zm0,21.4q.188.517.376,1.036c.108.293.214.586.322.879q-.522,1.1-1.041,2.2l-.639-1.291Q88.934,54.874,89.425,53.462Zm-5.335,7.2v.012q-.5,1.335-1,2.667c-.023-.051-.046-.1-.07-.153ZM78.6,65.079l-.12-.229c.245-.5.485-1,.73-1.507Q78.9,64.212,78.6,65.079ZM70.593,83.605c.024.1.048.193.071.29-.025-.048-.051-.095-.077-.143a8.012,8.012,0,0,0-.628-.957c.1-.211.2-.423.3-.635C70.374,82.642,70.479,83.125,70.593,83.605Zm11.167,11.9.082.183c-.049-.009-.1-.019-.146-.027C81.718,95.612,81.739,95.56,81.76,95.508Zm6.251-2.174c.453,1.015.9,2.032,1.361,3.046l-.03-.062c.184.425.353.856.534,1.283-.657-.178-1.311-.366-1.97-.536-.469-.118-.938-.243-1.406-.364C87.013,95.583,87.506,94.456,88.011,93.334Zm5.476,5.254a1.145,1.145,0,0,0,.006-.132c-.082-.79-.123-1.59-.241-2.38-.078-.533-.191-1.065-.3-1.6a1.293,1.293,0,0,0,.122.049,1.366,1.366,0,0,0,1.622-.76c.125.255.25.51.366.769a13.739,13.739,0,0,0,1.386,2.976,2.57,2.57,0,0,0,.977.872,2.5,2.5,0,0,0,.654.182c.223.024.447.018.671.03a1.3,1.3,0,0,0,1.313-1.561c-.092-.364-.182-.73-.273-1.095a1.5,1.5,0,0,0,.25-.282c.5-.772,1.042-1.52,1.466-2.338s.813-1.631,1.178-2.467l0-.013.142.283c.444.888.907,1.769,1.326,2.668-.068.249-.138.5-.207.748q-.416,1.5-.83,3.015c-.131.461-.262.926-.393,1.389a32.034,32.034,0,0,0-5.019-.275c-1.162.006-2.315.075-3.471.128Zm24.268,8.481a1.293,1.293,0,0,0,1.277-.837c.354.132.707.264,1.054.41l.226.095c.334.389.655.792,1,1.17.5.552,1.017,1.094,1.54,1.63q-1.2-.512-2.406-1.028Q119.107,107.774,117.755,107.069ZM84.426,37.428c.958-3.015,1.815-6.069,2.676-9.115.224.264.446.531.671.794-.043.108-.089.216-.132.324-.23.583-.489,1.161-.689,1.755-.424,1.3-.86,2.6-1.29,3.91-.459,1.378-.889,2.762-1.33,4.146-.465,1.478-.907,2.967-1.408,4.433Q82,46.4,81.064,49.116c-.507,1.484-.99,2.968-1.514,4.44-.191.491-.371.982-.557,1.473a2.656,2.656,0,0,0-.433-.319,1.455,1.455,0,0,0-.693-.17c.094-.208.187-.416.282-.624.294-.654.606-1.307.883-1.967.371-.877.736-1.754,1.107-2.626.253-.613.53-1.219.766-1.837.589-1.573,1.213-3.133,1.754-4.723Q83.57,40.105,84.426,37.428Zm-22.34,56.89a1.371,1.371,0,0,0,2.048.2,2.022,2.022,0,0,0,.508-.819c.188-.464.437-.906.658-1.354.212-.424.418-.842.625-1.266.128-.265.258-.53.388-.8l.011.024c.306.636.613,1.266.919,1.9a6.7,6.7,0,0,0,1.1,1.843,1.327,1.327,0,0,0,1.4.336,1.3,1.3,0,0,0,.843-1,5.486,5.486,0,0,0,.088-.983c0-.053-.011-.106-.014-.158a1.3,1.3,0,0,0,.847-.638l.2.43c-.175.357-.353.711-.506,1.079-.215.5-.426,1-.639,1.5-.229-.006-.459-.015-.686-.009-2.114.059-4.228.071-6.336.271-1.643.155-3.272.408-4.889.721l.013-.031c.247-.572.506-1.143.76-1.714a1.519,1.519,0,0,0,.848,1.036A1.456,1.456,0,0,0,62.086,94.318ZM47.665,72.236q1.819-4.382,3.6-8.785c2.491-6.107,5.006-12.2,7.65-18.231-.213.618-.419,1.23-.636,1.849l.017-.035c-.565,1.542-1.13,3.091-1.684,4.64l0-.005c-.051.138-.106.272-.162.411-1.2,3.1-2.391,6.2-3.7,9.256s-2.6,6.1-4.01,9.1q-1.281,2.721-2.579,5.429Q46.915,74.044,47.665,72.236ZM43.16,88.912c1.555-3.1,3.074-6.206,4.605-9.316.677-1.377,1.336-2.761,2-4.145.689-1.448,1.395-2.9,2.049-4.357,1.366-3.033,2.762-6.06,4.01-9.139.642-1.567,1.319-3.121,1.92-4.7.582-1.537,1.218-3.062,1.772-4.6l0,.006c.553-1.514,1.106-3.029,1.642-4.549l0-.009c.012-.03.022-.06.032-.09l0,.008,0-.01.026-.079c0,.014-.007.027-.011.041.4-1.045.723-2.123,1.082-3.179.259-.76.524-1.519.766-2.291.512-1.6,1.03-3.2,1.531-4.8.512-1.66,1-3.327,1.531-4.975s1.072-3.321,1.59-4.988c.235-.748.518-1.484.771-2.226.124-.359.248-.712.371-1.065a.1.1,0,0,0,.012-.03c.736-1.343,1.513-2.656,2.379-3.927-.006,0-.012.017-.018.023a28.672,28.672,0,0,1,2.091-2.673c.306-.324.624-.636.959-.931.183-.153.377-.3.572-.441a4.69,4.69,0,0,1,.459-.253c.053-.024.106-.042.165-.065l.153-.036a.072.072,0,0,0,.035-.006h.136l.106.018a.992.992,0,0,0,.135.041c.088.036.171.077.253.118a.083.083,0,0,0,.024.018,1.033,1.033,0,0,0-.095-.047,1.747,1.747,0,0,1,.2.123,14.93,14.93,0,0,1,1.213.994,35.02,35.02,0,0,1,3.067,3.169c.152.176.3.355.454.536-.018-.017-.029-.035-.047-.053.44.526.866,1.065,1.3,1.6-.1.3-.2.6-.294.9-.153.471-.318.942-.459,1.425-.307,1.06-.624,2.12-.942,3.18-.554,1.872-1.084,3.75-1.62,5.623q-1.324,4.6-2.744,9.174c-.436,1.408-.859,2.809-1.319,4.2-.589,1.785-1.2,3.551-1.766,5.341-.695,1.873-1.343,3.775-2,5.659-.648,1.725-1.272,3.468-1.926,5.188-1.154,3-2.3,5.994-3.48,8.986l-1.395,3.5Q63,78.762,61.573,81.727c-.636,1.325-1.225,2.668-1.837,4s-1.219,2.656-1.79,4c-.66,1.561-1.337,3.115-1.973,4.687-.263.655-.531,1.31-.8,1.965q-1.422.373-2.824.82c-1.673.53-3.339,1.054-4.994,1.631q-2.544.875-5.076,1.808c-.824.3-1.643.618-2.443.977l-.387.175c-1.167.159-2.336.311-3.511.4C38.467,97.833,40.893,93.411,43.16,88.912ZM54,99.406c-.164.027-.328.057-.492.085l.279-.088c.079-.023.159-.04.238-.063Zm8.2-1.3q-2.472.335-4.94.748l.005,0h-.007l.16-.373c.905-.207,1.813-.4,2.733-.563H60.13a54.882,54.882,0,0,1,5.9-.618c.671-.018,1.342-.03,2.019-.047.469-.009.944-.031,1.417-.034-.037.09-.072.181-.108.271-.855.036-1.709.083-2.563.136C65.259,97.715,63.722,97.9,62.191,98.1Zm10.467-.7c.016-.037.033-.073.048-.11.356.006.713.014,1.068.039h-.012l.769.074C73.907,97.4,73.283,97.4,72.658,97.407Zm24.893,20.532c1.188-4.534,2.366-9.085,3.923-13.515.26.079.523.144.782.228h0c-.337,1.209-.64,2.425-.947,3.635-.383,1.519-.86,3.021-1.284,4.528-.116.409-.244.813-.371,1.219-.638,1.7-1.283,3.412-1.9,5.124.006-.005.006-.011.012-.023q-.2.5-.389,1.007c-.03.079-.061.158-.091.238a1.26,1.26,0,0,0-.387.026Q97.227,119.173,97.551,117.939ZM3.177,310.29c-.094-.088-.182-.177-.265-.271-.041-.046-.076-.094-.117-.146a.448.448,0,0,0-.042-.072c-.006-.04-.017-.082-.029-.129a.865.865,0,0,0-.006-.124l.015-.135c.1.207.189.414.3.619a1.46,1.46,0,0,0,1.284.748,1.433,1.433,0,0,0,.671-.166,1.457,1.457,0,0,0,.583-1.955c-.065-.135-.129-.258-.2-.388-.006-.024-.018-.047-.024-.071-.006-.061-.006-.124-.009-.187.007-.342.034-.678.062-1.008.083-.659.189-1.313.324-1.961.062-.24.137-.474.206-.71l.094-.138c.932-1.382,1.867-2.757,2.791-4.14-.244.561-.479,1.125-.694,1.7a24.574,24.574,0,0,0-1.8,6.607A13.148,13.148,0,0,0,6.808,313l-.056-.038c.018.015.038.029.058.044h0A42.193,42.193,0,0,1,3.177,310.29Zm36.2,25.009c-2-.76-3.933-1.667-5.87-2.568-1.555-.718-3.08-1.5-4.611-2.255q-1.467-.8-2.938-1.6c-1.578-.86-3.115-1.8-4.6-2.808a51.605,51.605,0,0,1-4.273-3.314c.287.172.568.351.856.522,3.762,2.244,7.578,4.411,11.488,6.4l0,0c.576.292,1.146.588,1.717.879-.012-.006-.03-.012-.042-.017l.383.194c-.018-.006-.035-.018-.053-.023q2.306,1.209,4.593,2.438c.748.4,1.5.788,2.249,1.189.819.435,1.655.883,2.5,1.26.346.152.7.287,1.061.407-.084-.017-.17-.024-.254-.042C40.84,335.776,40.1,335.551,39.379,335.3Zm57.87-90.176c-.252,1.48-.452,2.97-.68,4.454-.234,1.534-.484,3.067-.74,4.594l0-.019-.006.035-.023.137c0-.021,0-.04.007-.06q-.51,2.657-1.061,5.294c-.5,2.373-1.078,4.729-1.649,7.084-.554,2.32-1.166,4.623-1.8,6.925-.624,2.267-1.266,4.534-1.861,6.813-.259,1.012-.512,2.031-.783,3.044-.329,1.213-.676,2.416-1.022,3.617-.508,1.562-1.023,3.106-1.622,4.633s-1.242,3.027-1.9,4.534c-.762,1.627-1.559,3.236-2.413,4.817-.8,1.477-1.659,2.914-2.545,4.341-1.788,2.7-3.606,5.381-5.587,7.942-.488.629-.985,1.25-1.477,1.875l.027-.043-.032.049-.01.013q.168-.268.34-.536l-.015.021a71.628,71.628,0,0,0,5.223-10.346c3.774-8.915,7.107-18.019,10.5-27.087.854-2.29,1.7-4.581,2.5-6.9q1.14-3.322,2.1-6.7c.659-2.338,1.289-4.676,1.849-7.037s1.083-4.7,1.572-7.072c.477-2.332.919-4.664,1.425-6.989.247-1.149.471-2.309.76-3.451.071-.287.139-.574.208-.861-.5,2.289-.908,4.589-1.3,6.889Zm28.156-101.166c-.589,2.325-1.166,4.652-1.749,6.983-.554,2.226-1.09,4.458-1.714,6.666-1.319,4.634-2.6,9.28-3.892,13.926q-1.9,6.889-3.986,13.72c.017-.053.029-.112.047-.165-.477,1.449-.948,2.9-1.443,4.346-1.3,3.8-2.7,7.563-3.934,11.383.059-.234.123-.467.182-.7.542-2.161.978-4.345,1.472-6.518.548-2.385,1.119-4.758,1.755-7.119q.981-3.612,1.949-7.219c1.208-4.522,2.516-9.014,3.881-13.489a1.175,1.175,0,0,1-.042.122l.336-1.042c1.5-4.687,3.068-9.351,4.505-14.056,1.349-4.416,2.614-8.855,3.956-13.272q.927-2.946,1.925-5.869Q126.976,137.791,125.405,143.957ZM164.27,73.8l.02-.1c-.242,1.1-.489,2.2-.724,3.291.011-.052.023-.111.041-.17-.448,1.919-.889,3.845-1.337,5.765q-.575,2.445-1.135,4.9-.544,1.614-1.1,3.223c.009-.026.02-.052.03-.078-.146.4-.291.805-.437,1.211l.007-.021c-.149.422-.3.839-.449,1.261l.019-.048c-.856,2.373-1.544,4.8-2.387,7.178-.254.657-.53,1.3-.829,1.931a28.77,28.77,0,0,1-1.586,2.5c-1.905,2.51-4,4.858-6.044,7.247-.544.641-1.1,1.273-1.651,1.906.049-.2.1-.392.15-.588.436-1.737.9-3.468,1.354-5.2.189-.713.413-1.413.625-2.126.188-.659.376-1.319.588-1.972.53-1.655,1.066-3.3,1.626-4.947,1.071-3.162,2.167-6.306,3.274-9.456l.053-.142q.485-1.343.971-2.7c-.017.047-.029.094-.041.136,1.066-2.962,2.226-5.907,3.062-8.945.418-1.525.818-3.05,1.136-4.605a16.032,16.032,0,0,0,.386-4.33,1.542,1.542,0,0,0,.373.851,1.479,1.479,0,0,0,1.778.289,3.308,3.308,0,0,0,.53-.412c.962-.712,1.989-1.33,2.993-1.983C165.127,69.715,164.706,71.757,164.27,73.8Zm1.624-12.246c-.2.132-.4.262-.605.392-1.209.739-2.435,1.443-3.7,2.094-1.095.564-2.181,1.141-3.253,1.741a7.737,7.737,0,0,0-1.321-.841,17.082,17.082,0,0,0-1.816-.8,6.827,6.827,0,0,0-.693-.656,18.344,18.344,0,0,0-4.7-2.621c-.83-.341-1.66-.706-2.508-1.006.064.023.123.041.188.064-3.144-1.191-6.329-2.276-9.514-3.355h0l-.036-.012h0c-.956-.346-1.918-.7-2.88-1.037-.719-.265-1.419-.565-2.126-.854s-1.431-.583-2.132-.913c-.836-.406-1.684-.813-2.526-1.213-1.2-.665-2.432-1.278-3.621-1.967-1.39-.806-2.779-1.6-4.146-2.443-2.6-1.614-5.152-3.31-7.684-5.041l.053.035c-1.36-.995-2.732-1.972-4.057-3.014-.607-.483-1.225-.954-1.814-1.461l-2.049-1.766c-.518-.483-1.03-.966-1.549-1.443-1.107-1.03-2.184-2.1-3.232-3.191-1.113-1.16-2.226-2.326-3.28-3.539-2.155-2.5-4.252-5.047-6.472-7.484-2.267-2.491-4.539-4.97-6.783-7.473-1.072-1.2-2.138-2.4-3.25-3.562A21.666,21.666,0,0,0,78.6,8.535c-.324-.277-.666-.53-1.013-.777a3.729,3.729,0,0,0-1.072-.571,2.373,2.373,0,0,0-1.266-.065,4.361,4.361,0,0,0-.652.25c.711-1.3,1.445-2.577,2.257-3.818.17-.234.346-.463.532-.684.57.427,1.106.9,1.629,1.383.039.036.077.073.117.109a29.722,29.722,0,0,1,2.058,2.213l-.012,0A1.262,1.262,0,0,0,79.9,7.8a2.406,2.406,0,0,0,.536,1.342c.218.312.447.613.689.907.327.415.645.83.981,1.236l-.022-.029.159.194-.106-.123c.065.076.129.153.192.229.141.17.282.34.423.512l-.008-.011c.124.153.253.312.383.465-.027-.031-.05-.061-.074-.092.129.156.254.311.383.466l-.044-.055c.05.06.1.119.146.178l-.052-.061c.028.036.058.072.087.107l.013.016-.008-.011c.03.037.061.073.09.111l-.02-.026c1.034,1.252,2.176,2.412,3.324,3.566A47.324,47.324,0,0,0,94.1,22.5c1.5,1.013,3,2.032,4.5,3.032,1.265.845,2.5,1.722,3.759,2.575,1.654,1.2,3.332,2.366,5,3.549,1.726,1.225,3.51,2.35,5.294,3.48,1.14.726,2.311,1.395,3.484,2.061.667.473,1.361.912,2.033,1.373s1.373.854,2.061,1.272c.719.441,1.473.836,2.2,1.254,1.489.842,3.009,1.631,4.51,2.45.076.042.15.088.226.13.46.266.919.532,1.38.794q1.3.764,2.569,1.561c1.366.859,2.732,1.707,4.116,2.538.724.435,1.484.83,2.22,1.242s1.49.8,2.232,1.19c1.442.759,2.885,1.5,4.346,2.225.671.33,1.348.642,2.031.948s1.384.63,2.1.9c.889.336,1.79.666,2.679,1.007.313.118.636.206.948.306.542.171,1.084.342,1.626.507,1.4.447,2.826.818,4.233,1.242.866.265,1.738.5,2.591.789.251.084.5.173.755.258l.217.095c1.285.549,2.569,1.093,3.812,1.73a8.387,8.387,0,0,1,.813.477l.055.043,0,.007,0,0Z"/><path d="M159.921,103.226c-.021.04-.046.078-.067.118-.008.016-.014.031-.022.046C159.862,103.337,159.891,103.278,159.921,103.226Z"/><polygon points="100.447 242.559 100.447 242.562 100.446 242.565 100.447 242.559"/><path d="M79.049,89.452c-.011-.026-.023-.052-.034-.077s-.025-.055-.037-.082Z"/></svg>