<svg xmlns="http://www.w3.org/2000/svg" width="177.176" height="254.252" viewBox="0 0 177.176 254.252"><polygon points="36.549 89.356 36.549 89.356 36.549 89.356 36.549 89.356"/><path d="M36.624,89.369l-.07-.012h0Z"/><polygon points="33.322 88.732 33.322 88.732 33.323 88.733 33.322 88.733 33.321 88.737 33.328 88.739 33.323 88.733 33.323 88.733 33.322 88.732"/><path d="M27.655,98.921l-.029,0h0Z"/><polygon points="148.62 227.276 148.617 227.278 148.613 227.281 148.62 227.276"/><path d="M176.521,133.49c-.166-1-.366-1.984-.569-2.979-.214-1.04-.434-2.079-.647-3.124-.114-.568-.272-1.12-.416-1.682-.411-1.615-.822-3.224-1.275-4.829-.893-3.147-1.825-6.282-2.669-9.439-.873-3.269-1.734-6.536-2.527-9.821-.248-1.015-.5-2.025-.756-3.04-.144-.6-.282-1.206-.445-1.8-.275-.99-.553-1.974-.828-2.964-.19-.688-.351-1.4-.584-2.073.008.026.019.053.029.08-.06-.173-.116-.35-.182-.524l0-.019c0,.013.01.026.014.038-.055-.17-.116-.342-.171-.512a.249.249,0,0,0,.008.032c-.057-.17-.116-.336-.173-.507.024.069.048.139.073.2-.056-.159-.107-.322-.165-.476-.039-.12-.078-.245-.122-.373a.192.192,0,0,0,.01.044c-.011-.038-.023-.075-.034-.113s-.019-.052-.03-.08a.128.128,0,0,0,.01.017c-.04-.11-.079-.225-.118-.339-.06-.176-.117-.352-.179-.523.009.02.012.032.021.051l-.156-.456.072.21c-.059-.183-.118-.366-.183-.545-.064-.225-.159-.444-.229-.665.024.07.049.134.073.2-.035-.108-.077-.216-.108-.317l.012.038c-.013-.032-.024-.07-.037-.1a.344.344,0,0,0-.012-.041v.009c-.013-.046-.028-.087-.042-.131-.274-.807-.608-1.6-.919-2.395-.331-.843-.668-1.682-.979-2.528-.306-.816-.667-1.617-1-2.424-.024-.056-.047-.113-.07-.169-.334-1.2-.675-2.405-1.009-3.609-.5-1.816-.979-3.633-1.468-5.452-.473-1.775-.889-3.571-1.342-5.354-.177-.722-.33-1.452-.495-2.179-.192-.88-.415-1.759-.59-2.642.012.074.03.148.041.222-.023-.111-.041-.222-.063-.333.011.073.028.148.04.222q-.113-.564-.224-1.126l0,.014-.012-.053-.011-.059,0,.02c-.006-.031-.013-.063-.02-.094a.1.1,0,0,1,0-.041.016.016,0,0,0,0,.011c-.033-.148-.064-.3-.091-.449l-.006-.024a.016.016,0,0,1,0-.009h0l0-.02q-.113-.672-.223-1.344c-.079-.491-.162-.989-.24-1.486a9.1,9.1,0,0,0-.378-1.878,1.8,1.8,0,0,0-3.16-.33,7.621,7.621,0,0,0-.681-.882c-.015-.016-.033-.031-.048-.047a7.439,7.439,0,0,0-.354-.674,15.243,15.243,0,0,0-1.6-2.071,23.9,23.9,0,0,0-10.3-6.1,48.063,48.063,0,0,0-6.215-1.567c-2.037-.39-4.093-.693-6.163-.884-.542-.049-1.085-.09-1.629-.126-.195-.037-.387-.082-.583-.116a44.7,44.7,0,0,0-7.084-.7c-1.311-.017-2.612.016-3.917.072-1.774.079-3.539.171-5.309.256-1.722.088-3.451.144-5.177.183-1.642.035-3.287.088-4.935.123-.682.01-1.366.069-2.053.1-.831.045-1.676.059-2.508.147-1.017.116-2.037.219-3.059.329-.7.074-1.393.191-2.086.3a23.9,23.9,0,0,0-3.687.767c-.1.032-.193.072-.29.107-.317,0-.636,0-.956.014-.121-.371-.24-.743-.372-1.111-.4-1.118-.84-2.219-1.281-3.325-.569-1.416-1.165-2.811-1.741-4.221-.672-1.653-1.331-3.316-1.989-4.985-.593-1.478-1.17-2.99-1.692-4.5-.217-.67-.488-1.33-.66-2.016-.174-.668-.391-1.331-.523-2,.012.068.024.141.036.209-.078-.425-.162-.851-.24-1.276-.08-1.374-.172-2.745-.312-4.118-.07-.651-.135-1.3-.211-1.952-.017-1.926.036-3.845.138-5.768h0a.044.044,0,0,1,0-.013c0-.052.006-.1.01-.15v.008c.022-.378.05-.761.066-1.141v.108c.117-1.551.223-3.11.452-4.653a1.567,1.567,0,0,0-3.072-.587c-.044.226-.088.451-.125.672a1.834,1.834,0,0,0-1.923,1,24.447,24.447,0,0,0-1.686,4.577c-.132.452-.261.905-.391,1.357a1.271,1.271,0,0,0-1.361.945c-.156.823-.341,1.647-.48,2.467a.647.647,0,0,1,.018-.073c-.018.075-.031.15-.043.226l.027-.163c-.383,2-.755,4.006-1.126,6.008a.194.194,0,0,1,.012-.039c-.108.557-.206,1.113-.3,1.67-.219.714-.434,1.43-.656,2.143l-.578,1.843c-1.128,2.42-2.3,4.822-3.384,7.26-.41.911-.831,1.82-1.206,2.742a54.85,54.85,0,0,0-2.23,6.57c-.335,1.256-.617,2.53-.847,3.812q-1.014.02-2.032.09l.073-.006c-.453.026-.905.051-1.355.1-.616.076-1.237.15-1.859.225-.925.108-1.844.282-2.766.438-1.886.317-3.754.738-5.626,1.117H42.1c-.857.167-1.715.405-2.564.627-.932.25-1.865.511-2.792.8-1.747.555-3.487,1.141-5.172,1.861-.205.088-.4.19-.605.28-1.23.051-2.459.11-3.681.26A19.5,19.5,0,0,0,22.1,51.239a25.026,25.026,0,0,0-4.345,2.376,30.458,30.458,0,0,0-3.521,2.81,33.281,33.281,0,0,0-4.558,2.85c-3.525,2.645-6.824,6.05-7.857,10.469a15.988,15.988,0,0,0-.414,3.228,12.751,12.751,0,0,0-.358,3.58c.012.26.038.519.072.777a10.049,10.049,0,0,0-.58,1.306,7.594,7.594,0,0,0-.361,1.552c-.074.549-.156,1.108-.177,1.66a6.765,6.765,0,0,0,.582,3.119,9.505,9.505,0,0,0,.749,1.266,16.129,16.129,0,0,0,.965,1.3,27.271,27.271,0,0,0,2.445,2.619c.145.131.293.26.441.388a13.49,13.49,0,0,0,1.252,2.7c.143.235.309.456.462.684a1.416,1.416,0,0,0-1.09.893,4.246,4.246,0,0,0-.209.962,13.03,13.03,0,0,0-.139,1.434c-.023.6-.039,1.193-.043,1.789-.007.9-.015,1.8-.021,2.69-.018,3.346.036,6.693.084,10.038.02,1.592.089,3.179.144,4.771.079,2.133.119,4.277.233,6.409.1,2.024.216,4.055.325,6.079.1,1.862.174,3.731.3,5.592v-.007c.235,4.11.469,8.226.758,12.332v.012c0,.024.008.055.009.085,0-.024,0-.043-.007-.061l0,.052a.311.311,0,0,1,0,.032.02.02,0,0,1,0,.018.468.468,0,0,0,.009.091l0-.007c.021.3.042.6.062.907v-.006c.184,2.8.363,5.6.553,8.4,0-.013,0-.025-.007-.032.039.522.072,1.042.11,1.563,0,.152.013.306.029.461,0-.024-.005-.043-.007-.067.014.155.021.309.033.464,0,.031,0,.062,0,.093l0-.013c.111,1.792.252,3.589.375,5.383.131,1.962.255,3.93.41,5.89.1,1.748.213,3.5.324,5.26.1,1.665.168,3.343.307,5.013.077,1.566.168,3.128.256,4.7.084,1.494.137,3,.257,4.491a.715.715,0,0,1-.008-.1c0,.047,0,.09.006.144.082,1.327.17,2.656.252,3.983.072,1.206.133,2.41.229,3.615.022.726.11,1.445.169,2.165.091,1.168.187,2.336.278,3.5.131,1.64.31,3.282.465,4.92.075.729.145,1.452.226,2.181.118,1.113.205,2.232.358,3.344.267,1.938.435,3.894.724,5.836a23.909,23.909,0,0,0,.838,4.081,19.768,19.768,0,0,0,1.306,3.108,37.2,37.2,0,0,0,4.249,6.247,16.127,16.127,0,0,0,4.274,5.6,11.989,11.989,0,0,0,3.268,1.874,19.667,19.667,0,0,0,2.022.584c.042.031.092.056.14.088,1.083.666,2.163,1.348,3.277,1.965a60.556,60.556,0,0,0,7.682,3.646,59.687,59.687,0,0,0,8.2,2.461q2.192.493,4.39.951c4.125.859,8.246,1.741,12.365,2.6.732.152,1.452.309,2.19.432,1.308.214,2.622.422,3.936.636.691.11,1.38.172,2.08.235,1.252.115,2.506.223,3.759.332.788.072,1.584.063,2.369.081,1.129.033,2.259.056,3.393.1.274,0,.551-.009.821-.018.653-.016,1.307-.032,1.959-.042.7-.014,1.384-.03,2.08-.045.233-.007.465,0,.694-.017l-.018,0,.224-.017-.016,0,.049,0c.038,0,.08,0,.119-.007v0c.093-.011.186-.018.282-.023l-.01,0c.182-.017.363-.029.55-.039h-.008c.2-.012.409-.029.618-.04-.054,0-.11.011-.164.014l.671-.049c-.054,0-.109.012-.163.015.35-.025.7-.051,1.044-.07l-.162.008c.494-.03.99-.066,1.485-.1-.038,0-.078.007-.117.01.185-.014.369-.032.553-.045a.24.24,0,0,0-.062.014l.38-.026-.162.008c.114,0,.228-.015.342-.025H93.4a.1.1,0,0,0-.037.006c.085-.01.169-.013.247-.018a.606.606,0,0,0-.114,0,.022.022,0,0,1,.019,0c.446-.027.892-.089,1.342-.134.96-.1,1.926-.2,2.888-.31,1.136-.119,2.271-.264,3.4-.408,1.087-.147,2.169-.3,3.254-.428.316-.037.633-.109.946-.159.657-.11,1.314-.221,1.978-.331.829-.141,1.678-.249,2.5-.435,1.2-.276,2.413-.544,3.617-.814,1.025-.231,2.042-.5,3.056-.773,2.144-.435,4.28-.913,6.389-1.484a82.476,82.476,0,0,0,13.289-4.871c1.328-.62,2.657-1.245,3.948-1.93.944-.5,1.887-1,2.832-1.507,1.278-.682,2.556-1.358,3.816-2.071,1.479-.845,2.972-1.669,4.432-2.542q.954-.568,1.9-1.143a1.123,1.123,0,0,0,.381-.1c.6-.294,1.2-.588,1.791-.888a57.913,57.913,0,0,0,6.183-3.513,44.387,44.387,0,0,0,5.328-4.182,30.36,30.36,0,0,0,2.457-2.514,19.8,19.8,0,0,0,1.849-2.442,15.573,15.573,0,0,0,1.475-3,16.21,16.21,0,0,0,.719-3.08,25.219,25.219,0,0,0-.022-6.672c-.239-1.814-.58-3.626-.943-5.419l.021.093c-.038-.183-.076-.361-.109-.544l0,.007c-.014-.063-.026-.125-.038-.187l-.168-.863c.008.055.018.1.027.16-.084-.438-.171-.871-.258-1.305-.014-.5-.03-1-.066-1.494.008.062.01.121.017.182q-.212-3.278-.478-6.552c0,.012,0,.025,0,.036-.024-.392-.076-.789-.118-1.178-.091-.887-.187-1.775-.283-2.663-.139-1.306-.241-2.619-.416-3.926-.423-3.1-.8-6.225-1.31-9.319-.614-3.709-1.223-7.418-1.855-11.124q-.8-4.629-1.533-9.272c-.027-.179-.054-.362-.081-.542a4.369,4.369,0,0,0,1.133.36c.1.017.2.027.3.039a6.589,6.589,0,0,0,2.977-.522c.473-.189.942-.386,1.394-.62a14.5,14.5,0,0,0,1.356-.824,1.416,1.416,0,0,0,.511-1.908,1.348,1.348,0,0,0-.155-.211,6.281,6.281,0,0,0,1.2-1.068,10.543,10.543,0,0,0,1.643-2.5,15.142,15.142,0,0,0,1.132-6.467A46.834,46.834,0,0,0,176.521,133.49Zm-3.417-.633c.323,1.879.6,3.761.74,5.656.007.113.008.226.014.339a1.246,1.246,0,0,0-1.036.279c.016-.463.03-.926.031-1.39.006-.96-.048-1.919-.085-2.88-.027-.584-.043-1.165-.07-1.749-.012-.253,0-.509-.034-.764-.089-.821-.183-1.649-.272-2.47-.032-.31-.064-.614-.1-.924C172.556,130.252,172.827,131.557,173.1,132.857Zm-5.7,14.85c-.078.112-.157.224-.235.337-.09-.033-.179-.072-.263-.11-.372-.181-.726-.4-1.081-.61a6.892,6.892,0,0,0,1.387-.757,7.826,7.826,0,0,0,.881-.746c.131,0,.262.014.393.015C168.168,146.478,167.8,147.1,167.409,147.707Zm2.156,62.679c.055.033.1.059.158.092a1.4,1.4,0,0,0,1.262.054c.021.737.023,1.473-.013,2.213a20.7,20.7,0,0,1-.289,2.351l0,.008a1.2,1.2,0,0,0-1.008.049c.008-.221.02-.441.022-.661C169.7,213.126,169.653,211.75,169.565,210.386Zm-57.359,37.76c-.882.133-1.764.3-2.65.386-.868.082-1.731.176-2.594.264-1.293.129-2.593.264-3.887.393-.663.067-1.337.1-1.989.2a117.491,117.491,0,0,1-14.143.01l.018,0c-1.264-.081-2.537-.15-3.8-.3-.843-.1-1.691-.206-2.534-.305-1.875-.213-3.753-.438-5.626-.663-.305-.039-.606-.095-.907-.146-.951-.171-1.9-.331-2.855-.5-1.5-.258-3-.534-4.507-.786-1.276-.3-2.559-.548-3.838-.828-.869-.193-1.745-.382-2.615-.57-.358-.071-.718-.168-1.077-.234-2.3-.6-4.62-1.145-6.929-1.729-1.48-.372-2.954-.766-4.43-1.156l1.286.087c.932.067,1.862.187,2.794.289.828.085,1.642.18,2.456.305,1.035.167,2.08.312,3.113.486.175.029.342.063.51.091l-.063-.011c1.261.242,2.521.488,3.786.706l.029.005c.035.006.069.018.1.024l-.093-.016c.473.1.955.178,1.432.252.238.04.47.079.708.125.841.147,1.686.342,2.534.448s1.72.211,2.585.32c.714.084,1.439.211,2.166.256l.206.016-.017,0c1,.072,2,.132,2.987.2,2.091.136,4.18.175,6.269.251,1.762.068,3.535.1,5.3.112,1.94,0,3.887.072,5.828,0,2.026-.084,4.058-.095,6.08-.3,1.343-.14,2.684-.267,4.026-.4.65-.064,1.288-.166,1.932-.273,2.008-.332,4.022-.627,6.012-1.064,1.965-.429,3.926-.84,5.87-1.321q2.331-.572,4.666-1.154c.435-.082.869-.168,1.3-.258,1.207-.255,2.405-.565,3.584-.937.709-.172,1.414-.351,2.126-.518,1.224-.284,2.448-.568,3.668-.866.822-.2,1.631-.436,2.451-.658.913-.246,1.854-.447,2.743-.764,1.162-.414,2.328-.815,3.494-1.223.749-.263,1.465-.578,2.187-.9.9-.389,1.817-.753,2.695-1.184l-.007,0c.026-.011.05-.024.073-.036l0,0-.046.027,3.748-1.844c.778-.371,1.532-.806,2.3-1.2l.028-.015a1.513,1.513,0,0,0,.721.338l.017,0a1.5,1.5,0,0,0,.808-.085q1.152-.475,2.279-1c-.647.429-1.3.852-1.966,1.256l-.033.022-.077.036a1.612,1.612,0,0,0-.318.211c-.4.25-.791.5-1.2.724-.6.329-1.205.67-1.809,1-2.173,1.207-4.409,2.3-6.622,3.422l0,0c-1.09.534-2.172,1.08-3.259,1.625l.011,0q-2.891,1.422-5.837,2.723c-.844.372-1.689.744-2.55,1.077-1.047.4-2.084.851-3.141,1.212.05-.016.1-.038.158-.052-.373.123-.741.252-1.114.375l.04-.012c-.714.24-1.429.481-2.145.731a.035.035,0,0,1,.015,0c-.019,0-.038.011-.057.014-.347.12-.69.241-1.036.356h0l-.037.012h0l-.057.02c-1.342.426-2.693.821-4.033,1.235-1.052.325-2.125.6-3.183.893l-.52.141C114.577,247.738,113.392,247.955,112.206,248.146ZM9.4,100.953c.124,1.112.2,2.234.274,3.349.019.332.042.664.064,1-.032-.386-.069-.772-.1-1.159,0,.048.012.1.015.158C9.581,103.181,9.491,102.067,9.4,100.953ZM61.932,45.421a1.29,1.29,0,0,0,.595-.772c.45-1.578.809-3.184,1.241-4.765.405-1.491.77-2.988,1.152-4.482.184-.728.387-1.453.579-2.179.42-.544.838-1.089,1.264-1.629-.037.041-.073.077-.109.118.219-.253.445-.5.667-.758-.058.228-.126.453-.182.682-.288,1.146-.57,2.3-.829,3.45-.081.338-.156.678-.236,1.017-.175.544-.356,1.087-.535,1.624-.347,1.034-.734,2.062-1.046,3.1-1.307,3.447-2.553,6.937-3.981,10.35V50.99Q61.211,48.2,61.932,45.421Zm18.382,9.233a20.89,20.89,0,0,0,.619-4.44l.187-.04.535-.115c.015.145.037.288.049.434a24.119,24.119,0,0,1,.021,2.649,21.535,21.535,0,0,1-.3,2.456,21.164,21.164,0,0,1-.545,2.14,19.6,19.6,0,0,1-.755,1.911,15.826,15.826,0,0,1-.913,1.639,16.564,16.564,0,0,1-1.014,1.346A21.2,21.2,0,0,1,76.589,64.3a19.924,19.924,0,0,1-1.759,1.376c-.4.25-.8.487-1.228.7a11.787,11.787,0,0,1-1.193.493c-.238.067-.476.129-.717.184-.221.035-.441.063-.667.091-.271.015-.533.012-.8,0l-.087-.014c.145-.048.3-.1.444-.159.336-.131.659-.294.982-.454.05,0,.1.015.149.015A1.417,1.417,0,0,0,73,65.683c.076-.053.161-.093.236-.148A19.546,19.546,0,0,0,80.314,54.654Zm.216-9.4a2.391,2.391,0,0,0,.327.441c.124.466.235.935.339,1.406l-.4.093C80.725,46.548,80.642,45.9,80.53,45.256ZM155.65,76.6c.7,2.959,1.457,5.916,2.18,8.868.862,3.511,1.651,7.035,2.451,10.56.413,1.813.806,3.634,1.219,5.447s.755,3.649,1.168,5.462c.254,1.439.539,2.872.812,4.309a72.021,72.021,0,0,1,1.041,8.191,63.768,63.768,0,0,1,.054,7.548c0-.024.006-.046.009-.066-.006.07-.011.141-.016.206a.051.051,0,0,0,0,.03.017.017,0,0,1,0-.012c-.082,1.163-.193,2.326-.357,3.48-.075.411-.15.829-.22,1.241-.179.889-.368,1.771-.575,2.65-.094.349-.2.695-.306,1.042q-.312.9-.707,1.761a15.175,15.175,0,0,1-.738,1.334c-.181.262-.374.522-.582.768-.132.145-.274.282-.417.42-.167.145-.333.278-.51.41-.161.1-.32.2-.483.283-.085.039-.169.079-.258.112s-.183.059-.276.079c-.217-.024-.427-.053-.642-.089-.143-.034-.283-.079-.425-.117a7.787,7.787,0,0,0-2.062-.91c-.161-.04-.327-.059-.49-.094-.538-.276-1.075-.561-1.606-.854a19.25,19.25,0,0,0-1.869-.994l-.284-.119c-.242-.16-.491-.315-.734-.469a15.863,15.863,0,0,0-4.072-2.026,7.289,7.289,0,0,0-3.9-.146,8.17,8.17,0,0,0-3.46,2.017,18.367,18.367,0,0,0-2.087,2.474c-1.018,1.405-2.014,2.827-3.127,4.157a24.329,24.329,0,0,1-1.847,1.94l-.007.006-.021.02c-.321.265-.646.517-.987.754-.361.232-.725.446-1.111.644-.311.145-.63.271-.956.4-.309.1-.614.178-.931.25-.173.031-.337.051-.508.076h-.006l-.047-.008-.064-.01.047.007c-.762-.161-1.511-.365-2.256-.593a29.261,29.261,0,0,1-3.079-1.2c-.835-.406-1.643-.846-2.43-1.328-.767-1-1.5-2.021-2.242-3.047-.683-.95-1.329-1.936-2.017-2.893a28.288,28.288,0,0,0-3.423-4.156,13.182,13.182,0,0,0-3.755-2.606,19.685,19.685,0,0,0-3.884-3.244,14.758,14.758,0,0,0-6.632-2.217,17.782,17.782,0,0,0-6.39.613,26.1,26.1,0,0,0-4.606,1.944c-1.066.55-2.117,1.12-3.186,1.658l.1-.038c-.051.021-.1.043-.142.065l-.006,0a22.26,22.26,0,0,1-2.172.915c-.19.064-.378.116-.572.167-.175-.023-.35-.047-.525-.076-.434-.095-.855-.205-1.277-.337l.014.006-.03-.011-.044-.014.016,0c-.059-.022-.116-.048-.174-.069-.738-.692-1.456-1.405-2.135-2.158-1-1.132-1.894-2.333-2.776-3.556-.729-1.1-1.457-2.209-2.192-3.311-.936-1.4-1.809-2.847-2.765-4.231A44.66,44.66,0,0,0,65,112.469c-.1-.1-.2-.2-.3-.3a24.1,24.1,0,0,0-7.546-8.262,22.034,22.034,0,0,0-6.758-2.816c-.677-.159-1.359-.28-2.042-.387-.031-.013-.061-.028-.092-.04A33.476,33.476,0,0,0,43.082,99c.618.05,1.237.092,1.859.108,1.64.042,3.286.127,4.925.073,1.669-.054,3.343-.066,5.013-.163,3.53-.19,7.05-.388,10.568-.712.287-.017.573-.058.857-.087.27,0,.544,0,.817-.025l-.03,0c1.434-.088,2.871-.2,4.3-.312H71.37c.036,0,.079-.005.12,0l.128-.014c-.012,0-.024,0-.037,0,.744-.055,1.474-.171,2.212-.262.394-.046.787-.095,1.181-.14.716,0,1.432-.006,2.148-.008,1.171-.007,2.335,0,3.5-.07,1.635-.1,3.265-.211,4.9-.29.614-.028,1.223-.135,1.833-.212,1.17-.139,2.334-.284,3.5-.423.464-.059.925-.107,1.382-.192,1-.179,2-.381,3-.566.975-.188,1.943-.373,2.917-.555.487-.092.963-.221,1.443-.344,1.148-.291,2.288-.577,3.43-.87.467-.119.941-.236,1.409-.355.133-.036.273-.07.407-.106h0c.952-.264,1.9-.59,2.835-.886,1.456-.454,2.928-.865,4.349-1.4,1.8-.684,3.585-1.406,5.39-2.052.165-.062.318-.156.479-.225.421-.2.844-.4,1.265-.6l.958-.45c.531-.087,1.064-.166,1.594-.259,2.264-.4,4.519-.849,6.767-1.3a62.383,62.383,0,0,0,6.556-1.6,26.312,26.312,0,0,0,3.205-1.17,23.214,23.214,0,0,0,2.785-1.551c.9-.587,1.776-1.2,2.625-1.849.611-.268,1.215-.551,1.808-.863a15.565,15.565,0,0,0,3.043-2.021,11.579,11.579,0,0,0,2.174-2.531,16.9,16.9,0,0,0,1.284-2.5,13.658,13.658,0,0,0,.688-1.861,1.275,1.275,0,0,0-.886-1.521q.26-.714.5-1.436c-.023.062-.045.124-.068.191.073-.223.145-.448.217-.673q.619,1.511,1.247,3.018c.352.847.71,1.692,1.065,2.538Q155.163,74.542,155.65,76.6Zm11,138.015.015-.2c-.02.3-.032.586-.052.881-.021.23-.042.465-.081.7-.011.064-.028.132-.045.2-.074.2-.148.386-.234.575-.151.3-.313.587-.491.867-.355.514-.729,1-1.132,1.482-.77.868-1.6,1.688-2.446,2.483q.6-1.116,1.147-2.265.934-1.994,1.859-4.006c.387-.848.8-1.7,1.153-2.565.1-.252.208-.506.3-.764C166.667,212.872,166.675,213.743,166.653,214.615Zm-57.341,24.772h0Zm15.626-2.676c-.914.216-1.816.435-2.725.659-1.02.241-2.049.463-3.061.735-.814.219-1.637.407-2.46.6l-.215.029c-.867.112-1.727.254-2.592.324h-.031c.025,0,.049,0,.073,0l-.309.02h.013c-1.341.089-2.689.188-4.031.289h.041l-.156.013h.041l-.1,0h-.009l-.1.006h-.012l-.056,0,.02,0h-.044c-.011,0-.018,0-.03,0-1.834.081-3.67.2-5.5.236-1.9.029-3.791.105-5.687.092s-3.8.007-5.7-.06q-2.973-.1-5.939-.189c-4.075-.122-8.154-.293-12.228-.426q-2.3-.072-4.6-.138l-4.124-.118c-.713-.018-1.434-.061-2.151-.062-.43-.03-.865-.037-1.3-.057-.978-.038-1.956-.082-2.929-.12-1.494-.066-2.99-.149-4.482-.19-2.555-.214-5.114-.409-7.666-.64-.318-.029-.63-.088-.939-.134-.8-.122-1.6-.239-2.4-.36-1.237-.177-2.475-.344-3.706-.55-1.4-.318-2.8-.619-4.2-.937-.6-.13-1.2-.261-1.791-.4-1.45-.338-2.883-.779-4.3-1.236-.015-.007-.035-.011-.049-.019h-.006a40.733,40.733,0,0,1-4.106-1.542c-.635-.309-1.259-.646-1.866-1.011a12.437,12.437,0,0,1-1.079-.795c-.268-.255-.528-.519-.775-.793-.167-.2-.318-.406-.471-.611-.136-.353-.273-.705-.4-1.063a45.749,45.749,0,0,1-1.387-5.4c-.436-2.286-.74-4.584-1.067-6.892-.194-1.406-.34-2.815-.491-4.226-.343-3.228-.625-6.463-.882-9.7v.006c0-.024,0-.048-.007-.067v-.008a.953.953,0,0,1-.007-.13c0-.019,0-.038-.005-.054-.012-.2-.024-.4-.037-.592,0,.066.008.133.009.2,0-.137-.016-.27-.023-.4v-.02c0-.03,0-.058-.007-.085v0c0-.029-.005-.057-.006-.082l0,0c-.01-.144-.02-.288-.03-.43h0v-.024h0c0-.031,0-.059-.007-.087s0-.052,0-.076l0,0c-.007-.055-.013-.115-.015-.175l0,.024c-.079-1.2-.163-2.41-.248-3.613.007.067.009.128.015.194-.015-.229-.036-.459-.052-.689,0-.042,0-.084,0-.12s-.007-.09-.01-.135v.044c-.008-.163-.018-.319-.026-.482,0,.066.007.132.008.2-.265-4.08-.411-8.165-.61-12.246-.177-3.648-.358-7.3-.565-10.95-.105-1.934-.224-3.864-.319-5.791-.106-2.107-.237-4.213-.319-6.322-.073-2.132-.169-4.262-.224-6.391-.055-1.991-.092-3.979-.153-5.966-.065-1.927-.08-3.864-.181-5.792-.061-1.1-.111-2.191-.166-3.287-.041-.927-.064-1.862-.141-2.788.007.06.009.121.017.181-.05-1.053-.125-2.1-.182-3.153-.053-.97-.093-1.938-.164-2.905-.141-2.507-.256-5.028-.342-7.539-.138-3.987-.233-7.98-.431-11.965-.109-2.126-.231-4.248-.382-6.375a48.075,48.075,0,0,0-.544-5.088,21.988,21.988,0,0,0,2.33,1.627,17.178,17.178,0,0,0,3.117,1.526,19.867,19.867,0,0,0,3.7.864,34.4,34.4,0,0,0,3.718.26c1.105.036,2.215,0,3.316-.012.8-.01,1.59-.008,2.383-.006.849,0,1.7-.027,2.535.018,1.036.055,2.073.1,3.109.151-.06,0-.119,0-.172,0,.547.05,1.1.119,1.648.175s1.1.1,1.642.18c.978.146,1.953.315,2.929.479.664.171,1.336.29,2,.437q1.657.369,3.278.89h0a28.934,28.934,0,0,1,3.11,1.221l0,0a26.36,26.36,0,0,1,2.728,1.523,42.012,42.012,0,0,1,3.916,2.961c.7.637,1.446,1.24,2.115,1.914s1.38,1.347,2.024,2.064l-.006-.009,0,0,0,0-.005-.006c-.02-.024-.04-.047-.06-.072.56.649,1.132,1.3,1.7,1.944.421.483.8,1.006,1.2,1.509.36.454.713.913,1.045,1.387.2.291.4.581.605.878.416.762.844,1.52,1.311,2.261.765,1.209,1.515,2.433,2.339,3.605a49.283,49.283,0,0,0,2.84,4.5,9.491,9.491,0,0,0,4.419,3.523,9.337,9.337,0,0,0,3.488.423c.749.594,1.54,1.144,2.308,1.715a17.989,17.989,0,0,0,4.718,2.66,8.121,8.121,0,0,0,5.764-.156,12.157,12.157,0,0,0,2.775-1.667c.779-.621,1.493-1.32,2.227-1.991a13.374,13.374,0,0,1,1.247-.961c.173-.107.356-.208.546-.313.332-.153.661-.29,1.009-.412.409-.128.828-.237,1.249-.328.437-.075.87-.134,1.313-.174a16.377,16.377,0,0,1,1.7,0c.068.006.136.019.2.026.573.519,1.137,1.048,1.655,1.615l-.005-.007a.312.312,0,0,1,.046.049c.009.014.025.028.034.042.061.064.116.127.176.2-.024-.03-.049-.059-.074-.088.052.061.107.123.163.184l0,0,.02.022,0,.006c.434.489.863.971,1.3,1.46a.414.414,0,0,0-.035-.036c.069.083.146.161.221.246.415.517.843,1.025,1.271,1.533.445.587.9,1.177,1.347,1.765a40.423,40.423,0,0,0,3.989,4.55,26.677,26.677,0,0,0,5.092,3.954,24.939,24.939,0,0,0,3.036,2.833,12.587,12.587,0,0,0,5.532,2.652c.092.016.185.031.279.041a11.211,11.211,0,0,0,6.029-.954,30.515,30.515,0,0,0,6.884-4.631c1.552-1.28,3.079-2.589,4.73-3.745.5-.335,1.019-.64,1.548-.924.1-.039.189-.085.286-.121.371-.117.741-.216,1.126-.307.227-.039.454-.073.678-.089.27-.009.532-.006.792.008.071.006.141.017.211.023.277.058.54.126.813.208.191.074.381.153.569.239.83.425,1.606.961,2.41,1.437a19.029,19.029,0,0,0,2.42,1.241,12.689,12.689,0,0,0,2.89.813c.3.526.611,1.053.924,1.576q.3,1.445.585,2.891.393,1.92.791,3.836.075,1.707.146,3.414c.33,7.967.455,15.952.641,23.924.138,5.765.488,11.537.511,17.308a1.439,1.439,0,0,0-.635.727c-.48,1.257-.98,2.5-1.493,3.737-.378.905-.8,1.79-1.191,2.691-.75,1.444-1.493,2.884-2.351,4.268l.119-.177c-.5.759-.971,1.551-1.512,2.285-.726.989-1.442,1.979-2.233,2.921a28.672,28.672,0,0,1-2.154,2.2c-.9.792-1.8,1.6-2.734,2.348-1.082.864-2.167,1.709-3.295,2.523-.625.42-1.246.848-1.873,1.274.067-.042.128-.086.195-.128-2.043,1.359-4.092,2.717-6.163,4.03-2.962,1.861-5.929,3.746-9.069,5.309-1.152.565-2.326,1.067-3.516,1.532C125.856,236.5,125.4,236.6,124.938,236.711ZM68.11,63.845a17.944,17.944,0,0,0,2.26-.789c-.012.223-.014.447-.023.67-.045.025-.089.053-.135.078-.312.15-.626.283-.951.4-.3.087-.588.163-.892.226a7.77,7.77,0,0,1-.852.1c-.078,0-.157,0-.236,0l.228-.572C67.709,63.924,67.912,63.9,68.11,63.845Zm14.847-2.521a21.354,21.354,0,0,0,2.017-10.383,1.662,1.662,0,0,0,1.672.929c1.695-.146,3.389-.316,5.083-.491,1.367-.091,2.726-.253,4.092-.354l.067-.006a.22.22,0,0,0-.049,0c-.012,0-.024,0-.041,0,.037,0,.074-.005.111-.005l.031,0h.02c.751-.046,1.5-.1,2.254-.148a.025.025,0,0,0,.012,0l-.027,0c1.84-.109,3.684-.176,5.528-.244,2.1-.072,4.188-.158,6.285-.236,3.141-.112,6.288-.253,9.432-.311,1.821-.036,3.633-.054,5.454-.053,1.552,0,3.1.083,4.655.117l-.194-.014a65.6,65.6,0,0,1,7,.742.3.3,0,0,1-.062-.016,31.754,31.754,0,0,1,3.406.839c-.028-.01-.056-.021-.09-.032.051.014.1.033.141.047.018,0,.028.011.04.013l-.023,0c.746.251,1.476.528,2.2.852a15.365,15.365,0,0,1,1.562.871c.327.222.635.452.939.7.264.242.526.495.769.756.2.236.381.47.56.721.1.159.189.317.28.476-.064.718-.171,1.429-.3,2.142-.238,1.1-.539,2.184-.874,3.256-.274.833-.585,1.658-.915,2.475-.138.172-.273.345-.415.514-.31.354-.629.689-.944,1.036-.239.253-.459.532-.714.77q-.865.831-1.731,1.668c-.359.292-.71.6-1.07.9-.326.273-.638.568-.979.82-.806.6-1.631,1.178-2.427,1.8-.869.553-1.729,1.125-2.6,1.684-.711.466-1.46.872-2.195,1.3-.7.407-1.4.817-2.116,1.191-.853.46-1.7.939-2.576,1.372.026-.014.051-.021.077-.035-.039.017-.078.041-.117.058a.245.245,0,0,0-.059.032c.007,0,.008-.011.013-.01s.013,0,.014-.01a.252.252,0,0,0,.052-.027l-.3.153c.059-.032.124-.063.183-.094-1.061.52-2.121,1.041-3.188,1.567a.09.09,0,0,0-.033.018h-.006c-.072.036-.142.066-.208.1-.583.272-1.165.538-1.753.8s-1.183.572-1.786.823c-1.442.588-2.846,1.272-4.28,1.88-1.536.656-3.07,1.324-4.618,1.942-.383.155-.766.3-1.15.454-.237.07-.474.14-.711.208-.276.079-.55.176-.835.242-2.529.591-5.056,1.171-7.585,1.761-2.112.417-4.232.808-6.36,1.108s-4.252.5-6.389.649c.054,0,.109-.012.163-.015-1.961.125-3.927.208-5.9.206s-3.949-.059-5.925-.133l.024,0-.189-.014c-.059,0-.113,0-.173,0-.247-.017-.5-.03-.75-.048l.16.009c-.086-.006-.174-.01-.263-.015s-.161-.012-.239-.015c-.12,0-.237-.016-.349-.023a1.62,1.62,0,0,0,.165.016c-.2-.01-.4-.026-.6-.042a1.938,1.938,0,0,1-.2-.009c-.124-.009-.253-.019-.378-.022-.206-.017-.408-.026-.615-.037-.16-.009-.324-.025-.484-.034L71,88.439c-.271-.022-.544-.037-.81-.052-.065,0-.13,0-.2-.009a.569.569,0,0,0-.095,0l-.171-.011.006,0-.331-.021c-.077,0-.154-.008-.23-.015l.058.009c-.118-.007-.229-.02-.342-.021-.142-.012-.284-.018-.42-.028l.16.009c-.16-.009-.319-.019-.479-.027l.16.008c-.154-.007-.3-.02-.45-.027-.076-.007-.154-.008-.23-.014l-.16-.009c-.029-.005-.053,0-.082-.009l.023,0c-.011,0-.024,0-.035,0s-.042,0-.065,0l-.012,0c-.03,0-.059,0-.083,0-.922-.058-1.838-.152-2.757-.222-1.55-.123-3.1-.251-4.648-.374-2.2-.178-4.393-.438-6.594-.663-1.2-.129-2.4-.247-3.589-.423q-3.243-.473-6.5-.934c-1.281-.191-2.555-.429-3.832-.649-1.688-.294-3.374-.6-5.064-.884l.157.026c-1.3-.272-2.624-.482-3.938-.726-1.35-.25-2.7-.506-4.054-.751l.11.019.012,0h0l.035,0-.035-.006a69.869,69.869,0,0,1-7.489-1.8c.05.021.1.035.152.056a37.6,37.6,0,0,1-3.63-1.413,22.672,22.672,0,0,1-2.22-1.211l.019.01a.206.206,0,0,1-.049-.032l-.034-.019h0l0,0a.427.427,0,0,1-.054-.037h0a23.675,23.675,0,0,1-2.138-1.607A17.633,17.633,0,0,1,9.5,75.049a10.348,10.348,0,0,1-.646-.838c-.149-.224-.279-.458-.412-.689.131-.617.273-1.229.443-1.835.16-.186.319-.372.48-.562l-.028.035c.046-.053.09-.107.136-.16l-.016.018.052-.059.014-.016c.088-.1.178-.207.268-.316.023-.032.051-.057.081-.094.381-.42.773-.832,1.16-1.257.315-.346.615-.714.957-1.039q1.246-1.188,2.481-2.408c.422-.341.833-.7,1.256-1.049.451-.373.884-.784,1.354-1.129.871-.636,1.758-1.264,2.637-1.91.932-.573,1.851-1.177,2.784-1.755.445-.272.931-.5,1.4-.745.44-.237.881-.479,1.326-.715.415-.193.834-.38,1.254-.572.453-.2.9-.441,1.358-.62.876-.343,1.759-.7,2.641-1.044l.076-.023c.787-.261,1.567-.517,2.343-.785h0c1.574-.5,3.2-.881,4.807-1.279,1.47-.362,2.951-.651,4.427-.983.769-.135,1.542-.275,2.314-.415,1.786-.038,3.574-.052,5.368-.012a1.3,1.3,0,0,0,.951-.4c.258.011.515.011.773.025.907.063,1.808.17,2.708.307a11.573,11.573,0,0,0,1.684,6.417,11.686,11.686,0,0,0,2.191,2.5,16.357,16.357,0,0,0,1.3,1.8,13.842,13.842,0,0,0,2.145,2.163,10.133,10.133,0,0,0,1.357.87c-.083.392-.166.785-.248,1.176a1.4,1.4,0,0,0,.366,1.31,1.383,1.383,0,0,0,.73.379,1.116,1.116,0,0,0,.395-.006,2.034,2.034,0,0,0,.917-.342,2.853,2.853,0,0,0,.42-.41,9.594,9.594,0,0,0,1.865,1.166,8.446,8.446,0,0,0,2.086.66,5.936,5.936,0,0,0,.953.088,9.73,9.73,0,0,0,2.994-.441,14.944,14.944,0,0,0,5.526-3.409A18.322,18.322,0,0,0,82.957,61.324Zm1.312-15.277a1.082,1.082,0,0,0,.651-.535,1.744,1.744,0,0,0,.1-.275l.873.012,2.3.027c1.026.011,2.048-.017,3.073-.036q-1.3.255-2.595.539c-.4.058-.807.116-1.205.175-.838.122-1.672.251-2.51.4-.2.037-.393.071-.589.106C84.34,46.324,84.3,46.186,84.269,46.047Zm8.958,90.277a10.957,10.957,0,0,1-.952.556c-.258.118-.516.23-.783.328-.22.065-.433.125-.657.177-.24.043-.484.074-.728.105-.2.008-.408.009-.616,0-.223-.019-.445-.05-.672-.089l.017.008c-.277-.058-.553-.122-.826-.2a8.779,8.779,0,0,1-.884-.351,20.561,20.561,0,0,1-2.091-1.177q-.575-.381-1.137-.783a18.975,18.975,0,0,0,4.646-.9c2.054-.676,4.063-1.48,6.086-2.257a24,24,0,0,1,2.549-.708,14.669,14.669,0,0,1,1.458-.185c.318-.007.627,0,.942.009a7.583,7.583,0,0,1,.831.1c.293.06.578.133.861.217-.3.064-.609.123-.905.214a10.068,10.068,0,0,0-2.244.925,12.076,12.076,0,0,0-1.9,1.389c-.634.575-1.243,1.184-1.878,1.764A13.633,13.633,0,0,1,93.227,136.324ZM34.264,99.814c-1.543-.137-3.09-.244-4.622-.514-.17-.032-.339-.062-.506-.095l.058.01c-.173-.035-.341-.063-.515-.1l.047.007c-.2-.039-.411-.08-.614-.114l.018,0c-.174-.035-.347-.07-.521-.1l.017,0c-1.337-.32-2.67-.633-3.981-1.038-.6-.2-1.2-.383-1.8-.578l0,0-.027-.01h0a.194.194,0,0,0-.045-.014l-.095-.03,0,0-.043-.014h0l-.009,0-.059-.02.012,0c-1.944-.716-3.893-1.4-5.763-2.275.033.017.06.034.093.051-.049-.026-.094-.045-.137-.07a.2.2,0,0,0-.039-.018q-.781-.391-1.541-.834c.509.1,1.018.2,1.529.285,1.672.28,3.356.5,5.036.731,1.474.207,2.948.414,4.421.631.885.272,1.77.524,2.664.758.571.156,1.144.3,1.715.455.206.052.416.117.624.158,1.352.3,2.714.551,4.071.826.265.056.532.1.8.146,1.028.172,2.065.286,3.095.447.261.038.522.062.783.094-.069.009-.14.006-.208.021a2.265,2.265,0,0,0-1.08.565,1.088,1.088,0,0,0-.335.764c-1.023-.044-2.045-.089-3.064-.142Zm-14.056.545c-.6-.119-1.185-.258-1.767-.433a14.249,14.249,0,0,1-1.555-.624,21.875,21.875,0,0,1-2.13-1.2l0,0c-.038-.024-.07-.048-.108-.072.482.224.973.432,1.47.634,1.5.592,2.993,1.2,4.529,1.691l-.012,0c.153.049.3.1.453.149C20.8,100.458,20.5,100.411,20.208,100.359ZM8.251,77.407a21.744,21.744,0,0,0,5.1,3.785,32.545,32.545,0,0,0,6.417,2.5c1.191.337,2.4.611,3.61.868.894.185,1.791.395,2.691.546l-.157-.026c1.3.273,2.624.482,3.938.726s2.64.5,3.955.735c-.017,0-.039-.013-.057-.016.658.134,1.326.246,1.994.358.3.045.605.1.912.153,1.589.278,3.185.552,4.773.836,2.262.4,4.544.678,6.812,1,1.182.174,2.36.341,3.552.463,2.154.218,4.313.449,6.468.667,1.326.139,2.654.23,3.98.332,1.6.131,3.2.292,4.807.389.042,0,.082.007.124.008l.017,0c.029,0,.059,0,.087,0l.056,0c.023,0,.053,0,.076.007a.276.276,0,0,1,.071.006c.142.006.283.017.426.023l.366.026L68.2,90.8c.135.011.271.022.4.031l-.053-.008c.107.006.212.017.319.023s.183.013.278.017l.242.014.228.014c.087,0,.179.009.262.017l-.011,0,.662.039.679.043c.166.009.331.02.5.031.23.014.461.029.692.038a3.7,3.7,0,0,0,.39.023c.225.014.454.034.684.05l.285.011c.088.009.177.012.259.02s.172.01.255.013l.183.013c.109.007.224.014.339.018l.193.011-.159-.009.5.034h.006l.021,0h.068c.92.054,1.845.07,2.764.09,1.088.033,2.171.054,3.258.051,1.478,0,2.956-.055,4.432-.128a1.539,1.539,0,0,0,.11.194c-1.664.264-3.335.537-5,.788a1.42,1.42,0,0,0-1,.668l-2.366.322c-.654.022-1.309.044-1.961.054-1.93.046-3.868.067-5.805.113-3.325.07-6.654.234-9.981.381-.216.01-.433.014-.65.024-.139-.018-.277-.031-.417-.049-.946-.129-1.9-.234-2.842-.393-1.1-.19-2.2-.4-3.3-.583l.175.029c-1.322-.275-2.647-.527-3.965-.819q-2.211-.487-4.423-.969c-1.411-.308-2.818-.6-4.225-.905-.536-.114-1.079-.223-1.615-.336-.722-.145-1.446-.315-2.178-.437l.1.017a1.5,1.5,0,0,1-.162-.033L36.26,89.3l.174.029a.735.735,0,0,0,.115.025h.005c-.04-.007-.08-.019-.12-.026l.011,0c-.225-.044-.452-.082-.677-.125l.18.03-2.169-.418c.023,0,.045.014.063.017l-.519-.1.009.006h-.011q-1.737-.345-3.482-.637c-1.12-.188-2.226-.434-3.347-.622l.186.032c-1.5-.317-3-.635-4.488-1-.667-.16-1.328-.312-1.983-.5-.816-.238-1.642-.447-2.448-.713l.006,0-.644-.21,0,0-.028-.01h0l-.015,0h0l-1.925-.622.094.028.009,0c-2.133-.74-4.279-1.476-6.323-2.422-.111-.053-.219-.111-.329-.166-.145-.491-.275-.985-.375-1.49-.1-.6-.171-1.193-.219-1.8C8,78.126,8,77.642,8.01,77.157,8.091,77.24,8.169,77.326,8.251,77.407Zm122.7,1.414c-.013.009-.026.013-.039.023l-.071.049.01-.006-.033.023-.022.016.01-.009q-1.107.735-2.229,1.422c-.366.225-.727.457-1.1.657-.624.338-1.237.683-1.861,1.02-.847.461-1.7.928-2.538,1.4l-.066.035c-.3.07-.595.136-.892.222-.45.085-.9.22-1.333.332-1.054.265-2.107.53-3.165.788l-.82.2.228-.089c1.12-.414,2.239-.818,3.354-1.234.9-.34,1.784-.675,2.667-1.058,2.151-.941,4.273-1.952,6.336-3.076,1-.548,1.991-1.117,2.962-1.712-.464.346-.937.679-1.416,1C130.942,78.824,130.948,78.825,130.954,78.821ZM36.064,92.177l-.11-.018-.035-.006-.035-.006c.07.012.144.03.214.042h.011c2.84.553,5.675,1.124,8.5,1.735l.7.152c-2.129-.037-4.255-.124-6.381-.243l.008,0c-.682-.06-1.366-.11-2.048-.176-.646-.061-1.3-.182-1.936-.271-1.174-.161-2.324-.42-3.486-.614-2.474-.522-4.948-1.08-7.411-1.631-1.594-.351-3.184-.715-4.757-1.134-.466-.239-.933-.476-1.393-.728-.864-.473-1.7-1.007-2.547-1.513-.089-.062-.182-.12-.272-.181A78.711,78.711,0,0,0,22.807,89.7c3.32.711,6.658,1.313,10,1.874l-.18-.03C33.768,91.768,34.917,91.966,36.064,92.177ZM103.5,91c.249-.052.5-.1.746-.155l-.132.041-.629.16C103.493,91.029,103.5,91.015,103.5,91Zm36.144-12.046c-1.508.508-3.023.987-4.554,1.415-.932.257-1.867.5-2.8.744.358-.24.726-.467,1.078-.716a50.782,50.782,0,0,0,5.277-4.3,33.459,33.459,0,0,0,4.5-5.055,29.771,29.771,0,0,0,2.287-3.814c.129-.133.265-.266.39-.406,0,.006-.007.005-.008.011.163-.188.326-.376.49-.569l-.044.046c.239-.275.479-.555.718-.831.032-.04.066-.081.1-.12.072-.085.147-.163.219-.254l-.014.015.317-.364c-.028.025-.051.057-.079.083.535-.628,1.026-1.28,1.536-1.934.4-.511.791-1.026,1.163-1.556.072.2.149.4.223.6-.026.162-.051.324-.08.486-.192.962-.466,1.893-.709,2.841-.2.576-.385,1.159-.578,1.742a28.612,28.612,0,0,1-1.341,3.327,22.785,22.785,0,0,1-1.24,2.205,21.36,21.36,0,0,1-1.443,1.908,21.721,21.721,0,0,1-1.93,1.968,29.678,29.678,0,0,1-2.815,2.191v0c-.117.079-.237.151-.355.229C139.855,78.874,139.753,78.917,139.648,78.953Zm-54.8-29.574.289-.06a1.724,1.724,0,0,0-.235.477C84.892,49.656,84.867,49.519,84.851,49.379Zm6.022-1.255c.927-.047,1.852-.185,2.775-.281.967-.1,1.937-.188,2.9-.3h-.069l.118-.01a.093.093,0,0,1-.042,0l.011,0,.145-.011.463-.03c.093-.005.187-.012.28-.019-.012,0-.03,0-.042,0l.531-.036-.169.007.706-.043-.168.008c.219-.012.444-.029.669-.045l-.048,0c.188-.015.375-.026.562-.036l-.169.007c.193-.009.394-.026.593-.04h0c.2-.014.4-.027.6-.036l-.168.008c.151-.01.3-.015.446-.026l-.168.007c.145-.011.3-.021.453-.031a.512.512,0,0,0-.055.008c.132-.011.263-.018.395-.029.2-.011.408-.025.607-.041a.609.609,0,0,0,.116-.011h.068l-.015,0c.043-.005.091-.008.139-.012.012,0,.019,0,.03,0l-.017,0a.207.207,0,0,0,.066,0h-.006a.016.016,0,0,0,.012,0l.024,0-.012,0c.79-.047,1.574-.059,2.368-.093,1.552-.068,3.11-.141,4.668-.173,1.7-.031,3.41-.109,5.11-.1,1.031.012,2.058.011,3.089.023.745.005,1.5-.018,2.237.01,1.189.04,2.379.1,3.569.159l-.442,0c-3.121-.01-6.242.088-9.361.2-3.34.121-6.686.21-10.023.35-1.762.075-3.529.142-5.288.2-1.662.06-3.331.2-4.993.327-.676.048-1.343.11-2.011.177-.58.04-1.159.095-1.738.147.325-.066.65-.13.975-.2.147-.023.3-.039.452-.061ZM63.958,61.52l-.123-.016c.077-.167.158-.332.232-.5C64.03,61.176,64,61.348,63.958,61.52Zm-2.283-5.658c-.116.5-.231,1.013-.343,1.519q-.164-.587-.3-1.177c.012-.024.026-.048.038-.072q.541-1.1,1.035-2.226Q61.893,54.889,61.675,55.862Zm80.372,85.471c-.993,1.046-1.981,2.1-3.063,3.069-.595.516-1.2,1.017-1.835,1.472.7-.832,1.359-1.7,2-2.578.754-1.044,1.495-2.114,2.318-3.11.258-.291.531-.562.814-.831.168-.145.334-.279.511-.41.159-.093.311-.181.469-.268.193-.086.392-.167.588-.235.076-.024.152-.046.232-.063.111-.018.227-.034.342-.044.15,0,.3,0,.448,0,.158.021.311.035.462.06A20.824,20.824,0,0,0,142.047,141.333Zm-7.6,9.534c-.473.215-.948.412-1.443.583-.252.078-.5.149-.757.208a11.641,11.641,0,0,1-1.212.179c-.331.016-.66.014-.992,0-.223-.02-.445-.051-.671-.089-.324-.066-.633-.142-.946-.236-.227-.075-.445-.161-.665-.248a7.644,7.644,0,0,0,1.017-.1c.4-.07.791-.16,1.179-.268.385.023.772.028,1.161.022a12.82,12.82,0,0,0,3.568-.519,15.365,15.365,0,0,0,1.517-.555,18.684,18.684,0,0,1-1.764,1.018Zm14.174,76.411c1.135-.759,2.193-1.63,3.255-2.484s2.074-1.76,3.091-2.664l-.007.006q.036-.031.072-.066c-.031.028-.061.054-.092.079a21.659,21.659,0,0,0,1.869-1.854c.566-.633,1.134-1.279,1.637-1.965.506-.7,1.017-1.4,1.524-2.108s.949-1.5,1.419-2.234c.43-.674.79-1.4,1.18-2.089s.706-1.428,1.052-2.141c.1-.211.2-.43.292-.646-.039.314-.077.629-.136.941l-.038.227.034-.2c-.048.218-.1.436-.157.654-.625,1.662-1.454,3.261-2.2,4.873V215.6c-.148.31-.3.625-.449.934.008-.011.009-.022.016-.027a48.147,48.147,0,0,1-2.623,4.963c-.306.439-.612.871-.949,1.28-.3.338-.618.661-.957.974-.438.369-.9.716-1.37,1.049-1.538,1.019-3.191,1.865-4.813,2.745-1.095.587-2.2,1.143-3.3,1.71-1.273.616-2.551,1.22-3.821,1.855-.245.111-.492.213-.739.319C144.491,230.053,146.568,228.688,148.617,227.278Zm.267-172.736a1.546,1.546,0,0,0-.08.2c-.037-.072-.072-.145-.111-.216,0-.061,0-.121-.008-.181C148.751,54.409,148.819,54.475,148.884,54.542Zm-20.622-9.8c-.449-.043-.9-.085-1.348-.129-.682-.066-1.365-.156-2.053-.182L121.9,44.3c-2.41-.115-4.819-.131-7.227-.109a1.327,1.327,0,0,0,.207-.2q.855-.083,1.716-.143a63.677,63.677,0,0,1,7.63-.051C125.585,44.069,126.923,44.4,128.262,44.747ZM71.093,54.778c-.219,1.742-.373,3.491-.506,5.241-.208.114-.4.245-.617.352-.4.189-.818.354-1.238.516.062-.155.123-.312.186-.467.486-1.226.959-2.448,1.417-3.685.253-.692.514-1.389.774-2.085A.877.877,0,0,0,71.093,54.778ZM29.961,237.458c-.092-.014-.185-.024-.277-.039-.53-.112-1.058-.242-1.576-.4-.338-.117-.669-.244-.992-.387-.193-.092-.384-.2-.57-.3l-.024-.019C27.655,236.743,28.808,237.112,29.961,237.458ZM169.319,129.686c.027.251.055.5.081.756a1.16,1.16,0,0,0-.663.648,6.825,6.825,0,0,0-.293,1.778c-.023.211-.045.415-.069.626a1.735,1.735,0,0,0-.222.579,9.015,9.015,0,0,0-.086,1.442c-.263.463-.564.9-.842,1.351-.38.629-.754,1.259-1.107,1.9a24.307,24.307,0,0,0-1.188,2.386c-.081.194-.157.394-.219.6-.009-.007-.015-.016-.023-.023a1.219,1.219,0,0,0-.214-.125,5.074,5.074,0,0,0,.422-.729,12.69,12.69,0,0,0,.572-1.528,22.124,22.124,0,0,0,1.733-4.814,39.6,39.6,0,0,0,.958-6.18c.062-.831.112-1.665.144-2.5.024-.217.048-.429.065-.641.039-.474.091-.953.135-1.431.178,1.1.352,2.209.533,3.313C169.181,127.949,169.224,128.828,169.319,129.686ZM80.249,43.6a.97.97,0,0,1-.042-.1c.056.169.1.341.154.51a1.469,1.469,0,0,0-.039.212c-.068-.327-.119-.656-.2-.98C80.165,43.363,80.2,43.483,80.249,43.6ZM72.231,27.4c.079.312.165.619.245.925.021.23.042.46.07.686.092.875.145,1.768.28,2.638.136.9.284,1.8.431,2.7.241,1.521.579,3.028.9,4.539l0-.006c.228,1.142.543,2.27.787,3.409.332,1.578.715,3.141,1.035,4.723-.007-.061-.022-.117-.029-.178a34.834,34.834,0,0,1,.544,3.841,17.9,17.9,0,0,1,0,1.868c-.03.323-.072.645-.127.97-.073.328-.163.653-.264.971-.1.282-.213.555-.341.826-.095.175-.2.349-.3.518a12.149,12.149,0,0,1-.768,1.017,12.778,12.778,0,0,1-1.014,1.015c-.063.057-.131.107-.2.163.017-.165.031-.333.046-.5.117-1.234.262-2.452.414-3.68q.206-1.713.447-3.418c.118-.846.236-1.692.36-2.537.157-1.114.261-2.231.388-3.344a1.358,1.358,0,0,0-2.18-1.243,3.739,3.739,0,0,0-.693.642,4.529,4.529,0,0,0-.413.718,14.329,14.329,0,0,0-.684,1.963c-.537,1.6-1.188,3.147-1.746,4.735-.438,1.222-.905,2.44-1.365,3.652q.588-2.758,1.214-5.5c.354-1.541.691-3.084,1.073-4.621l.83-3.347c.189-.769.4-1.539.614-2.31.133-.437.26-.875.377-1.321a1.344,1.344,0,0,0-2.6-.67c-.143.5-.285.985-.421,1.476-.172.563-.354,1.117-.531,1.672.021-.056.037-.113.057-.163-.347,1.045-.682,2.091-1.012,3.138l0-.005c-.009.022-.012.039-.021.056v.006a.284.284,0,0,1-.024.073.243.243,0,0,0,.018-.039c-.025.08-.049.153-.074.233l0-.024c-.479,1.442-.957,2.879-1.424,4.323-.093.236-.175.478-.263.715.408-1.866.806-3.741,1.239-5.608.456-2.043.93-4.089,1.4-6.131.228-.642.449-1.286.641-1.934.375-1.275.766-2.541,1.147-3.814l.411-1.382c.234-.791.493-1.589.682-2.393.165-.7.264-1.4.36-2.113a1.273,1.273,0,0,0-.011-.186c.005.025.011.05.017.075C71.907,25.947,72.041,26.681,72.231,27.4Zm-.814-3.8c.05.356.13.711.211,1.065a1.281,1.281,0,0,0-.838-.737,1.3,1.3,0,0,0-1.52.767c-.227.619-.457,1.238-.678,1.859a2.318,2.318,0,0,0-.917.526c-.191.164-.378.335-.564.507.3-.949.6-1.9.886-2.849.145-.436.273-.88.406-1.317q.444-1.422.883-2.844c.248-.806.5-1.611.751-2.417.192-.62.361-1.247.526-1.875q.058.867.119,1.732a.216.216,0,0,1,0-.051c.04.652.128,1.3.2,1.944.057.481.114.962.189,1.441C71.185,22.1,71.31,22.844,71.417,23.6ZM50.709,47.127c.5-.071,1-.138,1.5-.208.262-.034.528-.085.788-.107.66-.051,1.323-.089,1.985-.157.106,0,.211-.006.317-.009-.02.178-.048.354-.066.532-.074.224-.133.45-.2.674a23.7,23.7,0,0,0-2.56-.314A1.147,1.147,0,0,0,52.3,47.4l.018,0a.18.18,0,0,1-.028-.011.657.657,0,0,0-.088-.044c-.028-.011-.056-.027-.078-.037a1.008,1.008,0,0,0-.425-.1,6,6,0,0,0-1.411-.02C50.428,47.175,50.568,47.147,50.709,47.127ZM11.138,169.894c-.135-1.975-.276-3.945-.411-5.92l-.258-3.7c-.037-.526-.057-1.049-.108-1.565,0,.049.008.1.011.152-.008-.062-.011-.116-.019-.171,0-.027,0-.056,0-.083l.006.084c0-.036-.005-.072-.008-.108v-.006c-.02-.263-.036-.525-.052-.788a.379.379,0,0,0,.007.045c-.037-.6-.08-1.195-.118-1.787,0,.024.005.042.007.067q-.273-4.225-.551-8.452c-.017-.254-.029-.5-.05-.754l0-.09,0-.018h0c0-.016,0-.032,0-.048a.2.2,0,0,1,0-.024v0l0-.024h0c-.239-4.064-.45-8.123-.731-12.181v0c-.11-2.084-.225-4.176-.329-6.264-.1-1.838-.226-3.674-.288-5.512-.108-3.092-.223-6.192-.3-9.292q.519,5.864,1.039,11.727c.313,3.444.565,6.889.83,10.331v-.006c.071,1.5.162,2.989.246,4.483.078,1.422.118,2.856.232,4.279.13,3.43.23,6.856.341,10.29q.2,5.971.451,11.951.192,4.524.408,9.048C11.37,173.673,11.267,171.782,11.138,169.894Zm3.23,43.7c-.2-1.646-.379-3.294-.551-4.94-.253-2.409-.473-4.818-.682-7.229.033.265.065.531.1.8.227,1.853.467,3.7.7,5.544.443,3.556.842,7.121,1.261,10.678.138,1.174.295,2.344.464,3.512-.133-.5-.254-.993-.357-1.5l.011.036C14.9,218.209,14.643,215.894,14.368,213.6Zm62.674,37.934c-1.735-.123-3.467-.336-5.207-.461a7.066,7.066,0,0,1-.709-.113c-.589-.086-1.176-.185-1.763-.277-.878-.141-1.745-.275-2.616-.421-3.187-.689-6.391-1.339-9.586-2.013A144.832,144.832,0,0,1,42.98,244.9l.006,0c-.016-.009-.034-.012-.051-.02-.033-.012-.068-.017-.1-.029l.035.006a55.945,55.945,0,0,1-5.968-2.408c-.171-.082-.338-.169-.508-.253,1.033.246,2.065.491,3.1.745q5.007,1.222,10,2.518c1.316.34,2.635.668,3.953,1,1.158.284,2.316.573,3.474.857.608.149,1.216.335,1.837.439l-.174-.029c1.448.338,2.911.619,4.37.929,1.355.287,2.706.6,4.075.839,2.151.378,4.307.734,6.455,1.1l.133.022c1.156.194,2.311.315,3.477.452q2.614.3,5.225.6C80.558,251.634,78.8,251.568,77.042,251.531Zm89.919-99.914a.048.048,0,0,0-.016-.008c-.018-.009-.036-.021-.054-.03l.076.039c.023.01.039.019.061.028Zm.644.078c-.055,0-.11,0-.168,0a.219.219,0,0,1,.036,0l-.073,0h0c-.016,0-.032,0-.047-.006l-.022,0c-.051-.009-.1-.012-.16-.021l-.119-.038c-.06-.022-.118-.048-.178-.07-.079-.042-.158-.084-.236-.131.026.022.058.039.085.062-.049-.032-.1-.064-.14-.095,0,0-.01-.008-.016-.009l.005,0c-.131-.093-.263-.187-.387-.29-.053-.045-.1-.1-.147-.145.011,0,.021.011.032.015a9.624,9.624,0,0,0,2.154.634C168.019,151.647,167.815,151.675,167.605,151.7Zm5.456-6.08c-.133.267-.278.521-.435.773-.174.259-.347.507-.542.747-.144.149-.289.3-.444.445-.132.109-.263.213-.4.314a4.547,4.547,0,0,1-.4.238,13.964,13.964,0,0,0,1.258-2.986,3.647,3.647,0,0,0,1.12-.78,4.368,4.368,0,0,0,.413-.521c-.063.3-.13.6-.215.886C173.308,145.035,173.193,145.327,173.061,145.615Z"/></svg>