<svg xmlns="http://www.w3.org/2000/svg" width="326.44" height="281.896" viewBox="0 0 326.44 281.896"><path d="M87.9,265.7h-.1l-.085,0C87.775,265.707,87.842,265.7,87.9,265.7Z"/><path d="M136.379,38.544c.049.022.106.038.162.061s.112.04.169.057Z"/><path d="M106.1,47.337l.015-.01.019-.013Z"/><path d="M326.434,148.632c0-1.44-.091-2.872-.16-4.307-.075-1.592-.1-3.187-.237-4.779q-.274-3.22-.549-6.446c-.132-1.609-.355-3.212-.541-4.82-.1-.852-.2-1.706-.3-2.565-.067-.613-.188-1.224-.286-1.831q-.306-1.9-.6-3.794c-.074-.482-.137-.962-.238-1.431q-.654-3.033-1.314-6.062c-.118-.532-.275-1.054-.42-1.575q-.486-1.758-.974-3.512c-.416-1.508-.885-2.984-1.37-4.47-1.043-3.225-2.134-6.442-3.382-9.594-1.066-2.691-2.137-5.382-3.356-8-.148-.42-.306-.836-.453-1.252-.213-.605-.41-1.225-.649-1.817a40.949,40.949,0,0,0-2.22-4.791,43.589,43.589,0,0,0-2.806-4.336c-1.04-1.407-2.151-2.762-3.27-4.107q-1.287-1.528-2.682-2.952c-.06-.073-.117-.151-.179-.224a1.184,1.184,0,0,0,.084.094c-1.085-1.3-2.163-2.609-3.322-3.841-.547-.58-1.076-1.192-1.646-1.747-.769-.737-1.532-1.472-2.3-2.209-2.482-2.389-5.105-4.637-7.77-6.822-1.216-1-2.5-1.947-3.8-2.83-.725-.495-1.443-1.03-2.194-1.488-.836-.516-1.671-1.037-2.506-1.554-1.671-1.031-3.4-1.984-5.147-2.875a40.75,40.75,0,0,0-12.389-3.975c-1.158-.182-2.316-.3-3.477-.44-.757-.087-1.513-.18-2.267-.248l-1.164-.093c-.188-.022-.372-.055-.56-.073-.591-.059-1.187-.087-1.784-.1-.606-.041-1.211-.085-1.817-.114a44.03,44.03,0,0,0-9.973.422,32.753,32.753,0,0,0-11.755,4.354c-.014.009-.026.018-.04.026a27.743,27.743,0,0,1-3,.339c-.7.009-1.391-.006-2.083-.056.022,0,.047.006.072.009-.028,0-.055,0-.079,0l-.011,0-.046-.005-.049,0h.043c-1.342-.143-2.669-.366-3.993-.626-2.884-.649-5.75-1.359-8.628-2.007-.1-.022-.205-.039-.307-.061a1.213,1.213,0,0,0-.869-1.207c-.988-.257-1.983-.54-2.983-.734l.018,0-.191-.037.156.03c-.152-.029-.3-.064-.455-.1l.023.009-.87-.186.156.03c-.2-.045-.4-.084-.61-.13l.156.03c-.99-.216-2-.394-3.007-.547a28.467,28.467,0,0,0-7.758-.33,36.837,36.837,0,0,0-4.1.813c-.819.2-1.637.427-2.47.577.012,0,.019,0,.025,0-.013,0-.025,0-.037,0-.039.009-.072.013-.109.021l-.269.044c.006,0,.018,0,.025-.007-.259.033-.522.061-.79.081-.343,0-.688-.008-1.037-.034a5.916,5.916,0,0,0-.959-.066,2.766,2.766,0,0,0-.724.148,2.916,2.916,0,0,0-.814.453,6,6,0,0,0-.7.573,20.873,20.873,0,0,0-1.817,2.071c-.687.85-1.338,1.731-1.95,2.632.033-.047.059-.09.093-.138-.145.212-.293.424-.438.636-.278.121-.559.237-.835.361q-1.584.716-3.16,1.455c.522-1.38,1.012-2.772,1.452-4.178q.942-3,1.88-6.011c.121-.379.215-.769.32-1.156q.429-1.653.857-3.306a67.225,67.225,0,0,0,1.8-8.169,27.718,27.718,0,0,0,.216-6.958,19.106,19.106,0,0,0-.693-3.355,16.874,16.874,0,0,0-1.2-2.872,27.847,27.847,0,0,0-2.715-4.03c-.273-.353-.548-.7-.821-1.053a16.121,16.121,0,0,0-2.051-2.137l-.012-.009.007,0-.1-.086-.01-.01.009.008-.033-.028.008.006a.246.246,0,0,1-.028-.028,1.871,1.871,0,0,0-1.018-.5c-.2-.171-.408-.337-.624-.493A10.763,10.763,0,0,0,166.736.692a13.427,13.427,0,0,0-6.357-.53,15.264,15.264,0,0,0-10.516,6.717,15.839,15.839,0,0,0-2.33,6.134,28.225,28.225,0,0,0-.157,6.9,75.432,75.432,0,0,0,1.442,8.551c.676,3.256,1.5,6.487,2.259,9.723.368,1.595.706,3.2,1.049,4.8.307,1.445.541,2.9.813,4.344.134.839.258,1.678.381,2.517q-.489-.447-.98-.892c.041.038.082.076.127.121-.113-.1-.224-.206-.337-.306.031.024.062.054.087.077-.106-.1-.208-.2-.313-.3-.608-.58-1.209-1.159-1.822-1.74-1.019-.965-2.029-1.971-3.138-2.839a19.028,19.028,0,0,0-2.811-1.9,22.1,22.1,0,0,0-2.793-1.245,29.3,29.3,0,0,0-4.8-2.22c-.129-.049-.258-.092-.387-.141.056.023.112.04.168.063l-.556-.2c.051.016.107.039.164.056-.36-.124-.719-.254-1.083-.385.055.023.112.04.167.063-1.3-.467-2.622-.862-3.934-1.273-1.268-.39-2.547-.752-3.837-1.056a33.678,33.678,0,0,0-4.619-.806A32.6,32.6,0,0,0,115.58,35a30.463,30.463,0,0,0-6.476,1.5,27.866,27.866,0,0,0-4.38,2.017c-.721.412-1.441.812-2.135,1.265-.679.444-1.38.872-2.037,1.35a54.873,54.873,0,0,0-4.783,3.757,25.407,25.407,0,0,0-2.12,2.209c-.165.085-.326.176-.491.262-.976.048-1.951.113-2.925.175-1.045.067-2.091.206-3.138.315-.882.093-1.757.211-2.641.316-.862.114-1.721.217-2.585.338-1.037.152-2.086.273-3.128.449.019,0,.044-.01.063-.012-1.29.217-2.584.423-3.876.652l.009,0c-.924.161-1.842.387-2.761.584-.369.078-.758.135-1.12.238-.4.112-.8.22-1.2.332A31.194,31.194,0,0,0,66.7,51.3a38.345,38.345,0,0,0-8.054,2.835c-1.65.807-3.306,1.583-4.886,2.525a50.571,50.571,0,0,0-7.18,5.163c-.813.7-1.593,1.443-2.376,2.173-.461.426-.926.846-1.373,1.292-.79.8-1.575,1.6-2.365,2.391-.529.533-1.018,1.1-1.527,1.659S37.91,70.433,37.429,71c-.7.83-1.408,1.658-2.108,2.482-1.078,1.261-2.072,2.585-3.1,3.885-.532.67-1.023,1.379-1.529,2.066-.4.54-.82,1.077-1.21,1.631-.931,1.337-1.9,2.66-2.79,4.024-.916,1.418-1.871,2.815-2.74,4.261-.877,1.461-1.781,2.905-2.619,4.38-.828,1.459-1.68,2.913-2.477,4.39s-1.631,2.935-2.377,4.434c-.537,1.065-1.066,2.126-1.6,3.191-.252.5-.516.992-.747,1.5-.456.992-.9,1.978-1.36,2.964-.311.677-.651,1.343-.933,2.026q-1.061,2.592-2.133,5.182c-.216.528-.389,1.077-.577,1.616q-.588,1.639-1.165,3.283l-.007.022c-.072.147-.15.291-.222.438a73.209,73.209,0,0,0-5.22,13.647,64.641,64.641,0,0,0-1.86,10.735c-.109,1.269-.215,2.531-.324,3.8-.059.707-.169,1.43-.181,2.141-.029,1.914-.066,3.832-.1,5.745-.01.8-.026,1.591-.041,2.379-.007.5.039,1,.057,1.5Q.175,166.2.3,169.678c.048,1.359.212,2.71.339,4.066.126,1.3.246,2.6.371,3.9.035.354.059.713.094,1.069.006.143.013.286.019.429,0-.055,0-.109,0-.163.022.688.11,1.377.176,2.061.117,1.282.228,2.564.345,3.846A92.736,92.736,0,0,0,3,194.451a87.611,87.611,0,0,0,3.9,14.037c1.133,3,2.437,5.931,3.857,8.81,1.055,2.142,2.074,4.307,3.248,6.388a78.129,78.129,0,0,0,8.174,11.819c.781.925,1.582,1.836,2.414,2.711.785.836,1.567,1.69,2.406,2.47l1.667,1.547c1.19,1.1,2.365,2.217,3.609,3.255,1.313,1.089,2.6,2.226,3.965,3.247s2.716,2.08,4.132,3.033c1.454.978,2.886,1.975,4.392,2.873.956.575,1.913,1.145,2.869,1.72.607.364,1.257.664,1.883.989.747.391,1.485.822,2.25,1.175l1.653.768c.509.331,1.027.65,1.534.977,1.156.747,2.312,1.469,3.523,2.123a66.617,66.617,0,0,0,6.229,2.954c1.8.751,3.64,1.4,5.457,2.108.742.288,1.515.51,2.263.763.958.318,1.909.64,2.867.958a49.244,49.244,0,0,0,5.783,1.512l.711.138a38.693,38.693,0,0,0,5.974.744,35.607,35.607,0,0,0,7.195-.482c1.29-.217,2.565-.51,3.844-.8.815-.183,1.627-.38,2.449-.538.86-.163,1.725-.325,2.584-.489.856-.11,1.713-.261,2.576-.321.8-.066,1.6-.128,2.414-.176l.449.269c.673.394,1.346.789,2.025,1.184a25.67,25.67,0,0,0,4.385,2.165,18.22,18.22,0,0,0,2.431.656,16.273,16.273,0,0,0,2.387,1.742,12.93,12.93,0,0,0,6.09,1.811,14.275,14.275,0,0,0,6.179-1.177,28.04,28.04,0,0,0,4.613-2.662c.731-.524,1.473-1.04,2.2-1.571.789-.573,1.56-1.179,2.368-1.724.218-.149.436-.3.653-.445.5-.148,1-.3,1.5-.439.826-.236,1.654-.453,2.492-.662.568-.142,1.14-.247,1.714-.363.816-.124,1.62-.25,2.434-.332.759-.081,1.519-.131,2.276-.17.469,0,.942-.034,1.411-.009s.928.042,1.391.066c.864.09,1.745.159,2.6.313.914.171,1.833.35,2.743.544l-.011,0c2.512.559,4.979,1.23,7.435,2.024q2.968,1.07,5.879,2.28c1.016.425,2.027.837,3.053,1.24s2.092.777,3.148,1.15c-.011-.008-.028-.011-.044-.02,1.055.373,2.133.69,3.205,1.011,1.113.324,2.224.653,3.356.909l-.017,0c1.162.255,2.314.5,3.487.7,1.052.175,2.112.308,3.169.423.882.1,1.771.16,2.661.2.725.454,1.463.886,2.219,1.287a23.476,23.476,0,0,0,4.492,1.831,25.34,25.34,0,0,0,2.667.625,15.3,15.3,0,0,0,2.478.277,14.552,14.552,0,0,0,4.517-.654,20.077,20.077,0,0,0,4.477-2.112,19.423,19.423,0,0,0,1.94-1.376c.619-.5,1.25-1,1.819-1.554.555-.54,1.1-1.082,1.659-1.622.717-.707,1.406-1.447,2.1-2.178,1.36-.566,2.71-1.193,4.016-1.865a36.846,36.846,0,0,0,4.263-2.5c1.234-.858,2.432-1.777,3.681-2.621.071-.041.144-.075.215-.114.141-.012.284-.029.425-.038.45,0,.892.012,1.341.044.609.077,1.208.175,1.809.292,1.074.244,2.136.492,3.2.788,1.087.3,2.159.653,3.236,1.006,3.243,1.186,6.472,2.443,9.736,3.58a26.893,26.893,0,0,0,8.694,1.656,30.763,30.763,0,0,0,6.487-.631,29.1,29.1,0,0,0,16.4-9.828,62.478,62.478,0,0,0,4.457-5.817c.493-.715.942-1.455,1.4-2.188.9-1.433,1.824-2.849,2.657-4.325.858-1.519,1.762-3.023,2.549-4.58.553-1.087,1.1-2.174,1.652-3.261.251-.485.512-.968.735-1.464.79-1.785,1.578-3.563,2.363-5.349.286-.64.519-1.315.771-1.967q.641-1.631,1.272-3.25c.582-1.483,1.134-2.972,1.687-4.46q1.717-4.587,3.474-9.157c.63-1.641,1.267-3.287,1.886-4.931.669-1.777,1.377-3.542,2-5.341q1-2.883,2-5.779c.516-1.483.96-3,1.431-4.5.446-1.406.9-2.813,1.305-4.227q.9-3.119,1.8-6.226c.475-1.647.85-3.332,1.273-4.989.184-.732.368-1.464.557-2.189.163-.653.264-1.329.4-1.981q.376-1.942.764-3.877c.1-.514.237-1.034.3-1.554q.389-3.165.789-6.326c.181-1.428.236-2.857.311-4.294q.108-1.859.2-3.709c.024-.4.051-.788.05-1.184Q326.436,151.938,326.434,148.632ZM174.344,27.4c.266-1.185.5-2.369.686-3.568.194-1.216.366-2.443.486-3.679q-.02.519-.056,1.033l0,0a.029.029,0,0,1,0,.016c0,.049-.009.1-.014.152,0-.013,0-.027,0-.04a43.25,43.25,0,0,1-.824,5.238c-.313,1.427-.677,2.838-1.04,4.249Q173.961,29.1,174.344,27.4ZM317.086,155.522c-.246,2.754-.446,5.516-.769,8.261-.125,1.079-.257,2.164-.384,3.248-.07.611-.119,1.231-.213,1.843-.248,1.619-.5,3.244-.746,4.863-.395,2.593-.883,5.174-1.371,7.748q-.86,4.476-1.754,8.951c.008-.041.023-.085.031-.126-.469,2.14-.909,4.281-1.446,6.4-.3,1.194-.564,2.41-.912,3.59q-.592,1.982-1.17,3.959c-.312,1.049-.673,2.077-1.018,3.114-.318.958-.643,1.92-.972,2.876q-1.1,3.15-2.2,6.3l-.006.015,0,.009v0l-.012.03-.025.069,0-.014q-.639,1.72-1.279,3.441c-.324.867-.692,1.713-1.043,2.563s-.7,1.729-1.1,2.569c-.517,1.087-1.039,2.173-1.555,3.255-1.481,2.843-2.951,5.69-4.482,8.511q-1.3,2.394-2.638,4.755c-.7,1.257-1.486,2.466-2.282,3.666-.964,1.379-1.958,2.734-3,4.061-.9,1.145-1.863,2.242-2.808,3.342-.992,1.062-1.975,2.112-3.062,3.077a18.165,18.165,0,0,1-1.482,1.086c-.967.562-1.967,1.046-2.976,1.516-1.526.664-3.05,1.316-4.63,1.826-.673.187-1.343.333-2.022.465-.581.086-1.167.2-1.752.248-.615.048-1.23.1-1.848.157-.38.011-.759.015-1.143.019-.307.006-.624.034-.927.018-.724-.039-1.45-.071-2.174-.11l.182.017c-1.407-.135-2.817-.258-4.23-.4-1.13-.111-2.271-.224-3.409-.265l-2.537-.1c-.56-.019-1.115,0-1.673,0-1.358.012-2.707.068-4.063.135-1.194.062-2.391.172-3.574.332a27.885,27.885,0,0,0-4.243.809,10.6,10.6,0,0,0-1.169,0c-.826.056-1.668.127-2.488.243a12.907,12.907,0,0,0-2.483.526c-.7.255-1.37.568-2.043.882a14.542,14.542,0,0,0-4.125,2.745c-.687.664-1.356,1.332-2.033,2-.866.856-1.7,1.746-2.533,2.632-.6.233-1.2.473-1.812.67l-2.031.667c-1.415.4-2.83.8-4.268,1.128q-2.28.529-4.573,1a1.09,1.09,0,0,1,.124-.018c-.749.119-1.487.245-2.233.377-.608.1-1.224.158-1.837.225-1.2.133-2.408.2-3.622.275-.916.011-1.829.015-2.747,0-.432-.264-.861-.531-1.285-.81-1.458-1.05-2.908-2.111-4.33-3.221-1.35-1.047-2.7-2.088-4.065-3.1-.718-.535-1.484-1.008-2.228-1.5a19.144,19.144,0,0,0-1.729-1.013,26.838,26.838,0,0,0-2.538-1.2c-.77-.3-1.534-.627-2.319-.875s-1.54-.533-2.321-.744c-.855-.233-1.7-.493-2.566-.69-.918-.214-1.837-.423-2.754-.642-1.623-.387-3.276-.678-4.923-.937-1.3-.21-2.585-.405-3.895-.516a33.51,33.51,0,0,0-6.762.014,29.785,29.785,0,0,0-6.224,1.378,34.276,34.276,0,0,0-6.5,3.028c-1.289.776-2.539,1.62-3.77,2.487-1.166.347-2.331.695-3.5,1.033-1.508.446-3.034.894-4.571,1.243-.8.181-1.588.394-2.385.545s-1.576.3-2.366.447c-.6.088-1.2.176-1.809.261-.986.139-1.988.232-3,.276-.709.006-1.415,0-2.122-.039-.229-.02-.453-.05-.678-.078-.431-.364-.86-.731-1.306-1.081a26.108,26.108,0,0,0-3.493-2.465,8.617,8.617,0,0,0-2.646-.981,14.071,14.071,0,0,0-2.825-.188c-.085,0-.169.011-.253.013l-.4-.235c-1.046-.611-2.076-1.267-3.158-1.813a19.581,19.581,0,0,0-2.525-1.143,14.024,14.024,0,0,0-2.945-.679,15.72,15.72,0,0,0-3.568.117c-.852.093-1.707.2-2.561.307-1.661.2-3.34.4-5.018.48l-1.511.059c-1.422.015-2.846-.008-4.27-.041a1.5,1.5,0,0,0-1.209-1.157c-.809-.146-1.618-.294-2.424-.459a71.889,71.889,0,0,1-8.48-2.292c-1.9-.685-3.743-1.488-5.566-2.357-1.08-.522-2.167-1.039-3.242-1.559-.8-.478-1.637-.9-2.456-1.346l-1.652-.914c-.212-.114-.443-.224-.646-.353-1.508-.964-3.033-1.9-4.536-2.863-1.15-.793-2.28-1.628-3.433-2.438-.9-.63-1.745-1.329-2.616-2.007s-1.739-1.357-2.585-2.073c-1.06-.9-2.113-1.813-3.181-2.71-1.045-.983-2.113-1.94-3.178-2.908-.877-.8-1.7-1.661-2.544-2.5-.789-.789-1.58-1.566-2.324-2.4q-1.455-1.632-2.921-3.248a76.543,76.543,0,0,1-5.37-7.256c-1.282-2.018-2.375-4.144-3.584-6.2-.143-.25-.251-.529-.369-.785-.308-.642-.608-1.288-.916-1.929-.4-.852-.8-1.7-1.2-2.548-.693-1.868-1.458-3.708-2.152-5.576-.016-.059-.034-.114-.055-.173-.028-.091-.059-.186-.09-.281.017.063.041.128.058.191q-.187-.6-.377-1.207c.011.033.024.059.035.1-.292-.938-.58-1.864-.873-2.8,0,.007.008.02.013.027-.106-.323-.206-.645-.307-.968-.006-.025-.012-.051-.018-.079l-.025-.059c0,.008.008.02.013.027-.025-.089-.055-.178-.086-.269a.954.954,0,0,0-.037-.115c-.006-.031-.018-.063-.024-.094-.064-.228-.119-.468-.183-.7-.175-.675-.35-1.351-.523-2.033-.266-1.011-.556-2.021-.79-3.044s-.442-2.077-.667-3.116c-.18-.863-.391-1.725-.552-2.6-.3-1.8-.6-3.6-.927-5.393l.036.187c-.2-1.442-.376-2.886-.564-4.332-.157-1.26-.247-2.531-.367-3.8-.225-2.4-.359-4.8-.549-7.19-.069-1.993-.147-3.975-.216-5.969-.056-1.594-.023-3.189-.014-4.783.006-1.546-.006-3.09.078-4.639.108-1.977.2-3.957.306-5.933.128-1.127.258-2.26.387-3.386.088-.763.174-1.52.268-2.281.035-.305.048-.621.107-.921q.555-3.1,1.107-6.2c.441-1.84.87-3.682,1.306-5.528.36-1.514.84-3,1.279-4.491q.389-1.309.779-2.626c.147-.506.343-1,.517-1.489q.926-2.637,1.844-5.269,1.258-3.192,2.523-6.36c.105-.262.239-.518.355-.777.292-.64.583-1.273.875-1.912.46-1.014.933-2.026,1.387-3.042l-.085.164c.152-.3.306-.59.459-.886.374-.554.754-1.1,1.124-1.653q.969-1.467,1.947-2.921c1.041-1.411,2.092-2.81,3.145-4.219.853-1.148,1.77-2.26,2.666-3.381.878-1.095,1.747-2.2,2.673-3.267,1.191-1.382,2.384-2.77,3.588-4.15-.038.04-.077.087-.121.126,1.184-1.281,2.369-2.563,3.62-3.784s2.532-2.388,3.862-3.522l-.131.119a66.089,66.089,0,0,1,5.45-4.1c.688-.425,1.378-.861,2.072-1.284.634-.393,1.253-.831,1.9-1.185,1.633-.887,3.257-1.787,4.929-2.579A54.492,54.492,0,0,1,65.758,62.7c1.154-.322,2.3-.669,3.469-.94s2.356-.551,3.54-.808c1.265-.276,2.523-.578,3.789-.824,1.309-.256,2.611-.507,3.916-.77,2.048-.308,4.1-.605,6.167-.757-.867,1.738-1.718,3.484-2.514,5.252-.355.531-.716,1.061-1.071,1.592s-.653,1.079-.979,1.616c-.568.951-1.142,1.9-1.711,2.853-.843,1.408-1.592,2.888-2.3,4.37a68.741,68.741,0,0,0-2.712,6.588c-.83,2.334-1.535,4.7-2.162,7.1-.217.84-.4,1.693-.595,2.542-.359,1.6-.742,3.209-1.026,4.828q-.274,1.548-.547,3.1c-.134.754-.228,1.515-.333,2.274-.3,2.047-.588,4.115-.749,6.183a5.942,5.942,0,0,0,0,1.565,3.141,3.141,0,0,0,.476,1.1,1.364,1.364,0,0,0,.914.639,1.231,1.231,0,0,0,1.241-.461,8.709,8.709,0,0,0,.569-.771,7.086,7.086,0,0,0,.422-.872,15.724,15.724,0,0,0,.514-1.754c.348-1.3.644-2.61.9-3.934.218-1.127.431-2.255.65-3.383l1.027-5.3c.352-1.5.693-3.014,1.039-4.519.275-1.206.661-2.391,1-3.578.315-1.1.629-2.187,1-3.267.467-1.385.945-2.768,1.412-4.158.032-.072.059-.151.093-.229,1.19-3.1,2.37-6.222,3.728-9.264.74-1.649,1.474-3.3,2.241-4.933.062-.138.124-.27.185-.4.187-.282.373-.557.559-.839-.026.042-.059.09-.086.133,1.077-1.405,2.081-2.872,3.208-4.23.031-.037.06-.074.09-.111q1.446-.078,2.892-.152a1.044,1.044,0,0,0,.482-.155c-.206.263-.427.514-.626.783-.994,1.349-1.9,2.774-2.835,4.164-.354.525-.656,1.091-.977,1.634q-.853,1.428-1.7,2.855c-.84,1.427-1.6,2.892-2.408,4.344-1.666,3.024-3.215,6.125-4.68,9.253a1.27,1.27,0,0,0,.657,1.657,1.412,1.412,0,0,0,.254.079,1.287,1.287,0,0,0,1.4-.741c.483-1.01.983-2.01,1.477-3.007-.022.05-.05.1-.071.148.213-.42.433-.839.646-1.259,1.534-2.96,3.165-5.865,4.785-8.777.368-.655.771-1.284,1.159-1.923.526-.887,1.064-1.773,1.6-2.66.329-.553.718-1.072,1.078-1.6.464-.683.938-1.364,1.4-2.049.842-1.13,1.717-2.243,2.664-3.294s1.979-2.009,3-2.987c.61-.583,1.273-1.121,1.908-1.675.361-.284.71-.57,1.067-.861.339-.265.659-.556,1.008-.807.766-.547,1.531-1.088,2.292-1.642-.007.005-.013,0-.02.008a.113.113,0,0,1,.027-.013.006.006,0,0,1,.007,0c.041-.029.082-.056.124-.084a.206.206,0,0,0-.043.034c.767-.488,1.532-.969,2.3-1.451l-.006,0a.633.633,0,0,1,.061-.039l.069-.046.014-.01h0a.378.378,0,0,1,.04-.022,39.27,39.27,0,0,1,3.661-1.929h0A44.784,44.784,0,0,1,119.4,44h0a51.37,51.37,0,0,1,5.908-1.436l-.016,0c.959-.161,1.924-.279,2.891-.374.8.188,1.592.386,2.377.618,1.294.377,2.568.8,3.838,1.242a40.294,40.294,0,0,1,4.261,1.8A49.482,49.482,0,0,1,143.7,48.9h0l.007,0,.02.014-.01-.008a.363.363,0,0,1,.047.033c.014.011.031.022.048.034l-.006,0a46.517,46.517,0,0,1,3.845,3.05,27.525,27.525,0,0,1,1.991,1.993c.595.733,1.192,1.461,1.774,2.2.282.367.565.734.855,1.1a5.608,5.608,0,0,0,1.055,1.146,1.313,1.313,0,0,0,1.173.176c.095.6.2,1.2.325,1.79a7.253,7.253,0,0,0,1.372,3.42c-.176.31-.358.616-.521.934a35,35,0,0,0-2.509,6.285c-.34,1.164-.64,2.341-.888,3.529-.144.71-.307,1.422-.4,2.141-.222,1.642-.5,3.279-.639,4.932-.13,1.691-.294,3.374-.353,5.067-.041,1.077-.076,2.156-.116,3.228-.024.679-.006,1.36,0,2.038,0,.775-.014,1.557.009,2.335q.05,1.5.1,3.007c.056,1.57.159,3.137.256,4.71.116,1.846.225,3.7.45,5.533a1.307,1.307,0,0,0,1.03,1.124l.058.011a1.286,1.286,0,0,0,1.377-.759,5.873,5.873,0,0,0,.348-1.6,2.25,2.25,0,0,0,.915.518,2.456,2.456,0,0,0,.279.078,1.379,1.379,0,0,0,.925-.133,1.342,1.342,0,0,0,.658-.826c.045-.171.1-.341.148-.511a12.643,12.643,0,0,0,.405-1.721c.071-.52.13-1.042.165-1.563.054-.77.1-1.546.137-2.313.035-.953.076-1.905.116-2.856.061-1.518.126-3.029.2-4.545.067-1.583.1-3.166.231-4.747.024-.308.047-.615.077-.922q.441-1.992.891-3.977c.244-1.1.526-2.184.808-3.269.285-1.126.558-2.255.887-3.367.363-1.241.73-2.472,1.1-3.712.406-.837.814-1.674,1.235-2.5l0,.008c.908-1.774,1.831-3.538,2.825-5.259,1.027-1.768,2.1-3.5,3.18-5.231.41-.658.835-1.308,1.253-1.961.158-.176.32-.35.479-.525.147-.04.3-.076.441-.117a1.236,1.236,0,0,0,.911-1.255c.244-.23.49-.46.728-.693.377-.3.756-.621,1.129-.933.35-.291.736-.547,1.111-.81a1.166,1.166,0,0,0-.619-2.1l.026-.039q1.071-.816,2.2-1.554a32.189,32.189,0,0,1,7.6-3.506l-.022.005.12-.037h0a43.42,43.42,0,0,1,5.054-1.191c.973-.159,1.947-.264,2.924-.387,1.384-.175,2.763-.3,4.155-.357-.062.006-.122.006-.183.012a44.6,44.6,0,0,1,5.285.12,43,43,0,0,1,4.589.7q2.017.436,3.99,1.054c.886.278,1.781.541,2.662.847l-.023-.012c.019.009.039.016.059.024h0c.032.012.065.024.1.037l.017,0a44.67,44.67,0,0,1,4.821,2.08c.228.121.448.255.675.378-.239.285-.477.57-.709.86-.553.69-1.128,1.364-1.639,2.081-.534.742-1.1,1.466-1.6,2.227-.957,1.47-1.885,2.946-2.781,4.446-.984,1.638-1.881,3.324-2.723,5.038a1.93,1.93,0,0,0,3.434,1.745c1.676-3.075,3.554-6.046,5.489-8.97.571-.777,1.1-1.58,1.7-2.321.807-1.005,1.609-2.02,2.455-2.987.34.211.68.423,1.016.641-.2.289-.411.571-.606.863-.133.19-.261.387-.388.578-.438.557-.866,1.122-1.278,1.7a39.355,39.355,0,0,0-3.5,5.912c-.614,1.279-1.168,2.587-1.694,3.906-.306.775-.636,1.551-.915,2.336l.007-.035c-.018.063-.041.119-.058.175a5.228,5.228,0,0,0-.25.7c-.032.074-.058.15-.083.219l.007-.013c-.01.023-.015.046-.025.068a.333.333,0,0,0-.027.079l0-.023c0,.017-.013.038-.017.056-.109.254-.217.5-.327.758-.144.344-.288.682-.427,1.027-.156.4-.318.808-.44,1.217a11.929,11.929,0,0,0-.279,1.193,1.23,1.23,0,0,0,2.347.671,26.059,26.059,0,0,0,.929-2.561c0,.018-.013.034-.016.051l.041-.118a.094.094,0,0,1,.006-.024l0,.007c.218-.6.425-1.2.643-1.8.135-.328.271-.656.423-.974.536-1.155,1.067-2.318,1.6-3.474-.028.049-.048.093-.076.142.782-1.5,1.521-3.016,2.277-4.531-.022.05-.05.1-.07.142.161-.3.351-.6.522-.9.36-.614.717-1.222,1.071-1.838.288-.5.583-1,.871-1.492.1-.173.2-.34.3-.511.551-.709,1.125-1.408,1.728-2.077l-.016.021a31.863,31.863,0,0,1,2.711-2.629A29.622,29.622,0,0,1,231.217,49a23.727,23.727,0,0,1,2.179-1.215A20.006,20.006,0,0,1,235.443,47h-.006c.681-.205,1.366-.366,2.058-.5a25.267,25.267,0,0,1,2.566-.27c-.037,0-.073,0-.1.01a32.279,32.279,0,0,1,3.73.1c.574.07,1.15.133,1.724.2.452.051.909.074,1.354.161,1.072.2,2.161.364,3.242.574,1.4.332,2.81.635,4.2,1.03.733.208,1.47.4,2.192.636.785.248,1.562.513,2.343.754.723.26,1.443.507,2.158.748l-.006,0,.108.036a.053.053,0,0,1,.015,0l0,0c2.015.715,4.057,1.351,6.111,1.953q3.213.93,6.484,1.642c1.927.457,3.864.888,5.738,1.527.253.085.506.176.752.266-.05-.022-.1-.038-.15-.059.269.094.544.2.819.291.593.252,1.208.449,1.8.72s1.216.566,1.826.852l.02.011c.11.1.22.2.329.309.482.453.993.882,1.452,1.361.947.994,1.892,2,2.843,3-.034-.043-.067-.086-.1-.128.083.1.166.194.243.293l-.147-.172c.225.265.454.538.684.8-.049-.057-.1-.116-.152-.173.21.245.421.489.625.733-.024-.029-.053-.065-.078-.093.3.358.605.717.909,1.07l-.078-.086c.178.206.357.416.533.626l0,0,.009.01.093.111-.015-.016c.458.551.87,1.137,1.3,1.706.564.745,1.121,1.488,1.684,2.234.445.583.835,1.229,1.25,1.844.447.662.9,1.332,1.353,2,.851,1.365,1.727,2.723,2.544,4.1.9,1.524,1.844,3.022,2.7,4.567.539.968,1.069,1.941,1.608,2.909.331.61.689,1.208,1,1.826Q306.233,89,307.449,91.5c.4.99.815,1.982,1.222,2.979l.794,1.935c.082.2.181.395.249.6q.977,2.943,1.955,5.88.687,2.625,1.39,5.235c.368,1.38.657,2.767.968,4.16s.632,2.773.894,4.173c.335,1.739.658,3.475.991,5.219.164,1.105.326,2.217.483,3.327.109.735.217,1.475.321,2.21.042.278.095.558.12.832.2,2.121.39,4.239.579,6.357q.1,3.025.193,6.053c.051,1.624-.025,3.253-.057,4.872-.025,1.489-.048,2.966-.136,4.442q-.171,2.971-.35,5.948C317.073,155.652,317.079,155.587,317.086,155.522ZM54.485,256.478c-.9-.661-1.8-1.328-2.7-1.988-.813-.6-1.577-1.272-2.365-1.91-1.517-1.236-3.009-2.515-4.477-3.82-1.4-1.279-2.807-2.565-4.229-3.831q-1.072-1.017-2.126-2.032c-.6-.572-1.233-1.127-1.8-1.73q-2.056-2.153-4.094-4.315c-1.411-1.509-2.81-3.016-4.2-4.545q-1.851-2.05-3.633-4.154a95.811,95.811,0,0,1-7.3-9.694l.01.014c-.189-.294-.378-.589-.565-.889.031.054.068.109.1.163-.225-.356-.45-.711-.676-1.061l.023.035c-.147-.233-.3-.459-.442-.691.038.054.069.109.106.164-.931-1.537-1.872-3.057-2.775-4.617-.818-1.412-1.538-2.86-2.25-4.324-.474-1.081-.937-2.16-1.359-3.262-.4-1.019-.722-2.06-1.061-3.1.019.058.037.121.05.178-.309-1.1-.655-2.191-.927-3.293q-.492-2.057-1-4.1c-.257-1.058-.47-2.125-.7-3.19-.261-1.19-.518-2.373-.78-3.558-.235-1.413-.476-2.833-.706-4.245-.159-.913-.311-1.83-.464-2.741-.057-.354-.142-.718-.176-1.073q-.278-2.874-.552-5.74c-.027-.609-.05-1.217-.078-1.825-.006-.338.01-.67.008-1,0-.845,0-1.684,0-2.53.005-1.325.009-2.643.014-3.968,0-.389.038-.785.06-1.176.04-.856.086-1.711.126-2.567.064-1.223.126-2.441.189-3.664.186-1.853.372-3.713.558-5.566.053-.523.083-1.046.164-1.558q.2-1.372.416-2.732c.23-1.527.432-3.059.731-4.573.37-1.844.732-3.683,1.1-5.521a.448.448,0,0,1-.02.074,1.152,1.152,0,0,0,.031-.132q.6-2.492,1.2-5c.311-1.3.688-2.56,1.063-3.843.264-.909.525-1.822.8-2.73q.837-1.757,1.711-3.5l0,.018q.638-1.207,1.278-2.413h0c-.077.213-.153.42-.219.635q-.6,2.025-1.2,4.044c-.257.862-.544,1.724-.755,2.595l-1.064,4.466c-.191.8-.387,1.592-.531,2.4-.277,1.548-.557,3.089-.834,4.637-.068.353-.15.715-.195,1.072-.05.41-.094.821-.143,1.232-.188,1.583-.374,3.16-.555,4.745-.09.774-.133,1.552-.171,2.336-.126,2.351-.3,4.7-.314,7.059s-.077,4.729,0,7.091c.08,2.4.117,4.8.29,7.193.184,2.543.37,5.081.6,7.61.1,1.02.186,2.039.313,3.054.114.867.228,1.735.335,2.6.057.419.1.84.172,1.251l-.036-.187c.274,1.679.567,3.355.854,5.03.25,1.464.6,2.917.91,4.369.13.625.24,1.265.395,1.888s.32,1.226.477,1.838c.385,1.5.72,3,1.176,4.476.03.089.06.177.088.268a.283.283,0,0,0-.022-.046c.025.059.044.116.063.174l0,.011c.028.078.054.155.075.237a1.174,1.174,0,0,0-.046-.135c.07.224.14.453.21.676-.017-.063-.036-.12-.054-.184.048.155.1.316.148.476,0-.013-.01-.028-.016-.042.067.211.134.422.2.626l-.007-.025.214.688-.022-.076q.131.42.259.84l-.009-.027c.061.2.124.4.191.6l-.01-.018c.013.027.019.058.031.091a.626.626,0,0,1,.026.09c.038.119.076.238.109.355a.311.311,0,0,0-.023-.064c.029.086.058.172.081.262h0l0,.012v0a.192.192,0,0,1,.011.037c.015.045.03.1.044.146v0c.024.076.047.151.07.226s.044.146.066.216c-.018-.063-.035-.126-.053-.19.025.089.051.172.076.261-.018-.063-.036-.127-.053-.191.082.286.2.561.3.839.238.628.482,1.258.725,1.887.395,1.03.776,2.064,1.184,3.084.1.247.223.488.338.732.255.541.511,1.076.76,1.617q.75,1.6,1.508,3.2c.1.2.216.4.322.6.335.593.664,1.184,1,1.771.494.888.964,1.8,1.493,2.665a70.235,70.235,0,0,0,7.451,10.1c.928,1.032,1.848,2.074,2.782,3.1.257.284.543.542.813.817.573.573,1.145,1.146,1.717,1.725.663.662,1.323,1.312,2.015,1.95.967.89,1.943,1.763,2.9,2.667.364.347.766.658,1.146.984.618.528,1.236,1.05,1.854,1.578.715.612,1.434,1.2,2.173,1.783.681.539,1.363,1.074,2.044,1.614.261.2.512.423.781.613,1.145.81,2.282,1.625,3.427,2.434.753.536,1.527,1.034,2.317,1.535.737.467,1.481.93,2.225,1.4.309.2.609.413.929.589,1.972,1.09,3.929,2.226,5.96,3.2,1.247.59,2.49,1.173,3.728,1.779.752.362,1.55.667,2.325.972.549.218,1.1.421,1.65.621-.381-.059-.761-.118-1.138-.194q-1.439-.287-2.866-.591c-.49-.137-.986-.27-1.482-.4s-1.04-.238-1.534-.412c-1-.344-2.009-.683-3.015-1.029-.629-.254-1.253-.5-1.875-.754-.473-.193-.957-.359-1.419-.574-.367-.169-.737-.336-1.105-.506C55.068,256.853,54.777,256.663,54.485,256.478Zm53.16-213.535c.833-.246,1.659-.542,2.5-.744,1.158-.28,2.307-.572,3.476-.784a40.361,40.361,0,0,1,4.128-.441q1.091-.038,2.181-.018a46.633,46.633,0,0,0-5.814,1.985c-1.092.467-2.172.965-3.222,1.523-.807.419-1.617.85-2.383,1.337.014-.01.027-.013.041-.022-.811.522-1.632,1.036-2.435,1.548-.231.143-.452.315-.675.476-.419.3-.836.6-1.256.908s-.838.641-1.251.972a1.175,1.175,0,0,0,.209-.4,1.22,1.22,0,0,0-.832-1.493,17.834,17.834,0,0,0-3.8-.447c.524-.313,1.052-.622,1.587-.914,1.141-.625,2.286-1.212,3.445-1.8l1-.447c.354-.154.707-.337,1.069-.471.73-.267,1.467-.543,2.2-.81C107.753,42.911,107.7,42.93,107.645,42.943Zm53.923-5.82-.321.2c.033-1.038.065-2.069.1-3.107a13.424,13.424,0,0,0,1.266-2.225c.191-.431.366-.871.524-1.314-.009.1-.017.2-.026.3-.156,1.691-.389,3.377-.706,5.047q-.063.3-.127.591C162.046,36.794,161.812,36.963,161.568,37.123ZM156.1,69.908c-.008.011-.012.028-.02.038.014-.039.034-.083.048-.122l0-.012a36.491,36.491,0,0,1,1.641-3.836c.2-.383.408-.758.622-1.131a3.865,3.865,0,0,0,1.513-.265c.095.067.193.127.293.184-.127.336-.251.673-.355,1.013-.313,1.026-.619,2.051-.932,3.076-.169.562-.368,1.123-.5,1.7-.224,1-.443,2-.668,3.008-.116.536-.232,1.077-.354,1.611-.053.242-.124.486-.159.725-.132.894-.27,1.787-.406,2.681-.726,1.785-1.422,3.582-2.009,5.42a31.9,31.9,0,0,0-.956,3.474c-.136.669-.267,1.346-.368,2.022-.078.555-.16,1.1-.238,1.657q0-.6.018-1.2c.034-.917.062-1.835.09-2.754.02-.506.018-1.022.057-1.53.113-1.448.218-2.891.332-4.339.119-.924.245-1.854.37-2.777l.189-1.439c.111-.818.292-1.628.46-2.43l-.022.11A43.923,43.923,0,0,1,156.1,69.908Zm6.567-20.766c.31-1.692.637-3.379.964-5.067.051-.264.108-.526.16-.79,0,.024,0,.047.007.07.066.553.159,1.1.238,1.648a1.7,1.7,0,0,0,1.084,1.379c-.44,1.008-.893,2.011-1.39,3q-.617,1.2-1.326,2.361l-.211.121C162.339,50.952,162.5,50.046,162.665,49.142Zm1.876,5.719c-.186.128-.366.264-.548.4-.133-.017-.267-.029-.4-.048.163-.2.314-.4.466-.61.33-.19.662-.378.993-.567C164.889,54.313,164.711,54.584,164.541,54.861Zm2.79-16.962.016-.081a1.052,1.052,0,0,1-.033.137l-.014.076.01-.052c-.06.276-.132.556-.2.83.006-.281.006-.556.011-.831.065-.15.124-.3.178-.452.08-.2.151-.409.227-.615C167.465,37.241,167.4,37.57,167.331,37.9Zm-9.343,21.127c-.071-.434-.126-.87-.192-1.305.041.009.082.02.124.025C157.94,58.172,157.955,58.6,157.988,59.026Zm2.429-1.492c0,.041.007.082.008.123-.008-.212-.013-.429-.017-.644.35.108.7.207,1.059.293-.342.31-.678.627-1,.954C160.447,58.018,160.428,57.777,160.417,57.534Zm-6.506-3.341q.084.686.166,1.37-.269-.341-.539-.677A1.274,1.274,0,0,0,153.911,54.193Zm-16.3-11.583c.078.015.157.026.236.042a24.884,24.884,0,0,1,2.439.684c.72.422,1.43.863,2.129,1.329.747.538,1.472,1.1,2.163,1.712.105.1.2.2.306.3a41.958,41.958,0,0,0-4.059-2.533C139.779,43.579,138.705,43.078,137.614,42.61ZM93.762,55.785l-.53.027c.556-.631,1.12-1.257,1.673-1.89a.122.122,0,0,1,.03-.03.493.493,0,0,0-.054.061c.467-.521.939-1.035,1.405-1.551-.006,0-.007,0-.014.009.687-.76,1.353-1.53,2-2.329a1.07,1.07,0,0,0,.152-.3c.417.014.836.017,1.254.037.541.052,1.073.118,1.612.211.121.023.245.054.357.087a1.257,1.257,0,0,0,.865-.092c-.518.419-1.037.838-1.544,1.28-.515.459-1.057.905-1.558,1.384-.577.566-1.154,1.126-1.742,1.683-.648.618-1.249,1.306-1.83,1.984-.285.332-.544.684-.818,1.023a1.193,1.193,0,0,0,.071-.522A1.224,1.224,0,0,0,93.762,55.785Zm.789-5.015c-.037.035-.068.071-.106.112l-.01.011c.012-.015.024-.028.034-.042-.3.332-.6.657-.905.988.262-.394.518-.788.786-1.179.229-.315.465-.621.706-.924.123,0,.246,0,.37,0-.3.347-.589.7-.89,1.047A.038.038,0,0,1,94.551,50.77ZM78.737,52.7c2.593-.193,5.211-.363,7.784-.793,1.44-.245,2.876-.514,4.281-.894-.041.067-.086.129-.127.2-.842,1.408-1.7,2.819-2.461,4.279-.105.2-.2.41-.31.614-.523.036-1.047.075-1.569.124-2.3.213-4.609.443-6.883.884-1.745.333-3.489.667-5.228,1.037-1.858.4-3.72.808-5.571,1.229-.841.191-1.66.428-2.489.651a40.181,40.181,0,0,0-4.077,1.32,44.2,44.2,0,0,0-4.738,2.1c-1,.532-2,1.057-3.006,1.583-.583.313-1.141.654-1.7,1l-2.758,1.7a46.071,46.071,0,0,0-4.5,3.217c-1.71,1.365-3.379,2.793-4.952,4.318-1.448,1.4-2.886,2.847-4.212,4.365-.529.611-1.062,1.222-1.592,1.834.307-.454.612-.909.919-1.363,1.267-1.739,2.581-3.44,3.841-5.174.189-.264.422-.507.626-.755.459-.541.919-1.088,1.372-1.629.659-.772,1.32-1.55,1.964-2.331a73.953,73.953,0,0,1,6.219-6.087,54.971,54.971,0,0,1,4.785-3.582c1.149-.725,2.324-1.4,3.461-2.131.177-.109.374-.2.56-.293.4-.2.8-.409,1.2-.619.565-.286,1.114-.581,1.68-.867.582-.247,1.158-.5,1.734-.744.542-.23,1.085-.491,1.635-.7,1.154-.442,2.343-.823,3.51-1.239.661-.176,1.319-.372,1.977-.564C72.968,53,75.862,52.908,78.737,52.7ZM229.89,45.4c1.258-.266,2.5-.594,3.746-.911q2.025-.516,4.04-1.04c1.155-.292,2.311-.6,3.469-.875.617-.15,1.236-.312,1.853-.432s1.241-.239,1.853-.366l.646-.076c1.412.02,2.824.086,4.242.16,1.235.066,2.468.2,3.7.292,1.027.116,2.061.227,3.087.348.557.06,1.111.142,1.665.222.284.081.567.166.849.247,1,.279,1.985.619,2.974.937.709.27,1.421.528,2.125.8.609.226,1.2.5,1.791.75.576.249,1.147.491,1.7.768.761.376,1.521.757,2.287,1.133-.072-.032-.137-.068-.208-.1q1.166.667,2.334,1.323c.573.327,1.121.685,1.676,1.038,1.337.841,2.64,1.73,3.952,2.6l-.191-.127c.255.175.5.36.752.547-.846-.241-1.7-.464-2.553-.68-1.469-.375-2.969-.654-4.434-1.046-1.59-.428-3.172-.873-4.746-1.352-1.6-.478-3.179-1.019-4.767-1.555.056.023.106.038.156.06-.8-.286-1.6-.562-2.405-.838-.523-.179-1.06-.344-1.586-.512-.406-.132-.811-.271-1.225-.393-1.064-.3-2.127-.629-3.205-.886-1.108-.257-2.214-.555-3.338-.761-.736-.131-1.472-.262-2.21-.387-.371-.066-.741-.138-1.116-.18-.927-.109-1.849-.209-2.776-.317a25.82,25.82,0,0,0-3.47-.139,23.624,23.624,0,0,0-3.155.276,18.538,18.538,0,0,0-6.08,2.06c-.368.2-.727.41-1.081.629a1.263,1.263,0,0,0-.87,0,8.705,8.705,0,0,0-3.4,2.49c-.179.2-.335.413-.507.617-.237-.16-.479-.311-.719-.466.5-.485,1.014-.963,1.547-1.421.789-.639,1.595-1.238,2.442-1.8.347-.218.7-.415,1.059-.615Zm-8.062.877c-.256.249-.512.5-.761.755-.319-.173-.64-.342-.959-.515-.375-.207-.765-.389-1.15-.58C219.906,46.1,220.865,46.22,221.828,46.281Zm-40.313-4.343c.236-.26.481-.5.737-.738.128-.1.254-.2.386-.291a.935.935,0,0,1,.107-.057,1.429,1.429,0,0,1,.154.011l-.035-.006a12.656,12.656,0,0,0,1.638.089,9.13,9.13,0,0,0,1.267-.12c2.014-.351,3.975-.954,5.989-1.321.612-.1,1.224-.165,1.839-.214-.446.057-.891.121-1.333.206-.8.15-1.614.281-2.4.476-1.658.416-3.312.839-4.939,1.375-1.376.453-2.746.92-4.1,1.438C181.057,42.5,181.276,42.209,181.515,41.938ZM171.3,50.63c.121-.062.245-.117.367-.178q-.692.621-1.35,1.279l-.329.154.139-.063-.177.084h0c.117-.247.224-.5.338-.747C170.625,50.983,170.962,50.805,171.3,50.63Zm-4.09-1.609c.288-.629.562-1.264.837-1.9q.639-1.486,1.277-2.967c.195-.448.345-.911.512-1.37.393-1.1.792-2.2,1.185-3.3.143-.393.3-.783.434-1.182-.083.272-.166.544-.254.814-.431,1.362-.834,2.734-1.308,4.081l0-.021c-.672,1.889-1.4,3.75-2.2,5.582Zm5.525-15c-.094.359-.173.734-.284,1.09-.263.861-.536,1.713-.805,2.573.416-1.4.82-2.8,1.229-4.2C172.828,33.665,172.781,33.848,172.735,34.025Zm-3.568-27.87a15.086,15.086,0,0,1,.976,1.31,19.908,19.908,0,0,1,1.089,2.023c.232.54.43,1.088.614,1.643a20.1,20.1,0,0,1,.5,2.094c.124.81.2,1.616.246,2.441l0,0v.01c0,.04,0,.081,0,.122a35.287,35.287,0,0,1-.132,3.956c-.135,1.435-.338,2.857-.571,4.277-.043-1.543-.134-3.086-.306-4.618.024-.157.042-.309.06-.468.154-1.193.23-2.39.331-3.588l-.023.211a9.2,9.2,0,0,0-.017-3.1,4.018,4.018,0,0,0-.519-1.223c-.249-.383-.555-.725-.825-1.1a1.608,1.608,0,0,0-1.162-.632,16.771,16.771,0,0,0-.549-3.675C168.98,5.945,169.073,6.052,169.167,6.155Zm-8.044-2.839c.288-.034.575-.062.866-.077a13.232,13.232,0,0,1,1.334.019l.383.038c.067.025.133.056.2.086s.152.084.227.129c.147.106.293.219.432.341s.276.276.41.421.235.3.342.463c.127.21.241.424.349.643.153.354.283.7.405,1.069.13.469.249.942.34,1.427.011.068.015.136.025.2a5.781,5.781,0,0,0-1.347-.3,6.663,6.663,0,0,0-2.19.1.752.752,0,0,1-.1-.032,4.02,4.02,0,0,0-2.424-.026,3.559,3.559,0,0,0-1.591,1.3c.061-.313.122-.625.189-.941l-.02.1c.092-.415.2-.827.327-1.235.021-.059.041-.117.066-.177.117-.2.235-.4.353-.609a1.284,1.284,0,0,0-.445-1.73,1.224,1.224,0,0,0-.461-.159c.319-.179.636-.363.968-.52A13.819,13.819,0,0,1,161.123,3.316Zm-6.6,7.725c.055-.5.138-.994.234-1.485.073-.285.151-.564.236-.847.112-.3.232-.58.366-.865a10.347,10.347,0,0,1,.565-.964,8.3,8.3,0,0,1,.577-.717,10.263,10.263,0,0,1,.769-.75l.027-.02a6.16,6.16,0,0,0-.516,1.2,28.44,28.44,0,0,0-.678,3.185,58.251,58.251,0,0,0-.7,7.219c-.032.941-.017,1.886-.02,2.827,0,.339,0,.677,0,1.015l-.007-.037a.39.39,0,0,0-.016-.1c-.147-.88-.326-1.755-.435-2.646-.178-1.431-.382-2.851-.451-4.292A24.421,24.421,0,0,1,154.526,11.041ZM152.8,31.213c-.181-.767-.393-1.528-.549-2.3-.362-1.78-.78-3.553-1.1-5.342a48.517,48.517,0,0,1-.666-5.875q-.035-1.3.054-2.6a21.229,21.229,0,0,1,.339-2.334c.128-.533.283-1.054.455-1.573.124-.33.253-.652.393-.973-.036.31-.066.617-.084.925a26.337,26.337,0,0,0,.2,5.012c.108.783.2,1.576.326,2.355.134.81.28,1.616.42,2.427.014.08.029.161.049.243.01.116.033.235.054.353.017.091.029.181.046.272.129.823.305,1.643.459,2.458.122.642.239,1.276.361,1.912.327,1.653.641,3.316.986,4.966.351,1.687.682,3.383,1.044,5.073.02.1.037.194.057.291.058.439.116.877.179,1.318a19.649,19.649,0,0,0,.506,2.713c.044.141.089.282.142.412.035.222.075.447.11.669v0l.039.217,0,0c.061.366.123.726.185,1.086v0c.008.049.02.095.026.145q0,.021.006.039v0c.011.038.016.075.026.113l0-.007.006.025c0,.026.008.052.012.078l0-.022c.021.124.043.248.065.372.009.056.019.109.029.162,0,.005,0,.012,0,.018v-.006c.015.105.031.21.048.31,0-.024-.008-.055-.012-.093.026.161.054.321.081.481.1.7.183,1.405.258,2.118.095.961.226,1.928.273,2.891.056,1.132.1,2.274.156,3.4,0,.068,0,.136,0,.2q-.345-.2-.682-.413-.115-.879-.232-1.756c-.361-2.715-.884-5.4-1.388-8.091-.3-1.587-.69-3.151-1.026-4.728-.336-1.546-.72-3.09-1.1-4.628C153.157,32.752,152.982,31.986,152.8,31.213Zm1.035,22.353,0-.01,0,0ZM111.048,38.8a31.973,31.973,0,0,1,3.538-.839,29.351,29.351,0,0,1,7.358-.32,34.934,34.934,0,0,1,3.558.506c-.034-.007-.062-.019-.1-.026.839.193,1.681.363,2.5.6q.979.283,1.957.575c-.735.031-1.469.077-2.2.151a39.726,39.726,0,0,0-6.084-1.008,36.128,36.128,0,0,0-10.776.915c-1.223.3-2.427.642-3.617,1.032.237-.122.471-.254.712-.37a.134.134,0,0,0-.034.023A26.3,26.3,0,0,1,111.048,38.8ZM37.289,246.064c-.812-.667-1.624-1.34-2.43-2.006-.558-.463-1.143-.911-1.686-1.389-1.192-1.089-2.373-2.176-3.56-3.264a68.521,68.521,0,0,1-5.643-5.941h0l-.007-.008-.018-.021,0,0a76.1,76.1,0,0,1-5.526-7.522c-1.37-2.167-2.621-4.393-3.771-6.682,1.433,2.219,2.9,4.411,4.525,6.5,1.05,1.356,2.133,2.669,3.233,3.987.843,1,1.677,2.022,2.562,3,2.331,2.575,4.655,5.161,7.06,7.667,1.043,1.084,2.042,2.213,3.13,3.252q1.214,1.163,2.433,2.331c.366.352.73.713,1.109,1.061a.208.208,0,0,0-.021-.021c.013.01.026.022.039.034l0,0,.005.006.02.017-.017-.014a.329.329,0,0,0,.048.044l.416.378-.149-.11C38.458,246.933,37.847,246.527,37.289,246.064Zm66.232,20.153c-.35.04-.69.125-1.033.19-.579.109-1.159.225-1.732.336-.8.151-1.584.341-2.374.517-1.45.331-2.9.65-4.358.912-1.265.189-2.526.324-3.794.393a38.047,38.047,0,0,1-4.2-.133,49.925,49.925,0,0,1-5.069-.827q-3.034-.688-5.963-1.666c-1.238-.421-2.486-.825-3.719-1.238l-.052-.02c.824.138,1.661.21,2.493.308,1.559.188,3.125.312,4.691.43,1.638.12,3.273.2,4.918.252,1.491.055,2.985.09,4.475.031,1.892-.072,3.78-.208,5.665-.421,1.742-.2,3.483-.482,5.236-.586l0,0c.433-.013.856,0,1.291.028.292.028.583.06.865.115.48.117.947.25,1.415.4.677.257,1.328.555,1.975.877C104,266.15,103.761,266.187,103.521,266.217Zm26.618,6.723c-.494.132-.983.241-1.487.336-.334.049-.664.081-.992.1a13.365,13.365,0,0,1-1.47-.027,10.091,10.091,0,0,1-1.028-.146l-.016,0c.274-.031.548-.047.822-.085,1.53-.22,3.071-.436,4.583-.779.705-.16,1.409-.321,2.111-.488-.233.125-.457.267-.695.385A17.794,17.794,0,0,1,130.139,272.94Zm59.708,1.221c-.706-.149-1.406-.3-2.111-.456l.185.036c-1.1-.286-2.2-.576-3.287-.9-1.045-.3-2.078-.636-3.11-.975.056.023.118.042.174.064-.757-.273-1.515-.54-2.28-.8.062.018.118.041.18.059-2.221-.791-4.36-1.794-6.558-2.646a66.047,66.047,0,0,0-7.115-2.406c-1.616-.421-3.237-.813-4.869-1.154-.818-.17-1.643-.342-2.467-.454s-1.664-.2-2.5-.288a22.338,22.338,0,0,0-2.534-.078c-.6,0-1.205.024-1.8.066.158-.054.312-.117.471-.168a33.3,33.3,0,0,1,3.278-.786q1.576-.243,3.162-.347a40.607,40.607,0,0,1,4.719.13l-.119,0c1.713.17,3.4.45,5.1.726,1.035.17,2.072.42,3.1.632l.035.007a.755.755,0,0,0,.109.027l-.087-.017c1.285.3,2.572.595,3.847.95,1.248.338,2.474.726,3.7,1.132a41.015,41.015,0,0,1,3.771,1.614,25.7,25.7,0,0,1,2.222,1.318c.469.307.934.625,1.4.938,1.1.832,2.208,1.664,3.295,2.522.654.521,1.309,1.047,1.969,1.565C191.1,274.38,190.474,274.284,189.847,274.161Zm25.569,1.931c-.635.392-1.28.744-1.95,1.081-.577.254-1.161.482-1.764.683-.438.125-.88.237-1.324.331-.494.072-.977.122-1.474.146a8.9,8.9,0,0,1-.992-.019,24.331,24.331,0,0,1-2.6-.407c-.261-.066-.515-.153-.774-.225l.052,0c.981-.11,1.956-.215,2.924-.381.843-.142,1.685-.279,2.522-.452,2.181-.457,4.353-.955,6.5-1.542q-.546.4-1.112.781a.718.718,0,0,1,.068-.04ZM322.783,155.428c-.144,2.5-.276,5.009-.415,7.519-.156,1.266-.318,2.536-.475,3.807-.1.849-.215,1.7-.321,2.553-.038.323-.062.66-.124.978q-.693,3.482-1.376,6.972c-.3,1.195-.606,2.384-.9,3.58-.29,1.12-.539,2.252-.857,3.366q-1.047,3.631-2.1,7.271c-.318,1.114-.694,2.217-1.041,3.325-.4,1.284-.8,2.561-1.2,3.846-.313.995-.683,1.973-1.019,2.963l-1.15,3.334c.01-.022.015-.045.024-.061-.017.056-.041.117-.065.179-2.554,6.828-5.171,13.638-7.72,20.474q-.8,2.139-1.631,4.266c-.6,1.522-1.151,3.058-1.808,4.556q-.751,1.7-1.5,3.4c-.235.53-.448,1.076-.711,1.595-.805,1.584-1.6,3.168-2.41,4.758-.485.859-.978,1.729-1.465,2.6-.445.783-.855,1.6-1.339,2.361-1.118,1.775-2.195,3.581-3.37,5.314a60.761,60.761,0,0,1-4.586,5.889,33.6,33.6,0,0,1-2.774,2.707,33.168,33.168,0,0,1-2.824,2.1,32.1,32.1,0,0,1-3,1.613c-.963.419-1.936.795-2.929,1.124v0a31.767,31.767,0,0,1-3.539.842h.016c-.014,0-.024,0-.033,0l-.01,0-.187.036c.051-.015.106-.022.163-.035-1.05.157-2.1.266-3.164.323-.978.032-1.947.018-2.924-.046-.865-.09-1.715-.219-2.559-.383a44.081,44.081,0,0,1-4.579-1.38c-2.752-1-5.481-2.046-8.238-3.049-.731-.263-1.471-.506-2.215-.736.723-.046,1.448-.081,2.171-.112,1.437-.016,2.866-.02,4.294.035,1.453.054,2.885.158,4.333.27a68.616,68.616,0,0,0,7.726.551c.463-.006.945.016,1.409-.026l1.3-.107c.829-.067,1.639-.192,2.465-.308a27.539,27.539,0,0,0,6.94-2.289,21.234,21.234,0,0,0,5.78-3.359,39.737,39.737,0,0,0,3.738-3.839c1.114-1.29,2.195-2.6,3.247-3.936.994-1.258,1.911-2.586,2.8-3.925,1.937-2.935,3.567-6.055,5.257-9.141.734-1.339,1.447-2.694,2.154-4.051.813-1.564,1.631-3.12,2.395-4.712.3-.607.589-1.211.881-1.82.121-.252.26-.5.364-.763.323-.766.644-1.525.966-2.29.27-.649.563-1.294.811-1.954.363-.974.731-1.946,1.094-2.919.6-1.593,1.16-3.194,1.728-4.793.523-1.458,1.045-2.916,1.539-4.38,1.035-3.11,2.094-6.216,2.912-9.386.425-1.663.872-3.317,1.243-4.984.358-1.628.733-3.252,1.063-4.892.68-3.353,1.372-6.7,1.977-10.071.31-1.722.662-3.441.924-5.165q.441-2.831.875-5.655c.115-.716.172-1.442.257-2.157.137-1.143.275-2.287.407-3.431.184-1.535.3-3.079.44-4.617.122-1.434.267-2.863.354-4.3q.181-3.121.373-6.255c.032-.5.025-1.022.033-1.529q.032-1.74.065-3.491c.014-.813.035-1.631.05-2.449.006-.593-.04-1.19-.056-1.787-.042-1.268-.083-2.541-.119-3.808-.016-.506-.012-1.022-.057-1.528-.176-2-.356-4.01-.538-6.013-.047-.531-.135-1.064-.212-1.595-.174-1.173-.342-2.351-.51-3.523-.213-1.469-.478-2.918-.747-4.374-.286-1.525-.553-3.058-.889-4.575-.262-1.184-.522-2.375-.785-3.56-.145-.67-.272-1.348-.443-2.011-.483-1.839-.978-3.68-1.46-5.525-.393-1.5-.92-2.956-1.409-4.425-.279-.851-.563-1.7-.842-2.556-.2-.584-.472-1.153-.708-1.727-.619-1.512-1.182-3.06-1.9-4.525l-1.57-3.22c-.259-.524-.5-1.067-.78-1.579q-.75-1.377-1.5-2.744c-.362-.67-.715-1.356-1.1-2.013-.886-1.522-1.786-3.04-2.678-4.562-.434-.732-.894-1.452-1.342-2.174l-.14-.232c.177.249.353.5.531.745,1.135,1.57,2.194,3.191,3.258,4.819.37.63.743,1.272,1.117,1.908.389.658.827,1.306,1.168,1.99.684,1.357,1.387,2.716,2.07,4.078.673,1.511,1.395,3.013,2.008,4.553.666,1.671,1.376,3.326,1.99,5.017.1.273.2.546.306.819.225.836.46,1.668.672,2.507a1.259,1.259,0,0,0,.5.709c.136.385.281.766.408,1.153.6,1.844,1.2,3.7,1.809,5.545.3,1.072.6,2.143.9,3.221.206.73.406,1.464.611,2.2.078.279.173.562.237.85.458,2.152.927,4.313,1.4,6.468.2,1.233.4,2.476.594,3.714.151.953.339,1.9.447,2.858q.252,2.136.493,4.264c.1.914.234,1.821.315,2.736.121,1.416.237,2.83.358,4.245.081.975.2,1.952.243,2.92q.161,3.63.33,7.268c0,1.333,0,2.67.008,4.008,0,.858,0,1.722,0,2.586C322.784,154.648,322.8,155.042,322.783,155.428Z"/><path d="M152.191,18.655c-.008-.049-.014-.1-.022-.148l0-.025C152.172,18.538,152.184,18.6,152.191,18.655Z"/><path d="M152.717,21.7c-.009-.055-.016-.11-.025-.166l0-.007C152.7,21.578,152.71,21.641,152.717,21.7Z"/><path d="M185.853,40.818c-.028.005-.056,0-.084.008l-.076.015Z"/><path d="M73.171,160.665c.2.129.413.254.625.367a11.511,11.511,0,0,0,.762,1.017,11.5,11.5,0,0,0,1.528,4.309,8.94,8.94,0,0,0,4.338,3.889,12.036,12.036,0,0,0,1.788.491,9.916,9.916,0,0,0,4.031,0,18.415,18.415,0,0,0,5.979-2.559c.405-.263.807-.54,1.2-.835,2.014.223,4.028.385,6.054.515a1.831,1.831,0,0,0,1.857-1.782,1.851,1.851,0,0,0-1.78-1.863c-.743-.043-1.492-.088-2.231-.154a20.678,20.678,0,0,0,2.806-1.7,18.564,18.564,0,0,0,3-2.417,12.668,12.668,0,0,0,2.331-3.267,11.808,11.808,0,0,0,1.075-3.906,12.029,12.029,0,0,0,.013-2.229,14.1,14.1,0,0,0-.266-1.971,10.7,10.7,0,0,0-1.584-3.426,20.074,20.074,0,0,0-1.277-1.705c0-.016-.01-.031-.014-.047a16.68,16.68,0,0,0-.622-2.95,1.33,1.33,0,0,0-.337-1.637c-.13-.1-.253-.186-.377-.275-.087-.194-.157-.4-.252-.585a18.437,18.437,0,0,0-4.327-5.494,20.921,20.921,0,0,0-12.874-5.586,15.855,15.855,0,0,0-6.644.978,16.227,16.227,0,0,0-5.658,4.031,18.5,18.5,0,0,0-2.19,2.845,18.09,18.09,0,0,0-1.459,3.069,26.007,26.007,0,0,0-1.46,7.005,21.962,21.962,0,0,0,.554,7.222,20.47,20.47,0,0,0,1.231,3.363,15.21,15.21,0,0,0,1.722,2.937A9.807,9.807,0,0,0,73.171,160.665Zm14.26-16.228a6.24,6.24,0,0,0-1.074-.139c.258-.154.514-.3.78-.437.217-.094.434-.18.655-.258Q87.6,144.013,87.431,144.437Zm1.541,9.6a3.961,3.961,0,0,0,1.294-.823,4.837,4.837,0,0,0,.994-1.33,2.128,2.128,0,0,0,.924-.433c.108-.093.22-.179.332-.259-.105.261-.215.522-.337.78-.137.273-.291.537-.455.8-.047.058-.1.12-.144.183a.17.17,0,0,0-.03.03c-.167.123-.334.241-.507.358-.21.126-.42.248-.641.367-.163.07-.333.139-.507.2-.165.046-.328.085-.491.12-.1.016-.208.02-.312.029-.065,0-.13,0-.2,0C88.921,154.049,88.946,154.046,88.972,154.037Zm3.939-9.055a13.555,13.555,0,0,0-2.206,1.444c-.023.014-.044.03-.067.045a5.768,5.768,0,0,0-.8-.86c.146-.374.294-.739.46-1.1.159-.293.322-.579.5-.862.075-.108.168-.206.247-.312.3.037.589.072.882.129.217.054.432.119.653.186.269.1.528.216.786.338.315.166.62.353.923.548A5.666,5.666,0,0,0,92.911,144.982Zm-2.038-5.332c-.016.014-.033.025-.049.039-.282.235-.535.5-.8.764-.255,0-.511-.012-.762.007a12.919,12.919,0,0,0-1.353.169c.452-.26.914-.506,1.384-.733.346-.148.692-.292,1.052-.414a1.408,1.408,0,0,1,.178-.049C90.645,139.5,90.76,139.576,90.873,139.65Zm-7.089,11.017a.566.566,0,0,0,.086.083c.071.067.147.136.224.205a.022.022,0,0,0,0,.019,4.588,4.588,0,0,0,.078.5c-.087-.119-.18-.235-.263-.356s-.149-.275-.224-.411C83.719,150.692,83.752,150.682,83.784,150.667Zm2.88,17.216a11.982,11.982,0,0,1-1.27.3c-.315.047-.628.082-.949.1-.312,0-.628-.008-.936-.032a11.469,11.469,0,0,1-1.182-.181h-.006l-.006,0a.736.736,0,0,1-.1-.025l.039.008c-.274-.076-.542-.156-.809-.242-.212-.083-.422-.177-.636-.279-.173-.094-.34-.192-.5-.3-.2-.152-.391-.3-.574-.471-.227-.224-.446-.453-.651-.7-.25-.319-.492-.648-.714-.991-.058-.1-.118-.2-.176-.3a3.1,3.1,0,0,0,.379.121,8.5,8.5,0,0,0,1.027.637c.076.045.152.083.234.123a7.637,7.637,0,0,0,4.684,2.109,10.741,10.741,0,0,0,3.384-.346C87.49,167.587,87.082,167.741,86.664,167.883ZM103.207,152.7c-.041.335-.091.655-.149.986-.069.292-.148.576-.235.871-.14.381-.3.746-.473,1.109-.17.321-.35.627-.547.931-.1.144-.224.275-.334.414a11.935,11.935,0,0,0,.424-5.447c.175-.389.339-.788.5-1.191a12.133,12.133,0,0,0,.537-1.145c.039.139.065.282.1.432.1.618.18,1.235.215,1.859Q103.241,152.1,103.207,152.7Zm-32.289-5.37a25.734,25.734,0,0,1,.07-2.619c0,.041-.009.076-.011.118,0-.047.008-.1.012-.154.006-.029.006-.059.011-.087a.208.208,0,0,0,0,.042,28.6,28.6,0,0,1,.439-2.879c-.015.051-.025.1-.034.149.012-.064.025-.133.044-.2a24.328,24.328,0,0,1,.7-2.515c.213-.57.446-1.125.709-1.674-.02.039-.039.077-.057.109l.058-.115a15.493,15.493,0,0,1,.878-1.467c.334-.451.684-.893,1.048-1.32a18.416,18.416,0,0,1,1.6-1.561c.462-.372.932-.726,1.421-1.05.367-.223.736-.427,1.115-.618.336-.15.666-.278,1.013-.4a13.713,13.713,0,0,1,1.415-.337,16.385,16.385,0,0,1,1.9-.19c.622-.018,1.248,0,1.876.039.613.059,1.214.146,1.815.262.042.01.083.026.125.037-.1.033-.2.061-.3.1l-.076.021A10.576,10.576,0,0,0,83.2,132.6a14.812,14.812,0,0,0-3.173,2.78c-.108.133-.2.278-.309.414-.091.066-.186.131-.276.2a15.077,15.077,0,0,0-2.763,2.091,18.514,18.514,0,0,0-5.627,10.953C70.985,148.466,70.939,147.9,70.918,147.325Z"/><path d="M164.892,158.99c.542,2.648,1.538,5.523,3.7,7.3a11.471,11.471,0,0,0,4.047,2.081,16.726,16.726,0,0,0,1.665.413,13.35,13.35,0,0,0,2.267.248c3.174.057,6.15-1.213,8.9-2.677a28.321,28.321,0,0,0,5.278-3.619,30.972,30.972,0,0,0,3.932-1.654,29.384,29.384,0,0,0,7.512-5.579,17.543,17.543,0,0,0,2.937-3.851,12.113,12.113,0,0,0,1.26-3.99,15.37,15.37,0,0,0-.031-4.637c-.063-.354-.138-.711-.232-1.059.042-.219.073-.442.1-.665a10.782,10.782,0,0,0-.3-4.107,15.428,15.428,0,0,0-1.853-4.24,16.3,16.3,0,0,0-2.759-3.246,16.706,16.706,0,0,0-7.743-3.931,12.918,12.918,0,0,0-4.424-.294,15.579,15.579,0,0,0-4.017,1.073,22.126,22.126,0,0,0-4.311,2.433,24.107,24.107,0,0,0-3.422,1.844l-.315.137a32.149,32.149,0,0,0-3.958,2.039,18.746,18.746,0,0,0-3.642,2.91,15.932,15.932,0,0,0-2.525,3.554,19.663,19.663,0,0,0-2.283,8.65,17.163,17.163,0,0,0,.2,2.761A21.744,21.744,0,0,0,164.892,158.99ZM178.26,156.5c-.012.123-.023.241-.035.365-.12,0-.247.006-.373.006-.125-.127-.249-.259-.368-.39a.374.374,0,0,0-.043-.056c.139-.561.295-1.118.479-1.665.178.071.364.131.552.185C178.378,155.458,178.308,155.972,178.26,156.5Zm20.131-17.911a25.382,25.382,0,0,1,1.617,2.179c.282.463.545.934.787,1.418.1.242.2.483.29.728-.1.228-.208.458-.318.683-.242.444-.5.868-.778,1.288-.227.3-.457.595-.7.878-.219.233-.45.464-.68.689.04-.142.074-.285.108-.429a5.511,5.511,0,0,0,.96-2.819,7.6,7.6,0,0,0-.9-3.563,9.317,9.317,0,0,0-.694-1.124c-.068-.175-.137-.345-.213-.509.193.211.385.428.571.644C198.425,138.629,198.405,138.607,198.391,138.586Zm-1.554,14.91c.4-.288.8-.576,1.2-.876-.407.395-.823.775-1.249,1.149C196.807,153.682,196.819,153.588,196.837,153.5Zm-15.259-18.957c.074-.076.149-.151.223-.226.228-.124.454-.237.687-.353.353-.154.706-.3,1.062-.436.476-.009.953,0,1.426.037l.258.032c-.289.039-.575.086-.856.145a16.121,16.121,0,0,0-2.855.868C181.539,134.586,181.562,134.56,181.578,134.539Zm-4.368,10.675c.184-.462.378-.911.6-1.349h0c.262-.482.54-.957.838-1.414a18.186,18.186,0,0,1,1.336-1.717c.455-.486.921-.946,1.419-1.384.421-.344.848-.663,1.3-.966.36-.218.724-.423,1.1-.614a17.347,17.347,0,0,1,1.654-.644c.154-.049.313-.1.471-.137.257-.028.513-.05.775-.072.567-.016,1.136-.008,1.7.031s1.107.137,1.656.243c.43.1.85.225,1.267.366q.544.2,1.063.458c.412.224.81.463,1.2.718.161.283.316.565.457.863.156.366.3.729.425,1.114.133.457.248.918.343,1.386.05.363.089.719.114,1.083.006.278,0,.552-.01.826-.039.293-.077.579-.133.868a.328.328,0,0,1-.02.074c-.136-.194-.279-.383-.429-.569a8.915,8.915,0,0,0-3.449-2.756,11.046,11.046,0,0,0-4.043-.832,10.664,10.664,0,0,0-4.369.724,14.622,14.622,0,0,0-3.582,2.232,23.332,23.332,0,0,0-1.729,1.614Zm-5.4,15.058a9.029,9.029,0,0,0,1.095,2.576c-.049-.021-.105-.044-.154-.071-.195-.1-.377-.218-.565-.332-.115-.088-.23-.177-.343-.271-.066-.066-.13-.133-.19-.2q-.195-.244-.37-.5c-.131-.223-.255-.451-.372-.678q-.231-.531-.422-1.072A12.42,12.42,0,0,0,171.812,160.272Z"/><path d="M86.21,202.135c.036-.04.073-.079.108-.119.011-.011.019-.023.03-.035Z"/><path d="M242.969,240.189c-.45-.987-.909-1.964-1.387-2.932-.486-.988-1.015-1.972-1.582-2.916a19.8,19.8,0,0,0-2.224-3.065,23,23,0,0,0-2.1-1.967c-.186-.161-.378-.313-.564-.473-.2-.286-.4-.573-.61-.854a37.871,37.871,0,0,0-6.394-6.71,41.915,41.915,0,0,0-3.793-2.745c-.7-.454-1.425-.893-2.157-1.31-.233-.187-.468-.372-.7-.56-.682-.565-1.366-1.123-2.049-1.682-1.049-.869-2.152-1.677-3.232-2.51-2.083-1.6-4.273-3.048-6.449-4.508.016.009.026.017.043.026-.846-.589-1.753-1.107-2.628-1.667-.769-.491-1.562-.945-2.346-1.421-1.572-.953-3.146-1.9-4.71-2.869-.691-.422-1.381-.856-2.073-1.278s-1.4-.8-2.1-1.216-1.422-.744-2.124-1.114c-.751-.4-1.524-.739-2.285-1.115-1.457-.714-2.94-1.386-4.426-2.04a10.3,10.3,0,0,0-5.049-1.309,12.771,12.771,0,0,0-3.352.812,21.17,21.17,0,0,0-5.239.332c-1.844.26-3.678.564-5.524.835-1.086.156-2.164.331-3.248.51-.886.147-1.787.307-2.658.528-.946.237-1.895.461-2.835.734-.973.285-1.948.576-2.918.88a15.878,15.878,0,0,0-4.775,1.287c-2.1.517-4.2,1.029-6.337,1.413a38.665,38.665,0,0,1-4.066.446c-.749.032-1.494.024-2.24,0a3.9,3.9,0,0,0-.894-.95c-.642-.466-1.3-.917-1.973-1.336-.695-.435-1.4-.848-2.111-1.267-1.024-.595-2.077-1.135-3.1-1.735-.949-.551-1.941-1.031-2.909-1.543-1.067-.56-2.128-1.114-3.2-1.657a.227.227,0,0,1-.034-.019c-.021-.011-.043-.022-.066-.032l.016.01-.064-.034-.006,0,0,0c-.1-.054-.2-.1-.3-.156l.043.023-1.206-.614h0c-.019-.01-.036-.02-.056-.029s-.071-.038-.109-.057c.006,0,.016.009.022.01l-.114-.058c.016.009.027.012.043.021-.023-.014-.048-.027-.072-.039a.064.064,0,0,1-.02-.008l-.006,0,0,0-.013-.01c-.5-.252-.988-.5-1.479-.754.01.008.022.01.026.017-.086-.047-.18-.089-.273-.137l.187.09a11.022,11.022,0,0,0-4.1-1.486,8.717,8.717,0,0,0-2.565.175c-.056-.023-.111-.046-.166-.074.451-.9.859-1.831,1.289-2.75a1.424,1.424,0,0,0-2.151-1.712,10.8,10.8,0,0,0-1.292,1.093c-.326.356-.637.722-.949,1.093-.289.346-.583.685-.884,1.029-.029.03-.054.061-.085.1a17.92,17.92,0,0,0-5.286.072,22.691,22.691,0,0,0-3.757.939,26.834,26.834,0,0,0-2.942,1.157,7.453,7.453,0,0,0-1.811.62,9.41,9.41,0,0,0-1.717,1.365c-.319.316-.633.639-.948.962A18.874,18.874,0,0,0,91.887,196l-.037.041c-.5.51-1,1.021-1.471,1.553q.05-.054.093-.111c-1.39,1.5-2.781,3.01-4.154,4.537-.257.275-.486.575-.726.862-.508.61-1.022,1.218-1.531,1.833q-1.28,1.542-2.571,3.082c-.719.862-1.378,1.784-2.039,2.688-.754,1.041-1.5,2.091-2.171,3.183a32.353,32.353,0,0,0-3.143,6.184c-.111.183-.228.363-.333.549a16.239,16.239,0,0,0-2.385,8.217,6.55,6.55,0,0,0,1.112,3.977,5.747,5.747,0,0,0,1.405,1.352,6.253,6.253,0,0,0,1.627.7c.352.1.7.183,1.043.25a10.409,10.409,0,0,0,3.2.135c.981-.109,1.952-.293,2.921-.495,1.229-.247,2.457-.513,3.684-.778,2.135-.462,4.233-1.045,6.352-1.545,1.073-.248,2.122-.615,3.2-.838s2.105-.486,3.153-.732c.338-.062.675-.118,1.012-.175-.007,0-.019,0-.025.007.26-.046.527-.09.787-.135.224-.042.443-.079.663-.118.255-.039.507-.083.759-.128.688-.083,1.372-.148,2.058-.219.582-.067,1.163-.153,1.747-.2,1.36-.084,2.724-.162,4.081-.258l-.061.006c.109-.009.218-.012.326-.015a.151.151,0,0,0-.03,0c.207-.011.412-.017.618-.028-.115.008-.23.01-.339.018.291-.015.586-.024.883-.038-.114,0-.23.009-.344.011l.723-.026.092,0,.121,0h-.052c.123,0,.246-.013.367-.018h-.054c.234-.01.468-.017.7-.026.177,0,.354-.012.527-.02-.015,0-.032,0-.05,0,.114,0,.223,0,.332-.014.049,0,.09,0,.133,0h-.006c.163,0,.321-.016.484-.02-.018,0-.043,0-.061.006.14-.008.284-.011.424-.019-.115,0-.23.009-.344.011l1.395-.054c-.114,0-.229.01-.344.012.315-.011.63-.028.944-.039-.116.007-.23.009-.345.017.248-.012.5-.024.737-.031-.114,0-.23.01-.344.011.242-.007.478-.021.719-.028-.115.007-.229.009-.345.017l.544-.021c.121-.006.237-.014.357-.014-.054,0-.1,0-.156,0,.108,0,.223,0,.331-.008a.454.454,0,0,1-.047,0c1.383-.049,2.762-.136,4.141-.2-.115.007-.229.009-.345.017a64.881,64.881,0,0,1,6.542.01c.1,0,.2.008.3.016l-.25-.012a31.865,31.865,0,0,1,3.572.513,27.6,27.6,0,0,1,3.166.862c-.025-.009-.051-.018-.077-.03.224.079.447.16.671.24.042.013.078.026.115.039l.319.116c.511.183,1.016.359,1.521.541,1.047.443,2.124.832,3.152,1.313,1.121.529,2.241,1.064,3.37,1.584,1.107.568,2.217,1.125,3.308,1.715,1.345.731,2.7,1.477,4.086,2.131.455.394.915.781,1.395,1.146a13.839,13.839,0,0,0,2.746,1.768,10.475,10.475,0,0,0,2.446.769,14.309,14.309,0,0,0,1.253.7,11.318,11.318,0,0,0,2.672.914c.26.051.522.09.792.118a9.5,9.5,0,0,0,3.135-.267,20.886,20.886,0,0,0,4.153-1.6,5.068,5.068,0,0,0,.953-.294,16.9,16.9,0,0,0,2.76-1.582c.98-.662,2-1.268,2.948-1.966.523-.385,1.025-.794,1.515-1.216l.434-.292a57.322,57.322,0,0,0,6,3.757,11.283,11.283,0,0,0,3.912,1.256c.177.019.35.016.524.021a6.4,6.4,0,0,0,1.8,1.488,3.681,3.681,0,0,0,1.718.423,4.327,4.327,0,0,0,1.531-.351,6.03,6.03,0,0,0,1.665-1.159c.338-.288.65-.6.978-.9q1.094-.993,2.2-1.972c.233-.193.47-.38.708-.566.11.007.215.03.326.029a16.229,16.229,0,0,0,5.776-1.542c.811-.32,1.623-.633,2.446-.923.576.181,1.151.367,1.721.566a148.493,148.493,0,0,1,13.762,5.986c.311.157.617.312.929.468l-.01,0c.665.343,1.33.68,2,1.018-.1-.049-.191-.1-.285-.139.235.118.465.234.693.357l.125.061-.043-.021.058.029.066.031-.059-.028.164.084c1.059.541,2.1,1.126,3.147,1.684.94.5,1.861,1.039,2.829,1.491a9.148,9.148,0,0,0,3.647,1.144,4.371,4.371,0,0,0,2.851-.908,4.67,4.67,0,0,0,1,.168,3.093,3.093,0,0,0,1.592-.32,3.167,3.167,0,0,0,1.216-1.168,4.45,4.45,0,0,0,.167-3.429A16.724,16.724,0,0,0,242.969,240.189Zm-70.19-4.107c-.568.375-1.134.754-1.7,1.127-.327.2-.664.393-1.015.564-.091.037-.176.074-.268.111l0-.012c.119-.307.248-.6.383-.891.318-.592.665-1.173,1.023-1.751q.736-.55,1.5-1.07c.379-.236.769-.447,1.158-.661.23.058.457.12.688.184.281.107.553.23.819.357.054.028.106.06.16.089l-.187.146Q174.06,235.178,172.779,236.082ZM113.52,218.4c-.119.091-.232.177-.35.262q.315-.606.665-1.2c.747-.6,1.487-1.2,2.229-1.811.642-.529,1.29-1.057,1.933-1.586-.06.09-.119.18-.172.266-.285.293-.574.579-.857.866-.609.6-1.242,1.175-1.87,1.754C114.572,217.431,114.061,217.932,113.52,218.4ZM104,216.311a67.681,67.681,0,0,1-6.7,5.137c-.3.194-.612.373-.921.548-.413.057-.834.12-1.248.183q.212-.39.422-.782c.237-.14.46-.3.669-.451.916-.669,1.724-1.466,2.582-2.211l-.02.014c3.067-2.578,6.087-5.219,9.106-7.86-.595.9-1.213,1.8-1.818,2.694l0,0h0a.25.25,0,0,0-.032.045c-.508.735-1.006,1.476-1.5,2.213-.187.161-.374.323-.567.483ZM92.286,221.62a11.253,11.253,0,0,0-.485,1.106c-2.305.44-4.557,1.077-6.866,1.5h.006a25.74,25.74,0,0,1-2.857.321c-.655,0-1.309,0-1.96-.008.053-.056.106-.117.159-.173-.021.02-.037.041-.059.061.2-.224.4-.445.595-.659a.283.283,0,0,0-.023.028c.055-.064.106-.126.161-.181a.326.326,0,0,0-.032.042c.132-.155.268-.3.4-.456.09-.091.175-.189.26-.286,0,.011-.01.016-.018.027.046-.051.093-.109.139-.159l.158.234a1.475,1.475,0,0,0,1.886.42c.5-.251,1.013-.488,1.494-.772a13.875,13.875,0,0,0,1.2-.818c2.2-1.647,4.279-3.476,6.385-5.239,1.332-1.116,2.619-2.275,3.91-3.429-.438.587-.883,1.179-1.316,1.773-.512.692-1.018,1.386-1.532,2.084-.66.9-1.25,1.839-1.846,2.779A1.47,1.47,0,0,0,92.286,221.62Zm12.955-1.572c.338-.484.682-.965,1.017-1.461l-.007.011c.256-.368.508-.742.764-1.109.236-.2.471-.408.713-.611l-.01.009c1.367-1.148,2.678-2.349,4.01-3.534.8-.715,1.6-1.429,2.4-2.144l.1.038c-.289.466-.578.937-.856,1.411-.484.824-.972,1.641-1.455,2.459-.016.021-.026.043-.043.07-.056.043-.114.092-.171.14-1,.814-2.018,1.618-3.05,2.4-.683.521-1.395,1.007-2.078,1.528-.513.387-1.025.768-1.556,1.126C105.1,220.266,105.165,220.159,105.241,220.048Zm12.325-15.8c-.715.653-1.423,1.307-2.144,1.96a9.356,9.356,0,0,0-1.034.908c-.03.031-.054.062-.082.086l-1.417,1.273c.033-.077.073-.159.107-.243a3.748,3.748,0,0,0,.28-1.349,5.142,5.142,0,0,0-.21-1.175,1.5,1.5,0,0,0-2.16-.958,23.042,23.042,0,0,0-2.212,1.508c-.555.45-1.078.955-1.631,1.423s-1.073.926-1.613,1.391l-2.813,2.441c-.982.854-1.957,1.708-2.943,2.554.339-.449.673-.9,1.012-1.351.913-1.214,1.859-2.411,2.789-3.615.441-.575.87-1.146,1.332-1.7.626-.754,1.261-1.5,1.82-2.3a9.3,9.3,0,0,0,.989-1.913,1.525,1.525,0,0,0,.105-.506c.76-.3,1.526-.583,2.305-.839-.031.006-.063.018-.1.024.057-.013.115-.032.165-.047a.068.068,0,0,0,.027-.012c0,.006-.007,0-.014.009a40.562,40.562,0,0,1,4.461-1.1c.384-.06.767-.111,1.151-.16,1.03.091,2.071.167,3.086.353q.587.132,1.163.315c.2.075.407.157.606.244-.162.155-.328.3-.49.456Zm57.924-5.893a1.691,1.691,0,0,0,2.15.508c.211-.1.423-.2.635-.3s.411-.166.618-.247c.042.007.084.01.126.017a.152.152,0,0,1-.05-.015,5.108,5.108,0,0,1,.585.167c.313.121.611.251.908.392,1.7.868,3.333,1.85,4.941,2.88-.863-.3-1.722-.624-2.6-.88-2.878-.828-5.73-1.731-8.661-2.338Q174.813,198.439,175.49,198.359ZM191.8,234.932a.627.627,0,0,0-.048.042c-.05.044-.1.088-.157.131.035-.029.065-.059.1-.088q-.581.489-1.2.918c-.075.046-.149.091-.229.13l-.05.018c-.125-.133-.25-.267-.376-.4-.586-.624-1.25-1.19-1.888-1.77a6.263,6.263,0,0,0,.814-.358c.06-.036.127-.071.188-.107.394.136.8.256,1.207.365a1.706,1.706,0,0,0,2.085-1.16,1.68,1.68,0,0,0,.042-.279c.338.244.656.507.966.775.1.1.2.2.306.3-.6.481-1.185.986-1.768,1.492Zm-60.59-12.882c.486-.338.942-.711,1.4-1.083.285-.233.576-.465.87-.683a18.3,18.3,0,0,0,1.969,2.373c.026.025.053.048.078.073a1.215,1.215,0,0,0,.71.878c.037.014.073.036.111.054l-.01,0c-.016-.008-.031-.016-.046-.022l.019.012c-.674-.256-1.351-.506-2.041-.723-.854-.268-1.716-.555-2.588-.76C131.523,222.129,131.368,222.093,131.208,222.05ZM146.7,210.179c-.2.377-.4.75-.608,1.123-.1-.027-.193-.055-.292-.077s-.2-.06-.3-.092c.395-.315.789-.632,1.191-.944-.02.038-.038.078-.056.117A1.291,1.291,0,0,1,146.7,210.179Zm6.092,1.025c.05-.134.1-.267.162-.393.091-.163.181-.319.283-.474.055-.067.11-.134.164-.195l.007,0c-.023.025-.046.051-.062.072.044-.04.088-.085.14-.135.128-.1.26-.2.391-.284a4.269,4.269,0,0,1,.462-.246c.162-.065.331-.128.5-.191s.372-.1.559-.132l.14-.009c.1,0,.2,0,.3.005.14.021.28.042.411.074.4.095.787.213,1.17.341a6.6,6.6,0,0,0,.74.486c-.39.368-.784.729-1.178,1.091-.847.779-1.68,1.57-2.532,2.339l-.118-.032c-.623-.165-1.243-.334-1.865-.5,0-.141,0-.281.01-.414.025-.22.056-.439.1-.656C152.637,211.7,152.711,211.45,152.793,211.2ZM168.2,201.69c1.262.116,2.513.3,3.759.514-.658.167-1.3.41-1.944.627l-.106.034a1.655,1.655,0,0,0-1.217,1.39c-.24-.215-.481-.43-.722-.639-.8-.7-1.605-1.381-2.446-2.02C166.418,201.6,167.31,201.623,168.2,201.69Zm22.615,6.4q3.085,1.173,6.15,2.414l.095.076a2.047,2.047,0,0,0,.085.43c.016.039.026.083.041.128a19.434,19.434,0,0,0,.709,2.345c.049.117.1.236.159.354-.285-.235-.578-.453-.88-.662a25.043,25.043,0,0,0-6.6-3.251c-.3-.208-.589-.425-.874-.65.047-.025.092-.052.141-.077a1.575,1.575,0,0,0,.808-1.169Zm19.809,23.183a23.865,23.865,0,0,0-7.389-1.444c.472-.18.946-.364,1.415-.55q1.334-.525,2.638-1.138l-.218.1c.236-.1.469-.192.719-.275.031-.006.058-.019.089-.025a.006.006,0,0,1,0,.007,9.891,9.891,0,0,0,.811,1.04,5.189,5.189,0,0,0,1.04.855,5.452,5.452,0,0,0,2.42.667,12.22,12.22,0,0,0,1.434-.034c.327.259.673.5,1.01.749A18.85,18.85,0,0,0,210.626,231.272Zm-38.591-4.164-.739,1.217c-.251.029-.5.073-.747.119.509-.454,1.011-.913,1.512-1.379C172.052,227.081,172.044,227.092,172.035,227.108Zm-16.959.939a18.384,18.384,0,0,1-1.937-.274c-.464-.1-.929-.212-1.391-.323a1.7,1.7,0,0,0,1.043-.152c.823-.434,1.67-.816,2.484-1.27.378-.214.751-.436,1.121-.676a21.487,21.487,0,0,0-.536,2.487c-.015.075-.024.152-.039.233-.246,0-.5-.013-.751-.027Zm-8.5-1.966c-.046-.015-.095-.036-.14-.051-.012,0-.022-.011-.034-.013l.017,0c-.4-.148-.788-.3-1.183-.457.654-.527,1.328-1.032,1.977-1.56.771-.636,1.531-1.275,2.287-1.926.223-.19.445-.381.662-.573.025.029.042.062.067.091a6.283,6.283,0,0,0,.837.942,5.191,5.191,0,0,0-.686,1.277,2.933,2.933,0,0,0-.2,1.322,6.563,6.563,0,0,0,.393,1.342,1.417,1.417,0,0,0,.95.916c-.606-.154-1.213-.3-1.814-.448-1.077-.262-2.152-.531-3.2-.9C146.53,226.059,146.552,226.07,146.58,226.081Zm-12.14-10.488a.516.516,0,0,1,.011-.088l.058-.2c.029-.068.058-.135.09-.2a3.418,3.418,0,0,1,.2-.36c.048-.062.095-.119.142-.176a.974.974,0,0,0,.1-.112.147.147,0,0,0,.048-.033c.007,0,.02-.009.027-.013.042-.009.09-.018.138-.025-.032.007-.062.011-.089.016.062-.005.13-.016.2-.022.179,0,.351.015.529.025l.246.03-1.673,1.265a.078.078,0,0,0-.022.02v-.006A.614.614,0,0,1,134.44,215.593Zm-2.523,2.029c-.126.1-.247.193-.368.289.093-.168.191-.335.285-.509C131.861,217.48,131.889,217.551,131.917,217.622Zm10.563,6.218c.6-1.065,1.233-2.124,1.841-3.187.483-.849.96-1.7,1.442-2.546l.329-.584c.566.206,1.139.407,1.717.579.4.113.8.209,1.2.287q-1.154,1.026-2.332,2.031l.016-.019C145.305,221.572,143.87,222.681,142.48,223.84Zm-1.586-3.331c-.38.665-.773,1.326-1.152,1.984a.083.083,0,0,0-.018.033q-.714-.543-1.382-1.132a19.758,19.758,0,0,1-1.522-1.555c-.356-.423-.684-.864-1-1.315.891-.667,1.784-1.34,2.671-2.02l1.466-1.124.886.315,1.417.491c.3.1.607.208.916.316q-.219.388-.439.778C142.122,218.354,141.505,219.434,140.894,220.509Zm19.233-2.463h0c-.318.391-.624.793-.909,1.213-.03.025-.059.05-.089.077-.068.054-.135.1-.2.16-.324-.092-.646-.191-.967-.3-.2-.081-.407-.158-.606-.244.329-.46.652-.926.979-1.39C158.932,217.724,159.529,217.887,160.127,218.046Zm43.208-2.484c.49.383.974.765,1.456,1.152q.625.492,1.247.984c-.251-.114-.5-.232-.751-.345-.224-.1-.45-.2-.675-.3C204.188,216.556,203.764,216.06,203.335,215.562Zm28.449,16.621c.13.209.246.427.373.638-.854-.8-1.72-1.588-2.574-2.385-.218-.2-.442-.409-.66-.613q.707.523,1.4,1.081c.468.379.927.77,1.383,1.164C231.73,232.107,231.758,232.144,231.784,232.183Zm-15.512-5.762c.119.131.232.261.35.392a12.509,12.509,0,0,0-1.56.033c-.189.018-.377.029-.566.046-.464-.395-.914-.795-1.363-1.2-1.055-1.026-2.144-2.029-3.213-3.04-.317-.3-.615-.619-.926-.925a60.268,60.268,0,0,1,6.323,3.785c.084.059.163.125.247.184C215.805,225.934,216.045,226.172,216.272,226.421Zm-12.7-5.462q1.646,1.812,3.4,3.514a12.99,12.99,0,0,0-1.8.658c-1.03.424-2.057.867-3.108,1.245.167-.46.328-.921.5-1.38q.3-.851.583-1.705a5.112,5.112,0,0,0,.466-2.062C203.6,221.138,203.585,221.045,203.572,220.959Zm18.119,10.958c.027-.109.059-.217.091-.318,1.117.491,2.2,1.046,3.294,1.595q.771.633,1.542,1.268c-.365-.152-.731-.3-1.1-.435-1.4-.5-2.8-1.023-4.234-1.437A1.636,1.636,0,0,0,221.691,231.917ZM187.44,217.571c.219.079.43.168.645.264.233.129.454.256.678.4l.308.234c-.96-.366-1.909-.761-2.848-1.177.187.025.374.049.565.086A6.644,6.644,0,0,1,187.44,217.571Zm-4.833,1.787c-.13-.1-.261-.2-.384-.309.009-.017.025-.037.036-.059s.015-.015.023-.026c.364.191.735.383,1.107.569-.2-.033-.394-.071-.59-.115l.22.043C182.881,219.428,182.744,219.4,182.607,219.358Zm-10.131-13.944c.19-.053.379-.1.573-.141.086-.013.178-.019.269-.026.12,0,.239,0,.352.009.384.039.758.1,1.136.172.648.146,1.291.3,1.944.431l-.2-.039c.183.041.372.078.555.119a.064.064,0,0,1-.025-.011c.489.113.973.213,1.468.321a24.137,24.137,0,0,1-2.325.887c-.267.074-.538.142-.812.2-.378.059-.746.1-1.129.129l-.418-.009c-.508-.164-1.022-.33-1.532-.483-.017-.033-.028-.071-.044-.111q-.07-.246-.121-.491c-.038-.271-.069-.541-.1-.817C172.2,205.5,172.335,205.459,172.476,205.414Zm.025,9.428c.355-.6.719-1.2,1.015-1.837.7.586,1.4,1.147,2.113,1.694a7.422,7.422,0,0,0,.026.8,7.088,7.088,0,0,0,.162,1.081c-1.181.468-2.378.9-3.579,1.31l-.859-.188a3.79,3.79,0,0,0,.155-1.245Q172.014,215.647,172.5,214.842Zm-5.378,1.927.081-.07c.026.034.046.069.071.1Zm-1.849,2.534-.163.086c-.233.116-.46.234-.688.358-.292.022-.584.042-.875.058.28-.231.556-.467.835-.7Zm-1.333,3.89c-.355.621-.71,1.247-1.064,1.868-.42.741-.861,1.471-1.3,2.2-.183.294-.367.595-.535.9a2.719,2.719,0,0,0,.177-.667,5.548,5.548,0,0,0-.48-2.877c-.042-.092-.079-.177-.121-.269.151-.037.3-.08.444-.124A25.365,25.365,0,0,0,163.941,223.193Zm-3.2,5.528a7.308,7.308,0,0,0-.4.954,18.4,18.4,0,0,0-.506,2.422,1.56,1.56,0,0,0,.24,1.144.09.09,0,0,0-.031.006,4.915,4.915,0,0,1-.5.052c-.1,0-.2,0-.3-.011a.833.833,0,0,1-.122-.017.089.089,0,0,1-.034-.013c-.006,0-.01-.008-.021-.016a.89.89,0,0,1-.054-.088c-.024-.035-.04-.074-.063-.109a5.578,5.578,0,0,1-.253-.648c-.076-.255-.14-.513-.192-.77-.016-.105-.027-.2-.037-.306-.009-.26-.007-.517.006-.773a3.184,3.184,0,0,0,1.084-.546A5.652,5.652,0,0,0,160.745,228.721ZM168.466,223c-.093.354-.2.706-.32,1.06a21.629,21.629,0,0,1-.9,2.033c-.241.469-.5.922-.781,1.366-.418.363-.831.727-1.255,1.089-.357.3-.719.585-1.095.855.428-.757.9-1.494,1.325-2.256s.866-1.53,1.3-2.293q.741-1.312,1.479-2.615c.119-.026.245-.055.365-.086.007,0,.013,0,.02-.008C168.57,222.429,168.522,222.707,168.466,223Zm-1.131-10.686c-.2-.195-.405-.384-.614-.575.011,0,.03,0,.042,0,.393.011.787.021,1.177.024C167.742,211.945,167.537,212.133,167.335,212.31Zm4.62,10.044c-.147.139-.288.279-.435.419,0-.048.011-.088.014-.135.037-.437.055-.871.051-1.316.243-.073.485-.146.728-.224.149-.048.3-.1.448-.148l.5.11C172.828,221.494,172.4,221.93,171.955,222.354Zm12.737,2.554c-.038.041-.077.087-.115.128-.271.283-.537.573-.809.863-.14-.148-.284-.3-.415-.459-.165-.208-.324-.421-.469-.642s-.282-.463-.423-.7A13.745,13.745,0,0,0,184.692,224.908Zm5.945,2.623c.437-.707.867-1.41,1.3-2.112.045-.075.1-.155.141-.23.387.015.774.03,1.156.038Q191.944,226.39,190.637,227.531Zm4.968-8.418c.177.076.347.158.522.246.3.154.593.313.876.494.126.09.256.193.38.295a.27.27,0,0,0,.047.039.245.245,0,0,1-.043.034,5.871,5.871,0,0,1-.492.372,1.032,1.032,0,0,1-.148.085.332.332,0,0,1-.085.032c-.551-.125-1.1-.256-1.656-.4.187-.372.367-.745.552-1.111-.031.066-.069.137-.1.2C195.508,219.3,195.556,219.212,195.605,219.113Zm6.049-.326a1.782,1.782,0,0,0-.351-.014,1.845,1.845,0,0,0-.142-.165c-.023-.1-.045-.2-.075-.3s-.063-.2-.092-.294C201.213,218.276,201.435,218.528,201.654,218.787Zm32.481,18.282c-.113-.1-.232-.19-.346-.286a.881.881,0,0,0,.3-.411c.02.039.041.076.06.115l.441,1C234.439,237.346,234.292,237.2,234.135,237.069Zm-69.067-22.811a11.013,11.013,0,0,0-2.56,1.46c-.8-.219-1.609-.433-2.413-.65.487-.689.974-1.372,1.482-2.045l.66-.9c.321.2.641.407.955.611.506.353.986.719,1.449,1.115h0C164.786,213.981,164.927,214.117,165.068,214.258Zm-15.557-2.037-.4-.107c.149-.28.307-.555.441-.842.086-.193.17-.381.25-.575A8.686,8.686,0,0,0,149.511,212.221Zm-5.672-3.676c-.658.5-1.308,1-1.964,1.5l-.692-.208c1.116-.556,2.206-1.164,3.292-1.785C144.263,208.213,144.05,208.381,143.839,208.545Zm-24.45-.118c.083-.117.166-.238.255-.353.186.036.377.079.568.117-.026-.006-.053-.013-.077-.021.052.01.1.026.155.036a.77.77,0,0,1,.126.03c-.262.177-.527.366-.769.564-.266.225-.536.443-.807.666-.071.058-.137.117-.208.175C118.885,209.234,119.136,208.833,119.389,208.427Zm28.742,21.35c-.16-.134-.322-.266-.483-.4.535.141,1.074.272,1.616.4,1.25.3,2.495.652,3.759.878a16.629,16.629,0,0,0,2.525.274c0,.126,0,.253,0,.379a7.252,7.252,0,0,0,.684,2.835c-.132-.044-.265-.077-.4-.123a27.97,27.97,0,0,1-2.607-1.159c-1.033-.548-2.057-1.113-3.1-1.657-.293-.153-.586-.308-.88-.461C148.88,230.42,148.509,230.1,148.131,229.777Zm27.294-1.14c-.062-.017-.125-.031-.187-.047,1.062-1.655,2.109-3.318,3.188-4.963a9.009,9.009,0,0,0,.457,1.138,13.177,13.177,0,0,0,2.063,3.19c.147.166.3.327.451.489-.175.188-.356.381-.538.573a8.355,8.355,0,0,0-.96-.306A9.526,9.526,0,0,0,175.425,228.637Zm20.189,1.408a11.8,11.8,0,0,0-1.269-.952q.693-.618,1.387-1.234c.645-.576,1.286-1.16,1.922-1.744.35-.322.694-.645,1.04-.974-.07.208-.146.415-.227.615a4.817,4.817,0,0,0-.4,1.218,3.874,3.874,0,0,0,.021,1.371,2.556,2.556,0,0,0,.434,1.044,2.486,2.486,0,0,0,.849.723,2.793,2.793,0,0,0,.392.147,15.27,15.27,0,0,0-2.813,1.029C196.514,230.855,196.071,230.435,195.614,230.045Zm-37.663-27.684c.055,0,.109,0,.163,0,.264.027.527.067.788.111.344.084.679.18,1.018.288q.462.169.9.372a18.716,18.716,0,0,1,1.8,1.087.512.512,0,0,0-.044-.034l.056.036.023.016-.007-.007.041.03.017.011-.006,0c.325.235.647.479.963.729-.389-.07-.773-.132-1.163-.19-.361-.058-.725-.129-1.095-.2a10.541,10.541,0,0,0-2.716-.286,4.368,4.368,0,0,0-1.463.34A8.258,8.258,0,0,0,156,205.4c-.028.018-.061.036-.089.055a1.658,1.658,0,0,0-.7.794,6.386,6.386,0,0,0-2.777.931,5.964,5.964,0,0,0-1.3,1.03,5.767,5.767,0,0,0-.807,1.193c-.069.137-.137.274-.194.412.05-.164.095-.335.134-.5a14.158,14.158,0,0,0,.169-2.049,1.52,1.52,0,0,0-1.268-1.536,1.465,1.465,0,0,0-.645.02c.572-.322,1.143-.637,1.719-.951,1.01-.44,2.019-.88,3.049-1.274.358-.137.719-.264,1.076-.4Q156.149,202.716,157.951,202.361Zm-21.9,3.515a22.094,22.094,0,0,0,2.876.852c-.59.257-1.2.5-1.81.7a10.1,10.1,0,0,1-1,.245c-.221.023-.447.045-.672.061-.144,0-.3,0-.442-.007-.106-.014-.205-.028-.3-.047-.247-.06-.491-.131-.739-.209-.218-.084-.433-.18-.653-.283s-.411-.236-.615-.359c-.757-.549-1.443-1.186-2.139-1.8-.771-.731-1.529-1.472-2.295-2.2.633.266,1.267.533,1.916.762q1.209.43,2.441.781A35.715,35.715,0,0,0,136.049,205.876Zm-16.04,10.582c.121-.192.248-.383.371-.582,1.254-1.3,2.5-2.609,3.677-3.989a21.746,21.746,0,0,0,1.708-2.1c1.087.361,2.178.71,3.271,1.073-.208.145-.419.3-.619.468-.5.389-1,.772-1.491,1.162-.867.665-1.735,1.337-2.6,2.008-1.041.794-2.074,1.6-3.1,2.4s-2.026,1.6-3.069,2.373C118.779,218.343,119.393,217.406,120.009,216.458Zm2.282,3.448c1.043-.8,2.074-1.6,3.106-2.409.706-.546,1.418-1.092,2.125-1.644q.825-.633,1.643-1.266c.458-.348.9-.712,1.364-1.061-.151.283-.3.572-.448.855-.6,1.161-1.267,2.292-1.918,3.425-.571.993-1.108,2-1.641,3.017a.42.42,0,0,0-.041.088c-1.029-.23-2.058-.459-3.093-.66-.416-.081-.833-.161-1.251-.231C122.186,219.982,122.242,219.945,122.291,219.906Zm69.7-18.556q1.607.825,3.175,1.717a19.935,19.935,0,0,0-2.8-.494c-1.284-.987-2.57-1.968-3.912-2.87-.032-.022-.065-.042-.1-.063q1.931.877,3.826,1.814C192.123,201.418,192.057,201.387,191.992,201.35ZM110.985,195.6c.528-.4,1.07-.788,1.633-1.153.054-.032.109-.069.171-.1.225.035.448.073.67.116.082.016.163.032.245.05.539.128,1.062.278,1.587.446a19.128,19.128,0,0,1,1.949.854c.812.425,1.615.867,2.413,1.318-.428-.016-.857-.021-1.29-.006-.629.022-1.255.069-1.879.135a25.233,25.233,0,0,0-6.549.114l-.064-.049C110.238,196.743,110.613,196.173,110.985,195.6Zm-10.911,2.814a28.12,28.12,0,0,1,2.43-1.826,21.951,21.951,0,0,1,2.325-1.289c-.819.976-1.635,1.959-2.453,2.937q-.806.31-1.6.655c-.805.348-1.605.725-2.4,1.116C98.924,199.457,99.487,198.923,100.074,198.412ZM92.941,200.1a25.919,25.919,0,0,1,1.777-2.311c-.347.521-.689,1.048-1.042,1.567.033-.047.068-.1.108-.153-.068.1-.134.2-.2.291-.182.259-.357.513-.539.771-.311.366-.616.733-.922,1.1C92.386,200.949,92.66,200.522,92.941,200.1Zm-9.108,9.787-.165.135c.093-.121.182-.246.278-.365C83.908,209.737,83.872,209.814,83.833,209.891Zm25.809,14.225c.114,0,.23-.009.344-.011-1.1.044-2.2.137-3.292.213a61.255,61.255,0,0,0-6.462.78c-1.081.192-2.161.379-3.231.639s-2.139.515-3.2.806c-2.231.617-4.462,1.234-6.709,1.806-2.422.615-4.86,1.246-7.318,1.705-.457.067-.918.122-1.386.157l-.328-.009c-.235-.028-.474-.062-.707-.1-.281-.067-.566-.14-.839-.217,0-.007,0-.007-.011-.009a.627.627,0,0,0-.057-.046.758.758,0,0,1-.075-.075.562.562,0,0,0-.046-.075c-.009-.013-.017-.033-.031-.054a.848.848,0,0,0-.04-.1c-.016-.069-.033-.138-.044-.206-.03-.216-.048-.429-.061-.642-.006-.373,0-.749.026-1.122.008-.065.023-.128.031-.192.149.04.3.076.451.106.318.062.641.1.958.132.466.042.939.11,1.416.124,1.017.042,2.028.058,3.051.041a26.828,26.828,0,0,0,5.592-.811c1.011-.236,2.021-.466,3.033-.7q.509-.117,1.031-.214a1.472,1.472,0,0,0,1.833.416c.052-.02.105-.046.158-.071-.013,0-.027.013-.04.016l.08-.039a.272.272,0,0,0,.046-.021l.025-.011-.01,0a.169.169,0,0,1,.031-.013h0c.743-.338,1.5-.656,2.241-1,1.985-.275,3.978-.53,5.953-.879-.013,0-.031.006-.044.01,1.239-.2,2.488-.393,3.729-.608.992-.138,1.983-.3,2.971-.444q2.225-.333,4.455-.486c0,.025,0,.054,0,.078a1.4,1.4,0,0,0,.327.95C112.2,224,110.922,224.058,109.642,224.116Zm12.309-.563c-1.268.04-2.531.125-3.792.188-.3.014-.593.029-.894.036.055,0,.1,0,.15,0l-.876.039c.383-.175.763-.355,1.127-.565.19-.114.38-.226.565-.346l.455.034c1.361.118,2.7.335,4.044.582C122.47,223.532,122.21,223.544,121.951,223.553ZM164.782,240.1c.38-.234.755-.477,1.12-.735-.02.134-.046.267-.071.4,0,.022,0,.043,0,.065l-.067.024C165.436,239.952,165.11,240.029,164.782,240.1Z"/></svg>