<svg xmlns="http://www.w3.org/2000/svg" width="464.325" height="473.583" viewBox="0 0 464.325 473.583"><path d="M147.807,142.933l.043.034.012.009Z"/><path d="M253.571,75.765l.076.009.089.009Z"/><path d="M245.2,309.345c.011-.007.024-.012.035-.019l.032-.02Z"/><path d="M105.452,381.058h.025Z"/><path d="M5.367,323.638c.02-.021.043-.041.063-.062l.078-.079Z"/><path d="M230.266,237.542l-.023.018-.019.015Z"/><path d="M306.072,71.894l.007.027,0,.014Z"/><path d="M35.14,228.611c.024-.011.05-.019.074-.029l.138-.06Z"/><path d="M60.672,230.043h0Z"/><polygon points="128.827 89.246 128.827 89.245 128.828 89.244 128.827 89.246"/><path d="M126.257,93.875l.03-.054.013-.024.015-.027C126.3,93.805,126.276,93.84,126.257,93.875Z"/><path d="M36.439,156.83l.072-.012c.045-.007.089-.017.135-.024Z"/><path d="M131.622,75.394c-.055-.007-.109-.016-.163-.022l-.067-.008C131.469,75.376,131.545,75.382,131.622,75.394Z"/><path d="M464.142,100.765a2.031,2.031,0,0,0-.895-.942,5.587,5.587,0,0,0-2.208-.53c-2.4-.239-4.824-.312-7.238-.324a2.164,2.164,0,0,0-1.11,0c-2.637,0-5.279.027-7.922-.007q-3.851-.045-7.708-.2c-5.323-.218-10.64-.553-15.963-.766q-7.959-.309-15.922-.359c-3.057-.024-6.107-.035-9.163-.064-2.4-.018-4.8-.106-7.19-.218-2.616-.115-5.231-.259-7.845-.414-.5-.1-1-.209-1.5-.326-2.125-.507-4.245-1.043-6.371-1.525-1.629-.365-3.261-.728-4.9-1.057-.4-.54-.766-1.115-1.142-1.672-.407-.587-.84-1.164-1.218-1.771-.913-1.528-1.82-3.055-2.739-4.571.041.059.076.123.118.189-.483-.807-.9-1.655-1.325-2.492q-.666-1.312-1.263-2.652-.21-.488-.416-.977c-.151-2.01-.246-4.025-.3-6.038l0,.023a115.042,115.042,0,0,1,.482-12.44c.411-3.02.783-6.046,1.173-9.071.041-.342.129-.671.2-1.007.194-.954.383-1.908.577-2.856.293-1.449.608-2.9.881-4.346.331-1.153.635-2.316.956-3.479.353-1.29.73-2.574,1.066-3.869.088-.318.218-.63.324-.942q.423-1.2.836-2.4.425-1.22.848-2.45c.106-.308.2-.631.321-.938.594-1.4,1.19-2.8,1.77-4.214,1.889-2.937,3.893-5.8,5.752-8.756q.553-.878,1.087-1.768l1.569-.311c1.96-.389,3.927-.772,5.882-1.208,2.279-.506,4.581-.965,6.854-1.536l.674-.169c1.96-.176,3.921-.336,5.877-.5,2.927-.235,5.847-.453,8.774-.624a1.58,1.58,0,0,0,1.419-1.7,1.512,1.512,0,0,0-.762-1.187q1.461-.4,2.92-.8c1.6-.442,3.209-.865,4.8-1.348,1.143-.354,2.309-.66,3.433-1.066a10.984,10.984,0,0,0,2.591-1.213,2.347,2.347,0,0,0,.8-1,2,2,0,0,0,.041-1.708,1.9,1.9,0,0,0-1.3-1.042l-.336-.071a6.349,6.349,0,0,0-2,.094c-.418.047-.842.089-1.266.141-.942.107-1.884.219-2.832.33q-3.207.372-6.419.748c-4.634.554-9.268,1.107-13.9,1.7-8.65,1.113-17.271,2.438-25.921,3.557-8.75,1.136-17.518,2.2-26.233,3.592q-7.262,1.165-14.527,2.331c-4.693.766-9.4,1.455-14.1,2.138-3.868.553-7.755,1.013-11.629,1.507-4.629.589-9.263,1.178-13.88,1.832q-7.365,1.05-14.709,2.2c-4.145.642-8.291,1.29-12.442,1.89l.064,0c-3.419.368-6.827.824-10.235,1.235-1.132.115-2.278.177-3.413.266-1.908.153-3.816.312-5.724.459-2.827.224-5.671.283-8.5.418-1.79.082-3.586.159-5.376.236-2.214.094-4.434.141-6.648.288q-4.161.284-8.332.56c-1.885.129-3.757.311-5.636.477q-7.365.653-14.727,1.33c-1.813.165-3.627.318-5.44.477-2.226.189-4.458.342-6.678.589l.033,0-.264.028.055-.007-1.355.149.028,0c-.721.076-1.438.152-2.16.233l.026,0c-.476.052-.952.1-1.433.151-.158.017-.321.026-.481.047-.379.009-.768.09-1.132.13-.11.011-.218.022-.323.036l-.066,0c-.619.069-1.244.136-1.869.2h0l-.082.009.035,0c-.2.023-.4.045-.6.062l.206-.017-.612.063-.224.026H168.7l-.186.022c.039-.007.077-.011.115-.015-.058,0-.117.011-.176.019l.043,0c-1.207.13-2.409.342-3.61.524q-3.126.459-6.265.925c-1.661.241-3.309.541-4.958.824-2.5.43-5,.853-7.5,1.3-2.285.4-4.593.725-6.89,1.084-1.772.282-3.538.583-5.311.818-4.628.613-9.257,1.207-13.885,1.832-2.32.311-4.646.577-6.96.93-2.567.388-5.135.806-7.7,1.213-1.7.264-3.38.541-5.064.865-2.768.524-5.535,1.06-8.309,1.584-2.119.4-4.222.907-6.33,1.361-1.778.382-3.556.759-5.335,1.165q-7.242,1.644-14.479,3.345l-1.3.309q-2.346.133-4.691.286c-4.4.288-8.8.606-13.184,1.107l-4.6.53c-.789.094-1.572.23-2.355.353l-1.372.216c-1.67-.131-3.343-.247-5.016-.307a49.772,49.772,0,0,0-8.927.276,13.153,13.153,0,0,0-3.362.79,7.713,7.713,0,0,0-1.3.659,7.431,7.431,0,0,0-1.066.854,2.207,2.207,0,0,0-.418.554,2.9,2.9,0,0,0-.383.877,2.852,2.852,0,0,0-.029.6c-3.884,1.029-7.734,2.186-11.578,3.335A2.368,2.368,0,0,0,4.8,60.729a2.342,2.342,0,0,0,1.13,1.354,2.452,2.452,0,0,0,1.814.164c1.5-.388,2.988-.794,4.477-1.2a7.3,7.3,0,0,0-.285,1.132c-.077.453-.159.906-.23,1.365a52.647,52.647,0,0,0-.442,5.353c-.164,4.111-.294,8.226-.435,12.343-.295,8.815-.672,17.624-.954,26.445-.065,1.972-.106,3.939-.136,5.917-.035,2.1-.082,4.2-.082,6.3.006,2.326-.018,4.652.012,6.972q.038,3.557.083,7.113Q8.664,144.483,7.717,155q-.324,3.627-.649,7.251a1.225,1.225,0,0,0-.193,2.159c-.525,5.871-1.043,11.742-1.519,17.618q-.37,4.568-.736,9.133c-.124,1.484-.2,2.973-.289,4.469q-.273,4.6-.547,9.21c-.088,1.513-.124,3.027-.171,4.54q-.132,4.442-.265,8.885c-.053,1.678-.029,3.357-.029,5.041v5.064c.006.754-.018,1.508.006,2.261.064,2.538.141,5.076.212,7.608q.176,6.386.535,12.766c.248,4.523.472,9.045.7,13.567.224,4.328.412,8.656.689,12.978q.257,3.9.512,7.808c.154,2.355.395,4.7.595,7.054.342,4.122.783,8.233,1.213,12.348l.078.751q0,1.821-.007,3.642c0,1.867.035,3.728.059,5.594q.045,3.194.1,6.39c-.239.223-.49.433-.727.66-.621.591-1.262,1.168-1.857,1.78-.916.927-1.843,1.845-2.725,2.806a18.926,18.926,0,0,0-1.984,2.3,3.156,3.156,0,0,0-.713,2.008,2.427,2.427,0,0,0,.8,1.5,2.922,2.922,0,0,0,2.1.778,6.92,6.92,0,0,0,1.819-.29,19.747,19.747,0,0,0,2.467-.83c.025-.011.049-.025.074-.035q.441,11.64.858,23.276c.153,4.611.329,9.221.5,13.832.171,4.575.477,9.138.736,13.708.2,3.492.449,6.979.7,10.47q0,1.19,0,2.378,0,4.24.006,8.486c0,1.908.071,3.816.118,5.723.052,1.961.07,3.934.188,5.9.159,2.75.33,5.494.489,8.243.041.695.118,1.39.176,2.085q.2,2.342.4,4.676.247,2.835.494,5.664c.2,2.226.413,4.452.583,6.678.189,2.449.342,4.9.554,7.348.206,2.367.353,4.746.618,7.107a36.6,36.6,0,0,0,1.626,8.321,2.446,2.446,0,0,0,.858,1.216q.145,1.332.29,2.665c-.012-.077-.018-.16-.03-.236.1.93.171,1.86.3,2.791a1.746,1.746,0,0,0,1.738,1.439,1.6,1.6,0,0,0,.293-.026,1.762,1.762,0,0,0,1.443-1.8c-.089-1.8-.065-3.609-.036-5.411q.054-2.969.13-5.948c-.006.083-.006.159-.012.236.012-.336.018-.671.029-1.007v.023c.015-.578.033-1.156.048-1.735v0c.027-1,.059-2.007.083-3v.008l0-.072c0-.052,0-.1,0-.157v.024q.075-2.608.112-5.218c.018-1.572-.006-3.145-.018-4.722-.012-1.526-.07-3.063-.129-4.587q-.1-2.439-.2-4.865-.194-4.751-.335-9.5c-.077-2.72-.106-5.446-.2-8.166-.153-4.452-.312-8.9-.53-13.349-.041-.851-.085-1.7-.127-2.553q1.043-.728,2.107-1.422c.1,1.333.228,2.671.291,4.009.065,1.407.124,2.809.188,4.216.053,1.166.03,2.338.036,3.5.011,2.293-.058,4.579-.116,6.866-.081,1.993-.151,3.983-.238,5.971-.1,2.173-.217,4.346-.294,6.524q-.132,3.384-.253,6.766c-.035.948-.018,1.9-.024,2.856-.006,1.272-.017,2.549-.023,3.828-.006.659.035,1.324.058,1.99q.1,2.19.189,4.38c.082,2,.312,3.981.489,5.972.165,1.866.406,3.727.636,5.588.276,2.237.547,4.469.907,6.689a1.29,1.29,0,0,0,1.271,1.054,1.16,1.16,0,0,0,.212-.018,1.3,1.3,0,0,0,1.037-1.484c-.608-3.809-1.018-7.651-1.444-11.489-.157-1.78-.313-3.566-.47-5.346-.035-.453-.041-.912-.059-1.366l-.141-3.374c-.036-.742-.065-1.49-.094-2.231-.024-.53,0-1.067.011-1.6.012-1.8.03-3.592.036-5.383v.177q.071-2.005.153-4.01c.17-4.552.4-9.1.583-13.661.088-2.22.135-4.445.188-6.666.024-.971.006-1.943,0-2.915-.006-.912.012-1.825-.029-2.732-.059-1.389-.124-2.779-.183-4.168-.047-1.043-.147-2.085-.223-3.127-.057-.786-.131-1.572-.2-2.357a125.516,125.516,0,0,1,12.511-6.391c1.535-.666,3.075-1.32,4.632-1.935.571-.23,1.143-.465,1.731-.666q1.874-.652,3.745-1.3c2.312-.8,4.629-1.586,6.935-2.405q5.445-1.572,10.886-3.156,1.929-.085,3.86-.127l-.038,0c2.051-.04,4.107-.083,6.157-.031q2.605.062,5.211.129c3.3.076,6.6.165,9.9.242.654.017,1.313.088,1.967.129,1.778.13,3.551.248,5.329.377l6.03.424c.852.058,1.71.1,2.562.179q7.39.843,14.786,1.625c1.354.153,2.7.381,4.05.569q3.6.5,7.214,1.019c1.059.147,2.131.265,3.185.453,1.743.312,3.48.612,5.223.924q3.568.628,7.137,1.261c.854.147,1.684.323,2.526.523q3.384.813,6.76,1.608c1.4.333,2.791.681,4.189,1,1.715.567,3.447,1.094,5.168,1.638,1.955.619,3.9,1.249,5.865,1.861.418.136.83.318,1.242.483,1.154.453,2.309.9,3.469,1.354,1.518.6,3.042,1.189,4.565,1.788a6.791,6.791,0,0,1,.343.708c.044.129.086.257.126.385.011.061.023.122.035.183-.042.285-.071.556-.094.858a2.581,2.581,0,0,0,.083.671,1.6,1.6,0,0,0,3.079.153,5,5,0,0,0,.188-1.349c1.88.811,3.762,1.624,5.618,2.486,3.062,1.418,6.123,2.829,9.165,4.287l.472.584,2.809,3.48c.418.512.824,1.037,1.254,1.543.413.486.827.975,1.242,1.46.191.294.386.584.576.879,2.126,3.3,4.163,6.66,6.183,10.022-.036-.059-.071-.112-.106-.171.247.4.489.807.73,1.208-.035-.06-.071-.112-.106-.171.7,1.165,1.348,2.39,2.155,3.486a1.646,1.646,0,0,0,1.316.677,1.539,1.539,0,0,0,.88-.277,1.585,1.585,0,0,0,.435-2.129c.034,0,.067.021.1.021a1.458,1.458,0,0,0,.448-.072,1.831,1.831,0,0,0,.8-.542,1.344,1.344,0,0,0,.177-1.478c-.589-1.307-1.148-2.62-1.82-3.886-.541-1.031-1.089-2.056-1.631-3.08-.683-1.3-1.348-2.6-2.066-3.881q-3.243-5.749-6.484-11.511-.98-1.74-1.986-3.466a1.44,1.44,0,0,0-.175-.409c-.3-.484-.584-.968-.9-1.436q-.867-1.486-1.733-2.974l-3.8-6.554c-.489-.842-.96-1.7-1.466-2.532.022.034.04.069.06.1q-2.565-4.291-5.125-8.588,1.113-2.655,2.223-5.314c.348-.837.742-1.655,1.113-2.479.736-1.649,1.478-3.292,2.215-4.941.291-.65.589-1.3.889-1.947q.322-.6.643-1.208c1.408-2.466,2.814-4.93,4.338-7.326s3.185-4.743,4.9-7.032a111.67,111.67,0,0,1,8.789-10.208,157.151,157.151,0,0,1,13.8-12.361c3.043-2.4,6.148-4.728,9.334-6.925q4.482-3.081,9.083-5.958c3.508-2,6.994-4.052,10.485-6.09,1.189-.689,2.361-1.425,3.58-2.078,1.4-.754,2.815-1.5,4.222-2.25q2.4-1.266,4.789-2.541,3.458-1.24,6.982-2.287l-.195.053c3.221-.925,6.466-1.784,9.758-2.4q3.365-.627,6.736-1.26c3.221-.606,6.477-1.048,9.692-1.684l.05-.01c.2.172.388.345.582.52a6.012,6.012,0,0,0,.829.821A1.692,1.692,0,0,0,308.506,292c1.767-.409,3.518-.884,5.239-1.444q4.65,3.375,9.3,6.751,5.609,4.063,11.206,8.132c1.4,1.018,2.8,2.055,4.222,3.044q5.582,3.9,11.182,7.79,1.029.714,2.051,1.431c1.067,1.181,2.123,2.372,3.208,3.535a1.569,1.569,0,0,0,1.14.494,1.475,1.475,0,0,0,.988-.377,2.819,2.819,0,0,0,.875.155,1.8,1.8,0,0,0,1.36-.556,1.485,1.485,0,0,0-.012-2.073c-.324-.318-.648-.63-.978-.936-1.042-.978-2.09-1.943-3.179-2.868-1.166-1-2.4-1.9-3.639-2.8q-.995-.726-1.988-1.456-2.534-2.826-5.06-5.658a4.056,4.056,0,0,0-.76-.987c-.176-.159-.357-.312-.54-.463q-.342-.381-.685-.761c-.971-1.078-1.925-2.173-2.932-3.215q-2.446-2.527-4.882-5.065c-.912-.948-1.884-1.819-2.844-2.714q-2.3-2.137-4.593-4.269c-.365-.342-.765-.66-1.148-.99l-2.673-2.3-.116-.1a2.263,2.263,0,0,0,.031-.6,3.49,3.49,0,0,0-.353-1.354,2.348,2.348,0,0,0-.818-.836,3.786,3.786,0,0,0-1.366-.525,11.2,11.2,0,0,0-1.518-.151q-2.709-2.333-5.405-4.677c.063-.481.122-.961.151-1.442.023-.419.047-.837.071-1.261.1-1.849.206-3.692.312-5.541.123-2.249.194-4.5.306-6.748l.114-2.237c.313-1.332.628-2.663.928-4,.8-3.528,1.454-7.084,2.4-10.576.506-1.843,1.019-3.675,1.6-5.494.606-1.92,1.207-3.845,1.778-5.771a90.947,90.947,0,0,0,2.3-10.634c.329-1.938.624-3.881,1.018-5.806.167-.824.333-1.651.5-2.476.489-1.321.937-2.658,1.4-3.99q.831-2.367,1.655-4.734,1.193-3.437,2.391-6.872c.547-1.572,1.142-3.127,1.719-4.681.559-1.525,1.1-3.056,1.708-4.564q1.315-3.294,2.644-6.589c.694-1.725,1.472-3.427,2.208-5.135q.909-2.136,1.866-4.245,1.29-2.826,2.574-5.653c.906-1.978,1.854-3.934,2.773-5.9,1.449-3.086,2.909-6.171,4.281-9.292.742-1.69,1.519-3.368,2.208-5.088.483-1.218.978-2.437,1.466-3.656.23-.583.477-1.16.695-1.749q.257-.7.515-1.4a1.681,1.681,0,0,0,.973.32c.039,0,.078,0,.118,0a2.175,2.175,0,0,0,1.6-.748,5.929,5.929,0,0,0,.894-1.714c.3-.723.709-1.409,1.067-2.1.229-.436.459-.878.688-1.308.648-1.231,1.29-2.455,1.961-3.674l-.006.01c.649-1.138,1.287-2.284,1.927-3.429,1.8-1.511,3.627-2.984,5.383-4.544.877-.776,1.743-1.578,2.6-2.378.683-.648,1.372-1.29,2.049-1.955.212-.218.424-.436.636-.66.294-.3.583-.6.871-.906a4.8,4.8,0,0,0,1.243-2.214,1.875,1.875,0,0,0-.845-1.852c1.153-1.075,2.338-2.116,3.573-3.1.2-.157.411-.3.614-.458a2.054,2.054,0,0,0,.917.224,1.9,1.9,0,0,0,1.89-2.17l.016-.01c.244-.141.49-.277.737-.411.325.024.65.047.975.072l1.48.271c1.878.347,3.774.6,5.664.889.948.147,1.9.323,2.85.436l2.821.335c1.178.136,2.355.271,3.533.412.3.036.589.059.895.083.671.058,1.343.135,2.014.147.124,0,.245,0,.365,0,.389,0,.766-.008,1.166-.025a9.116,9.116,0,0,0,1.578-.3,1.5,1.5,0,0,0,1.087-1q3.222.059,6.445.117c.607.01,1.219.032,1.827.032.118,0,.235,0,.352,0q2.154-.043,4.31-.076,2.9-.045,5.8-.1c.746-.016,1.5-.008,2.243-.047h0l.056,0c.05,0,.1,0,.15-.009l-.051,0c.553-.026,1.1-.059,1.653-.09l-.042,0c2.617-.139,5.239-.277,7.861-.432.568-.028,1.131-.06,1.7-.093l-.032,0c1.034-.06,2.063-.163,3.092-.255,1.449-.129,2.9-.27,4.34-.447a81.339,81.339,0,0,0,8.161-1.3,24.088,24.088,0,0,0,5.294-1.636,7.225,7.225,0,0,0,1.584-.984,2.415,2.415,0,0,0,.748-1.107A2.544,2.544,0,0,0,464.142,100.765ZM328.1,168.176c-.665,1.248-1.242,2.544-1.855,3.822q-1.89,3.93-3.786,7.872c-1.566,3.28-2.944,6.649-4.234,10.04-1.643,4.33-3.1,8.731-4.323,13.2q-.978,2.822-1.96,5.641c-.424,1.231-.877,2.45-1.23,3.7q-1.149,4.028-2.3,8.055c-.365,1.273-.724,2.55-1.089,3.822-.118.418-.248.831-.348,1.254q-.821,3.5-1.637,7c-.306,1.319-.618,2.644-.924,3.963-.094.383-.189.759-.253,1.148q-.7,3.9-1.39,7.814c-.141.789-.336,1.59-.424,2.39-.094.784-.183,1.561-.277,2.344q-.414,3.578-.83,7.143c-.112.936-.135,1.89-.194,2.826-.089,1.449-.183,2.892-.271,4.334l0,.067c-1.665-1.468-3.325-2.943-5-4.394s-3.345-2.885-5.017-4.328c-1-.86-2.032-1.666-3.05-2.49l-5.3-4.311c-.913-.742-1.861-1.442-2.8-2.155-2.75-2.1-5.482-4.222-8.273-6.277-2.886-2.12-5.753-4.264-8.668-6.354q-4.486-3.224-8.962-6.459l-5.035-3.657c-.726-.529-1.449-1.063-2.172-1.594l.1-.747a7.776,7.776,0,0,0,1.73-3.727,2.283,2.283,0,0,0-.215-1.156,1.884,1.884,0,0,0,.244-.664,1.561,1.561,0,0,0-.8-1.625c.167-1.256.337-2.511.5-3.768.4-3.014.9-6.011,1.354-9.014q1.1-7.173,2.185-14.357c.118-.777.294-1.548.459-2.325q.761-3.684,1.531-7.367.858-4.107,1.708-8.214c.194-.925.389-1.849.577-2.773.063-.3.116-.6.184-.9.294-1,.562-2.007.841-3.008q.891-3.2,1.784-6.383l1.749-6.253c.271-.983.565-1.961.812-2.95-.017.076-.035.147-.053.223.674-2.158,1.371-4.307,2.071-6.456.4-.714.794-1.431,1.182-2.152.25-.415.536-.816.8-1.225l2-3.092c.594-.918,1.189-1.843,1.79-2.761.182-.283.353-.565.553-.836q3.211-4.455,6.4-8.911c.492-.564.928-1.191,1.393-1.783L280.3,116.6c1.352-1.725,2.731-3.434,4.051-5.187l-.023.035c.506-.6.977-1.231,1.46-1.843,2.879-3.645,5.788-7.261,8.656-10.912.542-.683,1.048-1.395,1.572-2.1.433-.573.857-1.154,1.285-1.73.055.011.108.026.163.034.244.067.5.1.744.149.12.025.241.048.361.072-.027.565-.049,1.129-.077,1.69-.035.73-.047,1.46-.017,2.185a3.079,3.079,0,0,0,.8,2.326,1.867,1.867,0,0,0,2.309,0,2.923,2.923,0,0,0,.6-.63q.123,1.329.275,2.656a1.484,1.484,0,0,0,1.456,1.33c.042,0,.085,0,.128-.006a1.478,1.478,0,0,0,1.325-1.584c-.258-2.229-.426-4.464-.575-6.7.654.124,1.311.231,1.963.345,1.555.277,3.1.56,4.658.837,1.843.323,3.686.624,5.535.918,5.223.83,10.446,1.608,15.669,2.432q8.931,1.4,17.866,2.774c1.475.227,2.955.434,4.437.637l-.23.023c-1,.1-2,.212-3,.312a1.6,1.6,0,0,0-.147,3.174c1.46.23,2.927.389,4.4.5,1.307.1,2.62.2,3.933.2.481,0,.962-.013,1.444-.018.188.463.374.928.566,1.389q.623,1.5,1.247,3c-.214.332-.442.655-.641.994a47.737,47.737,0,0,0-3.268,6.93q-.368.942-.73,1.882a72.268,72.268,0,0,0-9.251,10.5q-2.747,3.621-5.258,7.413c-.7,1.042-1.4,2.085-2.043,3.162q-2.156,3.577-4.316,7.166c-.683,1.131-1.367,2.267-2.05,3.4-.223.371-.459.742-.665,1.124Q331.5,161.822,328.1,168.176ZM178.577,273.538l.023-.032-.13.165q3.135-4.128,6.472-8.091a1.562,1.562,0,0,0-.218.855c-.336.366-.679.726-1.011,1.1-.842.942-1.673,1.9-2.5,2.849-.683.8-1.407,1.573-2.037,2.409.047-.065.094-.123.141-.188C179.069,272.911,178.826,273.226,178.577,273.538Zm-11.941,69.774c.769,1.308,1.572,2.594,2.357,3.891q2.544,4.214,5.094,8.415c2.583,4.263,5.143,8.537,7.744,12.788q2.334,3.923,4.672,7.844c-.027.165-.053.331-.078.5-.35-.464-.705-.926-1.045-1.4l-6.985-9.793q-1.685-2.825-3.374-5.651c.035.053.071.112.106.171-1.16-1.961-2.426-3.863-3.621-5.806-1.131-1.832-2.314-3.628-3.427-5.476.035.058.064.118.1.176-.159-.27-.318-.535-.477-.8l.1.17c-.749-1.255-1.5-2.5-2.26-3.758.025.041.05.081.075.119-.223-.371-.447-.742-.671-1.119.022.037.042.074.062.111-3.562-6.249-7.188-12.463-10.814-18.677-.446-.764-.9-1.525-1.344-2.288.14-.449.28-.9.426-1.344,4.474,7.337,8.971,14.665,13.415,22.02C166.671,343.374,166.654,343.343,166.636,343.312ZM150.65,330.728l-.019-.032-.008-.015-.01-.015.014.024-.029-.047-.024-.039.01.015-.011-.019,0,.006.012.02.015.023-.015-.024.015.02c-.02-.031-.038-.062-.058-.094.041-.148.085-.294.127-.441l3.369,5.193q2.208,3.4,4.417,6.807c.753,1.172,1.525,2.331,2.273,3.51.147.229.317.447.477.671.506.724,1.018,1.442,1.524,2.167q2.333,3.294,4.664,6.6,2.024,2.86,4.046,5.723.652.927,1.331,1.843l1.312,1.764c.658,1.1,1.314,2.209,1.977,3.307-.035-.052-.07-.112-.106-.17,1.019,1.719,1.961,3.486,2.939,5.229.7,1.242,1.372,2.484,2.049,3.739,1.526,2.825,3.076,5.639,4.627,8.452l-.046.125c-3.286-5.052-6.516-10.137-9.773-15.209-3.987-6.212-8.044-12.384-12.03-18.6q-3.437-5.37-6.843-10.758c-2.08-3.263-4.189-6.515-6.241-9.8Zm-8.4-13.932c.11.036.221.069.332.1.081.134.16.268.241.4-.029-.047-.053-.089-.083-.129l.813,1.342c-.03-.041-.053-.083-.082-.129.111.186.221.368.332.551-.026.094-.056.188-.081.282l0,.014ZM75.675,298.783q-2.082.411-4.142.91c-2.789-.03-5.58.013-8.365.186-2.751.166-5.5.412-8.233.76.149-.067.3-.134.448-.2a52.971,52.971,0,0,1,5.594-1.969c-.047.012-.1.03-.153.041,2.726-.789,5.488-1.5,8.267-2.066,2.813-.578,5.648-1.039,8.483-1.483a40.893,40.893,0,0,1,5.208-.477,34.854,34.854,0,0,1,4.419.18,41.768,41.768,0,0,1,4.92.979c-.053-.017-.112-.029-.165-.047.925.237,1.842.5,2.756.771q-2.277.145-4.552.36C85.308,297.2,80.462,297.829,75.675,298.783ZM17.743,322.292l.037-.019-.156.091-.015.009.009,0-.161.094c-.044.025-.087.05-.13.077l.1-.06c-.318.159-.618.371-.924.553l-.241.148-.1-4.7c1.452-1.039,2.93-2.041,4.458-2.966a88.411,88.411,0,0,1,9.493-4.925l-.024.011c2.511-1.1,5.06-2.091,7.654-2.959q-1.05.743-2.083,1.516-2.817,2.111-5.535,4.358c-1.654,1.38-3.254,2.814-4.827,4.28Q21.518,320.035,17.743,322.292Zm1.809,5.96-.006.014v0Zm-6.644-225.77c.129-4.857.3-9.719.437-14.582.128-4.568.227-9.14.332-13.714l0,.035,0-.143v-.025c.05-1.427.1-2.855.147-4.284.023-.723.047-1.442.088-2.166.053-1.019.083-2.049.224-3.062.094-.654.194-1.307.294-1.961-.006.059-.017.112-.023.171a7.367,7.367,0,0,1,.249-1.033c.058-.137.115-.271.17-.407.056-.093.112-.188.167-.284.056-.074.113-.149.171-.222l.015-.011.115.018.164.082.23.164a7.557,7.557,0,0,1,.585.548c.189.2.379.409.569.615a9.382,9.382,0,0,0-.318,1.364c-.147,1.025-.282,2.067-.347,3.1-.166,2.572-.218,5.155-.255,7.731-.136,1.487-.256,2.979-.336,4.466q-.063,1.116-.122,2.23-.4,3.525-.791,7.057-.759,7.029-1.507,14.073-.162,1.513-.328,3.028.034-1.4.067-2.8ZM360.342,27.707c.2-.757.429-1.5.7-2.233q-.022.057-.048.114c.019-.047.038-.094.058-.141l.007-.018-.007.016c.111-.262.231-.521.365-.776a1.35,1.35,0,0,0,.8.246c-.328.87-.665,1.739-.974,2.622-.359,1.024-.718,2.055-1.084,3.085-.223.642-.465,1.278-.665,1.932-.319,1.062-.65,2.123-.971,3.186q.133-.723.282-1.443C359.266,32.084,359.8,29.9,360.342,27.707ZM292.169,96.666l-.027.032c-.03.04-.06.081-.091.121.026-.037.054-.075.083-.111-.581.683-1.119,1.409-1.678,2.114-1.16,1.459-2.315,2.92-3.481,4.38s-2.331,2.944-3.5,4.416c-.53.666-1.072,1.319-1.584,2,.041-.052.076-.105.118-.158-.307.353-.583.748-.872,1.112-.653.843-1.313,1.685-1.972,2.527-1.5,1.931-3.009,3.851-4.517,5.782-2.073,2.65-3.992,5.423-5.959,8.156-.454.629-.911,1.255-1.357,1.889q.249-.712.5-1.423c.458-1.063.887-2.136,1.331-3.2.4-.965.771-1.942,1.2-2.9,1.614-3.574,3.209-7.166,4.958-10.675q2.692-5.41,5.647-10.7c.256-.4.519-.8.784-1.194.8-1.023,1.589-2.048,2.366-3.085-.029.048-.064.094-.1.142.9-1.088,1.783-2.194,2.668-3.3q1.989.438,3.976.864c1.122.241,2.243.486,3.364.726q-.94,1.256-1.883,2.506Zm-35.546,50.07c-.3.54-.531,1.127-.786,1.689-.55,1.2-1.1,2.387-1.656,3.582q.457-1.479.915-2.963c.147-.477.317-.948.482-1.425q.611-1.785,1.243-3.568c.854-2.374,1.731-4.735,2.673-7.072l-.011.026A152.081,152.081,0,0,1,267,120.884c-.545,1.285-1.06,2.584-1.6,3.87-.253.612-.53,1.219-.754,1.849q-.555,1.6-1.118,3.209c-.53,1.52-1.078,3.039-1.572,4.575q-1.068,3.265-2.119,6.531c-.036.065-.072.129-.107.194-1.043,1.885-2.1,3.763-3.133,5.659Zm44.07,121.483q0,.749,0,1.5-1.927-1.454-3.854-2.906-2.685-2.035-5.363-4.068c-3.466-2.934-6.933-5.865-10.472-8.717-5.758-4.646-11.588-9.2-17.418-13.755-2.573-2.008-5.169-3.987-7.819-5.906q-1.326-.957-2.654-1.907l-.885-.718q-2.154-1.749-4.316-3.5c-.4-.33-.809-.654-1.208-.994q-.094-.674-.19-1.346,2.154,1.57,4.307,3.141,3.082,2.243,6.171,4.469,7.131,5.162,14.2,10.4c1.134.9,2.292,1.755,3.435,2.63l4.893,3.746c.683.523,1.343,1.065,2.008,1.607q2.535,2.067,5.064,4.128c.789.641,1.6,1.271,2.367,1.943,1.431,1.248,2.874,2.485,4.311,3.733q3.409,2.959,6.789,5.965Zm3.372-2.442c.158-2.671.323-5.341.476-8.012.011-.1.023-.2.034-.3l0,.042q.529-4.61,1.048-9.227c-.006.077-.018.153-.023.224.07-.6.2-1.2.312-1.8q.334-1.917.671-3.833c.224-1.29.453-2.579.677-3.869.065-.377.118-.76.206-1.13q.552-2.394,1.1-4.784-.357,4.008-.713,8.016c-.059.7-.153,1.407-.189,2.114-.035.889-.07,1.772-.112,2.662q-.1,2.331-.194,4.651c0,.107-.011.215-.016.323-.023.069-.044.138-.067.207-.359,1.077-.712,2.155-1.077,3.232-.33.978-.6,1.99-.848,2.992a25.351,25.351,0,0,0-.66,3.633,14.7,14.7,0,0,0-.1,2.085c.024.629.065,1.26.13,1.884a18.318,18.318,0,0,0,.7,3.7c.019.058.043.114.062.172q-.717-.639-1.433-1.276C304.037,266.916,304.032,266.346,304.065,265.777Zm3.568-2.633c.007.108.017.216.023.324.034.516.073,1.03.108,1.544q-.081-.719-.133-1.441C307.623,263.429,307.636,263.286,307.633,263.144Zm4.4-13.82c-.164,1.514-.323,3.027-.488,4.541-.053.541-.136,1.083-.165,1.625-.1,1.665-.2,3.327-.291,4.992-.032-.577-.056-1.153-.068-1.73-.046-2.124-.086-4.247-.131-6.371v.023c.033-1,.078-1.992.12-2.989q.35-.937.71-1.864t.7-1.853C312.294,246.908,312.163,248.119,312.037,249.324Zm-63.552-11.059c-.457-.335-.911-.672-1.367-1.007a1.237,1.237,0,0,0-.428-.547,2.024,2.024,0,0,0-.676-.266l-1.255-.925c.135-.959.271-1.919.4-2.878l.01-.074a1.251,1.251,0,0,0,2.435-.033c.213.145.424.291.636.437,2.721,1.861,5.435,3.727,8.062,5.718q4.523,3.426,9,6.918c5.388,4.211,10.794,8.4,16.087,12.731,2.662,2.185,5.318,4.375,7.944,6.6,2.868,2.426,5.712,4.893,8.626,7.261.967.787,1.927,1.581,2.889,2.373q.1,1.246.19,2.491c.013.179.04.355.058.533q-2.983-2.236-5.963-4.473-12.269-9.213-24.549-18.407-4.875-3.657-9.757-7.314-1.431-1.077-2.862-2.143c-.34-.259-.679-.552-1.042-.785-.792-.606-1.606-1.186-2.408-1.771Q251.5,240.49,248.485,238.265Zm-23.23-5.146c-1.423.02-2.839.1-4.251.239q1.847-1.114,3.681-2.243,1.452,1.02,2.9,2.044C226.811,233.127,226.035,233.108,225.255,233.119ZM198.208,246.1c-.1.079-.192.153-.293.232-.025.019-.049.037-.073.057-.243.2-.469.414-.7.624-.624.559-1.242,1.131-1.866,1.69-1.684,1.513-3.351,3.039-5.029,4.552-1.019.924-2.061,1.831-3.062,2.767-1.384,1.3-2.709,2.674-4.034,4.034q-2.313,2.367-4.545,4.816a146.792,146.792,0,0,0-17.083,22.612,110.91,110.91,0,0,0-6.542,12.548c-.954,2.185-1.861,4.387-2.655,6.631-.048.132-.095.265-.142.4q.279-1.185.579-2.367l0,.008c.577-2.084,1.213-4.146,1.82-6.219.259-.877.518-1.754.771-2.632.275-.927.611-1.838.938-2.749q2.643-5.986,5.839-11.706a125.106,125.106,0,0,1,8.638-13.247l-.026.034.035-.046,0,0a102.09,102.09,0,0,1,8.4-9.853A93.787,93.787,0,0,1,187.248,251l-.014.011.029-.023.118-.1-.044.038a87.434,87.434,0,0,1,8.859-6.121l-.012.007A76.235,76.235,0,0,1,204.3,240.6c.625-.27,1.264-.5,1.9-.755q-4.082,3.18-8.143,6.381ZM83.607,291.93a40.618,40.618,0,0,0-5.748.435q-2.9.45-5.776.96A113.086,113.086,0,0,0,60.565,296a50.676,50.676,0,0,0-6.548,2.332c-2.167.966-4.287,2.061-6.377,3.191q-.466.251-.928.5a89.992,89.992,0,0,0-25.052,9.3c-1.9,1.062-3.76,2.195-5.573,3.4q-.067-3.32-.136-6.639c0,.043,0,.084,0,.122-.011-.415-.017-.825-.028-1.241l0,.037-.032-1.5,0,.036c0-.169,0-.337-.008-.5v.159c0-.072,0-.144,0-.214,0,.02,0,.041,0,.06,0-.021,0-.042,0-.062l0,.016c-.165-10.588-.265-21.181-.4-31.775-.1-7.584-.224-15.168-.224-22.746q0-1.019,0-2.035c.084-.862.174-1.723.256-2.585a2.11,2.11,0,0,0,.323.03c1.192,0,2.177-.988,2.99-1.78.66-.641,1.319-1.3,2-1.919s1.4-1.2,2.114-1.773c-.059.054-.124.106-.188.154.895-.654,1.79-1.313,2.714-1.926.982-.646,1.975-1.265,2.962-1.905.849-.477,1.69-.988,2.573-1.41,1.519-.718,3.026-1.454,4.561-2.138a51.531,51.531,0,0,1,5.807-2.12,40.914,40.914,0,0,1,4.258-.932l-.017,0,.021,0,.233-.038c-.038.008-.077.014-.116.021a46.791,46.791,0,0,1,5.535-.48h-.055l.1,0,.162,0-.06,0a89.607,89.607,0,0,1,9.225.392l.017,0h0l.044.006.2.021-.131-.012c2.217.275,4.429.569,6.646.8,1.051.136,2.1.337,3.137.533q1.976.375,3.926.851A69.543,69.543,0,0,1,83.2,235.1a.6.6,0,0,0-.058-.026c3.4,1.387,6.666,3.062,9.98,4.63.742.353,1.478.695,2.238,1.013a22.418,22.418,0,0,0,3.981,1.419,6.275,6.275,0,0,0,1.239.129q2.577,4.9,5.187,9.78.684,1.433,1.367,2.863l5.794,12.118q2.994,6.255,5.989,12.519c.918,1.938,1.99,3.8,3.015,5.689q3.982,7.338,7.965,14.672a60.121,60.121,0,0,0-9.936-2.677,82.98,82.98,0,0,0-14.639-1.248c-1.106,0-2.212.022-3.319.053l-1.751-.595c-1.837-.619-3.674-1.231-5.541-1.761-1.813-.512-3.645-.971-5.506-1.3A31.147,31.147,0,0,0,83.607,291.93ZM13.1,325.117c-.1-.719-.21-1.438-.31-2.156-.079-.573-.144-1.148-.213-1.724.391-.328.78-.657,1.179-.975q.042,2.2.084,4.4C13.6,324.815,13.351,324.967,13.1,325.117Zm.811,3.184q.027,1.419.056,2.839-.192-1.326-.382-2.653C13.7,328.424,13.806,328.365,13.914,328.3Zm-1.782-10.7c-.036-.3-.078-.6-.11-.9q-.186-1.639-.365-3.282c-.082-1.306-.162-2.613-.214-3.919-.071-1.779-.188-3.557-.206-5.336q-.036-3.178-.071-6.371c-.035-3.218.046-6.44.094-9.659,0-.049,0-.1,0-.149l.045-.561q.2-2.5.407-4.994c.041-.565.076-1.13.141-1.69q.45-4.15.9-8.3c.093-.848.191-1.695.287-2.543q.027,2.045.051,4.089.132,10.635.253,21.263c.035,3.237.047,6.479.115,9.715l0-.046c0,.035,0,.07,0,.1v-.039q.114,5.718.22,11.436Q12.9,317,12.132,317.6Zm1.207-151.226c-.029-.924-.076-1.843-.088-2.768-.008-.456-.013-.913-.02-1.369l.392-.17q-.075,2.943-.127,5.89l-.036,2.147Q13.4,168.241,13.339,166.375Zm-.2-10.4c-.059-3.886-.053-7.772-.112-11.659q-.094-6.141-.208-12.272.34-3.139.687-6.276.725-6.633,1.472-13.266c.059-.528.116-1.056.174-1.583q-.306,9.372-.6,18.745c-.325,9.884-.579,19.768-.861,29.658l-.5.217Q13.165,157.758,13.139,155.976ZM75,51.713c8.7-.447,17.394-.948,26.079-1.578,4.375-.312,8.756-.624,13.12-1.06,4.852-.483,9.7-1.013,14.55-1.542-.033,0-.067,0-.1.007,3.872-.416,7.736-.881,11.6-1.34a32.917,32.917,0,0,0,.207,7.417,37.462,37.462,0,0,0,1.313,6.141,26.8,26.8,0,0,0,1.163,3.068q-.256,1.729-.5,3.461c-1.893-.19-3.789-.384-5.68-.567-1.178-.112-2.362-.189-3.545-.283q-8.338-.663-16.682-1.319l-1.044-.08c-2.253-.63-4.505-1.269-6.747-1.935-1.4-.411-2.8-.849-4.2-1.253q2.118-.032,4.237-.079l-.024,0c1.089-.024,2.191-.077,3.28-.177a1.722,1.722,0,0,0,.153-3.409c-.642-.124-1.3-.153-1.955-.213-.494-.041-.989-.082-1.484-.129l-3.45-.318c-2.061-.188-4.122-.389-6.177-.589-4.5-.435-9-.918-13.5-1.407q-6.342-.69-12.695-1.325-4.548-.456-9.1-.886C67.544,52.076,71.275,51.9,75,51.713Zm50.927-12.3.04-.006h-.012l.021,0,.156-.027-.086.017c.389-.055.787-.078,1.181-.117l3.5-.353c2.708-.276,5.411-.547,8.12-.83.624-.065,1.26-.153,1.89-.188l2.02-.111a13.258,13.258,0,0,0-1.588,3.491c-.043.146-.075.3-.115.441-4.349.5-8.7,1-13.045,1.489l.3-.035-1.586.174c.037,0,.076-.007.113-.009q-2.463.264-4.922.535l.294-.035-1.88.208.1-.008c-2.444.26-4.888.477-7.337.713-4.528.429-9.074.718-13.608,1.024-3.8.253-7.6.47-11.394.681l.426-.091c3.451-.736,6.9-1.49,10.352-2.179,4.232-.844,8.465-1.7,12.7-2.538,4.677-.7,9.348-1.448,14.019-2.19-.059.011-.117.017-.176.029C125.575,39.476,125.752,39.445,125.931,39.418Zm93.212-2.288q-.775,2.257-1.39,4.566c.057-.929.139-1.856.24-2.782s.246-1.832.407-2.741l1.156-.142C219.41,36.4,219.27,36.762,219.143,37.13Zm-9.788.112c2.062-.217,4.12-.464,6.176-.717-.207,1.3-.362,2.606-.469,3.913a66.629,66.629,0,0,0,.583,14.846c.12.843.259,1.687.408,2.529q-.171,1.159-.326,2.322c-.141,1.048-.282,2.1-.394,3.145-.106,1-.236,2.008-.265,3.015a22.99,22.99,0,0,0,.047,3.05,11.448,11.448,0,0,0,.73,3.032c.057.149.129.291.19.437l-4.236-.3c-2.939-.206-5.877-.406-8.815-.636-5.465-.418-10.923-.866-16.388-1.29-3.156-.247-6.318-.471-9.468-.777-4.67-.459-9.339-.948-14.015-1.384.059.006.112.018.165.024-1.566-.194-3.138-.342-4.7-.512-1.728-.192-3.456-.395-5.184-.564-.678-.079-1.359-.138-2.04-.2-.2-.091-.4-.183-.6-.285-.338-.2-.668-.4-.989-.629-.366-.278-.712-.577-1.048-.889-.336-.338-.653-.688-.956-1.053-.343-.449-.662-.908-.961-1.391.027.045.053.089.078.135-.03-.049-.059-.1-.088-.15v0q-.36-.616-.669-1.258.225-1.425.452-2.847c.512-3.221,1-6.454,1.607-9.663.251-1.319.49-2.64.745-3.958q3.2-.372,6.4-.749c8.845-1.042,17.689-2.138,26.5-3.433C190.99,39.658,200.161,38.379,209.355,37.242Zm86.921,21.129a70.331,70.331,0,0,1,1.681-9.194c.351-1.367.725-2.723,1.157-4.067.348-1.064.684-2.144,1.091-3.189v0l0,0c.02-.053.041-.107.063-.161-.016.04-.029.077-.044.113.039-.094.077-.189.113-.283l-.028.07.045-.114.02-.051-.008.022c.116-.293.233-.582.349-.875l-.01.029q.363-.89.717-1.783a.456.456,0,0,0-.018.052c.172-.427.339-.853.51-1.275-.011.028-.021.056-.033.086l.048-.121-.007.021.019-.053.031-.079.006-.016q.262-.579.529-1.153-.165.685-.332,1.371a34.361,34.361,0,0,0-1.024,7.131c-.041,1.49-.006,2.986.012,4.475.023,2.12.053,4.24.076,6.359.021,1.81.071,3.62.129,5.43-.016.139-.031.279-.046.418,0-.019.006-.038.008-.057-.009.084-.019.169-.026.251.006-.071.012-.135.018-.2-.124,1.077-.195,2.161-.289,3.244q-.282,3.233-.565,6.478-.037.424-.073.849c-.286.292-.568.587-.849.873l.029-.026c-.942.969-1.821,2.011-2.707,3.036-.1-.54-.215-1.078-.3-1.622a64.25,64.25,0,0,1-.668-7.988c0,.04,0,.079,0,.12A65.528,65.528,0,0,1,296.276,58.371ZM388.41,101.72c1.5.112,3,.23,4.5.3.365.016.731.029,1.1.045a30.916,30.916,0,0,0-5.594.534,1.452,1.452,0,0,0-.524-.554,1.9,1.9,0,0,0,.463-.327C388.37,101.715,388.39,101.719,388.41,101.72Zm-185.578,3.939c-.8,1.16-1.49,2.4-2.22,3.61q-2.1,3.478-4.2,6.966c-.241.4-.5.789-.712,1.2-.359.712-.73,1.419-1.089,2.132q-.306.594-.61,1.188c.025-.05.049-.1.074-.152.553-1.142,1.1-2.279,1.654-3.415.748-1.543,1.59-3.045,2.432-4.547-.035.065-.07.13-.106.2a98.487,98.487,0,0,1,6.9-10.517c-.024.033-.047.067-.072.1l.243-.319q-.282.524-.56,1.05Q203.7,104.407,202.832,105.659ZM191.221,148.4q-.824,3.721-1.52,7.464-1.635,8.772-2.468,17.66c-.057.609-.1,1.218-.153,1.827l-1.4-1.2c-.156-.96-.3-1.923-.457-2.884-.112-1.323-.247-2.645-.371-3.968q-.1-1.024-.194-2.049c-.11-1.229-.123-2.469-.151-3.7,0,.048,0,.1,0,.147q-.065-3.6.156-7.191.376-1.681.8-3.353a111.212,111.212,0,0,1,4.406-13.635c.72-1.763,1.473-3.516,2.266-5.245.336-.725.648-1.455,1.013-2.161q.936-1.81,1.867-3.634.414-.806.824-1.615-.351,1.2-.677,2.405a144.334,144.334,0,0,0-3.48,17.082C191.494,145.687,191.351,147.043,191.221,148.4Zm1.707,36c.936.848,1.849,1.731,2.815,2.55q2.138,1.809,4.281,3.621L205.27,195c.783.659,1.6,1.278,2.409,1.9q1.725,1.341,3.451,2.677,5.385,4.758,10.775,9.512c1.46,1.277,2.932,2.538,4.405,3.8q3.8,3.271,7.585,6.543l-.062.026c-2.1-1.442-4.221-2.868-6.311-4.333-2.762-1.943-5.512-3.91-8.273-5.853-2.709-1.9-5.382-3.845-8.062-5.783-1.266-.912-2.5-1.866-3.745-2.809-1.117-.845-2.184-1.759-3.278-2.64-.941-.835-1.906-1.64-2.816-2.506-1.054-.995-2.1-2-3.145-3-1-.948-1.955-1.949-2.926-2.926-.754-.749-1.484-1.514-2.214-2.285-.187-.2-.369-.4-.555-.6q.135-1.256.228-2.514Zm112,95.949c-.073-.484-.146-.967-.22-1.453-.07-.429-.139-.862-.189-1.3q.931.767,1.863,1.531,1.614,1.317,3.209,2.654-.9.18-1.8.385Zm-66.61-45.664c-1.2-.308-2.43-.542-3.661-.748q.629-.53,1.251-1.068l2.417,1.772v.045Zm-93.781,73.1c-.258-.482-.523-.961-.776-1.446-.6-1.152-1.182-2.308-1.778-3.461q1.667,2.731,3.331,5.46C145.06,308.139,144.793,307.965,144.535,307.779Zm34.377-56.89c-1.113,1.124-2.214,2.273-3.227,3.486-1.243,1.5-2.491,3-3.722,4.516-.594.724-1.148,1.5-1.7,2.255-.677.931-1.343,1.867-1.979,2.827-.677,1.03-1.331,2.084-1.955,3.15-.486.822-.988,1.644-1.441,2.481l0-.008c-.771,1.331-1.489,2.7-2.231,4.051-.76,1.384-1.525,2.774-2.291,4.158.03-.048.053-.094.083-.142-.355.619-.667,1.267-.984,1.906q-2.427,4.226-4.561,8.612c-1.072,2.209-2.073,4.458-3.009,6.719-.542,1.307-1.1,2.608-1.573,3.933q-1.129,3.127-2.249,6.266c-.225.621-.435,1.244-.64,1.868L138.885,293c-1.676-2.739-3.364-5.468-5.024-8.213-.342-.61-.714-1.2-1.064-1.8q-2.126-3.6-4.257-7.2-.8-1.712-1.6-3.42c-.718-1.531-1.378-3.085-2.067-4.629q-1.272-2.86-2.549-5.717c.016.044.035.089.054.133-.049-.111-.1-.224-.148-.333.029.064.058.129.088.194-1.551-3.539-3.119-7.077-4.676-10.616.013.03.025.061.036.094-.577-1.343-1.213-2.668-1.82-3.993l-3-6.571c-1.419-3.1-2.932-6.148-4.41-9.216l-.048-.1c.515-.658,1.025-1.319,1.559-1.965.671-.815,1.41-1.578,2.128-2.347l-.019.021A48.3,48.3,0,0,1,116,223.782c.764-.608,1.539-1.221,2.354-1.761q.742-.486,1.484-.983c.892-.594,1.8-1.178,2.686-1.789l.028-.017h0l-.017.01,0,0,.286-.174-.031.017.162-.1.026-.016,0,0c.455-.269.906-.539,1.357-.814-.029.02-.06.039-.091.057.13-.076.263-.153.391-.234-.059.035-.123.077-.188.111,1-.6,2-1.195,3-1.8l-.028.016.246-.147.011-.007-.158.1.182-.112c1.793-1.05,3.62-2.045,5.423-3.068,1.573-.9,3.192-1.708,4.788-2.55.806-.43,1.607-.865,2.42-1.278.583-.3,1.189-.559,1.778-.836,1.87-.877,3.752-1.734,5.612-2.627,1.888-.715,3.757-1.481,5.631-2.237q3.66-.891,7.388-1.49c-.047.011-.093.019-.139.026a78.707,78.707,0,0,1,9.645-.917c2.487-.05,5-.025,7.476.149q1.3.1,2.6.2c0,.012.008.025.014.037.3.689.595,1.372.9,2.055a43.525,43.525,0,0,0,2.726,5.441,11.047,11.047,0,0,0,2.226,2.75,2.712,2.712,0,0,0,1.531.665l.07,0a2.137,2.137,0,0,0,1.184-.384,2.112,2.112,0,0,0,.766-1.114,3.271,3.271,0,0,0,.058-1.308c0-1.339-.02-2.679-.042-4.02l3.965,2.921c3.2,2.363,6.389,4.755,9.615,7.084-.015-.012-.03-.024-.046-.035l.064.048.071.052-.028-.019c.367.276.741.539,1.112.807q1.7,1.237,3.4,2.473,4.77,3.463,9.545,6.926l.553.4c-.427.188-.856.371-1.282.56-.052.021-.1.043-.153.065-.9.391-1.782.842-2.676,1.261q-2.676,1.263-5.347,2.532c-1.013.477-2.037.936-3.038,1.437-1.7.853-3.368,1.79-5.017,2.732-1.708.971-3.392,1.973-5.047,3.02a102.031,102.031,0,0,0-11.4,8.238C182.274,247.65,180.549,249.228,178.912,250.889ZM16.826,132.623c0,.037,0,.075,0,.112q-.095,12.684-.324,25.364c-.064.028-.128.054-.19.083l.106-.046-.122.053-.008,0-.206.089C16.327,149.73,16.555,141.175,16.826,132.623ZM48.988,54.586q2.919.254,5.837.51c2.373.212,4.746.407,7.119.63,2.579.248,5.152.5,7.737.742q1.748.162,3.493.338c.021.016.042.031.064.045.227.151.453.294.684.422q-3.2-.213-6.4-.434c-.648-.047-1.3-.065-1.949-.136-.924-.094-1.855-.194-2.779-.288-2.191-.229-4.381-.447-6.566-.689.077.006.153.018.23.024-2.685-.346-5.365-.68-8.056-.985h0c.065.007.129.015.194.02l-.185-.022ZM151.872,72.438c.033.006.065.01.1.013h.007l.095.01-.092-.009c2,.3,4.005.543,6.01.815q5.752.781,11.51,1.562c-2.166-.055-4.332-.1-6.5-.172q-2.256-.075-4.509-.191-.735-.07-1.471-.139-1.069-.251-2.137-.507c-1.494-.4-2.992-.781-4.488-1.171.207-.1.414-.2.621-.3.318.033.635.068.952.1C151.938,72.448,151.906,72.444,151.872,72.438Zm-8.659,4.068-.146.082.139-.083Zm-6.582-.16q-.23.4-.468.8-.809.615-1.593,1.256a49.61,49.61,0,0,0-4.431,4.109,46.5,46.5,0,0,1,3.29-3.812c.963-.965,1.966-1.89,2.994-2.787l.426.036c-.088.157-.174.314-.262.471ZM124.238,96.273a68.026,68.026,0,0,1,4.6-7.046l-.009.017h0q-1.27,2.275-2.527,4.552c-.429.764-.791,1.572-1.175,2.358-.725,1.455-1.437,2.909-2.161,4.358-.895,1.813-1.725,3.65-2.562,5.487-.109.242-.219.485-.329.726q.261-1.73.633-3.44C121.781,100.9,122.952,98.556,124.238,96.273Zm-1.091-9.11a59.092,59.092,0,0,0-5.194,13.131q-.264,1.01-.493,2.028-.616,1.421-1.168,2.866c-.43,1.118-.853,2.237-1.283,3.356-.2.536-.442,1.066-.613,1.613-.542,1.774-1.095,3.552-1.643,5.326l-4.266-3.318Q97.225,103.417,85.9,94.746a1.653,1.653,0,0,0,.2-.238,1.788,1.788,0,0,0-.33-2.309,15.265,15.265,0,0,0-1.99-1.425c-1.441-1.038-2.873-2.088-4.31-3.127q-2.535-1.836-5.07-3.668c-3.751-2.7-7.5-5.406-11.282-8.068-1.885-1.324-3.745-2.667-5.647-3.962Q53.83,69.476,50.2,66.991l-.075-.051q.586-.018,1.171-.032c.459-.011,1.1-.023,1.56-.07a13.121,13.121,0,0,0,1.649-.271,4.431,4.431,0,0,0,1.272-.66,1.243,1.243,0,0,0,.459-.521c2.938.026,5.876.054,8.815.062,3.8.006,7.608,0,11.418.03l2.049.013.117.009c1.53.328,3.059.661,4.582,1.026,2.337.565,4.675,1.124,7.007,1.7,2.444.606,4.888,1.2,7.343,1.76,1.007.236,2.008.489,3.027.683q2.181.424,4.375.848c2.067.395,4.145.736,6.23,1.048,1.183.183,2.373.395,3.562.542,1.278.153,2.55.312,3.828.465q3.383.415,6.76.924c2.036.3,4.072.639,6.114.88l.4.047c-.282.275-.572.54-.849.821A47.367,47.367,0,0,0,123.147,87.163ZM243.3,220.231l0,.05-.043-.032Zm-1.09,8.687c-.016-.011-.032-.021-.048-.033l.048.033Zm-3.921,1.834c.062-.058.126-.113.189-.17,0,.1-.009.2-.013.3Zm-.057-4.457c-.87.837-1.755,1.655-2.65,2.463l-3.141-2.315c.319-.185.638-.372.958-.557q1.118-.648,2.235-1.3C236.5,225.155,237.364,225.728,238.231,226.3Zm-11.258-3.88q-7.422-5.475-14.849-10.942-5.821-4.284-11.63-8.573c-1.045-.775-2.072-1.575-3.1-2.367a2.5,2.5,0,0,0-1.459-3,13.613,13.613,0,0,0-2.426-.953l-.738-.214a4.979,4.979,0,0,0-1.058-.7,12.971,12.971,0,0,0-1.355-.589l-.511-.4.006-.241h.016a1.347,1.347,0,0,0,1.013-1.6,1.474,1.474,0,0,0-.155-.376,3.72,3.72,0,0,0,.645-.714,5.239,5.239,0,0,0,.4-.757c.121.123.235.252.356.373,2.449,2.462,4.9,4.941,7.508,7.231.747.665,1.5,1.319,2.249,1.984.647.577,1.348,1.1,2.025,1.644,1.4,1.124,2.839,2.178,4.269,3.256,1.4,1.048,2.827,2.049,4.246,3.062,1.455,1.036,2.915,2.061,4.375,3.091q4.1,2.889,8.221,5.765c1.271.889,2.543,1.773,3.827,2.644.468.316.934.636,1.4.955Q228.6,221.7,226.973,222.415Zm-40.894-17.152c-.22-.42-.435-.841-.648-1.268-.35-.706-.666-1.427-.985-2.146l.194.017c.467.356.943.7,1.417,1.046,0,.153,0,.306,0,.46Q186.066,204.317,186.079,205.263Zm-25.193-10.607-.01,0,.011,0,.029,0c-3.31.484-6.625.915-9.924,1.441-1.891.283-3.776.657-5.65,1.032-2.321.465-4.64.987-6.94,1.579q4.038-1.538,8.2-2.749a112.915,112.915,0,0,1,13.535-3.043,88.189,88.189,0,0,1,11.1-1.039c.154,0,.309,0,.463,0l2.442,1.887c-1.7,0-3.41.039-5.11.142-1.5.088-2.991.2-4.487.347-.689.071-1.378.142-2.067.218-.474.053-.963.087-1.437.162-.076.01-.154.024-.229.033Zm-45.233,23.255c-.348.259-.69.524-1.019.807a14.467,14.467,0,0,0-1.255,1.142,1.947,1.947,0,0,0-.376,1.88q-.4.333-.8.676a51.1,51.1,0,0,0-5.537,5.659q-.782-1.6-1.567-3.2c1.277-1.961,2.592-3.9,4-5.771-.017.019-.033.039-.049.059a56.033,56.033,0,0,1,4.42-5.128q.651-.656,1.326-1.286,1.6-1.106,3.264-2.111a71.271,71.271,0,0,1,7.657-3.951c-.05.023-.1.048-.148.069a85.683,85.683,0,0,1,9.773-3.573l-.016,0,.07-.02.148-.045-.04.013c2.727-.792,5.476-1.5,8.242-2.1,2.537-.555,5.092-1,7.64-1.469q.789-.117,1.58-.229-.422.123-.84.249c-1.993.6-3.956,1.285-5.892,2.044a89.853,89.853,0,0,0-22.791,10.816c-1.025.684-2.055,1.367-3.074,2.056-.812.553-1.607,1.136-2.4,1.707C117.178,216.763,116.418,217.34,115.653,217.911Zm-18.425,9.014q-2.26-5.21-4.533-10.416l.007.018c-.012-.027-.025-.056-.037-.085l.008.021-.044-.1,0,.006,0-.01c-.149-.343-.3-.686-.441-1.032q1.484,3.033,2.965,6.065c.8,1.62,1.571,3.249,2.415,4.841-.073.151-.158.295-.228.447C97.3,226.76,97.266,226.843,97.228,226.925Zm.1-6.653q-3.71-7.578-7.42-15.145c-1.478-3.008-2.926-6.036-4.428-9.038.018.053.042.1.059.147q-2.456-5.9-4.876-11.81c.543,1.07,1.082,2.141,1.636,3.208q2.605,5.036,5.229,10.064,2.694,5.184,5.347,10.381c1.831,3.592,3.674,7.184,5.464,10.794q.828,1.659,1.648,3.318-.514.726-.992,1.478C98.435,222.539,97.884,221.4,97.331,220.272Zm-25-40.836c-.177-.409-.355-.823-.537-1.233.009.02.017.041.024.061q-1.323-3.038-2.655-6.073c.273.416.54.838.842,1.232a1.6,1.6,0,0,0,1.625.636,1.65,1.65,0,0,0,.759-.417q.224.536.448,1.072Q76.719,184,80.572,193.3q3.3,7.93,6.584,15.863l2.508,6.041c.143.341.28.682.42,1.023q-1.742-3.414-3.482-6.828c-1.089-2.138-2.214-4.258-3.227-6.425q-3.233-6.9-6.465-13.791-1.635-3.479-3.262-6.96c-.432-.908-.879-1.811-1.285-2.729-.021-.051-.043-.1-.066-.151C72.311,179.373,72.323,179.405,72.335,179.436ZM42.457,155.969c-.82.1-1.652.187-2.473.314l.041-.007c-.494.082-.995.153-1.495.229a.23.23,0,0,0,.045,0l-1.447.223.2-.035c-.27.044-.542.086-.817.13a42.849,42.849,0,0,0-7.261,1.848c-1.113.389-2.215.8-3.322,1.2-1.207.442-2.414.877-3.6,1.36a23.973,23.973,0,0,0-3.006,1.431q.032-1.481.059-2.962c1.24-.442,2.487-.865,3.712-1.355h0l.069-.021.64-.187-.031.01.08-.024-.026.007.1-.03c.053-.017.106-.032.159-.048.13-.035.259-.076.389-.112-.053.012-.106.03-.159.042.088-.023.176-.049.264-.075l-.017,0c.136-.041.277-.083.413-.118-.054.012-.106.029-.16.041.144-.04.288-.081.432-.124l-.025.007.069-.02.09-.028-.04.014c.25-.071.5-.145.749-.22.287-.08.569-.167.857-.247-.053.012-.106.03-.159.041l.729-.212-.04.012.78-.226-.026.008.048-.015.111-.032-.035.008.134-.04-.034.009.082-.024.076-.024-.049.017c.177-.05.357-.1.532-.152-.053.012-.106.029-.159.041.069-.019.135-.037.2-.057-.016,0-.033.01-.048.016l.122-.037.036-.01-.014,0,.079-.025-.035.009.058-.016.1-.031-.072.023.049-.014-.042.014.073-.022.033-.009.082-.022c1.036-.27,2.093-.466,3.133-.706,1.207-.277,2.42-.53,3.621-.819.289-.07.589-.1.878-.147l2.232-.37c1.151-.192,2.308-.377,3.459-.568,2.095-.259,4.191-.47,6.31-.522l-.069,0a31.2,31.2,0,0,1,3.843.136l-.02,0a24.6,24.6,0,0,1,2.847.54,26.074,26.074,0,0,1,2.618.841l1.565,3.97c-1.014-.157-2.03-.305-3.053-.425l-.19-.022q-.531-.213-1.064-.414c-.836-.312-1.678-.589-2.526-.866a23.1,23.1,0,0,0-5.8-1.271A26.678,26.678,0,0,0,42.457,155.969Zm-26.575,31.27q-.087,3.195-.18,6.388-.151,5.478-.377,10.951c-.015-.33-.029-.661-.043-.991q.13-8.244.263-16.487l.246-15.151a3.518,3.518,0,0,0,.441.093q-.163,7.626-.352,15.249Zm.59-29.126.031-.014v0Zm5.28-99.022c.044-.036.094-.065.139-.1.274.128.55.25.824.364.919.376,1.837.765,2.756,1.148.569.239,1.143.468,1.716.7q-.811.465-1.623.926c-.335.188-.671.377-1.007.571-.194.147-.394.3-.595.442a3.054,3.054,0,0,0-.429.494,1.166,1.166,0,0,0-.249.657l-.013-.01a7.609,7.609,0,0,0-1.437-.842,1.074,1.074,0,0,0-.428-.591c-.2-.126-.387-.272-.582-.405l.019-.136c.07-.507.141-1.008.212-1.514.059-.421.131-.839.193-1.257C21.414,59.39,21.58,59.241,21.752,59.091ZM45.88,60.319q2.979.415,5.96.8c-2.248.01-4.5.083-6.737.25-.623.047-1.243.107-1.863.169L43.2,61.5c-.4-.437-.8-.878-1.207-1.3-.17-.177-.35-.342-.529-.508Q43.672,60.017,45.88,60.319Zm101.26,88.315c1.891,1.186,3.78,2.373,5.652,3.585q3.925,3.564,7.849,7.13c3.457,3.156,6.825,6.413,10.181,9.674q1.555,1.5,3.074,3.033c1.219,1.243,2.467,2.456,3.663,3.715.174.184.35.367.526.551q-.079,1.41-.161,2.824c-.071,1.184-.136,2.367-.206,3.551-.036.683-.042,1.372-.047,2.055,0,.049,0,.1,0,.146-2.565-2.138-5.15-4.262-7.7-6.429-2.832-2.409-5.664-4.823-8.52-7.214q-4.5-3.753-9.01-7.508c-2.607-2.161-5.2-4.345-7.809-6.494l-.069-.059c.022.021.045.04.068.06l-.2-.178.048.043-.26-.225c.065.058.13.111.2.17-.33-.289-.666-.577-1-.866.064.06.129.112.194.171-.5-.436-1-.865-1.5-1.3l.076.068-.788-.68c.065.052.129.112.2.171q-1.005-.867-2-1.731l.037.029c-.312-.265-.624-.536-.93-.807l.194.177c-.124-.112-.247-.218-.371-.325l.038.031.01.009.055.047c-4.138-3.692-8.147-7.536-12.162-11.368-2.25-2.144-4.47-4.317-6.725-6.46q-3.235-3.068-6.485-6.124a1.691,1.691,0,0,0,.929-.67c.095-.145.177-.292.266-.437q2.528,1.768,5.055,3.535,2.756,1.925,5.506,3.851c.848.6,1.737,1.148,2.608,1.719q5.874,3.816,11.759,7.626C141.952,145.389,144.555,147,147.14,148.634Zm34.405,31.354q1.239,1.356,2.486,2.71c.227.9.471,1.793.741,2.678.3.972.583,1.943.9,2.9.194.577.394,1.155.583,1.738.018.056.037.112.056.168,0,.13-.007.261-.01.392-.55-.134-1.1-.258-1.655-.359l-.666-.125q-1.377-1.083-2.721-2.2c-.009-.254-.021-.508-.027-.762v.236c-.03-1.655-.035-3.316.053-4.97.049-.845.093-1.692.138-2.538C181.464,179.9,181.505,179.944,181.545,179.988Zm-42.486-19.88c-2.078-2.137-4.174-4.262-6.263-6.393q-2.014-2.058-4.034-4.122c-.565-.571-1.119-1.16-1.7-1.719.041.035.083.076.124.117-1.844-1.978-3.641-3.992-5.461-5.988.181.17.363.34.543.511q3.648,3.462,7.319,6.889c1.361,1.261,2.762,2.479,4.14,3.722,1.019.918,2.032,1.837,3.074,2.72,1.7,1.443,3.409,2.885,5.1,4.34,1.3,1.1,2.638,2.155,3.957,3.227q4.073,3.312,8.173,6.595c5.117,4.1,10.122,8.332,15.193,12.483q4.182,3.42,8.36,6.853c-.81-.09-1.637-.111-2.45-.144-.89-.035-1.781-.057-2.671-.056q-1.479-1.14-2.956-2.282c-1.955-1.513-3.81-3.139-5.7-4.729-3.5-2.944-6.978-5.905-10.482-8.838-.518-.436-1.013-.9-1.513-1.354q-2.394-2.226-4.793-4.446-2.773-2.569-5.547-5.147C140.674,161.6,139.852,160.867,139.059,160.108Zm-42.782-31.7c.065-.024.124-.053.189-.077-.889.383-1.773.771-2.656,1.178-.512.229-1.024.465-1.519.73a16.119,16.119,0,0,0-2.073,1.355c-1.277.965-2.532,1.96-3.727,3.026-1.054.939-2.108,1.87-3.126,2.843,1.162-1.447,2.386-2.843,3.685-4.174-.047.053-.094.1-.141.153a46.712,46.712,0,0,1,4.29-3.873,40.522,40.522,0,0,1,3.943-2.713,30.576,30.576,0,0,1,6.673-2.958q.956,1.049,1.912,2.095c-.206.041-.415.072-.619.118A37.331,37.331,0,0,0,96.277,128.412ZM80.043,146.784c-.774.985-1.537,1.981-2.275,2.994q.255-.466.5-.932c.712-1.215,1.467-2.386,2.285-3.535-.042.054-.083.106-.124.16.571-.748,1.136-1.5,1.749-2.215s1.228-1.391,1.846-2.085a83.893,83.893,0,0,1,7.2-6.425c.635-.474,1.26-.964,1.924-1.393.323-.185.651-.354.982-.516Q91.34,135,88.752,137.415A84.563,84.563,0,0,0,80.043,146.784Zm-16.475,12.6c-.321-.732-.64-1.467-.961-2.2.023.047.041.088.064.135-.1-.214-.189-.43-.283-.646.254.133.517.251.767.392l1.874,1.052c.4.254.808.494,1.211.738.151.365.3.73.455,1.1-.7-.138-1.4-.288-2.1-.4C64.25,159.492,63.91,159.438,63.568,159.383ZM24.4,155.316q-1.024.3-2.049.607l.024-.006-.072.02c-.314.095-.618.228-.923.339-.652.245-1.3.484-1.951.724.124-6.218.238-12.437.3-18.659.041-4.522.106-9.045.047-13.567-.059-4.576-.1-9.151-.33-13.72-.124-2.373-.235-4.752-.4-7.125s-.324-4.77-.483-7.149c-.147-2.314-.2-4.628-.259-6.942-.024-.913.006-1.831.023-2.744.023-1.078.04-2.16.057-3.238l0,.052,0-.066c0-.048,0-.1,0-.146,0,.045,0,.09,0,.135.081-1.462.157-2.926.246-4.389q.364-3.078.757-6.15c.072-.549.142-1.095.213-1.643q.6,2.427,1.238,4.841a1.4,1.4,0,0,0,1.643,1.049A1.382,1.382,0,0,0,23.524,75.9q-.761-2.844-1.5-5.694c-.132-.521-.262-1.047-.389-1.573.578,1.256,1.166,2.508,1.733,3.767.848,1.885,1.7,3.775,2.55,5.653-.024-.047-.041-.088-.065-.135,1.437,3.409,2.921,6.8,4.387,10.192,1.631,3.781,3.227,7.579,4.834,11.365,1.2,2.815,2.409,5.624,3.616,8.433,1.448,3.379,2.873,6.777,4.352,10.145-.018-.047-.042-.094-.06-.141q3.993,9.222,8.008,18.415l-.005-.014.023.053.036.083-.02-.045c1.179,2.756,2.381,5.5,3.581,8.25q1.081,2.97,2.162,5.945c.112.305.234.6.35.906a23.267,23.267,0,0,0-4.865-.831,43.811,43.811,0,0,0-7.078.236c-1.219.129-2.432.282-3.639.488-1.137.195-2.267.383-3.4.583-.777.13-1.554.265-2.332.4-.618.106-1.23.282-1.843.43-1.154.265-2.314.536-3.474.8-.544.128-1.108.219-1.644.386-.044.012-.088.024-.129.039-1.5.435-2.985.885-4.469,1.33C24.3,155.346,24.35,155.328,24.4,155.316Zm5.562-92.589-.108.062.421-.223,1.5.68c-.676.231-1.325.478-1.986.765a4.271,4.271,0,0,0-.875.473c-.113.015-.225.032-.338.051a2.053,2.053,0,0,0-.518.2A1.648,1.648,0,0,0,27,66.39a1.524,1.524,0,0,0,.083.383,2.834,2.834,0,0,0,.423,2.243,4.344,4.344,0,0,0,1.267,1.166,12.265,12.265,0,0,0,2.172,1.084,1.233,1.233,0,0,0,.766-2.344l-.075-.029a8.282,8.282,0,0,1-.88-.395c1.034.249,2.074.477,3.107.729l.53.146a1.182,1.182,0,0,0-.129,1.086q3.1,7.79,6.253,15.569c1.59,3.934,3.215,7.849,4.84,11.771,1.42,3.427,2.9,6.831,4.323,10.252,1.554,3.751,3.038,7.525,4.575,11.282.165.406.306.83.459,1.248.395,1.078.8,2.161,1.19,3.245q.613,1.68,1.23,3.359c-.7-1.46-1.4-2.919-2.086-4.382-1.719-3.651-3.556-7.243-5.346-10.858q-2.676-5.4-5.371-10.777c-1.76-3.526-3.48-7.083-5.211-10.628-.689-1.4-1.4-2.791-2.1-4.192-1.025-2.038-2.02-4.087-3.074-6.107C32.674,77.8,31.4,75.359,29.977,73a46.9,46.9,0,0,0-4.157-6.171c-.281-.336-.574-.676-.876-1.009a1.387,1.387,0,0,0,1.16-.873Q28.029,63.824,29.965,62.727ZM108.5,122.789c.178.137.359.274.541.408l-.02-.013c.288.223.595.423.895.63l.977.684a8.562,8.562,0,0,0-.021.893,4.286,4.286,0,0,0,.068.515c-1.118-1.05-2.231-2.106-3.348-3.156.263-.021.525-.041.789-.051C108.418,122.728,108.457,122.759,108.5,122.789Zm-4.015-2.968-.374-.353.448.34ZM60.688,152.752l-3.5-8.072q-.624-1.724-1.246-3.448c-.5-1.384-.913-2.815-1.354-4.222-.538-1.689-1.066-3.383-1.609-5.072q-.97-3.514-1.957-7.03,1,2.1,1.994,4.194c.488,1.024,1,2.043,1.465,3.079,1.8,4.129,3.642,8.236,5.465,12.354q2.2,4.977,4.4,9.95C63.153,153.86,61.933,153.273,60.688,152.752ZM21.177,66.577c-.027-.134-.061-.267-.087-.4.081.049.154.109.232.161A1.153,1.153,0,0,0,21.177,66.577Zm4.8,5.375c.149.37.288.744.448,1.11q.513,1.165,1.019,2.331c.53,1.219,1.066,2.444,1.6,3.657-.018-.047-.041-.094-.059-.141.188.435.4.866.6,1.3.488,1.018.965,2.042,1.448,3.067q1.758,3.71,3.5,7.414c1.413,2.991,2.885,5.959,4.334,8.933,1.725,3.55,3.491,7.089,5.193,10.658l.348.729q.673,2.082,1.353,4.164c.853,3.036,1.716,6.066,2.564,9.1q-1.578-3.627-3.165-7.246-1.3-3.009-2.59-6.03-5.016-11.7-10-23.436-2.208-5.211-4.469-10.4c-.813-1.879-1.679-3.733-2.521-5.6-.107-.239-.221-.478-.329-.717Q25.622,71.392,25.98,71.952ZM71.568,158.52l.142-.348c-.032.151-.062.3-.092.454Zm-.187-7.668c-.447.943-.93,1.885-1.307,2.863.024-.071.053-.136.076-.2-.144.351-.287.7-.431,1.055q-1.05-2.245-2.08-4.5c-.129-.361-.259-.721-.38-1.085-1.42-4.275-2.892-8.538-4.334-12.807-.465-1.366-.889-2.75-1.39-4.1q-.989-2.7-1.979-5.418c-.883-2.432-1.778-4.864-2.661-7.3-.43-1.165-.907-2.314-1.372-3.462-1.525-3.775-3.033-7.549-4.617-11.3Q48.443,98.726,46,92.853c-3.147-7.586-6.2-15.213-9.248-22.834l1.732.476c1.112.3,2.213.653,3.315,1,1.2.377,2.42.724,3.6,1.166l.179.067c.331.29.656.586.989.874l-.024-.021q1.041.906,2.085,1.811l0,0c3.666,3.177,7.447,6.217,11.154,9.347-.076-.065-.153-.13-.223-.195l.254.221-.042-.038c.493.43.991.86,1.485,1.291l-.037-.031c.4.348.8.7,1.206,1.048,2.212,1.931,4.315,3.987,6.479,5.977,2.467,2.273,4.946,4.522,7.425,6.783,2.4,2.191,4.823,4.364,7.219,6.554q3.869,3.533,7.684,7.119,3.039,2.832,6.068,5.672c.688.7,1.379,1.406,2.062,2.115-1.024.373-2.032.789-3.016,1.258a40.7,40.7,0,0,0-11,7.914,62.876,62.876,0,0,0-8.668,10.853q-1.926,3.012-3.586,6.171C72.494,148.574,71.923,149.705,71.381,150.852Zm110.864,42.675c-.17,0-.341,0-.512,0-.045-.312-.081-.626-.119-.939.408.321.81.649,1.221.966C182.638,193.541,182.441,193.528,182.245,193.527Zm-4.875-1.5c.194.023.389.038.584.058.045.474.095.946.158,1.417q-.99-.767-1.982-1.53C176.544,191.987,176.957,192,177.37,192.022ZM183.8,197.9c.771.115,1.541.241,2.305.4v.014l-.8-.075h-.013c-.47-.075-.936-.173-1.405-.262Zm-72.082-78.4c-.629-.07-1.262-.124-1.894-.136-.577-.007-1.152.006-1.726.035q-6.669-5.07-13.36-10.113l-.054-.042c-3.171-2.585-6.376-5.129-9.564-7.692-.406-.327-.815-.651-1.222-.976-1.3-1.184-2.585-2.374-3.884-3.553-.368-.334-.732-.675-1.1-1.01.348.25.694.5,1.042.752,2.014,1.449,4.051,2.868,6.077,4.3q12.886,9.094,25.727,18.252C111.744,119.374,111.728,119.435,111.715,119.5ZM82.09,95.3c-2.355-1.684-4.687-3.4-7.031-5.1q-3.3-2.4-6.595-4.788c1.21.767,2.413,1.546,3.626,2.309.323.2.652.4.978.6q4.743,3.624,9.459,7.282C82.382,95.5,82.235,95.4,82.09,95.3Zm-62.855,71.27.167-.132c.553-.385,1.1-.778,1.671-1.132.479-.265.969-.493,1.464-.715,1.609-.691,3.247-1.291,4.887-1.887,1.715-.626,3.426-1.267,5.175-1.792q.578-.165,1.161-.3a48.7,48.7,0,0,0-4.622,2.1c-1.8.936-3.575,1.908-5.347,2.9-.754.418-1.507.842-2.261,1.26-.483.265-.966.536-1.449.8-.3.165-.589.334-.882.5Zm45.837-3.742c.436.08.871.161,1.307.238q-.162.478-.318.959c-.232-.2-.478-.381-.716-.573C65.254,163.24,65.164,163.032,65.072,162.824Zm21.487,25.729c-1.9-3.633-3.757-7.284-5.635-10.929-1.849-3.6-3.615-7.237-5.411-10.864-.526-1.058-1.031-2.128-1.542-3.194.11-.807.212-1.616.33-2.423q.816-1.429,1.619-2.862v0l-.006.011c1.634-2.672,3.349-5.293,5.229-7.8A81.372,81.372,0,0,1,95.7,135.633a70.132,70.132,0,0,1,6.487-4.523c1.153-.684,2.331-1.3,3.511-1.935.218-.092.437-.183.649-.285,1.6,1.765,3.208,3.528,4.794,5.311,2.126,2.379,4.251,4.763,6.4,7.119q2.56,2.817,5.128,5.624c.666.73,1.331,1.466,2,2.19.2.215.382.429.581.633l-.009-.009q3.355,3.444,6.73,6.872c1.349,1.372,2.691,2.744,4.04,4.116.453.465.9.942,1.372,1.383,2.491,2.315,4.981,4.617,7.472,6.932q2.19,2.029,4.375,4.057c.607.559,1.19,1.159,1.82,1.69l8.673,7.313q2.66,2.251,5.329,4.493c.595.506,1.178,1.03,1.791,1.5l1.484,1.148c-.786.042-1.573.086-2.358.154a100.937,100.937,0,0,0-11.73,1.708,108.027,108.027,0,0,0-22.723,7.219,74.518,74.518,0,0,0-14.426,8.432q-.972.735-1.918,1.5-.775.487-1.539,1a54.454,54.454,0,0,0-11.327,9.945C97.163,208.94,91.878,198.737,86.559,188.553ZM182.405,174.9l.186,1.157c-.059-.062-.116-.125-.174-.187-.241-.254-.486-.5-.728-.755l.009-.157c.012-.214.036-.428.05-.643Zm-3.969-3.15q-1.561-1.592-3.142-3.164c.061.053.127.1.187.154q1.494,1.332,2.99,2.66C178.459,171.513,178.447,171.629,178.436,171.746ZM130.4,133.027c1.154.908,2.314,1.814,3.451,2.739,1.531,1.254,3.05,2.52,4.593,3.756l-.024-.022.029.024c-.035-.031-.068-.063-.1-.1,1.015.879,2.034,1.752,3.05,2.629-4.807-3.069-9.588-6.178-14.367-9.287-.677-.436-1.325-.918-1.985-1.378-1.913-1.331-3.815-2.667-5.723-4q-1.867-1.3-3.728-2.609c.036-.08.072-.162.109-.242.107-.234.215-.469.323-.7a4.287,4.287,0,0,0,.8.361c.259.071.518.13.783.183a1.662,1.662,0,0,0,1.042-.147c1.2.862,2.412,1.716,3.614,2.58l-.028-.023.03.021c1.276.962,2.557,1.917,3.835,2.877C127.532,130.8,128.97,131.906,130.4,133.027Zm13.713-77.982q-.085-.464-.163-.929a38.249,38.249,0,0,1-.428-4.613,29.64,29.64,0,0,1,.161-3.708l2.041-.238c-.178.98-.349,1.962-.529,2.943C144.793,50.672,144.447,52.858,144.111,55.045Zm-12.919,16.5c.813.225,1.626.46,2.44.691-.962-.114-1.923-.233-2.882-.374q-2.8-.415-5.606-.836c-1.825-.276-3.65-.518-5.476-.76-1.525-.2-3.062-.341-4.581-.571-3.557-.547-7.113-1.095-10.652-1.778-1.451-.277-2.9-.561-4.335-.875.755.054,1.507.115,2.262.163.666.041,1.331.141,2,.212q2.782.291,5.565.589,6.738.7,13.487,1.425C126.007,70.127,128.6,70.824,131.192,71.549ZM97.97,63.329c-1.331-.048-2.662-.13-3.993-.148q-3.576-.055-7.158-.069-2.365-.173-4.733-.341c-.526-.119-1.049-.251-1.576-.367-2.214-.483-4.416-.984-6.642-1.4q-1.482-.269-2.96-.542,1.944.132,3.89.259c.672.048,1.349.048,2.026.065,1.584.029,3.162.071,4.746.106,3.194.07,6.388.078,9.582.066.84.228,1.68.455,2.519.688,2.2.605,4.4,1.181,6.608,1.769C99.51,63.388,98.738,63.359,97.97,63.329Zm-70.034-5.66c-.373-.154-.746-.312-1.119-.467.387-.09.776-.169,1.164-.255A1.8,1.8,0,0,0,27.936,57.669ZM16.456,160.845c-.024,1.313-.053,2.624-.079,3.936q-.234.2-.46.411c.028-1.386.057-2.771.1-4.155C16.16,160.973,16.308,160.91,16.456,160.845Zm1.054,57.431c.53-8.762.842-17.536,1.1-26.3q.3-10.112.508-20.219a9.107,9.107,0,0,0,1.357-.644c.807-.471,1.631-.913,2.449-1.378,1.1-.624,2.2-1.237,3.31-1.843,2.2-1.216,4.4-2.467,6.7-3.5a46.385,46.385,0,0,1,5.143-1.941,37.507,37.507,0,0,1,9.375-1.435h0a68.8,68.8,0,0,1,8.562.418c.544.236,1.084.482,1.625.736.649.306,1.274.662,1.9,1.013,1.05.631,2.062,1.308,3.051,2.038q.936,2.256,1.879,4.5c-.059.309-.108.621-.136.936a13.143,13.143,0,0,0-.022,1.613l0-.029v.265a1.643,1.643,0,0,0,.9,1.508,1.567,1.567,0,0,0,.682.155,1.626,1.626,0,0,0,.435-.079c.2.444.395.888.59,1.332q1.633,3.666,3.268,7.337c.465,1.054.966,2.09,1.461,3.133q1.8,3.771,3.6,7.549c.589,1.231,1.143,2.479,1.767,3.686q3.276,6.422,6.571,12.825c1.525,2.967,3.092,5.906,4.646,8.85,1,1.9,2,3.8,3,5.694-.275-.1-.545-.215-.821-.306a31.682,31.682,0,0,0-4.823-1.236,22.98,22.98,0,0,0-4.51-.283.441.441,0,0,1,.052,0c-1.3.02-2.6.028-3.9.06.047,0,.093,0,.14,0l-.19,0,.055,0c-1.137,0-2.273.1-3.4.147s-2.291.087-3.436.154c-.587.01-1.184.073-1.775.1-1.248.077-2.5.159-3.751.23-1.331.077-2.656.165-3.981.241-.6.029-1.2.047-1.793.1-.594.017-1.194.1-1.781.15-.7.059-1.4.112-2.1.177-1.4.124-2.8.259-4.193.43a59.842,59.842,0,0,0-7.961,1.49c-1.743.453-3.456,1-5.146,1.625-.9.327-1.821.617-2.694,1-1.119.475-2.234.955-3.354,1.442-1.913.824-3.762,1.807-5.635,2.732-.63.306-1.242.648-1.849.983a35.044,35.044,0,0,0-3.339,2.032,31.676,31.676,0,0,0-5.014,4.386C16.62,232.871,17.07,225.572,17.51,218.276Zm51.283,8.373c.588-.034,1.2-.035,1.788-.112,1.065-.012,2.135-.108,3.2-.153,1.168-.052,2.336-.093,3.5-.164h.043c.134,0,.264,0,.4,0H77.49c.535-.006,1.071-.018,1.6-.03l-.038,0,.678-.013-.095,0c.47-.01.943-.016,1.418-.029h.128c1,0,1.993,0,2.989.1h.007l.077.008-.071-.006a29.528,29.528,0,0,1,2.907.565,33.7,33.7,0,0,1,3.83,1.249c.981.409,1.937.871,2.89,1.343q2.2,4.173,4.394,8.348c-.84-.364-1.688-.7-2.514-1.1-4.151-2-8.244-4.116-12.548-5.771a65.834,65.834,0,0,0-8.1-2.543c-1.466-.36-2.95-.677-4.44-.942-.866-.16-1.737-.33-2.614-.437q-.72-.087-1.438-.177Zm32.477,9.563q-.443-1.014-.883-2.03c.037.042.077.08.115.122a1.646,1.646,0,0,0,1.4.543C101.672,235.3,101.469,235.753,101.27,236.212Zm.874-6.708.277-.446c.184-.293.37-.585.554-.877.291.587.584,1.173.867,1.761q.258.537.518,1.074c-.262.36-.523.721-.778,1.087Zm4.028,5.267q1.593,3.287,3.176,6.577c.8,1.679,1.554,3.386,2.331,5.076.279.609.56,1.214.838,1.823q-2.806-5.074-5.617-10.151l-1.317-2.379C105.773,235.4,105.974,235.085,106.172,234.771Zm106.6-15.576q-2.8-2.023-5.594-4.052c-.759-.548-1.507-1.107-2.273-1.649l.046.038c-.956-.735-1.937-1.432-2.908-2.14q-3.178-2.331-6.347-4.675-3-2.2-5.988-4.412c.2.018.393.039.592.055.895.076,1.814.17,2.715.159.459-.007.929-.026,1.4-.072q.846.649,1.69,1.3c2.055,1.572,4.181,3.056,6.266,4.581q8.16,5.962,16.316,11.918,2.469,1.806,4.936,3.615-1.38.594-2.758,1.191Q216.817,222.125,212.772,219.2Zm12.216,7.149q-.618.4-1.234.8l-.245-.178Zm4.522,1.834,3.669,2.688c-.629.535-1.255,1.075-1.89,1.6q-.994-.7-1.988-1.4-1.053-.741-2.108-1.478Q228.355,228.894,229.51,228.178Zm12.091,5.015q.063-1.615.128-3.23c.017-.441.043-.882.063-1.322.138.093.277.186.417.277l-.015.114q-.278,2.092-.559,4.186Zm.865-17.337.162-2.878c.06.91.141,1.817.223,2.724Zm-55.726-36.47c-.057-.254-.114-.511-.171-.767l.219.2C186.774,179.006,186.754,179.2,186.74,179.386ZM203.1,99.211c-1.755,2.261-3.422,4.593-4.97,7A99.241,99.241,0,0,0,192.3,116.6c-1.077,2.232-2.167,4.458-3.233,6.7-.377.783-.7,1.589-1.036,2.385-.524,1.248-1.03,2.5-1.508,3.768a79.926,79.926,0,0,0-2.6,8.2,87.061,87.061,0,0,0-2.5,15.28,140.357,140.357,0,0,0-2.609,15.3l-.262-.226q-2-1.722-4-3.444c-.424-.366-.842-.748-1.284-1.1l-7.295-5.882q-6.042-4.868-12.077-9.734c-1.478-1.189-2.957-2.385-4.434-3.574-.541-.434-1.067-.892-1.622-1.3l-.126-.094.046.035q-1.556-1.173-3.118-2.34-2.112-1.812-4.238-3.613c.053.047.107.094.159.142-.488-.436-1.012-.831-1.525-1.237-.948-.766-1.9-1.525-2.844-2.291-1.054-.842-2.108-1.678-3.179-2.5q-4.611-3.561-9.257-7.084c-1.329-1.01-2.646-2.033-3.968-3.051-.021-.468-.052-.934-.075-1.406-.023-.418-.035-.836-.053-1.254q-.048-1.161-.093-2.323l1.135-2.529c1.431-3.186,2.886-6.354,4.334-9.527.589-1.279,1.255-2.527,1.879-3.787.524-1.054,1.054-2.108,1.578-3.162.234-.474.458-.954.7-1.424.023-.04.045-.079.069-.119l-.038.058c1.392-2.44,2.762-4.9,4.132-7.348l-.042.077,0,0,0-.006c.852-1.415,1.745-2.813,2.62-4.217.956-1.529,1.933-3.046,2.868-4.587,1.072-.786,2.174-1.535,3.309-2.22l-.106.061.029-.017L142,77.23l.094-.055c.031-.019.062-.039.095-.058l-.044.028.373-.222-.011.006c.17-.106.341-.206.512-.306-.059.036-.124.071-.182.112.128-.08.255-.155.383-.229.381.035.763.064,1.143.1,2.285.223,4.57.465,6.86.647q3.932.307,7.869.467a90.6,90.6,0,0,0,11.481,1.759c2.072.171,4.145.265,6.224.265,1.142,0,2.285.018,3.427-.023q2.428-.09,4.864-.189c1.148-.041,2.3-.136,3.45-.224.636-.053,1.272-.088,1.908-.153A20.075,20.075,0,0,0,192.9,78.8a1.828,1.828,0,0,0,.265-.083c.468.009.935.021,1.4.042,1.207.053,2.426.058,3.633.153,1.085.088,2.171.158,3.256.257q3.546.481,7.091.963,2.766.372,5.534.751a1.435,1.435,0,0,0,1.073.754q2.07.248,4.14.488c-.349.3-.694.613-1.042.913-.412.36-.837.7-1.225,1.078-.919.889-1.826,1.779-2.738,2.668-.542.53-1.09,1.042-1.6,1.6q-2.367,2.535-4.728,5.069c-.784.837-1.525,1.731-2.267,2.6C204.8,97.085,203.939,98.133,203.1,99.211ZM299.8,79.074l-.225,2.729c-.387.041-.772.089-1.157.138-.2-.561-.387-1.126-.56-1.7l0,.021-.018-.062-.029-.1.013.039c-.07-.244-.119-.491-.184-.736q1.164-1.34,2.355-2.655C299.931,77.526,299.862,78.3,299.8,79.074Zm-49.641,1.99c1.142.035,2.3.017,3.439.112l1.263.11c.175.064.347.138.522.2,1.666.607,3.356,1.142,5.058,1.643,1.378.407,2.773.772,4.163,1.137q2.305.609,4.611,1.213c.777.206,1.572.364,2.355.541,1.037.235,2.075.478,3.113.717L269.712,86l-.636-.118c-2.22-.412-4.451-.754-6.683-1.119-4.54-.742-9.1-1.413-13.655-2.043q-5.2-.721-10.4-1.4l-1.9-.283q3.717,0,7.435,0C245.963,81.035,248.065,81.005,250.156,81.064ZM365.108,99.328a1.335,1.335,0,0,0-.332-.491c0-.017.006-.033,0-.05s-.006-.034-.008-.052c.262.021.522.047.784.065l-.021,0,.063,0,.039,0h-.021l.195.017-.155-.015c.236.022.473.039.709.056l-.183-.018c.171.012.342.03.513.042l-.183-.018c.129.012.257.021.386.029h.013l.166.011h-.029l.431.032q.375.478.769.943ZM295.68,81.678c.067.211.138.421.209.631-.3.058-.606.115-.905.2l-.007,0C295.211,82.229,295.445,81.954,295.68,81.678Zm-23.243-.425c-2.419-.478-4.838-.971-7.258-1.46.039.007.078.011.116.018,2.132.37,4.257.735,6.377,1.171,2.887.593,5.761,1.238,8.629,1.915C277.684,82.324,275.066,81.766,272.437,81.253ZM248.9,77.807c.016.052.032.1.052.153-.5,0-1-.011-1.5-.011-.436.006-.872.006-1.3.006-1.1-.006-2.2,0-3.3.006q-3.4.009-6.8.011c-2.22.006-4.446.012-6.666.006-1.651,0-3.305,0-4.958-.02-.022-.059-.042-.116-.063-.175-.13-.377-.265-.754-.389-1.131-.092-.274-.181-.552-.272-.829,1.513.108,3.026.217,4.54.313,1.932.124,3.857.3,5.789.447,2.791.219,5.582.431,8.373.654,1.366.106,2.726.23,4.092.359C247.293,77.669,248.1,77.737,248.9,77.807Zm-30.379-.395c.079.132.162.261.242.392-.856-.035-1.711-.069-2.564-.137-2.3-.182-4.579-.371-6.868-.617-2.337-.28-4.68-.538-7.023-.8-.247-.027-.5-.037-.743-.06q-14.958-2.029-29.917-4.061-6.378-.86-12.75-1.73c1.365.152,2.729.3,4.094.446-.023,0-.048-.008-.071-.012,1.188.146,2.38.239,3.568.354q3.613.362,7.225.718c2.3.224,4.605.466,6.913.642,7.873.618,15.746,1.289,23.619,1.878,3.827.283,7.655.542,11.482.819l1.583.116C217.7,76.053,218.111,76.735,218.519,77.412ZM146.6,41.1l-1.871.214c.017-.045.03-.09.046-.135.162-.391.342-.769.538-1.142.146-.247.305-.489.473-.727.133-.168.267-.331.413-.49.119-.114.242-.224.367-.334.126-.093.252-.18.384-.266.1-.054.2-.106.3-.156C147.016,39.072,146.808,40.086,146.6,41.1ZM131.364,297.8l1.963,3.464c-.035-.015-.071-.028-.1-.043Zm1.922-2.2c-2.041-3.331-4.065-6.675-6.134-9.983l-.009-.017.013.019q-1.077-1.924-2.18-3.843c-.9-1.607-1.776-3.222-2.66-4.842q-3.791-6.935-7.567-13.879c-1.4-2.567-2.827-5.123-4.2-7.708q-2.661-5.019-5.325-10.037-.97-2.23-1.94-4.462a4.743,4.743,0,0,0,.461-.852c.2-.492.383-.993.568-1.491.134.242.268.483.4.725q3.868,7,7.737,14,.813,1.466,1.625,2.938c.354.648.748,1.278,1.125,1.914q3.558,6.036,7.118,12.063c.527,1.165,1.056,2.33,1.578,3.5.783,1.743,1.637,3.45,2.45,5.176.718,1.525,1.413,3.056,2.155,4.569,3.344,6.766,6.707,13.52,10.2,20.209.1.189.195.379.293.568-.232-.134-.464-.27-.7-.4Q135.8,299.67,133.286,295.6Zm70.948-58.021a81.725,81.725,0,0,0-21.4,13.16q2.283-2.11,4.719-4.053A112.587,112.587,0,0,1,198.792,239l-.018.011.058-.035.089-.054-.032.02q2.4-1.429,4.848-2.764c1.037-.559,2.067-1.142,3.133-1.649,1.1-.529,2.214-1.042,3.321-1.554,1.661-.778,3.315-1.561,4.976-2.338.855-.392,1.715-.773,2.553-1.194l.052-.024q1.428-.609,2.856-1.222l.711.517c-.566.369-1.132.74-1.685,1.128q-3.456,2.426-6.846,4.946A59.638,59.638,0,0,0,204.234,237.576Zm34-.332,0,.1-.213-.149Zm73.461,47.405c.333-.059.663-.135,1-.188l.055-.007c.372.319.749.633,1.12.955l-.026-.024c.112.1.224.193.332.288l-.051-.045c.281.242.56.485.84.723l-.056-.046.386.335-.318.124c-.522-.341-1.041-.688-1.566-1.025Zm-66.271-79.13q-.269,1.76-.528,3.513-.054-1.238-.083-2.478c0,.04,0,.082,0,.12-.059-2.933-.053-5.871.065-8.8.111-2.884.338-5.763.661-8.63q.432-3.722,1.045-7.411.244-1.055.509-2.1c.471-1.827,1.008-3.627,1.595-5.415.465-1.425.919-2.856,1.448-4.257.407-1.078.819-2.149,1.231-3.227.994-2.609,1.97-5.235,2.98-7.839.147-.342.3-.678.465-1.013-.026.091-.051.182-.077.272q-.847,3.03-1.7,6.06c-.195.7-.354,1.4-.5,2.107q-1.59,7.614-3.191,15.234c-.33,1.572-.666,3.15-.99,4.723-.047.223-.07.447-.106.671-.118.783-.241,1.566-.359,2.355Q246.652,197.452,245.421,205.519ZM262.538,123.8c-2.5,5.076-4.74,10.287-6.724,15.581-1.237,3.3-2.438,6.612-3.474,9.981-1.366,4.451-2.715,8.9-4.1,13.355-.247.794-.435,1.619-.642,2.432-.329,1.277-.653,2.567-.965,3.857q-.616,2.569-1.166,5.166c-.261.812-.514,1.627-.748,2.447-.783,2.726-1.431,5.488-1.99,8.267a160.737,160.737,0,0,0-2.414,17.107c-.318,3.486-.624,6.977-.825,10.469-.091,1.578-.187,3.155-.278,4.732l-.066.028c-1.143-.843-2.286-1.688-3.431-2.523-3.011-2.271-6.073-4.467-9.094-6.716q-2.421-1.794-4.835-3.574c-1.53-1.13-3.043-2.284-4.585-3.391-1.341-1.033-2.677-2.072-4.018-3.1l-2.158-1.666q-4.143-3.655-8.288-7.308c-1.366-1.207-2.726-2.421-4.1-3.61q-2.839-2.465-5.69-4.916.073-1.822.125-3.647c.07-2.361.153-4.728.2-7.089.041-1.9.153-3.792.224-5.688q.089-2.094.165-4.187c.023-.606.017-1.219.076-1.825.188-2.061.406-4.128.612-6.2.066-.677.136-1.355.206-2.033q.822-3.783,1.773-7.536v0a176.324,176.324,0,0,1,7.025-21.837q2.327-5.739,5.177-11.249c.73-1.4,1.484-2.785,2.226-4.175,1.307-2.473,2.655-4.916,4.01-7.366-.021.038-.045.077-.067.116,1.632-2.849,3.234-5.7,5.133-8.382a12.5,12.5,0,0,1,.855-1c.085-.082.173-.16.263-.237a1.665,1.665,0,0,0,2.3-2.4c-.074-.086-.148-.169-.224-.249.5-.5,1-1.007,1.466-1.535.3-.347.572-.708.844-1.072,6,.706,11.994,1.428,17.97,2.279,2.685.382,5.37.759,8.049,1.16s5.347.765,8.014,1.2c2.762.447,5.53.86,8.279,1.366,2.9.531,5.791,1.107,8.694,1.616.053.012.107.022.163.033l-.023,0,.14.026-.017,0,.037.009.163.032-.073-.013c.172.038.344.072.512.107h0l.024.005.039.007-.011,0,5.411,1.114c-.167.221-.336.438-.5.661-.656.872-1.322,1.745-1.968,2.628l.066-.085c-.506.654-.924,1.378-1.378,2.073-.353.542-.718,1.077-1.036,1.649q-.8,1.458-1.593,2.924c-.135.184-.269.366-.4.55-1.679,2.3-3.286,4.64-4.841,7.019A140.331,140.331,0,0,0,262.538,123.8ZM366.91,108.392c-.394.362-.759.753-1.129,1.14q-.234-.541-.467-1.084Q366.112,108.423,366.91,108.392Zm-2.019,8.96c-.391.547-.787,1.1-1.173,1.65-.054.028-.11.051-.164.08.125-.272.249-.544.379-.814.265-.532.544-1.057.832-1.576.077.175.156.349.234.523C364.964,117.261,364.926,117.306,364.891,117.352Zm6.172-6.924c-.519.512-1.06,1.012-1.561,1.542s-1.05,1.064-1.533,1.632l-.247.284c-.147-.32-.3-.638-.441-.959.076-.1.147-.194.225-.288a23.356,23.356,0,0,1,1.811-1.818c-.021.019-.041.039-.062.06a34.7,34.7,0,0,1,3.321-2.538l-.045.034c.109-.072.222-.137.331-.208l.749-.028C372.737,108.874,371.875,109.63,371.063,110.428Zm35.009-7.608.084,0-.191,0h-.015l-.258,0,.117,0-.2,0H405.6c-.132,0-.264.006-.394.006h-.023l-.207,0h.065l-.177,0h-.055c-1.357.029-2.716.075-4.075.126a1.465,1.465,0,0,0-.1-.166,1.7,1.7,0,0,0-.578-.506c.555.023,1.11.046,1.663.082,1.136.071,2.273.148,3.415.224.448.03.9.041,1.343.094l.919.1c-.431.009-.862.016-1.292.027.026,0,.051,0,.077,0Zm-26.447-2.583.453.1c-.5.2-.991.413-1.474.646l0,0-.048.023c-.329.161-.655.325-.983.488q-1.543-.264-3.087-.528c-.046-.042-.093-.082-.139-.122-.56-.487-1.091-1.006-1.622-1.524,1.479.116,2.959.217,4.439.317C377.978,99.85,378.8,100.056,379.625,100.237Zm-20.472-51.18q.1-.387.2-.774-.111.565-.224,1.128-.166.849-.335,1.7c.028-.291.051-.582.081-.872C358.97,49.842,359.056,49.448,359.153,49.057Zm-55.847-20.48q.023-.039.048-.078c-.5.877-.954,1.79-1.4,2.7-.483.972-.96,1.95-1.408,2.945-.424.93-.871,1.86-1.248,2.814q-.76,1.926-1.513,3.857c-.654,1.661-1.19,3.386-1.673,5.1-.641,2.255-1.2,4.54-1.631,6.848a65.845,65.845,0,0,0-1.113,14.38,58.2,58.2,0,0,0,1.415,11.3c-.316.376-.637.746-.952,1.123-.8.954-1.6,1.92-2.391,2.88-.128.156-.256.313-.385.469-.735-.189-1.469-.383-2.2-.567.053.018.112.03.171.048q-2.253-.574-4.511-1.131c.059.012.118.029.171.041-4.263-1.083-8.574-2.013-12.884-2.885q-3.135-.636-6.289-1.125c-1-.153-1.99-.282-2.985-.424-.925-.129-1.849-.288-2.78-.389l.171.018c-.247-.029-.494-.058-.736-.088l.047.009c-.154-.019-.309-.036-.463-.053l.08.009-.783-.089.171.018c-1.407-.159-2.815-.324-4.222-.483l.171.018-.531-.062c-1.5-.171-3-.282-4.5-.421-1.713-.159-3.427-.306-5.146-.471-1.349-.124-2.7-.206-4.057-.306q-3.6-.274-7.208-.554-4.92-.374-9.84-.721-.536-1.719-1.063-3.44-.171-.612-.344-1.222c-.412-3.276-.644-6.571-.929-9.858-.083-.995-.153-1.984-.224-2.974-.068-.958-.14-1.919-.2-2.88q.116-.7.228-1.406c.347-2.138.771-4.257,1.3-6.36l-.011.035c.757-2.861,1.8-5.635,2.785-8.426.158-.455.33-.91.492-1.368,1.886-.232,3.772-.468,5.659-.683,3.674-.418,7.348-.859,11.023-1.284l-.277.036c3.707-.367,7.413-.744,11.114-1.167,3.709-.366,7.424-.721,11.132-1.042,2.161-.182,4.317-.394,6.478-.588,1.646-.147,3.3-.267,4.944-.452l-.057,0,.146-.014.131-.015-.073.009q7.494-.743,14.97-1.605,7.075-.823,14.144-1.689c-.079.135-.168.268-.243.4Q303.665,27.947,303.306,28.577ZM180.465,36.915c-8.809,1.278-17.653,2.327-26.5,3.345-1.377.159-2.754.313-4.13.472.148-.7.3-1.393.462-2.084.112-.429.231-.86.336-1.293q1.43-.079,2.857-.162c1.526-.082,3.045-.141,4.57-.188q5.1-.15,10.187-.289c4.958-.141,9.916-.247,14.868-.377.569-.014,1.14-.014,1.711-.036C183.37,36.509,181.917,36.706,180.465,36.915ZM17.843,59.709c-.058-.059-.116-.12-.175-.178l.34-.093C17.952,59.528,17.9,59.617,17.843,59.709Zm26.7,246.415.034-.021-.033.02.129-.079-.022.014c.369-.22.739-.439,1.11-.654q3.468-.8,6.99-1.352,2.846-.431,5.71-.715c-4.952,1.527-9.841,3.244-14.636,5.227-2.693,1.114-5.358,2.294-7.979,3.57A98.454,98.454,0,0,1,44.542,306.124Zm58.191-7.1.288.1c.36.122.714.267,1.08.367.98.408,1.989.747,2.983,1.123,2.125.8,4.251,1.608,6.383,2.408q2.248.843,4.494,1.7-.858-.209-1.717-.411c-.055-.017-.112-.033-.168-.045-.371-.09-.764-.13-1.143-.2-.936-.164-1.878-.329-2.815-.489-2.261-.388-4.516-.788-6.777-1.171-.654-.112-1.314-.23-1.967-.342-1.92-.318-3.875-.518-5.806-.742-3.664-.421-7.351-.728-11.042-.89-.309-.029-.619-.055-.929-.081l-.376-.031A173.548,173.548,0,0,1,102.733,299.027Zm11.841,1.6q-1.959-.723-3.91-1.459,2.264.139,4.52.395a67.828,67.828,0,0,1,8.228,1.476c-.036-.007-.074-.016-.111-.025a61.691,61.691,0,0,1,7.636,2.5c.4.164.8.336,1.193.511.392.721.781,1.443,1.173,2.163.357.662.7,1.338,1.079,1.988-1.546-.61-3.105-1.2-4.651-1.8-1.894-.741-3.775-1.5-5.685-2.207a.583.583,0,0,0-.09-.036c-.982-.41-2-.749-2.994-1.12C118.831,302.217,116.705,301.415,114.574,300.627Zm22.115,6.942-.008-.016-.019-.032.016.025-.007-.013a1.145,1.145,0,0,0-.077-.126q-.057-.1-.117-.2c.017.029.033.06.051.09l-.032-.052,0,.009-.013-.021c-.022-.036-.043-.072-.064-.108l.007.01-.031-.051c.014.022.029.046.043.07-.257-.453-.5-.915-.743-1.372l-.013-.023c.1.055.2.113.307.169.021.034.041.07.062.1.1.2.23.384.344.569.073.124.146.243.216.362l-.015-.026.034.057.042.073-.023-.04c.106.177.21.351.315.524l-.027-.049c.219.369.438.733.657,1.1l-.009-.018.507.854-.01-.017c.065.106.128.213.192.319l-.374-.151Q137.3,308.578,136.689,307.569ZM146.8,324.341c.062-.036.12-.076.18-.116.076.126.151.254.228.38l-.021-.037.2.338c-.022.1-.043.2-.065.305Q147.064,324.776,146.8,324.341Zm65.553-77.42a47.879,47.879,0,0,0-6.624,2.62,53.061,53.061,0,0,0-6.1,3.569,77.29,77.29,0,0,0-10.941,9.192c-.672.663-1.328,1.341-1.982,2.021-.382.219-.764.439-1.146.656a1.815,1.815,0,0,0-.275.195q4.376-5.163,9.1-10.013A183.463,183.463,0,0,1,211.3,239.984c.074-.053.147-.1.221-.154,1.207-.824,2.42-1.654,3.621-2.485.233-.162.467-.32.7-.481,1-.215,2-.407,3.006-.567a50.532,50.532,0,0,1,6.429-.567c.648-.01,1.294.013,1.941.03q-2.465,1.9-4.933,3.793c-1.3,1-2.609,2-3.91,3-.605.47-1.219.925-1.817,1.4l0,0-.033.026.033-.024v0l.176-.106c-.072.043-.144.087-.215.133l-.077.062.076-.061c-.5.322-.977.7-1.456,1.05q-1.263.916-2.535,1.829C212.465,246.889,212.409,246.9,212.354,246.921Zm12.14-4.948c1.307-1,2.609-2,3.91-3,.611-.468,1.231-.928,1.839-1.41l.052-.041.094-.074-.027.023c.527-.409,1.044-.833,1.56-1.257l6.224,4.381c-.023.986-.05,1.972-.07,2.956-.331.019-.661.039-.99.052-.88.035-1.764.058-2.644.109-.365.011-.73.048-1.1.073l-2.42.16c-1.437.088-2.873.182-4.3.317-2.038.2-4.08.444-6.109.77Zm22.254,1.27c-.665-.436-1.342-.86-1.99-1.314-.268-.191-.539-.378-.808-.568.116-.787.222-1.575.329-2.363q3.081,2.256,6.161,4.514l.659.482a23.121,23.121,0,0,0-3.079-.447c-.3-.02-.6-.038-.9-.056Zm6.073,2.009,1.14.833c.4.295.794.624,1.212.894.256.206.531.393.79.59.73.548,1.455,1.084,2.179,1.631q3.728,2.792,7.461,5.577,3.811,2.847,7.622,5.7-4.089-2.563-8.175-5.133c-2.061-1.3-4.069-2.668-6.1-4.01q-3.256-2.156-6.5-4.311a1.782,1.782,0,0,0,.444-.873A1.748,1.748,0,0,0,252.821,245.252Zm56,30.644c-1.4-1.06-2.789-2.125-4.189-3.177-.18-.14-.363-.276-.543-.415,0-.354,0-.707-.006-1.059q2.151,1.92,4.3,3.842c.122.109.246.216.367.324C308.769,275.573,308.8,275.734,308.818,275.9ZM318.8,209.86q-1.643,8.073-3.28,16.141c-.2.983-.359,1.972-.518,2.961q-.333,2.125-.672,4.244c-.6,1.377-1.2,2.754-1.778,4.14q-.483,1.164-.97,2.328.319-3.629.641-7.256c.435-3.223.9-6.445,1.348-9.668.183-1.337.348-2.679.583-4.01.71-4.032,1.5-8.046,2.485-12.026q1.174-4.593,2.656-9.087c1.127-2.69,2.219-5.393,3.333-8.088.318-.771.636-1.543.96-2.314.106-.265.206-.542.329-.8.6-1.26,1.2-2.52,1.8-3.78s1.179-2.519,1.776-3.774c-.772,2.047-1.5,4.111-2.182,6.194-.453,1.384-.895,2.774-1.313,4.169-.371,1.231-.766,2.462-1.078,3.71q-.7,2.817-1.4,5.629C320.582,202.329,319.563,206.068,318.8,209.86Zm121.89-107.735-1.159.025h-.057l-.2.005h.021c-.138,0-.276.008-.414.012h-.035l-.208.005.041,0-.82.017.043,0-.16,0h-.063l-.78.019c-.113,0-.229.005-.346.005h.147c-.135,0-.265.006-.4.006h.259c-.1,0-.2,0-.306,0l.064,0H436.3c.039,0,.078,0,.118,0-.073,0-.145,0-.216,0l-.176,0,.023,0-.068,0c-.065,0-.13,0-.2,0h.024c-.054,0-.108,0-.163,0l.094,0-.178,0H435.5l-.119,0,.056,0-.118,0-.16,0-.1,0,.051,0-.153,0H435l-.268.006h.017c-.048,0-.1,0-.145,0l-.114,0,.026,0-.243,0-.1,0h-.04c-.149,0-.3.007-.451.007h.265c-.371,0-.737.014-1.107.02l.047,0-.673.014.026,0-.061,0c-.066,0-.132,0-.2,0h.1c-.254.008-.51.013-.763.018l.045,0-.866.017.044,0-.224,0h-.02l-.833.02c-1.152-.159-2.3-.328-3.449-.533q-1.6-.28-3.19-.567c1.811.086,3.623.168,5.434.271C432.4,101.774,436.543,102,440.687,102.125Zm-77.329-8.989-.511-.087c-.165-.5-.324-1.011-.481-1.519l.217.372C362.827,92.325,363.091,92.732,363.358,93.136Zm5.313-73.2c-.359.759-.718,1.519-1.071,2.279-.175.366-.36.727-.515,1.1l.026-.07c-.149.357-.3.714-.444,1.071-.345.54-.68,1.088-1.018,1.634.589-1.641,1.18-3.281,1.757-4.925A1.636,1.636,0,0,0,364.38,19.8c-.449.858-.838,1.738-1.2,2.629-.04-.072-.084-.143-.13-.214a1.816,1.816,0,0,0-1.99-.86c-1.314.477-1.944,1.884-2.462,3.079a19.761,19.761,0,0,0-1.019,3.374c-.3,1.3-.635,2.586-.936,3.887q-.972,4.248-1.543,8.573c-.206,1.555-.382,3.1-.512,4.664-.088,1.025-.2,2.055-.229,3.08q-.045,1.458-.089,2.915-.058,2.227-.129,4.45l-.012.078A105.66,105.66,0,0,0,352.844,72.9a74.247,74.247,0,0,0,2.091,16.741q.286,1.161.6,2.316-4.326-.519-8.678-.742c-4.605-.236-9.2-.536-13.809-.842-4.8-.324-9.6-.695-14.409-.99-1.1-.068-2.193-.126-3.289-.18-1.2-.295-2.41-.589-3.612-.89h0l-.023-.006.031.006c-.06-.015-.119-.031-.179-.048l.071.023c-.249-.063-.5-.126-.748-.193.059.017.112.029.171.047-.748-.189-1.5-.383-2.255-.571.059.011.117.029.176.04-.292-.07-.584-.146-.877-.221a8.746,8.746,0,0,0,.841-2.172,3.187,3.187,0,0,0-.188-1.672,2.645,2.645,0,0,0-.772-1.09,4.406,4.406,0,0,0-2.354-.921l-.051-.648c-.009-.111-.012-.222-.021-.333.188-.514.366-1.03.513-1.554a12.534,12.534,0,0,0,.541-3.733,13.561,13.561,0,0,0-.534-3.347,2.723,2.723,0,0,0-1.1-1.8c-.043-.881-.093-1.762-.122-2.644-.068-2.147-.121-4.3-.182-6.442.008-.175.015-.349.023-.524l.123-2.9c.012-.341.012-.683.042-1.024.01-.13.021-.259.032-.388q.607-5.424,1.184-10.854l-.009.06c0-.021.007-.044.009-.066l.014-.129-.007.079,0,.014h0v0l-.008.086c.3-2.421.665-4.835,1-7.25.068-.322.135-.643.2-.965.294-1.407.642-2.808.965-4.21.136-.577.271-1.154.407-1.737a15.736,15.736,0,0,0,.324-1.637,3.557,3.557,0,0,0-.381-2.731c0-.069-.007-.138-.014-.207a2.091,2.091,0,0,0-.059-.283q2.4-.3,4.806-.618l2.172-.192c.565-.047,1.118-.118,1.684-.2l4.493-.636c1.578-.224,3.162-.441,4.74-.671.5-.071,1-.147,1.49-.241l1.378-.27q7.137-1.057,14.252-2.258c8.927-1.524,17.849-3.054,26.765-4.653-.078.156-.158.312-.237.467C369.584,18.05,369.119,18.986,368.671,19.934ZM401.446,5.726q-2.429.652-4.858,1.3c.083-.018.165-.042.248-.059-2.482.594-4.947,1.229-7.422,1.847l.1-.021c-1.177.284-2.362.544-3.548.8-.541.049-1.083.1-1.619.166-1.884.246-3.771.445-5.652.707.054-.17.108-.34.156-.513a6.038,6.038,0,0,0,.247-1.113c0-.065,0-.123,0-.186q3.714-.51,7.428-1.034C391.484,6.917,396.463,6.305,401.446,5.726ZM259.979,25.491l-.049.007c.559-.059,1.112-.159,1.666-.242,1.337-.2,2.673-.394,4.01-.595,1.7-.253,3.4-.5,5.094-.759,3.65-.565,7.3-1.154,10.958-1.667,3.88-.541,7.761-1.106,11.647-1.6q5.776-.724,11.547-1.454c2.379-.306,4.77-.565,7.143-.907q3.841-.549,7.679-1.107c4.345-.624,8.679-1.343,13.013-2.043,4-.648,8.014-1.308,12.036-1.873,2.685-.383,5.37-.807,8.061-1.154q3.489-.45,6.978-.895c3.986-.512,7.985-.978,11.965-1.531.831-.116,1.663-.229,2.494-.344-.305.524-.613,1.046-.91,1.575.036-.064.065-.124.1-.188l-.135.244c-.063.11-.118.224-.18.334-.857.133-1.715.262-2.567.411-1.69.295-3.374.589-5.064.889-.754.135-1.513.254-2.267.406-2.715.56-5.435,1.084-8.144,1.661-1.007.212-2,.459-3,.689q-2.394.557-4.781,1.1l-3.776.875c-1.127.183-2.254.375-3.382.555-2.808.448-5.617.907-8.432,1.348-1.955.313-3.922.566-5.877.848-4.781.684-9.562,1.314-14.356,1.932-5.21.675-10.427,1.292-15.647,1.9-2.189.117-4.376.239-6.567.336-4.975.223-9.951.43-14.921.689q-4.972.264-9.94.529c-1.613.089-3.215.224-4.822.353l-6.9.545C255.092,26.073,257.533,25.79,259.979,25.491Zm-33.06,2.516q2.667-.107,5.335-.219,2.5-.105,5-.217c.813-.03,1.637-.036,2.45-.1,1.9-.164,3.789-.3,5.682-.443l-.391.043c-4.817.53-9.64,1.012-14.445,1.637-3.42.445-6.841.9-10.263,1.334.065-.131.117-.269.187-.4.172-.3.346-.59.548-.87a1.231,1.231,0,0,0,.213-.545C223.127,28.139,225.024,28.084,226.919,28.007Zm-65.026,5.605,4.917-.706c.594-.086,1.188-.19,1.781-.262l.015,0,.066-.008-.042.005q1.728-.183,3.456-.357l.045,0,1.552-.157.019,0c1.988-.2,3.976-.4,5.962-.62l-.212.018c4.1-.365,8.215-.671,12.325-1.025l14.538-1.254c3.875-.336,7.759-.595,11.644-.827a15.959,15.959,0,0,0-.923,2.041c-.391.047-.782.1-1.173.147q-4.9.575-9.81,1.137l-4.381.512c-.394.047-.789.1-1.183.124-2.909.188-5.812.388-8.721.583l-5,.335c-.589.036-1.178.094-1.767.112-2.62.094-5.246.141-7.867.212-2.332.065-4.675.088-7.007.188-2.614.112-5.229.159-7.837.242l-4.223.131C159.342,33.978,160.619,33.8,161.893,33.612ZM6.7,246.523c-.094-2.02-.218-4.046-.277-6.065q-.132-4.372-.253-8.744c-.053-1.767-.036-3.533-.036-5.3q-.007-3.649,0-7.31c.073-2.109.125-4.218.188-6.322q.071-2.235.135-4.469c.024-.677.018-1.36.065-2.032q.425-6.818.807-13.631c.112-1.878.306-3.757.459-5.635q.309-3.879.63-7.756c.353-4.392.772-8.773,1.154-13.166.065-.723.132-1.448.2-2.172l.263-.134c.145,8.157.61,16.3,1.111,24.434q.221,3.639.447,7.273c.118,1.948.2,3.9.283,5.847.088,2.037.218,4.069.23,6.112.011,2.538.017,5.082.035,7.62,0-.018,0-.034,0-.05v.006l0-.05-.006.176v.014c0,.122-.007.242-.011.365-.016.6-.034,1.208-.049,1.812l0,.1v-.019l0,.1v-.034c-.037,1.3-.07,2.6-.107,3.893v-.014c-.047,1.172-.1,2.338-.153,3.51-.029.695-.1,1.377-.165,2.073-.182,1.984-.371,3.963-.583,5.947s-.441,3.963-.618,5.947c-.188,2.061-.412,4.128-.542,6.195-.135,2.237-.3,4.469-.388,6.707s-.177,4.463-.248,6.695c-.141,4.381-.335,8.768-.506,13.148-.1,2.45-.2,4.893-.3,7.342-.114-1.775-.237-3.549-.335-5.327C7.623,264.577,7.123,255.55,6.7,246.523Zm.367,79.855v0l-.109.108C6.993,326.452,7.029,326.414,7.066,326.378ZM5.82,327.655h0l-.013.012Zm.453,1.141a22.448,22.448,0,0,1-2.2.771c.239-.27.484-.534.726-.8.279-.306.549-.621.83-.92l.1-.1c-.013.013-.026.027-.038.041l.126-.131.015-.016-.011.011.008-.009c.04-.042.08-.085.121-.126-.01.012-.021.023-.031.034l.561-.576c-.022.025-.044.048-.066.071.162-.165.321-.331.484-.5l-.073.076.241-.248c.025.665.048,1.33.073,1.994C6.851,328.517,6.566,328.664,6.273,328.8Zm4.919,11.453c-.047-1.146-.078-2.293-.105-3.441.047.362.091.724.138,1.085q.407,3.118.8,6.242c.135,1.113.277,2.22.436,3.333.159,1.154.353,2.3.553,3.439.229,1.344.515,2.679.811,4.012.059.675.119,1.351.151,2.024.1,2.037.229,4.074.294,6.112q.2,6.06.412,12.113c.152,4.511.358,9.02.573,13.528.009.342.015.684.024,1.026q.132,4.911.263,9.82c-.58.414-1.152.838-1.725,1.26-.014-.189-.027-.378-.042-.567q-.343-4.522-.689-9.045c-.134-1.7-.28-3.394-.386-5.091q0-1.77-.02-3.542-.043-3.93-.088-7.872c-.035-2.468-.135-4.929-.2-7.4-.112-3.969-.3-7.932-.507-11.895-.129-2.514-.288-5.029-.388-7.543Q11.348,344.053,11.192,340.249Zm4.51,87.237c-.306-4.511-.606-9.015-.93-13.52q-.318-4.406-.632-8.806c.039-.022.082-.037.12-.063l1.4-.987q.056,2.041.11,4.084.132,4.725.259,9.456c.029,1.231.053,2.456.1,3.686q.375,10.17.769,20.344c-.024-.255-.055-.507-.076-.762C16.444,436.442,16.008,431.967,15.7,427.486Zm2.762-37.079q-.345-7.022-.648-14.038c-.062-1.435-.11-2.872-.161-4.308.092.47.184.939.277,1.41.212,1.1.371,2.214.553,3.321.711,4.275,1.205,8.584,1.681,12.894.124,1.283.24,2.567.361,3.849q-.932.57-1.851,1.16Q18.57,392.55,18.464,390.407Zm149.66,1.906q-3.435-1.086-6.866-2.167c-.394-.123-.806-.206-1.207-.3-1.172-.277-2.349-.553-3.521-.831q-3.852-.918-7.708-1.825c-.383-.088-.771-.153-1.16-.224-1.148-.2-2.291-.4-3.439-.606-2.815-.489-5.635-.99-8.45-1.478-1.254-.218-2.514-.389-3.774-.566l-8.827-1.236c-1.243-.171-2.479-.353-3.722-.489q-7-.774-14-1.532c-1.034-.116-2.081-.152-3.115-.223-2.285-.164-4.576-.317-6.86-.477-1.991-.141-3.987-.241-5.977-.417-.371-.036-.748-.036-1.119-.036h-.4c-1.225-.029-2.444-.059-3.669-.094q-3.738-.089-7.47-.181,1.259-.324,2.524-.637c1.729-.431,3.48-.806,5.227-1.162q1.029-.042,2.056-.093c2.374,0,4.747-.018,7.12-.029,1.879-.012,3.751.094,5.629.171q1.9.069,3.8.147c.56.029,1.113.094,1.667.141,2.284.206,4.562.39,6.84.616,2.5.4,5.022.763,7.528,1.139,1.931.294,3.839.73,5.747,1.131,1.978.412,3.957.812,5.918,1.283,2.248.545,4.5,1.068,6.735,1.628l.867.221-.218-.053q10.956,2.79,21.936,5.5c1.674.444,3.359.873,5.009,1.4,1.365.439,2.725.9,4.062,1.415q.987.4,1.952.848Zm-51.635-16.7.1.012.11.011-.052,0a108.923,108.923,0,0,1,13.713,2.566c-.071-.018-.136-.03-.206-.047q4.01,1.033,7.961,2.243l6.263,1.933c-2.024-.527-4.051-1.052-6.081-1.55l-4.769-1.166c-1.255-.3-2.5-.654-3.763-.913l-7.331-1.537c-.589-.123-1.172-.265-1.767-.353q-1.74-.264-3.48-.536c-1.413-.218-2.82-.43-4.234-.647-.471-.071-.93-.13-1.4-.172l-3.539-.323q4.266.05,8.511.488Zm65.5,21.485q-.342-.414-.711-.807l.288.155.517.281C182.053,396.846,182.021,396.97,181.99,397.093Zm1.75-6.417c-.284.938-.55,1.883-.808,2.83-1.072-.591-2.141-1.2-3.255-1.7q-2.9-1.308-5.788-2.626c-1.036-.471-2.09-.866-3.156-1.272-1.961-.742-3.916-1.49-5.877-2.226-.553-.206-1.113-.383-1.672-.571-1.36-.454-2.721-.9-4.075-1.355-1.613-.536-3.221-1.071-4.84-1.584q-6.562-2.092-13.143-4.127-1.855-.565-3.71-1.143c-1.831-.565-3.692-1.054-5.553-1.531a100.767,100.767,0,0,0-17.235-3.062,90.424,90.424,0,0,0-18.249.383c-3.014.377-6.029.818-9.015,1.389q-.906.174-1.809.355c-2.412.1-4.823.2-7.235.3-2.1.088-4.211.289-6.3.536-2.756.324-5.506.76-8.22,1.343a99.963,99.963,0,0,0-15.588,4.737c-.049.009-.1.017-.146.027a50.33,50.33,0,0,0-8.727,2.349c-1.207.459-2.4.942-3.586,1.46-1.3.571-2.6,1.137-3.851,1.814-1.831.989-3.627,2.043-5.429,3.079q-1.718.978-3.436,1.96-.523-5.417-1.212-10.815c-.276-2.137-.612-4.263-.966-6.383-.335-2.049-.706-4.1-1.154-6.13-.89-3.989-1.814-7.973-2.69-11.967l-.057-.766c-.051-2.031-.1-4.063-.152-6.093v.07c0-.111,0-.218-.006-.329a4.887,4.887,0,0,0-.011-.674c0-.108,0-.216-.009-.324l0,.026c-.012-.371-.018-.736-.024-1.113v.165c-.006-.442-.018-.884-.024-1.325v.164q-.157-8.257-.335-16.517c0,.054.006.106.006.16q-.035-1.68-.069-3.361.855-.529,1.713-1.053a5.363,5.363,0,0,0-1,2.391,1.252,1.252,0,0,0,2.5.121.626.626,0,0,1,.021-.061c.1-.223.2-.44.312-.655a14.817,14.817,0,0,1,.872-1.286A44.366,44.366,0,0,1,23.92,322.6q.4-.411.811-.816,1.923-1.147,3.842-2.3c-.021.01-.041.022-.062.034l.177-.1-.038.024c.021-.014.043-.028.064-.04l0,0,.039-.022h0c.524-.26,1.03-.572,1.542-.848.6-.33,1.2-.654,1.808-.978,1.125-.6,2.25-1.195,3.386-1.766,2.267-1.149,4.564-2.226,6.884-3.251-.059.03-.118.053-.177.082q1.818-.791,3.653-1.535a1.609,1.609,0,0,0,2.483.953c.345-.24.691-.479,1.046-.709.52-.3,1.037-.625,1.574-.893.725-.359,1.449-.725,2.179-1.077l-.047.017.076-.035c-.065.029-.129.059-.188.082,1.037-.455,2.08-.911,3.118-1.372l.018-.007-.027.013a50.014,50.014,0,0,1,5-1.752,69.147,69.147,0,0,1,8.287-1.854l-.078.008a79.641,79.641,0,0,1,10.067-.895c3.061-.057,6.121.066,9.176.248q.983.057,1.965.127c.324.035.649.071.973.108-.064-.012-.135-.018-.206-.029.966.112,1.926.265,2.891.417q2.376.372,4.752.737c2.35.353,4.693.724,7.043,1.089l-.2-.053c.694.183,1.4.33,2.1.5,1.395.318,2.8.641,4.193.971,2.039.486,4.073.971,6.117,1.428,1.217.326,2.416.724,3.622,1.086q2.764.822,5.517,1.655c1.09.324,2.162.689,3.239,1.054,1.973.671,3.951,1.325,5.918,2.008.811.282,1.627.549,2.444.813q2.073,3.447,4.147,6.894a1.811,1.811,0,0,0,1.049,1.743q1.26,2.091,2.517,4.183c-.133.655-.258,1.313-.381,1.967-.071.354-.136.707-.2,1.06-.106.56-.218,1.113-.3,1.678a11.164,11.164,0,0,0-.065,1.531,1.729,1.729,0,0,0,1.166,1.685,1.683,1.683,0,0,0,.517.079,1.643,1.643,0,0,0,1.427-.757c.194-.341.394-.671.559-1.024a8.129,8.129,0,0,0,.4-1.112c.112.174.226.346.336.521q1.874,2.942,3.733,5.882,3.718,5.847,7.432,11.7c1.619,2.549,3.262,5.075,4.9,7.607q3.683,5.724,7.378,11.448c3.7,5.723,7.305,11.5,11.022,17.217Q184.146,389.344,183.74,390.676Zm1.129,7.956.021-.092.06-.228q.926.579,1.847,1.159Zm4.948-1.125c-.9-.554-1.79-1.113-2.685-1.667-.437-.268-.878-.524-1.324-.773q.142-.524.288-1.046c.23-.842.488-1.674.736-2.508q1.631,2.489,3.259,4.977c.36.547.713,1.095,1.072,1.643.1.154.213.3.323.455l-.267-.186C190.759,398.084,190.282,397.8,189.817,397.507Zm11.47,3.928c.969,1.668,1.938,3.337,2.884,5.018q3.178,5.652,6.353,11.305c.437.773.853,1.559,1.264,2.347q-1.02-1.176-2.038-2.354c-.136-.219-.268-.442-.405-.662-1.6-2.574-3.321-5.058-4.987-7.584-.313-.473-.629-.942-.943-1.413a1.606,1.606,0,0,0-.573-1.217l-.486-.371q-.476-.71-.949-1.422c-.877-1.319-1.725-2.655-2.59-3.98-1.664-2.569-3.263-5.179-4.879-7.783-.677-1.16-1.359-2.327-2.041-3.488-.6-1.031-1.225-2.049-1.8-3.1q-.537-.969-1.076-1.936l.064-.177q1.894,2.537,3.787,5.076C195.7,393.592,198.491,397.515,201.287,401.435Zm10.04-68.212-2.419,3.356q-1.237,1.724-2.48,3.445c-.247.347-.494.695-.73,1.054q-2.208,3.4-4.416,6.807c-1.036,1.6-1.99,3.245-2.974,4.869-2.084,3.457-4.116,6.943-6.006,10.506-.5.942-1.036,1.866-1.5,2.826q-.8,1.651-1.6,3.31c-.46.942-.872,1.907-1.3,2.867-.1.238-.207.476-.312.713q-1.788-3.009-3.594-6c.029.047.053.094.082.147-.718-1.26-1.5-2.485-2.255-3.722q-2.624-4.31-5.241-8.632-2.667-4.4-5.341-8.792c-.812-1.342-1.613-2.684-2.437-4.021.02.033.038.066.057.1-1.106-1.876-2.268-3.717-3.4-5.575l-7.3-11.942q-1.653-2.707-3.308-5.413a1.549,1.549,0,0,0,.689-.84,1.631,1.631,0,0,0-.2-1.389c-.014-.022-.028-.045-.042-.066l.013.018c-.107-.178-.223-.341-.337-.508q.747-2.086,1.56-4.147l-.009.023.031-.079.025-.062-.009.024q.925-2.291,1.912-4.56c.908-1.394,1.812-2.791,2.736-4.178,1.772-2.668,3.515-5.359,5.376-7.961,1.39-1.938,2.773-3.881,4.163-5.812.774-1.088,1.532-2.192,2.33-3.266,1.541-1.911,3.041-3.856,4.559-5.791,1.037-1.307,2.067-2.62,3.1-3.927.437-.562.889-1.114,1.319-1.678,2.566-3.028,5.161-6.033,7.937-8.88l-.033.031c.03-.03.061-.06.091-.091.437-.263.878-.521,1.315-.789.663-.4,1.3-.824,1.952-1.231.577-.365,1.16-.718,1.732-1.1,1.589-1.06,3.2-2.1,4.787-3.163,2.626-1.754,5.223-3.556,7.826-5.346l-.177.106c.212-.124.412-.277.612-.418l1.149-.831c1.219-.871,2.431-1.748,3.65-2.62l.172-.123c.511-.167,1.019-.345,1.535-.5a62.006,62.006,0,0,1,7.523-1.565c2.585-.382,5.182-.618,7.784-.78,1.566-.1,3.138-.18,4.7-.3.823-.008,1.645-.072,2.468-.1.317-.013.635-.028.953-.038a24.289,24.289,0,0,0,.193,3.229,1.738,1.738,0,0,0,1.39,1.525,1.668,1.668,0,0,0,.3.027,1.726,1.726,0,0,0,1.545-.963,15.851,15.851,0,0,0,.718-1.519c.177-.5.324-1.013.459-1.531.081-.3.152-.6.227-.908.16,0,.32-.006.48-.011.884,0,1.762.024,2.64.035.575,0,1.153.054,1.729.094q4.735,3.144,9.471,6.291c2.067,1.378,4.116,2.785,6.218,4.11q9.186,5.795,18.378,11.577c6.012,3.78,12.071,7.49,18.06,11.306l.531.339,1.285.963c.048.282.092.565.149.846q.114.565.231,1.128c-1.482.47-2.955.967-4.436,1.445-.213.069-.429.134-.645.2q-1.18-.339-2.381-.583a41.442,41.442,0,0,0-16.028.011A81.667,81.667,0,0,0,261.88,290a93.5,93.5,0,0,0-14.686,7.844,109.017,109.017,0,0,0-13.673,10.7c-2.62,2.4-5.17,4.876-7.578,7.5q-2.915,3.163-5.824,6.331c-1.03,1.124-1.973,2.313-2.932,3.5q-2.439,3.012-4.888,6.018C211.958,332.316,211.646,332.775,211.327,333.223Zm7.291-1.367q-1.743,1.623-3.435,3.3.521-.553,1.052-1.1c-.022.022-.044.044-.067.065.039-.04.079-.078.118-.117l-.024.024.028-.028c1.38-1.38,2.826-2.69,4.31-3.955Q219.6,330.941,218.618,331.856ZM284.6,290.4l-3.533,1.7q-3.339,1.6-6.677,3.209c-.395.189-.772.4-1.16.607-1.066.565-2.132,1.136-3.2,1.7l-.013.006q-1.476.534-2.937,1.107c-2.308.906-4.6,1.854-6.86,2.873-1.095.5-2.19,1-3.274,1.519-.665.324-1.348.63-2,.978-1.866,1-3.721,2-5.582,3-1.036.559-2.067,1.107-3.1,1.666-.348.188-.7.361-1.031.564-3.045,1.806-6.057,3.674-9.086,5.525l.177-.106c-.713.429-1.39.918-2.084,1.383-1.408.943-2.809,1.885-4.217,2.827-2.338,1.569-4.638,3.191-6.879,4.892q3.271-3.541,6.522-7.1c1.963-1.979,3.943-3.935,6.01-5.81q3.142-2.845,6.464-5.478a101.987,101.987,0,0,1,9.788-6.786,88.795,88.795,0,0,1,20.527-9.062,70.229,70.229,0,0,1,8.2-1.9,48.636,48.636,0,0,1,5.113-.454h.022l.14,0-.086,0a43.911,43.911,0,0,1,5.39.263l.168.022c-1.785.721-3.571,1.437-5.354,2.166C285.557,289.913,285.08,290.161,284.6,290.4Zm10.523.895c-1.873.324-3.733.689-5.594,1.043l-2.5.463.2-.1c3.114-1.249,6.212-2.524,9.321-3.771.123-.05.247-.1.372-.145q1.1.352,2.179.781c.567.24,1.122.492,1.671.762C298.883,290.647,297,290.959,295.12,291.291ZM301.8,287.2l.982-.317c.078.314.159.628.247.939Q302.419,287.5,301.8,287.2Zm5.342,1.89c-.146-.387-.287-.776-.424-1.172-.215-.617-.388-1.249-.569-1.883l-.039-.157c.3-.078.6-.141.894-.216q1.533,1.114,3.066,2.226l.476.345C309.411,288.541,308.278,288.83,307.138,289.089ZM318.255,232.5c-.194.667-.4,1.331-.605,2q.169-1.1.341-2.192c.221-.5.442-1,.659-1.5.07-.162.141-.324.211-.487C318.666,231.042,318.471,231.77,318.255,232.5Zm26.3-79.812c-.889,1.66-1.79,3.315-2.656,4.993-.9,1.749-1.837,3.486-2.714,5.247-.907,1.8-1.779,3.621-2.656,5.435l.025-.049c-.231.475-.441.963-.661,1.45-.406.889-.818,1.785-1.225,2.679-.483,1.06-.942,2.132-1.4,3.2-.489,1.148-1,2.3-1.461,3.456q-.511,1.308-1.03,2.615c-.2.5-.418,1.006-.6,1.519-.618,1.737-1.26,3.474-1.831,5.235-.642,1.984-1.284,3.963-1.908,5.953-.288.936-.5,1.908-.748,2.856-.223.848-.412,1.7-.612,2.55q-.618,2.6-1.213,5.2c-.436,1.884-.854,3.768-1.237,5.659-.293,1.442-.6,2.885-.877,4.329q-.309.811-.618,1.618c-.15.4-.3.795-.444,1.193q.735-3.677,1.469-7.351c.206-1.025.412-2.038.665-3.056,1.124-4.6,2.23-9.2,3.377-13.786a176.129,176.129,0,0,1,5.661-16.928c1.27-3.153,2.629-6.281,4.14-9.328,1.49-3.014,3.082-5.972,4.72-8.907,1.558-2.509,3.056-5.054,4.59-7.58q.853-1.419,1.717-2.842c-.04.076-.081.151-.122.227C346.119,149.744,345.342,151.217,344.553,152.683Z"/><path d="M367.948,113.625l.021-.023.108-.125Z"/><path d="M378.518,101.025l.033-.016.008,0Z"/><path d="M378.6,100.984h0l.014-.006Z"/></svg>