<svg xmlns="http://www.w3.org/2000/svg" width="384.811" height="591.105" viewBox="0 0 384.811 591.105"><path d="M103.581,218.889l.048-.01.176-.042Z"/><path d="M384.789,193.057a1.641,1.641,0,0,0-1.649-1.354c-2.3.006-4.587.312-6.883.447-2.155.13-4.316.3-6.477.359-4.364.13-8.721.266-13.09.336q-.9.015-1.806.033c.445-.344.876-.7,1.329-1.039.2-.135.409-.271.618-.406a2.463,2.463,0,0,0,1.091-1.7c3.75-.606,7.508-1.156,11.278-1.625.566-.042,1.119-.056,1.681-.053.81.051,1.6.15,2.4.275,1.458.252,2.91.532,4.356.851a1.827,1.827,0,0,0,.836-3.557c-1.066-.277-2.126-.542-3.2-.771-.736-.154-1.472-.313-2.214-.436a14.674,14.674,0,0,0-3.521-.241c-1.448.123-2.885.353-4.322.577-2.02.311-4.039.641-6.053.977-4.122.683-8.215,1.5-12.319,2.284-2.149.413-4.293.9-6.436,1.343-1.814.377-3.627.772-5.441,1.16l-.212.045a7.439,7.439,0,0,0-.068-1.447,12.453,12.453,0,0,0-.959-3.363c-.471-1.048-.99-2.072-1.525-3.091-1.373-2.608-3.009-5.082-4.611-7.555-.942-1.46-1.861-2.95-2.833-4.392-1.908-2.839-3.786-5.7-5.676-8.545-2-3.026-4.057-6.024-5.994-9.1q-1.865-2.949-3.734-5.905c-.812-1.3-1.566-2.644-2.338-3.963-.788-1.355-1.607-2.692-2.349-4.069q-1.392-2.568-2.777-5.134c-.8-1.654-1.59-3.312-2.4-4.965-.335-.683-.577-1.425-.865-2.131-.321-.786-.646-1.575-.963-2.366-.412-1.286-.84-2.567-1.257-3.853-.165-.506-.265-1.042-.4-1.56-.142-.587-.295-1.168-.435-1.758-.334-1.728-.662-3.451-.966-5.179-.228-1.293-.4-2.594-.548-3.893.17-.288.333-.578.509-.863.472-.758.954-1.516,1.422-2.284.153-.225.31-.446.466-.669.356-.242.7-.495,1.036-.77a11,11,0,0,0,2.19-2.279,6.31,6.31,0,0,0,1.131-2.668,1.9,1.9,0,0,0,.011-.262c1.229-1.331,2.472-2.651,3.7-3.975.447-.477.883-.966,1.331-1.431.394-.406.753-.848,1.124-1.272.348-.4.695-.8,1.025-1.213a14.061,14.061,0,0,0,1.018-1.337c.283-.441.548-.889.825-1.337a1.333,1.333,0,0,0-.689-1.872,1.7,1.7,0,0,0-1.272-.029,2.522,2.522,0,0,0-.589.371,4.276,4.276,0,0,0-.512.565c.035-.041.071-.088.112-.129-1.231,1.425-2.391,2.908-3.563,4.386q-1.425,1.8-2.836,3.617c-.519.548-1.03,1.1-1.542,1.655a2.793,2.793,0,0,0-.9.026,6.187,6.187,0,0,0-1.348.513c-1.043.492-2.087.984-3.163,1.393-.413.145-.828.278-1.245.41a3.006,3.006,0,0,0-1.847-1.045,3.273,3.273,0,0,0-2.285.554,11.284,11.284,0,0,0-1.91,1.755c-.224.028-.447.068-.671.092l.044,0-.093.01-.136.014a.355.355,0,0,1,.047-.006,63.011,63.011,0,0,1-7.411.218,96.011,96.011,0,0,1-12.382-1.266A99.164,99.164,0,0,1,253.2,96.17a86.518,86.518,0,0,1-10.1-3.829c-1.115-.517-2.219-1.056-3.31-1.608-.654-.336-1.325-.648-1.961-1.013-.595-.342-1.19-.677-1.785-1.019q-2.808-1.6-5.611-3.2c-1.019-.577-2.014-1.2-3.015-1.808-1.484-.9-2.974-1.8-4.457-2.715l.033.022c-.832-.53-1.678-1.036-2.518-1.547-.919-.565-1.832-1.148-2.756-1.7.07.048.141.095.212.142-1.354-.874-2.755-1.682-4.144-2.5-1.119-.717-2.288-1.375-3.441-2.043-.085-.05-.171-.1-.257-.148.063-1.653.126-3.306.174-4.957.74-1.174,1.464-2.358,2.185-3.548a1.679,1.679,0,0,0-.66-2.267,1.607,1.607,0,0,0-1.4-.073c0-.473,0-.945-.013-1.421a8.465,8.465,0,0,0-.224-1.331,1.533,1.533,0,0,0-.251-.559c-.1-3.059-.232-6.114-.264-9.174-.017-1.578-.047-3.156-.059-4.734,0-.771-.011-1.543-.017-2.308,0-.589-.006-1.178-.012-1.767-.006-.612-.059-1.213-.112-1.825a1.185,1.185,0,0,0-1.333-1.139c.023-.363.046-.725.067-1.087.041-.653.124-1.3.194-1.955.189-1.9.336-3.816.566-5.718.218-1.813.436-3.633.671-5.453.224-1.707.454-3.414.677-5.122.118-.854.23-1.714.348-2.573.065-.524.135-1.049.206-1.567.065-.477.141-.948.182-1.425.047-.53.053-1.06.059-1.589a1.521,1.521,0,0,0-1.372-1.461,2.022,2.022,0,0,0-1.06.13,1.338,1.338,0,0,0-.141.095q.045-.634.091-1.27c.053-.742.106-1.489.159-2.231s.1-1.473.141-2.2a15.79,15.79,0,0,0-.006-3.339,1.6,1.6,0,0,0-3.18.106c-.365,3.887-.718,7.779-1.113,11.665q-.555,5.565-1.089,11.129c-.324,3.351-.565,6.707-.83,10.064-.259,3.221-.43,6.447-.636,9.675-.088,1.448-.136,2.9-.2,4.357-.077,1.719-.189,3.445-.236,5.164l0-.045c0,.033,0,.065,0,.1V53.5c0,.026,0,.053,0,.079l0,.086,0-.037v.009l0-.036q-.138,4.064-.266,8.126v.016l0,.143v-.02c0,.037,0,.073,0,.108,0-.017,0-.034,0-.051v.047l0-.044,0,.114v.013c-.038.824-.072,1.653-.106,2.476-.053,1.178-.106,2.362-.153,3.539-.023.5-.035,1-.07,1.49l0,.04q-.959,1.163-1.918,2.323c.031-1.065.061-2.133.092-3.2.058-1.635.128-3.264.191-4.9A1.417,1.417,0,0,0,198.1,62.3a1.4,1.4,0,0,0-1.525,1.253c-.137,3.511-.24,7.018-.335,10.525a1.419,1.419,0,0,0-.407,1.447c.03.093.054.186.082.279-.279.351-.557.7-.839,1.05-.976,1.2-1.963,2.388-2.923,3.6-.036.041-.067.082-.1.123l.026-.027c-.043.051-.086.1-.132.157l.012-.014Q189.725,83.338,187.5,86l.013-.015q-1.156,1.371-2.3,2.744c.031-.039.062-.079.095-.119-.048.057-.094.11-.14.166-.224.248-.449.507-.674.755q-2.037,2.281-4.066,4.561l-1,.744c-.6.444-1.18.911-1.793,1.338-.016.012-.033.022-.05.034l.028-.018-.126.089-.263.182.049-.035-.093.065-.078.052.023-.014c-.492.344-.985.69-1.477,1.033l.171-.117c-.181.126-.362.25-.543.375.019-.013.037-.026.054-.04-1.678,1.178-3.362,2.344-5.04,3.522l.022-.017-.162.112.028-.019c-.075.051-.147.1-.218.151-.033.022-.066.045-.1.069-.811.551-1.637,1.093-2.452,1.64-1.66,1.108-3.327,2.2-4.976,3.328-.518.359-1.071.677-1.607,1.012-1.095.684-2.2,1.372-3.292,2.061-1.195.754-2.391,1.5-3.615,2.2-1.739.995-3.472,2.007-5.21,3-1,.5-1.959,1.069-2.934,1.608-1.006.552-2.024,1.094-3.03,1.653l.033-.016c-1.649.861-3.272,1.763-4.906,2.639l.024-.013q-2,1.048-4,2.115c-.316.143-.622.32-.928.475l-.542.278q-1.668-1.732-3.336-3.463c-.738-.761-1.459-1.544-2.207-2.3-.315-.35-.645-.684-.961-1.032-.783-.842-1.572-1.684-2.356-2.526q-1.689-1.809-3.369-3.627c-.326-.464-.653-.929-1-1.378a19.744,19.744,0,0,0-1.3-1.519,1.484,1.484,0,0,0-1.273-.431c-.725-1.115-1.509-2.2-2.273-3.292l.008.012c-.259-.369-.52-.735-.779-1.1l.018.026-.146-.207.016.024-.043-.064-.051-.072.028.039c-.364-.536-.71-1.1-1.088-1.622a2.516,2.516,0,0,0-.8-.8,2.736,2.736,0,0,0-.742-.259,1.368,1.368,0,0,0-1.607,1.714,24.268,24.268,0,0,0,1.3,3.085c.524,1,1.066,2.015,1.684,2.963.515.786,1.029,1.578,1.538,2.365a1.342,1.342,0,0,0,.188,1.3,33.187,33.187,0,0,0,2.161,2.626c.3.31.62.6.926.9,1.64,2.3,3.286,4.579,4.968,6.844.132.177.266.354.4.532-.18.731-.308,1.476-.471,2.212-.218,1.007-.43,2.02-.653,3.027q-.255,1.155-.527,2.306c-.038.113-.07.229-.1.344s-.043.21-.059.317c-.641,2.683-1.333,5.353-2.013,8.026-.365,1.431-.76,2.857-1.143,4.282-.465,1.736-.912,3.48-1.395,5.211q-.8,2.826-1.584,5.653c-.43,1.542-.842,3.1-1.3,4.634q-.838,2.817-1.678,5.635c-.23.773-.465,1.547-.7,2.321q-2.943,5.166-5.9,10.327c-1.8,3.121-3.639,6.207-5.458,9.316-3.263,5.588-6.554,11.152-9.787,16.759q-1.872,3.242-3.745,6.477c-.612,1.065-1.243,2.119-1.831,3.2q-1.669,3.047-3.327,6.094c-.613,1.119-1.2,2.262-1.732,3.422-.282.624-.518,1.26-.794,1.884-.084.193-.16.385-.233.578q-1.073.207-2.141.439a4.369,4.369,0,0,0-1.238-1.547,1.443,1.443,0,0,0-2.237.824.022.022,0,0,1-.006.018,1.378,1.378,0,0,0,.438,1.362l-8.082,1.7c-1.107.236-2.208.466-3.315.7-.314.064-.633.123-.945.2l.009,0c-4.638,1.06-9.27,2.178-13.9,3.285h0l-.06.014c-1.456.341-2.893.768-4.339,1.153l-5.452,1.45c-.554.123-1.108.234-1.656.37a8.213,8.213,0,0,0-1.714.535,6.716,6.716,0,0,0-1.212.713,2.374,2.374,0,0,0-.483.6,1.665,1.665,0,0,0-.077,1.808,1.522,1.522,0,0,0,.172.231c-3.337,1.038-6.651,2.154-9.97,3.255-2.038.672-4.075,1.331-6.107,2.014-2.325.777-4.646,1.619-6.924,2.52-1.308.506-2.621,1.013-3.881,1.637-1.089.536-2.161,1.113-3.238,1.684l.035-.017-.412.217A2.057,2.057,0,0,0,.051,250.87a1.967,1.967,0,0,0,.389,1.69,2.906,2.906,0,0,0,1.807,1.177,5.19,5.19,0,0,0,.811.073,3.063,3.063,0,0,0,.656-.067c.37-.086.739-.173,1.11-.266,1.356-.269,2.734-.433,4.1-.647l4.14-.635c4-.613,7.99-1.273,11.977-1.938,4.2-.706,8.4-1.484,12.6-2.284,2.049-.4,4.092-.872,6.136-1.313,1.6-.342,3.191-.672,4.775-1.054q3.975-.972,7.944-1.95c1.625-.394,3.238-.859,4.852-1.307q6.553-1.8,13.084-3.7c1.692-.491,3.389-.968,5.086-1.444a1.786,1.786,0,0,0,.3,1.688c.344.413.688.819,1,1.253.757,1.1,1.442,2.258,2.11,3.41.589,1.007,1.19,2.014,1.761,3.027q1.734,3.076,3.376,6.192a79.864,79.864,0,0,1,3.3,7.483c-.014-.039-.027-.076-.039-.114a82.533,82.533,0,0,1,2.428,8.053q.264,1.212.535,2.422.258,1.428.517,2.856c.236,1.3.418,2.591.6,3.9.188,1.325.377,2.656.559,3.981.088.618.2,1.242.259,1.866-.005-.07-.011-.135-.017-.206.229,2.4.489,4.782.736,7.172l-.006-.039c.166,1.733.327,3.471.453,5.209.077.984.153,1.967.218,2.95.092,1.424.245,2.874.231,4.3,0-.033,0-.066,0-.1,0,.039,0,.078,0,.118s0,.062,0,.094v-.088c-.075,1.8-.286,3.58-.448,5.37-.135,1.484-.265,2.968-.4,4.451-.059.672-.106,1.343-.147,2.015a6.039,6.039,0,0,0,.1,2.255,2.312,2.312,0,0,0,1.018,1.36c.108.057.218.112.33.162-.01.091-.019.182-.029.274-.035.332-.071.663-.108,1a14.221,14.221,0,0,0-1.494.259,2.408,2.408,0,0,0-1.843,2.373,2.149,2.149,0,0,0,.689,1.49,1.654,1.654,0,0,0,.177.135c-.565.685-1.134,1.366-1.7,2.053L94,325.8c-.865,1.025-1.7,2.073-2.538,3.115-1.095,1.36-2.19,2.732-3.256,4.122a1.573,1.573,0,0,0,.33,2.184,1.536,1.536,0,0,0,.913.3,1.626,1.626,0,0,0,1.277-.628q.657-.853,1.325-1.694a1.553,1.553,0,0,0,.842.351c.01,0,.021,0,.031,0-.156.183-.316.362-.467.547-1.683,1.86-3.231,3.831-4.913,5.691-.9.983-1.8,1.967-2.692,2.95-.771.842-1.525,1.714-2.32,2.538q-3.559,3.7-7.2,7.331-1.617,1.608-3.245,3.221c-.783.777-1.572,1.555-2.355,2.337a26.335,26.335,0,0,0-3.092,3.375,1.435,1.435,0,0,0,.3,1.978,1.359,1.359,0,0,0,.812.268,1.562,1.562,0,0,0,1.049-.427c1.312-1.226,2.591-2.486,3.914-3.7.308-.267.6-.56.891-.837.588-.553,1.171-1.107,1.76-1.66l1.855-1.749c1.7-1.6,3.4-3.207,5.106-4.8l-.03.029c2.625-2.4,5.209-4.852,7.816-7.273l.012-.01.013-.01,0,0,.008-.007.026-.024.021-.019.017-.017h0l.008-.007-.037.036c.136-.124.271-.253.407-.377-.042.042-.083.077-.118.112.118-.112.235-.218.353-.33l-.034.034c.149-.139.3-.276.452-.41l-.123.105c.088-.076.17-.152.259-.229l-.124.106c.389-.353.771-.707,1.154-1.054l-.03.026q3.7-3.38,7.385-6.786c-.041.035-.077.071-.118.106l1.307-1.2c-.041.035-.076.07-.118.106l.6-.548-.015.013.1-.087.03-.027.027-.025,0,0,.013-.012.046-.041-.032.028.106-.1-.032.028c.088-.082.176-.158.265-.241-.042.035-.077.071-.118.106l.111-.1c.018-.015.036-.03.053-.046a11.5,11.5,0,0,0,.878-.847c.324-.336.642-.672.954-1.019.674-.739,1.343-1.478,2.076-2.164a11.543,11.543,0,0,1,1.018-.816c.15-.1.3-.186.454-.275q1.527.371,3.057.723c1.078.247,2.185.43,3.28.613,1.248.206,2.5.376,3.763.5,1.513.147,3.032.277,4.557.347,1.225.053,2.45.118,3.675.177.732.039,1.476.1,2.214.111,1.245.056,2.489.1,3.739.142,1.221.052,2.448.142,3.67.147,1.386.115,2.782.15,4.167.23.9.047,1.8.094,2.7.147.387.02.774.053,1.158.062,2,.164,3.984.34,5.979.51,3.256.282,6.507.653,9.734,1.183l-.236-.035c3.266.54,6.508,1.225,9.707,2.087q1.425.592,2.829,1.239l-.031-.015a69.054,69.054,0,0,1,7.737,4.161,58.531,58.531,0,0,1,5.612,4.089c1.327,1.126,2.592,2.315,3.828,3.533-.019,1.25-.043,2.5-.052,3.751q-.071,8.223-.13,16.44c-.023,3.562,0,7.125.018,10.694.024,4.08.012,8.161.089,12.242q.087,4.442.17,8.879c.03,1.684.041,3.374.094,5.059.136,4.309.254,8.62.424,12.925q.133,3.4.265,6.789c.059,1.436.112,2.873.171,4.31.059,1.514.2,3.015.324,4.523,0,.044.024.083.032.126q-1.11,1.405-2.217,2.812c-.142.18-.283.36-.425.539l-.211.262q-1.633,2.031-3.274,4.051c-.753.927-1.5,1.854-2.252,2.781-.882,1.041-1.762,2.079-2.641,3.125-1.7,2.006-3.454,3.976-5.2,5.942-.243.247-.485.495-.726.741q-1.183,1.2-2.361,2.4l.048-.039.036-.033-.009.008.009-.008.034-.028-.09.08c-.019.018-.038.036-.057.056l.046-.046c-.129.114-.255.23-.381.347l.04-.036-.051.046-.1.089.059-.056q-.54.483-1.073.975l.013-.012c-.124.112-.247.223-.371.341.047-.047.094-.088.141-.135q-.708.643-1.411,1.287l0,0,0,0-.064.058.03-.027c-.427.386-.858.777-1.286,1.172l-.012.011-.135.124.04-.039q-.123.109-.246.222l.006-.006-.015.013-.06.055.015-.013-.009.009.028-.023c-2.774,2.5-5.712,4.805-8.391,7.408a31.22,31.22,0,0,0-4.711,5.464,14.109,14.109,0,0,0-1.572,3.092c-.015.044-.03.09-.044.135-.477.552-.938,1.116-1.4,1.684a10.837,10.837,0,0,0-.883,1.207,3.089,3.089,0,0,0-.195,2.579,10.56,10.56,0,0,0,1.661,2.921,33.987,33.987,0,0,0,2.308,2.655c.842.878,1.714,1.72,2.609,2.55,1.266,1.19,2.526,2.385,3.827,3.539.931.831,1.873,1.661,2.8,2.5.528.474,1.052.962,1.6,1.42l-.038-.031c.837.76,1.685,1.514,2.532,2.267.433.39.863.784,1.3,1.175l-1.093-.119c-.173-.029-.346-.06-.52-.088-3.366-.543-6.755-.843-10.154-1.1-1.126-.129-2.256-.254-3.381-.35a35.45,35.45,0,0,0-4.071-.124c-1.73-.114-3.457-.267-5.17-.537l-.224-.037c-.754-.144-1.492-.319-2.231-.533-.413-.131-.83-.261-1.243-.386l.095.027a7.289,7.289,0,0,0-2.709-.516,3.179,3.179,0,0,0-2.156.913,3.507,3.507,0,0,0-.256.325,2.469,2.469,0,0,0-2.011.705,5.107,5.107,0,0,0-1.06,2.738c-.112.678-.212,1.355-.282,2.032-.424,4.069-.7,8.143-.989,12.224-.283,3.934-.583,7.873-.937,11.8-.353,3.821-.854,7.637-1.419,11.429-.265,1.761-.53,3.522-.742,5.288a20.634,20.634,0,0,0-.165,2.408c0,.724-.024,1.438.043,2.16v-.01a5.017,5.017,0,0,1,.02.534l0-.046,0,.065,0,.153c0-.038,0-.078,0-.119-.051,1.062-.2,2.118-.283,3.175a1.6,1.6,0,0,0,1.419,1.726c.054,0,.108.008.161.008a1.589,1.589,0,0,0,1.533-1.3,1.56,1.56,0,0,0,.369.084,1.609,1.609,0,0,0,.169.009,1.655,1.655,0,0,0,1.615-1.469c.1-.766.147-1.537.224-2.3.076-.824.164-1.648.247-2.478.159-1.561.336-3.121.512-4.682.816-7.184,1.462-14.391,2.446-21.553.173-.981.336-1.967.5-2.948a43.674,43.674,0,0,1,1.065-4.669A32.355,32.355,0,0,1,137.8,509.6c-.012.027-.024.053-.038.08l.044-.092c.016-.038.033-.076.05-.114l-.047.107a25.1,25.1,0,0,1,1.35-2.5h0l.179.029c-.02,0-.04,0-.061-.008.646.11,1.3.209,1.946.3l-.2-.035c1.113.195,2.232.33,3.351.471,1.254.159,2.5.312,3.757.424,3.9.359,7.8.624,11.706.924,1.849.136,3.686.36,5.529.554,1.664.176,3.305.491,4.957.721,1.209.245,2.427.455,3.64.675.491.089.983.172,1.474.257a22.737,22.737,0,0,0,1.544,2.874c-.442.295-.883.591-1.311.907-.815.6-1.62,1.236-2.378,1.92-.592.142-1.179.3-1.755.488a9.966,9.966,0,0,0-5.235,3.733,11.858,11.858,0,0,0-1.572,3.139,24.912,24.912,0,0,0-.79,3.333,29.768,29.768,0,0,0-.37,4.021c-.042,1.249-.053,2.509-.024,3.757.059,2.367.224,4.747.459,7.1-.006-.077-.012-.147-.017-.224.123,1.248.253,2.5.382,3.751.4,3.874.813,7.749,1.272,11.618.437,3.664.9,7.323,1.306,10.993a4.758,4.758,0,0,0,.443,2.4,2.327,2.327,0,0,0,.819.836,3.175,3.175,0,0,0,1.083.33,1.914,1.914,0,0,0,1.4-.418,2.017,2.017,0,0,0,.718-1.325c.114-.775.237-1.542.317-2.318.237,1.3.481,2.6.784,3.89-.023-.088-.041-.177-.065-.265a14.657,14.657,0,0,0,1.037,3.3,8.038,8.038,0,0,0,.848,1.331,5.452,5.452,0,0,0,.9.842c-.071-.058-.136-.118-.206-.176.058.047.117.1.176.147a2.2,2.2,0,0,0,1.451.584h.062a2.086,2.086,0,0,0,1.373-3.586c-.163-.145-.324-.291-.481-.441l-.031-.038c-.094-.147-.182-.3-.267-.448-.086-.182-.165-.365-.241-.551-.179-.531-.315-1.067-.441-1.614l.014.071c-.034-.151-.069-.3-.106-.453,0,.02.01.04.016.059-.218-1.09-.448-2.173-.666-3.263-.742-3.65-1.4-7.319-2.073-10.987-.288-1.6-.553-3.2-.806-4.817-.471-2.956-.942-5.906-1.249-8.892.012.083.018.171.03.254a58.026,58.026,0,0,1-.309-6.6,34.556,34.556,0,0,1,.362-4.089,24.159,24.159,0,0,1,.609-2.617l-.008.025.01-.033.066-.22c-.015.053-.03.108-.047.164.192-.593.412-1.173.656-1.747a16.212,16.212,0,0,1,.831-1.528q.494-.743,1.048-1.436a21.527,21.527,0,0,1,1.595-1.6c.846-.749,1.746-1.433,2.657-2.1.138-.092.277-.186.415-.276.707-.474,1.413-.951,2.122-1.425a20.949,20.949,0,0,0,3.533,2.37,26.349,26.349,0,0,0,7.225,2.615,38.457,38.457,0,0,0,7.154.683c-.469,2.106-.936,4.211-1.386,6.325q-.645,3.03-1.278,6.06c-.212,1-.418,2.008-.624,3.009-.153.736-.318,1.478-.465,2.214a21.855,21.855,0,0,0-.548,4.186,13.692,13.692,0,0,0,.155,2.045l-.108.329c-.165.494-.341.989-.512,1.483a5.925,5.925,0,0,0-.542,3.009,5.3,5.3,0,0,0,.642,1.738,10.775,10.775,0,0,0,1.137,1.489c.736.836,1.519,1.632,2.331,2.4l.1.094a29.135,29.135,0,0,0,.718,3.934,19.3,19.3,0,0,0,1.548,3.968,19.535,19.535,0,0,0,2.285,3.339,75.141,75.141,0,0,0,6.778,6.766c.712.665,1.478,1.29,2.232,1.9,1.095.9,2.208,1.772,3.362,2.6a57.173,57.173,0,0,0,7.525,4.6,44.217,44.217,0,0,0,8.109,3.179,26.65,26.65,0,0,0,4.451.895,15.62,15.62,0,0,0,1.6.113c.1,0,.2,0,.305-.007a6.193,6.193,0,0,0,1.767-.318,1.928,1.928,0,0,0,1.372-1.914,2.435,2.435,0,0,0-.477-1.442,4.457,4.457,0,0,0-.86-.736c-.436-.295-.872-.589-1.313-.877l-.682-.44a2.377,2.377,0,0,0-.714-1.51c-1.336-1.283-2.638-2.6-3.945-3.915-1.166-1.172-2.308-2.373-3.5-3.51-1.1-1.054-2.155-2.143-3.279-3.174-.807-.736-1.62-1.484-2.427-2.226-.443-.407-.882-.828-1.34-1.223q-3.575-3.15-7.257-6.166c-2.426-1.985-4.84-3.993-7.313-5.924l.23.194c-.7-.6-1.414-1.166-2.12-1.755.076.059.153.124.229.188a43.453,43.453,0,0,1-3.666-3.462c-.059-.067-.117-.134-.175-.2.011-1.989.084-3.979.139-5.968.168-1.967.325-3.928.487-5.895.124-1.437.318-2.856.5-4.287.206-1.566.383-3.138.636-4.7q.44-2.721.884-5.453v.006c.078-.428.162-.855.241-1.283,1.447-.171,2.887-.4,4.319-.65.961-.172,1.917-.369,2.872-.58.008.62.019,1.241.065,1.86a25.771,25.771,0,0,0,.754,4.835,18.457,18.457,0,0,0,1.589,3.963,14.45,14.45,0,0,0,4.329,5.1,13,13,0,0,0,3.344,2.071,10.479,10.479,0,0,0,4.1.9l.2,0a15.225,15.225,0,0,0,4.24-.7A17.128,17.128,0,0,0,235,539.993a22.666,22.666,0,0,0,3.486-2.82,25.692,25.692,0,0,0,6.549-10.956,11.292,11.292,0,0,0,2.448-5.956,10.663,10.663,0,0,0-.318-4.1,15.227,15.227,0,0,0-1.637-3.716,17.691,17.691,0,0,0-3.311-3.946,22.019,22.019,0,0,0-4.255-4.846,21.146,21.146,0,0,0-4.022-2.7c-.384-.194-.775-.375-1.171-.547-.059-.3-.132-.6-.2-.907.155-.011.308-.026.464-.034l2.6-.141c1.272-.065,2.544-.094,3.822-.136,1.16-.035,2.3-.047,3.456-.023,1.427.034,2.854.092,4.28.093,1.543.079,3.08.212,4.618.313q1.784.123,3.556.253c1.366.106,2.732.206,4.093.312.66.05,1.323.1,1.987.144q-.1,1.347-.2,2.695-.363,4.973-.86,9.928-.609,6.058-1.319,12.1c-.212,1.8-.465,3.58-.707,5.37-.1.736-.212,1.473-.324,2.215-.088.588-.182,1.177-.27,1.772a22.185,22.185,0,0,0-.336,2.656,1.78,1.78,0,0,0,1.6,1.707c.053,0,.106.008.16.008a1.777,1.777,0,0,0,1.741-1.368c.648-3.545,1.114-7.125,1.632-10.688.529-3.591.948-7.189,1.33-10.793.165-1.555.336-3.109.471-4.669.195-2.221.377-4.434.572-6.649.117-1.3.208-2.611.3-3.919.229.031.459.056.687.091.7.124,1.389.259,2.072.451.209.072.414.15.618.235.206.1.41.206.61.317.158.106.308.216.455.332l.128.121c.045.053.09.106.133.16.118.756.214,1.515.3,2.278a105.984,105.984,0,0,1,.417,13.154c-.064,2.333-.15,4.665-.192,6.993l-.009.126q-.343,7.031-.683,14.056c-.218,4.528-.43,9.056-.541,13.59a2.237,2.237,0,0,0,1.442,2.014,2.189,2.189,0,0,0,1.687-.045,2.228,2.228,0,0,0,3.307,1.293,2.338,2.338,0,0,0,1.018-1.4,12.71,12.71,0,0,0,.513-2.7c.017-.306.029-.613.047-.918.029-.643.064-1.284.076-1.926.03-1.372.053-2.744.077-4.116q.06-4.012.166-8.019c0-.042,0-.083,0-.125v-.05l0-.046c0-.05,0-.1,0-.151v.051c0-.136.009-.272.012-.41l0,.073c.007-.185.013-.367.011-.549.006-.088.011-.178.015-.269a3.082,3.082,0,0,0,.027-.755c.012-.218.014-.438.021-.661l0,.066c.007-.171.014-.342.015-.511a11.4,11.4,0,0,0,.039-1.181c.012-.235.028-.472.023-.707a2.262,2.262,0,0,0,.008-.274l.006-.173-.006.116c.01-.34.02-.684.03-1.028,0,.106-.006.206-.006.306,0-.24.012-.479.021-.718,0,.023,0,.047,0,.07l.006-.136,0,.046,0-.064v.007l0-.042v-.038l0-.079,0,.041,0-.086v-.006l0-.129,0,.1,0-.105v-.041c.031-.948.057-1.9.088-2.85l0,.093c.035-.983.064-1.961.094-2.944-.006.1-.006.206-.012.306.029-.883.059-1.772.083-2.656v.058c0-.216.012-.432.019-.648,0,.026,0,.052,0,.079.059-1.873.065-3.751.094-5.624.053-3.5.124-7-.035-10.5-.065-1.6-.182-3.2-.33-4.8a32.406,32.406,0,0,0-.642-4.193c-.6-2.6-1.43-5.241-3.373-7.172a8.1,8.1,0,0,0-3.416-2.008,11.7,11.7,0,0,0-3.945-.418c-.106,0-.211.015-.317.021.01-.24.019-.481.029-.721.035-.89.094-1.785.1-2.68.03-2.449.165-4.929.006-7.378a17.207,17.207,0,0,0-.2-2.131,5.5,5.5,0,0,0-.389-1.444h0q-.02-.789-.035-1.577c-.012-.807-.03-1.62-.041-2.432-.006-.6-.012-1.2-.018-1.808a6.505,6.505,0,0,0-.118-1.514,2.7,2.7,0,0,0-.642-1.195,1.929,1.929,0,0,0-2.461-.43,7.619,7.619,0,0,0-1.125.766,10.628,10.628,0,0,0-.818.813c-.259.282-.536.553-.807.824-.482.482-.97.965-1.453,1.442-.85.736-1.686,1.493-2.521,2.244-.277.247-.589.465-.884.695-.624.494-1.248.989-1.866,1.484-1.612,1.273-3.3,2.457-4.983,3.644-1.171.756-2.325,1.523-3.491,2.28-.889.582-1.8,1.124-2.709,1.666-2.486,1.484-5,2.917-7.558,4.267l.009,0-.025.013-.2.1.063-.036c-.821.417-1.653.809-2.511,1.146-.243.081-.484.155-.731.223-.22.048-.441.088-.664.123a1.382,1.382,0,0,0-.762-.473,1.407,1.407,0,0,0-1.418.489l-.343-.041a1.847,1.847,0,0,0-1.321.375c-.112-.971-.261-1.938-.458-2.892-.249-1.212-.54-2.416-.853-3.614,1.059-1.239,2.123-2.474,3.167-3.731l-.04.051.022-.025c-.014.016-.028.034-.041.05.09-.108.183-.216.274-.328l-.044.052.046-.054.066-.081-.056.069c.192-.224.383-.45.571-.674l-.021.028q1.111-1.325,2.227-2.637c-.012.015-.025.03-.036.045.229-.271.453-.541.683-.812l-.043.054q.31-.366.62-.731l-.118.135c.106-.124.212-.253.318-.377-.035.047-.076.089-.112.136.027-.03.052-.059.077-.09,1.318-1.559,2.573-3.175,3.857-4.768,1.077-1.331,2.1-2.715,3.127-4.081q.584-.772,1.16-1.552.876-.815,1.743-1.64c1.354-1.289,2.744-2.549,4.039-3.9a84.023,84.023,0,0,0,6.036-6.678,43.542,43.542,0,0,0,4.216-6.536c.494-.96.93-1.961,1.389-2.938q.129-.273.25-.549c1.164,1.925,2.278,3.881,3.395,5.831-.035-.065-.064-.13-.1-.2.828,1.621,1.7,3.225,2.575,4.817,2.647,5.148,5.294,10.3,7.883,15.469q2.279,4.549,4.5,9.127c.842,1.737,1.672,3.486,2.526,5.223s1.667,3.5,2.562,5.216c-.02-.035-.039-.071-.059-.1,1.278,2.444,2.526,4.9,3.862,7.319-.041-.07-.082-.147-.123-.223.371.706.771,1.4,1.16,2.1A7.091,7.091,0,0,0,288.521,494a2.266,2.266,0,0,0,1.249.388,2,2,0,0,0,1.259-.441,2.067,2.067,0,0,0,.683-2.2c-.223-.66-.435-1.325-.706-1.973-.271-.665-.571-1.319-.866-1.973-.235-.512-.471-1.03-.7-1.542q-4.849-10.776-9.6-21.593-.981-2.208-2-4.4c-.73-1.578-1.448-3.162-2.214-4.722-.848-1.732-1.678-3.474-2.544-5.2-.88-1.749-1.743-3.509-2.656-5.241l.054.095c-.789-1.515-1.567-3.037-2.365-4.553l.009.019-.029-.057-.007-.012.019.033c-.048-.091-.1-.182-.146-.273l-.308-.587c.042.071.077.142.118.219l-1.5-2.861c-.072-.144-.147-.285-.222-.425.035.071.076.141.112.212-.087-.161-.171-.325-.257-.486.013.025.026.052.039.08-.029-.059-.059-.116-.088-.173l-.024-.046.009.018q-.074-.142-.15-.282c.041.07.076.141.117.212-.086-.16-.169-.32-.254-.48l.025.044c-.089-.164-.177-.331-.264-.5l.028.048-.063-.117-.049-.1.027.055q-.126-.238-.251-.48l0,0c-.037-.07-.073-.141-.109-.213l.054.112c-.063-.12-.126-.241-.19-.359.041.071.077.141.118.218-.506-.965-1.013-1.919-1.525-2.879-.407-.754-.777-1.555-1.254-2.268a3.754,3.754,0,0,0-1.284-1.342,2.464,2.464,0,0,0-1.561-.235,2.973,2.973,0,0,0-2.094,1.9,1.935,1.935,0,0,0-.826-.153,2.308,2.308,0,0,0-1.826,1.39c-.441.759-.865,1.531-1.295,2.3q-1.352,2.421-2.721,4.823-2.673,4.713-5.482,9.335v0l-.054.087-.1.166.059-.088.047-.07q-1.45,2.253-2.9,4.519c.023-.036.045-.073.069-.109-.292.452-.6.888-.912,1.324l-.289.271c-.636.607-1.266,1.225-1.914,1.82l.182-.165q-2.031,1.847-4.045,3.71l.183-.165c-.237.215-.473.429-.7.643.042-.04.084-.081.127-.119-.13.118-.259.242-.395.365-.842.783-1.69,1.561-2.532,2.344-.683.63-1.407,1.236-2.055,1.9-.571.583-1.178,1.13-1.766,1.695-.492.475-.982.945-1.473,1.417q1.653-4.243,3.224-8.52c.554-1.513,1.066-3.05,1.59-4.581.607-1.784,1.207-3.568,1.767-5.37.092-.3.184-.588.276-.882l.118-.178a16.4,16.4,0,0,0,1.649-2.768,10.511,10.511,0,0,0,.583-1.831,6.535,6.535,0,0,0,.147-1.59,2.778,2.778,0,0,0-.568-1.609,2.221,2.221,0,0,0-1.905-1.754,3.054,3.054,0,0,0-1.484.219c-.186.081-.369.167-.551.253-.144-.017-.288-.034-.432-.053-.834-.1-1.663-.223-2.492-.357-1.388-.265-2.786-.527-4.156-.88-1.485-.387-2.954-.8-4.433-1.213-3.51-1.1-6.975-2.368-10.383-3.762l.023.011c-1.111-.514-2.24-.992-3.365-1.473-1.22-.585-2.465-1.141-3.708-1.692q-.615-.452-1.229-.909c-.571-.419-1.148-.837-1.731-1.243a5.8,5.8,0,0,0-1.978-1.077,2.263,2.263,0,0,0-1.611.268c.011-.362.019-.724.03-1.087.023-.622.046-1.243.068-1.871.63-17.253,1.4-34.506,1.955-51.765.037-1.124.063-2.248.1-3.372a1.789,1.789,0,0,0,.448.059,1.736,1.736,0,0,0,1.419-.707c.4-.578.772-1.179,1.184-1.744.394-.547.795-1.095,1.189-1.642.6-.854,1.243-1.684,1.879-2.515,1.525-1.989,3.062-3.962,4.645-5.911-.025.029-.049.058-.076.087.016-.02.033-.039.049-.06-.01.013-.021.025-.031.037l.056-.066.05-.058.006-.008.017-.021-.015.019c1.217-1.429,2.439-2.853,3.645-4.287l-.055.07a2.4,2.4,0,0,1,.164-.183c1.449-1.578,2.88-3.162,4.323-4.74.376-.413.777-.807,1.165-1.207q1.387-1.422,2.762-2.839c.5-.506.978-1.042,1.5-1.531.547-.518,1.089-1.048,1.637-1.566,1.425-1.374,2.845-2.759,4.286-4.117.5-.427.984-.881,1.479-1.318q1.493-1.324,2.985-2.656c1.031-.919,2.061-1.837,3.127-2.72,1.872-1.549,3.751-3.1,5.629-4.646,1.089-.9,2.232-1.737,3.356-2.6,1.564-1.187,3.11-2.416,4.7-3.568,1.236-.837,2.462-1.692,3.693-2.538,1.2-.827,2.4-1.632,3.589-2.467.475-.322.978-.615,1.464-.919q1.607-1.008,3.227-2.014c1.16-.73,2.32-1.454,3.5-2.149,1.444-.847,2.875-1.717,4.328-2.544.541-.04,1.083-.08,1.625-.123.837-.066,1.667-.083,2.5-.1.9-.023,1.8-.053,2.691-.047h0c2.027,2.329,4.045,4.665,6.076,6.992,1.219,1.408,2.432,2.815,3.657,4.222.718.836,1.436,1.667,2.161,2.5.3.349.594.729.917,1.062,1.016,1.176,2.054,2.331,3.075,3.5.677.772,1.354,1.549,2.037,2.315.281.323.552.666.853.975,1.651,1.815,3.273,3.658,4.906,5.49.062.069.122.138.183.207,1.844,2.73,3.688,5.458,5.567,8.166,3.321,4.8,6.425,9.769,10.146,14.279q2.623,3.189,5.288,6.348c.925,1.095,1.849,2.191,2.785,3.28.459.542.925,1.078,1.39,1.62a13.167,13.167,0,0,0,1.872,1.919,2.414,2.414,0,0,0,1.476.488,2.519,2.519,0,0,0,2.44-3.249,12.518,12.518,0,0,0-1.478-3.092c-.447-.813-.9-1.625-1.354-2.438-.618-1.1-1.278-2.178-1.92-3.268-1.578-2.662-3.209-5.282-4.84-7.914-1.531-2.473-3.15-4.888-4.758-7.313-1.619-2.456-3.3-4.865-4.976-7.273-.689-.977-1.348-1.984-2.061-2.938q-1.66-2.217-3.315-4.434c-.618-.83-1.213-1.678-1.878-2.467-1.219-1.455-2.426-2.909-3.645-4.357-1.671-1.994-3.5-3.856-5.294-5.745a1.8,1.8,0,0,0-.14-3.088c-.235-.115-.475-.225-.716-.334-.079-.041-.158-.083-.236-.128-.15-.1-.3-.212-.439-.326-.464-.4-.9-.833-1.318-1.275-.369-.41-.709-.844-1.055-1.273.041-.02.084-.035.124-.058.061-.034.127-.067.188-.1A3.329,3.329,0,0,0,293,306a6.577,6.577,0,0,0,.866-1.219c.5-.966.854-2,1.266-3.009.512-1.266.971-2.549,1.407-3.845.36-1.072.742-2.138,1.078-3.221-.024.077-.047.153-.071.229.63-1.784,1.184-3.591,1.778-5.387.565-1.71,1.167-3.407,1.7-5.126,1.154-3.346,2.279-6.709,3.416-10.06,1.172-3.445,2.449-6.855,3.686-10.276,1.248-3.457,2.6-6.871,3.921-10.3s2.739-6.795,4.117-10.187c1.244-3.061,2.653-6.055,3.947-9.1q1.123-2.252,2.244-4.5c.3-.367.589-.75.886-1.123q1.219-1.529,2.438-3.056c1.222-1.531,2.467-3.045,3.665-4.594,1.33-1.512,2.712-2.982,4.067-4.474l1.89-2.085c.347-.377.73-.729,1.095-1.089,1.661-1.637,3.315-3.28,4.982-4.911a32.728,32.728,0,0,0,2.549-2.732,12.157,12.157,0,0,0,1.891-2.791,6.38,6.38,0,0,0,.5-1.748q3.038-.392,6.078-.777c1.36-.171,2.715-.395,4.069-.618,2.5-.407,5-.807,7.5-1.231,2.084-.353,4.157-.766,6.236-1.149q2.9-.53,5.788-1.1l3.021-.584a34.843,34.843,0,0,0,4.652-1.071A1.637,1.637,0,0,0,384.789,193.057ZM168.025,525.413a27.618,27.618,0,0,0-1,4.482q.087-1.032.248-2.062a22.5,22.5,0,0,1,.521-2.314c.138-.42.29-.831.463-1.237.153-.316.317-.624.5-.93.05-.078.1-.156.152-.232A20.565,20.565,0,0,0,168.025,525.413Zm37.6,40.86c.8.718,1.6,1.431,2.4,2.149.766.689,1.508,1.419,2.309,2.061-.059-.053-.124-.106-.183-.159l.257.219-.074-.066c.335.288.671.571,1.012.86-.064-.053-.123-.106-.182-.153.323.277.651.549.976.824l-.058-.047c.742.624,1.478,1.254,2.22,1.878-.059-.053-.123-.105-.182-.159l1.036.878c-.059-.053-.124-.106-.182-.159.459.394.948.754,1.425,1.13,1.7,1.319,3.374,2.65,5.128,3.892,1.879,1.343,3.769,2.656,5.689,3.94,1.5,1,3.014,1.983,4.53,2.962q-.35-.1-.7-.2a45.312,45.312,0,0,1-4.608-1.766,55.3,55.3,0,0,1-6.059-3.293l.074.049-.109-.07-.1-.065.051.031a66.407,66.407,0,0,1-6.582-4.886c-1.112-.943-2.17-1.942-3.238-2.941-1.119-1.046-2.227-2.1-3.278-3.215a32.27,32.27,0,0,1-2.1-2.569c-.283-.416-.548-.837-.791-1.276a18.622,18.622,0,0,1-.8-1.772Q204.561,565.314,205.623,566.273Zm65.359-73.763c.164.25.317.5.463.768.156.325.3.653.429.989l.051.15a16.334,16.334,0,0,0-1.334-2.408h0C270.726,492.174,270.857,492.34,270.982,492.51Zm73.4-300.318c1.615-.328,3.233-.635,4.852-.94-.335.284-.676.561-1,.852l-1.007.911c-1.219.023-2.437.042-3.657.065q-1.995.037-3.991.089Q341.981,192.676,344.383,192.192ZM289.1,278.77a53.338,53.338,0,0,0-1.584,8.615c-.142,1.437-.236,2.873-.318,4.31-.059,1.048-.146,2.1-.176,3.144-.055,1.583-.1,3.175-.144,4.763l0-.016c-.013.368-.012.736-.014,1.1-.425-.572-.853-1.142-1.277-1.716-1.372-1.86-2.727-3.727-4.116-5.571q-2.4-3.169-4.794-6.353c-.96-1.266-1.9-2.55-2.891-3.792l-5.476-6.837c-1.06-1.319-2.091-2.673-3.18-3.963q-3.961-4.686-7.912-9.373.117-1.119.248-2.233c.242-2.034.551-4.057.829-6.084q.342-1.778.672-3.55c.159-.83.3-1.66.5-2.478.722-2.912,1.391-5.84,2.264-8.71a108.54,108.54,0,0,1,4.76-12.5c.079-.163.159-.327.239-.49.94-1.161,1.883-2.321,2.841-3.47a11.934,11.934,0,0,0,2.756-4.423,3.189,3.189,0,0,0-.29-2.231l.432-.778c.565-1.018,1.148-2.031,1.648-3.085a14.234,14.234,0,0,0,1.2-3.08,8.232,8.232,0,0,0,.223-1.643,5.368,5.368,0,0,0-.17-1.3,3.149,3.149,0,0,0-1.773-2.061,3.493,3.493,0,0,0-2.708.2,6.491,6.491,0,0,0-2.132,1.872c-.486.617-.934,1.264-1.359,1.926-.106-.2-.213-.4-.319-.6.041.071.076.148.118.218-.413-.824-.854-1.648-1.231-2.491-.262-.582-.533-1.164-.8-1.748q2.57-.218,5.137-.443l4.332.053c8.468.1,16.93.129,25.391.182.983.006,1.967.036,2.944.006,2.162-.07,4.329-.13,6.489-.194,3.021-.095,6.048-.177,9.069-.271,1.071-.036,2.143-.065,3.215-.1.365-.006.73-.006,1.089-.048-.065.012-.13.018-.2.024,3.474-.235,6.936-.535,10.4-.806l1.708-.132.656.507.526.406c-.1.109-.2.216-.3.324-.589.66-1.219,1.3-1.779,1.991l-.027.033a2.129,2.129,0,0,0-.173-1.011,2.389,2.389,0,0,0-2.4-1.248,4.005,4.005,0,0,0-1.507.583c-.41.236-.8.487-1.185.755l.031-.019c-1.472,1.025-2.915,2.084-4.346,3.162a36.268,36.268,0,0,0-6.766,6.4,35.06,35.06,0,0,0-2.214,3.156c-.441.7-.889,1.408-1.272,2.144-.524.994-1.042,1.99-1.566,2.991-.324.618-.671,1.23-.954,1.872q-.661,1.494-1.325,2.986c-.412.924-.818,1.849-1.231,2.773-.241.536-.423,1.107-.635,1.655-.471,1.219-.931,2.438-1.4,3.657-.224.583-.465,1.159-.665,1.748q-1.079,3.082-2.161,6.172c-.477,1.359-.936,2.726-1.39,4.092q-.627,1.854-1.254,3.722c-.19.564-.393,1.128-.569,1.7-.011.035-.021.07-.033.107l.009-.028-.015.046,0,.014v0l-.009.029,0,.007v0l0,.007-.022.071-.108.348c-.372.664-.749,1.326-1.12,1.991-.925,1.654-1.8,3.332-2.685,5-1.72,3.239-3.427,6.49-4.852,9.876A63.264,63.264,0,0,0,289.1,278.77Zm-71.911-.808-.223.112q1.774-1.143,3.645-2.128a44.164,44.164,0,0,1,4.689-2.094h0a53.364,53.364,0,0,1,6.081-1.829A50.718,50.718,0,0,1,237.509,271a45.128,45.128,0,0,1,5.577-.183c.733.031,1.468.086,2.2.161h0a42.428,42.428,0,0,0-6.057.171A57.545,57.545,0,0,0,217.192,277.962Zm-12.1,6.126a64.551,64.551,0,0,0-5.017,6.147l-.027.038c-.088.1-.175.194-.262.291q.016-.984.032-1.969c.041-2.3.076-4.605.07-6.907q-.043-8.577-.076-17.147-.027-6.678-.053-13.355c-.006-.919-.059-1.832-.089-2.744q-.132-4.1-.259-8.2-.051-1.613-.1-3.224.333-7.323.711-14.642.144-2.721.284-5.441.486-.544.973-1.089.831.815,1.662,1.628,3.489,3.391,6.954,6.808c1.277,1.265,2.533,2.552,3.79,3.838q2.735,3.441,5.479,6.873t5.459,6.848c.594.748,1.189,1.508,1.8,2.244q5.44,6.5,10.87,13.019c1.095,1.313,2.208,2.609,3.285,3.934.26.318.548.624.819.936.771.877,1.543,1.749,2.314,2.626q1.716,1.958,3.436,3.912c-.409-.06-.816-.134-1.228-.185a43.262,43.262,0,0,0-14.038.725,49.693,49.693,0,0,0-14.621,5.4A51.77,51.77,0,0,0,205.1,284.088Zm13.18,189.625c.131.257.25.519.372.78-.268.254-.53.516-.8.768-.169.151-.336.306-.5.458-.245-.217-.476-.448-.725-.659-.034-.045-.07-.087-.1-.132q.521-1.011,1.039-2.021c.035-.069.073-.137.109-.2C217.871,473.035,218.084,473.368,218.276,473.713Zm-32.47-183.6a37.7,37.7,0,0,0-5.317-5.547,35.552,35.552,0,0,0-6.36-4.268,48.461,48.461,0,0,0-7.231-3.063,51.876,51.876,0,0,0-7.873-2c-1.4-.235-2.791-.394-4.2-.536-.469-.045-.941-.1-1.412-.143,1.03-1.029,2.052-2.065,3.088-3.089a1.608,1.608,0,0,0-2.32-2.226q-1.324,1.263-2.638,2.526l-.311.3c.267-.335.536-.668.8-1q4.028-4.724,8.024-9.47c-.048.059-.1.118-.148.177l.289-.342c-.047.059-.1.118-.147.177.032-.039.064-.076.1-.113-.023.027-.046.056-.068.083q4.832-5.379,9.663-10.746,9.592-10.642,19.238-21.233c1.127-1.24,2.237-2.495,3.354-3.744q-.153,2.864-.294,5.722c-.014.266-.027.533-.041.8q-.176,2.268-.353,4.536c-.2,2.626-.46,5.252-.572,7.879q-.662,14.909-1.319,29.812c-.041.9-.035,1.8-.047,2.692q-.053,4.027-.112,8.055-.075,5.1-.147,10.193c-.429-.747-.874-1.485-1.343-2.2C187.372,292.243,186.624,291.154,185.806,290.117Zm-11.459-4.969.178.114.052.033-.044-.027a35.623,35.623,0,0,1,3.411,2.518c-.031-.027-.063-.055-.093-.083l.119.1.081.067c-.023-.019-.047-.038-.071-.059q.484.421.954.857a63.281,63.281,0,0,0-7.228-5.013q1.407.729,2.756,1.564C174.424,285.2,174.385,285.174,174.347,285.148ZM137.132,238.5c-.447-.865-.948-1.7-1.419-2.555-.436-.783-.842-1.6-1.319-2.367l-.126-.2a1.587,1.587,0,0,0-.651-2.08,1.56,1.56,0,0,0-.729-.189l-.043-.04c-.515-.833-1.034-1.663-1.566-2.485q-.759-1.184-1.543-2.35c-.23-.343-.46-.689-.7-1.03.3-.058.591-.114.886-.173,1.2-.239,2.405-.461,3.609-.677.805,1.442,1.61,2.884,2.4,4.335l0-.009c.564,1.121,1.093,2.247,1.6,3.4l0-.006c.316.851.641,1.7.961,2.554a40.513,40.513,0,0,1,1.267,4.553c-.018-.077-.036-.147-.048-.224.3,1.313.607,2.644.79,3.98.094.69.188,1.379.282,2.073s.188,1.405.282,2.108C139.907,244.174,138.574,241.309,137.132,238.5Zm-17.281-15.558.054-.014q-5.262,1.208-10.524,2.418l.048-.014c-2.426.554-4.847,1.184-7.267,1.779-2.066.506-4.139,1.007-6.206,1.543-3.86.993-7.723,1.974-11.569,3.029a7.721,7.721,0,0,0-1.085-.92,1.575,1.575,0,0,0-1.707-.07,1.535,1.535,0,0,0-.713,1.554c.025.133.057.259.087.388l-.285.08c-.821-1.243-1.65-2.485-2.428-3.759l-.1-.158q2.878-.751,5.755-1.5c1.351-.35,2.7-.734,4.054-1.06.208-.046.413-.094.617-.145q1.034-.235,2.06-.479l-.23.053c.185-.042.371-.087.554-.131l-.006,0q5.135-1.193,10.27-2.4c7.833-1.45,15.672-2.874,23.5-4.36l4.845-.918q-.3.451-.6.9c-.318.477-.63.954-.948,1.431q-.127.192-.249.388c-.256.308-.514.615-.771.922-.3.06-.595.122-.892.181-1.425.283-2.856.559-4.281.842-.547.112-1.095.206-1.636.335l.01,0ZM130.9,211.2c0-.025,0-.05.006-.075l0,.1Zm.171.951c-.015-.052-.026-.1-.039-.155-.047-.226-.086-.454-.118-.687,0-.067,0-.134-.007-.2,0-.086.009-.171.019-.255l.007-.037c.177.018.353.041.53.066.421.086.838.181,1.251.292.121.041.238.09.355.136-.4.789-.8,1.57-1.212,2.349l-.083.012C131.524,213.178,131.278,212.676,131.073,212.153ZM169.486,154.3l.1-.069-.1.068c.9-.6,1.793-1.231,2.692-1.852s1.824-1.23,2.719-1.871c.7-.492,1.382-1.012,2.069-1.515.771-.571,1.554-1.124,2.32-1.7-.065.047-.13.088-.189.129.371-.253.725-.547,1.078-.83.624-.489,1.243-.978,1.867-1.472,1.46-1.148,2.944-2.285,4.328-3.527,2.2-1.967,4.294-4.044,6.35-6.163.957-.848,1.89-1.72,2.823-2.592q-.09,2.071-.18,4.143c-.1,2.229-.223,4.452-.3,6.675v-.01l-.012.312V144c0,.044,0,.088,0,.133l0,.044v-.006c-.168,5.342-.348,10.69-.51,16.037l0-.04c-.033,1-.016,2-.016,3l-.018,8q0,3.471-.012,6.949c0,.706.012,1.407.036,2.114q.09,2.951.181,5.9c-.04.674-.082,1.348-.122,2.022-1.923-2.119-3.834-4.247-5.766-6.361.035.035.07.073.1.11-.1-.116-.207-.229-.308-.346.041.054.088.1.135.154l-.083-.091c-.222-.262-.478-.506-.717-.763q-.893-.928-1.785-1.867c-1.86-1.943-3.721-3.9-5.582-5.841q-2.826-2.96-5.653-5.924c-.86-.9-1.707-1.813-2.579-2.7l.135.152c-.794-.883-1.66-1.707-2.49-2.555q-2.447-2.486-4.878-4.976l.737-.48c.86-.565,1.72-1.125,2.579-1.69.349-.226.7-.446,1.044-.684-.029.021-.06.041-.09.06Zm39.083-35.488a60.5,60.5,0,0,0,2.3,8.259,51.649,51.649,0,0,0,22.305,27.246c.853.5,1.722.974,2.6,1.421q1.416,1.257,2.836,2.509-1.275-.795-2.555-1.581c-1.3-.884-2.586-1.784-3.883-2.668-2.188-1.5-4.288-3.117-6.323-4.816a90.517,90.517,0,0,1-7.942-7.679,74.7,74.7,0,0,1-5.862-7.288c-1.046-1.5-1.992-3.073-2.955-4.63-.666-1.071-1.249-2.19-1.908-3.262a1.461,1.461,0,0,0-1.122-.663q.16-1.986.322-3.973A35.71,35.71,0,0,0,208.569,118.814Zm12.845,20.765c-.573-.725-1.123-1.466-1.658-2.222a50.894,50.894,0,0,1-2.971-4.838,54.98,54.98,0,0,1-2.635-5.851q-.308-.834-.589-1.677c.976,2.329,2.07,4.61,3.233,6.846A77.2,77.2,0,0,0,221.414,139.579Zm63.1-30.8c.695-.052,1.389-.127,2.081-.248.239-.043.477-.106.716-.156q-1.581,1.6-3.163,3.207c-.161.162-.317.328-.477.491a1.161,1.161,0,0,0-.668.455,2.247,2.247,0,0,0-.236.473c-1.653,1.679-3.3,3.358-4.931,5.064q-1.47,1.542-2.951,3.078c.673-.923,1.352-1.842,2.045-2.75C279.409,115.147,281.924,111.936,284.516,108.782Zm2.9,3.421c.109,2.376.465,4.743.8,7.089.5,3.5,1.113,6.972,1.784,10.434.318,1.648.654,3.286,1.019,4.928q.4,1.749.783,3.51c.33,1.49.724,2.968,1.131,4.446q.623,2.257,1.356,4.494-1-2.357-1.91-4.755c-.044-.129-.087-.261-.129-.393l-2.226-6.659c-.424-1.273-.807-2.544-1.178-3.828-.353-1.225-.712-2.45-1.066-3.675-.159-.547-.341-1.1-.483-1.654q-.669-2.729-1.343-5.451c-.306-1.457-.6-2.906-.77-4.384-.054-.581-.086-1.157-.088-1.738Q286.258,113.384,287.419,112.2Zm2.793-1.932a1.711,1.711,0,0,0-.567-.328l.914-.928c.015.136.027.272.043.408l-.016.031C290.454,109.723,290.334,110,290.212,110.271Zm-93.8,118.674.144,4.49-.008.185q-.443,9.372-.878,18.749-.177,3.807-.359,7.608c-.045.944-.1,1.881-.13,2.819v-.04q-.344,9.407-.659,18.8-.2,5.971-.418,11.936c-.056,1.514-.116,3.034-.158,4.554-.612.842-1.224,1.687-1.8,2.555-.029-.057-.059-.113-.089-.17.142-6.2.312-12.391.447-18.587,0,.033,0,.068,0,.1.007-.214.017-.431.022-.644q.3-8.109.595-16.211c.1-2.726.2-5.464.3-8.191.035-.889.059-1.778.1-2.668q.561-10.923,1.108-21.846.221-2.831.441-5.664.168-2.148.335-4.294c.212-.238.426-.474.638-.711l.113-.127C196.255,224.043,196.336,226.494,196.412,228.945Zm-.4,116.459-.015-.016c.081-6.037.162-12.074.3-18.112q.118-5.232.24-10.451c.052.031.1.067.153.094q-.183,9.942-.452,19.884Q196.136,341.105,196.017,345.4Zm-3.975-4.455c-.036-4.155-.093-8.305-.093-12.46q0-7.385-.006-14.774,0-1.677-.007-3.355c.343.537.688,1.074,1.03,1.609.2.319.405.636.608.953q-.189,7.706-.383,15.408c-.113,4.6-.19,9.19-.261,13.784Q192.489,341.531,192.042,340.949Zm4.935-39.7q-.071,4.083-.14,8.166l-.116-.178c.061-2.632.113-5.268.175-7.9ZM192.4,369.107q-.057-3.588-.113-7.178a1.293,1.293,0,0,0,.335-.145q-.084,5.082-.169,10.163Q192.419,370.528,192.4,369.107ZM180.438,230.052c-.072.086-.145.169-.218.257l-.073.087.02-.026c-.021.027-.043.053-.065.079l-.052.062.009-.01h0l.009-.01.022-.027,0,.006.022-.027.018-.02-.043.05-.055.067c-.445.521-.861,1.074-1.274,1.623-1.766,2.037-3.54,4.069-5.266,6.139l-.021.024-.015.018.009-.012c-.028.033-.056.064-.082.1l.016-.018,0-.006,0,0,.015-.017-.036.042c-.033.039-.066.079-.1.117l.018-.022c-.114.133-.226.267-.336.4.041-.053.088-.106.129-.159-4.08,4.828-8.184,9.639-12.247,14.48.041-.054.088-.106.135-.166-.153.183-.306.36-.453.542l.024-.032-.025.028.022-.026-.08.095.015-.017c-1.842,2.164-3.623,4.381-5.433,6.577q-1.933,2.331-3.857,4.669c-.553.663-1.14,1.309-1.656,2-.468.553-.908,1.128-1.358,1.694q-1.286,1.6-2.581,3.211c0-.108.014-.214.017-.322.042-1.819-.007-3.643-.142-5.461.006-.472.011-.944.012-1.417,0-.134,0-.268,0-.4q.106-.708.214-1.416c.565-3.757,1.03-7.531,1.537-11.294.229-1.714.4-3.433.595-5.152.135-1.166.259-2.332.335-3.5.094-1.407.159-2.821.147-4.234-.011-1.056-.011-2.124-.113-3.177l0-.042,0-.055v.012c-.121-1.211-.247-2.428-.368-3.645.007.077.012.153.018.23a29.21,29.21,0,0,0-.853-4.823c-.26-.96-.566-1.9-.89-2.832-.228-.665-.473-1.32-.711-1.979,1.059-.162,2.119-.317,3.174-.478q3.675-.566,7.337-1.119c1.737-.259,3.48-.471,5.217-.712,8.25-1.131,16.505-2.2,24.749-3.4q3.321-.483,6.645-.966-6.1,7.272-12.19,14.554Zm-38.642-7.08-.024-.063h0Zm-6.636-2.991c-.459-.843-.923-1.683-1.375-2.529l.305-.453,1.169-.222a2.335,2.335,0,0,0,1-.056,1.728,1.728,0,0,0,.414-.208q.982-.144,1.964-.291c.3.465.586.933.862,1.411.247.486.47.98.695,1.474l-1.313.23Q137.022,219.659,135.16,219.981Zm49.97-9.223q4.074-.435,8.152-.885c-.034.561-.067,1.123-.1,1.684-1.413.224-2.834.411-4.252.614-2.661.383-5.323.754-7.984,1.142-4.17.6-8.35,1.119-12.531,1.673q-6.183.829-12.366,1.666c-4.047.552-8.084,1.208-12.125,1.826-.346-.791-.713-1.573-1.107-2.343-.083-.161-.175-.318-.261-.478,3.192-.437,6.4-.771,9.6-1.154q5.344-.636,10.682-1.249,4.416-.511,8.838-1.006c1.7-.191,3.4-.4,5.1-.579-.041,0-.08.01-.119.013C179.483,211.406,182.3,211.064,185.13,210.758ZM150.669,162.74c-.03.809-.073,1.619-.112,2.428,0,.074-.006.147-.008.22-.108.483-.218.965-.333,1.447-.477,1.973-.96,3.945-1.431,5.918-.118.489-.248.973-.384,1.456.006-.048.013-.095.019-.143q.432-3.357.871-6.719c.311-2.387.593-4.78.9-7.169.155.2.306.408.462.61C150.662,161.439,150.663,162.091,150.669,162.74Zm5.993-6.164.074-.028-.031.012.058-.022.1-.036-.059.023.232-.084-.016.007.042-.016.164-.061-.037.013.256-.1-.036.013.079-.029.127-.048-.049.02.17-.063-.045.019.1-.038.1-.038-.066.023.185-.068-.036.015.161-.06.045-.016-.02.007q.331-.124.656-.249c-.03.014-.061.026-.092.038l.276-.1c.078-.029.153-.062.23-.092l.422.429c-.84.571-1.677,1.146-2.521,1.708-.295-.346-.594-.688-.891-1.033.151-.055.307-.1.456-.157Zm13.481,10.153c.787.871,1.62,1.7,2.426,2.541,1.867,1.943,3.722,3.892,5.588,5.841q2.827,2.96,5.653,5.918c.184.192.369.385.553.579,2.579,2.963,5.205,5.888,7.809,8.83l2.138,2.423q-.169,2.826-.342,5.652l-3.975-4.683c-.736-.865-1.472-1.725-2.2-2.6-.256-.3-.5-.6-.766-.888-.116-.129-.232-.255-.347-.385l.047.054-.371-.407.141.159c-.153-.17-.312-.34-.471-.516l-.062-.067.039.036c-.375-.407-.75-.818-1.125-1.226l.017.019c-.1-.113-.208-.225-.311-.337.034.036.068.071.1.107-.159-.177-.318-.347-.477-.518.053.052.1.106.147.153l-.379-.411c-.028-.033-.058-.066-.089-.1-.149-.162-.3-.325-.447-.486.032.035.065.068.1.1l-.489-.536-.005-.006a1.7,1.7,0,0,0-.141-.153l-1.844-2.014.142.159-.982-1.077.028.029c-.365-.4-.73-.8-1.1-1.2l.03.03-1.24-1.356a1.349,1.349,0,0,0-.108-.118q-.514-.564-1.031-1.124l.032.033c-.286-.313-.571-.628-.856-.94l.141.16q-.274-.3-.55-.6l0,0-.006-.007-.135-.146.024.025-.813-.891.141.159c-.123-.137-.249-.273-.374-.413l-.161-.176c.012.012.023.024.035.035-.031-.032-.062-.065-.092-.1l-.049-.054.032.036-.281-.3.031.031c-.106-.118-.212-.235-.324-.353l.141.159c-.1-.112-.2-.224-.3-.33.047.053.1.1.147.153l-.329-.354c-.03-.036-.06-.07-.09-.1.012.012.024.026.036.039-.014-.016-.03-.033-.045-.048l-.09-.1.032.036-.046-.05c-2.556-2.806-5.14-5.589-7.718-8.372q-2.794-3.025-5.585-6.065c.388-.241.776-.481,1.162-.727.412-.259.83-.5,1.225-.789l-.188.136c.174-.105.345-.219.517-.332q2.586,2.629,5.166,5.263c.854.872,1.69,1.767,2.567,2.615C170.175,166.765,170.159,166.747,170.143,166.729Zm29.578-37.79.077-.071c.074-.068.142-.143.215-.212-.022.643-.048,1.287-.064,1.931v.01l0,.064,0,.123v-.038h0c-.11,2.823-.219,5.647-.306,8.476.006-.07.006-.141.012-.206-.1,2.131-.227,4.26-.344,6.389,0-.09.007-.181.01-.271.041-1.189.124-2.385.13-3.575q.009-2.613.017-5.228.012-3.589.023-7.178l.193-.178.023-.019-.017.015Zm19.88,65.724c.016-.021.032-.04.048-.06l-.02.026.032-.037c3.286-3.94,6.5-7.938,9.757-11.906,2.522-3.075,4.991-6.2,7.472-9.306l4.988-5.1c.766-.79,1.531-1.567,2.3-2.356.144-.148.279-.306.422-.457a7.94,7.94,0,0,0,1.55.667,6.229,6.229,0,0,0,1.72.159,1.686,1.686,0,0,0,1.543-2.149,6.7,6.7,0,0,0-.336-1,3.413,3.413,0,0,0-.542-.771,6.143,6.143,0,0,0-.627-.612c.168-.194.332-.391.5-.586,1.013.39,2.033.767,3.064,1.1-.087.241-.168.484-.245.728a43.4,43.4,0,0,0-1.484,6.8,46,46,0,0,0,.342,14.432c.247,1.373.53,2.733.865,4.075.271,1.072.53,2.161.872,3.209.336,1.019.665,2.038,1,3.051.271.836.512,1.684.83,2.5q.53,1.383,1.06,2.756l.156.667-1.167.206-4.378.115c-5.806.153-11.612.288-17.424.447-1.1.03-2.22.006-3.321.089q-2.137.159-4.281.324-5.717.43-11.442.866c2.26-2.631,4.537-5.245,6.762-7.9-.026.032-.052.065-.079.1Zm33.1-20.248a46.544,46.544,0,0,1,.543-5.431q.091-.539.194-1.075.1,1.216.205,2.432c-.266,1.851-.472,3.71-.6,5.576q-.124,1.774-.185,3.554A46.083,46.083,0,0,1,252.7,174.415Zm2.423-21.487a1.913,1.913,0,0,0-.383.18c.15-.209.3-.418.447-.628-.02.146-.043.291-.063.437ZM207.506,208.8l.261.333-.647.117Zm4.862-.5-.174-.2c.819-.067,1.636-.145,2.455-.209Zm-10.685-4.909c-.222.015-.443.046-.665.07q.073-1.377.149-2.753c.635.822,1.286,1.635,1.928,2.456l.088.113Zm5.473-143.175c0-.258,0-.516.008-.774q.149-1.568.306-3.133.039,1.41.08,2.817a1.679,1.679,0,0,0-.179.4C207.3,59.754,207.229,59.985,207.156,60.216Zm-7.594,114.608c.024-.273.049-.545.072-.818a1.565,1.565,0,0,0,.231-.077q-.389,6.427-.774,12.854c-.12,1.99-.224,3.982-.338,5.973l-.739-.815Q198.8,183.385,199.562,174.824ZM198.137,197.2c.115.13.228.263.343.394-.109,1.949-.225,3.9-.331,5.846l-.2-.234c-.063-1.218-.133-2.437-.166-3.66q-.039-1.419-.082-2.838Zm-41.246-34.884q2.951,3.216,5.909,6.42,3.763,4.093,7.533,8.193-1.709-1.724-3.424-3.442c-1.913-1.913-3.8-3.855-5.634-5.852-.272-.316-.548-.627-.825-.938-1.166-1.33-2.332-2.667-3.5-4-.082-.094-.158-.194-.239-.289C156.772,162.377,156.833,162.347,156.891,162.314Zm49.3,51.063c1.434-.248,2.863-.525,4.287-.792q1.566,1.995,3.131,3.992c.76.977,1.549,1.936,2.292,2.93,2.238,3.36,4.521,6.687,6.787,10.025L224.35,232c-1.626-1.851-3.318-3.65-5-5.448-.722-.785-1.5-1.525-2.255-2.287-.831-.842-1.655-1.684-2.491-2.514-1.484-1.49-3-2.962-4.522-4.411q-1.514-1.437-3.028-2.878Zm42.591,45.709c-.086.736-.177,1.47-.267,2.2q-3.274-3.945-6.5-7.93l-1.757-2.167q-1.455-2.263-2.912-4.527-2.067-3.206-4.134-6.407c-.57-.883-1.111-1.795-1.713-2.657q-2.341-3.471-4.706-6.932,7,8.747,13.962,17.527c2.509,3.18,5.117,6.271,7.7,9.392l.472.567C248.867,258.465,248.818,258.774,248.779,259.086Zm22.6,27.875.247.265c-2.413-2.659-4.888-5.259-7.348-7.872-.438-.519-.87-1.043-1.306-1.562A2,2,0,0,0,262.7,277a3.923,3.923,0,0,0-1.213-1.313c-.166-.111-.346-.2-.524-.3-.521-.625-1.046-1.245-1.565-1.872a1.333,1.333,0,0,0-.225-2.526c-.765-.189-1.535-.371-2.3-.554-.351-.429-.7-.856-1.053-1.285a1.843,1.843,0,0,0,1.054-1.431q2.587,3.084,5.164,6.173c.877,1.048,1.713,2.12,2.567,3.192,2.809,3.539,5.671,7.042,8.374,10.669q2.285,3.063,4.56,6.135Q274.518,290.374,271.382,286.961Zm-16.207-49.584q-.644,1.276-1.225,2.583a60.553,60.553,0,0,0-2.8,7.761c-.519,1.807-1,3.645-1.343,5.5-.051.277-.1.553-.151.83q-1.7-2.048-3.4-4.091c-2.638-3.156-5.164-6.4-7.726-9.616-5.865-7.366-11.789-14.686-17.665-22.041-.577-.724-1.178-1.419-1.778-2.125q-1.917-2.25-3.836-4.491,9.949-1.864,19.889-3.766c4.022-.76,8.037-1.52,12.065-2.25l.484-.088q4.149-.269,8.3-.553c.037.138.075.275.111.413a37.892,37.892,0,0,0,1.148,3.726,5.121,5.121,0,0,0,.736,1.644,2.438,2.438,0,0,0,1.655.889,2.674,2.674,0,0,0,.613-.012c.062.077.124.153.188.23a1.825,1.825,0,0,0,2.161.524,6.771,6.771,0,0,0,.718-.335,2.665,2.665,0,0,0,.477-.407,1.97,1.97,0,0,0,.359-.511q.457.882.93,1.757-.508.909-1.018,1.822c-.4.713-.725,1.478-1.09,2.214q-.707,1.449-1.413,2.891c-.341.695-.606,1.432-.9,2.144-.518,1.26-1.042,2.52-1.56,3.78A101.591,101.591,0,0,0,255.175,237.377Zm9.939-15.724q1.142-2.367,2.3-4.727c.048.076.1.152.145.228q-.45.818-.9,1.637c-.643,1.162-1.227,2.355-1.81,3.547C264.933,222.11,265.024,221.881,265.114,221.653ZM253.8,154.418c-.13.545-.276,1.087-.36,1.643a15.029,15.029,0,0,0-.176,1.631c-.022.4-.043.8-.059,1.2-.75-.25-1.5-.517-2.243-.778Q252.429,156.3,253.8,154.418Zm-17.595,10.313c-2,2.441-3.977,4.9-5.994,7.33l.011-.016-.078.095-.039.046-.021.024.007-.008-.018.021,0,0,0,0c-2.3,2.676-4.565,5.376-6.844,8.064-2.226,2.614-4.464,5.223-6.672,7.855l.016-.022.042-.05.024-.028-.015.016,0,0,0,0-.013.014h0l0,0-.009.011c-.813.875-1.564,1.822-2.338,2.723-1.619,1.89-3.244,3.775-4.857,5.665l-3.572,4.161c-.127-.149-.256-.3-.382-.447-.224-.259-.44-.527-.669-.781l.01.01-.021-.023c-.036-.04-.072-.079-.109-.118l-.012-.014.053.054-.092-.1-.043-.05.02.025c-.057-.062-.114-.124-.17-.188l.056.057c-1.01-1.119-2.028-2.232-3.038-3.351.038-.69.073-1.38.112-2.071.553-9.88,1.16-19.755,1.743-29.63.176-2.962.4-5.918.606-8.874q.611-8.8,1.219-17.594c.191-2.7.415-5.4.635-8.1l.091.158c.424.742.86,1.466,1.307,2.19.589.949,1.148,1.914,1.767,2.839a75.987,75.987,0,0,0,4.728,6.33q2.544,3.019,5.335,5.823c1.873,1.885,3.828,3.692,5.877,5.394,1.46,1.213,2.95,2.414,4.5,3.515,1.025.725,2.05,1.437,3.074,2.161.725.507,1.431,1.043,2.179,1.514-.059-.035-.112-.071-.171-.106q2.04,1.322,4.092,2.626Q237.371,163.31,236.208,164.731ZM200.034,84.906a1.585,1.585,0,0,0,.763,1.2,1.152,1.152,0,0,0,.8.149c-.014.6-.02,1.2-.038,1.8q-.087,2.973-.172,5.944-.09,1.087-.175,2.176-.229,2.871-.436,5.741c-.059.825-.112,1.643-.165,2.468q-.043.768-.088,1.537c-.023.459-.059.918-.071,1.383a14.914,14.914,0,0,0,.071,1.608,1.6,1.6,0,0,0,.273.8q-.036.971-.067,1.94c0-.04,0-.082,0-.126-.1,1.746-.156,3.5-.231,5.243-.074,1.618-.175,3.237-.219,4.855-.012.291-.023.582-.035.873-.247.257-.493.516-.74.774q.006-1.906.012-3.812c.006-.924-.017-1.849-.041-2.773-.065-2.856-.123-5.706-.194-8.562-.057-2.531-.126-5.061-.18-7.591.042-2.118.109-4.235.165-6.353.088-2.32.175-4.64.233-6.96.035-1.455.1-2.909.094-4.363q0-.459-.008-.916c.184-.192.362-.39.544-.584-.023.362-.046.725-.071,1.086s-.041.748-.053,1.119A6.4,6.4,0,0,0,200.034,84.906Zm-37.682,65.742c-.853.366-1.714.711-2.573,1.057l-.942-.961c-.234-.238-.466-.48-.7-.722.478-.013.956-.026,1.433-.046a47.482,47.482,0,0,0,5.7-.576Q163.81,150.022,162.352,150.648Zm-8.283-.279c.763.835,1.589,1.619,2.378,2.419l.168.171-.794.3h0l-.2.075.1-.036-.2.075.024-.009-.142.052c-.524.179-1.049.347-1.574.515q-.34-.393-.682-.784c-.014-.11-.026-.221-.04-.33a7.421,7.421,0,0,0-.194-1.178,5.8,5.8,0,0,0-.613-1.3c-.023-.039-.048-.076-.074-.112.543-.036,1.087-.061,1.631-.083C153.925,150.219,154,150.3,154.069,150.369Zm-5.712-2.734q-1.19-1.375-2.38-2.749c-.656-.761-1.3-1.546-1.979-2.286-1.195-1.589-2.455-3.138-3.686-4.7q-1.976-2.509-3.941-5.025,4.179,3.972,8.353,7.948l1.465,1.5q2.343,2.389,4.687,4.785A11.905,11.905,0,0,0,148.357,147.635Zm-19-15.92c-.682.279-1.365.557-2.052.82l-.367.134q.117-1.439.15-2.881c.207-.1.412-.2.618-.294C128.255,130.232,128.8,130.976,129.352,131.715Zm19.085,57.737.012-.035c.848-2.32,1.608-4.664,2.25-7.048.371-1.4.73-2.809,1-4.234q.163-.865.328-1.728c.216-.964.42-1.929.643-2.889.353-1.507.654-3.026.966-4.54.182-.866.359-1.725.53-2.591.059-.3.121-.595.183-.892.435.527.875,1.051,1.313,1.577.924,1.1,1.813,2.238,2.785,3.3-.059-.065-.118-.123-.177-.189,1.449,1.6,2.856,3.234,4.34,4.788q2.12,2.217,4.234,4.44c2.167,2.285,4.334,4.569,6.471,6.877,1.831,1.979,3.651,3.969,5.494,5.942q3.373,3.621,6.76,7.242c1.654,1.77,3.29,3.558,4.951,5.32q-4.1.519-8.2,1.039c-2.255.282-4.516.571-6.777.854-.677.088-1.354.176-2.031.294q-7.668,1.272-15.328,2.568l-7.873,1.325c-.924.153-1.861.294-2.791.471s-1.858.349-2.787.525q-1.3.153-2.595.311c-.6.074-1.194.161-1.79.249-.077-.087-.147-.18-.225-.265.033.033.066.068.1.1-.054-.06-.11-.12-.165-.18-.262-.285-.531-.559-.8-.826.077-.183.154-.367.229-.55.253-.635.506-1.266.754-1.9q.84-2.094,1.662-4.191c.272-.494.537-.991.8-1.491,1.16-2.208,2.232-4.463,3.186-6.766Q147.294,192.966,148.437,189.452Zm-7.625,41.416c-.141-.389-.317-.76-.488-1.137-.153-.353-.3-.718-.471-1.065-.336-.677-.677-1.361-1.037-2.032-.527-.983-1.072-1.956-1.614-2.931l4.569-.794c.039.105.078.21.117.317l0-.013.016.043c.022.058.044.116.067.175l-.039-.1c.064.173.129.345.193.521l-.031-.074a47.321,47.321,0,0,1,1.636,5.142,63.388,63.388,0,0,1,.9,6.713c.1,1.675.137,3.355.086,5.036-.065,1.551-.194,3.094-.353,4.635-.047-.345-.095-.69-.142-1.035-.141-1.018-.271-2.043-.459-3.056-.259-1.336-.542-2.673-.872-3.992a36.914,36.914,0,0,0-1.107-3.793q-.52-1.386-1.042-2.773C140.759,230.727,140.789,230.8,140.812,230.868ZM192.78,351.91c-.013.782-.023,1.564-.036,2.347q-.022,1.32-.044,2.641c-.113.159-.236.312-.341.475l-.145.22q-.042-2.6-.083-5.2c-.006-.413-.007-.827-.012-1.24C192.338,351.4,192.56,351.656,192.78,351.91ZM226.8,513.272c-.3.331-.608.645-.928.953a21.41,21.41,0,0,1-1.725,1.377l.062-.043-.068.047,0,0c-.3.2-.6.4-.9.59.142-.383.291-.764.455-1.142.309-.641.653-1.263,1.015-1.876.048-.075.092-.152.139-.227.236-.338.48-.668.741-.989.267-.3.543-.591.833-.873.35-.306.709-.6,1.081-.878q.139-.1.279-.189c-.013.044-.027.088-.04.131a19.227,19.227,0,0,0-.588,2.631C227.035,512.948,226.927,513.115,226.8,513.272Zm-45.8-13.4c-.024-.243-.044-.487-.062-.73q.121.255.246.506c.263.529.541,1.049.828,1.565l-.1.02c-.238.04-.477.062-.716.1C181.131,500.845,181.057,500.361,181,499.873Zm34.367-.778c-.273.287-.556.565-.841.84a21.632,21.632,0,0,0-.006-2.348,10.706,10.706,0,0,0-.119-2.707,17.208,17.208,0,0,0-.718-2.768c.238.319.472.64.7.966l-.142-.194a28.941,28.941,0,0,1,1.637,2.638c.125.244.236.493.352.74-.193.734-.389,1.467-.578,2.2-.04.155-.084.309-.125.464C215.478,498.981,215.425,499.038,215.371,499.1Zm-16.912,16.4c-.68-.064-1.357-.128-2.035-.194-.154-.2-.3-.4-.46-.591.063,0,.126,0,.189,0A21.3,21.3,0,0,0,198.459,515.5Zm-8.132-32.934c.047-.794.083-1.588.126-2.381.073,0,.147,0,.222,0H190.5c.357.019.708.054,1.06.1-.179,2.031-.369,4.058-.629,6.077a10.806,10.806,0,0,0-.413,1.4,21.644,21.644,0,0,0-.477,3.745l0,.11h0c-.066.135-.127.273-.187.411q.067-1.861.127-3.722v.009C190.045,486.394,190.21,484.474,190.327,482.561Zm21.8.862a1.753,1.753,0,0,0,.394.118,6.458,6.458,0,0,0-.629.757l-.145-.142Zm5.1,5.911c.04.458.054.915.055,1.375q-.767-1.088-1.593-2.138c.185-.168.371-.335.55-.511.214-.215.419-.441.632-.659C217.011,488.042,217.138,488.686,217.229,489.334Zm-12.275,6.153c-.015.278-.037.555-.072.834-.072.4-.165.808-.274,1.207-.149.469-.32.927-.513,1.379-.243.507-.509,1-.8,1.479q-.384.583-.817,1.125a9.656,9.656,0,0,1-.735.767c-.18.155-.365.3-.558.441-.142.092-.288.174-.433.259-.053-.113-.107-.226-.158-.34a9.2,9.2,0,0,0,1.158-1.093,10.817,10.817,0,0,0,1.866-2.885,11.346,11.346,0,0,0,.905-3.562C204.665,495.229,204.812,495.355,204.954,495.487Zm-12.471,8.687a18.111,18.111,0,0,0,.509,2.744c-.083.02-.164.046-.247.066-.08-.519-.15-1.04-.206-1.563-.038-.429-.061-.858-.084-1.288ZM199.951,493c.046.245.086.487.116.736s.024.512.025.771c-.016.248-.036.492-.068.736-.054.3-.121.584-.2.876-.1.309-.214.611-.343.91-.1.209-.217.415-.334.619-.03-.2-.063-.4-.086-.6-.023-.338-.038-.674-.036-1.012.016-.243.039-.486.067-.728q.093-.505.232-1a8.065,8.065,0,0,1,.323-.828c.047-.09.1-.179.149-.268s.1-.149.152-.222Zm-15.736,17.1.027-.016-.028.015c-.2-.2-.4-.393-.6-.6-.325-.709-.621-1.43-.9-2.158q-.324-.882-.594-1.781c.1.01.209.013.313.024.375.038.746.091,1.119.136a15.254,15.254,0,0,0,.773,1.491,21.16,21.16,0,0,0,1.5,2.161c-.544.232-1.092.459-1.615.725Zm17.813-25.209-.067-.017a6.935,6.935,0,0,0-5.851.235c-.059.036-.116.072-.174.11.218-.245.441-.481.676-.708.194-.169.391-.329.595-.484.172-.115.344-.221.522-.322.079-.037.16-.072.242-.1.062-.02.124-.038.187-.055l.118-.019c.143-.011.285-.016.428-.016.21.015.414.039.62.068.3.062.592.134.885.214a18.932,18.932,0,0,1,1.9.72c.387.194.765.4,1.131.633l-.087-.061c.034.023.068.046.1.07l.105.065c-.03-.017-.06-.036-.09-.056q.379.262.747.541A7.17,7.17,0,0,0,202.028,484.887Zm-11.7,29.8.623-.358c.1.223.181.452.289.672-.077,0-.154-.006-.23-.006l-.146,0C190.681,514.9,190.505,514.791,190.326,514.689Zm9.486,1.385-.014,0a1.257,1.257,0,0,0-.371-.359c.3.067.6.144.907.2C200.162,515.97,199.989,516.025,199.812,516.074Zm-21.751-29.9c.074-.112.148-.223.223-.333a26.873,26.873,0,0,0,.474,5.5,31.441,31.441,0,0,0-.2,10.185l-.205-.011c-.12-.287-.247-.571-.358-.862a28,28,0,0,1-1.643-7.066q-.057-.612-.091-1.225.111-.99.267-1.976.195-1.137.456-2.261C177.316,487.461,177.669,486.809,178.061,486.178Zm32.924,24.8c.471-.786.908-1.588,1.3-2.412-.01.13-.023.26-.039.391-.033.171-.07.339-.115.508-.026.075-.054.15-.085.222-.058.123-.122.239-.19.354-.111.163-.229.32-.353.479-.121.134-.245.263-.374.387l-.026.022C211.064,510.944,211.025,510.962,210.985,510.977Zm11.24,9.707c.431-.191.851-.4,1.269-.618l-1.2,2.574c-.051.109-.1.217-.157.325-.014-.319-.019-.637-.014-.956Q222.157,521.346,222.225,520.684Zm-7.6-50.967c.033.016.066.035.1.052-.073.135-.143.271-.216.4-.268.5-.524,1-.784,1.507a30.736,30.736,0,0,0-3.232-2.931c.594.065,1.187.146,1.781.235.372.068.741.145,1.106.247C213.8,469.372,214.212,469.538,214.623,469.717ZM271,210.664q-.125.29-.252.576c-.313.661-.651,1.309-1,1.951l-.138-.233c.333-.586.674-1.168,1.029-1.742l-.028.05C270.736,211.064,270.865,210.864,271,210.664Zm57.13-13.613q1.551,1.389,3.143,2.731l-.578.047q-2.888.229-5.776.447c-.8.066-1.605.116-2.4.189-4.383.171-8.771.27-13.154.4-2.161.065-4.322.141-6.483.2-.983.024-1.966,0-2.944,0l-4.561-.031.31-.04c4.151-.542,8.291-1.208,12.436-1.831,3.133-.473,6.256-1.042,9.378-1.6C321.037,197.368,324.582,197.205,328.127,197.051Zm.284,12.687c.036-.065.077-.124.112-.183q-1.766,2.7-3.5,5.429l-.006.008.044-.072.049-.077-.022.034.028-.046-.124.194.014-.021-.014.023c-.047.069-.091.139-.135.21l0,0q-1.327,2.058-2.644,4.126c-.263.332-.525.665-.789,1-.8,1.013-1.59,2.014-2.349,3.056-.666.913-1.325,1.825-1.985,2.744-.341.471-.7.931-1.013,1.425.047-.077.095-.147.142-.224-.748,1.113-1.466,2.25-2.2,3.374-.518.795-1.054,1.584-1.548,2.4q-1.541,2.57-3.049,5.155c.278-.749.548-1.5.832-2.249q.681-1.756,1.349-3.515c.17-.442.341-.877.53-1.313.8-1.8,1.629-3.6,2.406-5.419,1.183-2.3,2.345-4.6,3.727-6.782a34.878,34.878,0,0,1,2.337-3.181,32.308,32.308,0,0,1,2.39-2.477,71.323,71.323,0,0,1,6.233-4.925C328.966,208.869,328.687,209.3,328.411,209.738ZM343.426,196.5c-.72.669-1.413,1.367-2.122,2.05-.1.1-.2.2-.3.3-.078.046-.158.089-.235.137-.438.057-.877.115-1.314.162.048-.006.1-.013.145-.018-.069,0-.138.011-.207.015-.459-.44-.916-.881-1.4-1.294-.453-.393-.912-.778-1.368-1.166.707-.028,1.413-.059,2.119-.075Q341.079,196.556,343.426,196.5Zm-21.814-3.239c-1.446.29-2.9.548-4.349.8q-5.379.273-10.749.6-3.639.231-7.278.448c-1.56.094-3.126.265-4.687.4-3.992.342-7.985.637-11.965,1.108l-8.762,1.024c-1.255.147-2.5.283-3.751.471l-6.9,1.052c-.26-.833-.524-1.663-.783-2.493-.218-.683-.46-1.366-.642-2.055q-.183-.7-.368-1.4-.129-1.216-.256-2.435l0,.061c0,.028,0,.057.008.086s.008.075.01.111c-.009-.086-.019-.173-.025-.259-.274-2.833-.574-5.662-.86-8.49,0-.064-.01-.126-.019-.188q-.034-.333-.067-.667l0,.059v-.013c-.035-.424-.077-.853-.115-1.276-.383-4.352-.76-8.7-1.107-13.055q-.183-2.184-.349-4.364l.085-.419a2.052,2.052,0,0,0,.334-1.657c.324-1.559.7-3.109,1.049-4.659.365-1.637.747-3.28,1-4.941a27.249,27.249,0,0,0,.371-3.915,10.783,10.783,0,0,0-.324-3,3.544,3.544,0,0,0-.232-.575c.3-.49.608-.978.9-1.471q1.077-1.8,2.173-3.6c.382-.641.777-1.271,1.154-1.913a11.837,11.837,0,0,0,.907-1.825c.037-.095.051-.2.079-.3q6.99-7.527,14.11-14.934c.818-.854,1.65-1.695,2.474-2.542.056.479.116.958.2,1.433.218,1.266.483,2.526.783,3.774.277,1.161.559,2.326.842,3.486.118.489.224.972.359,1.455.583,2.031,1.154,4.063,1.731,6.088.33,1.155.7,2.286,1.066,3.428.695,2.119,1.4,4.24,2.085,6.359.165.519.365,1.019.559,1.525.436,1.143.878,2.279,1.349,3.41.977,2.367,2.037,4.705,3.191,7,.589,1.166,1.19,2.32,1.814,3.469.318.588.624,1.183.972,1.754q.714,1.192,1.436,2.385c.66,1.095,1.319,2.2,1.979,3.292.312.523.606,1.066.96,1.566-.036-.053-.077-.106-.112-.159,1.424,2.079,2.837,4.168,4.288,6.226l0,0c.271.412.607.789.913,1.178l1.879,2.39c.7.89,1.372,1.79,2.119,2.638,1.237,1.4,2.462,2.791,3.692,4.187.795.9,1.643,1.755,2.474,2.621,1.148,1.195,2.29,2.4,3.474,3.562.942.925,1.882,1.852,2.837,2.766C322.92,193,322.267,193.132,321.612,193.263Zm-26.265-64.727c.271.672.506,1.373.824,2.026q.681,1.413,1.36,2.833c.383.8.742,1.619,1.166,2.4.948,1.749,1.885,3.5,2.827,5.253.742,1.377,1.554,2.72,2.343,4.068.772,1.325,1.514,2.673,2.332,3.975,1.237,1.966,2.479,3.945,3.722,5.912,1.937,3.074,3.98,6.071,5.976,9.1,1.879,2.861,3.775,5.7,5.659,8.561.954,1.455,1.884,2.927,2.821,4.4,1.584,2.485,3.221,4.952,4.593,7.567l0-.009a34.875,34.875,0,0,1,1.548,3.286c.108.3.2.6.28.912.065.348.123.693.165,1.045.014.189.022.381.024.573,0,.05-.009.1-.014.149l-.012.054-.043.034-.107.068c-.03-.006-.06-.014-.089-.021-.195-.068-.383-.14-.57-.221-.141-.069-.278-.143-.415-.221-.173-.12-.339-.244-.5-.371a40.3,40.3,0,0,1-3.341-3.272c-.478-.532-.95-1.069-1.423-1.606-.359-.4-.712-.8-1.072-1.207-.159-.177-.341-.354-.488-.548-1.037-1.383-2.15-2.72-3.221-4.08-.825-1.048-1.584-2.132-2.356-3.221q-1.449-2.044-2.893-4.087l.008.012-.027-.038c-.815-1.4-1.71-2.751-2.564-4.12-.583-.942-1.166-1.878-1.755-2.82-.218-.353-.465-.7-.659-1.066l0,.007-.02-.037c-.05-.1-.1-.195-.156-.292l-.131-.253.007.013c-.08-.154-.16-.308-.245-.463l.106.195-.553-1.054.016.035c-.061-.118-.121-.236-.183-.354.024.048.047.095.072.142-.1-.188-.2-.383-.306-.577l.106.194-.212-.4c-.062-.12-.124-.24-.186-.358.013.027.027.055.039.081l-.211-.407c-.034-.063-.067-.125-.1-.187l.016.035c-.183-.354-.366-.707-.548-1.054l.021.045c-.058-.11-.118-.22-.174-.334l.106.195c-.136-.248-.271-.507-.4-.76l.059.12c-.106-.207-.212-.409-.318-.612l.035.07c-.082-.16-.167-.317-.251-.477l.01.021c-.1-.188-.194-.382-.294-.571.013.029.027.057.041.085-.069-.129-.137-.259-.2-.391l.017.035c-.144-.272-.288-.548-.431-.822l.018.039-.03-.062c-.024-.044-.047-.088-.07-.132l.051.094c-.056-.111-.115-.221-.174-.329l.106.194c-.071-.13-.142-.259-.207-.389l.018.037-.089-.172.019.035-.033-.061-.02-.039.011.02-.012-.023.012.023.008.015.04.075-.032-.062c-1.417-3.239-2.857-6.472-4.274-9.717-.176-.509-.383-1.006-.576-1.507-.418-1.1-.836-2.209-1.248-3.309-.608-1.605-1.193-3.22-1.827-4.819-.938-2.827-1.815-5.676-2.719-8.513-.33-1.036-.566-2.1-.836-3.156-.354-1.365-.724-2.724-1.069-4.088-.211-1.09-.446-2.17-.669-3.255-.2-1-.377-1.992-.525-2.995a1.441,1.441,0,0,0,.146-.043c.087.516.169,1.034.268,1.548.176.948.359,1.891.541,2.838.083.425.206.848.307,1.266l.441,1.784c.177.713.4,1.4.63,2.1q.3.936.607,1.873c.094.288.177.589.294.877C294.634,126.758,294.988,127.653,295.347,128.536ZM215.86,81.084c.827.53,1.672,1.033,2.507,1.546.894.544,1.776,1.111,2.68,1.645,1.41.9,2.85,1.735,4.275,2.6,1.013.618,2.014,1.254,3.044,1.837,1.79,1.007,3.574,2.026,5.358,3.039l2.085,1.183c1.236.7,2.532,1.319,3.81,1.937q1.621.784,3.27,1.513-3.284-1.223-6.481-2.677a110.693,110.693,0,0,1-11.174-6.043q-1.811-1.2-3.616-2.408c-.913-.613-1.849-1.2-2.738-1.85-1.306-.948-2.6-1.9-3.9-2.849Q215.42,80.821,215.86,81.084Zm22.11,17.8-.1-.033-.142-.043.091.026a52.189,52.189,0,0,1-5.792-2.243,60.045,60.045,0,0,1-6.844-3.758c-2.071-1.34-4.053-2.814-5.982-4.353-.68-.6-1.357-1.19-2.036-1.787.879.608,1.77,1.2,2.668,1.787.971.635,1.943,1.283,2.909,1.925,1.254.824,2.544,1.584,3.839,2.326a99.108,99.108,0,0,0,13.761,6.618q.672.261,1.348.513-1.9-.433-3.767-1Zm-26.015-11.8c.424.418.842.842,1.26,1.266.241.235.471.5.724.724.766.671,1.537,1.349,2.309,2.02.588.512,1.213.977,1.837,1.448.895.689,1.784,1.39,2.714,2.032a63.99,63.99,0,0,0,6.442,3.921,53.219,53.219,0,0,0,13.991,5.112c1.29.265,2.591.495,3.892.689.748.111,1.5.235,2.256.306.977.094,1.961.182,2.938.276,1.631.154,3.268.318,4.905.431,1.254.088,2.514.164,3.769.252.73.05,1.475.134,2.213.146.672.051,1.348.08,2.024.108,2.338.507,4.687.97,7.039,1.413l3.486.636c1.767.324,3.551.642,5.341.807.094.008.188.012.282.02-.473.608-.949,1.213-1.42,1.822-1.449,1.878-2.856,3.786-4.281,5.688-1.3,1.743-2.55,3.527-3.81,5.293-1.113,1.561-2.2,3.116-3.28,4.7q-2.418,3.564-4.827,7.134c-.387.363-.753.756-1.1,1.146-.895.989-1.731,2.026-2.585,3.05.047-.053.089-.106.136-.159-1.561,1.849-3.062,3.757-4.587,5.641-.948,1.166-1.9,2.326-2.827,3.5q-3.506,4.437-7.008,8.887c-1.515-.612-3.024-1.237-4.521-1.888l.15.074q-1.057-.5-2.095-1.022-3.3-3.039-6.34-6.354l.07.074a82.6,82.6,0,0,1-6.213-7.686,79.693,79.693,0,0,1-5.064-8.313,83.355,83.355,0,0,1-3.962-8.665c-.53-1.4-1.066-2.785-1.6-4.181l.022.063c-.46-1.28-.915-2.57-1.358-3.861-.554-1.631-1.06-3.285-1.655-4.905a1.685,1.685,0,0,0-1.407-1.16,1.645,1.645,0,0,0-1.478.66,3.609,3.609,0,0,0-.683,1.56,10.249,10.249,0,0,0-.03,2.208c.015.286.054.569.075.854l-.249.391.018-.028c-.149.233-.306.459-.461.687l.027-.335c.388-4.846.836-9.686,1.254-14.527.365-4.228.7-8.456,1.048-12.683.058-.708.105-1.418.152-2.127.222.273.432.556.664.82C210.748,85.734,211.319,86.452,211.955,87.088ZM200.608,74.907c-.008.106-.015.211-.023.316l-.031.045c-.463.6-.937,1.187-1.405,1.782-.017-.092-.034-.183-.053-.274.45-.555.9-1.107,1.346-1.667C200.5,75.042,200.552,74.974,200.608,74.907ZM194.5,82.452l.029-.034,0,0h0l.019-.022c.522-.619,1.032-1.249,1.539-1.882,0,.085,0,.17,0,.256-.511.551-1.017,1.107-1.546,1.64l.016-.02-.016.02-.005,0-.015.02-.021.023-.015.018.012-.014-.015.017Zm-19.569,25.455q1.934-1.687,3.821-3.434c.6-.553,1.2-1.118,1.8-1.684a17.649,17.649,0,0,0,1.478-1.443c-.047.06-.094.112-.141.165,1.566-1.566,3.074-3.2,4.611-4.8,1.018-1.065,2.043-2.131,3.061-3.2.445-.461.919-.912,1.342-1.4l-.017.019.009-.01,0,0,.007-.008c.019-.02.037-.041.055-.062,1.215-1.379,2.391-2.786,3.589-4.17.529-.612,1.065-1.222,1.6-1.835.017.918.035,1.837.048,2.756.043,3.035.083,6.07.147,9.106-.061,2.926-.089,5.851-.117,8.777-.018,1.714-.041,3.433-.065,5.147-.034,2.165-.036,4.335-.1,6.5l0-.018c0,.046,0,.092,0,.138v.035q-.147,4.344-.286,8.693-1.485,1.563-2.97,3.13c-.736.67-1.475,1.338-2.222,2-.748.619-1.551,1.187-2.32,1.778-1.3,1.01-2.62,1.98-3.971,2.931-1.435.994-2.895,1.947-4.373,2.875-1.418.894-2.847,1.753-4.324,2.542a42.406,42.406,0,0,1-4.577,2.022,39.464,39.464,0,0,1-4.228,1.288,48.62,48.62,0,0,1-5.225.817l.023,0c-2.168.208-4.356.234-6.533.289-.366-.369-.735-.735-1.1-1.1q-2.642-2.711-5.288-5.423-2.685-2.746-5.358-5.494c-.842-.866-1.667-1.743-2.527-2.591l.066.077c-.341-.379-.694-.747-1.051-1.112.5-.235,1-.473,1.5-.7.53-.236,1.036-.53,1.543-.8.542-.289,1.077-.577,1.613-.877,1.066-.6,2.12-1.207,3.162-1.849q.974-.6,1.932-1.218l.206-.108-.012.007.055-.03.1-.053.082-.044-.044.021.107-.055.023-.012-.018.008.027-.014.05-.027-.031.018.11-.057-.032.015.055-.027.009-.005h0l.016-.008.11-.061-.034.02-.065.035.051-.027c.688-.339,1.349-.771,2.015-1.164.7-.419,1.407-.842,2.108-1.267,1.484-.918,2.956-1.848,4.411-2.814,2.791-1.849,5.535-3.786,8.208-5.812Q171.095,111.242,174.934,107.907Zm-30.75,15.2a106,106,0,0,0,14.6-8.791c1.354-.948,2.726-1.884,4.045-2.886.535-.409,1.074-.815,1.61-1.223q-1.663,1.493-3.315,3l.033-.031-.062.056.019-.016-.1.095.007-.007-.148.137c.047-.048.1-.094.147-.136-.453.371-.924.725-1.389,1.084-.989.771-1.973,1.542-2.962,2.319-1.655,1.294-3.288,2.6-5,3.809l.045-.028q-1.24.866-2.5,1.7-.227.132-.454.263l-.074.041.033-.018.011,0-.06.031-.007,0-.057.031.033-.018q-.216.112-.431.226l.033-.019-.133.071.006,0-.062.033.026-.014-.094.049c.029-.015.058-.03.086-.047l-.371.194c.065-.029.124-.065.188-.094-.165.083-.33.171-.488.254.058-.03.123-.066.182-.095-.13.071-.271.141-.4.212.059-.035.123-.065.182-.1-.159.086-.318.169-.477.253l.012,0-.048.024-.14.076.058-.033c-.1.054-.206.108-.306.162.059-.035.124-.065.183-.1l-.707.371c.065-.029.124-.065.189-.094-.3.153-.583.306-.878.459l.118-.064c-.181.094-.359.188-.542.282.065-.029.13-.065.189-.095-.253.13-.507.266-.76.395.065-.029.124-.065.188-.094-.3.153-.6.312-.9.471l.188-.1c-.253.13-.5.265-.748.394l.036-.02-.286.148.026-.016-.1.053-.09.048.017-.009c-.137.073-.274.144-.412.215.065-.03.13-.066.189-.095l-.311.162.058-.032-.119.064.017-.009-.031.016-.122.065.013-.006-.036.018c-.051.027-.1.054-.152.082.028-.015.054-.031.081-.045-.182.093-.363.186-.54.28.064-.029.123-.065.188-.094-.135.071-.265.135-.4.206.064-.03.123-.065.188-.095-.159.083-.324.165-.483.248.065-.029.13-.065.189-.094-.2.106-.4.206-.6.312l.029-.014-.058.03.017-.01-.047.025-.141.075c.026-.015.053-.028.079-.041l-.053.028-.2.1.015-.008c.038-.019.076-.038.111-.059-.026.012-.052.026-.077.04l.018-.011-.064.034c-.929.449-1.881.852-2.816,1.279l-.056.026-1.866-1.936c.36-.084.72-.164,1.074-.263A47.163,47.163,0,0,0,144.184,123.1Zm-36.449,67.482q1.475-3.039,2.956-6.077c.7-1.454,1.307-2.962,1.943-4.446.612-1.425,1.272-2.838,1.825-4.287.813-2.137,1.649-4.269,2.468-6.412.571-1.5,1.036-3.027,1.543-4.546s1.012-3.015,1.43-4.552q.513-1.854,1.019-3.7c.159-.589.353-1.171.483-1.76.308-1.452.623-2.9.935-4.353.571-1.4,1.108-2.825,1.6-4.262a64.429,64.429,0,0,0,2.1-7.384c.168-.787.315-1.58.443-2.374a9.812,9.812,0,0,0,1.748-.488c.482-.17.965-.341,1.448-.518.638-.225,1.27-.472,1.9-.714q3.151,4.269,6.266,8.569,3.633,5.02,7.273,10.041c-.062,1.042-.112,2.084-.171,3.123-.089,1.478-.183,2.962-.289,4.44-.124,1.666-.212,3.333-.383,5-.2,1.93-.388,3.861-.6,5.792-.231,1.391-.472,2.781-.713,4.171-.171,1.007-.306,2.02-.542,3.015-.4,1.737-.806,3.48-1.207,5.217-.2.848-.388,1.7-.618,2.544-.913,3.4-1.8,6.8-2.768,10.187q-.936,3.276-1.866,6.566c-.4,1.4-.8,2.8-1.172,4.21-.017.065-.035.129-.052.194l-.113.24a10.475,10.475,0,0,0-2.985-.761,6.4,6.4,0,0,0-1.808.023,2.823,2.823,0,0,0-1.277.666,4.1,4.1,0,0,0-1.19,2.755,7.007,7.007,0,0,0,.728,3.51q-1.275.183-2.552.369c-.394.059-.789.1-1.177.171-1.737.324-3.474.677-5.206,1.013q-4.425.857-8.844,1.719c-1.383.266-2.776.493-4.148.813l.15-.036c-.891.209-1.789.412-2.685.62-.162.037-.323.074-.484.114-.227.051-.457.106-.682.156.07-.018.147-.036.223-.053q-6.413,1.475-12.819,2.962l.108-.026-.411.1h0l-.7.159-2.905.543c.063-.067.127-.133.191-.2.347-.371.706-.73,1.042-1.107.822-.927,1.641-1.854,2.445-2.795a15.206,15.206,0,0,0,1.182-1.186c.8-.9,1.567-1.832,2.291-2.8,1.407-1.89,2.75-3.845,4.016-5.835.047-.073.094-.144.141-.218l-.141.212c.07-.111.142-.223.216-.333.035-.056.069-.11.1-.164l0,0,0,0q.066-.1.132-.213l-.04.071q.051-.083.1-.165c-.014.023-.028.047-.041.071l.09-.148.045-.07-.026.039c.09-.144.182-.287.274-.433l-.016.027.14-.22-.007.01.025-.039.041-.063c.108-.166.215-.333.317-.5-.024.039-.046.077-.069.113l.108-.172-.027.041.05-.077.085-.134-.019.032c.032-.051.065-.1.1-.153l-.02.032.061-.1.075-.115-.039.058c.038-.059.075-.119.112-.178,1.385-2.183,2.688-4.419,3.978-6.657.824-1.431,1.637-2.856,2.42-4.311C106.116,193.63,106.987,192.135,107.735,190.586ZM85.194,217.278c.736-1.354,1.454-2.714,2.214-4.051,1.06-1.849,2.132-3.692,3.2-5.536q2.438-4.221,4.887-8.431,4.824-8.248,9.659-16.5c-.879,2.273-1.755,4.547-2.611,6.829l.031-.062c-.71,1.529-1.378,3.08-2.068,4.619-.7,1.565-1.432,3.125-2.11,4.7-.74,1.579-1.576,3.13-2.418,4.657l-.18.324-.156.247.057-.085-.091.143.034-.052-.247.389c.008-.015.017-.029.026-.044-.057.091-.115.18-.172.271.024-.041.049-.082.075-.121-.1.153-.194.306-.294.459l.141-.212-.292.453.039-.064-.389.618c.02-.035.041-.07.064-.106-.1.163-.206.326-.311.488l.025-.038c-.058.091-.115.182-.172.274l.049-.081-.167.261c.021-.033.043-.065.065-.1-.077.114-.15.233-.225.35l.013-.021-.012.017c.027-.043.054-.086.082-.129-.041.062-.082.126-.123.191a88.959,88.959,0,0,1-5.359,7.582h0c-.142.168-.284.334-.425.5-.392.433-.8.848-1.217,1.251-.3.248-.608.47-.9.715a9.866,9.866,0,0,0-1.32,1.392C84.793,218.014,84.994,217.647,85.194,217.278ZM70.412,235.619c-4.257,1.236-8.532,2.414-12.807,3.592-3.658,1.008-7.366,1.852-11.053,2.759-1.873.412-3.751.808-5.623,1.21-1.443.305-2.88.647-4.328.918-3.6.671-7.19,1.372-10.8,1.985q-5.491.936-11,1.817c4.57-1.624,9.185-3.12,13.784-4.656,3.622-1.207,7.267-2.308,10.912-3.445,3.486-1.083,6.96-2.219,10.469-3.214q7.905-2.253,15.805-4.5c3.115-.888,6.248-1.69,9.38-2.5l.214-.056c.219.361.435.724.658,1.083.609.973,1.243,1.933,1.879,2.891C75.406,234.2,72.907,234.9,70.412,235.619ZM90.7,240.09c-1.019-1.578-2.114-3.1-3.215-4.623-.1-.133-.2-.258-.3-.39,3.8-1.038,7.618-1.982,11.424-2.95,1.813-.465,3.627-.9,5.441-1.337,1.98-.491,3.956-1,5.942-1.462l.47-.11-.052.014q5.243-1.2,10.485-2.415l-.016,0,.033-.008.22-.05q-.042.007-.084.018l.119-.028-.047.01.053-.012c.067-.015.134-.031.2-.048q-.083.024-.168.042c1.209-.253,2.422-.49,3.636-.726.019.015.039.027.059.041a12.489,12.489,0,0,0,.941,1.452c.236.312.459.63.7.942.459.624.93,1.243,1.4,1.86.56.738,1.114,1.489,1.734,2.178q.348.56.692,1.12c.577.948,1.155,1.89,1.7,2.862.639,1.155,1.3,2.294,1.924,3.453a91.269,91.269,0,0,1,4.285,9.58,65.362,65.362,0,0,1,2.273,7.514,64.428,64.428,0,0,1,1.284,7.616l-.02.137c-.348,2.3-.689,4.593-1.037,6.889-.112.765-.229,1.537-.294,2.315l-.021.256a2.645,2.645,0,0,0-.709.4,2.359,2.359,0,0,0-.789,1.908,1.975,1.975,0,0,0,1.293,1.8c.006.04.019.079.026.119-.452.571-.892,1.154-1.334,1.729-1.667,2.149-3.327,4.305-5,6.448-.193.247-.38.5-.571.748-.027-.023-.044-.054-.072-.074a1.621,1.621,0,0,0-1.8-.082,21.9,21.9,0,0,0-2.161,1.6c-.607.512-1.224,1.023-1.8,1.57-.1.093-.206.186-.307.282l-.034.03.017-.015-.032.029-.121.106c.029-.026.059-.05.087-.075l-.41.377.046-.037q-1.793,1.632-3.575,3.274l.012-.012c-.193.179-.39.359-.585.539-.1.1-.2.187-.3.282l.054-.049-.088.08-.065.061c.011-.011.023-.023.036-.034l-.035.03c-.409.376-.8.769-1.2,1.158-.9.866-1.79,1.738-2.691,2.6q-1.281,1.238-2.562,2.479c-.3.288-.606.565-.889.859q-3.709,3.888-7.437,7.756c-.312.318-.594.665-.889,1q-1.041,1.172-2.077,2.343-.069-2.037-.2-4.072c.041-.541.083-1.084.125-1.626q.177-2.305.353-4.623c.112-1.478.248-2.956.312-4.44l.318-6.907c.024-.524.006-1.054,0-1.584-.017-1.307-.029-2.608-.047-3.915-.012-.866-.017-1.732-.035-2.6-.024-1.183-.112-2.378-.206-3.562-.094-1.248-.212-2.491-.389-3.727a72.112,72.112,0,0,0-1.525-7.743q-.52-2.041-1.136-4.058c-.237-.771-.463-1.553-.745-2.31.01.027.019.053.026.079-.041-.112-.082-.224-.123-.33.023.059.047.118.07.176-.075-.2-.154-.41-.23-.614l.02.055q-.962-2.577-1.922-5.158c.024.059.048.124.071.183-.085-.234-.176-.467-.262-.7l-.014-.038.029.072c-.03-.082-.063-.166-.095-.249-.113-.3-.254-.581-.382-.87-.289-.63-.571-1.26-.854-1.9-.447-.983-.854-2-1.342-2.962-.43-.871-.89-1.725-1.337-2.591-.371-.712-.719-1.448-1.119-2.143-.583-1.013-1.172-2.02-1.755-3.027C91.664,241.533,91.175,240.814,90.7,240.09Zm6.871,27.946c-.517-2.317-1.149-4.619-1.9-6.88-.353-1.8-.725-3.6-1.129-5.391-.38-1.68-.783-3.363-1.282-5.015.121.234.238.471.346.71.809,1.795,1.648,3.583,2.435,5.388l.027.068.043.115c-.009-.024-.017-.047-.024-.071l0,0c.069.188.138.38.211.573l-.033-.083q.972,2.606,1.943,5.217c-.016-.041-.03-.085-.045-.128l.246.67-.009-.03.056.153c-.014-.036-.025-.07-.036-.1l.04.109c.431,1.21.788,2.454,1.144,3.692s.682,2.488.976,3.746a67.679,67.679,0,0,1,1.368,8.037c-.008-.041-.013-.082-.017-.123.168,1.738.323,3.5.34,5.252.012.813.018,1.631.03,2.45.017,1.665.057,3.329.058,4.988l-.017.291q-.406-2.6-.818-5.2c-.189-1.19-.466-2.373-.7-3.551-.33-1.648-.595-3.315-1-4.946q-.379-1.53-.755-3.064c-.054-.282-.109-.565-.17-.846C98.477,272.052,98.023,270.044,97.575,268.036Zm6.4,58.849c-1.249,1.2-2.336,2.558-3.606,3.735-.034.029-.06.055-.086.081l-.006.006v0l-.007.007-.076.072.022-.02-.092.083c-.071.063-.142.129-.213.195.035-.035.077-.07.112-.106-.1.094-.2.183-.3.277.041-.035.076-.071.117-.106-.128.119-.256.233-.384.35-.068.06-.136.123-.2.186l.052-.045-.088.081.019-.018-.071.065-.047.041.029-.025c-.1.088-.193.175-.289.264s-.189.173-.284.258l-.022.02-.041.036.027-.023-.28.253.051-.044-.154.14.05-.043c-.141.126-.278.253-.415.378l.05-.043-.082.074-.035.033.017-.017c-.167.148-.334.3-.5.452.041-.035.076-.071.117-.106l-.531.486.031-.026c-.023.019-.044.039-.067.059l-.051.046.018-.016-.051.046q.278-.322.557-.642c.751-.862,1.538-1.7,2.263-2.587.859-.953,1.7-1.918,2.548-2.877l.123-.138c.069-.053.133-.109.2-.162.57-.357,1.132-.717,1.72-1.048l.216.055C104.219,326.676,104.093,326.774,103.978,326.885Zm35.364-.224c-.936-.052-1.872-.1-2.808-.152-.366-.021-.737-.056-1.1-.064-1.251-.056-2.509-.1-3.761-.149-1.2-.045-2.409-.133-3.611-.14-1.685-.109-3.371-.162-5.056-.248a81.107,81.107,0,0,1-8.7-.843l.034.008q-1.731-.291-3.45-.664.666-.1,1.338-.172l-.06,0c.034,0,.068,0,.1-.009l.135-.014-.054.007a46.1,46.1,0,0,1,5.1-.142c.951.03,1.9.118,2.848.194.666.047,1.331.082,1.991.153,1.672.17,3.344.341,5.011.53,1.713.2,3.432.382,5.14.6,1.849.236,3.7.507,5.547.73l-.051-.01.058.008q1.354.231,2.712.442C140.244,326.709,139.793,326.687,139.342,326.661Zm30.891,1.349a61.3,61.3,0,0,0-7.361-2.662c-1.319-.388-2.644-.742-3.986-1.06-.932-.223-1.875-.466-2.823-.632l.02,0c-2.551-.442-5.1-.946-7.652-1.347-.415-.091-.856-.115-1.281-.172-.936-.123-1.872-.241-2.808-.365-1.467-.189-2.927-.4-4.393-.571.037.009.076.015.116.022-.431-.062-.871-.091-1.306-.128l-2.838-.265c-1.507-.147-3.015-.3-4.522-.424-1.425-.124-2.856-.206-4.281-.312-1.007-.071-2.008-.142-3.015-.218-.411-.027-.822-.079-1.233-.086-1.37-.1-2.75-.152-4.12-.226-.883-.053-1.772-.1-2.655-.148-.35-.02-.7-.051-1.051-.057h0l-.132,0-.1,0,.048,0-.1,0h.1l-.225-.006h-.045l-.257-.008.056,0-.13,0-.105,0h.092l-.322-.013c.077.006.153.006.235.012-.18-.008-.358-.014-.535-.018h-.02l-.21-.006h.064l-.358-.011c.076,0,.159.006.235.006l-.363-.012h.057c-.677-.017-1.36-.041-2.043-.065.082.006.159.006.235.012l-.285-.008a8.98,8.98,0,0,0-.91-.033h.014l-.094,0h-.053c.2-.221.407-.439.611-.658.766-.83,1.537-1.66,2.3-2.491.054-.058.11-.114.164-.172,1.812-.08,3.627-.093,5.44-.051,1.587.04,3.174.12,4.761.123.389.048.787.055,1.18.077l2.509.176,2.332.16c.276.017.559.017.83.059,2.411.362,4.838.64,7.255,1,.429.106.867.181,1.3.272l2.72.565c.925.189,1.843.377,2.756.572.336.071.677.123,1.007.212q3.966,1.034,7.938,2.055l-.062-.02.012,0-.021-.006.034.01.178.054-.01,0,.122.037.123.038.095.027-.038-.01.222.07-.025-.007.066.02.146.045-.035-.012.37.118-.212-.071.86.265-.054-.013.413.127.03.009.182.054-.065-.018c.279.086.558.175.836.26l-.217-.071c.388.123.777.241,1.171.365-.076-.024-.147-.047-.217-.071l.715.224-.085-.024c.377.112.747.23,1.124.342l-.042-.011c.493.152.983.307,1.477.458l-.021-.006c.151.043.3.092.453.14l-.018,0,.031.008.019.007c2.735.948,5.446,1.966,8.081,3.17a59.169,59.169,0,0,1,6.536,3.514,58.034,58.034,0,0,1,5.857,4.3l.144.123A53.479,53.479,0,0,0,170.233,328.01Zm5.347-1.66a63.185,63.185,0,0,0-6.984-3.481c-1.272-.542-2.556-1.054-3.851-1.525-.595-.217-1.195-.436-1.8-.642-.443-.155-.891-.335-1.343-.459l-.147-.047.122.04-.012,0c-.064-.02-.128-.042-.192-.061l.152.05-.006,0c-2.373-.739-4.751-1.45-7.124-2.167l.045.014c-.085-.025-.171-.05-.257-.078l.1.028c-.06-.015-.121-.035-.183-.054l-.035-.01.018.006c-.031-.01-.062-.02-.093-.028l-.213-.067.128.041-.058-.018.078.025.069.023c-.594-.188-1.207-.324-1.813-.477l-3.692-.936c-1.349-.342-2.691-.69-4.051-.966q-3.207-.645-6.4-1.3c-.565-.118-1.143-.165-1.708-.242-1.254-.177-2.508-.336-3.762-.506-.76-.1-1.526-.253-2.291-.307l-2.461-.158c-1.867-.118-3.74-.277-5.612-.319-2.034-.041-4.065-.105-6.1-.1l.045-.047c1.286-1.322,2.62-2.594,3.966-3.853a2.735,2.735,0,0,0,.921-.214,4.086,4.086,0,0,0,1.254-.966c.43-.447.795-.977,1.184-1.46.376-.465.741-.942,1.1-1.425l.121-.161.044-.039-.035.034c.536-.489,1.072-.972,1.608-1.461l-.159.142.123-.113c.893-.793,1.731-1.658,2.6-2.484,1.207-1.16,2.332-2.4,3.486-3.61,1.119-1.166,2.179-2.4,3.262-3.6,2.091-2.314,4.146-4.658,6.26-6.948q2.461-2.655,4.977-5.254c.134-.009.267-.021.4-.022.55,0,1.106-.011,1.656-.012a30.541,30.541,0,0,1,3.684.369c1.3.233,2.589.537,3.859.892.766.267,1.536.507,2.307.758.577.189,1.172.36,1.737.583,1.7.684,3.427,1.337,5.088,2.1l-.076-.037a74.787,74.787,0,0,1,8.444,4.6,55.487,55.487,0,0,1,5.651,4.087l-.052-.045.1.081.093.078-.067-.055q.7.6,1.378,1.227,1.376,1.336,2.677,2.748c.99,1.155,1.917,2.361,2.793,3.6l.006.008.126.177q-.043-.058-.087-.12c.915,1.327,1.8,2.676,2.683,4.029-.163,7.271-.291,14.545-.434,21.821-.058,2.972-.1,5.947-.148,8.921-.311-.336-.611-.681-.929-1.009A56.725,56.725,0,0,0,175.58,326.35ZM153.963,479.624c-.031-.068-.064-.137-.093-.205s-.051-.162-.071-.246c-.025-.119-.044-.238-.058-.357-.016-.223-.024-.448-.02-.67l.007-.1c.949-1.1,1.91-2.181,2.908-3.229,1.178-1.243,2.379-2.456,3.568-3.681,1-1.036,2.055-2.02,3.08-3.032,1.119-1.107,2.249-2.208,3.344-3.339,2.462-2.538,4.911-5.082,7.267-7.714q1.657-1.854,3.316-3.709c.083-.086.166-.173.244-.263l-.021.027.05-.058,0,0,.342-.4q1.71-1.933,3.378-3.9l-.027.03.053-.062.082-.1-.023.03.049-.059c.048-.057.095-.114.145-.171l-.021.024c1.046-1.238,2.1-2.472,3.142-3.716,1.937-2.285,3.774-4.658,5.629-7.013q.526-.665,1.051-1.331c-.05,1.695-.062,3.391-.049,5.089-.231,1.54-.443,3.084-.6,4.634-.26,2.443-.507,4.887-.76,7.337-.353,3.356-.73,6.712-1.031,10.075q-.123,1.416-.249,2.834a3.159,3.159,0,0,0-.616.313c-.4.133-.8.259-1.19.416a20.982,20.982,0,0,0-6.3,4c-5.806,5.3-8.254,13.309-7.9,21.086a25.56,25.56,0,0,0-.44,2.667,72.2,72.2,0,0,0-7.335-6.289q-2.279-1.722-4.582-3.415c-1.552-1.139-3.086-2.3-4.564-3.54-.276-.237-.548-.478-.8-.741-.218-.252-.426-.509-.624-.776C154.143,479.923,154.05,479.776,153.963,479.624Zm11.605,14.963c-.836-.724-1.658-1.467-2.49-2.194-.8-.706-1.626-1.383-2.4-2.113-2.114-2-4.323-3.889-6.319-6.017l-.012-.014-.017-.017,0,0-.021-.023.022.024c.778.62,1.573,1.219,2.364,1.823,1.207.93,2.479,1.778,3.7,2.691.953.712,1.913,1.419,2.867,2.131,1.2.9,2.372,1.83,3.527,2.789l-.017-.015.032.027.109.091-.036-.029a58.344,58.344,0,0,1,5.142,4.925q.032.891.12,1.776l-.162-.148c-.51-.465-1-.962-1.534-1.395-.81-.712-1.611-1.428-2.417-2.144S166.41,495.278,165.568,494.587ZM135.06,507.581q.06-.611.141-1.218l.434.09Q135.332,507.01,135.06,507.581Zm3.365-5.019q-.519.541-.982,1.129l-.3-.063c-.5-.106-.989-.2-1.478-.324-.154-.039-.309-.075-.464-.107.025-.173.044-.348.07-.521l.028-.156a2.116,2.116,0,0,0,.27-.079,3.13,3.13,0,0,0,1.566-1.119c.03-.043.059-.088.086-.133.693.167,1.373.384,2.057.584A10.821,10.821,0,0,0,138.425,502.562Zm35.33,5.671c-1.1-.2-2.2-.436-3.315-.6-1.331-.194-2.667-.4-4-.6-1-.153-2.02-.229-3.033-.335-3.756-.395-7.531-.666-11.3-.96-3.544-.277-7.066-.724-10.575-1.3a1.854,1.854,0,0,1,.194.029c-.044-.009-.087-.016-.13-.023l-.183-.032q.222-.18.449-.351c.312-.215.634-.41.962-.594.353-.176.708-.334,1.077-.481q.465-.154.94-.283l.018,0c2.318.191,4.651.253,6.975.326h-.019q.817.038,1.633.06c-.083,0-.171,0-.253,0,2.258.074,4.527.181,6.788.347q1.864.227,3.731.457c2.625.325,5.261.6,7.9.84l.337.315c.516.486,1.018.987,1.524,1.485.214.6.457,1.193.719,1.776Zm33.984,10.883c-.558.041-1.116.058-1.673.064l.066-.355a1.273,1.273,0,0,0,.757-.9,1.3,1.3,0,0,0-.347-1.214c.027-.139.055-.279.082-.418l.015-.012a19.42,19.42,0,0,0,5.154-.612,2.246,2.246,0,0,0,.9,1.569l-.016.1c-.682.315-1.372.613-2.078.879Q209.184,518.727,207.739,519.116Zm20.87,16.682c-.3.1-.591.189-.9.269q-.348.069-.7.123-.447.031-.894.034c-.42-.024-.835-.064-1.252-.119-.429-.085-.855-.184-1.278-.305-.305-.1-.6-.22-.9-.349q-.271-.137-.533-.286c-.176-.119-.346-.243-.514-.374q-.348-.318-.676-.657c-.042-.05-.085-.1-.127-.151-.046-.093-.09-.188-.134-.282a10.393,10.393,0,0,0,1.4.951,8.9,8.9,0,0,0,3.633,1.248,12.293,12.293,0,0,0,3.012-.158C228.7,535.762,228.656,535.78,228.609,535.8Zm29.216-40.474q-1.9-.151-3.8-.3c2.623-.817,5.238-1.664,7.9-2.335-.043.988-.1,1.976-.161,2.964Q259.8,495.484,257.825,495.324Zm8.61-2.212c.1.087.2.18.3.275.146.167.286.337.423.509.249.364.478.738.694,1.127.262.519.5,1.042.714,1.578a22.112,22.112,0,0,0-3.007-.569c.036-.563.079-1.127.112-1.691.033-.548.069-1.1.1-1.644.127.068.256.132.38.207C266.248,492.971,266.342,493.039,266.435,493.112Zm-16.258-15.353c.783-.559,1.554-1.13,2.331-1.695.66-.477,1.343-.931,1.979-1.437,1.466-1.166,2.956-2.3,4.345-3.551.719-.642,1.472-1.26,2.15-1.943l.9-.9q.033,1.14.065,2.279c-.275.141-.541.3-.8.468-.37.241-.736.488-1.107.736-1.483,1-2.944,2.014-4.451,2.973-.825.519-1.661,1.013-2.5,1.514-.73.441-1.5.818-2.238,1.248.06-.029.112-.059.171-.088-.037.018-.075.039-.112.059l.071-.035-.124.064-.047.024.008,0-.214.111.177-.089-.507.266c.012-.008.024-.014.036-.021q-.216.113-.429.226Zm-18.914,10.452c.148-.032.3-.067.443-.1.277-.018.554-.044.829-.078a28.01,28.01,0,0,0,6.506-1.725c1.573-.584,3.1-1.267,4.623-1.973,3.545-1.649,7.066-3.333,10.511-5.176,1.572-.848,3.1-1.767,4.61-2.726.748-.471,1.478-.96,2.214-1.443.353-.233.7-.47,1.056-.7q.061,2.181.128,4.359c.029.925.018,1.85.024,2.774.011.748.035,1.5.017,2.244q-.033,1.4-.063,2.8c-.277.039-.555.079-.833.117-.9.124-1.79.283-2.685.448-.759.141-1.525.288-2.284.43-.368.068-.74.127-1.1.222-1.869.435-3.729.894-5.6,1.332l.3-.071c-1.631.377-3.239.884-4.846,1.331-1.184.33-2.362.654-3.545.972-1.449.4-2.9.836-4.364,1.183-1.595.377-3.191.748-4.781,1.137l.043-.008c-.573.123-1.148.235-1.72.358-.122-.282-.234-.568-.365-.848a51.277,51.277,0,0,0-2.489-4.733A10.546,10.546,0,0,0,231.263,488.211Zm-4.65-16.147.026-.033c-.135.159-.265.318-.4.477.035-.047.076-.088.112-.135l-.371.441c.041-.046.076-.088.118-.135l-.177.212.028-.036.019-.023c-.013.015-.026.029-.038.044l-.291.345.023-.03c-.106.124-.206.248-.312.371.041-.047.076-.088.118-.135-.156.182-.308.364-.463.546.017-.02.034-.042.05-.063q-.533.628-1.065,1.26c-.053-.149-.119-.294-.175-.443.338-.321.682-.635,1.017-.959l1.845-1.78Zm-.842-10.982c-.6,1.649-1.184,3.3-1.814,4.935-.634,1.655-1.243,3.325-1.907,4.973a16.128,16.128,0,0,0-1.993-2.74l.085-.154c.783-1.449,1.666-2.838,2.526-4.24.925-1.5,1.884-2.983,2.816-4.488-.025.04-.051.079-.078.119l.084-.128.063-.1-.062.1c.394-.6.779-1.2,1.169-1.8.216-.331.433-.66.652-.99C226.828,458.087,226.316,459.6,225.771,461.082Zm-27.016-29.377q.915.451,1.844.874,1.557,1.132,3.1,2.277c1.537,1.13,3.074,2.284,4.664,3.338.606.4,1.219.807,1.849,1.172.541.312,1.095.577,1.66.842.489.235.984.454,1.478.671.836.383,1.69.742,2.556,1.06a15.965,15.965,0,0,0,3.133.842c.418.065.83.148,1.248.194.983.106,1.961.183,2.944.254,1.113.082,2.249.117,3.362.106a14.2,14.2,0,0,0,3.828-.477c.244-.072.488-.145.731-.222q-.106.532-.221,1.063c-.084.143-.17.284-.257.425.028-.046.059-.092.089-.138-.241.376-.485.758-.725,1.139l.057-.1c-1.253,1.933-2.5,3.887-3.82,5.767-1.03,1.473-2,2.992-2.967,4.5-1.108,1.725-2.191,3.463-3.28,5.194-.931,1.49-1.826,3-2.721,4.516-.152.26-.29.529-.437.791a11.362,11.362,0,0,0-2.292-.881,21.285,21.285,0,0,0-4.087-.577,22.436,22.436,0,0,0-4.351.094c-.554.071-1.113.148-1.667.218-.44.06-.877.136-1.315.21a17.33,17.33,0,0,0-2.369-.517,18.025,18.025,0,0,0-4.176-.1q.036-1.021.066-2.041c0,.082-.006.171-.006.253.052-1.352.081-2.707.108-4.063.019-.023.042-.041.059-.066a1.834,1.834,0,0,0,.306-.624,2.812,2.812,0,0,0,.071-.737c-.012-.606-.035-1.213-.083-1.819-.073-.96-.151-1.916-.229-2.875.034-.4.063-.793.08-1.192.041-1.1.1-2.2.071-3.292-.03-.942-.065-1.885-.094-2.821q-.011-.353-.022-.707c-.007-1.321-.026-2.643-.049-3.968q-.027-1.52-.071-3.039a15.607,15.607,0,0,0-.33-3.315,1.4,1.4,0,0,0-.335-.609c-.09-.826-.188-1.655-.206-2.482,0-.087,0-.172-.007-.258l.109-.138a1.462,1.462,0,0,0,.178-.311,5,5,0,0,0,.5.409A16.648,16.648,0,0,0,198.755,431.705Zm9.32-86.851c-.341.488-.706.965-1.018,1.478-.441.733-.892,1.465-1.339,2.2q-.266.423-.52.854c-.708,1.158-1.416,2.313-2.063,3.509l-.124.231q-.662,1.125-1.325,2.248c-.282.482-.524.994-.783,1.5-.577,1.137-1.16,2.267-1.737,3.4-.318.612-.6,1.242-.889,1.872l-.083.186q.08-2.668.154-5.336a1.885,1.885,0,0,0,.285-.123,1.923,1.923,0,0,0,.6-.571,3.032,3.032,0,0,0,.309-.077,1.821,1.821,0,0,0,1.289-1.8,7.049,7.049,0,0,0-.171-1.36,8.879,8.879,0,0,0-.335-1.036c-.016-.038-.035-.075-.05-.113.2-.214.4-.431.607-.638q1.086-1.113,2.173-2.238c.394-.406.777-.83,1.189-1.218.477-.448.954-.89,1.431-1.337,1.159-1.074,2.323-2.142,3.472-3.231l-.021.021c.043-.036.086-.074.128-.112Zm34.457-28.411.032-.025c-.065.048-.136.095-.2.142l.057-.039c.021-.017.044-.032.066-.047l.008,0,.024-.016-.021.014.03-.019c-.441.306-.853.666-1.277,1-.9.724-1.8,1.455-2.7,2.179s-1.784,1.425-2.673,2.143c-.339.272-.691.539-1.021.826-1.6,1.417-3.192,2.851-4.785,4.273-.63.56-1.26,1.119-1.885,1.684-.418.371-.806.784-1.195,1.178-1.725,1.743-3.468,3.468-5.194,5.212-.995,1.007-1.943,2.061-2.9,3.1q-1.325,1.456-2.667,2.909c-.4.436-.822.863-1.206,1.315-.809.908-1.6,1.828-2.4,2.742-.54.62-1.1,1.225-1.642,1.848q3.226-4.642,6.87-8.974A142.4,142.4,0,0,1,230.318,324.9c2.381-2.164,4.833-4.252,7.368-6.234.315-.22.629-.443.945-.666l.308-.216q.113-.079.225-.156l.023-.014-.032.023c.365-.241.735-.471,1.1-.706q1.448-.928,2.9-1.849c.677-.424,1.372-.813,2.055-1.219,1.666-.989,3.344-1.949,5.034-2.9l.353-.2c-.211.126-.418.258-.618.4C247.48,312.9,245.006,314.672,242.532,316.443Zm-3.36,1.18.1-.068-.07.05Zm27.111-18.611c-1.335.563-2.643,1.189-3.934,1.85q-.709.258-1.416.523l.015,0c-.807.294-1.59.659-2.379,1-1.019.436-2.038.866-3.056,1.3-.554.241-1.09.53-1.626.8-2.22,1.112-4.457,2.179-6.624,3.386a99.22,99.22,0,0,0-13.061,8.644c-1.083.859-2.155,1.737-3.2,2.638-.942.813-1.908,1.613-2.8,2.479-.5.483-1,.977-1.5,1.46-1.548,1.519-3.1,3.044-4.651,4.558-.418.406-.789.866-1.178,1.295l-.312.346q-.717.642-1.425,1.291l.135-.118c-1.124,1-2.231,2.02-3.35,3.033-.932.846-1.879,1.67-2.8,2.536l-.066.06.059-.058c-1.937,1.737-3.875,3.468-5.794,5.223l.013-.01c-.655.6-1.294,1.218-1.945,1.823-1.278,1.19-2.573,2.362-3.792,3.616-.874.9-1.747,1.812-2.621,2.715-.128-.212-.256-.424-.39-.632.034-1.262.078-2.524.11-3.786.229-9.032.412-18.065.648-27.092.014-.58.02-1.16.032-1.739a2.082,2.082,0,0,0,.349-1.184,2.71,2.71,0,0,0-.3-1.217c.035-2.282.065-4.564.1-6.843q.074-4.469.144-8.945c.164-.2.327-.4.491-.6.748-.913,1.491-1.832,2.247-2.742a73.089,73.089,0,0,1,5.24-5.455q1.379-1.247,2.819-2.415a72.072,72.072,0,0,1,7.035-4.227c-.076.048-.159.089-.235.13a75.12,75.12,0,0,1,8.376-3.817,51.071,51.071,0,0,1,5.7-1.773,42.3,42.3,0,0,1,4.812-.805,39.587,39.587,0,0,1,4.672-.13,53.894,53.894,0,0,1,6.065.67c.414.071.825.161,1.237.241a4.965,4.965,0,0,0,.453,1.027,2.11,2.11,0,0,0,1.793,1,1.892,1.892,0,0,0,.327-.028,2.02,2.02,0,0,0,1.179-.666c.917.981,1.838,1.959,2.748,2.945l-.011-.012.023.024-.025-.027-.017-.018-.017-.02-.039-.043.02.021-.024-.026a.4.4,0,0,1-.027-.034c.017.02.034.041.052.061,1,1.091,2.058,2.138,3.092,3.207,1.062,1.1,2.107,2.236,3.2,3.31.345.386.716.758,1.077,1.135.777.819,1.555,1.644,2.332,2.462,1.178,1.242,2.346,2.484,3.529,3.721l.046.05c.715.823,1.445,1.633,2.179,2.441C268.758,298.017,267.516,298.5,266.283,299.012Zm27.805-22.222c-.218.659-.442,1.313-.648,1.966-.242.76-.418,1.549-.618,2.32q-.5,1.89-.984,3.786c-.135.513-.282,1.025-.388,1.538-.242,1.148-.477,2.3-.719,3.444-.159.783-.347,1.572-.477,2.361.012-.07.024-.147.036-.223-.162.963-.328,1.925-.488,2.888.244-3.324.4-6.636.937-9.925a54.716,54.716,0,0,1,1.433-6.084c.307-.99.651-1.966,1.011-2.937a1.665,1.665,0,0,0,1.128-.984c.263-.623.536-1.24.811-1.856q-.074.344-.151.685-.127.561-.256,1.122Q294.4,275.841,294.088,276.79Zm16.8-29.207c-.518,1.272-1.054,2.538-1.548,3.815q-1.3,3.357-2.6,6.719c-.448,1.155-.907,2.309-1.331,3.474-.83,2.3-1.672,4.587-2.5,6.884-.442,1.213-.9,2.414-1.314,3.633q-1.1,3.232-2.213,6.466c-.533,1.564-1.115,3.123-1.6,4.707-.63,1.766-1.186,3.561-1.782,5.338-.413,1.237-.842,2.468-1.248,3.7q.175-1.266.361-2.533c.326-1.933.668-3.861,1-5.794.124-.742.26-1.484.383-2.22.1-.595.271-1.189.4-1.772q.361-1.581.721-3.159.263-.79.522-1.582l.954-2.914c.094-.283.177-.566.289-.842,1.218-3.078,2.447-6.155,3.648-9.239h0l-.009.018-.052.111.02-.044c-.012.023-.023.046-.034.069l.055-.115.016-.035c.063-.132.124-.266.188-.4-.036.071-.065.142-.1.206q.783-1.689,1.56-3.382a1.665,1.665,0,0,0,.088-.192h0l.406-.883-.011.026q1.071-2.32,2.137-4.642c-.03.071-.065.142-.1.206.08-.169.161-.342.238-.513l-.02.042.03-.063c.022-.047.043-.1.064-.143-.017.038-.034.078-.053.118.026-.054.051-.109.075-.163s.06-.126.088-.189l0,0-.006.013c.23-.5.5-.984.748-1.479.53-1.042,1.06-2.09,1.59-3.132q.5-.988,1-1.974.836-1.2,1.674-2.394Q311.755,245.454,310.887,247.583Zm49.365-51.364q-3.285.548-6.565,1.089c-1.049.171-2.1.283-3.157.418l-1.828.236c.136-.124.276-.246.411-.371.491-.419.988-.827,1.48-1.243q3.82-.08,7.639-.159,1.287-.025,2.572-.061Z"/><path d="M46.417,231.343l.017,0,.013,0Z"/><path d="M186.978,190.291l.047.055.094.1Z"/><path d="M180.028,230.54c.011-.013.02-.027.031-.039h0c-.018.022-.035.042-.051.063Z"/><polygon points="160.55 253.587 160.545 253.593 160.552 253.585 160.55 253.587"/><path d="M140.036,212.062l.021.023c.026.027.053.054.078.082C140.1,212.134,140.069,212.1,140.036,212.062Z"/><path d="M174.9,150.577h0c-.063.044-.124.091-.186.134C174.776,150.665,174.835,150.624,174.9,150.577Z"/><path d="M159.2,155.635c-.067.027-.136.051-.2.076h0C159.066,155.688,159.137,155.658,159.2,155.635Z"/><path d="M122.176,295.322l.066-.057c.03-.028.058-.057.088-.084C122.282,295.228,122.229,295.275,122.176,295.322Z"/><path d="M142.748,118.105h0l-.014.007Z"/><path d="M150.37,125.331l-.075.04-.022.012C150.3,125.368,150.338,125.349,150.37,125.331Z"/><path d="M150.461,125.283l-.091.048h0Z"/><path d="M149.926,125.566l-.033.017-.027.014Z"/><path d="M98.905,206.117c-.025.04-.048.081-.073.12.047-.076.094-.147.135-.218Z"/><path d="M150.295,125.371l.006,0-.018.01Z"/><polygon points="194.554 82.392 194.554 82.392 194.55 82.396 194.554 82.392"/><path d="M150.245,125.4l-.014.007.025-.013Z"/><polygon points="150.313 125.361 150.307 125.364 150.301 125.367 150.313 125.361"/><path d="M98.853,255.677c.012.03.024.061.035.092,0,.01.01.019.013.029Z"/><polygon points="98.55 332.288 98.554 332.284 98.561 332.278 98.55 332.288"/><polygon points="90.138 343.34 90.138 343.34 90.131 343.346 90.138 343.34"/><path d="M101.531,332.872l-.01.01,0,0Z"/><polygon points="303.027 262.262 303.024 262.267 303.027 262.261 303.027 262.262"/><path d="M249.9,311.219c.026-.019.055-.034.082-.053l.083-.059C250,311.142,249.948,311.184,249.9,311.219Z"/><polygon points="303.024 262.267 303.024 262.268 303.024 262.269 303.024 262.267"/><path d="M300.84,253.164l0-.01,0-.012Z"/><path d="M254.562,281.242l.017.019.006.007Z"/><polygon points="166.159 459.722 166.163 459.719 166.163 459.718 166.159 459.722"/><path d="M178.878,446.6l-.006.008-.119.135c.04-.041.076-.085.114-.13l0,0,0,0,.021-.024.017-.021Z"/><path d="M184.741,444.562c-.047.053-.088.106-.135.159l-.016.019Z"/><path d="M225.983,472.814l-.015.018c.021-.025.043-.052.065-.076C226.015,472.775,226,472.794,225.983,472.814Z"/></svg>