<svg xmlns="http://www.w3.org/2000/svg" width="430.672" height="319.413" viewBox="0 0 430.672 319.413"><path d="M197.675,108.807a19.293,19.293,0,0,0-3.321-5.323,24.166,24.166,0,0,0-4.805-4.3,17.588,17.588,0,0,0-5.741-2.662,10.531,10.531,0,0,0-3.239-.347,11.088,11.088,0,0,0-2.838.553,9.7,9.7,0,0,0-2.7,1.4,11.432,11.432,0,0,0-2.12,2.079,13.05,13.05,0,0,0-1.666,2.655,15.791,15.791,0,0,0-.936,2.762,18.487,18.487,0,0,0-.5,3.81q-.141.609-.23,1.236a13.6,13.6,0,0,0,.642,6.195,12.643,12.643,0,0,0,3,5.011,13.272,13.272,0,0,0,5.223,3.133,17.667,17.667,0,0,0,5.194.782,16.294,16.294,0,0,0,7.343-1.7,17.471,17.471,0,0,0,2.756-1.719,12.921,12.921,0,0,0,2.214-2.068,11.57,11.57,0,0,0,2.544-5.481,10.235,10.235,0,0,0-.059-3.086A13.479,13.479,0,0,0,197.675,108.807ZM172.9,111.793c0-.036-.011-.077-.017-.112-.059-.583-.106-1.16-.118-1.743a17.517,17.517,0,0,1,.124-1.931c.041-.118.088-.236.135-.354.181-.41.385-.813.6-1.209a17.483,17.483,0,0,1,1.141-1.711,14.521,14.521,0,0,1,1.025-1.154c.253-.248.518-.477.789-.7a1.431,1.431,0,0,0,.288.213c-.218.247-.429.5-.636.759a15.86,15.86,0,0,0-2.861,5.6A18.961,18.961,0,0,0,172.9,111.793Zm17.436,3.633c-.047.312-.106.613-.177.918a11.794,11.794,0,0,1-.394,1.178c-.153.342-.312.672-.489,1-.194.33-.406.648-.63.96-.053.071-.106.136-.159.2-.206.177-.418.348-.63.513a13.566,13.566,0,0,1-1.284.848,9.672,9.672,0,0,1-.906.435c-.283.1-.572.2-.866.277-.365.088-.724.153-1.095.206-.289.03-.577.047-.872.059-.341-.006-.683-.018-1.024-.047-.318-.053-.63-.112-.942-.188-.313-.095-.625-.2-.931-.312a13.7,13.7,0,0,1-1.348-.654c-.065-.036-.124-.071-.189-.112-.076-.076-.159-.147-.235-.224-.236-.247-.46-.506-.671-.765-.16-.23-.313-.454-.454-.689a11.179,11.179,0,0,1-.524-1.107c-.159-.412-.294-.829-.411-1.251l-.007-.033-.007-.015c-.1-.429-.188-.863-.252-1.3v.029c-.059-.512-.089-1.018-.1-1.525q.016-.816.1-1.613a.309.309,0,0,0,0,.035.167.167,0,0,1,.006-.044h0l.006-.025c0-.015,0-.029,0-.044.076-.519.175-1.039.3-1.546a14.75,14.75,0,0,1,.612-1.8,17.261,17.261,0,0,1,.766-1.549,12.482,12.482,0,0,1,2.12-2.744c-.03.024-.053.047-.083.071.189-.177.377-.354.571-.524.937.294,1.861.618,2.768.983a29.071,29.071,0,0,1,2.968,1.49c-.047-.024-.094-.048-.136-.071a11.516,11.516,0,0,1,1.19.789c.235.194.447.389.659.6.336.347.642.712.942,1.089.271.365.518.748.754,1.136.189.348.353.7.506,1.055.089.241.165.483.236.73a12.339,12.339,0,0,1,.283,1.389c.006.024.006.042.012.065-.006-.023-.006-.041-.012-.059.047.43.076.854.082,1.284C190.385,114.825,190.362,115.131,190.338,115.426Zm-.571-9.722a11.23,11.23,0,0,0-2.509-1.9,24.71,24.71,0,0,0-2.785-1.419c-.241-.1-.477-.2-.718-.294.112-.018.224-.042.341-.06.342-.034.678-.064,1.019-.07s.666.024,1,.059c.23.035.448.083.666.129s.412.13.612.207c.224.106.436.212.642.329.306.188.595.389.883.6.371.306.736.624,1.078.966q.4.424.759.883c.253.359.489.724.713,1.107v-.006q.309.575.565,1.183a13.1,13.1,0,0,1,.412,1.267c.089.365.159.718.218,1.089.024.165.041.324.053.489A12.843,12.843,0,0,0,189.767,105.7Zm6,8.68c-.041.27-.094.536-.159.8-.1.347-.218.677-.347,1.006-.153.348-.318.69-.5,1.019a.32.32,0,0,1,.036-.047.794.794,0,0,0-.053.083c-.006.013-.013.026-.02.038l.008-.009-.018.028v0c-.23.372-.471.732-.729,1.082-.224.271-.453.524-.695.771s-.506.471-.771.695a15,15,0,0,0,2.9-5.759,12.26,12.26,0,0,0,.3-1.831,1.25,1.25,0,0,1,.024.147c.047.377.07.759.082,1.142C195.814,113.83,195.8,114.107,195.767,114.384Z"/><polygon points="194.713 117.303 194.713 117.303 194.714 117.302 194.713 117.303"/><path d="M228.327,93.109c-.106-.3-.218-.583-.341-.872a14.115,14.115,0,0,0-1.095-4.257,10.1,10.1,0,0,0-1.655-2.7,9.157,9.157,0,0,0-2.22-1.778,8.75,8.75,0,0,0-2.95-1.143,12.2,12.2,0,0,0-2.927-.041,5.821,5.821,0,0,0-2.043.024,9.917,9.917,0,0,0-5.029,2.679,13.784,13.784,0,0,0-2.967,4.982,17.637,17.637,0,0,0-1.16,6.312,15.556,15.556,0,0,0,.3,3.18,10.262,10.262,0,0,0,.9,2.756,9.751,9.751,0,0,0,4.039,4.21,9.272,9.272,0,0,0,1.249.512,10.325,10.325,0,0,0,2.4.872,10.556,10.556,0,0,0,2.391.277,12.015,12.015,0,0,0,3.639-.595,11.209,11.209,0,0,0,7.784-8.444A11.381,11.381,0,0,0,228.327,93.109Zm-18.165-2.662c.242-.564.5-1.106.8-1.643.2-.344.421-.682.655-1.007l.041-.058a1.633,1.633,0,0,0,1.843-.2c.295-.282.577-.565.889-.824.2-.136.4-.265.607-.389.182-.1.371-.188.559-.27.23-.083.46-.159.695-.23.253-.065.5-.118.754-.159.288-.036.571-.065.859-.082.046.015.091.033.136.05l.035.014.089.036a.718.718,0,0,0-.083-.03,15.344,15.344,0,0,1,1.384.7q.613.367,1.191.794.625.506,1.2,1.061a20.139,20.139,0,0,1,1.433,1.673,23.93,23.93,0,0,1,1.417,2.154l0,0a.4.4,0,0,0,.031.05,1.316,1.316,0,0,0,.024.153,11.31,11.31,0,0,0-1.914-1.978,12.345,12.345,0,0,0-3.633-2.067,10.013,10.013,0,0,0-3.139-.547,7.448,7.448,0,0,0-.954.058,7.07,7.07,0,0,0-1.7.4,7.487,7.487,0,0,0-1.59.919,9.118,9.118,0,0,0-1.714,1.655C210.1,90.6,210.132,90.524,210.162,90.447Zm14.332,5.93c-.147.506-.312,1-.506,1.5-.2.46-.419.908-.66,1.343-.236.395-.5.778-.765,1.149a15.646,15.646,0,0,1-1.049,1.195c-.318.306-.641.589-.977.859-.359.259-.724.507-1.1.73a11,11,0,0,1-1.225.589,9.673,9.673,0,0,1-.989.336,7.611,7.611,0,0,1-.819.165c-.277.035-.553.053-.836.065-.324-.006-.648-.03-.971-.059a10.17,10.17,0,0,1-1.025-.194c-.212-.065-.43-.136-.642-.213q-.256-.114-.512-.247c-.118-.076-.236-.153-.354-.236-.117-.129-.229-.264-.341-.4-.183-.253-.353-.512-.512-.771-.2-.342-.36-.689-.519-1.042-.1-.271-.194-.536-.276-.819q-.1-.4-.159-.812a11.851,11.851,0,0,1-.089-1.2,12.642,12.642,0,0,1,.089-1.413,12.048,12.048,0,0,1,.23-1.2v.011a12.081,12.081,0,0,1,.43-1.3c.159-.377.33-.736.518-1.089.183-.3.371-.595.583-.884.224-.27.46-.535.707-.788a9.056,9.056,0,0,1,.7-.6l-.008.008c.171-.124.347-.242.536-.353a5.165,5.165,0,0,1,.5-.236c.089-.03.177-.059.265-.082a.487.487,0,0,0-.047.017c.224-.053.454-.094.683-.13.218-.017.43-.029.648-.035.34,0,.681.026,1.021.064.223.035.446.082.669.13.436.124.86.272,1.284.436.27.118.524.253.783.389a.168.168,0,0,0-.024-.008,14.709,14.709,0,0,1,1.26.85,12.182,12.182,0,0,1,.966.866,9.306,9.306,0,0,1,.624.7c.246.329.486.665.713,1a1.309,1.309,0,0,0,1.436.53C224.67,95.594,224.588,95.988,224.494,96.377Z"/><path d="M251.4,119.206a9.8,9.8,0,0,0,1.1-2.7,10.171,10.171,0,0,0,.241-3.238A9.217,9.217,0,0,0,252,110.5a10.2,10.2,0,0,0-3.974-4.664,8.063,8.063,0,0,0-2.927-1.113,13.744,13.744,0,0,0-2.985-.117,10.9,10.9,0,0,0-2.008.359,9.372,9.372,0,0,0-2.662-.288,9.156,9.156,0,0,0-5.4,2.113,10.64,10.64,0,0,0-3.385,10.712,10.056,10.056,0,0,0,3.156,5.122,12.089,12.089,0,0,0,2.579,1.661,6.5,6.5,0,0,0,3.886,1.431,4,4,0,0,0,.454-.023,9.05,9.05,0,0,0,1.813-.383,14.945,14.945,0,0,0,8.756-3.6A12,12,0,0,0,251.4,119.206Zm-18.837-2.714a12.764,12.764,0,0,0-.3,1.908c-.123-.236-.235-.471-.347-.707-.13-.33-.242-.659-.347-1a8.006,8.006,0,0,1-.171-.859v-.007c-.006-.023-.006-.041-.012-.064.006.017.006.035.012.052-.037-.315-.055-.631-.063-.947a10.452,10.452,0,0,1,.063-1.12c-.006.024-.006.042-.012.066.006-.024.006-.054.012-.083l0-.034,0,.022,0-.026c0-.023,0-.045.007-.068a.3.3,0,0,1,0,.05c.039-.227.078-.448.128-.668a1.822,1.822,0,0,0,.171.129,1.658,1.658,0,0,0,1.254.253,1.694,1.694,0,0,0,.972-.583A14.765,14.765,0,0,0,232.558,116.492Zm13.284-.324c-.041.277-.089.548-.153.824-.071.23-.142.453-.224.678s-.2.417-.312.623a10.6,10.6,0,0,1-.665.978c-.354.442-.725.866-1.113,1.266a13.932,13.932,0,0,1-1.149.995c.018-.011.03-.017.047-.029-.259.188-.524.365-.794.535q-.336.063-.672.106c-.341.036-.677.06-1.018.072a16.112,16.112,0,0,1-1.69-.083,12.631,12.631,0,0,1-1.314-.253,7.916,7.916,0,0,1-.883-.3c-.218-.1-.436-.2-.647-.312l-.089-.194c-.082-.236-.159-.465-.23-.707s-.117-.512-.158-.777c-.018-.189-.036-.371-.042-.56.006-.363.035-.717.075-1.074q.1-.708.284-1.416a14.425,14.425,0,0,1,.531-1.579,15.946,15.946,0,0,1,.747-1.518,13.4,13.4,0,0,1,2.226-2.9,10.629,10.629,0,0,1,.83-.7c.246-.179.5-.346.767-.5a10.7,10.7,0,0,1,1.018-.5c-.024.006-.048.017-.071.023.035-.011.076-.029.112-.041l.012,0c.135-.054.27-.1.406-.148.288.177.559.365.83.565a12.807,12.807,0,0,1,1.06.948c.283.3.548.613.8.937s.465.665.677,1.013c.177.329.342.659.489,1,.065.17.123.347.177.523a6.609,6.609,0,0,1,.158.819c.024.271.036.536.048.807C245.9,115.567,245.877,115.868,245.842,116.168Zm3.621-1.113c-.053.342-.118.689-.206,1.031-.07.229-.147.453-.235.676a7.877,7.877,0,0,1-.354.713c-.159.247-.323.489-.5.724a.182.182,0,0,1-.03.042,9.725,9.725,0,0,0,.324-4.965,10.19,10.19,0,0,0-1.072-2.643,13.35,13.35,0,0,0-1.678-2.279c.13.065.253.129.383.2a7.919,7.919,0,0,1,.671.442,9.952,9.952,0,0,1,.754.665c.236.247.459.5.671.766.165.247.324.488.471.736.159.294.3.595.43.9.095.265.183.537.259.808.053.217.095.435.13.653.018.224.035.441.041.666C249.516,114.478,249.493,114.767,249.463,115.055Z"/><path d="M213.587,120.838c-.088,0-.176,0-.265.006a1.212,1.212,0,0,0-.806-.8,4.4,4.4,0,0,0-1.225-.247,3.886,3.886,0,0,0-1.3.195,6.345,6.345,0,0,0-2.131,1.336,10.507,10.507,0,0,0-1.284,1.508A14.01,14.01,0,0,0,203,125.984a11.788,11.788,0,0,0-2.514,5.618,9.253,9.253,0,0,0-.006,3.1,9.455,9.455,0,0,0,.906,2.626,8.816,8.816,0,0,0,1.767,2.391,8.953,8.953,0,0,0,2.279,1.507,12.523,12.523,0,0,0,5.241,1.207c.2,0,.4,0,.6-.017a19.406,19.406,0,0,0,6.259-1.408,15.3,15.3,0,0,0,5.094-3.391,8.5,8.5,0,0,0,1.784-2.45,8.636,8.636,0,0,0,.683-2.626,8.765,8.765,0,0,0-1.219-5.63C221.684,123.452,217.768,120.808,213.587,120.838Zm-8.461,16.44c-.154-.165-.3-.336-.436-.512-.153-.213-.295-.43-.43-.66-.165-.312-.312-.624-.447-.948-.083-.218-.148-.435-.218-.659-.042-.177-.077-.359-.112-.536a6.372,6.372,0,0,1-.047-.754c0-.3.024-.6.055-.9.057-.382.126-.762.216-1.136.082-.276.164-.547.264-.818a14.359,14.359,0,0,0-.017,2.356,10.229,10.229,0,0,0,.612,3.032,13.882,13.882,0,0,0,.883,1.837C205.338,137.484,205.232,137.384,205.126,137.278Zm16.723-4.905c-.03.183-.065.371-.106.554-.053.159-.106.317-.171.477a6.279,6.279,0,0,1-.288.566h0l0,.01,0-.006a9.96,9.96,0,0,1-.569.837c-.288.359-.589.706-.912,1.042-.33.294-.678.577-1.031.848-.359.253-.718.483-1.095.7-.446.238-.9.459-1.355.658l.012,0-.04.017-.03.013.012-.007-.03.013a.208.208,0,0,0-.032.012h0l0,0c-.022.009-.043.02-.066.028l.028-.014a20.365,20.365,0,0,1-2.042.656c-.436.1-.871.194-1.313.277-.247-.006-.489-.024-.73-.054-.312-.047-.613-.106-.913-.177a8.97,8.97,0,0,1-.972-.318c-.2-.093-.4-.192-.6-.3-.164-.1-.323-.207-.482-.32s-.289-.254-.43-.383c-.188-.207-.371-.419-.547-.636-.189-.271-.371-.542-.542-.824l.005,0a11.942,11.942,0,0,1-.581-1.2c-.071-.195-.136-.393-.2-.586,0-.017-.009-.034-.014-.05-.082-.352-.153-.71-.206-1.068-.054-.522-.084-1.041-.1-1.564a16.428,16.428,0,0,1,.1-1.69c.006-.018.006-.041.012-.065.006-.006.006-.017.012-.023.424-.683.866-1.355,1.343-2,.441-.554.9-1.1,1.389-1.614.371-.353.772-.677,1.178-1,.259-.188.524-.365.789-.53.177-.1.359-.189.542-.271.082-.024.159-.053.241-.076.259-.059.512-.112.777-.147.248-.024.5-.036.76-.042h.018l.329.036a10.433,10.433,0,0,1,1.049.194l-.124-.035c.047.011.088.023.135.035l.03.007.016,0h0c.368.1.732.223,1.1.36a14.44,14.44,0,0,1,1.4.677c.412.247.813.512,1.2.8a15.379,15.379,0,0,1,1.23,1.1c.259.276.507.559.742.854.189.259.359.524.524.795v0c-.014-.02-.025-.041-.041-.062.094.171.177.347.253.524s.13.365.189.554c.058.258.112.523.147.789s.047.5.053.747A8.664,8.664,0,0,1,221.849,132.373Z"/><path d="M245.152,94.864a11.283,11.283,0,0,0,1.943.165,11.592,11.592,0,0,0,4.069-.725,16.423,16.423,0,0,0,3.6-1.855,8.849,8.849,0,0,0,.889-.512,10.211,10.211,0,0,0,3.957-4.605A7.594,7.594,0,0,0,259.6,81.5a9.14,9.14,0,0,0-1.82-2.7,19.344,19.344,0,0,0-2.426-1.967,1.579,1.579,0,0,0-.742-.276q-.23-.106-.459-.2a7.67,7.67,0,0,0-2.9-.541.42.42,0,0,1-.076,0,1.3,1.3,0,0,0,.064-.229,1.345,1.345,0,0,0-1.054-1.567,5.477,5.477,0,0,0-3.592.931,12.851,12.851,0,0,0-3.315,3.05,17.665,17.665,0,0,0-2.3,3.945,14.824,14.824,0,0,0-1.172,4.193,8.223,8.223,0,0,0,.872,5.458A6.979,6.979,0,0,0,245.152,94.864Zm.594-9.328c.059-.353.13-.7.213-1.048.117-.4.247-.8.394-1.178.165-.377.347-.748.548-1.106.17-.295.353-.572.553-.854a8.954,8.954,0,0,1,.713-.8c.217-.206.453-.4.688-.589.271-.194.554-.383.843-.553a6.667,6.667,0,0,1,.653-.318c.153-.059.3-.107.454-.153.088-.023.176-.04.264-.056a.461.461,0,0,1-.052,0c.019,0,.043,0,.067-.005h.015l.039-.006h0l.072-.011c-.021,0-.042.008-.061.01.082,0,.169-.01.255-.01.159,0,.318.011.471.023.224.036.442.077.666.124.123.035.241.07.359.112a1.858,1.858,0,0,0,.53.583c.312.23.63.448.936.677.359.3.713.6,1.048.93.059.065.118.13.177.2.112.219.218.442.318.672.082.206.153.418.218.636.076.3.135.6.182.9s.053.571.065.86c-.006.271-.018.535-.047.806a6.122,6.122,0,0,1-.124.648c-.058.206-.123.4-.194.595-.147.324-.3.647-.477.966-.035.058-.071.117-.112.176-.129.153-.271.306-.412.454q-.327.309-.671.583c-.289.212-.589.411-.895.594-.348.189-.7.359-1.066.518-.43.165-.86.313-1.3.436-.277.065-.548.118-.831.159-.112.012-.223.023-.341.029-.265-.006-.513-.011-.778-.041-.229-.041-.453-.088-.677-.141-.206-.059-.406-.129-.606-.2a5.125,5.125,0,0,1-.483-.236c-.118-.07-.23-.147-.347-.23a1.277,1.277,0,0,1-.112-.1c-.1-.111-.2-.223-.3-.341-.088-.135-.17-.271-.253-.407-.106-.2-.212-.411-.3-.623s-.159-.454-.23-.684c-.041-.194-.077-.383-.106-.577-.018-.171-.029-.347-.035-.524C245.694,86.137,245.711,85.836,245.746,85.536Zm-3.286.678.007-.065v.024l.007-.048v-.006c.023-.148.047-.3.076-.447-.024.3-.035.6-.029.895a7.958,7.958,0,0,0,2,5.182c.017.017.029.035.047.053-.141-.089-.277-.183-.418-.283-.177-.153-.353-.306-.524-.471-.153-.171-.307-.341-.448-.518-.117-.16-.223-.324-.33-.489-.082-.153-.158-.306-.229-.465-.03-.088-.059-.177-.083-.265-.041-.183-.082-.371-.111-.56a9.347,9.347,0,0,1-.057-1.009c.007-.5.042-1.006.095-1.51l0,.017Z"/><path d="M269.366,132.632a13.117,13.117,0,0,0-1.831-2.738c-.33-.377-.671-.742-1.036-1.084a6.547,6.547,0,0,0-.748-1.8,6.966,6.966,0,0,0-1.973-2.226,8.169,8.169,0,0,0-2.567-1.183,6.269,6.269,0,0,0-2.9-.136,9.567,9.567,0,0,0-2.085.7,5.2,5.2,0,0,0-3.415,1.33,8.971,8.971,0,0,0-2.414,3.515,9.929,9.929,0,0,0-.654,4.293,9.084,9.084,0,0,0,.165,1.19c-.006.318,0,.635.024.948a10.986,10.986,0,0,0,2.072,5.871,10.108,10.108,0,0,0,5.112,3.592,11.141,11.141,0,0,0,3.091.417,12.808,12.808,0,0,0,3.221-.412,10.007,10.007,0,0,0,5.305-3.28,6.751,6.751,0,0,0,1.455-2.791,8.991,8.991,0,0,0,.088-3.026A9.647,9.647,0,0,0,269.366,132.632ZM254.3,136.283c0-.006-.006-.006-.012-.012l.088.036c-.053-.024-.111-.054-.164-.083a2.462,2.462,0,0,1-.207-.136c-.147-.117-.288-.241-.423-.37-.118-.124-.224-.254-.33-.383-.018-.2-.03-.4-.036-.607.006-.406.03-.812.077-1.224s.14-.835.241-1.249c.1-.357.226-.707.357-1.055.164-.38.345-.755.544-1.118.159-.265.318-.518.5-.771a1.894,1.894,0,0,0,1.46.141c.277-.077.548-.171.819-.253.094-.024.182-.041.277-.059.211-.017.423-.035.636-.041.288.006.577.024.859.053.4.065.789.141,1.184.229a10.467,10.467,0,0,1,1.036.342c.348.159.683.33,1.019.512a13.44,13.44,0,0,1,1.248.83.629.629,0,0,1,.071.06c-.012.035-.018.07-.03.112a7.32,7.32,0,0,1-.247.718c-.082.17-.165.341-.259.506a3.313,3.313,0,0,1-.208.295c-.162.2-.33.4-.51.588a15.005,15.005,0,0,1-1.378,1.149l.019-.011a18.039,18.039,0,0,1-1.556,1.029,10.936,10.936,0,0,1-1.11.528c-.2.075-.4.15-.6.208-.347.083-.706.154-1.06.206-.312.036-.618.054-.93.06-.188,0-.377-.012-.565-.03s-.354-.065-.53-.106C254.481,136.347,254.392,136.312,254.3,136.283Zm12.4,1.489c-.024.148-.047.3-.083.448-.029.083-.053.165-.088.248s-.071.152-.112.229c-.094.153-.194.306-.3.454-.165.2-.342.406-.524.6-.259.242-.524.477-.807.695-.212.153-.43.294-.647.43-.242.124-.483.235-.731.341-.306.118-.612.218-.93.306a11.216,11.216,0,0,1-1.1.218c-.383.042-.766.071-1.148.083-.442-.006-.884-.03-1.325-.077-.283-.047-.572-.1-.854-.164-.2-.06-.406-.13-.607-.2-.241-.106-.471-.224-.7-.353-.289-.171-.56-.36-.831-.559-.241-.206-.477-.413-.706-.637-.2-.205-.383-.423-.566-.647-.005-.006-.011-.018-.017-.024a7.077,7.077,0,0,0,1.7.065,10.387,10.387,0,0,0,3.132-.677,13.272,13.272,0,0,0,2.715-1.5,13.905,13.905,0,0,0,2.538-2.114,7.611,7.611,0,0,0,.977-1.372c.065.1.13.207.195.307.135.247.259.5.37.753.1.254.171.506.248.771.082.331.141.666.194,1,.024.253.041.5.047.754C266.734,137.355,266.728,137.566,266.705,137.772Z"/><path d="M285.157,103.732a11.309,11.309,0,0,0-3.079-5.389,10.929,10.929,0,0,0-5.306-3.185,10.055,10.055,0,0,0-3.2-.112c-.63-.289-1.266-.565-1.9-.836a1.369,1.369,0,0,0,.565-1.349,1.32,1.32,0,0,0-1.525-1.024,4.887,4.887,0,0,0-2.079,1.018,11.6,11.6,0,0,0-2,2.015,14.153,14.153,0,0,0-2.543,5.158,14.656,14.656,0,0,0-.454,4.045,13.221,13.221,0,0,0-.389,1.355,12.657,12.657,0,0,0,0,6.259,7.562,7.562,0,0,0,1.437,2.761,8.956,8.956,0,0,0,2.279,2.038,6.985,6.985,0,0,0,1.513.718,9.5,9.5,0,0,0,1.455.324,11.686,11.686,0,0,0,1.513.1,12.428,12.428,0,0,0,1.555-.1,13.441,13.441,0,0,0,3.309-.836c.294-.118.6-.241.883-.383a3.388,3.388,0,0,0,.348-.023,8.1,8.1,0,0,0,2.814-.83,8.875,8.875,0,0,0,2.556-1.891,9.013,9.013,0,0,0,1.637-2.5,7.528,7.528,0,0,0,.659-3.061,9.962,9.962,0,0,0-.094-1.114c.024-.146.053-.294.071-.441A7.936,7.936,0,0,0,285.157,103.732Zm-16.523-7.249c.148-.182.3-.365.46-.542a2.006,2.006,0,0,0,.147.589,11.631,11.631,0,0,0-1.325,1.019C268.146,97.183,268.381,96.824,268.634,96.483Zm-2.143,9.427.053-.23c.13-.441.271-.877.43-1.307a15.155,15.155,0,0,1,.7-1.46c.323-.542.677-1.066,1.06-1.584a15.037,15.037,0,0,1,1.071-1.219c.053-.053.106-.1.159-.153a10.447,10.447,0,0,0-1.254,2.7,10.006,10.006,0,0,0-.353,3.127,14.118,14.118,0,0,0,.877,4.487c-.277-.23-.547-.471-.807-.731-.206-.229-.406-.459-.6-.7-.159-.224-.312-.448-.454-.689a10.832,10.832,0,0,1-.5-1.054c-.136-.365-.259-.742-.365-1.119C266.5,105.951,266.5,105.928,266.491,105.91Zm3.781,8.15c-.195-.029-.377-.071-.566-.112-.153-.047-.306-.094-.459-.153s-.289-.135-.43-.212c-.194-.124-.383-.254-.565-.389-.2-.159-.389-.329-.577-.506a7.473,7.473,0,0,1-.536-.619c-.118-.165-.224-.323-.324-.494a10.527,10.527,0,0,0,3.356,2.255c.248.106.507.2.766.277C270.713,114.1,270.489,114.083,270.272,114.06Zm10.251-6.672c-.041.265-.088.524-.147.784-.094.312-.194.623-.318.924-.094.212-.2.424-.312.636-.1.159-.206.312-.312.465-.071.088-.141.171-.218.259-.147.095-.3.183-.453.277-.342.177-.684.342-1.043.494s-.73.266-1.1.377a11.756,11.756,0,0,1-1.183.242l-.354.035c-.059-.029-.118-.065-.176-.1-.189-.118-.36-.242-.536-.365-.083-.065-.153-.135-.23-.206-.118-.129-.23-.265-.341-.4-.136-.2-.271-.4-.395-.613-.165-.3-.312-.606-.447-.919a12.248,12.248,0,0,1-.483-1.437c-.083-.353-.148-.706-.206-1.059a13.526,13.526,0,0,1-.1-1.4c0-.277.023-.554.047-.83.041-.277.088-.542.153-.813.07-.23.153-.459.241-.683.118-.253.242-.5.377-.742.136-.218.283-.435.436-.647.112-.136.229-.259.347-.389.053-.048.11-.092.167-.138s.1-.073.145-.1.065-.036.1-.054a1.585,1.585,0,0,1,.159-.046c.089-.024.171-.036.254-.054.147-.012.294-.023.441-.029a5.41,5.41,0,0,1,.613.035c.223.03.441.071.659.118l.371.124c.147.071.3.147.442.223.165.107.324.213.488.33.23.195.454.389.672.595.288.3.565.618.824.948.212.294.412.6.607.913.159.3.312.594.447.9.094.247.183.494.259.747.047.183.083.365.118.554.012.141.024.277.029.418C280.559,106.976,280.541,107.176,280.523,107.388Z"/><path d="M162.476,160.837l.011.011.024.025Z"/><path d="M217.7,45.489l.181.024c.034.005.068.006.1.011Z"/><path d="M246.424,193.942c0-.081,0-.162,0-.243v.243Z"/><path d="M141.63,42.374l.024.041c.025.043.052.086.076.13C141.7,42.486,141.666,42.433,141.63,42.374Z"/><path d="M96.8,37.863c-.019.008-.039.014-.058.021s-.036.013-.054.021C96.719,37.893,96.761,37.876,96.8,37.863Z"/><path d="M19.069,42.987c.053-.015.107-.026.161-.04l.068-.02C19.222,42.945,19.145,42.969,19.069,42.987Z"/><path d="M306.942,54.239c.045-.047.1-.09.143-.137l.01-.01C307.042,54.139,307,54.192,306.942,54.239Z"/><path d="M301.324,79.106c-.018.011-.039.02-.057.031l-.131.075C301.2,79.177,301.265,79.142,301.324,79.106Z"/><path d="M429.293,163.287a10.369,10.369,0,0,0-1.46-.406.176.176,0,0,0-.053-.012c-1.773-.565-3.486-1.313-5.212-2-1.778-.795-3.6-1.49-5.364-2.32-1.1-.524-2.191-1.054-3.3-1.566-1.03-.484-2.037-1.043-3.05-1.555-1.79-.913-3.556-1.873-5.329-2.821-1.666-.894-3.339-1.778-5-2.679s-3.345-1.8-5.023-2.7-3.321-1.9-5.011-2.816c-1.725-1.041-3.48-2.043-5.223-3.055-1.584-.925-3.15-1.879-4.723-2.815-1.319-.783-2.638-1.578-3.957-2.367-1.124-.672-2.255-1.343-3.38-2.02-.559-.335-1.118-.7-1.69-1.019-1.313-.789-2.638-1.56-3.951-2.343-1.189-.718-2.367-1.466-3.586-2.132-1.295-.8-2.614-1.572-3.921-2.355-1.219-.736-2.426-1.519-3.669-2.209-2.084-1.289-4.151-2.6-6.23-3.9l-.565-.354c-.218-.188-.436-.377-.66-.565-1.224-1.048-2.461-2.061-3.7-3.086-2.084-1.725-4.151-3.456-6.318-5.075-2.3-1.72-4.652-3.357-7.095-4.847a42.65,42.65,0,0,0-7.32-3.7,17.71,17.71,0,0,0-7.825-1.437,11.594,11.594,0,0,0-1.684.288,16.435,16.435,0,0,0-4.864-.106,10.145,10.145,0,0,0-3.557,1.172,9.094,9.094,0,0,0-2.6,2.273c-.706.871-1.4,1.755-2.108,2.626-.235.292-.482.578-.721.868-.788-2.321-1.645-4.621-2.624-6.868-.594-1.366-1.218-2.727-1.872-4.069-.442-.9-.866-1.819-1.36-2.691a1.46,1.46,0,0,1,.076.13c-.479-.872-.967-1.737-1.448-2.608l.052-.054c.547-.577,1.1-1.148,1.648-1.719,1.078-1.125,2.179-2.221,3.274-3.333.63-.6,1.266-1.19,1.9-1.784.525-.5,1.031-1.025,1.584-1.484.854-.713,1.7-1.437,2.55-2.155.512-.436,1.013-.908,1.549-1.319,1.537-1.149,3.073-2.285,4.6-3.44.931-.635,1.879-1.242,2.821-1.86,1.248-.83,2.5-1.637,3.81-2.391l.194-.106-.159.088c1.331-.742,2.7-1.424,4.1-2.031.482.024.971.059,1.454.112a24.045,24.045,0,0,1,2.561.506,33.575,33.575,0,0,1,3.192,1.084,42.019,42.019,0,0,1,4.641,2.32l-.019-.012.046.027,0,0,.011.007a65.228,65.228,0,0,1,6.843,4.63c1.063.828,2.115,1.667,3.144,2.541q1.379,1.184,2.756,2.379c1.113.959,2.2,1.931,3.286,2.92q3.356,3.065,6.707,6.13l-.018.035a1.86,1.86,0,0,0,.5,2.544q2.244,1.626,4.434,3.315l-.206-.153c.513.406,1.043.8,1.561,1.2-.065-.053-.136-.107-.2-.159.406.311.806.63,1.218.942l.048.035,0,0-.04-.032.159.123c1.136.9,2.272,1.786,3.419,2.67,2.638,2.053,5.224,4.175,7.805,6.316,1.242,1.031,2.508,2.037,3.721,3.1,1.042.913,2.085,1.832,3.127,2.744.3.313.6.624.907.937,2.337,2.414,4.6,4.887,6.972,7.266l-.2-.2q1.387,1.422,2.8,2.826c.418.418.854.824,1.29,1.225.271.253.553.5.836.736a4.141,4.141,0,0,0,.866.624,2.767,2.767,0,0,0,1.224.288,3.647,3.647,0,0,0,.7-.076,2.15,2.15,0,0,0,1.6-1.407,2.079,2.079,0,0,0-.242-1.831c-.412-.554-.8-1.137-1.254-1.655-.412-.46-.83-.907-1.272-1.343-.383-.382-.765-.765-1.16-1.142a1.665,1.665,0,0,0-.147-.218c-.748-.96-1.49-1.926-2.238-2.88q-3.462-4.441-7.089-8.75a3.231,3.231,0,0,0-.112-.718,3.367,3.367,0,0,0-1.054-1.378c-1.042-1.119-2.008-2.308-3.015-3.451-.565-.635-1.125-1.265-1.684-1.9-.889-1.105-1.784-2.211-2.644-3.334l.006.008a.333.333,0,0,0-.036-.048c-.035-.041-.064-.082-.094-.123l.071.088c-1.26-1.707-2.538-3.409-3.8-5.111-1.1-1.472-2.079-3.027-3.1-4.546-.889-1.313-1.761-2.62-2.6-3.957-1.072-1.684-2.126-3.374-3.209-5.052q-1.846-2.853-3.7-5.7c-.9-1.378-1.855-2.721-2.8-4.075-.954-1.372-1.9-2.756-2.891-4.1-1.195-1.632-2.355-3.28-3.569-4.887-1.23-1.667-2.455-3.345-3.709-5.006-.954-1.331-1.932-2.656-2.927-3.957l.036.053c-.03-.035-.054-.071-.083-.106a.243.243,0,0,0-.03-.044l.007.009a.732.732,0,0,1-.048-.065c-.011-.012-.017-.023-.029-.035-.707-.948-1.425-1.891-2.138-2.833.019.027.038.053.057.077-.069-.087-.131-.178-.2-.265a35.138,35.138,0,0,0-3.986-4.534,14.2,14.2,0,0,0-5.323-3.416,13.9,13.9,0,0,0-4.77-.594,11.524,11.524,0,0,0-2.785-1.69,5.235,5.235,0,0,0-3.062-.288A5.976,5.976,0,0,0,318.9,42.05a13.42,13.42,0,0,0-2.337,1.7,38.6,38.6,0,0,0-4.741,5.294l0-.008c-.02.024-.043.053-.064.081-.592.766-1.179,1.533-1.771,2.3-.483.447-.966.9-1.443,1.343s-.992.878-1.458,1.346c-1.569,1.545-3.12,3.109-4.672,4.671l.148-.147c-.53.524-1.025,1.083-1.531,1.631q-1.326,1.431-2.656,2.862c-1.26,1.355-2.438,2.785-3.639,4.187-1.225,1.419-2.4,2.873-3.574,4.328-1.013,1.236-2.014,2.484-2.986,3.751-.047.064-.1.129-.153.194-.076.1-.153.206-.229.306.029-.047.064-.088.094-.129-.354.447-.7.906-1.048,1.354-.171.229-.342.454-.513.677l0,0c-.182.235-.362.473-.537.715-.669-1.046-1.349-2.084-2.055-3.11a62.947,62.947,0,0,0-9.521-11.264,43.8,43.8,0,0,0-5.859-4.487c-.049-.031-.1-.057-.15-.087q2.517-4.4,5.023-8.793c.4-.63.742-1.307,1.1-1.96q1.2-2.121,2.391-4.24c.789-1.39,1.584-2.78,2.373-4.169,1-1.255,2.008-2.509,2.974-3.787-.047.065-.094.13-.147.2.818-1,1.607-2.02,2.414-3.021.707-.883,1.437-1.76,2.126-2.662,1.788-2.153,3.6-4.264,5.588-6.236h0l.006-.005a37.615,37.615,0,0,1,3.1-2.686,31.515,31.515,0,0,1,3.112-2.05,32.86,32.86,0,0,1,3.124-1.5,31.551,31.551,0,0,1,3.217-1.066.3.3,0,0,1-.043.009,40.936,40.936,0,0,1,4.74-.936h.017c.037-.007.076-.013.115-.018h-.009l.026,0c.017,0,.034-.006.051-.009a.23.23,0,0,1-.028.006,51.994,51.994,0,0,1,5.834-.371,46.024,46.024,0,0,1,4.744.274,38.037,38.037,0,0,1,4.418.857c2.179.6,4.27,1.419,6.389,2.19,1,.442,2.02.866,3.027,1.295.777.331,1.537.707,2.3,1.078s1.514.718,2.25,1.119q1.368.734,2.726,1.484,1.467.865,2.909,1.784c.424.447.848.895,1.266,1.343.936,1,1.814,2.055,2.7,3.1.86,1,1.725,2,2.532,3.039.989,1.271,2,2.538,2.974,3.821.659.924,1.319,1.855,1.978,2.78.442.623.883,1.242,1.325,1.866.171.235.353.465.506.712.677,1.066,1.366,2.132,2.05,3.2.535.842,1.124,1.667,1.625,2.526,1.166,2.073,2.32,4.151,3.5,6.213l-.141-.248c.624,1.284,1.254,2.573,1.884,3.857.33.671.66,1.349.99,2.026.182.365.347.736.512,1.106l.459,1.8c.354,1.348.589,2.732.866,4.1.524,2.52.924,5.081,1.26,7.625q.3,2.351.583,4.7c.076.671.141,1.343.206,2.008.041.424.088.848.118,1.272a10.6,10.6,0,0,0,.182,1.5,4.317,4.317,0,0,0,.583,1.26,2.213,2.213,0,0,0,1.879,1.007,1.944,1.944,0,0,0,.418-.042,2.286,2.286,0,0,0,1.69-1.483,6.611,6.611,0,0,0,.394-1.195,10.546,10.546,0,0,0,.165-1.49c.03-.919.03-1.85-.012-2.774a56.1,56.1,0,0,0-3.709-17.5c-.46-1.178-.931-2.361-1.472-3.5-.083-.3-.162-.6-.244-.9-.21-.774-.5-1.536-.752-2.3q-.511-1.545-1.03-3.08c-.265-.8-.6-1.578-.913-2.361-.453-1.125-.93-2.244-1.442-3.345a67.855,67.855,0,0,0-3.439-6.459,53.567,53.567,0,0,0-4.546-6.4,5.293,5.293,0,0,0,.742.718,3.257,3.257,0,0,0,2.632.913,2.453,2.453,0,0,0,1.914-2.267,4.871,4.871,0,0,0-1.113-2.991A18,18,0,0,0,360.6,27.7q-1.4-1.281-2.909-2.426c-.088-.064-.177-.135-.265-.2-.212-.365-.418-.736-.63-1.1v.005c-.86-1.548-1.619-3.15-2.491-4.686.018.023.03.052.047.076a11.866,11.866,0,0,0-.907-1.484,6.307,6.307,0,0,0-1.354-1.3,9.093,9.093,0,0,0-3.6-1.489c-1.36-.259-2.738-.448-4.11-.636-2.349-.324-4.7-.718-7.06-.995l.147.017-.2-.029h0l-.5-.071c-.765-.571-1.554-1.119-2.379-1.631a25.251,25.251,0,0,0-3.668-1.914,28.646,28.646,0,0,0-7.149-1.872c-1.077-.483-2.161-.966-3.25-1.437A25.739,25.739,0,0,0,315.149,4.7a14.943,14.943,0,0,0-7.419.383,23.066,23.066,0,0,0-6.525,3.509l-.282-.017a12.894,12.894,0,0,0-3.051.176,4.009,4.009,0,0,0-1.525.677c-.17.118-.341.236-.518.354a15.473,15.473,0,0,0-2.95,2.555,25.931,25.931,0,0,0-2.367,3.433q-1.245,1.988-2.473,3.993c-.295.488-.595.971-.895,1.454-.519.524-.984,1.119-1.467,1.667-1.207,1.383-2.467,2.726-3.609,4.162-1.431,1.8-2.856,3.592-4.293,5.376-.406.507-.783,1.031-1.166,1.549-.812,1.089-1.625,2.185-2.443,3.274-2.15,2.88-4.222,5.818-6.307,8.75q-1.792,2.526-3.574,5.059c-.507.706-1.007,1.425-1.508,2.137-.306.43-.6.86-.912,1.284s-.605.835-.885,1.268a87.661,87.661,0,0,0-15.171-5.061c-3.551-.853-7.149-1.554-10.77-2.072-.106-.023-.212-.053-.318-.083-2.367-.618-4.775-1.042-7.166-1.554-.872-.188-1.761-.294-2.638-.442-.966-.159-1.932-.341-2.9-.459l.282.036c-.129-.024-.259-.036-.382-.054l.276.036c-1.435-.193-2.876-.394-4.317-.577-.615-.084-1.24-.121-1.86-.177l-2.608-.229c-.889-.083-1.808-.089-2.7-.095-.983-.006-1.972,0-2.956.041a47.708,47.708,0,0,0-6.33.689,44.53,44.53,0,0,0-12.23,4.1,60.356,60.356,0,0,0-5.512,3.186c-1.472.96-2.95,1.95-4.322,3.044q-1.431,1.14-2.862,2.291c-.583.471-1.2.913-1.749,1.419l-.429.395c-1.215.775-2.393,1.606-3.553,2.463a1.276,1.276,0,0,0-.126-.217c-.181-.213-.368-.42-.561-.625,1.935-1.737,3.929-3.408,6-4.978a82.883,82.883,0,0,1,8.57-5.654,68.815,68.815,0,0,1,7.774-3.767,54.49,54.49,0,0,1,6.472-2.155h0a46.387,46.387,0,0,1,5.553-1.1c3.644-.468,7.316-.543,10.977-.8a1.222,1.222,0,0,0-.165-2.438c-1.661.112-3.327.188-4.988.3-1.937.117-3.857.229-5.782.476a49.62,49.62,0,0,0-6.089,1.166,67.26,67.26,0,0,0-22.623,11.118,97.592,97.592,0,0,0-8.905,7.394c-.253.091-.5.191-.738.3-.44.2-.867.431-1.286.672l-.182-.393a3.767,3.767,0,0,0,.588-1.248,10.5,10.5,0,0,0,.235-3.662,28.216,28.216,0,0,0-.618-3.781,68.381,68.381,0,0,0-3.627-10.823Q160,39.507,158.76,36.592c-.259-.607-.565-1.2-.848-1.79-.542-1.137-1.084-2.279-1.625-3.416-.678-1.425-1.4-2.826-2.114-4.233-1.578-3.086-3.2-6.148-4.976-9.121-.559-.943-1.125-1.891-1.69-2.833-.406-.683-.877-1.331-1.313-2-.995-1.507-2.032-2.985-3.091-4.452-.53-.73-1.078-1.449-1.62-2.167-.512-.683-1.024-1.372-1.566-2.031-.848-1.025-1.661-2.067-2.591-3.021a4.827,4.827,0,0,0-2.768-1.5,5.448,5.448,0,0,0-2.909.512,21.57,21.57,0,0,0-4.392,3.115c-.848.718-1.69,1.437-2.538,2.149-.583.489-1.172.965-1.755,1.449-.717.6-1.423,1.216-2.163,1.787l.006,0-1.366,1.021.008-.008c-.242.183-.489.365-.73.554l.012-.012-.56.424.071-.056c-.176.133-.355.264-.53.392.011-.006.023-.018.035-.023-.047.034-.088.07-.136.105a.522.522,0,0,0-.064.047l.006-.006-.271.2c-.136.1-.271.206-.407.306.006,0,.006-.006.012-.006-.229.172-.458.344-.682.515l.019-.016.027-.022-.021.015,0,0-.013.01c-.257.185-.533.35-.794.526q-.972.634-1.943,1.277c-.948.619-1.914,1.225-2.85,1.879-.984.536-1.944,1.136-2.921,1.7-.418.248-.842.489-1.266.737l-1.678.53c-3.327,1.066-6.666,2.09-9.993,3.156-1.725.548-3.433,1.119-5.146,1.707-.672.23-1.349.442-2.008.7L84.477,25.9c-3.244,1.266-6.412,2.756-9.557,4.258-.129.058-.259.123-.388.182-.613.183-1.225.359-1.843.536-1.231.288-2.468.577-3.7.872-1.131.27-2.273.471-3.4.706s-2.267.448-3.4.659c-1.019.2-2.05.3-3.074.46-1.054.123-2.1.247-3.15.388-1.443.165-2.874.425-4.3.7-1.466.283-2.921.624-4.369,1.007.082-.023.159-.041.235-.065-.277.077-.559.147-.836.224l0,0-.228.061h0c-.141.035-.282.07-.43.112l-.32.085-.139.033c.012,0,.024-.006.036-.006-.171.047-.342.088-.513.135.077-.018.153-.041.23-.059-3.315.866-6.6,1.867-9.857,2.933q-4.027,1.315-8.085,2.5l-.848.106h.012l-.142.018a.448.448,0,0,0-.081.01l.005,0c-1.078.141-2.155.265-3.233.424-.5.071-.983.141-1.472.23-.811.143-1.607.325-2.406.537a3.368,3.368,0,0,0-1.433.669,2.273,2.273,0,0,0-.666,1.1,1.929,1.929,0,0,0,1.69,2.508,11.458,11.458,0,0,0,1.425-.017,2.062,2.062,0,0,0-.17.494,1.96,1.96,0,0,0,.612,1.814,3.078,3.078,0,0,0,1.054.7,5.731,5.731,0,0,0,1.254.3,16.963,16.963,0,0,0,2.32.053c1.926.017,3.845.112,5.771.094,2.031-.017,4.063-.023,6.094-.123h-.235c.824,0,1.649-.089,2.473-.142.583-.035,1.16-.082,1.743-.135,1.519-.135,3.033-.289,4.546-.477,3.6-.448,7.172-1.1,10.723-1.825q2.438-.5,4.858-1.067c1.79-.417,3.592-.818,5.37-1.3-.077.024-.147.042-.218.059,1.337-.33,2.685-.636,4.01-1.007-.071.024-.141.042-.212.059,1.337-.318,2.685-.63,4.01-1-.041.012-.088.03-.135.041,2.738-.63,5.464-1.336,8.19-2,1.225-.3,2.456-.595,3.681-.889,1.378-.33,2.779-.63,4.151-1.007h0c1.191-.3,2.377-.617,3.563-.936.482-.13.953-.307,1.43-.465.529-.182,1.079-.349,1.609-.557.024-.009.047-.02.07-.027l.088-.034c-.029.011-.053.023-.083.034,1.261-.471,2.515-.982,3.757-1.507.607-.253,1.213-.5,1.814-.771.657-.3,1.343-.575,1.971-.932l-.022.013c.966-.53,1.937-1.06,2.9-1.607.6-.318,1.19-.66,1.778-1.007.766-.283,1.52-.583,2.273-.884,1.514-.6,3.027-1.2,4.534-1.825l-.123.053c1.819-.73,3.6-1.537,5.394-2.32.353-.136.706-.265,1.071-.371.212-.047.418-.088.63-.123.095-.008.187,0,.28,0,.2.007.4.022.592.039.212.035.418.076.624.129.218.071.43.142.642.224.359.161.7.34,1.045.531.394.235.774.484,1.145.753a23.81,23.81,0,0,1,2.258,2,47.362,47.362,0,0,1,3.48,4.1l-.02-.02c.654.871,1.26,1.784,1.878,2.679.477.677.919,1.378,1.361,2.078,1.036,1.632,2.037,3.274,3.014,4.941-.011-.03-.029-.053-.041-.082.589,1.053,1.184,2.095,1.785,3.144-.03-.059-.065-.118-.095-.171.071.124.142.253.218.377.972,1.684,1.961,3.35,2.992,5,.859,1.366,1.79,2.7,2.732,4,1.042,1.437,2.09,2.862,3.073,4.34.436.665.848,1.342,1.261,2.02.235.389.459.783.718,1.154a8.506,8.506,0,0,0,1.79,1.919c-.012-.005-.024-.017-.035-.023.3.235.577.483.848.742a35.439,35.439,0,0,1,2.314,2.833c-.443.463-.9.917-1.329,1.4-.959,1.072-1.943,2.126-2.844,3.245-.677.842-1.384,1.666-2.025,2.532q-1.344,1.811-2.53,3.718c-.553-.184-1.106-.365-1.656-.553-.971-.53-1.943-1.055-2.938-1.538-1.09-.535-2.173-1.095-3.286-1.584-1.237-.535-2.455-1.124-3.7-1.619l-.118-.053c.006.006.018.006.024.012l-.124-.053a.281.281,0,0,0-.031-.01l0,0c-.352-.146-.715-.293-1.067-.433l.005,0a.211.211,0,0,1-.046-.021c-.031-.011-.062-.025-.092-.037h0c-.141-.059-.288-.117-.435-.176h.006a.776.776,0,0,0-.086-.035l.009,0-.023-.009-.006,0h0l-.044-.019h0c-.2-.081-.408-.167-.61-.247h0l-.04-.018v0a.061.061,0,0,1-.018-.008c-.488-.2-.976-.4-1.465-.6l.01,0-.082-.035.088.035c-.047-.018-.094-.041-.141-.058-.006,0-.012-.006-.018-.006a.021.021,0,0,1,.012.006c-.653-.265-1.313-.495-1.967-.748-.694-.26-1.378-.536-2.078-.784a53.151,53.151,0,0,0-6.389-1.908,29.915,29.915,0,0,0-5.606-.677,44.614,44.614,0,0,0-7.1-.182c-.836.047-1.666.112-2.5.182-1.007.083-2.026.177-3.027.33a8.778,8.778,0,0,0-1.849.453c-.288.113-.577.236-.859.365-.377.171-.754.342-1.119.537a23.621,23.621,0,0,0-2.261,1.3,13.453,13.453,0,0,0-2.344,1.979c-1.183,1.248-2.326,2.538-3.445,3.844-.871,1.013-1.737,2.044-2.561,3.092-.683.5-1.36,1-2.032,1.513-.17.136-.341.277-.518.413-2.673,2.149-5.37,4.274-8.026,6.447-2.7,2.209-5.394,4.411-8.079,6.631-2.761,2.279-5.511,4.569-8.273,6.842-2.785,2.285-5.529,4.622-8.338,6.883-2.768,2.233-5.506,4.517-8.3,6.72q-2.242,1.775-4.493,3.544-1.386,1.079-2.761,2.167c-.371.294-.766.583-1.131.889-2.744,2.049-5.452,4.158-8.167,6.242-1.266.919-2.5,1.861-3.757,2.779-1.2.884-2.4,1.755-3.58,2.656.016-.016.037-.032.054-.048-.052.038-.106.073-.154.113q-2.826,2.031-5.671,4.033c-.789.377-1.572.766-2.355,1.16-.866.442-1.719.9-2.579,1.355-.318.165-.648.323-.96.5a25.147,25.147,0,0,0-2.726,1.578,7.556,7.556,0,0,0-1.873,1.8c-.282.124-.565.254-.842.389-.489.236-.977.488-1.466.736a9.646,9.646,0,0,0-1.272.7,4.248,4.248,0,0,0-.978.884,6.147,6.147,0,0,0-.547.995,1.517,1.517,0,0,0,1.072,2.144,6.763,6.763,0,0,0,.9.088,2.041,2.041,0,0,0,.418-.035,3.93,3.93,0,0,0,1.066-.4,25.809,25.809,0,0,0,2.549-1.6c.153-.106.306-.206.459-.312a4.441,4.441,0,0,0,1.119.2,16.5,16.5,0,0,0,2.026.006,19.251,19.251,0,0,0,2.662-.365c.783-.147,1.566-.324,2.337-.541a46.684,46.684,0,0,0,4.846-1.579c.848-.347,1.72-.659,2.544-1.054.972-.477,1.949-.942,2.921-1.419.642-.312,1.254-.7,1.872-1.054.813-.465,1.631-.93,2.438-1.4-.014.009-.028.019-.042.027.284-.16.547-.346.819-.528.56-.371,1.125-.742,1.69-1.113.737-.483,1.49-.948,2.208-1.46q1.44-1.034,2.886-2.067c.76-.542,1.554-1.06,2.29-1.643,1.249-.918,2.485-1.86,3.734-2.785,5.376-4,27.087-22.441,27.534-22.8q1.475-1.184,2.956-2.367c.5-.4.988-.808,1.492-1.2,1.808-1.319,3.738-2.464,5.545-3.784.259-.182.559-.33.83-.488l1.99-1.167c.895-.523,1.784-1.054,2.68-1.577,1.366-.684,2.7-1.4,4.051-2.109,2.067-1.083,4.164-2.079,6.324-2.982l.071-.033.048-.015-.019.009a57.529,57.529,0,0,1,5.529-1.919l1.113.071c1.137.07,2.273.164,3.41.27,2.508.219,5,.478,7.507.754,1.92.318,3.834.672,5.742,1.049.806.158,1.607.312,2.414.465.677.129,1.354.253,2.031.377.4.076.8.17,1.19.223,1.678.23,3.338.524,5.023.707,1.854.194,3.709.389,5.576.5,1.553.093,3.112.219,4.671.341-.394,1.054-.8,2.1-1.175,3.165-.63,1.767-1.242,3.539-1.766,5.341-.283.96-.607,1.92-.836,2.9-.259,1.113-.512,2.226-.772,3.339-.194.83-.335,1.672-.488,2.509l0,.007c-.172.01-.345.022-.517.03q-1.758.088-3.516.2c-1.336.095-2.685.148-4.016.289-1.56.165-3.12.306-4.681.489-.653.07-1.307.2-1.955.3-1.095.177-2.19.347-3.286.524-1.572.259-3.126.619-4.663,1.019a49.651,49.651,0,0,0-6.554,2.19,39.11,39.11,0,0,0-11.506,7.391,64.549,64.549,0,0,0-8.88,10.669c-1.254,1.82-2.455,3.674-3.656,5.535-.636.978-1.267,1.961-1.9,2.944-.265.418-.554.831-.807,1.26-.913,1.52-1.849,3.027-2.768,4.535-.806,1.325-1.643,2.638-2.414,3.981.029-.06.065-.118.094-.171-.983,1.63-1.943,3.274-2.915,4.916-.836,1.408-1.684,2.815-2.514,4.234q-1.474,2.492-2.944,4.982c-.925,1.56-1.867,3.115-2.779,4.687q-2.544,4.214-5.082,8.438c-1.7,2.809-3.48,5.564-5.229,8.338-1.773,2.8-3.616,5.565-5.429,8.344q-.99,1.511-1.991,3.015t-1.99,3.02c-.365.554-.742,1.1-1.095,1.656-.972,1.56-1.99,3.091-2.985,4.633-.042.065-.083.13-.124.195-.23.218-.459.436-.683.659a42.5,42.5,0,0,0-4.422,4.853,10.7,10.7,0,0,0-.948,1.471,8.762,8.762,0,0,0-.589,1.29,2.671,2.671,0,0,0,.141,2.32,2.25,2.25,0,0,0,1,.848,1.688,1.688,0,0,0,.342.407,2.582,2.582,0,0,0,1.6.659,1.641,1.641,0,0,0,.624-.118,3.306,3.306,0,0,0,.972-.553,10.165,10.165,0,0,0,.889-.919c.365-.43.766-.831,1.125-1.272.324-.4.642-.8.948-1.213.33-.43.653-.859.972-1.3.936-1.319,1.866-2.644,2.814-3.957,1.019-1.419,2.014-2.862,3.062-4.263-.017.029-.041.052-.059.082,1.52-1.937,2.986-3.91,4.481-5.865.636-.748,1.231-1.537,1.855-2.3.383-.477.766-.948,1.149-1.425.2-.206.388-.431.588-.642.583-.631,1.16-1.26,1.743-1.89q1.969-2.146,3.94-4.287c.512-.56.995-1.125,1.478-1.714q1.82-2.217,3.639-4.44c.63-.765,1.254-1.525,1.878-2.29.236-.283.471-.56.689-.854,1.119-1.531,2.249-3.056,3.374-4.587.666-.9,1.325-1.8,1.985-2.691.276-.377.565-.748.83-1.131.971-1.431,1.925-2.879,2.885-4.316.342-.518.689-1.036,1.036-1.549.129-.173.258-.342.387-.51l-.02.028c-.006.01-.014.02-.019.029.02-.025.038-.05.057-.075h0l.077-.107c.047-.058.094-.118.136-.176q2.367-3.057,4.716-6.13l.065-.082.009-.01,0-.008c.583-.748,1.172-1.49,1.76-2.232.96-1.213,1.9-2.438,2.874-3.633,1.19-1.443,2.367-2.9,3.557-4.346.483-.588,1-1.154,1.49-1.725.618-.713,1.224-1.431,1.848-2.138.472-.536.984-1.048,1.478-1.566.566-.6,1.125-1.207,1.7-1.8a49.605,49.605,0,0,1,4.679-4.062,51.018,51.018,0,0,1,5.114-3.316l.065-.038-.042.026c1.166-.653,2.367-1.254,3.557-1.872.8-.412,1.59-.825,2.4-1.219,2.249-1.113,4.487-2.25,6.718-3.392,2.768-1.413,5.529-2.844,8.327-4.186,1.483-.713,2.967-1.432,4.463-2.115l.016-.007c-.033.891.008,1.789.008,2.672.006.936.1,1.861.171,2.791.035.46.041.937.112,1.39.059.424.124.842.194,1.26.142.93.242,1.879.454,2.8.247,1.1.494,2.191.748,3.286.1.424.247.842.365,1.26.182.624.365,1.254.553,1.884.259.884.571,1.749.866,2.626.571,1.679,1.183,3.357,1.919,4.976l.866,1.908c.141.306.265.63.418.931q.786,1.483,1.56,2.967c.43.824.937,1.608,1.414,2.4s.977,1.578,1.507,2.355c.33.489.671.972.995,1.46.218.33.489.624.73.931.66.836,1.313,1.666,2.014,2.473,1.168,1.351,2.36,2.693,3.635,3.953-.063.039-.13.073-.192.113a16.8,16.8,0,0,0-1.443,1.042c-.053.029-.106.053-.159.077-.789.394-1.584.788-2.355,1.213a32.892,32.892,0,0,0-2.98,1.778,18.241,18.241,0,0,0-4.893,4.917,15.463,15.463,0,0,0-2.4,6.394,33.4,33.4,0,0,0,.136,8.392c.224,1.86.459,3.715.748,5.57.489,3.2,1.125,6.383,1.613,9.586q.9,5.9,1.784,11.8c.212,1.4.418,2.808.642,4.21.4,2.532.948,5.035,1.572,7.519.678,2.732,1.39,5.453,2.191,8.15,2.061,6.936,4.151,13.861,6.13,20.816q3.26,11.464,6.518,22.923c.848,2.992,1.684,5.977,2.544,8.962.5,1.714.978,3.421,1.472,5.135.56,1.931,1.078,3.887,1.784,5.777a1.439,1.439,0,0,0,2.727,0,4.063,4.063,0,0,0,.165-1.567c0-.635.011-1.266.023-1.9.218.96.436,1.926.654,2.886a1.739,1.739,0,0,0,1.79,1.377,1.719,1.719,0,0,0,1.437-1.006q.954,2.517,1.913,5.04c.672,1.761,1.308,3.545,2.073,5.27.259.589.506,1.178.766,1.773a8.553,8.553,0,0,0,.694,1.366,5.527,5.527,0,0,0,.913,1.083,6.2,6.2,0,0,0,1.131.672,1.581,1.581,0,0,0,.753.194,1.872,1.872,0,0,0,1.72-1.231,3.849,3.849,0,0,0,.318-1.224,6.524,6.524,0,0,0-.059-1.019c-.047-.371-.1-.742-.147-1.113-.083-.577-.183-1.154-.283-1.731-.194-1.125-.418-2.25-.642-3.375q-.512-2.6-1.166-5.17c-.441-1.719-1.024-3.4-1.56-5.093-1-3.138-2.026-6.271-2.991-9.416s-1.961-6.3-2.862-9.468q-1.016-3.559-2.032-7.114c-.406-1.419-.783-2.861-1.224-4.28-.124-.666-.289-1.319-.43-1.979-.342-1.584-.689-3.168-1.031-4.752q-1.006-4.6-2-9.2c-.159-.707-.265-1.413-.377-2.132q-.5-3.267-1-6.536c-.571-3.692-1.148-7.384-1.7-11.082-.283-2.232-.631-4.469-.948-6.7q-1.078-7.605-2.15-15.2c-.406-2.85-.771-5.718-1.213-8.573-.394-3.134-.918-6.243-1.342-9.369a57.7,57.7,0,0,1-.542-6.931c.006-.807.023-1.619.1-2.42.035-.194.071-.388.118-.583.011-.047.029-.094.041-.136a25.164,25.164,0,0,1,3.736-4.871c.052-.051.106-.1.156-.157.124-.118.242-.242.365-.359l-.176.177.611-.6c.075-.033.15-.067.226-.1l-.016.008.056-.025.1-.04-.039.015.031-.015c-.028.011-.057.022-.086.036l.151-.064,0,0h0c.231-.1.464-.184.7-.277a38.721,38.721,0,0,0,4.246,2.205c.989.424,2,.8,3,1.184-.083-.036-.171-.065-.254-.1l.831.318c-.083-.03-.165-.065-.253-.094l.608.23-.073-.025c1.955.743,3.928,1.467,5.918,2.12,1.749.572,3.486,1.19,5.259,1.708,1,.295,2.025.495,3.05.7.848.166,1.7.319,2.549.442a69.706,69.706,0,0,0,11.1.648h.014l.241,0-.069,0,.147,0h.019l.162-.006-.115,0,.222,0h-.09l.256,0h.024c.234,0,.466-.012.7-.018h-.114l.22,0,.074,0h-.034q.486-.009.974-.023c-.014.792-.021,1.585,0,2.38a5.288,5.288,0,0,0,.336,2.32,2.9,2.9,0,0,0,.725,1.013,3.354,3.354,0,0,0,.659.447.687.687,0,0,1,.082.047,2.23,2.23,0,0,0,1.9.26l.094-.036c.035.153.07.3.106.453a9.753,9.753,0,0,0,.871,2.421,3.409,3.409,0,0,0,2.921,1.713,2.748,2.748,0,0,0,1.919-.754,8.643,8.643,0,0,0,1.95-2.773,31.867,31.867,0,0,0,1.16-3.245c.345-1.117.638-2.251.916-3.389,1.229.152,2.458.316,3.7.36.254.01.51.018.766.018a8.279,8.279,0,0,0,1.1-.065,3.247,3.247,0,0,0,1.913-.771c.042-.039.069-.091.108-.132,1.489.1,2.981.152,4.472.152h.076c3.392,0,6.76-.218,10.14-.442,2.988-.2,5.978-.428,8.969-.654,0,.065,0,.13,0,.195,0,2.534-.021,5.073-.012,7.606,0,.437,0,.873.029,1.309a3.585,3.585,0,0,0,.265,1.384,2.746,2.746,0,0,0,2.073,1.555,2.154,2.154,0,0,0,.324.029l.035.247a3.291,3.291,0,0,0,.465,1.178,2.537,2.537,0,0,0,1.92,1.142,1.454,1.454,0,0,0,.147-.011,2.847,2.847,0,0,0,1.349-.448,11.485,11.485,0,0,0,1.112-.883,18.125,18.125,0,0,0,2.332-2.609,34.407,34.407,0,0,0,2.32-3.5,30.8,30.8,0,0,0,1.7-3.292,33.03,33.03,0,0,0,2-6.366,53.024,53.024,0,0,0,14.619-7.748c.365-.271.724-.542,1.078-.819a17.6,17.6,0,0,0,2.272-1.13c.607-.365,1.2-.754,1.779-1.16.047-.023.088-.041.129-.059l1.7-.76c.972-.435,1.955-.848,2.885-1.365a35.167,35.167,0,0,0,3.545-2.238c.654-.477,1.3-.966,1.949-1.46a26.013,26.013,0,0,0,3.981-3.422,29.272,29.272,0,0,0,2.334-3.057,82.6,82.6,0,0,0,7.545,6.278q2.056,1.563,4.1,3.127c1.684,1.272,3.344,2.579,5.046,3.828,1.59,1.271,3.18,2.555,4.705,3.9,1.467,1.3,2.888,2.654,4.261,4.044a98.791,98.791,0,0,1,6.774,7.781c1.148,1.46,2.308,2.909,3.445,4.386l-.083-.1q2.005,2.66,4.022,5.306c-.047-.065-.094-.124-.135-.188.053.076.106.146.158.217l.059.077.006.006c-.008-.011-.015-.023-.023-.036,1.3,1.794,2.673,3.548,4.011,5.313h0l.01.013.008.01h0c.565.758,1.125,1.522,1.679,2.28.877,1.466,1.76,2.932,2.614,4.41,1.054,1.914,2.067,3.852,3.1,5.771.925,1.714,1.767,3.468,2.638,5.212,1.7,3.373,3.333,6.783,4.976,10.181.83,1.719,1.619,3.462,2.42,5.2.7,1.519,1.325,3.074,1.973,4.6.459,1.195.913,2.379,1.366,3.568.589,1.537,1.119,3.1,1.655,4.658.683,1.99,1.377,3.969,2.1,5.941,1.242,3.38,2.738,6.66,4.116,9.981l-.008-.013.02.048.025.059,0,0,0,.006c.014.033.027.066.038.1-.007-.02-.015-.041-.024-.061l.057.149-.033-.076c.01.027.022.052.034.077l.013.035-.012-.034c.008.02.017.038.024.058s.017.046.026.069c.039.091.075.182.116.272,0-.008-.012-.02-.018-.032.027.065.055.131.076.191a.178.178,0,0,0,.013.03h0c.036.089.077.171.112.26.053.147.112.288.171.43a.3.3,0,0,1,.023.058q.645,1.653,1.272,3.292c.183.471.365.93.548,1.4a3.265,3.265,0,0,0,2.179,2.073,2.5,2.5,0,0,0,.571.07,2.815,2.815,0,0,0,2.2-1.236,6.443,6.443,0,0,0,1.125-2.88,19.63,19.63,0,0,0,.224-3.98,32.482,32.482,0,0,0-.236-3.363c-.141-1.107-.289-2.214-.43-3.327-.1-.736-.176-1.472-.318-2.2q-.353-1.846-.712-3.7c-.324-1.684-.748-3.345-1.237-4.988-.059-.212-.124-.418-.188-.629.064.135.135.276.212.406a3.154,3.154,0,0,0,1.077,1.136,1.665,1.665,0,0,0,2.562-1.7c-.265-1.137-.507-2.273-.842-3.386-.348-1.154-.73-2.3-1.137-3.433-.282-.807-.6-1.6-.918-2.391-.7-1.745-1.4-3.49-2.109-5.241h0a1.166,1.166,0,0,1-.047-.124c-.011-.023-.023-.046-.035-.076.006.012.006.018.012.024-.171-.389-.365-.772-.554-1.161-.447-.948-.9-1.89-1.348-2.838-.436-.912-.877-1.825-1.307-2.744-.153-.318-.295-.642-.454-.948-.789-1.484-1.584-2.956-2.373-4.434-.671-1.254-1.307-2.526-2.014-3.757-1.442-2.573-2.879-5.146-4.345-7.708-.63-1.159-1.308-2.29-1.967-3.432-.742-1.3-1.472-2.6-2.232-3.893-1.048-1.8-2.12-3.592-3.179-5.388-.86-1.454-1.767-2.873-2.674-4.3-.577-.913-1.154-1.832-1.731-2.744-.347-.553-.736-1.078-1.107-1.614-1.078-1.56-2.126-3.144-3.274-4.652-1.184-1.542-2.332-3.109-3.562-4.622-.931-1.142-1.861-2.284-2.809-3.415-.8-1.307-1.637-2.591-2.491-3.869-1.472-2.22-3.015-4.4-4.646-6.506a46.153,46.153,0,0,0-11.341-10.817,34.031,34.031,0,0,0-6.748-3.4,27.3,27.3,0,0,0-3.84-1.142c-1.036-.218-2.09-.436-3.144-.56l.006.006c-1.5-.208-3.005-.4-4.514-.563a49.066,49.066,0,0,0,1.454-7.9A61.87,61.87,0,0,0,305,123.711c-.164-.925-.347-1.843-.559-2.756-.152-.842-.321-1.681-.5-2.519,2-.414,4-.817,6.027-1.1h-.006a38.434,38.434,0,0,1,4.1-.313,29.56,29.56,0,0,1,2.974.183,28.516,28.516,0,0,1,2.862.559c.712.2,1.419.437,2.114.707.488.218.965.448,1.43.707a25.388,25.388,0,0,1,2.244,1.543c1.313,1.024,2.6,2.078,3.922,3.079q2.19,1.669,4.416,3.292c2.7,1.966,5.423,3.9,8.114,5.864-.065-.046-.129-.1-.194-.152,1.4,1.107,2.844,2.155,4.269,3.226-.006-.011-.018-.017-.029-.029,1.319,1.042,2.691,2.037,4.033,3.044,1.225.907,2.479,1.773,3.722,2.656,1.077.765,2.161,1.5,3.268,2.226.948.618,1.89,1.236,2.838,1.861.389.247.771.518,1.166.754,1.065.647,2.149,1.271,3.221,1.9s2.125,1.277,3.2,1.884a.339.339,0,0,0-.047-.024c.224.118.453.235.677.347,2.02,1.054,4.045,2.109,6.077,3.145.659.335,1.348.624,2.02.936q1.89.875,3.786,1.749c3.2,1.472,6.448,2.868,9.657,4.328,3.851,1.749,7.684,3.533,11.535,5.288,1.72.783,3.451,1.543,5.182,2.3,1.319.578,2.65,1.137,3.963,1.737.342.26.683.525,1.025.783-.036-.029-.077-.058-.112-.088.518.4,1.054.789,1.6,1.154.423.283.842.578,1.289.819a4.491,4.491,0,0,0,1.272.53,1.928,1.928,0,0,0,.306.029,3.388,3.388,0,0,0,.677-.088,1.835,1.835,0,0,0,1.166-2.779,4.961,4.961,0,0,0-.895-1.06,8.545,8.545,0,0,0-1.437-.925q-1.536-.856-3.156-1.56c-.059-.024-.118-.053-.176-.077-.589-.453-1.172-.912-1.767-1.36-.724-.571-1.443-1.154-2.185-1.708-.318-.259-.636-.512-.959-.771,2.826.583,5.67,1.083,8.508,1.6q2.871.512,5.742,1.036c1.619.3,3.244.6,4.852.966a12.4,12.4,0,0,0,2.031.548,2.016,2.016,0,0,0,1.019-3.893ZM355.243,28.3c.148.265.3.536.454.8a37.878,37.878,0,0,0,2.237,3.574c.277.377.548.772.848,1.142a45.138,45.138,0,0,0-5.34-5.37,50.435,50.435,0,0,0-4.305-3.268c-.442-.465-.883-.936-1.325-1.4.9.454,1.8.908,2.685,1.4A46.59,46.59,0,0,1,355.243,28.3ZM344.833,17.8c1.148.171,2.308.335,3.439.606.276.082.547.165.818.271.171.076.336.159.506.242.189.117.377.235.554.365.159.135.306.271.459.412.035.047.071.088.112.135.112.159.212.318.312.483.171.318.342.642.507.96l-.071-.036c-1.661-.853-3.321-1.713-5-2.52-.683-.33-1.366-.653-2.055-.983C344.55,17.76,344.691,17.778,344.833,17.8Zm-13.744-2.008a.179.179,0,0,0,.059.006c.318.153.642.306.96.453-.442-.182-.895-.347-1.355-.507C330.865,15.764,330.977,15.782,331.089,15.794ZM307.971,9.187c.159-.059.324-.118.489-.177a2.077,2.077,0,0,0-.159.572.455.455,0,0,0-.094-.012h.041c-.035-.006-.065-.006-.1-.012-.218-.03-.442-.053-.66-.076l-.135-.019C307.559,9.369,307.759,9.275,307.971,9.187Zm-9.522,6.583c.566-.512,1.2-.972,1.791-1.448.659-.53,1.313-1.054,1.96-1.59.377-.283.754-.56,1.137-.837,1.431.23,2.856.5,4.292.672h.018c.053.006.1.011.147.018l.058.008-.022,0c1,.146,2,.288,3.009.423-.666.065-1.325.136-1.991.224a35.036,35.036,0,0,0-11.329,3.386C297.831,16.341,298.143,16.053,298.449,15.77ZM37.276,132.022c-1.7,1.188-3.378,2.418-5.067,3.625-.671.482-1.384.918-2.072,1.372-.837.542-1.661,1.089-2.491,1.637-1.3.718-2.585,1.466-3.869,2.208-.612.33-1.26.612-1.884.912-.536.26-1.066.536-1.62.76.071-.023.136-.053.2-.076-.2.076-.395.159-.589.235l.047-.017-.607.247c.065-.024.13-.053.2-.076-.106.04-.218.088-.324.129l.041-.018c-.453.183-.895.365-1.348.548-.754.259-1.5.506-2.256.76-.63.206-1.283.365-1.925.541l-.925.212c1.29-.594,2.579-1.2,3.869-1.8,1.078-.5,2.143-1.031,3.209-1.561.954-.471,1.908-.948,2.862-1.419.371-.183.742-.354,1.1-.56l-.088.054c2.014-1.119,4.016-2.232,6.018-3.363-.018.012-.041.023-.059.035.53-.294,1.048-.629,1.566-.948q1.767-1.077,3.539-2.155c1.461-.889,2.915-1.79,4.364-2.691C38.526,131.076,37.89,131.536,37.276,132.022Zm137.948,168.6c.059-.024.112-.047.165-.071.483,1.514.954,3.027,1.39,4.552.188.742.365,1.484.536,2.232-.324-.86-.648-1.714-.978-2.567-.512-1.349-1.03-2.7-1.537-4.046A2.155,2.155,0,0,0,175.224,300.623Zm199.3-41.154a3.455,3.455,0,0,0,.712-.836v-.012a75.013,75.013,0,0,1,.807,7.949q-.088-.22-.176-.441c0,.006,0,.011,0,.017,0-.017-.017-.041-.023-.059-.02-.054-.04-.1-.063-.157l.01.028-.019-.049,0-.01,0,.007-.013-.035c-.009-.02-.017-.039-.026-.061-.018-.058-.041-.111-.065-.17v0c-.04-.1-.08-.195-.119-.293l.006.024c-.064-.159-.129-.313-.194-.477.035.082.071.164.106.247-.059-.153-.124-.306-.188-.453a.191.191,0,0,1,.017.032c-.015-.042-.034-.084-.053-.127l-.024-.061v.009c-.625-1.531-1.284-3.051-1.932-4.57A1.956,1.956,0,0,0,374.522,259.469ZM331.833,112.593c.825.507,1.667.99,2.474,1.52,3.58,2.349,7.172,4.681,10.758,7.03,1.348.884,2.708,1.761,4.075,2.615.53.336,1.059.666,1.59,1,.812.718,1.631,1.437,2.479,2.108,2,1.59,3.974,3.2,5.964,4.8,1.208.966,2.456,1.855,3.716,2.762,1.154.836,2.314,1.667,3.48,2.5.554.4,1.1.824,1.673,1.2,1.848,1.236,3.656,2.526,5.493,3.78q1.882,1.3,3.757,2.614c1.16.813,2.32,1.632,3.474,2.444.624.436,1.255.854,1.861,1.3l-.059-.045.083.062.008.007h0l.022.018.007.006,0,0c.362.281.725.552,1.087.822q-2.57-1.379-5.117-2.785c-.163-.1-.326-.191-.5-.286-.248-.144-.5-.288-.747-.432.082.047.171.1.259.147q-1.66-.972-3.321-1.932l-.486-.279-.067-.041.016.011-.016-.009c-.06-.036-.117-.071-.177-.112-3.368-2.078-6.737-4.145-10.046-6.318-1.707-1.118-3.427-2.219-5.111-3.368-1.708-1.172-3.392-2.373-5.111-3.533-1.531-1.172-3.1-2.308-4.652-3.433-.771-.624-1.549-1.23-2.32-1.849-.659-.536-1.313-1.083-1.99-1.6-.23-.2-.46-.4-.7-.594q-2.358-2.005-4.717-4.022c-.812-.7-1.613-1.414-2.443-2.1-.848-.713-1.72-1.4-2.579-2.1-1.579-1.278-3.222-2.479-4.9-3.621C329.973,111.457,330.9,112.028,331.833,112.593Zm41.991,30.956-.012-.007.008,0ZM355.91,87.821c-1.46-1.29-2.885-2.62-4.334-3.928-1.278-1.154-2.591-2.266-3.9-3.38-.771-.653-1.531-1.313-2.3-1.961-1.79-1.5-3.674-2.908-5.605-4.221a56.662,56.662,0,0,0-6.872-4.1,35.608,35.608,0,0,0-4.31-1.819c.211-.036.429-.071.647-.1.442-.048.883-.077,1.325-.094h.126a15.594,15.594,0,0,1,1.6.089c.419.058.831.129,1.243.224.63.176,1.248.388,1.861.624a42.536,42.536,0,0,1,4.086,2.113c.418.266.842.525,1.26.789s.848.484,1.237.766c.842.612,1.684,1.231,2.544,1.82,1.03.806,2.061,1.625,3.062,2.473.041.035.082.071.129.106q.929,1.325,1.855,2.655c.389.548.836,1.066,1.254,1.59.837,1.042,1.667,2.079,2.5,3.121,1.031,1.29,2.126,2.526,3.209,3.775C356.316,88.18,356.116,88,355.91,87.821ZM343.32,63.107c.719,1.049,1.437,2.1,2.155,3.157,1.225,1.813,2.48,3.621,3.675,5.458.371.566.8,1.1,1.2,1.655.719,1,1.449,2.008,2.173,3.02-.53-.453-1.066-.906-1.6-1.354-.506-.712-1.006-1.431-1.513-2.143-.848-1.2-1.6-2.444-2.373-3.687-.842-1.354-1.713-2.7-2.52-4.074C344.109,64.462,343.715,63.785,343.32,63.107ZM332.545,45.065c.388.171.771.359,1.142.566q.5.307.954.653a24.952,24.952,0,0,1,1.908,1.7v0l.006,0a.348.348,0,0,0,.042.044c-.01-.011-.02-.022-.031-.032l.04.041.031.029-.016-.013a40.713,40.713,0,0,1,3.066,3.57c-.023-.03-.041-.059-.059-.082.053.07.1.135.153.206.036.041.071.088.1.129.07.094.141.188.211.283.037.047.073.1.11.146l-.015-.019c.031.042.063.085.094.132l.018.017c-.006-.006-.006-.006-.006-.011.033.05.067.1.106.146v-.005c.084.119.174.232.26.345v0c.171.224.341.454.512.684.112.147.224.3.336.453-.018-.023-.03-.047-.047-.071.029.042.064.089.094.13.011.011.017.022.027.033.043.059.09.121.132.179l.268.353-.009-.011a.134.134,0,0,1,.029.041l.011.012h0c.024.03.047.06.071.089.006.006.012.017.018.023l-.006-.006.064.083a.092.092,0,0,0,.018.023l-.006,0,.006.011c.966,1.324,1.932,2.661,2.921,3.974,1.195,1.631,2.379,3.28,3.6,4.894,1.224,1.73,2.49,3.426,3.733,5.146,1.042,1.443,2.037,2.92,3.05,4.381,2.114,3.038,4.14,6.142,6.106,9.28.094.153.195.306.289.459-.5-.571-.989-1.148-1.46-1.737-1.32-1.631-2.615-3.274-3.94-4.9-.9-1.254-1.819-2.491-2.72-3.733-.695-.954-1.414-1.885-2.073-2.856-1.619-2.385-3.227-4.776-4.864-7.149q-2.058-2.967-4.122-5.929a73.321,73.321,0,0,0-7.631-9.339,34.239,34.239,0,0,0-2.544-2.361C332.527,45.059,332.539,45.059,332.545,45.065ZM305.087,70.256c1.578-1.925,3.144-3.863,4.716-5.794.949-1.161,1.932-2.291,2.909-3.422.866-1.006,1.732-2.019,2.6-3.026.342-.389.666-.8,1.025-1.166,1.512-1.577,3-3.188,4.548-4.725l0,0c.424-.419.853-.837,1.283-1.249a1.9,1.9,0,0,0,.348-2.432,1.874,1.874,0,0,0-2.15-.742,4.181,4.181,0,0,0-1.136.595c-.147.1-.289.212-.424.324.147-.224.294-.442.442-.665.641-.436,1.3-.861,1.966-1.249a24.527,24.527,0,0,1,2.621-1.284c.579-.22,1.159-.416,1.761-.579.276-.068.555-.133.835-.192a.022.022,0,0,0,.018.006c.277.253.548.512.819.777a36.814,36.814,0,0,1,2.7,3.2c-.017-.024-.035-.054-.053-.077A67.562,67.562,0,0,1,333.84,54.5q3.224,5.406,6.371,10.841c.613,1.065,1.237,2.12,1.879,3.174-.624-.377-1.26-.742-1.9-1.09a26.959,26.959,0,0,0-4.688-2.184,15.789,15.789,0,0,0-7.484-.512,33.248,33.248,0,0,0-7.39,2.3l-.335.141a17.211,17.211,0,0,0-2.314.259,27.106,27.106,0,0,0-7.214,2.52c-2.349,1.166-4.61,2.509-6.883,3.816.047-.023.094-.052.147-.076-.024.012-.047.024-.065.035s-.059.029-.082.047a.131.131,0,0,0-.03.018v0c-1.029.582-2.052,1.182-3.075,1.775C302.219,73.789,303.644,72.022,305.087,70.256ZM295.336,82.2c.883-.417,1.754-.859,2.62-1.313.765-.4,1.525-.806,2.285-1.207.34-.178.694-.349,1.026-.546.791-.453,1.579-.91,2.365-1.362-.612.507-1.219,1.025-1.819,1.531-.677.565-1.39,1.113-2.038,1.714-.777.718-1.542,1.449-2.314,2.173-1.888,1.763-3.688,3.615-5.491,5.459-.024-.042-.047-.084-.07-.126q.449-1.362.986-2.689c.241-.584.495-1.166.76-1.738C294.205,83.47,294.776,82.845,295.336,82.2Zm-7.443-.953a48.3,48.3,0,0,1,2.891-3.946,1.048,1.048,0,0,1,.071-.094,1.1,1.1,0,0,0,.388.029,1.405,1.405,0,0,0,1-.589c.307-.27.636-.506.954-.759.259-.218.518-.436.772-.654-.884,1.408-1.726,2.85-2.5,4.317a9.159,9.159,0,0,0-.854,1.053c-.648.248-1.307.483-1.978.684-.283.064-.571.124-.86.17C287.81,81.391,287.851,81.32,287.893,81.25ZM269.474,64.739a49.541,49.541,0,0,1,4.279,3.789,67.489,67.489,0,0,1,5.225,6.191c-.047-.058-.094-.118-.141-.177,1.9,2.519,3.627,5.147,5.3,7.819a2.921,2.921,0,0,0,.71,1.732,2.094,2.094,0,0,0,.684.5c.767,1.227,1.536,2.453,2.287,3.69-.06.2-.111.412-.168.618-1.243-1.516-2.512-3.011-3.832-4.463-.972-1.06-1.938-2.12-2.909-3.185-.494-.541-.965-1.1-1.486-1.621a.517.517,0,0,1,.049.054l-.118-.117.036.035c-1.773-1.82-3.545-3.651-5.335-5.459a2.141,2.141,0,0,0-.165-.165c-.771-.806-1.584-1.578-2.373-2.373q-1.3-1.29-2.585-2.579c.059.059.124.124.182.189-.759-.778-1.554-1.525-2.337-2.279-.605-.584-1.207-1.172-1.817-1.749.03-.054.053-.111.083-.165.356-.616.727-1.229,1.084-1.85.006-.016.016-.027.022-.043l.018-.026.025-.042c.082-.142.162-.285.245-.427C267.476,63.3,268.494,63.991,269.474,64.739Zm-3.77-8.186q.988-1.122,1.967-2.243c.665-.76,1.319-1.531,1.972-2.3q-1.8,3.141-3.584,6.295c-.422-.237-.841-.479-1.269-.7.035-.039.073-.075.107-.114C265.168,57.172,265.439,56.866,265.7,56.553Zm-8.03,1.62a65.018,65.018,0,0,1,6.644,3.187c-.11.192-.218.384-.328.575a.1.1,0,0,0,.018-.019c-.046.075-.1.169-.135.238-.261.452-.534.9-.8,1.348a73.958,73.958,0,0,0-8.811-6.607C255.407,57.3,256.55,57.725,257.674,58.173ZM242.853,55.7a64.456,64.456,0,0,1,7.4,3.611c-.023-.014-.046-.029-.069-.042a71.446,71.446,0,0,1,7.579,5.087c-.012-.011-.024-.017-.036-.029a68.269,68.269,0,0,1,5.17,4.463c1.1,1.049,2.185,2.1,3.286,3.145,1.7,1.624,3.353,3.3,5.017,4.964l.008.01-.008,0c.194.194.383.383.571.577-.059-.065-.124-.124-.182-.188.282.288.565.571.848.859l-.089-.088c.195.2.395.4.589.6l-.03-.033.059.057a.215.215,0,0,0,.036.041l-.036-.035c.095.094.183.188.277.282a.055.055,0,0,1-.017-.023c.035.036.07.076.106.112l-.024-.024c.118.118.23.23.342.348-.03-.03-.059-.065-.089-.094.271.276.542.553.819.83a.159.159,0,0,0-.036-.03l.1.1c.095.089.183.183.277.277a.179.179,0,0,1-.035-.029c.141.141.283.288.424.43-.059-.065-.124-.124-.183-.189.418.424.831.848,1.249,1.272-.018-.023-.042-.041-.059-.065.053.054.1.106.153.159l.024.025c.045.045.09.089.135.135.029.034.065.07.1.105l.041.041a.216.216,0,0,1,.035.042c1.431,1.513,2.821,3.067,4.223,4.611.512.559,1.042,1.1,1.53,1.672,1.615,1.886,3.193,3.8,4.7,5.781a2.357,2.357,0,0,0,.65.876,94.7,94.7,0,0,1,6.08,9.3,76.1,76.1,0,0,1,3.723,7.621c-.355.35-.71.7-1.067,1.052l.041-.038-.029.032-.012.012-.094.094.04-.042c-.427.4-.849.809-1.277,1.208-.134.13-.265.26-.4.387a69.723,69.723,0,0,0-6.154-15.95,72.736,72.736,0,0,0-9.775-13.644c-1.89-2.09-3.869-4.115-5.959-6.006-2.031-1.831-4.175-3.527-6.354-5.181-1.631-1.237-3.268-2.456-4.905-3.681-1.413-1.131-2.832-2.255-4.269-3.356-.394-.312-.771-.648-1.16-.966q-2.526-2.11-5.064-4.21c-.653-.536-1.319-1.036-2-1.537-.6-.436-1.2-.878-1.808-1.313-.253-.188-.5-.4-.771-.565-1.666-1.013-3.292-2.091-4.993-3.045-.589-.323-1.172-.654-1.761-.983C240.786,54.887,241.823,55.282,242.853,55.7Zm12.336,15.7.014.011a.14.14,0,0,1-.02-.016Zm-86.907-7.935c.027,0,.053-.007.08-.009.179.2.343.408.511.612,0,0,.012.007.016.012q-1.209.968-2.37,1.993c-.093-.216-.185-.431-.278-.646.179-.18.353-.365.533-.544a1.112,1.112,0,0,1-.088.082c.517-.505,1.045-1,1.571-1.494ZM156.54,76.7q.743-1.024,1.514-2.026a.509.509,0,0,0-.036.059c.825-1.062,1.679-2.1,2.547-3.128a2.687,2.687,0,0,0,.65-.341Q158.773,73.889,156.54,76.7Zm3.781,87.372c.3.212.6.418.9.63q.414.318.848.619l.164.11c-.2.153-.4.3-.583.467-.227.1-.451.216-.678.32-.2-.172-.42-.328-.617-.509-1.111-1.078-2.141-2.242-3.148-3.424-.473-.558-.939-1.124-1.408-1.687q1.3,1.015,2.6,2.031C159.031,163.122,159.661,163.611,160.321,164.07Zm8.874,6.054q.5.33,1,.665c-.1,0-.2,0-.294,0-.488-.192-.971-.4-1.462-.586.076.03.159.06.235.089-.182-.071-.359-.136-.541-.207.076.03.159.06.235.089l-.31-.119a1.922,1.922,0,0,0-1.358-1c.088-.13.17-.254.253-.383l.011-.018Q168.083,169.39,169.2,170.124ZM210.28,180.81c-.253,0-.507,0-.756,0l-.756-.166c.009-.095.017-.189.026-.284.381.031.762.07,1.143.1.145.009.29.023.435.032C210.342,180.593,210.31,180.7,210.28,180.81ZM146.956,88.266c.63-1.37,1.248-2.745,1.93-4.084a1.929,1.929,0,0,0,.226-.089c-.249.489-.5.979-.739,1.473-1.038,2.116-1.984,4.268-2.879,6.447L145.455,92c.236-.6.482-1.189.718-1.786C146.432,89.561,146.661,88.9,146.956,88.266Zm4.9,2.028.008-.013.016-.028v0a.4.4,0,0,1,.036-.055c.02-.04.04-.075.06-.11l-.01.018q.543-.927,1.1-1.84c-.406.8-.8,1.6-1.177,2.421q-.35.763-.694,1.533a1.711,1.711,0,0,0-.533.229c.39-.723.784-1.444,1.192-2.157ZM143.7,22.624c.164.183.329.365.488.56.236.324.454.665.666,1.012a60.985,60.985,0,0,1,2.591,5.63q.678,1.6,1.348,3.2c.643,1.815,1.286,3.63,1.951,5.436.6,1.631,1.183,3.262,1.8,4.882.471,1.213.93,2.437,1.4,3.65q-.989-1.783-1.984-3.568c-.772-1.389-1.59-2.762-2.391-4.133-1.79-3.074-3.539-6.166-5.323-9.245-.7-1.307-1.413-2.609-2.12-3.916-.053-.1-.106-.2-.159-.294-.094-.224-.188-.448-.288-.666-.607-1.378-1.243-2.744-1.867-4.122-.086-.185-.17-.372-.255-.558.078.019.157.032.236.052.477.13.942.288,1.4.459.359.159.713.33,1.06.518a9.989,9.989,0,0,1,.848.572C143.307,22.259,143.5,22.442,143.7,22.624ZM161.82,64.412c-.162-.578-.329-1.155-.516-1.723a2.61,2.61,0,0,0,.471.224,2.161,2.161,0,0,0,.308.075c.141.3.278.613.419.918C162.274,64.074,162.043,64.237,161.82,64.412Zm-17.286,51.214c-.294,2.043-.612,4.081-.842,6.13-.06-.675-.091-1.353-.124-2.031.078-.592.148-1.184.238-1.775.177-1.136.4-2.248.629-3.37.275-1.108.565-2.218.877-3.319-.08.426-.16.851-.242,1.28C144.876,113.565,144.681,114.59,144.534,115.626Zm-.983,18.99c.193,1.4.471,2.782.79,4.16-.024-.063-.053-.124-.076-.187-.224-.614-.41-1.242-.6-1.867-.116-.509-.265-1.016-.346-1.525s-.167-1.025-.251-1.537c-.061-.536-.141-1.072-.172-1.6C143.1,132.915,143.315,133.768,143.551,134.616ZM162.34,69.548c.6-.67,1.209-1.33,1.824-1.985.072.161.147.32.219.481q-1.208,1.163-2.366,2.374A3.127,3.127,0,0,0,162.34,69.548ZM136.993,9.35l.033.008h-.006l.1.035c.017.012.035.018.053.03a1.976,1.976,0,0,1,.224.158c.076.059.147.13.217.2s.13.141.195.218c.948,1.325,1.8,2.726,2.656,4.11.618.989,1.236,1.972,1.843,2.968.142.233.28.467.422.7a12.088,12.088,0,0,0-1.837-.665,22.98,22.98,0,0,0-3.153-.585,12.728,12.728,0,0,0-1.509-2.553,1.467,1.467,0,0,0-.807-.507,5.642,5.642,0,0,0,.76-1.019,2.361,2.361,0,0,0,.047-2.526,4.022,4.022,0,0,0-.359-.459l.17-.053c.1-.024.2-.043.3-.059a3.468,3.468,0,0,1,.353-.024C136.8,9.326,136.9,9.339,136.993,9.35Zm-3.1-5.526a.509.509,0,0,1,.056,0,.343.343,0,0,1,.077-.012h0c-.023.006-.047.006-.07.012l-.071.01c.018,0,.036-.007.053-.01h-.106A.509.509,0,0,1,133.89,3.824Zm-6.816,5.015c1.508-1.248,2.956-2.567,4.511-3.768.453-.324.918-.63,1.4-.913.153-.076.3-.147.454-.212l.159-.053c.084-.022.172-.035.259-.049l.188-.016h.018a.935.935,0,0,0,.112.06c.076.046.147.094.218.141.035.029.07.065.1.094.689.718,1.343,1.472,1.973,2.249a5.279,5.279,0,0,0-.612.059,12.464,12.464,0,0,0-3.38,1.2L131,8.333c-.954.454-1.908.925-2.874,1.372-.5.165-1.007.33-1.507.5a6.77,6.77,0,0,0-1.031-.136C126.085,9.658,126.58,9.246,127.074,8.839Zm-3.827,6.5c.094-.041.194-.088.288-.129.677-.306,1.349-.619,2.02-.931.365-.123.736-.247,1.107-.377.047.018.088.036.136.054.665.288,1.324.583,1.96.93-.774.685-1.568,1.349-2.363,2.011-1.208.172-2.413.365-3.609.6l-2.785.54C121.116,17.165,122.187,16.267,123.247,15.34ZM41.5,44.317c-1.767.324-3.557.506-5.335.777.088-.011.17-.023.259-.029-1.084.129-2.161.283-3.251.389-1.213.111-2.426.212-3.65.283-1,.058-2,.1-3,.129.242-.071.483-.135.719-.2.777-.2,1.543-.412,2.314-.642,1.949-.241,3.91-.465,5.859-.736h.017c.2-.028.4-.05.6-.078h0l.116-.016a.568.568,0,0,1,.072-.011.067.067,0,0,0-.019.005c.483-.065.972-.124,1.455-.188h-.012c.006,0,.017-.007.023-.007.034,0,.068-.007.1-.012h-.008l.048-.005.038,0c.13-.015.26-.03.391-.049l-.006,0c1.054-.134,2.112-.286,3.164-.443.187.024.373.034.559.044a3.187,3.187,0,0,0,.723.582C42.281,44.182,41.886,44.246,41.5,44.317Zm67.469-16.358c.012-.006.018-.012.024-.012-1.133.637-2.26,1.306-3.392,1.966v0l-.014.008.007,0-.076.041.014-.006c-.311.17-.622.344-.933.513-.765.271-1.525.536-2.3.771-1.272.383-2.538.777-3.816,1.142l-.253.071c-1.39.354-2.785.713-4.175,1.078-1.508.33-2.991.73-4.493,1.078-1.36.317-2.714.659-4.075.983-2.614.618-5.229,1.236-7.849,1.819q-3.374.742-6.772,1.4c4.77-1.714,9.522-3.451,14.2-5.382,2.644-.707,5.282-1.472,7.9-2.3,1.489-.477,3-.937,4.463-1.485,1.5-.553,3-1.077,4.469-1.7,0,0-.017.006-.023.006.624-.253,1.248-.512,1.878-.771l-.02.005c1.151-.466,2.29-.978,3.406-1.512.977-.466,1.955-.942,2.905-1.458.568-.155,1.135-.314,1.7-.468-.076.023-.153.042-.229.065,1.218-.3,2.443-.607,3.668-.907,1.166-.283,2.332-.612,3.51-.86.233-.049.468-.093.7-.14-1.168.694-2.346,1.374-3.521,2.06C113.572,25.3,111.258,26.611,108.967,27.959ZM155.339,63.19c-.136-.112-.265-.23-.4-.353a6.211,6.211,0,0,1-.4-.478c-.954-1.348-1.726-2.826-2.674-4.175s-1.937-2.667-2.9-4.009c-1-1.408-1.978-2.821-2.9-4.282-.418-.665-.848-1.324-1.248-2.007-.454-.777-.9-1.561-1.366-2.332q-.889-1.578-1.808-3.139c-.617-1.09-1.292-2.151-1.931-3.227-.489-.812-1.031-1.595-1.543-2.4-.383-.6-.783-1.19-1.2-1.773-.606-.871-1.2-1.754-1.843-2.6a36.214,36.214,0,0,0-4.787-5.353,13.088,13.088,0,0,0-5.623-3.279,7.278,7.278,0,0,0-1.231-.178c.5-.311,1-.617,1.466-.971.583-.448,1.178-.883,1.749-1.349.359-.294.716-.592,1.074-.888a56.715,56.715,0,0,1,6.08-.445c1.482,2.124,2.825,4.354,4.128,6.587l-.012-.019c1.213,2.215,2.315,4.482,3.369,6.772,1.484,3.221,2.979,6.442,4.451,9.663,1.531,3.345,2.974,6.742,4.67,10.005a1.9,1.9,0,0,0,1.113.936c.229.435.465.866.7,1.3q.778,1.413,1.549,2.826c.618,1.119,1.231,2.25,1.932,3.316a6.688,6.688,0,0,0,.959,1.225,11.812,11.812,0,0,0,1.266.954,1.694,1.694,0,0,0,.354.182c.206.648.406,1.3.588,1.955.089.366.16.737.23,1.108l-.3.285A19.652,19.652,0,0,0,155.339,63.19Zm-4.082,16.961q-.488.833-.952,1.676c-.009-.029-.028-.054-.038-.082C150.588,81.209,150.917,80.676,151.257,80.151ZM89.409,93.009c-1.1.577-2.2,1.148-3.291,1.713-.618.324-1.26.625-1.861.978l-.777.459c.565-.483,1.13-.966,1.719-1.425a17.607,17.607,0,0,1,1.537-.995c.342-.182.689-.353,1.048-.507h.006l.043-.018c.564-.217,1.134-.391,1.712-.55.358-.095.715-.185,1.078-.274C90.216,92.59,89.81,92.8,89.409,93.009Zm48.462-.218c-2.65-.159-5.311-.33-7.949-.63-1.372-.188-2.75-.359-4.11-.595q-2.659-.468-5.306-.978c-1.631-.311-3.268-.6-4.905-.882h.153a89.063,89.063,0,0,1,10.864.706c-.07-.006-.141-.018-.217-.023a76.046,76.046,0,0,1,9.515,1.8l-.047-.018c.742.2,1.484.412,2.22.636C138.018,92.8,137.942,92.8,137.871,92.791Zm-.524-3.721a79.243,79.243,0,0,0-12.36-2.233c-8.055-.836-16.3-.765-24.119,1.514-.641-.035-1.277-.065-1.919-.071a23.408,23.408,0,0,0-3.9.159c-1.119.165-2.232.4-3.339.613q-1.793.343-3.545.865a13.768,13.768,0,0,0-2.932,1.231c-.242.135-.477.283-.713.43,2.183-2.513,4.267-5.12,6.3-7.756l-.008.012q.75-.927,1.507-1.854,1.556-1.167,3.1-2.338a62.75,62.75,0,0,1,5.658-3.633,44.869,44.869,0,0,1,4.715-2.293,31.582,31.582,0,0,1,3.587-1.188c.475-.122.953-.232,1.438-.329.2-.006.4-.006.6-.012,1.59.029,3.157.147,4.741.324,1.5.236,2.985.524,4.457.9a23.1,23.1,0,0,1,2.344.724c.777.307,1.554.613,2.337.919,1.031.442,2.061.9,3.1,1.307,1.513.7,3.062,1.331,4.6,1.978.117.048.235.1.359.154-.972-.112-1.943-.218-2.915-.33-1.555-.183-3.109-.348-4.664-.518a1.845,1.845,0,0,0-1.513,3.05,1.935,1.935,0,0,0,1.284.642c.524.059,1.054.123,1.578.188h0c.937.126,1.879.245,2.821.342,1.437.182,2.868.341,4.3.524l-.183-.027c.053.007.108.013.159.021a.076.076,0,0,1,.036.006c-.019,0-.038,0-.057-.008l.092.014h.006c.07.005.141.017.206.023,1.9.242,3.8.489,5.706.707-.018-.006-.035-.006-.053-.012,1.643.224,3.274.466,4.917.66.24.042.484.095.729.149-.356.721-.7,1.448-1.048,2.174-.336.695-.642,1.389-.937,2.1-.364.879-.708,1.765-1.063,2.647A51.807,51.807,0,0,0,137.347,89.07Zm2.615,19.233c.205-.7.393-1.411.593-2.118.177-.613.324-1.243.524-1.856.338-1.027.671-2.06,1.021-3.086-.012.043-.027.085-.039.127-.318,1.119-.624,2.244-.866,3.38-.612,1.825-1.172,3.669-1.66,5.536-.027.1-.05.2-.076.3C139.625,109.822,139.8,109.064,139.962,108.3ZM82.684,158.512c-.8,1.377-1.653,2.724-2.474,4.086-.548.9-1.09,1.8-1.637,2.7-.183.306-.359.624-.56.918-.583.872-1.16,1.744-1.743,2.615-.624.812-1.23,1.631-1.849,2.444-.892,1.168-1.8,2.329-2.682,3.509h0l-.008.011,0-.006c-.029.035-.058.075-.092.118l0,.009-.007.009.006-.007h0l0,0,.014-.018.006-.006,0,0,.014-.018.005-.006.006-.006a.006.006,0,0,1,.006-.006l-.006.006.012-.012a.06.06,0,0,1,.024-.03c-.071.089-.142.183-.212.271a.79.79,0,0,1,.05-.068c-.031.039-.061.078-.092.116s-.051.066-.076.1c-1.653,2.126-3.317,4.252-4.958,6.39.012-.018.017-.03.029-.048l-.182.236-.02.03v0l0,0c-.006.011-.012.017-.018.029l0-.009s-.01.015-.015.021c-1.584,1.966-3.174,3.939-4.752,5.912-2.061,2.591-4.187,5.129-6.3,7.678-.795.96-1.572,1.931-2.361,2.9-.1.112-.2.23-.3.342h0l-.006.006a.006.006,0,0,1-.006.006l-.005.009.005,0-.01.01-.008.008h0l0,0v0l0,0a.113.113,0,0,0-.023.026.006.006,0,0,0-.006.006c-.042.041-.083.076-.124.118l.037-.038.007-.009q-1.323,1.3-2.647,2.59c.725-1.19,1.443-2.373,2.209-3.533.665-1.007,1.307-2.037,1.99-3.039q1.139-1.65,2.273-3.3c1.9-2.779,3.863-5.511,5.818-8.249,1.86-2.6,3.815-5.129,5.7-7.7l-.009.01.033-.046c.006-.006.006-.012.012-.018.094-.117.182-.229.276-.347a.693.693,0,0,0-.05.058c.054-.07.108-.141.162-.217.084-.1.171-.213.257-.322l.509-.661c-.03.035-.053.07-.083.106.05-.066.1-.13.151-.2s.079-.108.121-.158l0,0,.009-.011c.078-.1.159-.208.242-.307l-.018.018c.035-.047.071-.094.106-.136a.118.118,0,0,1,.024-.029h0c.11-.145.227-.29.337-.436-.041.054-.082.112-.123.165l.3-.388-.13.165c.124-.16.242-.313.359-.471l-.088.123c.1-.129.2-.265.306-.394-.041.052-.088.106-.129.159.186-.239.372-.484.559-.722l0,.007c.233-.3.461-.595.688-.893-.017.024-.035.047-.053.076.068-.095.14-.18.208-.275l-.012.016.02-.027c.025-.031.05-.062.073-.1l.017-.018h0c.045-.06.094-.124.143-.185l-.006.007.276-.357c.022-.027.044-.055.066-.085h0c.059-.071.112-.147.171-.218h0c.007-.009.017-.02.027-.035l.07-.089c.1-.129.2-.259.307-.394.064-.088.129-.171.2-.259s.135-.183.206-.271c.088-.112.177-.23.265-.348-.022.031-.041.062-.061.09.105-.137.215-.276.32-.413-.041.052-.083.1-.124.159l.3-.389-.124.159c.041-.053.082-.112.124-.165l-.053.07c.062-.075.122-.156.183-.235h0l0,0h0v0l.017-.021-.006.007.021-.027,0,.006c.016-.019.031-.04.045-.06,1.207-1.543,2.467-3.05,3.7-4.57.789-.977,1.583-1.955,2.373-2.932.271-.336.536-.677.812-1,1.266-1.454,2.526-2.915,3.792-4.369.071-.089.148-.171.218-.259C84.256,155.615,83.439,157.046,82.684,158.512ZM127.2,125.66c-3.156,1.554-6.277,3.174-9.409,4.775-1.472.76-2.956,1.5-4.434,2.232s-2.944,1.513-4.411,2.279a48.86,48.86,0,0,0-8.862,5.847,42.143,42.143,0,0,0-3.509,3.274c-.766.813-1.531,1.619-2.291,2.432-1.142,1.207-2.2,2.485-3.28,3.745q-.75.865-1.472,1.749c1.025-1.961,2.008-3.945,3-5.924a.58.58,0,0,1,.042-.082c.765-.795,1.53-1.59,2.278-2.408,1.667-1.626,3.345-3.239,5.1-4.77q2.562-2.245,5.282-4.291a68.9,68.9,0,0,1,7.054-4.636,68,68,0,0,1,7.325-3.551,74.226,74.226,0,0,1,8.77-2.938h0l.019,0-.008,0,.037-.009.01,0,0,0c1.554-.4,3.115-.771,4.7-1.054.336.006.677.012,1.013.024C131.828,123.44,129.5,124.524,127.2,125.66Zm-27.233,7.085a27.736,27.736,0,0,1,2.237-2.557,24.218,24.218,0,0,1,2.173-1.866c.63-.46,1.284-.878,1.955-1.273l-.006.006a23.137,23.137,0,0,1,2.566-1.242,37.321,37.321,0,0,1,3.931-1.265c1.309-.331,2.635-.6,3.961-.849-.065.006-.136.018-.2.024.883-.112,1.772-.254,2.655-.389a68.6,68.6,0,0,0-8.65,4.14A75.484,75.484,0,0,0,99.1,135.629q-1.122.954-2.208,1.938c.118-.23.241-.46.359-.689A43.132,43.132,0,0,1,99.966,132.745Zm32.6-13.668c-1.019.018-2.038.029-3.056.047h.206c-.748,0-1.5.082-2.25.13-.612.04-1.224.058-1.837.123-.883.089-1.76.189-2.644.277-.612.071-1.248.094-1.855.2-.789.112-1.572.248-2.361.371-.836.129-1.678.253-2.52.394-.8.118-1.584.307-2.367.483-.919.212-1.837.43-2.738.7a29.242,29.242,0,0,0-5.223,2,22.925,22.925,0,0,0-4.5,3.015,27.376,27.376,0,0,0-3.657,3.9c-.618.813-1.219,1.637-1.76,2.5-.471.76-.966,1.519-1.378,2.308-.271.53-.554,1.054-.83,1.578-.572,1.1-1.16,2.179-1.708,3.286-.618,1.242-1.237,2.491-1.855,3.733q-1.449,1.511-2.885,3.021c-.742.777-1.49,1.543-2.2,2.35-1.466,1.689-2.932,3.368-4.393,5.057-.765.878-1.548,1.738-2.284,2.639q-1.953,2.411-3.91,4.822c-.96,1.172-1.943,2.338-2.868,3.539.02-.029.044-.059.065-.088l-.048.061-.017.022c-.1.135-.2.259-.306.394l.022-.026-.316.4c.189-.316.374-.633.559-.953a.115.115,0,0,1-.012.028c.931-1.548,1.832-3.109,2.756-4.663.9-1.525,1.82-3.051,2.7-4.588-.03.06-.065.112-.094.172.064-.118.141-.236.212-.354,1.107-1.813,2.2-3.633,3.309-5.447.618-1.018,1.225-2.049,1.867-3.05,2.814-4.417,5.57-8.9,8.756-13.055a59.86,59.86,0,0,1,4.911-5.676c-.042.047-.089.088-.13.136a40.839,40.839,0,0,1,4.039-3.51l-.009,0a38.836,38.836,0,0,1,3.749-2.443A40.842,40.842,0,0,1,108,120.843h-.011c.02-.009.04-.014.064-.024l.056-.025H108.1a49.8,49.8,0,0,1,5.54-1.828c.786-.2,1.577-.4,2.374-.574.572-.13,1.149-.271,1.732-.365.559-.089,1.124-.183,1.69-.277.842-.136,1.69-.277,2.538-.412.4-.065.806-.112,1.207-.2l-.165.018c1.531-.189,3.068-.33,4.6-.495,1.33-.141,2.667-.188,4-.294,1.187-.095,2.376-.156,3.566-.211-.138.939-.295,1.878-.391,2.817,0,.043-.011.087-.016.131C134.034,119.093,133.3,119.071,132.564,119.077Zm23.3,48.28c-.107-.1-.213-.2-.32-.3-.8-.755-1.55-1.55-2.306-2.346-.654-.689-1.313-1.4-1.914-2.132.053.07.106.136.159.206-.112-.141-.218-.277-.33-.412.038.046.076.095.114.143-.286-.358-.577-.715-.867-1.068.053.065.106.13.159.2-.153-.194-.309-.384-.464-.574l.04.045c-.051-.061-.1-.121-.15-.182l-.015-.018.008.009c-.068-.083-.135-.167-.2-.251l.031.039-.288-.358c-.621-.867-1.224-1.751-1.844-2.624-.576-.945-1.162-1.89-1.744-2.839l.03.045-.079-.128c.017.029.033.058.049.089l-.078-.136-.051-.082.032.049c-.277-.485-.522-.99-.786-1.481-.288-.541-.618-1.071-.877-1.631-.5-1.076-1-2.152-1.5-3.224-.345-.881-.7-1.758-1.052-2.64-.277-.695-.512-1.407-.759-2.114l-.01-.029c.191.3.373.6.573.891,1.054,1.541,2.192,3.034,3.364,4.5.06.139.117.279.177.418v0l.048.112-.016-.04.117.269-.027-.055c.034.074.067.149.1.223s.066.15.1.224.066.149.1.224l-.021-.042c.888,2.03,1.813,4.063,2.877,6.013a37.4,37.4,0,0,0,3.6,5.464c1.237,1.549,2.5,3.08,3.81,4.558q.7.784,1.431,1.531c-.134.041-.271.075-.405.119C156.405,167.8,156.129,167.585,155.865,167.357Zm-8.013,15.72a21.907,21.907,0,0,1,.492-2.466c.2-.677.429-1.343.694-2,.283-.636.589-1.255.931-1.855.271-.448.565-.877.877-1.3a16.909,16.909,0,0,1,1.313-1.484,15.578,15.578,0,0,1,1.207-1.03c.177-.124.359-.247.542-.371.411-.2.826-.4,1.241-.605l.344.278c-.04.071-.079.143-.119.215a.089.089,0,0,1,.012-.029c-.612,1.019-1.231,2.025-1.855,3.032s-1.291,2.026-1.885,3.07l.013-.019c-.027.053-.059.106-.091.16v0l-.008.014v0l-.025.041v0l-.035.058-.018.03v0c-.046.079-.089.158-.136.237.035-.058.064-.112.1-.165-.263.445-.52.891-.776,1.341-.353.621-.671,1.264-1,1.9a33.944,33.944,0,0,0-1.7,3.84q-.123.344-.247.689c-.035-.048-.076-.095-.118-.142A32.745,32.745,0,0,1,147.852,183.077Zm1.922,6.455a.405.405,0,0,1-.017.047.572.572,0,0,1,.023-.077c0-.02.011-.042.017-.066l0,.019a33.445,33.445,0,0,1,1.284-3.68c-.03.059-.053.118-.077.171.407-.96.854-1.9,1.337-2.821.247-.465.477-.942.73-1.4.346-.594.7-1.193,1.038-1.792q.484-.786.976-1.57c-.024.058-.041.111-.065.164-.135.36-.235.742-.353,1.107-.165.519-.33,1.031-.5,1.543-.035.106-.065.212-.1.318a27.151,27.151,0,0,0-1.278,2.414,38.675,38.675,0,0,0-2.432,6.937,48.539,48.539,0,0,0-1.324,7.513c-.095-.5-.189-.994-.283-1.5.041-1.172.123-2.338.265-3.5-.006.059-.012.124-.018.182A33.6,33.6,0,0,1,149.774,189.532Zm16.235,106.551c-1.755-6.042-3.451-12.1-5.17-18.16-2.008-7.054-4-14.108-6.024-21.151-2.138-7.4-4.5-14.721-6.483-22.164-.008-.026-.013-.05-.019-.073v0c0-.021-.011-.042-.017-.063v0c-.593-2.255-1.157-4.5-1.633-6.783-.459-2.185-.777-4.4-1.107-6.6l-.777-5.176q-.345-2.271-.695-4.529c-.247-1.648-.471-3.3-.759-4.934-.625-3.574-1.3-7.143-1.79-10.746a63.884,63.884,0,0,1-.636-7.2c0-.783.055-1.568.135-2.352a19.023,19.023,0,0,1,.412-2.17c.13-.451.273-.885.44-1.324.213-.5.45-1,.714-1.479a18,18,0,0,1,1.078-1.6,18.646,18.646,0,0,1,1.454-1.614,19.539,19.539,0,0,1,1.59-1.36c.018-.012.035-.03.053-.041a18.9,18.9,0,0,0-1.643,4.928,30.809,30.809,0,0,0-.435,6.86c-.242,1.478-.454,2.968-.566,4.452-.082,1.172-.188,2.337-.212,3.509a37.163,37.163,0,0,0,.583,7.308c.159.889.336,1.772.507,2.655.153.79.282,1.584.453,2.368q.654,2.976,1.3,5.953c.342,1.566.731,3.127,1.1,4.687q.317,1.334.636,2.668c.141.8.282,1.6.435,2.4.377,1.984.76,3.975,1.125,5.965.118.624.265,1.243.4,1.867.265,1.236.524,2.473.789,3.7.295,1.372.625,2.733.972,4.093q.468,1.854.942,3.715c.165.654.3,1.337.5,1.985.577,1.808,1.095,3.633,1.637,5.447,1.059,3.539,2.19,7.048,3.309,10.569.047.148.094.295.135.436q1.158,4.392,2.338,8.772c0-.011-.006-.017-.006-.027a.162.162,0,0,1,.011.047l.007.025-.007-.023v.009c.106.377.224.76.341,1.131.171.577.348,1.154.519,1.731l.053.212q.548,2.4,1.107,4.805c.382,1.667.724,3.339,1.054,5.023.347,1.76.677,3.516.965,5.276.254,1.6.525,3.209.748,4.811a18.6,18.6,0,0,1,.142,1.9C166.015,295.906,166.015,296,166.009,296.083Zm-7.6-70.567c.406,2.868.777,5.741,1.219,8.6.111.883.271,1.76.406,2.644q.477,3.137.966,6.271.556,3.648,1.124,7.308c.118.754.236,1.513.348,2.267.035.217.059.441.106.659q1.343,6.113,2.667,12.225.327,1.5.648,2.991c-.383-1.26-.771-2.526-1.107-3.8-.489-1.819-.984-3.639-1.472-5.465-.442-1.931-.9-3.857-1.355-5.788-.347-1.484-.665-2.974-.989-4.469q-1.236-5.644-2.473-11.289c-.76-3.456-1.566-6.907-2.355-10.357-.33-1.431-.695-2.85-1.043-4.275-.429-1.772-.831-3.544-1.294-5.305,0,.018.008.035.011.052-.342-1.336-.677-2.679-1.019-4.015-.047-.6-.094-1.207-.147-1.808-.118-1.407-.171-2.815-.248-4.222-.07-1.248-.052-2.509-.064-3.757.047-.877.076-1.749.112-2.626.065-1.39.176-2.768.347-4.151a46.3,46.3,0,0,1,.924-4.823c.377,3.332.972,6.648,1.42,9.975v-.01c.351,2.659.738,5.306,1.113,7.959Q157.326,217.917,158.413,225.516Zm19.192-46.7c-2.1-.717-4.209-1.406-6.287-2.171q-.717-.273-1.432-.537l.064.022-.757-.286c-.265-.1-.527-.219-.79-.331.285-.071.569-.143.855-.211.561.077,1.128.146,1.694.19l.044,0c1.624.69,3.234,1.412,4.819,2.2,1.089.54,2.178,1.089,3.276,1.622Q178.347,179.07,177.605,178.818Zm68.422,3.106-1.79.141c.721-.065,1.441-.135,2.161-.2v.031Zm12.733,2.962c.034-.149.071-.3.107-.455l.019-.005Zm27.473-25.179a41.817,41.817,0,0,1-2.767,4.139,46.4,46.4,0,0,1-3.3,3.74c-1.03,1.013-2.108,1.978-3.215,2.909-.194.07-.383.147-.577.211-.966.336-1.932.683-2.909,1-2.073.665-4.163,1.242-6.265,1.813l-.206.053c.011,0,.023-.006.035-.006-.035.006-.071.018-.106.024.012,0,.023-.006.035-.006-.076.018-.147.041-.224.059,0,0-.017.006-.023.006h.006c-.793.2-1.6.417-2.39.622l.006,0-.078.017c-.39.1-.783.177-1.175.27a56.808,56.808,0,0,0-.8-6.058c-.17-.948-.318-1.908-.512-2.85s-.377-1.9-.612-2.833c-.159-.612-.3-1.213-.413-1.831a2.3,2.3,0,0,0-.618-1.2,12.44,12.44,0,0,0-.33-1.454,6.967,6.967,0,0,0-.565-1.154,2.051,2.051,0,0,0-1.425-1.1,2,2,0,0,0-1.7.453,5.161,5.161,0,0,0-.724.8,2.674,2.674,0,0,0-.389.978,9.736,9.736,0,0,0-.1,2.025c-.012.783-.023,1.573-.035,2.355a1.937,1.937,0,0,0-1.466-.865,1.871,1.871,0,0,0-1.525.63,2.958,2.958,0,0,0-.748,1.714,10.026,10.026,0,0,0,.218,2.055c.082.765.123,1.537.182,2.3.041.6.118,1.207.124,1.814.006.118.006.23.006.341-.307-1.213-.613-2.42-.948-3.633-.159-.595-.324-1.189-.5-1.79-.265-1.631-.595-3.256-.83-4.893-.047-.413-.083-.819-.089-1.231,0-.088,0-.183.006-.277a1.3,1.3,0,0,0,.3-.765,1.389,1.389,0,0,0-1.461-1.454c-1.113,0-1.554,1.265-1.566,2.19,0,.436.018.859.053,1.29a1.725,1.725,0,0,0-.253.058,1.916,1.916,0,0,0-1.278,1.667,12.792,12.792,0,0,0,.283,3.339v-.018c.194,1.531.394,3.068.506,4.61.136,1.808.277,3.616.353,5.43q.048,1.229.086,2.458l-.159.021c-.159.023-.318.047-.476.065l.253-.036-.642.088.247-.035c-.159.023-.318.041-.483.065.024,0,.041-.006.065-.006-.035.006-.071.006-.106.012a.112.112,0,0,0-.047.006h-.01l-.052,0-.038.007.03-.006c-2.193.224-4.4.272-6.6.4-4.263-.023-8.508-.242-12.766-.518q-4.023-.263-8.046-.526c.1-.439.194-.878.29-1.317.377-1.7.807-3.386,1.231-5.076-.018.082-.041.159-.059.241.394-1.36.748-2.726,1.184-4.069.2-.612.406-1.225.612-1.831.047-.082.094-.165.141-.242.253-.465.507-.93.772-1.4v.006c.535-.924,1.083-1.849,1.607-2.785a6.156,6.156,0,0,0,.713-1.384,3.382,3.382,0,0,0,.176-.76,5.853,5.853,0,0,0-.023-.783,2,2,0,0,0-1.1-1.643,2.032,2.032,0,0,0-1.955.118,3.576,3.576,0,0,0-1.219,1.078,10.746,10.746,0,0,0-.913,1.684c-.288.665-.559,1.342-.824,2.019-.248.6-.477,1.219-.683,1.838l-.389.688c-.83,1.485-1.537,3.027-2.279,4.558-.353.736-.636,1.514-.942,2.273-.371.925-.789,1.849-1.125,2.791-.413,1.181-.819,2.366-1.209,3.556-.783-.061-1.566-.122-2.349-.188.007-.091.018-.18.025-.271q.239-3.065.442-6.141.177-2.614.324-5.229c.012-.194.017-.383.029-.571a1.355,1.355,0,0,0,.707-.942,1.568,1.568,0,0,0-.3-1.219,1.934,1.934,0,0,0-.271-.3c.011-.317.029-.635.041-.954a8.55,8.55,0,0,0,.059-1.095,2.864,2.864,0,0,0-.418-1.431,2.369,2.369,0,0,0-.995-.818,2.036,2.036,0,0,0-2.815,1.177,45.154,45.154,0,0,0-1.089,5.382c-.053.354-.106.713-.154,1.067a1.9,1.9,0,0,0-.618.612,10.123,10.123,0,0,0-1.083,3.816c-.189,1.024-.371,2.043-.554,3.061-.118.654-.159,1.325-.229,1.985-.044.4-.085.793-.128,1.19-.059-.007-.119-.012-.178-.018a149.192,149.192,0,0,1-15.748-2.939h0l-.017-.006.008,0-.014,0h0a44.876,44.876,0,0,1-4.9-1.567c-1.5-.612-2.933-1.319-4.387-2.031-.813-.4-1.643-.766-2.438-1.2-1.931-1.049-3.863-2.085-5.794-3.127-.454-.265-.9-.539-1.355-.807-.075-.064-.15-.128-.235-.188a1.608,1.608,0,0,0-.445-.217c-.165-.1-.333-.194-.5-.3-.518-.371-1.031-.742-1.549-1.107-.595-.412-1.195-.818-1.79-1.236l-.013-.013c-.1-.1-.187-.193-.282-.289l-.3-.3c-.076-.082-.157-.163-.239-.245l.129.129c-.206-.206-.412-.418-.618-.624l0,0c-.141-.146-.282-.293-.423-.434.012.018.03.029.041.047-.2-.206-.4-.412-.606-.618l.129.129c-.166-.172-.333-.339-.5-.51-.057-.058-.115-.121-.172-.178l.035.035c-.092-.092-.185-.185-.277-.283l.007.012c-.018-.018-.036-.041-.053-.059l-.006-.006a43.451,43.451,0,0,1-3-3.58c-1.025-1.366-1.955-2.8-2.868-4.239-.966-1.52-1.925-3.045-2.821-4.6l.041.079q-.775-1.389-1.471-2.812c-.366-1.124-.713-2.261-1.025-3.409a47.294,47.294,0,0,1-1.1-5.6c-.149-1.246-.26-2.489-.288-3.74.014-2.213.23-4.419.453-6.626-.012.089-.024.177-.036.26.159-1.178.277-2.367.46-3.545.212-1.337.412-2.679.612-4.016.147-.936.336-1.867.524-2.8.241-1.243.483-2.485.736-3.728.306-1.071.589-2.16.889-3.238.195-.7.383-1.4.571-2.09.071-.236.124-.483.206-.719.855-2.421,1.64-4.869,2.6-7.254a82.954,82.954,0,0,1,4.792-9.678c.616-1.04,1.275-2.062,1.917-3.083.412-.659.83-1.319,1.243-1.978.188-.3.365-.619.565-.907,1.254-1.773,2.514-3.539,3.763-5.317,1.218-1.543,2.473-3.063,3.727-4.588.165-.2.371-.4.553-.594.442-.477.89-.948,1.337-1.425.63-.678,1.272-1.349,1.9-2.026.66-.618,1.337-1.219,2-1.825s1.3-1.255,1.985-1.82c.789-.647,1.6-1.271,2.4-1.908l.371-.3q3.03-1.59,6.207-2.885c-.036.012-.077.029-.112.041a96.978,96.978,0,0,1,11.284-3.734,98.308,98.308,0,0,1,12.01-2.413c.477-.059.954-.113,1.431-.165,1.024-.049,2.041-.073,3.059-.081a40.183,40.183,0,0,1,4.955.31,38.657,38.657,0,0,1,4.4.86,47.8,47.8,0,0,1,5.258,1.814,112.815,112.815,0,0,1,10.776,5.488c1.3.812,2.609,1.6,3.91,2.414.595.377,1.16.836,1.737,1.248.589.43,1.178.854,1.767,1.278,1.095.924,2.226,1.814,3.339,2.714,1.277,1.043,2.52,2.138,3.833,3.145-.059-.041-.112-.082-.165-.124.13.1.265.206.395.3l.27.209c.047.035.095.076.142.112.015.01.026.02.04.03l0,0,0,0-.006,0c.375.294.756.582,1.131.876l-.248-.194c.177.136.354.277.53.412l-.247-.194c.224.177.447.347.671.524-.082-.065-.165-.129-.247-.195l.53.407c-.083-.059-.165-.124-.253-.188.376.288.753.583,1.13.871l-.247-.194c.147.112.294.223.436.341.082.059.164.124.247.188a.228.228,0,0,1-.03-.021c2.341,1.819,4.774,3.53,7.125,5.333-.053-.036-.106-.076-.159-.118a74.566,74.566,0,0,1,7.443,6.572,83.177,83.177,0,0,1,6.734,7.78,66.151,66.151,0,0,1,4.56,6.959,63.678,63.678,0,0,1,3.274,6.836,76.194,76.194,0,0,1,2.856,8.75,93.59,93.59,0,0,1,2.075,10.743,68.4,68.4,0,0,1,.581,8.012,53.291,53.291,0,0,1-.359,5.894,50.531,50.531,0,0,1-1.16,5.912,59.7,59.7,0,0,1-2.379,6.942c.035-.088.07-.182.106-.271A54.346,54.346,0,0,1,286.233,159.707Zm8.662-2.638a18.718,18.718,0,0,1-1.378,1.525c-.312.306-.612.607-.918.907-.949.859-1.873,1.749-2.8,2.632a50.022,50.022,0,0,0,2.874-5.588,60.483,60.483,0,0,0,2.891-7.861,50.641,50.641,0,0,0,1.62-8.144,51.989,51.989,0,0,0,.229-8.615,77.856,77.856,0,0,0-.948-8.515q-.283-1.713-.618-3.423c.481-.034.97-.124,1.431-.2.619-.107,1.243-.236,1.861-.36l.81-.165c.055.194.114.387.167.583a62.021,62.021,0,0,1,1.343,6.9,60.074,60.074,0,0,1,.477,7.154,64.653,64.653,0,0,1-.472,7.767c.006-.059.012-.118.018-.171-.171,1.3-.383,2.591-.654,3.874-.329.754-.683,1.5-1.006,2.25-.119.274-.241.549-.36.823-.512-.032-1.024-.066-1.533-.122a1.339,1.339,0,0,0-1.413,1.248,1.358,1.358,0,0,0,1.248,1.413c.177.02.354.03.531.046-.287.611-.575,1.221-.884,1.821a2.421,2.421,0,0,0-1.042.524,2.494,2.494,0,0,0-.654,1.054,2.758,2.758,0,0,0-.066,1.5C295.4,156.307,295.165,156.7,294.9,157.069Zm20.436,12.136q-2.2-1.651-4.392-3.315-1.467-1.113-2.933-2.22l-1.484-1.131c-.17-.129-.341-.271-.524-.394a68.244,68.244,0,0,1-5.478-4.769c.114-.2.233-.392.346-.59.064-.112.117-.229.179-.342q1.614.327,3.216.7c.236.259.465.517.695.777.583.654,1.148,1.319,1.749,1.955q1.193,1.254,2.373,2.52c.61.639,1.184,1.33,1.828,1.929,1.766,1.8,3.5,3.631,5.209,5.478C315.856,169.605,315.6,169.405,315.331,169.205Zm16.254,1.009c.877.894,1.719,1.807,2.548,2.742.6.671,1.219,1.325,1.79,2.008.978,1.171,2,2.3,2.962,3.486.348.429.7.854,1.054,1.284,1.137,1.872,2.285,3.744,3.374,5.646q2.465,4.381,4.958,8.739c-.009-.019-.018-.037-.028-.054l0,.007c.006.006.006.012.012.018s.011.017.017.029c.23.412.465.824.695,1.236-.029-.052-.059-.106-.088-.164.112.206.229.412.347.612-.017-.023-.029-.047-.047-.077.059.112.124.219.183.324-.03-.059-.059-.111-.089-.164q1.219,2.163,2.444,4.328c-.03-.054-.059-.112-.088-.166.106.195.218.389.323.577-.029-.052-.058-.106-.088-.164.13.235.259.471.395.7l-.036-.054c.089.159.183.319.277.477.03.053.059.1.083.147a.357.357,0,0,1-.025-.038c.062.116.129.228.195.339l0,0,.009.017c.018.035.036.064.053.094-.006-.012-.017-.024-.023-.035.029.053.059.1.088.159,0-.012-.006-.018-.012-.03a1.032,1.032,0,0,1,.059.106.383.383,0,0,0,.03.051v0c.092.162.179.323.271.485l-.036-.067c.147.265.3.53.448.795-.03-.053-.059-.111-.089-.165,1.518,2.69,3.059,5.368,4.588,8.057h0l0,0,.022.038-.006-.012c.011.019.022.038.029.053s.03.05.042.072h0q2.331,4.125,4.687,8.238c1.4,2.585,2.809,5.158,4.257,7.714q2.033,3.842,3.951,7.725-.564-.892-1.183-1.766c-.813-1.148-1.684-2.255-2.562-3.357-.329-.736-.689-1.46-1.048-2.184q-1.034-2.112-2.161-4.169c-.777-1.407-1.584-2.809-2.432-4.181-.394-.648-.8-1.289-1.213-1.931-.3-.465-.589-.96-.918-1.414-.866-1.26-1.767-2.491-2.65-3.739-.842-1.189-1.649-2.4-2.532-3.563-.954-1.271-1.955-2.508-2.933-3.768-1.007-1.295-2.008-2.6-3.02-3.886.053.071.106.147.159.217-.33-.447-.695-.871-1.049-1.3q-1.113-1.368-2.237-2.732c-1.178-1.443-2.373-2.874-3.539-4.322-.93-1.16-1.92-2.285-2.874-3.422q-2.076-2.463-4.151-4.922c-2.455-2.915-4.952-5.788-7.425-8.68-1.037-1.213-2.114-2.39-3.174-3.58-.889-1.007-1.784-2.008-2.674-3.015-.376-.426-.748-.868-1.144-1.287-.926-1.037-1.887-2.044-2.83-3.064-.925-1.007-1.832-2.05-2.8-3.015.065.059.123.123.182.183-1.007-1.09-2.037-2.167-3.056-3.245l.689.23c.73.247,1.46.483,2.179.765.813.324,1.631.642,2.449.966.89.406,1.785.795,2.668,1.189a46.288,46.288,0,0,1,4.316,2.185,38.211,38.211,0,0,1,3.886,2.567c-.035-.029-.07-.058-.111-.094A41.414,41.414,0,0,1,331.585,170.214Zm-27.271-18.68c1.384.194,2.768.388,4.158.553l-.171-.017c1.266.217,2.52.429,3.768.736l0,0a33.29,33.29,0,0,1,3.472,1.179,34.285,34.285,0,0,1,3.75,1.844l-.042-.028.113.068a39.656,39.656,0,0,1,3.669,2.468l.006.006h0a.05.05,0,0,0,.016.011l.02.014h0c.022.015.044.03.063.045a.1.1,0,0,1-.024-.015,40.7,40.7,0,0,1,3.822,3.4c.483.483.948.978,1.407,1.479a39.875,39.875,0,0,0-3.439-2.1c-1.46-.8-2.962-1.5-4.481-2.185-.818-.364-1.631-.741-2.467-1.071-.925-.366-1.843-.783-2.785-1.1-1.031-.347-2.067-.7-3.1-1.048-.907-.306-1.849-.518-2.767-.777-.589-.165-1.178-.312-1.779-.459a23.44,23.44,0,0,0-2.426-2.373,2.013,2.013,0,0,0-1.959-.351c.046-.128.1-.254.143-.383C303.625,151.472,303.974,151.49,304.314,151.534Zm75.681.9c-1.625-.754-3.268-1.472-4.864-2.3-1.937-1.007-3.886-2-5.818-3.02-1.048-.631-2.1-1.237-3.162-1.861-.992-.59-1.979-1.191-2.988-1.769l0,0-.019-.012-.011-.006,0,0c-.491-.3-.966-.631-1.446-.949l-2.721-1.785c-1.066-.7-2.1-1.419-3.138-2.155-1.19-.854-2.4-1.684-3.575-2.573-1.3-.99-2.584-2-3.9-2.962-1.361-1.072-2.762-2.1-4.152-3.139.012.006.024.018.035.024-1.124-.872-2.308-1.69-3.462-2.532-1.06-.772-2.126-1.531-3.186-2.3-1.077-.771-2.137-1.56-3.209-2.337-.895-.66-1.766-1.354-2.656-2.02-.694-.553-1.395-1.095-2.09-1.643a37.1,37.1,0,0,0-3.645-2.732,18.035,18.035,0,0,0-3.539-1.708,23.8,23.8,0,0,0-3.774-.96,28.623,28.623,0,0,0-7.832-.2c-2.608.288-5.173.8-7.739,1.329-.129-.507-.27-1.012-.408-1.517,1.308-1.254,2.706-2.434,4.084-3.61,1.2-1.022,2.378-2.05,3.616-3.007-.01.007-.023.013-.036.021l.118-.083.012-.011a26.357,26.357,0,0,1,2.314-1.513c.236-.124.465-.242.707-.354.129.012.265.029.394.042a26.283,26.283,0,0,1,2.812.559,38.915,38.915,0,0,1,4,1.36c.5.212,1,.43,1.478.654a2.188,2.188,0,0,0-.7,3.939c2.073,1.272,4.11,2.6,6.077,4.045.878.707,1.8,1.366,2.7,2.038,1.979,1.549,3.875,3.215,5.777,4.858q1.2,1.032,2.408,2.061c.689.589,1.378,1.171,2.067,1.754.288.242.571.489.86.725a.131.131,0,0,0-.03-.018c.789.642,1.59,1.266,2.391,1.908.748.594,1.478,1.219,2.249,1.784,1.59,1.178,3.18,2.356,4.787,3.515a.6.6,0,0,0-.064-.052c.129.1.259.188.388.276,3.369,2.291,6.713,4.6,10.152,6.784.919.583,1.837,1.16,2.75,1.742.777.5,1.543,1.019,2.332,1.485.918.535,1.819,1.1,2.726,1.648.842.513,1.661,1.049,2.514,1.52,1.455.841,2.921,1.672,4.376,2.508-.089-.053-.177-.1-.265-.153.27.153.535.306.8.459-.011-.006-.023-.018-.035-.024.171.1.342.195.512.289,2.638,1.407,5.259,2.838,7.926,4.193C383.257,153.925,381.62,153.188,380,152.435Zm18.413,8.332c.277.094.548.183.825.271.094.082.194.164.294.241C399.156,161.108,398.785,160.937,398.408,160.767Zm5.223-2.815q-2.473-.671-4.864-1.584c-.4-.318-.806-.636-1.213-.954-.347-.276-.689-.571-1.054-.83l.008,0c-1.844-1.433-3.723-2.822-5.574-4.249l0,0-.008-.007-.018-.014-.021-.015s0,.006.011.006c-1.024-.789-2.1-1.525-3.144-2.285-1.084-.789-2.155-1.6-3.262-2.373-.889-.677-1.837-1.283-2.762-1.913-.677-.471-1.36-.942-2.043-1.414,1.442.872,2.891,1.743,4.334,2.6,1.725,1.03,3.439,2.079,5.187,3.068,1.732.977,3.445,1.99,5.188,2.944s3.48,1.908,5.223,2.856c3.48,1.89,6.942,3.8,10.446,5.635C407.912,158.989,405.763,158.512,403.631,157.952Z"/><polygon points="71.636 174.922 71.636 174.922 71.636 174.922 71.636 174.922"/><path d="M52.387,198.847l-.016.016,0,0Z"/><path d="M353.282,202.969c-.017-.034-.034-.064-.051-.095-.028-.051-.062-.107-.09-.158C353.188,202.8,353.235,202.887,353.282,202.969Z"/><path d="M348.283,194.13v.006l.006.013h0l.007.011c.026.042.047.08.069.117l-.089-.159h-.006c.006,0,.006.006.006.011Z"/><polygon points="353.235 202.881 353.23 202.871 353.231 202.874 353.235 202.881"/><path d="M150.646,180.269l.025-.043c.024-.042.045-.086.069-.128C150.711,180.158,150.675,180.211,150.646,180.269Z"/><path d="M371.089,57.849c.018.064.034.127.051.191.006.021.014.041.02.062C371.136,58.02,371.113,57.932,371.089,57.849Z"/><polygon points="266.193 63.06 266.193 63.06 266.189 63.067 266.193 63.06"/><path d="M266.146,63.142l-.018.029h0Z"/></svg>