<svg xmlns="http://www.w3.org/2000/svg" width="358.958" height="303.849" viewBox="0 0 358.958 303.849"><path d="M6.8,196.807c.015-.071.035-.143.05-.214l.015-.068C6.846,196.619,6.828,196.713,6.8,196.807Z"/><path d="M202.126,141.31h0l.118.062Z"/><path d="M249.049,162.662c-.088.029-.176.054-.266.075h-.008c-.164,0-.329-.007-.493-.018-.743-.086-1.471-.238-2.2-.373-.724-.164-1.452-.31-2.164-.5-1.019-.276-2.032-.541-3.045-.818-1.713-.465-3.415-.984-5.117-1.472l-.2-.06a50.993,50.993,0,0,0,6.755,1.18c.064,0,.129.008.193.008a1.858,1.858,0,0,0,.354-3.694c-.854-.1-1.692-.249-2.539-.4l-.234-.047-.236-.054c-.545-.117-1.092-.24-1.641-.358l-.063-.013-.162-.035.156.033-.089-.019.156.033c-1.025-.252-2.046-.525-3.076-.747-1.2-.293-2.412-.556-3.6-.9-1.152-.337-2.305-.7-3.441-1.1a38.688,38.688,0,0,1-4.225-1.845,33.62,33.62,0,0,1-3.668-2.224c-.409-.3-.8-.61-1.176-.942-.137-.133-.27-.269-.4-.41-.079-.1-.153-.21-.226-.319-.805-1.38-1.522-2.818-2.194-4.269q-.094-.21-.188-.422l.026-.012a12.9,12.9,0,0,0,1.536-.095,10.741,10.741,0,0,0,6.124-2.921,15.392,15.392,0,0,0,3.639-5.695,12.794,12.794,0,0,0,.754-6.8,9.626,9.626,0,0,0-3.793-5.977,6.556,6.556,0,0,0-3.12-1.155,7.3,7.3,0,0,0-3.156.419,11.384,11.384,0,0,0-5.294,4.11,29.489,29.489,0,0,0-1.879,3.033,25.124,25.124,0,0,0-1.566,3.226,16.482,16.482,0,0,0-.777,3.41,12.074,12.074,0,0,0-.112,3.126c.011.1.023.2.035.3-.339-.125-.68-.244-1.018-.371a24.767,24.767,0,0,1-2.475-1.093,29.6,29.6,0,0,1-2.559-1.539c-.467-.33-.941-.649-1.413-.975l.022.015c-.581-.407-1.168-.808-1.75-1.215.023.016.045.032.066.049-.877-.63-1.761-1.248-2.608-1.914-.4-.306-.8-.606-1.178-.942-.421-.366-.838-.738-1.258-1.1-.483-.484-1-.948-1.457-1.457-.477-.522-.948-1.044-1.42-1.562-.319-.39-.639-.78-.959-1.176a23.717,23.717,0,0,1-1.538-2.111l.049.08-.053-.086-.059-.09c.019.026.036.053.053.079a63.822,63.822,0,0,1-2.969-5.923c-.3-.723-.6-1.441-.906-2.159-.514-1.217-.972-2.462-1.376-3.724l.022.073-.037-.121-.022-.068.01.031c-.121-.4-.225-.8-.333-1.2-.062-.611-.114-1.223-.147-1.837-.051-1.321-.035-2.641.027-3.962.09-1,.184-2,.274-3.007.07-.784.2-1.549.324-2.332.135-.854.253-1.713.424-2.568.2-1,.4-2.01.612-3.01.256-1.139.49-2.287.783-3.426.306-1.2.583-2.42.936-3.615.671-2.282,1.361-4.564,2.154-6.813q.612-1.666,1.209-3.339c-.024.071-.047.136-.071.206,1.9-5.134,4.039-10.251,5.105-15.645q1.1-5.538,1.932-11.129a66.9,66.9,0,0,0,.883-11,42.119,42.119,0,0,0-.565-5.493,26.223,26.223,0,0,0-.53-2.6c-.13-.494-.242-.994-.407-1.477-.17-.519-.341-1.031-.512-1.549-.129-.395-.3-.777-.459-1.16s-.3-.771-.477-1.142c-.4-.83-.777-1.667-1.231-2.462-.259-.465-.524-.924-.783-1.389-.241-.436-.536-.837-.807-1.249-.456-.7-.945-1.376-1.432-2.055a25.189,25.189,0,0,0-1.973-5.307,24.356,24.356,0,0,0-4.192-5.7,20.082,20.082,0,0,0-5.641-4.128A23.271,23.271,0,0,0,171.463.271a33.727,33.727,0,0,0-7.555-.106,36.428,36.428,0,0,0-7.3,1.59q-1.926.618-3.786,1.378c-.627.247-1.253.5-1.86.771l.011-.006c-.747.337-1.491.677-2.237,1.014A42.14,42.14,0,0,0,142.169,6.8a38.7,38.7,0,0,0-6.666,3.462c-1.059.689-2.061,1.449-3.079,2.2a48.816,48.816,0,0,0-4.01,3.322c-.55.5-1.087,1.014-1.624,1.528a22.031,22.031,0,0,0-4.807.605,31.405,31.405,0,0,0-3.966,1.2,16.176,16.176,0,0,0-4.067,1.507,30.434,30.434,0,0,0-5.37,3.592c-.641.531-1.281,1.052-1.9,1.609a10.274,10.274,0,0,0-2.132,2.057l-.187.19c-.648.672-1.319,1.343-1.9,2.061a42.212,42.212,0,0,0-3.174,4.334c-.056.091-.1.189-.157.281a14.479,14.479,0,0,0-3.517.854,29.853,29.853,0,0,0-9.31,5.911c-1.478,1.331-2.891,2.745-4.234,4.222-.659.725-1.307,1.461-1.937,2.215-.524.624-1.083,1.242-1.56,1.9-.89,1.219-1.808,2.42-2.709,3.633-.848,1.148-1.678,2.314-2.556,3.439-.282.365-.53.765-.789,1.148q-.734,1.06-1.466,2.132-1.617,2.349-3.239,4.7c-1.595,2.337-3.12,4.716-4.675,7.077Q58.947,78.352,55,84.87c-.326.449-.648.9-.972,1.347-3.268,4.5-6.4,9.1-9.51,13.708-.9,1.331-1.849,2.632-2.7,3.992-.866,1.378-1.766,2.739-2.644,4.11-.665,1.031-1.278,2.091-1.9,3.145-.653,1.119-1.342,2.214-1.949,3.362q-1.245,2.376-2.5,4.752c-.619,1.166-1.178,2.356-1.761,3.533q-1.856,3.764-3.651,7.543-1.935,4.064-3.8,8.144c-.5,1.107-.989,2.214-1.448,3.338-.407.99-.813,1.985-1.219,2.974-.166.4-.335.791-.486,1.195l.015-.041c-.9,2.462-1.814,4.917-2.633,7.4-.471,1.443-.977,2.874-1.419,4.322q-.636,2.085-1.272,4.158Q13.6,166.9,12.323,172.026l-.26.621c-1.06,2.509-2.12,5.023-3.156,7.543-.489,1.19-1.007,2.367-1.461,3.574q-.909,2.447-1.814,4.888c-.4,1.077-.729,2.178-1.077,3.274-.518,1.637-1.072,3.274-1.531,4.928a82.832,82.832,0,0,0-2.491,12,75.829,75.829,0,0,0-.459,12.4,87.1,87.1,0,0,0,1.337,11.789A83.657,83.657,0,0,0,4.343,244.9,51.471,51.471,0,0,0,9.4,255.733,79.381,79.381,0,0,0,16.279,265c1.266,1.49,2.585,2.909,3.922,4.334,1.213,1.289,2.408,2.6,3.68,3.827a81.658,81.658,0,0,0,9.05,7.626A85.445,85.445,0,0,0,43.142,287.1a100.35,100.35,0,0,0,11.011,4.94c1.678.636,3.38,1.19,5.076,1.76,1.172.4,2.338.837,3.527,1.172q2.677.76,5.353,1.508c2.241.631,4.511,1.191,6.8,1.658a20.984,20.984,0,0,0,2.83,2.658,10.513,10.513,0,0,0,5.175,2.361,5.356,5.356,0,0,0,2.159-.214c.278.1.56.2.845.291a13.105,13.105,0,0,0,3.934.62,11.87,11.87,0,0,0,2.513-.266,22.111,22.111,0,0,0,6.3-2.615,38.5,38.5,0,0,0,3.276-2.131,8.66,8.66,0,0,0,3.042.064,22.271,22.271,0,0,0,3.11-.636,31.532,31.532,0,0,0,6.212-2.49,44.775,44.775,0,0,0,5.535-3.5c.748-.554,1.49-1.107,2.238-1.661,1.348-1,2.655-2.043,3.974-3.08a42.948,42.948,0,0,0,3.987-3.556c.214-.218.424-.442.636-.663.157-.124.318-.243.475-.368a81.477,81.477,0,0,0,8.838-8.026q.624-.671,1.228-1.356a47.061,47.061,0,0,0,5.585-6.876,53.528,53.528,0,0,0,5.353-10.3q.411-1.071.786-2.157c.379-.9.745-1.8,1.074-2.724.271-.766.548-1.531.819-2.3.7-1.973,1.419-3.934,2.019-5.942a61.278,61.278,0,0,0,2.462-11.859c.194-2.067.324-4.134.33-6.207,0-1.4.023-2.821-.077-4.216q-.186-2.615-.371-5.217c-.088-1.172-.265-2.326-.424-3.492-.182-1.3-.306-2.6-.571-3.88q-.53-2.491-1.054-4.976c-.112-.536-.295-1.06-.448-1.578-.259-.925-.524-1.849-.789-2.773-.377-1.314-.871-2.592-1.336-3.875-.212-.589-.395-1.2-.642-1.784-.265-.63-.536-1.267-.807-1.9-.524-1.236-1.024-2.485-1.607-3.692-.448-.942-.9-1.878-1.355-2.82-.224-.465-.424-.954-.677-1.408-.789-1.442-1.56-2.885-2.349-4.328-.636-1.165-1.355-2.284-2.038-3.421-3.015-4.976-6.389-9.71-9.81-14.409-1.49-2.049-3.015-4.068-4.458-6.147-.853-1.225-1.76-2.426-2.555-3.692-.872-1.378-1.725-2.762-2.6-4.134.047.071.089.135.13.2-1.072-1.914-2.155-3.816-3.139-5.777-.459-.913-.936-1.814-1.366-2.738q-.767-1.643-1.528-3.291c-.785-1.707-1.513-3.448-2.229-5.183-.783-1.914-1.507-3.845-2.231-5.782-.613-1.643-1.155-3.316-1.7-4.982-.619-1.9-1.237-3.8-1.837-5.7.023.077.047.153.07.23-.341-1.113-.718-2.226-1.024-3.345q-.477-1.767-.966-3.533c-.312-1.125-.542-2.279-.813-3.409-.24-1.025-.414-2.066-.624-3.1.009.048.016.094.024.142l-.026-.151-.016-.079c.006.023.01.046.015.068-.239-1.424-.475-2.849-.662-4.29s-.315-2.9-.442-4.355c-.038-.94-.111-1.884-.1-2.823.012-.983.018-1.966.029-2.95.018-1.937.207-3.886.36-5.818-.006.077-.012.148-.018.224.283-2.738.607-5.464,1-8.191.371-2.532.86-5.046,1.343-7.554a95.531,95.531,0,0,0,1.813-11.315,1.658,1.658,0,0,0,.589-.39,20.058,20.058,0,0,0,1.413-1.678l.583-.8c.418-.583.836-1.166,1.26-1.743.185-.251.356-.511.536-.765a6.767,6.767,0,0,0,1.1-.792c.265-.236.519-.477.778-.719.388-.364.783-.73,1.177-1.089.619-.577,1.243-1.142,1.867-1.713,1.189-1.084,2.408-2.144,3.633-3.192l-.023.017c1.032-.84,2.03-1.718,3.042-2.578.445-.364.874-.753,1.309-1.131.465-.418.93-.83,1.372-1.278a17.61,17.61,0,0,0,2.4-2.891,19.739,19.739,0,0,0,1.755-3.551,11.3,11.3,0,0,0,.765-3.71,9.894,9.894,0,0,0-.442-3.191,8.645,8.645,0,0,0-1.271-2.6,7.071,7.071,0,0,0-2.32-1.966c.654-.626,1.325-1.235,2.019-1.818a38.6,38.6,0,0,1,3.819-2.773.32.32,0,0,1-.051.029l.133-.081h0c1.041-.635,2.1-1.233,3.164-1.809.754-.412,1.5-.854,2.273-1.225.795-.382,1.584-.777,2.373-1.171.694-.341,1.4-.658,2.086-1.022l.053-.024-.054.027.226-.1c.445-.1.889-.2,1.336-.291.849-.182,1.715-.3,2.564-.486.074-.012.148-.025.221-.039-.046.009-.092.014-.138.021.211-.033.422-.071.633-.109l-.189.036c.491-.087.987-.18,1.478-.266l.079-.014c.753-.13,1.507-.23,2.256-.367,1.286-.216,2.577-.315,3.874-.427.98-.024,1.955-.056,2.936-.034s1.961.085,2.943.142c.887.086,1.769.182,2.657.294.807.1,1.624.205,2.426.361q.946.2,1.9.393c-.077-.012-.153-.03-.236-.047.884.21,1.752.451,2.609.747a20.841,20.841,0,0,1,2.008.892,21.343,21.343,0,0,1,1.928,1.2,28.13,28.13,0,0,1,2.347,1.922q.99.94,1.925,1.938c.672.713,1.3,1.461,1.955,2.19l-.159-.194c.854,1.042,1.731,2.073,2.521,3.162.4.56.83,1.1,1.2,1.673l.1.153c.014.074.032.148.046.223.176.965.351,1.937.531,2.9.087.712.178,1.418.264,2.13.083.618.195,1.242.236,1.867.086,1.366.178,2.739.26,4.106,0,.686,0,1.373.011,2.059,0,.665.035,1.342.006,2.008-.059,1.431-.124,2.868-.189,4.3.006-.065.012-.123.018-.188-.13,1.46-.247,2.92-.371,4.381-.112,1.289-.3,2.579-.459,3.863-.289,2.385-.642,4.763-1.019,7.136-1.162,7.229-2.388,14.444-3.905,21.6l.008-.035-.007.034.007-.028-.013.057-.013.059c-.631,2.912-1.288,5.819-1.907,8.731,0-.022.01-.045.016-.069-.716,3.293-1.425,6.58-2.053,9.891a31.333,31.333,0,0,0-.353,10.914,34.566,34.566,0,0,0,1.962,11.192,36.446,36.446,0,0,0,2.556,5.553c.494.866,1.007,1.719,1.56,2.55.483.73.966,1.472,1.519,2.149l-.159-.194c.424.548.86,1.083,1.29,1.631.353.441.689.895,1.066,1.319.824.907,1.625,1.837,2.5,2.691.554.536,1.113,1.065,1.667,1.608a29.6,29.6,0,0,0,3.339,2.708,33.31,33.31,0,0,0,3.98,2.426l-.062-.035.566.293c-.021-.011-.042-.022-.062-.034l.2.1c.017.009.033.018.049.025L201.53,141l.419.219-.024-.012.029.014.218.115-.045-.025,0,0-.1-.054.33.171c.264.13.534.246.8.364.318.147.63.306.954.435,1,.383,2,.807,3.032,1.09a18.257,18.257,0,0,0,2.63.51c.041.115.075.235.118.349a26.389,26.389,0,0,0,1.767,4.109,41.166,41.166,0,0,0,5.076,6.7,17.76,17.76,0,0,0,1.684,1.654,10.565,10.565,0,0,0,1.378,1.037,14.884,14.884,0,0,0,1.513.777c1.16.512,2.361.919,3.563,1.313.612.2,1.224.418,1.843.6,3.7,1.118,7.39,2.261,11.1,3.35,1.714.506,3.439.966,5.159,1.461.365.106.741.176,1.107.264.494.118.989.248,1.489.348a15.557,15.557,0,0,0,2.959.44,4.573,4.573,0,0,0,1.346-.187,1.81,1.81,0,0,0,1.072-.783,1.74,1.74,0,0,0-1.9-2.591Zm-32.438-35.429c.151-.155.309-.305.469-.448.157-.12.314-.232.477-.344.1-.06.207-.117.313-.171s.2-.081.3-.118c.083-.023.166-.042.248-.06.1-.017.21-.035.317-.044.068,0,.136-.007.2,0s.147.022.219.036l.267.081c.1.04.2.084.3.131.046.027.092.054.137.083.252.183.49.378.724.585.15.149.293.3.436.462.065.083.127.168.186.254.1.174.2.348.289.527.029.07.058.141.084.213.057.2.105.392.146.595.016.109.027.218.035.328.006.232,0,.462-.011.695-.025.207-.059.417-.1.625-.072.285-.149.562-.24.84-.239.627-.507,1.237-.8,1.839-.27.5-.555.982-.868,1.453-.3.419-.617.825-.96,1.213-.325.343-.667.67-1.022.98q-.732.587-1.509,1.1a16.563,16.563,0,0,1-1.631.9q-.156-.648-.277-1.306c-.113-.725-.186-1.454-.231-2.187-.017-.622-.008-1.24.03-1.861a17.235,17.235,0,0,1,.259-1.825c.116-.5.257-.99.422-1.477.176-.462.37-.911.589-1.355a12.218,12.218,0,0,1,.64-1.051C216.231,127.682,216.416,127.454,216.611,127.233Zm2.567-1.166q.047.015.093.033c.041.009.083.02.125.031l-.119-.029.144.056c-.058-.02-.114-.04-.169-.062l-.037-.007.03,0ZM93.17,46.581ZM112,37.472a7.118,7.118,0,0,0,1.121.011q-.812.986-1.621,1.973c-.542.654-1.072,1.313-1.626,1.949l-.062.073c-.1-.162-.187-.331-.3-.484a6.339,6.339,0,0,0-1.366-1.473,8.632,8.632,0,0,0-1.425-.835,6.672,6.672,0,0,0-1.094-1.82c.68-.445,1.358-.891,2.027-1.353.437-.272.865-.561,1.294-.844l2.968-1.926c.825-.536,1.654-1.065,2.479-1.6-.144.145-.288.291-.43.438-.542.56-1.09,1.119-1.584,1.719s-.966,1.249-1.449,1.873A1.419,1.419,0,0,0,112,37.472Zm-.545-10.726-.139.118q.417-.326.84-.639c.33-.124.663-.238,1-.35-.966.681-1.941,1.358-2.86,2.1q-1.172.944-2.343,1.889c.326-.327.673-.64,1.011-.962C109.766,28.144,110.614,27.45,111.457,26.746Zm-4.131,17.613c.024-.2.05-.4.067-.609.078.186.142.376.212.563-.06.094-.119.188-.176.284C107.4,44.518,107.363,44.437,107.326,44.359ZM81.947,52.776c.424-.565.883-1.1,1.342-1.637q1.038-1.238,2.123-2.427a55.366,55.366,0,0,1,4.921-4.72c.964-.773,1.955-1.5,2.991-2.17q1.209-.741,2.481-1.366c.384-.173.78-.315,1.174-.465,0,.044.011.087.02.13a33.4,33.4,0,0,0-4.159,2.71,44.812,44.812,0,0,0-3.892,3.256q-1.749,1.678-3.486,3.357c-1,.971-1.931,2.019-2.891,3.026q-.979,1.022-1.941,2.063Q81.285,53.652,81.947,52.776ZM26.113,141.068q.93-2.062,1.871-4.114c-.543,1.223-1.08,2.449-1.624,3.672-.692,1.556-1.361,3.123-2.026,4.692C24.906,143.893,25.48,142.469,26.113,141.068ZM9.843,224.547c.3,1.6.587,3.205.882,4.805l-.011-.046c.1.541.242,1.083.365,1.625.224.954.442,1.913.666,2.873.265,1.16.565,2.315.877,3.468.243.907.472,1.818.718,2.724q-.8-2.145-1.5-4.329a79.388,79.388,0,0,1-2.193-8.862,69.742,69.742,0,0,1-.915-8.2q-.054-1.319-.051-2.634.062.6.122,1.2c.124,1.218.307,2.431.477,3.644C9.46,222.063,9.619,223.311,9.843,224.547Zm10.328,40.79c-.98-1.037-1.893-2.146-2.8-3.24l.02.025-.043-.052,0,0-.007-.009a76.339,76.339,0,0,1-5.686-7.747,55.208,55.208,0,0,1-2.906-5.347,61,61,0,0,1-2.42-6.439c.018.053.036.106.053.159a88.4,88.4,0,0,1-2.423-10.123l0,.018a92.552,92.552,0,0,1-1.325-11.458v.038a78.221,78.221,0,0,1,.17-9.56c-.006.053-.012.112-.018.165a78.349,78.349,0,0,1,1.366-9.065c.594-2.684,1.318-5.33,2.144-7.947.483-1.543.972-3.081,1.451-4.619.478-1.319.959-2.636,1.455-3.948-.06.314-.12.627-.18.942-.117.618-.2,1.244-.281,1.872-.294,1.087-.571,2.169-.838,3.256-.353,1.442-.739,2.884-1.051,4.332q-.689,3.164-1.357,6.333c.024-.095.041-.189.065-.289-.353,1.619-.612,3.262-.83,4.9-.265,1.961-.454,3.939-.536,5.912a69.822,69.822,0,0,0,3.433,24.19,106.008,106.008,0,0,0,4.4,11.341c.713,1.589,1.5,3.144,2.261,4.7.542,1.1,1.066,2.2,1.632,3.274.683,1.319,1.33,2.674,2.072,3.963.754,1.313,1.5,2.638,2.32,3.911.383.6.76,1.212,1.178,1.784q.21.286.423.568C21.337,266.568,20.754,265.95,20.171,265.337Zm7.126,7.292,0,0c-1-.936-2.008-1.878-2.95-2.873l-.08-.084a2.254,2.254,0,0,0,1.129.1q1.167,1.718,2.451,3.352C27.666,272.965,27.482,272.8,27.3,272.629Zm63.51,12.988a35.5,35.5,0,0,1-.012,3.748,19.633,19.633,0,0,1-.269,2.049c-.014-.021-.028-.041-.041-.062-.042-.071-.078-.145-.113-.22-.016-.045-.033-.09-.05-.136l-.017-.063a2.6,2.6,0,0,1-.04-.307c-.037-1.352.012-2.709.012-4.055,0-1.2-.018-2.4-.065-3.6-.046-1.249-.092-2.5-.18-3.745.066.357.131.716.2,1.074.226,1.795.474,3.579.577,5.385Zm-.462,5.462.009.019-.008-.016Zm-14.528,1.576c-.307-.355-.617-.707-.926-1.059.616.389,1.241.762,1.884,1.1l.045.022C76.486,292.7,76.151,292.678,75.817,292.655Zm9.507,7.127c-.086.066-.171.131-.259.194-.354-.16-.7-.331-1.049-.51-.048-.026-.094-.055-.142-.082q.876.063,1.755.1c-.009.01-.017.022-.026.032C85.515,299.607,85.42,299.7,85.324,299.782Zm5.986,1.2.037,0-.05.007-.121.022c.03-.007.063-.013.1-.019-.3.044-.61.079-.919.106-.408.016-.812.012-1.219-.01-.43-.038-.853-.1-1.274-.174a8.091,8.091,0,0,0,.822-1.4c.74-.011,1.48-.025,2.218-.063.095.032.187.074.282.1a12.952,12.952,0,0,0,3.068.494c.033,0,.066,0,.1,0-.454.194-.912.378-1.384.534C92.419,300.744,91.867,300.88,91.31,300.984Zm52.177-121.077c.588.966,1.118,1.967,1.66,2.957.583,1.054,1.178,2.1,1.7,3.179q.98,1.995,1.947,3.988.479,1.111.962,2.224c.341.79.73,1.578,1.03,2.385q.859,2.327,1.713,4.654c.254.868.513,1.74.766,2.613.218.742.489,1.49.66,2.249q.584,2.646,1.149,5.291c.141.977.282,1.959.423,2.935.094.677.194,1.354.289,2.031.041.265.094.53.117.8q.227,3.072.463,6.14a77.9,77.9,0,0,1-.153,9.169c0-.028,0-.056,0-.082q-.2,2.243-.574,4.455c-.021-.529-.047-1.059-.079-1.587-.142-2.244-.365-4.476-.619-6.713-.153-1.307-.259-2.626-.453-3.933-.265-1.785-.53-3.575-.795-5.359-.177-1.19-.406-2.373-.618-3.557-.241-1.325-.436-2.667-.73-3.98-.389-1.743-.778-3.48-1.166-5.223-.247-1.107-.554-2.2-.854-3.292-.4-1.471-.765-2.949-1.212-4.405-.053-.165-.1-.33-.157-.493-.1-.324-.2-.649-.3-.973l.088.283c-.085-.279-.173-.553-.259-.831-.1-.319-.2-.637-.3-.953-.088-.281-.177-.558-.261-.84-.074-.231-.148-.465-.221-.7l-.174-.567c-.04-.123-.08-.246-.119-.369q-.039-.12-.075-.243c-.357-1.112-.771-2.21-1.159-3.314-.407-1.148-.8-2.291-1.243-3.427-.383-.983-.765-1.967-1.154-2.95-.177-.459-.336-.936-.542-1.384l-.958-2.148ZM108.25,124.25c.566,1.437,1.225,2.838,1.832,4.252.53,1.224,1.113,2.425,1.678,3.632.536,1.149,1.077,2.291,1.643,3.422.624,1.248,1.224,2.508,1.878,3.733q1.219,2.269,2.426,4.534c.683,1.272,1.419,2.521,2.132,3.78,2.785,4.953,5.806,9.769,8.744,14.628q2.12,3.506,4.11,7.089c.619,1.1,1.248,2.2,1.825,3.321.71,1.391,1.42,2.787,2.135,4.172q.62,1.382,1.24,2.753c.341.754.712,1.5,1.018,2.267q.627,1.59,1.255,3.18c.282.718.588,1.431.847,2.161.419,1.178.843,2.355,1.261,3.539.247.694.518,1.39.742,2.1.6,1.89,1.193,3.785,1.8,5.67.487,1.787.987,3.573,1.474,5.359.371,1.336.66,2.691.972,4.045s.636,2.715.9,4.087c.32,1.7.629,3.4.952,5.095.341,2.241.751,4.476,1.021,6.729.436,3.663.9,7.314,1.095,11.006v-.01a62.842,62.842,0,0,1-.073,7.065c-.04.455-.107.906-.159,1.358-.085.258-.164.517-.25.774-.413,1.07-.811,2.144-1.3,3.179-.241.517-.465,1.042-.73,1.548l-.954,1.855c-1.071,2.073-2.045,4.2-3.086,6.283-.7,1.307-1.434,2.6-2.108,3.916-.735,1.442-1.448,2.9-2.166,4.35-.454.872-.9,1.75-1.349,2.627.023-.052.053-.106.076-.158-.188.371-.429.724-.647,1.077-.265.436-.524.877-.789,1.313-.224.36-.489.7-.725,1.042-.265.389-.535.772-.8,1.16a1.227,1.227,0,0,1,.1-.147c-.312.416-.617.836-.922,1.256-.614.55-1.225,1.1-1.858,1.631a78.957,78.957,0,0,1-7.88,5.661,76.333,76.333,0,0,1-6.955,3.829l-3.251,1.564q.557-.774,1.117-1.546l.029-.039c.375-.35.742-.712,1.114-1.062.6-.565,1.16-1.184,1.731-1.778.548-.565,1.06-1.155,1.584-1.738.483-.541.966-1.083,1.425-1.648.536-.654,1.107-1.3,1.614-1.979.577-.771,1.148-1.549,1.719-2.325.489-.66.907-1.367,1.354-2.056.177-.259.365-.518.518-.8.206-.376.418-.759.631-1.142.382-.689.765-1.372,1.1-2.091a46.509,46.509,0,0,0,1.943-4.592c.3-.866.583-1.726.836-2.609.112-.4.206-.795.3-1.2a2.775,2.775,0,0,0,.083-1.69,1.3,1.3,0,0,0-2.385-.053c-.365.812-.695,1.643-1.066,2.45-.341.736-.706,1.448-1.072,2.167v0c-.491.913-.986,1.83-1.541,2.709a8.228,8.228,0,0,0,.2-1.071,1.847,1.847,0,0,0-.618-1.907c-.014-.009-.031-.01-.045-.018a1.185,1.185,0,0,0-.493-.583,1.246,1.246,0,0,0-1.478.159,4.315,4.315,0,0,0-.9,1.626c-.194.429-.388.871-.589,1.3l-.219.455c-.077.149-.156.3-.232.445-.348.672-.689,1.343-1.019,2.02-.111.228-.227.453-.339.681s-.253.477-.381.715a38.671,38.671,0,0,1-2.4,3.834c.021-.033.041-.066.063-.1a99.522,99.522,0,0,1-7.841,9.336c-1.331,1.461-2.685,2.9-3.922,4.44-.732.91-1.405,1.858-2.049,2.825q-.663.563-1.333,1.131c-.186.148-.375.291-.561.437q-2,.492-4.03.865l.027-.006c-1.8.311-3.615.577-5.437.763a19.085,19.085,0,0,0,.483-4.89,41.491,41.491,0,0,0-.306-4.753c-.124-.924-.2-1.872-.365-2.79-.283-1.5-.542-3.009-.9-4.5q-.37-1.509-.73-3.02c-.183-.742-.407-1.478-.613-2.208-.424-1.526-.86-3.045-1.336-4.552.017.047.029.1.047.147-.513-1.713-1.037-3.421-1.531-5.141q-.273-.947-.544-1.9c-.13-.583-.287-1.17-.457-1.736-.259-.866-.507-1.744-.831-2.586a15.061,15.061,0,0,0-.965-2.179,4.258,4.258,0,0,0-1.313-1.566A2.193,2.193,0,0,0,82.4,250.3a1.428,1.428,0,0,0-.889.312,1.348,1.348,0,0,0-.3,1.872,1.287,1.287,0,0,0,.761.509l.065.1c.159.27.3.547.428.828.2.5.39,1,.571,1.5-.018-.058-.035-.117-.053-.176.088.288.177.577.265.86l-.053-.177c.029.1.061.2.091.293.016.056.035.112.053.169a43.12,43.12,0,0,1,1.09,4.688,1.164,1.164,0,0,0-.529,1.092c.311,2.779.849,5.527,1.355,8.279v.029c.029.777-.006,1.561-.024,2.338s-.023,1.537-.076,2.308c-.068.972-.142,1.95-.211,2.922-.161,1.609-.328,3.225-.449,4.839-.076,1.06-.176,2.12-.2,3.186a22.623,22.623,0,0,0,.541,6.038,28,28,0,0,1-3.038-1.327q-.838-.42-1.668-.84c-.421-.248-.848-.5-1.27-.744-.389-.23-.8-.436-1.172-.689l-2.226-1.492c-1.249-.937-2.486-1.882-3.638-2.934a29,29,0,0,1-2.325-2.443,30.138,30.138,0,0,1-1.782-2.472c-.3-.485-.587-.978-.865-1.475-.544-1.528-1.1-3.055-1.637-4.582q-.84-2.367-1.684-4.735c-.247-.694-.5-1.389-.76-2.078-.135-.371-.277-.742-.418-1.113a5.991,5.991,0,0,0-.689-1.442,1.365,1.365,0,0,0-2.168-.035c-.029.009-.057,0-.085.016a1.426,1.426,0,0,0-.866,1.649c.034.159.071.318.11.477a27.513,27.513,0,0,0,1.28,4.063c.017.045.034.09.052.135q.633,1.821,1.337,3.616a45.769,45.769,0,0,0,3.142,6.551c.045.094.092.187.137.28.282.583.612,1.148.918,1.72l.067.124c.092.239.188.475.291.708l-.016-.032c.636,1.419,1.272,2.833,1.925,4.246-.023-.059-.053-.112-.076-.171.106.241.241.471.365.7.241.442.477.883.718,1.319.424.783.83,1.572,1.29,2.338.032.054.066.107.1.161-.331-.139-.666-.273-.993-.421-2.842-1.259-5.706-2.5-8.465-3.916a62.153,62.153,0,0,1-6.621-4l.159.106a47.611,47.611,0,0,1-4.6-3.689l.009.009-.017-.016-.124-.114.065.057a63.436,63.436,0,0,1-5.278-5.672c.013.016.025.034.037.05-1.013-1.248-1.99-2.525-2.98-3.786-.9-1.142-1.731-2.331-2.6-3.5-.854-1.147-1.655-2.343-2.474-3.515-.731-1.048-1.391-2.146-2.085-3.219-.513-.914-1.042-1.827-1.554-2.74-.194-.341-.353-.707-.524-1.054-.223-.464-.452-.921-.675-1.385-.393-.875-.785-1.75-1.168-2.631-.216-.5-.432-1-.635-1.5-.091-.266-.181-.531-.277-.8a8.574,8.574,0,0,0-.436-1.2,1.4,1.4,0,0,0-2.6,1,17,17,0,0,0,1.007,2.915c.235.595.483,1.178.742,1.761.294.671.578,1.353.895,2.016.246.556.5,1.111.736,1.67.283.654.642,1.278.96,1.914.253.507.494,1.036.777,1.531.666,1.156,1.307,2.327,2.009,3.457q.942,1.507,1.89,3l.068.11c.235.38.494.744.744,1.113.418.619.83,1.243,1.248,1.861.542.8,1.113,1.578,1.673,2.362s1.13,1.584,1.719,2.355c.7.9,1.361,1.828,2.086,2.7l-.019-.026.04.051.066.079-.026-.03.039.047-.025-.029.077.093.029.037-.013-.017q1.067,1.294,2.15,2.589l-.112-.129.138.162-.02-.021c.4.477.83.925,1.249,1.384.494.548.977,1.1,1.49,1.631.062.063.127.125.19.188q-1.048-.5-2.082-1.028l.009,0a58.5,58.5,0,0,1-5.563-3.331,49.9,49.9,0,0,1-4.967-4.013,54.485,54.485,0,0,1-4.4-4.712,55.179,55.179,0,0,1-7.276-11.556c-1.2-2.644-2.143-5.4-3.131-8.132-.764-2.12-1.46-4.256-2.188-6.382-.538-1.767-1.126-3.523-1.61-5.3-.277-1.019-.553-2.038-.83-3.05-.23-.854-.5-1.708-.7-2.568-.212-.942-.441-1.884-.665-2.826s-.483-1.879-.665-2.827c-.346-1.837-.7-3.675-1.032-5.512-.243-1.666-.474-3.332-.717-5-.189-1.313-.295-2.638-.43-3.957-.124-1.249-.259-2.491-.33-3.746-.1-1.607-.192-3.219-.289-4.827q-.009-1.555-.029-3.11c-.006-.719-.012-1.431-.018-2.149,0-.324-.023-.654,0-.978q.073-1.332.147-2.667c.205-.859.418-1.718.624-2.573.218-.907.412-1.826.659-2.727.566-2.114,1.09-4.251,1.72-6.353.436-1.455.865-2.909,1.3-4.364.224-.754.43-1.507.677-2.255.748-2.255,1.455-4.534,2.244-6.772l-.025.066.027-.076q1.189-3.314,2.384-6.633c.841-2.151,1.666-4.313,2.5-6.47.742-1.908,1.537-3.8,2.314-5.688.707-1.738,1.437-3.469,2.167-5.2.719-1.7,1.419-3.4,2.173-5.081,1.172-2.627,2.3-5.276,3.527-7.88s2.4-5.193,3.675-7.76c1.283-2.591,2.549-5.194,3.857-7.773,1.416-2.791,2.848-5.576,4.248-8.373,1.885-3.525,3.662-7.105,5.621-10.594q1.943-3.453,3.874-6.913c.312-.559.666-1.1.995-1.649.754-1.253,1.514-2.5,2.267-3.756q2.9-4.792,5.934-9.5,1.881-2.289,3.788-4.563,3-3.559,6.036-7.089c1.749-2.032,3.533-4.028,5.3-6.048-.047.053-.094.1-.147.153,1.5-1.607,2.968-3.25,4.44-4.887-.053.053-.1.106-.147.153.671-.713,1.348-1.419,2.025-2.126s1.325-1.46,2.032-2.137c1.865-1.791,3.688-3.612,5.668-5.288-.324.349-.645.7-.954,1.063-.848,1-1.649,2.032-2.414,3.1-.683.942-1.361,1.89-2.044,2.838-.312.436-.606.889-.895,1.342q-.945,1.476-1.878,2.939c-.866,1.36-1.631,2.779-2.426,4.181-.306.548-.642,1.083-.913,1.642-.418.866-.842,1.726-1.26,2.592-.371.753-.736,1.507-1.1,2.261-.106.212-.183.441-.277.659-.2.5-.406.989-.606,1.484-.354.848-.7,1.69-1.048,2.532-.3.73-.519,1.5-.778,2.243s-.553,1.473-.771,2.226c-.277.942-.554,1.885-.83,2.821-.413,1.413-.783,2.838-1.131,4.269-.394,1.613-.807,3.227-1.154,4.858.007-.037.015-.074.022-.11-.149.7-.3,1.4-.428,2.095a9.967,9.967,0,0,0-.195,1.866,1.358,1.358,0,0,0,1.82,1.272,1.545,1.545,0,0,0,.807-.724,2.914,2.914,0,0,0,.284-1.021c.268-1.187.525-2.374.793-3.56.277-1.214.618-2.409.948-3.616.124-.447.224-.907.371-1.349.183-.541.359-1.077.542-1.619.412-1.237.836-2.47,1.232-3.707.732-1.994,1.573-3.955,2.319-5.95.106-.276.253-.547.376-.824q.451-.989.9-1.978c.442-.978.9-1.956,1.337-2.939l-.007.013.051-.1.035-.068-.02.043c.011-.024.024-.049.036-.073l.029-.058.058-.111-.011.024c.014-.028.028-.056.043-.084l.039-.075-.016.03c.062-.119.125-.238.186-.359s.127-.24.189-.36c-.029.048-.053.1-.082.154l.186-.36,0,.006.039-.073.044-.086,0,0q.513-.988,1.028-1.977c.074-.142.147-.281.216-.424-.023.052-.053.106-.076.159.066-.138.137-.271.208-.407l-.014.027c.077-.147.153-.291.23-.439-.03.053-.053.106-.083.153.065-.118.124-.235.183-.353-.024.053-.053.106-.077.159.025-.052.05-.1.077-.154l-.006.013c.022-.039.043-.077.063-.116.564-1.066,1.183-2.1,1.768-3.153.454-.806.919-1.6,1.39-2.4,1.335-2.268,2.675-4.537,4.178-6.7l-.033.044.071-.1.03-.042-.011.016a28.59,28.59,0,0,1,2.1-2.619q.811-.8,1.682-1.534c.125-.1.251-.2.378-.3q.26-.184.525-.359a13.03,13.03,0,0,1,1.2-.651c.349-.149.7-.286,1.062-.412.307-.1.617-.179.927-.249.3-.049.605-.087.911-.113.047,0,.094,0,.141,0-.184,1.529-.453,3.045-.717,4.558q-.91,5.253-1.671,10.526a43.459,43.459,0,0,0-1.429,5.4c-.177.9-.353,1.808-.53,2.709-.3,1.518-.6,3.031-.9,4.549l.01-.042c0-.02.011-.041.017-.061l-.007.026v0c-.01.045-.02.088-.03.131h0v0c-.014.059-.027.116-.041.173l.011-.041c-.019.088-.038.175-.058.265l.01-.036-.075.336.008-.026c-.028.127-.055.253-.084.38l.011-.039c-.053.241-.1.479-.153.722l.036-.177c-.041.206-.088.406-.13.613l.036-.177c-.032.153-.064.307-.1.462l.009-.032c-.012.048-.023.1-.034.145l-.007.031h0c-.031.135-.06.271-.088.407.006-.03.013-.061.021-.092-.027.117-.051.232-.074.351l.035-.177c-.053.259-.112.525-.165.79l.035-.177c-.021.1-.043.2-.065.306l0,.022.011-.04c-.339,1.519-.688,3.033-1.033,4.551-.237.744-.474,1.489-.7,2.238-.494,1.643-.918,3.3-1.383,4.953q-.681,2.4-1.372,4.8c-.189.671-.419,1.331-.63,2-.244.766-.465,1.543-.731,2.3-.011.031-.023.061-.035.092.024-.052.041-.112.065-.164q-.62,1.693-1.227,3.4c-.68,1.692-1.394,3.362-2.165,5.009q-.679,1.467-1.36,2.933c-.206.447-.406.9-.613,1.348a7.911,7.911,0,0,0-.412,1.007,2.69,2.69,0,0,0-.006,1.331,1.462,1.462,0,0,0,1.4,1.093,1.2,1.2,0,0,0,.492-.1,3.467,3.467,0,0,0,1.077-.677,8.7,8.7,0,0,0,.824-1.031,25.163,25.163,0,0,0,1.59-2.661A44.023,44.023,0,0,0,92.82,102.2c.412-1.225.807-2.462,1.136-3.71.271-1.019.542-2.043.813-3.062.783-2.956,1.466-5.935,2.155-8.921.512-2.234,1.039-4.467,1.547-6.7,0,.068,0,.137,0,.2.029.8.053,1.595.076,2.39.024.736.047,1.472.065,2.208.018.642.1,1.284.153,1.92.106,1.354.2,2.7.377,4.051.182,1.384.318,2.785.559,4.169.177.984.348,1.967.524,2.956.1.56.177,1.137.3,1.7.347,1.531.7,3.062,1.042,4.6.124.535.289,1.06.43,1.59.247.889.488,1.784.73,2.673.365,1.337.813,2.656,1.225,3.981.383,1.23.789,2.449,1.207,3.668.436,1.254.842,2.526,1.325,3.763C107.073,121.2,107.655,122.725,108.25,124.25Zm.248-71.238c-.1,1.2-.194,2.39-.383,3.574q-.327,2.006-.695,3.993c-.436,2.367-.954,4.71-1.4,7.078-.471,2.514-.937,5.04-1.267,7.578-.347,2.673-.641,5.347-.865,8.032q-.216,2.528-.238,5.069c-.045-.532-.072-1.064-.115-1.59-.061-.737-.126-1.475-.188-2.213q-.059-1.875-.119-3.74c-.029-.924-.005-1.837.012-2.755.018-1.042.018-2.079.083-3.115q.117-1.757.224-3.507c.055-.564.109-1.123.164-1.687.175-1.784.384-3.565.608-5.344.123-.306.244-.612.367-.917.595-1.473,1.154-2.963,1.649-4.47a38.878,38.878,0,0,0,1.7-6.819,21.87,21.87,0,0,0,.234-2.842c.063-.079.127-.155.19-.233.015.177.038.352.051.529C108.532,50.766,108.526,51.884,108.5,53.012ZM131.826,22.7c.115.263.223.528.317.8.085.288.157.581.217.873.043.27.078.538.1.809.013.323.009.638-.009.958-.04.417-.095.83-.174,1.242-.083.34-.178.672-.291,1-.3.775-.651,1.528-1.024,2.267-.233.439-.486.867-.763,1.286a17.793,17.793,0,0,1-1.276,1.556l.018-.018-.024.024-.105.117c.026-.03.052-.06.079-.089-.949,1-2,1.889-3.032,2.789-1.053.854-2.084,1.747-3.115,2.627-.132.108-.26.223-.39.334,1.017-1.607,1.991-3.247,2.87-4.931.17-.157.338-.315.508-.471.483-.454.989-.883,1.49-1.325.659-.59,1.313-1.186,1.989-1.759.089-.073.179-.145.266-.22a1.546,1.546,0,0,0,.595-.977,1.481,1.481,0,0,0-.265-1.072,1.513,1.513,0,0,0-.807-.551c.452-.683.9-1.369,1.331-2.063a1.3,1.3,0,0,0,.148-.338c.2-.157.393-.316.588-.475a1.427,1.427,0,0,0-1.672-2.314c-.127.1-.252.2-.376.3-.411.332-.833.651-1.25.977-.059-.194-.124-.385-.2-.572l.335-.474-.011.014.115-.162c.387-.54.763-1.091,1.1-1.66a5.207,5.207,0,0,0,.4-.77c.12.05.239.105.357.161.19.109.372.218.553.339q.217.165.426.343c.079.078.157.158.231.241.155.2.3.394.435.6C131.625,22.308,131.727,22.5,131.826,22.7ZM181.869,8.01a20.858,20.858,0,0,0-6.6-3.522,33.038,33.038,0,0,0-4.287-.959c-1.815-.286-3.648-.44-5.476-.557-.642-.053-1.305-.074-1.949-.074-.376,0-.753,0-1.128,0,.941-.144,1.884-.254,2.837-.312a34.557,34.557,0,0,1,4.4.077l-.073,0a33.9,33.9,0,0,1,3.866.576,24.313,24.313,0,0,1,2.593.738,17.775,17.775,0,0,1,1.825.8,19.978,19.978,0,0,1,1.791,1.085,21.584,21.584,0,0,1,1.957,1.609c.564.542,1.094,1.119,1.609,1.708C182.792,8.773,182.345,8.375,181.869,8.01ZM189.187,65.6c.577-3.315,1.142-6.636,1.625-9.969.253-1.731.542-3.463.748-5.2.225-1.879.485-3.754.639-5.638,0,.027,0,.056,0,.085.012-.148.023-.295.035-.442-.006.059-.012.124-.018.188.018-.2.036-.411.047-.612,0,.02,0,.04,0,.061q.1-1.245.2-2.493c-.006.059-.012.124-.018.189l.051-.608c.119-1.563.145-3.142.2-4.716.036-.777-.012-1.566-.017-2.349-.006-.712.011-1.431-.036-2.143-.065-.954-.115-1.91-.186-2.864.061.193.121.386.185.577-.011-.033-.023-.065-.033-.1.154.571.342,1.142.46,1.72.1.509.206,1.019.309,1.526.128.806.257,1.606.362,2.412s.173,1.617.247,2.425c.032.944.052,1.877.03,2.822-.011.879-.071,1.752-.123,2.63-.132,1.445-.27,2.885-.437,4.325-.153,1.378-.371,2.755-.571,4.133-.414,2.752-.886,5.5-1.4,8.239.01-.046.021-.091.032-.136l-.033.144-.014.073q0-.033.012-.066c-.176.757-.348,1.513-.524,2.269-.183.777-.43,1.549-.648,2.32-.442,1.548-1.023,3.068-1.559,4.581.017-.049.034-.1.052-.153-.119.329-.245.657-.366.986Q188.818,67.714,189.187,65.6Zm32.188,89.107-.016-.013q.618.334,1.247.644c-.192-.085-.385-.164-.575-.255C221.806,154.97,221.59,154.846,221.375,154.71Z"/><path d="M192.5,41.137l0,.028c0,.036,0,.072-.006.107C192.49,41.227,192.492,41.18,192.5,41.137Z"/><path d="M128.017,22.853l-.006.009,0,.006Z"/><path d="M52,131.6l.05-.069.068-.1C52.074,131.487,52.038,131.546,52,131.6Z"/><path d="M50.219,134.136l.065-.093c.018-.025.035-.051.052-.077C50.3,134.025,50.26,134.078,50.219,134.136Z"/><path d="M35.986,173.642a21.1,21.1,0,0,0,1.3,2.879,10.287,10.287,0,0,0,1.872,2.538,7.465,7.465,0,0,0,2.415,1.573,9.416,9.416,0,0,0,3.4.65,8.348,8.348,0,0,0,2.767-.462,20.162,20.162,0,0,0,5.759-3.338c.7-.559,1.4-1.144,2.057-1.763a9.989,9.989,0,0,0,3.819-3.985,12.24,12.24,0,0,0,.922-2.409q.527-1.072.945-2.195c.648-1.744,1.154-3.528,1.631-5.324.218-.818.371-1.648.553-2.473.2-.859.307-1.737.46-2.6.259-1.525.418-3.079.583-4.622.347-3.268.624-6.542.918-9.816s.589-6.572.854-9.863c-.006.059-.012.124-.017.188.035-.388.064-.777.1-1.165.135-1.531.276-3.056.465-4.582a5.166,5.166,0,0,0,0-2.49,2.712,2.712,0,0,0-.9-1.2,2.58,2.58,0,0,0-.683-.377,1.806,1.806,0,0,0-1.06-.017,3.719,3.719,0,0,0-1.243.665,10.037,10.037,0,0,0-.83.689,4.544,4.544,0,0,0-.6.006,9.283,9.283,0,0,0-5.223,2.544,27.17,27.17,0,0,0-4.207,4.836c-.59.833-1.172,1.676-1.763,2.513-.717,1.018-1.413,2.057-2.1,3.1-.806,1.236-1.613,2.473-2.385,3.727-.335.548-.688,1.083-1,1.643-.424.754-.842,1.513-1.26,2.273-.653,1.183-1.248,2.4-1.849,3.61.017-.029.033-.057.048-.085-.41.8-.769,1.635-1.149,2.446-.353.742-.671,1.5-1.007,2.249-.659,1.49-1.236,3.009-1.807,4.534-.583,1.567-1.078,3.168-1.561,4.764-.23.783-.43,1.572-.636,2.355a13.941,13.941,0,0,0-.436,5.806A17.055,17.055,0,0,0,35.986,173.642ZM51.927,164.1c.065-.883.106-1.768.115-2.655l0-.292c.242-.964.473-1.93.712-2.894-.143,1.26-.293,2.52-.419,3.78-.026.263-.042.527-.066.79Zm-11.244,9.924c.094-.124.194-.247.289-.371.034-.043.066-.088.1-.132a8.439,8.439,0,0,0,.466.754c-.156.314-.317.626-.465.944-.5-.114-.979-.267-1.469-.43l0,0a1.2,1.2,0,0,0,.322-.13A2.524,2.524,0,0,0,40.683,174.021Zm7.1-13.164a3.434,3.434,0,0,0-.957.781l.016-.019q-.586.635-1.149,1.293.441-.819.891-1.634.675-1.2,1.361-2.4C47.893,159.537,47.836,160.2,47.788,160.857Zm-4.061,9.119.033-.059c-.187.353-.369.707-.551,1.06l.011-.019c-.03.058-.059.114-.087.172.023-.053.053-.106.082-.165-.047.09-.093.181-.139.27-.036-.089-.076-.176-.11-.266q.407-.55.815-1.1Zm12.139-34.3c-.091.351-.187.7-.28,1.057a1.336,1.336,0,0,0-1.036.947c-.329,1.3-.671,2.608-1.007,3.91q-.373,1.425-.749,2.85l-.04.118c.013-.151.026-.3.036-.454.035-.589.041-1.178.053-1.773a1.34,1.34,0,0,0-.19-.719c.219-.414.43-.831.62-1.259a11.182,11.182,0,0,0,.471-1.16c.123-.4.2-.8.282-1.207-.011.053-.023.112-.035.165l.053-.259a1.64,1.64,0,0,0,.035-.268c.3-.452.6-.9.9-1.357-.017.025-.035.05-.055.076l.067-.095.027-.04-.02.031c.387-.544.783-1.081,1.194-1.608C56.084,134.975,55.956,135.322,55.866,135.674Zm-17.526,35.5a5.491,5.491,0,0,0,.771-1.025l-.136.3c-.176.389-.359.771-.524,1.166l-.066.148c-.05-.171-.1-.342-.144-.515A1.163,1.163,0,0,0,38.34,171.177Zm6,7.24c-.209-.024-.412-.055-.618-.09a7.767,7.767,0,0,1-.839-.232c-.162-.064-.317-.135-.471-.207a5.853,5.853,0,0,0,.7-.059,6.763,6.763,0,0,0,2.392-.951H45.5a3.169,3.169,0,0,0-.056,1.046,4.045,4.045,0,0,0,.1.491c-.1.01-.192.026-.288.032C44.952,178.451,44.642,178.441,44.336,178.417Zm7.437-5.917c-.051.566-.026,1.133-.027,1.7l-.05.01a.433.433,0,0,1,.05-.008h0l-.086.014-.051.01.039-.008c-.5.079-1.006.126-1.515.16a28.119,28.119,0,0,0,.181-2.815c.024-.062.049-.124.073-.185.261-.66.543-1.315.771-1.986a1.163,1.163,0,0,0,.49.3,1.116,1.116,0,0,0,.323.046c.024,0,.045-.01.069-.011-.008.323-.021.647-.045.969C51.932,171.3,51.822,171.894,51.773,172.5Zm8.285-40.03c.112-.3.271-.588.413-.883.129-.276.253-.55.386-.826a30.913,30.913,0,0,1,1.66-2.715c.091-.125.182-.249.275-.372l.009.041c.007.059.014.119.02.178,0,.119,0,.234-.008.35-.254,2.4-.759,4.785-1.182,7.16-.46,2.55-.9,5.093-1.308,7.643q-.8,4.9-1.307,9.833c-.165,1.62-.235,3.251-.318,4.876-.082,1.608-.159,3.215-.241,4.823.006-.059.011-.118.017-.183a44.26,44.26,0,0,1-.664,5.5c.007-.029.014-.058.023-.086l-.039.162,0,.014,0-.011-.014.06c-.087.186-.177.372-.269.556a21.542,21.542,0,0,1-1.319,2.161q-.651.885-1.386,1.7c.084-.543.187-1.083.231-1.631.064-.825.076-1.649.076-2.479,0-1.667.065-3.315.194-4.97.169-1.911.4-3.812.583-5.718.206-2.061.365-4.122.507-6.189,0,.03,0,.06,0,.09.051-.631.106-1.261.151-1.892,0,.065-.006.13-.012.194.183-1.948.4-3.9.671-5.841.136-1,.3-1.99.466-2.985.125-.787.3-1.569.453-2.35.094-.395.194-.789.289-1.177.088-.348.147-.7.259-1.037.222-.7.439-1.408.661-2.109C59.569,133.732,59.814,133.1,60.058,132.47Zm-1.621-3.721q.231-.189.471-.368c-.069.116-.137.232-.2.35-.239.419-.458.842-.669,1.27a1.315,1.315,0,0,0-.32-.387,1.436,1.436,0,0,0-.125-.089Q58,129.126,58.437,128.749Z"/><path d="M103.256,136.321a23.5,23.5,0,0,0-1.849-1.832c-.654-.559-1.3-1.113-1.979-1.642s-1.39-1.025-2.1-1.514c-.66-.448-1.366-.825-2.061-1.207a17.852,17.852,0,0,0-2.079-.971,14.292,14.292,0,0,0-2.025-.69,7.832,7.832,0,0,0-2.868-.035,1.477,1.477,0,0,0-1.109.791,1.506,1.506,0,0,0-.993.1,1.193,1.193,0,0,0-.379.312A3.925,3.925,0,0,0,85.1,130a4.924,4.924,0,0,0-1.82,2.132A9.13,9.13,0,0,0,83.3,138.4c.636,2.079,1.548,4.075,2.373,6.083.592,1.432,1.089,2.9,1.573,4.369.46,1.539.908,3.084,1.294,4.64.03.121.059.242.088.362v0c.07.654.135,1.308.2,1.961.03.247.063.5.084.745.058,1.239.111,2.473.169,3.707.041,1.013.018,2.026.024,3.038,0,3.192-.206,6.372-.354,9.551-.059,1.255-.123,2.5-.094,3.751A18.273,18.273,0,0,0,89.7,182.98a13.563,13.563,0,0,0,4.242,5.563c.075.229.154.456.239.679a7.724,7.724,0,0,0,1.525,2.626,9.3,9.3,0,0,0,2.385,1.85,8.8,8.8,0,0,0,3.1,1.048,6.887,6.887,0,0,0,.763.041,7.651,7.651,0,0,0,2.134-.307,16.13,16.13,0,0,0,5.612-2.75c.054-.044.108-.089.163-.132a8.495,8.495,0,0,0,1.586-1.717,14.972,14.972,0,0,0,1.065-2q.231-.471.466-.94a21.6,21.6,0,0,0,4.639-9.594,23.609,23.609,0,0,0,.461-5.116,35.082,35.082,0,0,0,.658-5.6,26.9,26.9,0,0,0-.583-6.942,24.646,24.646,0,0,0-2.449-6.384,51.3,51.3,0,0,0-3.374-5.187c-1.961-2.7-3.946-5.394-5.983-8.032C105.352,138.805,104.363,137.5,103.256,136.321Zm-5.282,16.1c.014.043.027.087.04.132l.013.039-.011-.034a22.031,22.031,0,0,1,.556,2.2c.027.163.053.326.076.489l-.009-.025c-.324-.972-.653-1.938-.977-2.909.017.058.035.117.053.177-.408-1.312-.826-2.623-1.24-3.933a40.028,40.028,0,0,1,1.535,3.981Zm-1.29,5.9c.1.282.188.566.283.848-.095.208-.192.412-.283.618-.1-.76-.189-1.52-.286-2.281Q96.542,157.917,96.684,158.325ZM94.7,152.578a1.253,1.253,0,0,0-.193-.014,1.435,1.435,0,0,0-.173.011q-.222-.793-.447-1.587c-.394-1.407-.783-2.815-1.207-4.21l-.952-3.164a3.763,3.763,0,0,0,.36.295q.478,1.626.963,3.251c.542,1.816,1.106,3.619,1.681,5.423Zm-8.1-14.705-.069-.211c-.136-.468-.256-.936-.355-1.416-.054-.332-.093-.666-.116-1,0-.252,0-.5.018-.753.012-.118.027-.237.047-.358s.06-.251.1-.374c.022-.054.048-.105.071-.158a7.434,7.434,0,0,0,.106,1.467,29.455,29.455,0,0,0,1.013,4c.065.219.132.437.2.656C87.294,139.1,86.961,138.479,86.6,137.873Zm5.523,43.477a15.628,15.628,0,0,1-.4-1.64,25.192,25.192,0,0,1-.263-2.612c-.031-.832-.034-1.663-.016-2.493q.288,2.457.635,4.907c.118.813.224,1.631.348,2.45l.045.321C92.345,181.98,92.232,181.668,92.126,181.35Zm.57-24.02c.126.5.251,1,.379,1.495.065.847.126,1.7.191,2.543-.149-1.184-.3-2.369-.48-3.549C92.761,157.655,92.723,157.493,92.7,157.33Zm5.235,30.362q-.522-.284-1.024-.595c-.122-.407-.239-.815-.357-1.222a3.146,3.146,0,0,0,1.459.6,1.859,1.859,0,0,0,.193.016,5.4,5.4,0,0,0,.361.786c.02.034.042.068.064.1.032.218.063.441.1.665C98.462,187.922,98.19,187.823,97.931,187.692Zm4.357-28.5a5.3,5.3,0,0,0-.54-1.473c-.028-.047-.057-.093-.086-.14,0-.048,0-.095,0-.143q.015-.581-.017-1.163.738,1.736,1.353,3.516A4.966,4.966,0,0,0,102.288,159.2Zm-.4,27.129c-.122.458-.258.912-.407,1.357-.038.093-.076.185-.115.275-.012-.052-.023-.1-.034-.157a1.338,1.338,0,0,0-.1-1.388l-.182-.237-.013-.076v.006q-.075-.459-.135-.921c.107.183.22.365.329.551A1.405,1.405,0,0,0,101.887,186.326Zm-.975-20.275a1.153,1.153,0,0,0-.544.1c.07-.649.163-1.294.293-1.938l.017-.075c.019.076.038.151.058.227q.216.849.42,1.7Zm3.645,22.918c-.254.042-.508.065-.762.089a15.254,15.254,0,0,0,.615-1.9c.124-.416.228-.835.318-1.255-.014.151-.03.3-.047.448a4.57,4.57,0,0,0-.065,1.06,1.6,1.6,0,0,0,1.01,1.284c-.031.01-.061.026-.092.036C105.211,188.827,104.886,188.9,104.557,188.969Zm-.545-25.182c.039.291.076.582.109.874.095.866.218,1.731.277,2.6.031.4.062.8.092,1.206q-.1-.492-.2-.981c-.046-.213-.094-.426-.142-.637C104.137,165.824,104.1,164.8,104.012,163.787Zm4.172-13.087c.689,1.253,1.306,2.548,1.953,3.824.221.49.441.982.662,1.47.223.506.488,1.007.683,1.525.224.594.447,1.189.677,1.784.187.483.4.971.559,1.465.322,1.06.64,2.128.977,3.183q.491,1.845.834,3.729a34.923,34.923,0,0,1,.486,4.172c0-.066-.006-.13-.006-.195l.012.314-.117.615c-.307,1.236-.62,2.468-.967,3.694-.3,1.085-.679,2.143-1.028,3.211-.3.817-.607,1.629-.939,2.436-.3.742-.666,1.456-1.02,2.17-.283.537-.56,1.079-.84,1.618-.419.428-.859.832-1.315,1.219-.336.265-.68.513-1.037.746-.05.03-.1.055-.153.085a1.63,1.63,0,0,0,.108-.3c.041-.218.089-.436.118-.66.094-.694.212-1.4.271-2.1.082-.948.159-1.89.241-2.838.077-.848.065-1.708.095-2.556.023-.683.076-1.366.058-2.043-.052-2.073-.058-4.151-.217-6.218a53.292,53.292,0,0,0-.99-7.1q-.384-1.8-.917-3.56c-.011-.066-.023-.133-.034-.2l0,.032q-.091-.53-.185-1.059c.007.041.012.082.021.123-.307-1.75-.754-3.469-1.208-5.188-.223-.866-.535-1.714-.812-2.567-.247-.766-.566-1.514-.86-2.274-.589-1.537-1.325-3.015-2.049-4.5a32.265,32.265,0,0,0-2.768-4.587,44.21,44.21,0,0,0-2.867-3.5c-.905-1.02-1.82-2.027-2.755-3.018.185.084.376.155.557.247a18.679,18.679,0,0,1,1.824,1.1,22.284,22.284,0,0,1,1.8,1.451c.81.786,1.624,1.557,2.393,2.372.872.918,1.731,1.837,2.568,2.785-.048-.053-.095-.111-.136-.165.458.56.927,1.115,1.4,1.674.951,1.175,1.8,2.422,2.652,3.677.416.694.842,1.379,1.262,2.069C107.536,149.463,107.849,150.088,108.184,150.7Z"/><path d="M65.094,200.156c-.084.286-.159.575-.227.866q-.138.339-.261.683c-.107.3-.224.606-.324.912a3.3,3.3,0,0,0-.236,1.325,1.589,1.589,0,0,0,.86,1.261,1.933,1.933,0,0,0,1.46.064A11.339,11.339,0,0,0,68.78,204c.554-.342,1.107-.7,1.684-1.019.5-.275,1.01-.544,1.525-.8.515-.232,1.03-.457,1.568-.638.181-.05.362-.094.547-.129a3.2,3.2,0,0,1,.435-.043q.251-.007.507,0c.284.026.566.06.847.111.115.03.23.062.343.1a2.961,2.961,0,0,1,.333.157c.035.019.071.038.105.059a1.35,1.35,0,0,0,1.292,1.156H78c.232.246.455.5.675.759.53.618,1.054,1.237,1.578,1.855a10.61,10.61,0,0,0,1.555,1.566,4.013,4.013,0,0,0,2.208.925h.075a1.8,1.8,0,0,0,1.556-.9,7.47,7.47,0,0,0,.8-2.6,30.564,30.564,0,0,0-.012-5.965c-.1-1.572-.206-3.156-.424-4.717a70.122,70.122,0,0,0-1.979-9.733,11.6,11.6,0,0,0-.429-1.213,9.941,9.941,0,0,0-.73-1.508,6.035,6.035,0,0,0-2.262-2.073,7.541,7.541,0,0,0-1.749-.742,4.142,4.142,0,0,0-1.319-.088,3.526,3.526,0,0,0-1.23.371A6.235,6.235,0,0,0,74.18,180.6a18.361,18.361,0,0,0-1.868,2.924c-.127.244-.253.488-.375.727l.02-.044c-.5.969-.963,1.958-1.4,2.958-.66,1.525-1.313,3.057-1.991,4.576-.3.689-.63,1.366-.954,2.043-.341.718-.718,1.425-1.03,2.155A38.6,38.6,0,0,0,65.094,200.156Zm12.761-18.9.121-.01h.018q.039,0,.078.012c.095.025.188.054.283.085.237.095.469.2.7.307.162.091.321.186.479.283.188.136.368.274.543.423.086.085.172.168.252.259.064.08.126.163.184.248.1.177.2.357.286.541.21.476.4.946.578,1.436.587,2.041,1.053,4.116,1.461,6.2q-.007-.04-.012-.081c.248,1.425.477,2.856.636,4.3s.263,2.876.361,4.318c0-.039,0-.078,0-.113a39.253,39.253,0,0,1,.053,4.2c-.041.376-.092.739-.163,1.108-.035.133-.071.264-.11.4l-.079-.051c-.148-.114-.289-.232-.426-.353-.8-.791-1.516-1.681-2.254-2.533-.459-.531-.921-1.079-1.43-1.572.009-.152.019-.3.028-.453a23.86,23.86,0,0,0-.153-4.446c-.076-.7-.159-1.392-.244-2.088-.1-1.606-.231-3.213-.356-4.82-.071-.9-.159-1.8-.242-2.7-.047-.5-.1-1-.153-1.5-.029-.324-.047-.654-.088-.972a6.419,6.419,0,0,0-.165-.877c-.047-.164-.109-.324-.167-.484-.017-.319-.035-.633-.063-.953,0-.035-.008-.071-.014-.105Zm-1.926,7.059.087.813a1.421,1.421,0,0,0-.286.057Q75.831,188.747,75.929,188.312ZM73.6,198.689a3.193,3.193,0,0,0,.332.134c-.142.018-.283.041-.422.069C73.542,198.825,73.573,198.757,73.6,198.689Z"/><path d="M72.284,183.568c.009-.016.02-.032.028-.049l.02-.039Z"/><path d="M54.292,210.538c.031.05.059.1.09.152l0,.007C54.357,210.644,54.321,210.591,54.292,210.538Z"/><path d="M30.621,231.147l.018-.02c.018-.019.034-.04.052-.059C30.668,231.094,30.644,231.12,30.621,231.147Z"/><path d="M54.092,210.226c.017.026.033.054.051.081h0C54.127,210.28,54.11,210.253,54.092,210.226Z"/><path d="M116.437,202.443a10.438,10.438,0,0,0-.883,1.372c-.548,1.025-1.107,2.043-1.661,3.068a59.252,59.252,0,0,1-3.319,5.334v0l-.017.024,0,.006h0c-.757.838-1.507,1.683-2.265,2.519-.662.674-1.307,1.366-1.982,2.028-.635.625-1.289,1.231-1.954,1.832.032-.029.065-.055.1-.08-.343.283-.685.571-1.028.859-.266.148-.538.286-.813.418-.364.156-.728.3-1.1.421-.225.062-.45.114-.678.155-.15.024-.3.043-.456.054-.115,0-.23.008-.345.005.043,0,.085.006.123.011l-.129-.011h0a3.133,3.133,0,0,1-.344-.05c-.159-.04-.315-.084-.472-.135-.076-.03-.15-.064-.223-.1-.186-.111-.367-.226-.543-.347a17.6,17.6,0,0,1-1.422-1.21c-.3-.4-.605-.805-.9-1.21a3.626,3.626,0,0,0,.21-.774c.042-.27.053-.53.071-.8a1.305,1.305,0,0,0-1.766-1.23,3.983,3.983,0,0,0-.368.17c-.3-.389-.619-.758-.9-1.162q-.377-.544-.722-1.094a17.339,17.339,0,0,0-1.18-1.833,3.064,3.064,0,0,0-.66-.636,1.732,1.732,0,0,0-.96-.271,2.1,2.1,0,0,0-1.195.436,9.429,9.429,0,0,0-1.124.931c-1.29,1.226-2.514,2.53-3.762,3.81-.28.183-.557.37-.833.554-.636.418-1.266.847-1.9,1.278-1.141.771-2.281,1.559-3.443,2.305-.086.051-.167.1-.248.155a.58.58,0,0,1,.052-.034c-.5.311-1.007.629-1.508.942l.056-.032c-.152.093-.3.187-.456.285.053-.036.1-.065.147-.094l-.176.109.029-.021c-.037.026-.075.05-.114.074l.025-.015-.05.032-.007,0-.018.011.016-.009c-.533.28-1.044.609-1.56.911-.377.218-.748.436-1.125.654-1.042.594-2.078,1.189-3.1,1.807-.913.548-1.808,1.113-2.679,1.72l-.121.084a2.93,2.93,0,0,0-.269-.377A1.225,1.225,0,0,0,65,225.06a3.362,3.362,0,0,0-.342.2,54.036,54.036,0,0,0-3.243-4.97,14.962,14.962,0,0,0-2.726-2.827,11.512,11.512,0,0,0-1.054-.7q-.255-.476-.5-.955c-.88-1.726-1.73-3.477-2.748-5.124-.077-.129-.158-.257-.239-.383a2.145,2.145,0,0,0-1.435-1.176,2.088,2.088,0,0,0-1.136.158,3.942,3.942,0,0,0-1.284.972c-.412.448-.766.943-1.148,1.408-.43.529-.866,1.042-1.3,1.56-1.89,2.234-3.791,4.451-5.762,6.6-.845.848-1.665,1.722-2.529,2.551-.93.9-1.872,1.784-2.814,2.674-.807.76-1.614,1.525-2.409,2.3-.858.831-1.739,1.662-2.553,2.544l.01-.012c-.095.1-.183.2-.277.3.041-.046.088-.094.129-.141-.162.177-.328.354-.491.531l.032-.03c-.146.15-.288.305-.43.459l-.105.115c-.2.207-.392.421-.566.644a4.962,4.962,0,0,0-.7,1.043,1.767,1.767,0,0,0,.4,2.078c1.013.825,2.285-.017,3.251-.506,1.366-.695,2.709-1.437,4.063-2.155.821-.435,1.63-.891,2.442-1.34a1.2,1.2,0,0,0,.8-.325c.077-.073.145-.154.218-.231.278-.155.56-.3.838-.459,1.4-.778,2.814-1.543,4.251-2.256s2.9-1.45,4.367-2.147c-.034.016-.068.031-.1.045l.138-.06.033-.016-.025.012.146-.066.235-.109-.062.027.088-.039.077-.037-.036.018c.142-.063.285-.127.425-.195-.059.024-.112.053-.171.077.115-.054.231-.107.346-.158l-.057.028c.047-.02.092-.04.136-.062l.022-.009c.387-.159.778-.315,1.176-.445l.014,0a3.173,3.173,0,0,0-.054.314,2.146,2.146,0,0,0,0,.754,1.892,1.892,0,0,0,.177.43,1.279,1.279,0,0,0,1.866.424c.121-.1.232-.2.342-.306.375.5.739,1.009,1.093,1.529.342.565.678,1.131.993,1.714.293.554.561,1.123.831,1.689l-.025-.058.027.06c.017.035.033.07.05.1-.014-.024-.026-.05-.038-.076.451,1.025.887,2.055,1.339,3.08.4.889.772,1.8,1.248,2.649a12.226,12.226,0,0,0,.66,1.072,5.407,5.407,0,0,0,.73.913,3.491,3.491,0,0,0,.819.624,2.27,2.27,0,0,0,.759.212,2.82,2.82,0,0,0,2.114-1.025c.395-.359.777-.729,1.172-1.089.847-.782,1.694-1.559,2.575-2.307,1.209-.956,2.486-1.818,3.784-2.649.235-.146.471-.3.707-.443-.053.029-.1.064-.153.094.241-.153.483-.3.724-.454.514-.316,1.044-.609,1.569-.908.036-.02.073-.04.108-.062,1.095-.62,2.2-1.226,3.293-1.844l.209-.119a1.314,1.314,0,0,0,.208.026,2.717,2.717,0,0,0,1.8-1.071l.2-.2.156-.089c.774-.444,1.57-.832,2.366-1.225.624-.271,1.24-.54,1.883-.756.239-.069.475-.133.719-.184.137-.019.273-.035.412-.046.055,0,.111,0,.166,0s.091.012.136.021l.081.024.072.029q.1.057.2.117c.148.114.288.235.427.359.178.181.35.367.515.561l-.011-.016.022.027.095.114-.031-.035.045.054-.031-.036c.659.848,1.313,1.7,1.931,2.579.972,1.372,1.908,2.768,2.838,4.175.412.624.825,1.26,1.249,1.878.789,1.149,1.654,2.568,3.173,2.709,1.255.124,2.12-.954,2.909-1.766.548-.566,1.1-1.137,1.643-1.7.642-.66,1.29-1.307,1.943-1.949.455-.441.941-.85,1.42-1.266a1.316,1.316,0,0,0,1.394-.069,11.157,11.157,0,0,0,1.4-1.119c.353-.365.7-.736,1.025-1.125.132-.159.26-.322.391-.482.085-.042.163-.095.248-.135.346-.152.7-.287,1.049-.409.223-.066.446-.127.672-.179.219-.036.435-.065.657-.09.2-.006.407,0,.61.006.131.016.261.035.391.059s.257.065.382.105c.166.067.328.139.492.217.1.055.2.115.3.179a9.267,9.267,0,0,1,.757.622c.306.3.595.614.872.94a31.424,31.424,0,0,1,2.091,3.034c-.013-.021-.026-.043-.038-.065l.049.081.045.073-.041-.066q.458.761.9,1.52c1.708,2.944,3.386,5.906,5.076,8.856.812,1.425,1.631,2.844,2.438,4.269.765,1.349,1.472,2.739,2.273,4.069.294.5.582,1,.912,1.478a3.816,3.816,0,0,0,1.749,1.661,2,2,0,0,0,.536.079,1.353,1.353,0,0,0,.654-.162,1.7,1.7,0,0,0,.718-.777,4.155,4.155,0,0,0,.259-1.466,36.3,36.3,0,0,0-.065-4.87c-.129-1.637-.406-3.268-.665-4.887-.265-1.655-.613-3.292-.942-4.935-.648-3.162-1.531-6.277-2.479-9.362-.471-1.531-.937-3.074-1.484-4.582-.348-.96-.689-1.925-1.031-2.885-.259-.713-.571-1.4-.865-2.1-.318-.767-.657-1.523-1.011-2.272q-.245-.98-.486-1.96c-.195-.765-.389-1.531-.589-2.3-.118-.459-.253-.918-.359-1.383a6.547,6.547,0,0,0-.33-1.207,2.273,2.273,0,0,0-.618-.76,1.237,1.237,0,0,0-1.06-.259c-.175-.408-.356-.815-.536-1.219-.306-.7-.6-1.419-.972-2.09-.334-.619-.732-1.2-1.109-1.791-.055-.094-.105-.188-.152-.282a3.05,3.05,0,0,0-.323-.671,1.463,1.463,0,0,0-1.166-.66A1.745,1.745,0,0,0,116.437,202.443Zm.785,8.239.082-.036.065-.018.064-.009c.052,0,.1,0,.156,0l.164.022c.074.017.148.035.219.059s.144.058.215.092c.179.1.347.2.516.312.125.094.247.19.367.29l.051.06c.128.163.239.334.359.5-.031.043-.066.084-.095.128q-.786,1.023-1.567,2.052c-.07-.124-.14-.248-.209-.373a3.5,3.5,0,0,0-1.089-1.431,1.567,1.567,0,0,0-1-.265c-.017,0-.036.012-.053.014.287-.277.578-.552.878-.815.165-.131.335-.255.506-.376C116.972,210.816,117.092,210.745,117.222,210.682Zm.452-.059h.016l.037.01Zm8.56,23.032c.112-.475.247-.946.349-1.422.047-.228.1-.455.124-.683.375,1.477.758,2.956,1.118,4.439.082.34.16.681.238,1.022a12,12,0,0,0-.923-.966l-.033-.036a5.7,5.7,0,0,0-.888-2.25C126.224,233.724,126.23,233.69,126.234,233.655Zm-.363-3.942v-.007a3.907,3.907,0,0,0-.2-.831c.044-.25.081-.5.11-.752.007-.065.014-.13.02-.195q.276,1.112.553,2.221A1.313,1.313,0,0,0,125.871,229.713Zm-5.454-13.519.007.11q.061,1.038.166,2.075a1.47,1.47,0,0,0-.569-.335c-.119-.211-.239-.422-.358-.634C119.918,217.008,120.171,216.6,120.417,216.194Zm-5.168,8.935a4.883,4.883,0,0,0,.428-.322c.377-.323.731-.671,1.09-1.012l.077-.075c-.2.474-.405.948-.613,1.423-.055.131-.114.261-.171.391A6.594,6.594,0,0,0,115.249,225.129Zm-18.75,5.09a7.271,7.271,0,0,0-.33.842,4.1,4.1,0,0,0-.141.894l-1.042-1.568c.108-.04.216-.076.323-.127a3.835,3.835,0,0,0,1.031-.818l1.047-1.065-.435.917C96.805,229.606,96.646,229.907,96.5,230.219Zm-22.811-1.5c.218-.242.433-.487.652-.728l-.1.157c-.084.131-.172.263-.257.4C73.885,228.6,73.787,228.66,73.688,228.717Zm-17.83-9.23c.228.412.453.825.688,1.233a1.553,1.553,0,0,0-.874.174c.065-.312.129-.621.179-.938A2.05,2.05,0,0,0,55.858,219.487ZM62.215,234.3l-.21-.481c.041-.051.084-.1.123-.153a12.913,12.913,0,0,0,.754-1.172c.124-.213.245-.427.367-.642-.287.95-.557,1.9-.83,2.853C62.351,234.574,62.282,234.44,62.215,234.3Zm32.526-13.258c.2.146.387.293.584.438a1.96,1.96,0,0,0-.767.435l-.2.156C94.483,221.731,94.612,221.389,94.741,221.046Zm-28.554,9.96c.027,0,.048,0,.074,0-.149.243-.3.485-.449.728.077-.249.157-.5.236-.747A1.223,1.223,0,0,0,66.187,231.006Zm20.56-13.5c.372-.2.746-.405,1.129-.586.128-.057.256-.11.384-.163-.536.534-1.068,1.071-1.591,1.617A1.265,1.265,0,0,0,86.747,217.507Zm10.226,7.548-.378.395c.068-.182.135-.364.2-.549a9.7,9.7,0,0,0,.415-1.836c.236.305.479.608.731.9C97.618,224.332,97.3,224.7,96.973,225.055Zm15.6-10.024c.456-.459.9-.928,1.354-1.4-.074.269-.13.54-.19.81.012-.053.03-.112.041-.171-.1.459-.181.917-.253,1.379-1.427,1.829-2.836,3.676-4.246,5.521l.336-.623c.312-.571.642-1.137.931-1.719a7.339,7.339,0,0,0,.706-1.938,3.925,3.925,0,0,0,.053-.593Q111.944,215.669,112.576,215.031Zm-22.36-1.151a5.788,5.788,0,0,0-.747-.033,5.186,5.186,0,0,0-.68.068c.292-.292.583-.583.887-.861C89.861,213.325,90.038,213.6,90.216,213.88ZM61.951,229.236c-.161.28-.322.558-.481.839q0-.316.01-.633c0-.2,0-.4,0-.595A2.553,2.553,0,0,0,61.951,229.236Zm-3.839-5.919.084.134c-.012-.021-.024-.042-.038-.063.071.11.139.223.207.331l.061.095.029.047-.006-.011.023.037c.056.089.112.178.167.267l-.007-.014.036.058c.021.034.042.068.064.1l-.024-.035c.062.1.126.2.188.3-.217.142-.425.3-.625.461l-.105.085c-.01-.331-.021-.662-.042-.992-.018-.29-.037-.588-.063-.884l.046.075-.011-.017Zm-10.492.152c-.944.462-1.884.934-2.825,1.4q.594-.783,1.187-1.566l1.485-1.951-.013.066a1.236,1.236,0,0,0,1.515,1.39l-.212.1c.059-.024.112-.054.171-.077C48.486,223.033,48.056,223.257,47.62,223.469Zm1.78-.859a1.127,1.127,0,0,0,.25-.223c.152-.192.3-.387.443-.585-.033.17-.051.344-.071.518Zm36.976-.146.368-.39a1.815,1.815,0,0,0,.061.362C86.662,222.442,86.519,222.445,86.376,222.464Zm2.923.659a16.952,16.952,0,0,0,1.359-1.195c.353-.359.7-.719,1.054-1.078.184-.189.37-.378.556-.568l-.3.792c-.253.666-.507,1.337-.766,2.008-.123.318-.235.636-.359.948a4.134,4.134,0,0,0-.145.4A7.353,7.353,0,0,0,89.3,223.123Zm2.957,3.337a1.5,1.5,0,0,0,.28-.039c.059-.018.118-.036.177-.059l-.037.012a4.064,4.064,0,0,0,.743-.318c.064-.034.126-.071.187-.109-.053.138-.1.277-.157.415-.136.359-.3.713-.43,1.071L93,227.5c-.126-.176-.244-.356-.371-.531Zm5.619,8.182c-.316-.4-.61-.823-.9-1.249a1.306,1.306,0,0,0,1.246-.295,16.45,16.45,0,0,0,1.667-1.784c.47-.614.907-1.239,1.343-1.87l-.037.057c.067-.1.135-.192.2-.289l-.015.023c-.3.495-.606,1-.907,1.49-.412.684-.777,1.39-1.165,2.079a1.357,1.357,0,0,0-.15.915c-.367.376-.733.753-1.11,1.118C97.994,234.774,97.934,234.708,97.875,234.642Zm28.044,5.155c-.842-1.465-1.678-2.944-2.52-4.41s-1.667-2.962-2.574-4.392c.036.052.065.1.1.152-.223-.359-.447-.712-.671-1.071.015.026.031.052.047.078a23.265,23.265,0,0,0-1.56-2.2c-.045-.055-.092-.108-.138-.163.171-.171.342-.339.508-.518.054-.059.108-.117.163-.175.405,1.071.8,2.147,1.281,3.193a6.954,6.954,0,0,0,.587,1.092,2.712,2.712,0,0,0,.865.789l.048.028a1.769,1.769,0,0,0,.736,1.008,1.492,1.492,0,0,0,.9.208l0,.028a2.359,2.359,0,0,0,.575,1.965l.019.034c.031.074.06.148.085.225-.012-.036-.023-.073-.032-.11.013.042.025.083.037.126l.011.033-.011-.031c.114.41.191.843.34,1.232a2.457,2.457,0,0,0,.583.9,12.238,12.238,0,0,1,1,1.049c.2.254.376.516.555.784a16.864,16.864,0,0,1,.955,1.783c-.006-.018-.013-.035-.019-.05.591,1.328,1.079,2.7,1.556,4.071.1.3.2.592.3.889Q127.8,243.059,125.919,239.8ZM118.8,207.77a3.958,3.958,0,0,0-1.945-.476c.074-.138.151-.274.226-.411.213-.389.419-.784.63-1.175l.113.172c-.023-.037-.045-.072-.066-.11.028.045.056.09.083.136v0A19.58,19.58,0,0,1,118.8,207.77Z"/><path d="M35.491,268.139c-.021-.032-.041-.066-.061-.1L35.4,268C35.432,268.045,35.461,268.093,35.491,268.139Z"/><path d="M33.542,265.048c-.024-.038-.046-.078-.07-.117l-.019-.03C33.483,264.948,33.512,265,33.542,265.048Z"/><path d="M85.61,63.987l0,0L85.6,64Z"/><path d="M275.065,149.07c.015-.017.033-.031.048-.048l.027-.028Z"/><path d="M358.381,153.549c0-.018,0-.036,0-.054a2.208,2.208,0,0,0-2.037-1.46,19.587,19.587,0,0,0-3.045.059c-.6.05-1.19.115-1.783.182-1.521-.1-3.046-.126-4.572-.121-1.625.012-3.257.065-4.882.147.065-.006.13-.006.195-.012-.719.03-1.443.054-2.162.095.065-.006.13-.006.2-.012q-1.233.038-2.465.082c-1.548-.146-3.094-.248-4.648-.259-.607-.006-1.213-.006-1.814-.006-1.721,0-3.441,0-5.144-.11a22.676,22.676,0,0,1-2.3-.33c-.446-.1-.885-.221-1.318-.365-.373-.133-.731-.3-1.09-.465-.059-.117-.13-.229-.186-.348-.253-.587-.465-1.179-.66-1.787-.426-1.421-.753-2.883-1.052-4.334-.153-.772-.271-1.554-.465-2.32a3.789,3.789,0,0,0-.937-1.808,2.806,2.806,0,0,0-1.7-.742,5.02,5.02,0,0,0-2.161.36c-.695.252-1.372.541-2.038.859-.745.355-1.479.71-2.218,1.071a10.5,10.5,0,0,0-1.988.733q-1.485.706-2.956,1.449c-.241.121-.478.247-.717.37-.415.175-.825.36-1.242.529-1.171.471-2.37.851-3.564,1.258-.269.077-.538.151-.807.217-.206.03-.41.053-.617.073-.028-.991.015-1.973.069-2.96.018-.288.018-.577.023-.865a6.549,6.549,0,0,0-.135-1.7,2.983,2.983,0,0,0-.659-1.331c-.014-.014-.032-.026-.046-.04.145-.5.3-.988.46-1.48.231-.645.463-1.295.695-1.938-.018.058-.042.117-.065.182.265-.724.559-1.437.86-2.143.147-.354.294-.7.453-1.042a11.737,11.737,0,0,0,.813-1.938,1.469,1.469,0,0,0-1.19-1.837,2.009,2.009,0,0,0-1.024.053,3.247,3.247,0,0,0-.866.465c-.668.5-1.341,1-1.98,1.541-.627.5-1.254,1.013-1.872,1.535-.8.658-1.594,1.31-2.39,1.974l.012-.009-.027.022h0l-.051.041.026-.022,0,0-.023.02c-.054.044-.107.088-.162.131l.074-.058c-.068.057-.134.113-.2.17l.045-.039-.185.155.034-.028-.038.031-.109.093c.034-.03.068-.06.1-.089-.086.068-.171.138-.253.209-.119.1-.235.194-.351.291l0,0-.02.017-.127.107.035-.031-.718.6.039-.034c-.058.047-.117.095-.173.142.023-.019.046-.038.069-.055l-.1.079-.045.039.039-.034-.381.314.065-.051-.129.1.011-.009-.028.023-.065.054-.038.031.037-.032-.07.059-.054.041.021-.015c-1.058.876-2.085,1.782-3.106,2.688l.077-.063c-.193.164-.374.348-.56.523-.424.406-.848.813-1.278,1.219-.521.5-1.078.979-1.571,1.509l-.024.026-.083.09.018-.02-.1.108.052-.059-.122.131.052-.06-.625.673c-.828.526-1.638,1.077-2.421,1.673-.742.559-1.443,1.166-2.15,1.773-.288.247-.547.511-.824.771s-.564.52-.829.8c-.663.711-1.333,1.409-1.95,2.156-.271.335-.566.653-.819,1.007-.33.447-.659.9-1,1.354-.989,1.36-1.872,2.785-2.732,4.234a35.356,35.356,0,0,0-2.22,4.316,36.156,36.156,0,0,0-1.833,5.816c-.084.227-.182.447-.261.677a19.948,19.948,0,0,0-1.243,6.53,26.47,26.47,0,0,0,.212,3.283,42.246,42.246,0,0,0,.31,6.547,28.718,28.718,0,0,0,1.731,7.007,23.412,23.412,0,0,0,3.445,5.953,30.222,30.222,0,0,0,4.94,4.876,33.26,33.26,0,0,0,4.346,2.938c.777.436,1.543.919,2.35,1.29.541.253,1.077.506,1.613.753.247.118.483.242.736.337.854.323,1.7.7,2.573.965.842.259,1.7.56,2.562.736-.077-.017-.159-.03-.236-.047.953.211,1.9.42,2.86.593a21.143,21.143,0,0,0,4.895,2.345,25,25,0,0,0,6.807,1.19q.618.027,1.231.026c.9,0,1.809-.037,2.72-.073.831-.03,1.649-.124,2.48-.218a41.5,41.5,0,0,0,6.845-1.333c.578-.011,1.156-.025,1.734-.039a1.53,1.53,0,0,0,1.428-1.015q.627-.242,1.245-.5,2.058-.883,4.028-1.949c.818-.442,1.672-.848,2.461-1.349l-.11.071c.71-.421,1.414-.852,2.124-1.278.483-.294.978-.583,1.449-.9q1.315-.874,2.626-1.761c.677-.459,1.313-.983,1.961-1.477a31.533,31.533,0,0,0,3.509-3.057,17.679,17.679,0,0,0,3.834-5.458c.771-1.937,1.136-4.252-.1-6.095a4.9,4.9,0,0,0-.65-.782,4.11,4.11,0,0,0-1.516-1.709,29.133,29.133,0,0,0-3.61-1.813c-.944-.441-1.888-.888-2.817-1.36-.448-.243-.886-.5-1.308-.782-.072-.054-.139-.112-.209-.167.39-.385.781-.768,1.168-1.156.736-.736,1.478-1.472,2.214-2.208,1.714-1.713,3.468-3.38,5.176-5.1.559-.559,1.16-1.089,1.737-1.636.524-.5,1.054-1,1.584-1.49q1.874-1.731,3.751-3.463c1.6-1.474,3.157-2.982,4.715-4.492l.112-.075c.907-.571,1.779-1.214,2.673-1.813a25.851,25.851,0,0,0,2.232-1.673,10.878,10.878,0,0,0,1.342-1.266,3.468,3.468,0,0,0,.63-1.354A1.492,1.492,0,0,0,358.381,153.549Zm-42.449-10.97c.066-.01.132-.018.2-.026.059.222.107.446.15.671.024.133.045.261.07.4l-.035-.189c.165.91.329,1.821.52,2.725a12.96,12.96,0,0,0-2.161-3.163c.306-.123.614-.239.926-.342C315.711,142.623,315.82,142.6,315.932,142.579Zm-3.437,4.608-.056-.037c.016.011.032.019.048.03Zm-.639-.341-.072-.014c.019,0,.039,0,.058.008Zm-21.3-7.465.041-.031.012-.01-.006.006.021-.016c.027-.023.054-.044.079-.067l-.039.034c.058-.046.115-.092.169-.14l-.015.012.274-.224c-.034.026-.065.05-.095.075l.173-.143-.025.021c.194-.159.389-.324.589-.483l-.052.038.173-.141-.039.033.6-.5a.655.655,0,0,0-.053.039l.143-.119-.031.027c.117-.1.234-.192.348-.288l.194-.159.009-.008c-.045.036-.086.071-.127.1.066-.057.136-.113.206-.17l0,0-.026.018c.059-.046.118-.094.171-.141-.026.023-.052.045-.078.069l.045-.037.08-.068-.082.071c.777-.641,1.554-1.277,2.332-1.919l-.02.017-.037.031c-.03.025-.062.05-.091.076l.125-.1.436-.349a43.746,43.746,0,0,0-1.518,4.468c-.133.062-.266.126-.395.2a2.349,2.349,0,0,0-.728-.466,3.379,3.379,0,0,0-2.361.183c-.184.061-.368.131-.552.2.047-.041.095-.081.141-.122l-.049.04.061-.052-.068.058-.016.012-.016.013.006,0-.008.006c.039-.034.078-.067.117-.1Zm-18.06,53.788c-.182-.079-.365-.156-.542-.243-.368-.2-.728-.414-1.076-.644l.017.012-.02-.014c-.049-.032-.1-.065-.145-.1.04.025.078.049.114.075-.313-.231-.613-.476-.908-.732-.314-.3-.609-.606-.9-.926-.111-.134-.219-.271-.325-.409a12.118,12.118,0,0,0-.229-1.428c-.07-.383-.159-.766-.247-1.149-.212-.924-.43-1.849-.654-2.768q-.123-.523-.245-1.046-.021-.281-.045-.562c-.012-.49-.028-.98-.045-1.465-.012-.377-.041-.76-.029-1.131.028-.987.063-1.968.086-2.955.061-.776.133-1.548.2-2.323-.028.923-.022,1.852.018,2.766.047,1.125.1,2.249.259,3.368a27.258,27.258,0,0,0,1.737,6.813A17.743,17.743,0,0,0,272.493,193.169Zm16.988-7.265-.064.053-.03.025.025-.021-.038.032c.018-.014.036-.028.055-.04-.109.087-.215.172-.32.259l.013-.012-.032.028c-.036.029-.073.059-.109.09l.014-.011c-.052.043-.1.087-.158.13.032-.026.061-.052.091-.078l-.137.116-.01.008.007-.006-.3.253.007-.006-.012.01-.135.114.07-.061c-.135.11-.272.223-.406.331l.024-.016q-.056.045-.111.093c-.069.055-.136.113-.2.168l.05-.038-.3.247c.047-.041.1-.083.147-.124l-.215.176c-1.584,1.2-3.147,2.409-4.823,3.482l.033-.018-.055.032-.1.068q.036-.025.072-.048c-.1.061-.2.116-.305.176.011-.033.018-.066.029-.1.261-.681.568-1.345.9-2,.016-.028.033-.055.048-.083q.855-.63,1.709-1.262c.542-.406,1.107-.777,1.673-1.154.732-.492,1.46-.985,2.2-1.466,1.128-.675,2.255-1.352,3.356-2.065.308-.175.615-.354.922-.532q-1.747,1.711-3.618,3.29Zm-8.455-37.321.017-.018-.017.019c.07-.074.143-.152.215-.231q.72-.773,1.44-1.55c.422-.287.84-.576,1.27-.852,1.1-.667,2.233-1.305,3.383-1.9-2.209,1.56-4.356,3.213-6.487,4.874-.131.1-.257.212-.386.318C280.65,149.021,280.838,148.8,281.026,148.583Zm.689,54.972c-1.436-.79-2.85-1.609-4.2-2.537.023.017.047.034.069.052-.068-.048-.136-.1-.2-.145h0a34.979,34.979,0,0,1-3.131-2.541,29.076,29.076,0,0,1-2.175-2.281,10.386,10.386,0,0,0,3.787.53,8.83,8.83,0,0,0,1.441,2.5,14.594,14.594,0,0,0,2.944,2.668c.278.2.559.388.844.575a16.081,16.081,0,0,0,1.3,1.5C282.165,203.769,281.94,203.663,281.715,203.555Zm33.71,5.172.028-.008-.075.024-.131.041.07-.023q-1,.3-2.01.555c-.263,0-.527-.009-.79-.015q.489-.112.975-.234c1.244-.313,2.494-.616,3.729-.965Q316.332,208.436,315.425,208.727Zm4.329-4.943-.041.014-.036.011a.5.5,0,0,1-.055.017l.023-.008-1.044.322c.024-.006.048-.013.071-.021l-.764.238.024-.007-.111.034-.1.031.027-.009-.289.089.027-.009a92.185,92.185,0,0,1-9.6,2.256c-1.109.165-2.207.347-3.317.47-.56.059-1.113.13-1.673.165s-1.115.058-1.673.1c-.405-.121-.809-.247-1.212-.375-1.378-.436-2.75-.913-4.134-1.342l.016,0-.057-.017.194.07c-.159-.057-.322-.116-.486-.173.029.01.057.019.086.026-.522-.189-1.049-.372-1.576-.56-.138-.051-.276-.1-.414-.147l.194.071-.195-.069c-.037-.015-.076-.029-.114-.043-1.192-.451-2.367-.936-3.536-1.442-.507-.218-1.013-.436-1.513-.665-.594-.275-1.2-.526-1.782-.826-.71-.37-1.429-.735-2.145-1.1l.034.019-.063-.034-.1-.048h0l.051.025.011,0c.015.008.031.015.045.024l.011,0-.115-.066a1.256,1.256,0,0,0-.059-1.079c.262.05.523.115.786.156a32.936,32.936,0,0,0,6.59.365c-.065.006-.124.006-.189.012.195-.012.389-.018.583-.03-.065.006-.129.006-.188.012q.588-.025,1.177-.055a32.466,32.466,0,0,0,4,.42,33.362,33.362,0,0,0,7.095-.489c.889-.153,1.778-.371,2.668-.565.728-.164,1.467-.366,2.186-.589-.028.008-.056.018-.084.029.818-.235,1.631-.494,2.438-.759a17.253,17.253,0,0,0,3.014-1.178,1.439,1.439,0,0,0-1.03-2.662c-1.332.306-2.642.688-3.987.958l-.081.014q-1.443.237-2.885.489c-1.916.245-3.826.508-5.748.724-1.861.218-3.727.382-5.594.558-.771.033-1.543.059-2.316.089q-.569-.1-1.135-.223l.182.035a40.067,40.067,0,0,1-4.663-1.352c-1.315-.481-2.6-1.034-3.854-1.638a37.44,37.44,0,0,0,3.791-2.564c.675-.516,1.375-1.006,2.029-1.547l.02-.02c1.308-1.077,2.621-2.155,3.845-3.321s2.432-2.3,3.534-3.568a22.031,22.031,0,0,0,1.619-2.061c.43-.63.907-1.408.494-2.173a1.782,1.782,0,0,0-.758-.744c.047-.04.1-.079.144-.119.377-.33.748-.66,1.089-1.019a3.743,3.743,0,0,0,.8-1.03,1.926,1.926,0,0,0,.165-1.255,1.67,1.67,0,0,0-.53-.889,2.547,2.547,0,0,0-2.184-.277,17.822,17.822,0,0,0-2.462.725,22.21,22.21,0,0,0-4.487,2.261c-.371.247-.771.477-1.13.748s-.7.529-1.054.794a18.545,18.545,0,0,0-1.773,1.567c-.677.659-1.319,1.342-1.961,2.049-.559.618-1.071,1.283-1.6,1.931a24.427,24.427,0,0,0-1.6,2.273c-.14.222-.278.444-.413.668-.477.393-.949.794-1.407,1.211-.524.477-1.054.942-1.548,1.448-.274.281-.547.573-.807.879q-.244-.213-.483-.434a26.932,26.932,0,0,1-1.968-2.1,24.3,24.3,0,0,1-1.547-2.157,23.125,23.125,0,0,1-1.219-2.279c-.263-.6-.5-1.216-.7-1.846-.184-.607-.33-1.221-.453-1.842-.014-.08-.027-.159-.039-.239q-.018-.289-.033-.581c0,.071.006.135.006.206-.05-1.117-.067-2.236-.035-3.353.043-.317.094-.632.154-.95a21.567,21.567,0,0,1,.625-2.192,27.1,27.1,0,0,1,1.254-2.816,31.33,31.33,0,0,1,1.814-3,30.773,30.773,0,0,1,2.291-2.834,38.737,38.737,0,0,1,3.35-3.1,1.207,1.207,0,0,0,.646-.769,1.264,1.264,0,0,0-1.184-1.595c-.683,0-1.16.535-1.649.942-.388.324-.777.659-1.148,1a30.5,30.5,0,0,0-4.743,5.414q.205-.689.445-1.37a23.964,23.964,0,0,1,1.04-2.374,25.055,25.055,0,0,1,1.571-2.584,32.925,32.925,0,0,1,2.454-3.037,58.894,58.894,0,0,1,5.007-4.587l-.027.023c.972-.741,1.908-1.531,2.885-2.261,1.2-.9,2.4-1.8,3.622-2.673q1.88-1.352,3.791-2.661c.2.736.392,1.473.619,2.2.106.325.224.642.348.961a4.71,4.71,0,0,0,1,1.7,4.352,4.352,0,0,0,1.069.771,3.919,3.919,0,0,0,.574.725,3.258,3.258,0,0,0,1.442.842,4.985,4.985,0,0,0,2.126.082,10.512,10.512,0,0,0,2.3-.742c.724-.324,1.442-.671,2.155-1.024.958-.468,1.905-.946,2.862-1.409.448-.2.892-.4,1.336-.605l-.171.082c.5-.216,1.006-.414,1.522-.585l.011,0,.163-.054c-.027.011-.053.02-.081.029.126-.035.252-.064.378-.092.217-.035.433-.063.651-.083.092,0,.184.006.277.011s.2.026.305.044l.186.054c.067.026.132.055.2.085.09.05.176.107.262.165.053.04.106.083.157.124.129.127.254.256.376.393.162.207.308.417.449.636a19.549,19.549,0,0,1,.942,1.826,8.965,8.965,0,0,0,4.174,4.405,10.878,10.878,0,0,0,2.44.777,5.425,5.425,0,0,0,.872.616,8.109,8.109,0,0,0,2.868.942,16.223,16.223,0,0,0,2,.129c.871.013,1.748.013,2.62-.006,1.543-.023,3.074-.088,4.611-.14.812-.03,1.625-.054,2.437-.083.836-.027,1.682-.029,2.514-.083h-.04l.1,0,.1-.008-.054.006c.834-.04,1.663-.085,2.492-.129-.065,0-.136.006-.2.006,1.012-.046,2.023-.136,3.031-.242.3.023.6.052.894.068,2.278.117,4.542.146,6.817.058-.052.08-.105.16-.159.239a20.669,20.669,0,0,1-1.4,1.7q-.394.415-.806.81c-.737.478-1.464.97-2.2,1.45-1,.623-1.962,1.311-2.944,1.96-.483.318-.942.671-1.413,1s-.954.654-1.408,1c-.942.718-1.89,1.436-2.808,2.185-.954.776-1.879,1.6-2.815,2.4l.052-.04c-.7.585-1.34,1.249-2,1.871-.577.542-1.119,1.119-1.672,1.69-.595.618-1.178,1.243-1.749,1.885-.359.4-.719.794-1.066,1.2a12.2,12.2,0,0,0-.942,1.207,6.416,6.416,0,0,0-.766,1.319,5.252,5.252,0,0,0-.351,2.329c-.037.038-.075.074-.112.113-.359.371-.712.747-1.054,1.136-.33.371-.677.742-.972,1.142a5.511,5.511,0,0,0-1.189,2.673,3.084,3.084,0,0,0,.748,2.261c1.16,1.285,3.038,1.59,4.652,1.938l-.037-.01c.287.062.574.126.861.187-.059-.012-.118-.03-.176-.042.211.048.417.089.63.136l-.177-.036c.683.148,1.372.289,2.055.448.712.171,1.419.365,2.137.513-.058-.013-.117-.024-.176-.036.114.03.225.071.339.1l-.312.183a19,19,0,0,0-1.931,1.242,9.226,9.226,0,0,0-1.649,1.631,10.034,10.034,0,0,0-1.089,1.826c-.273.563-.529,1.131-.812,1.689-.164.3-.34.593-.529.879-.176.233-.357.455-.549.671-.237.243-.481.471-.734.694a17.853,17.853,0,0,1-1.551,1.125,22.131,22.131,0,0,1-2.034,1.094c-1.357.616-2.769,1.121-4.177,1.605Zm14.256-7.8c.056-.068.11-.139.169-.205.149-.148.3-.288.463-.428.105-.081.219-.148.325-.226Q334.492,195.558,334.01,195.983ZM331.835,185.6c.512.265,1.03.5,1.555.742,1.384.633,2.791,1.206,4.151,1.892l-.03-.014c.2.108.4.224.59.345-.014.05-.03.1-.046.151s-.045.113-.07.169c-.052.093-.108.184-.164.274-.587-.215-1.181-.412-1.78-.582-.853-.242-1.719-.471-2.585-.677-.665-.159-1.33-.318-2-.477-1.129-.266-2.264-.516-3.365-.883-.147-.057-.289-.117-.431-.185a3.924,3.924,0,0,1-.343-.21c.053.041.106.077.159.118a2.086,2.086,0,0,1-.219-.16l-.017-.02-.025-.037v0l.019.03-.027-.052c-.009-.025-.017-.051-.026-.076.009-.035.02-.069.031-.1.044-.1.092-.209.143-.311.1-.185.207-.362.321-.538.394-.519.834-1,1.277-1.484.086.091.167.186.258.271A11.44,11.44,0,0,0,331.835,185.6Z"/><path d="M295.594,131.479l.01-.008,0,0Z"/></svg>