<svg xmlns="http://www.w3.org/2000/svg" width="229.385" height="336.877" viewBox="0 0 229.385 336.877"><path d="M26.246,124.711c.029-.043.06-.083.089-.125l.035-.052Z"/><path d="M46.856,133.984h0c.024-.065.047-.13.071-.194Z"/><path d="M49.358,139.029c-.009.035-.021.07-.03.106l-.023.088C49.323,139.159,49.34,139.094,49.358,139.029Z"/><path d="M51.5,130.841c.234-.79.463-1.574.692-2.364a37.986,37.986,0,0,1,1.29-3.732,30.227,30.227,0,0,1,1.4-2.867l-.036.057.06-.1.04-.071-.02.038a26.493,26.493,0,0,1,1.676-2.454c.54-.684,1.114-1.337,1.706-1.973.166-.122.329-.248.495-.37q.981-.717,1.97-1.426c2.218-1.336,4.432-2.682,6.615-4.076-.011,0-.017.006-.029.012,1.984-1.251,3.941-2.566,5.9-3.875,1.147-.655,2.292-1.309,3.458-1.934q4.6-2.474,9.309-4.746,2.571-1.246,5.129-2.515c.854-.418,1.684-.871,2.526-1.307.66-.341,1.325-.677,1.973-1.048,1.066-.607,2.131-1.2,3.2-1.808.712-.406,1.4-.865,2.1-1.3,1.749-1.09,3.474-2.208,5.2-3.345,2.909-1.926,5.8-3.874,8.65-5.883,1.713-1.212,3.427-2.414,5.158-3.6,1.549-1.072,3.139-2.079,4.729-3.092-.065.042-.136.089-.2.13,1.222-.722,2.461-1.4,3.743-2a22,22,0,0,1,2.228-.876c.56-.164,1.125-.312,1.7-.423.365-.054.736-.095,1.107-.118a10.31,10.31,0,0,1,1.042.029c.289.035.577.077.86.13.265.065.518.141.771.224.377.141.748.294,1.119.471a16.381,16.381,0,0,1,1.508.918,24.687,24.687,0,0,1,1.925,1.561c2.4,2.2,4.528,4.757,7.267,6.547q.708.462,1.458.855a30.377,30.377,0,0,0,8.982,4.646,19.893,19.893,0,0,0,7.655,1.184,15.475,15.475,0,0,0,3.933-.825,19.315,19.315,0,0,0,3.191-1.519,22.708,22.708,0,0,0,5.689-4.858,29.675,29.675,0,0,0,4.21-6.477,22.55,22.55,0,0,0,2.22-7.508,18.654,18.654,0,0,0-.9-7.9,16.183,16.183,0,0,0-4.057-6.371,22.156,22.156,0,0,0-6.371-4.164,31.849,31.849,0,0,0-3.74-1.383,30.592,30.592,0,0,0-3.056-.79c-.405-.08-.807-.155-1.211-.232a29.416,29.416,0,0,0-5.678-1.473c-.63-.1-1.254-.188-1.878-.282-.371-.054-.731-.118-1.1-.154.036,0,.071.006.106.006-.882-.082-1.763-.177-2.645-.243-.3-.04-.592-.086-.888-.125-1.4-.188-2.8-.388-4.2-.659-.383-.095-.76-.2-1.131-.324-.194-.077-.383-.153-.565-.236-.1-.057-.2-.118-.3-.177-.014-.059-.027-.118-.038-.178-.027-.234-.042-.464-.05-.7.007-.231.024-.457.046-.684.064-.367.144-.724.232-1.086a16.266,16.266,0,0,1,.656-1.87l0,.006a57.6,57.6,0,0,1,3.078-5.832c.624-1.065,1.265-2.124,1.859-3.207q.6-1.086,1.2-2.173c.295-.536.554-1.1.831-1.648.447-.907.848-1.82,1.248-2.745.412-.942.742-1.907,1.089-2.873.3-.836.5-1.725.724-2.591a19.725,19.725,0,0,0,.672-3.921,11.655,11.655,0,0,0-.23-3.5,11.1,11.1,0,0,0-1.442-3.522,11.619,11.619,0,0,0-2.3-2.644,16.722,16.722,0,0,0-3.686-2.308,11.7,11.7,0,0,0-1.955-1.632A8.42,8.42,0,0,0,142.784.22a11.886,11.886,0,0,0-3.363,1.431c-.188.12-.366.256-.55.381a16.631,16.631,0,0,0-5.4,2.311,19.447,19.447,0,0,0-5.3,5.264,27.148,27.148,0,0,0-3.386,7.149c-.477,1.548-.872,3.121-1.225,4.7-.212.965-.453,1.931-.648,2.909-.377,1.925-.754,3.851-1.148,5.776-.177.842-.336,1.69-.542,2.526-.252,1.013-.493,2.025-.754,3.038-.652,2.128-1.29,4.255-2.135,6.313-.427,1-.9,1.973-1.416,2.927q-1.32,1.3-2.678,2.572c-.9.842-1.808,1.684-2.727,2.515-.806.73-1.643,1.43-2.473,2.131-.9.719-1.778,1.455-2.673,2.173-.4.321-.791.648-1.187.972-.44.33-.879.663-1.322.992q-4.878,3.611-9.8,7.159c-1.138.768-2.273,1.542-3.419,2.3-3.186,2.1-6.35,4.229-9.519,6.349-.755.444-1.522.872-2.282,1.306-3.144,1.778-6.371,3.4-9.521,5.181-1.6.9-3.192,1.814-4.788,2.721-2.537,1.437-5.046,2.9-7.69,4.127a58.479,58.479,0,0,1-6.177,2.32q-.936.3-1.872.619h-.124c-.224,0-.442-.006-.659,0a21.632,21.632,0,0,1-2.321-.065l.2.018c-.128-.008-.254-.021-.38-.032a69.124,69.124,0,0,1-6.887-1.176c.012,0,.024.006.036.006-.536-.135-1.078-.247-1.6-.412-3.8-1.166-7.513-2.608-11.406-3.45a21.892,21.892,0,0,0-8.09-.5,15.847,15.847,0,0,0-3.734,1.03,22.117,22.117,0,0,0-3.109,1.632,21.927,21.927,0,0,0-5.629,4.864c-.126.16-.233.335-.354.5a13.925,13.925,0,0,0-2.26,1.97,9.329,9.329,0,0,0-1.926,3.2A10.55,10.55,0,0,0,0,99.532,11.267,11.267,0,0,0,1.219,104.4,11.606,11.606,0,0,0,2.38,108.02a11.328,11.328,0,0,0,2.132,2.8,13.9,13.9,0,0,0,6.336,3.191c1.166.289,2.349.572,3.533.772.948.159,1.89.329,2.844.459.433.059.868.1,1.3.149l.423.076c2.007.344,4.036.463,6.018.947.411.115.817.243,1.214.4.28.125.554.261.827.406.2.122.389.25.577.389a8.233,8.233,0,0,1,.627.553c.163.173.316.35.463.53q.246.342.462.7c.117.218.224.436.324.659.016.044.028.088.043.131-1.057,1.468-2.141,2.921-3.17,4.411-.623.895-1.225,1.791-1.8,2.716a19.245,19.245,0,0,0-1.366,2.632,22.674,22.674,0,0,0-1.194,3.351,33.137,33.137,0,0,0-1.7,3.164,31.909,31.909,0,0,0-2.4,7.537,20.5,20.5,0,0,0-.289,7.6,8.607,8.607,0,0,0,3.592,5.8,9.078,9.078,0,0,0,4.016,1.352,7.666,7.666,0,0,0,2.285,1.322,9.114,9.114,0,0,0,3.093.579q.1,0,.2,0c5.017-.123,9.422-3.474,12.289-7.372a32.713,32.713,0,0,0,3.828-6.907,56.159,56.159,0,0,0,2.443-7.225Q50.422,134.993,51.5,130.841ZM7.108,93.47c-.062.087-.118.179-.178.267.136-.222.261-.453.408-.668.126-.173.269-.331.4-.5.1-.063.209-.112.311-.173A8.96,8.96,0,0,0,7.108,93.47ZM4.731,103.907c-.065-.475-.109-.947-.137-1.434-.012-.577.006-1.148.047-1.725.071-.683.171-1.361.306-2.032.1-.427.21-.845.333-1.259a13.8,13.8,0,0,0-.174,6.565c.049.217.105.433.162.649-.187-.23-.356-.47-.524-.71C4.74,103.943,4.735,103.925,4.731,103.907Zm20.791,50.674c-.032-.058-.057-.12-.089-.179a6.408,6.408,0,0,0,1.931.64c-.171.044-.339.086-.512.126-.241.036-.471.065-.712.083-.059,0-.117,0-.175-.006C25.811,155.029,25.662,154.81,25.522,154.581Zm31.061-40.258q-2.358,1.422-4.7,2.856a21.357,21.357,0,0,0-2.249,1.49,5.863,5.863,0,0,0-1.178,1.09,9.056,9.056,0,0,0-.774,1.36c-.822.615-1.643,1.232-2.453,1.863a4.77,4.77,0,0,0-1.754,2.032,13.01,13.01,0,0,0-.519,2.1c-.17.913-.353,1.814-.53,2.721.018-.071.03-.142.048-.207-.377,1.673-.743,3.363-1.237,5.006-.265.865-.5,1.743-.789,2.6s-.583,1.743-.878,2.615c-.247.642-.494,1.277-.742,1.919a32.768,32.768,0,0,1-1.4,3.157c-.241.458-.5.909-.76,1.355-.2.232-.384.472-.588.7a31.288,31.288,0,0,1-2.3,2.219,20.021,20.021,0,0,1-1.86,1.373,12.384,12.384,0,0,1-1.29.7c-.306.13-.612.248-.93.36-.218.058-.436.117-.66.159-.171.023-.347.041-.518.052-.194.006-.389,0-.589-.011-.076-.012-.153-.03-.235-.036-.106-.029-.212-.059-.318-.094-.142-.059-.277-.117-.413-.182s-.247-.148-.365-.224c-.076-.059-.153-.118-.229-.183-.147-.147-.3-.294-.436-.453a7.658,7.658,0,0,1-.459-.63,8.98,8.98,0,0,1-.43-.825q-.248-.564-.442-1.165c-.182-.636-.336-1.284-.459-1.938-.011-.073-.017-.147-.027-.221.076-.459.148-.918.257-1.372a39.409,39.409,0,0,1,1.272-3.975q.357-.835.712-1.671c.176-.418.335-.848.541-1.254q1.388-2.817,2.839-5.588a29.767,29.767,0,0,0,2.644-6.43,14.874,14.874,0,0,0,.326-1.71c.19-.274.384-.545.569-.823.494-.754,1.018-1.5,1.466-2.273.147-.259.294-.507.436-.766a4.672,4.672,0,0,0,.453-1.307,2.521,2.521,0,0,0-.153-1.366,4.667,4.667,0,0,0-.73-1.195,10.709,10.709,0,0,0-6.23-3.1c-1.39-.258-2.785-.371-4.187-.506-.871-.082-1.743-.159-2.608-.224-.307-.031-.613-.066-.919-.1l-1.478-.316c-.589-.141-1.166-.324-1.749-.483q-1.624-.441-3.209-1a36.018,36.018,0,0,1-3.511-1.514h0l-.024-.012-.059-.029-.038-.019.021.013c-.12-.064-.235-.134-.353-.2-.116-.133-.238-.258-.35-.4.017.022.033.045.049.069l-.076-.1-.036-.045.024.029c-.252-.344-.481-.695-.7-1.062-.26-.469-.5-.945-.717-1.436-.221-.561-.413-1.126-.579-1.7a15.455,15.455,0,0,1-.318-1.566c-.056-.452-.084-.906-.1-1.362.007-.5.031-.994.085-1.486,0,.023-.007.047-.011.07l.011-.075.012-.108c0,.034-.007.069-.011.1.077-.5.177-.989.3-1.478.137-.474.288-.941.469-1.4.165-.37.34-.729.539-1.084.162-.262.33-.511.516-.758.2-.237.407-.463.624-.685.257-.245.525-.479.809-.7.4-.3.82-.562,1.247-.818a18.039,18.039,0,0,1,1.817-.887c.669-.27,1.353-.536,2.047-.74.586-.182,1.178-.348,1.764-.523.164-.039.329-.075.494-.113.37.061.742.1,1.11.179.854.194,1.69.43,2.521.707,1.083.412,2.166.818,3.209,1.319q1.642.8,3.256,1.619h0a1.2,1.2,0,0,0,.119.06.031.031,0,0,0,.023.012h-.011c.329.17.665.335,1,.506-.059-.029-.118-.065-.177-.094a28.625,28.625,0,0,0,6.507,2.732,22.6,22.6,0,0,0,5.458.336c.173,0,.342-.028.514-.038-.219.149-.443.292-.661.442a1.685,1.685,0,0,0,1.872,2.8c1.991-1.354,4.016-2.656,6.036-3.957,1.884-1.213,3.78-2.409,5.712-3.545.444-.264.886-.533,1.331-.8.21-.1.42-.2.63-.3,1.278-.583,2.561-1.142,3.8-1.808s2.408-1.46,3.586-2.237c1.16-.766,2.32-1.531,3.456-2.332.642-.459,1.29-.919,1.938-1.372.512-.359,1.048-.689,1.572-1.031,1.76-1.018,3.5-2.049,5.288-3.026a1.4,1.4,0,0,0,.718-1.29l2.049-1.5q1.546-1.132,3.09-2.27c.764-.506,1.53-1.008,2.292-1.518,3.056-2.043,6.13-4.063,9.18-6.13,3.227-2.179,6.436-4.381,9.728-6.465,1.808-1.143,3.609-2.3,5.417-3.445a35.183,35.183,0,0,0,5.306-4.028,28.857,28.857,0,0,0,5.07-6.265c.03-.051.055-.1.085-.156a52.165,52.165,0,0,0,5.538-6,18.578,18.578,0,0,0,2.273-3.586,26.191,26.191,0,0,0,1.6-4.74c.424-1.69.742-3.41,1.107-5.111l-.035.176c.206-.824.412-1.648.612-2.473.171-.665.377-1.325.565-1.984.4-1.372.854-2.733,1.3-4.087.306-.783.612-1.566.912-2.355a36.617,36.617,0,0,1,1.518-3.387,31.933,31.933,0,0,1,1.856-3.149l-.02.027a.44.44,0,0,0,.026-.039,24.682,24.682,0,0,1,1.573-2.02,19.13,19.13,0,0,1,1.407-1.349c.371-.3.742-.575,1.142-.835a13.629,13.629,0,0,1,1.508-.813,14.092,14.092,0,0,1,1.324-.5c.449-.125.892-.233,1.351-.32a.637.637,0,0,0,.063-.01l.088-.017c-.029.006-.053.012-.082.017.078-.011.156-.017.234-.027.136.012.271.009.407.024a18.249,18.249,0,0,1,1.911.365,19.328,19.328,0,0,1,1.888.641c.355.154.7.338,1.043.513q.315.429.607.873c.336.546.644,1.1.929,1.677a20.291,20.291,0,0,1,.836,2.191c.188.677.341,1.354.465,2.049v-.018a25.44,25.44,0,0,1,.283,2.9c.009.349,0,.7,0,1.049-.129,1.088-.32,2.164-.552,3.233l-.006.026,0-.012-.009.04.006-.025a35.448,35.448,0,0,1-1.2,4.149,34.863,34.863,0,0,1-1.51,3.437,52.943,52.943,0,0,1-3.257,5.417c.018-.023.03-.041.047-.064-.035.053-.076.1-.111.159l0-.006c-.079.117-.163.229-.241.347.035-.053.077-.112.112-.165-.324.471-.648.937-.972,1.408l.053-.071c-.059.077-.112.159-.17.235a.021.021,0,0,1-.006.012c-1.131,1.6-2.291,3.168-3.433,4.758q-.786,1.086-1.537,2.2a20.1,20.1,0,0,0-1.343,2.209,4.559,4.559,0,0,0-.547,3.168,2.765,2.765,0,0,0,1.124,1.548,4.154,4.154,0,0,0,2.65.648c1.213-.047,2.42-.265,3.627-.395.542-.055,1.084-.091,1.627-.123.123.044.244.1.369.133a23.511,23.511,0,0,0,3.5.677c.93.112,1.867.189,2.8.254,1.937.141,3.863.341,5.8.476h0l.018,0-.133-.019c.278.037.553.069.829.1.333.1.672.185,1,.3a24.655,24.655,0,0,1,2.4,1.031,22.532,22.532,0,0,1,2.171,1.3c.442.318.872.66,1.284,1.019a19.124,19.124,0,0,1,1.489,1.525,23.928,23.928,0,0,1,1.561,2.126,26.028,26.028,0,0,1,1.253,2.287l.036.074c.012.023.018.047.03.071a.58.58,0,0,0-.03-.065,26.052,26.052,0,0,1,.943,2.45,19,19,0,0,1,.483,2.029,17.561,17.561,0,0,1,.2,1.857,20.735,20.735,0,0,1-.059,2.326c.006-.053.012-.106.017-.165l-.017.177a.114.114,0,0,1-.006.045c-.058.491-.133.976-.23,1.456.006-.029.018-.065.024-.1a1.181,1.181,0,0,1-.03.141l-.006.024-.006.026v0l-.006.02c-.121.5-.258.989-.424,1.469-.169.447-.354.883-.563,1.313a.159.159,0,0,0,.015-.029.356.356,0,0,1-.029.059l-.071.141.032-.066q-.373.692-.8,1.35a20.776,20.776,0,0,1-1.354,1.707,22.368,22.368,0,0,1-1.79,1.72,21.946,21.946,0,0,1-1.878,1.395q-.937.574-1.938,1.06c-.612.271-1.23.507-1.866.719-.657.2-1.319.355-1.988.491-.091-.016-.183-.023-.273-.041-.517-.123-1.017-.274-1.517-.446a18.845,18.845,0,0,1-1.794-.776,25.177,25.177,0,0,1-2.613-1.587,49,49,0,0,1-4.045-3.28c-1.272-1.213-2.538-2.425-3.74-3.709-.695-.748-1.383-1.5-2.061-2.256-.582-.653-1.154-1.319-1.766-1.937a11.6,11.6,0,0,0-4.634-3.144,11.823,11.823,0,0,0-7.337.412,33.463,33.463,0,0,0-8.285,4.681c-1.62,1.16-3.192,2.385-4.752,3.622-2.95,2.337-5.906,4.663-8.927,6.919q-1.361,1.023-2.73,2.036c-1.1.648-2.195,1.31-3.3,1.954.053-.03.112-.065.171-.094-1.522.866-3.027,1.754-4.536,2.637l.019-.011c-2.591,1.484-5.14,3.032-7.7,4.557-2.337,1.39-4.681,2.762-7.013,4.152-3.609,2.143-7.2,4.3-10.77,6.518-1.672,1.037-3.321,2.114-4.976,3.174-.694.454-1.372.942-2.055,1.413-.746.516-1.524,1.011-2.252,1.561l.044-.036-.076.059-.683.524c-.053.042-.106.077-.154.118l-.034.025.07-.054-.093.071c-.015.01-.028.021-.042.032-.815.624-1.635,1.244-2.45,1.869.053-.041.1-.076.153-.118-.145.109-.289.221-.434.331l.022-.018-.044.034-.109.084.021-.015-.029.022.054-.04c-.625.466-1.213.991-1.789,1.5-.167.148-.321.307-.486.456-.065.047-.129.1-.194.142Zm85.506-67.717c-.035-.005-.065-.005-.094-.011.029-.1.059-.2.088-.3.083-.212.177-.424.277-.63.259-.471.549-.923.838-1.376a6.5,6.5,0,0,0,1.149,1.881c.03.073.056.148.089.219-.634.088-1.268.177-1.907.216l.013,0A2.854,2.854,0,0,1,142.089,46.606ZM126.114,31.844c-.006.024-.012.047-.018.077l-.007.024v-.007c-.28,1.092-.544,2.172-.91,3.229-.1.26-.2.52-.306.777.005-.086.009-.172.015-.258.088-.659.141-1.33.265-1.978.141-.724.277-1.437.412-2.155a110.691,110.691,0,0,1,3.192-11.035c-.006.011-.006.017-.012.029a42.144,42.144,0,0,1,1.689-4.016c-.576,1.463-1.082,2.951-1.577,4.443A96.461,96.461,0,0,0,126.1,31.9C126.1,31.885,126.108,31.868,126.114,31.844Zm9.323,38.235-.048,0,.04,0Zm10.588,6.907c-.22-.291-.426-.594-.639-.89.321.328.635.663.96.989.654.66,1.308,1.319,2,1.925s1.372,1.231,2.1,1.8c.271.213.544.423.818.633-.06-.029-.123-.052-.182-.082-.479-.265-.946-.543-1.4-.842a24.932,24.932,0,0,1-2.061-1.646C147.064,78.261,146.529,77.639,146.025,76.986Zm-11.273-6.762c.076-.026.15-.057.227-.082l.2-.047c.061-.007.123-.01.185-.013l.131.009.148.026c.169.051.333.109.5.173.214.1.422.207.626.32.022.013.042.029.063.042A10.711,10.711,0,0,0,134.752,70.224Zm43.362-12.779c.393.407.758.826,1.109,1.264.273.376.529.76.772,1.158a15.869,15.869,0,0,1,.779,1.54,18.282,18.282,0,0,1,.615,1.787c.165.653.3,1.31.4,1.98,0-.021,0-.042-.006-.062l.009.078c.007.045.014.089.02.133-.006-.038-.013-.077-.018-.116.075.637.118,1.268.13,1.905,0,.675-.042,1.342-.11,2.016a19.841,19.841,0,0,1-.414,2.15c.011-.04.022-.08.035-.119l-.045.162-.014.056.011-.046a26.581,26.581,0,0,1-.942,2.749,30.932,30.932,0,0,1-1.516,3.038,29.408,29.408,0,0,1-2.052,3.035,27.071,27.071,0,0,1-1.924,2.181,26.034,26.034,0,0,1-2.1,1.825c-.591.433-1.2.829-1.834,1.2-.557.307-1.126.594-1.71.852-.468.189-.948.355-1.432.5-.476.119-.949.217-1.431.3a16.11,16.11,0,0,1-1.728.134c-.443-.009-.882-.04-1.325-.087h0a23.736,23.736,0,0,1-2.725-.512c-.462-.128-.917-.271-1.372-.416.477-.047.952-.113,1.426-.19.4.065.795.12,1.2.154a18.084,18.084,0,0,0,7.679-.966,13.248,13.248,0,0,0,6.041-4.257,19.253,19.253,0,0,0,3.274-6.724,21.971,21.971,0,0,0-1.136-15.275,20.355,20.355,0,0,0-2.1-3.388c.31.207.629.4.931.623A19.993,19.993,0,0,1,178.114,57.445ZM45.266,91.491a1.226,1.226,0,0,0,.312.189,2.258,2.258,0,0,0,1.607-.089c.654.006,1.3-.006,1.949-.006a4.872,4.872,0,0,0,1.131-.076,7.011,7.011,0,0,0,1.425-.636c.041-.018.076-.035.112-.053a1.653,1.653,0,0,0,.977-1.119l1.6-.53c.827-.282,1.637-.605,2.439-.947-.135.085-.267.175-.4.259-1.356.84-2.74,1.646-4.108,2.479l-.367.173.2-.088-.295.141c-.056.022-.114.048-.172.074-.192.087-.378.174-.564.261l-.049.023h0l-.02.008-.047.021.01,0-.479.219c-.909.417-1.825.822-2.758,1.181-.859.342-1.737.624-2.62.9-.807.224-1.613.418-2.432.577-.471.047-.936.088-1.413.124-.589.011-1.178.011-1.761.011-.536.006-1.077.024-1.607-.017-.106-.009-.213-.02-.317-.03h.028c-.477-.053-.948-.141-1.419-.235h.024c-.371-.094-.736-.206-1.1-.33-2.444-.977-4.788-2.19-7.143-3.356q-1.159-.576-2.352-1.1c.847.011,1.691.051,2.531.144a32.876,32.876,0,0,1,3.8.746c-.053-.018-.106-.03-.159-.048,1.249.354,2.479.713,3.716,1.113,1.072.354,2.126.777,3.174,1.2-.035-.016-.069-.031-.1-.044l.309.125-.025-.011.06.026.1.039-.03-.011c.26.109.52.215.78.325.81.336,1.611.7,2.406,1.064a1.256,1.256,0,1,0,1.119-2.249c-.492-.217-.98-.438-1.477-.646l.029.009c-.418-.17-.836-.347-1.249-.518l.042.019-.116-.046c.392.076.782.164,1.176.233C42.892,91.179,44.076,91.379,45.266,91.491ZM16.318,86.45c.548-.153,1.095-.288,1.655-.388a14.21,14.21,0,0,1,1.513-.159h-.153c.07-.006.141-.006.212-.006a21.732,21.732,0,0,1,2.326.065,32.324,32.324,0,0,1,3.543.564c.757.17,1.512.362,2.265.564a28.937,28.937,0,0,0-5.614.05c-.5.053-.989.13-1.484.206-.354.052-.71.094-1.062.15a20.254,20.254,0,0,0-3.572-.424c-.431-.01-.856.021-1.282.043.094-.045.186-.1.281-.14a.405.405,0,0,1-.047.017C15.364,86.8,15.835,86.61,16.318,86.45Zm4.64,62.8c.006.118.01.235.019.353,0-.062-.015-.124-.019-.187S20.959,149.305,20.958,149.249Zm.153,1.639c-.02-.13-.024-.261-.041-.391.036.259.083.518.133.777C21.172,151.145,21.136,151.018,21.111,150.888Zm25.359-12.6a70.982,70.982,0,0,1-2.267,6.763l.008-.018-.023.056c-.018.044-.035.088-.053.133l.02-.055a38.776,38.776,0,0,1-2.012,4.092l.025-.039-.048.078-.052.093c.007-.015.015-.029.023-.044-.506.836-1.057,1.642-1.643,2.423a22.721,22.721,0,0,1-1.769,2c-.525.5-1.069.969-1.639,1.413q-.669.487-1.371.912a16.248,16.248,0,0,1-1.647.828c-.332.129-.666.246-1.012.348-.431.11-.862.207-1.3.284-.358.045-.709.071-1.071.083-.156,0-.31-.016-.464-.027A19.555,19.555,0,0,0,34.2,154.7a29.211,29.211,0,0,0,5.8-7.391,34.446,34.446,0,0,0,2.468-3.54c.689-1.137,1.325-2.3,1.9-3.492.467-.981.946-1.98,1.319-3.012l-.006.026c.018-.047.035-.1.053-.153.029-.077.053-.147.076-.224.112-.312.23-.63.342-.942.236-.665.477-1.325.712-1.99l-.07.194.071-.195c.3-.83.535-1.689.8-2.531.212-.683.412-1.366.613-2.055.447-1.59.889-3.186,1.4-4.758.154-.391.308-.78.468-1.166.313-.238.631-.467.944-.7-.009.021-.019.041-.028.061a31.083,31.083,0,0,0-1.455,3.863c-.347,1.2-.724,2.39-1.036,3.6-.319,1.23-.632,2.459-.95,3.688.005-.022.01-.044.014-.066C47.243,135.373,46.854,136.829,46.47,138.29Z"/><polygon points="125.166 170.081 125.167 170.081 125.169 170.084 125.166 170.081"/><path d="M229.015,181.134a13.2,13.2,0,0,0-1.23-3.327,12.488,12.488,0,0,0-1.985-2.691,18.7,18.7,0,0,0-5.327-3.9,14.209,14.209,0,0,0-4.8-3.988,16.889,16.889,0,0,0-7.025-1.714,21.808,21.808,0,0,0-7.2,1.025c-.454.144-.9.312-1.344.48a26.8,26.8,0,0,0-2.831.389,27.472,27.472,0,0,0-6.666,2.232c-1.119.542-2.226,1.13-3.291,1.778-.819.5-1.655.989-2.432,1.549q-1.237.883-2.468,1.766c-.618.442-1.2.93-1.795,1.407-.619.489-1.225.978-1.814,1.5-.694.619-1.384,1.239-2.051,1.883a1.5,1.5,0,0,0-.167-.1c-.342-.171-.683-.341-1.019-.518l.009,0-.168-.088c.006.006.018.012.024.018a.19.19,0,0,0-.047-.024l-.106-.052c.023.011.047.017.07.029-.141-.071-.282-.141-.418-.212.053.03.1.053.153.082-.176-.094-.353-.182-.529-.27.052.023.106.053.153.076-.115-.06-.234-.119-.348-.179-.067-.036-.135-.071-.2-.1.012.006.024.018.035.024-.637-.338-1.281-.671-1.92-1.01a35,35,0,0,0,4.04,1.376,1.354,1.354,0,0,0,.371.047,1.39,1.39,0,0,0,.4-2.726c-1.007-.354-2.032-.666-3.045-1.007a40.71,40.71,0,0,1-3.927-1.714c.053.03.106.053.153.083-.342-.183-.683-.354-1.019-.524-1.38-.723-2.714-1.5-4.018-2.35a.362.362,0,0,0-.057-.035.1.1,0,0,0-.019-.016l.008,0c-.279-.2-.556-.4-.835-.6.042-.167.085-.333.128-.5.118-.465.235-.93.353-1.4.1-.4.153-.813.224-1.219.159-.913.341-1.814.442-2.732.117-.995.27-2,.329-3,.071-1.231.177-2.474.171-3.71a20.566,20.566,0,0,0-.312-3.892,16.886,16.886,0,0,0-1.1-3.586,19.381,19.381,0,0,0-4.866-6.534,27.01,27.01,0,0,0-6.446-6.5,19.073,19.073,0,0,0-2.131-1.319c-.689-.377-1.39-.76-2.114-1.072a26.824,26.824,0,0,0-3.745-1.331c-.866-.265-1.743-.488-2.615-.689.012.006.03.006.041.012a40.426,40.426,0,0,0-5.429-.936c-.194-.024-.388-.035-.577-.053a22.44,22.44,0,0,0-4.451.059,16.832,16.832,0,0,0-4.664,1.213,23.2,23.2,0,0,0-2.291,1.119,10.639,10.639,0,0,0-1.448,1,13.34,13.34,0,0,0-2.067,2.061,23.506,23.506,0,0,0-1.778,2.649,20.932,20.932,0,0,0-1.384,2.745,14.975,14.975,0,0,0-.9,3.338,14.691,14.691,0,0,0-.165,3.168c.03.324.059.654.106.978-.041.347-.076.694-.118,1.048a19.185,19.185,0,0,0-.141,2.6,14.817,14.817,0,0,0,.277,2.343,13.269,13.269,0,0,0,.624,2.379c.017.045.039.087.057.131a17.957,17.957,0,0,0,2.329,6.329,30.087,30.087,0,0,0,4.522,5.664l-.009-.009-.008-.008c-.042-.041-.084-.083-.13-.124.094.088.182.177.271.271l-.067-.072c.073.075.145.15.22.225-.047-.053-.094-.1-.142-.147.112.112.224.224.33.335l-.141-.141c.2.2.4.4.595.6l.212.212c.153.153.306.312.459.465l.159.159c.637.642,1.279,1.275,1.921,1.916a41.633,41.633,0,0,1,2.757,3.138,20.975,20.975,0,0,1,1.212,1.824c.264.479.507.965.729,1.467.217.544.407,1.093.569,1.653.13.514.238,1.028.318,1.55.041.34.05.682.071,1.022-1.315,3.1-2.727,6.156-4.263,9.158-1.437,2.768-2.962,5.494-4.469,8.232-.7,1.278-1.443,2.544-2.179,3.8a47.323,47.323,0,0,0-2.385,4.3,1.339,1.339,0,0,0-.041.954c-1.237,2.268-2.508,4.517-3.769,6.772-1.554,2.791-3,5.641-4.54,8.444-1.566,2.862-3.185,5.694-4.805,8.527-1.719,2.985-3.274,6.053-4.922,9.074a1.72,1.72,0,0,0,.146,1.9c-.145.343-.282.691-.429,1.033-.188.448-.412.889-.618,1.325-.171.377-.342.748-.524,1.119-.422.848-.839,1.7-1.27,2.551-.509.983-1.012,1.972-1.516,2.949-.6,1.119-1.177,2.249-1.79,3.356-.432.78-.876,1.55-1.314,2.323-.316.326-.631.652-.949.976-.619.567-1.233,1.14-1.857,1.707-.469.431-.969.83-1.463,1.232-.16.04-.319.082-.482.114-.223.036-.447.059-.677.077-.241,0-.489,0-.742-.012-.224-.029-.441-.059-.659-.106s-.448-.129-.666-.2c-.241-.094-.471-.194-.695-.306-.936-.518-1.8-1.154-2.685-1.743a20.13,20.13,0,0,0-1.9-1.166,8.308,8.308,0,0,0-1.46-.6,5.776,5.776,0,0,0-1.189-.176,31.441,31.441,0,0,0-5.64.192,10.016,10.016,0,0,0-1.037-.543,10.921,10.921,0,0,0-3.727-.99,11.1,11.1,0,0,0-3.527.295,14.893,14.893,0,0,0-6.383,3.486c-.249.23-.473.482-.708.725-.214.174-.426.352-.63.532a29.933,29.933,0,0,0-2.55,2.55q-.98,1.088-1.925,2.2a18.613,18.613,0,0,0-2.479,3.438,21.078,21.078,0,0,0-2.379,7.149,23.78,23.78,0,0,0,.229,7.7,21.178,21.178,0,0,0,1.2,3.875,25.863,25.863,0,0,0,1.242,2.644c.012.04.024.088.035.129a26.479,26.479,0,0,0,3.433,7.042,24,24,0,0,0,5.053,5.559,30.442,30.442,0,0,0,3.309,2.35,20.5,20.5,0,0,0,3.339,1.554c.821.294,1.657.579,2.5.82.145.042.288.1.434.137s.323.066.484.1c.212.049.422.1.635.143.062.012.125.017.188.029.624.117,1.25.226,1.873.34,1.225.229,2.449.429,3.686.577a18.749,18.749,0,0,0,2.149.171,6.878,6.878,0,0,0,.936-.06,6.953,6.953,0,0,0,1.549-.323c.289-.106.577-.224.86-.353.377-.166.759-.318,1.124-.5.471-.23.954-.453,1.414-.707a17.507,17.507,0,0,0,2.5-1.708c.577-.471,1.137-.977,1.679-1.484.918-.859,1.848-1.707,2.7-2.638.475-.517.917-1.056,1.346-1.6.058.025.116.053.174.079.965.435,1.925.866,2.873,1.331-.006,0-.012-.006-.018-.006.907.477,1.779,1,2.632,1.56s1.685,1.084,2.509,1.649c-.006-.006-.018-.012-.024-.018.106.077.218.153.324.23a1.475,1.475,0,0,0,.862.282,24.534,24.534,0,0,0-.709,4.488c0,.018,0,.035,0,.052-.1.718-.208,1.432-.283,2.162-.412,4.181-.447,8.591,1.16,12.554a15.82,15.82,0,0,0,3.9,5.93,10.492,10.492,0,0,0,3.127,1.984,12.258,12.258,0,0,0,1.578.548c.53.135,1.066.241,1.6.341.865.165,1.749.313,2.62.419a35.78,35.78,0,0,0,4.246.412h.1a7.353,7.353,0,0,0,1.825-.2,7.964,7.964,0,0,0,1.343-.519,12.629,12.629,0,0,0,2.65-1.666c.806-.648,1.595-1.313,2.384-1.979a20.047,20.047,0,0,0,2.1-2.1,16.046,16.046,0,0,0,2-2.779c.547-1.008,1.06-2.044,1.549-3.08.371-.789.771-1.566,1.113-2.361.394-.907.842-1.808,1.171-2.744-.023.07-.047.135-.07.206.064-.183.129-.365.194-.548.324-.906.7-1.8.977-2.726l.013-.041c.564-1.055,1.08-2.135,1.54-3.238.317-.778.636-1.561.877-2.362.277-.9.589-1.8.813-2.72.206-.848.435-1.7.606-2.55a28.76,28.76,0,0,0,.689-4.528,12.093,12.093,0,0,0-.377-3.68,13.234,13.234,0,0,0-1.254-3,44.139,44.139,0,0,0-2.6-3.9c-1.1-1.52-2.344-2.968-3.31-4.581q-.254-.474-.476-.964c-.19-.469-.352-.948-.494-1.432a17.258,17.258,0,0,1-.362-1.739c-.052-.427-.086-.855-.1-1.287a14.693,14.693,0,0,1,.106-1.768c.136-.916.352-1.8.556-2.7.151-.524.281-1.061.463-1.573.206-.565.406-1.136.606-1.7-.029.07-.064.147-.094.217.542-1.307,1.089-2.614,1.749-3.868.692-1.31,1.408-2.6,2.124-3.894.776-1.3,1.552-2.593,2.345-3.879.689-1.119,1.4-2.22,2.1-3.333,1.631-2.579,3.233-5.17,4.917-7.708,2-3.027,4.116-5.971,6.171-8.956s4.028-6.036,6.018-9.068c1.849-2.821,3.633-5.677,5.453-8.515,1.921-3.006,3.846-6.019,6.01-8.857.727.266,1.458.53,2.189.778,1.619.553,3.256,1.048,4.917,1.46a41.472,41.472,0,0,0,8.715,1.313,36.194,36.194,0,0,0,5.058-.206c.913-.1,1.849-.159,2.756-.324-.006,0-.012.006-.018.006l.088-.017a.421.421,0,0,1-.048.012l.231-.042c-.012.006-.024.006-.036.012.324-.059.642-.112.966-.165l-.224.035c.5-.088,1.008-.17,1.512-.252.293-.052.586-.1.879-.148-.023.006-.041.006-.065.012l.044-.007c.05-.008.1-.014.151-.023a.37.37,0,0,1-.048.006c.043-.006.085-.015.124-.023a.158.158,0,0,0,.046-.008l-.022,0c.683-.118,1.354-.289,2.025-.436.907-.2,1.814-.389,2.715-.624a35.4,35.4,0,0,0,11.694-5.052,22.3,22.3,0,0,0,7.087-8.348,23.754,23.754,0,0,0,2.739-3.694,25.885,25.885,0,0,0,1.8-3.533c.165-.412.335-.824.5-1.237.353-.865.648-1.743.954-2.626.141-.406.253-.83.371-1.248.224-.754.442-1.513.595-2.285A16.224,16.224,0,0,0,229.015,181.134Zm-54.85,26.121a16.99,16.99,0,0,0-3.972,3.1,4.108,4.108,0,0,0-1.2-.329,3.316,3.316,0,0,0-1.678.336,9.834,9.834,0,0,0-2.6,2.055,18.525,18.525,0,0,0-2.049,2.243c-.6.831-1.172,1.679-1.707,2.55-.86,1.413-1.6,2.9-2.385,4.357q-1.272,2.369-2.6,4.7c-1.755,3.08-3.663,6.071-5.57,9.057-3.9,6.124-7.985,12.142-11.63,18.431-1.92,3.315-3.822,6.636-5.771,9.933-1.807,3.068-3.721,6.077-5.641,9.086-.453.714-.918,1.422-1.378,2.133.084-.206.166-.413.261-.613a1.146,1.146,0,0,0,.106-.547c.272-.549.552-1.1.819-1.647h0l0,0,0-.007h0c.34-.65.668-1.3,1-1.95-.012.024-.024.041-.036.065.5-.977,1.031-1.943,1.572-2.9q2.421-4.25,4.959-8.432,1.386-2.3,2.814-4.582c.813-1.289,1.667-2.555,2.509-3.827,3.591-5.4,7.077-10.882,10.4-16.446q2.641-4.425,5.277-8.845c1.687-2.8,3.4-5.579,5.185-8.325l.014-.019.026-.041c-.008.012-.017.024-.026.035l.027-.038c.011-.018.022-.037.032-.056a.527.527,0,0,1-.03.053c.473-.663.935-1.327,1.4-2,.383-.548.789-1.078,1.2-1.607.442-.56.86-1.149,1.331-1.685.553-.618,1.107-1.242,1.66-1.86.651-.674,1.319-1.325,2.033-1.934l-.007,0c.406-.33.824-.647,1.26-.942.224-.141.454-.271.689-.4.094-.035.189-.076.283-.106.012,0,.023,0,.035-.011a1.279,1.279,0,0,0,1.29-.754,1.254,1.254,0,0,0,.091-.53h.007c.147.018.294.048.441.077h0c1.274.311,2.512.751,3.755,1.162A20.629,20.629,0,0,0,174.165,207.255Zm-51.938-53.5c-.118-.265-.247-.53-.347-.807s-.2-.57-.294-.853c.042-.187.064-.379.111-.566a30.236,30.236,0,0,1,1.093-3.236q-.125.966-.186,1.938a28.454,28.454,0,0,0-.006,3.751c.018.238.045.473.07.708C122.519,154.377,122.371,154.066,122.227,153.752Zm41.891,18.923c.036.025.074.047.11.071l-.111-.064ZM83.605,268.833c.081.042.159.092.24.134l-.011,0-.181-.063c-.1-.049-.207-.1-.307-.154-.065-.039-.125-.083-.188-.124C83.306,268.7,83.458,268.76,83.605,268.833Zm-27.37,9.31a34.142,34.142,0,0,1,1.51-3.461,39.908,39.908,0,0,1,2.212-3.811c.253-.342.512-.677.789-1a16.967,16.967,0,0,1,1.288-1.229c.515-.414,1.055-.8,1.605-1.159.088-.056.179-.1.268-.157a23.8,23.8,0,0,0-2.819,5.151,43.254,43.254,0,0,0-2.044,6.836,38.738,38.738,0,0,0-.948,6.967,42.747,42.747,0,0,0,.909,10.234c-.244-.2-.49-.39-.726-.6s-.45-.462-.678-.69c-.386-.69-.746-1.388-1.062-2.114a25.051,25.051,0,0,1-.9-2.632c-.186-.709-.341-1.427-.459-2.154a23.841,23.841,0,0,1-.218-2.981,31.664,31.664,0,0,1,.231-3.368c.03-.22.076-.437.108-.656C55.558,280.249,55.87,279.193,56.235,278.143Zm23.811,28.924c-.1.053-.2.116-.3.165a12.776,12.776,0,0,1-1.29.477c-.214.059-.434.1-.651.152A16.02,16.02,0,0,0,80.046,307.067Zm49.844-23.18a15.432,15.432,0,0,0,.544,1.671c-2.129-.579-4.336-.689-6.494-1.135.042.012.083.017.118.029-.041-.012-.082-.017-.123-.029l-.024-.007h0c.946-1.576,1.972-3.108,2.99-4.639,1.094-1.637,2.166-3.291,3.235-4.946-.046.182-.1.363-.14.547a19.719,19.719,0,0,0-.63,5.082A16.044,16.044,0,0,0,129.89,283.887Zm51.131-104.693c.506-.407,1.013-.8,1.525-1.2.371-.289.73-.607,1.113-.878.987-.689,1.968-1.388,2.971-2.054-1.594,1.184-3.164,2.4-4.69,3.676a48.185,48.185,0,0,0-5.311,5.041,15.16,15.16,0,0,0-1.19,1.5c-.025.039-.049.079-.075.118.193-.363.4-.717.628-1.063a19.006,19.006,0,0,1,1.443-1.784l-.01.008C178.547,181.353,179.784,180.285,181.021,179.194Zm-6.176,2.359c-.351.421-.69.852-1,1.3a12.64,12.64,0,0,0-1.361,2.55,1.309,1.309,0,0,0,2.178,1.4,4.53,4.53,0,0,0-.128,2.01,1.325,1.325,0,0,0,2.579-.606.052.052,0,0,1,0-.03c-.006-.076-.006-.159-.012-.241.006.059.006.112.012.171,0-.142,0-.283.011-.425.023-.082.052-.165.079-.248l.063-.14c.123-.206.247-.4.382-.607.366-.488.748-.953,1.155-1.413a49.722,49.722,0,0,1,4.266-4.057,104.242,104.242,0,0,1,10.654-7.839,48.371,48.371,0,0,1,5.1-2.843c.492-.22.987-.425,1.486-.62.432-.035.865-.069,1.3-.089a32.764,32.764,0,0,1,3.562.088c.339.033.673.083,1.009.126-.248.063-.5.124-.74.2-.518.148-1.036.3-1.554.454-.4.118-.795.288-1.184.43a44.754,44.754,0,0,0-4.811,2.09c-1.607.819-3.215,1.631-4.793,2.514-1.66.937-3.274,1.926-4.863,2.98-1.484.983-2.9,2.067-4.311,3.15l.2-.147c-1.1.825-2.108,1.767-3.115,2.691-1.089,1-2.114,2.073-3.138,3.139a1.869,1.869,0,0,0,1.543,3.1,1.941,1.941,0,0,0,1.26-.624l.282-.283.171-.171-.076.078c1.732-1.7,3.543-3.3,5.429-4.83-.065.053-.13.1-.2.154.635-.483,1.26-.99,1.907-1.443.625-.442,1.231-.913,1.879-1.319s1.271-.878,1.931-1.278,1.323-.789,1.974-1.195c1.509-.847,3.025-1.676,4.574-2.45,1.569-.79,3.149-1.53,4.767-2.217.611-.219,1.217-.48,1.834-.668.548-.162,1.1-.318,1.643-.478.538-.121,1.082-.274,1.625-.352l1.429-.225c.655-.071,1.306-.115,1.965-.135a19.144,19.144,0,0,1,2.1.1,17.689,17.689,0,0,1,1.79.335,20.532,20.532,0,0,1,2.023.68c.144.062.277.142.419.207.45.326.9.657,1.318,1.021l0,.006.124.106-.094-.077c.051.048.1.1.148.151a27.746,27.746,0,0,1,1.2,3.255,33.794,33.794,0,0,1,.83,3.545,28.525,28.525,0,0,1,.348,3.468,36.339,36.339,0,0,1-.13,3.916c-.124,1.275-.323,2.54-.524,3.8.018-.065.029-.135.047-.206-.212.96-.418,1.908-.624,2.868-.113.484-.252.966-.4,1.446-.257.348-.522.692-.813,1.018-.383.4-.777.778-1.2,1.137-.391.317-.8.611-1.225.9a21.259,21.259,0,0,1-2.207,1.185,29.072,29.072,0,0,1-3.227,1.216,57.838,57.838,0,0,1-6.355,1.478c-.771.112-1.536.212-2.3.324-.559.082-1.118.159-1.678.242-.247.035-.506.088-.76.1-1.777.149-3.549.338-5.331.419a45.251,45.251,0,0,1-5.337-.1l.052.009a41.2,41.2,0,0,1-4.269-.636c-1.337-.324-2.662-.653-3.981-1.03-1.266-.359-2.526-.748-3.78-1.142s-2.538-.854-3.828-1.16a7.706,7.706,0,0,0-2.226-.3,3.353,3.353,0,0,0-1.725.577,4.052,4.052,0,0,0-.936,1.042,1.825,1.825,0,0,0-.336,1.195,10.288,10.288,0,0,0-.9.583,21.279,21.279,0,0,0-3.551,3.2c-.571.648-1.143,1.289-1.72,1.931-.441.5-.83,1.048-1.242,1.572-.913,1.16-1.749,2.367-2.6,3.575-.341.482-.653.983-.977,1.478-.4.618-.819,1.23-1.213,1.854-3.516,5.665-6.89,11.418-10.4,17.1q-2.535,4.107-5.182,8.149c-1.861,2.85-3.78,5.671-5.659,8.509-1.713,2.591-3.3,5.27-4.9,7.938-1.725,2.873-3.5,5.735-5.029,8.72.03-.053.059-.112.089-.164q-.522,1.007-1.037,2.013a.069.069,0,0,0,.013-.02c-.657,1.281-1.263,2.585-1.879,3.883a1.382,1.382,0,0,0,.115,1.345c-.736,1.812-1.488,3.618-2.188,5.448-.147.394-.3.795-.418,1.195a4.491,4.491,0,0,0-.283,1.731,1.976,1.976,0,0,0,.052.221,10.6,10.6,0,0,0-.5,1.157,4.154,4.154,0,0,0-.277,1.307,2.888,2.888,0,0,0,.248,1.372c.836,1.543,2.908,1.472,4.439,1.531.984.041,1.979.083,2.968.165q.831.089,1.643.247a9.15,9.15,0,0,1,.948.265c.3.118.595.248.889.389.195.112.383.224.577.347.283.206.548.418.813.648a11.262,11.262,0,0,1,.907.936,15.433,15.433,0,0,1,1.012,1.4c.3.5.572,1,.825,1.513a21.455,21.455,0,0,1,.832,2.185,26.726,26.726,0,0,1,.67,2.844c-.018.587-.047,1.173-.1,1.761a43.229,43.229,0,0,1-.845,5.292,41.111,41.111,0,0,1-1.163,4.153v-.012a.036.036,0,0,1-.006.024c-.013.037-.025.078-.04.118a28.976,28.976,0,0,1-1.291,2.98v-.007a25.4,25.4,0,0,1-1.548,2.608,26.363,26.363,0,0,1-1.647,2.092l0-.007,0,.008-.018.021-.007.007c-.041.046-.076.088-.118.129a.865.865,0,0,0,.077-.088,20.112,20.112,0,0,1-1.537,1.472,19.292,19.292,0,0,1-1.6,1.177,28.092,28.092,0,0,1-2.638,1.361c-1.791.783-3.645,1.437-5.494,2.078-.784.218-1.555.448-2.368.6-.306.047-.618.083-.93.1a7.352,7.352,0,0,1-.813-.012c-.206-.023-.412-.053-.612-.088-.052-.014-.1-.032-.152-.047-.15-.078-.3-.146-.452-.229a16.067,16.067,0,0,1-1.354-.894,15.534,15.534,0,0,1-1.184-1.047c-.3-.317-.585-.645-.856-.988-.242-.336-.47-.682-.689-1.038a15.784,15.784,0,0,1-.731-1.482c.012.028.023.056.032.084-.022-.053-.043-.1-.064-.158h0c-.288-.716-.527-1.446-.743-2.185a28.48,28.48,0,0,1-.654-3.189,27,27,0,0,1-.232-2.94,25.14,25.14,0,0,1,.157-2.877,23.146,23.146,0,0,1,.515-2.628c.031-.108.067-.214.1-.322a1.259,1.259,0,0,0,.3-.327,1.328,1.328,0,0,0,.128-.991c.108-.307.215-.614.337-.918a20.831,20.831,0,0,1,1.024-2.09l0,.006a16.946,16.946,0,0,1,1.239-1.85c.234-.289.476-.571.728-.839a8.943,8.943,0,0,1,.758-.659c.1-.067.2-.129.309-.187-.03.017-.06.036-.09.055.068-.035.133-.069.2-.1l.088-.034a3.208,3.208,0,0,1,.346-.069h.048c.217.012.43.034.643.061a1.28,1.28,0,0,0,.141-2.556,5.656,5.656,0,0,0-1.193-.022,1.506,1.506,0,0,0-.059-.219,1.7,1.7,0,0,0-1.954-1.042,4.725,4.725,0,0,0-2.827,1.96,17.3,17.3,0,0,0-1.284,2.25,33.057,33.057,0,0,0-1.641,4.1q-1.774-.924-3.568-1.806c-.789-.388-1.614-.713-2.42-1.06s-1.614-.685-2.415-1.043l.036-.053c.318-.489.665-.978.948-1.485.329-.588.683-1.165.965-1.772.189-.4.366-.8.53-1.207a1.223,1.223,0,1,0-2.243-.978c-.183.477-.377.943-.595,1.4-.288.524-.571,1.06-.9,1.567l-.093.144a2.8,2.8,0,0,0,.305-1.231,1.638,1.638,0,0,0-2.39-1.466,8.66,8.66,0,0,0-1.7,1.323.373.373,0,0,0-.046.037c0,.006-.006.006-.012.012l-.088.07c-.124.1-.242.2-.36.306v0a1.027,1.027,0,0,1-.117.1h0s0,.006-.011.006c-.03.029-.065.058-.1.088,0-.012.017-.018.023-.024-.023.018-.047.042-.071.06l-.011.011v0c-.634.523-1.286,1.023-1.926,1.533-.187.147-.381.288-.57.434-.476.337-.948.677-1.431,1.005q-.98.669-1.97,1.327c-.49.281-.987.55-1.5.791-.589.252-1.184.48-1.794.682l-.055.018-.106.036c.035-.012.071-.024.1-.036a31.127,31.127,0,0,1-3.368.819c-.654.1-1.308.177-1.961.218a32.3,32.3,0,0,1-3.292-.071A10.042,10.042,0,0,1,71,302.827c-.23-.065-.454-.135-.683-.212-1.855-.683-3.633-1.513-5.406-2.373-.512-.288-1.03-.559-1.554-.83-.3-.159-.584-.334-.874-.5-.088-.362-.176-.723-.263-1.088-.259-1.13-.512-2.243-.707-3.392a47.293,47.293,0,0,1-.512-4.94,39.746,39.746,0,0,1,.106-4.77,41.525,41.525,0,0,1,.725-4.508l-.007.016c.018-.06.03-.118.042-.177v-.006a49.371,49.371,0,0,1,1.432-5.125,28.709,28.709,0,0,1,1.407-3.3q.576-1.074,1.241-2.088a20.954,20.954,0,0,1,1.6-2.049,19.665,19.665,0,0,1,1.478-1.425c.347-.283.7-.548,1.072-.8a13.306,13.306,0,0,1,1.46-.813c.2-.085.4-.151.6-.227.624.154,1.239.339,1.843.543l.032.011.014,0,.022.008.037.012h0l.045.017-.012,0,.043.016-.01,0c.426.16.847.335,1.27.5,1.174,1.28,2.19,2.683,3.329,4A9.837,9.837,0,0,0,81.945,272a5.482,5.482,0,0,0,1.79.513,4.605,4.605,0,0,0,1.743-.259,4.455,4.455,0,0,0,.582-.235c.148.256.294.515.454.766a2.221,2.221,0,0,0,1.107.9,1.93,1.93,0,0,0,1.407.006,6.777,6.777,0,0,0,2.514-2.267c.1-.137.2-.281.3-.42a1.45,1.45,0,0,0,.772-.453,12.21,12.21,0,0,0,1.375-2l.05-.051c.848-.919,1.6-1.914,2.409-2.862.329-.23.653-.471.965-.724a44.4,44.4,0,0,0,8.138-9.469c.212-.271.424-.548.636-.818q2.031-2.65,3.969-5.377c1.172-1.631,2.32-3.279,3.4-4.975,1.072-1.678,2.049-3.4,3.027-5.135.9-1.613,1.778-3.233,2.656-4.858.889-1.655,1.79-3.311,2.644-4.984l-.014.03c1.391-2.693,2.8-5.385,4.094-8.13.66-1.4,1.337-2.785,1.973-4.187s1.313-2.8,1.914-4.216c.765-1.79,1.548-3.58,2.249-5.4.4-1.037.795-2.079,1.2-3.121.365-.948.672-1.92,1.013-2.874.265-.754.524-1.5.766-2.261.294-.924.612-1.843.877-2.779.536-1.89,1.089-3.787,1.531-5.7a51.2,51.2,0,0,0,1.547-8.712,11.05,11.05,0,0,0,.137-1.208c.265-.618.524-1.249.765-1.879a3.842,3.842,0,0,0-.765-4.546c-.277-.3-.559-.594-.842-.883-1-1.02-2.039-2-3.082-2.96l-.027-.039c-1.16-1.614-2.385-3.174-3.627-4.717a61.791,61.791,0,0,1-3.951-5.235c-.348-.582-.672-1.177-.96-1.784-.215-.492-.394-.984-.562-1.482a15.83,15.83,0,0,1-.416-1.733,24,24,0,0,1-.241-2.42q-.034-1.656.091-3.313a26,26,0,0,1,.433-2.988c.153-.653.324-1.295.53-1.937a18.846,18.846,0,0,1,.854-1.984c.247-.454.512-.9.8-1.325a18.16,18.16,0,0,1,1.319-1.678q.629-.654,1.3-1.255c0,.006-.006.006-.006.012l.04-.031c.243-.124.484-.254.733-.365.433-.171.87-.327,1.316-.46a16.289,16.289,0,0,1,1.623-.324,22.338,22.338,0,0,1,2.423-.175l-.04,0a30.2,30.2,0,0,1,3.692.209,35.327,35.327,0,0,1,3.9.757l-.046-.012.052.014.131.033c-.026,0-.052-.012-.078-.019a33.551,33.551,0,0,1,3.8,1.286,26.623,26.623,0,0,1,2.649,1.314,19.479,19.479,0,0,1,1.943,1.3,20.752,20.752,0,0,1,1.6,1.406,19.663,19.663,0,0,1,1.412,1.629l-.016-.024.02.028.08.1c-.023-.026-.045-.055-.066-.083.447.6.863,1.226,1.248,1.872a30.4,30.4,0,0,1,1.546,3.156l0,0a39.343,39.343,0,0,1,1.349,3.892c.015.207.034.412.046.621v-.026c0,.042,0,.084,0,.123h0v.042a76.448,76.448,0,0,1-.165,8.026,36.221,36.221,0,0,1-.666,4.325c-.156.685-.336,1.358-.531,2.028a1.109,1.109,0,0,0-.552.582,3.015,3.015,0,0,0-.165.559,1.715,1.715,0,0,0,.105.893c-.058.176-.117.358-.182.534-.524,1.437-1.065,2.856-1.637,4.281a1.641,1.641,0,0,0,.842,2.126,1.614,1.614,0,0,0,1.448-.113c-.217.554-.439,1.106-.682,1.647a1.3,1.3,0,1,0,2.4.967.234.234,0,0,0-.012.04c.322-.859.664-1.7,1-2.554a1.305,1.305,0,0,0,2.465-.529q.061-1.066.129-2.137.831.474,1.66.952c.989.571,1.973,1.148,2.973,1.7Q171.691,179.906,174.845,181.553ZM110.7,236.532c1.631-2.862,3.257-5.724,4.829-8.615,1.442-2.648,2.808-5.337,4.263-7.979-.022.054-.043.109-.065.163-.21.523-.432,1.042-.646,1.565-.494.94-1,1.877-1.49,2.818-1.767,3.35-3.58,6.672-5.376,10-.837,1.561-1.661,3.127-2.5,4.682-.913,1.684-1.855,3.35-2.8,5.022l.02-.031q-.972,1.668-1.964,3.323c.136-.319.28-.634.412-.955.1-.246.2-.5.3-.742a1.419,1.419,0,0,0,.3-.376C107.582,242.461,109.049,239.446,110.7,236.532ZM87.132,267.319l-.009.006-.026-.017A.358.358,0,0,0,87.132,267.319Zm40.493,60.9a19.031,19.031,0,0,1-1.6,1.579c.012-.006.018-.018.03-.024-.018.018-.036.03-.047.041-.047.042-.089.077-.13.112.024-.023.053-.047.077-.07l-.229.2.027-.027c-.047.041-.093.078-.14.119-.006.006-.017.012-.023.018s.011-.006.017-.012l-.188.157.006,0c-.089.076-.177.147-.259.224l.007-.011a.3.3,0,0,0-.031.029c-.047.035-.088.076-.135.112a.089.089,0,0,0,.023-.024c-.059.053-.112.1-.17.147l.009-.009a.309.309,0,0,0-.039.033.832.832,0,0,0-.082.07c.006-.012.017-.018.029-.029-.665.536-1.337,1.071-2.049,1.548-.3.183-.6.348-.919.507-.253.117-.506.218-.771.312-.124.035-.247.065-.377.094a3.327,3.327,0,0,1-.36.02c-.462,0-.92-.022-1.377-.059a58.361,58.361,0,0,1-5.983-.88,12.1,12.1,0,0,1-1.283-.371c-.354-.141-.707-.294-1.048-.459-.218-.124-.43-.247-.636-.382-.3-.219-.583-.454-.866-.695-.247-.242-.489-.489-.724-.748-.3-.377-.583-.766-.854-1.16a17.1,17.1,0,0,1-.833-1.51c.024.022.046.046.069.067a9.013,9.013,0,0,0,2.3,1.584c.377.177.748.348,1.131.507s.8.324,1.2.477a7.907,7.907,0,0,0,2.632.518h.194c.164,0,.327-.013.49-.021a11.575,11.575,0,0,0,2.725.339c.124,0,.249,0,.374-.006a15.816,15.816,0,0,0,3.592-.541,22.92,22.92,0,0,0,6.212-2.644c.48-.3.944-.626,1.4-.966-.071.115-.137.233-.211.347A18.907,18.907,0,0,1,127.625,328.22Zm72.734-115.047c-.8.17-1.608.359-2.414.512-1.231.206-2.456.382-3.686.6-1.531.168-3.061.345-4.6.412a36.244,36.244,0,0,1-4.025-.1,33.5,33.5,0,0,1-3.532-.515c-.571-.112-1.131-.229-1.7-.347-2.149-.548-4.269-1.16-6.353-1.9L174,211.82c.084-.07.161-.149.246-.217l-.062.045.073-.054.116-.094c-.027.025-.054.047-.083.069a17.93,17.93,0,0,1,1.589-1.055l0,0,.12-.071-.117.069c.561-.308,1.131-.59,1.719-.849a18.9,18.9,0,0,1,2.061-.707c.464-.115.926-.205,1.4-.276.324-.035.649-.062.978-.073.454.007.9.037,1.354.083a19.723,19.723,0,0,1,2.105.441c1.661.453,3.281,1.036,4.945,1.494.642.177,1.284.365,1.937.5s1.333.319,2.009.415c-.029,0-.059-.007-.089-.009,1.284.177,2.556.341,3.845.436a31.1,31.1,0,0,0,5.635-.024c.828-.093,1.649-.233,2.464-.4-.487.172-.971.349-1.465.507C203.329,212.489,201.85,212.857,200.359,213.173Z"/></svg>