<svg xmlns="http://www.w3.org/2000/svg" width="155.954" height="249.562" viewBox="0 0 155.954 249.562"><path d="M64.158,76.332c.011-.124.023-.254.029-.383a11.352,11.352,0,0,0,.654-3.739,13.339,13.339,0,0,0-.53-3.728,11.624,11.624,0,0,0-1.437-3.026,12.209,12.209,0,0,0-5.088-4.693c-.1-.042-.206-.089-.312-.13a1.385,1.385,0,0,0,.507-.854,1.367,1.367,0,0,0-1.125-1.531,2.81,2.81,0,0,0-1.949.725,8.619,8.619,0,0,0-1.107.977,5.627,5.627,0,0,0-.942.165,8.415,8.415,0,0,0-1.095-.4,5.463,5.463,0,0,0-3.445.041,6.066,6.066,0,0,0-2.579,1.931,9.893,9.893,0,0,0-1.69,3.133,24.8,24.8,0,0,0-.76,3.474A33.571,33.571,0,0,0,43,76.02c.123,1.525.323,3.044.524,4.557.064.477.17.948.259,1.419a12.733,12.733,0,0,0,.594,2.279,6.107,6.107,0,0,0,1.908,2.78,5.2,5.2,0,0,0,2.862,1.054c.177.011.347.023.524.023a9.041,9.041,0,0,0,5.965-2.556c.13-.117.259-.241.383-.365a8.769,8.769,0,0,0,1.225-.571,6.113,6.113,0,0,0,1.254-.435,9.641,9.641,0,0,0,5.659-7.873ZM52.74,77.468c-.083-.542-.147-1.083-.194-1.631.047.094.1.189.153.277.141.241.288.489.447.724C53.011,77.05,52.869,77.256,52.74,77.468Zm1.92-3.28c-.118-.271-.224-.541-.324-.818a2.387,2.387,0,0,1,.147.206c.041.077.082.153.118.229s.07.177.1.266c.041.129.071.259.1.388C54.754,74.365,54.707,74.277,54.66,74.188Z"/><path d="M114.29,79.017a16.075,16.075,0,0,0-1.725-2.4,16.167,16.167,0,0,0-1.449-2.167A13.993,13.993,0,0,0,105.2,69.8a7.326,7.326,0,0,0-3.556-.624,8.75,8.75,0,0,0-3.056,1.1,9.891,9.891,0,0,0-3.439,3.339,11.745,11.745,0,0,0-2.214,1.955,14.808,14.808,0,0,0-3.174,6.4,13.434,13.434,0,0,0,.13,7.178,11.38,11.38,0,0,0,1.666,3.233,9.174,9.174,0,0,0,2.326,2.278,10.875,10.875,0,0,0,.983.548,10.056,10.056,0,0,0,1.767,2.461,7.054,7.054,0,0,0,2.979,1.785,9.4,9.4,0,0,0,2.526.382,6.171,6.171,0,0,0,.748-.041,10.844,10.844,0,0,0,6.395-3.6,14.912,14.912,0,0,0,2.756-4.245,11.691,11.691,0,0,0,2.2-2.373,9.941,9.941,0,0,0,1.472-6.925A11.14,11.14,0,0,0,114.29,79.017Zm-6.933-.763c.073.127.132.259.2.387-.084-.059-.164-.123-.252-.175C107.328,78.4,107.339,78.325,107.357,78.254Zm-2.842-.748c0,.012-.006.024-.006.035-.012.053-.03.106-.042.159a2.785,2.785,0,0,1-.123.283.159.159,0,0,1-.03.041,1.271,1.271,0,0,0-1.148-.877c.115-.069.23-.126.35-.184l.027-.01c.006,0,.012-.006.024-.006l-.011,0a3.688,3.688,0,0,1,.363-.087c.043,0,.087,0,.13-.01h.012c.018.011.041.017.059.029.041.023.082.047.13.077s.1.082.147.123c0,.006.006.006.006.012l-.042-.041a.526.526,0,0,1,.059.064.9.9,0,0,0,.047.106c.018.077.036.153.053.23a.025.025,0,0,1,0,.018c0-.018-.006-.036-.006-.053A.439.439,0,0,0,104.515,77.506Zm-.5-.665c-.016,0-.034.007-.052.01.016,0,.03-.008.046-.01Zm.124,12.9a10.924,10.924,0,0,1-.771.948c-.106.106-.218.212-.33.312a4.474,4.474,0,0,1-.4.288,1.408,1.408,0,0,1-.171.094.287.287,0,0,1-.076.03,1,1,0,0,0,.082-.071c.607-.542,1.184-1.107,1.731-1.7A.593.593,0,0,0,104.144,89.74Zm4.828-7.059c.009-.049.024-.1.032-.145.062.261.124.522.175.785C109.115,83.108,109.045,82.894,108.972,82.681Z"/><path d="M71.126,111.772a4.251,4.251,0,0,0-.572-1.307A3.365,3.365,0,0,0,68.04,109.1a3.6,3.6,0,0,0-2.326.89l-.218.017a3.264,3.264,0,0,0-1.195.377,5,5,0,0,0-1.8,1.891,7.545,7.545,0,0,0-.577,5.994,4.219,4.219,0,0,0,.783,1.3,4.112,4.112,0,0,0,.507.848,3.865,3.865,0,0,0,1.866,1.284,2.442,2.442,0,0,0,.713.1,3.57,3.57,0,0,0,1.672-.459,5.827,5.827,0,0,0,1.984-1.749,6.657,6.657,0,0,0,.919-1.755,7.367,7.367,0,0,0,.589-1.207,8.051,8.051,0,0,0,.171-4.858Zm-3.469,3.71c-.076.194-.159.377-.247.559-.059.1-.118.2-.177.294-.176.236-.359.46-.553.678-.089.088-.183.165-.271.247-.053.035-.1.071-.153.106l-.159.088c-.082.031-.165.061-.251.088s-.147.043-.22.06c-.024,0-.047,0-.071,0H65.52a1.97,1.97,0,0,0,1.248-1.778c.006-.141.012-.283.012-.424a.387.387,0,0,0,.012-.082c.047-.171.094-.342.153-.518.088-.218.182-.436.288-.654l.089-.159c.082.147.159.3.235.453.041.1.077.206.112.312.035.124.065.248.094.371A3.657,3.657,0,0,1,67.657,115.482Z"/><path d="M155.93,181.574c-.023-2.591-.076-5.182-.082-7.778,0-2.7.017-5.4.006-8.1-.012-2.668-.006-5.335-.106-8l-.177-4.7c-.059-1.4-.188-2.809-.283-4.211-.076-1.148-.194-2.29-.312-3.439-.129-1.218-.223-2.449-.406-3.662l-.048-.319c-.074-1.254-.155-2.508-.229-3.763-.082-1.5-.2-2.991-.324-4.481-.106-1.313-.218-2.632-.33-3.945-.035-.459-.07-.925-.123-1.39l-.76-6.612c-.118-.984-.288-1.967-.436-2.945-.223-1.466-.441-2.932-.665-4.392-.177-1.16-.424-2.309-.636-3.463-.259-1.384-.512-2.767-.771-4.145-.224-1.2-.5-2.385-.754-3.574q-.441-2.112-.883-4.222c-.513-2.409-1.06-4.811-1.6-7.214-.559-2.508-1.119-5.017-1.643-7.537-.565-2.714-1.078-5.441-1.59-8.173-.418-2.232-.759-4.475-1.219-6.7-.341-1.631-.677-3.268-1.018-4.9-.236-1.149-.595-2.279-.9-3.4-.283-1.06-.542-2.125-.9-3.156-.418-1.19-.831-2.385-1.249-3.58-.253-.889-.5-1.773-.753-2.662-.112-.377-.206-.759-.336-1.136-.489-1.39-.978-2.774-1.466-4.163-.189-.548-.418-1.084-.63-1.62-.277-.706-.548-1.407-.825-2.114-.477-1.213-1.018-2.408-1.525-3.609-.5-1.184-1.066-2.338-1.6-3.5a46.758,46.758,0,0,0-3.928-6.978,41.831,41.831,0,0,0-2.991-3.909c-.466-.525-.931-1.043-1.4-1.561-.377-.424-.742-.877-1.142-1.278-.542-.547-1.09-1.089-1.631-1.631a46.531,46.531,0,0,0-5.83-4.987,31.846,31.846,0,0,0-4.3-2.644c-.778-.383-1.561-.754-2.368-1.072-.753-.294-1.519-.606-2.3-.842-1.119-.342-2.238-.73-3.374-1.007-.8-.188-1.59-.389-2.385-.577-.512-.124-1.036-.2-1.549-.294-.859-.154-1.707-.318-2.573-.418a40.372,40.372,0,0,0-5-.283c-.1,0-.209.01-.313.013-1-.2-2-.358-3.014-.484-.594-.076-1.189-.17-1.79-.212-.806-.052-1.619-.123-2.426-.159-.742-.035-1.49-.035-2.232-.058-1.236-.03-2.478.017-3.715.088s-2.5.141-3.739.324c-.7.106-1.414.188-2.1.336-.143.031-.287.06-.432.088.145-.055.291-.1.432-.159.536-.194,1.071-.395,1.607-.595l2.415-.9.271-.091L75.5,5.7c1.059-.347,2.118-.689,3.178-1.041l-.033.011c1.772-.583,3.58-1.1,5.382-1.6a1.583,1.583,0,0,0,1.118-1.9,1.572,1.572,0,0,0-1.9-1.119c-1.784.483-3.58.966-5.346,1.532-1.472.471-2.956.906-4.411,1.436l-2.7.989c-.447.159-.918.3-1.354.489-1.431.636-2.85,1.284-4.275,1.92-1.025.459-2.008.983-3,1.5-1.608.836-3.221,1.654-4.787,2.578A47.241,47.241,0,0,0,44.521,21.038c-.589.677-1.172,1.372-1.725,2.078-.465.589-.96,1.178-1.384,1.8-.895,1.3-1.8,2.591-2.7,3.893-.318.459-.671.906-.96,1.383-.247.413-.5.825-.753,1.231-.854,1.4-1.7,2.8-2.556,4.187-.212.341-.388.7-.577,1.048-.442.8-.877,1.6-1.319,2.4-.542.99-1.125,1.973-1.625,2.986q-1.131,2.314-2.273,4.628c-.43.884-.872,1.761-1.254,2.668l-2.032,4.84c-.349.822-.646,1.67-.947,2.512q-.48.962-.961,1.922c-.388.777-.789,1.549-1.142,2.338q-1.068,2.41-2.149,4.822c-.336.766-.678,1.525-1.019,2.291-.094.218-.2.43-.288.653q-1.617,4.143-3.239,8.291c-.4,1.019-.715,2.073-1.066,3.1-.172.4-.347.8-.518,1.206-.436,1.007-.837,2.026-1.249,3.038-.424,1.06-.871,2.109-1.266,3.18q-.8,2.183-1.607,4.358c-.454,1.23-.83,2.49-1.243,3.727-.324.989-.636,1.973-.93,2.974-.395,1.313-.824,2.62-1.178,3.945-.653,2.473-1.319,4.934-1.913,7.419-.283,1.19-.583,2.379-.843,3.574-.341,1.579-.683,3.151-1.018,4.729-.253,1.166-.465,2.343-.7,3.515-.2,1.049-.406,2.091-.577,3.145-.153.948-.306,1.89-.459,2.838-.077.483-.183.972-.236,1.46q-.239,2.147-.477,4.305c-.123,1.148-.159,2.3-.218,3.45-.029.689-.064,1.378-.1,2.067-.035.766-.006,1.543.024,2.314.023.807.064,1.614.135,2.415a31.364,31.364,0,0,0,.848,5.175,30.264,30.264,0,0,0,1.561,4.5,26.719,26.719,0,0,0,2.378,4.311,17.624,17.624,0,0,0,2.774,3.274c.151.132.311.256.467.384a12.254,12.254,0,0,0,2.613,3.426A10.639,10.639,0,0,0,14.526,167a11.822,11.822,0,0,0,4.669.536,18.689,18.689,0,0,0,4.881-1.007c.213-.076.417-.169.626-.251.69.206,1.38.419,2.071.621,1.614.466,3.251.878,4.835,1.437H31.6a20.691,20.691,0,0,1,1.925.807,15.607,15.607,0,0,1,1.625.989c.277.206.542.43.8.654.454,1.713.754,3.474,1.131,5.205.147.671.353,1.337.53,2a19.506,19.506,0,0,0,.7,2.084,20.765,20.765,0,0,0,1.024,2.315c.1.187.216.366.322.551a21.765,21.765,0,0,0,.627,2.547,16.42,16.42,0,0,0,1.713,4.045,9.985,9.985,0,0,0,2.65,2.9,6.479,6.479,0,0,0,3.233,1.149,8.435,8.435,0,0,0,1.887-.111,18.018,18.018,0,0,0,4.843,2.011,14.653,14.653,0,0,0,4.94.318c2.263-.24,4.456-.853,6.7-1.278h-.012a.223.223,0,0,1,.036,0h0c.017,0,.035,0,.055-.007l.024-.006c.153-.024.312-.047.47-.07.107.094.218.188.324.288a21.284,21.284,0,0,1,1.59,1.69c.21.262.407.532.6.8.29,1.345.555,2.7.82,4.043.211,1.107.435,2.208.665,3.309.424,2.079.854,4.163,1.478,6.195a33.522,33.522,0,0,0,1.649,4.569A18.378,18.378,0,0,0,76.03,219a10.548,10.548,0,0,0,2.832,2.62,7.392,7.392,0,0,0,3.545,1.031c2.709.017,5.141-1.254,7.349-2.7,1.8-1.181,3.577-2.4,5.488-3.392a19.438,19.438,0,0,1,1.941-.8c.454-.136.9-.254,1.367-.349.39-.064.78-.108,1.175-.142.123,0,.242,0,.364,0,.33.142.66.283.985.447.441.247.867.509,1.287.8l-.006-.006.022.017h0c.645.484,1.268.99,1.867,1.531a30.276,30.276,0,0,1,2.454,2.638c.858,1.058,1.658,2.169,2.469,3.256.748,1,1.407,2.056,2.114,3.08.172.252.334.512.5.768q1.146,2.314,2.29,4.633c.507,1.024,1.06,2.031,1.59,3.049.489.943,1.06,1.85,1.6,2.763a37.72,37.72,0,0,0,3.992,5.546,18.321,18.321,0,0,0,5.783,4.67,12.2,12.2,0,0,0,9.25.371,14.232,14.232,0,0,0,4.317-2.55c.187-.158.365-.33.545-.5a13.345,13.345,0,0,0,3.035-2.923,26.249,26.249,0,0,0,3.9-7.942c.19-.466.386-.928.562-1.4.277-.76.53-1.531.789-2.3.206-.619.442-1.231.624-1.856.389-1.271.813-2.538,1.166-3.821.371-1.343.73-2.685,1.1-4.027.165-.607.283-1.231.424-1.838.171-.742.342-1.484.519-2.226.117-.53.2-1.072.3-1.6.147-.825.3-1.643.453-2.462.242-1.319.371-2.667.554-4,.177-1.278.271-2.573.4-3.857.265-2.556.436-5.129.583-7.69q.238-4.179.348-8.362C155.971,186.844,155.96,184.212,155.93,181.574Zm-34.294,53.495c-.277-.347-.554-.7-.83-1.048-.477-.606-.96-1.213-1.437-1.819-.324-.424-.624-.871-.937-1.3-.753-1.042-1.5-2.085-2.225-3.139q-1.366-1.972-2.733-3.941c-.105-.2-.2-.4-.311-.6-.289-.554-.566-1.125-.878-1.667a35.557,35.557,0,0,0-3.38-5.252,12.285,12.285,0,0,0-4-3.291,10.742,10.742,0,0,0-3.694-1.04,19.552,19.552,0,0,0-2.766-.993,27.168,27.168,0,0,0-7.151-.938c-.944,0-1.887.047-2.824.137-1.172.118-2.331.289-3.492.477-.73.118-1.454.242-2.19.324-.083-.094-.165-.182-.247-.277-.278-.363-.536-.74-.781-1.128-.309-.518-.586-1.04-.85-1.586a32.345,32.345,0,0,1-1.219-3.221c-.36-1.295-.719-2.6-1.049-3.9a24.614,24.614,0,0,0-1.053-3.4,11.223,11.223,0,0,0-2.326-3.669,7.444,7.444,0,0,0-3.743-2.075c-.189-.62-.388-1.237-.621-1.84a16.328,16.328,0,0,0-1.937-3.809,8.45,8.45,0,0,0-2.638-2.509,6.534,6.534,0,0,0-3.315-.948,8.573,8.573,0,0,0-2.143.33,9.2,9.2,0,0,0-1.579.648,21.007,21.007,0,0,0-3.291,2.19q-.507.395-1.013.792c-.653-.065-1.308-.118-1.967-.151-.981-.052-1.968-.1-2.95-.179a19.6,19.6,0,0,1-2.3-.345c-.354-.094-.7-.194-1.049-.312-.353-.135-.694-.283-1.03-.448-.379-.678-.736-1.373-1.06-2.08l.018.032a29.818,29.818,0,0,1-1.219-3.2c-.348-1.119-.707-2.237-1.1-3.333-.1-1.169-.175-2.339-.247-3.509-.071-1.095-.142-2.19-.224-3.285-.077-1.025-.189-2.038-.306-3.051-.059-.518-.183-1.03-.277-1.542a13.863,13.863,0,0,0-.671-2.562,5.987,5.987,0,0,0-1.779-2.614,5.554,5.554,0,0,0-2.644-1.166c-3.985-.542-7.538,1.764-10.966,3.455l.1-.046-.152.071-.06.029.049-.024c-.079.037-.161.068-.24.1l-.516,0c-1.177-.011-2.349-.029-3.527-.065l-.229-.088c.053.018.106.036.164.053a31.048,31.048,0,0,1-3.515-1.507,22.356,22.356,0,0,1-1.925-1.178,24.788,24.788,0,0,1-2.338-1.92,26,26,0,0,1-1.973-2.108,19.176,19.176,0,0,1-1.174-1.62c-.271-.447-.517-.907-.752-1.375-.186-1.266-.334-2.536-.416-3.82-.117-2.281-.1-4.558-.013-6.839-.006.076-.012.147-.018.224l.3-4.046c.064-.936.112-1.884.229-2.815q.318-2.454.636-4.905c.094-.771.183-1.542.312-2.308.265-1.578.53-3.162.8-4.74.165-.966.307-1.931.489-2.9q.707-3.717,1.409-7.445l-.007.031.021-.1.02-.108-.008.043c.849-4.23,1.71-8.449,2.628-12.661.536-2.462,1.054-4.923,1.649-7.373q.67-2.773,1.348-5.559c.1-.409.194-.822.291-1.233.759-2.149,1.539-4.291,2.314-6.434.706-1.841,1.388-3.694,2.112-5.523q1.227-3.118,2.514-6.218c.836-2.014,1.725-4,2.615-5.989.759-1.714,1.625-3.392,2.449-5.076.348-.642.7-1.272,1.054-1.914.336-.624.66-1.26,1.019-1.866.724-1.208,1.437-2.421,2.19-3.616.89-1.407,1.784-2.808,2.709-4.2.807-1.2,1.637-2.385,2.479-3.563.842-1.125,1.69-2.249,2.573-3.344.4-.5.795-1.007,1.219-1.484.5-.566,1-1.137,1.5-1.7.889-.9,1.766-1.808,2.691-2.673.86-.8,1.725-1.59,2.609-2.367.936-.831,1.866-1.661,2.808-2.48s1.885-1.6,2.833-2.379q2.34-1.827,4.71-3.6c2.049-1.525,4.093-3.1,6.266-4.458a.29.29,0,0,0-.047.024l.088-.053.051-.031h0l.017-.009.03-.02-.016.011a33.874,33.874,0,0,1,3.094-1.613c1.829-.8,3.7-1.464,5.595-2.109a36.577,36.577,0,0,1,3.793-.923c1.007-.165,2.025-.265,3.044-.383.418-.047.848-.047,1.266-.065l1.036-.053c1.423,0,2.847,0,4.276.1a33.792,33.792,0,0,1,3.839.577c1.6.365,3.174.848,4.752,1.319.163.049.324.107.485.164.755.423,1.5.863,2.225,1.334a49.4,49.4,0,0,1,4.605,3.484,55.765,55.765,0,0,1,4.744,4.721c.838.955,1.687,1.922,2.438,2.946.324.454.654.907.984,1.361.707.964,1.415,1.929,2.112,2.9.475.752.951,1.5,1.427,2.253.488.777,1.018,1.549,1.478,2.344.471.812.93,1.637,1.389,2.449.424.748.872,1.478,1.272,2.238.436.83.872,1.66,1.3,2.491.4.759.819,1.513,1.2,2.284.79,1.61,1.575,3.214,2.37,4.817.993,2.153,2.02,4.283,2.982,6.448.566,1.272,1.16,2.538,1.7,3.827l1.643,3.887c1.019,2.408,1.955,4.852,2.909,7.29.353.9.665,1.825.989,2.744q.663,1.863,1.331,3.721l-.071-.194q.874,2.862,1.755,5.729c.477,1.561.83,3.156,1.225,4.734q.2.814.4,1.626c.2,2.141.4,4.281.585,6.423.442,4.929.907,9.857,1.46,14.78.589,5.17,1.266,10.328,1.949,15.487q.31,2.367.624,4.722c.148,1.113.254,2.226.372,3.339.117,1.131.253,2.255.318,3.392.082,1.425.17,2.856.253,4.281.059,2.337.123,4.669.129,7.007q.018,3.939-.006,7.873c-.029,4.916-.047,9.839,0,14.756.041,5.553.1,11.1.1,16.658,0,4.841-.095,9.675-.053,14.515q.016,2.5.041,5.012c.006,1.183-.036,2.361-.053,3.544-.018,1.09-.024,2.167-.112,3.251-.112,1.4-.218,2.8-.336,4.2-.257,2.113-.608,4.193-1.05,6.273a63.1,63.1,0,0,1-2.013,7.074c.006-.013.012-.026.019-.039-.018.041-.029.077-.047.112s-.012.047-.018.065c0-.012.006-.018.006-.03a36.231,36.231,0,0,1-1.731,3.887c.012-.018.018-.03.029-.048-.011.024-.023.041-.035.065a1.007,1.007,0,0,0-.059.112.6.6,0,0,1,.033-.068c-.29.514-.586,1.006-.916,1.493-.3.4-.618.777-.954,1.148-.313.319-.641.614-.982.9-.178.142-.36.271-.543.4-.271.159-.542.3-.825.435-.323.13-.641.242-.965.353-.371.113-.742.207-1.125.289a27.194,27.194,0,0,1-2.748.3l.016,0a25.611,25.611,0,0,1-2.933-.054c-.477-.046-.948-.111-1.419-.194a40.493,40.493,0,0,1-3.274-2.738A47.154,47.154,0,0,1,121.636,235.069ZM78.015,209.585c-.129-.165-.248-.334-.366-.507a14.14,14.14,0,0,1-.765-1.49c-.848-1.943-1.514-3.969-2.279-5.947a32.6,32.6,0,0,0-1.552-3.525q-.3-1.539-.656-3.068c.066.042.136.079.2.122.224.176.436.353.648.541.141.136.276.283.406.43.206.271.4.536.583.819s.33.571.477.865a18.706,18.706,0,0,1,.671,1.761c1.037,3.468,1.631,7.107,3.327,10.352.094.182.189.359.289.541l-.142-.088c-.129-.094-.259-.194-.377-.294A4.308,4.308,0,0,1,78.015,209.585ZM49.708,189.952c-.073.021-.147.036-.221.055-.141-.12-.289-.231-.427-.357l.013.008c-.277-.265-.536-.542-.8-.825,1.036.16,2.083.239,3.131.3-.246.146-.487.3-.743.431Q50.194,189.775,49.708,189.952Zm-13-27.145-.018-.021,0,0ZM12.4,97.663c-.678,2.426-1.367,4.852-1.973,7.29-.317,1.269-.656,2.533-.947,3.808.022-.1.039-.212.058-.315l.477-2.527q.373-1.98.754-3.963.511-2.092,1.024-4.192c.218-.913.442-1.82.666-2.732.082-.33.147-.666.241-.989q1.19-3.972,2.38-7.944.448-1.309.9-2.615c-.056.214-.111.428-.163.643l-1.06,4.333c-.459,1.894-.917,3.787-1.354,5.687C13.056,95.317,12.725,96.491,12.4,97.663Zm-1.364,61.693c-.012-.024-.021-.05-.033-.075a23.945,23.945,0,0,0,2.239,1.954c-.053-.018-.106-.036-.165-.059-.412-.165-.813-.342-1.207-.536-.058-.032-.111-.072-.168-.1C11.468,160.149,11.247,159.76,11.036,159.356Zm139.9,37.8c-.124,1.307-.253,2.621-.377,3.933-.118,1.231-.218,2.468-.359,3.7-.136,1.171-.271,2.337-.407,3.509a.7.7,0,0,1,.006-.112c.018-1.307-.017-2.615-.029-3.922-.006-1.019-.018-2.031-.012-3.05.006-2.785.012-5.57.041-8.362.1-10.5-.088-21-.035-31.5q.018-3.975.047-7.944c.012-2.255.03-4.51-.024-6.766-.035-1.572-.07-3.138-.1-4.71-.029-1.331-.153-2.668-.229-3.993-.059-1.095-.165-2.173-.277-3.262-.124-1.207-.224-2.42-.383-3.622q-.476-3.63-.955-7.261c.4,1.787.8,3.57,1.2,5.355.306,1.348.636,2.69.907,4.039.282,1.387.564,2.769.846,4.156.224,1.467.443,2.933.667,4.4.16,1.057.263,2.119.377,3.181q.135,3.1.28,6.2c.048,1.2.056,2.4.085,3.6.035,1.243.1,2.491.094,3.733q-.018,3.861-.03,7.726c-.006,1.266-.053,2.526-.076,3.792s-.036,2.532-.077,3.792c-.076,2.5-.111,5.011-.229,7.514q-.106,2.217-.212,4.422c-.059,1.266-.089,2.532-.177,3.8-.183,2.614-.4,5.223-.583,7.832ZM138,244.312c-.14.053-.276.114-.419.162a4.628,4.628,0,0,1-.542.129c-.343.052-.684.077-1.03.1-.231,0-.461,0-.692-.015a6.053,6.053,0,0,1-.669-.1c-.335-.082-.665-.177-1-.277.071-.006.141-.017.212-.023a14.88,14.88,0,0,0,4.676-1.113,9.551,9.551,0,0,0,1.7-1c-.022.026-.041.054-.064.081-.489.544-.993,1.066-1.531,1.561C138.433,243.989,138.211,244.147,138,244.312ZM117.92,25.789c.377.359.766.7,1.125,1.078,1.242,1.319,2.5,2.62,3.657,4.016a57.922,57.922,0,0,1,3.586,4.952c.683,1.148,1.372,2.3,2.061,3.433.588.989,1.1,2.025,1.637,3.038.488.931.977,1.855,1.43,2.8.583,1.231,1.172,2.461,1.755,3.692.354.848.7,1.69,1.06,2.532.242.571.483,1.148.724,1.725.095.224.2.448.283.677l.336.972c.082.277.159.554.229.836.354,1.526.748,3.045,1.054,4.576.33,1.613.683,3.226.978,4.852q.459,2.544.918,5.093l-.035-.188.183,1.2c-.81-2.232-1.691-4.44-2.562-6.645-.518-1.319-1.095-2.615-1.643-3.916-.417-.989-.836-1.973-1.271-2.956-.595-1.343-1.16-2.7-1.785-4.034-.659-1.407-1.313-2.82-1.972-4.228-.477-1.036-.984-2.055-1.484-3.079-.548-1.113-1.083-2.238-1.655-3.333-.748-1.437-1.5-2.868-2.249-4.3-.654-1.254-1.4-2.473-2.1-3.709-.572-1.007-1.184-1.979-1.8-2.962-.672-1.072-1.308-2.185-2.049-3.2q-1.467-2.014-2.921-4.022c-.819-1.125-1.743-2.185-2.662-3.221-.093-.105-.191-.2-.285-.308l.026.019c.412.3.854.582,1.243.912q1.289,1.113,2.608,2.214C116.866,24.8,117.39,25.3,117.92,25.789Zm-8.815-10.752a35.113,35.113,0,0,1,3.7,2.311c.624.459,1.233.929,1.835,1.416-.5-.365-1.007-.724-1.5-1.1-.536-.406-1.137-.748-1.7-1.113-.424-.271-.836-.559-1.272-.807-.907-.494-1.8-1.006-2.715-1.483C108.01,14.507,108.558,14.76,109.105,15.037Zm-45.18-2.078a33.79,33.79,0,0,1,3.8-1.543c-.028.011-.057.023-.087.033.8-.255,1.617-.46,2.425-.687.312-.088.636-.135.948-.2l.094-.019a47.626,47.626,0,0,0-4.581,1.762c-2.431,1.091-4.865,2.189-7.25,3.378l.05-.036C60.831,14.7,62.333,13.761,63.925,12.959ZM42.413,32.632l1.749-2.243c.471-.6.977-1.178,1.46-1.767.53-.636,1.054-1.272,1.584-1.9-.041.047-.082.1-.123.136.718-.8,1.425-1.6,2.137-2.391.489-.548,1-1.066,1.513-1.59.642-.648,1.272-1.331,1.955-1.937.7-.625,1.4-1.255,2.1-1.875.385-.3.765-.607,1.144-.91s.76-.636,1.16-.919c.446-.319.9-.637,1.345-.956a1.6,1.6,0,0,0-.132,1.674,1.517,1.517,0,0,0,1.278.806c-.383.3-.76.583-1.137.872-2.078,1.578-4.163,3.162-6.118,4.893-1.855,1.643-3.727,3.28-5.523,4.987-.524.5-1.072.984-1.573,1.5-.477.5-.954.989-1.425,1.484-.353.359-.688.736-1.018,1.107a3.763,3.763,0,0,0-1.578,1.06c-.555.54-1.071,1.118-1.585,1.7q.759-1.048,1.52-2.095C41.553,33.71,41.989,33.174,42.413,32.632ZM3.957,149.557a29.679,29.679,0,0,1-.79-3.232A37.746,37.746,0,0,1,2.69,141.7v.029c-.036-.912-.071-1.837-.03-2.75.024-.5.047-1,.071-1.5.047-.989.088-1.973.135-2.968.1-.907.206-1.814.306-2.721.083-.742.13-1.5.248-2.237l.477-2.968c.123-.783.229-1.572.377-2.349.347-1.761.659-3.528,1.036-5.282q.312-1.47.632-2.942c-.022.153-.044.305-.067.457-.129.907-.212,1.826-.318,2.739-.218,1.919-.435,3.845-.653,5.764-.265,2.285-.459,4.576-.66,6.866q-.239,2.782-.477,5.559c-.159,1.808-.276,3.616-.4,5.429A1.243,1.243,0,0,0,4.6,144.076a1.127,1.127,0,0,0,.2-.023c.1,1.437.215,2.875.435,4.3.027.607.048,1.214.1,1.82.1,1.249.251,2.5.463,3.752-.255-.475-.5-.954-.729-1.444Q4.441,151.045,3.957,149.557Zm32.556,16.088a8.573,8.573,0,0,0-4.609-2.694c.2-.078.4-.174.6-.247.488-.148.978-.276,1.478-.38.251-.036.505-.061.759-.077.188-.007.376-.007.564,0,.109.017.217.03.326.044.165.037.326.091.486.144l.192.083.163.1.133.1.156.156c.078.093.156.185.228.284.051.085.1.169.145.254.1.235.2.469.286.711.146.463.257.931.361,1.4.1.52.2,1.038.289,1.553.112.606.147,1.23.218,1.837.005.041.007.082.011.122A9.648,9.648,0,0,0,36.513,165.645Zm24.2,27.252c-.7.112-1.389.2-2.09.247a16.2,16.2,0,0,1-1.843-.035H56.8c-.5-.053-.983-.124-1.466-.224a15.05,15.05,0,0,1-1.815-.536h0c-.143-.057-.281-.129-.423-.189a24.632,24.632,0,0,0,2.22-1.476c.475-.356.943-.722,1.413-1.086.313.054.626.1.936.172a24.852,24.852,0,0,1,2.595.757,24.9,24.9,0,0,1,2.291,1c.42.223.833.454,1.238.7C62.734,192.461,61.7,192.708,60.708,192.9Zm-1.074-5.465c.032-.022.062-.047.093-.068.386-.253.772-.483,1.176-.694.332-.15.662-.283,1.008-.406.138-.041.278-.076.419-.105l.335-.04a5.326,5.326,0,0,1,.565,0c.105.017.21.034.315.048s.189.048.281.069c.155.057.3.126.454.2a5.085,5.085,0,0,1,.464.265q.194.143.381.3c.207.195.407.394.6.6.218.269.417.538.608.819q.3.48.557.98c.333.708.622,1.431.89,2.163-.063.006-.125.007-.188.014A23.227,23.227,0,0,0,59.634,187.432Zm21.047,31.3.05.034h0Zm5.145-.4c-.441.208-.879.408-1.334.579-.363.106-.719.2-1.087.273a5.293,5.293,0,0,1-.545.065c-.14,0-.285,0-.43-.006-.176-.017-.351-.041-.527-.07a6.593,6.593,0,0,1-.654-.178c-.137-.051-.268-.115-.4-.177-.085-.05-.169-.1-.258-.148-.242-.168-.471-.343-.7-.527-.244-.232-.477-.465-.709-.708a12.974,12.974,0,0,1-.809-1.058,22.356,22.356,0,0,1-1.095-2l.025.046a27.781,27.781,0,0,1-1.164-2.872c-.008-.025-.015-.051-.023-.076a7.087,7.087,0,0,0,1.163,1.1,5.622,5.622,0,0,0,1.525.783,9.2,9.2,0,0,0,2.733.412,6.018,6.018,0,0,0,1.207.913,7.066,7.066,0,0,0,1.79.765,8.464,8.464,0,0,0,2.073.265,13.515,13.515,0,0,0,2.184-.218c.84-.154,1.671-.365,2.5-.568C89.484,216.086,87.734,217.358,85.826,218.337Zm43.48,27.561q-.437-.159-.856-.352c-.444-.233-.867-.481-1.285-.748a17.763,17.763,0,0,1-1.537-1.207l.012.012c-.047-.044-.089-.093-.136-.137a15.154,15.154,0,0,0,1.732.513,23.909,23.909,0,0,0,2.09,1.343c.582.33,1.184.647,1.8.937-.293-.035-.587-.062-.88-.115C129.928,246.071,129.617,245.99,129.306,245.9Z"/></svg>