<svg xmlns="http://www.w3.org/2000/svg" width="257.454" height="79.419" viewBox="0 0 257.454 79.419"><path d="M257.442,1.573A1.772,1.772,0,0,0,254.3.649c-.848,1.16-1.731,2.273-2.661,3.362-.676.8-1.383,1.565-2.087,2.33-.541.541-1.07,1.093-1.605,1.639q-1.243,1.26-2.6,2.391a36.823,36.823,0,0,1-3.275,2.325l.009,0C238.61,14.819,235,16.725,231.4,18.628a1.6,1.6,0,0,0-.087-1.682,1.576,1.576,0,0,0-2.172-.348c-3.787,2.538-7.479,5.212-11.212,7.832-1.619,1.137-3.239,2.273-4.846,3.433-.8.577-1.6,1.148-2.385,1.743-.86.652-1.742,1.276-2.569,1.96h0l.043-.038-.044.037c-.249-.562-.512-1.119-.8-1.661a28.822,28.822,0,0,0-6.489-8.215,41.4,41.4,0,0,0-4.387-3.309,28.547,28.547,0,0,0-4.758-2.579,24.255,24.255,0,0,0-10.517-1.92,23.777,23.777,0,0,0-10.505,3.239,39.723,39.723,0,0,0-8.579,6.866c-1.09,1.136-2.1,2.355-3.151,3.533-.365.418-.689.877-1.03,1.313-.518.671-1.036,1.337-1.56,2-.295.383-.56.783-.837,1.178-.535.777-1.077,1.549-1.613,2.326-.736,1.059-1.39,2.167-2.061,3.268-.341.559-.718,1.107-1.031,1.678-.282.518-.559,1.042-.836,1.566-.184.341-.371.68-.558,1.021-1.054-.916-2.144-1.789-3.246-2.646-1.083-.848-2.208-1.631-3.326-2.42-.648-.46-1.331-.871-2-1.3-.871-.565-1.748-1.112-2.661-1.613a36.527,36.527,0,0,0-10.364-3.957c-.313-.069-.627-.122-.941-.181-.748-.211-1.5-.408-2.262-.575a43.243,43.243,0,0,0-5.294-.859c-1.678-.16-3.356-.277-5.04-.331-1.943-.064-3.892-.064-5.835.024q-.611.026-1.219.059a34.351,34.351,0,0,0-2.515-6.14,27.753,27.753,0,0,0-6.212-8.249A22.109,22.109,0,0,0,89,8.81a24.49,24.49,0,0,0-5.187-.654A29.866,29.866,0,0,0,78.5,8.6q-.864.155-1.72.335c-.175.006-.349,0-.524.01a68.194,68.194,0,0,0-20.621,4.57,97.824,97.824,0,0,0-9.716,4.292c-3.15,1.608-6.212,3.392-9.209,5.282-3.068,1.943-6.083,3.969-9,6.142q-2.278,1.706-4.51,3.456c-.94.735-1.91,1.45-2.814,2.226l-.032.027,0,0c.011-.01.024-.019.036-.029l.034-.029c-.026.02-.048.039-.072.059-.058.037-.119.07-.175.108q-2.129,1.413-4.258,2.838c-.924.618-1.819,1.278-2.714,1.943-1.072.784-2.167,1.537-3.2,2.367-1.254,1-2.5,2.02-3.756,3.021a32.348,32.348,0,0,0-3.427,3.109,9.054,9.054,0,0,0-1.137,1.408,2.925,2.925,0,0,0-.365,1.03,1.178,1.178,0,0,0,.2.888c-.108.126-.228.241-.331.37A5.007,5.007,0,0,0,.018,54.208a1.3,1.3,0,0,0,1.1,1.466,1.309,1.309,0,0,0,1.449-1.011c.018-.062.037-.126.057-.191.055-.1.115-.2.178-.292.342-.46.708-.892,1.093-1.318,1.534-1.627,3.209-3.091,4.866-4.59,1.131-1.018,2.238-2.072,3.4-3.068-.047.036-.088.071-.136.106,3.3-2.721,6.56-5.5,9.831-8.257.228-.131.455-.267.68-.4,1.519-.913,3.044-1.808,4.569-2.715.984-.589,2.02-1.112,3.033-1.661q3.877-2.093,7.8-4.121,3.8-1.971,7.626-3.916c.96-.489,1.931-.966,2.9-1.449,1.225-.6,2.432-1.242,3.674-1.813l-.159.071q2.924-1.335,5.836-2.709c-.053.029-.106.053-.159.077,1.336-.537,2.661-1.12,3.992-1.679.971-.412,1.949-.777,2.938-1.137,1.107-.411,2.214-.847,3.345-1.207q1.916-.62,3.848-1.231c2.245-.633,4.5-1.241,6.792-1.666l-.027,0,.05-.008c.939,0,1.878.03,2.816.1h0l.156.011-.07,0a39.015,39.015,0,0,1,4.449.672,34.466,34.466,0,0,1,3.915,1.123,31.2,31.2,0,0,1,3.338,1.461,30.2,30.2,0,0,1,2.925,1.771A27.043,27.043,0,0,1,98.5,18.548l-.019-.018.023.021.107.1c-.032-.027-.061-.052-.089-.078a23.768,23.768,0,0,1,1.8,1.9l-.016-.016c.039.048.07.1.108.149.017.026.035.05.052.076a36.9,36.9,0,0,1,2.061,3.788,35.66,35.66,0,0,1,1.5,3.862c-.206.024-.412.047-.618.075a45.077,45.077,0,0,0-10.028,2.444,41.8,41.8,0,0,0-8.827,4.6A30.633,30.633,0,0,0,80.5,38.674a21.781,21.781,0,0,0-2.933,3.386,10.587,10.587,0,0,0-1.972,8,8.1,8.1,0,0,0,1.872,3.715,10.109,10.109,0,0,0,.928.889,6,6,0,0,0,.886,1.139,8.289,8.289,0,0,0,1.6,1.213,7.512,7.512,0,0,0,1.861.718,9.37,9.37,0,0,0,4.5-.1,25.387,25.387,0,0,0,2.916-.924,23.151,23.151,0,0,0,8.148-3.73,24.772,24.772,0,0,0,5.41-5.266,17.317,17.317,0,0,0,1.5-1.78,16.9,16.9,0,0,0,2.2-4.087,16.671,16.671,0,0,0,.948-5.029,25.853,25.853,0,0,0-.263-4.8l.449-.04q1.522-.051,3.052-.112c.819-.03,1.643,0,2.467.023.8.017,1.584.029,2.379.077,1.014.063,2.033.155,3.046.191a74.624,74.624,0,0,1,7.506.982,37.993,37.993,0,0,1,3.9,1.088c1.035.445,2.059.917,3.069,1.428a49.254,49.254,0,0,1,5.31,3.235,50.374,50.374,0,0,1,4.572,3.7l-.013-.013.025.024.116.106-.064-.057c1.182,1.11,2.294,2.286,3.367,3.5l-.412.891c-.242.518-.5,1.03-.719,1.548A56.771,56.771,0,0,0,142.908,58.6c-.025.076-.053.151-.078.227a34.189,34.189,0,0,0-1.278,5.012,21.11,21.11,0,0,0-.336,4.468,13.39,13.39,0,0,0,1,4.794,7.643,7.643,0,0,0,2.155,3.086,6.4,6.4,0,0,0,2.606,1.275c.123.086.239.185.367.263a11.257,11.257,0,0,0,4.935,1.649c.307.028.616.042.925.042a10.434,10.434,0,0,0,3.491-.6,12.583,12.583,0,0,0,6.942-5.777,9.715,9.715,0,0,0,1.1-4.781,16.305,16.305,0,0,0-.754-4.251c.023.07.047.141.071.211-.042-.133-.084-.264-.126-.394l.014.047-.035-.114-.03-.092.018.056q-.143-.462-.29-.931v0a38.526,38.526,0,0,0-2.479-5.919A46.349,46.349,0,0,0,156.6,49.44c-.63-.818-1.272-1.642-1.973-2.4-.494-.53-.983-1.066-1.478-1.6-.154-.165-.316-.322-.474-.483q.539-.921,1.093-1.827c.571-.949,1.124-1.908,1.754-2.821.786-1.138,1.566-2.276,2.351-3.409,1.024-1.328,2.037-2.666,3.084-3.975.466-.583.99-1.124,1.478-1.684.541-.611,1.087-1.222,1.616-1.839a53.169,53.169,0,0,1,4.028-3.831,30.49,30.49,0,0,1,6.836-4.329,30.064,30.064,0,0,1,3.343-1.268,28.232,28.232,0,0,1,2.932-.7h-.013a27.094,27.094,0,0,1,2.753-.3c.789-.021,1.569,0,2.357.053h-.033a23.359,23.359,0,0,1,2.341.34,19.384,19.384,0,0,1,1.9.554,17.257,17.257,0,0,1,1.58.7c.545.3,1.073.625,1.59.971a24.166,24.166,0,0,1,2.265,1.862c-.027-.025-.053-.051-.081-.079l.091.088.045.042-.035-.032c.7.681,1.361,1.4,2,2.141a.928.928,0,0,1-.058-.078,27.057,27.057,0,0,1,3.9,6.242l-.006-.013a35.387,35.387,0,0,1,1.443,3.746c.023.075.047.149.07.225q-.326.319-.641.647a34.555,34.555,0,0,0-3.3,3.88,22.7,22.7,0,0,0-3.9,8.7,16.888,16.888,0,0,0-.389,4.958,10.631,10.631,0,0,0,.354,2.066,7.434,7.434,0,0,0,.736,1.826,6.546,6.546,0,0,0,1.189,1.507,5.483,5.483,0,0,0,1.531,1.013,5.719,5.719,0,0,0,3.427.412,6.15,6.15,0,0,0,1.761-.73,6.9,6.9,0,0,0,1.425-1.16,10.206,10.206,0,0,0,1.911-2.83,16.226,16.226,0,0,0,1.951-4.157,25.935,25.935,0,0,0,1.184-5.035,23.907,23.907,0,0,0,.053-5.582c-.124-1.078-.318-2.144-.506-3.216q-.151-.837-.346-1.668l.063-.053c1.937-1.55,3.984-2.944,6.027-4.345,1.177-.739,2.346-1.488,3.518-2.228l-.041.027c1.177-.742,2.4-1.413,3.6-2.119C224,27,225.12,26.4,226.233,25.781c2.391-1.319,4.805-2.579,7.214-3.857q1.863-.981,3.715-1.973c1.16-.618,2.3-1.272,3.463-1.9.641-.341,1.266-.73,1.9-1.1,1-.577,1.984-1.166,2.926-1.825a34.87,34.87,0,0,0,4.428-3.663c.56-.554,1.09-1.137,1.631-1.707a59.468,59.468,0,0,0,5.418-6.666l-.142.194c.1-.129.183-.259.277-.389A1.866,1.866,0,0,0,257.442,1.573Zm-52.15,49.419c-.248.639-.516,1.264-.81,1.882-.184.335-.379.656-.592.974-.1.138-.212.273-.329.4s-.248.251-.377.372l-.06.048-.039.021-.059.021-.132.03-.077.007h0l-.071-.032-.17-.1c-.063-.048-.124-.1-.184-.149-.04-.046-.081-.092-.123-.137-.045-.063-.091-.123-.137-.184-.11-.191-.212-.384-.311-.584q-.106-.252-.2-.509c-.063-.205-.116-.415-.159-.626-.08-.476-.13-.953-.163-1.434,0-.383.006-.759.025-1.141q.084-.869.241-1.728a19.451,19.451,0,0,1,.56-1.989,21.219,21.219,0,0,1,.918-2.078,24.674,24.674,0,0,1,1.3-2.129c.154-.213.319-.416.48-.623.063.31.124.621.189.928.156.941.32,1.882.424,2.835.053.483.123.972.147,1.454.033.5.06,1,.088,1.5,0,.535.034,1.087-.006,1.621,0,.067-.008.133-.013.2C205.536,50.227,205.425,50.612,205.292,50.992ZM156.009,66.583c-.042.38-.1.753-.168,1.129-.109.418-.228.828-.371,1.238-.13.318-.264.624-.408.933a11.8,11.8,0,0,1-.629,1.027c-.222.29-.455.571-.7.847-.323.33-.653.65-1.007.957-.306.245-.615.475-.938.693a11.448,11.448,0,0,1-1.033.56c-.3.126-.6.234-.9.336-.188.054-.377.1-.565.141-.107.016-.213.021-.319.034-.159-.124-.325-.241-.479-.376-.231-.227-.447-.462-.659-.707-.179-.238-.345-.475-.5-.721-.176-.309-.339-.616-.5-.936-.149-.346-.284-.692-.409-1.043a18.01,18.01,0,0,1-.467-1.916c-.107-.691-.18-1.372-.226-2.067a31.8,31.8,0,0,1,.093-3.338,40.193,40.193,0,0,1,.686-4.251,49.7,49.7,0,0,1,1.426-4.924c.174-.379.337-.763.518-1.139q.8-1.669,1.6-3.332l.051-.092q.759,1.051,1.456,2.152a36.425,36.425,0,0,1,2.064,3.832,35.13,35.13,0,0,1,1.352,3.526c.32,1.061.584,2.133.8,3.224a19.621,19.621,0,0,1,.276,2.343C156.059,65.338,156.049,65.957,156.009,66.583Zm-52.18-24.641a16.988,16.988,0,0,1-.972,1.629c-.393.529-.812,1.033-1.25,1.528a27.57,27.57,0,0,1-2.536,2.378A46.438,46.438,0,0,1,94.843,50.5a42.227,42.227,0,0,1-3.984,2.172l.023-.01-.031.014-.169.08c.031-.017.062-.032.094-.047-.932.412-1.875.792-2.839,1.118-.615.186-1.231.349-1.861.48-.21.036-.421.055-.632.078h-.067a15.68,15.68,0,0,1-1.779-.256c-.3-.073-.59-.158-.888-.247-.177-.065-.347-.149-.521-.223-.055-.045-.111-.091-.168-.136-.119-.114-.238-.229-.346-.354l.062.078-.07-.087c-.026-.029-.052-.06-.077-.09l.067.078c-.115-.145-.222-.293-.323-.446-.106-.176-.2-.359-.293-.543s-.15-.377-.212-.569c-.059-.215-.109-.429-.151-.647-.042-.241-.071-.482-.089-.723-.013-.371-.006-.731.017-1.1.045-.4.107-.783.181-1.174.1-.4.213-.786.341-1.176.182-.467.379-.921.6-1.375.256-.473.531-.933.833-1.385a18.709,18.709,0,0,1,1.236-1.548,26.308,26.308,0,0,1,2.144-2.011A35.554,35.554,0,0,1,89.1,38.231a46.785,46.785,0,0,1,4.233-2.273,51.291,51.291,0,0,1,5.573-2.146l-.022.006.052-.015.154-.049-.065.022a50.5,50.5,0,0,1,4.942-1.211q.5-.088,1-.164c.072.518.115,1.042.158,1.565a25,25,0,0,1-.064,2.883c-.088.836-.21,1.668-.379,2.5-.135.6-.31,1.183-.492,1.767C104.069,41.389,103.96,41.67,103.829,41.942ZM82.065,53.565l.048.044L82.1,53.6ZM52.542,17.784c-2.52,1.19-5.005,2.45-7.5,3.7-1.56.776-3.107,1.579-4.65,2.387a108.119,108.119,0,0,1,10.172-5.433q2.679-1.224,5.424-2.279c-.279.134-.557.271-.835.4C54.279,16.966,53.414,17.378,52.542,17.784Zm105.386,40.26c.224.448.454.9.673,1.346.3.691.594,1.383.9,2.075.283.659.5,1.352.746,2.024a31.337,31.337,0,0,1,.887,3.334c.051.36.094.716.125,1.076.01.361,0,.719-.019,1.081-.025.235-.058.47-.1.7-.085.372-.183.728-.3,1.089-.076.2-.162.395-.258.589-.148.27-.305.53-.473.789-.185.252-.382.491-.589.728-.306.314-.624.61-.956.9-.387.3-.78.575-1.19.834-.3.171-.595.334-.9.492-.345.155-.692.292-1.047.415-.316.091-.627.17-.948.242-.325.048-.649.078-.977.1a12.9,12.9,0,0,0,4.278-4.778,12.1,12.1,0,0,0,1.172-4.293,19.659,19.659,0,0,0-.271-4.763,30.774,30.774,0,0,0-1.587-5.586c.083.145.166.291.25.435C157.562,57.248,157.733,57.655,157.928,58.044Zm51.8-21.686h0l.055-.043Z"/></svg>