<svg xmlns="http://www.w3.org/2000/svg" width="276.664" height="330.75" viewBox="0 0 276.664 330.75"><path d="M128.789,177.625c.031,0,.062,0,.093-.006l.061,0Z"/><path d="M276.564,162.1a1.443,1.443,0,0,0-.767-.789,1.5,1.5,0,0,0-1.1-.007,1.432,1.432,0,0,0-.164.055c.011-.008.028-.011.044-.02-1.9.631-3.826,1.184-5.748,1.765-2.018.606-4.04,1.225-6.066,1.826q-4.662,1.392-9.34,2.732c-1.2.349-2.414.669-3.629,1-1.357.366-2.708.761-4.07,1.1q-1.085.272-2.166.539a10.784,10.784,0,0,0-.943-.846,57.174,57.174,0,0,0-6.484-4.113c-1.371-.811-2.761-1.6-4.133-2.408-1.518-.891-3.041-1.776-4.547-2.694-1.431-.873-2.872-1.737-4.3-2.629-1.276-1.634-2.456-3.333-3.648-5.025-.461-.661-.88-1.349-1.32-2.026-.492-.757-.979-1.522-1.476-2.272-.028-.055-.064-.114-.1-.179q-.881-1.461-1.759-2.914c-.352-.587-.713-1.159-1.047-1.749-.5-.887-1.01-1.78-1.509-2.668-.414-.73-.857-1.449-1.245-2.2-.844-1.6-1.71-3.186-2.554-4.788-.4-.752-.746-1.524-1.119-2.287-.392-.8-.78-1.613-1.179-2.413a75.7,75.7,0,0,1-2.824-7.093.318.318,0,0,1-.026-.073.117.117,0,0,0,.009.024c-.359-1.1-.69-2.211-.981-3.333-.037-.449-.074-.891-.111-1.34-.273-3.354-.634-6.7-.871-10.047v-.009l0-.081a.327.327,0,0,1-.006-.042h0V107.1a10.965,10.965,0,0,0-.367-2.948,1.237,1.237,0,0,0-.485-.608,1.127,1.127,0,0,0,.224-.645,1.178,1.178,0,0,0-1.156-1.165c-.125,0-.256,0-.379-.012h-.015l-.381-.027c1.139-1.959,2.3-3.9,3.45-5.853.377-.635.713-1.292,1.068-1.947q1.065-1.965,2.134-3.937c.908-1.684,1.8-3.388,2.681-5.09.584-1.124,1.174-2.244,1.757-3.367a10.11,10.11,0,0,0,1.343-2.486,1.988,1.988,0,0,0-.045-1.118,1.852,1.852,0,0,0-.617-.752,1.355,1.355,0,0,0-1.889.216c-.55.734-1.106,1.463-1.657,2.191-.4.526-.808,1.041-1.18,1.58-1.229,1.726-2.432,3.472-3.647,5.208-.766,1.081-1.529,2.173-2.293,3.259-.3.435-.622.856-.915,1.3l-.113.166c.008-.012.015-.028.023-.041h0c-.027.04-.054.079-.08.12.014-.02.028-.039.043-.058l-.089.13-.136.2c.033-.048.066-.1.1-.151q-3.43,4.951-6.832,9.917-.939-.081-1.877-.165c-.522-.044-1.044-.107-1.564-.176.813-1.379,1.625-2.762,2.449-4.136,1.037-1.732,2.02-3.5,3.023-5.245.781-1.347,1.556-2.694,2.336-4.041.324-.565.667-1.128.977-1.7,1.088-2,2.184-3.989,3.232-6.005a1.1,1.1,0,0,0,.587-.729,8.562,8.562,0,0,0,.16-.858,1.188,1.188,0,0,0-2.27-.622c-.2.4-.4.8-.6,1.194h0l0,.007-.009.014c0,.012-.013.026-.022.046v0c-.982,1.908-2.038,3.771-3.055,5.656-.781,1.438-1.635,2.841-2.455,4.262-1.707,2.968-3.406,5.941-5.153,8.887q-.871,1.47-1.74,2.942c-.535-.072-1.07-.149-1.6-.241-1.215-.212-2.427-.437-3.641-.644.051.015.106.022.157.036-.751-.168-1.5-.331-2.252-.494-.119-.025-.232-.052-.35-.077-.316-.144-.631-.288-.941-.439l-.079-.038.013.007c-.267-.134-.529-.269-.789-.4h0a67.309,67.309,0,0,1-7-4.308c.02.014.042.034.063.048q-1.068-.741-2.152-1.479a.5.5,0,0,1,.063.048c-1.445-1.007-2.918-1.98-4.405-2.925q-4.164-2.652-8.356-5.261c-1.334-.831-2.675-1.643-4-2.5Q148.342,80.32,146,78.8c-.871-.637-1.737-1.282-2.607-1.919-.635-.467-1.274-.927-1.889-1.421q-1.121-.907-2.232-1.822l-.873-7.773-.586-5.253c-.285-2.5-.769-4.984-.978-7.5a1.248,1.248,0,0,0,.277-1.1,13.652,13.652,0,0,0-.375-1.337,1.186,1.186,0,0,0-1.405-.71,1.2,1.2,0,0,0-.891,1.147c-.022.484-.067.972-.041,1.452.025.415.048.819.09,1.23.086.9.2,1.785.33,2.677.189,1.276.4,2.556.539,3.841.126,1.1.248,2.213.375,3.321q.428,3.866.865,7.734c-.115-.1-.233-.195-.347-.3a1.33,1.33,0,0,0-1.784,1.964c.872.991,1.731,1.978,2.587,2.978l.065.077c.185,1.768.283,3.542.409,5.316.5,7.015.963,14.035,1.491,21.056l-.013-.16q.216,5.858.412,11.717c-.011-.009-.015-.022-.026-.031a1.451,1.451,0,0,0-1.555-.14q-.157-1.813-.314-3.627c-.127-1.42-.242-2.843-.393-4.265q-1.166-11.035-2.338-22.075c-.063-.587-.133-1.173-.2-1.76a6.2,6.2,0,0,0,.113-2.235,4.69,4.69,0,0,0-.406-1.283l-.045-.589q-.055-.722-.112-1.442v-.03c-.007-1.269-.082-2.544-.144-3.815-.1-2.223-.2-4.44-.3-6.663-.067-1.551-.188-3.1-.286-4.651q-.18-2.789-.355-5.579c-.082-2.322-.213-4.647-.314-6.971-.084-1.764-.126-3.53-.164-5.3-.037-1.671-.091-3.339-.1-5.01q-.021-2.9-.042-5.8-.038-5.251-.1-10.494c-.053-3.616-.1-7.239-.053-10.857.023-1.8.08-3.612-.011-5.411a21.594,21.594,0,0,0-.251-2.547c-.094-.492-.193-.983-.314-1.463-.049-.194-.111-.392-.154-.588a1.875,1.875,0,0,0-.583-.95A1.525,1.525,0,0,0,129.354.1a1.521,1.521,0,0,0-.92,1.182c-.079.434-.175.872-.223,1.313-.047.416-.081.837-.109,1.255-.067.906-.093,1.81-.125,2.715-.014.489-.029.977-.038,1.464q-.054,2.511-.106,5.02c-.014.841-.057,1.683-.047,2.52,0,.39.01.778.012,1.167a1.392,1.392,0,0,0-.723,1.181c0,.042-.006.091-.01.133-.038.559-.082,1.113-.107,1.675-.036.942-.012,1.89-.012,2.832,0,.9-.012,1.794,0,2.691.033,2,.054,4,.076,6,.047,3.744.113,7.489.172,11.236.006.36.009.72.014,1.08a1.281,1.281,0,0,0-.9,1.02c-.041.163-.07.325-.1.493a19.983,19.983,0,0,0-.408,2.1c-.066.57-.112,1.148-.134,1.722-.061,1.57-.044,3.137.032,4.705.088,1.973.206,3.947.3,5.925q.5,10.576,1.018,21.151c.056,1.17.1,2.339.14,3.509-.56.93-1.137,1.851-1.755,2.748-.635.91-1.283,1.808-1.958,2.687-.418.547-.826,1.111-1.277,1.64s-.9,1.07-1.35,1.6c-1.052,1.244-2.142,2.476-3.17,3.751-.2.219-.4.436-.606.655-.162.127-.324.253-.485.386-2.617,2.087-5.337,4.049-8.018,6.052-.273.208-.566.4-.849.581-.877.587-1.753,1.179-2.631,1.766q-1.469.972-2.924,1.959c-.437.287-.9.567-1.324.882A111.589,111.589,0,0,1,90.2,114.853l.009,0c-.034.012-.066.03-.1.043l-.049.027.007-.006a72.118,72.118,0,0,1-7.889,3.215l.152-.047a49.148,49.148,0,0,1-5.367,1.441q-2.43-3.177-4.861-6.352c-.278-.361-.557-.722-.834-1.076-.034-.084-.062-.168-.089-.247a5.107,5.107,0,0,1-.125-.5,3.287,3.287,0,0,1-.057-.492.005.005,0,0,1,0-.007,1.223,1.223,0,0,0,.547-1,1.2,1.2,0,0,0-1.194-1.2,1.609,1.609,0,0,0-1.145.44,1.725,1.725,0,0,0-.187.215q-2.577-3.15-5.144-6.3c-.516-.633-1.032-1.266-1.553-1.892-.9-1.094-1.78-2.2-2.688-3.289a35.177,35.177,0,0,0-2.744-3.044,1.361,1.361,0,0,0-2.068,1.76c.453.645.9,1.285,1.357,1.936q3.693,5.3,7.354,10.626c-.035.192-.07.384-.1.575-.069.426-.145.848-.214,1.269-.191,1.109-.383,2.207-.575,3.31-.2,1.15-.425,2.294-.644,3.439-2.539-3.483-5.074-6.963-7.565-10.477-2.835-4-5.649-8.012-8.51-11.987a1.38,1.38,0,1,0-2.216,1.645q4.231,5.984,8.458,11.966c2.688,3.793,5.429,7.551,8.171,11.308.308.422.626.837.941,1.254q-.245,1.2-.491,2.407a1.316,1.316,0,0,0-.579,1.051c-.022.7-.044,1.405-.072,2.106-.3,1.389-.629,2.775-.934,4.164-.724,3.279-1.524,6.542-2.292,9.811-.322,1.392-.689,2.774-1.036,4.159-.359,1.423-.693,2.848-1.077,4.263q-.822,3.053-1.643,6.1c-.364,1.334-.764,2.663-1.152,4-.422,1.435-.82,2.872-1.274,4.295-.14.428-.28.862-.42,1.291q-3.734,7.3-7.454,14.6l0-.009c-.019.04-.04.079-.061.12s-.038.071-.055.107l0,0a.141.141,0,0,1-.023.035c.006,0,0-.007.01-.008a.125.125,0,0,0-.013.026c-.006,0-.006,0-.005.007-.017.033-.033.073-.051.106a.2.2,0,0,1,.011-.029l.01-.017v0l-.008.019-.008.016-.018.036.011-.027c-.174.322-.341.648-.509.973q-1.557,2.967-3.115,5.928c-.156.3-.316.6-.463.9-.8.078-1.6.179-2.4.287a1.205,1.205,0,0,0-1.045,1.182,1.191,1.191,0,0,0,.879,1.158,9.08,9.08,0,0,0,.905.187c.424.051.845.091,1.267.136a1.231,1.231,0,0,0,.47-.049,1.4,1.4,0,0,0-.083.96q-5.155.5-10.309,1c-1.894.187-3.789.374-5.685.585q-5.336.593-10.671,1.187c-1.409.16-2.814.4-4.214.6l-2.621.373c-1.364.2-2.714.51-4.066.774a1.328,1.328,0,0,0-.986,1.117,1.363,1.363,0,0,0,.635,1.324,4.3,4.3,0,0,0,.669.43,4.613,4.613,0,0,0,.851.281,7.678,7.678,0,0,0,1.633.2c1.41.043,2.807-.115,4.21-.208H8.005c2.546-.137,5.1-.2,7.639-.3,1.653-.07,3.3-.131,4.955-.2.708-.027,1.426-.032,2.135-.089l-.171.014c1.148-.044,2.3-.12,3.448-.182l6.879-.357,3.514-.184c.322.5.648.986.97,1.478l-.025-.042c1.267,1.965,2.576,3.9,3.848,5.855.025.037.051.081.076.118q1.641,2.619,3.288,5.242c.647,1.034,1.256,2.093,1.871,3.151,1.031,1.794,2.066,3.58,3.1,5.374.7,1.21,1.332,2.462,2,3.69.839,1.573,1.694,3.136,2.526,4.7s1.617,3.139,2.419,4.707c1.457,2.839,2.859,5.7,4.29,8.558.462,1.039.94,2.069,1.419,3.1.4.877.837,1.753,1.2,2.648.526,1.285,1.054,2.575,1.586,3.858.661,1.627,1.274,3.251,1.835,4.913a.169.169,0,0,0,.012.04,58.255,58.255,0,0,1,1.758,6.745c.493,2.652.813,5.342,1.066,8.021.193,2.025.37,4.054.517,6.087q.054.921.1,1.836a29.392,29.392,0,0,0-3.268,1.064,1.59,1.59,0,1,0,1.185,2.951c.252-.09.51-.187.762-.277l.312-.1a2.177,2.177,0,0,0-.412,1.049,1.411,1.411,0,0,0,1.379,1.578,1.371,1.371,0,0,0,1.338-1.034c.141-.081.276-.155.424-.23.249-.111.5-.216.757-.312l.032-.012.011,0,.029-.009.033-.014-.032.014c.561-.175,1.128-.311,1.7-.433-1.053,1.886-2.135,3.753-3.09,5.687a.082.082,0,0,1,.018-.028c-.018.028-.031.054-.049.087l-.025.059.009-.025a15.844,15.844,0,0,0-1.33,2.656,3.252,3.252,0,0,0-.2,1.316,2.64,2.64,0,0,0,.127.635c.09.223.174.441.258.664a1.247,1.247,0,0,0,2,.429,24.926,24.926,0,0,0,2.572-2.546,36.844,36.844,0,0,0,2.252-3.192c.733-1.158,1.458-2.321,2.137-3.511l1.976-3.481c.384-.068.768-.139,1.153-.2q-1.123,2.448-2.245,4.9-2.661,5.811-5.27,11.649c-1.918,4.279-3.837,8.559-5.665,12.875a1.347,1.347,0,0,0,.7,1.748,1.3,1.3,0,0,0,.758.077,1.36,1.36,0,0,0,.99-.782c.177-.423.354-.846.533-1.264,1.76-4.135,3.6-8.239,5.43-12.345q2.522-5.641,5.085-11.26,1.4-3.036,2.79-6.078c2.737-.4,5.484-.74,8.235-1.06,1.548-.181,3.1-.308,4.658-.437,1.027-.082,2.048-.168,3.074-.255.79.053,1.577.095,2.36.144,1.245.087,2.485.18,3.729.255a112.8,112.8,0,0,1,12.611,1.669l-.028,0a37.459,37.459,0,0,1,9.589,3.281,43.432,43.432,0,0,1,4.64,2.749c.284.2.557.412.837.616.03.345.059.69.093,1.036q.255,2.755.5,5.5.528,5.745,1.059,11.481c.064.714.152,1.428.233,2.138.246,2.141.487,4.289.733,6.43q.224,1.98.455,3.966c.265,2.275.424,4.558.818,6.815a18.427,18.427,0,0,0,.68,2.658c.284.863.62,1.716.922,2.576a1.227,1.227,0,0,0,1.423.736,1.143,1.143,0,0,0,.942-.875c.331-1.6.773-3.18,1.054-4.792.145-.843.247-1.69.326-2.538a1.23,1.23,0,0,0,.35-.588c.243-1.017.542-2.027.743-3.054a30.522,30.522,0,0,0,.415-3.046q.274-2.947.361-5.913c.063-2.093.089-4.19.133-6.29.017-.794.04-1.584.051-2.377q.027-2.408.05-4.813a1.7,1.7,0,0,0,.652.012,1.654,1.654,0,0,0,.857-.445,1.68,1.68,0,0,0,.445-1.625q1.246-1.187,2.52-2.348c-.046.039-.093.077-.145.117.988-.823,1.937-1.693,2.9-2.536,1.348-1.042,2.682-2.1,4.035-3.148l-.161.1c.973-.623,1.913-1.287,2.87-1.931.918-.624,1.855-1.24,2.771-1.876.562-.359,1.126-.7,1.689-1.047,1.5-.933,2.987-1.911,4.519-2.808q2.489-1.471,4.99-2.94c.512-.307,1.019-.632,1.547-.912.61-.326,1.22-.646,1.824-.971,1.611-.858,3.218-1.733,4.845-2.571,1.632-.718,3.252-1.464,4.882-2.188.524-.238,1.042-.51,1.585-.709.689-.257,1.381-.527,2.069-.784q.831-.315,1.658-.634l.644.638c1.419,1.408,2.844,2.815,4.252,4.232.35.359.7.711,1.06,1.063.379.383.756.761,1.128,1.14q1.453,1.494,2.943,2.958a1.542,1.542,0,0,0,1.362.418,1.468,1.468,0,0,0,.742-.387,1.493,1.493,0,0,0,.032-2.1c-.989-.975-1.963-1.964-2.932-2.966-.7-.724-1.425-1.438-2.1-2.177l-.507-.549a1.3,1.3,0,0,0,.511-.29,1.32,1.32,0,0,0,.032-1.847l-.006,0c-.041-.059-.083-.117-.13-.179a2.049,2.049,0,0,1-.116-.2c-.052-.129-.1-.263-.143-.4-.1-.322-.177-.652-.246-.985-.023-.134-.04-.27-.06-.4.572.561,1.138,1.128,1.715,1.684q1.707,1.644,3.42,3.293c1.366,1.316,2.854,2.49,4.313,3.7a1.307,1.307,0,0,0,2.095-1.178,6.87,6.87,0,0,0-.223-1.33,6.158,6.158,0,0,0-.68-1.339,14.748,14.748,0,0,0-1.953-2.415c-.827-.85-1.71-1.647-2.551-2.476-.3-.291-.574-.592-.875-.882l-1.475-1.442a1.53,1.53,0,0,0,.089-.96,1.482,1.482,0,0,0-1.226-1.086,3.549,3.549,0,0,0-.976-.02l-.274-.268c.179-.821.353-1.645.536-2.466.355-1.566.708-3.144,1.12-4.7.237-.9.48-1.794.716-2.691.172-.643.33-1.291.521-1.927.3-.991.6-1.984.9-2.976.19-.627.365-1.27.571-1.9.043-.135.092-.271.136-.4-.019.058-.044.116-.063.174.6-1.716,1.193-3.434,1.79-5.148-.019.057-.039.115-.057.172.036-.093.063-.185.1-.282l.011-.034v0l0-.009c.716-1.718,1.411-3.451,2.126-5.176.091-.215.2-.416.306-.627.272-.556.549-1.112.82-1.673.381-.774.759-1.553,1.146-2.328.9-1.621,1.8-3.245,2.7-4.872.856-1.547,1.8-3.057,2.694-4.583q2.338-3.96,4.657-7.935c1.873-3.2,3.733-6.4,5.646-9.575.829-1.375,1.63-2.774,2.513-4.117,1.072-1.643,2.137-3.29,3.217-4.922.815-1.168,1.622-2.341,2.436-3.515.57-.816,1.141-1.626,1.683-2.46.451-.686.916-1.392,1.3-2.124a6.2,6.2,0,0,0,.768-1.95,2.269,2.269,0,0,0,.01-.451c.441-.39.884-.774,1.325-1.164a33.052,33.052,0,0,0,3.154-3.142,5.74,5.74,0,0,0,1.8-3.663c0-.162-.018-.321-.032-.481l1.737-.424c.7-.17,1.418-.324,2.112-.522l10.551-3.016c.841-.244,1.669-.491,2.49-.774,1.944-.651,3.883-1.3,5.821-1.953,2.631-.884,5.227-1.888,7.833-2.84A1.442,1.442,0,0,0,276.564,162.1Zm-70.206-26.491c.825,1.564,1.625,3.15,2.488,4.694.879,1.565,1.723,3.16,2.645,4.7q.822,1.39,1.649,2.773c.389.658.757,1.327,1.177,1.974a.182.182,0,0,1-.016-.031c.532.84,1.074,1.672,1.611,2.51.025.038.044.076.069.113a40.974,40.974,0,0,1-3.365-3.457c-.021-.026-.044-.052-.065-.079a39.936,39.936,0,0,1-2.649-3.585c.007,0,.008.011.015.016a40.832,40.832,0,0,1-2.3-4.138c.009.021.017.042.025.063a49.7,49.7,0,0,1-2.189-5.5c-.485-1.485-.909-2.993-1.275-4.512C204.894,132.644,205.588,134.148,206.358,135.614Zm-4.817-2.415a47.2,47.2,0,0,0,5.82,13.7,37.706,37.706,0,0,0,4.567,5.76,44.57,44.57,0,0,0,5.493,4.733c1.3.957,2.647,1.846,4.016,2.706a31.709,31.709,0,0,0,4.9,5.043,27.28,27.28,0,0,0,6.146,3.727c.745.325,1.48.659,2.229.972,1.364.573,2.74,1.114,4.116,1.655-.541.138-1.083.271-1.628.389-1.576.349-3.146.7-4.722,1.049-1.677.038-3.354.075-5.034.131-1.864.062-3.734.13-5.6.191q-3.931.129-7.863.262-6.083.22-12.166.432-1.122-1.664-2.281-3.294-3.206-4.515-6.453-8.992c-1.846-2.54-3.623-5.118-5.406-7.7l.021.034c-.034-.048-.068-.1-.1-.149,0-.011-.009-.016-.01-.022a.021.021,0,0,0,.008.011c-.912-1.421-1.8-2.854-2.638-4.318-.189-.581-.378-1.168-.573-1.749-.067-.227-.117-.457-.174-.692-.184-.684-.362-1.369-.546-2.054-.288-1.1-.581-2.2-.868-3.3-.071-.245-.108-.5-.162-.755-.129-.646-.258-1.293-.394-1.945-.2-1-.409-1.99-.611-2.988-.206-1.243-.368-2.488-.5-3.736a2.673,2.673,0,0,0,.313-.018,3.5,3.5,0,0,0,.991-.272,1.555,1.555,0,0,0,.664-2.338,2.123,2.123,0,0,0-1.015-.766,3.911,3.911,0,0,0-1.182-.187c0-.326.01-.651.027-.977q.659-.925,1.316-1.853l3.079-4.326c.429-.609.879-1.205,1.295-1.823a.3.3,0,0,0-.025.029c2.258-3.246,4.532-6.466,6.772-9.715.238-.34.461-.691.693-1.046l1.785-2.713q.775-1.185,1.56-2.368.429.027.856.058l-.047-.006.315.023a3.033,3.033,0,0,0-.373,1.329c-.042.506-.094,1.019-.111,1.526a29.677,29.677,0,0,0,.115,3.629,53.02,53.02,0,0,0,1.113,6.885c.075.992.15,1.985.237,2.976.068.8.133,1.581.224,2.373.1.892.158,1.8.3,2.693q.25,1.552.507,3.1Q200.928,130.879,201.541,133.2ZM200.3,185.793a7.791,7.791,0,0,0,.642-1.824,2.653,2.653,0,0,0,.005-.63l.812-.16q.2.139.4.261C201.517,184.206,200.891,184.987,200.3,185.793Zm-7.2,6.49-.036.1q-.722,2.071-1.429,4.145l0-.012c0,.019-.011.038-.013.056-.014.043-.029.082-.046.123l0-.006-.005.016-.015.036.006-.012c-.262.782-.482,1.578-.708,2.369-.276.976-.539,1.955-.759,2.944a62.989,62.989,0,0,0-1.243,7.358c-.064.665-.129,1.337-.175,2.005-.232.985-.44,1.972-.61,2.969-.047.285-.095.57-.144.849-.158.713-.323,1.422-.487,2.131-.168.757-.365,1.514-.508,2.278-.342,1.852-.7,3.7-1.053,5.548-.111.584-.183,1.179-.274,1.772q-.248,1.629-.493,3.271c-.1.684-.169,1.375-.249,2.061-.1.8-.211,1.6-.286,2.4a52.584,52.584,0,0,0-.36,8.939c.033.4.08.79.132,1.18l-.131-.124c-1.338-1.262-2.695-2.5-4.006-3.787q-3.4-3.291-6.812-6.562c-.931-1.045-1.862-2.1-2.8-3.134a.336.336,0,0,0,.025.037c-2.551-3.045-5.076-6.107-7.612-9.161q-2.578-3.1-5.162-6.21c-.763-.915-1.521-1.841-2.294-2.754q-5.844-7.4-11.742-14.758-.158-2.889-.314-5.784,3.405-.4,6.81-.8,2.445-.285,4.889-.577c.439-.054.886-.1,1.323-.168,3.062-.475,6.123-.962,9.184-1.442q6.39-1,12.787-2.009c1.327-.205,2.66-.417,3.988-.621.412-.067.819-.133,1.229-.217-.058.012-.114.028-.172.039,4.338-.837,8.671-1.7,13.006-2.559-.09.189-.187.375-.271.564-.176.4-.358.8-.539,1.2-.321.709-.629,1.42-.937,2.132q-.423.99-.827,1.986c-.286.732-.6,1.452-.866,2.191a.14.14,0,0,0-.015.045A.1.1,0,0,1,193.1,192.283Zm1.033,69.859-1.121.236q-.466-.541-.934-1.081-2-2.307-4.015-4.618c-.03-.041-.067-.08-.1-.124h0l0,0a.2.2,0,0,1-.032-.042l0,.008c-.106-.127-.218-.252-.319-.38.01.017.024.032.033.048-.794-.945-1.6-1.891-2.4-2.837.231.153.458.312.694.457a2.366,2.366,0,0,0,2.334.293l.007,0q1.995,2.076,3.992,4.148c.359.375.739.734,1.109,1.1q1.232,1.221,2.467,2.434C195.273,261.9,194.7,262.022,194.131,262.142Zm-37.55-9.343a58.4,58.4,0,0,0-5.75,4.367c-.613.53-1.2,1.08-1.789,1.624q-1.284.954-2.511,1.958c-.071.059-.14.121-.211.18q-.085-4.637-.17-9.274c-.023-1.255-.075-2.5-.127-3.752q-.23-5.694-.458-11.38-.387-9.69-.779-19.383.915,1.129,1.831,2.257c.735.9,1.451,1.828,2.239,2.691q2.742,3.021,5.5,6.045,2.9,3.2,5.809,6.393c.857.946,1.766,1.846,2.665,2.759,3.145,3.2,6.271,6.415,9.451,9.579-.748.076-1.495.173-2.237.31A36.559,36.559,0,0,0,156.581,252.8Zm-19.5,28.329-.123-1.764q-.183-2.64-.366-5.276c.624,1.2,1.239,2.412,1.831,3.634.225.49.445.988.676,1.471a1.668,1.668,0,0,0,1.287,1,1.155,1.155,0,0,0,.132.008q.039,1.863.079,3.728C139.454,282.965,138.293,282.012,137.084,281.128Zm-23.953-35.8a41.551,41.551,0,0,0-5.255-1.595c-.294-.16-.587-.314-.88-.468-.908-.466-1.834-.905-2.771-1.316q1.133-2.061,2.264-4.124,1.451-2.631,2.893-5.268c.562-.892,1.129-1.785,1.69-2.677.5-.791,1-1.57,1.526-2.347q2.252-3.333,4.49-6.669c2.659-3.953,5.308-7.922,7.987-11.86,1.822-2.635,3.62-5.284,5.423-7.93q.23,6.435.458,12.871.131,3.707.264,7.4c.048,1.448.143,2.892.22,4.334q.657,12.8,1.306,25.6c.123,2.31.236,4.622.357,6.933-.7-.782-1.437-1.535-2.213-2.248a37.794,37.794,0,0,0-5.361-4.135,46.35,46.35,0,0,0-4.874-2.65A40.408,40.408,0,0,0,113.131,245.325ZM82.4,273.9l-1.045,1.838c-.171.027-.342.057-.513.085q1.744-3.072,3.475-6.148c.879-1.552,1.726-3.116,2.626-4.654q3.91-6.662,7.8-13.34c.306-.532.624-1.066.937-1.593q-2.046,3.563-4.093,7.121c-.724,1.264-1.481,2.517-2.178,3.8q-1.909,3.519-3.821,7.033c-.729,1.338-1.453,2.668-2.175,4C83.067,272.666,82.743,273.291,82.4,273.9Zm-7.312-73.459a31.269,31.269,0,0,1,2.75,2.222v0a51.6,51.6,0,0,1,4.278,4.556.4.4,0,0,1-.029-.039,76.443,76.443,0,0,1,5.275,7.1h0c.752,1.162,1.461,2.345,2.139,3.551a50,50,0,0,0-3.046-4.384c-1.04-1.336-2.055-2.7-3.162-3.983s-2.184-2.594-3.353-3.822l-2.1-2.213c-.548-.579-1.162-1.1-1.733-1.642-.674-.675-1.371-1.346-2.082-2C74.385,199.991,74.739,200.208,75.086,200.443Zm10.127,5.829a58.126,58.126,0,0,0-4.745-5.241,24.531,24.531,0,0,0-5.182-3.982,13.072,13.072,0,0,0-4.177-1.477c.052-.087.1-.174.151-.261l1.859-.224,6.141-.738c11.59.048,23.186.034,34.776.021,1.049,0,2.1-.016,3.152-.006.246,0,.493-.022.737-.033.647-.033,1.29-.059,1.937-.092q2.433-.111,4.867-.226,1.284,1.3,2.57,2.6-5.379,8.184-10.758,16.365-5,7.623-9.993,15.233c-1.892,2.878-3.675,5.825-5.492,8.749l-.967,1.559c-.147-.626-.29-1.254-.439-1.88-.259-1.138-.53-2.279-.84-3.4-.41-1.462-.776-2.945-1.238-4.4-.61-1.91-1.265-3.8-2.054-5.651q-1.113-2.594-2.436-5.087A72.818,72.818,0,0,0,85.213,206.272Zm-42.619-11.2a.5.5,0,0,1,.054-.006l.016,0h-.027c-.093,0-.185.011-.278.015-.039-.049-.075-.1-.115-.148a.549.549,0,0,0,.034.053c-.268-.315-.526-.627-.788-.943q5.7-.555,11.4-1.111,4.278-.419,8.559-.827a3.388,3.388,0,0,0-.208.731,2.4,2.4,0,0,0,.048.826q-3.529.27-7.062.533Q48.415,194.635,42.594,195.072Zm.294-5.223c1.056-.087,2.11-.156,3.16-.278q5.776-.687,11.549-1.366c1.958-.228,3.905-.485,5.862-.756l.854-.117c-.094.15-.188.3-.279.452-.287.48-.565.971-.871,1.443l-.059.091q-10.748,1.032-21.495,2.067c.035-.049.075-.094.109-.143.312-.454.613-.912.913-1.371Zm41.689-46.61c.816.126,1.625.254,2.441.38.184.025.375.054.567.084a1.52,1.52,0,0,0,.219.267l.629.876c.808,1.123,1.583,2.27,2.432,3.361Q93,150.958,95.13,153.7c2.015,2.584,4.018,5.17,6.033,7.759q1.026,1.324,2.055,2.642c.239.308.473.623.727.923-.038-.047-.076-.088-.115-.134,2.7,3.208,5.447,6.384,8.165,9.576l3.7,4.346-1.69.153q-2.532-2.65-5.063-5.3c-1.339-1.4-2.673-2.8-4.017-4.192-.307-.319-.589-.667-.886-1q-1.234-1.385-2.471-2.779-3.283-3.69-6.56-7.382c-1.142-1.283-2.3-2.55-3.427-3.848q-3.26-3.891-6.509-7.79-.292-.348-.583-.7c.044-.786.088-1.573.132-2.356A1.181,1.181,0,0,0,84.577,143.239Zm-7.409-19c.128.167.256.335.389.5.885,1.151,1.814,2.286,2.657,3.469q4.606,6.44,9.215,12.873c-.156-.017-.312-.041-.468-.059q-2.412-3.356-4.821-6.7c-.774-1.075-1.554-2.149-2.3-3.242q-2.409-3.5-4.814-7C77.075,124.135,77.121,124.186,77.168,124.243Zm41.554,12.8c.939-.61,1.867-1.243,2.771-1.912.7-.524,1.417-1.055,2.083-1.62l.006,0c-.024.026-.053.05-.082.078.047-.039.088-.077.134-.116l.1-.088.016-.012v-.006c.006,0,.01-.008.016-.009a.091.091,0,0,1,.017-.017l0,0,.009-.007.012-.009h0l.221-.182-.074.058c.088-.077.181-.155.274-.232.062-.054.129-.109.191-.163l.16-.134c.072-.06.147-.121.217-.185a1.094,1.094,0,0,1,.087-.075l.032-.023h0c.167-.141.334-.283.505-.426l-.007.007c.072-.062.144-.121.215-.179l-.071.056c.087-.076.175-.153.263-.224s.17-.146.258-.217c.124-.107.243-.208.366-.315a.27.27,0,0,0,.047-.039c.015-.015.037-.025.052-.04a.374.374,0,0,0-.046.044c.257-.216.5-.449.744-.679-.105,6.306-.217,12.615-.256,18.924-.018,3.588.018,7.177.156,10.765.028.78.063,1.559.1,2.338q.045.9.091,1.8a14.541,14.541,0,0,0,.164,2.216,2.532,2.532,0,0,0,1.221,2.07,1.968,1.968,0,0,0,.807.118q.088,3.9.18,7.81c.009.383.015.765.022,1.147l-.672.043-.165.012.16-.012c-.052,0-.1.007-.156.011-.525.029-1.051.082-1.576.135q-1.356-1.684-2.709-3.372c-.819-1.025-1.625-2.076-2.475-3.077a.048.048,0,0,1-.015-.021l-.008-.007-.015-.019a.268.268,0,0,1-.032-.042v.006c-.047-.057-.094-.114-.146-.17-.622-.745-1.254-1.482-1.874-2.221v0q-4.614-5.456-9.223-10.912h-.006c-.016-.021-.03-.036-.046-.057l.006,0c-.579-.685-1.16-1.382-1.745-2.066h0l-.045-.046v-.005c-.022-.024-.044-.053-.066-.078h0l0-.005v0l-.008-.007-.025-.029.009.009-.016-.017,0,0v0l-.009-.011,0,0-.009-.011,0,0v0l-.047-.058a.049.049,0,0,1-.013-.012h.005l-.008-.008v0h0c-.314-.368-.648-.714-.967-1.082q-1.305-1.468-2.621-2.936-2.993-3.34-5.992-6.693c-.243-.273-.492-.541-.736-.813.226-.019.454-.023.679-.044a41.376,41.376,0,0,0,13.487-3.527A48.946,48.946,0,0,0,118.722,137.044Zm71.884-29.227c.023-.034.046-.069.069-.109.067-.091.137-.194.2-.29.023-.04.052-.076.08-.117,0,.012-.014.02-.018.033l.028-.041c.024-.034.047-.069.076-.105-.012.015-.023.028-.032.041.188-.269.375-.544.557-.812l-.1.145q1-1.449,2-2.9.5.036,1.01.068c-1.054,1.618-2.1,3.242-3.178,4.848l.008-.009a.375.375,0,0,1-.027.036l0,.007,0,.007-.014.021-.016.023.017-.017c-2.268,3.261-4.57,6.5-6.8,9.788l.093-.138-.107.158c.032-.048.065-.1.1-.139q-1.625,2.273-3.231,4.554a2.467,2.467,0,0,0-1.161.325q1.93-2.844,3.861-5.683,2.226-3.282,4.453-6.554c.706-1.045,1.438-2.084,2.131-3.133A.006.006,0,0,1,190.606,107.817Zm-10.714,76.714c-2.526.4-5.057.8-7.583,1.2q-6.283,1-12.557,1.989c-1.593.256-3.183.534-4.789.726l-11.4,1.362-.214.026q-.137-2.484-.27-4.967,6.892-.818,13.785-1.643c.779-.094,1.578-.115,2.365-.169,2.047-.143,4.086-.292,6.133-.436q3.175-.227,6.352-.448c.923-.067,1.855-.113,2.775-.193,5.154-.225,10.309-.475,15.463-.7.577-.026,1.155-.076,1.729-.114l4.7-.32c.844-.059,1.688-.113,2.532-.169.061.059.12.121.182.18-.742.148-1.482.3-2.226.442-4.6.911-9.2,1.805-13.795,2.728l-.352.067.173-.033C181.9,184.244,180.893,184.376,179.892,184.531Zm-26.217,30.033a.036.036,0,0,0,.016.021,1.082,1.082,0,0,0,.085.1l-.021-.014q1.142,1.365,2.278,2.737-2.943-2.937-5.9-5.879t-5.938-5.919l-.171-3.173,1.358,1.707q2.921,3.671,5.839,7.34c.814,1.032,1.6,2.087,2.453,3.088Zm26.259,32.508-.311-.368v0c-.054-.062-.106-.125-.159-.188l0,0-.017-.019-.037-.043.008.011-.023-.026c-.015-.023-.032-.041-.048-.063-.556-.656-1.151-1.281-1.726-1.919q-1.976-2.205-3.954-4.4c-2.1-2.339-4.216-4.67-6.312-7.022-.257-.281-.528-.541-.8-.814-.785-.816-1.574-1.624-2.363-2.433q-3.424-3.53-6.846-7.053c-2.447-2.525-4.883-5.059-7.381-7.538q-2.781-2.755-5.555-5.512l0-.072q6.252,6.236,12.5,12.462c1.087,1.082,2.172,2.152,3.247,3.236.972.978,1.99,1.917,2.981,2.873q5.531,5.34,11.078,10.677,2.241,2.514,4.485,5.014c.816.918,1.638,1.834,2.454,2.752.058.065.117.128.174.193C180.869,246.912,180.4,246.989,179.934,247.072Zm-7.277-3.675c-1.032-1.044-2.063-2.083-3.089-3.128q-3.105-3.132-6.211-6.274c-.891-.9-1.73-1.847-2.586-2.781-3.468-3.8-6.908-7.635-10.4-11.417-.125-.15-.249-.3-.368-.451.825.838,1.637,1.7,2.462,2.54q3.38,3.494,6.766,6.984,2.707,2.793,5.417,5.592c.783.81,1.525,1.652,2.278,2.492q3.163,3.534,6.331,7.061C173.053,243.807,172.859,243.6,172.657,243.4ZM83.776,152.472c.091-.557.178-1.107.259-1.661.041-.293.074-.587.111-.88q2.232,2.67,4.462,5.342c.684.823,1.382,1.625,2.092,2.425q5.757,6.483,11.508,12.968c.71.8,1.45,1.57,2.191,2.347q3,3.137,6,6.281l-2.364.214c-1.679.152-3.363.281-5.039.48-3.595.421-7.192.86-10.784,1.292q-5.554.671-11.1,1.335c-1.319.156-2.633.339-3.949.523.67-1.755,1.272-3.539,1.8-5.34q.382-1.3.71-2.6c.167-.416.327-.836.475-1.253a54.536,54.536,0,0,0,1.931-6.7,71.375,71.375,0,0,0,1.7-13.923C83.775,153.036,83.775,152.754,83.776,152.472Zm-7.67,33.238.058-.008c1.787-.244,3.573-.5,5.366-.716q5.625-.675,11.258-1.346Q98.1,183,103.4,182.368c1.711-.2,3.438-.33,5.152-.489q1.988-.179,3.977-.353,1.35,1.416,2.707,2.824-18.157,1.722-36.326,3.448l-3.927.378c.152-.326.305-.65.459-.976C75.675,186.709,75.888,186.208,76.106,185.71Zm41.365-4.623,2.021,2.859-.633.06-.016-.017c-.9-.922-1.79-1.856-2.683-2.785Zm17.6-59.776q.325,4.341.648,8.681.568,7.516,1.136,15.033.258,3.483.523,6.966c-.271-1.9-.538-3.8-.784-5.694-.5-3.778-.859-7.569-1.233-11.358-.154-1.535-.273-3.071-.4-4.611-.163-1.863-.331-3.725-.483-5.59-.04-.794-.083-1.59-.124-2.385.177-.268.358-.532.516-.814C134.93,121.464,135,121.387,135.066,121.311Zm5.015,11.908c.043,1.3.045,2.6.053,3.9.005,1.258.018,2.52.029,3.777-.02-.3-.041-.592-.061-.888-.106-1.6-.271-3.185-.412-4.777q-.555-6.412-1.111-12.825-.127-1.48-.256-2.962c.437.276.876.548,1.315.821Q139.857,126.741,140.081,133.219Zm9.528,34.69c2.352-3.385,4.656-6.808,6.981-10.212,2.338-3.43,4.7-6.853,7.03-10.3,3.458-5,6.869-10.027,10.292-15.047.208.027.416.058.624.083q-2.267,3.219-4.511,6.45c-1.816,2.581-3.639,5.158-5.43,7.747a.36.36,0,0,1,.029-.035c-.666.942-1.3,1.9-1.957,2.848q-2.2,3.206-4.386,6.4c-2.177,3.188-4.381,6.362-6.545,9.564-.766,1.068-1.472,2.172-2.2,3.257q-2.392,3.54-4.8,7.087l-.6.888-.316.02q2.952-4.444,5.9-8.892C149.681,167.818,149.642,167.867,149.609,167.909Zm4.3,10.54c.05,0,.1-.006.155-.009l.035,0a.134.134,0,0,0,.02,0h-.027a.251.251,0,0,1-.039,0,.044.044,0,0,1-.015,0l.107,0h0c1.23-.045,2.465-.117,3.7-.177,2.549-.119,5.091-.244,7.64-.363l7.437-.355c1.116-.057,2.242-.091,3.355-.165l-.153.011c6.355-.229,12.713-.494,19.068-.731l.153.187-5.866.549q-11.8,1.1-23.622,2.207-11.062,1.041-22.133,2.072.91-1.343,1.819-2.686,4.193-.268,8.384-.533Zm-14.238,9.206-.012.012.012-.017Zm-7.214.3c.1.121.2.244.294.366-.089.135-.177.271-.267.406Zm1.529-1.881.269-.043c-.045.07-.091.139-.136.208Zm2.6-3.736-4.308.4c-.031-.97-.053-1.94-.078-2.91q3.1-.194,6.211-.4Q137.5,180.885,136.59,182.336ZM130.033,188q.048,1.394.1,2.787-1.668-1.784-3.343-3.562l3.2-.509C130,187.139,130.018,187.566,130.033,188Zm7.577-1.719a.261.261,0,0,1,.022-.027l.007-.009-.022.029-.006.013h0a.892.892,0,0,0-.058.088c-.005,0-.005,0,0,.007l-.011.01v0q-.762,1.1-1.521,2.21l-.043-.053c.437-.69.879-1.367,1.328-2.046.226-.342.453-.683.679-1.026l.19-.022C137.983,185.725,137.795,186,137.61,186.276ZM130.317,84.414c.009.162.028.326.038.489-.012.006-.023.015-.035.022Zm.035,15.956c0-2.068,0-4.131.012-6.2,0-1.518-.013-3.038-.022-4.557q.174-.163.345-.328c.138,7.774.287,15.551.406,23.322-.012.536-.024,1.071-.03,1.606q-.072,3.659-.147,7.316l-.028.03q-.123-5.363-.242-10.725c-.045-2.035-.151-4.071-.226-6.1q-.031-.855-.064-1.711C130.354,102.139,130.35,101.254,130.352,100.37Zm1.627,69.481q-.059-2.637-.119-5.274c.054-.3.116-.6.166-.909.148-.862.3-1.742.371-2.618.075-.992.144-1.982.219-2.973.14-1.879.207-3.762.3-5.644.167-3.406.252-6.8.346-10.214.087.805.174,1.609.268,2.419.19,1.69.445,3.374.681,5.055q.409,2.907.831,5.812a1.4,1.4,0,0,0,2.633.469l.189,2.525c.174,2.269.366,4.534.517,6.807l-.012-.159q.327,5.91.679,11.821c-2.3.148-4.606.29-6.907.442C132.083,174.89,132.036,172.369,131.979,169.851Zm-2.188,11-.659-.82h0l.011,0h.008l.617-.041C129.773,180.272,129.783,180.56,129.791,180.847Zm-1.375,2.075.131.163-.077.008.08,0,0,0c-1.186.066-2.367.217-3.55.331l-1.63.155c-.356-.377-.709-.758-1.065-1.135-.472-.557-.945-1.109-1.417-1.665q2.7-.242,5.408-.494Q127.357,181.6,128.416,182.922ZM73.639,190.93l14.325-1.366q9.387-.9,18.781-1.79l-4.947.78q-5.351.847-10.7,1.695c-1.641.258-3.294.423-4.94.622q-3.568.429-7.143.863l-.078,0a1.363,1.363,0,0,0-.248.024c-.04.008-.08.017-.12.029-1.757.214-3.522.424-5.28.633l-.458.055.405-.751C73.381,191.46,73.505,191.193,73.639,190.93Zm27.949.3q8.195-1.3,16.4-2.606l1.227-.195q1.49,1.51,2.982,3.02l-3.075.142c-.683.034-1.373.094-2.055.1l-3.919.009q-6.074.024-12.142.04c-.874,0-1.756,0-2.63.009C99.441,191.568,100.518,191.4,101.588,191.226Zm31.268,6.39q2.37,2.53,4.745,5.059c.767.813,1.508,1.655,2.3,2.445l.348.347v.091l-3-2.978c-1-.99-2-1.992-3-2.99-.472-.644-.949-1.287-1.425-1.93Zm7.4,3.962q-2.931-3.113-5.848-6.236.636-.929,1.27-1.858c.376-.034.75-.071,1.126-.121.094.118.189.234.282.352q1.587,2,3.179,4C140.261,199,140.261,200.288,140.258,201.578Zm-.691-8.553.421-.05c.013.208.025.417.037.625C139.873,193.408,139.719,193.217,139.567,193.025Zm-1.854-2.516c.611-.895,1.225-1.786,1.834-2.684a.528.528,0,0,0,.066-.1.4.4,0,0,0,.059-.073q.078,1.3.155,2.6C139.122,190.345,138.418,190.426,137.713,190.509Zm46.412-15.889q-2.89.119-5.789.227c-.792.03-1.581.043-2.373.1l.159-.013c-1.273.051-2.542.124-3.813.186q-3.821.189-7.638.37c-2.483.119-4.958.243-7.442.361-1.086.058-2.176.091-3.266.161h.006l-.284.018c.053,0,.107,0,.16-.007-2.195.135-4.386.284-6.58.422,2.192-3.226,4.391-6.447,6.558-9.686.664-.941,1.295-1.905,1.947-2.849q2.209-3.227,4.419-6.446c2.128-3.12,4.284-6.216,6.4-9.346,1.891-2.662,3.743-5.34,5.62-8.011q1.7-2.423,3.4-4.839a61.257,61.257,0,0,0,1.926,6.027,69.454,69.454,0,0,0,4.13,8.846c.173.441.341.882.508,1.318.711,1.843,1.517,3.655,2.4,5.429q.649,1.721,1.307,3.438c.518,1.364,1.108,2.7,1.725,4.023a64.3,64.3,0,0,0,3.237,6.169c.775,1.287,1.612,2.534,2.5,3.747Q188.733,174.439,184.125,174.62Zm-3.225-45.9v0l.075.006Zm-2.491-1.755-.263.37c-.019-.073-.039-.146-.057-.219-.055-.21-.115-.421-.17-.632.272-.395.541-.793.809-1.19A8.33,8.33,0,0,0,178.409,126.966Zm-4.811-.958c.093.553.2,1.1.307,1.648-.218.324-.441.646-.66.969l-.01.015c-.39-.008-.781-.028-1.171-.044.246-.417.5-.831.741-1.248C173.068,126.9,173.334,126.455,173.6,126.008Zm-2.6,5.913L168.5,135.57q-2.216,3.246-4.435,6.491,3.061-5.136,6.1-10.278C170.445,131.83,170.72,131.876,170.994,131.921Zm-5.282,2.82c-2.04,3.481-4.141,6.932-6.208,10.4q-4.32,7.251-8.659,14.494c-1.554,2.609-3.214,5.161-4.835,7.729q-1.6,2.546-3.2,5.095.006-1.9.013-3.8c.008-1.692-.027-3.387-.038-5.082q-.054-6.427-.108-12.849-.051-6.266-.1-12.521c-.016-1.5,0-3-.049-4.5q-.2-5.959-.414-11.921c1.146.7,2.3,1.382,3.461,2.039a62.148,62.148,0,0,0,19.689,7.137c.7.124,1.411.235,2.118.328l.337.06Q166.714,133.045,165.712,134.741ZM134.119,118q-.079-1.526-.158-3.051c-.064-1.276-.056-2.561-.078-3.839-.012-.472-.017-.938-.023-1.411q.031-1.877.058-3.755.422,5.666.846,11.332Q134.443,117.64,134.119,118ZM96.875,145.769q3.048,3.4,6.091,6.806c.96,1.076,1.926,2.151,2.886,3.227.4.452.79.905,1.2,1.343-.008-.01-.017-.027-.025-.037a.536.536,0,0,1,.032.044h0l0,.005,0,.009c.006,0,.007,0,.012,0l0,0,.03.032v0l.006.006.016.014-.008,0,.043.052-.01-.011q.975,1.153,1.956,2.307c-.012-.014-.026-.027-.041-.042.08.091.161.185.242.28-.031-.037-.069-.077-.1-.113q4.576,5.432,9.168,10.848v-.006c.574.688,1.162,1.379,1.742,2.066v-.006l.146.174v0l0,0v0l0,0,0,0,0,0v0l0,0,.013.014v0h0l.024.029.008.008c.845,1.008,1.644,2.054,2.475,3.083q.844,1.05,1.688,2.1-1.63.149-3.261.3l-2.253.2-.425-.5c-.615-.872-1.232-1.749-1.848-2.621q-3.779-5.35-7.5-10.729-3.725-5.4-7.475-10.769c-2.262-3.252-4.506-6.518-6.806-9.741.165,0,.33,0,.5,0C95.9,144.693,96.388,145.228,96.875,145.769Zm-5.118-1.4c1.36,1.916,2.73,3.825,4.076,5.751.348.5.7,1,1.049,1.509-.145-.194-.3-.382-.44-.576-1.2-1.545-2.415-3.083-3.609-4.636-.257-.34-.5-.7-.751-1.044l-.694-.968C91.51,144.392,91.635,144.388,91.757,144.37Zm-12.992,4.579c.049-1.568.037-3.143.129-4.707.016-.172.045-.344.071-.517l.081.1c-.106,1.839-.047,3.681-.026,5.521.016,1.154.058,2.32.044,3.474-.022,1.395-.037,2.794-.054,4.188-.005.7-.016,1.394-.021,2.09-.012.728-.059,1.456-.106,2.184-.05.177-.1.349-.152.527q-.855,2.967-1.7,5.94c-.348,1.194-.778,2.367-1.177,3.545-.522,1.544-1.037,3.087-1.57,4.633a.5.5,0,0,1,.029-.065c-.017.033-.028.071-.044.11a.183.183,0,0,0-.011.033l.008-.015-.012.033,0,.012v-.006c-.662,1.78-1.355,3.543-2.035,5.321-.273.7-.58,1.393-.873,2.09l-.223.534-1.653.227c.616-1.216,1.21-2.442,1.8-3.671.714-1.479,1.38-2.984,2.053-4.485a53.95,53.95,0,0,0,3.478-9.851A81.394,81.394,0,0,0,78.5,153.711C78.614,152.124,78.714,150.541,78.765,148.949Zm-9.026,37.637c-.326.536-.605,1.09-.889,1.654a1.19,1.19,0,0,0-.12.537l-1.808.174c.245-.4.486-.805.7-1.216.164-.308.324-.617.486-.926Zm-28.251,7.457.055.07-.059-.07Zm22.955-1.116c.231-.4.484-.795.738-1.183q2.438-.236,4.873-.471c-.305.551-.617,1.1-.931,1.646l-1.232.148c-.739.087-1.473.2-2.215.266.053,0,.113,0,.166-.008-.235.014-.471.033-.707.05C64.9,193.227,64.674,193.078,64.443,192.927Zm31.039,46.32c0-.546-.007-1.085-.021-1.622.188.577.372,1.155.556,1.734C95.838,239.321,95.661,239.283,95.482,239.247Zm40.048,19.5c-.057-1.433-.146-2.873-.22-4.3q-.252-5.051-.513-10.093-.562-11.122-1.132-22.257c-.062-1.2-.093-2.409-.138-3.618q-.192-5.691-.395-11.367-.084-2.376-.167-4.754c.063.063.125.127.188.191.235.321.47.641.71.961.6.81,1.184,1.621,1.819,2.405q2.282,2.814,4.565,5.63,0,16.479-.039,32.96c-.009,2,.029,3.992.037,5.987q.043,6.7.091,13.386.012,1.98.026,3.962c-.2.329-.41.657-.611.988-.033-.061-.06-.124-.093-.184-.232-.556-.48-1.1-.733-1.647a38.363,38.363,0,0,0-3.2-5.484C135.658,260.589,135.6,259.664,135.53,258.746ZM197.149,98.33c-.032.048-.064.1-.1.15q1.866-2.711,3.744-5.43a.172.172,0,0,1,.037-.055c.07-.1.146-.208.217-.311-.033.048-.072.1-.105.145.052-.075.1-.151.161-.228-.277.532-.56,1.06-.857,1.578q-.88,1.516-1.773,3.029-1.036,1.779-2.075,3.554c-.143.246-.3.485-.454.724l-.6-.041c.024,0,.042,0,.061.006-.13-.01-.258-.018-.387-.026q.665-.965,1.33-1.929l-.1.144C196.549,99.205,196.85,98.77,197.149,98.33Zm-6.761,5.09q-.77,1.121-1.542,2.239a2.988,2.988,0,0,0-.189.27h0l0,.006-.006.008h0c-.022.029-.043.059-.063.089-.066.09-.133.181-.191.278l-.056.083.037-.055c-.658.946-1.3,1.907-1.942,2.863q-2.182,3.221-4.362,6.435-2.225,3.282-4.451,6.56c-.272.4-.539.8-.812,1.194-.149-.236-.308-.465-.467-.7a1.318,1.318,0,0,0-.527-.428q5.673-9.6,11.357-19.2l1.378.168C189.161,103.309,189.775,103.366,190.388,103.42ZM145.07,81.3q2.3,1.5,4.6,2.985c1.4.9,2.83,1.764,4.238,2.646q2.019,1.252,4.025,2.531c2.671,1.691,5.33,3.409,7.936,5.2.055.038.11.075.167.119l.02.014.117.079.035.024-.006,0c.626.436,1.252.871,1.884,1.307l-.151-.1c.476.329.952.658,1.433.98-.507-.113-1.014-.226-1.522-.345-2.139-.5-4.265-.963-6.347-1.663a25.138,25.138,0,0,1-6.13-3.107,31.264,31.264,0,0,1-3.063-2.446,51.268,51.268,0,0,1-3.585-3.757c.016.021.038.041.055.067-1-1.206-2.011-2.41-3-3.624-.258-.316-.509-.628-.76-.94Zm-2.109,1.738c1.432,1.76,2.848,3.528,4.356,5.219a37.422,37.422,0,0,0,5.057,4.8,28.369,28.369,0,0,0,5.67,3.428,30.863,30.863,0,0,0,5.624,1.9c.984.226,1.966.44,2.949.661,1.571.348,3.138.679,4.706,1.01,1.529.321,3.038.723,4.569,1.019-.049-.009-.106-.022-.161-.03l.45.094c2.432,1.208,4.955,2.219,7.453,3.272q-5.241,8.854-10.475,17.712-1.856,3.142-3.708,6.281c-.435-.042-.872-.07-1.3-.123-1.11-.226-2.216-.46-3.326-.686-1.4-.435-2.824-.793-4.224-1.222q-2.252-.821-4.482-1.658c-.664-.245-1.314-.541-1.965-.813-.8-.327-1.606-.659-2.4-.987-.631-.294-1.264-.593-1.9-.892-.859-.484-1.733-.947-2.6-1.424-.689-.378-1.4-.728-2.076-1.145-1.054-.657-2.115-1.318-3.175-1.973-.016-.011-.032-.022-.049-.032q-.108-3.121-.217-6.242-.156-4.312-.3-8.634c-.014-.423-.053-.847-.079-1.268-.108-1.478-.21-2.957-.316-4.43q-.475-6.7-.949-13.39-.156-2.132-.307-4.264C140.855,80.489,141.916,81.757,142.961,83.04ZM82.8,121.866c1.3-.332,2.6-.687,3.9-1.037,1.242-.338,2.459-.744,3.687-1.127A52.527,52.527,0,0,0,108,109.874a60.766,60.766,0,0,0,9.588-6.818A67.414,67.414,0,0,0,122.758,98q1.253-1.362,2.458-2.77c.761-.884,1.51-1.775,2.261-2.665l.123,3.232c0,3.257,0,6.514-.036,9.771q-.1,9.807-.252,19.607c-.842.793-1.7,1.572-2.578,2.321a52.088,52.088,0,0,1-4.7,3.464,57.974,57.974,0,0,1-6.057,3.376,79.85,79.85,0,0,1-9.281,3.716,66.047,66.047,0,0,1-7.664,2.029c-.612.116-1.222.216-1.834.311q-2.093-2.289-4.191-4.573-2.93-3.2-5.857-6.4c-.54-.6-1.078-1.191-1.624-1.789-.7-.765-1.411-1.523-2.114-2.289q-.98-1.276-1.956-2.557c.235-.079.473-.15.708-.231C81.043,122.325,81.922,122.092,82.8,121.866Zm-11.68-1.711c-1.289.016-2.579-.021-3.87-.058a1.275,1.275,0,0,0-.007,2.549c.775.008,1.552.058,2.327.066,1,.008,1.985.006,2.974-.056a1.64,1.64,0,0,0,.038.484,1.431,1.431,0,0,0,1.3,1.035q3.075,4.476,6.149,8.954c.87,1.266,1.788,2.5,2.686,3.75q1.311,1.823,2.623,3.651c-.242-.037-.485-.072-.727-.108-1.105-.167-2.216-.364-3.337-.432a11.238,11.238,0,0,0-1.765.021c-.278-.334-.556-.671-.837-1-.411-.491-.794-.994-1.195-1.493l-2.757-3.431q-2.407-3.012-4.825-6.011c-.331-.416-.645-.842-.972-1.265q-1.351-1.765-2.706-3.543l-.5-.648c0-.063.011-.126.016-.19.224-3.035.488-6.069.706-9.106Q68.776,116.738,71.116,120.155ZM45.177,185.581c.261-.487.527-.981.787-1.474.123-.233.259-.463.364-.7.4-.861.8-1.728,1.2-2.59.246-.538.5-1.071.718-1.617.6-1.542,1.255-3.074,1.807-4.642.572-1.625,1.187-3.241,1.713-4.887.377-1.169.752-2.349,1.122-3.523.528-1.191,1.05-2.387,1.573-3.578.069-.169.145-.339.214-.508,1.349-2.865,2.725-5.716,3.962-8.631q1.184-2.8,2.368-5.6c.733-1.723,1.458-3.455,2.017-5.24a39.845,39.845,0,0,0,1.5-6.9c.329-2.616.543-5.24.763-7.865.028-.353.057-.707.086-1.06l1.309,1.711c.319.419.635.85.971,1.26q2.477,3.089,4.946,6.174c.94,1.163,1.876,2.334,2.812,3.5.4.5.794,1.029,1.217,1.518l.282.337a2.644,2.644,0,0,0-.242.347,6.567,6.567,0,0,0-.605,2.585c-.058.737-.073,1.477-.094,2.218-.047,1.476-.118,2.951-.193,4.433l0-.013c0-.01,0-.021,0-.032s0-.007,0-.013c0,.029,0,.059-.006.089l0,.026s0-.009,0-.014c0,.015,0,.03-.007.046a.092.092,0,0,1,0,.024l0-.007,0,.022v0h0c-.049.643-.092,1.291-.135,1.933.006-.061.012-.122.017-.189a88.093,88.093,0,0,1-1.47,11.483,48.045,48.045,0,0,1-1.577,5.635l.016-.053c-.968,2.716-2.19,5.323-3.379,7.952-.715,1.569-1.5,3.109-2.254,4.661-.412.769-.813,1.54-1.216,2.31q-1.412.2-2.821.388c-1.958.265-3.911.523-5.875.753q-5.717.675-11.431,1.355c-.481.055-.965.1-1.449.137l.021-.034C44.545,186.733,44.869,186.167,45.177,185.581ZM32.353,195.6q-3.473.175-6.945.357c-.973.053-1.957.079-2.938.152-.721.023-1.448.047-2.173.078,2.13-.238,4.247-.485,6.372-.692q4.028-.4,8.056-.787c.086.253.178.5.272.755Zm35.795,55.432c-.708-1.7-1.405-3.413-2.113-5.118-.62-1.5-1.34-2.946-2.016-4.418q-.9-1.968-1.876-3.9c-.7-1.413-1.391-2.835-2.108-4.239-1.5-2.914-2.982-5.84-4.531-8.722-1.053-1.969-2.116-3.937-3.169-5.906-.569-1.067-1.187-2.112-1.794-3.159q-1.476-2.56-2.947-5.121c-.226-.4-.485-.783-.726-1.169-.62-.991-1.236-1.989-1.856-2.98-.724-1.156-1.442-2.315-2.192-3.454-1.024-1.568-2.052-3.128-3.07-4.7,0,.012.009.016.011.028-.062-.1-.125-.194-.189-.291l.262-.014.175-.008c.522.345,1.044.69,1.569,1.04.334.242.672.478,1.012.719.909,1.409,1.841,2.808,2.773,4.207-.032-.042-.059-.091-.091-.132.28.432.513.9.767,1.352.62,1.087,1.235,2.175,1.855,3.261q1.774,3.133,3.562,6.27c.4.714.789,1.438,1.177,2.155,1.088,2,2.163,3.994,3.25,5.987,2.366,4.369,4.753,8.722,6.9,13.2A93.62,93.62,0,0,1,67.022,246.4c-.007-.01-.012-.033-.021-.049.63,1.953,1.161,3.926,1.63,5.917C68.479,251.851,68.317,251.439,68.148,251.027ZM50.784,206.889a42.64,42.64,0,0,1,2.986,4.063v0l0,.009,0,.008,0,0c.007.015.014.027.021.04s.03.042.043.061a66.943,66.943,0,0,1,3.758,6.761c.65,1.364,1.3,2.733,1.857,4.131.28.714.56,1.428.845,2.141q.936,2.365,1.864,4.722c.059.151.112.3.164.454-.684-1.3-1.373-2.585-2.074-3.878q-3.033-5.583-6.073-11.15c-.406-.744-.827-1.479-1.243-2.215q-1.742-3.049-3.468-6.1c-.224-.389-.448-.777-.673-1.172.7.695,1.371,1.411,2.011,2.158Zm18.97,37.395c-.083-.338-.159-.677-.252-1.007q-.891-3.121-1.776-6.244c-.131-.466-.252-.947-.412-1.408-.247-.732-.493-1.459-.745-2.184-.628-1.846-1.26-3.686-1.881-5.534-.166-.5-.385-.982-.579-1.466q-.66-1.673-1.326-3.344c-.292-.748-.591-1.5-.89-2.252-.326-.832-.716-1.651-1.088-2.473-.471-1.025-.955-2.054-1.465-3.066a49.727,49.727,0,0,0-7.69-11.489,43.045,43.045,0,0,0-3.438-3.26c-.616-.53-1.231-1.054-1.873-1.556-.621-.478-1.246-.953-1.883-1.414.618-.049,1.237-.1,1.855-.148l7.978-.6q4.726-.364,9.45-.721c.236.151.474.3.708.448a2,2,0,0,0,.05.266,3.6,3.6,0,0,0,.235.668,5.04,5.04,0,0,0-.7.89,3.567,3.567,0,0,0-.618,2.677,2.255,2.255,0,0,0,.581,1.035,1.889,1.889,0,0,0,1.082.489,2.072,2.072,0,0,0,1.326-.307,3.114,3.114,0,0,0,.905-.819c.165-.205.317-.414.469-.623.708.693,1.414,1.379,2.126,2.065,2.3,2.224,4.585,4.468,6.819,6.758,1.125,1.152,2.279,2.275,3.358,3.473,1.237,1.364,2.47,2.736,3.718,4.1q.558.668,1.1,1.337.77,1.4,1.463,2.839l0,0c.015.029.029.061.044.093a.121.121,0,0,0,.007.02l0-.009a56.662,56.662,0,0,1,2.377,5.967l0-.011.044.136a.229.229,0,0,0,.012.037l-.007-.009a98.511,98.511,0,0,1,2.6,10.948c-.052-.006-.105-.015-.157-.019v0c-.305-.018-.616-.036-.916-.056a1.224,1.224,0,1,0-.008,2.447c.054,0,.115.008.175.009.482.039.963.1,1.444.166.048.154.1.308.151.463l-.395.006a3.077,3.077,0,0,0-1.125.2,4.16,4.16,0,0,0-.8.465,1.631,1.631,0,0,0-.612,1.729,1.662,1.662,0,0,0,1.157,1.164,9.917,9.917,0,0,0,.969.271,7.623,7.623,0,0,0,.985.136c.676.057,1.354.06,2.029.081l1.321.05c-.618.979-1.243,1.954-1.827,2.95q-4.035,6.909-8.082,13.815c-2.192,3.756-4.31,7.558-6.453,11.347-.476.838-.94,1.679-1.406,2.519-.183.034-.367.06-.547.1-.958.22-1.913.436-2.867.657,0-.52-.013-1.042-.043-1.567v.007l0-.025v-.022c-.157-2.634-.4-5.257-.685-7.878-.02-.3-.046-.591-.068-.893-.12-1.577-.359-3.144-.556-4.713-.1-.837-.21-1.674-.322-2.51-.061-.51-.17-1.023-.26-1.527q-.522-3.021-1.048-6.04c-.077-.435-.182-.859-.281-1.284q-.366-1.638-.744-3.281C70.214,246.324,69.984,245.307,69.754,244.284Zm4.366,43.758c.8-1.537,1.657-3.043,2.494-4.563l.924-1.671c.139-.028.277-.055.415-.084C76.736,283.864,75.5,286,74.12,288.042ZM84.4,275.374q1.671-3,3.3-6.018-1.091,2.3-2.172,4.616c-.212.45-.418.9-.629,1.354C84.732,275.341,84.565,275.358,84.4,275.374Zm44.69,4.711c-.75-.319-1.515-.622-2.282-.9q.79.212,1.568.471a17.392,17.392,0,0,1,1.932.817c.838.434,1.655.913,2.447,1.422A37.864,37.864,0,0,0,129.088,280.085Zm1.668-2.763a28.006,28.006,0,0,0-6.482-1.679,70.208,70.208,0,0,0-14.549-.449c-1.583.091-3.161.242-4.735.38l-.206.021c-1.542-.1-3.087-.192-4.627-.282.073,0,.147.014.213.019-.78-.067-1.571-.066-2.355-.091l-3.736-.134q-3.2-.117-6.4.023c.081-.172.159-.346.24-.519l3.828-8.137c.854-1.811,1.734-3.609,2.55-5.431.019-.028.031-.06.05-.087l-.006,0c1.39-2.718,2.747-5.459,4.124-8.192q1.675-3.35,3.368-6.713c.35.036.7.06,1.048.1l.456.129c.635.185,1.263.366,1.892.552,1.726.5,3.417,1.1,5.121,1.68l-.2-.069c.265.1.535.2.8.3.989.659,1.963,1.326,2.937,1.993,1.935,1.417,3.883,2.813,5.8,4.249,2.364,1.758,4.734,3.52,6.937,5.486l-.008-.007.024.021.07.063-.024-.02a39.9,39.9,0,0,1,3.274,3.393c.867,1.028,1.671,2.1,2.435,3.217.258.413.521.818.778,1.225.158.245.32.489.478.735l.714,10.3c-.3-.19-.594-.385-.9-.565A23.847,23.847,0,0,0,130.756,277.322Zm11.193,43.921a.123.123,0,0,1,0-.026c-.094,1.194-.209,2.373-.413,3.545-.024-.127-.056-.259-.08-.386-.4-2.273-.59-4.581-.853-6.875-.1-.862-.2-1.718-.3-2.58q-.471-4.029-.934-8.053c-.123-1.055-.228-2.108-.326-3.162q-.364-3.942-.728-7.882-.292-3.146-.586-6.29c-.006-.073-.014-.146-.021-.219q1.051.816,2.1,1.635c.326.254.642.518.96.78l.018.819c.051,2.345.139,4.7.214,7.044.1,2.965.2,5.938.311,8.908l.243,6.373c.03.666.053,1.321.077,1.982.023.6.094,1.187.164,1.773s.135,1.149.208,1.722C141.985,320.648,141.964,320.946,141.949,321.243Zm39.626-52.449c-.424.195-.835.429-1.25.646q-1.542.823-3.075,1.634c-1.192.635-2.387,1.252-3.546,1.934q-2.733,1.608-5.459,3.221c-1.32.779-2.607,1.612-3.9,2.422-.793.492-1.588.98-2.369,1.476q2.307-1.581,4.639-3.125c-.022.01-.043.026-.06.035a1.5,1.5,0,0,1,.134-.085.022.022,0,0,1,.016-.009l-.011,0c1.8-1.134,3.623-2.218,5.431-3.336.23-.145.487-.272.726-.4.63-.347,1.26-.689,1.889-1.037.912-.5,1.824-1,2.737-1.492l-.017,0c1.062-.465,2.1-.975,3.149-1.468.434-.209.866-.423,1.309-.615s.9-.387,1.35-.563C182.7,268.286,182.139,268.543,181.575,268.794Zm3.5-4.4a41.741,41.741,0,0,0-4.839,1.91l-3.107,1.473c-1.546.725-3.018,1.587-4.51,2.411-.607.337-1.244.644-1.834,1.008-.632.4-1.269.793-1.908,1.185-1.367.847-2.758,1.664-4.091,2.565-1.594,1.076-3.185,2.164-4.779,3.235-.564.377-1.1.786-1.659,1.173-.854.613-1.7,1.218-2.56,1.824-.518.363-1.013.757-1.516,1.134-.761.571-1.528,1.136-2.281,1.717a39.652,39.652,0,0,0-4.745,4.23c-.237.252-.463.514-.692.773q.051-4.537.1-9.074c.016-1.489-.028-2.979-.059-4.466l-.174-9.458c.226-.249.451-.5.676-.748l-.014.021c.142-.158.284-.315.432-.474l-.006,0c.01-.008.015-.015.025-.023s.024-.028.034-.042l0-.007c.465-.484.945-.953,1.41-1.437.332-.339.654-.694,1-1.019.444-.408.888-.816,1.331-1.23,1.2-.876,2.425-1.714,3.673-2.527-.006,0-.011.007-.023.01a.5.5,0,0,0,.091-.06l.08-.051c0,.007-.01.008-.015.015a51.111,51.111,0,0,1,5.113-3.037,42.144,42.144,0,0,1,4.174-1.639c1.42-.47,2.846-.9,4.3-1.255,1.5-.371,3.027-.691,4.548-1.016l3.123-.591q3.114,3.079,6.231,6.16,3.146,3.107,6.288,6.224C187.606,263.625,186.326,263.971,185.07,264.389Zm11.136,1.565.53-.188c.051.3.112.6.188.9.008.034.02.067.028.1ZM208.279,224.8c-.2.469-.4.934-.577,1.41l0-.007c-1.1,3.091-2.207,6.182-3.283,9.279l0-.008c-.134.388-.248.791-.375,1.19-.308.994-.622,1.989-.93,2.982-.373,1.192-.769,2.383-1.136,3.573.9-3.69,1.964-7.345,3.216-10.94-.02.052-.039.109-.059.161q.606-1.725,1.264-3.435c.268-.7.517-1.406.821-2.081.345-.767.689-1.54,1.029-2.306.37-.825.734-1.656,1.1-2.488Q208.813,223.462,208.279,224.8Zm22.551-34.259,0-.006c-1.15,1.67-2.237,3.393-3.346,5.091-.989,1.513-1.9,3.07-2.826,4.614-3.539,5.876-6.95,11.825-10.428,17.738-.222.378-.445.75-.668,1.122.013-.027.021-.052.033-.078.11-.273.241-.532.366-.789.389-.823.778-1.641,1.161-2.463.612-1.291,1.205-2.585,1.834-3.874,1.289-2.331,2.478-4.71,3.835-7q.754-1.276,1.511-2.547c.19-.324.374-.647.574-.955.8-1.219,1.564-2.455,2.385-3.655.735-1.051,1.49-2.088,2.233-3.128.592-.826,1.227-1.618,1.847-2.42.693-.893,1.41-1.761,2.143-2.632.039-.043.078-.092.118-.136Zm11.275-16.208c-.049.087-.094.167-.15.25.018-.027.038-.049.057-.077l-.056.083a.858.858,0,0,0-.062.084l.056-.083c-.389.536-.823,1.032-1.261,1.529-.978,1.037-2.007,2.024-3.06,2.98-.9.824-1.788,1.659-2.657,2.508a18.074,18.074,0,0,0-2.45,1.631c-.642.537-1.281,1.084-1.886,1.664-.7.674-1.381,1.372-2.055,2.082-.279.3-.536.617-.8.931-.285.33-.572.648-.843.988-.6.762-1.2,1.529-1.806,2.292-.507.642-.978,1.313-1.47,1.976-.452.614-.918,1.218-1.351,1.845q-1.569,2.286-3.134,4.565c-.217.314-.41.64-.616.957-.437.7-.881,1.385-1.319,2.073-.826,1.3-1.661,2.582-2.44,3.905-1.056,1.79-2.114,3.568-3.157,5.361-.316.546-.589,1.125-.879,1.683L209,216.939c-.294.565-.63,1.133-.89,1.716-.316.7-.631,1.409-.94,2.115-.522,1.166-1.037,2.331-1.558,3.5-.3.668-.614,1.339-.886,2.02a119.387,119.387,0,0,0-4.75,14.439,125.053,125.053,0,0,0-2.984,14.931c-.047.346-.086.7-.129,1.044q-1.14-1.114-2.281-2.229c-1.054-1.034-2.144-2.037-3.218-3.05l-.381-.359c.022-.055.048-.108.068-.163a1.59,1.59,0,0,0,1.509-1.36,3.233,3.233,0,0,0-.207-1.747,2.916,2.916,0,0,0-.537-.869,3.724,3.724,0,0,0-.575-.472c-.024-.313-.052-.62-.087-.93-.121-1.1-.259-2.211-.4-3.318-.21-1.668-.432-3.34-.648-5.007q-.1-.827-.206-1.651c0-.036,0-.078,0-.114,0-.114,0-.221,0-.335a1.766,1.766,0,0,0,1.995-1.268,5.28,5.28,0,0,0,.3-1.429c.027-.424.006-.852,0-1.282-.01-.334-.026-.672-.041-1-.033-.833-.084-1.668-.1-2.5-.043-1.641-.09-3.274-.132-4.909-.04-1.377.009-2.759.023-4.134.007-.906.015-1.807.023-2.714.013-1.249.087-2.5.168-3.742a.022.022,0,0,0,0-.019c.309-1.21.612-2.418.923-3.622.359-1.417.747-2.81,1.146-4.21.288-1.008.562-2.025.854-3.04.073-.182.146-.364.219-.551.228-.565.45-1.129.678-1.694.574-1.429,1.273-2.817,1.97-4.192l-.008.012a62.677,62.677,0,0,1,4.018-6.785,48.005,48.005,0,0,1,3.134-4.041,21.091,21.091,0,0,1,1.69-1.68c.019,0,.037,0,.057,0a1.661,1.661,0,0,0,.666-.238c.346-.069.692-.134,1.037-.2l-.179.034c1.082-.206,2.155-.458,3.231-.693q3.851-.84,7.7-1.67,4-.859,7.985-1.73c1.278-.279,2.561-.529,3.828-.83L230.9,177c.335-.064.666-.151,1-.232l2.337-.571q3.489-.853,6.981-1.713c.307-.074.615-.15.921-.225C242.123,174.28,242.115,174.305,242.105,174.329Z"/><path d="M129.032,177.609h.011l.143-.01Z"/><path d="M193.415,109.98l-.051.072c-.015.022-.028.044-.043.065Z"/><path d="M179.452,246.5c-.03-.035-.062-.068-.091-.1.01.012.02.026.03.036A.468.468,0,0,0,179.452,246.5Z"/><path d="M76.628,140.926h0l-.116-.139Z"/><path d="M179.344,246.374l.008.01.009.011Z"/><path d="M147.56,264.766h0a.055.055,0,0,1-.014.021Z"/><path d="M41.737,191.217l-.019.025c-.029.042-.056.085-.084.127C41.665,191.315,41.7,191.265,41.737,191.217Z"/><polygon points="74.409 275.473 74.409 275.473 74.409 275.475 74.409 275.473"/><path d="M219.12,199.66l.057-.083.009-.013Z"/><path d="M232.493,183.256l.029-.022c.036-.03.069-.064.105-.094C232.581,183.179,232.54,183.217,232.493,183.256Z"/></svg>