<svg xmlns="http://www.w3.org/2000/svg" width="157.312" height="215.195" viewBox="0 0 157.312 215.195"><path d="M157.145,139.993q-.1-3.568-.194-7.13c-.065-2.326-.065-4.658-.1-6.99-.059-4.528-.053-9.05-.106-13.579-.024-1.961-.03-3.922-.106-5.882-.124-2.939-.236-5.877-.359-8.815-.024-.571-.083-1.149-.13-1.72-.141-1.613-.277-3.221-.418-4.834-.106-1.3-.218-2.585-.33-3.875-.053-.653-.165-1.3-.259-1.949-.224-1.625-.453-3.256-.683-4.881-.135-.966-.236-1.949-.412-2.915-.46-2.544-.96-5.088-1.437-7.631-.43-2.273-1.013-4.523-1.525-6.778-.5-2.179-1.119-4.316-1.708-6.471-.07-.242-.135-.489-.206-.737a.648.648,0,0,0,.124-.07,1.562,1.562,0,0,0,.459-2.126c-.924-1.507-1.819-3.032-2.714-4.558-.642-1.8-1.337-3.586-2.1-5.346a65.162,65.162,0,0,0-9.91-16.352,62.983,62.983,0,0,0-6.63-6.7,1.377,1.377,0,0,1-.112-.095q-1.5-1.774-3.145-3.438A51.021,51.021,0,0,0,109.4,6.279a57.5,57.5,0,0,0-8.915-3.039c-.954-.235-1.914-.459-2.874-.665-.93-.383-1.866-.736-2.82-1.054A28.858,28.858,0,0,0,90.518.391,24.615,24.615,0,0,0,85.771.008,23.562,23.562,0,0,0,81.149.6a30.625,30.625,0,0,0-7.113,2.733q-1.21.4-2.385.865A51.689,51.689,0,0,0,55.664,14.664a96.258,96.258,0,0,0-12.642,14.8A158.849,158.849,0,0,0,29.031,53.669c-.4.707-.795,1.413-1.2,2.114-1.113,1.973-2.1,4-3.121,6.024-.377.742-.783,1.472-1.119,2.231l-1.7,3.834c-.448,1.013-.9,2.02-1.349,3.038s-.806,2.067-1.2,3.1c-.53,1.366-1.054,2.738-1.578,4.1-.265.683-.477,1.384-.713,2.079-.724,2.167-1.5,4.322-2.149,6.518l-2.226,7.543c-.276.942-.5,1.9-.747,2.85-.413,1.555-.819,3.115-1.225,4.67-.542,2.067-1.007,4.157-1.5,6.235-.453,1.932-.907,3.863-1.331,5.8-.512,2.349-1.065,4.693-1.542,7.048q-.84,4.116-1.679,8.232c-.377,1.867-.7,3.751-1.024,5.629-.277,1.578-.554,3.151-.83,4.729-.112.618-.224,1.231-.307,1.849q-.591,4.319-1.177,8.626c-.089.642-.206,1.278-.259,1.92-.1,1.189-.195,2.373-.295,3.562-.253,3.027-.548,6.048-.665,9.08a97.9,97.9,0,0,0,.065,10.193,36.3,36.3,0,0,0,.618,4.994,20.3,20.3,0,0,0,1.142,4.01,11.568,11.568,0,0,0,2.291,3.568,7.73,7.73,0,0,0,3.333,1.973c.07.023.147.041.217.065a5.819,5.819,0,0,0,1.3,1.277,6.091,6.091,0,0,0,2.008.86,4.235,4.235,0,0,0,1.819-.094,8.333,8.333,0,0,0,3.445-1.8c.872-.707,1.672-1.49,2.473-2.273,1.143-.365,2.279-.718,3.433-1.031-.018.006-.035.012-.059.018.448-.112.889-.206,1.343-.277a.33.33,0,0,0,.07,0c1.2,1.312,2.32,2.7,3.4,4.1.235.8.465,1.6.7,2.39.471,1.573.948,3.139,1.484,4.682,2.5,7.219,6.765,15.186,14.621,17.506a13.418,13.418,0,0,0,3.8.554,11.443,11.443,0,0,0,4.8-1.007,10.6,10.6,0,0,0,3.451-2.456,21.348,21.348,0,0,0,2.52-3.539c1.155-1.943,2.209-3.969,3.168-6.012q1.485-3.153,2.951-6.33.8-1.272,1.666-2.52c.742-1.06,1.46-2.138,2.255-3.162.371-.448.754-.878,1.166-1.29.194-.176.395-.353.607-.518.188-.129.376-.253.577-.371.276-.147.553-.277.836-.4.347-.136.7-.254,1.06-.36.312-.07.63-.123.954-.17.382-.036.759-.059,1.148-.059.424.018.848.053,1.278.106.6.1,1.2.223,1.8.377.612.188,1.213.4,1.8.647.813.365,1.6.772,2.374,1.207.706,1.125,1.413,2.25,2.131,3.363.613.954,1.278,1.884,1.973,2.779a29.148,29.148,0,0,0,2.9,3.3,16.377,16.377,0,0,0,7.513,4.357,12.05,12.05,0,0,0,4.381.224A11.028,11.028,0,0,0,104.85,202a11.908,11.908,0,0,0,3.327-2.839,16.287,16.287,0,0,0,1.843-3.02c.5-1,1.013-1.991,1.513-2.986.848-1.69,1.679-3.4,2.644-5.035.024-.035.041-.07.065-.111a.059.059,0,0,0,.021-.026c.439-.708.883-1.4,1.386-2.065a16.244,16.244,0,0,1,1.125-1.254c.1-.094.206-.182.312-.271.212-.153.43-.288.654-.424.082-.041.171-.082.259-.118s.162-.057.247-.087.157-.04.236-.054l.253-.018c.12,0,.238.017.357.029a3.477,3.477,0,0,1,.344.06c.288.1.571.206.853.324.5.225.968.486,1.437.753,1.09.671,2.162,1.365,3.227,2.073.6.695,1.2,1.384,1.814,2.061a26.93,26.93,0,0,0,3.2,3.1,9.756,9.756,0,0,0,1.749,1.131,7.162,7.162,0,0,0,1.884.689,6.609,6.609,0,0,0,4.093-.46,6.3,6.3,0,0,0,1.5-.971c.224-.212.442-.424.654-.654a12.422,12.422,0,0,0,2.856-1.113,18.849,18.849,0,0,0,6.306-6.059,40.249,40.249,0,0,0,4.358-8.314c.624-1.6,1.113-3.239,1.613-4.882.348-1.13.571-2.3.836-3.445.254-1.113.4-2.237.583-3.362.171-1.072.277-2.143.389-3.227.1-1.024.206-2.037.259-3.067.059-1.261.165-2.533.188-3.793.042-2.279.1-4.557.071-6.836Q157.261,143.862,157.145,139.993ZM64.632,14.505c-.006.006-.006.012-.012.018,1.82-1.578,3.6-3.18,5.524-4.623-.042.036-.083.065-.118.095A48.354,48.354,0,0,1,74.625,7a.045.045,0,0,0-.024.006l.035-.017c.005,0,.006,0,.009-.006l0,.006.083-.048c.023-.017.041-.023.065-.041,1.007-.548,2.025-1.071,3.073-1.537q2.006-.468,4.046-.736a41.631,41.631,0,0,1,4.644-.256,52.853,52.853,0,0,1,6.461.48c.566.082,1.131.177,1.7.277q1.236.441,2.438.954c-.012-.006-.029-.018-.041-.024.064.029.123.059.188.088H97.3c.006,0,.006,0,.012.006,2.29,1.019,4.51,2.161,6.689,3.374-1.184-.206-2.379-.376-3.58-.53a57.31,57.31,0,0,0-5.853-.494,55.439,55.439,0,0,0-9.681.642c-1.36.212-2.709.524-4.057.789-.966.194-1.9.453-2.85.706-1.513.407-3.026.789-4.516,1.29a55.077,55.077,0,0,0-8.821,3.757q-1.6.883-3.156,1.837C62.518,16.507,63.584,15.512,64.632,14.505ZM18.561,92.715c.23-1.095.542-2.178.824-3.262Q20,87.1,20.651,84.742a206.785,206.785,0,0,1,6.837-20.327c.4-.8.812-1.6,1.213-2.4.589-1.16,1.166-2.32,1.772-3.468-.724,2-1.407,4.022-2.1,6.029-1.384,4.034-2.756,8.074-4.169,12.1q-2.517,7.137-4.993,14.291c-.242.707-.489,1.414-.731,2.12C18.508,92.962,18.537,92.839,18.561,92.715ZM8.3,131.685c-.218,1.189-.436,2.385-.647,3.574-.13.713-.207,1.437-.307,2.155q-.557,3.966-1.107,7.932c.012-.088.03-.177.042-.259-.124.83-.177,1.666-.259,2.5-.154,1.484-.3,2.962-.448,4.446-.159,1.643-.294,3.28-.4,4.929-.148,2.255-.336,4.5-.413,6.76-.112,3.133-.265,6.265-.247,9.4.006,1.9.047,3.821.2,5.729-.145-.734-.267-1.479-.367-2.225a73.785,73.785,0,0,1-.374-8.554c.023-2.021.041-4.059.205-6.074.083-1.018.159-2.031.242-3.044q.273-3.418.547-6.837c.036-.447.112-.883.171-1.324.159-1.207.324-2.415.483-3.622.247-1.878.512-3.751.748-5.635.606-3.38,1.166-6.76,1.749-10.14.224-1.295.512-2.585.771-3.875.389-1.931.777-3.856,1.16-5.788q.354-1.749.742-3.5c-.2,1.319-.406,2.644-.606,3.968Q9.843,123.7,9.5,125.2c-.13.571-.224,1.148-.33,1.719Q8.736,129.3,8.3,131.685ZM75.29,182.8c-.165,0-.33-.006-.5-.006a12.976,12.976,0,0,0-2.62.248c.047-.036.094-.077.141-.118.318-.23.648-.442.984-.654.2-.106.406-.2.612-.294.12-.041.244-.074.367-.109.185-.037.374-.07.563-.1h.03c.029-.006.053-.006.083-.012-.024.006-.042.006-.065.012a3.313,3.313,0,0,1,.477.023,2.3,2.3,0,0,1,.265.053c.147.047.294.1.441.159.171.083.342.171.507.271a3.71,3.71,0,0,1,.306.212c.224.183.43.377.636.577A13.731,13.731,0,0,0,75.29,182.8Zm40.989-2.278a9.116,9.116,0,0,0-2.779,2.137,20.668,20.668,0,0,0-2.043,2.75c-.118.188-.23.371-.342.559.489-1.054,1.007-2.084,1.59-3.085a15.752,15.752,0,0,1,.942-1.366c.242-.289.483-.566.736-.836.2-.177.389-.342.6-.5.147-.106.294-.206.447-.295.112-.059.23-.117.342-.17.094-.03.183-.059.271-.095.07-.017.141-.029.212-.041a3.318,3.318,0,0,1,.4-.029c.081.006.167.012.248.024s.135.023.206.041l.335.123c.2.095.389.183.583.283A5.276,5.276,0,0,0,116.279,180.524Zm.384-.972.021,0,.09,0Zm1.512,4.228-.141.053.133-.052.027-.006Zm24.255-7.431q-.441,1.686-.889,3.356c-.589,1.878-1.139,3.762-1.9,5.572-.343.774-.71,1.526-1.121,2.259-.236.4-.489.778-.754,1.143-.194.012-.388.024-.583.024-.282-.012-.559-.03-.836-.059a14.236,14.236,0,0,1-1.572-.33c-.453-.142-.889-.295-1.325-.465a27.132,27.132,0,0,1-2.508-1.284c-.931-.56-1.844-1.154-2.739-1.767-.789-.93-1.56-1.872-2.349-2.8a43.961,43.961,0,0,0-3.5-3.75,11.379,11.379,0,0,0-3.056-2.12,6.316,6.316,0,0,0-2.973-.66,6.708,6.708,0,0,0-3.316,1.078,11.124,11.124,0,0,0-2.538,2.361,25.813,25.813,0,0,0-3.556,6.389l-2.208,5.335c.035-.088.07-.171.106-.259-.56,1.248-1.1,2.514-1.761,3.7-.236.377-.477.748-.748,1.1-.059.07-.123.141-.188.206-.124.106-.248.212-.377.306-.094.065-.189.124-.283.183-.07.035-.141.07-.218.1l-.176.053a2.558,2.558,0,0,1-.283.053c-.153.011-.306.023-.465.023h-.035a1.213,1.213,0,0,1-.148-.006h.089c-.095-.006-.186-.02-.277-.031a4.667,4.667,0,0,1-.464-.105c-.348-.114-.69-.239-1.032-.376-.471-.218-.918-.465-1.366-.724-2.349-1.454-4.516-3.18-6.713-4.84a68.064,68.064,0,0,0-5.57-3.957c-.454-.736-.913-1.467-1.39-2.191a26.539,26.539,0,0,0-2.114-2.879,11.3,11.3,0,0,0-2.2-2.073,7.1,7.1,0,0,0-7.808-.324,13.116,13.116,0,0,0-3.321,2.65,23.935,23.935,0,0,0-2.62,3.615,56.527,56.527,0,0,0-2.8,5.371c-.46.971-.937,1.943-1.384,2.926-.159.354-.324.7-.483,1.048-.648,1.078-1.284,2.161-1.925,3.239-.778,1.289-1.567,2.573-2.35,3.857a52.4,52.4,0,0,1-3.474,5.146,18.384,18.384,0,0,1-1.255,1.378c-.206.189-.417.371-.629.554-.189.135-.377.259-.577.377s-.425.206-.642.3a2.6,2.6,0,0,1-.336.112c-.083.017-.159.035-.241.053-.218.018-.43.029-.648.035-.153-.012-.306-.023-.459-.041s-.33-.059-.489-.1a4.558,4.558,0,0,1-.53-.183c-.359-.165-.7-.347-1.042-.541-.26-.171-.513-.342-.76-.525a20.783,20.783,0,0,1-1.59-1.478c-.8-.881-1.54-1.822-2.252-2.78-.451-.618-.887-1.242-1.316-1.871-1.4-2.038-2.756-4.105-4.146-6.154-.583-.871-1.166-1.743-1.772-2.6-.73-1.03-1.437-2.084-2.2-3.091-.354-.459-.707-.925-1.06-1.39-.148-.465-.289-.924-.436-1.389-.189-.583-.395-1.161-.612-1.732a5.768,5.768,0,0,0-.53-1.071,5.476,5.476,0,0,0-.972-1.2,6.162,6.162,0,0,0-1.254-.818,5.911,5.911,0,0,0-2.279-.553c-.03-.024-.065-.042-.094-.065a4.634,4.634,0,0,0-1.7-.7,5.128,5.128,0,0,0-1.773-.053,7.165,7.165,0,0,0-1.843.636,10.653,10.653,0,0,0-2.59,2.014c-1.2.377-2.391.742-3.6,1.095-1,.253-2,.518-3.015.689l-.253.018c-.012-.024-.024-.053-.036-.083-.206-.53-.388-1.072-.547-1.619-.242-.983-.413-1.979-.56-2.985a1.3,1.3,0,0,0,.206-.648c.2-4.635.318-9.275.471-13.915.065-1.978.189-3.962.283-5.947.094-1.884.159-3.774.277-5.659q.273-4.159.542-8.314c.117-1.826.188-3.657.365-5.482q.185-1.926.371-3.863c.035-.253.07-.512.106-.766-.006.048-.012.094-.018.136.1-.689.247-1.372.377-2.055q.707-3.922,1.425-7.838c.153-.836.383-1.66.577-2.491q.565-2.454,1.13-4.9c.2-.889.377-1.79.613-2.667s.489-1.755.73-2.632c.677-2.438,1.36-4.876,2.02-7.314,1.354-4.245,2.673-8.509,4.122-12.725q2.526-7.349,5.1-14.685c1.372-3.916,2.7-7.85,4.04-11.777.742-2.191,1.46-4.393,2.243-6.572,1.14-3.156,2.239-6.323,3.549-9.42a64.167,64.167,0,0,1,3.753-7.262c-.024.036-.042.071-.065.1.889-1.461,1.808-2.9,2.791-4.3.712-1.007,1.419-2.014,2.132-3.021.93-1.313,2-2.538,3-3.8-.024.03-.042.053-.059.077.465-.583,1.013-1.113,1.519-1.661S51.5,30.186,52,29.638c-.059.053-.112.106-.17.159.912-.871,1.831-1.737,2.744-2.6a55.881,55.881,0,0,1,4.816-4c-.006,0-.006.006-.012.006a.03.03,0,0,1,.018-.011.083.083,0,0,0,.024-.018l-.006.006c.006-.006.012-.006.018-.012s.011-.006.017-.012a68.122,68.122,0,0,1,6.469-4.2,53.738,53.738,0,0,1,5.761-2.726,54.756,54.756,0,0,1,5.6-1.891c1.143-.312,2.291-.624,3.433-.942.96-.194,1.914-.388,2.868-.594,1.275-.26,2.534-.484,3.825-.648a55.873,55.873,0,0,1,6.62-.38,48.168,48.168,0,0,1,4.965.321c.913.106,1.825.218,2.744.33.642.106,1.284.218,1.926.324.547.094,1.107.164,1.648.282,1.466.336,2.939.642,4.393,1.037,1.307.371,2.6.783,3.881,1.254.317.2.635.406.953.606,1.249.8,2.5,1.608,3.751,2.414,2.3,1.478,4.635,2.921,6.778,4.611a44.337,44.337,0,0,1,3.621,3.28c.147.159.295.312.442.477,1.367,1.953,2.631,3.977,3.8,6.054a85.429,85.429,0,0,1,4.375,9.182,98.1,98.1,0,0,1,3.812,11.745.16.16,0,0,0,0-.039q1.2,4.7,2.042,9.472.645,3.568,1.29,7.143c.265,1.454.447,2.926.665,4.392.277,1.867.542,3.734.825,5.594.017.13.029.265.047.4q.468,4.266.948,8.526c.064.589.094,1.172.129,1.761.106,1.6.206,3.209.312,4.817q.106,1.695.212,3.391c.053.766.03,1.537.047,2.3.042,2.579.077,5.158.136,7.731-.006.336-.012.672-.018,1.013q-.08,4.354-.153,8.721c-.041,2.285-.188,4.569-.282,6.854-.183,4.34-.425,8.668-.654,13-.259,4.864-.542,9.728-.878,14.585-.164,2.4-.388,4.782-.606,7.167-.077.871-.2,1.731-.318,2.6q-.229,1.765-.471,3.532c-.377,2.138-.742,4.282-1.213,6.407C142.93,174.146,142.718,175.259,142.43,176.349ZM154,156.116c-.065,1.107-.083,2.22-.2,3.321-.135,1.248-.264,2.5-.394,3.739-.194,1.178-.389,2.344-.583,3.515-.094.548-.259,1.084-.383,1.626l-.406,1.719c-.247.789-.489,1.572-.736,2.35a40.573,40.573,0,0,1-1.425,3.845,46.154,46.154,0,0,1-2.385,4.681,31.784,31.784,0,0,1-2.126,3.05.021.021,0,0,1,.012-.006c-.512.619-1.054,1.219-1.625,1.79-.236.213-.471.425-.713.631.595-1.5,1.072-3.039,1.531-4.558.63-2.073,1.172-4.181,1.632-6.295.241-1.089.512-2.173.706-3.268.253-1.437.512-2.873.766-4.31.159-.913.27-1.837.388-2.756.112-.86.23-1.719.342-2.585.047-.389.117-.777.153-1.172.171-2.131.4-4.263.542-6.4.147-2.337.312-4.669.435-7.007.524-9.527,1.007-19.055,1.349-28.594.088-2.508.076-5.017.118-7.525.011-.949.064-1.9.041-2.845-.024-.93-.036-1.86-.053-2.8-.036-1.673-.065-3.345-.1-5.018-.018-.765,0-1.536-.047-2.3q-.274-4.107-.548-8.214c-.13-2.014-.4-4.016-.624-6.018-.23-2.032-.43-4.069-.736-6.089-.413-2.785-.836-5.565-1.249-8.35-.112-.712-.259-1.425-.388-2.137-.3-1.631-.6-3.268-.9-4.9-.772-4.2-1.655-8.4-2.827-12.513q-.389-1.352-.812-2.7c.536.889,1.066,1.778,1.6,2.667q1.025,2.914,1.843,5.889c.513,1.843,1.013,3.7,1.531,5.535a.241.241,0,0,1-.007-.035c.006.023.014.046.019.064v.024c.006.029.018.059.024.082-.006-.023-.018-.047-.024-.076q.786,3.471,1.59,6.924c.453,1.985.777,4,1.154,5.995.183.966.371,1.931.548,2.9.141.777.224,1.566.335,2.35.324,2.314.66,4.622.978,6.936-.012-.065-.018-.129-.03-.194.207,2.279.4,4.557.589,6.836.1,1.143.2,2.291.295,3.433.059.7.065,1.408.094,2.1q.168,4.214.342,8.427c.029.736.017,1.478.029,2.22.018,1.666.041,3.333.059,5,.023,2.031.035,4.063.047,6.094.023,4.676.053,9.351.165,14.027.065,2.52.123,5.04.188,7.566.059,2.144.053,4.287.077,6.431C154.16,151.523,154.124,153.819,154,156.116Z"/><path d="M114.266,187.978l0,0-.009.014C114.26,187.99,114.26,187.984,114.266,187.978Z"/><path d="M72.258,78.136c.159-.689.306-1.379.435-2.079a28.912,28.912,0,0,0,.513-3.545,20.347,20.347,0,0,0-.106-3.586,12.25,12.25,0,0,0-.7-3,8.353,8.353,0,0,0-.854-1.625c.059-.595.112-1.2.159-1.8a11.273,11.273,0,0,0-.059-3.209,8.74,8.74,0,0,0-1.1-2.78,4.19,4.19,0,0,0-1.784-1.719,4.02,4.02,0,0,0-2.7-.083,8.2,8.2,0,0,0-2.479,1.137,12,12,0,0,0-3.7,4.534A40.2,40.2,0,0,0,57.5,65.817a25.143,25.143,0,0,0-3.1,5.164c-.459,1.048-.878,2.108-1.266,3.18a19.383,19.383,0,0,0-1.461,2.255,40.033,40.033,0,0,0-2.861,6.359,72.175,72.175,0,0,0-2.079,7c-.748,3.08-1.3,6.189-1.825,9.31-.177,1.065-.359,2.131-.536,3.2-.112.665-.224,1.325-.336,1.99-.088.548-.176,1.1-.247,1.643s-.106,1.066-.171,1.6a8.381,8.381,0,0,0-.129,2.544,2.789,2.789,0,0,0,1.06,1.684,2.486,2.486,0,0,0,1.9.63,3.444,3.444,0,0,0,1.807-.966,20.555,20.555,0,0,0,1.873-2.167,25.717,25.717,0,0,0,1.743-2.4l.565-.884a16.587,16.587,0,0,0-.012,2.532,13.05,13.05,0,0,0,.848,2.986,1.6,1.6,0,0,0,1.184,1.06,1.54,1.54,0,0,0,.318.035,1.713,1.713,0,0,0,1.03-.377c.071-.047.136-.1.2-.147-.052.041-.106.083-.164.124.206-.147.418-.283.624-.424a6.625,6.625,0,0,0,1.284-1.025,8.6,8.6,0,0,0,.883-1.172c.065-.1.124-.2.188-.306a3.744,3.744,0,0,0,2.073-.412,10.311,10.311,0,0,0,2.261-1.637,17.242,17.242,0,0,0,2-2.1,21.243,21.243,0,0,0,1.59-2.409,47.992,47.992,0,0,0,2.98-6.059,65.855,65.855,0,0,0,2.249-6.453c.318-1.125.618-2.256.872-3.4a16.666,16.666,0,0,0,.465-3.133,13.787,13.787,0,0,0-.254-3.338A9.058,9.058,0,0,0,72.258,78.136ZM50.146,104.422a30.234,30.234,0,0,1-1.907,2.82c.017-.018.035-.041.053-.059-.407.495-.807.995-1.207,1.5.005,0,.005-.006.011-.006-.223.271-.453.542-.7.8-.065.059-.13.112-.2.165-.012.005-.017.011-.029.017a1,1,0,0,1-.089-.076l-.017-.018c-.006-.012-.006-.024-.012-.029-.006-.053-.012-.1-.023-.153a1.4,1.4,0,0,0-.006-.159c.035-.571.135-1.137.188-1.7s.106-1.1.177-1.655v-.006a.157.157,0,0,0,.006-.053c.347-2.432.789-4.846,1.183-7.266.212-1.248.43-2.5.665-3.745.018.43.048.86.059,1.3a11.891,11.891,0,0,0,.112,1.437,3.512,3.512,0,0,0,1.1,2.155,4.6,4.6,0,0,0,2.415,1.107,1.955,1.955,0,0,0,.265.018Q51.217,102.635,50.146,104.422Zm5.412,3.886c0-.012-.006-.018-.006-.03a11.5,11.5,0,0,1-.053-1.2c0,.071,0,.141-.006.206.006-.082.006-.165.006-.247.165.206.336.406.512.594C55.864,107.866,55.717,108.09,55.558,108.308Zm2.243-4.77c-.023.059-.047.124-.07.183-.077-.212-.142-.424-.206-.642a14.793,14.793,0,0,1-.289-1.608c-.047-.394-.094-.8-.141-1.2a3.162,3.162,0,0,0,1.384.229,4.6,4.6,0,0,0,.5-.076C58.614,101.477,58.208,102.5,57.8,103.538Zm1.078-20.98v-.03a33.825,33.825,0,0,1-.866,4.04c-.035-.177-.058-.359-.088-.536-.035-.312-.065-.619-.094-.925.306-1.578.648-3.15,1.072-4.7v.006c.017-.064.035-.123.053-.188.017.288.023.571.029.854A13.763,13.763,0,0,1,58.879,82.558Zm6.042-23.2c.159-.147.317-.282.488-.412a5.176,5.176,0,0,1,.518-.33c.2-.106.407-.206.613-.3.194-.065.383-.13.577-.183.053-.011.106-.023.159-.029a.235.235,0,0,0,.029-.006c.018.024.042.047.059.071.077.111.153.229.224.353.112.212.212.424.312.642.088.235.165.465.236.706.017.089.035.183.047.271.035.312.047.625.053.937,0,.088-.006.176-.006.265a5.433,5.433,0,0,0-2.144-.448,3.193,3.193,0,0,0-1.784-.842A8.9,8.9,0,0,1,64.921,59.363ZM59.974,70c.147-.271.307-.542.465-.807l-.011.012a17.989,17.989,0,0,1,1.248-1.8c.206-.248.418-.483.642-.707.171-.153.341-.3.524-.441.135-.095.271-.177.406-.26.077-.035.147-.07.218-.106.206-.076.412-.141.618-.2.159-.035.318-.065.477-.094l.424-.035c.041.223.083.447.112.671a29.744,29.744,0,0,1,.13,3.074,2.712,2.712,0,0,0-1.779-.642,4.9,4.9,0,0,0-2.384.618,5.15,5.15,0,0,0-1.131.877C59.945,70.11,59.962,70.056,59.974,70Zm2.758,7.873c-.265.942-.546,1.878-.85,2.808a7.418,7.418,0,0,0-.489-3.044,6.038,6.038,0,0,0-1.036-1.6c.177-.512.359-1.019.565-1.519a1.382,1.382,0,0,0,.619-1.207V73.26c.029-.053.058-.1.082-.147.106-.165.218-.33.336-.483.1-.124.206-.242.318-.359.088-.077.176-.154.265-.224l.053-.035a1.283,1.283,0,0,0,.117-.059c.136-.047.271-.089.407-.124a.89.89,0,0,1,.123-.024l.018.036c.065.176.124.359.177.542.059.241.106.488.147.741,0,.092,0,.187,0,.281-.007.215-.029.424-.051.638A33.769,33.769,0,0,1,62.732,77.877Zm-2.976,15.35c-.011.012-.017.024-.029.036.542-.936,1.054-1.9,1.537-2.868.2-.129.4-.265.595-.412-.242.424-.483.842-.736,1.26l.123-.212A25.412,25.412,0,0,1,59.756,93.227Zm8.862-4.534c0-.011.006-.023.006-.035A63.542,63.542,0,0,1,65.886,96.4a46.892,46.892,0,0,1-2.538,4.916c.006-.017.018-.029.024-.047-.012.018-.024.041-.036.059a.076.076,0,0,1-.013.023l0,0-.009.014,0,0,0,0q-.481.786-1.032,1.528c-.365.434-.753.84-1.153,1.24l-.049.049c.513-1.331,1.013-2.668,1.461-4.022q.5-1.484.959-2.985a13.83,13.83,0,0,0,.907-1.107,28.262,28.262,0,0,0,1.779-2.756q1.359-2.349,2.484-4.811C68.654,88.564,68.636,88.629,68.618,88.693Z"/><path d="M119.748,72.2a14.833,14.833,0,0,0-1.455-3.086,5.559,5.559,0,0,0-2.7-2.249,7.691,7.691,0,0,0-3.368-.412,8.2,8.2,0,0,0-1.849.406,7.492,7.492,0,0,0-1.454.777,10.074,10.074,0,0,0-1.961,1.814c-2.314.283-4.093,1.908-5.435,3.727a24.266,24.266,0,0,0-3.6,6.925c-.435,1.372-.807,2.762-1.154,4.157-.353,1.414-.671,2.833-.895,4.275a65.222,65.222,0,0,0-.854,9.263c-.017,1.537-.012,3.091.112,4.622a15.181,15.181,0,0,0,.742,3.722,9,9,0,0,0,.995,2.108,13.023,13.023,0,0,0,.536,3.344,7.332,7.332,0,0,0,2.067,3.039,4.98,4.98,0,0,0,.589.459,4.368,4.368,0,0,0,.324.348,4.882,4.882,0,0,0,3.109,1.319c.206.011.412.023.624.023a6.735,6.735,0,0,0,2.591-.477,7.841,7.841,0,0,0,2.155-1.4,8.164,8.164,0,0,0,1.99-1.325,15.892,15.892,0,0,0,2.467-2.9,27.939,27.939,0,0,0,2.144-3.7c.571-1.225,1.077-2.479,1.543-3.751a61.427,61.427,0,0,0,2.4-8.55,71,71,0,0,0,1.307-8.986,47.325,47.325,0,0,0-.047-9.18A17.524,17.524,0,0,0,119.748,72.2Zm-15.222,29.86c-.177.159-.347.306-.53.448-.047.029-.088.058-.135.088-.006-.041-.012-.076-.018-.118l-.071-.435q.15-1.185.3-2.379a6.064,6.064,0,0,0,.447,2.284c.012.024.024.053.035.077A.179.179,0,0,0,104.526,102.06ZM108.671,90a59.6,59.6,0,0,1-1.5,7.248c-.13.454-.265.907-.4,1.36-.267-2.842-.333-5.691-.33-8.551.007-1.58.077-3.165.2-4.751.165-.688.336-1.383.524-2.072.218-.748.465-1.484.73-2.214.083-.071.165-.136.247-.206.03-.024.065-.047.1-.071.059.153.1.312.147.471l-.018-.07c.012.035.018.07.03.111.005.012.005.03.011.048,0-.012-.006-.018-.006-.03.177.707.33,1.407.436,2.126v-.006a23.04,23.04,0,0,1,.118,2.615A37.784,37.784,0,0,1,108.671,90Zm1.384-13.95c.059-.006.112-.006.165-.012.024,0,.041.006.059.006l.177.035a.687.687,0,0,0,.041.112C110.35,76.139,110.2,76.092,110.055,76.051Z"/></svg>