<svg xmlns="http://www.w3.org/2000/svg" width="420.398" height="360.677" viewBox="0 0 420.398 360.677"><path d="M101.5,164.988l.075,0,.1,0C101.613,164.982,101.554,164.988,101.5,164.988Z"/><path d="M313.225,118.169c-.018-.007-.035-.016-.053-.022-.049-.017-.1-.031-.147-.049Z"/><path d="M403.927,32.619l-.09.014-.036.007Z"/><path d="M213.711,32.4l.006,0,.04-.02Z"/><path d="M315.068,129.43c.017.026.031.055.047.081l.059.095C315.139,129.548,315.1,129.488,315.068,129.43Z"/><path d="M162.829,257.2l-.027-.006c-.069-.016-.139-.03-.209-.047Z"/><path d="M29.368,211.57l.042-.053c.024-.031.045-.063.069-.094C29.444,211.476,29.4,211.523,29.368,211.57Z"/><path d="M420.118,230.06a44.377,44.377,0,0,0-.754-4.746c-.163-.757-.325-1.521-.517-2.276.25-1.063.47-2.133.617-3.214a32.055,32.055,0,0,0,.106-9.039,33.313,33.313,0,0,0-2.073-7.861,44.406,44.406,0,0,0-9.027-13.832,41.065,41.065,0,0,0-6.135-5.2,50.253,50.253,0,0,0-7.113-4.039c-.842-.4-1.69-.783-2.55-1.131-.648-.253-1.3-.512-1.943-.771-.9-.359-1.8-.748-2.715-1.071-2.114-.748-4.222-1.5-6.353-2.2-1.09-.359-2.179-.742-3.275-1.077q-1.952-.592-3.9-1.2c-.96-.294-1.938-.548-2.909-.818-.884-.242-1.773-.507-2.668-.724l-4.128-.99c-.948-.224-1.908-.371-2.862-.547-1-.189-1.99-.377-3-.525-.747-.105-1.5-.217-2.243-.323-.418-.065-.842-.148-1.266-.183-1.3-.118-2.585-.253-3.875-.377a50,50,0,0,0-6.512-.165,56.265,56.265,0,0,0-6.036.542l-.684.1c-2.365-.135-4.727-.286-7.087-.479-.025-.128-.049-.256-.073-.383-.171-.919-.43-1.826-.648-2.738s-.465-1.79-.706-2.685-.477-1.8-.713-2.7v0q-.2-1.385-.5-2.754a13.8,13.8,0,0,0,.291-1.513,4.72,4.72,0,0,0-.124-1.791,3.713,3.713,0,0,0-1.024-1.6,2.7,2.7,0,0,0-.842-.584,67.8,67.8,0,0,0-4.405-8.732c-.736-1.272-1.507-2.532-2.314-3.763-.466-.713-.935-1.427-1.414-2.134l-.1-.22c-.607-1.254-1.219-2.5-1.849-3.745-.259-.5-.524-1-.8-1.49-.291-.52-.564-1.055-.878-1.567-.41-.664-.82-1.332-1.236-1.995-.318-.517-.657-1.02-1-1.521a30.534,30.534,0,0,0-5.055-7.037c-1.172-1.26-2.426-2.432-3.669-3.622-.677-.653-1.354-1.3-2.073-1.914-.907-.776-1.813-1.56-2.714-2.343-.395-.335-.778-.689-1.184-1.013l-.019-.015c.042.024.083.052.125.077.748.429,1.5.865,2.244,1.3.487.282.991.538,1.5.8.851.55,1.707,1.095,2.579,1.616a51.348,51.348,0,0,0,8.562,4.312,10.921,10.921,0,0,0,1.6.451,8.166,8.166,0,0,0,1.2.166,3.358,3.358,0,0,0,.842-.077,5.913,5.913,0,0,0,.619-.218,2.887,2.887,0,0,0,1.06-.759,4.8,4.8,0,0,0,1.2-2.768c.011-.089.015-.178.025-.266a5.84,5.84,0,0,0,2.553-.893,8.326,8.326,0,0,0,1.972-2.409c.236-.365.448-.73.648-1.113a5.515,5.515,0,0,0,.412-1.389,16,16,0,0,0,.4-4.575,20.945,20.945,0,0,0-.831-4.211,36.49,36.49,0,0,0-2.926-6.878c-.713-1.289-1.437-2.579-2.149-3.868-.554-1.007-1.2-1.973-1.791-2.956-1.19-1.955-2.408-3.9-3.616-5.848q-.657-1.134-1.324-2.278c-.406-.7-.871-1.39-1.231-2.114q-1.154-2.335-2.309-4.659c-.618-1.5-1.21-3.02-1.83-4.527-.265-.654-.448-1.355-.671-2.026-.254-.765-.5-1.525-.754-2.29.023.088.047.171.071.259-.283-.983-.568-1.967-.848-2.954l1.361,1.581c.506.583,1.054,1.142,1.584,1.713.436.465.859.949,1.319,1.4.695.683,1.395,1.372,2.084,2.061.589.583,1.213,1.119,1.82,1.684,1.961,1.808,4.552,4.293,7.484,3.321a6.435,6.435,0,0,0,3.463-3.133c.042-.074.074-.155.115-.231a5.056,5.056,0,0,0,.674-.008,8.349,8.349,0,0,0,1.16-.177,5.791,5.791,0,0,0,1.645-.718,8.606,8.606,0,0,0,3.812-1.279,11.289,11.289,0,0,0,3.05-2.662,15.315,15.315,0,0,0,1.414-2.055,21.9,21.9,0,0,0,1.024-2.108,27.452,27.452,0,0,0,1.237-3.71A96.6,96.6,0,0,1,341.8,45.217a35.4,35.4,0,0,1,1.53-3.229c.308-.524.643-1.03.988-1.534.144,0,.288,0,.432.005.966.024,1.937.047,2.9.065,2.032.03,4.057-.006,6.089-.053,1.955-.053,3.9-.136,5.853-.218,1.843-.076,3.692-.194,5.523-.389,3.192-.341,6.377-.689,9.557-1.077.113-.014.225-.033.338-.048a36.063,36.063,0,0,0,7.01-.611,40.241,40.241,0,0,0,8-2.357c1.093-.255,2.186-.506,3.274-.782,2.832-.724,5.659-1.543,8.544-2.043.664-.109,1.333-.2,2-.313a9.017,9.017,0,0,0,4.369-1.654l.028-.025c.4-.134.8-.281,1.179-.45.241-.106.494-.206.73-.33a12.49,12.49,0,0,0,1.148-.665,3.533,3.533,0,0,0,1.148-1.378,5.611,5.611,0,0,0,.23-4.169,8.263,8.263,0,0,0-1.048-2.161,15.138,15.138,0,0,0-1.79-2.226,28.168,28.168,0,0,0-3.289-2.857,12.042,12.042,0,0,0-2.619-4.034,18.915,18.915,0,0,0-4.7-3.415,53.032,53.032,0,0,0-5.689-2.638c-.895-.353-1.813-.66-2.72-.977-.73-.26-1.455-.554-2.191-.772-1.619-.477-3.268-.883-4.887-1.36-.754-.224-1.555-.336-2.326-.495l-2.756-.565c-.665-.135-1.354-.206-2.031-.306q-1.351-.2-2.7-.4c-1.576-.226-3.168-.354-4.746-.52-1.559-.171-3.141-.231-4.711-.351C363.77.831,363.07.831,362.375.8,361.592.766,360.8.725,360.019.7,358.53.654,357.04.613,355.55.6c-1.507-.017-3.025-.061-4.539-.027-1.418.019-2.847,0-4.264.08-.825.047-1.649.094-2.473.135-.548.03-1.107.042-1.649.095-1.331.135-2.673.218-4,.406-.293.041-.587.084-.88.124-.593-.064-1.186-.136-1.781-.2Q333.1.927,330.237.642c-1.684-.165-3.386-.236-5.076-.354-.583-.041-1.166-.1-1.743-.117-.813-.018-1.619-.042-2.432-.06-1.548-.04-3.1-.135-4.646-.106-2.031.042-4.057.089-6.089.13-1.513.03-3.026.189-4.534.3-.895.064-1.795.123-2.691.194-.488.041-.971.123-1.454.183l-3.621.476c-.619.077-1.249.13-1.861.254-1.831.353-3.663.689-5.5,1.036-1.348.259-2.673.595-4.01.918-1.443.354-2.915.66-4.34,1.078q-3.038.892-6.071,1.779c-1.224.359-2.432.771-3.645,1.177-1.6.53-3.227,1.025-4.81,1.6-1.761.636-3.51,1.29-5.265,1.931-1.16.424-2.308.854-3.45,1.314q-2.81,1.13-5.624,2.249c-1.484.595-2.938,1.278-4.4,1.914-2.986,1.295-5.942,2.649-8.886,4.021-2,.872-3.957,1.826-5.936,2.732-.052.023-.1.047-.15.075-.087.039-.175.078-.262.114.047-.018.094-.035.136-.053-1.755.789-3.5,1.566-5.253,2.367.006,0,.012-.006.018-.006-1.714.742-3.427,1.49-5.129,2.267.065-.029.135-.065.2-.094-1.648.709-3.3,1.412-4.932,2.154l-.154.07c-.3.131-.6.272-.9.408-.142.059-.283.124-.418.189-1.2.541-2.4,1.075-3.592,1.622-.079.036-.157.074-.236.114-1.519.742-3.056,1.449-4.558,2.227-1.442.748-2.885,1.5-4.322,2.266-2.8,1.508-5.606,3.01-8.4,4.546-1.5.825-2.985,1.661-4.457,2.52-1.5.878-2.956,1.8-4.416,2.721-1.249.8-2.474,1.637-3.681,2.5q-1.9,1.352-3.774,2.733c-1.431,1.06-2.838,2.143-4.246,3.239-.577.447-1.124.93-1.684,1.4-.5.424-1.007.836-1.49,1.278-1.283,1.184-2.561,2.361-3.809,3.58s-2.444,2.449-3.657,3.692c-1.166,1.2-2.267,2.456-3.386,3.7s-2.132,2.567-3.18,3.857c-.965,1.177-1.825,2.438-2.714,3.674-.789,1.095-1.59,2.173-2.309,3.316-1.124,1.8-2.243,3.6-3.362,5.387-.671,1.078-1.242,2.22-1.843,3.339-.936,1.72-1.878,3.433-2.8,5.152-.624,1.16-1.16,2.367-1.731,3.551-1.39,2.879-2.791,5.747-4.122,8.656-.723,1.579-1.439,3.161-2.161,4.741a46.629,46.629,0,0,0-3.5,4.466c-1.148,1.672-2.331,3.321-3.438,5.022-1.143,1.761-2.326,3.5-3.422,5.282-.712,1.167-1.419,2.332-2.137,3.492-.424.7-.889,1.384-1.278,2.1-1.1,1.919-2.143,3.874-3.221,5.805-.271.484-.518.978-.759,1.478-.607,1.225-1.214,2.444-1.82,3.669-.347.7-.707,1.4-1.03,2.12-.631,1.4-1.255,2.8-1.885,4.21-.96,2.132-1.837,4.293-2.738,6.454s-1.743,4.375-2.608,6.565c-.848,2.155-1.6,4.346-2.391,6.519l.035-.088c-.028.079-.057.153-.085.231l0,0,0,0,0,.008v0l-.006.009,0,.018,0-.007,0,.011h0a.18.18,0,0,1-.014.036c-.328,1.007-.664,2.015-.993,3.025-.859-.134-1.724-.235-2.593-.285-1.042-.065-2.09-.129-3.133-.112-.582.012-1.165.018-1.748.029-.369.009-.738.014-1.106.021,2.275-.581,4.538-1.206,6.782-1.9l-.165.052a6.116,6.116,0,0,0,1.9-.665,1.806,1.806,0,0,0,.919-1.507,1.38,1.38,0,0,0-1.137-1.543,7.681,7.681,0,0,0-1.042-.159c-.294-.017-.589-.023-.883-.017-.271,0-.542,0-.813.011-.5.006-.993.018-1.491.039-.21.009-.42.016-.635.026h.071c-.106.006-.218.012-.324.012h-.035a.858.858,0,0,1-.124.006h.041c-.088.006-.176.006-.264.012h.035c-.065,0-.124,0-.189,0h.024c-1.725.071-3.456.254-5.17.4-.978.082-1.961.2-2.927.359s-1.928.328-2.878.559a1.378,1.378,0,0,0-.372-.129,15.642,15.642,0,0,0-3.586-.159,51.257,51.257,0,0,0-5.182.577,58.885,58.885,0,0,0-9.681,2.426c-3.68,1.249-7.278,2.727-10.817,4.323q-4.557,2.049-8.944,4.451a128.223,128.223,0,0,0-18.089,11.859,95.641,95.641,0,0,0-7.932,6.937,89.537,89.537,0,0,0-6.442,7.078,95.618,95.618,0,0,0-5.776,7.949c-1.643,2.509-3.192,5.076-4.593,7.72a70.521,70.521,0,0,0-6.625,16.635A42.274,42.274,0,0,0,.025,244.5,54.628,54.628,0,0,0,.4,252.927c.082.637.175,1.274.271,1.911a59.929,59.929,0,0,0-.347,10,52.149,52.149,0,0,0,1.342,9.3,83.689,83.689,0,0,0,2.35,8.168,100.468,100.468,0,0,0,7.837,17.388,66.485,66.485,0,0,0,10.8,14.362,66,66,0,0,0,7.1,6.1c2.326,1.7,4.711,3.338,7.167,4.846q2.3,1.422,4.657,2.749c.96.543,1.908,1.1,2.886,1.6.771.389,1.542.783,2.308,1.172,2.544,1.3,5.076,2.6,7.619,3.881.554.282,1.131.512,1.7.765,1.361.595,2.715,1.19,4.075,1.784,1.484.648,2.962,1.3,4.446,1.955.536.235,1.06.5,1.6.689-.006-.006-.012-.006-.024-.011.312.117.63.229.942.341-.059-.018-.118-.041-.176-.059.3.106.6.218.9.33-.053-.024-.111-.041-.17-.065.353.13.706.259,1.06.383-.059-.018-.118-.042-.171-.059l.83.3c-.059-.018-.112-.041-.171-.059l1.991.724c-.053-.017-.112-.04-.171-.058.318.112.63.223.942.341-.059-.024-.112-.041-.171-.064.577.212,1.148.423,1.726.629-.059-.023-.118-.041-.171-.064.312.118.618.229.93.341-.053-.018-.112-.041-.171-.058.654.235,1.3.471,1.955.706-.059-.018-.117-.041-.176-.059l.971.353c-.011-.006-.029-.012-.041-.017.025.008.047.016.069.025s.064.026.095.036l.007,0h0l.008,0h0l.643.237-.027-.013c.194.071.395.148.595.218-.059-.024-.112-.041-.171-.064.212.076.424.158.636.235-.059-.023-.118-.041-.171-.065.112.042.23.089.348.13-.059-.024-.112-.041-.171-.065.813.3,1.655.536,2.479.8l5.223,1.66c.983.313,1.967.654,2.962.942,1.36.395,2.726.8,4.092,1.19,1.048.306,2.091.63,3.151.9,1.448.377,2.9.748,4.345,1.125,1.237.318,2.5.577,3.739.859,1.184.271,2.367.507,3.551.754.972.2,1.937.424,2.915.606,1.513.283,3.044.477,4.575.637.465.047.928.081,1.392.125q1.435.466,2.883.9a51.619,51.619,0,0,0,5.865,1.467c1.154.2,2.308.358,3.468.506.948.117,1.9.206,2.85.33q3.379.45,6.758.951l-.021,0,.1.014-.03,0,.085.012-.024,0q4.856.731,9.722,1.364c1.7.218,3.4.354,5.1.525,1.726.176,3.469.253,5.2.376,1.59.112,3.186.189,4.775.265,1.437.071,2.88.136,4.317.159,1.531.03,3.062.065,4.593.065h.324q.741-.009,1.483,0c1.09,0,2.185,0,3.28-.023,2.179-.06,4.364-.089,6.542-.189,2.238-.106,4.475-.2,6.707-.324,4.381-.235,8.762-.471,13.143-.766,4.34-.288,8.686-.594,13.014-1.059,4.451-.483,8.891-.99,13.319-1.649,2.226-.335,4.464-.636,6.684-1.013s4.428-.718,6.63-1.124c2.291-.419,4.587-.807,6.866-1.267q3.674-.732,7.337-1.471c2.22-.448,4.422-.972,6.636-1.455,1.92-.418,3.816-.913,5.724-1.408,1.354-.352,2.708-.694,4.057-1.048.612-.152,1.207-.371,1.8-.565,1.578-.5,3.156-1.013,4.734-1.513.654-.212,1.325-.395,1.973-.642l-.042.018a.73.73,0,0,0,.106-.042c.029-.011.058-.023.092-.034,2.794-1.048,5.582-2.121,8.364-3.2-.012.006-.018.006-.023.012.53-.212,1.054-.448,1.578-.672l3.9-1.661c1.431-.612,2.856-1.212,4.275-1.854q3.532-1.6,7.06-3.209c1.6-.724,3.18-1.5,4.764-2.244s3.179-1.489,4.758-2.261q3.478-1.705,6.954-3.4c1.419-.7,2.82-1.419,4.222-2.131q1.881-.963,3.751-1.914c.536-.271,1.083-.53,1.607-.818-.029.012-.059.029-.088.041,2.8-1.49,5.586-3.01,8.373-4.53l-.03.015c1.121-.608,2.207-1.285,3.31-1.933,1.578-.919,3.15-1.849,4.729-2.768,1.142-.665,2.249-1.4,3.368-2.1q2.243-1.4,4.481-2.815c1.23-.776,2.432-1.6,3.645-2.4,1.307-.859,2.626-1.69,3.91-2.579s2.567-1.749,3.845-2.62c1.125-.768,2.268-1.512,3.37-2.309h0l.3-.211c-.059.04-.118.082-.176.123q3.177-2.277,6.354-4.571v0c.442-.33.866-.672,1.3-1.019,1.112-.871,2.219-1.749,3.332-2.626.5-.389.984-.777,1.478-1.166.154-.124.324-.242.472-.377.63-.554,1.26-1.1,1.89-1.643,1.484-1.3,3.015-2.55,4.44-3.91,1.6-1.53,3.21-3.053,4.81-4.589a.137.137,0,0,1-.023.019c.966-.906,1.872-1.89,2.8-2.843.742-.754,1.5-1.5,2.22-2.279a111.514,111.514,0,0,0,8.944-10.417,50.932,50.932,0,0,0,4.7-7.755,41.219,41.219,0,0,0,2.762-7.219,43.222,43.222,0,0,0,1.413-8.756A54.157,54.157,0,0,0,420.118,230.06ZM408.07,240.916c-.683,1.26-1.354,2.514-2.031,3.768l-1.343,2.509c-.153.277-.3.565-.459.836-1.573,2.544-3.127,5.1-4.717,7.637l.141-.194c-.977,1.36-1.949,2.727-2.92,4.087l-1.938,2.714c-.265.371-.512.76-.8,1.113-2.05,2.467-4.111,4.923-6.16,7.4-1.374,1.439-2.761,2.868-4.145,4.3,1.123-1.426,2.221-2.871,3.274-4.354.695-.977,1.354-1.972,2.008-2.973l2.667-4.063c.306-.477.619-.948.907-1.431q1.157-1.944,2.326-3.886c.471-.8.989-1.573,1.425-2.385q1.713-3.2,3.45-6.389c.377-.695.7-1.425,1.037-2.144q.945-1.987,1.878-3.974c.954-2.02,1.767-4.1,2.544-6.195a68.5,68.5,0,0,0,2.4-7.743,49.933,49.933,0,0,0,1.366-8.273,39.512,39.512,0,0,0-.242-8.421,38.445,38.445,0,0,0-1.054-4.958c-.029-.471-.073-.939-.118-1.407.512.645,1.028,1.287,1.514,1.958a51.976,51.976,0,0,1,2.921,4.67,28.388,28.388,0,0,1,1.213,2.632c.8,2.23,1.416,4.526,2.026,6.819-.468,1.93-1.071,3.807-1.72,5.686-.436,1.113-.872,2.214-1.308,3.327q-.441,1.113-.871,2.226c-.077.188-.141.371-.23.553-1.012,2.191-2.037,4.375-3.05,6.566Zm-70.485,72,0,.006c-.248.153-.5.306-.748.459h0c-3.029,1.865-6.07,3.717-9.082,5.611.035-.023.076-.052.118-.076-1.084.654-2.214,1.26-3.333,1.861-1.3.689-2.6,1.348-3.934,1.967-2.438,1.042-4.97,1.813-7.466,2.673-1.62.465-3.233.954-4.876,1.319-1.737.388-3.48.736-5.229,1.066q-2.682.435-5.36.851c2.639-1.347,5.283-2.682,7.91-4.044q4.637-1.785,9.28-3.586c1.578-.613,3.162-1.225,4.74-1.844q2.324-.9,4.646-1.8c.689-.27,1.4-.523,2.079-.806,2.273-.948,4.546-1.884,6.819-2.826a108,108,0,0,0,9.906-4.654l-.526.369Q340.053,311.188,337.585,312.914ZM271.535,336.6c.772-.229,1.543-.465,2.314-.694.035-.012.077-.024.112-.035-.373.121-.746.244-1.124.361l-.018,0a.715.715,0,0,1-.118.042l.1-.036C272.377,336.36,271.953,336.478,271.535,336.6ZM71.113,334.724c-1.481-.788-2.945-1.6-4.36-2.515-1.142-.736-2.261-1.5-3.368-2.273q-.972-.769-1.961-1.52c1.131.619,2.255,1.237,3.386,1.844,1.078.582,2.167,1.136,3.25,1.7.642.336,1.278.677,1.943.972,1.991.878,3.958,1.8,5.96,2.638q3.744,1.572,7.49,3.127c2.008.836,4.057,1.6,6.083,2.4.73.286,1.458.588,2.194.865,1.331.671,2.664,1.34,3.988,2.019.388.2.77.4,1.156.6-2.39-.574-4.737-1.274-7.068-2.062-1.8-.677-3.6-1.366-5.417-2.019.071.023.135.046.2.07-1.013-.406-2.019-.812-3.032-1.219-.807-.324-1.631-.63-2.426-.977q-1.819-.795-3.639-1.578c-.5-.218-1-.436-1.49-.648C73.018,335.727,72.068,335.217,71.113,334.724ZM52.48,319.448c-1.231-.877-2.444-1.778-3.628-2.72-.795-.63-1.613-1.243-2.367-1.919-.583-.519-1.166-1.043-1.749-1.561-1.425-1.284-2.867-2.556-4.286-3.845-1.891-1.89-3.8-3.769-5.695-5.653-.848-.842-1.631-1.743-2.443-2.614-.966-1.037-1.932-2.067-2.9-3.1-.79-.847-1.531-1.731-2.291-2.6-.913-1.042-1.831-2.067-2.738-3.109-.83-.954-1.625-1.943-2.438-2.915-.789-.936-1.578-1.884-2.355-2.826-.147-.189-.3-.383-.448-.571-.023-.047-.053-.088-.076-.135-.13-.23-.277-.46-.389-.695l-.043-.087c-.1-.325-.193-.649-.293-.976-.194-.647-.394-1.3-.589-1.948-.052-.177-.117-.354-.158-.537-.48-1.968-.948-3.943-1.421-5.907-.523-2.588-.959-5.182-1.259-7.807-.006-.052-.012-.112-.017-.17.165.648.329,1.289.541,1.919.248.748.495,1.49.742,2.238.136.395.248.8.407,1.183q.671,1.635,1.342,3.268c.165.4.371.789.56,1.179.318.665.641,1.33.965,1.99.413.854.889,1.678,1.343,2.508,1.042,1.9,2.167,3.739,3.362,5.547.589.889,1.178,1.773,1.808,2.638.577.8,1.136,1.613,1.76,2.379.525.648,1.054,1.3,1.584,1.949.2.242.389.483.6.713.789.871,1.584,1.736,2.373,2.6.824.919,1.725,1.778,2.591,2.662.713.736,1.449,1.443,2.179,2.167q4.459,4.407,9.274,8.432c1.708,1.425,3.4,2.874,5.123,4.275.972.783,1.937,1.566,2.909,2.349.824.666,1.678,1.3,2.52,1.949,3.48,2.686,7.1,5.177,10.688,7.7,1.361.961,2.743,1.894,4.124,2.827-.33-.148-.661-.3-.992-.44-.365-.16-.712-.366-1.066-.548q-1.677-.865-3.356-1.725c.065.029.124.065.189.094-2.109-1.113-4.175-2.285-6.278-3.4-2.679-1.549-5.335-3.115-7.878-4.887C52.368,319.366,52.427,319.407,52.48,319.448ZM5.013,261.9a63.606,63.606,0,0,1-1.466-6.3c-.083-.494-.157-.989-.228-1.484.243-1.913.554-3.816.952-5.71.017-.078.038-.155.056-.233a53.071,53.071,0,0,0,.445,6.609A67.191,67.191,0,0,0,6.5,263.355c.424,1.537.889,3.044,1.378,4.558q.2.615.4,1.227c0,.112,0,.225,0,.337,0,.191.007.383.01.575-.248-.488-.512-.967-.746-1.462A58.118,58.118,0,0,1,5,261.859Zm48.423-77.437q3.117-1.905,6.4-3.486c-.354.23-.706.463-1.061.685-.824.524-1.66,1.025-2.455,1.59l-.532.38q-1.5.606-2.986,1.246C53.014,184.742,53.221,184.6,53.436,184.464Zm343.917,5.576a37.9,37.9,0,0,1,2.4,3.337c.064.1.123.206.188.306a32.891,32.891,0,0,0-2.273-2.449,42.5,42.5,0,0,0-5.741-4.729,61.7,61.7,0,0,0-7.837-4.528c-1.42-.689-2.851-1.342-4.311-1.943-.824-.335-1.649-.695-2.491-.984-1.283-.441-2.561-.877-3.845-1.324-.659-.224-1.313-.448-1.972-.677-.283-.094-.566-.212-.854-.3q-3.427-.954-6.848-1.926c-.754-.211-1.532-.365-2.3-.541-1.449-.33-2.9-.666-4.351-1q-1.519-.354-3.051-.659h.018c1.089.129,2.191.241,3.28.359.859.094,1.737.141,2.591.282,1.937.318,3.874.63,5.818.966.889.206,1.79.418,2.679.63.7.165,1.407.33,2.1.5.247.058.512.1.753.182,1.773.566,3.557,1.113,5.335,1.684,1.2.466,2.4.943,3.592,1.42a61.6,61.6,0,0,1,5.859,2.7,57.84,57.84,0,0,1,5.224,3.18,39.586,39.586,0,0,1,3.662,2.98C395.809,188.307,396.6,189.154,397.353,190.04Zm7.743,37.266a77.463,77.463,0,0,1-2.666,8.943c-.422,1.122-.848,2.235-1.308,3.341-.3.7-.571,1.413-.9,2.1-.271.577-.542,1.154-.813,1.725-.712,1.507-1.431,3.021-2.143,4.528-1.06,1.979-2.138,3.951-3.2,5.924-.847,1.572-1.813,3.08-2.732,4.61-.536.9-1.072,1.8-1.607,2.692-.365.606-.778,1.183-1.16,1.772-1.366,2.079-2.7,4.187-4.146,6.212.03-.041.059-.076.089-.118-1.3,1.814-2.627,3.61-4.046,5.33-1.472,1.784-3,3.509-4.581,5.2l.023-.023c-2.243,2.367-4.651,4.581-6.977,6.859-.265.254-.554.484-.831.725-.718.63-1.442,1.26-2.161,1.89-1.071.936-2.137,1.884-3.215,2.82-1.266.978-2.514,1.967-3.768,2.957-.819.641-1.643,1.283-2.462,1.931-.265.206-.524.43-.8.624-1.372.966-2.756,1.926-4.134,2.891-.8.56-1.6,1.113-2.391,1.673-.754.524-1.537,1.007-2.32,1.5.059-.036.112-.065.171-.1-1.89,1.16-3.8,2.291-5.771,3.315-2.094,1.1-4.219,2.113-6.366,3.093-1.741.779-3.519,1.481-5.281,2.213-1.313.541-2.62,1.107-3.939,1.637,1.754-1.024,3.5-2.073,5.228-3.145,1.708-1.06,3.363-2.2,5.035-3.315,1.7-1.13,3.409-2.255,5.129-3.356,1.761-1.078,3.539-2.131,5.305-3.191,1.785-1.067,3.587-2.138,5.306-3.316,1.654-1.136,3.3-2.279,4.911-3.48,1.7-1.272,3.392-2.562,5.052-3.886,1.678-1.349,3.374-2.679,5.023-4.063.9-.748,1.819-1.466,2.673-2.25,1-.912,2-1.819,2.992-2.732a57.75,57.75,0,0,0,4.469-4.587c1.03-1.166,2.037-2.355,3-3.574.695-.884,1.407-1.761,2.049-2.686q2.1-3.047,4.216-6.094c.5-.718.925-1.489,1.384-2.231q1.158-1.874,2.314-3.757c1.137-1.838,2.132-3.763,3.18-5.659.436-.789.907-1.567,1.307-2.373q.672-1.352,1.343-2.7c.918-1.849,1.89-3.675,2.726-5.565.636-1.448,1.278-2.9,1.914-4.351l.8-1.8c.112-.248.236-.495.33-.748.877-2.32,1.772-4.634,2.655-6.948.259-.683.489-1.372.719-2.061.453-1.372.907-2.744,1.277-4.14,0,.094-.011.189-.023.283a52.342,52.342,0,0,1-.913,5.653C405.067,227.436,405.079,227.371,405.1,227.306ZM295.784,325.131c-.63.241-1.255.5-1.885.718-2.443.877-4.875,1.773-7.313,2.65-3.25,1.17-6.524,2.255-9.8,3.34l-.2.035.035,0c-.163.028-.33.057-.494.082l.028-.006-.1.017-.044.007.019,0c-3.392.58-6.772,1.319-10.129,2.076-8.768,1.984-17.371,4.581-26.015,7.018-1.436.406-2.882.774-4.326,1.148-1.126.217-2.251.438-3.382.639a.19.19,0,0,1,.041,0c-.028,0-.055.006-.083.011h0l-.1.018h.018l-.318.053a.356.356,0,0,0-.106.017l-.642.107.142-.018-.742.124c.017,0,.041-.006.058-.006-.65.108-1.3.222-1.95.336h.013c-.659.106-1.325.224-1.99.336-.294.029-.595.106-.889.153l.141-.018c-.318.053-.63.106-.948.165l.189-.035c-.467.074-.933.161-1.4.242h.015c-.259.041-.524.088-.783.136l.188-.036c-.324.059-.648.112-.966.165.018,0,.042-.006.059-.006l-.442.071h.006a.033.033,0,0,0-.023.006h-.012c-2.773.471-5.553.9-8.326,1.36-2.079.342-4.163.624-6.248.907-2.349.312-4.693.695-7.054.883-2.821.224-5.647.447-8.462.683-1.86.053-3.727.082-5.588.124-1.384.035-2.761.082-4.139.077-3.722-.024-7.443-.048-11.165,0l-3.863.052c-.618.012-1.242.006-1.86.03-1.967.088-3.934.188-5.9.277-3.386.158-6.765.341-10.151.518-1.207.029-2.415.047-3.622.071-.859.011-1.725.029-2.585.046-.388.006-.789.042-1.177.024-2.4-.124-4.817-.206-7.225-.295-2.668-.258-5.341-.459-8-.788l-.283-.036c-.865-.212-1.731-.424-2.6-.63-1.372-.33-2.75-.642-4.122-1l-4.788-1.254c-1.248-.324-2.508-.613-3.744-.983-1.679-.5-3.357-1-5.029-1.49q-1.511-.442-3.009-.9c-.324-.094-.654-.176-.966-.282-2.444-.855-4.891-1.7-7.337-2.554-1.49-.751-2.981-1.5-4.463-2.271-1.043-.542-2.1-1.071-3.127-1.648-1.1-.607-2.226-1.2-3.309-1.838l0,0c-.219-.132-.444-.265-.663-.4.065.036.13.077.194.112-.524-.311-1.048-.623-1.566-.936-.182-.129-.389-.235-.583-.353-.318-.194-.636-.383-.954-.577.065.041.13.076.189.118-.106-.065-.218-.13-.324-.2q-3.287-2.1-6.525-4.282c-1.9-1.271-3.774-2.59-5.647-3.9-3.78-2.644-7.554-5.312-11.17-8.179-3.875-3.133-7.708-6.3-11.471-9.551-.9-.778-1.76-1.6-2.644-2.4s-1.725-1.614-2.567-2.444c-1.677-1.66-3.355-3.32-5.009-5.009l.022.027-.058-.063-.019-.019.006,0-.053-.058-.006-.006c-.7-.759-1.4-1.525-2.09-2.284-.513-.56-.984-1.155-1.467-1.744-.541-.653-1.083-1.3-1.584-1.984-.529-.724-1.06-1.442-1.589-2.161-.554-.831-1.107-1.655-1.655-2.485-.454-.671-.866-1.372-1.29-2.061-.883-1.431-1.7-2.9-2.508-4.363l-.8-1.626c-.277-.559-.589-1.112-.83-1.684-.471-1.118-.937-2.231-1.408-3.344-.182-.542-.371-1.084-.553-1.625-.2-.565-.424-1.131-.583-1.708q-.477-1.706-.948-3.421c-.112-.53-.224-1.066-.336-1.6-.123-.583-.294-1.177-.377-1.767q-.246-1.836-.5-3.68c-.047-.683-.094-1.371-.141-2.055-.048-.612-.118-1.224-.13-1.837-.024-1.313-.047-2.632-.071-3.945.018-.672.042-1.337.065-2.008a1.572,1.572,0,0,1,.006-.171c.265-1.307.565-2.6.913-3.892q.564-2.1,1.124-4.193c.3-.894.613-1.79.913-2.685.23-.671.459-1.342.689-2.008.077-.241.147-.489.241-.718.265-.659.536-1.319.807-1.978.23-.425.454-.854.683-1.279,1.59-3,3.31-5.917,5.029-8.85,1.077-1.766,2.132-3.55,3.239-5.3.606-.972,1.2-1.961,1.825-2.915.577-.877,1.16-1.749,1.737-2.626.459-.683.907-1.378,1.384-2.056.5-.571,1.019-1.13,1.525-1.7.642-.724,1.29-1.431,1.961-2.12.907-.93,1.813-1.855,2.72-2.785,1.561-1.454,3.092-2.95,4.729-4.317l1.978-1.66c.212-.176.418-.353.642-.518.989-.73,1.979-1.449,2.974-2.179.689-.429,1.372-.871,2.061-1.3.482-.307.959-.648,1.46-.925.618-.341,1.237-.677,1.855-1.018.989-.465,1.984-.936,2.985-1.4.672-.312,1.331-.648,2.014-.942,1.036-.448,2.073-.907,3.109-1.354.689-.3,1.372-.63,2.073-.9,1.755-.671,3.5-1.36,5.252-2.05.26-.094.519-.182.778-.27q.723-.2,1.466-.389c-.016,0-.029.005-.041.007l.059-.013a.366.366,0,0,0,.05-.012h0l.011,0c.012,0,.024-.007.036-.009l-.009,0c1.406-.32,2.819-.617,4.248-.844,1.455-.224,2.921-.412,4.381-.583,2.12-.183,4.234-.4,6.36-.554q3.762-.256,7.525-.483c2.067-.129,4.14-.247,6.207-.365l.355-.02c-.082.328-.165.657-.249.984-1.172,4.5-2.167,9.044-3.15,13.584,0-.012.005-.029.005-.047-.264,1.194-.514,2.4-.741,3.6-.221.69-.457,1.382-.611,2.084-.277,1.26-.565,2.52-.848,3.78-.088.4-.129.807-.194,1.213-.118.79-.236,1.584-.359,2.374-.138.906-.241,1.819-.327,2.734a2.545,2.545,0,0,0-1.131,2.8,9.291,9.291,0,0,0,.93,2.361,40.724,40.724,0,0,0,1.134,9.4,29.7,29.7,0,0,0,3.686,8.709,37.955,37.955,0,0,0,6.154,7.29,46.85,46.85,0,0,0,16.458,10.175c6.5,2.238,13.349,3.044,20.138,3.88,1.208.148,2.432.218,3.645.318.972.083,1.943.207,2.921.224,1.543.029,3.085.059,4.628.1.661.016,1.312,0,1.964-.034.061.009.122.021.183.03q2.5.344,5,.659l.291.072.19.042-.169-.037.021,0c.052.012.1.025.156.035l.348.077c.171.041.341.077.512.112.377.088.754.165,1.131.254l-.242-.054c.538.12,1.076.241,1.619.36l-.029-.006.083.017.128.029c.1.02.2.043.3.065l.389.089c1.1.241,2.243.347,3.362.512.848.124,1.69.253,2.544.324-.035-.006-.065-.006-.094-.012,1.4.124,2.791.23,4.181.348-.03-.006-.059-.006-.089-.012.813.076,1.637.059,2.45.076.871.024,1.743.065,2.614.065s1.761-.029,2.638-.041c.083,0,.165,0,.242-.006a.56.56,0,0,0,.1.006c.341.018.689.047,1.036.047h.142c1.366-.041,2.732-.059,4.1-.088.406-.012.824,0,1.225-.041.559-.048,1.113-.106,1.672-.159s1.142-.112,1.72-.171c1.76-.1,3.521-.224,5.281-.336,1.266-.082,2.532-.159,3.792-.265,1.508-.124,3.015-.218,4.517-.377,2.279-.235,4.552-.471,6.825-.747,1.207-.148,2.42-.277,3.621-.454l4.2-.618c1.065-.153,2.119-.377,3.173-.583,1.013-.195,2.02-.377,3.015-.636.836-.224,1.678-.442,2.52-.659.477-.119.96-.225,1.419-.377,1.272-.424,2.562-.813,3.84-1.219.983-.313,1.949-.666,2.921-1.013.953-.342,1.919-.671,2.867-1.048l.25-.1,1.446-.246q-.087.014-.177.024c.547-.082,1.083-.211,1.619-.329,1.2-.253,2.4-.519,3.592-.784,1.125-.241,2.243-.482,3.368-.729,1.054-.23,2.1-.5,3.145-.784a133.706,133.706,0,0,0,28.576-11.07,91.967,91.967,0,0,0,13.885-8.98q2.813-2.23,5.445-4.678a2.89,2.89,0,0,0,1.338-.292,8.169,8.169,0,0,0,1.59-1.148q1.5-1.308,2.939-2.685.918-.893,1.849-1.773c.395-.378.8-.743,1.18-1.134.054-.054.107-.108.156-.161-.022.026-.047.052-.072.078.089-.09.175-.179.262-.269l-.048.044.084-.082.051-.054a.285.285,0,0,1-.023.026c.09-.089.178-.181.271-.273a.426.426,0,0,0-.038.035l2.711-2.779-.008.008.157-.162-.02.019c.147-.147.3-.3.448-.454-.047.048-.089.088-.135.136l.093-.094.073-.076.033-.035c.3-.317.588-.653.878-.985.695-.783,1.39-1.56,2.079-2.344,1.607-1.813,3.156-3.656,4.616-5.593a45.126,45.126,0,0,0,6.183-10.582,28.535,28.535,0,0,0,1.99-11.518c-.059-1.477-.194-2.95-.335-4.428-.041-.436-.082-.872-.128-1.309,3.133.447,6.273.858,9.414,1.257,1.6.206,3.2.406,4.805.618,1.478.2,2.95.436,4.422.642-.07-.006-.147-.018-.223-.029,1.336.235,2.679.459,4.016.688.971.166,1.925.389,2.885.6,1.06.223,2.114.435,3.162.718,1.183.318,2.361.642,3.551.954,1.248.412,2.5.818,3.751,1.224.942.307,1.86.666,2.785,1.008,1.03.382,2.061.753,3.074,1.177q1.74.734,3.491,1.466c1.325.619,2.65,1.248,3.975,1.873,1,.471,1.973,1,2.95,1.507.948.5,1.9.983,2.827,1.514l3.55,2.031c1.125.712,2.25,1.431,3.375,2.143a63.989,63.989,0,0,1,5.246,3.787c.243.2.472.411.711.612.226.331.459.654.679.991-.012-.017-.024-.04-.035-.058.017.023.029.053.046.076l.017.026-.011-.014a46.2,46.2,0,0,1,2.415,4.487c.424.954.807,1.908,1.148,2.886.036.412.06.825.082,1.241a42.91,42.91,0,0,1-.123,4.417,49.493,49.493,0,0,1-.854,5.159c-.342,1.489-.718,2.973-1.178,4.434-.382,1.228-.788,2.446-1.2,3.658.009-.022.018-.045.028-.067-.813,2.15-1.643,4.293-2.456,6.442-.677,1.755-1.484,3.462-2.243,5.188l-1.4,3.18c-.236.524-.512,1.03-.765,1.549q-1.5,3.012-3,6.035c-1.06,1.89-2.1,3.792-3.15,5.688-.265.483-.524.978-.813,1.443-.6.983-1.207,1.966-1.813,2.944-.919,1.5-1.814,3.015-2.815,4.458-1.178,1.7-2.344,3.4-3.515,5.087a90.505,90.505,0,0,1-5.824,7.084c-1.042,1.113-2.1,2.208-3.227,3.233-.818.753-1.643,1.5-2.461,2.255-1.143,1.048-2.355,2.02-3.539,3.021.053-.047.106-.089.159-.135-2.862,2.32-5.712,4.645-8.656,6.854-2.8,2.1-5.653,4.1-8.615,5.965v0c-3.337,2.043-6.721,4.009-10,6.139-3.163,2.055-6.254,4.211-9.457,6.2-3.634,2.173-7.314,4.275-11.006,6.353-3.627,2.043-7.307,3.975-10.988,5.924q-1.227.645-2.455,1.284c-.883.335-1.767.677-2.65,1.013Q298.116,324.231,295.784,325.131ZM162.925,355.2c-.729.006-1.469.046-2.2.011-.7-.029-1.4-.065-2.108-.1q-1.257-.117-2.514-.27,6.684,0,13.357-.192c-.113.013-.225.031-.339.044-1.077.118-2.149.236-3.232.33C164.906,355.1,163.915,355.152,162.925,355.2Zm1.756-3.4.48-.023c.925-.012,1.846-.027,2.769-.042C166.847,351.755,165.764,351.772,164.681,351.793ZM11.255,263.848c.023-.607.017-1.219.07-1.82.118-1.218.23-2.432.348-3.651.088-.547.171-1.1.265-1.648.006-.065.017-.13.029-.195a69.316,69.316,0,0,0,.651,14.8c-.306-.817-.609-1.634-.88-2.466q-.288-.882-.573-1.765c0-.541.007-1.082.013-1.623v.188C11.2,265.061,11.225,264.454,11.255,263.848Zm3.079-27.217c-.064.265-.129.525-.17.784-.177,1.066-.348,2.131-.524,3.2-.112.283-.23.571-.342.854-.336.842-.671,1.684-.977,2.538-.354,1.018-.754,2.025-1.055,3.062-.318,1.113-.635,2.22-.959,3.326-.153.542-.254,1.1-.377,1.644-.153.682-.306,1.365-.454,2.049-.235,1.03-.353,2.1-.518,3.138-.062.389-.105.778-.15,1.166-.13-.619-.254-1.239-.368-1.864a61.02,61.02,0,0,1-.713-6.625v.012a67.671,67.671,0,0,1,.218-8.314.129.129,0,0,1,0,.025,61.474,61.474,0,0,1,.988-6.461c-.006.029-.018.058-.024.088.012-.059.024-.112.035-.165a.274.274,0,0,0,.01-.031l0,.008c.219-.97.475-1.927.742-2.881.51-1.11,1.037-2.212,1.6-3.3a91.557,91.557,0,0,1,6.1-9.892c-.006.006-.012.017-.018.023l.035-.053c.024-.03.041-.059.065-.088l-.01.019c1.04-1.445,2.115-2.879,3.237-4.265.818-1.024,1.625-2.085,2.508-3.056.636-.7,1.266-1.4,1.9-2.1,1.69-1.867,3.4-3.722,5.076-5.606q3.328-3.245,6.65-6.489,1.49-1.013,2.978-2.027,1.943-1.174,3.88-2.356c.672-.4,1.366-.773,2.065-1.137l-.345.323c-.607.565-1.16,1.183-1.732,1.784-.759.8-1.56,1.578-2.284,2.42l-1.107,1.284c-.23.165-.459.335-.683.512q-1.714,1.324-3.427,2.644c-.754.577-1.449,1.224-2.161,1.855-.566.5-1.137,1-1.7,1.5-.259.224-.53.442-.766.683-.889.907-1.778,1.808-2.667,2.715a44.326,44.326,0,0,0-3.451,3.91,47.747,47.747,0,0,0-5.011,7.819,56.754,56.754,0,0,0-2.473,5.553q-.459,1.219-.913,2.438c-.153.4-.329.8-.453,1.213q-.529,1.688-1.048,3.386c-.118.365-.253.73-.342,1.107-.117.512-.235,1.025-.359,1.531C14.658,235.236,14.493,235.937,14.334,236.631Zm16.341-26.692c.035-.047.076-.094.112-.141-.283.353-.566.7-.848,1.054.017-.018.035-.042.053-.059-.2.236-.39.482-.582.724-.3.382-.583.768-.861,1.166-.512.719-1.025,1.437-1.537,2.161-.165.23-.336.46-.489.695-.706,1.119-1.413,2.232-2.119,3.35-.53.837-.99,1.72-1.478,2.585-.448.8-.925,1.584-1.325,2.409q-.742,1.519-1.478,3.032c.064-.165.123-.335.188-.506.395-1.084.824-2.149,1.284-3.215l-.035.089a56.453,56.453,0,0,1,3.073-5.972,52.572,52.572,0,0,1,3.376-4.741c.682-.83,1.371-1.678,2.118-2.448.412-.418.819-.837,1.225-1.248.3-.307.6-.613.9-.925-.071.1-.136.2-.206.294-.159.194-.324.389-.477.583.035-.047.076-.094.112-.141ZM138.4,116.57q1.128-1.794,2.289-3.571,1.351-2.085,2.7-4.172a1.209,1.209,0,0,0,.573-.886c.467-.724.939-1.447,1.4-2.173-1.386,2.455-2.758,4.918-4.154,7.369q-1.686,2.967-3.368,5.935a1.239,1.239,0,0,0-.568-.014Q137.839,117.813,138.4,116.57Zm56.622,113.086.093,0,.084-.007-.054,0c3.732-.2,7.476-.328,11.209-.565.876-.041,1.747-.153,2.618-.235q2.19-.2,4.38-.4l-2.679.563c-.753.162-1.511.3-2.265.478-2.252.347-4.5.645-6.756.959-1.753.246-3.5.515-5.255.761l-.321-.019h.05l-.668-.041h.052l-.216-.013h.052l-1.131-.071c.05,0,.1.005.145.008-.309-.018-.619-.039-.928-.061l.224.018c-.212-.018-.418-.03-.63-.042h.042l-.284-.019h.047l-1.083-.071.224.018-1.107-.071c.033,0,.068,0,.1,0-.185-.014-.37-.024-.556-.033h.051c-.319-.019-.638-.04-.958-.065l.224.018c-.224-.018-.453-.03-.677-.047l.224.017c-.23-.017-.454-.029-.677-.047l.217.018c-.376-.024-.747-.053-1.124-.077l.223.018c-.278-.022-.552-.039-.83-.055.053,0,.105,0,.159.008-1.107-.071-2.214-.141-3.321-.218l.224.017-1.107-.07h.05l-.214-.014h.058c-.464-.026-.927-.061-1.4-.089h.041c-.142-.006-.283-.018-.43-.024.036,0,.071,0,.106,0l-.173-.01.025,0L181,230.2c-.036,0-.073,0-.109,0h.076l-.143-.008h.015l-.033,0-.045,0h-.015l-.186-.013.057,0,.05,0-.024,0c.012,0,.024,0,.036,0l-.051,0c-2.595-.246-5.186-.52-7.775-.784,2.788.105,5.573.228,8.362.346.741.03,1.489.089,2.237.083,1.2-.006,2.4-.03,3.61-.048,1.808-.029,3.615-.046,5.423-.076.855-.011,1.721,0,2.576-.041h-.032Zm11.3-3.424c-.04,0-.08.006-.12.008h-.055c.054,0,.109-.006.168-.011l-.077.007Zm123.665-41.476a26.459,26.459,0,0,1-.607,3.192,31.719,31.719,0,0,1-1.129,3.405q-.282.689-.595,1.364.141-.633.258-1.274c.177-.954.383-1.908.518-2.868.165-1.131.318-2.255.483-3.386.13-.936.194-1.9.289-2.838.076-.795.147-1.578.182-2.379.036-.712.065-1.419.1-2.132.012-.311.047-.635.041-.948-.02-1.015-.037-2.027-.057-3.042a1.792,1.792,0,0,0,.177.325c.041.338.083.677.11,1.016.164,1.953.35,3.907.41,5.866A31.072,31.072,0,0,1,329.989,184.756Zm-26.1,31.767.353-.345.653-.576q-.217.289-.43.579c-.1.061-.2.122-.3.182.077-.047.153-.095.23-.141Zm-16.829,14.492c.185-.148.369-.3.555-.442,1.084-.842,2.173-1.684,3.251-2.537.412-.328.816-.666,1.218-1.006l.141-.062-.079.033.127-.057c-.061.025-.119.051-.178.077l0,0q1.666-.725,3.32-1.472-3.457,2.564-7.147,4.784l.11-.071C287.94,230.52,287.5,230.762,287.055,231.015Zm-183.979-2.566c-.25-.6-.476-1.206-.688-1.818.031.03.06.063.09.094.931.912,1.908,1.784,2.921,2.608.794.643,1.608,1.258,2.432,1.861-.13.045-.26.092-.393.144a2.282,2.282,0,0,0-1.478,2.07q-.8-1.093-1.508-2.252A27.948,27.948,0,0,1,103.076,228.449Zm6.186-47.911c.032,0,.06-.024.092-.031-.3,1.03-.591,2.061-.875,3.1q-.9,3.26-1.672,6.542a1.713,1.713,0,0,0-.116-.187c.727-3.138,1.469-6.278,2.288-9.4C109.073,180.553,109.167,180.55,109.262,180.538Zm99.649,54.594.164.006q-1.207.273-2.422.514-1.8.342-3.608.585-2.5-.029-5-.126l-.168-.011c-1.313-.089-2.625-.2-3.936-.317q1.358-.177,2.716-.356c1.141-.146,2.264-.369,3.392-.578l1.447.048C203.97,234.979,206.438,235.049,208.911,235.132Zm113.427-51.339c-.263,1.038-.56,2.063-.877,3.082-.026-.028-.048-.06-.075-.087a2.177,2.177,0,0,0-.323-.256,16.5,16.5,0,0,0,.193-1.684c.012-.239.018-.478.021-.716q.317-.813.634-1.624c.276-.706.477-1.448.706-2.179.376-1.178.707-2.374.994-3.579q-.077.589-.152,1.179A53.933,53.933,0,0,1,322.338,183.793ZM109.692,199.629c.08.268.168.532.269.793l.007.456.015,1.051c-.135-.4-.272-.8-.407-1.2,0-.061.005-.123.01-.185.028-.311.064-.62.095-.931Zm88.283,36.479h0Zm97.434-23.86q1.011-.789,2.011-1.588l-.06.046.361-.285-.024.019.095-.075h0c.305-.24.606-.485.91-.726-.208.314-.422.625-.629.938-.369.3-.737.608-1.108.905q-.2.161-.4.32-.843.443-1.69.873l.724-.574C295.538,212.148,295.474,212.2,295.409,212.248Zm-32.036,16.217.218-.04c-.075.016-.149.029-.224.043Zm-.008,0,.173-.032-.176.034Zm7.675-3.659q-1.362.932-2.724,1.865-.754.514-1.506,1.031c-1.141.26-2.283.521-3.429.755q.587-.309,1.17-.62c.766-.406,1.531-.8,2.279-1.237,1.254-.724,2.509-1.454,3.763-2.172.263-.152.524-.306.786-.459A1.893,1.893,0,0,0,271.04,224.81Zm-154.2-3.254c-.1-.09-.2-.173-.3-.264-.146-.138-.283-.285-.427-.426-.212-.571-.4-1.15-.593-1.73a1.178,1.178,0,0,0,.4-.214c.265.4.525.807.808,1.2.217.3.46.565.69.848A1.667,1.667,0,0,0,116.842,221.556Zm203.635-45.623-.021.074a.352.352,0,0,1-.012.077v-.013q-.369,1.561-.849,3.087c-.172.542-.341,1.083-.512,1.623q.27-1.028.542-2.056c.177-.653.3-1.331.453-1.99.156-.7.315-1.393.472-2.092.072-.1.146-.206.218-.311h.01C320.685,174.866,320.589,175.4,320.477,175.933ZM122.148,225.471l-.011-.006,0,0Zm-10.542-10.553c-.236-.525-.474-1.054-.713-1.578.029.064.059.124.088.188-.265-.677-.542-1.354-.777-2.049-.206-.713-.377-1.425-.512-2.143-.059-.416-.14-.837-.164-1.258.5,1.364,1,2.725,1.53,4.077l.022.057C111.238,213.117,111.408,214.02,111.606,214.918ZM317.453,170.86c-.052.086-.1.173-.156.259.055-.421.107-.841.162-1.262a1.026,1.026,0,0,0,.012-.135C317.474,170.1,317.461,170.481,317.453,170.86Zm-5.329,14.614v-.018c-.217.987-.455,1.967-.7,2.944a1.575,1.575,0,0,0-1.98-.219c.967-1.127,1.921-2.273,2.826-3.449C312.216,184.979,312.177,185.227,312.124,185.474ZM140.287,231.246c.147.04.294.078.441.117-.154-.033-.307-.07-.461-.1l-.026-.027Zm-38.655-25.493c.1-.659.3-1.319.436-1.967.122-.539.242-1.073.36-1.611.008.714.033,1.428.091,2.142.045.55.109,1.1.18,1.645.039,1,.078,1.994.117,2.988.053,1.232.128,2.451.248,3.677a2.414,2.414,0,0,0-1.283-.41c-.03-.5-.063-1.008-.092-1.509,0,.012.006.03.006.042-.053-1.29-.118-2.586-.112-3.875,0-.312.015-.623.022-.934Zm18,10.334a2.2,2.2,0,0,0-.532.016c-.1-.393-.207-.785-.309-1.179C119.071,215.314,119.349,215.7,119.635,216.087Zm205.172-27.863c.137-.271.262-.548.393-.823-.037.215-.077.43-.11.644-.076.489-.195.979-.3,1.468a5.823,5.823,0,0,0-.122-1.031C324.712,188.4,324.762,188.312,324.807,188.224Zm-11.094-12.137c-.285.358-.558.724-.848,1.078l-.185.21q.417-.937.833-1.875c.148-.33.281-.666.417-1Q313.823,175.294,313.713,176.087ZM243.382,225.64c-2.226.806-4.47,1.572-6.69,2.408.077-.023.159-.053.236-.076-1.023.333-2.04.687-3.056,1.047a2.026,2.026,0,0,0-2.2-.794c-3.3,1.09-6.606,2.132-9.916,3.192q-.624.2-1.249.4c-1.624-.015-3.244-.021-4.869-.037-.215-.005-.427-.005-.64-.005l.029-.006c2.944-.66,5.876-1.366,8.815-2.05,2.861-.665,5.735-1.3,8.6-1.949s5.723-1.331,8.585-1.99c1.16-.265,2.291-.571,3.439-.889l4.175-1.152Q246.015,224.689,243.382,225.64Zm-82.662,2.467c-1.672-.212-3.345-.418-5.017-.63q-4.469-.552-8.937-1.118-2.377-.8-4.76-1.591c.077.024.159.054.236.077-.659-.224-1.307-.494-1.955-.742l-1.381-.527c-.3-.28-.6-.556-.889-.841.059.059.118.112.171.171-.109-.109-.217-.217-.326-.323l.037.034q-.54-.528-1.081-1.06c1.122.458,2.252.9,3.393,1.3a107.928,107.928,0,0,0,12.471,3.627c3.112.709,6.246,1.314,9.407,1.781C161.632,228.215,161.175,228.166,160.72,228.107Zm-49.3-55.254a2.077,2.077,0,0,0-.233-.216c.13-.419.257-.839.39-1.258C111.525,171.87,111.475,172.362,111.422,172.853Zm-.41,2.092c-.115.365-.237.728-.349,1.1-.231.771-.456,1.543-.683,2.315a1.261,1.261,0,0,0-.337-.26c.014-.053.028-.107.043-.16q.411-1.458.816-2.921A1.143,1.143,0,0,0,111.012,174.945Zm-5.242,8.474c-.48,1.945-.959,3.888-1.405,5.838-.021.007-.043.01-.063.018.107-.5.2-1,.314-1.491.554-2.354,1.083-4.723,1.682-7.071l.155-.008Q106.105,182.061,105.77,183.419Zm211.147-43.473c.115.241.232.482.348.723a1.477,1.477,0,0,0-.695,1,17.11,17.11,0,0,0-.371,2.32c-.059.912-.071,1.825-.1,2.738-.012.459-.03.924-.047,1.389-.1-.206-.195-.406-.3-.606-.247-.471-.512-.925-.742-1.4l-.088-.229a.582.582,0,0,0-.024-.1c0-.048,0-.089,0-.136,0-.1,0-.2,0-.3.071-.63.254-1.225.336-1.849a18.918,18.918,0,0,0,.165-3.262c-.037-.973-.106-1.941-.178-2.91.425.564.847,1.129,1.243,1.715l.026.04C316.636,139.368,316.777,139.656,316.917,139.946Zm-40.7-37.074c-.721-.73-1.4-1.486-2.047-2.282-.581-.762-1.123-1.537-1.63-2.353-.469-.8-.9-1.609-1.308-2.445-.158-.367-.317-.73-.475-1.094-.142-.329-.312-.659-.43-1-.176-.5-.355-1-.533-1.493.161.164.31.339.475.5,1.2,1.165,2.4,2.326,3.639,3.45,1.29,1.172,2.6,2.3,3.922,3.427.559.477,1.136.919,1.707,1.378.53.424,1.054.872,1.6,1.278,1.384,1.042,2.762,2.078,4.175,3.08l-.01,0c.414.3.827.588,1.247.885l-.018-.018c.041.029.082.065.124.094.014.01.029.02.046.03l0-.006.012.009,0,0h0c.248.179.5.358.744.531h0c1.189.847,2.373,1.688,3.567,2.518,1.054.758,2.092,1.537,3.135,2.311,1.013.76,1.991,1.572,2.98,2.361,1.8,1.431,3.5,2.986,5.235,4.5.4.389.806.777,1.207,1.172.353.347.742.677,1.072,1.048.73.813,1.454,1.631,2.184,2.45.583.724,1.154,1.454,1.737,2.19.063.081.119.168.18.25-1.845-1.524-3.763-2.962-5.681-4.385-2.473-1.837-5.1-3.451-7.678-5.117-2.832-1.837-5.647-3.692-8.5-5.494-1.284-.806-2.579-1.608-3.839-2.456-.683-.465-1.378-.906-2.043-1.395s-1.343-1-2.014-1.484c.064.047.129.095.194.141C278.16,104.631,277.166,103.783,276.217,102.872ZM268.7,77.794a4.546,4.546,0,0,1,.627.2c.224.1.446.216.661.34a7.21,7.21,0,0,1,.726.5c.483.4.943.81,1.393,1.246.66.7,1.281,1.428,1.881,2.176.431.56.849,1.131,1.262,1.706-.184-.159-.366-.318-.551-.477-.683-.6-1.36-1.207-2.067-1.778-1.546-1.245-3.128-2.457-4.788-3.54l.014-.039.06-.137.052-.078.041-.042.09-.066.014-.007.142-.031c.074,0,.148,0,.222,0S268.63,77.787,268.7,77.794Zm-.1-.028h.013c.012,0,.023.009.034.011Zm-4.546,2.261c-.192-.245-.388-.486-.567-.739.2.089.387.19.58.286C264.065,79.724,264.062,79.876,264.059,80.027Zm22.609,20.888c-1.6-1.259-3.2-2.5-4.793-3.756-1.036-.813-2.043-1.649-3.05-2.491-.913-.765-1.825-1.537-2.744-2.3-.312-.265-.63-.519-.93-.8q-1.935-1.8-3.881-3.586c-.559-.582-1.124-1.159-1.678-1.73-.5-.507-1.013-1-1.478-1.526l-.077-.086c-.061-.5-.113-1-.165-1.5.044.022.09.039.133.061a18.153,18.153,0,0,1,1.557.947,57.628,57.628,0,0,1,4.8,3.987c1.267,1.231,2.574,2.42,3.81,3.68,1.46,1.5,2.921,3,4.364,4.517,1.513,1.589,3.032,3.156,4.569,4.722.326.332.665.648,1,.972C287.624,101.664,287.144,101.293,286.668,100.915Zm10.926-53.339q-.113-1.163-.185-2.328-.027-.661,0-1.324h.259l.3.035c.171.042.341.093.507.147.3.12.581.256.866.391a9.261,9.261,0,0,0-.354,1.846,17.819,17.819,0,0,0-.054,2,8.116,8.116,0,0,0-.693-.464A4.236,4.236,0,0,0,297.594,47.576Zm32.112,1.566c.012-.033.023-.067.036-.1a37.147,37.147,0,0,1,1.578-3.563l0,.006a17.887,17.887,0,0,1,1.064-1.773c.159-.205.33-.411.5-.6.259-.259.524-.507.806-.742.1-.071.195-.142.3-.206l-.078.042a7.888,7.888,0,0,1,.7-.384c.389-.165.778-.312,1.178-.441.266-.075.533-.138.8-.2-.222.554-.433,1.113-.629,1.678-.318.919-.589,1.855-.878,2.785-.506,1.643-.972,3.3-1.442,4.953-.218.759-.478,1.507-.719,2.261-.294.918-.583,1.825-.9,2.726a45.558,45.558,0,0,1-2.055,4.7,24.427,24.427,0,0,1-1.353,2.171c-.141.187-.29.359-.434.537a5.447,5.447,0,0,1-.583.067c-.154,0-.307-.021-.46-.037l-.266-.053c-.086-.025-.168-.057-.252-.083.792-3.319,1.395-6.679,2.053-10.03a36.82,36.82,0,0,1,1.071-3.774Zm70.527-32.258,0,0,.028.015.035.018c.381.208.749.433,1.121.651l.031.044a6.365,6.365,0,0,1,.323.625c.076.186.142.373.2.561.036.141.067.281.1.425.024.183.048.366.056.549q0,.186-.015.369c-.014.1-.031.193-.049.288-.041.145-.083.29-.135.431l-.013.027L401,20.2c-.5-.377-1.025-.713-1.549-1.06l-2.561-1.7c-.524-.341-1.078-.636-1.619-.942q-1.326-.751-2.644-1.513a50.713,50.713,0,0,0-4.558-2.25c-.805-.353-1.616-.689-2.429-1.02l.4.08c1.166.342,2.338.648,3.516.966,1.654.453,3.292.984,4.911,1.572A54.837,54.837,0,0,1,400.233,16.884Zm1.825,2.257-.014-.1.006.022C402.054,19.088,402.055,19.115,402.058,19.141Zm.011,1.253.026-.1v.019C402.087,20.343,402.076,20.368,402.069,20.394Zm1.514,8.273c-.517.116-1.036.215-1.555.321a14.87,14.87,0,0,0,2.054-2.045c.03.027.061.051.09.079.4.39.786.785,1.154,1.2C404.748,28.382,404.169,28.534,403.583,28.667ZM344.849,5.706l-2.594.185c-1.625.111-3.25.282-4.87.429l-.082.008c.666-.1,1.332-.189,2-.25l2.473-.248c.465-.041.936-.106,1.4-.129.372-.018.745-.04,1.118-.059ZM290.837,15.63c5.865-.783,11.7-1.784,17.56-2.615,1.207-.171,2.42-.341,3.627-.506.406-.059.813-.124,1.219-.165,2.055-.212,4.1-.436,6.159-.653,2.944-.318,5.906-.524,8.862-.772q5.211-.441,10.417-.924c3.268-.3,6.548-.583,9.827-.795,1.108-.024,2.221-.065,3.328-.1,1.042-.024,2.09-.1,3.132-.089l3.727.053c.954.012,1.914,0,2.862.042,1.464.065,2.927.122,4.389.187l.151.034c.1.017.2.041.307.065.029.006.053.012.082.017h-.023c1.271.319,2.537.648,3.8.978,1,.259,2.02.477,3.009.777,2.827.854,5.671,1.673,8.456,2.668a77.912,77.912,0,0,1,8.915,3.916c1.431.806,2.856,1.625,4.287,2.437.165.1.324.207.483.313.436.288.877.583,1.319.871.653.43,1.325.865,1.984,1.307q.743.546,1.48,1.1c-.156.182-.308.367-.47.542-.482.471-.986.914-1.509,1.341-.545.408-1.1.793-1.664,1.162-2.118,1.246-4.269,2.454-6.484,3.521-.734.041-1.467.09-2.2.129l.02,0c-1.348.053-2.7.124-4.045.188.071-.006.141-.006.218-.012-5.094.2-10.187.154-15.281.272-3.285.076-6.565.3-9.845.524-.982.064-1.968.137-2.953.208l-.075-.01c-.989-.124-1.978-.247-2.973-.294a16.469,16.469,0,0,0-4.688.4,10.158,10.158,0,0,0-2.314.895c-.3.161-.6.327-.892.5l-.037.01a13.358,13.358,0,0,0-2.332.919,11.5,11.5,0,0,0-2.19,1.4,13.19,13.19,0,0,0-1.829,1.907c-.071.011-.143.016-.215.028a20.628,20.628,0,0,0-5.122,1.372,9.323,9.323,0,0,0-3.516,2.885,14.461,14.461,0,0,0-1.395,2.291c-.43.818-.837,1.655-1.184,2.508a32.554,32.554,0,0,0-1.643,5.118c-.377,1.66-.677,3.344-1,5.023-.265,1.389-.553,2.784-.842,4.186-.039.172-.085.341-.125.513-.167-.117-.345-.219-.511-.34-.54-.434-1.055-.883-1.565-1.357a33.3,33.3,0,0,1-2.273-2.536c-1.661-2.119-3.109-4.389-4.607-6.619-.7-1.037-1.39-2.085-2.114-3.11a18.652,18.652,0,0,0-5.341-5.522,8.624,8.624,0,0,0-1.437-.642,6.967,6.967,0,0,0-1.589-.283,4.765,4.765,0,0,0-2.58.6,3.639,3.639,0,0,0-.352.226,9.065,9.065,0,0,0-3.215-1.142,3.948,3.948,0,0,0-1.814.146,3.273,3.273,0,0,0-.812.372,5.932,5.932,0,0,0-.507.441,3.048,3.048,0,0,0-.63.954,4.667,4.667,0,0,0-.218.877A5.534,5.534,0,0,0,294,44.636c.012.295.018.578.036.866.047.789.1,1.566.176,2.35.037.351.086.7.128,1.05-.017.045-.04.086-.057.131a3.562,3.562,0,0,0-.176.866,5.276,5.276,0,0,0,.094,1.4c.059.389.117.771.206,1.154.118.5.235,1,.359,1.5.177.724.347,1.448.536,2.167.226.867.469,1.735.7,2.6.355,1.653.794,3.29,1.281,4.9q.459,1.512.989,3c.226.634.448,1.272.7,1.9.2.595.391,1.193.6,1.786.5,1.438,1,2.868,1.549,4.288.583,1.507,1.136,3.038,1.766,4.527.683,1.62,1.331,3.257,2.049,4.865.734,1.632,1.48,3.265,2.226,4.892v-.005c.8,1.76,1.661,3.5,2.52,5.246q1.462,2.985,2.894,6c.009.02.017.041.027.061l.007.013v-.007q.682,1.53,1.349,3.07a44.266,44.266,0,0,1,1.089,4.34,22.78,22.78,0,0,1,.252,2.43c0,.18-.008.361-.013.542-.961-.083-1.921-.188-2.879-.283a26.173,26.173,0,0,1-2.7-.46,40.5,40.5,0,0,1-4.2-1.357,62.565,62.565,0,0,1-6.208-3.218l.058.034c-.753-.436-1.527-.837-2.254-1.305-1.129-.721-2.262-1.43-3.36-2.2a19.232,19.232,0,0,1-1.488-1.27,94.935,94.935,0,0,1-6.411-7.5l.141.177c-.365-.489-.724-.977-1.089-1.46-1.973-2.662-3.845-5.389-5.712-8.115a35.139,35.139,0,0,0-6.289-7.443,8.873,8.873,0,0,0-2.343-1.407,6.265,6.265,0,0,0-2.432-.459,3.793,3.793,0,0,0-3.009,1.572,4.962,4.962,0,0,0-.33.564l-.011-.006a5.35,5.35,0,0,0-1.813-.577,3.176,3.176,0,0,0-2.744,1.031,1.678,1.678,0,0,0-.342.759,2.277,2.277,0,0,0-.065.719,6.188,6.188,0,0,0,.518,1.731,11.6,11.6,0,0,0,1.308,1.926q.9,1.147,1.872,2.231.486.537.966,1.077c.08.615.16,1.229.252,1.845a37.749,37.749,0,0,0,2.638,9.062,27.846,27.846,0,0,0,5.4,8.485,33.72,33.72,0,0,0,4.281,3.816c.7.518,1.4,1.037,2.108,1.548,1.33.972,2.755,1.832,4.145,2.709,1.254.79,2.515,1.573,3.763,2.367,2.879,1.838,5.753,3.692,8.644,5.512,1.2.754,2.4,1.519,3.569,2.326,1.369.938,2.71,1.9,4.051,2.87,1.171.891,2.331,1.781,3.474,2.707,1.066.857,2.087,1.755,3.113,2.659l.868.867c.323.318.677.631.977.972l.066.076c.256,1.955.456,3.915.577,5.889.035,1.024.047,2.031,0,3.043-.041.4-.083.772-.159,1.161a9.427,9.427,0,0,0-.377,2.862,4.949,4.949,0,0,0,.665,1.972c.385.708.776,1.407,1.117,2.138a22.194,22.194,0,0,1,.9,2.526l-.009-.019c.176.62.338,1.241.5,1.863-.688,2-1.4,4-2.144,5.977-.725,1.914-1.413,3.833-2.244,5.706q-1.442,3.256-2.89,6.517a126.343,126.343,0,0,1-7.544,13.244l.041-.066a115.417,115.417,0,0,1-8.785,11.705q-.616.709-1.244,1.407-1.642,1.276-3.273,2.559c-.848.665-1.7,1.325-2.55,1.99-.347.265-.712.518-1.042.812.077-.052.153-.1.23-.152-1.443.96-2.868,1.955-4.293,2.938-1.4.958-2.814,1.909-4.21,2.879-.437.278-.888.528-1.331.8q-1.533.93-3.071,1.856c-.682.235-1.365.466-2.045.706-3.345,1.183-6.683,2.4-10.022,3.609-1.207.442-2.432.842-3.657,1.254-1.443.488-2.889.979-4.339,1.458a1.434,1.434,0,0,0-1.208-.363l-.2.039v0l-.03.01c-2.99.58-5.953,1.283-8.938,1.875l.055-.014-.043.009c-.034.006-.067.014-.1.022l.08-.019c-1.929.371-3.857.775-5.78,1.155.059-.011.124-.029.188-.04-2.567.453-5.134.918-7.7,1.365-.73.13-1.466.212-2.2.312-1.714.242-3.421.477-5.135.719-.865.123-1.737.277-2.608.365l-3.192.3c-1.725.165-3.456.336-5.188.5-.763.072-1.526.164-2.289.218-3.784.215-7.57.384-11.349.626-.046,0-.094.008-.141.009h0l.085,0,.059-.006c-3.869,0-7.744.212-11.618.212-.595,0-1.195-.041-1.79-.065l-3.94-.141c-1.319-.047-2.632-.1-3.945-.147-.588-.018-1.182-.064-1.77-.065a134.526,134.526,0,0,1-15.212-1.985l.165.036a116.919,116.919,0,0,1-14.094-3.65,84.126,84.126,0,0,1-9.232-3.69q-.864-.422-1.714-.863c-.174-.181-.354-.36-.525-.544-1.513-1.63-3.056-3.244-4.54-4.9q-2.26-2.553-4.54-5.106c-1-1.118-2-2.243-3-3.362-1.269-1.425-2.539-2.854-3.924-4.165-.339-.338-.649-.7-1-1.023a5.967,5.967,0,0,0-.959-.692c-.033-.429-.063-.859-.1-1.286-.171-1.9-.218-3.792-.307-5.694v-1.213q.15-1.66.289-3.333v.035c.065-.735.171-1.471.259-2.207.058-.5.119-1,.178-1.5q1.326-4.45,2.649-8.9c.759-2.549,1.566-5.081,2.367-7.619q.432-1.37.871-2.75c.124-.4.236-.813.377-1.207.162-.457.328-.91.492-1.365.235-.535.477-1.067.715-1.6.518-1.148,1.019-2.3,1.584-3.433.659-1.336,1.331-2.673,1.984-4.01.878-1.643,1.732-3.291,2.58-4.94q4.655-8.77,9.486-17.436c3.068-5.535,6.247-11.005,9.38-16.505q2.685-4.717,5.347-9.445c1.431-2.556,2.844-5.123,4.3-7.661q1.537-2.685,3.068-5.364c.748-1.308,1.543-2.591,2.32-3.881.73-1.219,1.455-2.438,2.232-3.627s1.57-2.41,2.353-3.619c1.926-2.257,3.868-4.508,5.934-6.635,2.485-2.436,5.122-4.68,7.764-6.936,2.409-2.063,4.87-4.064,7.326-6.076.14-.109.279-.219.419-.331l-.041.032.082-.065.01-.007-.009.007c1.144-.9,2.275-1.826,3.454-2.675,1.036-.754,2.055-1.549,3.132-2.249,1.166-.766,2.32-1.561,3.51-2.285q1.737-1.051,3.469-2.108c2.621-1.568,5.258-3.093,7.9-4.628,1.461-.842,2.933-1.649,4.423-2.444,1.22-.65,2.483-1.2,3.738-1.768,2.146-.846,4.31-1.629,6.519-2.307,2.257-.7,4.53-1.355,6.793-2.037l-.033.011c1.184-.341,2.373-.677,3.557-1.024l-.035.009.083-.024.011,0,0,0c4.1-1.185,8.175-2.427,12.211-3.812,3.751-1.284,7.438-2.744,11.141-4.157,1.643-.624,3.286-1.243,4.947-1.82,1.6-.565,3.215-1.089,4.822-1.619,2.868-.948,5.753-1.837,8.615-2.8,4.48-1.5,8.955-3.03,13.45-4.5C289.573,15.8,290.205,15.714,290.837,15.63Zm-31.357,5.4c-2.926,1.048-5.788,2.255-8.685,3.374-2.95,1.142-5.912,2.256-8.915,3.244q-4.675,1.542-9.4,2.93l.075-.021-.1.029-.162.048.094-.029-.225.065h0l-.012,0-.177.053.035-.011-1.294.379c.088-.024.176-.054.264-.077-.694.206-1.389.406-2.084.612q.1-.031.192-.057c-1.65.463-3.293.976-4.935,1.487,1.4-.676,2.805-1.342,4.22-1.987-.077.034-.153.07-.224.105,1.572-.683,3.145-1.378,4.717-2.066,1.16-.513,2.338-.978,3.509-1.455,1.249-.512,2.485-1.024,3.751-1.484,1.549-.559,3.1-1.124,4.652-1.684,1.7-.506,3.41-1,5.1-1.537,1.72-.412,3.428-.883,5.159-1.26,1.79-.388,3.58-.8,5.376-1.154.373-.074.746-.144,1.12-.217C260.844,20.555,260.16,20.784,259.48,21.028ZM108.291,173.956q-.463,1.655-.925,3.31c-.03.105-.056.212-.085.318l-.01,0-.131-.013c.134-.493.271-.984.407-1.477a1.219,1.219,0,0,0,.219-.522.4.4,0,0,0,.012-.082,1.232,1.232,0,0,0-.009-.161c.128-.451.251-.9.392-1.351l.018-.059C108.217,173.929,108.253,173.944,108.291,173.956Zm-4.088,3.331c-.56-.042-1.121-.08-1.684-.111-.541-.029-1.089-.071-1.631-.077-1.012,0-2.019-.006-3.032-.012-.524,0-1.054.048-1.578.077-.96.047-1.914.1-2.874.153-.542.03-1.077.106-1.613.159q-1.333.141-2.656.271c-.347.036-.7.053-1.042.106-1.131.182-2.261.359-3.392.542-.683.112-1.372.224-2.055.33-1.019.164-2.026.418-3.027.648q-3.18.741-6.283,1.772a58.885,58.885,0,0,0-8.02,2.579c-1.213.494-2.443.983-3.621,1.56-.542.259-1.084.525-1.625.79-.683.335-1.366.665-2.055,1-.312.154-.636.3-.942.471-1.161.642-2.326,1.278-3.486,1.92-.466.259-.913.53-1.361.813-.424.224-.854.447-1.277.671-.254.136-.513.253-.76.395l.336-.319q1.077-.891,2.155-1.772c.489-.4.968-.845,1.479-1.228l-.025.015.731-.526c2.746-1.124,5.493-2.248,8.249-3.341,2.791-1.106,5.571-2.237,8.356-3.356s5.588-2.2,8.42-3.2c.389-.138.781-.266,1.171-.4l.044,0q.846.171,1.694.349a1.263,1.263,0,0,0,1.336-.686c.776-.074,1.552-.125,2.333-.205,1.048-.041,2.1-.094,3.15-.153-.053.006-.106.006-.159.012,2.844-.112,5.7-.1,8.55-.083,1.3.006,2.591.03,3.886.059.835.023,1.671.057,2.507.091C104.336,176.827,104.269,177.057,104.2,177.287ZM14.97,285.3c.236.483.471.959.707,1.442.124.248.271.489.412.73.347.625.7,1.249,1.053,1.874q.264.708.531,1.416c.082.223.159.447.241.671-.159-.206-.317-.412-.482-.618-.318-.472-.636-.936-.954-1.407-.489-.719-.919-1.472-1.337-2.238-.663-1.283-1.249-2.6-1.784-3.944Q14.164,284.265,14.97,285.3Zm104.106,65.549c1.321.157,2.642.31,3.963.47q-1.551-.077-3.1-.205C119.652,351.028,119.364,350.941,119.076,350.851ZM404.425,190.176a46.622,46.622,0,0,1,3.716,4,52.473,52.473,0,0,1,3.215,4.576,46.017,46.017,0,0,1,2.237,4.263,39.479,39.479,0,0,1,1.431,3.816c-.011-.047-.023-.088-.035-.136.018.054.029.106.047.16.006.023.012.046.018.064l-.018-.053q.484,1.763.811,3.547c.151,1.014.261,2.017.325,3.037.007.189,0,.377.006.566a28.864,28.864,0,0,0-1.907-3.8,53,53,0,0,0-8.006-10.366,27.347,27.347,0,0,0-1.222-3.352,35.931,35.931,0,0,0-4.245-7.366,34.575,34.575,0,0,0-3.968-4.382,47.019,47.019,0,0,1,4,2.487A42.831,42.831,0,0,1,404.425,190.176ZM307.76,77.257c.2.406.4.8.624,1.189.848,1.46,1.66,2.945,2.549,4.381,1.753,2.8,3.459,5.628,5.188,8.442,1.265,2.254,2.528,4.495,3.593,6.849a34.684,34.684,0,0,1,1.207,3.26c.214.774.393,1.548.53,2.336.056.431.1.854.122,1.284,0,.539-.035,1.067-.086,1.6-.089.587-.192,1.174-.325,1.758-.024.07-.048.142-.071.213l-.035.071c-.338.553-.69,1.088-1.071,1.61-.043.05-.087.1-.13.152l-.076.037c-.059.02-.116.041-.174.063a16.554,16.554,0,0,0-.362-1.891,31.027,31.027,0,0,0-1.042-3.245q-.306-.824-.631-1.644c-.664-2.4-1.462-4.754-2.36-7.08-.436-1.125-.866-2.249-1.3-3.38-.147-.389-.294-.783-.459-1.166q-1.245-2.835-2.491-5.665c-.612-1.395-1.3-2.762-1.961-4.134-1.4-2.914-2.791-5.829-4.21-8.738q-.936-2.145-1.855-4.3c-.229-.536-.459-1.066-.689-1.6-.318-.724-.565-1.484-.824-2.226-.3-.877-.589-1.754-.872-2.638a58.926,58.926,0,0,1-1.5-5.947q-.309-1.59-.613-3.192c-.1-.643-.187-1.292-.284-1.937.21.2.421.4.626.605.249.252.488.514.732.773.2,1,.431,1.992.674,2.978.736,3,1.537,6.006,2.5,8.939q.52,1.572,1.042,3.144c.165.513.389,1,.589,1.5.607,1.489,1.16,3,1.878,4.439Q306.972,75.677,307.76,77.257Zm12.991-8.934c-.083.059-.171.124-.259.188-.071.036-.136.071-.206.113a.868.868,0,0,0-.136.046,1.344,1.344,0,0,0-.165.03l-.218.018h-.177l-.264-.053-.3-.106c-.147-.071-.288-.142-.43-.206-.166-.093-.329-.2-.486-.309a51.039,51.039,0,0,1-4.024-3.448c-.736-.7-1.466-1.431-2.2-2.138-.7-.677-1.337-1.425-2-2.131-1.248-1.349-2.443-2.75-3.639-4.146-.706-.836-1.419-1.66-2.131-2.491-.1-.121-.212-.24-.316-.362-.185-.848-.363-1.7-.509-2.552a25,25,0,0,1-.251-2.492c0-.31.019-.619.031-.928.809.818,1.588,1.661,2.328,2.551-.029-.042-.064-.083-.094-.13,1.508,1.866,2.891,3.81,4.3,5.747.883,1.213,1.76,2.432,2.644,3.645a43.449,43.449,0,0,0,3.156,3.886,19.419,19.419,0,0,0,4.251,3.692,13.846,13.846,0,0,0,1.747.867l-.194.252C321.061,68.024,320.913,68.18,320.751,68.323Zm27.54-31.209c-.158,0-.316,0-.473-.007.2-.11.407-.222.615-.322.32-.127.638-.244.964-.349.2-.051.41-.1.616-.135a17.9,17.9,0,0,1,1.789-.149c.744.018,1.487.074,2.231.137q2.13.271,4.254.552l-1.311.062c.071-.006.147-.006.218-.012C354.232,37.02,351.265,37.132,348.291,37.114Zm60.486-13.335c.165.283.318.56.459.848.039.1.075.193.113.29.052.168.1.335.14.511.012.118.018.241.03.365-.006.1-.006.207-.012.307-.012.064-.024.123-.036.182-.023.077-.047.147-.07.218l-.036.071a.227.227,0,0,1-.029.041c-.047.053-.1.1-.153.153-.053.035-.106.065-.159.1h0c-.121.07-.248.132-.374.2a12.548,12.548,0,0,0-1.776-2.09c-.305-.29-.621-.565-.932-.847a12.829,12.829,0,0,0,.672-1.484,9.074,9.074,0,0,0,.307-1.039c.378.378.752.757,1.107,1.159C408.294,23.091,408.541,23.426,408.777,23.779ZM261.654,15.027c1.39-.507,2.78-1.019,4.169-1.525,1.048-.383,2.091-.789,3.145-1.148,2.438-.83,4.881-1.631,7.331-2.426,1.872-.56,3.751-1.1,5.623-1.643.53-.153,1.06-.33,1.6-.46.907-.223,1.82-.441,2.726-.665,1.572-.383,3.139-.818,4.729-1.113,1.908-.359,3.827-.718,5.741-1.089,1.089-.148,2.191-.289,3.286-.43.8-.106,1.6-.206,2.39-.312.307-.041.625-.1.931-.124,2.178-.141,4.357-.336,6.542-.482,1.878-.042,3.762-.071,5.647-.113,1.407-.035,2.8.018,4.21.054.907.02,1.812.04,2.717.069l-1.2.167c-3.2.442-6.371,1.083-9.539,1.69-3.033.577-6.071,1.089-9.086,1.737-.824.176-1.654.33-2.467.53q-1.37.345-2.726.7c-1.562.393-3.1.874-4.646,1.337l.135-.036c-2.055.595-4.087,1.307-6.112,1.99-.892.3-1.782.607-2.672.911-2.142.288-4.285.568-6.425.875-1.737.247-3.468.553-5.2.83-1.466.236-2.921.5-4.381.765-1.508.277-3.015.548-4.517.837-1.613.318-3.238.606-4.846.96-1.322.283-2.649.55-3.968.848q1.964-.786,3.933-1.569C259.693,15.805,260.665,15.386,261.654,15.027ZM153.142,86.665c.5-.794,1-1.589,1.49-2.384.736-1.172,1.455-2.344,2.191-3.516.859-1.172,1.7-2.361,2.561-3.538.371-.525.748-1.048,1.125-1.567.277-.377.594-.724.883-1.089.648-.789,1.3-1.584,1.937-2.373.236-.283.46-.572.707-.848q1.44-1.6,2.885-3.191c.889-.925,1.8-1.838,2.691-2.768.86-.9,1.779-1.737,2.668-2.609.871-.848,1.79-1.66,2.691-2.479.8-.73,1.649-1.413,2.479-2.108l.873-.684c-.774.731-1.534,1.479-2.3,2.223-.465.454-.948.895-1.39,1.378-.606.672-1.219,1.349-1.831,2.02L170.931,65.2c-.43.465-.806.983-1.2,1.472-.995,1.219-2.032,2.414-2.95,3.692-1.078,1.5-2.167,2.991-3.245,4.492-.278.389-.536.792-.794,1.195l-2.6,3.038c-1.961,2.3-3.934,4.6-5.747,7.013.047-.065.094-.123.141-.188-.533.7-1.066,1.416-1.594,2.122-.021.026-.041.053-.061.079l.026-.033c-.021.026-.041.054-.061.081.012-.016.023-.032.035-.047-.762,1.012-1.516,2.034-2.252,3.065.678-1.242,1.358-2.484,2.03-3.725C152.807,87.184,152.983,86.925,153.142,86.665Zm-37.5,66.731c.353-.859.683-1.731,1.06-2.579q.813-1.854,1.637-3.71c.365-.836.712-1.69,1.113-2.514.553-1.148,1.119-2.291,1.684-3.439.418-.871.824-1.755,1.266-2.609.636-1.13,1.248-2.272,1.872-3.4.525-.96,1.066-1.908,1.573-2.873.8-1.269,1.563-2.554,2.335-3.838-.06.127-.125.251-.181.379-.73,1.661-1.449,3.327-2.179,4.993-.253.571-.465,1.166-.689,1.749-.406,1.025-.807,2.049-1.207,3.08-.565,1.431-1.06,2.9-1.572,4.352-.984,2.767-1.9,5.558-2.844,8.337-.279.817-.55,1.638-.825,2.456-.549,1.264-1.108,2.526-1.606,3.811-.619,1.584-1.266,3.15-1.838,4.752l-.508,1.42-.01-.009a1.5,1.5,0,0,0-.509-.239q.721-1.972,1.445-3.941l-.035.089c.23-.613.454-1.225.683-1.838a1.24,1.24,0,0,0-.624-1.613,1.277,1.277,0,0,0-1.259.181Q115.027,154.893,115.639,153.4Zm-5.84,15.39c.22-.606.431-1.213.646-1.819-.318.931-.612,1.861-.9,2.8-.189.622-.384,1.242-.576,1.863l-.061-.02q.447-1.419.9-2.836Zm-9.282,4.233a47.98,47.98,0,0,1,4.843.321c-.045.149-.094.3-.138.446q-2.568-.387-5.138-.759Zm-3.244-5.08q-1.015.264-2.032.517-3.162.8-6.353,1.461a1.331,1.331,0,0,0-1.013,1.131c-.389-.094-.771-.195-1.154-.319-.065-.023-.124-.052-.189-.082l-.141-.088c-.071-.053-.135-.1-.2-.153.088-.088.182-.177.283-.26.052-.04.111-.082.176-.123.083-.053.177-.1.265-.147a20.33,20.33,0,0,1,2.014-.7,30.87,30.87,0,0,1,3.032-.647c-.058,0-.111.017-.17.023C93.61,168.245,95.442,168.091,97.273,167.939Zm-93.532,68.8a53.821,53.821,0,0,1,1.684-5.685v0a.021.021,0,0,1,.006-.011c.018-.054.035-.106.053-.154-.006.024-.018.048-.024.071a91.151,91.151,0,0,1,4.311-9.669c-.03.053-.059.106-.088.159A108.768,108.768,0,0,1,17.1,209.429a91.564,91.564,0,0,1,6.819-8.332l-.011.014c1.309-1.395,2.654-2.762,4.056-4.065,1.454-1.349,2.95-2.644,4.475-3.91l-.129.112A128.516,128.516,0,0,1,46,183.538c-.047.035-.094.064-.141.094a138.458,138.458,0,0,1,14.715-7.826l-.01,0a114.261,114.261,0,0,1,12.129-4.732l-.065.018c.053-.018.106-.03.159-.048a69.233,69.233,0,0,1,7.555-1.784c1.233-.193,2.473-.333,3.717-.439-.119.142-.236.287-.343.444a2.283,2.283,0,0,0-.365,1.2,2.149,2.149,0,0,0,.265.971,1.982,1.982,0,0,0,.232.339q-.876.137-1.746.3c-1.236.23-2.473.483-3.692.8-1.431.36-2.852.777-4.258,1.239a25.942,25.942,0,0,0-3.02.384,42.941,42.941,0,0,0-4.716,1.166,66.254,66.254,0,0,0-18.949,9.744c-1.855,1.338-3.71,2.7-5.459,4.182q-1.213,1.038-2.438,2.072c-.155.094-.31.187-.465.282-1.837,1.107-3.6,2.349-5.37,3.55-.318.218-.619.465-.925.695l-1.784,1.342c-.63.471-1.266.931-1.867,1.437q-1.677,1.413-3.344,2.826c-.624.525-1.2,1.1-1.79,1.661-1.031.984-2.085,1.944-3.062,2.98A67.439,67.439,0,0,0,15.388,213a56.6,56.6,0,0,0-7.931,15.028,58.11,58.11,0,0,0-2.062,7.8,79.008,79.008,0,0,0-2.614,7.983c.022-.467.03-.935.065-1.4,0,.024,0,.047,0,.073A52.548,52.548,0,0,1,3.741,236.737ZM67.23,337.051c-.035-.012-.065-.018-.1-.03-3.78-1.678-7.584-3.292-11.365-4.964-.506-.223-.989-.5-1.484-.748-1.213-.618-2.426-1.23-3.645-1.849-1.654-.836-3.321-1.666-4.975-2.514-2.244-1.237-4.493-2.479-6.684-3.822s-4.333-2.755-6.436-4.228c.006.006.018.012.024.018-1.207-.866-2.414-1.743-3.557-2.691q-1.765-1.458-3.433-3.009a64.153,64.153,0,0,1-5.012-5.354l.019.019a76.219,76.219,0,0,1-5.247-7.39,101.859,101.859,0,0,1-5.489-10.422l.014.029a102.848,102.848,0,0,1-4.382-11.582,78.476,78.476,0,0,1-2.056-8.546l.007.037a50.584,50.584,0,0,1-.577-5.417c-.006-.159,0-.318-.009-.477a56.991,56.991,0,0,0,2.135,5.527,56.129,56.129,0,0,0,3.709,6.874,28.714,28.714,0,0,0,.866,4.336,38.274,38.274,0,0,0,3.1,7.725c.442.8.889,1.6,1.4,2.35.335.489.677.983,1.012,1.478.636.924,1.39,1.784,2.108,2.649q.84,1,1.732,1.938l-.03-.029c.265.282.542.565.819.842a4.984,4.984,0,0,0,.977.853,1.647,1.647,0,0,0,.889.259,2.216,2.216,0,0,0,.766-.229,1.335,1.335,0,0,0,.564-.482l1.744,2.315c.56.736,1.2,1.419,1.808,2.114.489.56.977,1.125,1.466,1.684.188.212.371.442.571.648l2.791,2.844c.519.53,1.031,1.072,1.579,1.578,1.1,1.007,2.2,2.02,3.3,3.027.518.477,1.036.948,1.584,1.4,1.749,1.437,3.492,2.885,5.282,4.281,3.668,2.868,7.337,5.742,10.964,8.662,1.784,1.437,3.586,2.833,5.406,4.222,1.083.83,2.155,1.66,3.28,2.426a65.878,65.878,0,0,0,7.125,4.275c.759.386,1.523.772,2.3,1.135Q69.659,337.936,67.23,337.051ZM306.8,331.594c-2.3,1.048-4.6,2.084-6.9,3.133-1.413.641-2.844,1.242-4.269,1.848q-1.953.84-3.9,1.667c-.489.206-.972.424-1.455.618q-4.186,1.573-8.356,3.2c-1.348.441-2.7.86-4.045,1.3q-1.413.459-2.826.907c-.43.141-.854.306-1.29.412-2.671.678-5.325,1.391-7.99,2.069l.047-.008-.073.015-.033.009.016,0-.087.022c-.012,0-.018.007-.03.007l.009,0c-8.08,1.806-16.189,3.5-24.345,4.86-2.049.342-4.093.707-6.148,1.013-2.161.324-4.328.683-6.5.966-2.231.288-4.458.636-6.695.877-2.2.238-4.4.471-6.6.714-2.161.182-4.328.365-6.488.552-2.073.177-4.151.271-6.224.418-3.881.271-7.767.454-11.653.666-2.014.105-4.022.2-6.036.288-1.925.094-3.845.136-5.765.188-1.65.041-3.3.047-4.95.045,3.18-.446,6.353-.928,9.543-1.3,2.244-.26,4.481-.489,6.737-.66,2.379-.177,4.758-.33,7.136-.488,4.287-.283,8.556-.754,12.814-1.3A107.121,107.121,0,0,0,222.7,351.27c4.063-1.025,8.115-2.091,12.195-3.033,4.169-.96,8.35-1.861,12.525-2.791s8.315-1.861,12.484-2.75c4.392-.942,8.773-1.919,13.09-3.18,2.043-.594,4.051-1.277,6.047-2.019,2.055-.766,4.057-1.655,6.053-2.556,1.229-.553,2.444-1.139,3.654-1.734,4.54-.644,9.082-1.273,13.6-2.021,1.649-.271,3.3-.536,4.929-.9.706-.159,1.407-.311,2.108-.471.288-.064.583-.111.871-.194q.93-.263,1.858-.528c-.252.118-.5.235-.756.354C309.839,330.169,308.326,330.9,306.8,331.594Zm109.754-89.239c0,.027-.009.054-.014.081l-.009.066,0-.04a46.287,46.287,0,0,1-1.036,4.621,42.932,42.932,0,0,1-1.466,4.046,54.71,54.71,0,0,1-2.944,5.688,64.92,64.92,0,0,1-4.4,6.2c-1.273,1.559-2.6,3.066-3.963,4.548q-1.44,1.565-2.891,3.133c-.724.783-1.5,1.537-2.249,2.3-.811.829-1.616,1.663-2.432,2.485-1.738,1.63-3.448,3.282-5.164,4.929l.106-.106c-.265.247-.548.483-.825.718-.742.648-1.484,1.3-2.22,1.937-.712.619-1.419,1.243-2.131,1.862-.224.188-.436.394-.672.577q-1.748,1.386-3.5,2.767c-.742.583-1.478,1.166-2.22,1.749-.195.153-.377.312-.571.459-.136.094-.271.189-.4.283l.177-.124q-3.18,2.279-6.354,4.575c.023-.018.045-.035.068-.051l-.138.1.07-.053c-1.278.883-2.567,1.749-3.845,2.62-1.089.742-2.173,1.5-3.268,2.225-1.5,1-3,1.979-4.5,2.969-1.024.671-2.031,1.359-3.068,2.013q-2.367,1.476-4.728,2.962c-1.007.63-2,1.29-3.027,1.891-1.578.93-3.156,1.842-4.734,2.767-.659.386-1.315.775-1.973,1.16q1.115-.775,2.226-1.551,1.776-1.236,3.551-2.467c.383-.265.771-.518,1.143-.8,1.89-1.443,3.774-2.9,5.658-4.345,1.349-1.031,2.732-2.044,4.057-3.121l.083-.071q4.3-3.507,8.608-7.019l-.025.025.063-.052.045-.038c.015-.011.029-.025.044-.038l-.015.008c1.031-.829,2.02-1.713,3.021-2.579q1.908-1.624,3.816-3.262c.518-.435,1.048-.86,1.543-1.319q2.923-2.685,5.847-5.364c.547-.507,1.13-.984,1.649-1.519q1.113-1.149,2.231-2.3,1.732-1.784,3.463-3.568c.424-.442.889-.866,1.278-1.337q2.624-3.144,5.264-6.283c.4-.477.818-.948,1.183-1.46q1.131-1.563,2.25-3.127c.913-1.272,1.819-2.538,2.732-3.81.306-.418.6-.842.877-1.283q2.192-3.525,4.376-7.049c.412-.659.753-1.372,1.124-2.055.736-1.36,1.472-2.726,2.208-4.086.336-.624.683-1.237.984-1.879l1.8-3.851c.388-.836.836-1.672,1.177-2.532.483-1.23.972-2.461,1.455-3.692.258-.655.517-1.308.768-1.963.017.133.04.265.056.4a53.585,53.585,0,0,1,.271,6.519,51.874,51.874,0,0,1-.5,5.544Z"/><path d="M206.368,229.084h0Z"/><path d="M317.076,211.876l-.007.007-.012.013Z"/><path d="M313.16,215.891c-.028.029-.058.056-.086.085s-.032.034-.05.051C313.071,215.98,313.119,215.933,313.16,215.891Z"/></svg>