<svg xmlns="http://www.w3.org/2000/svg" width="278.387" height="360.143" viewBox="0 0 278.387 360.143"><path d="M14.442,257.191l.063-.088c.016-.023.032-.048.049-.071C14.519,257.085,14.478,257.138,14.442,257.191Z"/><path d="M278.346,277.108a21.305,21.305,0,0,0-.318-2.732,17.239,17.239,0,0,0-1.136-3.45c-.642-1.531-1.414-3.021-2.132-4.517-.353-.736-.7-1.472-1.054-2.208-.306-.636-.6-1.278-.942-1.9a39.644,39.644,0,0,0-2.662-4.01c-2.025-2.756-4.074-5.494-6.118-8.238-1.825-2.45-3.656-4.887-5.476-7.343q-1.545-2.085-3.1-4.163c-1.013-1.343-2.067-2.65-3.15-3.94-1-1.189-2.05-2.337-3.121-3.468-1.131-1.183-2.261-2.373-3.416-3.533q-1.836-1.838-3.686-3.651c-1.166-1.13-2.361-2.225-3.562-3.327.029.03.059.054.082.083-1.519-1.425-3.109-2.78-4.663-4.163-2.391-2.132-4.794-4.257-7.326-6.218l-.163-.129c-.211-.236-.426-.468-.636-.705-2.2-2.491-4.4-4.994-6.625-7.473-2.2-2.444-4.4-4.9-6.677-7.284-.157-.163-.312-.327-.468-.491q-.961-1.272-1.924-2.544c-1.549-2.05-3.1-4.1-4.587-6.2-.789-1.119-1.614-2.22-2.362-3.374-.8-1.237-1.589-2.479-2.4-3.71-.73-1.242-1.466-2.49-2.2-3.733-.624-1.054-1.19-2.149-1.772-3.233-.548-1.007-1.078-2.007-1.584-3.038-.8-1.623-1.6-3.239-2.329-4.9a59.051,59.051,0,0,1-2.421-6.755c-.242-.872-.475-1.745-.674-2.623-.182-.783-.389-1.572-.506-2.367-.071-.471-.148-.942-.224-1.419-.194-1.2-.377-2.4-.571-3.592-.177-1.884-.383-3.762-.571-5.647-.047-.442-.071-.889-.1-1.33-.07-1.167-.153-2.327-.223-3.486-.047-.766-.124-1.532-.148-2.3-.023-.648-.035-1.289-.058-1.931-.048-1.82-.089-3.645-.153-5.465q.017-1.8.035-3.6c.006-1,.012-2,.024-2.992,0-.418-.006-.836.011-1.248.053-1.355.1-2.7.148-4.057q.078-2.146.164-4.293c.047-1.284.153-2.567.23-3.851.336-5.453.736-10.9,1.142-16.352.407-5.388.813-10.782,1.16-16.176q.258-4.075.555-8.141c.053-.038.11-.072.163-.111,1.408-1.012,2.774-2.067,4.093-3.185,1.242-1.054,2.426-2.185,3.568-3.345a19.419,19.419,0,0,0,3.362-4.022.414.414,0,0,0-.023.047c.129-.235.259-.465.394-.695-.041.071-.082.142-.123.207a21.662,21.662,0,0,0,2.561-6.654c.086-.457.142-.919.2-1.383a9.964,9.964,0,0,0,.371-1.272,11.454,11.454,0,0,0-.553-6.012,30.8,30.8,0,0,0-1.49-3.509c-.625-1.331-1.325-2.621-2.079-3.886a.152.152,0,0,1,.008.022,7.814,7.814,0,0,0-.885-1.289,3.529,3.529,0,0,0-.376-.347,14.184,14.184,0,0,0-.373-1.874,20.36,20.36,0,0,0-1.077-2.9,29.42,29.42,0,0,0-3.627-5.865c-1.137-1.466-2.356-2.867-3.628-4.222-1.366-1.466-2.738-2.932-4.186-4.322a38.24,38.24,0,0,0-9.481-6.418,48.909,48.909,0,0,0-4.557-2.1c-.837-.317-1.661-.624-2.515-.889-.477-.147-.954-.282-1.437-.418a1.2,1.2,0,0,0-1.112-.329c-.03,0-.053.011-.083.017l-.07-.017a34.231,34.231,0,0,0-4.7-.807A48.628,48.628,0,0,0,158.1,0c-1.784-.012-3.556.035-5.341.112-1.666.07-3.326.235-4.987.436-.4.052-.789.111-1.184.17-.371.059-.753.095-1.118.177-.837.188-1.69.335-2.521.553-.93.248-1.86.483-2.791.725-.818.217-1.619.482-2.432.73-.545.164-1.089.339-1.63.513a42.346,42.346,0,0,0-8.666,1.722,36.151,36.151,0,0,0-6.36,2.679c-1.2.653-2.356,1.373-3.485,2.138a68.831,68.831,0,0,0-7.151,4.595,38.887,38.887,0,0,0-9.11,9.033q-.452.649-.9,1.3c-.131.163-.265.325-.394.488-.689.871-1.348,1.755-1.978,2.667-.594.857-1.165,1.743-1.7,2.651-.164.231-.333.46-.492.7a32.129,32.129,0,0,0-3.233,5.777,27.8,27.8,0,0,0-1.814,6.512,31.249,31.249,0,0,0-.347,6.872,49.938,49.938,0,0,0,.648,5.465c.1.583.2,1.16.306,1.742.1.566.176,1.137.318,1.691a9.138,9.138,0,0,0,1.3,2.791,20.738,20.738,0,0,0,1.914,2.5c.806.884,1.649,1.743,2.5,2.585a20.7,20.7,0,0,0,2.3,2.014,18.019,18.019,0,0,0,2.968,1.808A20.77,20.77,0,0,0,105.8,72.3c.152.044.306.078.457.12-.007.29-.015.578-.023.868-.059,2.332-.089,4.657-.13,6.989-.1,6.007-.659,12-1.083,17.99-.419,5.923-.878,11.853-1.578,17.753-.224,1.549-.436,3.1-.707,4.646-.3,1.743-.63,3.474-.972,5.211q-.4,2.058-.842,4.105c-.288,1.342-.565,2.7-.877,4.033q-1.079,4.62-2.226,9.221-1.1,4.5-2.078,9.027-.5,2.315-1,4.634c-.282,1.314-.618,2.627-.936,3.94-.253.859-.506,1.725-.765,2.585-.1.335-.242.665-.366.989-.135.365-.276.725-.412,1.084-.129.294-.265.594-.4.883-.147.312-.271.642-.436.942-.271.512-.547,1.007-.818,1.513-.489.783-.989,1.561-1.514,2.321-.441.641-.9,1.265-1.36,1.9-1.019,1.407-2.049,2.8-3.085,4.186-2.615,3.421-5.365,6.748-8,10.152-.789,1.03-1.572,2.061-2.384,3.074l-.583.727q-2.51,2.56-5.029,5.115c-2,2.02-3.975,4.069-5.947,6.113-1.154,1.195-2.261,2.437-3.386,3.656q-1.237,1.335-2.444,2.7c-2.143,2.409-4.257,4.834-6.371,7.266q-2.773,3.2-5.582,6.378c-1.9,2.131-3.828,4.228-5.742,6.347q-2.985,3.287-5.906,6.625c-2.014,2.314-4.039,4.622-6.106,6.889l.094-.094q-1.475,1.546-2.938,3.1l-1.466,1.554c-.471.5-.966.983-1.419,1.5-.489.566-.984,1.119-1.473,1.685-.388.447-.806.883-1.171,1.348-.836,1.072-1.72,2.12-2.5,3.233.036-.053.077-.112.112-.165-.124.171-.241.341-.359.512.035-.053.076-.112.112-.165-.3.436-.607.866-.913,1.3v-.012c-.245.347-.494.694-.738,1.037-.824,1.156-1.61,2.344-2.412,3.521-1.655,2.443-3.31,4.887-4.882,7.378-.424.673-.847,1.349-1.253,2.034-.345.34-.693.677-1.025,1.031a12.493,12.493,0,0,0-2.562,4.111,14,14,0,0,0-.865,4.61,30.5,30.5,0,0,0,.822,7.443,24.632,24.632,0,0,0-2.007,5.4,12.675,12.675,0,0,0-.147,4.916,13.291,13.291,0,0,0,1.707,4.528,31.91,31.91,0,0,0,5.176,6.007c.471.477.972.918,1.467,1.372s.96.9,1.46,1.331q2.181,1.874,4.385,3.711a55.622,55.622,0,0,0,5.014,5.861c1.1,1.1,2.167,2.238,3.3,3.31,2.278,2.143,4.551,4.287,6.9,6.353a55.211,55.211,0,0,0,6.883,5.341c1.313.831,2.621,1.673,3.963,2.456.73.43,1.454.859,2.185,1.283.612.354,1.266.654,1.9.978.653.336,1.3.718,1.972,1.013.642.283,1.278.565,1.92.842,1.289.571,2.573,1.154,3.88,1.69,1.431.6,2.856,1.195,4.293,1.778,1.354.559,2.7,1.13,4.087,1.608q1.554.529,3.1,1.06c.406.141.8.3,1.213.406,1.8.488,3.586.983,5.376,1.472.571.153,1.136.312,1.714.465.465.124.948.2,1.419.3q2.827.584,5.651,1.174c.23.07.461.139.689.211,1.2.371,2.38.742,3.587,1.065,1.7.466,3.4.948,5.105,1.39,1.584.412,3.186.754,4.775,1.131,1.213.288,2.426.547,3.651.789,1.39.276,2.78.6,4.181.812,1.731.26,3.468.519,5.2.783.606.089,1.23.119,1.842.177l3.045.3c1.313.13,2.632.189,3.951.259s2.638.154,3.963.189c1.749.047,3.5.077,5.246.136q2.448.087,4.888.17c1.278.047,2.55.13,3.828.212l4.068.265c1.785.112,3.575.271,5.371.324.906.024,1.819.041,2.732.041,1.154,0,2.308-.029,3.462-.1,1.543-.088,3.109-.188,4.64-.418,1.8-.271,3.592-.536,5.382-.807,1.4-.212,2.786-.506,4.175-.765,1.2-.224,2.4-.442,3.592-.689,1.772-.371,3.539-.73,5.306-1.107,1.478-.318,2.938-.707,4.4-1.06,1.154-.277,2.308-.536,3.445-.86q2.889-.829,5.777-1.654c1.03-.3,2.048-.63,3.067-.972q2.591-.855,5.181-1.716a1.07,1.07,0,0,0,.163.112,2.659,2.659,0,0,0,.942.248h.035a2.21,2.21,0,0,0,.678-.124,6.565,6.565,0,0,0,1.437-.754c.784-.468,1.557-.955,2.326-1.45.738-.259,1.475-.521,2.205-.8,1.376-.518,2.759-1.025,4.137-1.544.95-.266,1.9-.557,2.828-.9.817-.305,1.649-.6,2.445-.965,1.192-.538,2.38-1.094,3.567-1.643-.006.006-.012.006-.018.011.258-.12.51-.254.762-.389,1.166-.483,2.313-1.036,3.455-1.589q1.563-.759,3.1-1.578c.023-.294.068-.585.1-.877,1.109-.826,2.212-1.659,3.3-2.509.819-.63,1.625-1.272,2.426-1.925.041-.018.088-.042.129-.06.754-.329,1.508-.641,2.244-1.018.53-.271,1.066-.542,1.6-.813.253-.129.524-.253.777-.394.83-.489,1.666-.978,2.5-1.467,1.36-.794,2.673-1.684,3.968-2.579.631-.435,1.267-.859,1.879-1.324.717-.543,1.469-1.057,2.164-1.638l-.015.011c2.247-1.831,4.436-3.727,6.619-5.622,2.367-2.061,4.822-4.04,7.025-6.277,1.23-1.248,2.455-2.509,3.609-3.834.56-.641,1.119-1.289,1.679-1.937.265-.3.512-.624.765-.936s.518-.607.76-.925q.732-.963,1.454-1.925c.542-.713,1.007-1.484,1.519-2.214.218-.318.407-.66.607-.983.247-.395.488-.8.736-1.19.051-.081.1-.167.147-.249q.284-.321.562-.644c.259-.29.5-.589.754-.887.092-.11.187-.218.279-.328.11-.132.212-.27.32-.4.118-.15.241-.3.356-.449.675-.847,1.33-1.707,1.921-2.616a21.719,21.719,0,0,0,1.083-1.885c.163-.214.328-.428.488-.644.648-.871,1.284-1.76,1.878-2.673a17.927,17.927,0,0,0,2.7-6.165A15.285,15.285,0,0,0,278.346,277.108ZM29.4,321.992c-1.142-.83-2.3-1.643-3.445-2.461.065.041.124.082.189.129-.73-.524-1.437-1.089-2.155-1.637-.566-.429-1.131-.865-1.69-1.307q-2.4-1.915-4.782-3.869c-.734-.6-1.462-1.213-2.193-1.821-.6-.86-1.2-1.728-1.757-2.62a64.967,64.967,0,0,1-3.657-6.825.933.933,0,0,1,.059.112c-.848-1.872-1.572-3.8-2.337-5.706-.283-.718-.489-1.478-.731-2.214-.235-.718-.477-1.442-.712-2.155-.265-.971-.519-1.943-.778-2.915-.05-.187-.09-.375-.138-.563L5.3,288.1c.031.087.058.175.09.261.477,1.3.971,2.615,1.572,3.863.73,1.525,1.454,3.05,2.184,4.575.242.5.548.984.825,1.466.483.86.966,1.714,1.448,2.574.684,1.213,1.5,2.343,2.268,3.5.359.536.7,1.1,1.083,1.614q.716.971,1.431,1.949c.924,1.254,1.861,2.5,2.8,3.745.848,1.119,1.849,2.132,2.779,3.186.477.547,1.03,1.036,1.543,1.548s1.025,1.025,1.531,1.537c.542.536,1.148,1.019,1.713,1.525.583.512,1.16,1.031,1.743,1.543.483.424,1.037.789,1.549,1.178.632.485,1.264.966,1.9,1.451C30.969,323.078,30.181,322.542,29.4,321.992ZM16.685,259.046c-.011.011-.017.023-.029.035l.128-.18a1.371,1.371,0,0,0,.355.07c-.148.159-.294.32-.441.479.035-.041.07-.077.106-.118q-.506.51-1.008,1.021c.309-.451.615-.905.925-1.355C16.709,259.016,16.7,259.028,16.685,259.046Zm170.8-195.467c-.619.354-1.261.648-1.908.937.076-.03.147-.065.223-.095q-.861.371-1.725.738c.015-.2.031-.389.045-.584.232-.127.468-.245.7-.376,1.255-.721,2.509-1.452,3.723-2.243q-.041.487-.079.975C188.136,63.153,187.814,63.373,187.482,63.579Zm23.455,276.64q.627-.425,1.251-.849,1.689-.813,3.372-1.642l.014,0a1.371,1.371,0,0,0-.075.555c-.341.159-.68.321-1.022.477C213.3,339.25,212.117,339.732,210.937,340.219Zm-76.961,5.961c-2.455,0-4.917.047-7.384.088-.665-.006-1.325-.041-1.99-.059-1.2-.029-2.4-.064-3.6-.094-1.514-.041-3.021-.147-4.534-.247-1.537-.1-3.068-.183-4.6-.342-1.895-.193-3.8-.409-5.69-.59-1.79-.257-3.591-.531-5.38-.793-.454-.065-.913-.118-1.367-.207-.871-.164-1.742-.335-2.614-.506-1.443-.283-2.9-.53-4.328-.871-1.743-.424-3.486-.86-5.235-1.266-1.925-.554-3.874-1.06-5.8-1.637-2.243-.683-4.487-1.349-6.719-2.067-1.107-.354-2.225-.689-3.32-1.072-1.214-.418-2.421-.848-3.634-1.272-1.925-.677-3.815-1.431-5.711-2.19l.052.017c-2.119-.93-4.239-1.861-6.312-2.885-2.37-1.174-4.758-2.341-7.065-3.643l.005,0a45.647,45.647,0,0,1-4.275-2.785c-1.572-1.2-3.038-2.538-4.505-3.857a1.165,1.165,0,0,0-.418-.24q-2.288-2.276-4.6-4.529c-.547-.559-1.072-1.16-1.6-1.737q-1.326-1.422-2.638-2.844c-1.278-1.384-2.485-2.832-3.722-4.252-2.285-2.626-4.5-5.328-6.707-8.025.006,0,.006.011.012.017-.012-.012-.018-.023-.029-.035l-.061-.075a.25.25,0,0,1,.031.034c-.989-1.26-1.99-2.5-2.938-3.8-.471-.642-.966-1.278-1.408-1.943-.447-.684-.889-1.361-1.342-2.038A34.63,34.63,0,0,1,12.5,286.5a24.848,24.848,0,0,1-.842-2.391c-.149-.571-.269-1.147-.368-1.73,0,.012,0,.023,0,.034a.487.487,0,0,1-.006-.055l-.006-.033.005.027a.344.344,0,0,0-.005-.045c-.006-.017-.006-.041-.012-.064.006.017.006.041.012.058-.077-.6-.124-1.207-.147-1.813.011-.63.041-1.254.1-1.884.009-.073.024-.143.034-.216.613-.927,1.222-1.855,1.844-2.781.942-1.407,1.884-2.815,2.856-4.2,1.213-1.749,2.449-3.486,3.644-5.247,1.467-2.014,2.886-4.075,4.364-6.094,1.454-1.991,2.956-3.952,4.446-5.918,1.631-2.15,3.309-4.264,4.952-6.4q2.765-3.594,5.517-7.2c1.879-2.461,3.745-4.928,5.677-7.354q1.783-2.253,3.574-4.5c.789-.989,1.625-1.943,2.438-2.909.942-1.119,1.861-2.261,2.826-3.362,1.184-1.349,2.361-2.7,3.545-4.051q2.835-3.242,5.677-6.466c3.951-4.5,7.772-9.133,11.741-13.62,3.887-4.387,7.714-8.826,11.4-13.39q1.667-2.067,3.343-4.127a1.865,1.865,0,0,0,.595.42,17.523,17.523,0,0,0,2.314.812,18.419,18.419,0,0,0,5.194.654c1.457-.01,2.914-.1,4.37-.183.065.137.118.28.186.415a14.3,14.3,0,0,0,1.732,2.715,14.761,14.761,0,0,0,2.055,2.014c.871.712,1.778,1.372,2.673,2.049.871.653,1.772,1.266,2.691,1.849,3.816,2.42,7.6,4.9,11.459,7.249a1.266,1.266,0,0,0,1.731-.419,1.271,1.271,0,0,0-.418-1.731c-.354-.212-.707-.43-1.06-.648a39.4,39.4,0,0,0,4.028.8,46.287,46.287,0,0,0,13.649.089,44.53,44.53,0,0,0,6.719-1.5,53.143,53.143,0,0,0,5.237-1.956,42.551,42.551,0,0,0,4.706-.7c1.519-.318,3.038-.689,4.522-1.148,1.06-.33,2.12-.654,3.174-.984a46.515,46.515,0,0,0,4.734-1.76,25.054,25.054,0,0,0,5.747-3.345,31.694,31.694,0,0,0,4.64-4.617,33.021,33.021,0,0,0,3.137-2.341,26.479,26.479,0,0,0,4-4.189c.114.124.224.251.338.375,1.925,2.09,3.892,4.151,5.823,6.236s3.828,4.234,5.812,6.277c2.055,2.108,4.146,4.169,6.253,6.224.654.636,1.294,1.284,1.94,1.926,1.029,1.351,2.057,2.7,3.04,4.083,1.007,1.419,1.985,2.861,2.98,4.292q2.9,4.179,5.818,8.344c1.46,2.09,2.932,4.169,4.393,6.259.788,1.131,1.607,2.238,2.437,3.345l2.438,3.268c.442.589.854,1.207,1.331,1.767.624.736,1.242,1.472,1.866,2.208.572.677,1.213,1.307,1.832,1.949,1.325,1.39,2.679,2.756,4.027,4.134.141.144.287.285.43.428l.091.124c.559.766,1.1,1.549,1.678,2.3.464.6.923,1.2,1.383,1.8q3.887,6.065,7.726,12.158c1.431,2.285,2.861,4.569,4.31,6.842,1.4,2.191,2.82,4.37,4.228,6.554-.03-.053-.065-.111-.1-.165.748,1.266,1.5,2.521,2.2,3.816.312.583.642,1.16.93,1.761.348.718.7,1.443,1.043,2.161a.131.131,0,0,0-.018-.03c.312.7.642,1.4.913,2.114.441,1.184.877,2.362,1.236,3.575.242.895.454,1.79.607,2.7,0,.031.006.062.01.093-.04.083-.075.169-.116.253-.406.824-.842,1.625-1.272,2.432-.671,1.154-1.33,2.314-2.019,3.462-.619,1.036-1.325,2.02-2.026,3.009-.189.236-.377.471-.571.7-.177.224-.348.459-.536.671-.447.483-.872,1-1.337,1.46.042-.041.083-.082.13-.123-.56.548-1.125,1.1-1.672,1.654.041-.047.082-.088.123-.129-1.125,1.036-2.261,2.049-3.421,3.044-.936.807-1.884,1.59-2.832,2.385-2.2,1.849-4.417,3.692-6.672,5.47v0l-.018.017c0,.006-.017.012-.023.018l.012-.012c-.012.012-.03.024-.042.035l.006-.006c-.724.548-1.442,1.108-2.167,1.655.048-.029.089-.065.13-.094-.183.141-.371.283-.559.424h0c-1.07.807-2.152,1.6-3.257,2.367-1.231.86-2.449,1.743-3.709,2.573-1.29.86-2.562,1.749-3.875,2.574l-4.187,2.632a.594.594,0,0,1-.064.041l-.022.01a.429.429,0,0,1-.055.031c.012,0,.018-.006.029-.012q-1.642.931-3.274,1.874a.03.03,0,0,0,.012-.013c-.253.147-.512.3-.777.448l.035-.018c-.07.041-.141.082-.218.123.018,0,.03-.017.048-.023-.058.028-.111.061-.167.094h0c.016-.01.036-.02.056-.035-.619.347-1.267.642-1.891.954-.912.459-1.825.918-2.732,1.378-.412.212-.836.388-1.26.577-.983.447-1.973.889-2.956,1.336-2.709,1.225-5.464,2.344-8.2,3.516l.142-.053c-1.219.489-2.426,1.007-3.639,1.513s-2.426,1.007-3.639,1.514c.047-.018.088-.036.135-.053-1.254.5-2.5,1.03-3.739,1.542-1.2.5-2.409.984-3.6,1.5.006-.006.018-.006.024-.012-.052.023-.1.04-.149.058-.118.052-.24.1-.358.148.042-.018.088-.035.136-.059-.291.12-.576.24-.866.354h0l-.013,0-.016.007h0c-.284.113-.563.227-.843.347.012-.006.018-.012.03-.018-.232.1-.458.192-.69.284l.013-.007-1.3.53.035-.018c-.265.112-.53.218-.795.324l.1-.035-.7.283c.006-.007.018-.007.024-.012-.324.129-.648.265-.972.394l.142-.053c-.119.044-.233.092-.347.14a.269.269,0,0,0,.029-.016.588.588,0,0,1-.089.041c.006-.006.018-.006.024-.012l-.056.022c.006,0,.015-.005.02-.01-1.507.589-3.026,1.148-4.545,1.72-.5.188-.984.394-1.484.565-.63.212-1.26.418-1.89.63-1.314.435-2.621.924-3.958,1.3-1.53.436-3.073.842-4.6,1.3-2.4.565-4.805,1.16-7.208,1.713a1.182,1.182,0,0,0-.921,1.092c-.955.066-1.909.142-2.863.2-2.173.129-4.34.271-6.513.388-2.237.13-4.469.283-6.712.377-2.368.095-4.741.171-7.108.289ZM34.2,321.386c-1.272-.959-2.55-1.913-3.822-2.873-.171-.13-.33-.289-.494-.436-.36-.312-.725-.63-1.084-.948q-.847-.75-1.708-1.5c-.983-.983-1.972-1.954-2.962-2.932-.406-.4-.765-.848-1.148-1.272-.412-.465-.83-.924-1.236-1.389-1.366-1.785-2.727-3.569-4.063-5.365-1.131-1.525-2.15-3.132-3.215-4.7-.43-.754-.854-1.5-1.284-2.249-.318-.554-.636-1.113-.948-1.667-.124-.212-.259-.418-.365-.636-.748-1.554-1.484-3.109-2.238-4.652a55.169,55.169,0,0,1-2.027-5.305c-.1-.32-.18-.642-.268-.963q.675-1.1,1.371-2.19a16.082,16.082,0,0,0,.63,2.952,27.57,27.57,0,0,0,2.278,5.193c.489.86,1.013,1.678,1.561,2.5.371.566.736,1.125,1.136,1.673.512.695,1.025,1.39,1.531,2.084.46.63.966,1.231,1.449,1.844.359.453.712.918,1.083,1.365.943,1.149,1.879,2.309,2.839,3.451q1.634,1.944,3.279,3.886c1.031,1.225,2.1,2.415,3.151,3.622.83.954,1.684,1.873,2.543,2.8q1.131,1.227,2.273,2.455c.27.293.534.59.82.871,1.678,1.667,3.356,3.328,5.051,4.971l-.112-.112c.118.118.248.23.377.347,1.425,1.278,2.862,2.556,4.287,3.834,1.013.9,2.061,1.754,3.1,2.632.275.231.553.46.829.69-.7-.412-1.4-.813-2.089-1.231-1.949-1.177-3.88-2.384-5.812-3.6C37.318,323.524,35.77,322.446,34.2,321.386Zm15.963-100.2q3.135-3.525,6.312-7,3.2-3.515,6.394-7.042-1.635,1.9-3.271,3.792c-2.19,2.537-4.4,5.046-6.618,7.56-.854.966-1.732,1.92-2.6,2.874q-1.22,1.333-2.432,2.667c-.4.442-.807.866-1.2,1.313q-.456.474-.915.947c.4-.489.8-.978,1.207-1.459C48.088,223.619,49.1,222.377,50.167,221.182ZM194.426,44.563a17.579,17.579,0,0,0,1.272-3,17.156,17.156,0,0,0,.73-4.245c.111-.339.205-.68.294-1.024.085.266.18.529.258.8.048.17.095.34.135.51-.059.925-.159,1.85-.271,2.768a15.221,15.221,0,0,1-.312,1.614c-.029.082-.053.17-.088.253a.894.894,0,0,1-.048.106c-.2.317-.4.623-.617.941-.529.677-1.083,1.322-1.673,1.95l-.106.1C194.142,45.075,194.292,44.824,194.426,44.563ZM182.314,85.778a1.491,1.491,0,0,0-.569.268c.135-1.123.268-2.246.411-3.369l.014-.111C182.219,83.634,182.265,84.705,182.314,85.778Zm.3,252.91a.053.053,0,0,0-.024.006l.071-.03.02-.007h0l.008,0h0c.05-.021.1-.038.149-.06.165-.065.324-.13.483-.195l-.135.053c.2-.082.412-.165.612-.253l-.023.014c.122-.05.243-.1.359-.144-.023.006-.047.018-.071.024.171-.071.342-.141.518-.206l-.141.053c.271-.106.536-.218.807-.33-.047.024-.094.041-.136.059.5-.206,1.007-.412,1.514-.618-.047.017-.089.035-.136.053.238-.094.475-.188.707-.287l-.012,0c.271-.112.542-.224.819-.33l-.142.053c.3-.12.588-.234.885-.359h0c.07-.029.141-.059.211-.082.022-.011.046-.02.069-.029a.553.553,0,0,0,.061-.024l0,0q3.635-1.473,7.246-3l-.01.006.016-.006a.021.021,0,0,1,.017-.006h0c1.2-.483,2.4-1,3.6-1.5s2.425-1.007,3.638-1.519c-.047.023-.094.041-.135.059,1.643-.66,3.262-1.378,4.887-2.067q1.8-.76,3.575-1.555c1.018-.453,2.031-.912,3.044-1.366.4-.182.8-.359,1.184-.553q1.429-.707,2.861-1.425c.595-.3,1.207-.571,1.785-.9-.048.023-.089.047-.136.07q2.01-1.135,4.018-2.273h-.008c.171-.1.336-.189.506-.283,0,0-.011.006-.017.006.636-.353,1.248-.766,1.867-1.155.83-.518,1.666-1.03,2.5-1.554,1.337-.83,2.638-1.731,3.951-2.6,1.272-.83,2.5-1.725,3.757-2.579.577-.394,1.136-.813,1.7-1.219s1.107-.783,1.643-1.189c2.667-2,5.3-4.052,7.873-6.177q2.067-1.706,4.121-3.415c1.261-1.049,2.485-2.132,3.7-3.233.607-.542,1.178-1.131,1.755-1.708.306-.306.589-.636.878-.954.206-.218.418-.436.606-.671.33-.406.666-.807,1-1.213.242-.294.448-.612.671-.919.519-.712,1-1.448,1.473-2.184.279-.433.537-.878.8-1.32-.129.394-.269.785-.423,1.174-.294.676-.612,1.335-.959,1.982a35.169,35.169,0,0,1-2.127,3.182c-1.578,2.02-3.368,3.868-5.122,5.729-.937.942-1.861,1.884-2.8,2.815a1.384,1.384,0,0,0,.948,2.42,1.367,1.367,0,0,0,.477-.085c-.141.116-.284.229-.424.345-.218.171-.424.341-.636.512l.009,0a.12.12,0,0,0-.021.017l-.118.1c.024-.024.047-.041.071-.065-.524.418-1.066.819-1.6,1.231-.8.612-1.607,1.225-2.4,1.837-1.319,1.013-2.709,1.949-4.057,2.927-.072.051-.146.1-.219.15a1.248,1.248,0,0,0-.262-.6,1.283,1.283,0,0,0-1.784-.123l-.583.442.135-.1c-.118.089-.235.183-.359.271l.014-.009q-2.308,1.738-4.642,3.442c-.665.483-1.343.96-2.02,1.431s-1.325.948-2,1.4c-1.655,1.089-3.3,2.178-4.987,3.215-1.362.843-2.745,1.659-4.127,2.472l.035-.438h0l.037-.463q-3.227,1.974-6.451,3.952c-1.431.772-2.868,1.533-4.32,2.266q-1.6.731-3.2,1.472c-1.048.489-2.085,1-3.121,1.519q-.736.363-1.464.741l-.077.031c-3.963,1.613-8.049,2.927-12.088,4.346q-3.586,1.254-7.19,2.473c-1.961.659-3.963,1.207-5.942,1.825-1.054.247-2.1.507-3.162.76l-2.255.547c-.277.065-.548.154-.825.195-2.119.34-4.244.682-6.363,1.039l1.5-.429c.565-.159,1.124-.318,1.684-.483.223-.059.453-.112.677-.188.719-.254,1.443-.489,2.161-.73,1.443-.489,2.885-.954,4.311-1.5,1.089-.412,2.184-.825,3.273-1.243.6-.223,1.21-.434,1.8-.681l0,0C182.481,338.74,182.549,338.716,182.613,338.688ZM141.829,194.065h-.006a47.484,47.484,0,0,1-5.645.69,44.46,44.46,0,0,1-5.619-.065h-.018c-.047-.006-.088-.006-.135-.012a.284.284,0,0,1,.029.006,46.988,46.988,0,0,1-6.006-.866,36.551,36.551,0,0,1-4.381-1.254,42.647,42.647,0,0,1-4.569-2.014,35.766,35.766,0,0,1-3.6-2.158.143.143,0,0,1-.029-.019l0,0h0l-.009-.007a.839.839,0,0,1-.094-.065.444.444,0,0,0,.065.042,27.018,27.018,0,0,1-2.609-2.085,29.45,29.45,0,0,1-2.265-2.38c-.421-.509-.822-1.032-1.209-1.564.071,0,.143,0,.214,0a26.414,26.414,0,0,0,8.345,5.976,32.41,32.41,0,0,0,3.948,1.488c.439.241.884.472,1.337.689a28.869,28.869,0,0,0,6.277,2.2,41.946,41.946,0,0,0,6.742.883,46.005,46.005,0,0,0,7.149-.212c.245-.025.488-.065.733-.092,1.262.127,2.526.2,3.791.272-.8.2-1.6.386-2.4.542l0,0C141.853,194.059,141.841,194.059,141.829,194.065Zm-46.352-13.9a19.379,19.379,0,0,1-2.091-.312c-.689-.165-1.371-.371-2.043-.6a1.242,1.242,0,0,0-.241-.406,1.145,1.145,0,0,0-.279-.2c.206-.252.409-.508.616-.759,1.908-2.321,3.851-4.617,5.717-6.966q.387-.488.773-.974a8.827,8.827,0,0,0,.18,1.442,13.131,13.131,0,0,0,1.093,3.078c.129.78.283,1.555.478,2.318.278,1.1.585,2.211.95,3.3-.612.035-1.224.065-1.832.1.053-.006.106-.006.153-.012A31.207,31.207,0,0,1,95.477,180.166ZM25.33,252.92c.994-1.439,2.017-2.854,3.017-4.286q1.018-1.355,2.025-2.713,1.786-1.887,3.564-3.79l.028-.028,0,0,.005,0s.01-.01.01-.015v0h0c.006-.011.017-.017.028-.028.1-.1.2-.2.3-.3q-1.587,2.069-3.175,4.138c-1.649,2.137-3.339,4.24-4.964,6.4-1.738,2.314-3.51,4.6-5.2,6.954-.043.059-.084.119-.127.178.281-.409.558-.819.84-1.227Q23.508,255.556,25.33,252.92ZM114.416,104.3a.022.022,0,0,0,.006-.018v.012a.141.141,0,0,0-.006.047c0,.006,0,.006-.006.006v.017c-.2,1.149-.365,2.309-.541,3.469-.16,1.054-.354,2.114-.489,3.174-.23,1.36-.483,2.717-.73,4.076,0-.454,0-.907,0-1.36.252-1.236.511-2.471.713-3.713.283-1.743.565-3.48.836-5.223.159-1.025.312-2.061.466-3.092.1-.647.2-1.3.31-1.941-.184,1.481-.369,2.961-.546,4.439.006-.052.011-.105.017-.158C114.44,104.127,114.428,104.215,114.416,104.3Zm4.629,49.961a11.992,11.992,0,0,0-3.089,2.347,13.865,13.865,0,0,0-2.3,3.547l-.046.022c-.977.494-1.937,1-2.891,1.537a1.214,1.214,0,1,0,1.143,2.143c.262-.149.531-.287.8-.433a13.556,13.556,0,0,0-.154,4.448,14.556,14.556,0,0,0,2.155,5.642,18.14,18.14,0,0,0,3.981,4.493c.235.188.477.371.718.553a27.057,27.057,0,0,0,2.344,3.568,19.282,19.282,0,0,0,1.7,1.858c-.772-.238-1.54-.487-2.3-.76a36.692,36.692,0,0,1-4.259-1.863,27.185,27.185,0,0,1-5.942-4.217h.007a44.153,44.153,0,0,1-3.546-3.823c-.187-.594-.348-1.2-.48-1.81,0,.01,0,.02,0,.03l-.011-.071-.006-.035c-.006-.018-.006-.035-.012-.053a.358.358,0,0,0,.012.041,20.483,20.483,0,0,1-.259-2.084,17.559,17.559,0,0,1,.006-2.026,15.589,15.589,0,0,1,.229-1.66,10.721,10.721,0,0,1,.3-1.049,11.345,11.345,0,0,1,.518-1.195c.024-.053.047-.1.07-.153l-.035.088a18.869,18.869,0,0,1,1.07-1.739,21.759,21.759,0,0,1,1.451-1.835,21.069,21.069,0,0,1,1.625-1.543,28.175,28.175,0,0,1,2.573-1.915,22.524,22.524,0,0,1,2.084-1.159,16.447,16.447,0,0,1,1.637-.665v0C118.427,154.408,118.736,154.337,119.045,154.265Zm53.723,2.123a27.316,27.316,0,0,1,2.682.87l-.048-.022c.031.012.061.026.1.04.011.006.029.012.041.017l-.008,0a23.618,23.618,0,0,1,2.322,1.119h-.006c.357.206.7.441,1.042.675-.079,1.285-.162,2.57-.239,3.855-.4-.214-.8-.42-1.212-.612a20.8,20.8,0,0,0-2-2.209,19.775,19.775,0,0,0-2.214-1.879,30.83,30.83,0,0,0-4.586-2.648A35.873,35.873,0,0,1,172.768,156.388ZM139.23,190.4c-.755-.087-1.5-.163-2.259-.249l.033.008-.051-.01-.014,0h.009l-.032-.007c.012.006.029.006.041.012a.666.666,0,0,0-.153-.018c-.053-.011-.106-.017-.165-.029a.021.021,0,0,1,.012.006.076.076,0,0,0-.036-.006l-.141-.018h.024c-.157-.017-.32-.035-.483-.058l.006,0a1.193,1.193,0,0,0-.165-.023h-.012c-.126-.017-.246-.038-.366-.05l.007,0c-.244-.034-.487-.063-.731-.091l.007,0a1.247,1.247,0,0,1-.136-.023H134.6c-.1-.012-.2-.024-.3-.042l.008,0a.112.112,0,0,0-.031,0l-.111-.014,0,0c-.077-.01-.157-.025-.234-.032l.039.008c-.182-.023-.359-.053-.541-.071h.017c-.108-.011-.216-.028-.319-.04l.013,0-.141-.015h.006a.389.389,0,0,0-.089-.012.434.434,0,0,0-.088-.012h.024l-.147-.018.006,0c-.05-.006-.1-.014-.15-.019l.008.005c-.024-.006-.047-.006-.071-.012s-.017,0-.023-.006h-.018l-.009,0h-.008c-.016,0-.031,0-.048,0a.282.282,0,0,1,.04,0l-.093-.014c-1.607-.206-3.209-.436-4.816-.63a71.644,71.644,0,0,1-7.554-1.416c-.412-.114-.819-.246-1.227-.375-.164-.1-.329-.193-.492-.293,1.577.407,3.169.755,4.772,1.014q1.713.283,3.439.56c.5.082,1.006.17,1.513.229,1.083.124,2.173.259,3.256.389.689.082,1.384.183,2.073.241h-.023c.347.036.694.065,1.047.1.377.065.76.124,1.143.177l3.38.477c1.229.174,2.463.292,3.7.387-.445.066-.89.134-1.336.19C140.559,190.569,139.892,190.469,139.23,190.4Zm-31.624-31.51a15.871,15.871,0,0,0-3.062,5.423,15.641,15.641,0,0,0-.493,5.029c-.233-.277-.457-.561-.7-.833-.266-.306-.548-.656-.849-.994l0-.027a17.781,17.781,0,0,1,.124-2.025c-.006.035-.012.076-.018.112q.072-.554.171-1.1a21.222,21.222,0,0,1,.92-2.121l0,.01a17.053,17.053,0,0,1,.954-1.561c.271-.359.559-.706.86-1.042.3-.307.614-.6.94-.884A18.77,18.77,0,0,1,108,157.74c.5-.318,1-.613,1.52-.89A17.382,17.382,0,0,0,107.606,158.888Zm-2.27,18.32a23.475,23.475,0,0,1-1.166-2.332c.012.036.03.071.041.112-.264-.624-.491-1.26-.7-1.9.12.147.238.3.358.443.029.035.059.07.088.106.476.573.95,1.148,1.428,1.72.175.441.36.879.567,1.309a31.943,31.943,0,0,0,1.63,2.983c-.237-.154-.476-.305-.706-.468l.026.02-.077-.056-.029-.02.015.01c-.12-.087-.232-.181-.35-.269C106.062,178.327,105.684,177.779,105.336,177.208Zm16.073-.24c-.035-.023-.07-.047-.106-.076l.059.041c-.065-.047-.136-.094-.206-.147-.411-.748-.8-1.513-1.175-2.282a24.31,24.31,0,0,1-1.128-2.777,16.122,16.122,0,0,1-.4-1.578,18.147,18.147,0,0,1-.212-1.837,17.874,17.874,0,0,1,.33-4.593c.135-.565.288-1.119.477-1.666,0,.006-.006.018-.006.024.164-.426.348-.835.551-1.24.113-.2.249-.4.371-.595.127-.042.252-.092.38-.132h0a48.886,48.886,0,0,1,5.569-1.326l.116-.017a1.346,1.346,0,0,0,.125.687,1.383,1.383,0,0,0,1.843.588c.317-.141.634-.288.95-.43a37.947,37.947,0,0,1,4.406-1.59l.088-.022c.1,0,.2-.012.3-.017h-.012c1.28-.048,2.563-.093,3.838-.085-.639.1-1.276.219-1.907.373a22.033,22.033,0,0,0-5.617,2.12,14.814,14.814,0,0,0-4.375,3.739,11.652,11.652,0,0,0-2.515,5.106,11.788,11.788,0,0,0,.554,5.57,11.1,11.1,0,0,0,1.225,2.591,11.962,11.962,0,0,0,3.273,3.274c-.871-.365-1.725-.754-2.567-1.189a42.042,42.042,0,0,1-4.2-2.5l.012,0A.131.131,0,0,1,121.409,176.968Zm-5.376-6.489c.035.2.071.4.118.595-.065-.118-.124-.241-.183-.365v.006a16.237,16.237,0,0,1-.606-1.525v.006q-.181-.593-.312-1.2c.006.024.006.047.011.071l-.017-.088-.008-.055c-.049-.334-.088-.664-.122-1a15.25,15.25,0,0,1,.012-1.643c0,.023-.006.047-.006.064,0-.023.006-.047.006-.07v-.018l0-.041c0-.011,0-.023,0-.035v.018a17.806,17.806,0,0,1,.265-1.8,14.64,14.64,0,0,1,.436-1.49c.036-.017.07-.036.106-.052.309-.139.628-.258.941-.39l-.005.013a16.228,16.228,0,0,0-.683,2.844A19.962,19.962,0,0,0,116.033,170.479Zm15.034-17.006a27.47,27.47,0,0,1,3.157.029l-.008,0a.022.022,0,0,0,.018.006c.053,0,.1.006.147.006h-.064a35.736,35.736,0,0,1,3.962.589c.084.018.166.044.249.064-.637.089-1.273.187-1.907.3a36.156,36.156,0,0,0-3.6.819c-.5.139-1,.284-1.5.439a58.248,58.248,0,0,0-8.922,1.286c.25-.237.5-.469.765-.693h-.006a.019.019,0,0,0,.012-.006c.035-.03.071-.059.106-.095a.129.129,0,0,1-.02.025c.457-.369.928-.709,1.414-1.032.555-.34,1.115-.647,1.7-.936.248-.118.5-.229.754-.335.035-.006.077-.018.112-.024A32.031,32.031,0,0,1,131.067,153.473ZM179.741,171.2a11.052,11.052,0,0,0,.2-3.341,8.691,8.691,0,0,0-.335-1.6l.035.023c.484.359.937.738,1.384,1.136.2.205.39.4.571.613.129.171.253.347.377.524.106.177.2.347.294.524a4.694,4.694,0,0,1,.183.483c-.825.477-1.637.978-2.444,1.478l.141-.088C180.011,171.033,179.876,171.117,179.741,171.2ZM134.9,181.9a20.62,20.62,0,0,0,3.014-.389c1.6-.365,3.168-.883,4.758-1.3l3.2-.848c1.9-.5,3.774-1.095,5.641-1.719a1.249,1.249,0,0,0-.925-2.321c-.531.183-1.061.365-1.588.538l0,0c-1.431.46-2.879.86-4.328,1.249-.977.259-1.955.512-2.932.777-1.631.447-3.233,1-4.882,1.325a23.911,23.911,0,0,1-2.75.275,17.867,17.867,0,0,1-1.837.007,10.222,10.222,0,0,1-1.036-.141,7.091,7.091,0,0,1-.695-.206c-.177-.076-.353-.153-.536-.247-.212-.118-.418-.242-.624-.371-.353-.259-.689-.53-1.019-.819-.277-.265-.536-.535-.789-.818-.212-.265-.418-.53-.606-.807a8.873,8.873,0,0,1-.554-.983c-.165-.371-.312-.754-.441-1.143a11.033,11.033,0,0,1-.525-2.808c-.006-.312,0-.631.018-.948.03-.271.065-.536.118-.8.059-.242.124-.477.206-.719.153-.4.33-.783.518-1.166.259-.459.536-.906.836-1.336.313-.412.63-.813.972-1.2a15.72,15.72,0,0,1,1.262-1.227l-.008,0a.086.086,0,0,0,.03-.023c.029-.024.058-.047.088-.077a.431.431,0,0,1-.047.048q.5-.4,1.042-.76c.48-.3.969-.569,1.478-.827a22.311,22.311,0,0,1,2.473-.981,27.881,27.881,0,0,1,2.939-.753,26.524,26.524,0,0,1,2.911-.348,33.876,33.876,0,0,1,3.605.046l-.015,0c.023.006.052.006.076.012h.053a43.948,43.948,0,0,1,5.464.83,32.24,32.24,0,0,1,3.8,1.073,20.352,20.352,0,0,1,1.989.874c.463.252.9.516,1.343.809a.448.448,0,0,1-.053-.041.619.619,0,0,0,.065.047c.016.012.031.023.047.033a18.722,18.722,0,0,1,1.566,1.274l.03.03c.006.005.006.005.011.005.424.407.826.831,1.209,1.267l-.007-.012c.012.017.023.029.035.047s.041.047.065.071l-.035-.036c.265.33.524.677.759,1.036.189.3.358.611.517.931.085.194.167.383.237.583s.106.387.153.586v.009c.006.035.018.07.024.106-.006-.03-.018-.065-.024-.1.024.164.047.329.059.494.012.336.006.66-.012.995a12.273,12.273,0,0,1-.2,1.307,15.5,15.5,0,0,1-.451,1.564,16.091,16.091,0,0,1-.665,1.56q-.321.584-.692,1.135h0l0,0-.009.014,0,0-.013.019,0,0v0l-.007.008-.013.02.007-.008-.009.012a.817.817,0,0,1-.05.07l.014-.021a18.415,18.415,0,0,1-1.233,1.487,32.732,32.732,0,0,1-2.738,2.544h.006c-.587.48-1.2.926-1.817,1.359-.228.033-.456.071-.685.1-1.413.183-2.821.342-4.234.5-1.148.124-2.308.242-3.457.413-1.218.188-2.448.329-3.66.547l.01,0c-.148.023-.3.052-.442.076l.014,0-.061.01.024-.007c-.113.024-.224.041-.331.059l-.06.012h0c-.165.035-.336.059-.5.082.059-.006.112-.018.165-.023l-.2.036c-1.037-.16-2.07-.343-3.1-.561q-2.7-.582-5.346-1.431c.094.012.188.024.282.03A20.2,20.2,0,0,0,134.9,181.9Zm22.665-22.611c.229.029.453.082.677.123.642.124,1.283.242,1.925.365l2.015.376c.525.326,1.044.663,1.552,1.017a34.141,34.141,0,0,1,3.18,2.508,23.193,23.193,0,0,1,1.749,1.8c.318.389.618.789.907,1.213.217.353.424.713.612,1.083.13.3.247.583.347.884.112.371.206.748.289,1.13a13.971,13.971,0,0,1,.182,1.573v-.036a15.2,15.2,0,0,1-.017,1.72,13.66,13.66,0,0,1-.23,1.7c-.094.407-.2.8-.33,1.2-.108.282-.23.554-.358.826q-1.244.648-2.484,1.291c-.889.448-1.8.86-2.7,1.284-.853.346-1.713.666-2.586.94-1.307.391-2.634.681-3.968.946A19.846,19.846,0,0,0,161,178.317a13.213,13.213,0,0,0,1.519-2.627,16.979,16.979,0,0,0,.9-2.726,8.543,8.543,0,0,0-.247-5.382,13.7,13.7,0,0,0-3.551-4.64,16.63,16.63,0,0,0-5.017-3.056,32.174,32.174,0,0,0-5.229-1.478c-.011-.024-.027-.047-.039-.071.711.055,1.42.113,2.136.154.271.023.536.07.807.106.665.088,1.331.171,2,.259C155.368,159,156.469,159.144,157.565,159.286Zm14.887,5.414.008.008,0,0,.024.02-.018-.015a15.267,15.267,0,0,1,1.195,1.246c.317.395.614.8.9,1.22a14.878,14.878,0,0,1,.869,1.547,9.969,9.969,0,0,1,.459,1.137c0-.012-.006-.024-.006-.035.1.335.189.665.259,1.007.036.241.071.483.083.724.006.176,0,.359-.006.536-.03.288-.071.571-.118.859-.047.2-.114.4-.17.595q-1.312.771-2.648,1.506a15.74,15.74,0,0,0,.268-3.838,11.529,11.529,0,0,0-1.424-5.252,17.185,17.185,0,0,0-2.874-3.6c.465.283.918.583,1.372.889A20.613,20.613,0,0,1,172.452,164.7Zm-35.668,22.314c.153-.029.3-.053.448-.076h-.024l.33-.053h-.012q1.353-.225,2.7-.457c.669.1,1.339.195,2.011.268a25.533,25.533,0,0,1-2.781.343,25.017,25.017,0,0,1-2.51,0Zm18.372.336-1.472.088c-1.137.065-2.267.13-3.4.2.053,0,.106,0,.159-.011-.826,0-1.649,0-2.473,0,.529-.2,1.061-.385,1.578-.608q.636-.018,1.272-.053a57.677,57.677,0,0,0,8.226-.985q-1.875.737-3.788,1.367C155.225,187.345,155.19,187.349,155.156,187.35Zm21.036-22.518a12.547,12.547,0,0,1,.668,1.184c.027.057.047.115.072.172a16.4,16.4,0,0,0-1.691-2.268c.131.056.264.107.395.164C175.823,164.332,176.018,164.574,176.192,164.832Zm-22.579-8.439q-.856-.114-1.713-.228c-.483-.065-.978-.083-1.466-.118-.815-.056-1.631-.119-2.448-.181.175-.015.349-.035.524-.051.831-.072,1.66-.148,2.49-.217Q152.314,155.972,153.613,156.393Zm-35.271,1.832c-.229.079-.458.158-.686.24.053-.063.1-.131.155-.193.2-.211.4-.406.619-.6.241-.194.482-.383.736-.559C118.874,157.47,118.6,157.844,118.342,158.225ZM133.253,185c-1.2.173-2.4.311-3.6.377-.2-.09-.394-.183-.589-.282a18.789,18.789,0,0,1-1.953-1.184,21.659,21.659,0,0,1-1.822-1.458c-.236-.223-.466-.459-.69-.694A44.7,44.7,0,0,0,133.253,185Zm44.344-7.64c-.56.522-1.137,1.015-1.719,1.5a10.8,10.8,0,0,0,.905-1.131,11.238,11.238,0,0,0,1-1.866c.175-.24.34-.484.5-.735.108-.067.217-.132.324-.2.33-.2.653-.406.983-.612.047-.03.094-.059.136-.083l.759-.477.512-.318-.141.089c.13-.077.259-.159.383-.236-.047.029-.094.053-.142.083.119-.071.23-.142.348-.212l-.141.088c.047-.03.1-.059.153-.094-.024.017-.047.029-.065.041a.487.487,0,0,1,.065-.035c-.465.624-.96,1.224-1.478,1.813-.407.43-.819.86-1.225,1.284C178.386,176.651,177.985,177,177.6,177.363Zm91.7,89.265c-.047-.324-.111-.644-.173-.966.209.414.422.826.614,1.247.086.194.16.392.244.586C269.763,267.2,269.535,266.911,269.3,266.628ZM161.484,155.267c1.263.453,2.5.964,3.723,1.486,1.184.507,2.35,1.037,3.492,1.62-.047-.024-.1-.047-.147-.071a28.188,28.188,0,0,1,2.932,1.743c.051.036.1.076.148.112l-2.2-.663c-.34-.195-.68-.389-1.024-.577a49.074,49.074,0,0,0-5.989-2.8c-.9-.338-1.806-.647-2.716-.951h.287c.165,0,.319-.006.484-.006h-.183l.855-.008C161.256,155.193,161.371,155.228,161.484,155.267Zm-9.576-2.422c-.583-.155-1.169-.3-1.755-.444q1.1.193,2.2.413C152.2,152.823,152.056,152.835,151.908,152.845ZM112.276,86.772c-.006.242-.01.486-.015.729a1.374,1.374,0,0,0-.2.065c.088-1.723.18-3.442.262-5.169.006.8.006,1.6.006,2.4C112.329,85.453,112.294,86.113,112.276,86.772Zm72.614,85.337.27.293c-.237.325-.481.644-.737.956C184.593,172.946,184.744,172.528,184.89,172.109Zm74.832,88.667q1.476,1.635,3,3.233c1.376,1.438,2.789,2.855,4.081,4.374.041.537.07,1.076.076,1.616a27.6,27.6,0,0,1-.188,3.027,22.7,22.7,0,0,1-.425,2.258c-.122.449-.269.885-.419,1.321-.088-.284-.179-.568-.282-.846-.247-.659-.488-1.325-.736-1.99-.259-.7-.589-1.378-.877-2.061-.247-.583-.536-1.148-.807-1.714s-.541-1.112-.83-1.66c-.347-.648-.671-1.325-1.042-1.961-.66-1.1-1.284-2.22-1.979-3.3-.765-1.2-1.525-2.4-2.3-3.586-1.15-1.776-2.278-3.566-3.4-5.357Q256.679,257.431,259.722,260.776Zm11.89,24.39c-.043.073-.079.147-.116.22a1.316,1.316,0,0,0-.175.072,4.9,4.9,0,0,0-.912.636,6.177,6.177,0,0,0-.583.666c-.224.276-.454.553-.678.836-.341.418-.677.836-1.012,1.26q-3.2,4.046-6.5,8c-1.031,1.237-2.085,2.461-3.139,3.674-.129.148-.259.3-.394.442q-.847.724-1.7,1.454c-.271.224-.548.442-.819.672.059-.047.112-.094.171-.135-.474.378-.941.764-1.41,1.146q1.095-1.063,2.176-2.142c.959-.966,1.89-1.961,2.826-2.95a40.708,40.708,0,0,0,3.439-4.1,24.983,24.983,0,0,0,2.644-4.434,16.668,16.668,0,0,0,1.46-5.017,16.789,16.789,0,0,0-.019-4.279c.15-.329.309-.653.456-.986.329-.748.618-1.519.918-2.279a16.978,16.978,0,0,0,.878-3.168c.135-.724.227-1.456.3-2.191.009.019.017.038.026.058-.008-.02-.017-.039-.026-.059v0c.13.29.261.578.391.87-.024-.059-.053-.118-.077-.177.065.135.118.271.183.406.018.047.041.095.064.142l0-.006c.218.53.471,1.06.659,1.6.165.489.336.978.5,1.467.123.453.271.912.353,1.366.076.412.147.824.224,1.236.106.848.194,1.69.253,2.55.012.484.018.972.008,1.459-.1.541-.214,1.081-.329,1.618ZM178.912,72c.018,1.26-.024,2.526-.03,3.792-.006.76-.023,1.52-.047,2.279l-.247,2.9c0-.006.006-.012.006-.023q-.027.309-.053.618v-.065c-.018.265-.041.524-.059.789-.006.018-.006.042-.012.065-.065.748-.106,1.507-.165,2.255-.118,1.7-.247,3.4-.365,5.106q-.468,6.465-.806,12.925c-.154,2.231-.271,4.469-.413,6.7-.023.453-.047.907-.064,1.354-.106,1.555-.212,3.109-.307,4.658-.2,3.3-.435,6.6-.612,9.9-.094,1.684-.183,3.368-.253,5.052-.012.383-.03.76-.036,1.143a13.535,13.535,0,0,0,.012,1.813,3.377,3.377,0,0,0,.66,1.891c0,.094-.006.188-.006.276-.094.807-.2,1.614-.289,2.415-.123,1.077-.265,2.149-.282,3.232a1.481,1.481,0,0,0,.347.978c-.041.883-.076,1.761-.106,2.644-.03.812-.041,1.625-.053,2.438-.012.524-.018,1.048,0,1.572s.029,1.042.1,1.56.177,1.007.271,1.514a1.579,1.579,0,0,0,1.561,1.213,1.346,1.346,0,0,0,.347-.042,1.573,1.573,0,0,0,.579-.287c.069.436.129.874.195,1.311a1.244,1.244,0,0,0-1.795.935,1.027,1.027,0,0,0,0,.124c-.456-.2-.917-.378-1.384-.541a33.015,33.015,0,0,0-6.678-1.543c-1.2-.153-2.4-.288-3.6-.353-.928-.058-1.862-.115-2.791-.111-.139,0-.278,0-.418,0-.17,0-.336,0-.5,0a.418.418,0,0,1,.061,0l-.755.006q-3.03-.981-6.139-1.677c-2.3-.512-4.628-.96-6.966-1.272a51.876,51.876,0,0,0-7.09-.483,44.54,44.54,0,0,0-6.8.477l-.01,0a61.485,61.485,0,0,0-6.492-.423,63.561,63.561,0,0,0-6.789.277,30.762,30.762,0,0,0-6.525,1.272,32.269,32.269,0,0,0-3.986,1.587,1.251,1.251,0,0,0-.431-.451,4.86,4.86,0,0,0-.8-.789,1.083,1.083,0,0,0-.413-.16,21.05,21.05,0,0,0,.605-2.719c.037-.245.066-.491.1-.736.238-.584.475-1.167.7-1.759a47.016,47.016,0,0,0,2.008-7.09c.247-1.231.424-2.467.618-3.71.289-1.831.471-3.674.66-5.517.082-.819.152-1.643.2-2.468.047-.718.112-1.448.088-2.178v-.024a1.16,1.16,0,0,0-.012-.416q.281-1.5.56-3c.277-1.514.565-3.027.824-4.546.2-1.148.407-2.29.607-3.439.118-.665.265-1.337.347-2.008l-.018.159c.2-1.178.36-2.361.542-3.539.165-1.06.354-2.108.489-3.162v-.025l0-.008a.065.065,0,0,0,0-.02v-.008h0v0h0v-.015c0-.027.006-.054.009-.082l0,.012c.286-2.267.561-4.535.842-6.808l-.007.027a.211.211,0,0,0,.006-.058c.047-.365.071-.736.1-1.1.071-.825.141-1.644.212-2.468.065-.8.135-1.59.2-2.385.03-.294.065-.589.077-.883.088-1.878.2-3.757.306-5.635.088-1.6.106-3.2.153-4.8.06-1.969.091-3.944.182-5.914.891.094,1.783.184,2.676.261.912.112,1.837.147,2.755.224,1.225.1,2.45.194,3.681.294,3.309.283,6.63.477,9.951.636.33.012.654.018.983.018.5,0,1-.012,1.5-.012.748,0,1.49-.012,2.232-.041,1.725-.065,3.462-.106,5.182-.23.795-.053,1.59-.076,2.379-.165,1.024-.106,2.055-.206,3.079-.312,1.731-.177,3.463-.383,5.194-.571,3.15-.348,6.318-.677,9.457-1.136h-.012c.771-.112,1.542-.224,2.313-.342l-.011.006.095-.018a.626.626,0,0,1,.106-.012h-.024a57.55,57.55,0,0,0,8.49-1.8C178.905,71.54,178.908,71.768,178.912,72ZM134.771,71.5l3.132.336a38.681,38.681,0,0,0,3.869.211c.07,0,.139-.007.209-.008l.042,0c-.012,0-.023,0-.034,0h.024l.051.006a.022.022,0,0,1,.018.006l-.011-.006c.907.123,1.813.253,2.725.365.931.124,1.849.259,2.774.371-2.038.129-4.075.206-6.113.294H141.1c-.1.006-.2.006-.294.006h-.071c-.559.006-1.119.012-1.678.012h.194c-.147,0-.294.006-.441.006h-.024c-1.331.011-2.667-.094-3.992-.171q-2.305-.141-4.6-.3c-2.791-.192-5.581-.414-8.371-.635l.033,0-.048-.006-.076-.006.044,0c-.9-.112-1.8-.191-2.707-.273.036-.384.06-.77.106-1.154a1.034,1.034,0,0,0-.106-.572c.969.19,1.936.382,2.911.543.871.135,1.737.253,2.614.359.824.1,1.643.147,2.479.194,1.578.088,3.162.124,4.74.188l1.646.069C133.9,71.4,134.333,71.457,134.771,71.5Zm33.6-5.671a.565.565,0,0,1,.089-.043.113.113,0,0,0-.024.008l.04-.018-.017.006c1.075-.481,2.143-.957,3.211-1.444h0c.819-.37,1.614-.812,2.415-1.218l0,0A1.7,1.7,0,0,0,174.2,64.4a1.726,1.726,0,0,0,1.8.911c-.275.127-.548.257-.824.38a13.691,13.691,0,0,1-1.484.535c-.648.177-1.29.319-1.949.431-1.566.206-3.144.323-4.717.406a1.47,1.47,0,0,0-1.342,1.566,1.418,1.418,0,0,0,.519.992c-2.14.228-4.287.406-6.437.49-1.025-.012-2.052-.059-3.077-.09.1-.027.208-.056.312-.082.724-.183,1.436-.4,2.155-.619s1.437-.418,2.137-.671c.948-.348,1.9-.7,2.85-1.037.7-.253,1.39-.582,2.079-.871s1.4-.571,2.078-.877l-.035.017A.981.981,0,0,1,168.37,65.832Zm-17.448,1.413c.6-.117,1.19-.288,1.779-.435,1.16-.283,2.32-.571,3.486-.854.512-.124,1.036-.236,1.543-.389l-.1.036c.194-.059.388-.124.583-.183l-.053.018.218-.065h0c.073-.021.145-.046.213-.068l-.007,0,.018-.006,0,0,.023-.008.017-.005a.377.377,0,0,0,.057-.018c.161-.047.326-.1.486-.145l-.007,0,.022-.008.014,0h0c.034-.012.066-.021.1-.03s.041-.012.059-.017c-.006,0-.018.005-.024.005.208-.063.422-.132.636-.2l.006,0h0l.007,0a.064.064,0,0,0,.018-.006c.042-.014.085-.024.124-.037s.081-.023.122-.035l0,0c.136-.041.271-.089.406-.13-.023.006-.041.018-.064.024.235-.071.465-.141.694-.212l-.188.053c.14-.041.275-.082.409-.123.115-.031.229-.066.339-.1l-.189.053c.269-.076.532-.158.8-.24l.029-.009h-.005l.037-.011-.009,0c.182-.056.36-.109.537-.166h.008l.027-.01c.053-.014.1-.031.153-.045l-.033.008.124-.035a.307.307,0,0,1,.062-.022l-.021.01c.084-.025.164-.05.247-.078.027-.007.049-.017.071-.022l.086-.027c-.015.005-.03.011-.045.015.124-.035.248-.071.365-.112h-.011c.429-.141.853-.324,1.277-.483.766-.294,1.526-.589,2.291-.877-.224.1-.453.206-.677.306.006,0,.012-.006.017-.006l-.008,0a.08.08,0,0,0-.021.008.1.1,0,0,1-.018.008v0l-.011.007.007,0,0,0h0l-.066.03c-1.266.554-2.55,1.072-3.822,1.608-.524.218-1.066.394-1.6.588-.633.233-1.266.454-1.893.686l0,0c-.8.241-1.6.488-2.4.73-.689.206-1.383.365-2.078.541-.666.171-1.325.342-2,.471-.76.148-1.525.307-2.291.448-.647.089-1.289.189-1.931.277-.518.076-1.037.177-1.555.218-.677.053-1.36.117-2.037.176l3.415-.671Zm-36.291,4a10.583,10.583,0,0,0-.583-2.3c-.032-.092-.074-.18-.113-.269.578.2,1.157.391,1.749.547q.745.2,1.5.375a1.339,1.339,0,0,0-.4.815c-.04.353-.069.709-.1,1.064-.649-.069-1.3-.142-1.946-.2l-.1-.014ZM115.8,74.2c.228.023.456.048.684.072-.046.992-.078,1.984-.1,2.972-.077,3.4-.171,6.79-.359,10.181-.083,1.508-.159,3.015-.283,4.523q-.156,1.819-.316,3.643a1.112,1.112,0,0,0-.895-.347c.046-.536.1-1.072.143-1.608.047-.512.064-1.036.094-1.554q.079-1.308.159-2.627c.076-1.195.094-2.4.129-3.592.106-3.209.018-6.43-.094-9.639q-.034-1.068-.09-2.137C115.182,74.119,115.49,74.164,115.8,74.2ZM97.7,163.1c.224-.406.454-.807.678-1.213a1.458,1.458,0,0,0,.045.367c-.241.384-.48.769-.74,1.142q-.457.663-.919,1.323C97.088,164.182,97.405,163.646,97.7,163.1Zm89.632,4.027c-.039-.053-.08-.1-.118-.158-.447-.612-.9-1.223-1.345-1.838a10.615,10.615,0,0,0-.2-1.044c.485.651.97,1.3,1.455,1.959.175.236.357.467.534.7A1.327,1.327,0,0,0,187.336,167.125Zm-5.95-45.367c-.247,3.374-.512,6.754-.742,10.134-.1,1.461-.2,2.924-.308,4.387,0-.111,0-.222,0-.333,0-2.091.106-4.187.188-6.277.165-4.084.4-8.162.736-12.241q.517-5.928,1.068-11.862c-.012.329-.014.659-.033.988q-.186,3.285-.371,6.566C181.763,116,181.6,118.879,181.386,121.758ZM146.562,8.258l.409.032c.118.012.236.024.354.03.182.018.359.035.53.047.147.018.294.03.441.041.165.012.324.03.5.041.259.024.518.048.783.071.554.047,1.107.094,1.661.147a.746.746,0,0,1,.118.006c.371.036.742.1,1.112.153.9.13,1.785.26,2.68.383l.129.018c-.8-.03-1.607-.018-2.408,0a1.632,1.632,0,0,0-1.337,2.638,30.642,30.642,0,0,0-6.5-.561,43.391,43.391,0,0,0-13.643,2.609,41.181,41.181,0,0,0-11.971,6.512,16.8,16.8,0,0,0-4.281,4.811,9.468,9.468,0,0,0-1.16,6.006,9.7,9.7,0,0,0,2.418,4.969l-.017.027a1.451,1.451,0,0,0,2.14,1.916,18.508,18.508,0,0,0,3.5,2.045,23.685,23.685,0,0,0,2.865,1.064,9.061,9.061,0,0,0,1.9,1.736,21.747,21.747,0,0,0,2.892,1.689c.977.472,1.966.919,2.95,1.378a12.026,12.026,0,0,0,3.2,1.019,31.092,31.092,0,0,0,3.221.353c.754.047,1.508.065,2.267.065.483,0,.972-.012,1.46-.024,1.166-.023,2.338-.035,3.5-.088,1.26-.047,2.514-.135,3.763-.294.936-.118,1.884-.23,2.808-.418.966-.2,1.926-.4,2.892-.595a42.379,42.379,0,0,0,4.345-1.03,35.119,35.119,0,0,0,4.988-2.144,21.608,21.608,0,0,0,3.645-2.073,5.854,5.854,0,0,0,1.76-2.414,7.649,7.649,0,0,0,.583-2.785A9.521,9.521,0,0,0,170.717,33c.013-.007.027-.011.04-.018a7.46,7.46,0,0,0,2.208-1.584,4.907,4.907,0,0,0,1.248-2.555,6.224,6.224,0,0,0-.265-2.809,12.936,12.936,0,0,0-3.6-5.088A35.849,35.849,0,0,0,158.533,13.9c-1.385-.519-2.792-.987-4.218-1.382.527.006,1.053.025,1.572.07.859.077,1.713.141,2.567.218l-.212-.018c1.1.153,2.214.277,3.321.418,2.2.277,4.381.636,6.542,1.1a58.07,58.07,0,0,1,6.948,1.972,51.166,51.166,0,0,1,5.415,2.369l.047.024-.017-.009.049.025-.016-.008c.025.013.05.027.075.043l.024.012a32.111,32.111,0,0,1,3.221,1.96c-.006,0-.012,0-.024-.011a26.232,26.232,0,0,1,2.556,2.073h0a23.515,23.515,0,0,1,1.892,2.044h0a23.736,23.736,0,0,1,1.719,2.4,25.384,25.384,0,0,1,1.272,2.367l-.008-.013.008.019.018.041-.012-.023a25.06,25.06,0,0,1,.913,2.4c-.012-.035-.018-.064-.03-.094a.929.929,0,0,1,.041.13.655.655,0,0,0,.019.063c.193.672.356,1.35.488,2.039.1.671.174,1.343.211,2.02.017.5.016.993-.011,1.49-.006.035-.006.064-.011.1-.3.7-.63,1.384-.978,2.062a33.924,33.924,0,0,1-2.014,3.268,37.4,37.4,0,0,1-2.935,3.582,43.52,43.52,0,0,1-3.825,3.56l.024-.023c-.021.016-.043.031-.064.048a1.6,1.6,0,0,0-.989.668c-.033.047-.055.1-.085.147-1.255.955-2.542,1.867-3.885,2.7a66.208,66.208,0,0,1-5.977,3.241c-1.736.62-3.485,1.206-5.249,1.725a47.585,47.585,0,0,1-5.146.978l.006,0c-.967.141-1.935.276-2.9.4-3.48.424-6.972.819-10.464,1.154-1.6.154-3.186.307-4.782.442-1.684.141-3.35.218-5.034.259-1.36-.006-2.726-.012-4.087-.035-1.783-.035-3.583-.106-5.354-.306-1.456-.206-2.885-.564-4.314-.895a87.464,87.464,0,0,1-9.182-2.907l.007,0-.036-.016-.064-.026.018.006c-1.037-.438-2.046-.932-3.05-1.442s-2-1.031-2.98-1.584c-.736-.43-1.466-.878-2.161-1.378-.241-.183-.465-.383-.689-.589a65.762,65.762,0,0,1-4.946-5.624c.029.03.059.071.088.107A33.059,33.059,0,0,1,99.6,44.089c.011.023.029.053.041.082-.018-.029-.03-.059-.047-.088-.194-.342-.371-.7-.536-1.054s-.3-.736-.412-1.107l0,.02c0-.012-.007-.025-.011-.038l-.008-.024,0,.012-.006-.021a.354.354,0,0,0-.018-.055.221.221,0,0,1,.012.027c-.065-.249-.12-.5-.165-.752-.011-.117-.017-.235-.023-.353-.006-.548,0-1.095,0-1.649q.361-1.077.8-2.137a29.889,29.889,0,0,1,1.46-3.068,14.842,14.842,0,0,1,.966-1.49q1.006-1.3,2.049-2.561c.612-.742,1.213-1.5,1.861-2.22s1.254-1.443,1.919-2.126c.73-.76,1.472-1.5,2.2-2.267.907-.9,1.832-1.79,2.75-2.685.4-.395.848-.754,1.267-1.125.494-.436.994-.865,1.477-1.307-.052.047-.111.088-.164.13.93-.729,1.849-1.474,2.78-2.208.5-.391,1.022-.766,1.542-1.143,1.731-.73,3.5-1.343,5.288-1.9,1.395-.348,2.761-.777,4.157-1.131,3.115-.777,6.247-1.5,9.38-2.19q3.531-.774,7.064-1.522ZM167.755,37.84c-.072.128-.151.253-.232.371a1.048,1.048,0,0,0,.071-.094,1.123,1.123,0,0,1-.1.135c-.059.077-.124.153-.188.224-.118.112-.242.218-.366.324-.223.165-.459.324-.694.471-.713.4-1.443.765-2.167,1.136-.866.448-1.738.9-2.626,1.3a27.227,27.227,0,0,1-2.728.991c-1.433.4-2.9.671-4.356.976-1.278.27-2.538.53-3.834.718h.024a70.443,70.443,0,0,1-9.055.522,37.252,37.252,0,0,1-4.53-.257l.011.005c-.583-.082-1.166-.188-1.742-.323-.259-.077-.512-.159-.765-.253-.837-.353-1.649-.754-2.474-1.131-.441-.2-.884-.4-1.322-.616q1.637.142,3.284.142c.378,0,.756-.011,1.134-.022a20.735,20.735,0,0,0,3.17.849c1.083.189,2.178.319,3.274.436a36.872,36.872,0,0,0,7.254.177,22.885,22.885,0,0,0,3.622-.571,32,32,0,0,0,3.1-.954,51.007,51.007,0,0,0,6.383-2.95c1.036-.554,2.061-1.125,3.056-1.737.919-.566,1.843-1.131,2.7-1.779.229-.165.453-.341.671-.524a6.645,6.645,0,0,1-.053.7c-.047.289-.106.577-.177.866-.064.206-.129.4-.212.6C167.853,37.66,167.8,37.75,167.755,37.84ZM120.44,35.888c-.1-.073-.19-.159-.288-.235.118-.179.228-.365.352-.539l.011-.016a22.279,22.279,0,0,0,2.157.678c.123.031.248.052.372.082-.011.419-.015.839.01,1.258.006.092.018.184.026.277-.236-.109-.473-.214-.706-.332l-.02-.013a.928.928,0,0,1-.13-.065l.015.007C121.62,36.647,121.022,36.287,120.44,35.888Zm-1.183-4.1c-.306-.171-.6-.347-.89-.542-.17-.129-.335-.265-.494-.406-.177-.171-.336-.342-.5-.518-.07-.1-.141-.2-.206-.3-.041-.065-.076-.135-.112-.2a1.155,1.155,0,0,0-.058-.153c-.012-.041-.024-.088-.036-.135-.012-.089-.023-.177-.029-.271a3.248,3.248,0,0,1,.011-.33,2.5,2.5,0,0,1,.054-.306l.005-.006c-.005.023-.011.053-.017.077.017-.054.029-.1.047-.154a.531.531,0,0,1,.041-.088,5.164,5.164,0,0,1,.271-.447c.118-.165.241-.319.371-.471.206-.213.424-.413.653-.607.071-.059.148-.118.224-.177a5.353,5.353,0,0,0-.023,1.3,6.924,6.924,0,0,0,.889,2.755c.074.125.165.237.245.357l-.264.353c-.065.087-.123.18-.187.268Zm2.573-3.7c-.029-.177-.047-.347-.059-.53,0-.106.006-.212.012-.318.012-.141.035-.277.059-.412.041-.159.082-.312.135-.465.047-.112.094-.224.147-.33.089-.159.183-.318.277-.471.106-.136.224-.271.336-.407.188-.188.383-.371.589-.547a15.223,15.223,0,0,1,1.313-.919.14.14,0,0,1,.035-.023c.557-.148,1.119-.265,1.683-.375-.564.5-1.115,1.009-1.642,1.549a34.663,34.663,0,0,0-2.845,3.424C121.856,28.2,121.841,28.144,121.83,28.086ZM139.5,14.732a41.416,41.416,0,0,1,4.784-.543h.018c-1.331.171-2.656.395-3.957.671-1.007.212-2.014.436-3.021.648-.8.165-1.584.418-2.367.625-.689.182-1.372.376-2.049.594-.765.242-1.555.454-2.308.742-.507.2-1.013.389-1.525.583-.324.13-.666.236-.984.383-.088.041-.176.076-.265.118.43-.212.86-.418,1.3-.619a47.228,47.228,0,0,1,5.217-1.966A46.678,46.678,0,0,1,139.5,14.732Zm9.018,2.225c.369-.012.737,0,1.106-.008-.378,0-.755.01-1.132.011l.056,0Zm2.826,5.249.03.011h0c.036.012.072.021.108.03.012,0,.024.006.036.006h-.006A50.92,50.92,0,0,1,157.3,24.1a39.809,39.809,0,0,1,4.185,2.012,22.59,22.59,0,0,1,1.9,1.24q.783.617,1.5,1.3a19.4,19.4,0,0,1,1.364,1.507c.079.105.148.218.225.324-.1.065-.187.141-.286.2a41.692,41.692,0,0,1-3.94,2.037l-1.184.212c-1.465.189-2.92.412-4.386.566-1.608.17-3.221.359-4.834.512-1.661.153-3.322.341-4.982.459-1.79.13-3.58.247-5.37.365-1.272,0-2.55.029-3.822.047l-1.684.018c-.6.006-1.207-.036-1.808-.065-.477-.023-.948-.053-1.425-.088-1.037-.311-2.068-.65-3.081-1.019h0c-.38-.141-.754-.3-1.13-.45-.022-.065-.05-.129-.071-.2-.065-.265-.124-.518-.165-.777a11.684,11.684,0,0,1-.106-1.289c.011-.371.035-.748.07-1.125.042-.318.1-.63.171-.942.106-.154.218-.307.33-.46.235-.3.483-.588.748-.871,0,.006-.006.006-.006.012.165-.165.335-.324.512-.471.639-.469,1.313-.874,1.987-1.29h0l.008,0,0,0,.009,0a1.129,1.129,0,0,0,.118-.077.855.855,0,0,1-.077.054c1.229-.676,2.451-1.381,3.731-1.946.686-.272,1.381-.518,2.087-.722,1.066-.271,2.155-.447,3.244-.636.6-.1,1.2-.212,1.808-.306,1.349-.218,2.7-.436,4.046-.677.282-.047.559-.1.836-.153,1.188.234,2.369.509,3.546.812Zm7.92-1.119c1.454.271,2.915.542,4.352.919a31.54,31.54,0,0,1,3.6,1.248c.287.124.563.26.84.4.075.106.155.211.227.318.129.235.253.465.371.706.076.2.147.4.217.6.048.189.089.371.124.56.03.206.053.406.065.612,0,.165-.006.324-.018.489s-.047.33-.082.494a5.5,5.5,0,0,1-.165.56c-.041.106-.088.212-.135.312s-.112.178-.167.266a17.328,17.328,0,0,0-3.244-3.249,28.13,28.13,0,0,0-5.617-3.215c-1.078-.482-2.167-.936-3.286-1.313-.424-.141-.848-.277-1.278-.406C156.483,20.581,157.872,20.829,159.268,21.087ZM134.719,39.212a17.671,17.671,0,0,1-1.819-.877c-.108-.063-.206-.14-.311-.2.714.219,1.446.4,2.166.59.871.242,1.761.454,2.656.619-.483.039-.96.067-1.442.091-.212.008-.425.005-.638.011-.215-.082-.433-.159-.647-.246Zm11.571,1.876h-.028c.386-.083.776-.154,1.159-.248,1.107-.271,2.208-.542,3.315-.818.342-.083.683-.171,1.025-.253.065-.012.135-.036.2-.053.094-.03.183-.059.283-.089.247-.076.5-.153.753-.235l.9-.277h0c.4-.124.8-.241,1.2-.365l-.183.053,1.065-.325.06-.017h-.012c.029-.006.053-.017.083-.023l.025-.009h0l.013,0,.018-.006-.012,0c.018-.007.037-.014.057-.02l-.027.012.039-.012a.371.371,0,0,0,.076-.024c.647-.211,1.272-.468,1.908-.7.595-.218,1.207-.418,1.79-.659.226-.1.452-.19.679-.285-1.341.735-2.706,1.429-4.1,2.052a35.132,35.132,0,0,1-4.079,1.486,23.4,23.4,0,0,1-2.532.548A29.149,29.149,0,0,1,146.29,41.088ZM125.657,28.23c-.047.183-.083.36-.118.542l-.018.106c-.129.2-.253.4-.383.595-.235.359-.441.742-.665,1.112-.095.16-.19.322-.281.485-.068-.046-.139-.087-.207-.134-.094-.07-.182-.148-.274-.22l.114-.154c-.011.015-.02.031-.03.047s-.023.031-.034.047C124.391,29.849,125,29.025,125.657,28.23Zm.1,9.653a3.085,3.085,0,0,1-.113-.314l-.035-.176c-.038-.327-.049-.653-.061-.981.5.1,1.009.173,1.515.257a13.177,13.177,0,0,0,2.112,2.484q-.934-.135-1.862-.33c-.413-.1-.823-.2-1.229-.316C125.973,38.3,125.86,38.1,125.758,37.883Zm24.034-20.935c1.043,0,2.084.019,3.123.1.705.064,1.4.164,2.1.279A49.765,49.765,0,0,0,149.792,16.948ZM131.508,8.685c.049-.008.1-.011.148-.019L130.228,9c.082-.033.164-.063.246-.1C130.819,8.831,131.162,8.748,131.508,8.685ZM96.717,45.307c.053.1.106.2.159.289a27.2,27.2,0,0,0,1.938,2.821c.653.859,1.336,1.707,2.043,2.526.547.642,1.066,1.319,1.643,1.931a29.406,29.406,0,0,0,2.473,2.532,31.7,31.7,0,0,0,5.93,3.574c1.142.589,2.29,1.16,3.48,1.655.965.4,1.949.8,2.95,1.113,1.595.489,3.185,1,4.793,1.437.8.223,1.6.465,2.408.653a38.936,38.936,0,0,0,3.928.813,63.748,63.748,0,0,0,6.789.394c1.772.036,3.539.018,5.312-.023,1.572-.035,3.144-.183,4.7-.33,1.757-.168,3.507-.33,5.263-.5-.1.023-.2.05-.3.072-2.244.489-4.522.866-6.778,1.348-1.595.212-3.185.466-4.775.695-.666.094-1.331.189-1.991.289-.8.112-1.613.165-2.42.229-1.031.084-2.068.149-3.1.2-1.007.04-2.019.053-3.032.047l-2.5-.477c-2.061-.507-4.122-1.007-6.177-1.514-.889-.223-1.773-.477-2.65-.712-1.375-.376-2.732-.758-4.077-1.228l-.021-.009-.159-.053c.03.009.06.018.09.029a23.283,23.283,0,0,1-2.21-.988,66.682,66.682,0,0,1-6.843-4.007,34.5,34.5,0,0,1-3.032-2.494,17.021,17.021,0,0,1-1.266-1.337c-.183-.241-.353-.477-.518-.73-.1-.165-.194-.342-.289-.518-.08-.189-.149-.377-.212-.572h0l-.006-.017h0a61.8,61.8,0,0,1-1.57-6.862C96.7,45.494,96.707,45.4,96.717,45.307Zm13.2,21.874a5.43,5.43,0,0,0-.122.723c-.069-.28-.13-.561-.207-.839Zm-7.3,80.142c-.118.267-.234.534-.351.8l.227-.713c.018-.035.03-.076.047-.112.256-.6.5-1.2.735-1.805Q102.94,146.409,102.61,147.323ZM95.6,166.363l-1.36,1.858q.257-.528.492-1.066A5.665,5.665,0,0,0,95.6,166.363ZM12.158,267.452c.351-.349.7-.706,1.047-1.056-.532.895-1.045,1.8-1.507,2.729a32.962,32.962,0,0,0-2.173,5.3c-.186.635-.351,1.282-.493,1.934q-1.281,1.92-2.537,3.858c-.046-.447-.085-.895-.108-1.345-.006-.6.005-1.189.047-1.784.053-.4.112-.8.188-1.2a13.529,13.529,0,0,1,.448-1.513c.2-.5.43-.983.671-1.466.52-.933,1.076-1.84,1.631-2.748C10.3,269.261,11.237,268.364,12.158,267.452Zm27.086,61.165c2.362,1.5,4.74,2.962,7.149,4.37,1.23.724,2.444,1.472,3.7,2.143.931.507,1.867,1.007,2.8,1.507.488.259.971.548,1.472.784q2.241,1.052,4.482,2.114c.394.349.792.693,1.188,1.04.229.2.452.409.678.613-.86-.411-1.717-.83-2.574-1.242-1.32-.63-2.609-1.319-3.9-1.99.07.035.135.07.206.106-1.16-.642-2.332-1.272-3.5-1.908-.507-.283-1-.595-1.507-.895-.625-.371-1.249-.736-1.873-1.113-1.113-.666-2.2-1.4-3.292-2.091-1.065-.677-2.1-1.395-3.15-2.1-1.11-.74-2.211-1.495-3.314-2.248Q38.525,328.163,39.244,328.617Zm41.024,20.038c-1.048-.33-2.1-.665-3.156-.989-.913-.277-1.814-.636-2.72-.954-.99-.348-1.973-.689-2.95-1.036q-1.963-.768-3.922-1.538l-.106-.1c-.509-.482-1.02-.961-1.53-1.443,1.612.671,3.23,1.326,4.863,1.95,2.715,1.043,5.476,1.967,8.232,2.88,2.281.756,4.569,1.485,6.858,2.214q-2.3-.339-4.6-.675C80.912,348.86,80.589,348.754,80.268,348.655Zm75.408-.119c-5.953.777-11.918,1.489-17.877,2.279-3.027.4-6.059.742-9.1,1.06-2.9.3-5.83.4-8.739.535-1.254.024-2.508.012-3.763.024-.529.006-1.065-.047-1.595-.077-.807-.035-1.614-.07-2.42-.111-.367-.018-.733-.045-1.1-.066q-3.01-.523-6.008-1.116l.218.053c-1.29-.288-2.585-.565-3.875-.842l.218.053c-1.342-.3-2.679-.612-4.016-.913-.483-.112-.96-.241-1.443-.359-.677-.171-1.366-.33-2.037-.518-2.544-.718-5.07-1.466-7.584-2.261-4.758-1.5-9.493-3.051-14.186-4.746-2.661-1.025-5.323-2.073-7.943-3.216-1.372-.6-2.756-1.171-4.116-1.807q-1.285-.6-2.575-1.21c-1.225-1.049-2.439-2.11-3.679-3.143l-.326-.273c.519.257,1.033.524,1.556.772.995.471,1.985.96,2.991,1.4,1.025.453,2.044.936,3.086,1.348,1.3.506,2.585,1.025,3.88,1.531.884.354,1.79.648,2.686.96.953.336,1.9.7,2.867,1.007q2.023.645,4.045,1.3c2.085.677,4.187,1.3,6.283,1.926.984.294,1.979.559,2.962.836.925.259,1.849.554,2.78.777,1.354.324,2.709.66,4.063.984.759.188,1.513.377,2.278.529q2.218.433,4.434.872c.707.135,1.408.277,2.12.383q2.244.327,4.493.665c.724.112,1.455.224,2.185.3,1.478.16,2.95.312,4.428.466.766.082,1.531.182,2.3.229,1.437.094,2.88.189,4.317.289.794.053,1.584.118,2.378.147,1.4.041,2.8.077,4.2.118.824.023,1.648.07,2.467.07h.242c2.4-.029,4.805-.035,7.2-.076h-.159c.695,0,1.4-.047,2.09-.077l3.693-.141c1.442-.053,2.879-.135,4.322-.212,4.534-.247,9.068-.506,13.6-.813,1.066-.076,2.138-.117,3.2-.223l2.3-.23q-2.244.584-4.5,1.14C157.571,348.286,156.626,348.413,155.676,348.536ZM187.335,78.2c-.407,5.458-.848,10.911-1.272,16.369-.218,2.756-.453,5.512-.63,8.268s-.407,5.5-.519,8.255c-.076,1.855-.159,3.71-.235,5.565-.035.9-.076,1.8-.088,2.691-.024,1.867-.048,3.739-.071,5.606-.006.924-.018,1.843.006,2.761.047,1.855.088,3.71.141,5.559.024,1.007.088,2,.147,3,.095,1.578.189,3.15.289,4.729.029.518.1,1.036.147,1.56.094.954.189,1.914.283,2.874.053.582.088,1.171.177,1.748.1.619.188,1.243.288,1.861.141.948.289,1.9.436,2.844.17,1.113.412,2.22.671,3.315a61.039,61.039,0,0,0,3.539,10.435c.479,1.075,1,2.137,1.518,3.2l-2.432-3.128a78.7,78.7,0,0,1-4.71-6.518c-.006-.006-.006-.006-.006-.012h-.006c0-.006,0-.012-.006-.012-.018-.029-.041-.059-.059-.094.006,0,.006.006.012.012q-.768-1.281-1.4-2.621c-.3-.671-.565-1.348-.812-2.037a1.073,1.073,0,0,0-.776-.663c-.065-.438-.129-.876-.2-1.314.213-3.644.434-7.287.685-10.93.507-7.366,1-14.732,1.561-22.1.07-.889.111-1.778.159-2.673q.194-3.507.394-7.013c.059-.984.112-1.967.165-2.944.024-.383.065-.772.065-1.155,0-1.413.041-2.832.064-4.251q.054-3.569.106-7.137c.018-1.007.071-2.02.024-3.027q-.141-3.02-.271-6.041c-.047-1.107-.1-2.214-.147-3.321-.024-.506-.035-1.019-.071-1.525V80.5c0-.307-.041-.607-.065-.907q-.1-1.033-.194-2.067c-.135-1.507-.271-3.009-.412-4.516-.077-.813-.141-1.625-.212-2.438l-.009-.1c.033-.332.068-.664.1-1,.1-.046.2-.085.3-.132.665-.324,1.324-.665,1.978-1.031.259-.111.518-.217.777-.329.449-.19.9-.385,1.342-.59C187.812,70.989,187.6,74.6,187.335,78.2Zm4.2-17.858c-.153.154-.318.3-.474.447q.042-.356.083-.711c.523-.413,1.036-.842,1.533-1.291.146-.085.3-.166.44-.251C192.616,59.16,192.092,59.757,191.535,60.339ZM166.053,3.953c.772.159,1.532.348,2.291.536.353.106.713.218,1.06.324.283.088.577.153.848.259.654.241,1.307.488,1.967.724,2.092.924,4.167,1.895,6.167,3.009a42.793,42.793,0,0,1,3.943,2.573c-.011-.006-.017-.011-.023-.011s.017.011.023.017l.038.026,0,0,.006.005c.031.022.061.047.094.071l-.014-.009c.829.641,1.636,1.308,2.4,2.026l-.014-.012c.012.011.023.023.036.033a.927.927,0,0,1,.071.07c.9.884,1.776,1.792,2.641,2.708a40.44,40.44,0,0,0-6.9-3.776c-.44-.191-.892-.352-1.337-.532-.466-.284-.925-.582-1.4-.855a68.746,68.746,0,0,0-12.713-5.983c-.683-.23-1.372-.442-2.061-.636C164.134,4.33,165.094,4.147,166.053,3.953Zm-7.972-.807c-.242.047-.483.1-.725.148-.329-.054-.665-.1-1-.142h-.023C156.921,3.146,157.5,3.14,158.081,3.146ZM93.237,48.628c0,1.162-.033,2.33.064,3.486-.111-1.048-.191-2.1-.223-3.149a31.7,31.7,0,0,1,.231-3.9c.02.133.042.266.063.4,0,.012,0,.023,0,.035C93.267,46.538,93.237,47.586,93.237,48.628Zm11.447,20.357a15.7,15.7,0,0,1-1.672-.813,21.927,21.927,0,0,1-1.873-1.242c-.509-.4-.991-.827-1.454-1.267h0c-1.142-1.125-2.29-2.256-3.315-3.486a18.789,18.789,0,0,1-1.325-1.873c-.153-.265-.294-.536-.424-.818a4.306,4.306,0,0,1-.165-.436c-.218-.842-.353-1.708-.506-2.555-.157-.876-.305-1.748-.441-2.628-.034-.248-.067-.5-.1-.747a9.275,9.275,0,0,0,1.943,4.929,24.61,24.61,0,0,0,5.811,4.7,31.378,31.378,0,0,0,5.664,3.217,1.268,1.268,0,0,0-.277.464,7.858,7.858,0,0,0-.189,2.167c-.006.319-.015.636-.023.954C105.781,69.381,105.228,69.2,104.684,68.985Zm-2.54,69.346c.671-2.691,1.272-5.405,1.843-8.126.324-1.531.648-3.067.948-4.61.318-1.608.613-3.221.895-4.841.268-1.534.485-3.08.677-4.628-.006.071-.014.141-.019.212-.083.7-.16,1.407-.248,2.114q-.246,2.1-.488,4.209c-.055.332-.111.664-.163,1-.129.8-.259,1.6-.382,2.4-.042.241-.071.489-.124.73-.306,1.4-.595,2.815-.895,4.222-.171.789-.336,1.584-.506,2.379-.059.265-.1.53-.171.789.018-.053.029-.112.047-.165-.677,2.544-1.331,5.093-2,7.637a.235.235,0,0,0,.006-.029c-.024.088-.048.183-.071.271-.006.035-.018.065-.023.094,0-.012,0-.023,0-.035a.408.408,0,0,1-.023.088c.012-.041.023-.088.035-.135-.345,1.153-.72,2.3-1.091,3.448C100.969,143.01,101.559,140.671,102.144,138.331ZM5.712,301.992a18.113,18.113,0,0,1-1.087-1.481,14.178,14.178,0,0,1-.706-1.313c-.159-.377-.306-.76-.436-1.148-.1-.359-.182-.718-.253-1.084-.053-.376-.094-.753-.124-1.136-.011-.412,0-.819.024-1.231.065-.53.147-1.06.253-1.59.066-.267.153-.531.229-.8.087.3.164.609.261.908.459,1.407.865,2.85,1.407,4.227.719,1.85,1.408,3.716,2.232,5.524.327.719.676,1.429,1.028,2.137C7.564,304.037,6.6,303.056,5.712,301.992ZM46,337.383c-.594-.306-1.189-.612-1.79-.907-1.484-.86-2.973-1.713-4.422-2.62-.577-.359-1.154-.725-1.731-1.084-.206-.129-.418-.247-.618-.388q-1.113-.8-2.22-1.573c-1.718-1.368-3.416-2.761-5.057-4.228.381.262.757.532,1.14.791,2.444,1.661,4.87,3.339,7.314,4.994,1.219.824,2.426,1.672,3.662,2.461s2.456,1.613,3.716,2.361c.642.38,1.28.765,1.921,1.145l-.13-.057C47.176,338.019,46.587,337.677,46,337.383Zm106.887,19.045c-1.614.176-3.227.318-4.841.4.012,0,.03-.006.041-.006a71.052,71.052,0,0,1-7.6-.129q-2.022-.134-4.045-.271c-.31-.021-.62-.041-.929-.063.284-.038.569-.069.853-.113,2.915-.453,5.818-.936,8.715-1.508q4.725-.936,9.445-1.943c1.592-.337,3.175-.718,4.755-1.112q2.16-.282,4.319-.586c1.361-.2,2.726-.377,4.075-.636,1.578-.3,3.144-.612,4.711-.965,1.372-.313,2.75-.642,4.092-1.06,1.514-.477,3.015-.954,4.517-1.461,1.324-.447,2.626-.965,3.933-1.46,2.779-1.054,5.565-2.114,8.362-3.133,1.454-.536,2.9-1.077,4.357-1.613,1.508-.554,2.992-1.178,4.487-1.761.479-.189.946-.41,1.413-.623.048,0,.095.014.144.016a8.663,8.663,0,0,0,1.6-.094l.067-.014c-.017.01-.036.018-.053.028a1.891,1.891,0,0,0-.566.546l-4.771,2.028c-.541.23-1.083.442-1.643.642-1.43.518-2.861,1.042-4.292,1.56-.913.33-1.826.7-2.75,1-.9.288-1.79.588-2.685.883-2.043.665-4.081,1.354-6.13,2-2.338.736-4.675,1.46-7.007,2.2l.217-.07c-5.853,1.69-11.676,3.538-17.6,4.975a1.759,1.759,0,0,0-1.332,1.786q-1.145.165-2.286.333C153.938,356.274,153.408,356.369,152.885,356.428Zm88.231-34.489c-.683.5-1.337,1.031-2,1.543-.053.047-.113.088-.171.13.035-.03.07-.059.106-.1,1.045-.939,2.1-1.865,3.154-2.8q.6-.459,1.206-.917c.518-.4,1.054-.778,1.56-1.2l0,0c.35-.285.7-.576,1.044-.864q-.562.5-1.126.989C243.642,319.819,242.376,320.879,241.116,321.939Z"/><path d="M210.949,343.8c-.018.009-.038.015-.057.024l-.025.011Z"/><path d="M115.562,284.159a21.451,21.451,0,0,0-1.937-2.438,33.883,33.883,0,0,0-5.058-4.392c-.642-.46-1.307-.9-1.985-1.32a20.585,20.585,0,0,0-1.242-1.913,21.415,21.415,0,0,0-2.179-2.55,14.948,14.948,0,0,0-2.238-1.9,8.529,8.529,0,0,0-2.755-1.189,7.584,7.584,0,0,0-2.656-.207,6.294,6.294,0,0,0-2.638.954,10.671,10.671,0,0,0-2.149,1.837,21.481,21.481,0,0,0-1.89,1.537,21.935,21.935,0,0,0-1.961,2.038,16.569,16.569,0,0,0-1.7,2.332,13.947,13.947,0,0,0-1.283,2.985,10.785,10.785,0,0,0-.489,2.9v.041c-.006.018-.006.041-.012.059a16.436,16.436,0,0,0,.135,6.324,18.992,18.992,0,0,0,2.32,5.942,17.92,17.92,0,0,0,1.855,2.538,12.2,12.2,0,0,0,2.132,1.949,11,11,0,0,0,2.791,1.384,9.846,9.846,0,0,0,2.814.547,10.591,10.591,0,0,0,1.779-.112c.388.183.783.353,1.184.507a17.2,17.2,0,0,0,3.144.854,15.892,15.892,0,0,0,2.838.282c.088,0,.177,0,.265-.006a15.837,15.837,0,0,0,6.018-1.354,14.109,14.109,0,0,0,4.952-3.462,11.9,11.9,0,0,0,1.814-2.7,8.555,8.555,0,0,0,.783-2.739,11.554,11.554,0,0,0-.989-5.882A17.315,17.315,0,0,0,115.562,284.159Zm-22.2-11.9c-.041.03-.088.059-.135.089.506-.306,1.006-.6,1.536-.872a1.217,1.217,0,0,0,.542-.577,3.255,3.255,0,0,1,.348-.076c.076-.012.153-.018.229-.024.265-.006.53-.006.8.012.283.029.554.071.836.124a7.731,7.731,0,0,1,.807.235,6.479,6.479,0,0,1,.63.277,8.4,8.4,0,0,1,.736.459c.259.189.506.389.748.6a8.681,8.681,0,0,0-1.243-.088h-.235c-.171.006-.342.011-.513.029a16.2,16.2,0,0,0-1.913-.277,11.6,11.6,0,0,0-3.41.248C93.2,272.358,93.28,272.312,93.363,272.258Zm-3.432,7.521v.017q.088-.9.265-1.785a15.855,15.855,0,0,1,.512-1.79h0a.127.127,0,0,1,.006-.018c.012-.042.029-.088.047-.136-.006.03-.018.053-.023.077.017-.053.041-.106.059-.159.359-.206.718-.4,1.095-.571.341-.142.689-.271,1.036-.389.265-.082.53-.153.8-.218a8.89,8.89,0,0,0-1.6,2.279,12.317,12.317,0,0,0-.9,2.668,12.474,12.474,0,0,0-.265,3.1,17.79,17.79,0,0,0,.424,3.1,19.241,19.241,0,0,0,1,3.268c.024.053.047.112.071.165a28.749,28.749,0,0,1-1.39-2.638,15.968,15.968,0,0,1-.576-1.51c-.006-.022-.014-.044-.018-.062a.421.421,0,0,0-.014-.046c-.157-.557-.279-1.126-.381-1.7-.091-.6-.161-1.191-.194-1.8A17.377,17.377,0,0,1,89.931,279.779Zm1.3,17.823c-.282-.212-.553-.429-.812-.665a14.65,14.65,0,0,1-1.166-1.248c-.159-.2-.312-.4-.459-.607a27.739,27.739,0,0,0,2.938,2.838C91.561,297.814,91.4,297.714,91.231,297.6Zm3.651-.312a29.6,29.6,0,0,1-2.673-2.178l.017.017a27.851,27.851,0,0,1-2.326-2.455l.028.028a.794.794,0,0,0-.063-.076.124.124,0,0,0-.017-.023.091.091,0,0,1,.008.013,31.987,31.987,0,0,1-1.916-2.651,19.65,19.65,0,0,1-.99-1.843c-.194-.442-.359-.889-.512-1.343a17.56,17.56,0,0,1-.429-1.746,14.178,14.178,0,0,1-.172-1.48v-.089c.024-.123.048-.247.071-.371a14.818,14.818,0,0,1,.46-1.59,16.117,16.117,0,0,1,.653-1.5c.118-.224.241-.442.377-.654a16.138,16.138,0,0,0,.076,3.916,16.342,16.342,0,0,0,.766,3.256,20.208,20.208,0,0,0,1.325,2.891,34.407,34.407,0,0,0,3.621,5.371c.624.753,1.249,1.519,1.873,2.278.253.307.524.607.8.9C95.53,297.744,95.206,297.52,94.882,297.29Zm4.858-1.6a19.347,19.347,0,0,1-3.2-3.922,28.555,28.555,0,0,1-1.458-2.716,20.342,20.342,0,0,1-.862-2.242,22.2,22.2,0,0,1-.514-2.218,18.046,18.046,0,0,1-.21-1.91c0-.035-.006-.065-.006-.094,0,.029.006.053.006.082a11.993,11.993,0,0,1,.035-1.213c.047-.406.106-.8.188-1.2.1-.432.231-.855.373-1.281a10.332,10.332,0,0,1,.446-1.022c.123-.223.253-.435.388-.647.165-.212.336-.418.507-.613.218-.223.447-.435.683-.636.218-.17.441-.329.671-.482.18-.1.362-.2.549-.285.09-.038.18-.075.275-.11.207-.063.413-.109.624-.155l.289-.039c.568.141,1.125.3,1.675.5l0,0a25.551,25.551,0,0,1,2.485,1.137c.389.212.778.418,1.16.636.307.306.6.624.872.954.176.23.353.459.524.7.071.141.141.288.206.435a28.152,28.152,0,0,1,1.131,2.933,26.413,26.413,0,0,1,.72,3.08,27.933,27.933,0,0,1,.3,2.843v.042a.276.276,0,0,1,.006.07.051.051,0,0,0-.006-.029c.018.636.006,1.266-.035,1.9-.147.353-.306.7-.477,1.048a14.285,14.285,0,0,1-1.054,1.719,15.231,15.231,0,0,1-1.095,1.308,23.546,23.546,0,0,1-1.985,1.831c.018-.012.03-.024.047-.035-.017.017-.041.029-.058.047l-.045.036-.01.008.007,0-.023.019.013-.012c-.38.3-.765.588-1.161.865-.206-.088-.407-.176-.6-.276-.177-.106-.347-.212-.518-.324C100.3,296.183,100.017,295.942,99.74,295.689Zm15.94-2.315c-.053.2-.118.4-.183.595-.117.306-.253.613-.4.907-.194.347-.406.677-.63,1.007-.265.365-.554.712-.854,1.054-.253.247-.506.489-.777.724a14.787,14.787,0,0,1-1.343.978l-.012.008,0,0,0,0-.009,0-.062.042.044-.03a15.257,15.257,0,0,1-1.484.789,17.061,17.061,0,0,1-1.731.672.249.249,0,0,0-.029.011c-.042.012-.077.024-.118.035a.606.606,0,0,0,.065-.023c-.543.16-1.1.295-1.651.4a14.934,14.934,0,0,1-1.612.177,14.5,14.5,0,0,1-1.519-.041c-.627-.061-1.247-.153-1.865-.276-.146-.029-.291-.062-.431-.1.123-.053.241-.112.365-.177.206-.106.412-.217.612-.329.183.041.371.07.554.094a5.107,5.107,0,0,0,1.466,0,4.43,4.43,0,0,0,1.083-.347,7.618,7.618,0,0,0,2.2-1.573,9.519,9.519,0,0,0,2.349-4.922,22.337,22.337,0,0,0,.342-2.244,11.754,11.754,0,0,0,.471-5.989,14.339,14.339,0,0,0-.854-3.115c-.088-.206-.177-.417-.265-.624.377.318.748.648,1.113.984l-.018-.018a23.032,23.032,0,0,1,2.038,2.132,25.261,25.261,0,0,1,1.611,2.248c.01.016.02.032.031.048s0,.006.006.012l-.006-.006a16.257,16.257,0,0,1,.807,1.49,11.366,11.366,0,0,1,.424,1.089,11.563,11.563,0,0,1,.312,1.349q.07.51.106,1.022a10.826,10.826,0,0,1-.017,1.139C115.774,292.839,115.733,293.1,115.68,293.374Z"/><path d="M145.893,255.052a14.528,14.528,0,0,0,1.066-6.165A11.665,11.665,0,0,0,145,243.222a14.406,14.406,0,0,0-3.539-3.657c.542.095,1.072.195,1.608.3a1.236,1.236,0,0,0,.376-2.444,28.846,28.846,0,0,0-7.778-.725c-.271-.076-.542-.141-.818-.2a13.072,13.072,0,0,0-6.272-.006,11.407,11.407,0,0,0-5.011,2.95,14.341,14.341,0,0,0-3.009,5.023,17.416,17.416,0,0,0-1.007,6.283,18.861,18.861,0,0,0,1.025,6.236,13.941,13.941,0,0,0,3.144,5.158,11.07,11.07,0,0,0,5.2,2.8,10.463,10.463,0,0,0,2.344.247q.38,0,.759-.018a13.621,13.621,0,0,0,3-.471c.518-.153,1.025-.33,1.525-.524.212-.059.418-.118.619-.188a11.677,11.677,0,0,0,2.908-1.443,15.222,15.222,0,0,0,2.362-2.032A16.731,16.731,0,0,0,145.893,255.052Zm-11.576-15.675c.218-.059.435-.106.653-.148-.047.006-.1.018-.153.024.076-.012.147-.024.224-.035.3.082.594.182.889.283a19.262,19.262,0,0,1,1.855.818,19.525,19.525,0,0,1,2.053,1.274,16.468,16.468,0,0,1,1.45,1.193.3.3,0,0,0-.038-.042c.018.016.034.032.05.048a.172.172,0,0,1,.047.046,13,13,0,0,1,.913.991c.259.335.5.671.718,1.024a12.1,12.1,0,0,1,.695,1.319l-.006-.019c.15.351.281.706.4,1.067.094.306.165.619.229.937.018.088.03.182.042.276-.083-.194-.171-.388-.265-.577a15.942,15.942,0,0,0-1.561-2.644,18.518,18.518,0,0,0-4.51-4.245,9.035,9.035,0,0,0-2.815-1.372c-.318-.077-.636-.142-.96-.195C134.258,239.394,134.287,239.383,134.317,239.377Zm-6.943,22.17c-.341-.189-.671-.4-.995-.619-.253-.188-.5-.388-.736-.594a8.824,8.824,0,0,1-.636-.689,12.675,12.675,0,0,1-.766-1.066c-.27-.459-.529-.924-.759-1.413s-.418-1-.589-1.514a18.068,18.068,0,0,1-.479-2,20.749,20.749,0,0,1-.228-2.2,23.2,23.2,0,0,1,.041-2.389l-.005.016a.065.065,0,0,0,.006-.03c0-.047.005-.094.005-.135v.077a18.844,18.844,0,0,1,.3-2.01,14.8,14.8,0,0,1,.462-1.588,15.821,15.821,0,0,1,.83-1.855,15.142,15.142,0,0,1,.8-1.307c.23-.306.471-.607.73-.9a9.109,9.109,0,0,1,.819-.754c.265-.206.548-.4.83-.583.33-.189.666-.371,1.013-.536a11.229,11.229,0,0,1,1.213-.459l.024-.006.034-.013-.017.007q.415-.114.848-.194a13.064,13.064,0,0,0-3.168,3.527c-.106.177-.218.353-.318.536-.035.053-.07.106-.106.159-.547.324-1.083.665-1.613,1.012a1.345,1.345,0,0,0-.313,1.867,1.3,1.3,0,0,0,.513.424,14.61,14.61,0,0,0-.465,1.99,18.669,18.669,0,0,0,.059,6.4,16.519,16.519,0,0,0,.942,3.262,13.447,13.447,0,0,0,1.289,2.491,11.013,11.013,0,0,0,1.166,1.419C127.857,261.782,127.615,261.67,127.374,261.547Zm3.686-3.215c-.17-.094-.324-.189-.482-.3-.218-.159-.425-.33-.625-.506a7.883,7.883,0,0,1-.618-.648,6.4,6.4,0,0,1-.4-.553c-.135-.236-.265-.477-.388-.725a11.88,11.88,0,0,1-.471-1.236,17.392,17.392,0,0,1-.465-1.908c-.089-.554-.154-1.1-.195-1.655a13.933,13.933,0,0,1,.023-1.6,19.6,19.6,0,0,1,.307-2.024,1.34,1.34,0,0,1-.035.135c.011-.059.029-.112.041-.165.094-.388.2-.765.324-1.142.118-.312.247-.618.388-.913.024-.041.042-.082.065-.118.56-.307,1.128-.59,1.7-.862a20.714,20.714,0,0,1,2.124-.776l0,0,.016,0,.06-.019h0l.059-.018a.216.216,0,0,0,.027,0c.276-.074.552-.143.833-.2.206-.029.4-.053.606-.064s.407.011.607.023c.283.035.559.077.842.129.3.077.589.16.877.254.206.082.412.171.619.271a7.435,7.435,0,0,1,.647.406c.177.141.342.283.513.43.217.218.43.441.636.671.223.285.433.572.626.872a8.5,8.5,0,0,1,.469.859c.106.254.2.513.288.777a10.624,10.624,0,0,1,.253,1.043v-.026a.238.238,0,0,1,.006.055l.009.045c.045.321.084.642.108.963l0-.013c.012.318.006.636-.012.96a10.311,10.311,0,0,1-.17,1.019c-.089.371-.2.736-.324,1.095-.155.385-.326.763-.513,1.138a9.414,9.414,0,0,1-.5.811,12.292,12.292,0,0,1-.789.966,13.87,13.87,0,0,1-1.213,1.136,1.1,1.1,0,0,1,.1-.076c-.041.029-.082.065-.129.1a12.64,12.64,0,0,1-1.084.769c-.244.141-.49.282-.748.409-.241.1-.488.194-.742.276-.241.059-.477.112-.718.159a8.82,8.82,0,0,1-.883.095c-.177,0-.353,0-.53-.012-.136-.012-.271-.03-.4-.053a3.552,3.552,0,0,1-.418-.118C131.266,258.426,131.16,258.379,131.06,258.332ZM142.3,254.48c-.08.339-.173.679-.285,1.013-.1.272-.224.537-.345.8a.225.225,0,0,0,.016-.031.157.157,0,0,1-.019.036l0,.011,0-.009-.01.015-.006.012a12.453,12.453,0,0,1-.765,1.236c-.33.448-.683.872-1.054,1.284-.33.33-.671.642-1.03.942.011-.006.023-.018.035-.024a.291.291,0,0,1-.041.03c-.03.029-.059.053-.095.082a.663.663,0,0,1,.065-.058c-.371.288-.753.559-1.142.818-.509.31-1.025.586-1.557.843-.385.169-.767.323-1.164.458-.118.012-.241.024-.359.03a9.744,9.744,0,0,1-1.107-.03c-.259-.029-.512-.07-.765-.123-.236-.065-.46-.13-.689-.206-.147-.065-.3-.13-.448-.2-.076-.041-.153-.082-.224-.129a5.057,5.057,0,0,0,.672.094,9,9,0,0,0,5.611-1.543,13.32,13.32,0,0,0,4.2-4.434,11.959,11.959,0,0,0,.547-1.113C142.331,254.348,142.317,254.414,142.3,254.48Z"/><path d="M156.106,229.5a4.556,4.556,0,0,0,2.143.93,7.108,7.108,0,0,0,1.066.088,4.236,4.236,0,0,0,1.507-.253,7.483,7.483,0,0,0,2.267-1.413,10.285,10.285,0,0,0,2.968-4.381l.053-.053a8.907,8.907,0,0,0,1.62-2.52,8.577,8.577,0,0,0,.323-5.906,8.293,8.293,0,0,0-1.49-2.727,7.9,7.9,0,0,0-2.131-1.872,6.887,6.887,0,0,0-2.78-.854,4.982,4.982,0,0,0-2.5.418,7.682,7.682,0,0,0-2.462,1.831,8.306,8.306,0,0,0-1.495,2.262,15.769,15.769,0,0,0-1.449,6.106,14.763,14.763,0,0,0,.937,6.124A5.424,5.424,0,0,0,156.106,229.5Zm7.378-14.886a.7.7,0,0,1,.106-.03,1.539,1.539,0,0,0,.506-.265c.195.195.377.389.554.6.129.165.247.33.365.5a7.967,7.967,0,0,1,.43.8c-.006-.023-.018-.041-.024-.064.012.023.018.047.03.07s.023.053.035.077l-.035-.071c.076.188.147.377.212.571.058.212.112.418.153.63a.132.132,0,0,1,.006.048,5.1,5.1,0,0,0-3-2.633C163.037,214.765,163.26,214.689,163.484,214.618Zm-2.279,2.926c.177-.053.359-.094.542-.135l.2-.018c.036,0,.071.006.106.006a.036.036,0,0,1,.024.006,1.122,1.122,0,0,1,.112.03c.058.023.123.053.188.082.088.053.171.106.253.165s.177.141.259.212a2.644,2.644,0,0,1,.309.327c-.016-.021-.031-.041-.044-.062.053.07.106.141.153.212a3.15,3.15,0,0,1,.171.312c.077.176.142.353.206.53.065.247.124.488.171.736.053.353.094.706.112,1.066,0,.317-.006.63-.036.942-.029.271-.07.542-.117.812-.047.183-.095.366-.148.542-.068.065-.139.13-.211.192-.187.141-.373.274-.572.4-.076.047-.159.088-.235.13-.23.1-.454.188-.683.265-.124.035-.247.064-.365.088a2.6,2.6,0,0,1-.3.035c-.017,0-.035.006-.053.006a.147.147,0,0,1,.047-.006c-.071,0-.142,0-.212-.006s-.153-.029-.229-.041a2.027,2.027,0,0,1-.235-.062.382.382,0,0,1,.046.021c-.047-.018-.094-.035-.135-.053h-.006l0,0-.013,0h0c-.1-.04-.2-.085-.292-.13a2.625,2.625,0,0,1-.291-.173,2.3,2.3,0,0,1-.245-.192c-.106-.106-.212-.218-.312-.329-.136-.177-.253-.354-.371-.536-.059-.1-.106-.2-.159-.3-.077-.182-.147-.371-.212-.559s-.1-.389-.135-.589c-.012-.094-.024-.188-.03-.282-.006-.254,0-.5.018-.766.023-.2.053-.4.088-.6.064-.263.135-.52.222-.777.005-.012.009-.024.014-.035l0-.012c.051-.126.1-.251.16-.371l.07-.047c.424-.259.854-.5,1.3-.724A8.51,8.51,0,0,1,161.205,217.544Zm-3.5-1.849c.13-.218.266-.435.407-.647.122-.165.252-.323.388-.474a8.429,8.429,0,0,1,.647-.621,8.309,8.309,0,0,1,.69-.5c.094-.053.189-.106.283-.153.119-.055.24-.1.364-.147.083-.025.166-.052.248-.071.018,0,.03-.006.041-.006A8.735,8.735,0,0,0,158,215.43c-.194.253-.377.524-.554.8C157.531,216.054,157.613,215.872,157.7,215.7Zm-1.077,8.026a5.831,5.831,0,0,0,1.649,2.126,6.463,6.463,0,0,0,1.384.765,3.951,3.951,0,0,0,1.448.307c.088,0,.177-.006.259-.012-.077.071-.153.141-.229.206-.207.153-.413.3-.63.442-.16.088-.318.17-.478.247-.064.023-.129.047-.194.065a1.418,1.418,0,0,1-.159.041c-.129.018-.253.029-.383.041-.111-.006-.223-.006-.335-.018a4.809,4.809,0,0,1-.513-.082l-.276-.088c-.077-.03-.159-.065-.236-.1l-.088-.053-.106-.089c-.036-.035-.071-.076-.106-.112-.065-.088-.13-.182-.189-.276-.076-.13-.147-.265-.218-.4a14.05,14.05,0,0,1-.535-1.425c-.106-.382-.189-.765-.259-1.154-.059-.412-.094-.824-.124-1.231A5.057,5.057,0,0,0,156.624,223.721Z"/><path d="M157.406,305.9a14.085,14.085,0,0,0,5.494,2.774,17.845,17.845,0,0,0,3.91.442,15.456,15.456,0,0,0,2.267-.165,21.234,21.234,0,0,0,6.136-1.967,25.606,25.606,0,0,0,5.376-3.515,28.875,28.875,0,0,0,4.528-4.717,30.952,30.952,0,0,0,1.914-2.85,21.563,21.563,0,0,0,1.455-2.9,17.45,17.45,0,0,0,1.224-6.366,17.781,17.781,0,0,0-4.6-11.47,24.064,24.064,0,0,0-4.164-3.728,22.1,22.1,0,0,0-5.093-2.926,16.885,16.885,0,0,0-6.1-1.378,16.306,16.306,0,0,0-6.054.96,18.692,18.692,0,0,0-9.2,8.079,26.718,26.718,0,0,0-2.527,5.806,27.76,27.76,0,0,0-1.071,6.548,23.753,23.753,0,0,0,2.59,12.654A15.464,15.464,0,0,0,157.406,305.9Zm17.383-34.588a20.781,20.781,0,0,1,2.149.96,22.732,22.732,0,0,1,2.35,1.448,23.954,23.954,0,0,1,2.361,1.926l-.088-.089c.041.042.076.077.117.112l.018.018-.008,0c.043.038.082.076.126.115.163.182.319.364.475.546a19.289,19.289,0,0,1,1.344,1.85,15.49,15.49,0,0,1,.772,1.4,15.141,15.141,0,0,1,.545,1.434l0-.015c0,.016.008.03.013.045l.01.031,0-.01c0,.015.007.031.01.046l.014.042c.114.42.212.851.292,1.277v-.023a.258.258,0,0,1,.007.052,14.72,14.72,0,0,0-1.237-1.931c-.677-.872-1.419-1.69-2.172-2.5s-1.467-1.619-2.232-2.4a43.149,43.149,0,0,0-4.081-3.674c-.306-.241-.624-.477-.936-.718Zm-17.4,8.138a20.02,20.02,0,0,1,.83-1.867,20.911,20.911,0,0,1,1.19-1.979,18.423,18.423,0,0,1,1.171-1.454c.348-.371.713-.718,1.1-1.054.4-.315.821-.606,1.249-.886.481-.29.973-.551,1.476-.79.562-.245,1.124-.468,1.7-.656.488-.141.983-.265,1.489-.359.377-.053.748-.094,1.131-.118h.023a.117.117,0,0,0,.048-.006.053.053,0,0,1-.027.006c.386-.006.772-.006,1.157.012a1.373,1.373,0,0,0,.6,1.543c.571.33,1.13.671,1.672,1.042h0a42.715,42.715,0,0,1,3.924,3.246q1.457,1.386,2.8,2.891c.79.877,1.608,1.731,2.368,2.626a16.54,16.54,0,0,1,1.083,1.484c.483.812.925,1.637,1.325,2.49a12.538,12.538,0,0,1,.5,1.32c.082.276.141.553.2.83.023.159.041.318.053.477.006.194,0,.388-.012.595-.018.164-.047.329-.076.494-.083.359-.183.713-.3,1.066-.035.082-.064.159-.1.242-.129.294-.271.582-.418.871-.324.606-.677,1.2-1.048,1.784-.244.309-.5.611-.762.9l.008-.013a21.12,21.12,0,0,1-1.848,1.7,30.586,30.586,0,0,1-2.8,2.012,24.329,24.329,0,0,1-2.593,1.376c-.977.425-1.983.791-3,1.116a20.177,20.177,0,0,1-2.226.541c-.447.065-.883.112-1.33.136-.359,0-.707-.012-1.066-.035-.442-.054-.872-.124-1.308-.212a14.632,14.632,0,0,1-1.483-.425,13.159,13.159,0,0,1-1.319-.582,10.064,10.064,0,0,1-.9-.56c-.254-.188-.489-.382-.725-.594l.054.052c-.024-.023-.048-.046-.077-.07-.012-.012-.023-.026-.036-.039l.03.027c-.277-.277-.536-.559-.783-.848-.289-.359-.559-.724-.813-1.1-.21-.52-.39-1.04-.555-1.577a28.376,28.376,0,0,1-.693-3l0,0a25.015,25.015,0,0,1-.3-2.883,24.43,24.43,0,0,1,.052-2.448,26.418,26.418,0,0,1,.4-2.734,19.756,19.756,0,0,1,.577-2.025,16.1,16.1,0,0,1,.76-1.7,14.33,14.33,0,0,1,.918-1.5c.272-.359.55-.706.856-1.037.174-.171.352-.337.534-.5a10.385,10.385,0,0,1,.911-.656l.013-.009.013-.006.007,0a.192.192,0,0,0,.022-.018.049.049,0,0,1-.012.013c.247-.143.5-.276.759-.4.236-.1.471-.189.713-.271a4.666,4.666,0,0,1,.571-.141,4.009,4.009,0,0,1,.4-.047c.295-.006.595,0,.9.023.359.047.718.106,1.077.171.218.053.43.118.642.188-.006,0-.018,0-.023,0,.518.2,1.012.435,1.513.683a11.571,11.571,0,0,1,1.077.671c.048.041.089.076.136.112a1.253,1.253,0,1,0,1.59-1.938,11.183,11.183,0,0,0-2.244-1.354,9.7,9.7,0,0,0-2.249-.807,7.994,7.994,0,0,0-4.64.253,10.107,10.107,0,0,0-3.94,2.827,15.6,15.6,0,0,0-2,3.1C157.336,279.6,157.365,279.524,157.389,279.448Zm-3.781,8.037v.077c.012-.136.024-.277.042-.418a23.4,23.4,0,0,0,.547,4.045,21,21,0,0,0,2.238,5.841,19.16,19.16,0,0,0,1.737,2.55,13.774,13.774,0,0,0,1.025,1.525,11.438,11.438,0,0,0,2.172,2.261,10.076,10.076,0,0,0,2.45,1.372,11.843,11.843,0,0,0,5.912.719,16.81,16.81,0,0,0,5.947-2,24.729,24.729,0,0,0,3.1-2.073c-.158.13-.318.265-.482.395h0a27.44,27.44,0,0,1-2.384,1.707,26.061,26.061,0,0,1-2.446,1.292,25.711,25.711,0,0,1-2.548.975,17.252,17.252,0,0,1-1.684.418h.009l-.038.006-.025.007h.013c-.63.094-1.26.159-1.9.194-.595.018-1.189.006-1.79-.029H165.5c-.047-.006-.094-.006-.141-.012.029,0,.059.006.082.006a15.834,15.834,0,0,1-1.79-.265h.006c-.433-.1-.859-.225-1.286-.373l.014,0a13.5,13.5,0,0,1-1.325-.6,14.646,14.646,0,0,1-1.425-.883,15.288,15.288,0,0,1-1.442-1.189c-.318-.312-.625-.63-.913-.966a16.241,16.241,0,0,1-1.107-1.566c-.353-.6-.672-1.219-.972-1.855a22.73,22.73,0,0,1-.81-2.156h0a23.335,23.335,0,0,1-.553-2.356,28.205,28.205,0,0,1-.312-2.92v.082a1.409,1.409,0,0,0-.006-.159v-.006A34.423,34.423,0,0,1,153.608,287.485Z"/><polygon points="163.017 276.619 163.013 276.621 163.012 276.621 163.017 276.619"/><path d="M33.308,317.028,33.286,317l-.09-.087Z"/><path d="M162.489,152.477h0Z"/></svg>