<svg xmlns="http://www.w3.org/2000/svg" width="342.53" height="259.654" viewBox="0 0 342.53 259.654"><path d="M341.4,117.113q-.609-3.153-1.4-6.266c-.594-2.337-1.177-4.681-1.825-7.007-.283-1.025-.53-2.067-.86-3.074-.424-1.319-.854-2.644-1.284-3.963-.294-.918-.677-1.808-1.042-2.708-.294-.742-.594-1.484-.889-2.226-.094-.236-.183-.465-.289-.695-.624-1.3-1.248-2.585-1.872-3.881-.395-.824-.83-1.613-1.272-2.408-.412-.73-.824-1.466-1.231-2.2-.17-.306-.329-.63-.518-.924-.706-1.113-1.407-2.226-2.114-3.334a44.986,44.986,0,0,0-4.151-5.581,47.863,47.863,0,0,0-6.795-6.36c-1.19-.924-2.45-1.755-3.692-2.609-.8-.553-1.626-1.059-2.462-1.572-.256-.156-.511-.317-.767-.476a16.775,16.775,0,0,0-2.014-2.8,6.01,6.01,0,0,0-1.107-1.013,5.636,5.636,0,0,0-1.072-.483c-.942-.4-1.9-.771-2.85-1.142a1.251,1.251,0,0,0-1.6.718c-.006.015,0,.032-.008.047q-1.337-.653-2.7-1.264c-.984-.436-1.955-.907-2.95-1.319-1.278-.525-2.55-1.054-3.828-1.585-.983-.4-2-.736-3-1.094-.448-.162-.9-.307-1.345-.46-.645-.406-1.291-.812-1.938-1.211l-.008-.005-.122-.075a28.911,28.911,0,0,0-3.244-1.712,33.4,33.4,0,0,0-3.8-1.49,36.407,36.407,0,0,0-5.918-1.325c-.954-.136-1.9-.288-2.868-.365-1-.077-1.99-.182-2.991-.188-.983,0-1.99-.054-2.974.017-1.03.083-2.073.106-3.1.235-.954.119-1.926.2-2.868.371-.209.039-.419.075-.629.11a1.926,1.926,0,0,0-.861-1.01,2.683,2.683,0,0,0-1.89-.336c-.4.076-.795.147-1.195.212-1.867.312-3.722.724-5.565,1.178-.895.223-1.79.442-2.679.688s-1.784.466-2.661.754q-1.715.557-3.428,1.125a52.566,52.566,0,0,0-6.3,2.55c-.449.213-.892.438-1.334.664-2.627.559-5.233,1.213-7.82,1.917-3.3.9-6.554,1.908-9.751,3.1-.609.228-1.213.485-1.815.744.1-.526.185-1.052.26-1.584.5-3.356,1-6.718,1.378-10.1q.327-2.932.66-5.87c.206-1.8.33-3.61.494-5.412.312-3.38.5-6.766.689-10.151q.033-.588.06-1.177c.1-.8.188-1.6.258-2.4.083-.93.206-1.872.248-2.8q.07-1.521.141-3.039c.012-.288.011-.577.014-.867.016-.481.033-.961.054-1.442a1.574,1.574,0,0,0-.093-.567,25.776,25.776,0,0,0-.352-3.419,9.877,9.877,0,0,0-2.444-5.564,3.887,3.887,0,0,0-2.679-1.048,4.348,4.348,0,0,0-2.538,1.006,12.712,12.712,0,0,0-1.081.939,12.8,12.8,0,0,0-2.611,1.535c-.676.5-1.327,1.033-1.957,1.588a4.681,4.681,0,0,0-1.6-.211,5.029,5.029,0,0,0-1.826.425,7.107,7.107,0,0,0-2.832,3c-.075.116-.149.235-.224.354.036-.053.071-.106.106-.159-.341.536-.683,1.066-1.019,1.608.03-.054.065-.113.1-.165-.318.473-.625.953-.941,1.427-.3-1.085-.546-2.188-.873-3.265-.2-.653-.406-1.313-.607-1.972-.206-.678-.482-1.349-.718-2.014.024.065.047.135.071.2a24.27,24.27,0,0,0-1.066-2.561A4.858,4.858,0,0,0,188,1.638a2.711,2.711,0,0,0-.627-.274c-.043-.066-.087-.132-.133-.2a2.634,2.634,0,0,0-.9-.877,1.939,1.939,0,0,0-1.878-.077,2.116,2.116,0,0,0-.825.819,4.47,4.47,0,0,0-.347.983c-.088.424-.165.854-.224,1.284a11.046,11.046,0,0,0-.1,1.432,10.227,10.227,0,0,0-.279,1.235,25.913,25.913,0,0,0-.323,3.3c-.059,2.043-.036,4.092.1,6.129.217,3.44.453,6.872.842,10.3q.3,2.6.681,5.2-.051,3.733-.11,7.462c-.032,2.244-.054,4.487-.086,6.73l-.193-.109c-.412-.235-.824-.506-1.254-.706q-.564-.263-1.126-.532l-.181-.11c-.766-.453-1.543-.865-2.332-1.272a48.676,48.676,0,0,0-10.534-4.127c-.7-.173-1.4-.332-2.109-.469-.985-.278-1.975-.527-2.979-.727-1.578-.318-3.174-.577-4.769-.754a66.184,66.184,0,0,0-10.682-.3,53.484,53.484,0,0,0-10.411,1.4,42.641,42.641,0,0,0-9.745,3.8,48,48,0,0,0-13.023,10.1c-.156,0-.311.008-.468,0-2.095-.156-4.168-.552-6.24-.879-.864-.137-1.73-.25-2.6-.353a21.979,21.979,0,0,0-2.944-1.362,31.923,31.923,0,0,0-9.84-1.92,42.9,42.9,0,0,0-10.152.725,45.523,45.523,0,0,0-8.037,2.355c-.836.341-1.673.677-2.509,1.019-.394.159-.8.306-1.177.483-1.249.583-2.491,1.183-3.745,1.76a43.849,43.849,0,0,0-4.2,2.291,49.353,49.353,0,0,0-4.122,2.755c-1.66,1.237-3.233,2.568-4.787,3.934-.942.825-1.9,1.637-2.821,2.491l.053-.047-.144.132c-.825.461-1.641.935-2.434,1.447A90.248,90.248,0,0,0,36.52,75.336a103.073,103.073,0,0,0-9.869,10.346,118.346,118.346,0,0,0-9,12.342,91.253,91.253,0,0,0-4.829,8.574q-1.607,3.276-3.209,6.553c-.583,1.189-1.107,2.4-1.631,3.61-.989,2.3-1.925,4.622-2.738,7-1.043,3.041-1.953,6.137-2.708,9.27-.085.28-.169.56-.254.84-.247.808-.4,1.655-.595,2.48s-.324,1.642-.465,2.467c-.124.736-.247,1.466-.341,2.208-.112.9-.254,1.79-.336,2.685Q.4,145.271.259,146.833c-.07.836-.106,1.678-.153,2.52-.041.718-.1,1.437-.1,2.156,0,1.094-.006,2.184-.006,3.279,0,.336.014.674.037,1.011a78.292,78.292,0,0,0,2.755,18.492c.078.384.159.766.253,1.148.247,1.024.5,2.055.747,3.079.283,1.137.683,2.256,1.072,3.357.359,1.013.748,2.02,1.178,3.009.471,1.1.965,2.179,1.513,3.244.459.9.913,1.826,1.437,2.7s1.024,1.713,1.537,2.573c.335.559.653,1.136,1.024,1.678,1.5,2.184,2.968,4.4,4.623,6.471a56.166,56.166,0,0,0,9.892,9.922,72.316,72.316,0,0,0,10.276,6.5c1.148.6,2.3,1.2,3.45,1.8.5.259,1,.53,1.513.771,1.09.513,2.185,1.019,3.28,1.532.631.294,1.26.606,1.9.883,1.637.706,3.263,1.448,4.911,2.113,2.373.954,4.735,1.955,7.178,2.709.1.032.2.058.306.089.419.2.834.4,1.256.594l-.173-.077c.83.388,1.666.771,2.5,1.153l-.235-.111a37.326,37.326,0,0,0,8.856,3.115l.02,0,.036.006-.021,0c1.49.283,2.98.532,4.482.752a37.114,37.114,0,0,0,5.289.485l.252,0a18.047,18.047,0,0,0,5.617-.954c1.048-.353,2.073-.748,3.1-1.154,1.484-.589,2.939-1.231,4.393-1.884a1.825,1.825,0,0,0-1.448-3.351c-1.853.779-3.734,1.477-5.622,2.162-.977.323-1.952.633-2.952.859-.65.12-1.3.216-1.952.285-.629.035-1.253.028-1.881,0-.885-.051-1.768-.154-2.65-.265l.979-.058q2.835-.168,5.67-.424a1.467,1.467,0,0,0,1.231-1.661,1.416,1.416,0,0,0-.959-1.133q.568-.385,1.115-.8a43.3,43.3,0,0,0,3.759-3.136q1.233.7,2.438,1.453c1.679,1.048,3.345,2.126,5.047,3.133q1.529.893,3.05,1.784c.8.471,1.631.9,2.444,1.337.408.221.823.428,1.235.639,1.024,1.484,2.044,2.97,3.074,4.443-.015-.023-.03-.047-.047-.071a18.619,18.619,0,0,0,3.21,3.875,16.3,16.3,0,0,0,2.567,1.761c.907.5,1.843.948,2.768,1.424a22.835,22.835,0,0,0,5.858,1.979c1.013.212,2.026.4,3.039.571.577.094,1.154.189,1.725.277a7.126,7.126,0,0,0,1.048.142c-.058,0-.123,0-.182-.006.806.141,1.631.2,2.444.3,1.707.206,3.421.406,5.128.624q2.483.309,4.964.6c.513.064,1.025.123,1.537.188.161.023.325.048.488.059h-.034l.091,0c2.327.162,4.66.3,6.986.448,1.5.088,3,.189,4.5.283.717.05,1.433.114,2.15.141a1.074,1.074,0,0,0,.114.006c2.839.167,5.673.367,8.512.5.088.006.177.007.265.011-.065,0-.135,0-.2,0,1.187.072,2.38.114,3.573.114a43.6,43.6,0,0,0,4.824-.255c2.161-.248,4.522-.46,6.218-1.985a36.666,36.666,0,0,0,2.691-2.962c.725-.8,1.482-1.564,2.265-2.3l-.045.041.066-.061.11-.1c-.02.021-.041.04-.061.06l.411-.374-.038.031c.232-.211.46-.424.688-.636.587.912,1.2,1.806,1.868,2.659a38.787,38.787,0,0,0,14.014,11.246,55.223,55.223,0,0,0,8.456,3.074,65.548,65.548,0,0,0,17.771,2.94c.257,0,.515,0,.772-.008a52.642,52.642,0,0,0,9.315-1.071c1.13-.224,2.251-.473,3.373-.729.317-.012.634,0,.945-.024,1.266-.106,2.532-.194,3.8-.288.884-.07,1.767-.118,2.65-.224a98.056,98.056,0,0,0,10.947-1.661,57.361,57.361,0,0,0,9.1-2.926,91.857,91.857,0,0,0,8.38-4.074c1.089-.595,2.143-1.249,3.209-1.879.659-.389,1.319-.777,1.978-1.172.243-.14.476-.28.707-.434,1.738-1.209,3.486-2.4,5.217-3.623-.071.047-.135.094-.206.141.342-.229.654-.506.972-.765.624-.5,1.242-1.007,1.866-1.513.66-.537,1.313-1.072,1.973-1.608.232-.189.472-.373.7-.57l-.038.034.061-.054.09-.082c1.748-1.57,3.457-3.19,5.184-4.792.927-.837,1.786-1.769,2.644-2.674.989-1.036,1.961-2.085,2.9-3.168.919-1.054,1.82-2.126,2.691-3.215.907-1.13,1.831-2.261,2.662-3.445,1.325-1.878,2.62-3.786,3.922-5.682,1.248-1.813,2.373-3.71,3.538-5.582.413-.66.837-1.313,1.225-1.991.713-1.248,1.425-2.5,2.138-3.75.418-.736.871-1.461,1.248-2.215.618-1.224,1.231-2.449,1.849-3.668q.5-1.016,1.019-2.031c.153-.307.318-.613.453-.925.412-.972.848-1.932,1.272-2.891.86-1.967,1.743-3.916,2.52-5.918.825-2.114,1.679-4.222,2.473-6.353.813-2.185,1.655-4.358,2.432-6.549q.7-1.961,1.39-3.921c.318-.89.665-1.778.942-2.686l-.07.23c.051-.159.1-.317.148-.473.058-.188.118-.379.175-.572.029-.091.058-.182.088-.272q.707-2.283,1.414-4.565c-.024.076-.047.153-.071.23.051-.163.1-.321.152-.482.025-.085.05-.17.076-.255.057-.173.109-.345.161-.524l-.015.047c.224-.743.39-1.5.58-2.255l1.025-4.057c.477-1.861.836-3.745,1.231-5.624.465-2.2.877-4.4,1.283-6.606.242-1.331.489-2.662.695-4a54.587,54.587,0,0,0,.766-9.734A58.422,58.422,0,0,0,341.4,117.113Zm-7.36,22.451a81.942,81.942,0,0,1-1.085,9.919c.017-.083.029-.165.047-.248-.218,1.2-.448,2.4-.719,3.587-.27,1.171-.518,2.367-.865,3.515-.183.594-.359,1.183-.542,1.778-.493,1.625-.985,3.256-1.478,4.88q-.645,1.708-1.284,3.417c-.318.83-.63,1.66-.942,2.491-.118.318-.224.653-.365.965q-1.382,3.163-2.762,6.338c-.854,1.749-1.719,3.5-2.579,5.251-.665,1.36-1.413,2.679-2.143,4l-.58,1.055c.321-.634.645-1.266.95-1.906.436-.907.872-1.8,1.26-2.726.313-.742.619-1.484.931-2.226.129-.312.277-.618.388-.936.46-1.243.907-2.485,1.361-3.727.3-.819.553-1.65.818-2.486.348-1.083.73-2.173,1.036-3.274.342-1.224.678-2.455,1.019-3.686.23-.848.436-1.69.636-2.55.242-1.065.53-2.131.73-3.209.236-1.307.471-2.614.713-3.921.176-.972.3-1.955.441-2.927.136-.918.283-1.837.383-2.762.147-1.36.3-2.726.448-4.086.112-1.019.141-2.055.206-3.074.059-.912.135-1.825.153-2.738.023-1.425.041-2.856.065-4.281.017-.871-.018-1.737-.042-2.609-.029-1.089-.017-2.19-.082-3.279q-.115-1.953-.23-3.9c-.123-2.032-.306-4.057-.471-6.083s-.359-4.051-.606-6.065c-.171-1.431-.348-2.862-.518-4.293-.1-.83-.259-1.648-.395-2.467-.212-1.254-.418-2.509-.636-3.763-.1-.571-.235-1.148-.365-1.719-.171-.76-.341-1.513-.536-2.267-.383-1.478-.812-2.938-1.307-4.375a84.166,84.166,0,0,0-3.451-8.5c-1.342-2.862-2.755-5.688-4.145-8.532-.3-.62-.612-1.237-.917-1.855.931.858,1.835,1.742,2.7,2.672a40.02,40.02,0,0,1,2.74,3.412,42.28,42.28,0,0,1,2.288,3.8c.915,1.788,1.7,3.628,2.494,5.472.253.6.442,1.231.666,1.838.224.626.448,1.247.673,1.873.229.8.458,1.609.687,2.408.171.606.377,1.207.512,1.819.326,1.432.652,2.871.978,4.3.324,1.585.672,3.161.965,4.754.324,1.772.689,3.544.96,5.323.189,1.224.377,2.455.565,3.68.089.583.195,1.16.26,1.743l.618,5.563c.074,1.188.143,2.37.218,3.558.053.919.153,1.843.159,2.762C334.074,134.032,334.144,136.8,334.035,139.564Zm-78.717,110.4c-.889.3-1.77.634-2.655.956l.039-.016q-.505.181-1.006.362c-1.262.368-2.519.748-3.782,1.128-.995.294-2.008.53-3.009.789q-2.259.576-4.53,1.1c-.487.019-.976.031-1.462.046-1.208.042-2.415.083-3.628.119-.818.023-1.643-.042-2.461-.071s-1.655-.048-2.48-.074a1.78,1.78,0,0,0-1.767-1.353c-1.629.106-3.246.13-4.874.1a49.292,49.292,0,0,1-4.984-.5c-.177-.033-.353-.074-.53-.109-.562-.152-1.127-.289-1.684-.463a50.111,50.111,0,0,1-5.309-2.076c-.249-.116-.492-.245-.739-.366-.536-.305-1.069-.614-1.595-.944-.121-.077-.237-.162-.358-.241.5.11,1,.22,1.5.309l-.048-.01.152.028.072.013-.031,0q5.257.993,10.553,1.777c1.849.277,3.7.483,5.559.695.677.077,1.354.1,2.032.142.906.059,1.819.123,2.726.176.654.041,1.325.035,1.99.024.312,0,.63-.006.942,0,.479,0,.963.018,1.444.018.24,0,.48,0,.717-.018l3.162-.177c.666-.035,1.343-.041,2.009-.118l3.4-.388c.612-.071,1.231-.118,1.831-.224,1.078-.189,2.156-.371,3.233-.56.713-.117,1.425-.223,2.132-.377,1.072-.229,2.143-.482,3.215-.729.683-.154,1.384-.277,2.055-.471,1.332-.386,2.672-.757,4-1.162-.268.135-.538.267-.809.4-.53.265-1.054.559-1.6.789C257.6,248.977,256.46,249.484,255.318,249.968Zm-68.361-13.122c-.4-.662-.775-1.334-1.131-2.021a41.26,41.26,0,0,1-1.872-4.337c-.429-1.215-.783-2.449-1.106-3.692A17.085,17.085,0,0,0,184,224.611a34.847,34.847,0,0,0,5.8,13.009c.187.247.391.48.584.723-.557-.25-1.115-.5-1.674-.746C188.127,237.339,187.54,237.1,186.957,236.846Zm-8.068-10.7c.014.06.03.119.043.179-.07.093-.131.193-.2.284.012-.014.024-.028.037-.041l-.041.047-.107.135c.034-.041.067-.086.1-.13q-.283.336-.577.655C178.406,226.907,178.639,226.521,178.889,226.146Zm2.027-15.656q.006-1.352.01-2.709c.119.851.248,1.7.4,2.55.055.311.123.619.182.929l-.5,1.7c-.011.033-.024.065-.035.1C180.939,212.2,180.913,211.346,180.916,210.49ZM178.559,231.7c.506-.432.992-.887,1.46-1.357a39.449,39.449,0,0,0,1.656,4.294l.011.021c-.416-.148-.833-.292-1.247-.443a28.669,28.669,0,0,0-3.728-1.095C177.348,232.669,177.968,232.2,178.559,231.7ZM283.7,230.03c-.236.212-.5.4-.742.595-.542.43-1.078.866-1.619,1.3-.857.677-1.714,1.355-2.559,2.043-1.206.829-2.406,1.663-3.607,2.491a57.745,57.745,0,0,1-6.4,3.78,63.878,63.878,0,0,1-6.656,2.854c-1.989.69-4.028,1.239-6.051,1.833-.853.254-1.754.407-2.62.607-.832.192-1.67.374-2.5.571-.9.156-1.788.309-2.679.465-.83.147-1.66.342-2.5.436-1.649.188-3.293.392-4.941.58-.858.047-1.715.1-2.573.15-.766.041-1.543.135-2.314.135-1.569,0-3.137-.005-4.706-.005-1.428-.091-2.857-.192-4.286-.265-.612-.03-1.23-.136-1.837-.2-.807-.088-1.608-.182-2.414-.27-.642-.071-1.284-.183-1.92-.277-.736-.106-1.478-.2-2.214-.318-1.354-.212-2.715-.424-4.063-.66l.105.02c-1.3-.235-2.6-.471-3.894-.7l.05.011a.523.523,0,0,1-.054-.012l-.17-.029c.054.008.106.017.158.027l-2.089-.445c-.607-.13-1.237-.23-1.838-.389-1.285-.343-2.571-.7-3.857-1.046l-.682-.227c-.321-.331-.652-.652-.967-.991l.159.177c-1.278-1.4-2.561-2.8-3.768-4.27-1.063-1.3-2.07-2.641-3.037-4.018a65.62,65.62,0,0,1-4.169-6.937,64.927,64.927,0,0,1-3.235-7.493l.071.212q-.644-1.826-1.165-3.692.147-1.107.274-2.218c.194-1.707.277-3.439.377-5.158.024-.392.044-.784.066-1.177a1.168,1.168,0,0,0,.22-.443,1.2,1.2,0,0,0-.143-.91c.033-.611.069-1.221.1-1.832l.09-.425c.176-.848.347-1.69.506-2.538.112-.589.23-1.178.324-1.773a9.262,9.262,0,0,0,.135-3.221,1.729,1.729,0,0,0-1.519-1.46,1.921,1.921,0,0,0-1.584.53,2.662,2.662,0,0,0-.62,1.5,47.2,47.2,0,0,0-.606,5.5c-.011.05-.024.1-.035.149-.026-.228-.057-.456-.08-.684q-.211-2.1-.418-4.2c-.118-1.166-.223-2.332-.353-3.5a6.589,6.589,0,0,0-.33-1.914,2.69,2.69,0,0,0-.506-.818,4.093,4.093,0,0,0-.524-.477,1.771,1.771,0,0,0-2.585.595c-.153.312-.307.63-.436.954a4.764,4.764,0,0,0-.218.913c-.071.382-.124.771-.171,1.154-.059.553-.129,1.1-.182,1.654-.089,1.007-.183,2.008-.259,3.015-.077,1.072-.159,2.143-.212,3.221-.053,1.137-.148,2.279-.159,3.422-.006,1.353-.018,2.714-.024,4.074-.017,2.15.065,4.311.236,6.454q.161,1.982.417,3.963c-.462.876-.949,1.739-1.468,2.583a39.612,39.612,0,0,1-2.716,3.757,34,34,0,0,1-2.562,2.7,31.231,31.231,0,0,1-2.829,2.289c-.46.315-.929.612-1.4.9-3.492.361-6.953.93-10.4,1.614a96.133,96.133,0,0,1-10.191,1.615c-.933.071-1.87.142-2.8.222-.964.035-1.922.088-2.886.129-.759.035-1.525.024-2.29.029-1.5.018-3-.021-4.511-.068-.66-.049-1.325-.093-1.984-.137-.489-.036-1-.041-1.478-.106-1.209-.156-2.413-.306-3.616-.472l-.344-.068c-1.851-.4-3.688-.853-5.5-1.41l.153.05-.239-.075q-1.109-.837-2.181-1.723a91.15,91.15,0,0,1-8.439-8.109q-2.514-2.754-4.845-5.66-.885-1.5-1.688-3.042a62.238,62.238,0,0,1-3.141-7.272,60.084,60.084,0,0,1-1.935-6.8c.007.033.013.068.02.1-.243-1.135-.5-2.281-.647-3.427l0-.022q.011-.7,0-1.391a7.65,7.65,0,0,0-.2-1.9,1.721,1.721,0,0,0-.334-.657c-.046-.333-.1-.671-.131-1.009.006.07.012.147.018.223q-.174-2.13-.348-4.25c-.109-1.639-.184-3.278-.259-4.918-.03-.684-.052-1.373-.076-2.059.01-1.118.022-2.238.029-3.358a1.656,1.656,0,0,0-2.289-1.5q-.032-.68-.061-1.359c-.035-.689-.064-1.384-.129-2.073a7.246,7.246,0,0,0-.277-1.59c-.135-.389-.288-.766-.436-1.154a1.561,1.561,0,0,0-1.648-.919,2.172,2.172,0,0,0-1.632.866,4.787,4.787,0,0,0-.7,1.837c-.147.731-.312,1.473-.395,2.208-.076.666-.182,1.337-.229,2-.059.7-.112,1.4-.165,2.1-.095,1.277-.13,2.555-.195,3.833a40.5,40.5,0,0,0,.065,4.852,46.854,46.854,0,0,0,.666,5.441,52.616,52.616,0,0,0,3.293,10.755c-.03.2-.06.4-.092.594a35.962,35.962,0,0,1-.932,3.856,22.98,22.98,0,0,1-.916,2.426,28.233,28.233,0,0,1-1.486,2.737,33.636,33.636,0,0,1-2.2,3.084c-.222.265-.454.521-.683.78-.114-.009-.225-.032-.339-.03a4.262,4.262,0,0,0-1.219.212,6.071,6.071,0,0,0-1.861,1.143c-.835.658-1.653,1.321-2.518,1.933-.686.44-1.383.851-2.1,1.242-.587.28-1.179.542-1.78.794a23.728,23.728,0,0,1-2.273.685c-.806.153-1.6.235-2.425.317-.538.013-1.081.051-1.618.04l-1.568-.048h.031c-.707-.052-1.419-.07-2.12-.17-.721-.1-1.443-.2-2.165-.308l-1.539-.334c-.335-.076-.689-.136-1.018-.23-.918-.264-1.836-.524-2.753-.793-1.944-.624-3.865-1.3-5.786-1.992-1.607-.581-3.186-1.251-4.771-1.894q-1.815-1.05-3.6-2.153c.076.042.147.088.218.13-2.668-1.684-5.341-3.362-7.979-5.1a108.172,108.172,0,0,1-9.6-6.829,40.321,40.321,0,0,1-3.416-3.287,39.381,39.381,0,0,1-2.867-3.638l.043.064c-.025-.035-.048-.071-.073-.106l-.074-.106.035.047c-1.962-2.855-3.695-5.888-5.4-8.9-1.265-2.228-2.473-4.484-3.651-6.759-.389-.788-.794-1.568-1.142-2.374-.326-.769-.618-1.549-.907-2.333-.565-1.709-1.045-3.433-1.454-5.181-.257-1.243-.486-2.486-.683-3.745-.188-1.222-.3-2.456-.423-3.689q-.288-3.725-.443-7.458c-.053-1.219-.112-2.432-.123-3.651-.012-.942-.018-1.878-.03-2.821,0-.441-.029-.883-.006-1.324l0,.054c.077-1.682.149-3.368.225-5.049.088-.891.181-1.776.274-2.666s.129-1.808.271-2.691c.269-1.706.566-3.4.842-5.1.385-1.593.759-3.18,1.149-4.773.418-1.3.841-2.613,1.259-3.923.353-1.095.807-2.161,1.231-3.232.394-1.013.783-2.014,1.219-3.009.535-1.234,1.077-2.463,1.612-3.7q1.032-2.148,2.056-4.294c.318-.665.695-1.313,1.042-1.967.377-.712.731-1.454,1.143-2.155.789-1.348,1.519-2.744,2.349-4.074.859-1.382,1.729-2.754,2.572-4.14.5-.746,1.024-1.474,1.532-2.214.348-.5.7-1,1.037-1.49.135-.188.259-.394.4-.577.849-1.071,1.679-2.164,2.53-3.238,3.1-3.3,6.3-6.511,9.55-9.67,3.343-3.039,6.727-6.042,10.227-8.907,1.855-1.519,3.739-3,5.635-4.47,1.281-.993,2.583-1.949,3.9-2.892a1.289,1.289,0,0,0,1.458-.782,1.273,1.273,0,0,0,.072-.3c.99-.639,1.977-1.272,3-1.873,1-.581,2.015-1.123,3.035-1.675,1.349-.659,2.7-1.3,4.072-1.911,1.231-.54,2.479-1.025,3.727-1.519.537-.181,1.078-.362,1.614-.548.471-.159.942-.353,1.419-.477,1.064-.282,2.122-.582,3.186-.858.793-.166,1.586-.328,2.384-.49.689-.142,1.378-.242,2.079-.342,1.481-.221,2.956-.391,4.448-.543,1.542-.112,3.084-.218,4.632-.269,1.522-.052,3.033-.026,4.554-.013,1.177.062,2.36.1,3.531.219.459.048.918.1,1.376.152.347.191.691.389,1.029.6.556.359,1.089.741,1.608,1.154.431.371.844.758,1.239,1.171q.318.373.619.765c.345.508.666,1.031.962,1.574.054.111.107.224.159.337a29.3,29.3,0,0,0-1.665,4.182,22.887,22.887,0,0,0-1.018,4.776,2.277,2.277,0,0,0,1.3,2.332,2.311,2.311,0,0,0,1.019.094,2.035,2.035,0,0,0,.671-.148,2.924,2.924,0,0,0,1.017-.839c-.224.391-.456.778-.674,1.172a1.749,1.749,0,0,0,.7,2.35,1.683,1.683,0,0,0,.8.2,1.789,1.789,0,0,0,1.544-.908q.6-1.047,1.229-2.075a1.916,1.916,0,0,0,.372-.013,2.777,2.777,0,0,0,1.336-.583,3.555,3.555,0,0,0,.542-.541c.127-.166.24-.336.351-.51l-.01.015c.389-.606.76-1.207,1.137-1.813l-.124.194,1.119-1.77a104.221,104.221,0,0,1,6.735-9.666c.488-.479.97-.966,1.472-1.431q1.359-1.242,2.786-2.4c.613-.38,1.237-.74,1.868-1.089.071-.017.141-.038.212-.055,1.045-.208,2.09-.442,3.145-.575,1.09-.139,2.174-.261,3.27-.367,1.619-.129,3.238-.236,4.862-.3,1.459-.057,2.913-.026,4.372.03,1.3.1,2.616.18,3.913.353,1.242.162,2.48.339,3.722.542,1.073.222,2.147.456,3.215.724,1.012.253,2.019.541,3.026.824,1.932.542,3.869,1.054,5.806,1.578,3.793,1.016,7.6,1.95,11.36,3.093,2.245.708,4.467,1.479,6.675,2.293a1.3,1.3,0,0,0,.924.363c.015,0,.029,0,.043-.006.413.156.831.3,1.243.458q4.248,1.651,8.467,3.386c.677.277,1.36.547,2.043.812.443.169.884.32,1.327.472.017.051.03.1.048.153l-.022-.058c.035.094.065.189.094.283a1.9,1.9,0,0,0,1.584,1.336,1.692,1.692,0,0,0,.188.01,1.888,1.888,0,0,0,.76-.177l.362.541c.912,1.36,1.778,2.755,2.62,4.162.693,1.16,1.345,2.345,2.025,3.517q-.75,1.17-1.5,2.343c-.748,1.184-1.419,2.432-2.12,3.645-.594,1.031-1.171,2.073-1.743,3.115-.387.711-.764,1.431-1.145,2.147-.326.566-.647,1.136-.957,1.71l.011,0a1.63,1.63,0,0,0,.345,1.964c-.352.737-.681,1.488-.962,2.253a16.691,16.691,0,0,0-.548,1.778,10.777,10.777,0,0,0-.171,1.625,1.751,1.751,0,0,0,1.531,1.908c.138,0,.277.01.416.01a2.463,2.463,0,0,0,.98-.163A2.863,2.863,0,0,0,202.1,95.4c.631-.812,1.178-1.7,1.767-2.543.512-.742,1.019-1.484,1.531-2.226q1.306-1.908,2.668-3.786c.983-1.354,1.949-2.721,2.985-4.046,1.276-1.635,2.526-3.3,3.843-4.9h0l-.016.021.017-.02.016.015a1.894,1.894,0,0,0,2.468-.231c.394-.447.724-.93,1.083-1.4q.417-.549.847-1.085a47.192,47.192,0,0,1,3.311-3.442c1.033-.923,2.052-1.869,3.126-2.745.63-.512,1.243-1.042,1.89-1.531.666-.5,1.337-1.006,2-1.5l-.008.006.012-.009.032-.024-.13.09-.041.028q1.139-.786,2.271-1.578c-.035.025-.07.05-.1.076l.15-.108c1.716-1.176,3.524-2.186,5.327-3.224.594-.3,1.192-.609,1.8-.9a.9.9,0,0,0,1.077-.513c.847-.389,1.692-.792,2.55-1.133.948-.383,1.885-.8,2.833-1.172.9-.361,1.824-.668,2.722-1.019.783-.255,1.565-.516,2.342-.771.642-.212,1.289-.383,1.937-.566,1.422-.4,2.85-.729,4.283-1.073l.044-.008c.627.069,1.253.151,1.878.229,1.808.236,3.6.54,5.4.828-.047-.008-.094-.018-.14-.027l.142.027.122.02-.12-.019c1.707.33,3.419.635,5.12.985,1.919.4,3.827.807,5.735,1.242,1.932.442,3.839.942,5.753,1.437,1.521.4,3.01.918,4.518,1.367,2.761.983,5.522,1.995,8.231,3.12.338.14.679.277,1.02.415.059.058.12.114.178.172,1.608,1.578,3.162,3.209,4.717,4.841-.071-.077-.141-.154-.212-.236.792.881,1.6,1.74,2.413,2.6,1.833,2.029,3.557,4.156,5.236,6.317,1.92,2.467,3.833,4.928,5.73,7.413a2.106,2.106,0,0,0,3.739-1.089,2.218,2.218,0,0,0-.448-1.549c-1.083-1.537-2.161-3.079-3.262-4.6-.983-1.361-1.943-2.75-2.985-4.063s-2.056-2.615-3.139-3.875c-.254-.3-.524-.577-.781-.87,1.46.8,2.933,1.577,4.349,2.45.661.419,1.3.858,1.942,1.3.105.2.217.4.321.6l-.032-.061c1.844,3.6,3.585,7.256,5.344,10.895a107.3,107.3,0,0,1,4.628,10.694c-.018-.059-.035-.112-.053-.165a66.547,66.547,0,0,1,2.244,7.968c.388,1.859.662,3.741.965,5.622.089.566.206,1.131.271,1.7.065.595.136,1.19.2,1.784.159,1.379.336,2.762.46,4.146.141,1.555.276,3.115.418,4.67l-.018-.177c.124,1.654.283,3.309.371,4.97.053,1,.106,2,.153,2.991.041.7.1,1.4.112,2.1.018,1,.041,2,.059,3.009.017.748.059,1.508.047,2.262q-.051,2.55-.1,5.1-.139,2.063-.28,4.132c-.07.994-.188,1.984-.3,2.979-.124,1.1-.236,2.208-.395,3.309-.2,1.319-.394,2.632-.588,3.951.011-.064.023-.129.035-.188-.241,1.3-.483,2.6-.719,3.9-.206,1.083-.477,2.149-.724,3.221-.224.977-.453,1.949-.724,2.921-.335,1.227-.681,2.455-1.016,3.689-.377,1.2-.758,2.394-1.133,3.589-.3.936-.625,1.855-.96,2.779-.383,1.048-.73,2.108-1.16,3.139l-1.446,3.466c-.272.558-.535,1.116-.8,1.674-.259.542-.5,1.1-.777,1.632s-.577,1.077-.866,1.613-.559,1.089-.865,1.619c-.618,1.054-1.2,2.132-1.843,3.174s-1.29,2.12-1.937,3.174c.035-.059.07-.112.105-.165-.677,1.048-1.324,2.12-2.031,3.15-.718,1.048-1.437,2.1-2.155,3.151-.665.971-1.384,1.914-2.073,2.867-.642.895-1.307,1.773-1.961,2.662-1.183,1.6-2.343,3.221-3.527,4.829-1.36,1.854-2.714,3.709-4.11,5.534-1.313,1.72-2.673,3.4-4.028,5.082h0l-.03.036.051-.058c-.827.992-1.644,1.99-2.471,2.983l.041-.052-.112.138-.018.021.006-.006c-.06.073-.12.145-.182.218.047-.053.088-.106.129-.153l-.079.1.026-.03-.043.05-.086.109c.025-.032.049-.064.075-.1-.853,1-1.695,2.007-2.537,3.017-.522.615-1.055,1.226-1.586,1.837C284.006,229.749,283.854,229.891,283.7,230.03Zm-209.188-3.3c.42-.081.835-.191,1.248-.307q-.212.132-.425.262C75.06,226.7,74.786,226.713,74.511,226.726ZM116.256,54.808a22.374,22.374,0,0,0,4.337-.942c-.849.717-1.7,1.434-2.525,2.178q-2.367,2.133-4.568,4.433c-.122-.475-.258-.945-.413-1.408q.256-.446.525-.883a38.851,38.851,0,0,1,2.411-3.337l.029-.033C116.12,54.811,116.188,54.815,116.256,54.808Zm79.836-7.779c-.013.123-.025.245-.039.368-.094.948-.253,1.89-.318,2.844-.03.419-.039.837-.035,1.255l-1.152-.579c-.741-.37-1.471-.773-2.222-1.11l.02.01-.116-.054-.014,0h0l-.034-.016-.01,0-.131-.061c-.159-.073-.318-.146-.477-.217l.03.014-.075-.035-.108-.048.039.017-.184-.085c-.392-1.4-.714-2.826-1.026-4.247.007.031.013.061.019.091-.034-.159-.066-.318-.1-.476a1.971,1.971,0,0,0,1.3-1.14c.1-.257.213-.514.325-.768q1.287-2.465,2.673-4.88a3.725,3.725,0,0,0,.905.477,2.275,2.275,0,0,0,.6.128q-.12.88-.264,1.758c-.008.046-.016.092-.025.138-.419,1.41-.769,2.84-1.19,4.254A1.952,1.952,0,0,0,196.092,47.029Zm.013-11.926.281-.464c-.01.094-.019.187-.028.28l-.1.1c-.041.036-.083.07-.124.1Zm5.955-1.8c.555-1.606,1.1-3.214,1.734-4.789q-.354,2.114-.71,4.23c-.2,1.2-.353,2.4-.53,3.6q-.088.621-.178,1.241c-.184.614-.375,1.226-.564,1.838.018-.07.042-.141.065-.217-.559,1.8-1.172,3.586-1.808,5.364q-.192.541-.382,1.085.121-1.249.247-2.5c.172-1.758.392-3.517.595-5.275q.3-.93.612-1.856C201.441,35.119,201.748,34.213,202.06,33.305Zm1.752,19.913q.087-.671.173-1.341c.365-2.755.707-5.511,1.1-8.261q.367-2.535.731-5.066.161-.528.309-1.057c-.019.286-.038.573-.056.859-.026.427-.038.858-.079,1.282q-.131.941-.263,1.88c-.224,1.572-.465,3.139-.7,4.711-.284,1.941-.55,3.886-.824,5.831Q204.014,52.637,203.812,53.218Zm80.4,2.148c.114.072.224.152.337.228l-.182-.055c-.854-.265-1.707-.559-2.573-.783-1.778-.459-3.551-.942-5.341-1.349L276.4,53.4c.369.051.739.092,1.108.153l-.094-.018c.058.009.116.02.173.03l.1.016-.046-.006a57.472,57.472,0,0,1,6.017,1.44Zm-77.955,11c.009.067.02.133.033.2-.217-.34-.439-.677-.674-1-.3-.432-.595-.87-.893-1.306.121-.046.244-.084.363-.136.6-.267,1.191-.551,1.781-.836.585-.015,1.169-.028,1.756-.054.335-.017.666-.055.994-.1.818.6,1.629,1.2,2.417,1.84.332.291.662.584,1,.873-.215.1-.431.2-.654.281-.248.086-.5.166-.757.231-.188.037-.378.068-.57.095-.084,0-.167,0-.253,0a5.49,5.49,0,0,0-.91-1.257,2.909,2.909,0,0,0-1.043-.724,2.119,2.119,0,0,0-1.118-.083A1.768,1.768,0,0,0,206.254,66.365Zm-37.2-16.226c-1.584-.412-3.174-.836-4.758-1.266-1.719-.471-3.427-.983-5.152-1.419a48.551,48.551,0,0,0-5.406-1.095c-1.843-.242-3.686-.448-5.541-.589a42.657,42.657,0,0,0-4.916-.1c-.911.035-1.822.073-2.732.124.269-.139.538-.279.805-.414l-.119.062c.8-.405,1.632-.759,2.445-1.134,1.261-.585,2.528-1.122,3.829-1.608l.07-.022c.89-.017,1.779-.013,2.668.022h-.018a56.705,56.705,0,0,1,6.8.772l-.032-.007.128.024.037.006h-.008c3.085.555,6.148,1.256,9.194,2.009q4.089,1.02,8.15,2.115c.735.234,1.479.44,2.213.658.853.252,1.707.515,2.56.762l.069.02h0l.012,0c1.434.468,2.863.946,4.273,1.474q-.015.336-.032.671a1.325,1.325,0,0,0,1.043,1.4q.015,1.035.03,2.072c-1.817-.642-3.646-1.249-5.5-1.8C175.817,51.888,172.437,51.023,169.051,50.139Zm56.678,8.734c.054-.019.108-.034.162-.053-.059.047-.119.091-.178.138-.42.332-.846.661-1.269.992a2.184,2.184,0,0,0-.432-.308c.084-.067.168-.135.252-.2C224.751,59.25,225.239,59.059,225.729,58.873Zm-8.517,7.47a1.077,1.077,0,0,0-.091-.058c.184-.21.372-.417.558-.624.182-.111.364-.222.548-.331.006.009.017.014.023.023C217.905,65.683,217.56,66.015,217.212,66.343Zm-1.866-3.193-.029.018c-.248.153-.5.3-.742.454-.037.023-.076.043-.114.065-.282-.26-.555-.53-.849-.776l-.8-.667c.329-.095.659-.189.994-.273,1-.188,1.994-.275,3-.384Q216.063,62.355,215.346,63.15Zm-28.021-7.5c-.028-.974-.043-1.949-.055-2.923.714.608,1.437,1.2,2.152,1.809a9.328,9.328,0,0,0,1.052,1.478,15.533,15.533,0,0,0,1.45,1.409Q189.632,56.512,187.325,55.648Zm20.8,13.435q.093.3.167.6l.009.048c-.081-.131-.163-.263-.246-.393l-.408-.647A4.71,4.71,0,0,0,208.126,69.083Zm-1.5-11.378c-.126-.081-.254-.159-.38-.239.113-.289.231-.576.341-.865.046-.019.086-.046.13-.068Q206.67,57.12,206.63,57.705Zm-6.4-4.625q-.053.392-.1.783c-.111-.061-.222-.122-.332-.184l-.045-.024C199.916,53.467,200.085,53.282,200.231,53.08ZM191.019,36.2c-.642,1.168-1.291,2.332-1.9,3.517l-.015-.072c-.684-3.327-1.361-6.654-1.867-10.01-.017-.11-.028-.22-.044-.331q.015-2.74.03-5.482c.006-.4.006-.807.006-1.207.006-1.042.035-2.084.035-3.127,0-1.226.007-2.458.063-3.69.035-.631.082-1.259.153-1.885.889,2.889,1.451,5.875,2.1,8.826.447,2.021.9,4.043,1.337,6.065l-.009-.037c.242,1.131.468,2.262.768,3.382.136.524.277,1.041.4,1.572.035.144.069.29.1.435C191.79,34.839,191.4,35.517,191.019,36.2ZM111.255,55.338c-.2-.308-.422-.605-.648-.9q.579.09,1.16.17C111.6,54.854,111.422,55.093,111.255,55.338ZM192.2,18.3c.049.028.1.056.148.083A2.48,2.48,0,0,0,194.8,18.3a6.108,6.108,0,0,0,1.16-.883c.242-.248.462-.514.679-.785l.059-.071.051-.063-.039.05c.408-.487.806-.977,1.205-1.464-.021.027-.043.056-.066.084.035-.044.071-.087.107-.13l-.061.075a62.781,62.781,0,0,1,4.792-5.245c.112-.032.221-.068.327-.106a7.856,7.856,0,0,0,2.426-1.543c.567-.5,1.114-1.016,1.658-1.536.077-.033.156-.064.235-.095.272-.09.543-.173.822-.238.123-.022.246-.04.372-.053s.234,0,.352,0,.214.019.32.035c.071.019.142.034.212.052s.144.051.215.079c.1.051.2.1.29.164.047.031.092.064.137.1a3.249,3.249,0,0,1,.25.233c.071.081.138.166.2.255.037.058.072.118.106.178.086.178.16.354.23.536l0,.01a1.682,1.682,0,0,0-.254-.085,1.8,1.8,0,0,0-1.984.883c-.324.583-.7,1.149-.984,1.755a13.709,13.709,0,0,0-.624,1.584,35.006,35.006,0,0,0-.907,3.439q-.237,1.132-.458,2.272c-.1.038-.195.081-.289.128a8.406,8.406,0,0,0,.029-1.382c-.029-.483-.106-.954-.159-1.43a1.737,1.737,0,0,0-1.519-1.467,1.774,1.774,0,0,0-1.8,1.1c-.059.145-.124.285-.19.426a25.283,25.283,0,0,0-1.153,2.619c-.312.942-.577,1.9-.795,2.868-.439,1.949-.748,3.914-1.088,5.881.007-.036.014-.073.023-.111-.059.324-.112.642-.16.966q-.083.579-.166,1.158a1.843,1.843,0,0,0-1.459.22c-.518.329-1.071.606-1.56.983a6.474,6.474,0,0,0-.9.845c-.064-.247-.125-.5-.185-.745-.229-.966-.453-1.931-.677-2.9-.335-1.437-.665-2.879-1-4.316q-.48-2.077-.956-4.15A3.048,3.048,0,0,0,192.2,18.3ZM185.96,6.489c.035-.187.072-.373.115-.557.189.725.351,1.457.508,2.19a1.367,1.367,0,0,0-.552.67c-.036.1-.076.2-.114.293-.033-.52-.068-1.039-.1-1.56Q185.879,7.006,185.96,6.489ZM124.323,47.232l.128-.092-.1.073a52.5,52.5,0,0,1,5.588-3.382l-.093.053a41.232,41.232,0,0,1,4.728-2.067q1.912-.655,3.872-1.132a35.165,35.165,0,0,0-4.737,2.7,53.662,53.662,0,0,0-5.585,4.319c-.19.052-.384.091-.573.146q-2.607.76-5.165,1.638c-.532.183-1.065.356-1.6.531,1.133-.971,2.3-1.905,3.515-2.775l-.05.034ZM3.457,162.59c-.167-1.3-.328-2.6-.5-3.9q-.06-.931-.119-1.863c-.041-.641-.129-1.3-.123-1.949,0-1.242.012-2.484.018-3.727-.006.059-.006.118-.012.177.1-1.79.2-3.574.371-5.358.17-1.82.394-3.628.63-5.447l-.036.176q.231-1.288.454-2.579c.02-.109.046-.215.068-.323-.015.1-.036.206-.046.31-.059.53-.112,1.06-.165,1.584-.1.924-.194,1.849-.288,2.773-.041.358-.085.712-.108,1.068-.07,1.383-.134,2.766-.2,4.143-.048.99-.053,1.967-.048,2.957.006,1.206-.017,2.414.03,3.621q.079,2.085.159,4.181c.1,2.72.263,5.446.569,8.154C3.887,165.254,3.622,163.928,3.457,162.59Zm7.272,24.584c-.538-1.055-1.042-2.127-1.529-3.207.5.965,1.014,1.924,1.522,2.882,1.131,2.142,2.36,4.237,3.576,6.33a66.334,66.334,0,0,1-3.611-6.093C10.7,187.116,10.716,187.146,10.729,187.174Zm84.046,34.548c-.994-.619-1.989-1.25-3-1.841a18.675,18.675,0,0,0,1.594-2.294,25.837,25.837,0,0,0,1.256-2.451,12.747,12.747,0,0,0,.683,1.9c.359.818.759,1.619,1.195,2.4.919,1.649,1.873,3.286,2.9,4.864.088.135.182.266.271.4C98.032,223.721,96.4,222.735,94.775,221.722Zm82.1,20.88c-.243.287-.489.571-.758.837-.139.122-.284.237-.433.348-.085.054-.169.1-.253.154-.156.076-.314.145-.473.211-.4.134-.8.241-1.209.336a36.781,36.781,0,0,1-4.136.554c-1.88.132-3.748.054-5.622.052-.049,0-.1,0-.146-.006l.1.006h-.013l-.187-.01c-.011,0-.023,0-.034,0l-.416-.017c.064,0,.135.006.2.006-.465-.023-.931-.047-1.39-.065.065,0,.13.007.194.007-.482-.018-.971-.047-1.454-.065.065,0,.129.006.194.006l-1.878-.089c.065.006.129.006.194.012-.83-.041-1.654-.083-2.485-.118.059,0,.124.006.189.006-.324-.017-.654-.029-.984-.047l.046,0-.254-.012c-.121-.01-.242-.015-.363-.021.059.006.124.006.189.012l-.36-.017c.065.005.13.005.195.011l-.337-.017c.047,0,.094,0,.141.006h.043c-.036,0-.072,0-.108,0h-.019c-2.119-.144-4.238-.244-6.357-.365-2.4-.135-4.8-.312-7.2-.406.059,0,.124.006.182.006l-.149-.009c-.021,0-.042,0-.063,0l-.02,0c-.8-.14-1.625-.193-2.435-.287l-4.976-.583c-1.666-.189-3.339-.395-5.011-.583-.53-.059-1.06-.129-1.59-.189-.182-.018-.363-.048-.548-.059h.036c-1.148-.171-2.3-.347-3.451-.542l.035,0a42,42,0,0,1-4.547-1c-.627-.2-1.244-.429-1.847-.69-.735-.341-1.455-.72-2.191-1.076-.633-.306-1.256-.628-1.859-1a17.347,17.347,0,0,1-1.652-1.17c-.227-.2-.438-.4-.643-.612a27.631,27.631,0,0,1-1.975-2.586l.037.057-.1-.139c.035.053.07.1.1.147-.094-.141-.2-.277-.289-.418l.009.013c-.045-.065-.091-.129-.137-.194l0,0,0,0,0,0,1.445.661-.017-.009.122.056-.046-.017c.577.265,1.172.488,1.76.736.713.294,1.419.629,2.144.883.548.19,1.094.383,1.639.575.314.235.627.471.949.7a30.98,30.98,0,0,0,6.3,3.4,35.014,35.014,0,0,0,6.99,1.925,55.455,55.455,0,0,0,7.39.813q1.471.071,2.948.073.738,0,1.474-.02c.936-.024,1.878-.03,2.814-.118,1.974-.184,3.953-.346,5.927-.523l.078-.007-.04.006c.778-.059,1.555-.188,2.326-.3.9-.13,1.8-.271,2.685-.436,1.673-.312,3.333-.677,4.976-1.119a62.394,62.394,0,0,0,9.852-3.58c.581-.27,1.159-.556,1.736-.845.809.064,1.612.151,2.418.277a33.625,33.625,0,0,1,3.28.783c1.1.348,2.185.745,3.261,1.16A44.756,44.756,0,0,0,176.875,242.6Zm31.437,10.271a58.3,58.3,0,0,1-5.94-2.23,35.034,35.034,0,0,1-7.851-4.95,40.81,40.81,0,0,1-3.359-3.205l.026.031-.029-.034c.427.188.857.374,1.281.565.6.265,1.2.547,1.814.795.706.277,1.413.565,2.119.848.305.121.609.248.913.37a50.129,50.129,0,0,0,4.771,3.356c.677.418,1.36.836,2.037,1.254.2.127.408.264.615.4.154.115.3.24.455.351a44.089,44.089,0,0,0,4.636,2.9Q209.055,253.1,208.312,252.873Zm112.181-60.4c-.915,1.813-1.819,3.638-2.734,5.458-.713,1.43-1.52,2.808-2.315,4.2-.783,1.378-1.554,2.749-2.39,4.1-1.013,1.631-2.021,3.262-3.039,4.888-1.045,1.488-2.063,2.993-3.1,4.492-.465.671-.93,1.349-1.395,2.026s-.978,1.3-1.473,1.937c-.723.928-1.453,1.844-2.2,2.754-1.134,1.351-2.289,2.68-3.5,3.959-1.065,1.143-2.137,2.291-3.268,3.362.059-.052.118-.112.183-.164-1.8,1.619-3.567,3.288-5.34,4.938l.029-.027c-.023.021-.046.04-.068.061l.044-.044c-1.735,1.441-3.5,2.835-5.241,4.27-1.675,1.166-3.355,2.323-5.025,3.5-.323.219-.674.395-1,.6q-1.175.689-2.343,1.383c-1.543.919-3.086,1.79-4.676,2.621l.088-.049a72.476,72.476,0,0,1-8.468,3.738q-1.537.539-3.1.983c1.073-.545,2.146-1.114,3.237-1.629.436-.206.854-.465,1.272-.7.63-.347,1.26-.695,1.884-1.048.913-.506,1.79-1.078,2.679-1.62.836-.512,1.643-1.042,2.456-1.59.842-.565,1.7-1.112,2.514-1.719q.929-.7,1.867-1.4c.347-.253.724-.494,1.054-.782.93-.825,1.89-1.626,2.832-2.432.807-.689,1.531-1.467,2.285-2.214.356-.355.69-.73,1.035-1.095l2.393-1.905c.429-.342.83-.707,1.23-1.072.925-.836,1.849-1.678,2.774-2.515.553-.5,1.136-.989,1.666-1.519.607-.6,1.213-1.2,1.82-1.79,1.207-1.2,2.437-2.373,3.609-3.6q1.351-1.431,2.715-2.85c.406-.429.836-.848,1.225-1.3q2.031-2.349,4.074-4.687c.448-.513.854-1.072,1.278-1.6.766-.978,1.537-1.949,2.3-2.926,1.042-1.331,2.008-2.715,2.991-4.081.948-1.314,1.884-2.62,2.773-3.975.748-1.143,1.5-2.284,2.25-3.421.347-.524.706-1.042,1.03-1.578,1.1-1.837,2.22-3.663,3.327-5.5.7-1.159,1.35-2.359,2-3.555C321.978,189.05,321.221,190.753,320.493,192.468Zm18.2-62.7c0,.046,0,.091-.008.137l0,.1v-.048c-.113,2.028-.367,4.03-.665,6.034-.009-1.064-.015-2.131-.02-3.193,0-.624.018-1.26-.018-1.879-.064-1.047-.123-2.1-.188-3.138q-.088-1.493-.177-2.98c-.041-.706-.147-1.407-.224-2.108-.194-1.79-.371-3.574-.641-5.352-.271-1.8-.524-3.6-.848-5.382q-.536-2.978-1.118-5.94l.024.085c.353,1.26.665,2.532,1,3.8.525,2.073,1.039,4.146,1.5,6.235a72.175,72.175,0,0,1,1.3,8.4,45.511,45.511,0,0,1,.083,5.313Z"/><path d="M297.569,232.33l0,0-.023.023Z"/><path d="M71.1,232.541l-.014,0-.035-.006Z"/><path d="M196.671,16.588l-.036.041-.026.031C196.63,16.637,196.65,16.612,196.671,16.588Z"/><path d="M197.817,15.2l.009-.011-.045.059c.021-.03.042-.055.064-.082l-.013.017Z"/><path d="M284.38,50.132l.017.01.04.023Z"/><path d="M213.562,62.865c.017.014.033.031.05.046l.08.066C213.65,62.942,213.6,62.9,213.562,62.865Z"/><path d="M117.127,135.187c.725.011,1.455.035,2.179.047.276,0,.567.022.855.022a3.455,3.455,0,0,0,.688-.058,1.9,1.9,0,0,0,1.448-1,1.5,1.5,0,0,0-.6-2.014c-.044-.023-.094-.032-.14-.051.165-.141.328-.285.5-.419a1.686,1.686,0,0,0,.62-1.059,2.365,2.365,0,0,0,.437-1.091,3.3,3.3,0,0,0-.583-2.026,17.409,17.409,0,0,0-2.95-3.291c-.972-.866-1.914-1.773-2.915-2.6.059.047.118.094.171.141-1.145-1.02-2.3-2.038-3.479-3.021-.587-.538-1.206-1.049-1.809-1.571-.654-.572-1.3-1.149-1.961-1.708-1.3-1.095-2.544-2.244-3.821-3.356-2.5-2.167-4.958-4.394-7.555-6.455-1.419-1.118-2.839-2.237-4.275-3.338-1.247-.958-2.476-1.944-3.728-2.9-.806-.676-1.607-1.35-2.42-2.02l.177.141c-1.243-1.077-2.462-2.2-3.657-3.326-1.161-1.093-2.311-2.2-3.412-3.36-.517-.586-1.034-1.173-1.528-1.776-.121-.146-.233-.3-.349-.448.231-.561.448-1.127.688-1.684.049-.1.1-.2.149-.3A1.83,1.83,0,0,0,80,86.5a1.2,1.2,0,0,0-1.611-1.712l.015-.013c-.024.015-.046.032-.069.049a1.22,1.22,0,0,0-.17.145,4.269,4.269,0,0,0-.815,1.436l-.013.03a4.572,4.572,0,0,0-.63-.58,2.694,2.694,0,0,0-2.108-.465,4.189,4.189,0,0,0-2.385,1.719A21.349,21.349,0,0,0,70.5,89.828a42.73,42.73,0,0,0-1.926,4.063c-.394.936-.783,1.878-1.177,2.82-.3.719-.548,1.455-.825,2.179-1.154,3.062-2.261,6.147-3.227,9.275-.983,3.2-1.919,6.4-2.738,9.644-.394,1.561-.753,3.133-1.06,4.711a5.985,5.985,0,0,0,.236,4.14,11.412,11.412,0,0,0,2.064,2.265c.1.116.2.236.3.363.043.07.085.141.126.214a3.774,3.774,0,0,0,.665,1.092,3.251,3.251,0,0,0,1.243.794,10.157,10.157,0,0,0,1.242.366,11.68,11.68,0,0,0,1.42.792,35.2,35.2,0,0,0,7.878,2.434,1.686,1.686,0,0,0,1.2,1.184,1.662,1.662,0,0,0,1.683-.586c.375.078.75.155,1.124.236,1.49.318,2.968.689,4.451,1.03,1.908.436,3.816.848,5.724,1.272a1.53,1.53,0,0,0,.341.038,1.5,1.5,0,0,0,.366-2.953c-1.9-.459-3.8-.892-5.7-1.319q1.563.12,3.126.238c1.573.124,3.151.271,4.723.36,1.59.088,3.174.253,4.758.323-.059,0-.124,0-.183,0,1.412.08,2.83.16,4.248.224h-.031l.064,0c1.263.081,2.534.086,3.8.122.487.022.98.022,1.467.016.218,0,.442,0,.666.006.606,0,1.213.011,1.819.011,1.6.007,3.2-.011,4.805-.017C114.483,135.157,115.808,135.169,117.127,135.187Zm-50.395-8.854.024.068-.006-.01C66.743,126.372,66.738,126.352,66.732,126.333ZM83.144,97.754a12.788,12.788,0,0,0-.74,1.452c-.013.032-.025.065-.038.1.045-.723.077-1.447.112-2.171Zm20.122,30.632a6.254,6.254,0,0,0,.521-2,9.6,9.6,0,0,0-.727-4.241q.516.374,1.039.738c1.119.789,2.238,1.584,3.4,2.32.479.3.957.592,1.454.86.909.737,1.823,1.469,2.732,2.209q-.7-.138-1.4-.248c-1.066-.171-2.137-.395-3.209-.483-.483-.042-.966-.053-1.449-.053a3.894,3.894,0,0,0-1.195.159,2.343,2.343,0,0,0-1.069.738Zm-16.909-25.1c.213.755.429,1.509.656,2.259-.077.363-.148.727-.229,1.09-.126.26-.254.52-.382.78a7.119,7.119,0,0,0-1.564,1.22l0,0c-.038-.018-.078-.036-.119-.051a1.592,1.592,0,0,0-.448-.1c.291-1.43.582-2.86.863-4.29q.23-1.165.442-2.331c.082-.46.17-.919.247-1.384.015-.093.032-.189.049-.282.221.187.444.371.666.558a2.2,2.2,0,0,0-.336.943A4.974,4.974,0,0,0,86.357,103.287ZM81.239,128.14c.036-.146.068-.294.108-.438.267-.809.607-1.59.948-2.369.2-.407.392-.816.57-1.232.087-.182.18-.36.268-.541a1.3,1.3,0,0,0,.214.218c-.062.277-.12.554-.169.833a23.785,23.785,0,0,0-.253,2.5,1.427,1.427,0,0,0,.364,1.065Q82.265,128.157,81.239,128.14Zm4.283.014.006.058h-.111C85.452,128.191,85.489,128.176,85.522,128.154Zm7.719-.817c.43-.742.813-1.507,1.19-2.273q.158-.321.312-.642.173.675.341,1.349a12.063,12.063,0,0,0,.6,1.985c.083.183.17.372.263.56-.615,0-1.229-.006-1.845-.013-.5-.006-1-.008-1.5-.013A10.466,10.466,0,0,0,93.241,127.337ZM77.61,92.177c.856.982,1.75,1.917,2.668,2.84a5,5,0,0,0-.118,1.162c-.023.448-.041.895-.065,1.343-.029.695-.094,1.395-.141,2.1-.1,1.466-.247,2.933-.388,4.4-.1,1.059-.23,2.114-.361,3.169-.355,1.534-.712,3.069-1.029,4.609-.165.831-.354,1.661-.5,2.5-.165.978-.335,1.955-.5,2.939-.118.689-.222,1.383-.32,2.077-.15.579-.3,1.157-.467,1.732a3.733,3.733,0,0,0-.309,1.631,1.9,1.9,0,0,0,.239.743q-.04.355-.074.712c-.053.559-.118,1.119-.153,1.678a5.525,5.525,0,0,0,.024,1.425,3.1,3.1,0,0,0,.153.618l0,.005-.047.155c-.8-.026-1.6-.069-2.393-.069.064.006.123.006.182.012-.877-.048-1.761-.077-2.632-.159-.7-.068-1.393-.163-2.087-.274-.354-.062-.708-.137-1.054-.233-.253-.089-.5-.187-.746-.292.026.012.051.025.077.039-.027-.013-.054-.028-.082-.041l-.083-.036.081.034c-.107-.053-.212-.107-.314-.164-.076-.049-.15-.1-.223-.157l-.081-.075-.047-.064-.04-.072c-.02-.047-.042-.095-.061-.14-.02-.062-.041-.123-.057-.186s-.021-.111-.034-.167-.006-.135-.005-.2c.014-.137.031-.271.051-.4.107-.549.235-1.087.389-1.621.08-.266.161-.528.241-.79-.006.024-.013.047-.018.07,1.726-5.182,3.457-10.364,5.129-15.569.786-2.447,1.5-4.918,2.2-7.392q.762-2.056,1.536-4.111.715-1.889,1.444-3.778ZM62.218,125.088q-.006-.052-.009-.1l-.009-.036.008.031c0-.023,0-.046,0-.07,0,.033.006.065.008.1l.012.057-.012-.05C62.217,125.036,62.218,125.061,62.218,125.088Zm.374.6c-.067-.079-.131-.158-.194-.24-.024-.039-.048-.079-.07-.119s-.046-.1-.066-.152c-.01-.029-.019-.06-.027-.089-.01-.062-.019-.124-.029-.185-.005-.1-.009-.208-.006-.309.017-.231.043-.46.073-.691.364-2.04.879-4.04,1.4-6.046.493-1.878,1.015-3.756,1.584-5.61l-.006.016c.009-.026.017-.053.026-.079s.017-.055.026-.082c.027-.087.054-.175.082-.262-.008.023-.015.047-.022.069q.459-1.466.913-2.944c-.018.065-.036.13-.053.189.014-.051.029-.1.045-.151l-.01.033c1.641-4.953,3.4-9.871,5.489-14.656a40.473,40.473,0,0,1,2.229-4.273,14.449,14.449,0,0,1,.906-1.247l.059-.064c-.3,1.048-.538,2.116-.81,3.164-.377,1.454-.742,2.909-1.142,4.351-.424,1.537-.831,3.08-1.29,4.6l-.059.2q-1.108,3.018-2.195,6.04c-.56,1.549-1.084,3.109-1.626,4.664q-.708,2.043-1.352,4.107l0-.015c-.766,2.432-1.519,4.865-2.226,7.314-.314,1.087-.586,2.185-.809,3.289C63.158,126.238,62.868,125.97,62.592,125.688Zm33.832,6.189c.064,0,.129.006.188.006-2.856-.153-5.706-.4-8.556-.595q-1.29-.086-2.581-.176l.944.023c3.676.091,7.353.121,11.028.17a1.624,1.624,0,0,0,.025.625c-.3-.015-.609-.033-.913-.047.065.006.124.006.188.012Z"/><path d="M229.923,100.28a3.272,3.272,0,0,0-1.372.035c-.518.148-1.03.318-1.536.489-1.891.653-3.775,1.3-5.671,1.937-1.837.618-3.692,1.172-5.553,1.719-3.68,1.078-7.408,2.008-11.088,3.086-3.639,1.066-7.213,2.338-10.77,3.663l.028-.009q-2.252.79-4.479,1.64l.013,0c-.226.081-.453.162-.679.24.053-.019.106-.036.165-.053q-1.828.635-3.645,1.283l.159-.053c-.164.057-.329.118-.5.175.029-.01.057-.021.086-.033-.073.025-.145.051-.218.078l.077-.026-.095.034-.064.025c.017-.008.035-.015.052-.021-.084.029-.168.06-.252.09l.052-.022c-.139.052-.274.1-.412.15.034-.013.067-.027.1-.038l-.427.152.039-.016-.442.159.159-.053c-.948.335-1.9.665-2.838,1l.159-.054c-.117.043-.235.085-.352.124-.075.028-.152.055-.225.083l.014-.007c-1.195.4-2.375.861-3.554,1.3l-.57.064c.094-.006.188-.018.282-.024-.329.024-.647.083-.971.136l-1.89.3c-.866.142-1.744.254-2.6.442.088-.024.182-.042.276-.065-.138.032-.273.059-.408.089l.149-.03c-.084.019-.17.036-.256.054l-.02.005.014,0-.145.03.036-.009-.172.038c-.035.006-.07.014-.1.021l.022,0-.317.069.022,0-.119.026.05-.01-.108.023-.039.008.015,0c-.3.063-.594.129-.89.19l.085-.018-.211.044.012,0-.081.017-.2.042.028-.005-.464.1a35.933,35.933,0,0,0-5.988,1.836,2.151,2.151,0,0,0,1.1,4.114,4.172,4.172,0,0,0-1.008.932,2.985,2.985,0,0,0-.63,2.509,3.68,3.68,0,0,0,1.466,2.025,34.611,34.611,0,0,0,4.705,2.626c3.315,1.714,6.583,3.534,9.963,5.111,2.214,1.033,4.438,2.046,6.686,3,1.07.55,2.151,1.08,3.248,1.579q.342.156.684.306c1.782,1.149,3.608,2.228,5.452,3.28,2.061,1.172,4.192,2.22,6.294,3.3,1.637.837,3.286,1.631,4.941,2.415.706.335,1.407.677,2.131.977l1.938.795c.347.147.695.3,1.054.412l-.236-.071c.966.325,1.932.677,2.921.948a19.666,19.666,0,0,0,3.2.637c.321.031.639.052.953.052a4.884,4.884,0,0,0,1.968-.37,7.592,7.592,0,0,0,2.508-1.8,5.231,5.231,0,0,0,1.19-2.323,4.339,4.339,0,0,0,1.678-1.723,10.317,10.317,0,0,0,.795-2.185c.471-1.778.883-3.574,1.313-5.364.294-1.248.595-2.5.86-3.751.453-2.132.883-4.257,1.289-6.394.371-1.956.677-3.922,1.007-5.889.636-3.815,1.125-7.661,1.661-11.494.106-.766.182-1.537.276-2.3.118-1,.265-2,.36-3a36.8,36.8,0,0,0,.241-4.022,7.476,7.476,0,0,0-.447-3.055A2.642,2.642,0,0,0,229.923,100.28Zm-61.1,26.163.049-.017-.118.044C168.776,126.462,168.8,126.452,168.822,126.443Zm5.308,4.032a1.71,1.71,0,0,0-.461,1.038l-.192-.1c-1.366-.725-2.744-1.443-4.128-2.131-1.095-.546-2.2-1.069-3.264-1.687l.109-.058c.826-.4,1.673-.734,2.532-1.055l.321-.114a1.307,1.307,0,0,0,.591.941c.618.4,1.254.777,1.9,1.142q1.447.834,2.9,1.663l.076.064A1.744,1.744,0,0,0,174.13,130.475Zm13.385-7.743a6,6,0,0,0-1.19,1.06l-.023.029-.428.033c-.288-.1-.577-.2-.868-.3a1.793,1.793,0,0,0-1.993.532c-1.9.173-3.79.389-5.667.7-.137.023-.273.05-.409.078-.664.007-1.329,0-1.994-.028q-.444-.036-.888-.081c-.008-.029-.017-.058-.024-.089l-.008-.038c1.324-.455,2.65-.9,3.988-1.309,1.225-.371,2.45-.76,3.692-1.066,1.3-.318,2.6-.636,3.916-.93l-.037.006c.623-.128,1.247-.253,1.87-.379q1.682-.067,3.365-.133c-.614.333-1.22.688-1.83,1.024A16.374,16.374,0,0,0,187.515,122.732Zm2.638,10.652q-.546-.192-1.091-.386c.249-.045.5-.095.745-.146q.551.41,1.11.808C190.662,133.569,190.408,133.476,190.153,133.384Zm2.972-6.017q-.513.153-1.029.3l-.344-.237.256-.112,1.123-.489c0,.025-.008.05-.01.076A1.909,1.909,0,0,0,193.125,127.367Zm9.348,16.366c-.838-.3-1.675-.6-2.511-.9a1.5,1.5,0,0,0-.653-1.06c-.3-.218-.612-.424-.929-.622-.357-.25-.711-.507-1.067-.761l-.049-.035c.289.078.577.153.862.235,1.474.416,2.953.827,4.428,1.243l.162.059c-.089.2-.178.405-.268.606A1.543,1.543,0,0,0,202.473,143.733Zm2.224-12.177-.12-.084.4-.527C204.875,131.146,204.782,131.35,204.7,131.556Zm-.217-18.639c.07-.03.147-.054.217-.083-1.548.5-3.079,1.06-4.646,1.508q-1.251.36-2.511.686l2.535-.881c1.007-.353,2.037-.653,3.056-.977,1.1-.352,2.221-.682,3.339-1C205.811,112.432,205.142,112.673,204.48,112.917Zm5.847,32.168q-2.017-.3-4.028-.627a6.089,6.089,0,0,0,1-.9l.017-.02c.326.12.653.24.978.361.719.271,1.431.542,2.138.837.4.169.791.353,1.192.522Q210.974,145.182,210.327,145.085Zm14.339-35.412.3-.332c-.216.367-.42.742-.6,1.132q-.1.213-.2.428c-.053-.008-.106-.016-.161-.022-.108-.013-.217-.022-.326-.029Q224.176,110.264,224.666,109.673Zm-8.169,1.365q.268-.136.538-.272-.46.375-.923.747a1.677,1.677,0,0,0-.22-.155Zm-.869,40.473c-.634-.113-1.263-.253-1.883-.421l-.581-.184.3.073c.863.216,1.728.425,2.6.591C215.918,151.552,215.773,151.532,215.628,151.511Zm.587-17.738q-.512,1.5-1.025,3c-.2.6-.42,1.187-.623,1.781q-.42-.315-.843-.626c.331-1.022.682-2.044,1.06-3.051.28-.75.56-1.5.849-2.245.418-.594.846-1.187,1.238-1.8l-.014.023q.432-.64.857-1.29C217.209,130.968,216.7,132.366,216.215,133.773Zm1.993,14.546a2.553,2.553,0,0,0,.242-.349c.059.132.115.265.168.4C218.481,148.353,218.345,148.337,218.208,148.319Zm.1-30.168a10.194,10.194,0,0,0-1.84,1.849,2.353,2.353,0,0,0-.018-.252c.243-.318.488-.636.728-.955.708-.952,1.439-1.89,2.184-2.817q.713-.332,1.455-.593h0c.582-.2,1.166-.391,1.767-.535-.242.668-.476,1.337-.7,2.012l0,.008,0-.008v0c-.028.045-.058.09-.086.135l.014-.022c-.1.159-.2.317-.3.476-.267.372-.541.74-.818,1.106a1.6,1.6,0,0,0-2.385-.406Zm9.805-1.6c-.418,2.933-.842,5.871-1.308,8.8l.036-.194c-.3,1.645-.57,3.286-.849,4.932-.466,2.578-1,5.161-1.618,7.71-.685,2.816-1.347,5.644-2.169,8.423a8.913,8.913,0,0,0-.852-1.41q-.507-.685-1.077-1.32c.164-.406.319-.818.488-1.23.536-1.3,1.119-2.59,1.607-3.915q.7-1.9,1.3-3.828c.418-1.342.789-2.7,1.1-4.063a27.257,27.257,0,0,0,.718-3.886q.035-.417.057-.836l.008-.03c.159-.571.33-1.148.5-1.725q.423-1.483.854-2.968c.288-.984.482-2,.724-2.992q.291-1.209.565-2.42c.047-.208.094-.418.141-.627Q228.224,115.765,228.11,116.555Zm1.213-10.181c0-.058.006-.124.006-.188-.035.581-.082,1.161-.137,1.739l0-.014a1.706,1.706,0,0,0-1.437-1.218,1.548,1.548,0,0,0-.168-.009,1.827,1.827,0,0,0-.427.052,2.06,2.06,0,0,0,.072-.252q.512-.2,1.015-.4c.366-.1.736-.2,1.1-.314C229.338,105.969,229.332,106.171,229.323,106.374Z"/><path d="M168.268,118.881l.021,0,.006,0Z"/><path d="M221.75,117.068c.042-.065.084-.134.129-.2l-.03.046C221.815,116.964,221.785,117.018,221.75,117.068Z"/><path d="M149.6,148.675c-.1-.831-.188-1.673-.335-2.5-.277-1.531-.448-3.292-1.625-4.434a4.355,4.355,0,0,0-2.75-1.26,8.183,8.183,0,0,0-3.192.447,18.04,18.04,0,0,0-2.692,1.178,1.387,1.387,0,0,0-.982-.253,2.273,2.273,0,0,0-1.013.459,11.236,11.236,0,0,0-1.225,1.019c-.347.324-.695.654-1.036.983-.607.571-1.207,1.142-1.8,1.726l-.789.776-.236.189c-.689.554-1.407,1.084-2.078,1.667-1.361,1.183-2.733,2.349-4.034,3.6-.654.629-1.354,1.236-1.973,1.9-.712.765-1.425,1.524-2.143,2.29-.571.607-1.095,1.26-1.637,1.9-.513.6-1.012,1.213-1.5,1.832q-2.484,2.392-4.987,4.764a14.125,14.125,0,0,0-1.457,1.406,1.453,1.453,0,0,0,1.083,2.45,4.108,4.108,0,0,0,1.4-.247c.158-.056.315-.117.469-.182a2.311,2.311,0,0,0,.426.435,3.933,3.933,0,0,0,2.614.713,13.232,13.232,0,0,0,3.492-.819,29.245,29.245,0,0,0,3.233-1.39c2.067-1.042,4.051-2.225,6.006-3.468q.359-.226.715-.456c.094.095.188.191.28.289.631.722,1.2,1.485,1.764,2.265.436.638.857,1.3,1.345,1.9,1.089,1.354,2.238,2.656,3.368,3.975.624.724,1.243,1.443,1.861,2.167a7.957,7.957,0,0,0,2.226,1.955,4.839,4.839,0,0,0,2.191.6,3.06,3.06,0,0,0,.612-.06,4.7,4.7,0,0,0,2.614-1.4,7.607,7.607,0,0,0,1.525-2.632,15.36,15.36,0,0,0,.725-3.645c.106-1.16.176-2.32.2-3.486q.061-2.924.006-5.836A107.206,107.206,0,0,0,149.6,148.675Zm-2.887,17.853a30.381,30.381,0,0,1-.32,3.326c-.095.469-.2.933-.338,1.39-.077.221-.159.442-.251.655-.053.1-.109.209-.17.31-.1.144-.193.285-.3.425-.041.045-.083.09-.125.133s-.092.075-.14.11-.1.058-.152.089l-.105.046-.047.015-.183.028-.043,0c-.048,0-.095-.009-.143-.016s-.072-.015-.108-.025-.091-.036-.136-.054c-.065-.034-.128-.07-.19-.108l.035.02c-.109-.069-.218-.145-.324-.225a10.8,10.8,0,0,1-.894-.9c-.946-1.054-1.853-2.144-2.781-3.207-1.113-1.277-2.249-2.532-3.256-3.9-.536-.719-1.072-1.431-1.655-2.114-.267-.316-.541-.628-.825-.93.331-.226.662-.454.99-.683l-.013.009c.124-.086.25-.174.372-.262-.07.052-.141.1-.212.152l.369-.259-.033.024.171-.118-.041.03c.258-.174.507-.356.759-.536.191-.126.383-.25.581-.367.122.086.239.172.355.262q.114.108.222.219c.325.377.632.762.92,1.165a37.106,37.106,0,0,1,2.045,3.528l-.03-.061.032.063c.026.052.053.1.08.155-.028-.051-.052-.1-.076-.147.129.258.258.512.388.771a1.9,1.9,0,0,0,1.024.983,1.832,1.832,0,0,0,2.338-2.432,30.1,30.1,0,0,0-3.545-6.03,8.386,8.386,0,0,0-1.655-1.566,3.973,3.973,0,0,0-1.754-.665c-1.358-.194-2.546.644-3.592,1.379q-1.455,1.011-2.928,1.99c-.144-.06-.29-.116-.44-.166-2.1-.7-4.381.036-6.289.954-.511.245-1.014.506-1.514.774.5-.592,1-1.185,1.484-1.781-.047.065-.1.124-.153.189.813-.848,1.555-1.761,2.385-2.579.891-.886,1.811-1.743,2.7-2.633a100.536,100.536,0,0,1,8.413-6.871,33.145,33.145,0,0,1,3.546-2.175c.438-.214.876-.414,1.33-.591.395-.132.794-.25,1.206-.344.094-.018.189-.032.285-.044.119-.011.241-.017.364-.017a3.73,3.73,0,0,1,.38.037l.136.031.106.041.043.023c.029.019.057.038.084.059.037.036.073.07.107.105l.022.026.029.045c.063.136.119.273.174.416.029.092.055.187.077.283a65.432,65.432,0,0,1,.929,7.094c.138,2.082.264,4.158.3,6.246.047,2.749.088,5.5-.024,8.25Z"/></svg>