<svg xmlns="http://www.w3.org/2000/svg" width="100%" height="100%" viewBox="0 0 137.175 204.866">
  <g>
    <path d="M110.253,66.537a40.158,40.158,0,0,0-3.888-9.424A47.965,47.965,0,0,0,93.286,43.056c-5.981-4.462-12.9-8.031-20.333-8.637-6.818-.556-13.655,1.425-19.736,4.557A54.138,54.138,0,0,0,31.6,114.994c6,9.984,15.513,18.848,16.1,30.481a42.877,42.877,0,0,1-.544,7.725,5.287,5.287,0,0,1-.888,2.727,10.08,10.08,0,0,1-1.933,1.466c-3.342,2.5-1.98,8.848,2.093,9.756-2.349,2.313-4.793,4.787-5.636,7.974s.638,7.236,3.85,7.977a7.967,7.967,0,0,0,7.411,12.292,10.845,10.845,0,0,0,10.27,9.473,10.916,10.916,0,0,0,10.155-7.414,2.164,2.164,0,0,1,2.031-1.54A7.155,7.155,0,0,0,79.6,183.569a8.714,8.714,0,0,0,3.035-8.576,20.7,20.7,0,0,1-.959-3.964c-.04-1.61.746-3.118,1.02-4.7a7.646,7.646,0,0,0-2.509-6.971c-.988-.845-2.238-1.486-2.8-2.657a5.84,5.84,0,0,1-.267-3.1c.5-5.252,1.033-10.6,3.126-15.446,5.666-13.111,20.565-19.1,26.6-31.924C112.18,94.885,113.815,79.392,110.253,66.537ZM57.713,197.414l.06.094c-.016-.023-.034-.045-.049-.068Zm8.438.969a3.46,3.46,0,0,1-2.138,1.162,8.879,8.879,0,0,1-4-.963,5.686,5.686,0,0,1-2.446-1.553c-.246-.319-.414-.8-.151-1.1a1.067,1.067,0,0,1,.805-.252l6.982-.2C67.552,195.405,67.286,197.154,66.151,198.383Zm11.187-33.624a5.105,5.105,0,0,1-.219,2.93,16.145,16.145,0,0,0-1.076,2.483c-.336,1.6.589,3.146,1.2,4.66s.766,3.568-.592,4.473c-.863.575-2.063.459-2.9,1.077-1.357,1.006-.868,3.2.158,4.54,1.328,1.737,5.141,5.659.276,5.638l-20.622-.09a6.721,6.721,0,0,1-3.95-.833,2.628,2.628,0,0,1-1.077-1.473c-.644-2.507,3.082-3.778,2.761-6.062-.379-2.688-5.507-2.171-5.462-5.483a3.416,3.416,0,0,1,.813-2.1,33.072,33.072,0,0,1,5.669-5.422,3.849,3.849,0,0,0,1.4-1.849c.667-2.067-1.143-3.238-2.788-3.784-.692-.229-1.427-.425-2.1-.716a1.094,1.094,0,0,1-.034-1.985c4.561-2.11,10.256-.837,15.181.782,1.479.486,3.085,1,4.556.486.618-.214,1.163-.6,1.76-.863a5.224,5.224,0,0,1,5.6.968A5.111,5.111,0,0,1,77.338,164.759ZM63.329,127.982a45.945,45.945,0,0,0-2.393-10.674c-1.53-4.248-3.792-8.275-4.571-12.722-.178-1.014-.2-2.239.622-2.861a2.979,2.979,0,0,1,1.756-.425,51.4,51.4,0,0,1,10.055.746,4.424,4.424,0,0,1,2.872,1.312c.771,1,.592,2.408.375,3.651l-4.6,26.378q-1.15,6.594-2.3,13.189c-.288,1.654-.272,4.63-1.128,6.722a.958.958,0,0,1-1.842-.475C63.29,144.574,64.211,136.131,63.329,127.982Zm43.3-42.377c-.727,9.755-3.6,19.164-10.351,26.533C89.5,119.537,80.628,125.4,76.1,134.621c-3.147,6.414-3.722,13.742-4.244,20.868l-3.017.144q2.712-20.8,7.47-41.267a29.891,29.891,0,0,0,1.163-8.551c-.179-2.882-1.366-5.85-3.755-7.472a12.992,12.992,0,0,0-6.037-1.751,72.571,72.571,0,0,0-8.708-.38c-1.871.031-3.86.175-5.371,1.279a7.076,7.076,0,0,0-2.5,5.453c-.252,5.2,2.765,9.9,4.679,14.736,4.567,11.546,2.919,24.494,1.2,36.791l-4.595.146c.215-7.352.276-14.963-2.615-21.727-2.065-4.834-5.51-8.919-8.636-13.145a66.016,66.016,0,0,1-9.814-17.738,47.609,47.609,0,0,1,1.4-33.592A51.2,51.2,0,0,1,55.584,43.627c6.035-3.23,13.031-5.288,19.738-3.918,4.748.97,8.992,3.573,12.958,6.358,4.581,3.216,9.01,6.805,12.221,11.389,4.323,6.172,6.173,13.828,6.3,21.362C106.846,81.085,106.793,83.354,106.625,85.605Z"/>
    <path d="M70.436,116.564l.006-.026.008-.041C70.445,116.519,70.441,116.541,70.436,116.564Z"/>
    <path d="M136.854,52.723a2.577,2.577,0,0,0-3.487-.989c-.36.2-.715.4-1.074.595-1.391.634-2.841,1.108-4.286,1.611-1.116.334-2.243.653-3.352,1.007a2.6,2.6,0,0,0-1.85,3.12,2.657,2.657,0,0,0,2.471,1.946,2.126,2.126,0,0,0,.655-.1c3.381-1.069,6.821-1.931,9.934-3.7A2.584,2.584,0,0,0,136.854,52.723Z"/>
    <path d="M103.987,33.316a2.525,2.525,0,0,0,1.633.151,2.652,2.652,0,0,0,1.762-1.431c.025-.052.048-.1.07-.149.726-1.258,1.605-2.418,2.382-3.639s3.389-5.593,4.107-6.859a2.565,2.565,0,1,0-4.343-2.731q-1.193,2.1-2.48,4.131c-.853,1.333-3.721,5.694-4.412,7.132A2.59,2.59,0,0,0,103.987,33.316Z"/>
    <path d="M30.1,22.565c.047.054.091.11.137.164l.083.1Z"/>
    <path d="M26.388,26.112l-.22-.26c.35.41.706.809,1.062,1.217.819,1.014,1.624,2.04,2.405,3.085A2.566,2.566,0,0,0,31.7,31.18a2.54,2.54,0,0,0,1.52-.5,2.6,2.6,0,0,0,.528-3.594c-1.113-1.5-2.291-2.941-3.517-4.359-.976-1.148-1.963-2.29-2.946-3.432l.043.048q-1.464-1.714-2.939-3.427a2.578,2.578,0,0,0-3.628-.047,2.613,2.613,0,0,0-.775,1.831,2.688,2.688,0,0,0,.728,1.8c.9,1.049,1.784,2.1,2.686,3.134l-.22-.261C24.25,23.621,25.319,24.863,26.388,26.112Z"/>
    <path d="M2.624,59.546c.755.071,1.5.185,2.247.3,1.217.288,2.422.6,3.627.943,1.362.38,2.725.754,4.115,1.022a2.166,2.166,0,0,0,.407.039,2.574,2.574,0,0,0,.274-5.123l-.046-.011.019,0c-1.8-.367-3.527-1-5.311-1.416-.875-.207-1.743-.441-2.632-.581-.915-.141-1.817-.261-2.745-.314A2.578,2.578,0,0,0,0,56.962,2.6,2.6,0,0,0,2.552,59.54Z"/>
    <path d="M11.88,101.109c-.735.622-1.47,1.29-2.258,1.851l-2.3,1.631c-.731.46-1.461.924-2.2,1.389-1.4.895-3.04,1.67-3.955,3.119a2.579,2.579,0,0,0,.928,3.508,2.5,2.5,0,0,0,1.26.342,2.666,2.666,0,0,0,2.073-1.025c.04-.04.081-.08.123-.118.187-.151.379-.291.577-.426,1.557-.983,3.165-1.894,4.665-2.962.662-.475,1.37-.909,2-1.423.715-.588,1.443-1.169,2.151-1.77a2.7,2.7,0,0,0,1.009-1.717,2.568,2.568,0,0,0-4.075-2.4Z"/>
    <path d="M131.755,116.711a4.461,4.461,0,0,0-.287-.381,13.7,13.7,0,0,0-3.363-2.607l-5.58-3.46c-1.407-.872-3.291-1.731-4.589-.7-1.161.92-.942,2.851.017,3.98a10.443,10.443,0,0,0,3.749,2.317,27.964,27.964,0,0,1,5.416,3.331,9.8,9.8,0,0,0,2.667,1.73C133.226,122.13,133.094,118.7,131.755,116.711Z"/>
    <path d="M65.251,2.545,66.13,19.43c.168,3.212,5.16,2.957,4.992-.26l-.88-16.885C70.075-.927,65.083-.672,65.251,2.545Z"/>
  </g>
</svg>
