<svg xmlns="http://www.w3.org/2000/svg" width="100%" height="100%" viewBox="0 0 74.757 69.584">
  <path d="M38.118,26.236l.558-.175q2.341-.857,4.675-1.7l-.073-.455c-.36-2.327-.781-4.645-1.08-6.972q-.144-1.144-.283-2.289c-.3.873-.588,1.749-.885,2.623C40.075,20.266,39.119,23.262,38.118,26.236Zm13.918,8.309q.877-.752,1.762-1.5c2.441-2.057,4.931-4.048,7.366-6.1,1.52-1.395,3.05-2.776,4.509-4.232-.792.2-1.573.424-2.349.669-4.242,1.433-8.3,3.383-12.42,5.153q.232,1.367.468,2.734Q51.705,32.908,52.036,34.545ZM20.975,38.6q2.464.843,4.854,1.854c.312-.776.616-1.554.906-2.337l.558-1.509c-2.237.662-4.487,1.293-6.755,1.843Zm16.841,8.612c.187-.179.374-.356.563-.533,2.379-2.24,4.882-4.347,7.305-6.542l.519-.469q-.62-3.051-1.239-6.117-.246-1.209-.47-2.423c-1.366.511-2.729,1.032-4.113,1.466q-2.48.774-4.959,1.538c-.445,1.2-.909,2.394-1.355,3.59-.71,1.912-1.451,3.809-2.208,5.7C33.905,44.579,35.877,45.868,37.816,47.209Zm7.8,5.543c1.624,1.124,3.24,2.274,4.838,3.433l.1.071-.019-.062c-.6-2.081-1.2-4.171-1.8-6.261-.27-.931-.511-1.869-.744-2.809q-1.653,1.482-3.312,2.959-.625.56-1.244,1.126Q44.52,51.988,45.614,52.752Zm-19.408,5,.154-.091c.6-.418,1.16-.87,1.712-1.342q1.685-1.473,3.405-2.922l-.342.29q.885-.82,1.75-1.66-.462-.317-.925-.632l.037.023q-1.325-.872-2.685-1.673c-.978,2.462-1.929,4.93-2.9,7.394C26.344,57.339,26.275,57.543,26.206,57.748ZM56.649,69.435c-.174-.038-.356-.083-.545-.137-1.735-.489-3.06-1.847-4.353-3.1a67.264,67.264,0,0,0-12.238-9.412,1.955,1.955,0,0,0-1.3-.4,2.018,2.018,0,0,0-1.019.709,45.643,45.643,0,0,1-11.031,8.547,10.066,10.066,0,0,1-4.359,1.51,4.01,4.01,0,0,1-3.862-2.076,5.935,5.935,0,0,1,.186-4.039,133.285,133.285,0,0,1,5.2-14.542L4.231,40.373C2.341,39.767.094,38.723,0,36.74a3.458,3.458,0,0,1,2.6-3.146,12.806,12.806,0,0,1,4.356-.246c7.1.252,14.048-1.848,20.841-3.926a5.455,5.455,0,0,0,2.271-1.108,5.548,5.548,0,0,0,1.245-2.605A182.2,182.2,0,0,1,38.786,4.2C39.541,2.4,40.615.366,42.541.041A4.048,4.048,0,0,1,46.45,2.187,11.907,11.907,0,0,1,47.7,6.726l2.048,15.047a61.82,61.82,0,0,1,16.994-6.079c2.5-.5,5.533-.66,7.136,1.322,1.712,2.115.657,5.31-.906,7.538a40.683,40.683,0,0,1-7.348,7.4Q60.391,36.374,55.1,40.724a3.373,3.373,0,0,0-1.3,1.638,3.366,3.366,0,0,0,.208,1.769L58.835,59.9C59.671,62.635,62.828,70.782,56.649,69.435Z"/>
</svg>
