<svg xmlns="http://www.w3.org/2000/svg" width="100%" height="100%" viewBox="0 0 39.051 59.024">
  <path d="M38.768,26.08c-.714-1.629-2.741-3.009-5.646-4.836A18.3,18.3,0,0,1,25.031,9.525c-.4-2.006-.474-4.1-1.242-6S21.284-.1,19.24,0C16.1.158,14.793,3.96,13.8,6.94A31.156,31.156,0,0,1,5.164,20.117C2.648,22.386-.563,25.024.084,28.35c.456,2.345,2.7,3.829,4.665,5.182C11.387,38.1,17.341,44.907,17.55,52.96c.045,1.706-.117,3.6.96,4.923,1.754,2.159,5.517,1,7.025-1.34s1.575-5.279,2.112-8.009c1.21-6.145,4.91-11.354,8.848-16.071C38.876,29.61,39.487,27.719,38.768,26.08ZM28.23,32.491a67.606,67.606,0,0,0-5.8,9.021.647.647,0,0,1-1.147.022,39.258,39.258,0,0,0-13.06-13.8.64.64,0,0,1-.089-1.021,51.44,51.44,0,0,0,9.909-12.3.652.652,0,0,1,1.18.134,32.708,32.708,0,0,0,4.326,7.128c2.064,2.631,5,4.231,7.242,6.422a.661.661,0,0,1,.06.862C29.971,30.149,29.092,31.318,28.23,32.491Z"/>
</svg>
