<svg xmlns="http://www.w3.org/2000/svg" width="100" height="100" viewBox="0 0 44.558 103.425">
  <path d="M16.6,73.366l-.9,2.561A.561.561,0,0,0,16.7,76.4Q21.5,68.54,25.945,60.471c3.4-6.169,7.907-12.927,10.286-19.688a1.447,1.447,0,0,0-1.411-1.926c-2.443.088-5.271.863-7.658.821a6.7,6.7,0,0,1-3.089-.6c-2.322-1.249-2.625-4.517-1.908-7.054.48-1.7,2.6-5.813,3.979-9.133a.66.66,0,0,0-1.153-.627c-4.7,6.79-10.544,16.2-14.624,22.758a.791.791,0,0,0,.848,1.191,14.6,14.6,0,0,1,7.427-.252,7.265,7.265,0,0,1,3.1,1.765c2.676,2.611,1.744,5.609.821,8.334Q19.622,64.73,16.6,73.366ZM1.879,102.76C.714,101.552,1,99,1.631,97.164l15.2-44.084c-2.234-1.892-5.595-.47-8.215.836S2.263,56.1.605,53.685C-.812,51.623.53,48.851,1.874,46.741c9.093-14.283,19.264-29.9,28.971-43.773A7.806,7.806,0,0,1,33.35.371a2.685,2.685,0,0,1,3.321.437c.734.948.454,2.3.14,3.46-2.43,8.955-5.627,19.441-8.058,28.4,2.7,1.1,5.713-.564,8.631-.513A7.483,7.483,0,0,1,43.9,36.408c2.047,4.452-1.128,9.92-3.253,13.724q-5.028,9-10.523,17.733-10.736,17.1-23.108,33.1c-1.03,1.332-2.482,2.809-4.11,2.381A2.151,2.151,0,0,1,1.879,102.76Z"/>
</svg>
