<svg xmlns="http://www.w3.org/2000/svg" width="100%" height="100%" viewBox="0 0 50.985 53.174">
  <path d="M47.437,29.756c-.722.079-1.445.121-2.169.133-.211-.006-.423-.012-.629-.035-.7-.113-1.381-.269-2.068-.446A110.14,110.14,0,0,1,31.563,25.4q5.523-3.383,11.026-6.809a3.373,3.373,0,1,0-3.424-5.813c-3.716,2.308-7.421,4.631-11.149,6.916.715-2.424,1.434-4.847,2.187-7.255a56.227,56.227,0,0,1,2.006-5.413c.133-.261.271-.516.414-.768a3.447,3.447,0,0,0,1.5-2.057A3.414,3.414,0,0,0,31.646.126,3.769,3.769,0,0,0,28.23.987a7.075,7.075,0,0,0-1.668,2.265,26.549,26.549,0,0,0-1.15,2.564c-1.045,2.731-1.932,5.506-2.766,8.3-.266.892-.523,1.784-.787,2.676q-.916-1.428-1.832-2.857-1.682-2.6-3.345-5.209C15.89,7.49,15.2,6.172,14.467,4.9c-.136-.254-.27-.512-.4-.771A3.375,3.375,0,0,0,7.979,7.043c.336.645.688,1.28,1.049,1.906.874,1.518,1.731,3.037,2.682,4.507Q13.336,16,14.961,18.528q.425.665.852,1.328l-1.508-.464c-1.186-.368-2.4-.672-3.609-1-1.516-.422-3.027-.859-4.561-1.2A3.361,3.361,0,0,0,2.2,16.75a3.421,3.421,0,0,0-1.22,4.791c1.036,1.783,3.167,2.07,4.991,2.528,3.283.9,6.569,1.81,9.823,2.813-.48.276-.966.546-1.431.841L9.222,30.99c-1.4.886-2.713,1.931-4.048,2.924s-2.6,2.045-3.889,3.073a3.4,3.4,0,0,0-.58,4.733A3.4,3.4,0,0,0,3.383,43a3.291,3.291,0,0,0,2.055-.7c1.124-.895,2.23-1.835,3.38-2.7q1.77-1.307,3.538-2.622c1.582-1.012,3.149-2.065,4.757-3.041-1.385,5.488-2.8,11.347-3.683,15.067a3.4,3.4,0,0,0,2.477,4.075,3.3,3.3,0,0,0,.774.092,3.4,3.4,0,0,0,3.3-2.569c.6-2.52,1.264-5,1.993-7.49.491-1.655,1.5-6.425,2.3-9.963A96.366,96.366,0,0,0,34.558,46.985a3.589,3.589,0,0,0,2.763,1.164,3.257,3.257,0,0,0,1.99-.789,3.389,3.389,0,0,0,.375-4.754c-1.095-1.176-2.116-2.405-3.152-3.635-.984-1.31-2.03-2.593-2.932-3.959-.466-.7-.927-1.4-1.391-2.1,1.575.631,3.154,1.255,4.759,1.81,1.02.348,2.043.68,3.082.979.685.187,1.369.394,2.06.551.276.062.553.117.831.16a18.632,18.632,0,0,0,4.846.074,3.434,3.434,0,0,0,3.191-3.543A3.386,3.386,0,0,0,47.437,29.756Z"/>
</svg>
