<svg xmlns="http://www.w3.org/2000/svg" width="100%" height="100%" viewBox="0 0 222.937 268.235">
  <g>
    <path d="M43.994,111.889c-.936-1.877-1.821-3.778-2.893-5.6-.6-.949-1.241-1.875-1.936-2.762-3.293-3.912-7.582-7.256-9.747-11.913a3.375,3.375,0,0,1,1.574-4.553,3.662,3.662,0,0,1,4.779,1.491c.252.547.529,1.071.823,1.594.289.437.6.856.921,1.268,1.786,2.109,3.743,4.071,5.645,6.076a35.663,35.663,0,0,1,5.418,7.765c.629,1.174,1.176,2.391,1.769,3.583a3.356,3.356,0,0,1-1.575,4.553,3.618,3.618,0,0,1-1.575.353A3.558,3.558,0,0,1,43.994,111.889Z"/>
    <path d="M15.97,67.478a3.338,3.338,0,0,1,1.194-2.33,3.832,3.832,0,0,1,2.575-.838A3.455,3.455,0,0,1,23.063,67.9a3.334,3.334,0,0,1-1.194,2.33,3.837,3.837,0,0,1-2.575.838A3.455,3.455,0,0,1,15.97,67.478Z"/>
    <path d="M63.439,89.247c-1.25-1.429-2.268-3.035-3.4-4.553-1.038-1.4-2.1-2.788-3.158-4.173-1.2-1.58-2.4-3.15-3.575-4.738s-2.259-3.177-3.343-4.809c-2.083-3.15-3.87-6.486-5.648-9.8-1.732-3.22-3.482-6.432-5.186-9.662-1.324-2.514-2.612-5.047-3.917-7.57-.723-1.386-1.427-2.771-2.177-4.139-.824-1.535-1.778-3.044-2.518-4.623a3.39,3.39,0,0,1-.186-2.621,3.458,3.458,0,0,1,2.186-2.1,4.178,4.178,0,0,1,3.621.547,3.644,3.644,0,0,1,1.689,2.971c.514.929,1.058,1.847,1.561,2.773.778,1.439,1.528,2.895,2.278,4.35q2.194,4.236,4.408,8.48,4.351,8.252,8.975,16.375c.927,1.411,1.812,2.855,2.813,4.22,1.26,1.7,2.519,3.4,3.806,5.091,1.2,1.57,2.417,3.123,3.593,4.712,1.131,1.527,2.2,3.1,3.366,4.612.048.055.1.11.144.161a3.326,3.326,0,0,1-.315,4.783,3.708,3.708,0,0,1-2.384.842A3.475,3.475,0,0,1,63.439,89.247Z"/>
    <path d="M71.356,99.225a3.339,3.339,0,0,1,1.2-2.33,3.827,3.827,0,0,1,2.574-.838,3.457,3.457,0,0,1,3.325,3.591,3.339,3.339,0,0,1-1.2,2.33,3.835,3.835,0,0,1-2.575.838A3.456,3.456,0,0,1,71.356,99.225Z"/>
    <path d="M89.62,90.894a42.418,42.418,0,0,1-2.778-6.812c-.834-2.339-1.676-4.659-2.565-6.98-1.637-4.258-3.411-8.464-5.231-12.652-2.42-5.238-4.972-10.414-7.16-15.742a3.38,3.38,0,0,1,2.176-4.324A3.667,3.667,0,0,1,78.6,46.458c.537,1.315,1.083,2.62,1.639,3.926l-.019-.039c1.137,2.446,2.334,4.871,3.464,7.328,1.472,3.211,2.889,6.432,4.278,9.679,1.1,2.577,2.13,5.188,3.139,7.8.528,1.386,1.056,2.771,1.556,4.165.87,2.445,1.672,4.922,2.689,7.313q.261.56.559,1.1l.043.063a3.53,3.53,0,0,1,1.867,3.221,3.377,3.377,0,0,1-1.194,2.33,3.813,3.813,0,0,1-2.575.847C92.037,94.194,90.481,92.429,89.62,90.894Z"/>
    <path d="M64.735,33.67c-.213-.78-.438-1.56-.66-2.34l0,.01c-.713-2.382-1.417-4.764-2.13-7.146-.8-2.639-1.741-5.242-2.371-7.915a3.422,3.422,0,0,1,2.75-4.015,3.587,3.587,0,0,1,4.214,2.612c.14.627.314,1.231.49,1.849,1.615,5.161,3.234,10.33,4.659,15.551a3.408,3.408,0,0,1-2.742,4.015,3.772,3.772,0,0,1-.739.074A3.609,3.609,0,0,1,64.735,33.67Z"/>
    <path d="M112.588,89.557a56.04,56.04,0,0,1-.223-5.727c.028-1.915-.028-3.856.093-5.771.25-3.812.5-7.615.815-11.418q.486-5.757.981-11.514c.287-3.3.7-6.592,1.038-9.883.3-2.841.6-5.665.768-8.515.176-2.991.287-5.974.361-8.974a139.584,139.584,0,0,1,.843-15.617c-.019.15-.046.3-.065.45.25-1.845.5-3.68.769-5.524q.166-1.178.361-2.356A7,7,0,0,1,119.487,1.5a3.729,3.729,0,0,1,4.935-.935,3.338,3.338,0,0,1,1.06,4.583,53.767,53.767,0,0,0-.85,5.369c.017-.114.036-.231.05-.343-.148,1.112-.3,2.223-.454,3.335.028-.15.046-.3.065-.459-.343,3.583-.565,7.148-.658,10.739-.092,3.494-.1,6.988-.305,10.482-.111,1.835-.149,3.68-.334,5.506q-.346,3.4-.694,6.812c-.324,3.194-.723,6.38-1,9.583q-.654,7.557-1.278,15.132c-.2,2.3-.306,4.6-.454,6.892-.123,1.977-.08,3.97-.106,5.948.052,1.643.073,3.279.217,4.913a3.474,3.474,0,0,1-3.278,3.636c-.084.006-.168.009-.251.009A3.546,3.546,0,0,1,112.588,89.557Z"/>
    <path d="M140.494,99.073a3.648,3.648,0,0,1-2.445-1.138,3.432,3.432,0,0,1-.889-2.453c0-3.989,1.167-7.95,2.288-11.78.721-2.456,1.433-4.913,2.163-7.37-.021.078-.041.156-.061.232.972-3.45,1.916-6.909,2.981-10.342,1.149-3.706,2.316-7.411,3.408-11.135-.037.15-.083.291-.12.441.815-2.911,1.583-5.841,2.445-8.735.407-1.377.824-2.745,1.24-4.112a11.1,11.1,0,0,1,1.927-4.218,3.7,3.7,0,0,1,5.019-.318,3.3,3.3,0,0,1,.582,4.457c-.033.064-.065.126-.1.188a64,64,0,0,0-1.94,6.2c.037-.141.083-.291.12-.433-1.167,4.13-2.259,8.295-3.537,12.4-1.321,4.265-2.633,8.531-3.9,12.813.031-.105.058-.208.085-.31q-1.758,6.228-3.588,12.448a67.952,67.952,0,0,0-1.771,7.432,23.439,23.439,0,0,0-.142,2.558,3.508,3.508,0,0,1-3.577,3.182C140.622,99.078,140.558,99.077,140.494,99.073Z"/>
    <path d="M160,31.232a3.418,3.418,0,0,1-2.788-3.988,46.111,46.111,0,0,1,1.861-5.577c.76-1.844,1.621-3.653,2.454-5.47a3.668,3.668,0,0,1,4.769-1.527,3.364,3.364,0,0,1,1.6,4.544c-.546,1.19-1.107,2.388-1.654,3.578-.739,1.794-1.394,3.589-1.963,5.434-.031.116-.063.233-.1.35a3.612,3.612,0,0,1-3.475,2.724A3.782,3.782,0,0,1,160,31.232Z"/>
    <path d="M164.711,108.657a3.62,3.62,0,0,1-2.444-1.138,3.439,3.439,0,0,1-.889-2.453,6.2,6.2,0,0,1,1.176-2.8c.453-.794.963-1.561,1.453-2.338q1.209-1.893,2.492-3.75,3.083-4.434,6.278-8.789c1.954-2.655,4.047-5.223,6.066-7.835,1.938-2.517,3.912-5,5.949-7.448,1.259-1.576,2.528-3.15,3.848-4.685,1.25-1.438,2.362-3.044,4.232-3.794A3.622,3.622,0,0,1,197.41,65.7a3.288,3.288,0,0,1-1.488,3.973c-1.3,1.379-2.493,2.866-3.707,4.321l.277-.344c-1.54,1.912-3.107,3.815-4.675,5.719a318.454,318.454,0,0,0-18.832,25.808c-.216.376-.434.746-.636,1.125a3.682,3.682,0,0,1-3.444,2.357C164.84,108.663,164.776,108.661,164.711,108.657Z"/>
    <path d="M200.936,52.335a3.334,3.334,0,0,1,1.194-2.329,3.832,3.832,0,0,1,2.575-.839,3.456,3.456,0,0,1,3.324,3.592,3.33,3.33,0,0,1-1.194,2.329,3.83,3.83,0,0,1-2.575.838A3.455,3.455,0,0,1,200.936,52.335Z"/>
    <path d="M50.916,241.415a3.338,3.338,0,0,1-.976-4.7c1.641-3.184,3.066-6.471,4.543-9.725.991-2.3,1.94-4.606,2.813-6.957.963-2.595,1.824-5.224,2.852-7.8a3.652,3.652,0,0,1,4.519-2.109,3.384,3.384,0,0,1,2.214,4.307c-1.667,4.182-2.945,8.5-4.742,12.626q-1.431,3.283-2.917,6.539a61.362,61.362,0,0,1-3.371,6.882,3.429,3.429,0,0,1-2.946,1.489A3.717,3.717,0,0,1,50.916,241.415Z"/>
    <path d="M43.887,249.167a3.33,3.33,0,0,1,1.194-2.329A3.829,3.829,0,0,1,47.655,246a3.456,3.456,0,0,1,3.325,3.591,3.335,3.335,0,0,1-1.2,2.329,3.827,3.827,0,0,1-2.574.838A3.454,3.454,0,0,1,43.887,249.167Z"/>
    <path d="M72.833,268.057a3.389,3.389,0,0,1-2.213-4.306c.639-1.747,1.13-3.538,1.658-5.312.518-1.738,1.093-3.476,1.657-5.206,1.075-3.308,2.2-6.617,3.251-9.944,2.231-7.094,4.259-14.241,6.343-21.38.7-2.364,1.4-4.729,2.093-7.094a3.616,3.616,0,0,1,4.519-2.109,3.4,3.4,0,0,1,2.2,4.306c-2.13,7.262-4.186,14.55-6.362,21.8-2.139,7.094-4.556,14.109-6.778,21.185-.63,1.977-1.14,4-1.853,5.947a3.659,3.659,0,0,1-4.519,2.109Z"/>
    <path d="M98.718,261.338a3.419,3.419,0,0,1-2.788-3.988c.722-2.93,1.26-5.9,1.945-8.842.695-2.991,1.259-6,1.871-9.009.574-2.859,1.324-5.674,1.852-8.541.305-1.624.6-3.247.87-4.889a38.775,38.775,0,0,1,.778-3.979,3.6,3.6,0,0,1,4.186-2.656,3.411,3.411,0,0,1,2.787,3.988,35.789,35.789,0,0,0-.769,3.927c-.259,1.588-.546,3.168-.833,4.747-.537,2.832-1.269,5.63-1.843,8.453-.6,3.009-1.167,6.027-1.861,9.018-.713,3.026-1.26,6.1-2.01,9.115a3.589,3.589,0,0,1-3.487,2.722A3.72,3.72,0,0,1,98.718,261.338Z"/>
    <path d="M125.806,232.731a12.536,12.536,0,0,1-.639-2.911c-.112-.714-.21-1.42-.312-2.131-.283-1.8-.612-3.583-.976-5.37-.194-.97-.407-1.941-.6-2.911a24.4,24.4,0,0,1-.426-4.986,3.518,3.518,0,0,1,3.769-3.176,3.625,3.625,0,0,1,2.445,1.138,3.443,3.443,0,0,1,.889,2.453v.292c.021.72.06,1.43.145,2.147.322,1.851.771,3.682,1.124,5.529s.63,3.7.892,5.554l0-.015,0,.025.024.162-.012-.086c.093.63.187,1.259.331,1.88.02.052.038.1.06.156a3.379,3.379,0,0,1-2.176,4.324,3.66,3.66,0,0,1-4.537-2.074Z"/>
    <path d="M132.96,264.966c-.991-3.194-1.722-6.477-2.574-9.715a40.915,40.915,0,0,1-1.76-10.262,3.518,3.518,0,0,1,3.769-3.176,3.623,3.623,0,0,1,2.445,1.138,3.443,3.443,0,0,1,.889,2.453v.035a14.334,14.334,0,0,0,.117,1.608c.453,2.695,1.118,5.348,1.809,7.993.634,2.407,1.234,4.814,1.874,7.214.048.154.1.313.145.471a3.4,3.4,0,0,1-2.176,4.315,3.613,3.613,0,0,1-1.141.181A3.5,3.5,0,0,1,132.96,264.966Z"/>
    <path d="M158.242,244.33a30,30,0,0,1-1.972-4.041c-.519-1.156-.963-2.347-1.389-3.538q-1.515-4.182-2.815-8.436c-.806-2.638-1.454-5.32-2.13-7.985-.352-1.377-.695-2.753-1.047-4.13-.194-.785-.389-1.57-.537-2.365a18.37,18.37,0,0,1-.25-3.414,3.511,3.511,0,0,1,3.76-3.177,3.7,3.7,0,0,1,2.454,1.138,3.466,3.466,0,0,1,.88,2.454v.106c.008.424.037.848.082,1.273.423,2.435,1.143,4.838,1.751,7.233.55,2.2,1.154,4.4,1.741,6.6a111.691,111.691,0,0,0,4.514,12.667c.307.653.605,1.31.931,1.954-.037-.055-.073-.111-.107-.166l.015.025a3.335,3.335,0,0,1-.945,4.7,3.714,3.714,0,0,1-2.013.57A3.416,3.416,0,0,1,158.242,244.33Z"/>
    <path d="M178.827,225.857c-2.426-2.726-3.649-6.132-5.065-9.388-1.359-3.151-2.639-6.344-3.942-9.522-.359-.782-.722-1.562-1.124-2.328a10.277,10.277,0,0,1-1.639-4.756,3.518,3.518,0,0,1,3.769-3.177,3.634,3.634,0,0,1,2.445,1.138,3.233,3.233,0,0,1,.863,1.941l.024.07c.764,1.576,1.641,3.09,2.308,4.7q.916,2.264,1.833,4.509c1.177,2.871,2.413,5.709,3.619,8.561.391.82.805,1.619,1.269,2.4.276.422.556.841.857,1.244l.117.126a3.318,3.318,0,0,1-.315,4.782,3.685,3.685,0,0,1-2.37.835A3.517,3.517,0,0,1,178.827,225.857Z"/>
    <path d="M185.51,234.52a3.338,3.338,0,0,1,1.194-2.33,3.837,3.837,0,0,1,2.575-.838,3.455,3.455,0,0,1,3.324,3.591,3.33,3.33,0,0,1-1.194,2.33,3.835,3.835,0,0,1-2.575.838A3.455,3.455,0,0,1,185.51,234.52Z"/>
    <path d="M22.094,233.293a3.366,3.366,0,0,1-1.6-4.544,95.9,95.9,0,0,1,5.992-10.525c1.833-3.028,3.65-6.08,5.547-9.072,2.185-3.45,4.4-6.883,6.556-10.342a3.685,3.685,0,0,1,4.936-.926,3.339,3.339,0,0,1,.972,4.7c-2.749,4.4-5.58,8.761-8.321,13.167q-2.764,4.572-5.552,9.13a68.946,68.946,0,0,0-3.759,6.883,3.48,3.48,0,0,1-3.211,1.864A3.641,3.641,0,0,1,22.094,233.293Z"/>
    <path d="M203.618,206.208a56.684,56.684,0,0,1-4.5-4.712c-1.3-1.474-2.6-2.939-3.9-4.412-1.287-1.456-2.547-2.938-3.88-4.35-.871-.918-1.732-1.844-2.621-2.735a13.061,13.061,0,0,1-2.389-2.956,5.211,5.211,0,0,1-.6-2.542,3.511,3.511,0,0,1,3.769-3.167,3.66,3.66,0,0,1,2.445,1.129,3.273,3.273,0,0,1,.813,1.623,5.709,5.709,0,0,0,.372.469l-.278-.345c1.445,1.659,3.056,3.177,4.529,4.809,1.148,1.288,2.287,2.586,3.435,3.874,2.282,2.588,4.526,5.227,6.927,7.71.186.17.374.339.565.5a3.321,3.321,0,0,1,.333,4.782,3.743,3.743,0,0,1-2.735,1.153A3.4,3.4,0,0,1,203.618,206.208Z"/>
    <path d="M192.017,133.5a3.31,3.31,0,0,1-.972-4.694,22.3,22.3,0,0,1,4.343-3.838c.945-.724,1.9-1.448,2.843-2.171,1.991-1.518,4.047-3.009,5.973-4.606,4.3-3.556,8.594-7.12,12.835-10.738a3.719,3.719,0,0,1,5.019.3,3.31,3.31,0,0,1-.306,4.782q-6.167,5.241-12.418,10.386c-1.87,1.553-3.834,3-5.769,4.473-1,.768-2.01,1.536-3.019,2.3-1.142.878-2.319,1.716-3.391,2.667-.126.132-.245.268-.359.413l.266-.33,0,0-.107.125a3.837,3.837,0,0,1-3.007,1.494A3.557,3.557,0,0,1,192.017,133.5Z"/>
    <g>
      <path d="M93.93,147a28.514,28.514,0,0,0-2.018,2.221c-4.928,6-7.862,13.686-7.027,21.261s5.792,14.857,13.166,17.8c19.069,7.6,29.032-13.7,25.275-28.285-1.291-5.011-3.582-9.943-7.538-13.466s-9.794-5.4-14.961-3.858A16.822,16.822,0,0,0,93.93,147Z"/>
      <path d="M184.2,164.118c.008-.3,0-.6-.009-.907-.236-5.174-2.438-10.066-4.76-14.749-3.445-6.946-7.267-13.784-12.328-19.764C150.122,108.63,119.94,100.789,93.681,107s-48.162,25.08-60.4,48.073c-2.239,4.207-4.226,8.744-4.02,13.457.214,4.9,2.81,9.469,6.139,13.212,8.344,9.382,20.955,14.212,33.324,17.725,19.065,5.415,39.24,8.545,58.891,5.59a81.037,81.037,0,0,0,34.867-13.639C170.685,185.575,183.925,174.645,184.2,164.118ZM41.542,155.063a88.2,88.2,0,0,1,32.41-33c16.1-9.233,35.922-12.883,54.21-8.754a64.531,64.531,0,0,1,26.685,13.028,57.908,57.908,0,0,1,10.591,11.377c3.86,5.5,4.243,8.631-2.311,3.626-17.828-13.615-40.659-20.635-63.515-17.964-25.376,2.964-48.927,17.783-61.753,38.855Q39.54,158.581,41.542,155.063ZM105.534,130c.834-.017,1.666-.027,2.495-.036,9.779-.1,21.235.622,28.19,8.181,5.47,5.946,6.364,15.839,6.67,23.4a49.777,49.777,0,0,1-7.355,28.333c-1.74,2.782-3.861,5.5-6.856,7.026-2.975,1.52-6.477,1.709-9.851,1.827-7.939.277-15.987.329-23.706-1.463s-15.174-5.619-19.778-11.788c-4.1-5.493-5.639-12.4-5.776-19.14-.276-13.615,6.178-28.473,19.358-33.735C94.134,130.519,99.86,130.113,105.534,130ZM54.679,187.363a29.083,29.083,0,0,1-10.892-7.311c-2.137-2.409-3.749-5.559-3.1-8.653a13.069,13.069,0,0,1,2.527-4.826,112.4,112.4,0,0,1,10.913-12.945c2.088-2.106,6.359-4.746,9.167-7.4a.626.626,0,0,1,1.043.623c-2.409,6.812-4.29,13.819-4.438,20.984-.177,8.532,2.349,17.4,8.478,23.62A91.7,91.7,0,0,1,54.679,187.363Zm122.8-22.817a2.04,2.04,0,0,1,.016.293,4.084,4.084,0,0,1-.98,2.175A76.605,76.605,0,0,1,161.637,182.8a90.355,90.355,0,0,1-9.343,6.507c-1.943,1.179-8.125,3.149-9.19,4.88a59.388,59.388,0,0,0,3.636-55.028,88.483,88.483,0,0,1,29.572,23.232A4.517,4.517,0,0,1,177.482,164.546Z"/>
      <path d="M25.819,130.025l-.046-.039c-.524-.514-1.014-1.05-1.489-1.61l.037.046-.046-.057c-.081-.095-.161-.191-.241-.287.04.044.078.089.116.134a76.768,76.768,0,0,0-6.793-7.317c-2.2-2.077-4.43-4.137-6.638-6.214-1.589-1.554-3.081-3.143-4.52-4.824a3.7,3.7,0,0,0-5.02-.292,3.327,3.327,0,0,0-.315,4.783c.982,1.129,1.936,2.312,3.01,3.353q1.779,1.734,3.584,3.423c1.984,1.865,3.984,3.714,5.961,5.577.793.814,1.646,1.595,2.383,2.453.842.98,1.7,1.95,2.528,2.947,1.71,2.118,3.664,4.483,6.667,4.65.068,0,.134.006.2.006a3.532,3.532,0,0,0,3.568-3.182A3.462,3.462,0,0,0,25.819,130.025Z"/>
    </g>
  </g>
</svg>
