<svg xmlns="http://www.w3.org/2000/svg" width="207.5" height="157.52" viewBox="0 0 207.5 157.52"><path d="M207.393,93.05c.006.076.006.153.012.223-.065-2.149-.159-4.3-.259-6.453q-.061-1.379-.159-2.768c-.077-1.054-.194-2.1-.312-3.156-.112-.972-.253-1.937-.389-2.9-.059-.448-.171-.895-.259-1.342q-.168-.84-.335-1.679c-.095-.482-.236-.953-.354-1.43s-.224-.949-.353-1.414a45.286,45.286,0,0,0-2.468-6.813l.035.074-.111-.245c-.4-.876-.806-1.757-1.2-2.634l0,0c-.036-.07-.065-.135-.1-.206v-.012c-.142-.294-.277-.588-.413-.889-.023-.059-.052-.117-.076-.17-.389-.848-.842-1.661-1.26-2.491-.383-.754-.736-1.531-1.154-2.267-.53-.942-1.06-1.879-1.59-2.821-.4-.7-.771-1.413-1.2-2.09l.02.037c-.952-1.505-1.9-3.02-2.852-4.524.006.018.018.029.024.047-.324-.506-.683-.995-1.025-1.49-.569-.828-1.12-1.669-1.708-2.483q-.637-.97-1.272-1.941c-2.626-4-5.259-7.991-7.944-11.948a52.491,52.491,0,0,0-3.921-5.176A44.305,44.305,0,0,0,171.3,18.8c-.618-.5-1.236-1-1.861-1.5-.318-.259-.63-.536-.965-.777-1.019-.748-2.038-1.49-3.057-2.238-.877-.642-1.819-1.207-2.726-1.8-.394-.253-.777-.535-1.183-.765-.448-.247-.9-.5-1.349-.748-.942-.524-1.872-1.095-2.85-1.554C156.1,8.849,154.9,8.3,153.7,7.731c-.377-.177-.783-.3-1.172-.454-.713-.271-1.425-.536-2.132-.807-.965-.365-1.949-.653-2.938-.954-.948-.288-1.89-.577-2.862-.806-.8-.194-1.584-.383-2.379-.577-.341-.083-.689-.177-1.036-.242l-.459-.083c-.2-.106-.406-.217-.612-.321-.571-.289-1.136-.6-1.725-.842a26.576,26.576,0,0,0-4.163-1.4A33.722,33.722,0,0,0,130.9.578l-2.126-.3c-1.1-.154-2.22-.165-3.327-.254a10.618,10.618,0,0,0-1.142-.017c-.207,0-.407.006-.607.006-.436,0-.877-.006-1.313,0,.041,0,.076,0,.118-.011l-.436.017c.082,0,.165-.006.241-.006-.359.012-.712.024-1.071.042.082-.006.159-.006.241-.012-.333.011-.665.023-1,.04l.043,0c-.2.009-.41.017-.613.023h.036c-3.521.129-7.037.406-10.552.6.083,0,.165-.007.241-.007-1.589.053-3.185.124-4.781.107-1.566-.018-3.15-.059-4.716.017a77.639,77.639,0,0,0-9.349.915l.045-.008c-.253.041-.513.082-.766.13h.01c-.1.016-.209.032-.316.054l.07-.017-.871.146h0l-.038.006-.083.018c.006,0,.006-.006.012-.006-.422.074-.841.157-1.261.236-.548.054-1.093.106-1.643.157s-1.1.07-1.637.152c-.459.071-.924.142-1.383.207-1.043.159-2.091.282-3.121.494q-1.951.4-3.91.789c-.389.083-.771.206-1.16.306l-1.656.436A34.2,34.2,0,0,0,67.455,5.9c-2.138.577-4.246,1.219-6.318,2a52.91,52.91,0,0,0-5.218,2.2c-1.4.707-2.767,1.484-4.1,2.315-1.119.7-2.238,1.431-3.286,2.231-1.018.778-2.043,1.561-3.062,2.338-.812.618-1.572,1.307-2.349,1.967-.73.612-1.449,1.219-2.132,1.878-.595.577-1.189,1.148-1.79,1.72-.306.3-.636.583-.919.907-.824.936-1.666,1.854-2.5,2.779-.583.647-1.131,1.3-1.672,1.984q-1.22,1.52-2.438,3.045c-.748.942-1.443,1.931-2.161,2.891-1.207,1.619-2.4,3.244-3.545,4.9-.047.064-.094.124-.135.188-.1.147-.2.289-.3.436.035-.047.065-.094.1-.141-.107.155-.214.311-.322.466-.157.164-.316.327-.474.492-.341.359-.659.747-.989,1.124-.359.413-.748.813-1.083,1.243-.636.806-1.3,1.59-1.9,2.42-.654.913-1.325,1.808-1.944,2.738-.647.972-1.295,1.937-1.913,2.933-1.208,1.937-2.35,3.909-3.486,5.894-1.031,1.807-2.008,3.651-2.909,5.523-1.949,4.051-3.71,8.191-5.4,12.354q-1.254,3.11-2.308,6.3c-.353,1.066-.648,2.143-.942,3.233-.3,1.065-.513,2.149-.748,3.232-.224,1.06-.383,2.126-.548,3.192-.065.442-.159.883-.2,1.33L.29,93.831q-.079.84-.158,1.678c-.048.5-.042,1-.06,1.5Q.038,98.045,0,99.078c-.012.471.035.948.053,1.419.023.7.047,1.4.077,2.1.011.389.064.771.1,1.16.006.055.012.109.017.164a25.371,25.371,0,0,0,.837,5.748,32.01,32.01,0,0,0,.954,3.639,28.843,28.843,0,0,0,1.743,4.1c.342.66.713,1.3,1.083,1.932.271.465.525.942.813,1.389.789,1.2,1.537,2.421,2.379,3.575a26.216,26.216,0,0,0,5.859,5.941,15.87,15.87,0,0,0,3.527,2.044,15,15,0,0,0,2,.6,19.1,19.1,0,0,0,2.062.33c1.31.145,2.632.25,3.926.5.323.074.636.158.949.253a6.286,6.286,0,0,1,.595.253c.119.062.233.129.347.2h0l.047.029-.016-.007a5.848,5.848,0,0,1,.476.378c.064.065.129.136.188.2a6.613,6.613,0,0,1,.453.624c.148.247.277.5.4.759.212.518.406,1.043.577,1.572-.018-.052-.029-.111-.047-.17.3,1,.594,2,.895,3,.194.63.406,1.26.659,1.866a14.541,14.541,0,0,0,1.09,2.215,17.129,17.129,0,0,0,3.745,4.228,12.036,12.036,0,0,0,1.984,1.366,6.091,6.091,0,0,0,2.255.659,6.343,6.343,0,0,0,4.523-1.631,17.086,17.086,0,0,0,2.867-3.309c.495-.678.99-1.355,1.478-2.038a23.849,23.849,0,0,1,1.508-1.937c.112-.118.224-.23.341-.336.048-.035.1-.07.148-.106s.1-.053.147-.076.076-.03.112-.047c.011.006.023.006.035.012s.047.017.071.023a.021.021,0,0,0,.011.006.466.466,0,0,0,.059.047c.041.041.077.082.112.118.1.13.2.265.283.4.062.1.122.211.177.324.506,1.142.9,2.332,1.33,3.51a19.45,19.45,0,0,0,1.7,3.586,10.272,10.272,0,0,0,.731,1.027c.107.184.207.374.324.553a7.116,7.116,0,0,0,1.831,1.919,5.178,5.178,0,0,0,2.261.813,4.891,4.891,0,0,0,2.3-.3,7.921,7.921,0,0,0,2.267-1.3,22.158,22.158,0,0,0,3.9-4.393A51.161,51.161,0,0,1,72,143.372c.288-.306.589-.6.907-.883.335-.277.683-.536,1.042-.783a17.325,17.325,0,0,1,1.56-.854,3.644,3.644,0,0,1,.395-.151c.055-.007.109-.016.164-.021a4.078,4.078,0,0,1,.457.021c.077.016.157.027.243.049a4.617,4.617,0,0,1,.489.153.235.235,0,0,1-.029-.006,3.189,3.189,0,0,1,.441.248c.118.088.236.182.348.276.188.183.377.377.553.572s.318.418.471.636c.3.5.578,1.01.833,1.535a.525.525,0,0,1-.032-.081c.012.031.023.059.035.087l.012.025-.011-.024.017.041.011.018c.793,1.816,1.363,3.726,2.191,5.523a13.278,13.278,0,0,0,1.614,2.733,6.23,6.23,0,0,0,1.9,1.578,5.6,5.6,0,0,0,4.746.118,9.07,9.07,0,0,0,2.556-1.608,14.042,14.042,0,0,0,1.966-2.214,39.463,39.463,0,0,0,2.556-4.187c.4-.759.8-1.513,1.195-2.273a35.969,35.969,0,0,1,2.179-3.821c.235-.312.478-.609.734-.905.051-.053.106-.1.157-.153h.093c.065.012.136.023.206.029.13.034.256.07.382.111.175.071.345.155.513.243.075.045.149.088.224.135.224.159.436.33.654.512.3.283.588.572.865.884a22.005,22.005,0,0,1,1.359,1.855,62.935,62.935,0,0,1,3.211,6.182c1.631,3.416,3.692,7.526,7.843,8.173a4.672,4.672,0,0,0,.754.059h0a6.8,6.8,0,0,0,2.042.316,7.676,7.676,0,0,0,2.8-.541,7.968,7.968,0,0,0,2.35-1.508,13.221,13.221,0,0,0,1.89-2.12,56.759,56.759,0,0,0,4.24-7.949,15.613,15.613,0,0,1,.818-1.384c.241-.335.5-.654.766-.966.217-.223.435-.429.671-.636.347-.276.706-.535,1.077-.783.4-.235.789-.447,1.2-.653.466-.213.944-.393,1.428-.562.469.009.937.029,1.405.063,2.332.23,4.64.642,6.948.989,1.92.283,3.845.436,5.783.583,1.113.077,2.231.059,3.35.083,1.084.023,2.173-.053,3.257-.077,1.107-.017,2.213-.112,3.315-.182,1.013-.071,2.031-.165,3.044-.271,2.173-.224,4.346-.43,6.507-.713,1.1-.141,2.19-.282,3.285-.483,1.048-.194,2.1-.365,3.145-.624,2.3-.577,4.6-1.16,6.889-1.831,1.1-.33,2.208-.636,3.316-.96a25.814,25.814,0,0,0,7.8-3.315,22.251,22.251,0,0,0,4.823-4.864c.724-.96,1.424-1.925,2.131-2.9a21.921,21.921,0,0,0,1.749-2.714c.188-.36.388-.713.553-1.084a10.473,10.473,0,0,0,.607-1.778c.153-.607.288-1.219.424-1.832.489-2.137.824-4.3,1.136-6.471.3-2.108.572-4.222.748-6.348.177-2.1.218-4.216.212-6.33S207.476,95.152,207.393,93.05Zm-72.94,44.405a17.859,17.859,0,0,0-3.7.7,9.423,9.423,0,0,0-2.767,1.313,8.57,8.57,0,0,0-2.108,2.214,15.118,15.118,0,0,0-1.278,2.55c-.766,1.961-1.5,3.945-2.42,5.841-.306.577-.618,1.143-.972,1.685-.265.359-.536.712-.83,1.048-.177.182-.353.353-.542.518-.206.165-.412.318-.63.465-.118.066-.237.127-.357.184-.106.042-.207.079-.312.116a3.793,3.793,0,0,1-.4.106c-.043,0-.088.01-.132.015-.067-.03-.137-.055-.2-.087-.159-.088-.318-.183-.471-.277-.218-.159-.424-.318-.624-.489a10.8,10.8,0,0,1-.76-.8c-.216-.289-.419-.585-.617-.89a14.931,14.931,0,0,1-.741-1.349h0a24.929,24.929,0,0,1-1.048-2.732c-.536-1.891-1.037-3.781-1.608-5.659a20.616,20.616,0,0,0-1.131-2.962,10.316,10.316,0,0,0-1.613-2.485,5.723,5.723,0,0,0-4.693-2.031,5.309,5.309,0,0,0-1.36.282,10.386,10.386,0,0,0-1.4.648,7.739,7.739,0,0,0-1.15.807,4.909,4.909,0,0,0-1.675.685,12.269,12.269,0,0,0-3.822,4.492c-.889,1.649-1.684,3.339-2.52,5.012-.554,1.024-1.131,2.031-1.773,3-.235.329-.488.653-.759.965-.2.2-.383.4-.589.583-.118.094-.236.183-.359.265a3.9,3.9,0,0,1-.348.189c-.076.029-.153.058-.229.082a1.615,1.615,0,0,1-.177.041c-.041,0-.083.006-.13.006a.845.845,0,0,1-.123-.006c-.059-.006-.118-.017-.177-.029a1.3,1.3,0,0,1-.129-.03l-.136-.053a3.138,3.138,0,0,1-.313-.207c-.121-.088-.24-.178-.352-.275q-.381-.39-.724-.8s0,.006.011.006a17.961,17.961,0,0,1-1.119-1.554c-.423-.7-.8-1.416-1.152-2.157a.189.189,0,0,1-.013-.033c-.012-.028-.026-.055-.04-.084l.01.019c-.324-.707-.606-1.431-.9-2.15-.277-.665-.53-1.336-.836-1.984a13.5,13.5,0,0,0-1.1-2.049,8.4,8.4,0,0,0-1.513-1.649,4.289,4.289,0,0,0-1.8-.8,4.849,4.849,0,0,0-2.25.059,9.85,9.85,0,0,0-1.056.357,8.227,8.227,0,0,0-3.072,1.661,14.421,14.421,0,0,0-1.742,1.8c-.065.073-.137.138-.2.213-.665.771-1.242,1.6-1.837,2.432q-.562.788-1.122,1.572c-.613.826-1.242,1.639-1.929,2.406-.3.307-.607.595-.925.878-.223.177-.441.347-.671.506-.247.152-.5.286-.763.421-.165.073-.331.141-.5.2a4.7,4.7,0,0,1-.5.132c-.165.027-.33.051-.5.065-.139,0-.277.009-.416,0a5.051,5.051,0,0,1-.512-.077c-.119-.03-.234-.071-.349-.111a3.78,3.78,0,0,1-.4-.179c-.064-.036-.125-.075-.191-.11-.182-.136-.359-.277-.535-.424-.018-.017-.034-.036-.052-.053-.2-.336-.394-.674-.566-1.023a45.2,45.2,0,0,1-1.707-4.564c-.224-.671-.442-1.336-.666-2a18.778,18.778,0,0,0-1.654-3.927,4.691,4.691,0,0,0-2.409-2.214,3.331,3.331,0,0,0-3.079.553,16.569,16.569,0,0,0-3.127,3.757c.035-.053.07-.106.106-.159-.212.306-.424.618-.636.924.035-.052.07-.106.106-.158-.083.123-.165.241-.247.365l.1-.159a37.27,37.27,0,0,1-2.5,3.268c-.312.335-.636.653-.978.96-.3.247-.606.477-.924.694-.224.124-.448.242-.677.36-.112.045-.227.091-.34.132l-.072.021a.18.18,0,0,1-.021.008c-.109.028-.218.057-.327.08a3.436,3.436,0,0,1-.543.049c-.054,0-.108,0-.158-.008s-.117-.017-.176-.023c-.083-.024-.171-.048-.248-.077-.058-.023-.117-.053-.176-.076s-.089-.054-.13-.077c-.1-.077-.194-.153-.288-.235-.065-.059-.118-.124-.183-.189-.2-.253-.383-.512-.565-.777-.188-.307-.359-.618-.524-.943-.142-.335-.271-.677-.383-1.024-.106-.4-.188-.8-.265-1.207-.283-1.737-.489-3.474-.683-5.229-.1-.9-.253-1.778-.43-2.662a13.275,13.275,0,0,0-.96-2.9,8.41,8.41,0,0,0-1.507-2.326,10.587,10.587,0,0,0-4.64-2.679c-.878-.265-1.755-.506-2.638-.742-1.608-.424-3.215-.818-4.8-1.3.035.017.076.029.117.047-.406-.147-.818-.277-1.207-.448s-.794-.347-1.189-.524c-.754-.394-1.5-.8-2.226-1.224-.689-.4-1.342-.842-2.014-1.267-.482-.353-1-.683-1.442-1.071-.465-.383-.925-.777-1.39-1.172a31.021,31.021,0,0,1-2.573-2.632,20.484,20.484,0,0,1-1.39-1.873,19.517,19.517,0,0,1-1.142-2.108c-.312-.712-.577-1.436-.819-2.179a24.294,24.294,0,0,1-.622-2.665,27.5,27.5,0,0,1-.314-3.07v.03a26.722,26.722,0,0,1,.065-3.286c.041-.583.088-1.16.141-1.743.177-1.325.353-2.638.577-3.951.212-1.243.489-2.467.754-3.7l-.035.177c.453-1.732.9-3.475,1.448-5.176.559-1.72,1.131-3.428,1.731-5.123,1.443-3.91,2.915-7.814,4.558-11.648.86-2,1.7-4,2.632-5.965s1.894-3.934,2.864-5.886l0,0c.018-.041.041-.083.065-.13.577-1.1,1.118-2.22,1.719-3.309q.575-1.043,1.148-2.085c.265-.477.507-.965.789-1.436l1.149-1.891c.318-.518.612-1.053.948-1.56.706-1.066,1.4-2.149,2.108-3.215.182-.271.365-.536.547-.8-.029.047-.064.094-.094.141l.3-.441c-.029.047-.064.094-.094.141.283-.415.57-.83.856-1.245.819-.858,1.638-1.717,2.476-2.555,1.207-1.2,2.432-2.361,3.657-3.527,2.155-2.043,4.4-4,6.66-5.918,1.431-1.166,2.861-2.343,4.328-3.486,1.6-1.248,3.221-2.473,4.84-3.7,1.507-1.154,3.056-2.243,4.617-3.315,1.542-1.054,3.109-2.066,4.687-3.068,1.572-.942,3.15-1.878,4.758-2.755.747-.412,1.483-.837,2.255-1.2l1.161-.553c1.233-.547,2.474-1.075,3.729-1.569.313-.111.623-.229.94-.329a19.637,19.637,0,0,1,2.1-.51c.294-.042.588-.071.895-.089h.17a.65.65,0,0,0,.106.012,1.2,1.2,0,0,0,1.137.006,1.224,1.224,0,0,0,.611-1.059c.971-.248,1.945-.476,2.929-.671l.237.015c.162.017.325.038.484.065a2.031,2.031,0,0,1,.227.056,1.233,1.233,0,0,0,1.407-.536c1.631-.247,3.256-.494,4.881-.777l-.012,0c.919-.151,1.844-.324,2.768-.492l-.235.036q1.463-.24,2.929-.448c.309,0,.618,0,.927,0,.742.012,1.478.029,2.22.029.848.006,1.7.036,2.544.012,1.678-.059,3.344-.112,5.016-.206,1.614-.088,3.221-.159,4.835-.236,1.03-.011,2.067-.017,3.1-.029,1.089-.012,2.185.029,3.28.041,1.837.03,3.68.083,5.523.124,2.279.059,4.552.135,6.831.235,1.819.077,3.639.218,5.464.365,1.526.2,3.051.36,4.581.56.372.05.743.119,1.114.192.8.373,1.585.773,2.373,1.17l-.212-.106c3.151,1.667,6.26,3.421,9.357,5.194,1.655.948,3.333,1.872,4.941,2.891.806.506,1.636.989,2.426,1.525.727.507,1.467,1.013,2.207,1.508l.024.017c.059.041.112.077.171.112a1.226,1.226,0,0,1-.147-.094c2.844,2.043,5.635,4.169,8.4,6.312,1.531,1.2,3.044,2.414,4.551,3.639,1.231,1,2.4,2.073,3.586,3.121.5.489,1,.972,1.508,1.454.353.342.7.684,1.054,1.025.159.153.33.3.477.465.936,1.042,1.908,2.073,2.844,3.115.836,1.031,1.684,2.049,2.526,3.08.707.865,1.355,1.784,2.026,2.679.594.8,1.183,1.59,1.748,2.408.748,1.078,1.479,2.167,2.238,3.227.094.154.194.3.289.454-.047-.071-.089-.141-.136-.212q1.317,2.1,2.656,4.2c0-.006-.006-.012-.006-.018.448.707.83,1.461,1.242,2.191.468.824.947,1.649,1.4,2.479.747,1.755,1.418,3.541,2.028,5.351q.769,2.667,1.561,5.329c.124.418.224.842.324,1.272.271,1.142.535,2.284.807,3.427.194.812.382,1.625.577,2.443.135.56.212,1.143.318,1.714q.493,2.7.983,5.411c.253,1.755.459,3.528.689,5.282.171,1.319.3,2.638.418,3.963.135,1.5.306,2.991.383,4.487.088,1.679.171,3.351.271,5.023v-.035a68.941,68.941,0,0,1-.159,7.7,44.728,44.728,0,0,1-.684,4.476l.006-.019c-.011.047-.023.1-.035.148,0,.011-.006.023-.006.035V114.2a37.113,37.113,0,0,1-1.16,4.034,33.2,33.2,0,0,1-1.548,3.515,1.137,1.137,0,0,1,.058-.123,32.2,32.2,0,0,1-1.772,2.932c-.447.62-.92,1.21-1.423,1.779a17.451,17.451,0,0,1-1.262,1.218c-.683.548-1.384,1.054-2.114,1.531a34.026,34.026,0,0,1-3.551,1.943c-1.348.613-2.744,1.119-4.133,1.637-.5.183-1.019.324-1.52.483-.565.183-1.13.359-1.7.542.058-.018.123-.036.182-.053-1.172.353-2.349.707-3.527,1.042-1.225.354-2.444.736-3.675,1.042-.771.195-1.536.389-2.308.583-.483.124-.965.271-1.449.365l-3.733.707c-.689.077-1.378.159-2.066.235-.472.06-.942.113-1.408.165-.176.024-.359.059-.53.065-1.354.059-2.708.13-4.063.189.065-.006.124-.006.189-.012-.63-.006-1.266-.024-1.9-.036-.224,0-.448,0-.666,0-.412,0-.824,0-1.23-.024q-1.706-.132-3.422-.253c-1.413-.171-2.82-.336-4.222-.512a36.439,36.439,0,0,0-8.585-.407,19.347,19.347,0,0,0-3,.586A20.167,20.167,0,0,0,134.453,137.455ZM158.047,13.336c.43.242.866.483,1.3.719.194.111.406.206.588.329,1.155.754,2.315,1.49,3.463,2.25q.883.645,1.761,1.289c.5.366,1.018.713,1.5,1.1,1.549,1.244,3.1,2.476,4.579,3.807a44.421,44.421,0,0,1,3.263,3.375c-.208-.178-.414-.359-.628-.532-.924-.76-1.837-1.538-2.785-2.268l-2.974-2.32c-1.619-1.26-3.238-2.52-4.9-3.727-1.819-1.319-3.639-2.644-5.541-3.851q-1.72-1.087-3.475-2.126c.672.31,1.346.618,2.014.935C156.817,12.659,157.435,13,158.047,13.336ZM40.309,25.056l-.112.13c.542-.53,1.09-1.054,1.631-1.578s1.066-1.09,1.637-1.578c1.072-.919,2.156-1.832,3.233-2.75l-.018.017c2.08-1.61,4.161-3.22,6.381-4.648l-.011.008a48.376,48.376,0,0,1,5.3-2.909c-.011.006-.029.012-.041.018a.3.3,0,0,0,.047-.024l.03-.011.011,0-.007,0,.027-.012c1.311-.586,2.657-1.093,4-1.6a1.714,1.714,0,0,0-.278,1.131c-.475.25-.954.5-1.413.769-1.119.66-2.249,1.29-3.344,1.979-.077.041-.153.088-.224.135l-.131.082.011-.008c-.219.144-.444.283-.669.427-1.932,1.219-3.863,2.444-5.718,3.78-.942.677-1.9,1.343-2.82,2.044-.989.741-1.973,1.489-2.968,2.219-.96.7-1.884,1.449-2.821,2.179-.83.642-1.643,1.313-2.461,1.973-.766.618-1.513,1.248-2.261,1.884-.323.276-.641.558-.964.833.209-.266.419-.531.641-.784C38.083,27.511,39.22,26.3,40.309,25.056ZM28.6,132.006a9.106,9.106,0,0,0-2.985-1.013c-.642-.106-1.29-.177-1.938-.247-1.3-.153-2.6-.259-3.874-.524q-.531-.133-1.042-.3c-.4-.153-.784-.318-1.167-.5q-.944-.522-1.837-1.131a25.74,25.74,0,0,1-2.253-1.8,25.994,25.994,0,0,1-1.991-2.06l0,.006a.724.724,0,0,1-.094-.112.107.107,0,0,0-.014-.016L11.4,124.3l0,0v0c-.665-.808-1.28-1.652-1.867-2.514a19.716,19.716,0,0,0,1.7,1.277c.983.642,1.967,1.266,2.98,1.861a24.046,24.046,0,0,0,5.847,2.444c2.19.594,4.422,1.089,6.571,1.843.324.129.648.271.966.424a9.217,9.217,0,0,1,.836.494,3.751,3.751,0,0,1,.383.3c.2.188.389.382.571.589.094.117.177.235.259.353a11.537,11.537,0,0,1,.605,1.119c.167.416.32.832.461,1.254.054.2.1.4.146.6-.091-.151-.179-.3-.282-.445A6.337,6.337,0,0,0,28.6,132.006Zm20.875,7.343a3.551,3.551,0,0,0-.639.463c.193-.252.384-.5.592-.747a5.071,5.071,0,0,1,.377-.386c.083-.059.159-.123.248-.177a.314.314,0,0,1,.058-.029c.036-.012.071-.017.1-.029s.07-.006.111-.012c.006.006.012.006.024.006a.637.637,0,0,0,.065.035c.041.029.088.059.141.094s.083.065.124.1l.1.1c.025.031.048.065.073.1A3.985,3.985,0,0,0,49.471,139.349Zm56.836-.964a12.13,12.13,0,0,0-1.288-1.123c.058,0,.117,0,.174,0l.218.036c.079.021.158.037.237.058.109.041.22.081.322.13a4.079,4.079,0,0,1,.471.283c.141.105.277.217.412.335.095.089.183.183.271.283a10.2,10.2,0,0,1,.63.871.821.821,0,0,1-.065-.117c.03.052.065.106.1.164.194.324.377.654.541,1,.283.63.525,1.273.745,1.924-.216-.377-.422-.757-.661-1.122A16.041,16.041,0,0,0,106.307,138.385Zm21.591,6.976c-.512,1.083-1.018,2.167-1.554,3.239a.293.293,0,0,0,.018-.042q-.427.819-.895,1.611c.036-.083.078-.166.113-.249.388-.918.771-1.837,1.13-2.767.4-1.013.771-2.032,1.248-3.015.159-.3.324-.577.5-.854.171-.23.341-.448.524-.665l.006-.006L129,142.6v0c.117-.124.235-.236.353-.348q.286-.226.59-.438a15.806,15.806,0,0,0-1.445,2.333C128.287,144.554,128.093,144.954,127.9,145.361Z"/><path d="M61.38,72.144a31.78,31.78,0,0,0-1.436-6.713,28.9,28.9,0,0,0-2.909-6.1,23.107,23.107,0,0,0-4.069-4.946,10.622,10.622,0,0,0-1.949-1.408c-.277-.23-.572-.447-.854-.671a1.658,1.658,0,0,0-1.478-.271,7.649,7.649,0,0,0-1.307-.265,10.557,10.557,0,0,0-5.777.972,17.392,17.392,0,0,0-4.787,3.721,43.311,43.311,0,0,0-7.161,10.582c-.983,1.99-1.872,4.027-2.726,6.082-.895,2.167-1.69,4.376-2.367,6.625-.677,2.267-1.254,4.563-1.761,6.878a47.188,47.188,0,0,0-1.1,7.136,34.573,34.573,0,0,0-.047,3.5,35.745,35.745,0,0,0,.283,5.618,34.554,34.554,0,0,0,1.5,6.542,30.7,30.7,0,0,0,1.243,3.185,15.5,15.5,0,0,0,1.525,2.574,7.243,7.243,0,0,0,2.061,2.066,8.055,8.055,0,0,0,2.479.96,8.731,8.731,0,0,0,1.831.2,7.671,7.671,0,0,0,1.213-.094,13.372,13.372,0,0,0,2.932-.854,25.275,25.275,0,0,0,2.644-1.2,12.182,12.182,0,0,0,1.4.112,10.392,10.392,0,0,0,3.185-.406,12.891,12.891,0,0,0,2.786-1.178,16.068,16.068,0,0,0,2.685-1.849,21.234,21.234,0,0,0,2.173-2.184,35.036,35.036,0,0,0,3.827-5.359,47.855,47.855,0,0,0,6.018-24.82A43.741,43.741,0,0,0,61.38,72.144ZM45.211,84.263q-.354,1.361-.778,2.7c.006-.041.006-.082.012-.123C44.716,85.989,44.969,85.129,45.211,84.263Zm-.059-20.426c.023-.018.041-.03.065-.048.005.024.017.054.023.077.012.053.029.106.041.165.018.13.036.265.053.4C45.275,64.231,45.217,64.031,45.152,63.837Zm1.919,25.355a53.75,53.75,0,0,0,1.973-7.313c-.035.612-.076,1.218-.128,1.824a40.865,40.865,0,0,1-.666,4.406,44.3,44.3,0,0,1-1.532,5.37c.006-.006.006-.012.012-.018a46.091,46.091,0,0,1-2.1,4.8c-.111.218-.223.43-.341.642-.029-.153-.053-.306-.082-.459-.083-.524-.159-1.054-.242-1.584.142-.306.277-.612.412-.919C45.364,93.726,46.282,91.483,47.071,89.192Zm5.465-14.073a13.979,13.979,0,0,0-.6-3.516c-.365-1.083-.865-2.113-1.278-3.179a1.711,1.711,0,0,0-1.189-1.049c-.065-.506-.141-1.007-.23-1.507a11.788,11.788,0,0,1,.772-.948c1.007-1.054,2.155-1.967,3.268-2.926.188.129.377.259.559.388.136.1.264.2.4.3.09.178.187.353.273.532.289.654.548,1.319.772,2a23.976,23.976,0,0,1,.6,2.538c.029.182.044.366.07.549.048,1.073.129,2.146.175,3.219a60.326,60.326,0,0,1-.152,6.682,67.076,67.076,0,0,1-1.13,6.809c.012-.07.029-.135.041-.206a77.7,77.7,0,0,1-2.567,9.051,63.761,63.761,0,0,1-3.021,7.06c.012-.03.03-.059.041-.088-.222.425-.461.841-.694,1.261-.2.332-.4.662-.619.983-.241.336-.494.665-.765.983a7.818,7.818,0,0,1-.642.619c-.118.094-.241.182-.365.277a1.025,1.025,0,0,0-.1.053c-.071.029-.141.058-.212.082-.253.071-.512.124-.778.171-.182.029-.365.053-.547.082-.059-.153-.124-.3-.183-.447.53-.683,1.031-1.384,1.49-2.114a41.69,41.69,0,0,0,3.221-6.236,43.606,43.606,0,0,0,2.244-6.954,43.865,43.865,0,0,0,1.036-7.214c.077-1.289.118-2.573.141-3.857C52.6,77.386,52.607,76.249,52.536,75.119ZM46.165,56.051c.231-.032.468-.058.706-.076.214-.006.425-.009.642,0,.153.018.3.042.453.071.218.053.43.118.642.188.248.1.483.2.724.313.224.123.436.247.648.388.177.13.348.271.513.412A15.7,15.7,0,0,1,51.576,58.5h0c.018.021.033.043.051.064-.544.5-1.1.985-1.661,1.463-.613.518-1.243,1.036-1.826,1.595-.124-.353-.253-.706-.377-1.059a1.659,1.659,0,0,0-2.514-.742c-.224.165-.459.318-.7.471a5.2,5.2,0,0,0-1.284,0,3,3,0,0,0-.594.135c-.077-.035-.147-.064-.224-.094.023-.03.053-.065.077-.094.317-.389.629-.765.959-1.136l.018-.019a.326.326,0,0,0,.034-.04l-.022.023.024-.026c.01-.011.019-.023.029-.033l-.019.023c.158-.164.313-.329.472-.494A1.387,1.387,0,0,0,45.264,57.4a1.25,1.25,0,0,0-.289-1.06C45.371,56.227,45.763,56.124,46.165,56.051ZM32.721,101.116c-.035.024-.07.047-.111.071s-.089.047-.13.071c-.036-.03-.077-.059-.112-.089-.012-.011-.018-.023-.029-.029.141-.218.282-.436.418-.654C32.745,100.692,32.733,100.9,32.721,101.116Zm.671-9.215q-.1,1.016-.176,2.031c-.147.3-.289.595-.436.889-.247.448-.489.89-.742,1.337.118-.895.242-1.784.354-2.679.435-3.351.989-6.672,1.689-9.981.466-1.6.972-3.2,1.514-4.775-.059.259-.124.523-.183.789q-.662,3.029-1.154,6.088C33.923,87.691,33.6,89.787,33.392,91.9Zm-.759,12.224c.023-.006.047-.006.071-.012.006.095.006.189.011.283-.141.188-.288.371-.447.554-.106.111-.224.223-.342.329-.082.059-.159.118-.241.171-.047.024-.088.047-.136.077a.109.109,0,0,0-.041.011h-.053l-.129-.017c-.065-.018-.124-.036-.189-.053a.284.284,0,0,0-.006-.071c0-.259.018-.512.036-.771s.053-.536.07-.807A2.468,2.468,0,0,0,32.633,104.125Zm3.686.224-.318.495c-.006-.118-.006-.242-.012-.36.159-.247.324-.5.483-.742a38.187,38.187,0,0,0,2.98-5.376c.235-.5.459-1,.677-1.5-.012.224-.024.447-.041.671v.077c-.259.524-.519,1.048-.789,1.572h0A57.156,57.156,0,0,1,36.319,104.349Zm.177-7.158c-.087.123-.173.244-.259.369.088-1.366.182-2.733.306-4.1.765-1.554,1.49-3.132,2.214-4.7.235-.5.465-1.007.683-1.513,0,.4.006.807.018,1.213.029.771.059,1.543.111,2.314-.035.1-.064.2-.1.3q-.53,1.457-1.112,2.9c-.089.17-.177.341-.265.518.029-.059.052-.112.082-.171A26.275,26.275,0,0,1,36.5,97.191Zm3.88,6.64c.047.194.106.388.165.583-.318.394-.642.783-.977,1.154-.224.241-.454.465-.7.689C39.381,105.45,39.888,104.649,40.376,103.831Zm.147-28.524a61.435,61.435,0,0,1-2.108,7.1V82.4a.022.022,0,0,1-.006.018c-.011.03-.022.063-.034.1l.005-.02c-.147.418-.306.83-.471,1.237q.291-1.537.624-3.062l-.018.053c.442-1.979,1-3.916,1.549-5.859.418-1.461.825-2.915,1.3-4.358-.224,1.649-.513,3.292-.872,4.911C40.506,75.378,40.512,75.343,40.523,75.307ZM29.818,78.851c-.012.071-.029.135-.041.206a57.057,57.057,0,0,1,1.878-6.5A45.589,45.589,0,0,1,33.82,67.6c.1-.186.2-.374.3-.558q.764-1.269,1.585-2.485c.019-.025.039-.054.058-.083l.011-.017.005-.007h0l0,0a31.824,31.824,0,0,1,2.3-2.957c.246-.265.512-.51.771-.761C38.213,61.789,37.655,62.9,37.1,64c-.477.96-.96,1.914-1.437,2.874-.741,1.49-1.442,3-2.143,4.517s-1.36,3.026-2.02,4.545c-.329.76-.659,1.514-.989,2.268-.182.423-.371.847-.553,1.271-.174.4-.37.78-.509,1.179C29.567,80.049,29.687,79.449,29.818,78.851Zm-.523,2.64a1.345,1.345,0,0,0,.959,1.23,1.261,1.261,0,0,0,.389.047q-.954,2.64-1.914,5.27c-.151.417-.284.84-.421,1.261.051-.72.1-1.441.162-2.163,0,.006-.006.018-.006.023Q28.776,84.3,29.3,81.491Zm-4.523,11.8c.041-.465.094-.93.153-1.389,0,.088-.006.182-.006.271a36.66,36.66,0,0,0,.365,6.954c.017.1.042.206.06.31-.059.223-.119.445-.178.668-.021.079-.035.16-.056.239-.057-.242-.127-.479-.173-.722a23.031,23.031,0,0,1-.248-2.488A34,34,0,0,1,24.772,93.289Zm1.013,14.916c.42.49.871.952,1.337,1.4-.017.628-.036,1.257-.042,1.886-.041-.082-.084-.162-.123-.244,0,.006,0,.012.011.018C26.521,110.266,26.132,109.241,25.785,108.205Zm8.75,7.113c-.377.112-.754.206-1.137.283-.194.029-.382.053-.571.07-.282.006-.553,0-.836-.017-.271-.036-.547-.077-.812-.13s-.495-.135-.742-.218c-.177-.071-.348-.141-.524-.223-.142-.077-.271-.16-.407-.248l-.235-.183c-.049-.049-.094-.1-.143-.15.475.033.958.081,1.438.081a3.448,3.448,0,0,0,1.3-.218,6.585,6.585,0,0,0,.985-.514c.542.3,1.092.594,1.653.866.247.124.5.242.753.348C35.012,115.153,34.776,115.241,34.535,115.318Zm7.755-5.394a11.677,11.677,0,0,1-1.131.619c-.276.117-.553.223-.842.318a6.846,6.846,0,0,1-.689.159c-.135.023-.276.035-.418.046-.253,0-.506,0-.765-.017-.224-.029-.448-.059-.671-.1-.148-.035-.289-.077-.43-.124-.285-.106-.557-.235-.829-.366a7.022,7.022,0,0,0,.8.038A6.811,6.811,0,0,0,41.86,108a1.731,1.731,0,0,0,1.572,1.044c-.051.046-.1.1-.147.144C42.961,109.447,42.632,109.7,42.29,109.924Zm6.605-.839a18.87,18.87,0,0,1-1.529,1.5,16.091,16.091,0,0,1-1.36,1.008c.6-.513,1.189-1.049,1.76-1.6q1.361-1.3,2.6-2.7C49.9,107.914,49.4,108.506,48.9,109.085Z"/><path d="M135.916,70.138a30.744,30.744,0,0,0-2.061-7.154,16.484,16.484,0,0,0-1.708-3.074c-.182-.247-.376-.495-.583-.73-.471-1.06-1-2.1-1.56-3.1-.289-.513-.6-1.007-.9-1.508a20.6,20.6,0,0,0-1.266-1.955,6.677,6.677,0,0,0-2.65-2.22A6.338,6.338,0,0,0,122,49.988a12.663,12.663,0,0,0-6.466,3.239,39.388,39.388,0,0,0-4.086,4.216c-1.337,1.566-2.627,3.15-3.834,4.816a28.8,28.8,0,0,0-2.526,2.7,37.656,37.656,0,0,0-4.145,6.266,57.7,57.7,0,0,0-3.2,6.93A66.743,66.743,0,0,0,93.9,93.2a47.6,47.6,0,0,0-.459,7.767,34.172,34.172,0,0,0,.948,7.455,26.985,26.985,0,0,0,2.762,6.9,23.554,23.554,0,0,0,2.1,3.05,18.446,18.446,0,0,0,2.32,2.438,12.934,12.934,0,0,0,3.032,1.914,10.212,10.212,0,0,0,3.151.919c.465.041.924.064,1.389.064a14.2,14.2,0,0,0,5.494-1.089c.059-.024.118-.053.177-.077q.343-.079.671-.176a21.8,21.8,0,0,0,6.548-3.133,29.737,29.737,0,0,0,9.157-10.988,38.974,38.974,0,0,0,2.72-7.113,49.325,49.325,0,0,0,1.531-7.626c.071-.582.13-1.171.177-1.76a61.573,61.573,0,0,0,1.06-14.062A52.4,52.4,0,0,0,135.916,70.138ZM125.741,59.05c.235.094.459.2.689.3.294.164.577.335.865.524l.183.129c.041.083.076.159.118.242l-.018-.036c.86,1.873,1.513,3.8,2.19,5.748.042.147.083.3.124.447-.347-.483-.712-.954-1.1-1.413a26.118,26.118,0,0,0-5.3-4.917,11.923,11.923,0,0,0-2.585-1.366.2.2,0,0,1,.029-.006c.453-.071.913-.112,1.384-.141h.181c.422,0,.845.017,1.267.054.365.047.736.106,1.107.176C125.164,58.868,125.452,58.95,125.741,59.05Zm-7.123,37.425a40.493,40.493,0,0,1-2.381,4.026,29.435,29.435,0,0,1-1.879,2.373c-.147-.059-.288-.118-.435-.183-.006,0-.006-.006-.012-.006l-.071-.053a2.385,2.385,0,0,1-.165-.177,2.175,2.175,0,0,1-.194-.265c-.041-.064-.077-.129-.112-.194a.306.306,0,0,1-.029-.082c-.018-.065-.036-.136-.053-.2-.012-.082-.018-.17-.024-.258-.006-.219,0-.436.012-.66v-.012c.813-1.566,1.555-3.168,2.208-4.805a52.387,52.387,0,0,0,2.379-5.4c.218-.594.43-1.2.636-1.8.624-.83,1.29-1.63,1.978-2.414a47.616,47.616,0,0,1-.153,4.952c-.065.672-.153,1.337-.259,2.008C119.624,94.393,119.138,95.441,118.618,96.475Zm-3.229-14.123c-.13,1.325-.3,2.644-.518,3.952-.1.135-.2.276-.3.412a35.031,35.031,0,0,0-2.167,3.456,29.773,29.773,0,0,0-3.044,7.372,14.871,14.871,0,0,0-.495,4.2c-.068.093-.131.188-.194.282a27.943,27.943,0,0,1-1.772,2.256c-.024.024-.042.047-.065.07-.018-.188-.03-.376-.041-.565a34.238,34.238,0,0,1,.053-3.975,50.694,50.694,0,0,1,.953-5.47c-.017.077-.029.153-.047.236.183-.842.371-1.69.566-2.532.1-.3.2-.6.309-.895a44.606,44.606,0,0,1,2.117-5.029,41.7,41.7,0,0,1,2.608-4.245,30.742,30.742,0,0,1,1.938-2.515l.271-.289c-.03,1.166-.1,2.327-.2,3.486C115.371,82.494,115.377,82.423,115.389,82.352Zm-6.03,24.514c.359-.43.7-.871,1.031-1.325.017-.029.041-.059.058-.088a5.506,5.506,0,0,0,.678.642c-.124.088-.248.176-.377.259-.183.106-.371.206-.56.306-.135.053-.276.106-.418.147-.041.012-.088.024-.135.035l-.2.018C109.412,106.86,109.383,106.866,109.359,106.866Zm-.176-40.349v.007c.036-.071.082-.135.12-.206.166-.176.333-.352.5-.524-.376.746-.743,1.5-1.09,2.258-.137.133-.28.259-.414.395C108.58,67.8,108.865,67.151,109.183,66.517Zm-1.543,44.789c-.048.006-.089.017-.13.023-.076.012-.153.018-.224.024s-.141,0-.212-.006a.129.129,0,0,1-.047-.006.02.02,0,0,1-.017-.006c-.03-.012-.053-.029-.083-.041-.053-.047-.106-.088-.159-.129-.112-.118-.218-.236-.324-.354-.023-.029-.047-.059-.07-.094A4.957,4.957,0,0,0,107.64,111.306Zm9.268-47.68c0-.017-.007-.035-.012-.052a6.97,6.97,0,0,0-.543-1.5c.14-.016.279-.036.42-.046.229-.006.459.006.689.012.32.03.63.084.944.142.063.511.134,1.021.174,1.537-.018,0-.037,0-.055,0A7.681,7.681,0,0,0,116.908,63.626Zm2.573-8.262a15.192,15.192,0,0,1,1.4-.777c.265-.112.53-.218.8-.312.212-.059.424-.112.642-.153.1-.012.2-.024.306-.03l.154,0c.123,0,.245,0,.37.008.076.012.159.024.235.041.03.006.053.012.077.018.053.024.106.047.153.071.106.059.212.123.318.194.047.035.094.077.141.112a2.805,2.805,0,0,1,.224.241c.136.165.265.336.389.507-.271-.041-.548-.077-.825-.1a14.077,14.077,0,0,0-4.628.353C119.317,55.476,119.4,55.423,119.481,55.364ZM115.2,117.84c-.512.3-1.024.583-1.56.837-.371.165-.754.318-1.142.453-.283.029-.56.053-.842.071a15.912,15.912,0,0,1-1.679-.042c-.394-.047-.789-.106-1.177-.182-.33-.082-.654-.183-.978-.289-.4-.153-.789-.318-1.172-.506-.014-.007-.027-.016-.042-.023.148.008.3.024.443.024.056,0,.111-.01.167-.012a16.527,16.527,0,0,0,4.043-.018,23.984,23.984,0,0,0,3.751-.772c.53-.153,1.048-.33,1.561-.524C116.131,117.205,115.672,117.528,115.2,117.84Zm16.677-29.224q-.3,1.986-.711,3.936a49.741,49.741,0,0,1-1.5,5.421,31.309,31.309,0,0,1-1.319,3.038.492.492,0,0,0,.026-.043c-.016.032-.031.064-.049.1l-.036.071c.006-.012.012-.029.018-.041a63.323,63.323,0,0,1-3.964,6.55v0c-.312.453-.636.9-.96,1.342-.477.483-.971.948-1.489,1.4a25.156,25.156,0,0,1-2.44,1.791h0a25.952,25.952,0,0,1-2.538,1.384c-.315.142-.638.268-.959.4a31.461,31.461,0,0,0,3.355-4.472,38.9,38.9,0,0,0,2.344-4.186c.648-.931,1.26-1.885,1.855-2.845a41.966,41.966,0,0,0,3.657-7.266,25.459,25.459,0,0,0,1.855-7.643c.029-.589.064-1.213.058-1.849.006-.1.012-.194.018-.294a19.83,19.83,0,0,0-.094-3.645,15.383,15.383,0,0,0-2.244-6.3c-.041-.659-.106-1.313-.206-1.967a14.922,14.922,0,0,0-.983-3.415,13.785,13.785,0,0,0-1.4-2.714,5.062,5.062,0,0,0-2.208-1.879.139.139,0,0,0-.041-.012c-.013-.014-.027-.026-.04-.04a1.253,1.253,0,0,0-.246-.478c-.018-.444-.045-.889-.075-1.335a23.96,23.96,0,0,1,1.9,1.505,26.846,26.846,0,0,1,2.168,2.281,29.194,29.194,0,0,1,1.963,2.675,27.328,27.328,0,0,1,1.545,2.869,33.3,33.3,0,0,1,1.23,3.224l.007.032.028.085,0-.02.014.046.016.048-.009-.023a38.3,38.3,0,0,1,.892,3.821c-.006-.041-.012-.076-.018-.117.012.065.024.129.036.2,0,.012.006.029.006.047a.053.053,0,0,0,0-.019,46.485,46.485,0,0,1,.529,5.089C131.906,86.443,131.912,87.533,131.877,88.616Z"/><path d="M79.87,123.918a5.942,5.942,0,0,0-.106-1.4,11.465,11.465,0,0,0-1.107-3.051,15.563,15.563,0,0,0-1.578-2.5c-.524-.648-1.042-1.3-1.608-1.908-.536-.583-1.071-1.166-1.66-1.7-.324-.294-.642-.595-.984-.871-.153-.124-.306-.248-.459-.365a3.33,3.33,0,0,0-.807-.518,2.394,2.394,0,0,0-1.389-.166l-.124.036a5.033,5.033,0,0,0-2.691-.442,7.74,7.74,0,0,0-4.887,3.215,17.641,17.641,0,0,0-1.8,2.75c-.088.177-.177.348-.265.524-.177.207-.348.413-.513.624a15.984,15.984,0,0,0-1.5,2.279,4.651,4.651,0,0,0-.583,2.049c0,.071,0,.142.006.212a9.92,9.92,0,0,0-1.19,4.859,3.8,3.8,0,0,0,.878,2.337,3.927,3.927,0,0,0,2,1.107,6.017,6.017,0,0,0,4.222-.93,38.461,38.461,0,0,0,3.551-2.285,14,14,0,0,1,1.36-.783,3.313,3.313,0,0,1,.406-.153c.082-.024.171-.041.253-.059s.177-.024.265-.029.2,0,.289.011c.224.024.453.065.677.106.2.053.4.112.6.183.129.053.265.112.388.171-.035-.018-.076-.042-.117-.065.041.023.082.047.123.065.2.112.389.229.583.347a1.138,1.138,0,0,0,.112.082c.136.248.283.483.43.719a4.6,4.6,0,0,0,1.637,1.69,4.347,4.347,0,0,0,1.077.406,3.64,3.64,0,0,0,.4.218,3.083,3.083,0,0,0,.866.536,1.668,1.668,0,0,0,.594.112,1.5,1.5,0,0,0,1.307-.772,1.365,1.365,0,0,0,.183-.512,3.817,3.817,0,0,0,.636-.83,5.341,5.341,0,0,0,.512-1.207,7.184,7.184,0,0,0,.212-1.967A6.115,6.115,0,0,0,80.047,125Q79.984,124.447,79.87,123.918Zm-12.737.618c-.118.059-.235.124-.353.189l.018-.071c.471-.418.924-.866,1.4-1.284.135.053.277.112.418.171.23.124.465.253.695.383A5.63,5.63,0,0,0,67.133,124.536Z"/></svg>